G04 (created by PCBNEW (2013-07-07 BZR 4022)-stable) date 1/23/2016 5:45:45 PM*
%MOIN*%
G04 Gerber Fmt 3.4, Leading zero omitted, Abs format*
%FSLAX34Y34*%
G01*
G70*
G90*
G04 APERTURE LIST*
%ADD10C,0.00590551*%
%ADD11R,0.06X0.06*%
%ADD12C,0.06*%
%ADD13R,0.0236X0.0551*%
%ADD14R,0.055X0.055*%
%ADD15C,0.055*%
%ADD16C,0.063*%
%ADD17C,0.052*%
%ADD18C,0.0984*%
%ADD19R,0.08X0.06*%
%ADD20R,0.06X0.08*%
%ADD21R,0.0165X0.07*%
%ADD22R,0.140945X0.115748*%
%ADD23R,0.0511X0.059*%
%ADD24R,0.059X0.0511*%
%ADD25R,0.0587X0.0587*%
%ADD26C,0.0587*%
%ADD27C,0.0984252*%
%ADD28R,0.016X0.05*%
%ADD29C,0.035*%
%ADD30C,0.019685*%
%ADD31C,0.0629921*%
%ADD32C,0.00984252*%
%ADD33C,0.017*%
%ADD34C,0.0295276*%
%ADD35C,0.0393701*%
%ADD36C,0.0255906*%
%ADD37C,0.0149606*%
%ADD38C,0.00866142*%
%ADD39C,0.01*%
G04 APERTURE END LIST*
G54D10*
G54D11*
X119600Y-101800D03*
G54D12*
X119600Y-100800D03*
X120600Y-101800D03*
X120600Y-100800D03*
X121600Y-101800D03*
X121600Y-100800D03*
X122600Y-101800D03*
X122600Y-100800D03*
X123600Y-101800D03*
X123600Y-100800D03*
X124600Y-101800D03*
X124600Y-100800D03*
X125600Y-101800D03*
X125600Y-100800D03*
X126600Y-101800D03*
X126600Y-100800D03*
X127600Y-101800D03*
X127600Y-100800D03*
X128600Y-101800D03*
X128600Y-100800D03*
X129950Y-86050D03*
X125950Y-86050D03*
X123900Y-88850D03*
X123900Y-84850D03*
X125950Y-87000D03*
X129950Y-87000D03*
X119000Y-85850D03*
X123000Y-85850D03*
X123000Y-84900D03*
X119000Y-84900D03*
X119700Y-95050D03*
X123700Y-95050D03*
X119700Y-94100D03*
X123700Y-94100D03*
X129900Y-88850D03*
X125900Y-88850D03*
X118900Y-91050D03*
X122900Y-91050D03*
X122900Y-91950D03*
X118900Y-91950D03*
X125900Y-89750D03*
X129900Y-89750D03*
G54D11*
X121550Y-96100D03*
G54D12*
X121550Y-97100D03*
X120550Y-96100D03*
X120550Y-97100D03*
X131360Y-106945D03*
X131360Y-110945D03*
X136100Y-110970D03*
X136100Y-106970D03*
X133555Y-96305D03*
X133555Y-92305D03*
X137225Y-91420D03*
X141225Y-91420D03*
X134575Y-96305D03*
X134575Y-92305D03*
G54D13*
X121000Y-108600D03*
X121000Y-110700D03*
X121500Y-108600D03*
X122000Y-108600D03*
X122500Y-108600D03*
X121500Y-110700D03*
X122000Y-110700D03*
X122500Y-110700D03*
G54D14*
X132215Y-107790D03*
G54D15*
X132215Y-108790D03*
X132215Y-109790D03*
X135215Y-109790D03*
X135215Y-108790D03*
X135215Y-107790D03*
G54D14*
X120300Y-93000D03*
G54D15*
X121300Y-93000D03*
X122300Y-93000D03*
G54D14*
X125950Y-92950D03*
G54D15*
X125950Y-91950D03*
X125950Y-90950D03*
G54D16*
X125000Y-88850D03*
X125000Y-84850D03*
G54D15*
X127000Y-90700D03*
X129000Y-90700D03*
X126950Y-87950D03*
X128950Y-87950D03*
G54D17*
X124360Y-89830D03*
X125110Y-90330D03*
X124360Y-90830D03*
X124650Y-93000D03*
X123900Y-92500D03*
X124650Y-92000D03*
G54D18*
X124500Y-107300D03*
X119106Y-107300D03*
X124894Y-112615D03*
X118713Y-112615D03*
G54D14*
X122800Y-89930D03*
G54D15*
X122800Y-88930D03*
X122800Y-87930D03*
X122800Y-86930D03*
X119800Y-86930D03*
X119800Y-87930D03*
X119800Y-88930D03*
X119800Y-89930D03*
G54D19*
X124750Y-105450D03*
X124750Y-104150D03*
X125800Y-105450D03*
X125800Y-104150D03*
G54D20*
X128165Y-109395D03*
X129465Y-109395D03*
X128170Y-112070D03*
X129470Y-112070D03*
X128170Y-110745D03*
X129470Y-110745D03*
G54D12*
X135595Y-96305D03*
X135595Y-92305D03*
G54D14*
X137680Y-95740D03*
G54D15*
X138680Y-95740D03*
X139680Y-95740D03*
X140680Y-95740D03*
X140680Y-92740D03*
X139680Y-92740D03*
X138680Y-92740D03*
X137680Y-92740D03*
G54D14*
X145670Y-90830D03*
G54D15*
X144670Y-90830D03*
X143670Y-90830D03*
G54D21*
X125140Y-111034D03*
X125396Y-111034D03*
X125652Y-111034D03*
X125908Y-111034D03*
X126162Y-111034D03*
X126418Y-111034D03*
X126674Y-111034D03*
X126930Y-111034D03*
X126930Y-108696D03*
X126674Y-108696D03*
X126418Y-108696D03*
X126162Y-108696D03*
X125908Y-108696D03*
X125652Y-108696D03*
X125396Y-108696D03*
X125140Y-108696D03*
G54D22*
X126035Y-109865D03*
G54D23*
X126674Y-112275D03*
X125926Y-112275D03*
X128706Y-108290D03*
X129454Y-108290D03*
G54D24*
X124350Y-110401D03*
X124350Y-111149D03*
X127700Y-106824D03*
X127700Y-106076D03*
X126900Y-106824D03*
X126900Y-106076D03*
G54D25*
X138599Y-98035D03*
G54D26*
X137811Y-98035D03*
G54D27*
X128643Y-84700D03*
X126950Y-84700D03*
G54D28*
X120525Y-105820D03*
X120785Y-105820D03*
X121045Y-105820D03*
X121295Y-105820D03*
X121555Y-105820D03*
X121815Y-105820D03*
X122065Y-105820D03*
X122325Y-105820D03*
X122575Y-105820D03*
X122835Y-105820D03*
X122835Y-103720D03*
X122575Y-103720D03*
X122325Y-103720D03*
X122065Y-103720D03*
X121815Y-103720D03*
X121555Y-103720D03*
X121295Y-103720D03*
X121045Y-103720D03*
X120785Y-103720D03*
X120525Y-103720D03*
G54D17*
X131725Y-94865D03*
X132475Y-94365D03*
X131725Y-93865D03*
G54D11*
X132380Y-89775D03*
G54D12*
X131380Y-89775D03*
G54D14*
X143690Y-88245D03*
G54D15*
X144690Y-88245D03*
X145690Y-88245D03*
G54D25*
X143750Y-93926D03*
G54D26*
X143750Y-94714D03*
G54D15*
X142065Y-95200D03*
X142065Y-93200D03*
G54D11*
X141450Y-101050D03*
G54D12*
X142450Y-101050D03*
G54D11*
X141500Y-110400D03*
G54D12*
X142500Y-110400D03*
G54D11*
X141500Y-108150D03*
G54D12*
X142500Y-108150D03*
G54D11*
X141450Y-102600D03*
G54D12*
X142450Y-102600D03*
G54D11*
X141500Y-105200D03*
G54D12*
X142500Y-105200D03*
G54D29*
X125700Y-106550D03*
G54D30*
X122105Y-102890D03*
X123445Y-108295D03*
X121290Y-104380D03*
X122830Y-103180D03*
X120885Y-106890D03*
X122325Y-107375D03*
G54D29*
X129650Y-107500D03*
X123720Y-112170D03*
X125900Y-112850D03*
X118700Y-98650D03*
X119250Y-98650D03*
X119300Y-99200D03*
X119300Y-111400D03*
X135800Y-98500D03*
X136300Y-98500D03*
X135800Y-98035D03*
X136300Y-98035D03*
X118720Y-99190D03*
X120405Y-111770D03*
X120880Y-102650D03*
X119275Y-105360D03*
X123555Y-106195D03*
X120430Y-106450D03*
X127960Y-105205D03*
G54D31*
X125700Y-107200D02*
X125700Y-106550D01*
X125700Y-107200D02*
X125700Y-107860D01*
X125700Y-107860D02*
X125840Y-107860D01*
X125800Y-105450D02*
X125800Y-106450D01*
X125800Y-106450D02*
X125700Y-106550D01*
X124750Y-105450D02*
X125800Y-105450D01*
G54D32*
X125396Y-108696D02*
X125396Y-107860D01*
X125396Y-107860D02*
X125395Y-107860D01*
X125652Y-108696D02*
X125652Y-107967D01*
X125652Y-107967D02*
X125545Y-107860D01*
X125908Y-108696D02*
X125908Y-107928D01*
X125908Y-107928D02*
X125840Y-107860D01*
X126162Y-108696D02*
X126162Y-108132D01*
X125890Y-107860D02*
X125840Y-107860D01*
X126162Y-108132D02*
X125890Y-107860D01*
X125840Y-107860D02*
X125545Y-107860D01*
X125545Y-107860D02*
X125395Y-107860D01*
X131725Y-93865D02*
X131435Y-93865D01*
X134200Y-101050D02*
X141450Y-101050D01*
X130900Y-97750D02*
X134200Y-101050D01*
X130900Y-94400D02*
X130900Y-97750D01*
X131435Y-93865D02*
X130900Y-94400D01*
G54D33*
X131725Y-93865D02*
X131725Y-92750D01*
X132380Y-92095D02*
X132380Y-89775D01*
X131725Y-92750D02*
X132380Y-92095D01*
G54D32*
X121550Y-97100D02*
X128450Y-97100D01*
X133950Y-102600D02*
X141450Y-102600D01*
X128450Y-97100D02*
X133950Y-102600D01*
X121815Y-103180D02*
X122105Y-102890D01*
X121815Y-103720D02*
X121815Y-103180D01*
X122575Y-105820D02*
X122575Y-106530D01*
X123445Y-107400D02*
X123445Y-108295D01*
X122575Y-106530D02*
X123445Y-107400D01*
X121555Y-105820D02*
X121555Y-105505D01*
X124115Y-101285D02*
X124600Y-100800D01*
X124115Y-102150D02*
X124115Y-101285D01*
X123845Y-102420D02*
X124115Y-102150D01*
X123845Y-104255D02*
X123845Y-102420D01*
X122885Y-105215D02*
X123845Y-104255D01*
X121845Y-105215D02*
X122885Y-105215D01*
X121555Y-105505D02*
X121845Y-105215D01*
X120785Y-104885D02*
X121290Y-104380D01*
X120785Y-105820D02*
X120785Y-104885D01*
X121295Y-103150D02*
X121295Y-102900D01*
X123095Y-101295D02*
X123600Y-101800D01*
X122370Y-101295D02*
X123095Y-101295D01*
X122110Y-101555D02*
X122370Y-101295D01*
X122110Y-102085D02*
X122110Y-101555D01*
X121295Y-102900D02*
X122110Y-102085D01*
X121295Y-103720D02*
X121295Y-103150D01*
X122600Y-101800D02*
X122600Y-101930D01*
X121555Y-102975D02*
X121555Y-103720D01*
X122600Y-101930D02*
X121555Y-102975D01*
X122835Y-103185D02*
X122835Y-103720D01*
X122830Y-103180D02*
X122835Y-103185D01*
X121295Y-105820D02*
X121295Y-107380D01*
X122000Y-108085D02*
X122000Y-108600D01*
X121295Y-107380D02*
X122000Y-108085D01*
X122500Y-107550D02*
X122330Y-107380D01*
X122500Y-108600D02*
X122500Y-107550D01*
X121045Y-106730D02*
X120885Y-106890D01*
X121045Y-106730D02*
X121045Y-105820D01*
X122325Y-107375D02*
X122330Y-107380D01*
X121500Y-108185D02*
X121500Y-108125D01*
X121500Y-108600D02*
X121500Y-108185D01*
X119870Y-106495D02*
X119870Y-106500D01*
X121500Y-108125D02*
X119870Y-106495D01*
X121045Y-103720D02*
X121045Y-104145D01*
X119870Y-104710D02*
X119870Y-106500D01*
X120020Y-104560D02*
X119870Y-104710D01*
X120630Y-104560D02*
X120020Y-104560D01*
X121045Y-104145D02*
X120630Y-104560D01*
G54D33*
X118630Y-104860D02*
X118630Y-105710D01*
X118630Y-103475D02*
X118630Y-104860D01*
X122500Y-110070D02*
X122500Y-110700D01*
X121965Y-109535D02*
X122500Y-110070D01*
X120805Y-109535D02*
X121965Y-109535D01*
X120300Y-109030D02*
X120805Y-109535D01*
X120300Y-107380D02*
X120300Y-109030D01*
X118630Y-105710D02*
X120300Y-107380D01*
X127600Y-100800D02*
X127600Y-100330D01*
X118630Y-100635D02*
X118630Y-103475D01*
X119665Y-99600D02*
X118630Y-100635D01*
X126870Y-99600D02*
X119665Y-99600D01*
X127600Y-100330D02*
X126870Y-99600D01*
X120525Y-103460D02*
X120525Y-103720D01*
X118630Y-103475D02*
X119025Y-103080D01*
X119025Y-103080D02*
X120145Y-103080D01*
X120145Y-103080D02*
X120525Y-103460D01*
G54D34*
X129325Y-106475D02*
X129125Y-106475D01*
X128706Y-107520D02*
X128706Y-108290D01*
X128706Y-107520D02*
X128706Y-107094D01*
X128706Y-106894D02*
X128706Y-107094D01*
X129125Y-106475D02*
X128706Y-106894D01*
X130350Y-107500D02*
X130350Y-106900D01*
X129925Y-106475D02*
X129325Y-106475D01*
X130350Y-106900D02*
X129925Y-106475D01*
G54D35*
X142065Y-95200D02*
X141220Y-95200D01*
X141220Y-95200D02*
X140680Y-95740D01*
G54D34*
X119800Y-89930D02*
X119130Y-89930D01*
X120900Y-84900D02*
X123000Y-84900D01*
X118750Y-87050D02*
X120900Y-84900D01*
X118750Y-89550D02*
X118750Y-87050D01*
X119130Y-89930D02*
X118750Y-89550D01*
X129325Y-106475D02*
X129325Y-100425D01*
X118750Y-92100D02*
X118900Y-91950D01*
X118750Y-97150D02*
X118750Y-92100D01*
X120330Y-98730D02*
X118750Y-97150D01*
X127630Y-98730D02*
X120330Y-98730D01*
X129325Y-100425D02*
X127630Y-98730D01*
X134400Y-108790D02*
X134360Y-108790D01*
X135215Y-108790D02*
X134400Y-108790D01*
X134360Y-108790D02*
X132650Y-110500D01*
X132650Y-110500D02*
X131900Y-110500D01*
X131900Y-110500D02*
X130350Y-108950D01*
X130350Y-108950D02*
X130350Y-107500D01*
G54D32*
X125140Y-108696D02*
X125140Y-109315D01*
X125690Y-109865D02*
X126035Y-109865D01*
X125140Y-109315D02*
X125690Y-109865D01*
X126930Y-108696D02*
X126930Y-109300D01*
X126365Y-109865D02*
X126035Y-109865D01*
X126930Y-109300D02*
X126365Y-109865D01*
X124350Y-110401D02*
X125039Y-110401D01*
X125039Y-110401D02*
X125140Y-110300D01*
X125140Y-111034D02*
X125140Y-110300D01*
X125575Y-109865D02*
X126035Y-109865D01*
X125140Y-110300D02*
X125575Y-109865D01*
X125396Y-111034D02*
X125396Y-110504D01*
X125396Y-110504D02*
X126035Y-109865D01*
X125652Y-111034D02*
X125652Y-110248D01*
X125652Y-110248D02*
X126035Y-109865D01*
X125908Y-111034D02*
X125908Y-109992D01*
X125908Y-109992D02*
X126035Y-109865D01*
X126162Y-111034D02*
X126162Y-109992D01*
X126162Y-109992D02*
X126035Y-109865D01*
X126930Y-111034D02*
X126930Y-110335D01*
X126460Y-109865D02*
X126035Y-109865D01*
X126930Y-110335D02*
X126460Y-109865D01*
G54D34*
X126035Y-109865D02*
X127695Y-109865D01*
X127695Y-109865D02*
X128165Y-109395D01*
X128170Y-112070D02*
X128170Y-110745D01*
X128170Y-110745D02*
X128170Y-109400D01*
X128170Y-109400D02*
X128165Y-109395D01*
X128165Y-109395D02*
X128165Y-108831D01*
X128165Y-108831D02*
X128706Y-108290D01*
G54D32*
X129454Y-107696D02*
X129650Y-107500D01*
X129454Y-108290D02*
X129454Y-107696D01*
G54D36*
X125926Y-112275D02*
X125926Y-112824D01*
X125926Y-112824D02*
X125900Y-112850D01*
X129470Y-112070D02*
X129470Y-112715D01*
X129470Y-112715D02*
X129235Y-112950D01*
X128700Y-112950D02*
X128700Y-112965D01*
X129235Y-112950D02*
X128700Y-112950D01*
G54D32*
X118720Y-98670D02*
X118700Y-98650D01*
X118720Y-98670D02*
X118720Y-99190D01*
X119335Y-111365D02*
X119300Y-111400D01*
X136300Y-98500D02*
X135800Y-98500D01*
X132600Y-95740D02*
X132600Y-96840D01*
X133795Y-98035D02*
X135800Y-98035D01*
X135800Y-98035D02*
X136300Y-98035D01*
X136300Y-98035D02*
X137811Y-98035D01*
X132600Y-96840D02*
X133795Y-98035D01*
X137680Y-95740D02*
X132600Y-95740D01*
X132600Y-95740D02*
X131725Y-94865D01*
G54D33*
X142065Y-93200D02*
X144490Y-93200D01*
X144351Y-94714D02*
X143750Y-94714D01*
X144775Y-94290D02*
X144351Y-94714D01*
X144775Y-93485D02*
X144775Y-94290D01*
X144490Y-93200D02*
X144775Y-93485D01*
G54D32*
X118385Y-99525D02*
X118720Y-99190D01*
X120405Y-111770D02*
X119740Y-111770D01*
X120405Y-111770D02*
X120455Y-111720D01*
X121000Y-111720D02*
X120455Y-111720D01*
X118385Y-110415D02*
X118385Y-106250D01*
X119740Y-111770D02*
X119335Y-111365D01*
X119335Y-111365D02*
X118385Y-110415D01*
X118385Y-106250D02*
X118385Y-99525D01*
X120785Y-103720D02*
X120785Y-102745D01*
X120785Y-102745D02*
X120880Y-102650D01*
X123555Y-106195D02*
X123555Y-105045D01*
X124450Y-104150D02*
X124750Y-104150D01*
X123555Y-105045D02*
X124450Y-104150D01*
X122835Y-105820D02*
X123180Y-105820D01*
X123180Y-105820D02*
X123555Y-106195D01*
X120525Y-106355D02*
X120525Y-105820D01*
X120525Y-106355D02*
X120430Y-106450D01*
X129000Y-90700D02*
X127930Y-90700D01*
X125225Y-91425D02*
X124650Y-92000D01*
X127205Y-91425D02*
X125225Y-91425D01*
X127930Y-90700D02*
X127205Y-91425D01*
X125926Y-112275D02*
X125900Y-112275D01*
X121000Y-111720D02*
X121000Y-110700D01*
X121525Y-112245D02*
X121000Y-111720D01*
X123645Y-112245D02*
X121525Y-112245D01*
X123945Y-111945D02*
X123720Y-112170D01*
X123720Y-112170D02*
X123645Y-112245D01*
X125570Y-111945D02*
X123945Y-111945D01*
X125900Y-112275D02*
X125570Y-111945D01*
X127892Y-105137D02*
X127712Y-105137D01*
X127960Y-105205D02*
X127892Y-105137D01*
X128600Y-101800D02*
X128600Y-104250D01*
X128600Y-104250D02*
X127712Y-105137D01*
X127712Y-105137D02*
X127700Y-105150D01*
X124750Y-104150D02*
X125800Y-104150D01*
X125800Y-104150D02*
X126705Y-104150D01*
X126705Y-104150D02*
X127700Y-105145D01*
X127700Y-105145D02*
X127700Y-105150D01*
X127700Y-105150D02*
X127700Y-106076D01*
X127700Y-106076D02*
X126900Y-106076D01*
G54D34*
X124360Y-90830D02*
X124360Y-91710D01*
X124360Y-91710D02*
X124650Y-92000D01*
G54D32*
X128600Y-100800D02*
X128600Y-101800D01*
X125926Y-112275D02*
X125926Y-112696D01*
X129220Y-112965D02*
X129470Y-112715D01*
X126195Y-112965D02*
X128700Y-112965D01*
X128700Y-112965D02*
X129220Y-112965D01*
X125926Y-112696D02*
X126195Y-112965D01*
X129465Y-109395D02*
X129465Y-108301D01*
X129465Y-108301D02*
X129454Y-108290D01*
X129470Y-110745D02*
X129470Y-109400D01*
X129470Y-109400D02*
X129465Y-109395D01*
X129470Y-112070D02*
X129470Y-110745D01*
X131360Y-110945D02*
X129670Y-110945D01*
X129670Y-110945D02*
X129470Y-110745D01*
G54D37*
X126674Y-111034D02*
X126674Y-112275D01*
G54D33*
X144670Y-90830D02*
X143670Y-90830D01*
X141225Y-91420D02*
X143080Y-91420D01*
X143080Y-91420D02*
X143670Y-90830D01*
G54D34*
X131380Y-89775D02*
X129925Y-89775D01*
X129925Y-89775D02*
X129900Y-89750D01*
X129900Y-89750D02*
X129000Y-89750D01*
X128643Y-86106D02*
X128643Y-84700D01*
X128300Y-86450D02*
X128643Y-86106D01*
X128300Y-89050D02*
X128300Y-86450D01*
X129000Y-89750D02*
X128300Y-89050D01*
G54D33*
X133555Y-92305D02*
X133555Y-93285D01*
X133555Y-93285D02*
X132475Y-94365D01*
X138680Y-96865D02*
X136155Y-96865D01*
X136155Y-96865D02*
X135595Y-96305D01*
X138680Y-95740D02*
X138680Y-94700D01*
X139680Y-93700D02*
X139680Y-92740D01*
X138680Y-94700D02*
X139680Y-93700D01*
X138680Y-95740D02*
X138680Y-96865D01*
X138680Y-96865D02*
X138680Y-97954D01*
X138680Y-97954D02*
X138599Y-98035D01*
X137225Y-91420D02*
X137920Y-91420D01*
X138680Y-92180D02*
X138680Y-92740D01*
X137920Y-91420D02*
X138680Y-92180D01*
X135595Y-92305D02*
X135595Y-92165D01*
X136340Y-91420D02*
X137225Y-91420D01*
X135595Y-92165D02*
X136340Y-91420D01*
X144690Y-88245D02*
X145690Y-88245D01*
X145670Y-90830D02*
X145670Y-88265D01*
X145670Y-88265D02*
X145690Y-88245D01*
X140680Y-92740D02*
X140680Y-93390D01*
X141216Y-93926D02*
X143750Y-93926D01*
X140680Y-93390D02*
X141216Y-93926D01*
G54D34*
X122900Y-91050D02*
X122900Y-91950D01*
X122900Y-91950D02*
X122900Y-92450D01*
X124450Y-93200D02*
X124650Y-93000D01*
X123650Y-93200D02*
X124450Y-93200D01*
X122900Y-92450D02*
X123650Y-93200D01*
G54D37*
X123900Y-92500D02*
X125190Y-92500D01*
X125740Y-91950D02*
X125950Y-91950D01*
X125190Y-92500D02*
X125740Y-91950D01*
G54D34*
X118900Y-91050D02*
X119800Y-91050D01*
X120300Y-91550D02*
X120300Y-93000D01*
X119800Y-91050D02*
X120300Y-91550D01*
X120300Y-93000D02*
X121300Y-93000D01*
X122800Y-87930D02*
X122220Y-87930D01*
X121300Y-88850D02*
X121300Y-93000D01*
X122220Y-87930D02*
X121300Y-88850D01*
X125900Y-89750D02*
X126350Y-89750D01*
X127000Y-90400D02*
X127000Y-90700D01*
X126350Y-89750D02*
X127000Y-90400D01*
X125900Y-88850D02*
X125900Y-89750D01*
X128950Y-87950D02*
X129000Y-87950D01*
X129000Y-87950D02*
X129900Y-88850D01*
X129950Y-87000D02*
X129900Y-87000D01*
X129900Y-87000D02*
X128950Y-87950D01*
X129950Y-86050D02*
X129950Y-87000D01*
X122800Y-88930D02*
X123820Y-88930D01*
X123820Y-88930D02*
X123900Y-88850D01*
X124360Y-89830D02*
X124360Y-89810D01*
X123900Y-89350D02*
X123900Y-88850D01*
X124360Y-89810D02*
X123900Y-89350D01*
X125110Y-90330D02*
X125110Y-88960D01*
X125110Y-88960D02*
X125000Y-88850D01*
X125000Y-88850D02*
X125000Y-87950D01*
X125000Y-87950D02*
X125950Y-87000D01*
X126950Y-87950D02*
X126900Y-87950D01*
X126900Y-87950D02*
X125950Y-87000D01*
X121550Y-96100D02*
X121550Y-94300D01*
X121550Y-94300D02*
X121350Y-94100D01*
X119700Y-94100D02*
X121350Y-94100D01*
X121350Y-94100D02*
X121450Y-94100D01*
X122300Y-93250D02*
X122300Y-93000D01*
X121450Y-94100D02*
X122300Y-93250D01*
X122300Y-93000D02*
X122300Y-92800D01*
X122520Y-89930D02*
X122800Y-89930D01*
X122000Y-90450D02*
X122520Y-89930D01*
X122000Y-92500D02*
X122000Y-90450D01*
X122300Y-92800D02*
X122000Y-92500D01*
G54D37*
X126418Y-108696D02*
X126418Y-108042D01*
X126900Y-107560D02*
X126900Y-106824D01*
X126418Y-108042D02*
X126900Y-107560D01*
X126674Y-108696D02*
X126674Y-108191D01*
X127700Y-107165D02*
X127700Y-106824D01*
X126674Y-108191D02*
X127700Y-107165D01*
X126418Y-111034D02*
X126418Y-111512D01*
X124896Y-111695D02*
X124350Y-111149D01*
X126235Y-111695D02*
X124896Y-111695D01*
X126418Y-111512D02*
X126235Y-111695D01*
X122000Y-110700D02*
X122000Y-110250D01*
X119106Y-109106D02*
X119106Y-107300D01*
X120000Y-110000D02*
X119106Y-109106D01*
X121750Y-110000D02*
X120000Y-110000D01*
X122000Y-110250D02*
X121750Y-110000D01*
X124500Y-107300D02*
X124500Y-108650D01*
X124500Y-108650D02*
X123300Y-109850D01*
X121500Y-111400D02*
X121500Y-110700D01*
X121750Y-111650D02*
X121500Y-111400D01*
X122750Y-111650D02*
X121750Y-111650D01*
X123300Y-111100D02*
X122750Y-111650D01*
X123300Y-109850D02*
X123300Y-111100D01*
G54D36*
X136100Y-106970D02*
X136100Y-109270D01*
X135580Y-109790D02*
X135215Y-109790D01*
X136100Y-109270D02*
X135580Y-109790D01*
X131360Y-106945D02*
X131360Y-108260D01*
X131890Y-108790D02*
X132215Y-108790D01*
X131360Y-108260D02*
X131890Y-108790D01*
G54D10*
G36*
X120728Y-104191D02*
X120550Y-104369D01*
X120020Y-104369D01*
X119946Y-104383D01*
X119884Y-104424D01*
X119734Y-104574D01*
X119693Y-104636D01*
X119679Y-104710D01*
X119679Y-106438D01*
X118856Y-105616D01*
X118856Y-104860D01*
X118856Y-103568D01*
X119118Y-103306D01*
X120051Y-103306D01*
X120298Y-103553D01*
X120298Y-103720D01*
X120303Y-103745D01*
X120303Y-103998D01*
X120324Y-104050D01*
X120364Y-104090D01*
X120416Y-104111D01*
X120473Y-104111D01*
X120502Y-104111D01*
X120567Y-104176D01*
X120656Y-104213D01*
X120684Y-104213D01*
X120728Y-104169D01*
X120728Y-104191D01*
X120728Y-104191D01*
G37*
G54D38*
X120728Y-104191D02*
X120550Y-104369D01*
X120020Y-104369D01*
X119946Y-104383D01*
X119884Y-104424D01*
X119734Y-104574D01*
X119693Y-104636D01*
X119679Y-104710D01*
X119679Y-106438D01*
X118856Y-105616D01*
X118856Y-104860D01*
X118856Y-103568D01*
X119118Y-103306D01*
X120051Y-103306D01*
X120298Y-103553D01*
X120298Y-103720D01*
X120303Y-103745D01*
X120303Y-103998D01*
X120324Y-104050D01*
X120364Y-104090D01*
X120416Y-104111D01*
X120473Y-104111D01*
X120502Y-104111D01*
X120567Y-104176D01*
X120656Y-104213D01*
X120684Y-104213D01*
X120728Y-104169D01*
X120728Y-104191D01*
G54D10*
G36*
X121159Y-107514D02*
X120485Y-106839D01*
X120485Y-106252D01*
X120485Y-105876D01*
X120485Y-105763D01*
X120485Y-105387D01*
X120424Y-105326D01*
X120396Y-105326D01*
X120307Y-105363D01*
X120238Y-105431D01*
X120201Y-105521D01*
X120201Y-105618D01*
X120201Y-105702D01*
X120262Y-105763D01*
X120485Y-105763D01*
X120485Y-105876D01*
X120262Y-105876D01*
X120201Y-105937D01*
X120201Y-106021D01*
X120201Y-106118D01*
X120238Y-106208D01*
X120307Y-106276D01*
X120396Y-106313D01*
X120424Y-106313D01*
X120485Y-106252D01*
X120485Y-106839D01*
X120060Y-106415D01*
X120060Y-104789D01*
X120099Y-104750D01*
X120630Y-104750D01*
X120653Y-104746D01*
X120649Y-104749D01*
X120608Y-104811D01*
X120594Y-104885D01*
X120594Y-105358D01*
X120565Y-105387D01*
X120565Y-105537D01*
X120563Y-105541D01*
X120563Y-105598D01*
X120563Y-106098D01*
X120565Y-106102D01*
X120565Y-106252D01*
X120625Y-106313D01*
X120653Y-106313D01*
X120742Y-106276D01*
X120807Y-106211D01*
X120854Y-106211D01*
X120854Y-106649D01*
X120837Y-106649D01*
X120749Y-106686D01*
X120681Y-106753D01*
X120644Y-106842D01*
X120644Y-106937D01*
X120681Y-107025D01*
X120748Y-107093D01*
X120837Y-107130D01*
X120932Y-107130D01*
X121020Y-107093D01*
X121088Y-107026D01*
X121104Y-106988D01*
X121104Y-107380D01*
X121118Y-107453D01*
X121159Y-107514D01*
X121159Y-107514D01*
G37*
G54D38*
X121159Y-107514D02*
X120485Y-106839D01*
X120485Y-106252D01*
X120485Y-105876D01*
X120485Y-105763D01*
X120485Y-105387D01*
X120424Y-105326D01*
X120396Y-105326D01*
X120307Y-105363D01*
X120238Y-105431D01*
X120201Y-105521D01*
X120201Y-105618D01*
X120201Y-105702D01*
X120262Y-105763D01*
X120485Y-105763D01*
X120485Y-105876D01*
X120262Y-105876D01*
X120201Y-105937D01*
X120201Y-106021D01*
X120201Y-106118D01*
X120238Y-106208D01*
X120307Y-106276D01*
X120396Y-106313D01*
X120424Y-106313D01*
X120485Y-106252D01*
X120485Y-106839D01*
X120060Y-106415D01*
X120060Y-104789D01*
X120099Y-104750D01*
X120630Y-104750D01*
X120653Y-104746D01*
X120649Y-104749D01*
X120608Y-104811D01*
X120594Y-104885D01*
X120594Y-105358D01*
X120565Y-105387D01*
X120565Y-105537D01*
X120563Y-105541D01*
X120563Y-105598D01*
X120563Y-106098D01*
X120565Y-106102D01*
X120565Y-106252D01*
X120625Y-106313D01*
X120653Y-106313D01*
X120742Y-106276D01*
X120807Y-106211D01*
X120854Y-106211D01*
X120854Y-106649D01*
X120837Y-106649D01*
X120749Y-106686D01*
X120681Y-106753D01*
X120644Y-106842D01*
X120644Y-106937D01*
X120681Y-107025D01*
X120748Y-107093D01*
X120837Y-107130D01*
X120932Y-107130D01*
X121020Y-107093D01*
X121088Y-107026D01*
X121104Y-106988D01*
X121104Y-107380D01*
X121118Y-107453D01*
X121159Y-107514D01*
G54D10*
G36*
X129056Y-113083D02*
X125321Y-113083D01*
X125430Y-112974D01*
X125518Y-112762D01*
X125532Y-112776D01*
X125622Y-112813D01*
X125808Y-112813D01*
X125869Y-112752D01*
X125869Y-112331D01*
X125861Y-112331D01*
X125861Y-112218D01*
X125869Y-112218D01*
X125869Y-112210D01*
X125982Y-112210D01*
X125982Y-112218D01*
X125990Y-112218D01*
X125990Y-112331D01*
X125982Y-112331D01*
X125982Y-112752D01*
X126006Y-112776D01*
X126006Y-112793D01*
X126023Y-112793D01*
X126043Y-112813D01*
X126229Y-112813D01*
X126278Y-112793D01*
X129056Y-112793D01*
X129056Y-113083D01*
X129056Y-113083D01*
G37*
G54D38*
X129056Y-113083D02*
X125321Y-113083D01*
X125430Y-112974D01*
X125518Y-112762D01*
X125532Y-112776D01*
X125622Y-112813D01*
X125808Y-112813D01*
X125869Y-112752D01*
X125869Y-112331D01*
X125861Y-112331D01*
X125861Y-112218D01*
X125869Y-112218D01*
X125869Y-112210D01*
X125982Y-112210D01*
X125982Y-112218D01*
X125990Y-112218D01*
X125990Y-112331D01*
X125982Y-112331D01*
X125982Y-112752D01*
X126006Y-112776D01*
X126006Y-112793D01*
X126023Y-112793D01*
X126043Y-112813D01*
X126229Y-112813D01*
X126278Y-112793D01*
X129056Y-112793D01*
X129056Y-113083D01*
G54D10*
G36*
X133606Y-109134D02*
X132631Y-110108D01*
X132631Y-109707D01*
X132631Y-108707D01*
X132631Y-108707D01*
X132631Y-108036D01*
X132631Y-107486D01*
X132610Y-107434D01*
X132570Y-107394D01*
X132518Y-107373D01*
X132461Y-107373D01*
X131911Y-107373D01*
X131859Y-107394D01*
X131819Y-107434D01*
X131798Y-107486D01*
X131798Y-107543D01*
X131798Y-108093D01*
X131819Y-108145D01*
X131859Y-108185D01*
X131911Y-108206D01*
X131968Y-108206D01*
X132518Y-108206D01*
X132570Y-108185D01*
X132610Y-108145D01*
X132631Y-108093D01*
X132631Y-108036D01*
X132631Y-108707D01*
X132568Y-108554D01*
X132451Y-108436D01*
X132298Y-108373D01*
X132132Y-108373D01*
X131979Y-108436D01*
X131948Y-108467D01*
X131629Y-108148D01*
X131629Y-107299D01*
X131734Y-107195D01*
X131801Y-107033D01*
X131801Y-106857D01*
X131734Y-106695D01*
X131610Y-106570D01*
X131448Y-106503D01*
X131272Y-106503D01*
X131110Y-106570D01*
X130985Y-106694D01*
X130918Y-106856D01*
X130918Y-107032D01*
X130985Y-107194D01*
X131090Y-107300D01*
X131090Y-108260D01*
X131110Y-108363D01*
X131169Y-108450D01*
X131699Y-108980D01*
X131786Y-109039D01*
X131890Y-109059D01*
X131895Y-109059D01*
X131978Y-109143D01*
X132131Y-109206D01*
X132297Y-109206D01*
X132450Y-109143D01*
X132568Y-109026D01*
X132631Y-108873D01*
X132631Y-108707D01*
X132631Y-109707D01*
X132568Y-109554D01*
X132451Y-109436D01*
X132298Y-109373D01*
X132132Y-109373D01*
X131979Y-109436D01*
X131861Y-109553D01*
X131798Y-109706D01*
X131798Y-109872D01*
X131861Y-110025D01*
X131978Y-110143D01*
X132131Y-110206D01*
X132297Y-110206D01*
X132450Y-110143D01*
X132568Y-110026D01*
X132631Y-109873D01*
X132631Y-109707D01*
X132631Y-110108D01*
X132530Y-110210D01*
X132019Y-110210D01*
X130639Y-108830D01*
X130639Y-107500D01*
X130639Y-106900D01*
X130620Y-106807D01*
X130617Y-106789D01*
X130617Y-106789D01*
X130554Y-106695D01*
X130554Y-106695D01*
X130129Y-106270D01*
X130035Y-106207D01*
X129925Y-106185D01*
X129614Y-106185D01*
X129614Y-100425D01*
X129592Y-100314D01*
X129592Y-100314D01*
X129571Y-100283D01*
X129529Y-100220D01*
X129529Y-100220D01*
X127834Y-98525D01*
X127740Y-98462D01*
X127630Y-98440D01*
X120991Y-98440D01*
X120991Y-97012D01*
X120991Y-96012D01*
X120924Y-95850D01*
X120800Y-95725D01*
X120638Y-95658D01*
X120462Y-95658D01*
X120300Y-95725D01*
X120175Y-95849D01*
X120141Y-95931D01*
X120141Y-94962D01*
X120074Y-94800D01*
X119950Y-94675D01*
X119788Y-94608D01*
X119612Y-94608D01*
X119450Y-94675D01*
X119325Y-94799D01*
X119258Y-94961D01*
X119258Y-95137D01*
X119325Y-95299D01*
X119449Y-95424D01*
X119611Y-95491D01*
X119787Y-95491D01*
X119949Y-95424D01*
X120074Y-95300D01*
X120141Y-95138D01*
X120141Y-94962D01*
X120141Y-95931D01*
X120108Y-96011D01*
X120108Y-96187D01*
X120175Y-96349D01*
X120299Y-96474D01*
X120461Y-96541D01*
X120637Y-96541D01*
X120799Y-96474D01*
X120924Y-96350D01*
X120991Y-96188D01*
X120991Y-96012D01*
X120991Y-97012D01*
X120924Y-96850D01*
X120800Y-96725D01*
X120638Y-96658D01*
X120462Y-96658D01*
X120300Y-96725D01*
X120175Y-96849D01*
X120108Y-97011D01*
X120108Y-97187D01*
X120175Y-97349D01*
X120299Y-97474D01*
X120461Y-97541D01*
X120637Y-97541D01*
X120799Y-97474D01*
X120924Y-97350D01*
X120991Y-97188D01*
X120991Y-97012D01*
X120991Y-98440D01*
X120449Y-98440D01*
X119039Y-97030D01*
X119039Y-92370D01*
X119149Y-92324D01*
X119274Y-92200D01*
X119341Y-92038D01*
X119341Y-91862D01*
X119274Y-91700D01*
X119150Y-91575D01*
X118988Y-91508D01*
X118812Y-91508D01*
X118650Y-91575D01*
X118525Y-91699D01*
X118458Y-91861D01*
X118458Y-92037D01*
X118468Y-92061D01*
X118460Y-92100D01*
X118460Y-97150D01*
X118482Y-97260D01*
X118545Y-97354D01*
X120125Y-98934D01*
X120125Y-98934D01*
X120188Y-98976D01*
X120219Y-98997D01*
X120219Y-98997D01*
X120329Y-99019D01*
X120330Y-99019D01*
X127510Y-99019D01*
X128777Y-100286D01*
X128673Y-100250D01*
X128457Y-100264D01*
X128321Y-100320D01*
X128293Y-100413D01*
X128600Y-100719D01*
X128605Y-100714D01*
X128685Y-100794D01*
X128680Y-100800D01*
X128986Y-101106D01*
X129035Y-101091D01*
X129035Y-101508D01*
X128986Y-101493D01*
X128906Y-101573D01*
X128906Y-101413D01*
X128878Y-101320D01*
X128822Y-101301D01*
X128878Y-101279D01*
X128906Y-101186D01*
X128600Y-100880D01*
X128519Y-100960D01*
X128519Y-100800D01*
X128213Y-100493D01*
X128120Y-100521D01*
X128050Y-100726D01*
X128064Y-100942D01*
X128120Y-101078D01*
X128213Y-101106D01*
X128519Y-100800D01*
X128519Y-100960D01*
X128293Y-101186D01*
X128321Y-101279D01*
X128377Y-101298D01*
X128321Y-101320D01*
X128293Y-101413D01*
X128600Y-101719D01*
X128906Y-101413D01*
X128906Y-101573D01*
X128680Y-101800D01*
X128986Y-102106D01*
X129035Y-102091D01*
X129035Y-106006D01*
X128906Y-106006D01*
X128906Y-102186D01*
X128600Y-101880D01*
X128519Y-101960D01*
X128519Y-101800D01*
X128213Y-101493D01*
X128120Y-101521D01*
X128050Y-101726D01*
X128064Y-101942D01*
X128120Y-102078D01*
X128213Y-102106D01*
X128519Y-101800D01*
X128519Y-101960D01*
X128293Y-102186D01*
X128321Y-102279D01*
X128526Y-102349D01*
X128742Y-102335D01*
X128878Y-102279D01*
X128906Y-102186D01*
X128906Y-106006D01*
X128190Y-106006D01*
X128238Y-105958D01*
X128238Y-105772D01*
X128201Y-105682D01*
X128133Y-105614D01*
X128043Y-105577D01*
X128041Y-105577D01*
X128041Y-101712D01*
X127974Y-101550D01*
X127850Y-101425D01*
X127688Y-101358D01*
X127512Y-101358D01*
X127350Y-101425D01*
X127225Y-101549D01*
X127158Y-101711D01*
X127158Y-101887D01*
X127225Y-102049D01*
X127349Y-102174D01*
X127511Y-102241D01*
X127687Y-102241D01*
X127849Y-102174D01*
X127974Y-102050D01*
X128041Y-101888D01*
X128041Y-101712D01*
X128041Y-105577D01*
X127946Y-105577D01*
X127817Y-105577D01*
X127756Y-105638D01*
X127756Y-106006D01*
X127643Y-106006D01*
X127643Y-105638D01*
X127582Y-105577D01*
X127453Y-105577D01*
X127356Y-105577D01*
X127300Y-105600D01*
X127243Y-105577D01*
X127146Y-105577D01*
X127041Y-105577D01*
X127041Y-101712D01*
X127041Y-100712D01*
X126974Y-100550D01*
X126850Y-100425D01*
X126688Y-100358D01*
X126512Y-100358D01*
X126350Y-100425D01*
X126225Y-100549D01*
X126158Y-100711D01*
X126158Y-100887D01*
X126225Y-101049D01*
X126349Y-101174D01*
X126511Y-101241D01*
X126687Y-101241D01*
X126849Y-101174D01*
X126974Y-101050D01*
X127041Y-100888D01*
X127041Y-100712D01*
X127041Y-101712D01*
X126974Y-101550D01*
X126850Y-101425D01*
X126688Y-101358D01*
X126512Y-101358D01*
X126350Y-101425D01*
X126225Y-101549D01*
X126158Y-101711D01*
X126158Y-101887D01*
X126225Y-102049D01*
X126349Y-102174D01*
X126511Y-102241D01*
X126687Y-102241D01*
X126849Y-102174D01*
X126974Y-102050D01*
X127041Y-101888D01*
X127041Y-101712D01*
X127041Y-105577D01*
X127017Y-105577D01*
X126956Y-105638D01*
X126956Y-106006D01*
X126843Y-106006D01*
X126843Y-105638D01*
X126843Y-104456D01*
X126443Y-104456D01*
X126443Y-103801D01*
X126406Y-103712D01*
X126338Y-103643D01*
X126248Y-103606D01*
X126151Y-103606D01*
X126041Y-103606D01*
X126041Y-101712D01*
X126041Y-100712D01*
X125974Y-100550D01*
X125850Y-100425D01*
X125688Y-100358D01*
X125512Y-100358D01*
X125350Y-100425D01*
X125225Y-100549D01*
X125158Y-100711D01*
X125158Y-100887D01*
X125225Y-101049D01*
X125349Y-101174D01*
X125511Y-101241D01*
X125687Y-101241D01*
X125849Y-101174D01*
X125974Y-101050D01*
X126041Y-100888D01*
X126041Y-100712D01*
X126041Y-101712D01*
X125974Y-101550D01*
X125850Y-101425D01*
X125688Y-101358D01*
X125512Y-101358D01*
X125350Y-101425D01*
X125225Y-101549D01*
X125158Y-101711D01*
X125158Y-101887D01*
X125225Y-102049D01*
X125349Y-102174D01*
X125511Y-102241D01*
X125687Y-102241D01*
X125849Y-102174D01*
X125974Y-102050D01*
X126041Y-101888D01*
X126041Y-101712D01*
X126041Y-103606D01*
X125917Y-103606D01*
X125856Y-103667D01*
X125856Y-104093D01*
X126382Y-104093D01*
X126443Y-104032D01*
X126443Y-103801D01*
X126443Y-104456D01*
X126443Y-104456D01*
X126443Y-104267D01*
X126382Y-104206D01*
X125856Y-104206D01*
X125856Y-104214D01*
X125743Y-104214D01*
X125743Y-104206D01*
X125743Y-104093D01*
X125743Y-103667D01*
X125682Y-103606D01*
X125448Y-103606D01*
X125351Y-103606D01*
X125275Y-103638D01*
X125198Y-103606D01*
X125101Y-103606D01*
X124867Y-103606D01*
X124806Y-103667D01*
X124806Y-104093D01*
X125217Y-104093D01*
X125332Y-104093D01*
X125743Y-104093D01*
X125743Y-104206D01*
X125332Y-104206D01*
X125217Y-104206D01*
X124806Y-104206D01*
X124806Y-104214D01*
X124693Y-104214D01*
X124693Y-104206D01*
X124693Y-104093D01*
X124693Y-103667D01*
X124632Y-103606D01*
X124398Y-103606D01*
X124301Y-103606D01*
X124211Y-103643D01*
X124143Y-103712D01*
X124106Y-103801D01*
X124106Y-104032D01*
X124167Y-104093D01*
X124693Y-104093D01*
X124693Y-104206D01*
X124167Y-104206D01*
X124106Y-104267D01*
X124106Y-104498D01*
X124143Y-104587D01*
X124156Y-104600D01*
X124156Y-106756D01*
X124141Y-106762D01*
X123963Y-106940D01*
X123866Y-107173D01*
X123866Y-107425D01*
X123962Y-107658D01*
X124140Y-107836D01*
X124156Y-107843D01*
X124156Y-108282D01*
X122907Y-109531D01*
X122868Y-111225D01*
X122660Y-111433D01*
X121839Y-111433D01*
X121716Y-111310D01*
X121716Y-111077D01*
X121738Y-111055D01*
X121750Y-111027D01*
X121761Y-111055D01*
X121801Y-111095D01*
X121853Y-111117D01*
X121910Y-111117D01*
X122146Y-111117D01*
X122198Y-111095D01*
X122238Y-111055D01*
X122250Y-111027D01*
X122261Y-111055D01*
X122301Y-111095D01*
X122353Y-111117D01*
X122410Y-111117D01*
X122646Y-111117D01*
X122698Y-111095D01*
X122738Y-111055D01*
X122759Y-111003D01*
X122759Y-110947D01*
X122759Y-110396D01*
X122738Y-110344D01*
X122726Y-110332D01*
X122726Y-110070D01*
X122726Y-110069D01*
X122726Y-110069D01*
X122723Y-110052D01*
X122709Y-109983D01*
X122709Y-109983D01*
X122660Y-109909D01*
X122660Y-109909D01*
X122125Y-109374D01*
X122051Y-109325D01*
X121965Y-109308D01*
X120898Y-109308D01*
X120526Y-108936D01*
X120526Y-107421D01*
X121307Y-108202D01*
X121301Y-108204D01*
X121261Y-108244D01*
X121249Y-108272D01*
X121238Y-108244D01*
X121198Y-108204D01*
X121146Y-108182D01*
X121089Y-108182D01*
X120853Y-108182D01*
X120801Y-108204D01*
X120761Y-108244D01*
X120740Y-108296D01*
X120740Y-108352D01*
X120740Y-108903D01*
X120761Y-108955D01*
X120801Y-108995D01*
X120853Y-109017D01*
X120910Y-109017D01*
X121146Y-109017D01*
X121198Y-108995D01*
X121238Y-108955D01*
X121250Y-108927D01*
X121261Y-108955D01*
X121301Y-108995D01*
X121353Y-109017D01*
X121410Y-109017D01*
X121646Y-109017D01*
X121698Y-108995D01*
X121738Y-108955D01*
X121750Y-108927D01*
X121761Y-108955D01*
X121801Y-108995D01*
X121853Y-109017D01*
X121910Y-109017D01*
X122146Y-109017D01*
X122198Y-108995D01*
X122238Y-108955D01*
X122250Y-108927D01*
X122261Y-108955D01*
X122301Y-108995D01*
X122353Y-109017D01*
X122410Y-109017D01*
X122646Y-109017D01*
X122698Y-108995D01*
X122738Y-108955D01*
X122759Y-108903D01*
X122759Y-108847D01*
X122759Y-108296D01*
X122738Y-108244D01*
X122698Y-108204D01*
X122690Y-108201D01*
X122690Y-107550D01*
X122676Y-107476D01*
X122676Y-107476D01*
X122635Y-107414D01*
X122635Y-107414D01*
X122565Y-107345D01*
X122565Y-107327D01*
X122528Y-107239D01*
X122461Y-107171D01*
X122372Y-107134D01*
X122277Y-107134D01*
X122189Y-107171D01*
X122121Y-107238D01*
X122084Y-107327D01*
X122084Y-107422D01*
X122121Y-107510D01*
X122188Y-107578D01*
X122277Y-107615D01*
X122295Y-107615D01*
X122309Y-107629D01*
X122309Y-108201D01*
X122301Y-108204D01*
X122261Y-108244D01*
X122249Y-108272D01*
X122238Y-108244D01*
X122198Y-108204D01*
X122190Y-108201D01*
X122190Y-108085D01*
X122176Y-108011D01*
X122176Y-108011D01*
X122135Y-107949D01*
X121485Y-107300D01*
X121485Y-106211D01*
X121503Y-106211D01*
X121663Y-106211D01*
X121684Y-106202D01*
X121706Y-106211D01*
X121763Y-106211D01*
X121923Y-106211D01*
X121939Y-106204D01*
X121956Y-106211D01*
X122013Y-106211D01*
X122173Y-106211D01*
X122194Y-106202D01*
X122216Y-106211D01*
X122273Y-106211D01*
X122384Y-106211D01*
X122384Y-106530D01*
X122398Y-106603D01*
X122439Y-106665D01*
X123254Y-107479D01*
X123254Y-108146D01*
X123241Y-108158D01*
X123204Y-108247D01*
X123204Y-108342D01*
X123241Y-108430D01*
X123308Y-108498D01*
X123397Y-108535D01*
X123492Y-108535D01*
X123580Y-108498D01*
X123648Y-108431D01*
X123685Y-108342D01*
X123685Y-108247D01*
X123648Y-108159D01*
X123635Y-108146D01*
X123635Y-107400D01*
X123621Y-107326D01*
X123621Y-107326D01*
X123580Y-107264D01*
X123158Y-106843D01*
X123158Y-106021D01*
X123158Y-105937D01*
X123097Y-105876D01*
X122875Y-105876D01*
X122875Y-106252D01*
X122935Y-106313D01*
X122963Y-106313D01*
X123052Y-106276D01*
X123121Y-106208D01*
X123158Y-106118D01*
X123158Y-106021D01*
X123158Y-106843D01*
X122765Y-106450D01*
X122765Y-106281D01*
X122795Y-106252D01*
X122795Y-106102D01*
X122796Y-106098D01*
X122796Y-106041D01*
X122796Y-105755D01*
X122875Y-105755D01*
X122875Y-105763D01*
X123097Y-105763D01*
X123158Y-105702D01*
X123158Y-105618D01*
X123158Y-105521D01*
X123121Y-105431D01*
X123052Y-105363D01*
X123019Y-105350D01*
X123020Y-105350D01*
X123980Y-104390D01*
X124021Y-104328D01*
X124021Y-104328D01*
X124035Y-104255D01*
X124035Y-102499D01*
X124250Y-102285D01*
X124250Y-102285D01*
X124250Y-102285D01*
X124280Y-102238D01*
X124291Y-102223D01*
X124291Y-102223D01*
X124291Y-102223D01*
X124305Y-102150D01*
X124305Y-102130D01*
X124349Y-102174D01*
X124511Y-102241D01*
X124687Y-102241D01*
X124849Y-102174D01*
X124974Y-102050D01*
X125041Y-101888D01*
X125041Y-101712D01*
X124974Y-101550D01*
X124850Y-101425D01*
X124688Y-101358D01*
X124512Y-101358D01*
X124350Y-101425D01*
X124305Y-101469D01*
X124305Y-101364D01*
X124452Y-101217D01*
X124511Y-101241D01*
X124687Y-101241D01*
X124849Y-101174D01*
X124974Y-101050D01*
X125041Y-100888D01*
X125041Y-100712D01*
X124974Y-100550D01*
X124850Y-100425D01*
X124688Y-100358D01*
X124512Y-100358D01*
X124350Y-100425D01*
X124225Y-100549D01*
X124158Y-100711D01*
X124158Y-100887D01*
X124182Y-100947D01*
X124041Y-101088D01*
X124041Y-100712D01*
X123974Y-100550D01*
X123850Y-100425D01*
X123688Y-100358D01*
X123512Y-100358D01*
X123350Y-100425D01*
X123225Y-100549D01*
X123158Y-100711D01*
X123158Y-100887D01*
X123225Y-101049D01*
X123349Y-101174D01*
X123511Y-101241D01*
X123687Y-101241D01*
X123849Y-101174D01*
X123974Y-101050D01*
X124041Y-100888D01*
X124041Y-100712D01*
X124041Y-101088D01*
X123979Y-101149D01*
X123938Y-101211D01*
X123924Y-101285D01*
X123924Y-101499D01*
X123850Y-101425D01*
X123688Y-101358D01*
X123512Y-101358D01*
X123452Y-101382D01*
X123230Y-101159D01*
X123168Y-101118D01*
X123095Y-101104D01*
X122920Y-101104D01*
X122974Y-101050D01*
X123041Y-100888D01*
X123041Y-100712D01*
X122974Y-100550D01*
X122850Y-100425D01*
X122688Y-100358D01*
X122512Y-100358D01*
X122350Y-100425D01*
X122225Y-100549D01*
X122158Y-100711D01*
X122158Y-100887D01*
X122225Y-101049D01*
X122295Y-101119D01*
X122281Y-101129D01*
X122234Y-101159D01*
X122234Y-101159D01*
X122041Y-101353D01*
X122041Y-100712D01*
X121974Y-100550D01*
X121850Y-100425D01*
X121688Y-100358D01*
X121512Y-100358D01*
X121350Y-100425D01*
X121225Y-100549D01*
X121158Y-100711D01*
X121158Y-100887D01*
X121225Y-101049D01*
X121349Y-101174D01*
X121511Y-101241D01*
X121687Y-101241D01*
X121849Y-101174D01*
X121974Y-101050D01*
X122041Y-100888D01*
X122041Y-100712D01*
X122041Y-101353D01*
X121974Y-101419D01*
X121933Y-101481D01*
X121929Y-101504D01*
X121850Y-101425D01*
X121688Y-101358D01*
X121512Y-101358D01*
X121350Y-101425D01*
X121225Y-101549D01*
X121158Y-101711D01*
X121158Y-101887D01*
X121225Y-102049D01*
X121349Y-102174D01*
X121511Y-102241D01*
X121683Y-102241D01*
X121159Y-102764D01*
X121118Y-102826D01*
X121104Y-102900D01*
X121104Y-103150D01*
X121104Y-103328D01*
X121096Y-103328D01*
X121067Y-103328D01*
X121041Y-103302D01*
X121041Y-101712D01*
X121041Y-100712D01*
X120974Y-100550D01*
X120850Y-100425D01*
X120688Y-100358D01*
X120512Y-100358D01*
X120350Y-100425D01*
X120225Y-100549D01*
X120158Y-100711D01*
X120158Y-100887D01*
X120225Y-101049D01*
X120349Y-101174D01*
X120511Y-101241D01*
X120687Y-101241D01*
X120849Y-101174D01*
X120974Y-101050D01*
X121041Y-100888D01*
X121041Y-100712D01*
X121041Y-101712D01*
X120974Y-101550D01*
X120850Y-101425D01*
X120688Y-101358D01*
X120512Y-101358D01*
X120350Y-101425D01*
X120225Y-101549D01*
X120158Y-101711D01*
X120158Y-101887D01*
X120225Y-102049D01*
X120349Y-102174D01*
X120511Y-102241D01*
X120687Y-102241D01*
X120849Y-102174D01*
X120974Y-102050D01*
X121041Y-101888D01*
X121041Y-101712D01*
X121041Y-103302D01*
X121002Y-103263D01*
X120913Y-103226D01*
X120885Y-103226D01*
X120825Y-103287D01*
X120825Y-103437D01*
X120823Y-103441D01*
X120823Y-103498D01*
X120823Y-103784D01*
X120746Y-103784D01*
X120746Y-103745D01*
X120751Y-103720D01*
X120751Y-103460D01*
X120751Y-103459D01*
X120751Y-103459D01*
X120748Y-103442D01*
X120745Y-103426D01*
X120745Y-103426D01*
X120745Y-103287D01*
X120684Y-103226D01*
X120656Y-103226D01*
X120625Y-103239D01*
X120305Y-102919D01*
X120231Y-102870D01*
X120145Y-102853D01*
X120041Y-102853D01*
X120041Y-100712D01*
X119974Y-100550D01*
X119850Y-100425D01*
X119688Y-100358D01*
X119512Y-100358D01*
X119350Y-100425D01*
X119225Y-100549D01*
X119158Y-100711D01*
X119158Y-100887D01*
X119225Y-101049D01*
X119349Y-101174D01*
X119511Y-101241D01*
X119687Y-101241D01*
X119849Y-101174D01*
X119974Y-101050D01*
X120041Y-100888D01*
X120041Y-100712D01*
X120041Y-102853D01*
X120041Y-102853D01*
X120041Y-102071D01*
X120041Y-101471D01*
X120020Y-101419D01*
X119980Y-101379D01*
X119928Y-101358D01*
X119871Y-101358D01*
X119271Y-101358D01*
X119219Y-101379D01*
X119179Y-101419D01*
X119158Y-101471D01*
X119158Y-101528D01*
X119158Y-102128D01*
X119179Y-102180D01*
X119219Y-102220D01*
X119271Y-102241D01*
X119328Y-102241D01*
X119928Y-102241D01*
X119980Y-102220D01*
X120020Y-102180D01*
X120041Y-102128D01*
X120041Y-102071D01*
X120041Y-102853D01*
X119025Y-102853D01*
X118938Y-102870D01*
X118864Y-102919D01*
X118864Y-102919D01*
X118856Y-102927D01*
X118856Y-100728D01*
X119758Y-99826D01*
X126776Y-99826D01*
X127367Y-100418D01*
X127350Y-100425D01*
X127225Y-100549D01*
X127158Y-100711D01*
X127158Y-100887D01*
X127225Y-101049D01*
X127349Y-101174D01*
X127511Y-101241D01*
X127687Y-101241D01*
X127849Y-101174D01*
X127974Y-101050D01*
X128041Y-100888D01*
X128041Y-100712D01*
X127974Y-100550D01*
X127850Y-100425D01*
X127826Y-100415D01*
X127826Y-100330D01*
X127826Y-100329D01*
X127826Y-100329D01*
X127823Y-100312D01*
X127809Y-100243D01*
X127809Y-100243D01*
X127760Y-100169D01*
X127760Y-100169D01*
X127030Y-99439D01*
X126956Y-99390D01*
X126870Y-99373D01*
X119665Y-99373D01*
X119578Y-99390D01*
X119504Y-99439D01*
X118469Y-100474D01*
X118420Y-100548D01*
X118403Y-100635D01*
X118403Y-103475D01*
X118403Y-104860D01*
X118403Y-105710D01*
X118420Y-105796D01*
X118469Y-105870D01*
X119289Y-106689D01*
X119232Y-106666D01*
X118980Y-106666D01*
X118747Y-106762D01*
X118569Y-106940D01*
X118472Y-107173D01*
X118472Y-107425D01*
X118568Y-107658D01*
X118746Y-107836D01*
X118889Y-107896D01*
X118889Y-109106D01*
X118905Y-109188D01*
X118952Y-109259D01*
X119846Y-110153D01*
X119846Y-110153D01*
X119917Y-110200D01*
X120000Y-110216D01*
X120748Y-110216D01*
X120744Y-110218D01*
X120675Y-110286D01*
X120638Y-110375D01*
X120638Y-110472D01*
X120638Y-110582D01*
X120699Y-110643D01*
X120943Y-110643D01*
X120943Y-110635D01*
X121056Y-110635D01*
X121056Y-110643D01*
X121064Y-110643D01*
X121064Y-110756D01*
X121056Y-110756D01*
X121056Y-111157D01*
X121117Y-111218D01*
X121166Y-111218D01*
X121255Y-111181D01*
X121283Y-111154D01*
X121283Y-111400D01*
X121299Y-111482D01*
X121346Y-111553D01*
X121596Y-111803D01*
X121596Y-111803D01*
X121667Y-111850D01*
X121750Y-111866D01*
X122750Y-111866D01*
X122832Y-111850D01*
X122903Y-111803D01*
X122912Y-111793D01*
X124479Y-111793D01*
X124664Y-112024D01*
X124535Y-112077D01*
X124357Y-112255D01*
X124260Y-112488D01*
X124260Y-112740D01*
X124356Y-112973D01*
X124465Y-113083D01*
X120943Y-113083D01*
X120943Y-111157D01*
X120943Y-110756D01*
X120699Y-110756D01*
X120638Y-110817D01*
X120638Y-110927D01*
X120638Y-111024D01*
X120675Y-111113D01*
X120744Y-111181D01*
X120833Y-111218D01*
X120882Y-111218D01*
X120943Y-111157D01*
X120943Y-113083D01*
X119140Y-113083D01*
X119249Y-112974D01*
X119346Y-112741D01*
X119346Y-112489D01*
X119250Y-112256D01*
X119072Y-112078D01*
X118839Y-111981D01*
X118587Y-111981D01*
X118354Y-112077D01*
X118316Y-112115D01*
X118316Y-83616D01*
X130456Y-83616D01*
X130456Y-89485D01*
X130260Y-89485D01*
X130150Y-89375D01*
X129988Y-89308D01*
X129812Y-89308D01*
X129650Y-89375D01*
X129564Y-89460D01*
X129119Y-89460D01*
X128589Y-88930D01*
X128589Y-88168D01*
X128596Y-88185D01*
X128713Y-88303D01*
X128866Y-88366D01*
X129007Y-88366D01*
X129458Y-88817D01*
X129458Y-88937D01*
X129525Y-89099D01*
X129649Y-89224D01*
X129811Y-89291D01*
X129987Y-89291D01*
X130149Y-89224D01*
X130274Y-89100D01*
X130341Y-88938D01*
X130341Y-88762D01*
X130274Y-88600D01*
X130150Y-88475D01*
X129988Y-88408D01*
X129867Y-88408D01*
X129384Y-87925D01*
X129867Y-87441D01*
X130037Y-87441D01*
X130199Y-87374D01*
X130324Y-87250D01*
X130391Y-87088D01*
X130391Y-86912D01*
X130324Y-86750D01*
X130239Y-86664D01*
X130239Y-86385D01*
X130324Y-86300D01*
X130391Y-86138D01*
X130391Y-85962D01*
X130324Y-85800D01*
X130200Y-85675D01*
X130038Y-85608D01*
X129862Y-85608D01*
X129700Y-85675D01*
X129575Y-85799D01*
X129508Y-85961D01*
X129508Y-86137D01*
X129575Y-86299D01*
X129660Y-86385D01*
X129660Y-86664D01*
X129575Y-86749D01*
X129508Y-86911D01*
X129508Y-86982D01*
X128957Y-87533D01*
X128867Y-87533D01*
X128714Y-87596D01*
X128596Y-87713D01*
X128589Y-87731D01*
X128589Y-86569D01*
X128848Y-86310D01*
X128848Y-86310D01*
X128911Y-86217D01*
X128911Y-86217D01*
X128914Y-86198D01*
X128933Y-86106D01*
X128933Y-86106D01*
X128933Y-85266D01*
X129002Y-85237D01*
X129180Y-85059D01*
X129277Y-84826D01*
X129277Y-84574D01*
X129181Y-84341D01*
X129003Y-84162D01*
X128770Y-84066D01*
X128518Y-84066D01*
X128285Y-84162D01*
X128106Y-84340D01*
X128009Y-84573D01*
X128009Y-84825D01*
X128106Y-85058D01*
X128284Y-85237D01*
X128354Y-85266D01*
X128354Y-85986D01*
X128095Y-86245D01*
X128032Y-86339D01*
X128010Y-86450D01*
X128010Y-89050D01*
X128032Y-89160D01*
X128095Y-89254D01*
X128795Y-89954D01*
X128795Y-89954D01*
X128858Y-89996D01*
X128889Y-90017D01*
X128889Y-90017D01*
X128999Y-90039D01*
X129000Y-90039D01*
X129564Y-90039D01*
X129649Y-90124D01*
X129811Y-90191D01*
X129987Y-90191D01*
X130003Y-90185D01*
X129517Y-90671D01*
X129510Y-90561D01*
X129458Y-90437D01*
X129368Y-90411D01*
X129288Y-90492D01*
X129288Y-90331D01*
X129262Y-90241D01*
X129067Y-90175D01*
X128861Y-90189D01*
X128737Y-90241D01*
X128711Y-90331D01*
X129000Y-90619D01*
X129288Y-90331D01*
X129288Y-90492D01*
X129080Y-90700D01*
X129085Y-90705D01*
X129005Y-90785D01*
X129000Y-90780D01*
X128919Y-90860D01*
X128919Y-90700D01*
X128631Y-90411D01*
X128541Y-90437D01*
X128475Y-90632D01*
X128489Y-90838D01*
X128541Y-90962D01*
X128631Y-90988D01*
X128919Y-90700D01*
X128919Y-90860D01*
X128711Y-91068D01*
X128737Y-91158D01*
X128932Y-91224D01*
X128966Y-91221D01*
X127690Y-92498D01*
X127690Y-84819D01*
X127679Y-84527D01*
X127588Y-84306D01*
X127475Y-84254D01*
X127395Y-84334D01*
X127395Y-84174D01*
X127343Y-84061D01*
X127069Y-83959D01*
X126777Y-83970D01*
X126556Y-84061D01*
X126504Y-84174D01*
X126950Y-84619D01*
X127395Y-84174D01*
X127395Y-84334D01*
X127030Y-84700D01*
X127475Y-85145D01*
X127588Y-85093D01*
X127690Y-84819D01*
X127690Y-92498D01*
X127416Y-92771D01*
X127416Y-90617D01*
X127395Y-90565D01*
X127395Y-85225D01*
X126950Y-84780D01*
X126869Y-84860D01*
X126869Y-84700D01*
X126424Y-84254D01*
X126311Y-84306D01*
X126209Y-84580D01*
X126220Y-84872D01*
X126311Y-85093D01*
X126424Y-85145D01*
X126869Y-84700D01*
X126869Y-84860D01*
X126504Y-85225D01*
X126556Y-85338D01*
X126830Y-85440D01*
X127122Y-85429D01*
X127343Y-85338D01*
X127395Y-85225D01*
X127395Y-90565D01*
X127366Y-90496D01*
X127366Y-87867D01*
X127303Y-87714D01*
X127186Y-87596D01*
X127033Y-87533D01*
X126892Y-87533D01*
X126391Y-87032D01*
X126391Y-86912D01*
X126391Y-85962D01*
X126324Y-85800D01*
X126200Y-85675D01*
X126038Y-85608D01*
X125862Y-85608D01*
X125700Y-85675D01*
X125575Y-85799D01*
X125508Y-85961D01*
X125508Y-86137D01*
X125575Y-86299D01*
X125699Y-86424D01*
X125861Y-86491D01*
X126037Y-86491D01*
X126199Y-86424D01*
X126324Y-86300D01*
X126391Y-86138D01*
X126391Y-85962D01*
X126391Y-86912D01*
X126324Y-86750D01*
X126200Y-86625D01*
X126038Y-86558D01*
X125862Y-86558D01*
X125700Y-86625D01*
X125575Y-86749D01*
X125508Y-86911D01*
X125508Y-87032D01*
X125456Y-87083D01*
X125456Y-84759D01*
X125387Y-84591D01*
X125259Y-84463D01*
X125091Y-84393D01*
X124909Y-84393D01*
X124741Y-84462D01*
X124613Y-84590D01*
X124543Y-84758D01*
X124543Y-84940D01*
X124612Y-85108D01*
X124740Y-85236D01*
X124908Y-85306D01*
X125090Y-85306D01*
X125258Y-85237D01*
X125386Y-85109D01*
X125456Y-84941D01*
X125456Y-84759D01*
X125456Y-87083D01*
X124795Y-87745D01*
X124732Y-87839D01*
X124710Y-87950D01*
X124710Y-88493D01*
X124613Y-88590D01*
X124543Y-88758D01*
X124543Y-88940D01*
X124612Y-89108D01*
X124740Y-89236D01*
X124820Y-89270D01*
X124820Y-90051D01*
X124769Y-90102D01*
X124761Y-90120D01*
X124761Y-89750D01*
X124700Y-89602D01*
X124587Y-89489D01*
X124440Y-89428D01*
X124387Y-89428D01*
X124189Y-89230D01*
X124189Y-89185D01*
X124274Y-89100D01*
X124341Y-88938D01*
X124341Y-88762D01*
X124341Y-84762D01*
X124274Y-84600D01*
X124150Y-84475D01*
X123988Y-84408D01*
X123812Y-84408D01*
X123650Y-84475D01*
X123525Y-84599D01*
X123458Y-84761D01*
X123458Y-84937D01*
X123525Y-85099D01*
X123649Y-85224D01*
X123811Y-85291D01*
X123987Y-85291D01*
X124149Y-85224D01*
X124274Y-85100D01*
X124341Y-84938D01*
X124341Y-84762D01*
X124341Y-88762D01*
X124274Y-88600D01*
X124150Y-88475D01*
X123988Y-88408D01*
X123812Y-88408D01*
X123650Y-88475D01*
X123549Y-88576D01*
X123549Y-85923D01*
X123535Y-85707D01*
X123479Y-85571D01*
X123441Y-85560D01*
X123441Y-84812D01*
X123374Y-84650D01*
X123250Y-84525D01*
X123088Y-84458D01*
X122912Y-84458D01*
X122750Y-84525D01*
X122664Y-84610D01*
X120900Y-84610D01*
X120789Y-84632D01*
X120695Y-84695D01*
X119433Y-85956D01*
X119441Y-85938D01*
X119441Y-85762D01*
X119441Y-84812D01*
X119374Y-84650D01*
X119250Y-84525D01*
X119088Y-84458D01*
X118912Y-84458D01*
X118750Y-84525D01*
X118625Y-84649D01*
X118558Y-84811D01*
X118558Y-84987D01*
X118625Y-85149D01*
X118749Y-85274D01*
X118911Y-85341D01*
X119087Y-85341D01*
X119249Y-85274D01*
X119374Y-85150D01*
X119441Y-84988D01*
X119441Y-84812D01*
X119441Y-85762D01*
X119374Y-85600D01*
X119250Y-85475D01*
X119088Y-85408D01*
X118912Y-85408D01*
X118750Y-85475D01*
X118625Y-85599D01*
X118558Y-85761D01*
X118558Y-85937D01*
X118625Y-86099D01*
X118749Y-86224D01*
X118911Y-86291D01*
X119087Y-86291D01*
X119107Y-86283D01*
X118545Y-86845D01*
X118482Y-86939D01*
X118460Y-87050D01*
X118460Y-89550D01*
X118482Y-89660D01*
X118545Y-89754D01*
X118925Y-90134D01*
X118925Y-90134D01*
X118988Y-90176D01*
X119019Y-90197D01*
X119019Y-90197D01*
X119129Y-90219D01*
X119130Y-90219D01*
X119500Y-90219D01*
X119563Y-90283D01*
X119716Y-90346D01*
X119882Y-90346D01*
X120035Y-90283D01*
X120153Y-90166D01*
X120216Y-90013D01*
X120216Y-89847D01*
X120216Y-88847D01*
X120216Y-87847D01*
X120153Y-87694D01*
X120036Y-87576D01*
X119883Y-87513D01*
X119717Y-87513D01*
X119564Y-87576D01*
X119446Y-87693D01*
X119383Y-87846D01*
X119383Y-88012D01*
X119446Y-88165D01*
X119563Y-88283D01*
X119716Y-88346D01*
X119882Y-88346D01*
X120035Y-88283D01*
X120153Y-88166D01*
X120216Y-88013D01*
X120216Y-87847D01*
X120216Y-88847D01*
X120153Y-88694D01*
X120036Y-88576D01*
X119883Y-88513D01*
X119717Y-88513D01*
X119564Y-88576D01*
X119446Y-88693D01*
X119383Y-88846D01*
X119383Y-89012D01*
X119446Y-89165D01*
X119563Y-89283D01*
X119716Y-89346D01*
X119882Y-89346D01*
X120035Y-89283D01*
X120153Y-89166D01*
X120216Y-89013D01*
X120216Y-88847D01*
X120216Y-89847D01*
X120153Y-89694D01*
X120036Y-89576D01*
X119883Y-89513D01*
X119717Y-89513D01*
X119564Y-89576D01*
X119500Y-89640D01*
X119249Y-89640D01*
X119039Y-89430D01*
X119039Y-87169D01*
X119398Y-86811D01*
X119383Y-86846D01*
X119383Y-87012D01*
X119446Y-87165D01*
X119563Y-87283D01*
X119716Y-87346D01*
X119882Y-87346D01*
X120035Y-87283D01*
X120153Y-87166D01*
X120216Y-87013D01*
X120216Y-86847D01*
X120153Y-86694D01*
X120036Y-86576D01*
X119883Y-86513D01*
X119717Y-86513D01*
X119680Y-86528D01*
X121019Y-85189D01*
X122664Y-85189D01*
X122749Y-85274D01*
X122852Y-85316D01*
X122721Y-85370D01*
X122693Y-85463D01*
X123000Y-85769D01*
X123306Y-85463D01*
X123278Y-85370D01*
X123135Y-85322D01*
X123249Y-85274D01*
X123374Y-85150D01*
X123441Y-84988D01*
X123441Y-84812D01*
X123441Y-85560D01*
X123386Y-85543D01*
X123080Y-85850D01*
X123386Y-86156D01*
X123479Y-86128D01*
X123549Y-85923D01*
X123549Y-88576D01*
X123525Y-88599D01*
X123508Y-88640D01*
X123324Y-88640D01*
X123324Y-86997D01*
X123310Y-86791D01*
X123306Y-86782D01*
X123306Y-86236D01*
X123000Y-85930D01*
X122919Y-86010D01*
X122919Y-85850D01*
X122613Y-85543D01*
X122520Y-85571D01*
X122450Y-85776D01*
X122464Y-85992D01*
X122520Y-86128D01*
X122613Y-86156D01*
X122919Y-85850D01*
X122919Y-86010D01*
X122693Y-86236D01*
X122721Y-86329D01*
X122926Y-86399D01*
X123142Y-86385D01*
X123278Y-86329D01*
X123306Y-86236D01*
X123306Y-86782D01*
X123258Y-86667D01*
X123168Y-86641D01*
X123088Y-86722D01*
X123088Y-86561D01*
X123062Y-86471D01*
X122867Y-86405D01*
X122661Y-86419D01*
X122537Y-86471D01*
X122511Y-86561D01*
X122800Y-86849D01*
X123088Y-86561D01*
X123088Y-86722D01*
X122880Y-86930D01*
X123168Y-87218D01*
X123258Y-87192D01*
X123324Y-86997D01*
X123324Y-88640D01*
X123216Y-88640D01*
X123216Y-87847D01*
X123153Y-87694D01*
X123088Y-87628D01*
X123088Y-87298D01*
X122800Y-87010D01*
X122719Y-87090D01*
X122719Y-86930D01*
X122431Y-86641D01*
X122341Y-86667D01*
X122275Y-86862D01*
X122289Y-87068D01*
X122341Y-87192D01*
X122431Y-87218D01*
X122719Y-86930D01*
X122719Y-87090D01*
X122511Y-87298D01*
X122537Y-87388D01*
X122732Y-87454D01*
X122938Y-87440D01*
X123062Y-87388D01*
X123088Y-87298D01*
X123088Y-87628D01*
X123036Y-87576D01*
X122883Y-87513D01*
X122717Y-87513D01*
X122564Y-87576D01*
X122500Y-87640D01*
X122220Y-87640D01*
X122109Y-87662D01*
X122015Y-87725D01*
X121095Y-88645D01*
X121032Y-88739D01*
X121010Y-88850D01*
X121010Y-92700D01*
X121000Y-92710D01*
X120716Y-92710D01*
X120716Y-92696D01*
X120695Y-92644D01*
X120655Y-92604D01*
X120603Y-92583D01*
X120589Y-92583D01*
X120589Y-91550D01*
X120567Y-91439D01*
X120504Y-91345D01*
X120504Y-91345D01*
X120004Y-90845D01*
X119910Y-90782D01*
X119800Y-90760D01*
X119235Y-90760D01*
X119150Y-90675D01*
X118988Y-90608D01*
X118812Y-90608D01*
X118650Y-90675D01*
X118525Y-90799D01*
X118458Y-90961D01*
X118458Y-91137D01*
X118525Y-91299D01*
X118649Y-91424D01*
X118811Y-91491D01*
X118987Y-91491D01*
X119149Y-91424D01*
X119235Y-91339D01*
X119680Y-91339D01*
X120010Y-91669D01*
X120010Y-92583D01*
X119996Y-92583D01*
X119944Y-92604D01*
X119904Y-92644D01*
X119883Y-92696D01*
X119883Y-92753D01*
X119883Y-93303D01*
X119904Y-93355D01*
X119944Y-93395D01*
X119996Y-93416D01*
X120053Y-93416D01*
X120603Y-93416D01*
X120655Y-93395D01*
X120695Y-93355D01*
X120716Y-93303D01*
X120716Y-93289D01*
X121000Y-93289D01*
X121063Y-93353D01*
X121216Y-93416D01*
X121382Y-93416D01*
X121535Y-93353D01*
X121653Y-93236D01*
X121716Y-93083D01*
X121716Y-92917D01*
X121653Y-92764D01*
X121589Y-92700D01*
X121589Y-88969D01*
X122339Y-88219D01*
X122500Y-88219D01*
X122563Y-88283D01*
X122716Y-88346D01*
X122882Y-88346D01*
X123035Y-88283D01*
X123153Y-88166D01*
X123216Y-88013D01*
X123216Y-87847D01*
X123216Y-88640D01*
X123099Y-88640D01*
X123036Y-88576D01*
X122883Y-88513D01*
X122717Y-88513D01*
X122564Y-88576D01*
X122446Y-88693D01*
X122383Y-88846D01*
X122383Y-89012D01*
X122446Y-89165D01*
X122563Y-89283D01*
X122716Y-89346D01*
X122882Y-89346D01*
X123035Y-89283D01*
X123099Y-89219D01*
X123610Y-89219D01*
X123610Y-89350D01*
X123632Y-89460D01*
X123695Y-89554D01*
X123958Y-89817D01*
X123958Y-89909D01*
X124019Y-90057D01*
X124132Y-90170D01*
X124279Y-90231D01*
X124439Y-90231D01*
X124587Y-90170D01*
X124700Y-90057D01*
X124761Y-89910D01*
X124761Y-89750D01*
X124761Y-90120D01*
X124708Y-90249D01*
X124708Y-90409D01*
X124769Y-90557D01*
X124781Y-90569D01*
X124717Y-90552D01*
X124637Y-90632D01*
X124637Y-90472D01*
X124613Y-90384D01*
X124423Y-90320D01*
X124224Y-90335D01*
X124106Y-90384D01*
X124082Y-90472D01*
X124360Y-90749D01*
X124637Y-90472D01*
X124637Y-90632D01*
X124440Y-90830D01*
X124717Y-91107D01*
X124805Y-91083D01*
X124869Y-90893D01*
X124854Y-90694D01*
X124818Y-90606D01*
X124882Y-90670D01*
X125029Y-90731D01*
X125189Y-90731D01*
X125337Y-90670D01*
X125450Y-90557D01*
X125511Y-90410D01*
X125511Y-90250D01*
X125450Y-90102D01*
X125399Y-90051D01*
X125399Y-89079D01*
X125456Y-88941D01*
X125456Y-88759D01*
X125387Y-88591D01*
X125289Y-88493D01*
X125289Y-88069D01*
X125917Y-87441D01*
X125982Y-87441D01*
X126533Y-87992D01*
X126533Y-88032D01*
X126596Y-88185D01*
X126713Y-88303D01*
X126866Y-88366D01*
X127032Y-88366D01*
X127185Y-88303D01*
X127303Y-88186D01*
X127366Y-88033D01*
X127366Y-87867D01*
X127366Y-90496D01*
X127353Y-90464D01*
X127289Y-90400D01*
X127289Y-90400D01*
X127267Y-90289D01*
X127267Y-90289D01*
X127246Y-90258D01*
X127204Y-90195D01*
X127204Y-90195D01*
X126554Y-89545D01*
X126460Y-89482D01*
X126350Y-89460D01*
X126235Y-89460D01*
X126189Y-89414D01*
X126189Y-89185D01*
X126274Y-89100D01*
X126341Y-88938D01*
X126341Y-88762D01*
X126274Y-88600D01*
X126150Y-88475D01*
X125988Y-88408D01*
X125812Y-88408D01*
X125650Y-88475D01*
X125525Y-88599D01*
X125458Y-88761D01*
X125458Y-88937D01*
X125525Y-89099D01*
X125610Y-89185D01*
X125610Y-89414D01*
X125525Y-89499D01*
X125458Y-89661D01*
X125458Y-89837D01*
X125525Y-89999D01*
X125649Y-90124D01*
X125811Y-90191D01*
X125987Y-90191D01*
X126149Y-90124D01*
X126232Y-90041D01*
X126650Y-90459D01*
X126646Y-90463D01*
X126583Y-90616D01*
X126583Y-90782D01*
X126646Y-90935D01*
X126763Y-91053D01*
X126916Y-91116D01*
X127082Y-91116D01*
X127235Y-91053D01*
X127353Y-90936D01*
X127416Y-90783D01*
X127416Y-90617D01*
X127416Y-92771D01*
X126468Y-93720D01*
X126468Y-93273D01*
X126468Y-92626D01*
X126431Y-92537D01*
X126366Y-92472D01*
X126366Y-91867D01*
X126366Y-90867D01*
X126303Y-90714D01*
X126186Y-90596D01*
X126033Y-90533D01*
X125867Y-90533D01*
X125714Y-90596D01*
X125596Y-90713D01*
X125533Y-90866D01*
X125533Y-91032D01*
X125596Y-91185D01*
X125713Y-91303D01*
X125866Y-91366D01*
X126032Y-91366D01*
X126185Y-91303D01*
X126303Y-91186D01*
X126366Y-91033D01*
X126366Y-90867D01*
X126366Y-91867D01*
X126303Y-91714D01*
X126186Y-91596D01*
X126033Y-91533D01*
X125867Y-91533D01*
X125714Y-91596D01*
X125596Y-91713D01*
X125544Y-91838D01*
X125159Y-92224D01*
X125100Y-92283D01*
X125013Y-92283D01*
X125007Y-92277D01*
X125095Y-92253D01*
X125159Y-92063D01*
X125144Y-91864D01*
X125095Y-91746D01*
X125007Y-91722D01*
X124927Y-91802D01*
X124927Y-91642D01*
X124903Y-91554D01*
X124713Y-91490D01*
X124637Y-91496D01*
X124637Y-91187D01*
X124360Y-90910D01*
X124279Y-90990D01*
X124279Y-90830D01*
X124002Y-90552D01*
X123914Y-90576D01*
X123850Y-90766D01*
X123865Y-90965D01*
X123914Y-91083D01*
X124002Y-91107D01*
X124279Y-90830D01*
X124279Y-90990D01*
X124082Y-91187D01*
X124106Y-91275D01*
X124296Y-91339D01*
X124495Y-91324D01*
X124613Y-91275D01*
X124637Y-91187D01*
X124637Y-91496D01*
X124514Y-91505D01*
X124396Y-91554D01*
X124372Y-91642D01*
X124650Y-91919D01*
X124927Y-91642D01*
X124927Y-91802D01*
X124730Y-92000D01*
X124735Y-92005D01*
X124655Y-92085D01*
X124650Y-92080D01*
X124644Y-92085D01*
X124564Y-92005D01*
X124569Y-92000D01*
X124292Y-91722D01*
X124204Y-91746D01*
X124140Y-91936D01*
X124155Y-92135D01*
X124191Y-92223D01*
X124127Y-92159D01*
X123980Y-92098D01*
X123820Y-92098D01*
X123672Y-92159D01*
X123559Y-92272D01*
X123498Y-92419D01*
X123498Y-92579D01*
X123540Y-92680D01*
X123189Y-92330D01*
X123189Y-92285D01*
X123274Y-92200D01*
X123341Y-92038D01*
X123341Y-91862D01*
X123274Y-91700D01*
X123189Y-91614D01*
X123189Y-91385D01*
X123274Y-91300D01*
X123341Y-91138D01*
X123341Y-90962D01*
X123274Y-90800D01*
X123216Y-90742D01*
X123216Y-90176D01*
X123216Y-89626D01*
X123195Y-89574D01*
X123155Y-89534D01*
X123103Y-89513D01*
X123046Y-89513D01*
X122496Y-89513D01*
X122444Y-89534D01*
X122404Y-89574D01*
X122383Y-89626D01*
X122383Y-89680D01*
X122315Y-89725D01*
X121795Y-90245D01*
X121732Y-90339D01*
X121710Y-90450D01*
X121710Y-92500D01*
X121732Y-92610D01*
X121795Y-92704D01*
X121919Y-92829D01*
X121883Y-92916D01*
X121883Y-93082D01*
X121934Y-93206D01*
X121330Y-93810D01*
X120035Y-93810D01*
X119950Y-93725D01*
X119788Y-93658D01*
X119612Y-93658D01*
X119450Y-93725D01*
X119325Y-93849D01*
X119258Y-94011D01*
X119258Y-94187D01*
X119325Y-94349D01*
X119449Y-94474D01*
X119611Y-94541D01*
X119787Y-94541D01*
X119949Y-94474D01*
X120035Y-94389D01*
X121230Y-94389D01*
X121260Y-94419D01*
X121260Y-95658D01*
X121221Y-95658D01*
X121169Y-95679D01*
X121129Y-95719D01*
X121108Y-95771D01*
X121108Y-95828D01*
X121108Y-96428D01*
X121129Y-96480D01*
X121169Y-96520D01*
X121221Y-96541D01*
X121278Y-96541D01*
X121878Y-96541D01*
X121930Y-96520D01*
X121970Y-96480D01*
X121991Y-96428D01*
X121991Y-96371D01*
X121991Y-95771D01*
X121970Y-95719D01*
X121930Y-95679D01*
X121878Y-95658D01*
X121839Y-95658D01*
X121839Y-94300D01*
X121820Y-94207D01*
X121817Y-94189D01*
X121817Y-94189D01*
X121798Y-94160D01*
X122504Y-93454D01*
X122504Y-93454D01*
X122567Y-93360D01*
X122576Y-93312D01*
X122576Y-93312D01*
X122653Y-93236D01*
X122716Y-93083D01*
X122716Y-92917D01*
X122653Y-92764D01*
X122544Y-92655D01*
X122504Y-92595D01*
X122504Y-92595D01*
X122289Y-92380D01*
X122289Y-90569D01*
X122512Y-90346D01*
X122553Y-90346D01*
X123103Y-90346D01*
X123155Y-90325D01*
X123195Y-90285D01*
X123216Y-90233D01*
X123216Y-90176D01*
X123216Y-90742D01*
X123150Y-90675D01*
X122988Y-90608D01*
X122812Y-90608D01*
X122650Y-90675D01*
X122525Y-90799D01*
X122458Y-90961D01*
X122458Y-91137D01*
X122525Y-91299D01*
X122610Y-91385D01*
X122610Y-91614D01*
X122525Y-91699D01*
X122458Y-91861D01*
X122458Y-92037D01*
X122525Y-92199D01*
X122610Y-92285D01*
X122610Y-92450D01*
X122632Y-92560D01*
X122695Y-92654D01*
X123445Y-93404D01*
X123445Y-93404D01*
X123508Y-93446D01*
X123539Y-93467D01*
X123539Y-93467D01*
X123649Y-93489D01*
X123650Y-93489D01*
X124450Y-93489D01*
X124450Y-93489D01*
X124560Y-93467D01*
X124654Y-93404D01*
X124657Y-93401D01*
X124729Y-93401D01*
X124877Y-93340D01*
X124990Y-93227D01*
X125051Y-93080D01*
X125051Y-92920D01*
X124990Y-92772D01*
X124934Y-92716D01*
X125190Y-92716D01*
X125272Y-92700D01*
X125343Y-92653D01*
X125703Y-92292D01*
X125713Y-92303D01*
X125866Y-92366D01*
X126032Y-92366D01*
X126185Y-92303D01*
X126303Y-92186D01*
X126366Y-92033D01*
X126366Y-91867D01*
X126366Y-92472D01*
X126363Y-92468D01*
X126273Y-92431D01*
X126176Y-92431D01*
X126067Y-92431D01*
X126006Y-92492D01*
X126006Y-92893D01*
X126407Y-92893D01*
X126468Y-92832D01*
X126468Y-92626D01*
X126468Y-93273D01*
X126468Y-93067D01*
X126407Y-93006D01*
X126006Y-93006D01*
X126006Y-93407D01*
X126067Y-93468D01*
X126176Y-93468D01*
X126273Y-93468D01*
X126363Y-93431D01*
X126431Y-93362D01*
X126468Y-93273D01*
X126468Y-93720D01*
X125893Y-94295D01*
X125893Y-93407D01*
X125893Y-93006D01*
X125893Y-92893D01*
X125893Y-92492D01*
X125832Y-92431D01*
X125723Y-92431D01*
X125626Y-92431D01*
X125536Y-92468D01*
X125468Y-92537D01*
X125431Y-92626D01*
X125431Y-92832D01*
X125492Y-92893D01*
X125893Y-92893D01*
X125893Y-93006D01*
X125492Y-93006D01*
X125431Y-93067D01*
X125431Y-93273D01*
X125468Y-93362D01*
X125536Y-93431D01*
X125626Y-93468D01*
X125723Y-93468D01*
X125832Y-93468D01*
X125893Y-93407D01*
X125893Y-94295D01*
X125156Y-95032D01*
X125156Y-96909D01*
X124141Y-96909D01*
X124141Y-94962D01*
X124141Y-94012D01*
X124074Y-93850D01*
X123950Y-93725D01*
X123788Y-93658D01*
X123612Y-93658D01*
X123450Y-93725D01*
X123325Y-93849D01*
X123258Y-94011D01*
X123258Y-94187D01*
X123325Y-94349D01*
X123449Y-94474D01*
X123611Y-94541D01*
X123787Y-94541D01*
X123949Y-94474D01*
X124074Y-94350D01*
X124141Y-94188D01*
X124141Y-94012D01*
X124141Y-94962D01*
X124074Y-94800D01*
X123950Y-94675D01*
X123788Y-94608D01*
X123612Y-94608D01*
X123450Y-94675D01*
X123325Y-94799D01*
X123258Y-94961D01*
X123258Y-95137D01*
X123325Y-95299D01*
X123449Y-95424D01*
X123611Y-95491D01*
X123787Y-95491D01*
X123949Y-95424D01*
X124074Y-95300D01*
X124141Y-95138D01*
X124141Y-94962D01*
X124141Y-96909D01*
X121949Y-96909D01*
X121924Y-96850D01*
X121800Y-96725D01*
X121638Y-96658D01*
X121462Y-96658D01*
X121300Y-96725D01*
X121175Y-96849D01*
X121108Y-97011D01*
X121108Y-97187D01*
X121175Y-97349D01*
X121299Y-97474D01*
X121461Y-97541D01*
X121637Y-97541D01*
X121799Y-97474D01*
X121924Y-97350D01*
X121949Y-97290D01*
X125156Y-97290D01*
X125156Y-98067D01*
X125282Y-98193D01*
X127582Y-98193D01*
X130106Y-100717D01*
X130106Y-105893D01*
X131232Y-105893D01*
X133606Y-108267D01*
X133606Y-109134D01*
X133606Y-109134D01*
G37*
G54D38*
X133606Y-109134D02*
X132631Y-110108D01*
X132631Y-109707D01*
X132631Y-108707D01*
X132631Y-108707D01*
X132631Y-108036D01*
X132631Y-107486D01*
X132610Y-107434D01*
X132570Y-107394D01*
X132518Y-107373D01*
X132461Y-107373D01*
X131911Y-107373D01*
X131859Y-107394D01*
X131819Y-107434D01*
X131798Y-107486D01*
X131798Y-107543D01*
X131798Y-108093D01*
X131819Y-108145D01*
X131859Y-108185D01*
X131911Y-108206D01*
X131968Y-108206D01*
X132518Y-108206D01*
X132570Y-108185D01*
X132610Y-108145D01*
X132631Y-108093D01*
X132631Y-108036D01*
X132631Y-108707D01*
X132568Y-108554D01*
X132451Y-108436D01*
X132298Y-108373D01*
X132132Y-108373D01*
X131979Y-108436D01*
X131948Y-108467D01*
X131629Y-108148D01*
X131629Y-107299D01*
X131734Y-107195D01*
X131801Y-107033D01*
X131801Y-106857D01*
X131734Y-106695D01*
X131610Y-106570D01*
X131448Y-106503D01*
X131272Y-106503D01*
X131110Y-106570D01*
X130985Y-106694D01*
X130918Y-106856D01*
X130918Y-107032D01*
X130985Y-107194D01*
X131090Y-107300D01*
X131090Y-108260D01*
X131110Y-108363D01*
X131169Y-108450D01*
X131699Y-108980D01*
X131786Y-109039D01*
X131890Y-109059D01*
X131895Y-109059D01*
X131978Y-109143D01*
X132131Y-109206D01*
X132297Y-109206D01*
X132450Y-109143D01*
X132568Y-109026D01*
X132631Y-108873D01*
X132631Y-108707D01*
X132631Y-109707D01*
X132568Y-109554D01*
X132451Y-109436D01*
X132298Y-109373D01*
X132132Y-109373D01*
X131979Y-109436D01*
X131861Y-109553D01*
X131798Y-109706D01*
X131798Y-109872D01*
X131861Y-110025D01*
X131978Y-110143D01*
X132131Y-110206D01*
X132297Y-110206D01*
X132450Y-110143D01*
X132568Y-110026D01*
X132631Y-109873D01*
X132631Y-109707D01*
X132631Y-110108D01*
X132530Y-110210D01*
X132019Y-110210D01*
X130639Y-108830D01*
X130639Y-107500D01*
X130639Y-106900D01*
X130620Y-106807D01*
X130617Y-106789D01*
X130617Y-106789D01*
X130554Y-106695D01*
X130554Y-106695D01*
X130129Y-106270D01*
X130035Y-106207D01*
X129925Y-106185D01*
X129614Y-106185D01*
X129614Y-100425D01*
X129592Y-100314D01*
X129592Y-100314D01*
X129571Y-100283D01*
X129529Y-100220D01*
X129529Y-100220D01*
X127834Y-98525D01*
X127740Y-98462D01*
X127630Y-98440D01*
X120991Y-98440D01*
X120991Y-97012D01*
X120991Y-96012D01*
X120924Y-95850D01*
X120800Y-95725D01*
X120638Y-95658D01*
X120462Y-95658D01*
X120300Y-95725D01*
X120175Y-95849D01*
X120141Y-95931D01*
X120141Y-94962D01*
X120074Y-94800D01*
X119950Y-94675D01*
X119788Y-94608D01*
X119612Y-94608D01*
X119450Y-94675D01*
X119325Y-94799D01*
X119258Y-94961D01*
X119258Y-95137D01*
X119325Y-95299D01*
X119449Y-95424D01*
X119611Y-95491D01*
X119787Y-95491D01*
X119949Y-95424D01*
X120074Y-95300D01*
X120141Y-95138D01*
X120141Y-94962D01*
X120141Y-95931D01*
X120108Y-96011D01*
X120108Y-96187D01*
X120175Y-96349D01*
X120299Y-96474D01*
X120461Y-96541D01*
X120637Y-96541D01*
X120799Y-96474D01*
X120924Y-96350D01*
X120991Y-96188D01*
X120991Y-96012D01*
X120991Y-97012D01*
X120924Y-96850D01*
X120800Y-96725D01*
X120638Y-96658D01*
X120462Y-96658D01*
X120300Y-96725D01*
X120175Y-96849D01*
X120108Y-97011D01*
X120108Y-97187D01*
X120175Y-97349D01*
X120299Y-97474D01*
X120461Y-97541D01*
X120637Y-97541D01*
X120799Y-97474D01*
X120924Y-97350D01*
X120991Y-97188D01*
X120991Y-97012D01*
X120991Y-98440D01*
X120449Y-98440D01*
X119039Y-97030D01*
X119039Y-92370D01*
X119149Y-92324D01*
X119274Y-92200D01*
X119341Y-92038D01*
X119341Y-91862D01*
X119274Y-91700D01*
X119150Y-91575D01*
X118988Y-91508D01*
X118812Y-91508D01*
X118650Y-91575D01*
X118525Y-91699D01*
X118458Y-91861D01*
X118458Y-92037D01*
X118468Y-92061D01*
X118460Y-92100D01*
X118460Y-97150D01*
X118482Y-97260D01*
X118545Y-97354D01*
X120125Y-98934D01*
X120125Y-98934D01*
X120188Y-98976D01*
X120219Y-98997D01*
X120219Y-98997D01*
X120329Y-99019D01*
X120330Y-99019D01*
X127510Y-99019D01*
X128777Y-100286D01*
X128673Y-100250D01*
X128457Y-100264D01*
X128321Y-100320D01*
X128293Y-100413D01*
X128600Y-100719D01*
X128605Y-100714D01*
X128685Y-100794D01*
X128680Y-100800D01*
X128986Y-101106D01*
X129035Y-101091D01*
X129035Y-101508D01*
X128986Y-101493D01*
X128906Y-101573D01*
X128906Y-101413D01*
X128878Y-101320D01*
X128822Y-101301D01*
X128878Y-101279D01*
X128906Y-101186D01*
X128600Y-100880D01*
X128519Y-100960D01*
X128519Y-100800D01*
X128213Y-100493D01*
X128120Y-100521D01*
X128050Y-100726D01*
X128064Y-100942D01*
X128120Y-101078D01*
X128213Y-101106D01*
X128519Y-100800D01*
X128519Y-100960D01*
X128293Y-101186D01*
X128321Y-101279D01*
X128377Y-101298D01*
X128321Y-101320D01*
X128293Y-101413D01*
X128600Y-101719D01*
X128906Y-101413D01*
X128906Y-101573D01*
X128680Y-101800D01*
X128986Y-102106D01*
X129035Y-102091D01*
X129035Y-106006D01*
X128906Y-106006D01*
X128906Y-102186D01*
X128600Y-101880D01*
X128519Y-101960D01*
X128519Y-101800D01*
X128213Y-101493D01*
X128120Y-101521D01*
X128050Y-101726D01*
X128064Y-101942D01*
X128120Y-102078D01*
X128213Y-102106D01*
X128519Y-101800D01*
X128519Y-101960D01*
X128293Y-102186D01*
X128321Y-102279D01*
X128526Y-102349D01*
X128742Y-102335D01*
X128878Y-102279D01*
X128906Y-102186D01*
X128906Y-106006D01*
X128190Y-106006D01*
X128238Y-105958D01*
X128238Y-105772D01*
X128201Y-105682D01*
X128133Y-105614D01*
X128043Y-105577D01*
X128041Y-105577D01*
X128041Y-101712D01*
X127974Y-101550D01*
X127850Y-101425D01*
X127688Y-101358D01*
X127512Y-101358D01*
X127350Y-101425D01*
X127225Y-101549D01*
X127158Y-101711D01*
X127158Y-101887D01*
X127225Y-102049D01*
X127349Y-102174D01*
X127511Y-102241D01*
X127687Y-102241D01*
X127849Y-102174D01*
X127974Y-102050D01*
X128041Y-101888D01*
X128041Y-101712D01*
X128041Y-105577D01*
X127946Y-105577D01*
X127817Y-105577D01*
X127756Y-105638D01*
X127756Y-106006D01*
X127643Y-106006D01*
X127643Y-105638D01*
X127582Y-105577D01*
X127453Y-105577D01*
X127356Y-105577D01*
X127300Y-105600D01*
X127243Y-105577D01*
X127146Y-105577D01*
X127041Y-105577D01*
X127041Y-101712D01*
X127041Y-100712D01*
X126974Y-100550D01*
X126850Y-100425D01*
X126688Y-100358D01*
X126512Y-100358D01*
X126350Y-100425D01*
X126225Y-100549D01*
X126158Y-100711D01*
X126158Y-100887D01*
X126225Y-101049D01*
X126349Y-101174D01*
X126511Y-101241D01*
X126687Y-101241D01*
X126849Y-101174D01*
X126974Y-101050D01*
X127041Y-100888D01*
X127041Y-100712D01*
X127041Y-101712D01*
X126974Y-101550D01*
X126850Y-101425D01*
X126688Y-101358D01*
X126512Y-101358D01*
X126350Y-101425D01*
X126225Y-101549D01*
X126158Y-101711D01*
X126158Y-101887D01*
X126225Y-102049D01*
X126349Y-102174D01*
X126511Y-102241D01*
X126687Y-102241D01*
X126849Y-102174D01*
X126974Y-102050D01*
X127041Y-101888D01*
X127041Y-101712D01*
X127041Y-105577D01*
X127017Y-105577D01*
X126956Y-105638D01*
X126956Y-106006D01*
X126843Y-106006D01*
X126843Y-105638D01*
X126843Y-104456D01*
X126443Y-104456D01*
X126443Y-103801D01*
X126406Y-103712D01*
X126338Y-103643D01*
X126248Y-103606D01*
X126151Y-103606D01*
X126041Y-103606D01*
X126041Y-101712D01*
X126041Y-100712D01*
X125974Y-100550D01*
X125850Y-100425D01*
X125688Y-100358D01*
X125512Y-100358D01*
X125350Y-100425D01*
X125225Y-100549D01*
X125158Y-100711D01*
X125158Y-100887D01*
X125225Y-101049D01*
X125349Y-101174D01*
X125511Y-101241D01*
X125687Y-101241D01*
X125849Y-101174D01*
X125974Y-101050D01*
X126041Y-100888D01*
X126041Y-100712D01*
X126041Y-101712D01*
X125974Y-101550D01*
X125850Y-101425D01*
X125688Y-101358D01*
X125512Y-101358D01*
X125350Y-101425D01*
X125225Y-101549D01*
X125158Y-101711D01*
X125158Y-101887D01*
X125225Y-102049D01*
X125349Y-102174D01*
X125511Y-102241D01*
X125687Y-102241D01*
X125849Y-102174D01*
X125974Y-102050D01*
X126041Y-101888D01*
X126041Y-101712D01*
X126041Y-103606D01*
X125917Y-103606D01*
X125856Y-103667D01*
X125856Y-104093D01*
X126382Y-104093D01*
X126443Y-104032D01*
X126443Y-103801D01*
X126443Y-104456D01*
X126443Y-104456D01*
X126443Y-104267D01*
X126382Y-104206D01*
X125856Y-104206D01*
X125856Y-104214D01*
X125743Y-104214D01*
X125743Y-104206D01*
X125743Y-104093D01*
X125743Y-103667D01*
X125682Y-103606D01*
X125448Y-103606D01*
X125351Y-103606D01*
X125275Y-103638D01*
X125198Y-103606D01*
X125101Y-103606D01*
X124867Y-103606D01*
X124806Y-103667D01*
X124806Y-104093D01*
X125217Y-104093D01*
X125332Y-104093D01*
X125743Y-104093D01*
X125743Y-104206D01*
X125332Y-104206D01*
X125217Y-104206D01*
X124806Y-104206D01*
X124806Y-104214D01*
X124693Y-104214D01*
X124693Y-104206D01*
X124693Y-104093D01*
X124693Y-103667D01*
X124632Y-103606D01*
X124398Y-103606D01*
X124301Y-103606D01*
X124211Y-103643D01*
X124143Y-103712D01*
X124106Y-103801D01*
X124106Y-104032D01*
X124167Y-104093D01*
X124693Y-104093D01*
X124693Y-104206D01*
X124167Y-104206D01*
X124106Y-104267D01*
X124106Y-104498D01*
X124143Y-104587D01*
X124156Y-104600D01*
X124156Y-106756D01*
X124141Y-106762D01*
X123963Y-106940D01*
X123866Y-107173D01*
X123866Y-107425D01*
X123962Y-107658D01*
X124140Y-107836D01*
X124156Y-107843D01*
X124156Y-108282D01*
X122907Y-109531D01*
X122868Y-111225D01*
X122660Y-111433D01*
X121839Y-111433D01*
X121716Y-111310D01*
X121716Y-111077D01*
X121738Y-111055D01*
X121750Y-111027D01*
X121761Y-111055D01*
X121801Y-111095D01*
X121853Y-111117D01*
X121910Y-111117D01*
X122146Y-111117D01*
X122198Y-111095D01*
X122238Y-111055D01*
X122250Y-111027D01*
X122261Y-111055D01*
X122301Y-111095D01*
X122353Y-111117D01*
X122410Y-111117D01*
X122646Y-111117D01*
X122698Y-111095D01*
X122738Y-111055D01*
X122759Y-111003D01*
X122759Y-110947D01*
X122759Y-110396D01*
X122738Y-110344D01*
X122726Y-110332D01*
X122726Y-110070D01*
X122726Y-110069D01*
X122726Y-110069D01*
X122723Y-110052D01*
X122709Y-109983D01*
X122709Y-109983D01*
X122660Y-109909D01*
X122660Y-109909D01*
X122125Y-109374D01*
X122051Y-109325D01*
X121965Y-109308D01*
X120898Y-109308D01*
X120526Y-108936D01*
X120526Y-107421D01*
X121307Y-108202D01*
X121301Y-108204D01*
X121261Y-108244D01*
X121249Y-108272D01*
X121238Y-108244D01*
X121198Y-108204D01*
X121146Y-108182D01*
X121089Y-108182D01*
X120853Y-108182D01*
X120801Y-108204D01*
X120761Y-108244D01*
X120740Y-108296D01*
X120740Y-108352D01*
X120740Y-108903D01*
X120761Y-108955D01*
X120801Y-108995D01*
X120853Y-109017D01*
X120910Y-109017D01*
X121146Y-109017D01*
X121198Y-108995D01*
X121238Y-108955D01*
X121250Y-108927D01*
X121261Y-108955D01*
X121301Y-108995D01*
X121353Y-109017D01*
X121410Y-109017D01*
X121646Y-109017D01*
X121698Y-108995D01*
X121738Y-108955D01*
X121750Y-108927D01*
X121761Y-108955D01*
X121801Y-108995D01*
X121853Y-109017D01*
X121910Y-109017D01*
X122146Y-109017D01*
X122198Y-108995D01*
X122238Y-108955D01*
X122250Y-108927D01*
X122261Y-108955D01*
X122301Y-108995D01*
X122353Y-109017D01*
X122410Y-109017D01*
X122646Y-109017D01*
X122698Y-108995D01*
X122738Y-108955D01*
X122759Y-108903D01*
X122759Y-108847D01*
X122759Y-108296D01*
X122738Y-108244D01*
X122698Y-108204D01*
X122690Y-108201D01*
X122690Y-107550D01*
X122676Y-107476D01*
X122676Y-107476D01*
X122635Y-107414D01*
X122635Y-107414D01*
X122565Y-107345D01*
X122565Y-107327D01*
X122528Y-107239D01*
X122461Y-107171D01*
X122372Y-107134D01*
X122277Y-107134D01*
X122189Y-107171D01*
X122121Y-107238D01*
X122084Y-107327D01*
X122084Y-107422D01*
X122121Y-107510D01*
X122188Y-107578D01*
X122277Y-107615D01*
X122295Y-107615D01*
X122309Y-107629D01*
X122309Y-108201D01*
X122301Y-108204D01*
X122261Y-108244D01*
X122249Y-108272D01*
X122238Y-108244D01*
X122198Y-108204D01*
X122190Y-108201D01*
X122190Y-108085D01*
X122176Y-108011D01*
X122176Y-108011D01*
X122135Y-107949D01*
X121485Y-107300D01*
X121485Y-106211D01*
X121503Y-106211D01*
X121663Y-106211D01*
X121684Y-106202D01*
X121706Y-106211D01*
X121763Y-106211D01*
X121923Y-106211D01*
X121939Y-106204D01*
X121956Y-106211D01*
X122013Y-106211D01*
X122173Y-106211D01*
X122194Y-106202D01*
X122216Y-106211D01*
X122273Y-106211D01*
X122384Y-106211D01*
X122384Y-106530D01*
X122398Y-106603D01*
X122439Y-106665D01*
X123254Y-107479D01*
X123254Y-108146D01*
X123241Y-108158D01*
X123204Y-108247D01*
X123204Y-108342D01*
X123241Y-108430D01*
X123308Y-108498D01*
X123397Y-108535D01*
X123492Y-108535D01*
X123580Y-108498D01*
X123648Y-108431D01*
X123685Y-108342D01*
X123685Y-108247D01*
X123648Y-108159D01*
X123635Y-108146D01*
X123635Y-107400D01*
X123621Y-107326D01*
X123621Y-107326D01*
X123580Y-107264D01*
X123158Y-106843D01*
X123158Y-106021D01*
X123158Y-105937D01*
X123097Y-105876D01*
X122875Y-105876D01*
X122875Y-106252D01*
X122935Y-106313D01*
X122963Y-106313D01*
X123052Y-106276D01*
X123121Y-106208D01*
X123158Y-106118D01*
X123158Y-106021D01*
X123158Y-106843D01*
X122765Y-106450D01*
X122765Y-106281D01*
X122795Y-106252D01*
X122795Y-106102D01*
X122796Y-106098D01*
X122796Y-106041D01*
X122796Y-105755D01*
X122875Y-105755D01*
X122875Y-105763D01*
X123097Y-105763D01*
X123158Y-105702D01*
X123158Y-105618D01*
X123158Y-105521D01*
X123121Y-105431D01*
X123052Y-105363D01*
X123019Y-105350D01*
X123020Y-105350D01*
X123980Y-104390D01*
X124021Y-104328D01*
X124021Y-104328D01*
X124035Y-104255D01*
X124035Y-102499D01*
X124250Y-102285D01*
X124250Y-102285D01*
X124250Y-102285D01*
X124280Y-102238D01*
X124291Y-102223D01*
X124291Y-102223D01*
X124291Y-102223D01*
X124305Y-102150D01*
X124305Y-102130D01*
X124349Y-102174D01*
X124511Y-102241D01*
X124687Y-102241D01*
X124849Y-102174D01*
X124974Y-102050D01*
X125041Y-101888D01*
X125041Y-101712D01*
X124974Y-101550D01*
X124850Y-101425D01*
X124688Y-101358D01*
X124512Y-101358D01*
X124350Y-101425D01*
X124305Y-101469D01*
X124305Y-101364D01*
X124452Y-101217D01*
X124511Y-101241D01*
X124687Y-101241D01*
X124849Y-101174D01*
X124974Y-101050D01*
X125041Y-100888D01*
X125041Y-100712D01*
X124974Y-100550D01*
X124850Y-100425D01*
X124688Y-100358D01*
X124512Y-100358D01*
X124350Y-100425D01*
X124225Y-100549D01*
X124158Y-100711D01*
X124158Y-100887D01*
X124182Y-100947D01*
X124041Y-101088D01*
X124041Y-100712D01*
X123974Y-100550D01*
X123850Y-100425D01*
X123688Y-100358D01*
X123512Y-100358D01*
X123350Y-100425D01*
X123225Y-100549D01*
X123158Y-100711D01*
X123158Y-100887D01*
X123225Y-101049D01*
X123349Y-101174D01*
X123511Y-101241D01*
X123687Y-101241D01*
X123849Y-101174D01*
X123974Y-101050D01*
X124041Y-100888D01*
X124041Y-100712D01*
X124041Y-101088D01*
X123979Y-101149D01*
X123938Y-101211D01*
X123924Y-101285D01*
X123924Y-101499D01*
X123850Y-101425D01*
X123688Y-101358D01*
X123512Y-101358D01*
X123452Y-101382D01*
X123230Y-101159D01*
X123168Y-101118D01*
X123095Y-101104D01*
X122920Y-101104D01*
X122974Y-101050D01*
X123041Y-100888D01*
X123041Y-100712D01*
X122974Y-100550D01*
X122850Y-100425D01*
X122688Y-100358D01*
X122512Y-100358D01*
X122350Y-100425D01*
X122225Y-100549D01*
X122158Y-100711D01*
X122158Y-100887D01*
X122225Y-101049D01*
X122295Y-101119D01*
X122281Y-101129D01*
X122234Y-101159D01*
X122234Y-101159D01*
X122041Y-101353D01*
X122041Y-100712D01*
X121974Y-100550D01*
X121850Y-100425D01*
X121688Y-100358D01*
X121512Y-100358D01*
X121350Y-100425D01*
X121225Y-100549D01*
X121158Y-100711D01*
X121158Y-100887D01*
X121225Y-101049D01*
X121349Y-101174D01*
X121511Y-101241D01*
X121687Y-101241D01*
X121849Y-101174D01*
X121974Y-101050D01*
X122041Y-100888D01*
X122041Y-100712D01*
X122041Y-101353D01*
X121974Y-101419D01*
X121933Y-101481D01*
X121929Y-101504D01*
X121850Y-101425D01*
X121688Y-101358D01*
X121512Y-101358D01*
X121350Y-101425D01*
X121225Y-101549D01*
X121158Y-101711D01*
X121158Y-101887D01*
X121225Y-102049D01*
X121349Y-102174D01*
X121511Y-102241D01*
X121683Y-102241D01*
X121159Y-102764D01*
X121118Y-102826D01*
X121104Y-102900D01*
X121104Y-103150D01*
X121104Y-103328D01*
X121096Y-103328D01*
X121067Y-103328D01*
X121041Y-103302D01*
X121041Y-101712D01*
X121041Y-100712D01*
X120974Y-100550D01*
X120850Y-100425D01*
X120688Y-100358D01*
X120512Y-100358D01*
X120350Y-100425D01*
X120225Y-100549D01*
X120158Y-100711D01*
X120158Y-100887D01*
X120225Y-101049D01*
X120349Y-101174D01*
X120511Y-101241D01*
X120687Y-101241D01*
X120849Y-101174D01*
X120974Y-101050D01*
X121041Y-100888D01*
X121041Y-100712D01*
X121041Y-101712D01*
X120974Y-101550D01*
X120850Y-101425D01*
X120688Y-101358D01*
X120512Y-101358D01*
X120350Y-101425D01*
X120225Y-101549D01*
X120158Y-101711D01*
X120158Y-101887D01*
X120225Y-102049D01*
X120349Y-102174D01*
X120511Y-102241D01*
X120687Y-102241D01*
X120849Y-102174D01*
X120974Y-102050D01*
X121041Y-101888D01*
X121041Y-101712D01*
X121041Y-103302D01*
X121002Y-103263D01*
X120913Y-103226D01*
X120885Y-103226D01*
X120825Y-103287D01*
X120825Y-103437D01*
X120823Y-103441D01*
X120823Y-103498D01*
X120823Y-103784D01*
X120746Y-103784D01*
X120746Y-103745D01*
X120751Y-103720D01*
X120751Y-103460D01*
X120751Y-103459D01*
X120751Y-103459D01*
X120748Y-103442D01*
X120745Y-103426D01*
X120745Y-103426D01*
X120745Y-103287D01*
X120684Y-103226D01*
X120656Y-103226D01*
X120625Y-103239D01*
X120305Y-102919D01*
X120231Y-102870D01*
X120145Y-102853D01*
X120041Y-102853D01*
X120041Y-100712D01*
X119974Y-100550D01*
X119850Y-100425D01*
X119688Y-100358D01*
X119512Y-100358D01*
X119350Y-100425D01*
X119225Y-100549D01*
X119158Y-100711D01*
X119158Y-100887D01*
X119225Y-101049D01*
X119349Y-101174D01*
X119511Y-101241D01*
X119687Y-101241D01*
X119849Y-101174D01*
X119974Y-101050D01*
X120041Y-100888D01*
X120041Y-100712D01*
X120041Y-102853D01*
X120041Y-102853D01*
X120041Y-102071D01*
X120041Y-101471D01*
X120020Y-101419D01*
X119980Y-101379D01*
X119928Y-101358D01*
X119871Y-101358D01*
X119271Y-101358D01*
X119219Y-101379D01*
X119179Y-101419D01*
X119158Y-101471D01*
X119158Y-101528D01*
X119158Y-102128D01*
X119179Y-102180D01*
X119219Y-102220D01*
X119271Y-102241D01*
X119328Y-102241D01*
X119928Y-102241D01*
X119980Y-102220D01*
X120020Y-102180D01*
X120041Y-102128D01*
X120041Y-102071D01*
X120041Y-102853D01*
X119025Y-102853D01*
X118938Y-102870D01*
X118864Y-102919D01*
X118864Y-102919D01*
X118856Y-102927D01*
X118856Y-100728D01*
X119758Y-99826D01*
X126776Y-99826D01*
X127367Y-100418D01*
X127350Y-100425D01*
X127225Y-100549D01*
X127158Y-100711D01*
X127158Y-100887D01*
X127225Y-101049D01*
X127349Y-101174D01*
X127511Y-101241D01*
X127687Y-101241D01*
X127849Y-101174D01*
X127974Y-101050D01*
X128041Y-100888D01*
X128041Y-100712D01*
X127974Y-100550D01*
X127850Y-100425D01*
X127826Y-100415D01*
X127826Y-100330D01*
X127826Y-100329D01*
X127826Y-100329D01*
X127823Y-100312D01*
X127809Y-100243D01*
X127809Y-100243D01*
X127760Y-100169D01*
X127760Y-100169D01*
X127030Y-99439D01*
X126956Y-99390D01*
X126870Y-99373D01*
X119665Y-99373D01*
X119578Y-99390D01*
X119504Y-99439D01*
X118469Y-100474D01*
X118420Y-100548D01*
X118403Y-100635D01*
X118403Y-103475D01*
X118403Y-104860D01*
X118403Y-105710D01*
X118420Y-105796D01*
X118469Y-105870D01*
X119289Y-106689D01*
X119232Y-106666D01*
X118980Y-106666D01*
X118747Y-106762D01*
X118569Y-106940D01*
X118472Y-107173D01*
X118472Y-107425D01*
X118568Y-107658D01*
X118746Y-107836D01*
X118889Y-107896D01*
X118889Y-109106D01*
X118905Y-109188D01*
X118952Y-109259D01*
X119846Y-110153D01*
X119846Y-110153D01*
X119917Y-110200D01*
X120000Y-110216D01*
X120748Y-110216D01*
X120744Y-110218D01*
X120675Y-110286D01*
X120638Y-110375D01*
X120638Y-110472D01*
X120638Y-110582D01*
X120699Y-110643D01*
X120943Y-110643D01*
X120943Y-110635D01*
X121056Y-110635D01*
X121056Y-110643D01*
X121064Y-110643D01*
X121064Y-110756D01*
X121056Y-110756D01*
X121056Y-111157D01*
X121117Y-111218D01*
X121166Y-111218D01*
X121255Y-111181D01*
X121283Y-111154D01*
X121283Y-111400D01*
X121299Y-111482D01*
X121346Y-111553D01*
X121596Y-111803D01*
X121596Y-111803D01*
X121667Y-111850D01*
X121750Y-111866D01*
X122750Y-111866D01*
X122832Y-111850D01*
X122903Y-111803D01*
X122912Y-111793D01*
X124479Y-111793D01*
X124664Y-112024D01*
X124535Y-112077D01*
X124357Y-112255D01*
X124260Y-112488D01*
X124260Y-112740D01*
X124356Y-112973D01*
X124465Y-113083D01*
X120943Y-113083D01*
X120943Y-111157D01*
X120943Y-110756D01*
X120699Y-110756D01*
X120638Y-110817D01*
X120638Y-110927D01*
X120638Y-111024D01*
X120675Y-111113D01*
X120744Y-111181D01*
X120833Y-111218D01*
X120882Y-111218D01*
X120943Y-111157D01*
X120943Y-113083D01*
X119140Y-113083D01*
X119249Y-112974D01*
X119346Y-112741D01*
X119346Y-112489D01*
X119250Y-112256D01*
X119072Y-112078D01*
X118839Y-111981D01*
X118587Y-111981D01*
X118354Y-112077D01*
X118316Y-112115D01*
X118316Y-83616D01*
X130456Y-83616D01*
X130456Y-89485D01*
X130260Y-89485D01*
X130150Y-89375D01*
X129988Y-89308D01*
X129812Y-89308D01*
X129650Y-89375D01*
X129564Y-89460D01*
X129119Y-89460D01*
X128589Y-88930D01*
X128589Y-88168D01*
X128596Y-88185D01*
X128713Y-88303D01*
X128866Y-88366D01*
X129007Y-88366D01*
X129458Y-88817D01*
X129458Y-88937D01*
X129525Y-89099D01*
X129649Y-89224D01*
X129811Y-89291D01*
X129987Y-89291D01*
X130149Y-89224D01*
X130274Y-89100D01*
X130341Y-88938D01*
X130341Y-88762D01*
X130274Y-88600D01*
X130150Y-88475D01*
X129988Y-88408D01*
X129867Y-88408D01*
X129384Y-87925D01*
X129867Y-87441D01*
X130037Y-87441D01*
X130199Y-87374D01*
X130324Y-87250D01*
X130391Y-87088D01*
X130391Y-86912D01*
X130324Y-86750D01*
X130239Y-86664D01*
X130239Y-86385D01*
X130324Y-86300D01*
X130391Y-86138D01*
X130391Y-85962D01*
X130324Y-85800D01*
X130200Y-85675D01*
X130038Y-85608D01*
X129862Y-85608D01*
X129700Y-85675D01*
X129575Y-85799D01*
X129508Y-85961D01*
X129508Y-86137D01*
X129575Y-86299D01*
X129660Y-86385D01*
X129660Y-86664D01*
X129575Y-86749D01*
X129508Y-86911D01*
X129508Y-86982D01*
X128957Y-87533D01*
X128867Y-87533D01*
X128714Y-87596D01*
X128596Y-87713D01*
X128589Y-87731D01*
X128589Y-86569D01*
X128848Y-86310D01*
X128848Y-86310D01*
X128911Y-86217D01*
X128911Y-86217D01*
X128914Y-86198D01*
X128933Y-86106D01*
X128933Y-86106D01*
X128933Y-85266D01*
X129002Y-85237D01*
X129180Y-85059D01*
X129277Y-84826D01*
X129277Y-84574D01*
X129181Y-84341D01*
X129003Y-84162D01*
X128770Y-84066D01*
X128518Y-84066D01*
X128285Y-84162D01*
X128106Y-84340D01*
X128009Y-84573D01*
X128009Y-84825D01*
X128106Y-85058D01*
X128284Y-85237D01*
X128354Y-85266D01*
X128354Y-85986D01*
X128095Y-86245D01*
X128032Y-86339D01*
X128010Y-86450D01*
X128010Y-89050D01*
X128032Y-89160D01*
X128095Y-89254D01*
X128795Y-89954D01*
X128795Y-89954D01*
X128858Y-89996D01*
X128889Y-90017D01*
X128889Y-90017D01*
X128999Y-90039D01*
X129000Y-90039D01*
X129564Y-90039D01*
X129649Y-90124D01*
X129811Y-90191D01*
X129987Y-90191D01*
X130003Y-90185D01*
X129517Y-90671D01*
X129510Y-90561D01*
X129458Y-90437D01*
X129368Y-90411D01*
X129288Y-90492D01*
X129288Y-90331D01*
X129262Y-90241D01*
X129067Y-90175D01*
X128861Y-90189D01*
X128737Y-90241D01*
X128711Y-90331D01*
X129000Y-90619D01*
X129288Y-90331D01*
X129288Y-90492D01*
X129080Y-90700D01*
X129085Y-90705D01*
X129005Y-90785D01*
X129000Y-90780D01*
X128919Y-90860D01*
X128919Y-90700D01*
X128631Y-90411D01*
X128541Y-90437D01*
X128475Y-90632D01*
X128489Y-90838D01*
X128541Y-90962D01*
X128631Y-90988D01*
X128919Y-90700D01*
X128919Y-90860D01*
X128711Y-91068D01*
X128737Y-91158D01*
X128932Y-91224D01*
X128966Y-91221D01*
X127690Y-92498D01*
X127690Y-84819D01*
X127679Y-84527D01*
X127588Y-84306D01*
X127475Y-84254D01*
X127395Y-84334D01*
X127395Y-84174D01*
X127343Y-84061D01*
X127069Y-83959D01*
X126777Y-83970D01*
X126556Y-84061D01*
X126504Y-84174D01*
X126950Y-84619D01*
X127395Y-84174D01*
X127395Y-84334D01*
X127030Y-84700D01*
X127475Y-85145D01*
X127588Y-85093D01*
X127690Y-84819D01*
X127690Y-92498D01*
X127416Y-92771D01*
X127416Y-90617D01*
X127395Y-90565D01*
X127395Y-85225D01*
X126950Y-84780D01*
X126869Y-84860D01*
X126869Y-84700D01*
X126424Y-84254D01*
X126311Y-84306D01*
X126209Y-84580D01*
X126220Y-84872D01*
X126311Y-85093D01*
X126424Y-85145D01*
X126869Y-84700D01*
X126869Y-84860D01*
X126504Y-85225D01*
X126556Y-85338D01*
X126830Y-85440D01*
X127122Y-85429D01*
X127343Y-85338D01*
X127395Y-85225D01*
X127395Y-90565D01*
X127366Y-90496D01*
X127366Y-87867D01*
X127303Y-87714D01*
X127186Y-87596D01*
X127033Y-87533D01*
X126892Y-87533D01*
X126391Y-87032D01*
X126391Y-86912D01*
X126391Y-85962D01*
X126324Y-85800D01*
X126200Y-85675D01*
X126038Y-85608D01*
X125862Y-85608D01*
X125700Y-85675D01*
X125575Y-85799D01*
X125508Y-85961D01*
X125508Y-86137D01*
X125575Y-86299D01*
X125699Y-86424D01*
X125861Y-86491D01*
X126037Y-86491D01*
X126199Y-86424D01*
X126324Y-86300D01*
X126391Y-86138D01*
X126391Y-85962D01*
X126391Y-86912D01*
X126324Y-86750D01*
X126200Y-86625D01*
X126038Y-86558D01*
X125862Y-86558D01*
X125700Y-86625D01*
X125575Y-86749D01*
X125508Y-86911D01*
X125508Y-87032D01*
X125456Y-87083D01*
X125456Y-84759D01*
X125387Y-84591D01*
X125259Y-84463D01*
X125091Y-84393D01*
X124909Y-84393D01*
X124741Y-84462D01*
X124613Y-84590D01*
X124543Y-84758D01*
X124543Y-84940D01*
X124612Y-85108D01*
X124740Y-85236D01*
X124908Y-85306D01*
X125090Y-85306D01*
X125258Y-85237D01*
X125386Y-85109D01*
X125456Y-84941D01*
X125456Y-84759D01*
X125456Y-87083D01*
X124795Y-87745D01*
X124732Y-87839D01*
X124710Y-87950D01*
X124710Y-88493D01*
X124613Y-88590D01*
X124543Y-88758D01*
X124543Y-88940D01*
X124612Y-89108D01*
X124740Y-89236D01*
X124820Y-89270D01*
X124820Y-90051D01*
X124769Y-90102D01*
X124761Y-90120D01*
X124761Y-89750D01*
X124700Y-89602D01*
X124587Y-89489D01*
X124440Y-89428D01*
X124387Y-89428D01*
X124189Y-89230D01*
X124189Y-89185D01*
X124274Y-89100D01*
X124341Y-88938D01*
X124341Y-88762D01*
X124341Y-84762D01*
X124274Y-84600D01*
X124150Y-84475D01*
X123988Y-84408D01*
X123812Y-84408D01*
X123650Y-84475D01*
X123525Y-84599D01*
X123458Y-84761D01*
X123458Y-84937D01*
X123525Y-85099D01*
X123649Y-85224D01*
X123811Y-85291D01*
X123987Y-85291D01*
X124149Y-85224D01*
X124274Y-85100D01*
X124341Y-84938D01*
X124341Y-84762D01*
X124341Y-88762D01*
X124274Y-88600D01*
X124150Y-88475D01*
X123988Y-88408D01*
X123812Y-88408D01*
X123650Y-88475D01*
X123549Y-88576D01*
X123549Y-85923D01*
X123535Y-85707D01*
X123479Y-85571D01*
X123441Y-85560D01*
X123441Y-84812D01*
X123374Y-84650D01*
X123250Y-84525D01*
X123088Y-84458D01*
X122912Y-84458D01*
X122750Y-84525D01*
X122664Y-84610D01*
X120900Y-84610D01*
X120789Y-84632D01*
X120695Y-84695D01*
X119433Y-85956D01*
X119441Y-85938D01*
X119441Y-85762D01*
X119441Y-84812D01*
X119374Y-84650D01*
X119250Y-84525D01*
X119088Y-84458D01*
X118912Y-84458D01*
X118750Y-84525D01*
X118625Y-84649D01*
X118558Y-84811D01*
X118558Y-84987D01*
X118625Y-85149D01*
X118749Y-85274D01*
X118911Y-85341D01*
X119087Y-85341D01*
X119249Y-85274D01*
X119374Y-85150D01*
X119441Y-84988D01*
X119441Y-84812D01*
X119441Y-85762D01*
X119374Y-85600D01*
X119250Y-85475D01*
X119088Y-85408D01*
X118912Y-85408D01*
X118750Y-85475D01*
X118625Y-85599D01*
X118558Y-85761D01*
X118558Y-85937D01*
X118625Y-86099D01*
X118749Y-86224D01*
X118911Y-86291D01*
X119087Y-86291D01*
X119107Y-86283D01*
X118545Y-86845D01*
X118482Y-86939D01*
X118460Y-87050D01*
X118460Y-89550D01*
X118482Y-89660D01*
X118545Y-89754D01*
X118925Y-90134D01*
X118925Y-90134D01*
X118988Y-90176D01*
X119019Y-90197D01*
X119019Y-90197D01*
X119129Y-90219D01*
X119130Y-90219D01*
X119500Y-90219D01*
X119563Y-90283D01*
X119716Y-90346D01*
X119882Y-90346D01*
X120035Y-90283D01*
X120153Y-90166D01*
X120216Y-90013D01*
X120216Y-89847D01*
X120216Y-88847D01*
X120216Y-87847D01*
X120153Y-87694D01*
X120036Y-87576D01*
X119883Y-87513D01*
X119717Y-87513D01*
X119564Y-87576D01*
X119446Y-87693D01*
X119383Y-87846D01*
X119383Y-88012D01*
X119446Y-88165D01*
X119563Y-88283D01*
X119716Y-88346D01*
X119882Y-88346D01*
X120035Y-88283D01*
X120153Y-88166D01*
X120216Y-88013D01*
X120216Y-87847D01*
X120216Y-88847D01*
X120153Y-88694D01*
X120036Y-88576D01*
X119883Y-88513D01*
X119717Y-88513D01*
X119564Y-88576D01*
X119446Y-88693D01*
X119383Y-88846D01*
X119383Y-89012D01*
X119446Y-89165D01*
X119563Y-89283D01*
X119716Y-89346D01*
X119882Y-89346D01*
X120035Y-89283D01*
X120153Y-89166D01*
X120216Y-89013D01*
X120216Y-88847D01*
X120216Y-89847D01*
X120153Y-89694D01*
X120036Y-89576D01*
X119883Y-89513D01*
X119717Y-89513D01*
X119564Y-89576D01*
X119500Y-89640D01*
X119249Y-89640D01*
X119039Y-89430D01*
X119039Y-87169D01*
X119398Y-86811D01*
X119383Y-86846D01*
X119383Y-87012D01*
X119446Y-87165D01*
X119563Y-87283D01*
X119716Y-87346D01*
X119882Y-87346D01*
X120035Y-87283D01*
X120153Y-87166D01*
X120216Y-87013D01*
X120216Y-86847D01*
X120153Y-86694D01*
X120036Y-86576D01*
X119883Y-86513D01*
X119717Y-86513D01*
X119680Y-86528D01*
X121019Y-85189D01*
X122664Y-85189D01*
X122749Y-85274D01*
X122852Y-85316D01*
X122721Y-85370D01*
X122693Y-85463D01*
X123000Y-85769D01*
X123306Y-85463D01*
X123278Y-85370D01*
X123135Y-85322D01*
X123249Y-85274D01*
X123374Y-85150D01*
X123441Y-84988D01*
X123441Y-84812D01*
X123441Y-85560D01*
X123386Y-85543D01*
X123080Y-85850D01*
X123386Y-86156D01*
X123479Y-86128D01*
X123549Y-85923D01*
X123549Y-88576D01*
X123525Y-88599D01*
X123508Y-88640D01*
X123324Y-88640D01*
X123324Y-86997D01*
X123310Y-86791D01*
X123306Y-86782D01*
X123306Y-86236D01*
X123000Y-85930D01*
X122919Y-86010D01*
X122919Y-85850D01*
X122613Y-85543D01*
X122520Y-85571D01*
X122450Y-85776D01*
X122464Y-85992D01*
X122520Y-86128D01*
X122613Y-86156D01*
X122919Y-85850D01*
X122919Y-86010D01*
X122693Y-86236D01*
X122721Y-86329D01*
X122926Y-86399D01*
X123142Y-86385D01*
X123278Y-86329D01*
X123306Y-86236D01*
X123306Y-86782D01*
X123258Y-86667D01*
X123168Y-86641D01*
X123088Y-86722D01*
X123088Y-86561D01*
X123062Y-86471D01*
X122867Y-86405D01*
X122661Y-86419D01*
X122537Y-86471D01*
X122511Y-86561D01*
X122800Y-86849D01*
X123088Y-86561D01*
X123088Y-86722D01*
X122880Y-86930D01*
X123168Y-87218D01*
X123258Y-87192D01*
X123324Y-86997D01*
X123324Y-88640D01*
X123216Y-88640D01*
X123216Y-87847D01*
X123153Y-87694D01*
X123088Y-87628D01*
X123088Y-87298D01*
X122800Y-87010D01*
X122719Y-87090D01*
X122719Y-86930D01*
X122431Y-86641D01*
X122341Y-86667D01*
X122275Y-86862D01*
X122289Y-87068D01*
X122341Y-87192D01*
X122431Y-87218D01*
X122719Y-86930D01*
X122719Y-87090D01*
X122511Y-87298D01*
X122537Y-87388D01*
X122732Y-87454D01*
X122938Y-87440D01*
X123062Y-87388D01*
X123088Y-87298D01*
X123088Y-87628D01*
X123036Y-87576D01*
X122883Y-87513D01*
X122717Y-87513D01*
X122564Y-87576D01*
X122500Y-87640D01*
X122220Y-87640D01*
X122109Y-87662D01*
X122015Y-87725D01*
X121095Y-88645D01*
X121032Y-88739D01*
X121010Y-88850D01*
X121010Y-92700D01*
X121000Y-92710D01*
X120716Y-92710D01*
X120716Y-92696D01*
X120695Y-92644D01*
X120655Y-92604D01*
X120603Y-92583D01*
X120589Y-92583D01*
X120589Y-91550D01*
X120567Y-91439D01*
X120504Y-91345D01*
X120504Y-91345D01*
X120004Y-90845D01*
X119910Y-90782D01*
X119800Y-90760D01*
X119235Y-90760D01*
X119150Y-90675D01*
X118988Y-90608D01*
X118812Y-90608D01*
X118650Y-90675D01*
X118525Y-90799D01*
X118458Y-90961D01*
X118458Y-91137D01*
X118525Y-91299D01*
X118649Y-91424D01*
X118811Y-91491D01*
X118987Y-91491D01*
X119149Y-91424D01*
X119235Y-91339D01*
X119680Y-91339D01*
X120010Y-91669D01*
X120010Y-92583D01*
X119996Y-92583D01*
X119944Y-92604D01*
X119904Y-92644D01*
X119883Y-92696D01*
X119883Y-92753D01*
X119883Y-93303D01*
X119904Y-93355D01*
X119944Y-93395D01*
X119996Y-93416D01*
X120053Y-93416D01*
X120603Y-93416D01*
X120655Y-93395D01*
X120695Y-93355D01*
X120716Y-93303D01*
X120716Y-93289D01*
X121000Y-93289D01*
X121063Y-93353D01*
X121216Y-93416D01*
X121382Y-93416D01*
X121535Y-93353D01*
X121653Y-93236D01*
X121716Y-93083D01*
X121716Y-92917D01*
X121653Y-92764D01*
X121589Y-92700D01*
X121589Y-88969D01*
X122339Y-88219D01*
X122500Y-88219D01*
X122563Y-88283D01*
X122716Y-88346D01*
X122882Y-88346D01*
X123035Y-88283D01*
X123153Y-88166D01*
X123216Y-88013D01*
X123216Y-87847D01*
X123216Y-88640D01*
X123099Y-88640D01*
X123036Y-88576D01*
X122883Y-88513D01*
X122717Y-88513D01*
X122564Y-88576D01*
X122446Y-88693D01*
X122383Y-88846D01*
X122383Y-89012D01*
X122446Y-89165D01*
X122563Y-89283D01*
X122716Y-89346D01*
X122882Y-89346D01*
X123035Y-89283D01*
X123099Y-89219D01*
X123610Y-89219D01*
X123610Y-89350D01*
X123632Y-89460D01*
X123695Y-89554D01*
X123958Y-89817D01*
X123958Y-89909D01*
X124019Y-90057D01*
X124132Y-90170D01*
X124279Y-90231D01*
X124439Y-90231D01*
X124587Y-90170D01*
X124700Y-90057D01*
X124761Y-89910D01*
X124761Y-89750D01*
X124761Y-90120D01*
X124708Y-90249D01*
X124708Y-90409D01*
X124769Y-90557D01*
X124781Y-90569D01*
X124717Y-90552D01*
X124637Y-90632D01*
X124637Y-90472D01*
X124613Y-90384D01*
X124423Y-90320D01*
X124224Y-90335D01*
X124106Y-90384D01*
X124082Y-90472D01*
X124360Y-90749D01*
X124637Y-90472D01*
X124637Y-90632D01*
X124440Y-90830D01*
X124717Y-91107D01*
X124805Y-91083D01*
X124869Y-90893D01*
X124854Y-90694D01*
X124818Y-90606D01*
X124882Y-90670D01*
X125029Y-90731D01*
X125189Y-90731D01*
X125337Y-90670D01*
X125450Y-90557D01*
X125511Y-90410D01*
X125511Y-90250D01*
X125450Y-90102D01*
X125399Y-90051D01*
X125399Y-89079D01*
X125456Y-88941D01*
X125456Y-88759D01*
X125387Y-88591D01*
X125289Y-88493D01*
X125289Y-88069D01*
X125917Y-87441D01*
X125982Y-87441D01*
X126533Y-87992D01*
X126533Y-88032D01*
X126596Y-88185D01*
X126713Y-88303D01*
X126866Y-88366D01*
X127032Y-88366D01*
X127185Y-88303D01*
X127303Y-88186D01*
X127366Y-88033D01*
X127366Y-87867D01*
X127366Y-90496D01*
X127353Y-90464D01*
X127289Y-90400D01*
X127289Y-90400D01*
X127267Y-90289D01*
X127267Y-90289D01*
X127246Y-90258D01*
X127204Y-90195D01*
X127204Y-90195D01*
X126554Y-89545D01*
X126460Y-89482D01*
X126350Y-89460D01*
X126235Y-89460D01*
X126189Y-89414D01*
X126189Y-89185D01*
X126274Y-89100D01*
X126341Y-88938D01*
X126341Y-88762D01*
X126274Y-88600D01*
X126150Y-88475D01*
X125988Y-88408D01*
X125812Y-88408D01*
X125650Y-88475D01*
X125525Y-88599D01*
X125458Y-88761D01*
X125458Y-88937D01*
X125525Y-89099D01*
X125610Y-89185D01*
X125610Y-89414D01*
X125525Y-89499D01*
X125458Y-89661D01*
X125458Y-89837D01*
X125525Y-89999D01*
X125649Y-90124D01*
X125811Y-90191D01*
X125987Y-90191D01*
X126149Y-90124D01*
X126232Y-90041D01*
X126650Y-90459D01*
X126646Y-90463D01*
X126583Y-90616D01*
X126583Y-90782D01*
X126646Y-90935D01*
X126763Y-91053D01*
X126916Y-91116D01*
X127082Y-91116D01*
X127235Y-91053D01*
X127353Y-90936D01*
X127416Y-90783D01*
X127416Y-90617D01*
X127416Y-92771D01*
X126468Y-93720D01*
X126468Y-93273D01*
X126468Y-92626D01*
X126431Y-92537D01*
X126366Y-92472D01*
X126366Y-91867D01*
X126366Y-90867D01*
X126303Y-90714D01*
X126186Y-90596D01*
X126033Y-90533D01*
X125867Y-90533D01*
X125714Y-90596D01*
X125596Y-90713D01*
X125533Y-90866D01*
X125533Y-91032D01*
X125596Y-91185D01*
X125713Y-91303D01*
X125866Y-91366D01*
X126032Y-91366D01*
X126185Y-91303D01*
X126303Y-91186D01*
X126366Y-91033D01*
X126366Y-90867D01*
X126366Y-91867D01*
X126303Y-91714D01*
X126186Y-91596D01*
X126033Y-91533D01*
X125867Y-91533D01*
X125714Y-91596D01*
X125596Y-91713D01*
X125544Y-91838D01*
X125159Y-92224D01*
X125100Y-92283D01*
X125013Y-92283D01*
X125007Y-92277D01*
X125095Y-92253D01*
X125159Y-92063D01*
X125144Y-91864D01*
X125095Y-91746D01*
X125007Y-91722D01*
X124927Y-91802D01*
X124927Y-91642D01*
X124903Y-91554D01*
X124713Y-91490D01*
X124637Y-91496D01*
X124637Y-91187D01*
X124360Y-90910D01*
X124279Y-90990D01*
X124279Y-90830D01*
X124002Y-90552D01*
X123914Y-90576D01*
X123850Y-90766D01*
X123865Y-90965D01*
X123914Y-91083D01*
X124002Y-91107D01*
X124279Y-90830D01*
X124279Y-90990D01*
X124082Y-91187D01*
X124106Y-91275D01*
X124296Y-91339D01*
X124495Y-91324D01*
X124613Y-91275D01*
X124637Y-91187D01*
X124637Y-91496D01*
X124514Y-91505D01*
X124396Y-91554D01*
X124372Y-91642D01*
X124650Y-91919D01*
X124927Y-91642D01*
X124927Y-91802D01*
X124730Y-92000D01*
X124735Y-92005D01*
X124655Y-92085D01*
X124650Y-92080D01*
X124644Y-92085D01*
X124564Y-92005D01*
X124569Y-92000D01*
X124292Y-91722D01*
X124204Y-91746D01*
X124140Y-91936D01*
X124155Y-92135D01*
X124191Y-92223D01*
X124127Y-92159D01*
X123980Y-92098D01*
X123820Y-92098D01*
X123672Y-92159D01*
X123559Y-92272D01*
X123498Y-92419D01*
X123498Y-92579D01*
X123540Y-92680D01*
X123189Y-92330D01*
X123189Y-92285D01*
X123274Y-92200D01*
X123341Y-92038D01*
X123341Y-91862D01*
X123274Y-91700D01*
X123189Y-91614D01*
X123189Y-91385D01*
X123274Y-91300D01*
X123341Y-91138D01*
X123341Y-90962D01*
X123274Y-90800D01*
X123216Y-90742D01*
X123216Y-90176D01*
X123216Y-89626D01*
X123195Y-89574D01*
X123155Y-89534D01*
X123103Y-89513D01*
X123046Y-89513D01*
X122496Y-89513D01*
X122444Y-89534D01*
X122404Y-89574D01*
X122383Y-89626D01*
X122383Y-89680D01*
X122315Y-89725D01*
X121795Y-90245D01*
X121732Y-90339D01*
X121710Y-90450D01*
X121710Y-92500D01*
X121732Y-92610D01*
X121795Y-92704D01*
X121919Y-92829D01*
X121883Y-92916D01*
X121883Y-93082D01*
X121934Y-93206D01*
X121330Y-93810D01*
X120035Y-93810D01*
X119950Y-93725D01*
X119788Y-93658D01*
X119612Y-93658D01*
X119450Y-93725D01*
X119325Y-93849D01*
X119258Y-94011D01*
X119258Y-94187D01*
X119325Y-94349D01*
X119449Y-94474D01*
X119611Y-94541D01*
X119787Y-94541D01*
X119949Y-94474D01*
X120035Y-94389D01*
X121230Y-94389D01*
X121260Y-94419D01*
X121260Y-95658D01*
X121221Y-95658D01*
X121169Y-95679D01*
X121129Y-95719D01*
X121108Y-95771D01*
X121108Y-95828D01*
X121108Y-96428D01*
X121129Y-96480D01*
X121169Y-96520D01*
X121221Y-96541D01*
X121278Y-96541D01*
X121878Y-96541D01*
X121930Y-96520D01*
X121970Y-96480D01*
X121991Y-96428D01*
X121991Y-96371D01*
X121991Y-95771D01*
X121970Y-95719D01*
X121930Y-95679D01*
X121878Y-95658D01*
X121839Y-95658D01*
X121839Y-94300D01*
X121820Y-94207D01*
X121817Y-94189D01*
X121817Y-94189D01*
X121798Y-94160D01*
X122504Y-93454D01*
X122504Y-93454D01*
X122567Y-93360D01*
X122576Y-93312D01*
X122576Y-93312D01*
X122653Y-93236D01*
X122716Y-93083D01*
X122716Y-92917D01*
X122653Y-92764D01*
X122544Y-92655D01*
X122504Y-92595D01*
X122504Y-92595D01*
X122289Y-92380D01*
X122289Y-90569D01*
X122512Y-90346D01*
X122553Y-90346D01*
X123103Y-90346D01*
X123155Y-90325D01*
X123195Y-90285D01*
X123216Y-90233D01*
X123216Y-90176D01*
X123216Y-90742D01*
X123150Y-90675D01*
X122988Y-90608D01*
X122812Y-90608D01*
X122650Y-90675D01*
X122525Y-90799D01*
X122458Y-90961D01*
X122458Y-91137D01*
X122525Y-91299D01*
X122610Y-91385D01*
X122610Y-91614D01*
X122525Y-91699D01*
X122458Y-91861D01*
X122458Y-92037D01*
X122525Y-92199D01*
X122610Y-92285D01*
X122610Y-92450D01*
X122632Y-92560D01*
X122695Y-92654D01*
X123445Y-93404D01*
X123445Y-93404D01*
X123508Y-93446D01*
X123539Y-93467D01*
X123539Y-93467D01*
X123649Y-93489D01*
X123650Y-93489D01*
X124450Y-93489D01*
X124450Y-93489D01*
X124560Y-93467D01*
X124654Y-93404D01*
X124657Y-93401D01*
X124729Y-93401D01*
X124877Y-93340D01*
X124990Y-93227D01*
X125051Y-93080D01*
X125051Y-92920D01*
X124990Y-92772D01*
X124934Y-92716D01*
X125190Y-92716D01*
X125272Y-92700D01*
X125343Y-92653D01*
X125703Y-92292D01*
X125713Y-92303D01*
X125866Y-92366D01*
X126032Y-92366D01*
X126185Y-92303D01*
X126303Y-92186D01*
X126366Y-92033D01*
X126366Y-91867D01*
X126366Y-92472D01*
X126363Y-92468D01*
X126273Y-92431D01*
X126176Y-92431D01*
X126067Y-92431D01*
X126006Y-92492D01*
X126006Y-92893D01*
X126407Y-92893D01*
X126468Y-92832D01*
X126468Y-92626D01*
X126468Y-93273D01*
X126468Y-93067D01*
X126407Y-93006D01*
X126006Y-93006D01*
X126006Y-93407D01*
X126067Y-93468D01*
X126176Y-93468D01*
X126273Y-93468D01*
X126363Y-93431D01*
X126431Y-93362D01*
X126468Y-93273D01*
X126468Y-93720D01*
X125893Y-94295D01*
X125893Y-93407D01*
X125893Y-93006D01*
X125893Y-92893D01*
X125893Y-92492D01*
X125832Y-92431D01*
X125723Y-92431D01*
X125626Y-92431D01*
X125536Y-92468D01*
X125468Y-92537D01*
X125431Y-92626D01*
X125431Y-92832D01*
X125492Y-92893D01*
X125893Y-92893D01*
X125893Y-93006D01*
X125492Y-93006D01*
X125431Y-93067D01*
X125431Y-93273D01*
X125468Y-93362D01*
X125536Y-93431D01*
X125626Y-93468D01*
X125723Y-93468D01*
X125832Y-93468D01*
X125893Y-93407D01*
X125893Y-94295D01*
X125156Y-95032D01*
X125156Y-96909D01*
X124141Y-96909D01*
X124141Y-94962D01*
X124141Y-94012D01*
X124074Y-93850D01*
X123950Y-93725D01*
X123788Y-93658D01*
X123612Y-93658D01*
X123450Y-93725D01*
X123325Y-93849D01*
X123258Y-94011D01*
X123258Y-94187D01*
X123325Y-94349D01*
X123449Y-94474D01*
X123611Y-94541D01*
X123787Y-94541D01*
X123949Y-94474D01*
X124074Y-94350D01*
X124141Y-94188D01*
X124141Y-94012D01*
X124141Y-94962D01*
X124074Y-94800D01*
X123950Y-94675D01*
X123788Y-94608D01*
X123612Y-94608D01*
X123450Y-94675D01*
X123325Y-94799D01*
X123258Y-94961D01*
X123258Y-95137D01*
X123325Y-95299D01*
X123449Y-95424D01*
X123611Y-95491D01*
X123787Y-95491D01*
X123949Y-95424D01*
X124074Y-95300D01*
X124141Y-95138D01*
X124141Y-94962D01*
X124141Y-96909D01*
X121949Y-96909D01*
X121924Y-96850D01*
X121800Y-96725D01*
X121638Y-96658D01*
X121462Y-96658D01*
X121300Y-96725D01*
X121175Y-96849D01*
X121108Y-97011D01*
X121108Y-97187D01*
X121175Y-97349D01*
X121299Y-97474D01*
X121461Y-97541D01*
X121637Y-97541D01*
X121799Y-97474D01*
X121924Y-97350D01*
X121949Y-97290D01*
X125156Y-97290D01*
X125156Y-98067D01*
X125282Y-98193D01*
X127582Y-98193D01*
X130106Y-100717D01*
X130106Y-105893D01*
X131232Y-105893D01*
X133606Y-108267D01*
X133606Y-109134D01*
G54D10*
G36*
X133606Y-110638D02*
X132904Y-110777D01*
X132900Y-110777D01*
X132822Y-110809D01*
X132011Y-111352D01*
X131951Y-111411D01*
X131950Y-111415D01*
X131666Y-111840D01*
X131666Y-111331D01*
X131360Y-111025D01*
X131279Y-111105D01*
X131279Y-110945D01*
X130973Y-110638D01*
X130880Y-110666D01*
X130810Y-110871D01*
X130824Y-111087D01*
X130880Y-111223D01*
X130973Y-111251D01*
X131279Y-110945D01*
X131279Y-111105D01*
X131053Y-111331D01*
X131081Y-111424D01*
X131286Y-111494D01*
X131502Y-111480D01*
X131638Y-111424D01*
X131666Y-111331D01*
X131666Y-111840D01*
X131412Y-112219D01*
X131409Y-112222D01*
X131376Y-112301D01*
X131221Y-113083D01*
X130013Y-113083D01*
X130013Y-112421D01*
X130013Y-111718D01*
X130013Y-111096D01*
X130013Y-110393D01*
X130013Y-110296D01*
X130008Y-110284D01*
X130008Y-109746D01*
X130008Y-109043D01*
X130008Y-108946D01*
X129971Y-108856D01*
X129902Y-108788D01*
X129865Y-108773D01*
X129915Y-108723D01*
X129952Y-108633D01*
X129952Y-108536D01*
X129952Y-108043D01*
X129952Y-107946D01*
X129915Y-107856D01*
X129847Y-107788D01*
X129757Y-107751D01*
X129571Y-107751D01*
X129510Y-107812D01*
X129510Y-108233D01*
X129891Y-108233D01*
X129952Y-108172D01*
X129952Y-108043D01*
X129952Y-108536D01*
X129952Y-108407D01*
X129891Y-108346D01*
X129510Y-108346D01*
X129510Y-108767D01*
X129538Y-108795D01*
X129521Y-108812D01*
X129521Y-109338D01*
X129947Y-109338D01*
X130008Y-109277D01*
X130008Y-109043D01*
X130008Y-109746D01*
X130008Y-109512D01*
X129947Y-109451D01*
X129521Y-109451D01*
X129521Y-109977D01*
X129582Y-110038D01*
X129813Y-110038D01*
X129902Y-110001D01*
X129971Y-109933D01*
X130008Y-109843D01*
X130008Y-109746D01*
X130008Y-110284D01*
X129976Y-110206D01*
X129907Y-110138D01*
X129818Y-110101D01*
X129587Y-110101D01*
X129526Y-110162D01*
X129526Y-110688D01*
X129952Y-110688D01*
X130013Y-110627D01*
X130013Y-110393D01*
X130013Y-111096D01*
X130013Y-110862D01*
X129952Y-110801D01*
X129526Y-110801D01*
X129526Y-111327D01*
X129587Y-111388D01*
X129818Y-111388D01*
X129907Y-111351D01*
X129976Y-111283D01*
X130013Y-111193D01*
X130013Y-111096D01*
X130013Y-111718D01*
X130013Y-111621D01*
X129976Y-111531D01*
X129907Y-111463D01*
X129818Y-111426D01*
X129587Y-111426D01*
X129526Y-111487D01*
X129526Y-112013D01*
X129952Y-112013D01*
X130013Y-111952D01*
X130013Y-111718D01*
X130013Y-112421D01*
X130013Y-112187D01*
X129952Y-112126D01*
X129526Y-112126D01*
X129526Y-112652D01*
X129587Y-112713D01*
X129818Y-112713D01*
X129907Y-112676D01*
X129976Y-112608D01*
X130013Y-112518D01*
X130013Y-112421D01*
X130013Y-113083D01*
X129243Y-113083D01*
X129243Y-112713D01*
X129352Y-112713D01*
X129413Y-112652D01*
X129413Y-112126D01*
X129405Y-112126D01*
X129405Y-112013D01*
X129413Y-112013D01*
X129413Y-111487D01*
X129352Y-111426D01*
X129243Y-111426D01*
X129243Y-111388D01*
X129352Y-111388D01*
X129413Y-111327D01*
X129413Y-110801D01*
X129405Y-110801D01*
X129405Y-110688D01*
X129413Y-110688D01*
X129413Y-110162D01*
X129352Y-110101D01*
X129243Y-110101D01*
X129243Y-110038D01*
X129347Y-110038D01*
X129408Y-109977D01*
X129408Y-109451D01*
X129400Y-109451D01*
X129400Y-109338D01*
X129408Y-109338D01*
X129408Y-108812D01*
X129380Y-108784D01*
X129397Y-108767D01*
X129397Y-108346D01*
X129389Y-108346D01*
X129389Y-108233D01*
X129397Y-108233D01*
X129397Y-107812D01*
X129336Y-107751D01*
X129243Y-107751D01*
X129243Y-106765D01*
X129244Y-106764D01*
X129325Y-106764D01*
X129805Y-106764D01*
X130060Y-107019D01*
X130060Y-107500D01*
X130060Y-108950D01*
X130082Y-109060D01*
X130145Y-109154D01*
X131389Y-110398D01*
X131217Y-110409D01*
X131081Y-110465D01*
X131053Y-110558D01*
X131360Y-110864D01*
X131365Y-110859D01*
X131445Y-110939D01*
X131440Y-110945D01*
X131746Y-111251D01*
X131839Y-111223D01*
X131909Y-111018D01*
X131895Y-110802D01*
X131888Y-110787D01*
X131899Y-110789D01*
X131900Y-110789D01*
X132650Y-110789D01*
X132650Y-110789D01*
X132760Y-110767D01*
X132854Y-110704D01*
X133606Y-109952D01*
X133606Y-110638D01*
X133606Y-110638D01*
G37*
G54D38*
X133606Y-110638D02*
X132904Y-110777D01*
X132900Y-110777D01*
X132822Y-110809D01*
X132011Y-111352D01*
X131951Y-111411D01*
X131950Y-111415D01*
X131666Y-111840D01*
X131666Y-111331D01*
X131360Y-111025D01*
X131279Y-111105D01*
X131279Y-110945D01*
X130973Y-110638D01*
X130880Y-110666D01*
X130810Y-110871D01*
X130824Y-111087D01*
X130880Y-111223D01*
X130973Y-111251D01*
X131279Y-110945D01*
X131279Y-111105D01*
X131053Y-111331D01*
X131081Y-111424D01*
X131286Y-111494D01*
X131502Y-111480D01*
X131638Y-111424D01*
X131666Y-111331D01*
X131666Y-111840D01*
X131412Y-112219D01*
X131409Y-112222D01*
X131376Y-112301D01*
X131221Y-113083D01*
X130013Y-113083D01*
X130013Y-112421D01*
X130013Y-111718D01*
X130013Y-111096D01*
X130013Y-110393D01*
X130013Y-110296D01*
X130008Y-110284D01*
X130008Y-109746D01*
X130008Y-109043D01*
X130008Y-108946D01*
X129971Y-108856D01*
X129902Y-108788D01*
X129865Y-108773D01*
X129915Y-108723D01*
X129952Y-108633D01*
X129952Y-108536D01*
X129952Y-108043D01*
X129952Y-107946D01*
X129915Y-107856D01*
X129847Y-107788D01*
X129757Y-107751D01*
X129571Y-107751D01*
X129510Y-107812D01*
X129510Y-108233D01*
X129891Y-108233D01*
X129952Y-108172D01*
X129952Y-108043D01*
X129952Y-108536D01*
X129952Y-108407D01*
X129891Y-108346D01*
X129510Y-108346D01*
X129510Y-108767D01*
X129538Y-108795D01*
X129521Y-108812D01*
X129521Y-109338D01*
X129947Y-109338D01*
X130008Y-109277D01*
X130008Y-109043D01*
X130008Y-109746D01*
X130008Y-109512D01*
X129947Y-109451D01*
X129521Y-109451D01*
X129521Y-109977D01*
X129582Y-110038D01*
X129813Y-110038D01*
X129902Y-110001D01*
X129971Y-109933D01*
X130008Y-109843D01*
X130008Y-109746D01*
X130008Y-110284D01*
X129976Y-110206D01*
X129907Y-110138D01*
X129818Y-110101D01*
X129587Y-110101D01*
X129526Y-110162D01*
X129526Y-110688D01*
X129952Y-110688D01*
X130013Y-110627D01*
X130013Y-110393D01*
X130013Y-111096D01*
X130013Y-110862D01*
X129952Y-110801D01*
X129526Y-110801D01*
X129526Y-111327D01*
X129587Y-111388D01*
X129818Y-111388D01*
X129907Y-111351D01*
X129976Y-111283D01*
X130013Y-111193D01*
X130013Y-111096D01*
X130013Y-111718D01*
X130013Y-111621D01*
X129976Y-111531D01*
X129907Y-111463D01*
X129818Y-111426D01*
X129587Y-111426D01*
X129526Y-111487D01*
X129526Y-112013D01*
X129952Y-112013D01*
X130013Y-111952D01*
X130013Y-111718D01*
X130013Y-112421D01*
X130013Y-112187D01*
X129952Y-112126D01*
X129526Y-112126D01*
X129526Y-112652D01*
X129587Y-112713D01*
X129818Y-112713D01*
X129907Y-112676D01*
X129976Y-112608D01*
X130013Y-112518D01*
X130013Y-112421D01*
X130013Y-113083D01*
X129243Y-113083D01*
X129243Y-112713D01*
X129352Y-112713D01*
X129413Y-112652D01*
X129413Y-112126D01*
X129405Y-112126D01*
X129405Y-112013D01*
X129413Y-112013D01*
X129413Y-111487D01*
X129352Y-111426D01*
X129243Y-111426D01*
X129243Y-111388D01*
X129352Y-111388D01*
X129413Y-111327D01*
X129413Y-110801D01*
X129405Y-110801D01*
X129405Y-110688D01*
X129413Y-110688D01*
X129413Y-110162D01*
X129352Y-110101D01*
X129243Y-110101D01*
X129243Y-110038D01*
X129347Y-110038D01*
X129408Y-109977D01*
X129408Y-109451D01*
X129400Y-109451D01*
X129400Y-109338D01*
X129408Y-109338D01*
X129408Y-108812D01*
X129380Y-108784D01*
X129397Y-108767D01*
X129397Y-108346D01*
X129389Y-108346D01*
X129389Y-108233D01*
X129397Y-108233D01*
X129397Y-107812D01*
X129336Y-107751D01*
X129243Y-107751D01*
X129243Y-106765D01*
X129244Y-106764D01*
X129325Y-106764D01*
X129805Y-106764D01*
X130060Y-107019D01*
X130060Y-107500D01*
X130060Y-108950D01*
X130082Y-109060D01*
X130145Y-109154D01*
X131389Y-110398D01*
X131217Y-110409D01*
X131081Y-110465D01*
X131053Y-110558D01*
X131360Y-110864D01*
X131365Y-110859D01*
X131445Y-110939D01*
X131440Y-110945D01*
X131746Y-111251D01*
X131839Y-111223D01*
X131909Y-111018D01*
X131895Y-110802D01*
X131888Y-110787D01*
X131899Y-110789D01*
X131900Y-110789D01*
X132650Y-110789D01*
X132650Y-110789D01*
X132760Y-110767D01*
X132854Y-110704D01*
X133606Y-109952D01*
X133606Y-110638D01*
G54D10*
G36*
X149387Y-111391D02*
X147741Y-113037D01*
X146152Y-113037D01*
X146152Y-88153D01*
X146082Y-87983D01*
X145952Y-87852D01*
X145782Y-87782D01*
X145598Y-87782D01*
X145428Y-87852D01*
X145308Y-87972D01*
X145071Y-87972D01*
X144952Y-87852D01*
X144782Y-87782D01*
X144598Y-87782D01*
X144428Y-87852D01*
X144297Y-87982D01*
X144227Y-88152D01*
X144227Y-88336D01*
X144297Y-88506D01*
X144427Y-88637D01*
X144597Y-88707D01*
X144781Y-88707D01*
X144951Y-88637D01*
X145071Y-88517D01*
X145308Y-88517D01*
X145397Y-88606D01*
X145397Y-90367D01*
X145357Y-90367D01*
X145288Y-90395D01*
X145235Y-90448D01*
X145207Y-90517D01*
X145207Y-90592D01*
X145207Y-91142D01*
X145235Y-91211D01*
X145288Y-91264D01*
X145357Y-91292D01*
X145432Y-91292D01*
X145982Y-91292D01*
X146051Y-91264D01*
X146104Y-91211D01*
X146132Y-91142D01*
X146132Y-91067D01*
X146132Y-90517D01*
X146104Y-90448D01*
X146051Y-90395D01*
X145982Y-90367D01*
X145942Y-90367D01*
X145942Y-88641D01*
X145951Y-88637D01*
X146082Y-88507D01*
X146152Y-88337D01*
X146152Y-88153D01*
X146152Y-113037D01*
X145132Y-113037D01*
X145132Y-90738D01*
X145062Y-90568D01*
X144932Y-90437D01*
X144762Y-90367D01*
X144578Y-90367D01*
X144408Y-90437D01*
X144288Y-90557D01*
X144152Y-90557D01*
X144152Y-88482D01*
X144152Y-87932D01*
X144124Y-87863D01*
X144071Y-87810D01*
X144002Y-87782D01*
X143927Y-87782D01*
X143377Y-87782D01*
X143308Y-87810D01*
X143255Y-87863D01*
X143227Y-87932D01*
X143227Y-88007D01*
X143227Y-88557D01*
X143255Y-88626D01*
X143308Y-88679D01*
X143377Y-88707D01*
X143452Y-88707D01*
X144002Y-88707D01*
X144071Y-88679D01*
X144124Y-88626D01*
X144152Y-88557D01*
X144152Y-88482D01*
X144152Y-90557D01*
X144051Y-90557D01*
X143932Y-90437D01*
X143762Y-90367D01*
X143578Y-90367D01*
X143408Y-90437D01*
X143277Y-90567D01*
X143207Y-90737D01*
X143207Y-90907D01*
X142967Y-91147D01*
X141640Y-91147D01*
X141638Y-91144D01*
X141501Y-91006D01*
X141322Y-90932D01*
X141128Y-90932D01*
X140949Y-91006D01*
X140811Y-91143D01*
X140737Y-91322D01*
X140737Y-91516D01*
X140811Y-91695D01*
X140948Y-91833D01*
X141127Y-91907D01*
X141321Y-91907D01*
X141500Y-91833D01*
X141638Y-91696D01*
X141639Y-91692D01*
X143080Y-91692D01*
X143184Y-91672D01*
X143184Y-91672D01*
X143272Y-91612D01*
X143593Y-91292D01*
X143761Y-91292D01*
X143931Y-91222D01*
X144051Y-91102D01*
X144288Y-91102D01*
X144407Y-91222D01*
X144577Y-91292D01*
X144761Y-91292D01*
X144931Y-91222D01*
X145062Y-91092D01*
X145132Y-90922D01*
X145132Y-90738D01*
X145132Y-113037D01*
X144298Y-113037D01*
X144298Y-94794D01*
X144287Y-94578D01*
X144231Y-94443D01*
X144225Y-94430D01*
X144131Y-94403D01*
X144176Y-94358D01*
X144173Y-94355D01*
X144202Y-94326D01*
X144231Y-94257D01*
X144231Y-94182D01*
X144231Y-93595D01*
X144202Y-93526D01*
X144150Y-93473D01*
X144081Y-93444D01*
X144006Y-93444D01*
X143419Y-93444D01*
X143350Y-93473D01*
X143297Y-93525D01*
X143268Y-93594D01*
X143268Y-93653D01*
X142594Y-93653D01*
X142594Y-93275D01*
X142583Y-93067D01*
X142525Y-92927D01*
X142432Y-92902D01*
X142362Y-92973D01*
X142362Y-92832D01*
X142337Y-92739D01*
X142140Y-92670D01*
X141932Y-92681D01*
X141792Y-92739D01*
X141767Y-92832D01*
X142065Y-93129D01*
X142362Y-92832D01*
X142362Y-92973D01*
X142135Y-93200D01*
X142432Y-93497D01*
X142525Y-93472D01*
X142594Y-93275D01*
X142594Y-93653D01*
X142339Y-93653D01*
X142362Y-93567D01*
X142065Y-93270D01*
X141994Y-93341D01*
X141994Y-93200D01*
X141697Y-92902D01*
X141604Y-92927D01*
X141535Y-93124D01*
X141546Y-93332D01*
X141604Y-93472D01*
X141697Y-93497D01*
X141994Y-93200D01*
X141994Y-93341D01*
X141767Y-93567D01*
X141790Y-93653D01*
X141328Y-93653D01*
X140952Y-93277D01*
X140952Y-93121D01*
X141072Y-93002D01*
X141142Y-92832D01*
X141142Y-92648D01*
X141072Y-92478D01*
X140942Y-92347D01*
X140772Y-92277D01*
X140588Y-92277D01*
X140418Y-92347D01*
X140287Y-92477D01*
X140217Y-92647D01*
X140217Y-92831D01*
X140287Y-93001D01*
X140407Y-93121D01*
X140407Y-93390D01*
X140427Y-93494D01*
X140487Y-93582D01*
X141023Y-94118D01*
X141023Y-94118D01*
X141082Y-94158D01*
X141111Y-94178D01*
X141111Y-94178D01*
X141215Y-94198D01*
X141216Y-94198D01*
X143268Y-94198D01*
X143268Y-94256D01*
X143297Y-94325D01*
X143326Y-94355D01*
X143323Y-94358D01*
X143368Y-94403D01*
X143274Y-94430D01*
X143201Y-94633D01*
X143212Y-94849D01*
X143274Y-94997D01*
X143368Y-95024D01*
X143679Y-94714D01*
X143673Y-94708D01*
X143744Y-94637D01*
X143750Y-94643D01*
X143755Y-94637D01*
X143826Y-94708D01*
X143820Y-94714D01*
X144131Y-95024D01*
X144225Y-94997D01*
X144298Y-94794D01*
X144298Y-113037D01*
X144060Y-113037D01*
X144060Y-95095D01*
X143750Y-94784D01*
X143679Y-94855D01*
X143439Y-95095D01*
X143466Y-95189D01*
X143669Y-95262D01*
X143885Y-95251D01*
X144033Y-95189D01*
X144060Y-95095D01*
X144060Y-113037D01*
X143054Y-113037D01*
X143054Y-110481D01*
X143054Y-108231D01*
X143054Y-105281D01*
X143043Y-105063D01*
X143004Y-104968D01*
X143004Y-102681D01*
X143004Y-101131D01*
X142993Y-100913D01*
X142931Y-100762D01*
X142835Y-100734D01*
X142765Y-100805D01*
X142765Y-100664D01*
X142737Y-100568D01*
X142531Y-100495D01*
X142527Y-100495D01*
X142527Y-95108D01*
X142457Y-94938D01*
X142327Y-94807D01*
X142157Y-94737D01*
X141973Y-94737D01*
X141803Y-94807D01*
X141795Y-94815D01*
X141220Y-94815D01*
X141072Y-94844D01*
X140948Y-94928D01*
X140598Y-95277D01*
X140588Y-95277D01*
X140418Y-95347D01*
X140287Y-95477D01*
X140217Y-95647D01*
X140217Y-95831D01*
X140287Y-96001D01*
X140417Y-96132D01*
X140587Y-96202D01*
X140771Y-96202D01*
X140941Y-96132D01*
X141072Y-96002D01*
X141142Y-95832D01*
X141142Y-95821D01*
X141379Y-95584D01*
X141795Y-95584D01*
X141802Y-95592D01*
X141972Y-95662D01*
X142156Y-95662D01*
X142326Y-95592D01*
X142457Y-95462D01*
X142527Y-95292D01*
X142527Y-95108D01*
X142527Y-100495D01*
X142313Y-100506D01*
X142162Y-100568D01*
X142134Y-100664D01*
X142450Y-100979D01*
X142765Y-100664D01*
X142765Y-100805D01*
X142520Y-101050D01*
X142835Y-101365D01*
X142931Y-101337D01*
X143004Y-101131D01*
X143004Y-102681D01*
X142993Y-102463D01*
X142931Y-102312D01*
X142835Y-102284D01*
X142765Y-102355D01*
X142765Y-102214D01*
X142765Y-101435D01*
X142450Y-101120D01*
X142379Y-101191D01*
X142379Y-101050D01*
X142064Y-100734D01*
X141968Y-100762D01*
X141937Y-100848D01*
X141937Y-100712D01*
X141909Y-100643D01*
X141856Y-100590D01*
X141787Y-100562D01*
X141712Y-100562D01*
X141112Y-100562D01*
X141043Y-100590D01*
X140990Y-100643D01*
X140962Y-100712D01*
X140962Y-100787D01*
X140962Y-100812D01*
X140142Y-100812D01*
X140142Y-95648D01*
X140142Y-92648D01*
X140072Y-92478D01*
X139942Y-92347D01*
X139772Y-92277D01*
X139588Y-92277D01*
X139418Y-92347D01*
X139287Y-92477D01*
X139217Y-92647D01*
X139217Y-92831D01*
X139287Y-93001D01*
X139407Y-93121D01*
X139407Y-93587D01*
X139142Y-93851D01*
X139142Y-92648D01*
X139072Y-92478D01*
X138952Y-92358D01*
X138952Y-92180D01*
X138952Y-92179D01*
X138932Y-92075D01*
X138932Y-92075D01*
X138912Y-92046D01*
X138872Y-91987D01*
X138872Y-91987D01*
X138112Y-91227D01*
X138024Y-91167D01*
X137920Y-91147D01*
X137640Y-91147D01*
X137638Y-91144D01*
X137501Y-91006D01*
X137322Y-90932D01*
X137128Y-90932D01*
X136949Y-91006D01*
X136811Y-91143D01*
X136810Y-91147D01*
X136340Y-91147D01*
X136252Y-91164D01*
X136235Y-91167D01*
X136147Y-91227D01*
X135557Y-91817D01*
X135498Y-91817D01*
X135319Y-91891D01*
X135181Y-92028D01*
X135107Y-92207D01*
X135107Y-92401D01*
X135181Y-92580D01*
X135318Y-92718D01*
X135497Y-92792D01*
X135691Y-92792D01*
X135870Y-92718D01*
X136008Y-92581D01*
X136082Y-92402D01*
X136082Y-92208D01*
X136040Y-92105D01*
X136452Y-91692D01*
X136809Y-91692D01*
X136811Y-91695D01*
X136948Y-91833D01*
X137127Y-91907D01*
X137321Y-91907D01*
X137500Y-91833D01*
X137638Y-91696D01*
X137639Y-91692D01*
X137807Y-91692D01*
X138407Y-92292D01*
X138407Y-92358D01*
X138287Y-92477D01*
X138217Y-92647D01*
X138217Y-92831D01*
X138287Y-93001D01*
X138417Y-93132D01*
X138587Y-93202D01*
X138771Y-93202D01*
X138941Y-93132D01*
X139072Y-93002D01*
X139142Y-92832D01*
X139142Y-92648D01*
X139142Y-93851D01*
X138487Y-94507D01*
X138427Y-94595D01*
X138407Y-94700D01*
X138407Y-95358D01*
X138287Y-95477D01*
X138217Y-95647D01*
X138217Y-95831D01*
X138287Y-96001D01*
X138407Y-96121D01*
X138407Y-96592D01*
X138205Y-96592D01*
X138205Y-95965D01*
X138205Y-95514D01*
X138204Y-95415D01*
X138166Y-95323D01*
X138142Y-95299D01*
X138142Y-92648D01*
X138072Y-92478D01*
X137942Y-92347D01*
X137772Y-92277D01*
X137588Y-92277D01*
X137418Y-92347D01*
X137287Y-92477D01*
X137217Y-92647D01*
X137217Y-92831D01*
X137287Y-93001D01*
X137417Y-93132D01*
X137587Y-93202D01*
X137771Y-93202D01*
X137941Y-93132D01*
X138072Y-93002D01*
X138142Y-92832D01*
X138142Y-92648D01*
X138142Y-95299D01*
X138096Y-95252D01*
X138004Y-95214D01*
X137792Y-95215D01*
X137730Y-95277D01*
X137730Y-95690D01*
X138142Y-95690D01*
X138205Y-95627D01*
X138205Y-95514D01*
X138205Y-95965D01*
X138205Y-95852D01*
X138142Y-95790D01*
X137730Y-95790D01*
X137730Y-96202D01*
X137792Y-96265D01*
X138004Y-96265D01*
X138096Y-96227D01*
X138166Y-96156D01*
X138204Y-96064D01*
X138205Y-95965D01*
X138205Y-96592D01*
X137630Y-96592D01*
X137630Y-96202D01*
X137630Y-95790D01*
X137630Y-95690D01*
X137630Y-95277D01*
X137567Y-95215D01*
X137355Y-95214D01*
X137263Y-95252D01*
X137193Y-95323D01*
X137155Y-95415D01*
X137154Y-95514D01*
X137155Y-95627D01*
X137217Y-95690D01*
X137630Y-95690D01*
X137630Y-95790D01*
X137217Y-95790D01*
X137155Y-95852D01*
X137154Y-95965D01*
X137155Y-96064D01*
X137193Y-96156D01*
X137263Y-96227D01*
X137355Y-96265D01*
X137567Y-96265D01*
X137630Y-96202D01*
X137630Y-96592D01*
X136267Y-96592D01*
X136081Y-96405D01*
X136082Y-96402D01*
X136082Y-96208D01*
X136008Y-96029D01*
X135871Y-95891D01*
X135692Y-95817D01*
X135498Y-95817D01*
X135319Y-95891D01*
X135181Y-96028D01*
X135107Y-96207D01*
X135107Y-96401D01*
X135181Y-96580D01*
X135318Y-96718D01*
X135497Y-96792D01*
X135691Y-96792D01*
X135695Y-96791D01*
X135962Y-97057D01*
X135962Y-97057D01*
X136050Y-97117D01*
X136050Y-97117D01*
X136067Y-97120D01*
X136155Y-97137D01*
X138407Y-97137D01*
X138407Y-97553D01*
X138268Y-97553D01*
X138199Y-97582D01*
X138169Y-97611D01*
X138166Y-97608D01*
X138121Y-97653D01*
X138094Y-97559D01*
X137891Y-97486D01*
X137675Y-97497D01*
X137527Y-97559D01*
X137500Y-97653D01*
X137811Y-97964D01*
X137816Y-97958D01*
X137887Y-98029D01*
X137881Y-98035D01*
X137887Y-98040D01*
X137816Y-98111D01*
X137811Y-98105D01*
X137740Y-98176D01*
X137740Y-98035D01*
X137429Y-97724D01*
X137335Y-97751D01*
X137262Y-97954D01*
X137273Y-98170D01*
X137335Y-98318D01*
X137429Y-98345D01*
X137740Y-98035D01*
X137740Y-98176D01*
X137500Y-98416D01*
X137527Y-98510D01*
X137730Y-98583D01*
X137946Y-98572D01*
X138094Y-98510D01*
X138121Y-98416D01*
X138121Y-98416D01*
X138166Y-98461D01*
X138169Y-98458D01*
X138198Y-98487D01*
X138267Y-98516D01*
X138342Y-98516D01*
X138929Y-98516D01*
X138998Y-98487D01*
X139051Y-98435D01*
X139080Y-98366D01*
X139080Y-98291D01*
X139080Y-97704D01*
X139051Y-97635D01*
X138999Y-97582D01*
X138952Y-97563D01*
X138952Y-96865D01*
X138952Y-96121D01*
X139072Y-96002D01*
X139142Y-95832D01*
X139142Y-95648D01*
X139072Y-95478D01*
X138952Y-95358D01*
X138952Y-94812D01*
X139872Y-93892D01*
X139872Y-93892D01*
X139912Y-93833D01*
X139932Y-93804D01*
X139932Y-93804D01*
X139952Y-93700D01*
X139952Y-93700D01*
X139952Y-93121D01*
X140072Y-93002D01*
X140142Y-92832D01*
X140142Y-92648D01*
X140142Y-95648D01*
X140072Y-95478D01*
X139942Y-95347D01*
X139772Y-95277D01*
X139588Y-95277D01*
X139418Y-95347D01*
X139287Y-95477D01*
X139217Y-95647D01*
X139217Y-95831D01*
X139287Y-96001D01*
X139417Y-96132D01*
X139587Y-96202D01*
X139771Y-96202D01*
X139941Y-96132D01*
X140072Y-96002D01*
X140142Y-95832D01*
X140142Y-95648D01*
X140142Y-100812D01*
X138121Y-100812D01*
X135062Y-100812D01*
X135062Y-96208D01*
X135062Y-92208D01*
X134988Y-92029D01*
X134851Y-91891D01*
X134672Y-91817D01*
X134478Y-91817D01*
X134299Y-91891D01*
X134161Y-92028D01*
X134087Y-92207D01*
X134087Y-92401D01*
X134161Y-92580D01*
X134298Y-92718D01*
X134477Y-92792D01*
X134671Y-92792D01*
X134850Y-92718D01*
X134988Y-92581D01*
X135062Y-92402D01*
X135062Y-92208D01*
X135062Y-96208D01*
X134988Y-96029D01*
X134851Y-95891D01*
X134672Y-95817D01*
X134478Y-95817D01*
X134299Y-95891D01*
X134161Y-96028D01*
X134087Y-96207D01*
X134087Y-96401D01*
X134161Y-96580D01*
X134298Y-96718D01*
X134477Y-96792D01*
X134671Y-96792D01*
X134850Y-96718D01*
X134988Y-96581D01*
X135062Y-96402D01*
X135062Y-96208D01*
X135062Y-100812D01*
X134298Y-100812D01*
X134042Y-100557D01*
X134042Y-96208D01*
X133968Y-96029D01*
X133831Y-95891D01*
X133652Y-95817D01*
X133458Y-95817D01*
X133279Y-95891D01*
X133141Y-96028D01*
X133067Y-96207D01*
X133067Y-96401D01*
X133141Y-96580D01*
X133278Y-96718D01*
X133457Y-96792D01*
X133651Y-96792D01*
X133830Y-96718D01*
X133968Y-96581D01*
X134042Y-96402D01*
X134042Y-96208D01*
X134042Y-100557D01*
X132011Y-98526D01*
X132011Y-95221D01*
X131725Y-94935D01*
X131654Y-95006D01*
X131654Y-94865D01*
X131368Y-94578D01*
X131276Y-94601D01*
X131210Y-94792D01*
X131221Y-94995D01*
X131276Y-95128D01*
X131368Y-95151D01*
X131654Y-94865D01*
X131654Y-95006D01*
X131438Y-95221D01*
X131461Y-95313D01*
X131652Y-95379D01*
X131855Y-95368D01*
X131988Y-95313D01*
X132011Y-95221D01*
X132011Y-98526D01*
X131137Y-97651D01*
X131137Y-94498D01*
X131430Y-94204D01*
X131471Y-94244D01*
X131635Y-94312D01*
X131813Y-94312D01*
X131978Y-94244D01*
X132083Y-94139D01*
X132027Y-94275D01*
X132027Y-94453D01*
X132038Y-94480D01*
X132011Y-94508D01*
X131988Y-94416D01*
X131797Y-94350D01*
X131594Y-94361D01*
X131461Y-94416D01*
X131438Y-94508D01*
X131725Y-94794D01*
X131730Y-94788D01*
X131801Y-94859D01*
X131795Y-94865D01*
X132081Y-95151D01*
X132173Y-95128D01*
X132239Y-94937D01*
X132229Y-94747D01*
X132385Y-94812D01*
X132563Y-94812D01*
X132728Y-94744D01*
X132854Y-94618D01*
X132922Y-94454D01*
X132922Y-94302D01*
X133747Y-93477D01*
X133747Y-93477D01*
X133787Y-93418D01*
X133807Y-93389D01*
X133807Y-93389D01*
X133827Y-93285D01*
X133827Y-93285D01*
X133827Y-92720D01*
X133830Y-92718D01*
X133968Y-92581D01*
X134042Y-92402D01*
X134042Y-92208D01*
X133968Y-92029D01*
X133831Y-91891D01*
X133652Y-91817D01*
X133458Y-91817D01*
X133279Y-91891D01*
X133141Y-92028D01*
X133067Y-92207D01*
X133067Y-92401D01*
X133141Y-92580D01*
X133278Y-92718D01*
X133282Y-92719D01*
X133282Y-93172D01*
X132536Y-93917D01*
X132386Y-93917D01*
X132221Y-93985D01*
X132116Y-94090D01*
X132172Y-93954D01*
X132172Y-93776D01*
X132104Y-93611D01*
X131997Y-93504D01*
X131997Y-92862D01*
X132572Y-92287D01*
X132632Y-92199D01*
X132632Y-92199D01*
X132652Y-92095D01*
X132652Y-90262D01*
X132717Y-90262D01*
X132786Y-90234D01*
X132839Y-90181D01*
X132867Y-90112D01*
X132867Y-90037D01*
X132867Y-89437D01*
X132839Y-89368D01*
X132786Y-89315D01*
X132717Y-89287D01*
X132642Y-89287D01*
X132042Y-89287D01*
X131973Y-89315D01*
X131920Y-89368D01*
X131892Y-89437D01*
X131892Y-89512D01*
X131892Y-90112D01*
X131920Y-90181D01*
X131973Y-90234D01*
X132042Y-90262D01*
X132107Y-90262D01*
X132107Y-91982D01*
X131532Y-92557D01*
X131472Y-92645D01*
X131452Y-92750D01*
X131452Y-93504D01*
X131345Y-93611D01*
X131325Y-93658D01*
X131318Y-93663D01*
X131267Y-93697D01*
X130732Y-94232D01*
X130681Y-94309D01*
X130662Y-94400D01*
X130662Y-97750D01*
X130681Y-97840D01*
X130732Y-97917D01*
X134032Y-101217D01*
X134109Y-101268D01*
X134200Y-101287D01*
X140962Y-101287D01*
X140962Y-101387D01*
X140990Y-101456D01*
X141043Y-101509D01*
X141112Y-101537D01*
X141187Y-101537D01*
X141787Y-101537D01*
X141856Y-101509D01*
X141909Y-101456D01*
X141937Y-101387D01*
X141937Y-101312D01*
X141937Y-101263D01*
X141968Y-101337D01*
X142064Y-101365D01*
X142379Y-101050D01*
X142379Y-101191D01*
X142134Y-101435D01*
X142162Y-101531D01*
X142368Y-101604D01*
X142586Y-101593D01*
X142737Y-101531D01*
X142765Y-101435D01*
X142765Y-102214D01*
X142737Y-102118D01*
X142531Y-102045D01*
X142313Y-102056D01*
X142162Y-102118D01*
X142134Y-102214D01*
X142450Y-102529D01*
X142765Y-102214D01*
X142765Y-102355D01*
X142520Y-102600D01*
X142835Y-102915D01*
X142931Y-102887D01*
X143004Y-102681D01*
X143004Y-104968D01*
X142981Y-104912D01*
X142885Y-104884D01*
X142815Y-104955D01*
X142815Y-104814D01*
X142787Y-104718D01*
X142765Y-104710D01*
X142765Y-102985D01*
X142450Y-102670D01*
X142134Y-102985D01*
X142162Y-103081D01*
X142368Y-103154D01*
X142586Y-103143D01*
X142737Y-103081D01*
X142765Y-102985D01*
X142765Y-104710D01*
X142581Y-104645D01*
X142363Y-104656D01*
X142212Y-104718D01*
X142184Y-104814D01*
X142500Y-105129D01*
X142815Y-104814D01*
X142815Y-104955D01*
X142570Y-105200D01*
X142885Y-105515D01*
X142981Y-105487D01*
X143054Y-105281D01*
X143054Y-108231D01*
X143043Y-108013D01*
X142981Y-107862D01*
X142885Y-107834D01*
X142815Y-107905D01*
X142815Y-107764D01*
X142815Y-105585D01*
X142500Y-105270D01*
X142429Y-105341D01*
X142429Y-105200D01*
X142114Y-104884D01*
X142018Y-104912D01*
X141987Y-104998D01*
X141987Y-104862D01*
X141959Y-104793D01*
X141906Y-104740D01*
X141837Y-104712D01*
X141762Y-104712D01*
X141162Y-104712D01*
X141093Y-104740D01*
X141040Y-104793D01*
X141012Y-104862D01*
X141012Y-104937D01*
X141012Y-105537D01*
X141040Y-105606D01*
X141093Y-105659D01*
X141162Y-105687D01*
X141237Y-105687D01*
X141837Y-105687D01*
X141906Y-105659D01*
X141959Y-105606D01*
X141987Y-105537D01*
X141987Y-105462D01*
X141987Y-105413D01*
X142018Y-105487D01*
X142114Y-105515D01*
X142429Y-105200D01*
X142429Y-105341D01*
X142184Y-105585D01*
X142212Y-105681D01*
X142418Y-105754D01*
X142636Y-105743D01*
X142787Y-105681D01*
X142815Y-105585D01*
X142815Y-107764D01*
X142787Y-107668D01*
X142581Y-107595D01*
X142363Y-107606D01*
X142212Y-107668D01*
X142184Y-107764D01*
X142500Y-108079D01*
X142815Y-107764D01*
X142815Y-107905D01*
X142570Y-108150D01*
X142885Y-108465D01*
X142981Y-108437D01*
X143054Y-108231D01*
X143054Y-110481D01*
X143043Y-110263D01*
X142981Y-110112D01*
X142885Y-110084D01*
X142815Y-110155D01*
X142815Y-110014D01*
X142815Y-108535D01*
X142500Y-108220D01*
X142429Y-108291D01*
X142429Y-108150D01*
X142114Y-107834D01*
X142018Y-107862D01*
X141987Y-107948D01*
X141987Y-107812D01*
X141959Y-107743D01*
X141906Y-107690D01*
X141837Y-107662D01*
X141762Y-107662D01*
X141162Y-107662D01*
X141093Y-107690D01*
X141040Y-107743D01*
X141012Y-107812D01*
X141012Y-107887D01*
X141012Y-108487D01*
X141040Y-108556D01*
X141093Y-108609D01*
X141162Y-108637D01*
X141237Y-108637D01*
X141837Y-108637D01*
X141906Y-108609D01*
X141959Y-108556D01*
X141987Y-108487D01*
X141987Y-108412D01*
X141987Y-108363D01*
X142018Y-108437D01*
X142114Y-108465D01*
X142429Y-108150D01*
X142429Y-108291D01*
X142184Y-108535D01*
X142212Y-108631D01*
X142418Y-108704D01*
X142636Y-108693D01*
X142787Y-108631D01*
X142815Y-108535D01*
X142815Y-110014D01*
X142787Y-109918D01*
X142581Y-109845D01*
X142363Y-109856D01*
X142212Y-109918D01*
X142184Y-110014D01*
X142500Y-110329D01*
X142815Y-110014D01*
X142815Y-110155D01*
X142570Y-110400D01*
X142885Y-110715D01*
X142981Y-110687D01*
X143054Y-110481D01*
X143054Y-113037D01*
X142815Y-113037D01*
X142815Y-110785D01*
X142500Y-110470D01*
X142429Y-110541D01*
X142429Y-110400D01*
X142114Y-110084D01*
X142018Y-110112D01*
X141987Y-110198D01*
X141987Y-110062D01*
X141959Y-109993D01*
X141906Y-109940D01*
X141837Y-109912D01*
X141762Y-109912D01*
X141162Y-109912D01*
X141093Y-109940D01*
X141040Y-109993D01*
X141012Y-110062D01*
X141012Y-110137D01*
X141012Y-110737D01*
X141040Y-110806D01*
X141093Y-110859D01*
X141162Y-110887D01*
X141237Y-110887D01*
X141837Y-110887D01*
X141906Y-110859D01*
X141959Y-110806D01*
X141987Y-110737D01*
X141987Y-110662D01*
X141987Y-110613D01*
X142018Y-110687D01*
X142114Y-110715D01*
X142429Y-110400D01*
X142429Y-110541D01*
X142184Y-110785D01*
X142212Y-110881D01*
X142418Y-110954D01*
X142636Y-110943D01*
X142787Y-110881D01*
X142815Y-110785D01*
X142815Y-113037D01*
X136654Y-113037D01*
X136654Y-111051D01*
X136643Y-110833D01*
X136581Y-110682D01*
X136485Y-110654D01*
X136415Y-110725D01*
X136415Y-110584D01*
X136387Y-110488D01*
X136181Y-110415D01*
X135963Y-110426D01*
X135812Y-110488D01*
X135784Y-110584D01*
X136100Y-110899D01*
X136415Y-110584D01*
X136415Y-110725D01*
X136170Y-110970D01*
X136485Y-111285D01*
X136581Y-111257D01*
X136654Y-111051D01*
X136654Y-113037D01*
X136614Y-113037D01*
X136468Y-112295D01*
X136468Y-112291D01*
X136428Y-112196D01*
X135966Y-111506D01*
X136018Y-111524D01*
X136236Y-111513D01*
X136387Y-111451D01*
X136415Y-111355D01*
X136100Y-111040D01*
X136094Y-111046D01*
X136023Y-110975D01*
X136029Y-110970D01*
X135714Y-110654D01*
X135618Y-110682D01*
X135545Y-110888D01*
X135556Y-111106D01*
X135576Y-111155D01*
X135005Y-110773D01*
X135002Y-110770D01*
X134907Y-110731D01*
X134650Y-110680D01*
X134650Y-109350D01*
X135067Y-109350D01*
X134953Y-109397D01*
X134822Y-109527D01*
X134752Y-109697D01*
X134752Y-109881D01*
X134822Y-110051D01*
X134952Y-110182D01*
X135122Y-110252D01*
X135306Y-110252D01*
X135476Y-110182D01*
X135553Y-110105D01*
X135579Y-110105D01*
X135580Y-110105D01*
X135580Y-110105D01*
X135700Y-110081D01*
X135803Y-110013D01*
X136323Y-109493D01*
X136323Y-109493D01*
X136323Y-109493D01*
X136391Y-109390D01*
X136415Y-109270D01*
X136415Y-107344D01*
X136513Y-107246D01*
X136587Y-107067D01*
X136587Y-106873D01*
X136513Y-106694D01*
X136376Y-106556D01*
X136197Y-106482D01*
X136003Y-106482D01*
X135824Y-106556D01*
X135686Y-106693D01*
X135612Y-106872D01*
X135612Y-107066D01*
X135686Y-107245D01*
X135784Y-107344D01*
X135784Y-107513D01*
X134720Y-106450D01*
X132720Y-106450D01*
X131720Y-105450D01*
X130850Y-105450D01*
X130850Y-100779D01*
X127420Y-97350D01*
X126250Y-97350D01*
X126250Y-97337D01*
X128351Y-97337D01*
X133782Y-102767D01*
X133782Y-102767D01*
X133859Y-102818D01*
X133859Y-102818D01*
X133874Y-102821D01*
X133950Y-102837D01*
X140962Y-102837D01*
X140962Y-102937D01*
X140990Y-103006D01*
X141043Y-103059D01*
X141112Y-103087D01*
X141187Y-103087D01*
X141787Y-103087D01*
X141856Y-103059D01*
X141909Y-103006D01*
X141937Y-102937D01*
X141937Y-102862D01*
X141937Y-102813D01*
X141968Y-102887D01*
X142064Y-102915D01*
X142379Y-102600D01*
X142064Y-102284D01*
X141968Y-102312D01*
X141937Y-102398D01*
X141937Y-102262D01*
X141909Y-102193D01*
X141856Y-102140D01*
X141787Y-102112D01*
X141712Y-102112D01*
X141112Y-102112D01*
X141043Y-102140D01*
X140990Y-102193D01*
X140962Y-102262D01*
X140962Y-102337D01*
X140962Y-102362D01*
X134048Y-102362D01*
X128617Y-96932D01*
X128540Y-96881D01*
X128450Y-96862D01*
X126250Y-96862D01*
X126250Y-95320D01*
X131050Y-90520D01*
X131050Y-90134D01*
X131103Y-90188D01*
X131282Y-90262D01*
X131476Y-90262D01*
X131655Y-90188D01*
X131793Y-90051D01*
X131867Y-89872D01*
X131867Y-89678D01*
X131793Y-89499D01*
X131656Y-89361D01*
X131477Y-89287D01*
X131283Y-89287D01*
X131104Y-89361D01*
X131050Y-89415D01*
X131050Y-83662D01*
X131184Y-83662D01*
X131331Y-84407D01*
X131370Y-84502D01*
X131373Y-84505D01*
X131911Y-85309D01*
X131913Y-85313D01*
X131986Y-85386D01*
X132796Y-85928D01*
X132891Y-85968D01*
X132895Y-85968D01*
X133844Y-86156D01*
X133848Y-86157D01*
X133951Y-86157D01*
X134907Y-85968D01*
X135002Y-85929D01*
X135005Y-85926D01*
X135809Y-85388D01*
X135813Y-85386D01*
X135886Y-85313D01*
X136428Y-84503D01*
X136468Y-84408D01*
X136468Y-84404D01*
X136614Y-83662D01*
X147741Y-83662D01*
X149387Y-85308D01*
X149387Y-111391D01*
X149387Y-111391D01*
G37*
G54D39*
X149387Y-111391D02*
X147741Y-113037D01*
X146152Y-113037D01*
X146152Y-88153D01*
X146082Y-87983D01*
X145952Y-87852D01*
X145782Y-87782D01*
X145598Y-87782D01*
X145428Y-87852D01*
X145308Y-87972D01*
X145071Y-87972D01*
X144952Y-87852D01*
X144782Y-87782D01*
X144598Y-87782D01*
X144428Y-87852D01*
X144297Y-87982D01*
X144227Y-88152D01*
X144227Y-88336D01*
X144297Y-88506D01*
X144427Y-88637D01*
X144597Y-88707D01*
X144781Y-88707D01*
X144951Y-88637D01*
X145071Y-88517D01*
X145308Y-88517D01*
X145397Y-88606D01*
X145397Y-90367D01*
X145357Y-90367D01*
X145288Y-90395D01*
X145235Y-90448D01*
X145207Y-90517D01*
X145207Y-90592D01*
X145207Y-91142D01*
X145235Y-91211D01*
X145288Y-91264D01*
X145357Y-91292D01*
X145432Y-91292D01*
X145982Y-91292D01*
X146051Y-91264D01*
X146104Y-91211D01*
X146132Y-91142D01*
X146132Y-91067D01*
X146132Y-90517D01*
X146104Y-90448D01*
X146051Y-90395D01*
X145982Y-90367D01*
X145942Y-90367D01*
X145942Y-88641D01*
X145951Y-88637D01*
X146082Y-88507D01*
X146152Y-88337D01*
X146152Y-88153D01*
X146152Y-113037D01*
X145132Y-113037D01*
X145132Y-90738D01*
X145062Y-90568D01*
X144932Y-90437D01*
X144762Y-90367D01*
X144578Y-90367D01*
X144408Y-90437D01*
X144288Y-90557D01*
X144152Y-90557D01*
X144152Y-88482D01*
X144152Y-87932D01*
X144124Y-87863D01*
X144071Y-87810D01*
X144002Y-87782D01*
X143927Y-87782D01*
X143377Y-87782D01*
X143308Y-87810D01*
X143255Y-87863D01*
X143227Y-87932D01*
X143227Y-88007D01*
X143227Y-88557D01*
X143255Y-88626D01*
X143308Y-88679D01*
X143377Y-88707D01*
X143452Y-88707D01*
X144002Y-88707D01*
X144071Y-88679D01*
X144124Y-88626D01*
X144152Y-88557D01*
X144152Y-88482D01*
X144152Y-90557D01*
X144051Y-90557D01*
X143932Y-90437D01*
X143762Y-90367D01*
X143578Y-90367D01*
X143408Y-90437D01*
X143277Y-90567D01*
X143207Y-90737D01*
X143207Y-90907D01*
X142967Y-91147D01*
X141640Y-91147D01*
X141638Y-91144D01*
X141501Y-91006D01*
X141322Y-90932D01*
X141128Y-90932D01*
X140949Y-91006D01*
X140811Y-91143D01*
X140737Y-91322D01*
X140737Y-91516D01*
X140811Y-91695D01*
X140948Y-91833D01*
X141127Y-91907D01*
X141321Y-91907D01*
X141500Y-91833D01*
X141638Y-91696D01*
X141639Y-91692D01*
X143080Y-91692D01*
X143184Y-91672D01*
X143184Y-91672D01*
X143272Y-91612D01*
X143593Y-91292D01*
X143761Y-91292D01*
X143931Y-91222D01*
X144051Y-91102D01*
X144288Y-91102D01*
X144407Y-91222D01*
X144577Y-91292D01*
X144761Y-91292D01*
X144931Y-91222D01*
X145062Y-91092D01*
X145132Y-90922D01*
X145132Y-90738D01*
X145132Y-113037D01*
X144298Y-113037D01*
X144298Y-94794D01*
X144287Y-94578D01*
X144231Y-94443D01*
X144225Y-94430D01*
X144131Y-94403D01*
X144176Y-94358D01*
X144173Y-94355D01*
X144202Y-94326D01*
X144231Y-94257D01*
X144231Y-94182D01*
X144231Y-93595D01*
X144202Y-93526D01*
X144150Y-93473D01*
X144081Y-93444D01*
X144006Y-93444D01*
X143419Y-93444D01*
X143350Y-93473D01*
X143297Y-93525D01*
X143268Y-93594D01*
X143268Y-93653D01*
X142594Y-93653D01*
X142594Y-93275D01*
X142583Y-93067D01*
X142525Y-92927D01*
X142432Y-92902D01*
X142362Y-92973D01*
X142362Y-92832D01*
X142337Y-92739D01*
X142140Y-92670D01*
X141932Y-92681D01*
X141792Y-92739D01*
X141767Y-92832D01*
X142065Y-93129D01*
X142362Y-92832D01*
X142362Y-92973D01*
X142135Y-93200D01*
X142432Y-93497D01*
X142525Y-93472D01*
X142594Y-93275D01*
X142594Y-93653D01*
X142339Y-93653D01*
X142362Y-93567D01*
X142065Y-93270D01*
X141994Y-93341D01*
X141994Y-93200D01*
X141697Y-92902D01*
X141604Y-92927D01*
X141535Y-93124D01*
X141546Y-93332D01*
X141604Y-93472D01*
X141697Y-93497D01*
X141994Y-93200D01*
X141994Y-93341D01*
X141767Y-93567D01*
X141790Y-93653D01*
X141328Y-93653D01*
X140952Y-93277D01*
X140952Y-93121D01*
X141072Y-93002D01*
X141142Y-92832D01*
X141142Y-92648D01*
X141072Y-92478D01*
X140942Y-92347D01*
X140772Y-92277D01*
X140588Y-92277D01*
X140418Y-92347D01*
X140287Y-92477D01*
X140217Y-92647D01*
X140217Y-92831D01*
X140287Y-93001D01*
X140407Y-93121D01*
X140407Y-93390D01*
X140427Y-93494D01*
X140487Y-93582D01*
X141023Y-94118D01*
X141023Y-94118D01*
X141082Y-94158D01*
X141111Y-94178D01*
X141111Y-94178D01*
X141215Y-94198D01*
X141216Y-94198D01*
X143268Y-94198D01*
X143268Y-94256D01*
X143297Y-94325D01*
X143326Y-94355D01*
X143323Y-94358D01*
X143368Y-94403D01*
X143274Y-94430D01*
X143201Y-94633D01*
X143212Y-94849D01*
X143274Y-94997D01*
X143368Y-95024D01*
X143679Y-94714D01*
X143673Y-94708D01*
X143744Y-94637D01*
X143750Y-94643D01*
X143755Y-94637D01*
X143826Y-94708D01*
X143820Y-94714D01*
X144131Y-95024D01*
X144225Y-94997D01*
X144298Y-94794D01*
X144298Y-113037D01*
X144060Y-113037D01*
X144060Y-95095D01*
X143750Y-94784D01*
X143679Y-94855D01*
X143439Y-95095D01*
X143466Y-95189D01*
X143669Y-95262D01*
X143885Y-95251D01*
X144033Y-95189D01*
X144060Y-95095D01*
X144060Y-113037D01*
X143054Y-113037D01*
X143054Y-110481D01*
X143054Y-108231D01*
X143054Y-105281D01*
X143043Y-105063D01*
X143004Y-104968D01*
X143004Y-102681D01*
X143004Y-101131D01*
X142993Y-100913D01*
X142931Y-100762D01*
X142835Y-100734D01*
X142765Y-100805D01*
X142765Y-100664D01*
X142737Y-100568D01*
X142531Y-100495D01*
X142527Y-100495D01*
X142527Y-95108D01*
X142457Y-94938D01*
X142327Y-94807D01*
X142157Y-94737D01*
X141973Y-94737D01*
X141803Y-94807D01*
X141795Y-94815D01*
X141220Y-94815D01*
X141072Y-94844D01*
X140948Y-94928D01*
X140598Y-95277D01*
X140588Y-95277D01*
X140418Y-95347D01*
X140287Y-95477D01*
X140217Y-95647D01*
X140217Y-95831D01*
X140287Y-96001D01*
X140417Y-96132D01*
X140587Y-96202D01*
X140771Y-96202D01*
X140941Y-96132D01*
X141072Y-96002D01*
X141142Y-95832D01*
X141142Y-95821D01*
X141379Y-95584D01*
X141795Y-95584D01*
X141802Y-95592D01*
X141972Y-95662D01*
X142156Y-95662D01*
X142326Y-95592D01*
X142457Y-95462D01*
X142527Y-95292D01*
X142527Y-95108D01*
X142527Y-100495D01*
X142313Y-100506D01*
X142162Y-100568D01*
X142134Y-100664D01*
X142450Y-100979D01*
X142765Y-100664D01*
X142765Y-100805D01*
X142520Y-101050D01*
X142835Y-101365D01*
X142931Y-101337D01*
X143004Y-101131D01*
X143004Y-102681D01*
X142993Y-102463D01*
X142931Y-102312D01*
X142835Y-102284D01*
X142765Y-102355D01*
X142765Y-102214D01*
X142765Y-101435D01*
X142450Y-101120D01*
X142379Y-101191D01*
X142379Y-101050D01*
X142064Y-100734D01*
X141968Y-100762D01*
X141937Y-100848D01*
X141937Y-100712D01*
X141909Y-100643D01*
X141856Y-100590D01*
X141787Y-100562D01*
X141712Y-100562D01*
X141112Y-100562D01*
X141043Y-100590D01*
X140990Y-100643D01*
X140962Y-100712D01*
X140962Y-100787D01*
X140962Y-100812D01*
X140142Y-100812D01*
X140142Y-95648D01*
X140142Y-92648D01*
X140072Y-92478D01*
X139942Y-92347D01*
X139772Y-92277D01*
X139588Y-92277D01*
X139418Y-92347D01*
X139287Y-92477D01*
X139217Y-92647D01*
X139217Y-92831D01*
X139287Y-93001D01*
X139407Y-93121D01*
X139407Y-93587D01*
X139142Y-93851D01*
X139142Y-92648D01*
X139072Y-92478D01*
X138952Y-92358D01*
X138952Y-92180D01*
X138952Y-92179D01*
X138932Y-92075D01*
X138932Y-92075D01*
X138912Y-92046D01*
X138872Y-91987D01*
X138872Y-91987D01*
X138112Y-91227D01*
X138024Y-91167D01*
X137920Y-91147D01*
X137640Y-91147D01*
X137638Y-91144D01*
X137501Y-91006D01*
X137322Y-90932D01*
X137128Y-90932D01*
X136949Y-91006D01*
X136811Y-91143D01*
X136810Y-91147D01*
X136340Y-91147D01*
X136252Y-91164D01*
X136235Y-91167D01*
X136147Y-91227D01*
X135557Y-91817D01*
X135498Y-91817D01*
X135319Y-91891D01*
X135181Y-92028D01*
X135107Y-92207D01*
X135107Y-92401D01*
X135181Y-92580D01*
X135318Y-92718D01*
X135497Y-92792D01*
X135691Y-92792D01*
X135870Y-92718D01*
X136008Y-92581D01*
X136082Y-92402D01*
X136082Y-92208D01*
X136040Y-92105D01*
X136452Y-91692D01*
X136809Y-91692D01*
X136811Y-91695D01*
X136948Y-91833D01*
X137127Y-91907D01*
X137321Y-91907D01*
X137500Y-91833D01*
X137638Y-91696D01*
X137639Y-91692D01*
X137807Y-91692D01*
X138407Y-92292D01*
X138407Y-92358D01*
X138287Y-92477D01*
X138217Y-92647D01*
X138217Y-92831D01*
X138287Y-93001D01*
X138417Y-93132D01*
X138587Y-93202D01*
X138771Y-93202D01*
X138941Y-93132D01*
X139072Y-93002D01*
X139142Y-92832D01*
X139142Y-92648D01*
X139142Y-93851D01*
X138487Y-94507D01*
X138427Y-94595D01*
X138407Y-94700D01*
X138407Y-95358D01*
X138287Y-95477D01*
X138217Y-95647D01*
X138217Y-95831D01*
X138287Y-96001D01*
X138407Y-96121D01*
X138407Y-96592D01*
X138205Y-96592D01*
X138205Y-95965D01*
X138205Y-95514D01*
X138204Y-95415D01*
X138166Y-95323D01*
X138142Y-95299D01*
X138142Y-92648D01*
X138072Y-92478D01*
X137942Y-92347D01*
X137772Y-92277D01*
X137588Y-92277D01*
X137418Y-92347D01*
X137287Y-92477D01*
X137217Y-92647D01*
X137217Y-92831D01*
X137287Y-93001D01*
X137417Y-93132D01*
X137587Y-93202D01*
X137771Y-93202D01*
X137941Y-93132D01*
X138072Y-93002D01*
X138142Y-92832D01*
X138142Y-92648D01*
X138142Y-95299D01*
X138096Y-95252D01*
X138004Y-95214D01*
X137792Y-95215D01*
X137730Y-95277D01*
X137730Y-95690D01*
X138142Y-95690D01*
X138205Y-95627D01*
X138205Y-95514D01*
X138205Y-95965D01*
X138205Y-95852D01*
X138142Y-95790D01*
X137730Y-95790D01*
X137730Y-96202D01*
X137792Y-96265D01*
X138004Y-96265D01*
X138096Y-96227D01*
X138166Y-96156D01*
X138204Y-96064D01*
X138205Y-95965D01*
X138205Y-96592D01*
X137630Y-96592D01*
X137630Y-96202D01*
X137630Y-95790D01*
X137630Y-95690D01*
X137630Y-95277D01*
X137567Y-95215D01*
X137355Y-95214D01*
X137263Y-95252D01*
X137193Y-95323D01*
X137155Y-95415D01*
X137154Y-95514D01*
X137155Y-95627D01*
X137217Y-95690D01*
X137630Y-95690D01*
X137630Y-95790D01*
X137217Y-95790D01*
X137155Y-95852D01*
X137154Y-95965D01*
X137155Y-96064D01*
X137193Y-96156D01*
X137263Y-96227D01*
X137355Y-96265D01*
X137567Y-96265D01*
X137630Y-96202D01*
X137630Y-96592D01*
X136267Y-96592D01*
X136081Y-96405D01*
X136082Y-96402D01*
X136082Y-96208D01*
X136008Y-96029D01*
X135871Y-95891D01*
X135692Y-95817D01*
X135498Y-95817D01*
X135319Y-95891D01*
X135181Y-96028D01*
X135107Y-96207D01*
X135107Y-96401D01*
X135181Y-96580D01*
X135318Y-96718D01*
X135497Y-96792D01*
X135691Y-96792D01*
X135695Y-96791D01*
X135962Y-97057D01*
X135962Y-97057D01*
X136050Y-97117D01*
X136050Y-97117D01*
X136067Y-97120D01*
X136155Y-97137D01*
X138407Y-97137D01*
X138407Y-97553D01*
X138268Y-97553D01*
X138199Y-97582D01*
X138169Y-97611D01*
X138166Y-97608D01*
X138121Y-97653D01*
X138094Y-97559D01*
X137891Y-97486D01*
X137675Y-97497D01*
X137527Y-97559D01*
X137500Y-97653D01*
X137811Y-97964D01*
X137816Y-97958D01*
X137887Y-98029D01*
X137881Y-98035D01*
X137887Y-98040D01*
X137816Y-98111D01*
X137811Y-98105D01*
X137740Y-98176D01*
X137740Y-98035D01*
X137429Y-97724D01*
X137335Y-97751D01*
X137262Y-97954D01*
X137273Y-98170D01*
X137335Y-98318D01*
X137429Y-98345D01*
X137740Y-98035D01*
X137740Y-98176D01*
X137500Y-98416D01*
X137527Y-98510D01*
X137730Y-98583D01*
X137946Y-98572D01*
X138094Y-98510D01*
X138121Y-98416D01*
X138121Y-98416D01*
X138166Y-98461D01*
X138169Y-98458D01*
X138198Y-98487D01*
X138267Y-98516D01*
X138342Y-98516D01*
X138929Y-98516D01*
X138998Y-98487D01*
X139051Y-98435D01*
X139080Y-98366D01*
X139080Y-98291D01*
X139080Y-97704D01*
X139051Y-97635D01*
X138999Y-97582D01*
X138952Y-97563D01*
X138952Y-96865D01*
X138952Y-96121D01*
X139072Y-96002D01*
X139142Y-95832D01*
X139142Y-95648D01*
X139072Y-95478D01*
X138952Y-95358D01*
X138952Y-94812D01*
X139872Y-93892D01*
X139872Y-93892D01*
X139912Y-93833D01*
X139932Y-93804D01*
X139932Y-93804D01*
X139952Y-93700D01*
X139952Y-93700D01*
X139952Y-93121D01*
X140072Y-93002D01*
X140142Y-92832D01*
X140142Y-92648D01*
X140142Y-95648D01*
X140072Y-95478D01*
X139942Y-95347D01*
X139772Y-95277D01*
X139588Y-95277D01*
X139418Y-95347D01*
X139287Y-95477D01*
X139217Y-95647D01*
X139217Y-95831D01*
X139287Y-96001D01*
X139417Y-96132D01*
X139587Y-96202D01*
X139771Y-96202D01*
X139941Y-96132D01*
X140072Y-96002D01*
X140142Y-95832D01*
X140142Y-95648D01*
X140142Y-100812D01*
X138121Y-100812D01*
X135062Y-100812D01*
X135062Y-96208D01*
X135062Y-92208D01*
X134988Y-92029D01*
X134851Y-91891D01*
X134672Y-91817D01*
X134478Y-91817D01*
X134299Y-91891D01*
X134161Y-92028D01*
X134087Y-92207D01*
X134087Y-92401D01*
X134161Y-92580D01*
X134298Y-92718D01*
X134477Y-92792D01*
X134671Y-92792D01*
X134850Y-92718D01*
X134988Y-92581D01*
X135062Y-92402D01*
X135062Y-92208D01*
X135062Y-96208D01*
X134988Y-96029D01*
X134851Y-95891D01*
X134672Y-95817D01*
X134478Y-95817D01*
X134299Y-95891D01*
X134161Y-96028D01*
X134087Y-96207D01*
X134087Y-96401D01*
X134161Y-96580D01*
X134298Y-96718D01*
X134477Y-96792D01*
X134671Y-96792D01*
X134850Y-96718D01*
X134988Y-96581D01*
X135062Y-96402D01*
X135062Y-96208D01*
X135062Y-100812D01*
X134298Y-100812D01*
X134042Y-100557D01*
X134042Y-96208D01*
X133968Y-96029D01*
X133831Y-95891D01*
X133652Y-95817D01*
X133458Y-95817D01*
X133279Y-95891D01*
X133141Y-96028D01*
X133067Y-96207D01*
X133067Y-96401D01*
X133141Y-96580D01*
X133278Y-96718D01*
X133457Y-96792D01*
X133651Y-96792D01*
X133830Y-96718D01*
X133968Y-96581D01*
X134042Y-96402D01*
X134042Y-96208D01*
X134042Y-100557D01*
X132011Y-98526D01*
X132011Y-95221D01*
X131725Y-94935D01*
X131654Y-95006D01*
X131654Y-94865D01*
X131368Y-94578D01*
X131276Y-94601D01*
X131210Y-94792D01*
X131221Y-94995D01*
X131276Y-95128D01*
X131368Y-95151D01*
X131654Y-94865D01*
X131654Y-95006D01*
X131438Y-95221D01*
X131461Y-95313D01*
X131652Y-95379D01*
X131855Y-95368D01*
X131988Y-95313D01*
X132011Y-95221D01*
X132011Y-98526D01*
X131137Y-97651D01*
X131137Y-94498D01*
X131430Y-94204D01*
X131471Y-94244D01*
X131635Y-94312D01*
X131813Y-94312D01*
X131978Y-94244D01*
X132083Y-94139D01*
X132027Y-94275D01*
X132027Y-94453D01*
X132038Y-94480D01*
X132011Y-94508D01*
X131988Y-94416D01*
X131797Y-94350D01*
X131594Y-94361D01*
X131461Y-94416D01*
X131438Y-94508D01*
X131725Y-94794D01*
X131730Y-94788D01*
X131801Y-94859D01*
X131795Y-94865D01*
X132081Y-95151D01*
X132173Y-95128D01*
X132239Y-94937D01*
X132229Y-94747D01*
X132385Y-94812D01*
X132563Y-94812D01*
X132728Y-94744D01*
X132854Y-94618D01*
X132922Y-94454D01*
X132922Y-94302D01*
X133747Y-93477D01*
X133747Y-93477D01*
X133787Y-93418D01*
X133807Y-93389D01*
X133807Y-93389D01*
X133827Y-93285D01*
X133827Y-93285D01*
X133827Y-92720D01*
X133830Y-92718D01*
X133968Y-92581D01*
X134042Y-92402D01*
X134042Y-92208D01*
X133968Y-92029D01*
X133831Y-91891D01*
X133652Y-91817D01*
X133458Y-91817D01*
X133279Y-91891D01*
X133141Y-92028D01*
X133067Y-92207D01*
X133067Y-92401D01*
X133141Y-92580D01*
X133278Y-92718D01*
X133282Y-92719D01*
X133282Y-93172D01*
X132536Y-93917D01*
X132386Y-93917D01*
X132221Y-93985D01*
X132116Y-94090D01*
X132172Y-93954D01*
X132172Y-93776D01*
X132104Y-93611D01*
X131997Y-93504D01*
X131997Y-92862D01*
X132572Y-92287D01*
X132632Y-92199D01*
X132632Y-92199D01*
X132652Y-92095D01*
X132652Y-90262D01*
X132717Y-90262D01*
X132786Y-90234D01*
X132839Y-90181D01*
X132867Y-90112D01*
X132867Y-90037D01*
X132867Y-89437D01*
X132839Y-89368D01*
X132786Y-89315D01*
X132717Y-89287D01*
X132642Y-89287D01*
X132042Y-89287D01*
X131973Y-89315D01*
X131920Y-89368D01*
X131892Y-89437D01*
X131892Y-89512D01*
X131892Y-90112D01*
X131920Y-90181D01*
X131973Y-90234D01*
X132042Y-90262D01*
X132107Y-90262D01*
X132107Y-91982D01*
X131532Y-92557D01*
X131472Y-92645D01*
X131452Y-92750D01*
X131452Y-93504D01*
X131345Y-93611D01*
X131325Y-93658D01*
X131318Y-93663D01*
X131267Y-93697D01*
X130732Y-94232D01*
X130681Y-94309D01*
X130662Y-94400D01*
X130662Y-97750D01*
X130681Y-97840D01*
X130732Y-97917D01*
X134032Y-101217D01*
X134109Y-101268D01*
X134200Y-101287D01*
X140962Y-101287D01*
X140962Y-101387D01*
X140990Y-101456D01*
X141043Y-101509D01*
X141112Y-101537D01*
X141187Y-101537D01*
X141787Y-101537D01*
X141856Y-101509D01*
X141909Y-101456D01*
X141937Y-101387D01*
X141937Y-101312D01*
X141937Y-101263D01*
X141968Y-101337D01*
X142064Y-101365D01*
X142379Y-101050D01*
X142379Y-101191D01*
X142134Y-101435D01*
X142162Y-101531D01*
X142368Y-101604D01*
X142586Y-101593D01*
X142737Y-101531D01*
X142765Y-101435D01*
X142765Y-102214D01*
X142737Y-102118D01*
X142531Y-102045D01*
X142313Y-102056D01*
X142162Y-102118D01*
X142134Y-102214D01*
X142450Y-102529D01*
X142765Y-102214D01*
X142765Y-102355D01*
X142520Y-102600D01*
X142835Y-102915D01*
X142931Y-102887D01*
X143004Y-102681D01*
X143004Y-104968D01*
X142981Y-104912D01*
X142885Y-104884D01*
X142815Y-104955D01*
X142815Y-104814D01*
X142787Y-104718D01*
X142765Y-104710D01*
X142765Y-102985D01*
X142450Y-102670D01*
X142134Y-102985D01*
X142162Y-103081D01*
X142368Y-103154D01*
X142586Y-103143D01*
X142737Y-103081D01*
X142765Y-102985D01*
X142765Y-104710D01*
X142581Y-104645D01*
X142363Y-104656D01*
X142212Y-104718D01*
X142184Y-104814D01*
X142500Y-105129D01*
X142815Y-104814D01*
X142815Y-104955D01*
X142570Y-105200D01*
X142885Y-105515D01*
X142981Y-105487D01*
X143054Y-105281D01*
X143054Y-108231D01*
X143043Y-108013D01*
X142981Y-107862D01*
X142885Y-107834D01*
X142815Y-107905D01*
X142815Y-107764D01*
X142815Y-105585D01*
X142500Y-105270D01*
X142429Y-105341D01*
X142429Y-105200D01*
X142114Y-104884D01*
X142018Y-104912D01*
X141987Y-104998D01*
X141987Y-104862D01*
X141959Y-104793D01*
X141906Y-104740D01*
X141837Y-104712D01*
X141762Y-104712D01*
X141162Y-104712D01*
X141093Y-104740D01*
X141040Y-104793D01*
X141012Y-104862D01*
X141012Y-104937D01*
X141012Y-105537D01*
X141040Y-105606D01*
X141093Y-105659D01*
X141162Y-105687D01*
X141237Y-105687D01*
X141837Y-105687D01*
X141906Y-105659D01*
X141959Y-105606D01*
X141987Y-105537D01*
X141987Y-105462D01*
X141987Y-105413D01*
X142018Y-105487D01*
X142114Y-105515D01*
X142429Y-105200D01*
X142429Y-105341D01*
X142184Y-105585D01*
X142212Y-105681D01*
X142418Y-105754D01*
X142636Y-105743D01*
X142787Y-105681D01*
X142815Y-105585D01*
X142815Y-107764D01*
X142787Y-107668D01*
X142581Y-107595D01*
X142363Y-107606D01*
X142212Y-107668D01*
X142184Y-107764D01*
X142500Y-108079D01*
X142815Y-107764D01*
X142815Y-107905D01*
X142570Y-108150D01*
X142885Y-108465D01*
X142981Y-108437D01*
X143054Y-108231D01*
X143054Y-110481D01*
X143043Y-110263D01*
X142981Y-110112D01*
X142885Y-110084D01*
X142815Y-110155D01*
X142815Y-110014D01*
X142815Y-108535D01*
X142500Y-108220D01*
X142429Y-108291D01*
X142429Y-108150D01*
X142114Y-107834D01*
X142018Y-107862D01*
X141987Y-107948D01*
X141987Y-107812D01*
X141959Y-107743D01*
X141906Y-107690D01*
X141837Y-107662D01*
X141762Y-107662D01*
X141162Y-107662D01*
X141093Y-107690D01*
X141040Y-107743D01*
X141012Y-107812D01*
X141012Y-107887D01*
X141012Y-108487D01*
X141040Y-108556D01*
X141093Y-108609D01*
X141162Y-108637D01*
X141237Y-108637D01*
X141837Y-108637D01*
X141906Y-108609D01*
X141959Y-108556D01*
X141987Y-108487D01*
X141987Y-108412D01*
X141987Y-108363D01*
X142018Y-108437D01*
X142114Y-108465D01*
X142429Y-108150D01*
X142429Y-108291D01*
X142184Y-108535D01*
X142212Y-108631D01*
X142418Y-108704D01*
X142636Y-108693D01*
X142787Y-108631D01*
X142815Y-108535D01*
X142815Y-110014D01*
X142787Y-109918D01*
X142581Y-109845D01*
X142363Y-109856D01*
X142212Y-109918D01*
X142184Y-110014D01*
X142500Y-110329D01*
X142815Y-110014D01*
X142815Y-110155D01*
X142570Y-110400D01*
X142885Y-110715D01*
X142981Y-110687D01*
X143054Y-110481D01*
X143054Y-113037D01*
X142815Y-113037D01*
X142815Y-110785D01*
X142500Y-110470D01*
X142429Y-110541D01*
X142429Y-110400D01*
X142114Y-110084D01*
X142018Y-110112D01*
X141987Y-110198D01*
X141987Y-110062D01*
X141959Y-109993D01*
X141906Y-109940D01*
X141837Y-109912D01*
X141762Y-109912D01*
X141162Y-109912D01*
X141093Y-109940D01*
X141040Y-109993D01*
X141012Y-110062D01*
X141012Y-110137D01*
X141012Y-110737D01*
X141040Y-110806D01*
X141093Y-110859D01*
X141162Y-110887D01*
X141237Y-110887D01*
X141837Y-110887D01*
X141906Y-110859D01*
X141959Y-110806D01*
X141987Y-110737D01*
X141987Y-110662D01*
X141987Y-110613D01*
X142018Y-110687D01*
X142114Y-110715D01*
X142429Y-110400D01*
X142429Y-110541D01*
X142184Y-110785D01*
X142212Y-110881D01*
X142418Y-110954D01*
X142636Y-110943D01*
X142787Y-110881D01*
X142815Y-110785D01*
X142815Y-113037D01*
X136654Y-113037D01*
X136654Y-111051D01*
X136643Y-110833D01*
X136581Y-110682D01*
X136485Y-110654D01*
X136415Y-110725D01*
X136415Y-110584D01*
X136387Y-110488D01*
X136181Y-110415D01*
X135963Y-110426D01*
X135812Y-110488D01*
X135784Y-110584D01*
X136100Y-110899D01*
X136415Y-110584D01*
X136415Y-110725D01*
X136170Y-110970D01*
X136485Y-111285D01*
X136581Y-111257D01*
X136654Y-111051D01*
X136654Y-113037D01*
X136614Y-113037D01*
X136468Y-112295D01*
X136468Y-112291D01*
X136428Y-112196D01*
X135966Y-111506D01*
X136018Y-111524D01*
X136236Y-111513D01*
X136387Y-111451D01*
X136415Y-111355D01*
X136100Y-111040D01*
X136094Y-111046D01*
X136023Y-110975D01*
X136029Y-110970D01*
X135714Y-110654D01*
X135618Y-110682D01*
X135545Y-110888D01*
X135556Y-111106D01*
X135576Y-111155D01*
X135005Y-110773D01*
X135002Y-110770D01*
X134907Y-110731D01*
X134650Y-110680D01*
X134650Y-109350D01*
X135067Y-109350D01*
X134953Y-109397D01*
X134822Y-109527D01*
X134752Y-109697D01*
X134752Y-109881D01*
X134822Y-110051D01*
X134952Y-110182D01*
X135122Y-110252D01*
X135306Y-110252D01*
X135476Y-110182D01*
X135553Y-110105D01*
X135579Y-110105D01*
X135580Y-110105D01*
X135580Y-110105D01*
X135700Y-110081D01*
X135803Y-110013D01*
X136323Y-109493D01*
X136323Y-109493D01*
X136323Y-109493D01*
X136391Y-109390D01*
X136415Y-109270D01*
X136415Y-107344D01*
X136513Y-107246D01*
X136587Y-107067D01*
X136587Y-106873D01*
X136513Y-106694D01*
X136376Y-106556D01*
X136197Y-106482D01*
X136003Y-106482D01*
X135824Y-106556D01*
X135686Y-106693D01*
X135612Y-106872D01*
X135612Y-107066D01*
X135686Y-107245D01*
X135784Y-107344D01*
X135784Y-107513D01*
X134720Y-106450D01*
X132720Y-106450D01*
X131720Y-105450D01*
X130850Y-105450D01*
X130850Y-100779D01*
X127420Y-97350D01*
X126250Y-97350D01*
X126250Y-97337D01*
X128351Y-97337D01*
X133782Y-102767D01*
X133782Y-102767D01*
X133859Y-102818D01*
X133859Y-102818D01*
X133874Y-102821D01*
X133950Y-102837D01*
X140962Y-102837D01*
X140962Y-102937D01*
X140990Y-103006D01*
X141043Y-103059D01*
X141112Y-103087D01*
X141187Y-103087D01*
X141787Y-103087D01*
X141856Y-103059D01*
X141909Y-103006D01*
X141937Y-102937D01*
X141937Y-102862D01*
X141937Y-102813D01*
X141968Y-102887D01*
X142064Y-102915D01*
X142379Y-102600D01*
X142064Y-102284D01*
X141968Y-102312D01*
X141937Y-102398D01*
X141937Y-102262D01*
X141909Y-102193D01*
X141856Y-102140D01*
X141787Y-102112D01*
X141712Y-102112D01*
X141112Y-102112D01*
X141043Y-102140D01*
X140990Y-102193D01*
X140962Y-102262D01*
X140962Y-102337D01*
X140962Y-102362D01*
X134048Y-102362D01*
X128617Y-96932D01*
X128540Y-96881D01*
X128450Y-96862D01*
X126250Y-96862D01*
X126250Y-95320D01*
X131050Y-90520D01*
X131050Y-90134D01*
X131103Y-90188D01*
X131282Y-90262D01*
X131476Y-90262D01*
X131655Y-90188D01*
X131793Y-90051D01*
X131867Y-89872D01*
X131867Y-89678D01*
X131793Y-89499D01*
X131656Y-89361D01*
X131477Y-89287D01*
X131283Y-89287D01*
X131104Y-89361D01*
X131050Y-89415D01*
X131050Y-83662D01*
X131184Y-83662D01*
X131331Y-84407D01*
X131370Y-84502D01*
X131373Y-84505D01*
X131911Y-85309D01*
X131913Y-85313D01*
X131986Y-85386D01*
X132796Y-85928D01*
X132891Y-85968D01*
X132895Y-85968D01*
X133844Y-86156D01*
X133848Y-86157D01*
X133951Y-86157D01*
X134907Y-85968D01*
X135002Y-85929D01*
X135005Y-85926D01*
X135809Y-85388D01*
X135813Y-85386D01*
X135886Y-85313D01*
X136428Y-84503D01*
X136468Y-84408D01*
X136468Y-84404D01*
X136614Y-83662D01*
X147741Y-83662D01*
X149387Y-85308D01*
X149387Y-111391D01*
G54D10*
G36*
X128400Y-112500D02*
X127600Y-112500D01*
X127600Y-111400D01*
X127000Y-111400D01*
X127000Y-110300D01*
X126100Y-110300D01*
X126100Y-111250D01*
X125000Y-111250D01*
X125000Y-110550D01*
X124200Y-110550D01*
X124200Y-110120D01*
X125000Y-109320D01*
X125000Y-108400D01*
X125100Y-108400D01*
X125100Y-109450D01*
X126900Y-109450D01*
X126900Y-109087D01*
X126904Y-109075D01*
X126904Y-109016D01*
X126904Y-108450D01*
X127368Y-108450D01*
X128168Y-107750D01*
X128400Y-107750D01*
X128400Y-108900D01*
X128400Y-112500D01*
X128400Y-112500D01*
G37*
G54D39*
X128400Y-112500D02*
X127600Y-112500D01*
X127600Y-111400D01*
X127000Y-111400D01*
X127000Y-110300D01*
X126100Y-110300D01*
X126100Y-111250D01*
X125000Y-111250D01*
X125000Y-110550D01*
X124200Y-110550D01*
X124200Y-110120D01*
X125000Y-109320D01*
X125000Y-108400D01*
X125100Y-108400D01*
X125100Y-109450D01*
X126900Y-109450D01*
X126900Y-109087D01*
X126904Y-109075D01*
X126904Y-109016D01*
X126904Y-108450D01*
X127368Y-108450D01*
X128168Y-107750D01*
X128400Y-107750D01*
X128400Y-108900D01*
X128400Y-112500D01*
G54D10*
G36*
X126150Y-108303D02*
X126147Y-108308D01*
X126147Y-108383D01*
X126147Y-108750D01*
X125410Y-108750D01*
X125410Y-108308D01*
X125400Y-108283D01*
X125400Y-107350D01*
X125400Y-105900D01*
X124550Y-105900D01*
X124550Y-105200D01*
X126150Y-105200D01*
X126150Y-107450D01*
X126150Y-108303D01*
X126150Y-108303D01*
G37*
G54D39*
X126150Y-108303D02*
X126147Y-108308D01*
X126147Y-108383D01*
X126147Y-108750D01*
X125410Y-108750D01*
X125410Y-108308D01*
X125400Y-108283D01*
X125400Y-107350D01*
X125400Y-105900D01*
X124550Y-105900D01*
X124550Y-105200D01*
X126150Y-105200D01*
X126150Y-107450D01*
X126150Y-108303D01*
M02*
