G04 (created by PCBNEW (2013-07-07 BZR 4022)-stable) date 10/17/2015 1:36:39 PM*
%MOIN*%
G04 Gerber Fmt 3.4, Leading zero omitted, Abs format*
%FSLAX34Y34*%
G01*
G70*
G90*
G04 APERTURE LIST*
%ADD10C,0.00590551*%
%ADD11R,0.06X0.06*%
%ADD12C,0.06*%
%ADD13R,0.055X0.055*%
%ADD14C,0.055*%
%ADD15C,0.07*%
%ADD16R,0.07X0.07*%
%ADD17R,0.35X0.35*%
%ADD18C,0.3543*%
%ADD19C,0.063*%
%ADD20C,0.052*%
%ADD21C,0.0984*%
%ADD22O,0.0885X0.177*%
%ADD23O,0.189X0.0945*%
%ADD24C,0.106299*%
%ADD25R,0.0587X0.0587*%
%ADD26C,0.0587*%
%ADD27C,0.0984252*%
%ADD28C,0.056*%
%ADD29C,0.035*%
%ADD30C,0.0629921*%
%ADD31C,0.00984252*%
%ADD32C,0.0255906*%
%ADD33C,0.0295276*%
%ADD34C,0.0149606*%
%ADD35C,0.00866142*%
G04 APERTURE END LIST*
G54D10*
G54D11*
X119600Y-101800D03*
G54D12*
X119600Y-100800D03*
X120600Y-101800D03*
X120600Y-100800D03*
X121600Y-101800D03*
X121600Y-100800D03*
X122600Y-101800D03*
X122600Y-100800D03*
X123600Y-101800D03*
X123600Y-100800D03*
X124600Y-101800D03*
X124600Y-100800D03*
X125600Y-101800D03*
X125600Y-100800D03*
X126600Y-101800D03*
X126600Y-100800D03*
X127600Y-101800D03*
X127600Y-100800D03*
X128600Y-101800D03*
X128600Y-100800D03*
X129950Y-86050D03*
X125950Y-86050D03*
X123900Y-88850D03*
X123900Y-84850D03*
X125950Y-87000D03*
X129950Y-87000D03*
X119000Y-85850D03*
X123000Y-85850D03*
X123000Y-84900D03*
X119000Y-84900D03*
X119700Y-95050D03*
X123700Y-95050D03*
X119700Y-94100D03*
X123700Y-94100D03*
X129900Y-88850D03*
X125900Y-88850D03*
X118900Y-91050D03*
X122900Y-91050D03*
X122900Y-91950D03*
X118900Y-91950D03*
X125900Y-89750D03*
X129900Y-89750D03*
G54D11*
X121550Y-96100D03*
G54D12*
X121550Y-97100D03*
X120550Y-96100D03*
X120550Y-97100D03*
X138140Y-106480D03*
X142140Y-106480D03*
X131360Y-106945D03*
X131360Y-110945D03*
X136100Y-110970D03*
X136100Y-106970D03*
X137040Y-106975D03*
X137040Y-110975D03*
X138020Y-110960D03*
X142020Y-110960D03*
X142120Y-105320D03*
X138120Y-105320D03*
G54D13*
X132215Y-107790D03*
G54D14*
X132215Y-108790D03*
X132215Y-109790D03*
X135215Y-109790D03*
X135215Y-108790D03*
X135215Y-107790D03*
G54D13*
X120300Y-93000D03*
G54D14*
X121300Y-93000D03*
X122300Y-93000D03*
G54D13*
X125950Y-92950D03*
G54D14*
X125950Y-91950D03*
X125950Y-90950D03*
G54D15*
X139520Y-102030D03*
G54D16*
X139520Y-104030D03*
G54D15*
X139520Y-103030D03*
G54D17*
X133020Y-103030D03*
G54D18*
X131520Y-124800D03*
X131440Y-130480D03*
X136650Y-130650D03*
X136550Y-124900D03*
X142100Y-130350D03*
X142300Y-125100D03*
G54D19*
X125000Y-88850D03*
X125000Y-84850D03*
G54D14*
X127000Y-90700D03*
X129000Y-90700D03*
X126950Y-87950D03*
X128950Y-87950D03*
G54D20*
X124360Y-89830D03*
X125110Y-90330D03*
X124360Y-90830D03*
X124650Y-93000D03*
X123900Y-92500D03*
X124650Y-92000D03*
G54D19*
X142020Y-112040D03*
X138020Y-112040D03*
G54D14*
X141880Y-108780D03*
X139880Y-108780D03*
G54D21*
X124500Y-107300D03*
X119106Y-107300D03*
X124894Y-112615D03*
X118713Y-112615D03*
G54D14*
X138700Y-109660D03*
X138700Y-107660D03*
X141880Y-109740D03*
X139880Y-109740D03*
G54D13*
X122800Y-89930D03*
G54D14*
X122800Y-88930D03*
X122800Y-87930D03*
X122800Y-86930D03*
X119800Y-86930D03*
X119800Y-87930D03*
X119800Y-88930D03*
X119800Y-89930D03*
X141880Y-107640D03*
X139880Y-107640D03*
G54D19*
X142807Y-103620D03*
X148712Y-103620D03*
X148722Y-102380D03*
X142817Y-102380D03*
X148717Y-101210D03*
X142812Y-101210D03*
G54D12*
X137050Y-86850D03*
X133050Y-86850D03*
X136900Y-99600D03*
X136900Y-95600D03*
X137800Y-95600D03*
X141800Y-95600D03*
X137050Y-87800D03*
X133050Y-87800D03*
G54D13*
X133600Y-91750D03*
G54D14*
X134600Y-91750D03*
X135600Y-91750D03*
X136600Y-91750D03*
X136600Y-88750D03*
X135600Y-88750D03*
X134600Y-88750D03*
X133600Y-88750D03*
G54D13*
X132900Y-98350D03*
G54D14*
X131900Y-98350D03*
X130900Y-98350D03*
G54D22*
X143500Y-97100D03*
X139100Y-97100D03*
G54D23*
X135000Y-95200D03*
X135000Y-97400D03*
X135000Y-99600D03*
G54D24*
X147851Y-89300D03*
X139348Y-89300D03*
G54D13*
X130250Y-97150D03*
G54D14*
X131250Y-97150D03*
X132250Y-97150D03*
X133250Y-97150D03*
X133250Y-94150D03*
X132250Y-94150D03*
X131250Y-94150D03*
X130250Y-94150D03*
G54D25*
X137544Y-93100D03*
G54D26*
X136756Y-93100D03*
G54D25*
X134544Y-93100D03*
G54D26*
X133756Y-93100D03*
G54D25*
X145506Y-97150D03*
G54D26*
X146294Y-97150D03*
G54D27*
X127056Y-98650D03*
X128750Y-98650D03*
X139565Y-99115D03*
X139565Y-100415D03*
X140815Y-100415D03*
G54D24*
X140815Y-99165D03*
X138265Y-99115D03*
G54D27*
X138265Y-100415D03*
X128643Y-84700D03*
X126950Y-84700D03*
X144740Y-99500D03*
X142390Y-98950D03*
X143390Y-99800D03*
G54D12*
X132600Y-105790D03*
X137100Y-105790D03*
G54D27*
X145923Y-104930D03*
X143502Y-104930D03*
X148120Y-98858D03*
X148120Y-97165D03*
G54D28*
X143095Y-107450D03*
X148804Y-107450D03*
X143105Y-111250D03*
X148814Y-111250D03*
G54D29*
X125700Y-106550D03*
X121300Y-106970D03*
X129800Y-102050D03*
X130150Y-106400D03*
X120020Y-108550D03*
X120405Y-111770D03*
X127960Y-105205D03*
X129360Y-107425D03*
G54D30*
X120600Y-100800D02*
X120600Y-100150D01*
X126256Y-99450D02*
X127056Y-98650D01*
X121300Y-99450D02*
X126256Y-99450D01*
X120600Y-100150D02*
X121300Y-99450D01*
X120600Y-102450D02*
X123200Y-105050D01*
X123200Y-105050D02*
X124800Y-105050D01*
X124800Y-105050D02*
X125700Y-105950D01*
X125700Y-105950D02*
X125700Y-106550D01*
X120600Y-102450D02*
X120600Y-101800D01*
X120600Y-100800D02*
X120600Y-101800D01*
X119600Y-101800D02*
X120600Y-101800D01*
X120600Y-100800D02*
X119600Y-100800D01*
G54D31*
X122630Y-108300D02*
X122665Y-108300D01*
X121300Y-106970D02*
X122630Y-108300D01*
X122665Y-108300D02*
X122900Y-108300D01*
X122900Y-108300D02*
X124100Y-108300D01*
X131705Y-108300D02*
X132215Y-107790D01*
X124100Y-108300D02*
X131705Y-108300D01*
G54D32*
X137050Y-87800D02*
X134550Y-87800D01*
X134550Y-87800D02*
X133600Y-88750D01*
X130250Y-94150D02*
X131850Y-92550D01*
X132750Y-89600D02*
X133600Y-88750D01*
X132750Y-91650D02*
X132750Y-89600D01*
X131850Y-92550D02*
X132750Y-91650D01*
X130900Y-98350D02*
X130250Y-98350D01*
X129600Y-94800D02*
X130250Y-94150D01*
X129600Y-97700D02*
X129600Y-94800D01*
X130250Y-98350D02*
X129600Y-97700D01*
G54D33*
X125950Y-90950D02*
X125950Y-90750D01*
X126800Y-86050D02*
X125950Y-86050D01*
X127650Y-86900D02*
X126800Y-86050D01*
X127650Y-89050D02*
X127650Y-86900D01*
X125950Y-90750D02*
X127650Y-89050D01*
X125000Y-84850D02*
X125050Y-84850D01*
X125950Y-85750D02*
X125950Y-86050D01*
X125050Y-84850D02*
X125950Y-85750D01*
X123900Y-84850D02*
X125000Y-84850D01*
X119800Y-89930D02*
X119800Y-91450D01*
X119300Y-91950D02*
X118900Y-91950D01*
X119800Y-91450D02*
X119300Y-91950D01*
X123900Y-84850D02*
X123050Y-84850D01*
X123050Y-84850D02*
X123000Y-84900D01*
G54D31*
X128600Y-101800D02*
X129550Y-101800D01*
X129550Y-101800D02*
X129800Y-102050D01*
X129360Y-107425D02*
X129360Y-107190D01*
X129360Y-107190D02*
X130150Y-106400D01*
X124650Y-92000D02*
X125000Y-92000D01*
X125000Y-92000D02*
X125950Y-92950D01*
X120085Y-111450D02*
X120405Y-111770D01*
X120085Y-108615D02*
X120085Y-111450D01*
X120020Y-108550D02*
X120085Y-108615D01*
X127960Y-106025D02*
X127960Y-105205D01*
X129360Y-107425D02*
X127960Y-106025D01*
G54D34*
X142812Y-101210D02*
X139060Y-101210D01*
X139060Y-101210D02*
X138265Y-100415D01*
G54D31*
X136756Y-93100D02*
X136756Y-93601D01*
X137685Y-94530D02*
X139950Y-94530D01*
X136756Y-93601D02*
X137685Y-94530D01*
X146294Y-97150D02*
X146294Y-96164D01*
X146294Y-96164D02*
X144660Y-94530D01*
X144660Y-94530D02*
X139950Y-94530D01*
X136900Y-97580D02*
X136900Y-99600D01*
X139950Y-94530D02*
X136900Y-97580D01*
X142812Y-101210D02*
X147500Y-101210D01*
X148980Y-98025D02*
X148120Y-97165D01*
X148980Y-99730D02*
X148980Y-98025D01*
X147500Y-101210D02*
X148980Y-99730D01*
X122800Y-86930D02*
X122930Y-86930D01*
X123400Y-89870D02*
X124360Y-90830D01*
X123400Y-87400D02*
X123400Y-89870D01*
X122930Y-86930D02*
X123400Y-87400D01*
X126950Y-84700D02*
X126300Y-84700D01*
X122000Y-84850D02*
X123000Y-85850D01*
X122000Y-84250D02*
X122000Y-84850D01*
X122200Y-84050D02*
X122000Y-84250D01*
X125650Y-84050D02*
X122200Y-84050D01*
X126300Y-84700D02*
X125650Y-84050D01*
X123000Y-85850D02*
X123000Y-86730D01*
X123000Y-86730D02*
X122800Y-86930D01*
X142807Y-103620D02*
X142807Y-105572D01*
X139880Y-106790D02*
X139880Y-107640D01*
X140790Y-105880D02*
X139880Y-106790D01*
X142500Y-105880D02*
X140790Y-105880D01*
X142807Y-105572D02*
X142500Y-105880D01*
X142807Y-103620D02*
X143570Y-103620D01*
X143570Y-103620D02*
X143715Y-103475D01*
X143715Y-102972D02*
X143715Y-103475D01*
X142812Y-101367D02*
X143715Y-102270D01*
X143715Y-102270D02*
X143715Y-102972D01*
X142812Y-101210D02*
X142812Y-101367D01*
X131360Y-110945D02*
X132005Y-110945D01*
X135600Y-110970D02*
X136100Y-110970D01*
X134880Y-110250D02*
X135600Y-110970D01*
X132700Y-110250D02*
X134880Y-110250D01*
X132005Y-110945D02*
X132700Y-110250D01*
X136100Y-110970D02*
X136100Y-110520D01*
X138700Y-107920D02*
X138700Y-107660D01*
X136100Y-110520D02*
X138700Y-107920D01*
X138700Y-107660D02*
X139860Y-107660D01*
X139860Y-107660D02*
X139880Y-107640D01*
X139880Y-108780D02*
X140430Y-108780D01*
X140430Y-108780D02*
X140930Y-109280D01*
X140930Y-109280D02*
X140930Y-110950D01*
X140930Y-110950D02*
X142020Y-112040D01*
X139880Y-107640D02*
X139880Y-108780D01*
G54D34*
X119700Y-95050D02*
X120000Y-95050D01*
X120550Y-95600D02*
X120550Y-96100D01*
X120000Y-95050D02*
X120550Y-95600D01*
X119700Y-95050D02*
X119450Y-95050D01*
X120080Y-88930D02*
X119800Y-88930D01*
X120600Y-89450D02*
X120080Y-88930D01*
X120600Y-91600D02*
X120600Y-89450D01*
X119000Y-93200D02*
X120600Y-91600D01*
X119000Y-94600D02*
X119000Y-93200D01*
X119450Y-95050D02*
X119000Y-94600D01*
G54D32*
X136600Y-91750D02*
X136600Y-91900D01*
X130250Y-96700D02*
X130250Y-97150D01*
X131000Y-95950D02*
X130250Y-96700D01*
X132450Y-95950D02*
X131000Y-95950D01*
X134400Y-94000D02*
X132450Y-95950D01*
X134950Y-94000D02*
X134400Y-94000D01*
X135450Y-93500D02*
X134950Y-94000D01*
X135450Y-93050D02*
X135450Y-93500D01*
X136600Y-91900D02*
X135450Y-93050D01*
G54D34*
X123700Y-95050D02*
X123700Y-94100D01*
X119800Y-87930D02*
X120980Y-87930D01*
X123700Y-93600D02*
X123700Y-94100D01*
X122050Y-91950D02*
X123700Y-93600D01*
X122050Y-89000D02*
X122050Y-91950D01*
X120980Y-87930D02*
X122050Y-89000D01*
G54D33*
X119000Y-85850D02*
X119000Y-86130D01*
X119000Y-86130D02*
X119800Y-86930D01*
X119000Y-84900D02*
X119000Y-85850D01*
X134600Y-91750D02*
X134600Y-93044D01*
X134600Y-93044D02*
X134544Y-93100D01*
X135600Y-88750D02*
X135600Y-89500D01*
X134600Y-90500D02*
X134600Y-91750D01*
X135600Y-89500D02*
X134600Y-90500D01*
X136600Y-88750D02*
X136600Y-88900D01*
X137544Y-89844D02*
X137544Y-93100D01*
X136600Y-88900D02*
X137544Y-89844D01*
G54D10*
G36*
X133606Y-110638D02*
X132904Y-110777D01*
X132900Y-110777D01*
X132822Y-110809D01*
X132631Y-110936D01*
X132631Y-109707D01*
X132631Y-108707D01*
X132631Y-108707D01*
X132631Y-108036D01*
X132631Y-107486D01*
X132610Y-107434D01*
X132570Y-107394D01*
X132518Y-107373D01*
X132461Y-107373D01*
X131911Y-107373D01*
X131859Y-107394D01*
X131819Y-107434D01*
X131801Y-107478D01*
X131801Y-106857D01*
X131734Y-106695D01*
X131610Y-106570D01*
X131448Y-106503D01*
X131272Y-106503D01*
X131110Y-106570D01*
X130985Y-106694D01*
X130918Y-106856D01*
X130918Y-107032D01*
X130985Y-107194D01*
X131109Y-107319D01*
X131271Y-107386D01*
X131447Y-107386D01*
X131609Y-107319D01*
X131734Y-107195D01*
X131801Y-107033D01*
X131801Y-106857D01*
X131801Y-107478D01*
X131798Y-107486D01*
X131798Y-107543D01*
X131798Y-107936D01*
X131625Y-108109D01*
X129149Y-108109D01*
X129149Y-101873D01*
X129149Y-100873D01*
X129135Y-100657D01*
X129079Y-100521D01*
X128986Y-100493D01*
X128906Y-100573D01*
X128906Y-100413D01*
X128878Y-100320D01*
X128673Y-100250D01*
X128457Y-100264D01*
X128321Y-100320D01*
X128293Y-100413D01*
X128600Y-100719D01*
X128906Y-100413D01*
X128906Y-100573D01*
X128680Y-100800D01*
X128986Y-101106D01*
X129079Y-101078D01*
X129149Y-100873D01*
X129149Y-101873D01*
X129135Y-101657D01*
X129079Y-101521D01*
X128986Y-101493D01*
X128906Y-101573D01*
X128906Y-101413D01*
X128878Y-101320D01*
X128822Y-101301D01*
X128878Y-101279D01*
X128906Y-101186D01*
X128600Y-100880D01*
X128519Y-100960D01*
X128519Y-100800D01*
X128213Y-100493D01*
X128120Y-100521D01*
X128050Y-100726D01*
X128064Y-100942D01*
X128120Y-101078D01*
X128213Y-101106D01*
X128519Y-100800D01*
X128519Y-100960D01*
X128293Y-101186D01*
X128321Y-101279D01*
X128377Y-101298D01*
X128321Y-101320D01*
X128293Y-101413D01*
X128600Y-101719D01*
X128906Y-101413D01*
X128906Y-101573D01*
X128680Y-101800D01*
X128986Y-102106D01*
X129079Y-102078D01*
X129149Y-101873D01*
X129149Y-108109D01*
X128906Y-108109D01*
X128906Y-102186D01*
X128600Y-101880D01*
X128519Y-101960D01*
X128519Y-101800D01*
X128213Y-101493D01*
X128120Y-101521D01*
X128050Y-101726D01*
X128064Y-101942D01*
X128120Y-102078D01*
X128213Y-102106D01*
X128519Y-101800D01*
X128519Y-101960D01*
X128293Y-102186D01*
X128321Y-102279D01*
X128526Y-102349D01*
X128742Y-102335D01*
X128878Y-102279D01*
X128906Y-102186D01*
X128906Y-108109D01*
X128041Y-108109D01*
X128041Y-101712D01*
X128041Y-100712D01*
X127974Y-100550D01*
X127850Y-100425D01*
X127688Y-100358D01*
X127512Y-100358D01*
X127350Y-100425D01*
X127225Y-100549D01*
X127158Y-100711D01*
X127158Y-100887D01*
X127225Y-101049D01*
X127349Y-101174D01*
X127511Y-101241D01*
X127687Y-101241D01*
X127849Y-101174D01*
X127974Y-101050D01*
X128041Y-100888D01*
X128041Y-100712D01*
X128041Y-101712D01*
X127974Y-101550D01*
X127850Y-101425D01*
X127688Y-101358D01*
X127512Y-101358D01*
X127350Y-101425D01*
X127225Y-101549D01*
X127158Y-101711D01*
X127158Y-101887D01*
X127225Y-102049D01*
X127349Y-102174D01*
X127511Y-102241D01*
X127687Y-102241D01*
X127849Y-102174D01*
X127974Y-102050D01*
X128041Y-101888D01*
X128041Y-101712D01*
X128041Y-108109D01*
X127041Y-108109D01*
X127041Y-101712D01*
X127041Y-100712D01*
X126974Y-100550D01*
X126850Y-100425D01*
X126688Y-100358D01*
X126512Y-100358D01*
X126350Y-100425D01*
X126225Y-100549D01*
X126158Y-100711D01*
X126158Y-100887D01*
X126225Y-101049D01*
X126349Y-101174D01*
X126511Y-101241D01*
X126687Y-101241D01*
X126849Y-101174D01*
X126974Y-101050D01*
X127041Y-100888D01*
X127041Y-100712D01*
X127041Y-101712D01*
X126974Y-101550D01*
X126850Y-101425D01*
X126688Y-101358D01*
X126512Y-101358D01*
X126350Y-101425D01*
X126225Y-101549D01*
X126158Y-101711D01*
X126158Y-101887D01*
X126225Y-102049D01*
X126349Y-102174D01*
X126511Y-102241D01*
X126687Y-102241D01*
X126849Y-102174D01*
X126974Y-102050D01*
X127041Y-101888D01*
X127041Y-101712D01*
X127041Y-108109D01*
X125133Y-108109D01*
X125133Y-107174D01*
X125037Y-106941D01*
X124859Y-106763D01*
X124626Y-106666D01*
X124374Y-106666D01*
X124141Y-106762D01*
X123963Y-106940D01*
X123866Y-107173D01*
X123866Y-107425D01*
X123962Y-107658D01*
X124140Y-107836D01*
X124373Y-107933D01*
X124625Y-107933D01*
X124858Y-107837D01*
X125036Y-107659D01*
X125133Y-107426D01*
X125133Y-107174D01*
X125133Y-108109D01*
X124100Y-108109D01*
X122900Y-108109D01*
X122709Y-108109D01*
X121616Y-107016D01*
X121616Y-106907D01*
X121568Y-106790D01*
X121479Y-106701D01*
X121363Y-106653D01*
X121237Y-106653D01*
X121120Y-106701D01*
X121031Y-106790D01*
X120983Y-106906D01*
X120983Y-107032D01*
X121031Y-107149D01*
X121120Y-107238D01*
X121236Y-107286D01*
X121346Y-107286D01*
X122494Y-108435D01*
X122556Y-108476D01*
X122556Y-108476D01*
X122630Y-108490D01*
X122665Y-108490D01*
X122900Y-108490D01*
X124100Y-108490D01*
X131705Y-108490D01*
X131778Y-108476D01*
X131778Y-108476D01*
X131840Y-108435D01*
X132068Y-108206D01*
X132518Y-108206D01*
X132570Y-108185D01*
X132610Y-108145D01*
X132631Y-108093D01*
X132631Y-108036D01*
X132631Y-108707D01*
X132568Y-108554D01*
X132451Y-108436D01*
X132298Y-108373D01*
X132132Y-108373D01*
X131979Y-108436D01*
X131861Y-108553D01*
X131798Y-108706D01*
X131798Y-108872D01*
X131861Y-109025D01*
X131978Y-109143D01*
X132131Y-109206D01*
X132297Y-109206D01*
X132450Y-109143D01*
X132568Y-109026D01*
X132631Y-108873D01*
X132631Y-108707D01*
X132631Y-109707D01*
X132568Y-109554D01*
X132451Y-109436D01*
X132298Y-109373D01*
X132132Y-109373D01*
X131979Y-109436D01*
X131861Y-109553D01*
X131798Y-109706D01*
X131798Y-109872D01*
X131861Y-110025D01*
X131978Y-110143D01*
X132131Y-110206D01*
X132297Y-110206D01*
X132450Y-110143D01*
X132568Y-110026D01*
X132631Y-109873D01*
X132631Y-109707D01*
X132631Y-110936D01*
X132011Y-111352D01*
X131951Y-111411D01*
X131950Y-111415D01*
X131909Y-111477D01*
X131909Y-111018D01*
X131895Y-110802D01*
X131839Y-110666D01*
X131746Y-110638D01*
X131666Y-110718D01*
X131666Y-110558D01*
X131638Y-110465D01*
X131433Y-110395D01*
X131217Y-110409D01*
X131081Y-110465D01*
X131053Y-110558D01*
X131360Y-110864D01*
X131666Y-110558D01*
X131666Y-110718D01*
X131440Y-110945D01*
X131746Y-111251D01*
X131839Y-111223D01*
X131909Y-111018D01*
X131909Y-111477D01*
X131666Y-111840D01*
X131666Y-111331D01*
X131360Y-111025D01*
X131279Y-111105D01*
X131279Y-110945D01*
X130973Y-110638D01*
X130880Y-110666D01*
X130810Y-110871D01*
X130824Y-111087D01*
X130880Y-111223D01*
X130973Y-111251D01*
X131279Y-110945D01*
X131279Y-111105D01*
X131053Y-111331D01*
X131081Y-111424D01*
X131286Y-111494D01*
X131502Y-111480D01*
X131638Y-111424D01*
X131666Y-111331D01*
X131666Y-111840D01*
X131412Y-112219D01*
X131409Y-112222D01*
X131376Y-112301D01*
X131221Y-113083D01*
X125321Y-113083D01*
X125430Y-112974D01*
X125527Y-112741D01*
X125527Y-112489D01*
X125431Y-112256D01*
X125253Y-112078D01*
X125020Y-111981D01*
X124768Y-111981D01*
X124535Y-112077D01*
X124357Y-112255D01*
X124260Y-112488D01*
X124260Y-112740D01*
X124356Y-112973D01*
X124465Y-113083D01*
X119739Y-113083D01*
X119739Y-107174D01*
X119643Y-106941D01*
X119465Y-106763D01*
X119232Y-106666D01*
X118980Y-106666D01*
X118747Y-106762D01*
X118569Y-106940D01*
X118472Y-107173D01*
X118472Y-107425D01*
X118568Y-107658D01*
X118746Y-107836D01*
X118979Y-107933D01*
X119231Y-107933D01*
X119464Y-107837D01*
X119642Y-107659D01*
X119739Y-107426D01*
X119739Y-107174D01*
X119739Y-113083D01*
X119140Y-113083D01*
X119249Y-112974D01*
X119346Y-112741D01*
X119346Y-112489D01*
X119250Y-112256D01*
X119072Y-112078D01*
X118839Y-111981D01*
X118587Y-111981D01*
X118354Y-112077D01*
X118316Y-112115D01*
X118316Y-83616D01*
X130456Y-83616D01*
X130456Y-89732D01*
X130391Y-89796D01*
X130391Y-86912D01*
X130391Y-85962D01*
X130324Y-85800D01*
X130200Y-85675D01*
X130038Y-85608D01*
X129862Y-85608D01*
X129700Y-85675D01*
X129575Y-85799D01*
X129508Y-85961D01*
X129508Y-86137D01*
X129575Y-86299D01*
X129699Y-86424D01*
X129861Y-86491D01*
X130037Y-86491D01*
X130199Y-86424D01*
X130324Y-86300D01*
X130391Y-86138D01*
X130391Y-85962D01*
X130391Y-86912D01*
X130324Y-86750D01*
X130200Y-86625D01*
X130038Y-86558D01*
X129862Y-86558D01*
X129700Y-86625D01*
X129575Y-86749D01*
X129508Y-86911D01*
X129508Y-87087D01*
X129575Y-87249D01*
X129699Y-87374D01*
X129861Y-87441D01*
X130037Y-87441D01*
X130199Y-87374D01*
X130324Y-87250D01*
X130391Y-87088D01*
X130391Y-86912D01*
X130391Y-89796D01*
X130335Y-89853D01*
X130341Y-89838D01*
X130341Y-89662D01*
X130341Y-88762D01*
X130274Y-88600D01*
X130150Y-88475D01*
X129988Y-88408D01*
X129812Y-88408D01*
X129650Y-88475D01*
X129525Y-88599D01*
X129458Y-88761D01*
X129458Y-88937D01*
X129525Y-89099D01*
X129649Y-89224D01*
X129811Y-89291D01*
X129987Y-89291D01*
X130149Y-89224D01*
X130274Y-89100D01*
X130341Y-88938D01*
X130341Y-88762D01*
X130341Y-89662D01*
X130274Y-89500D01*
X130150Y-89375D01*
X129988Y-89308D01*
X129812Y-89308D01*
X129650Y-89375D01*
X129525Y-89499D01*
X129458Y-89661D01*
X129458Y-89837D01*
X129525Y-89999D01*
X129649Y-90124D01*
X129811Y-90191D01*
X129987Y-90191D01*
X130003Y-90185D01*
X129517Y-90671D01*
X129510Y-90561D01*
X129458Y-90437D01*
X129368Y-90411D01*
X129366Y-90413D01*
X129366Y-87867D01*
X129303Y-87714D01*
X129277Y-87688D01*
X129277Y-84574D01*
X129181Y-84341D01*
X129003Y-84162D01*
X128770Y-84066D01*
X128518Y-84066D01*
X128285Y-84162D01*
X128106Y-84340D01*
X128009Y-84573D01*
X128009Y-84825D01*
X128106Y-85058D01*
X128284Y-85237D01*
X128517Y-85333D01*
X128769Y-85333D01*
X129002Y-85237D01*
X129180Y-85059D01*
X129277Y-84826D01*
X129277Y-84574D01*
X129277Y-87688D01*
X129186Y-87596D01*
X129033Y-87533D01*
X128867Y-87533D01*
X128714Y-87596D01*
X128596Y-87713D01*
X128533Y-87866D01*
X128533Y-88032D01*
X128596Y-88185D01*
X128713Y-88303D01*
X128866Y-88366D01*
X129032Y-88366D01*
X129185Y-88303D01*
X129303Y-88186D01*
X129366Y-88033D01*
X129366Y-87867D01*
X129366Y-90413D01*
X129288Y-90492D01*
X129288Y-90331D01*
X129262Y-90241D01*
X129067Y-90175D01*
X128861Y-90189D01*
X128737Y-90241D01*
X128711Y-90331D01*
X129000Y-90619D01*
X129288Y-90331D01*
X129288Y-90492D01*
X129080Y-90700D01*
X129085Y-90705D01*
X129005Y-90785D01*
X129000Y-90780D01*
X128919Y-90860D01*
X128919Y-90700D01*
X128631Y-90411D01*
X128541Y-90437D01*
X128475Y-90632D01*
X128489Y-90838D01*
X128541Y-90962D01*
X128631Y-90988D01*
X128919Y-90700D01*
X128919Y-90860D01*
X128711Y-91068D01*
X128737Y-91158D01*
X128932Y-91224D01*
X128966Y-91221D01*
X127939Y-92249D01*
X127939Y-89050D01*
X127939Y-86900D01*
X127917Y-86789D01*
X127854Y-86695D01*
X127854Y-86695D01*
X127690Y-86531D01*
X127690Y-84819D01*
X127679Y-84527D01*
X127588Y-84306D01*
X127475Y-84254D01*
X127395Y-84334D01*
X127395Y-84174D01*
X127343Y-84061D01*
X127069Y-83959D01*
X126777Y-83970D01*
X126556Y-84061D01*
X126504Y-84174D01*
X126950Y-84619D01*
X127395Y-84174D01*
X127395Y-84334D01*
X127030Y-84700D01*
X127475Y-85145D01*
X127588Y-85093D01*
X127690Y-84819D01*
X127690Y-86531D01*
X127395Y-86236D01*
X127395Y-85225D01*
X126950Y-84780D01*
X126869Y-84860D01*
X126869Y-84700D01*
X126424Y-84254D01*
X126311Y-84306D01*
X126209Y-84580D01*
X126220Y-84872D01*
X126311Y-85093D01*
X126424Y-85145D01*
X126869Y-84700D01*
X126869Y-84860D01*
X126504Y-85225D01*
X126556Y-85338D01*
X126830Y-85440D01*
X127122Y-85429D01*
X127343Y-85338D01*
X127395Y-85225D01*
X127395Y-86236D01*
X127004Y-85845D01*
X126910Y-85782D01*
X126800Y-85760D01*
X126285Y-85760D01*
X126230Y-85705D01*
X126230Y-85705D01*
X126217Y-85639D01*
X126154Y-85545D01*
X126154Y-85545D01*
X125456Y-84847D01*
X125456Y-84759D01*
X125387Y-84591D01*
X125259Y-84463D01*
X125091Y-84393D01*
X124909Y-84393D01*
X124741Y-84462D01*
X124643Y-84560D01*
X124235Y-84560D01*
X124150Y-84475D01*
X123988Y-84408D01*
X123812Y-84408D01*
X123650Y-84475D01*
X123564Y-84560D01*
X123285Y-84560D01*
X123250Y-84525D01*
X123088Y-84458D01*
X122912Y-84458D01*
X122750Y-84525D01*
X122625Y-84649D01*
X122558Y-84811D01*
X122558Y-84987D01*
X122625Y-85149D01*
X122749Y-85274D01*
X122852Y-85316D01*
X122721Y-85370D01*
X122693Y-85463D01*
X123000Y-85769D01*
X123306Y-85463D01*
X123278Y-85370D01*
X123135Y-85322D01*
X123249Y-85274D01*
X123374Y-85150D01*
X123378Y-85139D01*
X123564Y-85139D01*
X123649Y-85224D01*
X123811Y-85291D01*
X123987Y-85291D01*
X124149Y-85224D01*
X124235Y-85139D01*
X124643Y-85139D01*
X124740Y-85236D01*
X124908Y-85306D01*
X125090Y-85306D01*
X125095Y-85304D01*
X125582Y-85792D01*
X125575Y-85799D01*
X125508Y-85961D01*
X125508Y-86137D01*
X125575Y-86299D01*
X125699Y-86424D01*
X125861Y-86491D01*
X126037Y-86491D01*
X126199Y-86424D01*
X126285Y-86339D01*
X126680Y-86339D01*
X127360Y-87019D01*
X127360Y-87852D01*
X127303Y-87714D01*
X127186Y-87596D01*
X127033Y-87533D01*
X126867Y-87533D01*
X126714Y-87596D01*
X126596Y-87713D01*
X126533Y-87866D01*
X126533Y-88032D01*
X126596Y-88185D01*
X126713Y-88303D01*
X126866Y-88366D01*
X127032Y-88366D01*
X127185Y-88303D01*
X127303Y-88186D01*
X127360Y-88047D01*
X127360Y-88930D01*
X126391Y-89898D01*
X126391Y-86912D01*
X126324Y-86750D01*
X126200Y-86625D01*
X126038Y-86558D01*
X125862Y-86558D01*
X125700Y-86625D01*
X125575Y-86749D01*
X125508Y-86911D01*
X125508Y-87087D01*
X125575Y-87249D01*
X125699Y-87374D01*
X125861Y-87441D01*
X126037Y-87441D01*
X126199Y-87374D01*
X126324Y-87250D01*
X126391Y-87088D01*
X126391Y-86912D01*
X126391Y-89898D01*
X126341Y-89948D01*
X126341Y-89662D01*
X126341Y-88762D01*
X126274Y-88600D01*
X126150Y-88475D01*
X125988Y-88408D01*
X125812Y-88408D01*
X125650Y-88475D01*
X125525Y-88599D01*
X125458Y-88761D01*
X125458Y-88937D01*
X125525Y-89099D01*
X125649Y-89224D01*
X125811Y-89291D01*
X125987Y-89291D01*
X126149Y-89224D01*
X126274Y-89100D01*
X126341Y-88938D01*
X126341Y-88762D01*
X126341Y-89662D01*
X126274Y-89500D01*
X126150Y-89375D01*
X125988Y-89308D01*
X125812Y-89308D01*
X125650Y-89375D01*
X125525Y-89499D01*
X125458Y-89661D01*
X125458Y-89837D01*
X125525Y-89999D01*
X125649Y-90124D01*
X125811Y-90191D01*
X125987Y-90191D01*
X126149Y-90124D01*
X126274Y-90000D01*
X126341Y-89838D01*
X126341Y-89662D01*
X126341Y-89948D01*
X125745Y-90545D01*
X125705Y-90605D01*
X125596Y-90713D01*
X125533Y-90866D01*
X125533Y-91032D01*
X125596Y-91185D01*
X125713Y-91303D01*
X125866Y-91366D01*
X126032Y-91366D01*
X126185Y-91303D01*
X126303Y-91186D01*
X126366Y-91033D01*
X126366Y-90867D01*
X126330Y-90778D01*
X127854Y-89254D01*
X127854Y-89254D01*
X127917Y-89160D01*
X127939Y-89050D01*
X127939Y-89050D01*
X127939Y-92249D01*
X127416Y-92771D01*
X127416Y-90617D01*
X127353Y-90464D01*
X127236Y-90346D01*
X127083Y-90283D01*
X126917Y-90283D01*
X126764Y-90346D01*
X126646Y-90463D01*
X126583Y-90616D01*
X126583Y-90782D01*
X126646Y-90935D01*
X126763Y-91053D01*
X126916Y-91116D01*
X127082Y-91116D01*
X127235Y-91053D01*
X127353Y-90936D01*
X127416Y-90783D01*
X127416Y-90617D01*
X127416Y-92771D01*
X126468Y-93720D01*
X126468Y-93273D01*
X126468Y-92626D01*
X126431Y-92537D01*
X126366Y-92472D01*
X126366Y-91867D01*
X126303Y-91714D01*
X126186Y-91596D01*
X126033Y-91533D01*
X125867Y-91533D01*
X125714Y-91596D01*
X125596Y-91713D01*
X125533Y-91866D01*
X125533Y-92032D01*
X125596Y-92185D01*
X125713Y-92303D01*
X125866Y-92366D01*
X126032Y-92366D01*
X126185Y-92303D01*
X126303Y-92186D01*
X126366Y-92033D01*
X126366Y-91867D01*
X126366Y-92472D01*
X126363Y-92468D01*
X126273Y-92431D01*
X126176Y-92431D01*
X126067Y-92431D01*
X126006Y-92492D01*
X126006Y-92893D01*
X126407Y-92893D01*
X126468Y-92832D01*
X126468Y-92626D01*
X126468Y-93273D01*
X126468Y-93067D01*
X126407Y-93006D01*
X126006Y-93006D01*
X126006Y-93407D01*
X126067Y-93468D01*
X126176Y-93468D01*
X126273Y-93468D01*
X126363Y-93431D01*
X126431Y-93362D01*
X126468Y-93273D01*
X126468Y-93720D01*
X125893Y-94295D01*
X125893Y-93407D01*
X125893Y-93006D01*
X125893Y-92893D01*
X125893Y-92492D01*
X125832Y-92431D01*
X125723Y-92431D01*
X125626Y-92431D01*
X125536Y-92468D01*
X125511Y-92494D01*
X125511Y-90250D01*
X125456Y-90117D01*
X125456Y-88759D01*
X125387Y-88591D01*
X125259Y-88463D01*
X125091Y-88393D01*
X124909Y-88393D01*
X124741Y-88462D01*
X124613Y-88590D01*
X124543Y-88758D01*
X124543Y-88940D01*
X124612Y-89108D01*
X124740Y-89236D01*
X124908Y-89306D01*
X125090Y-89306D01*
X125258Y-89237D01*
X125386Y-89109D01*
X125456Y-88941D01*
X125456Y-88759D01*
X125456Y-90117D01*
X125450Y-90102D01*
X125337Y-89989D01*
X125190Y-89928D01*
X125030Y-89928D01*
X124882Y-89989D01*
X124769Y-90102D01*
X124761Y-90120D01*
X124761Y-89750D01*
X124700Y-89602D01*
X124587Y-89489D01*
X124440Y-89428D01*
X124341Y-89428D01*
X124341Y-88762D01*
X124274Y-88600D01*
X124150Y-88475D01*
X123988Y-88408D01*
X123812Y-88408D01*
X123650Y-88475D01*
X123549Y-88576D01*
X123549Y-85923D01*
X123535Y-85707D01*
X123479Y-85571D01*
X123386Y-85543D01*
X123080Y-85850D01*
X123386Y-86156D01*
X123479Y-86128D01*
X123549Y-85923D01*
X123549Y-88576D01*
X123525Y-88599D01*
X123458Y-88761D01*
X123458Y-88937D01*
X123525Y-89099D01*
X123649Y-89224D01*
X123811Y-89291D01*
X123987Y-89291D01*
X124149Y-89224D01*
X124274Y-89100D01*
X124341Y-88938D01*
X124341Y-88762D01*
X124341Y-89428D01*
X124280Y-89428D01*
X124132Y-89489D01*
X124019Y-89602D01*
X123958Y-89749D01*
X123958Y-89909D01*
X124019Y-90057D01*
X124132Y-90170D01*
X124279Y-90231D01*
X124439Y-90231D01*
X124587Y-90170D01*
X124700Y-90057D01*
X124761Y-89910D01*
X124761Y-89750D01*
X124761Y-90120D01*
X124708Y-90249D01*
X124708Y-90409D01*
X124769Y-90557D01*
X124781Y-90569D01*
X124717Y-90552D01*
X124637Y-90632D01*
X124637Y-90472D01*
X124613Y-90384D01*
X124423Y-90320D01*
X124224Y-90335D01*
X124106Y-90384D01*
X124082Y-90472D01*
X124360Y-90749D01*
X124637Y-90472D01*
X124637Y-90632D01*
X124440Y-90830D01*
X124717Y-91107D01*
X124805Y-91083D01*
X124869Y-90893D01*
X124854Y-90694D01*
X124818Y-90606D01*
X124882Y-90670D01*
X125029Y-90731D01*
X125189Y-90731D01*
X125337Y-90670D01*
X125450Y-90557D01*
X125511Y-90410D01*
X125511Y-90250D01*
X125511Y-92494D01*
X125468Y-92537D01*
X125431Y-92626D01*
X125431Y-92832D01*
X125492Y-92893D01*
X125893Y-92893D01*
X125893Y-93006D01*
X125492Y-93006D01*
X125431Y-93067D01*
X125431Y-93273D01*
X125468Y-93362D01*
X125536Y-93431D01*
X125626Y-93468D01*
X125723Y-93468D01*
X125832Y-93468D01*
X125893Y-93407D01*
X125893Y-94295D01*
X125159Y-95029D01*
X125159Y-92063D01*
X125144Y-91864D01*
X125095Y-91746D01*
X125007Y-91722D01*
X124927Y-91802D01*
X124927Y-91642D01*
X124903Y-91554D01*
X124713Y-91490D01*
X124637Y-91496D01*
X124637Y-91187D01*
X124360Y-90910D01*
X124279Y-90990D01*
X124279Y-90830D01*
X124002Y-90552D01*
X123914Y-90576D01*
X123850Y-90766D01*
X123865Y-90965D01*
X123914Y-91083D01*
X124002Y-91107D01*
X124279Y-90830D01*
X124279Y-90990D01*
X124082Y-91187D01*
X124106Y-91275D01*
X124296Y-91339D01*
X124495Y-91324D01*
X124613Y-91275D01*
X124637Y-91187D01*
X124637Y-91496D01*
X124514Y-91505D01*
X124396Y-91554D01*
X124372Y-91642D01*
X124650Y-91919D01*
X124927Y-91642D01*
X124927Y-91802D01*
X124730Y-92000D01*
X125007Y-92277D01*
X125095Y-92253D01*
X125159Y-92063D01*
X125159Y-95029D01*
X125156Y-95032D01*
X125156Y-98067D01*
X126074Y-98985D01*
X126067Y-98993D01*
X125051Y-98993D01*
X125051Y-92920D01*
X124990Y-92772D01*
X124927Y-92709D01*
X124927Y-92357D01*
X124650Y-92080D01*
X124569Y-92160D01*
X124569Y-92000D01*
X124292Y-91722D01*
X124204Y-91746D01*
X124140Y-91936D01*
X124155Y-92135D01*
X124191Y-92223D01*
X124127Y-92159D01*
X123980Y-92098D01*
X123820Y-92098D01*
X123672Y-92159D01*
X123559Y-92272D01*
X123498Y-92419D01*
X123498Y-92579D01*
X123559Y-92727D01*
X123672Y-92840D01*
X123819Y-92901D01*
X123979Y-92901D01*
X124127Y-92840D01*
X124240Y-92727D01*
X124301Y-92580D01*
X124301Y-92420D01*
X124240Y-92272D01*
X124228Y-92260D01*
X124292Y-92277D01*
X124569Y-92000D01*
X124569Y-92160D01*
X124372Y-92357D01*
X124396Y-92445D01*
X124586Y-92509D01*
X124785Y-92494D01*
X124903Y-92445D01*
X124927Y-92357D01*
X124927Y-92709D01*
X124877Y-92659D01*
X124730Y-92598D01*
X124570Y-92598D01*
X124422Y-92659D01*
X124309Y-92772D01*
X124248Y-92919D01*
X124248Y-93079D01*
X124309Y-93227D01*
X124422Y-93340D01*
X124569Y-93401D01*
X124729Y-93401D01*
X124877Y-93340D01*
X124990Y-93227D01*
X125051Y-93080D01*
X125051Y-92920D01*
X125051Y-98993D01*
X124141Y-98993D01*
X124141Y-94962D01*
X124074Y-94800D01*
X123950Y-94675D01*
X123916Y-94661D01*
X123916Y-94488D01*
X123949Y-94474D01*
X124074Y-94350D01*
X124141Y-94188D01*
X124141Y-94012D01*
X124074Y-93850D01*
X123950Y-93725D01*
X123916Y-93711D01*
X123916Y-93600D01*
X123900Y-93517D01*
X123853Y-93446D01*
X122788Y-92381D01*
X122811Y-92391D01*
X122987Y-92391D01*
X123149Y-92324D01*
X123274Y-92200D01*
X123341Y-92038D01*
X123341Y-91862D01*
X123341Y-90962D01*
X123324Y-90919D01*
X123324Y-86997D01*
X123310Y-86791D01*
X123306Y-86782D01*
X123306Y-86236D01*
X123000Y-85930D01*
X122919Y-86010D01*
X122919Y-85850D01*
X122613Y-85543D01*
X122520Y-85571D01*
X122450Y-85776D01*
X122464Y-85992D01*
X122520Y-86128D01*
X122613Y-86156D01*
X122919Y-85850D01*
X122919Y-86010D01*
X122693Y-86236D01*
X122721Y-86329D01*
X122926Y-86399D01*
X123142Y-86385D01*
X123278Y-86329D01*
X123306Y-86236D01*
X123306Y-86782D01*
X123258Y-86667D01*
X123168Y-86641D01*
X123088Y-86722D01*
X123088Y-86561D01*
X123062Y-86471D01*
X122867Y-86405D01*
X122661Y-86419D01*
X122537Y-86471D01*
X122511Y-86561D01*
X122800Y-86849D01*
X123088Y-86561D01*
X123088Y-86722D01*
X122880Y-86930D01*
X123168Y-87218D01*
X123258Y-87192D01*
X123324Y-86997D01*
X123324Y-90919D01*
X123274Y-90800D01*
X123216Y-90742D01*
X123216Y-88847D01*
X123216Y-87847D01*
X123153Y-87694D01*
X123088Y-87628D01*
X123088Y-87298D01*
X122800Y-87010D01*
X122719Y-87090D01*
X122719Y-86930D01*
X122431Y-86641D01*
X122341Y-86667D01*
X122275Y-86862D01*
X122289Y-87068D01*
X122341Y-87192D01*
X122431Y-87218D01*
X122719Y-86930D01*
X122719Y-87090D01*
X122511Y-87298D01*
X122537Y-87388D01*
X122732Y-87454D01*
X122938Y-87440D01*
X123062Y-87388D01*
X123088Y-87298D01*
X123088Y-87628D01*
X123036Y-87576D01*
X122883Y-87513D01*
X122717Y-87513D01*
X122564Y-87576D01*
X122446Y-87693D01*
X122383Y-87846D01*
X122383Y-88012D01*
X122446Y-88165D01*
X122563Y-88283D01*
X122716Y-88346D01*
X122882Y-88346D01*
X123035Y-88283D01*
X123153Y-88166D01*
X123216Y-88013D01*
X123216Y-87847D01*
X123216Y-88847D01*
X123153Y-88694D01*
X123036Y-88576D01*
X122883Y-88513D01*
X122717Y-88513D01*
X122564Y-88576D01*
X122446Y-88693D01*
X122383Y-88846D01*
X122383Y-89012D01*
X122446Y-89165D01*
X122563Y-89283D01*
X122716Y-89346D01*
X122882Y-89346D01*
X123035Y-89283D01*
X123153Y-89166D01*
X123216Y-89013D01*
X123216Y-88847D01*
X123216Y-90742D01*
X123216Y-90742D01*
X123216Y-90176D01*
X123216Y-89626D01*
X123195Y-89574D01*
X123155Y-89534D01*
X123103Y-89513D01*
X123046Y-89513D01*
X122496Y-89513D01*
X122444Y-89534D01*
X122404Y-89574D01*
X122383Y-89626D01*
X122383Y-89683D01*
X122383Y-90233D01*
X122404Y-90285D01*
X122444Y-90325D01*
X122496Y-90346D01*
X122553Y-90346D01*
X123103Y-90346D01*
X123155Y-90325D01*
X123195Y-90285D01*
X123216Y-90233D01*
X123216Y-90176D01*
X123216Y-90742D01*
X123150Y-90675D01*
X122988Y-90608D01*
X122812Y-90608D01*
X122650Y-90675D01*
X122525Y-90799D01*
X122458Y-90961D01*
X122458Y-91137D01*
X122525Y-91299D01*
X122649Y-91424D01*
X122811Y-91491D01*
X122987Y-91491D01*
X123149Y-91424D01*
X123274Y-91300D01*
X123341Y-91138D01*
X123341Y-90962D01*
X123341Y-91862D01*
X123274Y-91700D01*
X123150Y-91575D01*
X122988Y-91508D01*
X122812Y-91508D01*
X122650Y-91575D01*
X122525Y-91699D01*
X122458Y-91861D01*
X122458Y-92037D01*
X122468Y-92062D01*
X122266Y-91860D01*
X122266Y-89000D01*
X122250Y-88917D01*
X122203Y-88846D01*
X122203Y-88846D01*
X121133Y-87776D01*
X121062Y-87729D01*
X120980Y-87713D01*
X120216Y-87713D01*
X120216Y-86847D01*
X120153Y-86694D01*
X120036Y-86576D01*
X119883Y-86513D01*
X119792Y-86513D01*
X119375Y-86096D01*
X119441Y-85938D01*
X119441Y-85762D01*
X119374Y-85600D01*
X119289Y-85514D01*
X119289Y-85235D01*
X119374Y-85150D01*
X119441Y-84988D01*
X119441Y-84812D01*
X119374Y-84650D01*
X119250Y-84525D01*
X119088Y-84458D01*
X118912Y-84458D01*
X118750Y-84525D01*
X118625Y-84649D01*
X118558Y-84811D01*
X118558Y-84987D01*
X118625Y-85149D01*
X118710Y-85235D01*
X118710Y-85514D01*
X118625Y-85599D01*
X118558Y-85761D01*
X118558Y-85937D01*
X118625Y-86099D01*
X118724Y-86199D01*
X118732Y-86240D01*
X118795Y-86334D01*
X119383Y-86922D01*
X119383Y-87012D01*
X119446Y-87165D01*
X119563Y-87283D01*
X119716Y-87346D01*
X119882Y-87346D01*
X120035Y-87283D01*
X120153Y-87166D01*
X120216Y-87013D01*
X120216Y-86847D01*
X120216Y-87713D01*
X120161Y-87713D01*
X120153Y-87694D01*
X120036Y-87576D01*
X119883Y-87513D01*
X119717Y-87513D01*
X119564Y-87576D01*
X119446Y-87693D01*
X119383Y-87846D01*
X119383Y-88012D01*
X119446Y-88165D01*
X119563Y-88283D01*
X119716Y-88346D01*
X119882Y-88346D01*
X120035Y-88283D01*
X120153Y-88166D01*
X120161Y-88146D01*
X120890Y-88146D01*
X121833Y-89089D01*
X121833Y-91950D01*
X121849Y-92032D01*
X121896Y-92103D01*
X122377Y-92583D01*
X122217Y-92583D01*
X122064Y-92646D01*
X121946Y-92763D01*
X121883Y-92916D01*
X121883Y-93082D01*
X121946Y-93235D01*
X122063Y-93353D01*
X122216Y-93416D01*
X122382Y-93416D01*
X122535Y-93353D01*
X122653Y-93236D01*
X122716Y-93083D01*
X122716Y-92923D01*
X123483Y-93689D01*
X123483Y-93711D01*
X123450Y-93725D01*
X123325Y-93849D01*
X123258Y-94011D01*
X123258Y-94187D01*
X123325Y-94349D01*
X123449Y-94474D01*
X123483Y-94488D01*
X123483Y-94661D01*
X123450Y-94675D01*
X123325Y-94799D01*
X123258Y-94961D01*
X123258Y-95137D01*
X123325Y-95299D01*
X123449Y-95424D01*
X123611Y-95491D01*
X123787Y-95491D01*
X123949Y-95424D01*
X124074Y-95300D01*
X124141Y-95138D01*
X124141Y-94962D01*
X124141Y-98993D01*
X121991Y-98993D01*
X121991Y-97012D01*
X121991Y-97012D01*
X121991Y-96371D01*
X121991Y-95771D01*
X121970Y-95719D01*
X121930Y-95679D01*
X121878Y-95658D01*
X121821Y-95658D01*
X121716Y-95658D01*
X121716Y-92917D01*
X121653Y-92764D01*
X121536Y-92646D01*
X121383Y-92583D01*
X121217Y-92583D01*
X121064Y-92646D01*
X120946Y-92763D01*
X120883Y-92916D01*
X120883Y-93082D01*
X120946Y-93235D01*
X121063Y-93353D01*
X121216Y-93416D01*
X121382Y-93416D01*
X121535Y-93353D01*
X121653Y-93236D01*
X121716Y-93083D01*
X121716Y-92917D01*
X121716Y-95658D01*
X121221Y-95658D01*
X121169Y-95679D01*
X121129Y-95719D01*
X121108Y-95771D01*
X121108Y-95828D01*
X121108Y-96428D01*
X121129Y-96480D01*
X121169Y-96520D01*
X121221Y-96541D01*
X121278Y-96541D01*
X121878Y-96541D01*
X121930Y-96520D01*
X121970Y-96480D01*
X121991Y-96428D01*
X121991Y-96371D01*
X121991Y-97012D01*
X121924Y-96850D01*
X121800Y-96725D01*
X121638Y-96658D01*
X121462Y-96658D01*
X121300Y-96725D01*
X121175Y-96849D01*
X121108Y-97011D01*
X121108Y-97187D01*
X121175Y-97349D01*
X121299Y-97474D01*
X121461Y-97541D01*
X121637Y-97541D01*
X121799Y-97474D01*
X121924Y-97350D01*
X121991Y-97188D01*
X121991Y-97012D01*
X121991Y-98993D01*
X121300Y-98993D01*
X121299Y-98993D01*
X121125Y-99028D01*
X120991Y-99117D01*
X120991Y-97012D01*
X120991Y-96012D01*
X120924Y-95850D01*
X120800Y-95725D01*
X120766Y-95711D01*
X120766Y-95600D01*
X120750Y-95517D01*
X120716Y-95467D01*
X120716Y-93246D01*
X120716Y-92696D01*
X120695Y-92644D01*
X120655Y-92604D01*
X120603Y-92583D01*
X120546Y-92583D01*
X119996Y-92583D01*
X119944Y-92604D01*
X119904Y-92644D01*
X119883Y-92696D01*
X119883Y-92753D01*
X119883Y-93303D01*
X119904Y-93355D01*
X119944Y-93395D01*
X119996Y-93416D01*
X120053Y-93416D01*
X120603Y-93416D01*
X120655Y-93395D01*
X120695Y-93355D01*
X120716Y-93303D01*
X120716Y-93246D01*
X120716Y-95467D01*
X120703Y-95446D01*
X120703Y-95446D01*
X120153Y-94896D01*
X120141Y-94889D01*
X120141Y-94012D01*
X120074Y-93850D01*
X119950Y-93725D01*
X119788Y-93658D01*
X119612Y-93658D01*
X119450Y-93725D01*
X119325Y-93849D01*
X119258Y-94011D01*
X119258Y-94187D01*
X119325Y-94349D01*
X119449Y-94474D01*
X119611Y-94541D01*
X119787Y-94541D01*
X119949Y-94474D01*
X120074Y-94350D01*
X120141Y-94188D01*
X120141Y-94012D01*
X120141Y-94889D01*
X120100Y-94861D01*
X120074Y-94800D01*
X119950Y-94675D01*
X119788Y-94608D01*
X119612Y-94608D01*
X119450Y-94675D01*
X119415Y-94709D01*
X119216Y-94510D01*
X119216Y-93289D01*
X120753Y-91753D01*
X120753Y-91753D01*
X120753Y-91753D01*
X120800Y-91682D01*
X120800Y-91682D01*
X120813Y-91616D01*
X120816Y-91600D01*
X120816Y-91600D01*
X120816Y-91600D01*
X120816Y-89450D01*
X120800Y-89367D01*
X120753Y-89296D01*
X120233Y-88776D01*
X120170Y-88734D01*
X120153Y-88694D01*
X120036Y-88576D01*
X119883Y-88513D01*
X119717Y-88513D01*
X119564Y-88576D01*
X119446Y-88693D01*
X119383Y-88846D01*
X119383Y-89012D01*
X119446Y-89165D01*
X119563Y-89283D01*
X119716Y-89346D01*
X119882Y-89346D01*
X120035Y-89283D01*
X120081Y-89237D01*
X120383Y-89539D01*
X120383Y-91510D01*
X120216Y-91676D01*
X120216Y-89847D01*
X120153Y-89694D01*
X120036Y-89576D01*
X119883Y-89513D01*
X119717Y-89513D01*
X119564Y-89576D01*
X119446Y-89693D01*
X119383Y-89846D01*
X119383Y-90012D01*
X119446Y-90165D01*
X119510Y-90229D01*
X119510Y-91330D01*
X119341Y-91498D01*
X119341Y-90962D01*
X119274Y-90800D01*
X119150Y-90675D01*
X118988Y-90608D01*
X118812Y-90608D01*
X118650Y-90675D01*
X118525Y-90799D01*
X118458Y-90961D01*
X118458Y-91137D01*
X118525Y-91299D01*
X118649Y-91424D01*
X118811Y-91491D01*
X118987Y-91491D01*
X119149Y-91424D01*
X119274Y-91300D01*
X119341Y-91138D01*
X119341Y-90962D01*
X119341Y-91498D01*
X119207Y-91633D01*
X119150Y-91575D01*
X118988Y-91508D01*
X118812Y-91508D01*
X118650Y-91575D01*
X118525Y-91699D01*
X118458Y-91861D01*
X118458Y-92037D01*
X118525Y-92199D01*
X118649Y-92324D01*
X118811Y-92391D01*
X118987Y-92391D01*
X119149Y-92324D01*
X119235Y-92239D01*
X119300Y-92239D01*
X119300Y-92239D01*
X119410Y-92217D01*
X119504Y-92154D01*
X120004Y-91654D01*
X120004Y-91654D01*
X120067Y-91560D01*
X120089Y-91450D01*
X120089Y-91450D01*
X120089Y-90229D01*
X120153Y-90166D01*
X120216Y-90013D01*
X120216Y-89847D01*
X120216Y-91676D01*
X118846Y-93046D01*
X118799Y-93117D01*
X118783Y-93200D01*
X118783Y-94600D01*
X118799Y-94682D01*
X118846Y-94753D01*
X119277Y-95183D01*
X119325Y-95299D01*
X119449Y-95424D01*
X119611Y-95491D01*
X119787Y-95491D01*
X119949Y-95424D01*
X120009Y-95365D01*
X120333Y-95689D01*
X120333Y-95711D01*
X120300Y-95725D01*
X120175Y-95849D01*
X120108Y-96011D01*
X120108Y-96187D01*
X120175Y-96349D01*
X120299Y-96474D01*
X120461Y-96541D01*
X120637Y-96541D01*
X120799Y-96474D01*
X120924Y-96350D01*
X120991Y-96188D01*
X120991Y-96012D01*
X120991Y-97012D01*
X120924Y-96850D01*
X120800Y-96725D01*
X120638Y-96658D01*
X120462Y-96658D01*
X120300Y-96725D01*
X120175Y-96849D01*
X120108Y-97011D01*
X120108Y-97187D01*
X120175Y-97349D01*
X120299Y-97474D01*
X120461Y-97541D01*
X120637Y-97541D01*
X120799Y-97474D01*
X120924Y-97350D01*
X120991Y-97188D01*
X120991Y-97012D01*
X120991Y-99117D01*
X120977Y-99127D01*
X120977Y-99127D01*
X120277Y-99827D01*
X120178Y-99975D01*
X120143Y-100150D01*
X120143Y-100343D01*
X119600Y-100343D01*
X119525Y-100358D01*
X119512Y-100358D01*
X119500Y-100363D01*
X119425Y-100378D01*
X119361Y-100420D01*
X119350Y-100425D01*
X119341Y-100434D01*
X119277Y-100477D01*
X119234Y-100540D01*
X119225Y-100549D01*
X119220Y-100561D01*
X119178Y-100625D01*
X119163Y-100700D01*
X119158Y-100711D01*
X119158Y-100724D01*
X119143Y-100800D01*
X119158Y-100874D01*
X119158Y-100887D01*
X119163Y-100899D01*
X119178Y-100974D01*
X119220Y-101038D01*
X119225Y-101049D01*
X119234Y-101058D01*
X119277Y-101122D01*
X119340Y-101165D01*
X119349Y-101174D01*
X119361Y-101179D01*
X119425Y-101221D01*
X119500Y-101236D01*
X119511Y-101241D01*
X119524Y-101241D01*
X119600Y-101256D01*
X120143Y-101256D01*
X120143Y-101343D01*
X119600Y-101343D01*
X119524Y-101358D01*
X119271Y-101358D01*
X119219Y-101379D01*
X119179Y-101419D01*
X119158Y-101471D01*
X119158Y-101528D01*
X119158Y-101724D01*
X119143Y-101800D01*
X119158Y-101875D01*
X119158Y-102128D01*
X119179Y-102180D01*
X119219Y-102220D01*
X119271Y-102241D01*
X119328Y-102241D01*
X119524Y-102241D01*
X119600Y-102256D01*
X120143Y-102256D01*
X120143Y-102450D01*
X120178Y-102624D01*
X120277Y-102772D01*
X122877Y-105372D01*
X123025Y-105471D01*
X123200Y-105506D01*
X124610Y-105506D01*
X125243Y-106139D01*
X125243Y-106550D01*
X125278Y-106724D01*
X125377Y-106872D01*
X125525Y-106971D01*
X125700Y-107006D01*
X125874Y-106971D01*
X126022Y-106872D01*
X126121Y-106724D01*
X126156Y-106550D01*
X126156Y-105950D01*
X126121Y-105775D01*
X126041Y-105655D01*
X126041Y-101712D01*
X126041Y-100712D01*
X125974Y-100550D01*
X125850Y-100425D01*
X125688Y-100358D01*
X125512Y-100358D01*
X125350Y-100425D01*
X125225Y-100549D01*
X125158Y-100711D01*
X125158Y-100887D01*
X125225Y-101049D01*
X125349Y-101174D01*
X125511Y-101241D01*
X125687Y-101241D01*
X125849Y-101174D01*
X125974Y-101050D01*
X126041Y-100888D01*
X126041Y-100712D01*
X126041Y-101712D01*
X125974Y-101550D01*
X125850Y-101425D01*
X125688Y-101358D01*
X125512Y-101358D01*
X125350Y-101425D01*
X125225Y-101549D01*
X125158Y-101711D01*
X125158Y-101887D01*
X125225Y-102049D01*
X125349Y-102174D01*
X125511Y-102241D01*
X125687Y-102241D01*
X125849Y-102174D01*
X125974Y-102050D01*
X126041Y-101888D01*
X126041Y-101712D01*
X126041Y-105655D01*
X126022Y-105627D01*
X125122Y-104727D01*
X125041Y-104672D01*
X125041Y-101712D01*
X125041Y-100712D01*
X124974Y-100550D01*
X124850Y-100425D01*
X124688Y-100358D01*
X124512Y-100358D01*
X124350Y-100425D01*
X124225Y-100549D01*
X124158Y-100711D01*
X124158Y-100887D01*
X124225Y-101049D01*
X124349Y-101174D01*
X124511Y-101241D01*
X124687Y-101241D01*
X124849Y-101174D01*
X124974Y-101050D01*
X125041Y-100888D01*
X125041Y-100712D01*
X125041Y-101712D01*
X124974Y-101550D01*
X124850Y-101425D01*
X124688Y-101358D01*
X124512Y-101358D01*
X124350Y-101425D01*
X124225Y-101549D01*
X124158Y-101711D01*
X124158Y-101887D01*
X124225Y-102049D01*
X124349Y-102174D01*
X124511Y-102241D01*
X124687Y-102241D01*
X124849Y-102174D01*
X124974Y-102050D01*
X125041Y-101888D01*
X125041Y-101712D01*
X125041Y-104672D01*
X124974Y-104628D01*
X124800Y-104593D01*
X124041Y-104593D01*
X124041Y-101712D01*
X124041Y-100712D01*
X123974Y-100550D01*
X123850Y-100425D01*
X123688Y-100358D01*
X123512Y-100358D01*
X123350Y-100425D01*
X123225Y-100549D01*
X123158Y-100711D01*
X123158Y-100887D01*
X123225Y-101049D01*
X123349Y-101174D01*
X123511Y-101241D01*
X123687Y-101241D01*
X123849Y-101174D01*
X123974Y-101050D01*
X124041Y-100888D01*
X124041Y-100712D01*
X124041Y-101712D01*
X123974Y-101550D01*
X123850Y-101425D01*
X123688Y-101358D01*
X123512Y-101358D01*
X123350Y-101425D01*
X123225Y-101549D01*
X123158Y-101711D01*
X123158Y-101887D01*
X123225Y-102049D01*
X123349Y-102174D01*
X123511Y-102241D01*
X123687Y-102241D01*
X123849Y-102174D01*
X123974Y-102050D01*
X124041Y-101888D01*
X124041Y-101712D01*
X124041Y-104593D01*
X123389Y-104593D01*
X123041Y-104245D01*
X123041Y-101712D01*
X123041Y-100712D01*
X122974Y-100550D01*
X122850Y-100425D01*
X122688Y-100358D01*
X122512Y-100358D01*
X122350Y-100425D01*
X122225Y-100549D01*
X122158Y-100711D01*
X122158Y-100887D01*
X122225Y-101049D01*
X122349Y-101174D01*
X122511Y-101241D01*
X122687Y-101241D01*
X122849Y-101174D01*
X122974Y-101050D01*
X123041Y-100888D01*
X123041Y-100712D01*
X123041Y-101712D01*
X122974Y-101550D01*
X122850Y-101425D01*
X122688Y-101358D01*
X122512Y-101358D01*
X122350Y-101425D01*
X122225Y-101549D01*
X122158Y-101711D01*
X122158Y-101887D01*
X122225Y-102049D01*
X122349Y-102174D01*
X122511Y-102241D01*
X122687Y-102241D01*
X122849Y-102174D01*
X122974Y-102050D01*
X123041Y-101888D01*
X123041Y-101712D01*
X123041Y-104245D01*
X122041Y-103245D01*
X122041Y-101712D01*
X122041Y-100712D01*
X121974Y-100550D01*
X121850Y-100425D01*
X121688Y-100358D01*
X121512Y-100358D01*
X121350Y-100425D01*
X121225Y-100549D01*
X121158Y-100711D01*
X121158Y-100887D01*
X121225Y-101049D01*
X121349Y-101174D01*
X121511Y-101241D01*
X121687Y-101241D01*
X121849Y-101174D01*
X121974Y-101050D01*
X122041Y-100888D01*
X122041Y-100712D01*
X122041Y-101712D01*
X121974Y-101550D01*
X121850Y-101425D01*
X121688Y-101358D01*
X121512Y-101358D01*
X121350Y-101425D01*
X121225Y-101549D01*
X121158Y-101711D01*
X121158Y-101887D01*
X121225Y-102049D01*
X121349Y-102174D01*
X121511Y-102241D01*
X121687Y-102241D01*
X121849Y-102174D01*
X121974Y-102050D01*
X122041Y-101888D01*
X122041Y-101712D01*
X122041Y-103245D01*
X121056Y-102260D01*
X121056Y-101800D01*
X121056Y-100800D01*
X121056Y-100339D01*
X121489Y-99906D01*
X126256Y-99906D01*
X126431Y-99871D01*
X126431Y-99871D01*
X126579Y-99772D01*
X126720Y-99631D01*
X126882Y-99793D01*
X128832Y-99793D01*
X130106Y-101067D01*
X130106Y-105893D01*
X131232Y-105893D01*
X133606Y-108267D01*
X133606Y-110638D01*
X133606Y-110638D01*
G37*
G54D35*
X133606Y-110638D02*
X132904Y-110777D01*
X132900Y-110777D01*
X132822Y-110809D01*
X132631Y-110936D01*
X132631Y-109707D01*
X132631Y-108707D01*
X132631Y-108707D01*
X132631Y-108036D01*
X132631Y-107486D01*
X132610Y-107434D01*
X132570Y-107394D01*
X132518Y-107373D01*
X132461Y-107373D01*
X131911Y-107373D01*
X131859Y-107394D01*
X131819Y-107434D01*
X131801Y-107478D01*
X131801Y-106857D01*
X131734Y-106695D01*
X131610Y-106570D01*
X131448Y-106503D01*
X131272Y-106503D01*
X131110Y-106570D01*
X130985Y-106694D01*
X130918Y-106856D01*
X130918Y-107032D01*
X130985Y-107194D01*
X131109Y-107319D01*
X131271Y-107386D01*
X131447Y-107386D01*
X131609Y-107319D01*
X131734Y-107195D01*
X131801Y-107033D01*
X131801Y-106857D01*
X131801Y-107478D01*
X131798Y-107486D01*
X131798Y-107543D01*
X131798Y-107936D01*
X131625Y-108109D01*
X129149Y-108109D01*
X129149Y-101873D01*
X129149Y-100873D01*
X129135Y-100657D01*
X129079Y-100521D01*
X128986Y-100493D01*
X128906Y-100573D01*
X128906Y-100413D01*
X128878Y-100320D01*
X128673Y-100250D01*
X128457Y-100264D01*
X128321Y-100320D01*
X128293Y-100413D01*
X128600Y-100719D01*
X128906Y-100413D01*
X128906Y-100573D01*
X128680Y-100800D01*
X128986Y-101106D01*
X129079Y-101078D01*
X129149Y-100873D01*
X129149Y-101873D01*
X129135Y-101657D01*
X129079Y-101521D01*
X128986Y-101493D01*
X128906Y-101573D01*
X128906Y-101413D01*
X128878Y-101320D01*
X128822Y-101301D01*
X128878Y-101279D01*
X128906Y-101186D01*
X128600Y-100880D01*
X128519Y-100960D01*
X128519Y-100800D01*
X128213Y-100493D01*
X128120Y-100521D01*
X128050Y-100726D01*
X128064Y-100942D01*
X128120Y-101078D01*
X128213Y-101106D01*
X128519Y-100800D01*
X128519Y-100960D01*
X128293Y-101186D01*
X128321Y-101279D01*
X128377Y-101298D01*
X128321Y-101320D01*
X128293Y-101413D01*
X128600Y-101719D01*
X128906Y-101413D01*
X128906Y-101573D01*
X128680Y-101800D01*
X128986Y-102106D01*
X129079Y-102078D01*
X129149Y-101873D01*
X129149Y-108109D01*
X128906Y-108109D01*
X128906Y-102186D01*
X128600Y-101880D01*
X128519Y-101960D01*
X128519Y-101800D01*
X128213Y-101493D01*
X128120Y-101521D01*
X128050Y-101726D01*
X128064Y-101942D01*
X128120Y-102078D01*
X128213Y-102106D01*
X128519Y-101800D01*
X128519Y-101960D01*
X128293Y-102186D01*
X128321Y-102279D01*
X128526Y-102349D01*
X128742Y-102335D01*
X128878Y-102279D01*
X128906Y-102186D01*
X128906Y-108109D01*
X128041Y-108109D01*
X128041Y-101712D01*
X128041Y-100712D01*
X127974Y-100550D01*
X127850Y-100425D01*
X127688Y-100358D01*
X127512Y-100358D01*
X127350Y-100425D01*
X127225Y-100549D01*
X127158Y-100711D01*
X127158Y-100887D01*
X127225Y-101049D01*
X127349Y-101174D01*
X127511Y-101241D01*
X127687Y-101241D01*
X127849Y-101174D01*
X127974Y-101050D01*
X128041Y-100888D01*
X128041Y-100712D01*
X128041Y-101712D01*
X127974Y-101550D01*
X127850Y-101425D01*
X127688Y-101358D01*
X127512Y-101358D01*
X127350Y-101425D01*
X127225Y-101549D01*
X127158Y-101711D01*
X127158Y-101887D01*
X127225Y-102049D01*
X127349Y-102174D01*
X127511Y-102241D01*
X127687Y-102241D01*
X127849Y-102174D01*
X127974Y-102050D01*
X128041Y-101888D01*
X128041Y-101712D01*
X128041Y-108109D01*
X127041Y-108109D01*
X127041Y-101712D01*
X127041Y-100712D01*
X126974Y-100550D01*
X126850Y-100425D01*
X126688Y-100358D01*
X126512Y-100358D01*
X126350Y-100425D01*
X126225Y-100549D01*
X126158Y-100711D01*
X126158Y-100887D01*
X126225Y-101049D01*
X126349Y-101174D01*
X126511Y-101241D01*
X126687Y-101241D01*
X126849Y-101174D01*
X126974Y-101050D01*
X127041Y-100888D01*
X127041Y-100712D01*
X127041Y-101712D01*
X126974Y-101550D01*
X126850Y-101425D01*
X126688Y-101358D01*
X126512Y-101358D01*
X126350Y-101425D01*
X126225Y-101549D01*
X126158Y-101711D01*
X126158Y-101887D01*
X126225Y-102049D01*
X126349Y-102174D01*
X126511Y-102241D01*
X126687Y-102241D01*
X126849Y-102174D01*
X126974Y-102050D01*
X127041Y-101888D01*
X127041Y-101712D01*
X127041Y-108109D01*
X125133Y-108109D01*
X125133Y-107174D01*
X125037Y-106941D01*
X124859Y-106763D01*
X124626Y-106666D01*
X124374Y-106666D01*
X124141Y-106762D01*
X123963Y-106940D01*
X123866Y-107173D01*
X123866Y-107425D01*
X123962Y-107658D01*
X124140Y-107836D01*
X124373Y-107933D01*
X124625Y-107933D01*
X124858Y-107837D01*
X125036Y-107659D01*
X125133Y-107426D01*
X125133Y-107174D01*
X125133Y-108109D01*
X124100Y-108109D01*
X122900Y-108109D01*
X122709Y-108109D01*
X121616Y-107016D01*
X121616Y-106907D01*
X121568Y-106790D01*
X121479Y-106701D01*
X121363Y-106653D01*
X121237Y-106653D01*
X121120Y-106701D01*
X121031Y-106790D01*
X120983Y-106906D01*
X120983Y-107032D01*
X121031Y-107149D01*
X121120Y-107238D01*
X121236Y-107286D01*
X121346Y-107286D01*
X122494Y-108435D01*
X122556Y-108476D01*
X122556Y-108476D01*
X122630Y-108490D01*
X122665Y-108490D01*
X122900Y-108490D01*
X124100Y-108490D01*
X131705Y-108490D01*
X131778Y-108476D01*
X131778Y-108476D01*
X131840Y-108435D01*
X132068Y-108206D01*
X132518Y-108206D01*
X132570Y-108185D01*
X132610Y-108145D01*
X132631Y-108093D01*
X132631Y-108036D01*
X132631Y-108707D01*
X132568Y-108554D01*
X132451Y-108436D01*
X132298Y-108373D01*
X132132Y-108373D01*
X131979Y-108436D01*
X131861Y-108553D01*
X131798Y-108706D01*
X131798Y-108872D01*
X131861Y-109025D01*
X131978Y-109143D01*
X132131Y-109206D01*
X132297Y-109206D01*
X132450Y-109143D01*
X132568Y-109026D01*
X132631Y-108873D01*
X132631Y-108707D01*
X132631Y-109707D01*
X132568Y-109554D01*
X132451Y-109436D01*
X132298Y-109373D01*
X132132Y-109373D01*
X131979Y-109436D01*
X131861Y-109553D01*
X131798Y-109706D01*
X131798Y-109872D01*
X131861Y-110025D01*
X131978Y-110143D01*
X132131Y-110206D01*
X132297Y-110206D01*
X132450Y-110143D01*
X132568Y-110026D01*
X132631Y-109873D01*
X132631Y-109707D01*
X132631Y-110936D01*
X132011Y-111352D01*
X131951Y-111411D01*
X131950Y-111415D01*
X131909Y-111477D01*
X131909Y-111018D01*
X131895Y-110802D01*
X131839Y-110666D01*
X131746Y-110638D01*
X131666Y-110718D01*
X131666Y-110558D01*
X131638Y-110465D01*
X131433Y-110395D01*
X131217Y-110409D01*
X131081Y-110465D01*
X131053Y-110558D01*
X131360Y-110864D01*
X131666Y-110558D01*
X131666Y-110718D01*
X131440Y-110945D01*
X131746Y-111251D01*
X131839Y-111223D01*
X131909Y-111018D01*
X131909Y-111477D01*
X131666Y-111840D01*
X131666Y-111331D01*
X131360Y-111025D01*
X131279Y-111105D01*
X131279Y-110945D01*
X130973Y-110638D01*
X130880Y-110666D01*
X130810Y-110871D01*
X130824Y-111087D01*
X130880Y-111223D01*
X130973Y-111251D01*
X131279Y-110945D01*
X131279Y-111105D01*
X131053Y-111331D01*
X131081Y-111424D01*
X131286Y-111494D01*
X131502Y-111480D01*
X131638Y-111424D01*
X131666Y-111331D01*
X131666Y-111840D01*
X131412Y-112219D01*
X131409Y-112222D01*
X131376Y-112301D01*
X131221Y-113083D01*
X125321Y-113083D01*
X125430Y-112974D01*
X125527Y-112741D01*
X125527Y-112489D01*
X125431Y-112256D01*
X125253Y-112078D01*
X125020Y-111981D01*
X124768Y-111981D01*
X124535Y-112077D01*
X124357Y-112255D01*
X124260Y-112488D01*
X124260Y-112740D01*
X124356Y-112973D01*
X124465Y-113083D01*
X119739Y-113083D01*
X119739Y-107174D01*
X119643Y-106941D01*
X119465Y-106763D01*
X119232Y-106666D01*
X118980Y-106666D01*
X118747Y-106762D01*
X118569Y-106940D01*
X118472Y-107173D01*
X118472Y-107425D01*
X118568Y-107658D01*
X118746Y-107836D01*
X118979Y-107933D01*
X119231Y-107933D01*
X119464Y-107837D01*
X119642Y-107659D01*
X119739Y-107426D01*
X119739Y-107174D01*
X119739Y-113083D01*
X119140Y-113083D01*
X119249Y-112974D01*
X119346Y-112741D01*
X119346Y-112489D01*
X119250Y-112256D01*
X119072Y-112078D01*
X118839Y-111981D01*
X118587Y-111981D01*
X118354Y-112077D01*
X118316Y-112115D01*
X118316Y-83616D01*
X130456Y-83616D01*
X130456Y-89732D01*
X130391Y-89796D01*
X130391Y-86912D01*
X130391Y-85962D01*
X130324Y-85800D01*
X130200Y-85675D01*
X130038Y-85608D01*
X129862Y-85608D01*
X129700Y-85675D01*
X129575Y-85799D01*
X129508Y-85961D01*
X129508Y-86137D01*
X129575Y-86299D01*
X129699Y-86424D01*
X129861Y-86491D01*
X130037Y-86491D01*
X130199Y-86424D01*
X130324Y-86300D01*
X130391Y-86138D01*
X130391Y-85962D01*
X130391Y-86912D01*
X130324Y-86750D01*
X130200Y-86625D01*
X130038Y-86558D01*
X129862Y-86558D01*
X129700Y-86625D01*
X129575Y-86749D01*
X129508Y-86911D01*
X129508Y-87087D01*
X129575Y-87249D01*
X129699Y-87374D01*
X129861Y-87441D01*
X130037Y-87441D01*
X130199Y-87374D01*
X130324Y-87250D01*
X130391Y-87088D01*
X130391Y-86912D01*
X130391Y-89796D01*
X130335Y-89853D01*
X130341Y-89838D01*
X130341Y-89662D01*
X130341Y-88762D01*
X130274Y-88600D01*
X130150Y-88475D01*
X129988Y-88408D01*
X129812Y-88408D01*
X129650Y-88475D01*
X129525Y-88599D01*
X129458Y-88761D01*
X129458Y-88937D01*
X129525Y-89099D01*
X129649Y-89224D01*
X129811Y-89291D01*
X129987Y-89291D01*
X130149Y-89224D01*
X130274Y-89100D01*
X130341Y-88938D01*
X130341Y-88762D01*
X130341Y-89662D01*
X130274Y-89500D01*
X130150Y-89375D01*
X129988Y-89308D01*
X129812Y-89308D01*
X129650Y-89375D01*
X129525Y-89499D01*
X129458Y-89661D01*
X129458Y-89837D01*
X129525Y-89999D01*
X129649Y-90124D01*
X129811Y-90191D01*
X129987Y-90191D01*
X130003Y-90185D01*
X129517Y-90671D01*
X129510Y-90561D01*
X129458Y-90437D01*
X129368Y-90411D01*
X129366Y-90413D01*
X129366Y-87867D01*
X129303Y-87714D01*
X129277Y-87688D01*
X129277Y-84574D01*
X129181Y-84341D01*
X129003Y-84162D01*
X128770Y-84066D01*
X128518Y-84066D01*
X128285Y-84162D01*
X128106Y-84340D01*
X128009Y-84573D01*
X128009Y-84825D01*
X128106Y-85058D01*
X128284Y-85237D01*
X128517Y-85333D01*
X128769Y-85333D01*
X129002Y-85237D01*
X129180Y-85059D01*
X129277Y-84826D01*
X129277Y-84574D01*
X129277Y-87688D01*
X129186Y-87596D01*
X129033Y-87533D01*
X128867Y-87533D01*
X128714Y-87596D01*
X128596Y-87713D01*
X128533Y-87866D01*
X128533Y-88032D01*
X128596Y-88185D01*
X128713Y-88303D01*
X128866Y-88366D01*
X129032Y-88366D01*
X129185Y-88303D01*
X129303Y-88186D01*
X129366Y-88033D01*
X129366Y-87867D01*
X129366Y-90413D01*
X129288Y-90492D01*
X129288Y-90331D01*
X129262Y-90241D01*
X129067Y-90175D01*
X128861Y-90189D01*
X128737Y-90241D01*
X128711Y-90331D01*
X129000Y-90619D01*
X129288Y-90331D01*
X129288Y-90492D01*
X129080Y-90700D01*
X129085Y-90705D01*
X129005Y-90785D01*
X129000Y-90780D01*
X128919Y-90860D01*
X128919Y-90700D01*
X128631Y-90411D01*
X128541Y-90437D01*
X128475Y-90632D01*
X128489Y-90838D01*
X128541Y-90962D01*
X128631Y-90988D01*
X128919Y-90700D01*
X128919Y-90860D01*
X128711Y-91068D01*
X128737Y-91158D01*
X128932Y-91224D01*
X128966Y-91221D01*
X127939Y-92249D01*
X127939Y-89050D01*
X127939Y-86900D01*
X127917Y-86789D01*
X127854Y-86695D01*
X127854Y-86695D01*
X127690Y-86531D01*
X127690Y-84819D01*
X127679Y-84527D01*
X127588Y-84306D01*
X127475Y-84254D01*
X127395Y-84334D01*
X127395Y-84174D01*
X127343Y-84061D01*
X127069Y-83959D01*
X126777Y-83970D01*
X126556Y-84061D01*
X126504Y-84174D01*
X126950Y-84619D01*
X127395Y-84174D01*
X127395Y-84334D01*
X127030Y-84700D01*
X127475Y-85145D01*
X127588Y-85093D01*
X127690Y-84819D01*
X127690Y-86531D01*
X127395Y-86236D01*
X127395Y-85225D01*
X126950Y-84780D01*
X126869Y-84860D01*
X126869Y-84700D01*
X126424Y-84254D01*
X126311Y-84306D01*
X126209Y-84580D01*
X126220Y-84872D01*
X126311Y-85093D01*
X126424Y-85145D01*
X126869Y-84700D01*
X126869Y-84860D01*
X126504Y-85225D01*
X126556Y-85338D01*
X126830Y-85440D01*
X127122Y-85429D01*
X127343Y-85338D01*
X127395Y-85225D01*
X127395Y-86236D01*
X127004Y-85845D01*
X126910Y-85782D01*
X126800Y-85760D01*
X126285Y-85760D01*
X126230Y-85705D01*
X126230Y-85705D01*
X126217Y-85639D01*
X126154Y-85545D01*
X126154Y-85545D01*
X125456Y-84847D01*
X125456Y-84759D01*
X125387Y-84591D01*
X125259Y-84463D01*
X125091Y-84393D01*
X124909Y-84393D01*
X124741Y-84462D01*
X124643Y-84560D01*
X124235Y-84560D01*
X124150Y-84475D01*
X123988Y-84408D01*
X123812Y-84408D01*
X123650Y-84475D01*
X123564Y-84560D01*
X123285Y-84560D01*
X123250Y-84525D01*
X123088Y-84458D01*
X122912Y-84458D01*
X122750Y-84525D01*
X122625Y-84649D01*
X122558Y-84811D01*
X122558Y-84987D01*
X122625Y-85149D01*
X122749Y-85274D01*
X122852Y-85316D01*
X122721Y-85370D01*
X122693Y-85463D01*
X123000Y-85769D01*
X123306Y-85463D01*
X123278Y-85370D01*
X123135Y-85322D01*
X123249Y-85274D01*
X123374Y-85150D01*
X123378Y-85139D01*
X123564Y-85139D01*
X123649Y-85224D01*
X123811Y-85291D01*
X123987Y-85291D01*
X124149Y-85224D01*
X124235Y-85139D01*
X124643Y-85139D01*
X124740Y-85236D01*
X124908Y-85306D01*
X125090Y-85306D01*
X125095Y-85304D01*
X125582Y-85792D01*
X125575Y-85799D01*
X125508Y-85961D01*
X125508Y-86137D01*
X125575Y-86299D01*
X125699Y-86424D01*
X125861Y-86491D01*
X126037Y-86491D01*
X126199Y-86424D01*
X126285Y-86339D01*
X126680Y-86339D01*
X127360Y-87019D01*
X127360Y-87852D01*
X127303Y-87714D01*
X127186Y-87596D01*
X127033Y-87533D01*
X126867Y-87533D01*
X126714Y-87596D01*
X126596Y-87713D01*
X126533Y-87866D01*
X126533Y-88032D01*
X126596Y-88185D01*
X126713Y-88303D01*
X126866Y-88366D01*
X127032Y-88366D01*
X127185Y-88303D01*
X127303Y-88186D01*
X127360Y-88047D01*
X127360Y-88930D01*
X126391Y-89898D01*
X126391Y-86912D01*
X126324Y-86750D01*
X126200Y-86625D01*
X126038Y-86558D01*
X125862Y-86558D01*
X125700Y-86625D01*
X125575Y-86749D01*
X125508Y-86911D01*
X125508Y-87087D01*
X125575Y-87249D01*
X125699Y-87374D01*
X125861Y-87441D01*
X126037Y-87441D01*
X126199Y-87374D01*
X126324Y-87250D01*
X126391Y-87088D01*
X126391Y-86912D01*
X126391Y-89898D01*
X126341Y-89948D01*
X126341Y-89662D01*
X126341Y-88762D01*
X126274Y-88600D01*
X126150Y-88475D01*
X125988Y-88408D01*
X125812Y-88408D01*
X125650Y-88475D01*
X125525Y-88599D01*
X125458Y-88761D01*
X125458Y-88937D01*
X125525Y-89099D01*
X125649Y-89224D01*
X125811Y-89291D01*
X125987Y-89291D01*
X126149Y-89224D01*
X126274Y-89100D01*
X126341Y-88938D01*
X126341Y-88762D01*
X126341Y-89662D01*
X126274Y-89500D01*
X126150Y-89375D01*
X125988Y-89308D01*
X125812Y-89308D01*
X125650Y-89375D01*
X125525Y-89499D01*
X125458Y-89661D01*
X125458Y-89837D01*
X125525Y-89999D01*
X125649Y-90124D01*
X125811Y-90191D01*
X125987Y-90191D01*
X126149Y-90124D01*
X126274Y-90000D01*
X126341Y-89838D01*
X126341Y-89662D01*
X126341Y-89948D01*
X125745Y-90545D01*
X125705Y-90605D01*
X125596Y-90713D01*
X125533Y-90866D01*
X125533Y-91032D01*
X125596Y-91185D01*
X125713Y-91303D01*
X125866Y-91366D01*
X126032Y-91366D01*
X126185Y-91303D01*
X126303Y-91186D01*
X126366Y-91033D01*
X126366Y-90867D01*
X126330Y-90778D01*
X127854Y-89254D01*
X127854Y-89254D01*
X127917Y-89160D01*
X127939Y-89050D01*
X127939Y-89050D01*
X127939Y-92249D01*
X127416Y-92771D01*
X127416Y-90617D01*
X127353Y-90464D01*
X127236Y-90346D01*
X127083Y-90283D01*
X126917Y-90283D01*
X126764Y-90346D01*
X126646Y-90463D01*
X126583Y-90616D01*
X126583Y-90782D01*
X126646Y-90935D01*
X126763Y-91053D01*
X126916Y-91116D01*
X127082Y-91116D01*
X127235Y-91053D01*
X127353Y-90936D01*
X127416Y-90783D01*
X127416Y-90617D01*
X127416Y-92771D01*
X126468Y-93720D01*
X126468Y-93273D01*
X126468Y-92626D01*
X126431Y-92537D01*
X126366Y-92472D01*
X126366Y-91867D01*
X126303Y-91714D01*
X126186Y-91596D01*
X126033Y-91533D01*
X125867Y-91533D01*
X125714Y-91596D01*
X125596Y-91713D01*
X125533Y-91866D01*
X125533Y-92032D01*
X125596Y-92185D01*
X125713Y-92303D01*
X125866Y-92366D01*
X126032Y-92366D01*
X126185Y-92303D01*
X126303Y-92186D01*
X126366Y-92033D01*
X126366Y-91867D01*
X126366Y-92472D01*
X126363Y-92468D01*
X126273Y-92431D01*
X126176Y-92431D01*
X126067Y-92431D01*
X126006Y-92492D01*
X126006Y-92893D01*
X126407Y-92893D01*
X126468Y-92832D01*
X126468Y-92626D01*
X126468Y-93273D01*
X126468Y-93067D01*
X126407Y-93006D01*
X126006Y-93006D01*
X126006Y-93407D01*
X126067Y-93468D01*
X126176Y-93468D01*
X126273Y-93468D01*
X126363Y-93431D01*
X126431Y-93362D01*
X126468Y-93273D01*
X126468Y-93720D01*
X125893Y-94295D01*
X125893Y-93407D01*
X125893Y-93006D01*
X125893Y-92893D01*
X125893Y-92492D01*
X125832Y-92431D01*
X125723Y-92431D01*
X125626Y-92431D01*
X125536Y-92468D01*
X125511Y-92494D01*
X125511Y-90250D01*
X125456Y-90117D01*
X125456Y-88759D01*
X125387Y-88591D01*
X125259Y-88463D01*
X125091Y-88393D01*
X124909Y-88393D01*
X124741Y-88462D01*
X124613Y-88590D01*
X124543Y-88758D01*
X124543Y-88940D01*
X124612Y-89108D01*
X124740Y-89236D01*
X124908Y-89306D01*
X125090Y-89306D01*
X125258Y-89237D01*
X125386Y-89109D01*
X125456Y-88941D01*
X125456Y-88759D01*
X125456Y-90117D01*
X125450Y-90102D01*
X125337Y-89989D01*
X125190Y-89928D01*
X125030Y-89928D01*
X124882Y-89989D01*
X124769Y-90102D01*
X124761Y-90120D01*
X124761Y-89750D01*
X124700Y-89602D01*
X124587Y-89489D01*
X124440Y-89428D01*
X124341Y-89428D01*
X124341Y-88762D01*
X124274Y-88600D01*
X124150Y-88475D01*
X123988Y-88408D01*
X123812Y-88408D01*
X123650Y-88475D01*
X123549Y-88576D01*
X123549Y-85923D01*
X123535Y-85707D01*
X123479Y-85571D01*
X123386Y-85543D01*
X123080Y-85850D01*
X123386Y-86156D01*
X123479Y-86128D01*
X123549Y-85923D01*
X123549Y-88576D01*
X123525Y-88599D01*
X123458Y-88761D01*
X123458Y-88937D01*
X123525Y-89099D01*
X123649Y-89224D01*
X123811Y-89291D01*
X123987Y-89291D01*
X124149Y-89224D01*
X124274Y-89100D01*
X124341Y-88938D01*
X124341Y-88762D01*
X124341Y-89428D01*
X124280Y-89428D01*
X124132Y-89489D01*
X124019Y-89602D01*
X123958Y-89749D01*
X123958Y-89909D01*
X124019Y-90057D01*
X124132Y-90170D01*
X124279Y-90231D01*
X124439Y-90231D01*
X124587Y-90170D01*
X124700Y-90057D01*
X124761Y-89910D01*
X124761Y-89750D01*
X124761Y-90120D01*
X124708Y-90249D01*
X124708Y-90409D01*
X124769Y-90557D01*
X124781Y-90569D01*
X124717Y-90552D01*
X124637Y-90632D01*
X124637Y-90472D01*
X124613Y-90384D01*
X124423Y-90320D01*
X124224Y-90335D01*
X124106Y-90384D01*
X124082Y-90472D01*
X124360Y-90749D01*
X124637Y-90472D01*
X124637Y-90632D01*
X124440Y-90830D01*
X124717Y-91107D01*
X124805Y-91083D01*
X124869Y-90893D01*
X124854Y-90694D01*
X124818Y-90606D01*
X124882Y-90670D01*
X125029Y-90731D01*
X125189Y-90731D01*
X125337Y-90670D01*
X125450Y-90557D01*
X125511Y-90410D01*
X125511Y-90250D01*
X125511Y-92494D01*
X125468Y-92537D01*
X125431Y-92626D01*
X125431Y-92832D01*
X125492Y-92893D01*
X125893Y-92893D01*
X125893Y-93006D01*
X125492Y-93006D01*
X125431Y-93067D01*
X125431Y-93273D01*
X125468Y-93362D01*
X125536Y-93431D01*
X125626Y-93468D01*
X125723Y-93468D01*
X125832Y-93468D01*
X125893Y-93407D01*
X125893Y-94295D01*
X125159Y-95029D01*
X125159Y-92063D01*
X125144Y-91864D01*
X125095Y-91746D01*
X125007Y-91722D01*
X124927Y-91802D01*
X124927Y-91642D01*
X124903Y-91554D01*
X124713Y-91490D01*
X124637Y-91496D01*
X124637Y-91187D01*
X124360Y-90910D01*
X124279Y-90990D01*
X124279Y-90830D01*
X124002Y-90552D01*
X123914Y-90576D01*
X123850Y-90766D01*
X123865Y-90965D01*
X123914Y-91083D01*
X124002Y-91107D01*
X124279Y-90830D01*
X124279Y-90990D01*
X124082Y-91187D01*
X124106Y-91275D01*
X124296Y-91339D01*
X124495Y-91324D01*
X124613Y-91275D01*
X124637Y-91187D01*
X124637Y-91496D01*
X124514Y-91505D01*
X124396Y-91554D01*
X124372Y-91642D01*
X124650Y-91919D01*
X124927Y-91642D01*
X124927Y-91802D01*
X124730Y-92000D01*
X125007Y-92277D01*
X125095Y-92253D01*
X125159Y-92063D01*
X125159Y-95029D01*
X125156Y-95032D01*
X125156Y-98067D01*
X126074Y-98985D01*
X126067Y-98993D01*
X125051Y-98993D01*
X125051Y-92920D01*
X124990Y-92772D01*
X124927Y-92709D01*
X124927Y-92357D01*
X124650Y-92080D01*
X124569Y-92160D01*
X124569Y-92000D01*
X124292Y-91722D01*
X124204Y-91746D01*
X124140Y-91936D01*
X124155Y-92135D01*
X124191Y-92223D01*
X124127Y-92159D01*
X123980Y-92098D01*
X123820Y-92098D01*
X123672Y-92159D01*
X123559Y-92272D01*
X123498Y-92419D01*
X123498Y-92579D01*
X123559Y-92727D01*
X123672Y-92840D01*
X123819Y-92901D01*
X123979Y-92901D01*
X124127Y-92840D01*
X124240Y-92727D01*
X124301Y-92580D01*
X124301Y-92420D01*
X124240Y-92272D01*
X124228Y-92260D01*
X124292Y-92277D01*
X124569Y-92000D01*
X124569Y-92160D01*
X124372Y-92357D01*
X124396Y-92445D01*
X124586Y-92509D01*
X124785Y-92494D01*
X124903Y-92445D01*
X124927Y-92357D01*
X124927Y-92709D01*
X124877Y-92659D01*
X124730Y-92598D01*
X124570Y-92598D01*
X124422Y-92659D01*
X124309Y-92772D01*
X124248Y-92919D01*
X124248Y-93079D01*
X124309Y-93227D01*
X124422Y-93340D01*
X124569Y-93401D01*
X124729Y-93401D01*
X124877Y-93340D01*
X124990Y-93227D01*
X125051Y-93080D01*
X125051Y-92920D01*
X125051Y-98993D01*
X124141Y-98993D01*
X124141Y-94962D01*
X124074Y-94800D01*
X123950Y-94675D01*
X123916Y-94661D01*
X123916Y-94488D01*
X123949Y-94474D01*
X124074Y-94350D01*
X124141Y-94188D01*
X124141Y-94012D01*
X124074Y-93850D01*
X123950Y-93725D01*
X123916Y-93711D01*
X123916Y-93600D01*
X123900Y-93517D01*
X123853Y-93446D01*
X122788Y-92381D01*
X122811Y-92391D01*
X122987Y-92391D01*
X123149Y-92324D01*
X123274Y-92200D01*
X123341Y-92038D01*
X123341Y-91862D01*
X123341Y-90962D01*
X123324Y-90919D01*
X123324Y-86997D01*
X123310Y-86791D01*
X123306Y-86782D01*
X123306Y-86236D01*
X123000Y-85930D01*
X122919Y-86010D01*
X122919Y-85850D01*
X122613Y-85543D01*
X122520Y-85571D01*
X122450Y-85776D01*
X122464Y-85992D01*
X122520Y-86128D01*
X122613Y-86156D01*
X122919Y-85850D01*
X122919Y-86010D01*
X122693Y-86236D01*
X122721Y-86329D01*
X122926Y-86399D01*
X123142Y-86385D01*
X123278Y-86329D01*
X123306Y-86236D01*
X123306Y-86782D01*
X123258Y-86667D01*
X123168Y-86641D01*
X123088Y-86722D01*
X123088Y-86561D01*
X123062Y-86471D01*
X122867Y-86405D01*
X122661Y-86419D01*
X122537Y-86471D01*
X122511Y-86561D01*
X122800Y-86849D01*
X123088Y-86561D01*
X123088Y-86722D01*
X122880Y-86930D01*
X123168Y-87218D01*
X123258Y-87192D01*
X123324Y-86997D01*
X123324Y-90919D01*
X123274Y-90800D01*
X123216Y-90742D01*
X123216Y-88847D01*
X123216Y-87847D01*
X123153Y-87694D01*
X123088Y-87628D01*
X123088Y-87298D01*
X122800Y-87010D01*
X122719Y-87090D01*
X122719Y-86930D01*
X122431Y-86641D01*
X122341Y-86667D01*
X122275Y-86862D01*
X122289Y-87068D01*
X122341Y-87192D01*
X122431Y-87218D01*
X122719Y-86930D01*
X122719Y-87090D01*
X122511Y-87298D01*
X122537Y-87388D01*
X122732Y-87454D01*
X122938Y-87440D01*
X123062Y-87388D01*
X123088Y-87298D01*
X123088Y-87628D01*
X123036Y-87576D01*
X122883Y-87513D01*
X122717Y-87513D01*
X122564Y-87576D01*
X122446Y-87693D01*
X122383Y-87846D01*
X122383Y-88012D01*
X122446Y-88165D01*
X122563Y-88283D01*
X122716Y-88346D01*
X122882Y-88346D01*
X123035Y-88283D01*
X123153Y-88166D01*
X123216Y-88013D01*
X123216Y-87847D01*
X123216Y-88847D01*
X123153Y-88694D01*
X123036Y-88576D01*
X122883Y-88513D01*
X122717Y-88513D01*
X122564Y-88576D01*
X122446Y-88693D01*
X122383Y-88846D01*
X122383Y-89012D01*
X122446Y-89165D01*
X122563Y-89283D01*
X122716Y-89346D01*
X122882Y-89346D01*
X123035Y-89283D01*
X123153Y-89166D01*
X123216Y-89013D01*
X123216Y-88847D01*
X123216Y-90742D01*
X123216Y-90742D01*
X123216Y-90176D01*
X123216Y-89626D01*
X123195Y-89574D01*
X123155Y-89534D01*
X123103Y-89513D01*
X123046Y-89513D01*
X122496Y-89513D01*
X122444Y-89534D01*
X122404Y-89574D01*
X122383Y-89626D01*
X122383Y-89683D01*
X122383Y-90233D01*
X122404Y-90285D01*
X122444Y-90325D01*
X122496Y-90346D01*
X122553Y-90346D01*
X123103Y-90346D01*
X123155Y-90325D01*
X123195Y-90285D01*
X123216Y-90233D01*
X123216Y-90176D01*
X123216Y-90742D01*
X123150Y-90675D01*
X122988Y-90608D01*
X122812Y-90608D01*
X122650Y-90675D01*
X122525Y-90799D01*
X122458Y-90961D01*
X122458Y-91137D01*
X122525Y-91299D01*
X122649Y-91424D01*
X122811Y-91491D01*
X122987Y-91491D01*
X123149Y-91424D01*
X123274Y-91300D01*
X123341Y-91138D01*
X123341Y-90962D01*
X123341Y-91862D01*
X123274Y-91700D01*
X123150Y-91575D01*
X122988Y-91508D01*
X122812Y-91508D01*
X122650Y-91575D01*
X122525Y-91699D01*
X122458Y-91861D01*
X122458Y-92037D01*
X122468Y-92062D01*
X122266Y-91860D01*
X122266Y-89000D01*
X122250Y-88917D01*
X122203Y-88846D01*
X122203Y-88846D01*
X121133Y-87776D01*
X121062Y-87729D01*
X120980Y-87713D01*
X120216Y-87713D01*
X120216Y-86847D01*
X120153Y-86694D01*
X120036Y-86576D01*
X119883Y-86513D01*
X119792Y-86513D01*
X119375Y-86096D01*
X119441Y-85938D01*
X119441Y-85762D01*
X119374Y-85600D01*
X119289Y-85514D01*
X119289Y-85235D01*
X119374Y-85150D01*
X119441Y-84988D01*
X119441Y-84812D01*
X119374Y-84650D01*
X119250Y-84525D01*
X119088Y-84458D01*
X118912Y-84458D01*
X118750Y-84525D01*
X118625Y-84649D01*
X118558Y-84811D01*
X118558Y-84987D01*
X118625Y-85149D01*
X118710Y-85235D01*
X118710Y-85514D01*
X118625Y-85599D01*
X118558Y-85761D01*
X118558Y-85937D01*
X118625Y-86099D01*
X118724Y-86199D01*
X118732Y-86240D01*
X118795Y-86334D01*
X119383Y-86922D01*
X119383Y-87012D01*
X119446Y-87165D01*
X119563Y-87283D01*
X119716Y-87346D01*
X119882Y-87346D01*
X120035Y-87283D01*
X120153Y-87166D01*
X120216Y-87013D01*
X120216Y-86847D01*
X120216Y-87713D01*
X120161Y-87713D01*
X120153Y-87694D01*
X120036Y-87576D01*
X119883Y-87513D01*
X119717Y-87513D01*
X119564Y-87576D01*
X119446Y-87693D01*
X119383Y-87846D01*
X119383Y-88012D01*
X119446Y-88165D01*
X119563Y-88283D01*
X119716Y-88346D01*
X119882Y-88346D01*
X120035Y-88283D01*
X120153Y-88166D01*
X120161Y-88146D01*
X120890Y-88146D01*
X121833Y-89089D01*
X121833Y-91950D01*
X121849Y-92032D01*
X121896Y-92103D01*
X122377Y-92583D01*
X122217Y-92583D01*
X122064Y-92646D01*
X121946Y-92763D01*
X121883Y-92916D01*
X121883Y-93082D01*
X121946Y-93235D01*
X122063Y-93353D01*
X122216Y-93416D01*
X122382Y-93416D01*
X122535Y-93353D01*
X122653Y-93236D01*
X122716Y-93083D01*
X122716Y-92923D01*
X123483Y-93689D01*
X123483Y-93711D01*
X123450Y-93725D01*
X123325Y-93849D01*
X123258Y-94011D01*
X123258Y-94187D01*
X123325Y-94349D01*
X123449Y-94474D01*
X123483Y-94488D01*
X123483Y-94661D01*
X123450Y-94675D01*
X123325Y-94799D01*
X123258Y-94961D01*
X123258Y-95137D01*
X123325Y-95299D01*
X123449Y-95424D01*
X123611Y-95491D01*
X123787Y-95491D01*
X123949Y-95424D01*
X124074Y-95300D01*
X124141Y-95138D01*
X124141Y-94962D01*
X124141Y-98993D01*
X121991Y-98993D01*
X121991Y-97012D01*
X121991Y-97012D01*
X121991Y-96371D01*
X121991Y-95771D01*
X121970Y-95719D01*
X121930Y-95679D01*
X121878Y-95658D01*
X121821Y-95658D01*
X121716Y-95658D01*
X121716Y-92917D01*
X121653Y-92764D01*
X121536Y-92646D01*
X121383Y-92583D01*
X121217Y-92583D01*
X121064Y-92646D01*
X120946Y-92763D01*
X120883Y-92916D01*
X120883Y-93082D01*
X120946Y-93235D01*
X121063Y-93353D01*
X121216Y-93416D01*
X121382Y-93416D01*
X121535Y-93353D01*
X121653Y-93236D01*
X121716Y-93083D01*
X121716Y-92917D01*
X121716Y-95658D01*
X121221Y-95658D01*
X121169Y-95679D01*
X121129Y-95719D01*
X121108Y-95771D01*
X121108Y-95828D01*
X121108Y-96428D01*
X121129Y-96480D01*
X121169Y-96520D01*
X121221Y-96541D01*
X121278Y-96541D01*
X121878Y-96541D01*
X121930Y-96520D01*
X121970Y-96480D01*
X121991Y-96428D01*
X121991Y-96371D01*
X121991Y-97012D01*
X121924Y-96850D01*
X121800Y-96725D01*
X121638Y-96658D01*
X121462Y-96658D01*
X121300Y-96725D01*
X121175Y-96849D01*
X121108Y-97011D01*
X121108Y-97187D01*
X121175Y-97349D01*
X121299Y-97474D01*
X121461Y-97541D01*
X121637Y-97541D01*
X121799Y-97474D01*
X121924Y-97350D01*
X121991Y-97188D01*
X121991Y-97012D01*
X121991Y-98993D01*
X121300Y-98993D01*
X121299Y-98993D01*
X121125Y-99028D01*
X120991Y-99117D01*
X120991Y-97012D01*
X120991Y-96012D01*
X120924Y-95850D01*
X120800Y-95725D01*
X120766Y-95711D01*
X120766Y-95600D01*
X120750Y-95517D01*
X120716Y-95467D01*
X120716Y-93246D01*
X120716Y-92696D01*
X120695Y-92644D01*
X120655Y-92604D01*
X120603Y-92583D01*
X120546Y-92583D01*
X119996Y-92583D01*
X119944Y-92604D01*
X119904Y-92644D01*
X119883Y-92696D01*
X119883Y-92753D01*
X119883Y-93303D01*
X119904Y-93355D01*
X119944Y-93395D01*
X119996Y-93416D01*
X120053Y-93416D01*
X120603Y-93416D01*
X120655Y-93395D01*
X120695Y-93355D01*
X120716Y-93303D01*
X120716Y-93246D01*
X120716Y-95467D01*
X120703Y-95446D01*
X120703Y-95446D01*
X120153Y-94896D01*
X120141Y-94889D01*
X120141Y-94012D01*
X120074Y-93850D01*
X119950Y-93725D01*
X119788Y-93658D01*
X119612Y-93658D01*
X119450Y-93725D01*
X119325Y-93849D01*
X119258Y-94011D01*
X119258Y-94187D01*
X119325Y-94349D01*
X119449Y-94474D01*
X119611Y-94541D01*
X119787Y-94541D01*
X119949Y-94474D01*
X120074Y-94350D01*
X120141Y-94188D01*
X120141Y-94012D01*
X120141Y-94889D01*
X120100Y-94861D01*
X120074Y-94800D01*
X119950Y-94675D01*
X119788Y-94608D01*
X119612Y-94608D01*
X119450Y-94675D01*
X119415Y-94709D01*
X119216Y-94510D01*
X119216Y-93289D01*
X120753Y-91753D01*
X120753Y-91753D01*
X120753Y-91753D01*
X120800Y-91682D01*
X120800Y-91682D01*
X120813Y-91616D01*
X120816Y-91600D01*
X120816Y-91600D01*
X120816Y-91600D01*
X120816Y-89450D01*
X120800Y-89367D01*
X120753Y-89296D01*
X120233Y-88776D01*
X120170Y-88734D01*
X120153Y-88694D01*
X120036Y-88576D01*
X119883Y-88513D01*
X119717Y-88513D01*
X119564Y-88576D01*
X119446Y-88693D01*
X119383Y-88846D01*
X119383Y-89012D01*
X119446Y-89165D01*
X119563Y-89283D01*
X119716Y-89346D01*
X119882Y-89346D01*
X120035Y-89283D01*
X120081Y-89237D01*
X120383Y-89539D01*
X120383Y-91510D01*
X120216Y-91676D01*
X120216Y-89847D01*
X120153Y-89694D01*
X120036Y-89576D01*
X119883Y-89513D01*
X119717Y-89513D01*
X119564Y-89576D01*
X119446Y-89693D01*
X119383Y-89846D01*
X119383Y-90012D01*
X119446Y-90165D01*
X119510Y-90229D01*
X119510Y-91330D01*
X119341Y-91498D01*
X119341Y-90962D01*
X119274Y-90800D01*
X119150Y-90675D01*
X118988Y-90608D01*
X118812Y-90608D01*
X118650Y-90675D01*
X118525Y-90799D01*
X118458Y-90961D01*
X118458Y-91137D01*
X118525Y-91299D01*
X118649Y-91424D01*
X118811Y-91491D01*
X118987Y-91491D01*
X119149Y-91424D01*
X119274Y-91300D01*
X119341Y-91138D01*
X119341Y-90962D01*
X119341Y-91498D01*
X119207Y-91633D01*
X119150Y-91575D01*
X118988Y-91508D01*
X118812Y-91508D01*
X118650Y-91575D01*
X118525Y-91699D01*
X118458Y-91861D01*
X118458Y-92037D01*
X118525Y-92199D01*
X118649Y-92324D01*
X118811Y-92391D01*
X118987Y-92391D01*
X119149Y-92324D01*
X119235Y-92239D01*
X119300Y-92239D01*
X119300Y-92239D01*
X119410Y-92217D01*
X119504Y-92154D01*
X120004Y-91654D01*
X120004Y-91654D01*
X120067Y-91560D01*
X120089Y-91450D01*
X120089Y-91450D01*
X120089Y-90229D01*
X120153Y-90166D01*
X120216Y-90013D01*
X120216Y-89847D01*
X120216Y-91676D01*
X118846Y-93046D01*
X118799Y-93117D01*
X118783Y-93200D01*
X118783Y-94600D01*
X118799Y-94682D01*
X118846Y-94753D01*
X119277Y-95183D01*
X119325Y-95299D01*
X119449Y-95424D01*
X119611Y-95491D01*
X119787Y-95491D01*
X119949Y-95424D01*
X120009Y-95365D01*
X120333Y-95689D01*
X120333Y-95711D01*
X120300Y-95725D01*
X120175Y-95849D01*
X120108Y-96011D01*
X120108Y-96187D01*
X120175Y-96349D01*
X120299Y-96474D01*
X120461Y-96541D01*
X120637Y-96541D01*
X120799Y-96474D01*
X120924Y-96350D01*
X120991Y-96188D01*
X120991Y-96012D01*
X120991Y-97012D01*
X120924Y-96850D01*
X120800Y-96725D01*
X120638Y-96658D01*
X120462Y-96658D01*
X120300Y-96725D01*
X120175Y-96849D01*
X120108Y-97011D01*
X120108Y-97187D01*
X120175Y-97349D01*
X120299Y-97474D01*
X120461Y-97541D01*
X120637Y-97541D01*
X120799Y-97474D01*
X120924Y-97350D01*
X120991Y-97188D01*
X120991Y-97012D01*
X120991Y-99117D01*
X120977Y-99127D01*
X120977Y-99127D01*
X120277Y-99827D01*
X120178Y-99975D01*
X120143Y-100150D01*
X120143Y-100343D01*
X119600Y-100343D01*
X119525Y-100358D01*
X119512Y-100358D01*
X119500Y-100363D01*
X119425Y-100378D01*
X119361Y-100420D01*
X119350Y-100425D01*
X119341Y-100434D01*
X119277Y-100477D01*
X119234Y-100540D01*
X119225Y-100549D01*
X119220Y-100561D01*
X119178Y-100625D01*
X119163Y-100700D01*
X119158Y-100711D01*
X119158Y-100724D01*
X119143Y-100800D01*
X119158Y-100874D01*
X119158Y-100887D01*
X119163Y-100899D01*
X119178Y-100974D01*
X119220Y-101038D01*
X119225Y-101049D01*
X119234Y-101058D01*
X119277Y-101122D01*
X119340Y-101165D01*
X119349Y-101174D01*
X119361Y-101179D01*
X119425Y-101221D01*
X119500Y-101236D01*
X119511Y-101241D01*
X119524Y-101241D01*
X119600Y-101256D01*
X120143Y-101256D01*
X120143Y-101343D01*
X119600Y-101343D01*
X119524Y-101358D01*
X119271Y-101358D01*
X119219Y-101379D01*
X119179Y-101419D01*
X119158Y-101471D01*
X119158Y-101528D01*
X119158Y-101724D01*
X119143Y-101800D01*
X119158Y-101875D01*
X119158Y-102128D01*
X119179Y-102180D01*
X119219Y-102220D01*
X119271Y-102241D01*
X119328Y-102241D01*
X119524Y-102241D01*
X119600Y-102256D01*
X120143Y-102256D01*
X120143Y-102450D01*
X120178Y-102624D01*
X120277Y-102772D01*
X122877Y-105372D01*
X123025Y-105471D01*
X123200Y-105506D01*
X124610Y-105506D01*
X125243Y-106139D01*
X125243Y-106550D01*
X125278Y-106724D01*
X125377Y-106872D01*
X125525Y-106971D01*
X125700Y-107006D01*
X125874Y-106971D01*
X126022Y-106872D01*
X126121Y-106724D01*
X126156Y-106550D01*
X126156Y-105950D01*
X126121Y-105775D01*
X126041Y-105655D01*
X126041Y-101712D01*
X126041Y-100712D01*
X125974Y-100550D01*
X125850Y-100425D01*
X125688Y-100358D01*
X125512Y-100358D01*
X125350Y-100425D01*
X125225Y-100549D01*
X125158Y-100711D01*
X125158Y-100887D01*
X125225Y-101049D01*
X125349Y-101174D01*
X125511Y-101241D01*
X125687Y-101241D01*
X125849Y-101174D01*
X125974Y-101050D01*
X126041Y-100888D01*
X126041Y-100712D01*
X126041Y-101712D01*
X125974Y-101550D01*
X125850Y-101425D01*
X125688Y-101358D01*
X125512Y-101358D01*
X125350Y-101425D01*
X125225Y-101549D01*
X125158Y-101711D01*
X125158Y-101887D01*
X125225Y-102049D01*
X125349Y-102174D01*
X125511Y-102241D01*
X125687Y-102241D01*
X125849Y-102174D01*
X125974Y-102050D01*
X126041Y-101888D01*
X126041Y-101712D01*
X126041Y-105655D01*
X126022Y-105627D01*
X125122Y-104727D01*
X125041Y-104672D01*
X125041Y-101712D01*
X125041Y-100712D01*
X124974Y-100550D01*
X124850Y-100425D01*
X124688Y-100358D01*
X124512Y-100358D01*
X124350Y-100425D01*
X124225Y-100549D01*
X124158Y-100711D01*
X124158Y-100887D01*
X124225Y-101049D01*
X124349Y-101174D01*
X124511Y-101241D01*
X124687Y-101241D01*
X124849Y-101174D01*
X124974Y-101050D01*
X125041Y-100888D01*
X125041Y-100712D01*
X125041Y-101712D01*
X124974Y-101550D01*
X124850Y-101425D01*
X124688Y-101358D01*
X124512Y-101358D01*
X124350Y-101425D01*
X124225Y-101549D01*
X124158Y-101711D01*
X124158Y-101887D01*
X124225Y-102049D01*
X124349Y-102174D01*
X124511Y-102241D01*
X124687Y-102241D01*
X124849Y-102174D01*
X124974Y-102050D01*
X125041Y-101888D01*
X125041Y-101712D01*
X125041Y-104672D01*
X124974Y-104628D01*
X124800Y-104593D01*
X124041Y-104593D01*
X124041Y-101712D01*
X124041Y-100712D01*
X123974Y-100550D01*
X123850Y-100425D01*
X123688Y-100358D01*
X123512Y-100358D01*
X123350Y-100425D01*
X123225Y-100549D01*
X123158Y-100711D01*
X123158Y-100887D01*
X123225Y-101049D01*
X123349Y-101174D01*
X123511Y-101241D01*
X123687Y-101241D01*
X123849Y-101174D01*
X123974Y-101050D01*
X124041Y-100888D01*
X124041Y-100712D01*
X124041Y-101712D01*
X123974Y-101550D01*
X123850Y-101425D01*
X123688Y-101358D01*
X123512Y-101358D01*
X123350Y-101425D01*
X123225Y-101549D01*
X123158Y-101711D01*
X123158Y-101887D01*
X123225Y-102049D01*
X123349Y-102174D01*
X123511Y-102241D01*
X123687Y-102241D01*
X123849Y-102174D01*
X123974Y-102050D01*
X124041Y-101888D01*
X124041Y-101712D01*
X124041Y-104593D01*
X123389Y-104593D01*
X123041Y-104245D01*
X123041Y-101712D01*
X123041Y-100712D01*
X122974Y-100550D01*
X122850Y-100425D01*
X122688Y-100358D01*
X122512Y-100358D01*
X122350Y-100425D01*
X122225Y-100549D01*
X122158Y-100711D01*
X122158Y-100887D01*
X122225Y-101049D01*
X122349Y-101174D01*
X122511Y-101241D01*
X122687Y-101241D01*
X122849Y-101174D01*
X122974Y-101050D01*
X123041Y-100888D01*
X123041Y-100712D01*
X123041Y-101712D01*
X122974Y-101550D01*
X122850Y-101425D01*
X122688Y-101358D01*
X122512Y-101358D01*
X122350Y-101425D01*
X122225Y-101549D01*
X122158Y-101711D01*
X122158Y-101887D01*
X122225Y-102049D01*
X122349Y-102174D01*
X122511Y-102241D01*
X122687Y-102241D01*
X122849Y-102174D01*
X122974Y-102050D01*
X123041Y-101888D01*
X123041Y-101712D01*
X123041Y-104245D01*
X122041Y-103245D01*
X122041Y-101712D01*
X122041Y-100712D01*
X121974Y-100550D01*
X121850Y-100425D01*
X121688Y-100358D01*
X121512Y-100358D01*
X121350Y-100425D01*
X121225Y-100549D01*
X121158Y-100711D01*
X121158Y-100887D01*
X121225Y-101049D01*
X121349Y-101174D01*
X121511Y-101241D01*
X121687Y-101241D01*
X121849Y-101174D01*
X121974Y-101050D01*
X122041Y-100888D01*
X122041Y-100712D01*
X122041Y-101712D01*
X121974Y-101550D01*
X121850Y-101425D01*
X121688Y-101358D01*
X121512Y-101358D01*
X121350Y-101425D01*
X121225Y-101549D01*
X121158Y-101711D01*
X121158Y-101887D01*
X121225Y-102049D01*
X121349Y-102174D01*
X121511Y-102241D01*
X121687Y-102241D01*
X121849Y-102174D01*
X121974Y-102050D01*
X122041Y-101888D01*
X122041Y-101712D01*
X122041Y-103245D01*
X121056Y-102260D01*
X121056Y-101800D01*
X121056Y-100800D01*
X121056Y-100339D01*
X121489Y-99906D01*
X126256Y-99906D01*
X126431Y-99871D01*
X126431Y-99871D01*
X126579Y-99772D01*
X126720Y-99631D01*
X126882Y-99793D01*
X128832Y-99793D01*
X130106Y-101067D01*
X130106Y-105893D01*
X131232Y-105893D01*
X133606Y-108267D01*
X133606Y-110638D01*
G54D10*
G36*
X149433Y-111410D02*
X149236Y-111607D01*
X149236Y-111166D01*
X149226Y-111142D01*
X149226Y-107366D01*
X149179Y-107253D01*
X149179Y-102289D01*
X149174Y-102277D01*
X149174Y-101119D01*
X149105Y-100951D01*
X148976Y-100823D01*
X148809Y-100753D01*
X148627Y-100753D01*
X148459Y-100822D01*
X148330Y-100950D01*
X148261Y-101118D01*
X148260Y-101300D01*
X148330Y-101468D01*
X148458Y-101596D01*
X148626Y-101666D01*
X148808Y-101666D01*
X148976Y-101597D01*
X149104Y-101469D01*
X149174Y-101301D01*
X149174Y-101119D01*
X149174Y-102277D01*
X149110Y-102121D01*
X148981Y-101993D01*
X148814Y-101923D01*
X148632Y-101923D01*
X148464Y-101992D01*
X148335Y-102120D01*
X148266Y-102288D01*
X148265Y-102470D01*
X148335Y-102638D01*
X148463Y-102766D01*
X148631Y-102836D01*
X148813Y-102836D01*
X148981Y-102767D01*
X149109Y-102639D01*
X149179Y-102471D01*
X149179Y-102289D01*
X149179Y-107253D01*
X149169Y-107229D01*
X149169Y-103529D01*
X149100Y-103361D01*
X148971Y-103233D01*
X148804Y-103163D01*
X148622Y-103163D01*
X148454Y-103232D01*
X148325Y-103360D01*
X148256Y-103528D01*
X148255Y-103710D01*
X148325Y-103878D01*
X148453Y-104006D01*
X148621Y-104076D01*
X148803Y-104076D01*
X148971Y-104007D01*
X149099Y-103879D01*
X149169Y-103711D01*
X149169Y-103529D01*
X149169Y-107229D01*
X149162Y-107211D01*
X149043Y-107092D01*
X148888Y-107028D01*
X148720Y-107028D01*
X148565Y-107092D01*
X148447Y-107210D01*
X148382Y-107365D01*
X148382Y-107533D01*
X148446Y-107688D01*
X148565Y-107807D01*
X148720Y-107871D01*
X148887Y-107871D01*
X149042Y-107807D01*
X149161Y-107689D01*
X149225Y-107534D01*
X149226Y-107366D01*
X149226Y-111142D01*
X149172Y-111011D01*
X149053Y-110892D01*
X148898Y-110828D01*
X148730Y-110828D01*
X148575Y-110892D01*
X148457Y-111010D01*
X148392Y-111165D01*
X148392Y-111333D01*
X148456Y-111488D01*
X148575Y-111607D01*
X148730Y-111671D01*
X148897Y-111671D01*
X149052Y-111607D01*
X149171Y-111489D01*
X149235Y-111334D01*
X149236Y-111166D01*
X149236Y-111607D01*
X147760Y-113083D01*
X146557Y-113083D01*
X146557Y-104804D01*
X146461Y-104571D01*
X146283Y-104392D01*
X146050Y-104296D01*
X145798Y-104296D01*
X145565Y-104392D01*
X145386Y-104570D01*
X145373Y-104601D01*
X145373Y-99374D01*
X145277Y-99141D01*
X145099Y-98962D01*
X144866Y-98866D01*
X144614Y-98866D01*
X144381Y-98962D01*
X144202Y-99140D01*
X144106Y-99373D01*
X144106Y-99625D01*
X144202Y-99858D01*
X144380Y-100037D01*
X144613Y-100133D01*
X144865Y-100133D01*
X145098Y-100037D01*
X145277Y-99859D01*
X145373Y-99626D01*
X145373Y-99374D01*
X145373Y-104601D01*
X145289Y-104803D01*
X145289Y-105055D01*
X145386Y-105288D01*
X145564Y-105467D01*
X145797Y-105563D01*
X146049Y-105563D01*
X146282Y-105467D01*
X146460Y-105289D01*
X146557Y-105056D01*
X146557Y-104804D01*
X146557Y-113083D01*
X144242Y-113083D01*
X144242Y-105049D01*
X144231Y-104757D01*
X144140Y-104536D01*
X144027Y-104484D01*
X144023Y-104488D01*
X144023Y-99674D01*
X143927Y-99441D01*
X143749Y-99262D01*
X143516Y-99166D01*
X143264Y-99166D01*
X143031Y-99262D01*
X142852Y-99440D01*
X142756Y-99673D01*
X142756Y-99925D01*
X142852Y-100158D01*
X143030Y-100337D01*
X143263Y-100433D01*
X143515Y-100433D01*
X143748Y-100337D01*
X143927Y-100159D01*
X144023Y-99926D01*
X144023Y-99674D01*
X144023Y-104488D01*
X143947Y-104564D01*
X143947Y-104404D01*
X143895Y-104291D01*
X143621Y-104189D01*
X143376Y-104198D01*
X143376Y-101287D01*
X143362Y-101065D01*
X143303Y-100922D01*
X143209Y-100892D01*
X143129Y-100972D01*
X143129Y-100812D01*
X143099Y-100718D01*
X142889Y-100646D01*
X142667Y-100659D01*
X142525Y-100718D01*
X142495Y-100812D01*
X142812Y-101129D01*
X143129Y-100812D01*
X143129Y-100972D01*
X142892Y-101210D01*
X143209Y-101527D01*
X143303Y-101497D01*
X143376Y-101287D01*
X143376Y-104198D01*
X143371Y-104198D01*
X143371Y-103697D01*
X143357Y-103475D01*
X143298Y-103332D01*
X143274Y-103325D01*
X143274Y-102289D01*
X143204Y-102121D01*
X143129Y-102046D01*
X143129Y-101607D01*
X142812Y-101290D01*
X142732Y-101370D01*
X142732Y-101210D01*
X142414Y-100892D01*
X142320Y-100922D01*
X142248Y-101132D01*
X142261Y-101354D01*
X142320Y-101497D01*
X142414Y-101527D01*
X142732Y-101210D01*
X142732Y-101370D01*
X142495Y-101607D01*
X142525Y-101701D01*
X142735Y-101773D01*
X142956Y-101760D01*
X143099Y-101701D01*
X143129Y-101607D01*
X143129Y-102046D01*
X143076Y-101993D01*
X142908Y-101923D01*
X142726Y-101923D01*
X142558Y-101992D01*
X142430Y-102120D01*
X142360Y-102288D01*
X142360Y-102470D01*
X142429Y-102638D01*
X142558Y-102766D01*
X142725Y-102836D01*
X142907Y-102836D01*
X143075Y-102767D01*
X143204Y-102639D01*
X143273Y-102471D01*
X143274Y-102289D01*
X143274Y-103325D01*
X143204Y-103302D01*
X143124Y-103382D01*
X143124Y-103222D01*
X143094Y-103128D01*
X142884Y-103056D01*
X142662Y-103069D01*
X142520Y-103128D01*
X142490Y-103222D01*
X142807Y-103539D01*
X143124Y-103222D01*
X143124Y-103382D01*
X142887Y-103620D01*
X143204Y-103937D01*
X143298Y-103907D01*
X143371Y-103697D01*
X143371Y-104198D01*
X143329Y-104200D01*
X143124Y-104285D01*
X143124Y-104017D01*
X142807Y-103700D01*
X142727Y-103780D01*
X142727Y-103620D01*
X142409Y-103302D01*
X142315Y-103332D01*
X142243Y-103542D01*
X142256Y-103764D01*
X142315Y-103907D01*
X142409Y-103937D01*
X142727Y-103620D01*
X142727Y-103780D01*
X142490Y-104017D01*
X142520Y-104111D01*
X142730Y-104183D01*
X142951Y-104170D01*
X143094Y-104111D01*
X143124Y-104017D01*
X143124Y-104285D01*
X143108Y-104291D01*
X143056Y-104404D01*
X143502Y-104849D01*
X143947Y-104404D01*
X143947Y-104564D01*
X143582Y-104930D01*
X144027Y-105375D01*
X144140Y-105323D01*
X144242Y-105049D01*
X144242Y-113083D01*
X143947Y-113083D01*
X143947Y-105455D01*
X143502Y-105010D01*
X143421Y-105090D01*
X143421Y-104930D01*
X142976Y-104484D01*
X142863Y-104536D01*
X142761Y-104810D01*
X142772Y-105102D01*
X142863Y-105323D01*
X142976Y-105375D01*
X143421Y-104930D01*
X143421Y-105090D01*
X143056Y-105455D01*
X143108Y-105568D01*
X143382Y-105670D01*
X143675Y-105659D01*
X143895Y-105568D01*
X143947Y-105455D01*
X143947Y-113083D01*
X143527Y-113083D01*
X143527Y-111166D01*
X143517Y-111142D01*
X143517Y-107366D01*
X143453Y-107211D01*
X143334Y-107092D01*
X143179Y-107028D01*
X143012Y-107028D01*
X142857Y-107092D01*
X142738Y-107210D01*
X142674Y-107365D01*
X142673Y-107533D01*
X142737Y-107688D01*
X142856Y-107807D01*
X143011Y-107871D01*
X143179Y-107871D01*
X143334Y-107807D01*
X143452Y-107689D01*
X143517Y-107534D01*
X143517Y-107366D01*
X143517Y-111142D01*
X143463Y-111011D01*
X143344Y-110892D01*
X143189Y-110828D01*
X143022Y-110828D01*
X142867Y-110892D01*
X142748Y-111010D01*
X142684Y-111165D01*
X142683Y-111333D01*
X142747Y-111488D01*
X142866Y-111607D01*
X143021Y-111671D01*
X143189Y-111671D01*
X143344Y-111607D01*
X143462Y-111489D01*
X143527Y-111334D01*
X143527Y-111166D01*
X143527Y-113083D01*
X142583Y-113083D01*
X142583Y-112117D01*
X142581Y-112080D01*
X142581Y-106392D01*
X142561Y-106344D01*
X142561Y-105232D01*
X142494Y-105070D01*
X142370Y-104945D01*
X142208Y-104878D01*
X142032Y-104878D01*
X141870Y-104945D01*
X141745Y-105069D01*
X141678Y-105231D01*
X141678Y-105407D01*
X141745Y-105569D01*
X141869Y-105694D01*
X142031Y-105761D01*
X142207Y-105761D01*
X142369Y-105694D01*
X142494Y-105570D01*
X142561Y-105408D01*
X142561Y-105232D01*
X142561Y-106344D01*
X142514Y-106230D01*
X142390Y-106105D01*
X142228Y-106038D01*
X142052Y-106038D01*
X141890Y-106105D01*
X141765Y-106229D01*
X141698Y-106391D01*
X141698Y-106567D01*
X141765Y-106729D01*
X141889Y-106854D01*
X142051Y-106921D01*
X142227Y-106921D01*
X142389Y-106854D01*
X142514Y-106730D01*
X142581Y-106568D01*
X142581Y-106392D01*
X142581Y-112080D01*
X142570Y-111895D01*
X142511Y-111752D01*
X142461Y-111737D01*
X142461Y-110872D01*
X142394Y-110710D01*
X142296Y-110612D01*
X142296Y-109657D01*
X142296Y-108697D01*
X142296Y-107557D01*
X142233Y-107404D01*
X142116Y-107286D01*
X141963Y-107223D01*
X141797Y-107223D01*
X141644Y-107286D01*
X141526Y-107403D01*
X141463Y-107556D01*
X141463Y-107722D01*
X141526Y-107875D01*
X141643Y-107993D01*
X141796Y-108056D01*
X141962Y-108056D01*
X142115Y-107993D01*
X142233Y-107876D01*
X142296Y-107723D01*
X142296Y-107557D01*
X142296Y-108697D01*
X142233Y-108544D01*
X142116Y-108426D01*
X141963Y-108363D01*
X141797Y-108363D01*
X141644Y-108426D01*
X141526Y-108543D01*
X141463Y-108696D01*
X141463Y-108862D01*
X141526Y-109015D01*
X141643Y-109133D01*
X141796Y-109196D01*
X141962Y-109196D01*
X142115Y-109133D01*
X142233Y-109016D01*
X142296Y-108863D01*
X142296Y-108697D01*
X142296Y-109657D01*
X142233Y-109504D01*
X142116Y-109386D01*
X141963Y-109323D01*
X141797Y-109323D01*
X141644Y-109386D01*
X141526Y-109503D01*
X141463Y-109656D01*
X141463Y-109822D01*
X141526Y-109975D01*
X141643Y-110093D01*
X141796Y-110156D01*
X141962Y-110156D01*
X142115Y-110093D01*
X142233Y-109976D01*
X142296Y-109823D01*
X142296Y-109657D01*
X142296Y-110612D01*
X142270Y-110585D01*
X142108Y-110518D01*
X141932Y-110518D01*
X141770Y-110585D01*
X141645Y-110709D01*
X141578Y-110871D01*
X141578Y-111047D01*
X141645Y-111209D01*
X141769Y-111334D01*
X141931Y-111401D01*
X142107Y-111401D01*
X142269Y-111334D01*
X142394Y-111210D01*
X142461Y-111048D01*
X142461Y-110872D01*
X142461Y-111737D01*
X142417Y-111722D01*
X142337Y-111802D01*
X142337Y-111642D01*
X142307Y-111548D01*
X142097Y-111476D01*
X141875Y-111489D01*
X141732Y-111548D01*
X141702Y-111642D01*
X142020Y-111959D01*
X142337Y-111642D01*
X142337Y-111802D01*
X142100Y-112040D01*
X142417Y-112357D01*
X142511Y-112327D01*
X142583Y-112117D01*
X142583Y-113083D01*
X142337Y-113083D01*
X142337Y-112437D01*
X142020Y-112120D01*
X141939Y-112200D01*
X141939Y-112040D01*
X141622Y-111722D01*
X141528Y-111752D01*
X141456Y-111962D01*
X141469Y-112184D01*
X141528Y-112327D01*
X141622Y-112357D01*
X141939Y-112040D01*
X141939Y-112200D01*
X141702Y-112437D01*
X141732Y-112531D01*
X141942Y-112603D01*
X142164Y-112590D01*
X142307Y-112531D01*
X142337Y-112437D01*
X142337Y-113083D01*
X140404Y-113083D01*
X140404Y-108847D01*
X140404Y-107707D01*
X140390Y-107501D01*
X140338Y-107377D01*
X140248Y-107351D01*
X140168Y-107432D01*
X140168Y-107271D01*
X140142Y-107181D01*
X140113Y-107171D01*
X140113Y-104331D01*
X140113Y-103728D01*
X140113Y-103631D01*
X140076Y-103541D01*
X140007Y-103473D01*
X139918Y-103436D01*
X139808Y-103436D01*
X139936Y-103308D01*
X140011Y-103128D01*
X140011Y-102932D01*
X140011Y-101932D01*
X139937Y-101751D01*
X139798Y-101613D01*
X139618Y-101538D01*
X139422Y-101538D01*
X139241Y-101612D01*
X139103Y-101751D01*
X139028Y-101931D01*
X139028Y-102127D01*
X139102Y-102308D01*
X139241Y-102446D01*
X139421Y-102521D01*
X139617Y-102521D01*
X139798Y-102447D01*
X139936Y-102308D01*
X140011Y-102128D01*
X140011Y-101932D01*
X140011Y-102932D01*
X139937Y-102751D01*
X139798Y-102613D01*
X139618Y-102538D01*
X139422Y-102538D01*
X139241Y-102612D01*
X139103Y-102751D01*
X139028Y-102931D01*
X139028Y-103127D01*
X139102Y-103308D01*
X139231Y-103436D01*
X139121Y-103436D01*
X139032Y-103473D01*
X138963Y-103541D01*
X138926Y-103631D01*
X138926Y-103728D01*
X138926Y-103912D01*
X138987Y-103973D01*
X139463Y-103973D01*
X139463Y-103965D01*
X139576Y-103965D01*
X139576Y-103973D01*
X140052Y-103973D01*
X140113Y-103912D01*
X140113Y-103728D01*
X140113Y-104331D01*
X140113Y-104147D01*
X140052Y-104086D01*
X139576Y-104086D01*
X139576Y-104562D01*
X139637Y-104623D01*
X139918Y-104623D01*
X140007Y-104586D01*
X140076Y-104518D01*
X140113Y-104428D01*
X140113Y-104331D01*
X140113Y-107171D01*
X139947Y-107115D01*
X139741Y-107129D01*
X139617Y-107181D01*
X139591Y-107271D01*
X139880Y-107559D01*
X140168Y-107271D01*
X140168Y-107432D01*
X139960Y-107640D01*
X140248Y-107928D01*
X140338Y-107902D01*
X140404Y-107707D01*
X140404Y-108847D01*
X140390Y-108641D01*
X140338Y-108517D01*
X140248Y-108491D01*
X140168Y-108572D01*
X140168Y-108411D01*
X140168Y-108008D01*
X139880Y-107720D01*
X139799Y-107800D01*
X139799Y-107640D01*
X139511Y-107351D01*
X139463Y-107365D01*
X139463Y-104562D01*
X139463Y-104086D01*
X138987Y-104086D01*
X138926Y-104147D01*
X138926Y-104331D01*
X138926Y-104428D01*
X138963Y-104518D01*
X139032Y-104586D01*
X139121Y-104623D01*
X139402Y-104623D01*
X139463Y-104562D01*
X139463Y-107365D01*
X139421Y-107377D01*
X139355Y-107572D01*
X139369Y-107778D01*
X139421Y-107902D01*
X139511Y-107928D01*
X139799Y-107640D01*
X139799Y-107800D01*
X139591Y-108008D01*
X139617Y-108098D01*
X139812Y-108164D01*
X140018Y-108150D01*
X140142Y-108098D01*
X140168Y-108008D01*
X140168Y-108411D01*
X140142Y-108321D01*
X139947Y-108255D01*
X139741Y-108269D01*
X139617Y-108321D01*
X139591Y-108411D01*
X139880Y-108699D01*
X140168Y-108411D01*
X140168Y-108572D01*
X139960Y-108780D01*
X140248Y-109068D01*
X140338Y-109042D01*
X140404Y-108847D01*
X140404Y-113083D01*
X140296Y-113083D01*
X140296Y-109657D01*
X140233Y-109504D01*
X140168Y-109438D01*
X140168Y-109148D01*
X139880Y-108860D01*
X139799Y-108940D01*
X139799Y-108780D01*
X139511Y-108491D01*
X139421Y-108517D01*
X139355Y-108712D01*
X139369Y-108918D01*
X139421Y-109042D01*
X139511Y-109068D01*
X139799Y-108780D01*
X139799Y-108940D01*
X139591Y-109148D01*
X139617Y-109238D01*
X139812Y-109304D01*
X140018Y-109290D01*
X140142Y-109238D01*
X140168Y-109148D01*
X140168Y-109438D01*
X140116Y-109386D01*
X139963Y-109323D01*
X139797Y-109323D01*
X139644Y-109386D01*
X139526Y-109503D01*
X139463Y-109656D01*
X139463Y-109822D01*
X139526Y-109975D01*
X139643Y-110093D01*
X139796Y-110156D01*
X139962Y-110156D01*
X140115Y-110093D01*
X140233Y-109976D01*
X140296Y-109823D01*
X140296Y-109657D01*
X140296Y-113083D01*
X139224Y-113083D01*
X139224Y-107727D01*
X139210Y-107521D01*
X139158Y-107397D01*
X139068Y-107371D01*
X138988Y-107452D01*
X138988Y-107291D01*
X138962Y-107201D01*
X138767Y-107135D01*
X138710Y-107139D01*
X138710Y-100940D01*
X138265Y-100495D01*
X138184Y-100575D01*
X138184Y-100415D01*
X137739Y-99969D01*
X137626Y-100021D01*
X137524Y-100295D01*
X137535Y-100587D01*
X137626Y-100808D01*
X137739Y-100860D01*
X138184Y-100415D01*
X138184Y-100575D01*
X137819Y-100940D01*
X137871Y-101053D01*
X138145Y-101155D01*
X138437Y-101144D01*
X138658Y-101053D01*
X138710Y-100940D01*
X138710Y-107139D01*
X138581Y-107148D01*
X138581Y-106392D01*
X138561Y-106344D01*
X138561Y-105232D01*
X138494Y-105070D01*
X138370Y-104945D01*
X138208Y-104878D01*
X138032Y-104878D01*
X137870Y-104945D01*
X137745Y-105069D01*
X137678Y-105231D01*
X137678Y-105407D01*
X137745Y-105569D01*
X137869Y-105694D01*
X138031Y-105761D01*
X138207Y-105761D01*
X138369Y-105694D01*
X138494Y-105570D01*
X138561Y-105408D01*
X138561Y-105232D01*
X138561Y-106344D01*
X138514Y-106230D01*
X138390Y-106105D01*
X138228Y-106038D01*
X138052Y-106038D01*
X137890Y-106105D01*
X137765Y-106229D01*
X137698Y-106391D01*
X137698Y-106567D01*
X137765Y-106729D01*
X137889Y-106854D01*
X138051Y-106921D01*
X138227Y-106921D01*
X138389Y-106854D01*
X138514Y-106730D01*
X138581Y-106568D01*
X138581Y-106392D01*
X138581Y-107148D01*
X138561Y-107149D01*
X138437Y-107201D01*
X138411Y-107291D01*
X138700Y-107579D01*
X138988Y-107291D01*
X138988Y-107452D01*
X138780Y-107660D01*
X139068Y-107948D01*
X139158Y-107922D01*
X139224Y-107727D01*
X139224Y-113083D01*
X139116Y-113083D01*
X139116Y-109577D01*
X139053Y-109424D01*
X138988Y-109358D01*
X138988Y-108028D01*
X138700Y-107740D01*
X138619Y-107820D01*
X138619Y-107660D01*
X138331Y-107371D01*
X138241Y-107397D01*
X138175Y-107592D01*
X138189Y-107798D01*
X138241Y-107922D01*
X138331Y-107948D01*
X138619Y-107660D01*
X138619Y-107820D01*
X138411Y-108028D01*
X138437Y-108118D01*
X138632Y-108184D01*
X138838Y-108170D01*
X138962Y-108118D01*
X138988Y-108028D01*
X138988Y-109358D01*
X138936Y-109306D01*
X138783Y-109243D01*
X138617Y-109243D01*
X138464Y-109306D01*
X138346Y-109423D01*
X138283Y-109576D01*
X138283Y-109742D01*
X138346Y-109895D01*
X138463Y-110013D01*
X138616Y-110076D01*
X138782Y-110076D01*
X138935Y-110013D01*
X139053Y-109896D01*
X139116Y-109743D01*
X139116Y-109577D01*
X139116Y-113083D01*
X138476Y-113083D01*
X138476Y-111949D01*
X138461Y-111913D01*
X138461Y-110872D01*
X138394Y-110710D01*
X138270Y-110585D01*
X138108Y-110518D01*
X137932Y-110518D01*
X137770Y-110585D01*
X137645Y-110709D01*
X137578Y-110871D01*
X137578Y-111047D01*
X137645Y-111209D01*
X137769Y-111334D01*
X137931Y-111401D01*
X138107Y-111401D01*
X138269Y-111334D01*
X138394Y-111210D01*
X138461Y-111048D01*
X138461Y-110872D01*
X138461Y-111913D01*
X138407Y-111781D01*
X138279Y-111653D01*
X138111Y-111583D01*
X137929Y-111583D01*
X137761Y-111652D01*
X137633Y-111780D01*
X137563Y-111948D01*
X137563Y-112130D01*
X137632Y-112298D01*
X137760Y-112426D01*
X137928Y-112496D01*
X138110Y-112496D01*
X138278Y-112427D01*
X138406Y-112299D01*
X138476Y-112131D01*
X138476Y-111949D01*
X138476Y-113083D01*
X137541Y-113083D01*
X137541Y-105702D01*
X137474Y-105540D01*
X137350Y-105415D01*
X137188Y-105348D01*
X137012Y-105348D01*
X136850Y-105415D01*
X136725Y-105539D01*
X136658Y-105701D01*
X136658Y-105877D01*
X136725Y-106039D01*
X136849Y-106164D01*
X137011Y-106231D01*
X137187Y-106231D01*
X137349Y-106164D01*
X137474Y-106040D01*
X137541Y-105878D01*
X137541Y-105702D01*
X137541Y-113083D01*
X137481Y-113083D01*
X137481Y-110887D01*
X137481Y-106887D01*
X137414Y-106725D01*
X137290Y-106600D01*
X137128Y-106533D01*
X136952Y-106533D01*
X136790Y-106600D01*
X136665Y-106724D01*
X136598Y-106886D01*
X136598Y-107062D01*
X136665Y-107224D01*
X136789Y-107349D01*
X136951Y-107416D01*
X137127Y-107416D01*
X137289Y-107349D01*
X137414Y-107225D01*
X137481Y-107063D01*
X137481Y-106887D01*
X137481Y-110887D01*
X137414Y-110725D01*
X137290Y-110600D01*
X137128Y-110533D01*
X136952Y-110533D01*
X136790Y-110600D01*
X136665Y-110724D01*
X136629Y-110812D01*
X136579Y-110691D01*
X136541Y-110680D01*
X136541Y-106882D01*
X136474Y-106720D01*
X136350Y-106595D01*
X136188Y-106528D01*
X136012Y-106528D01*
X135850Y-106595D01*
X135725Y-106719D01*
X135658Y-106881D01*
X135658Y-107057D01*
X135725Y-107219D01*
X135849Y-107344D01*
X136011Y-107411D01*
X136187Y-107411D01*
X136349Y-107344D01*
X136474Y-107220D01*
X136541Y-107058D01*
X136541Y-106882D01*
X136541Y-110680D01*
X136486Y-110663D01*
X136406Y-110743D01*
X136406Y-110583D01*
X136378Y-110490D01*
X136173Y-110420D01*
X135957Y-110434D01*
X135821Y-110490D01*
X135793Y-110583D01*
X136100Y-110889D01*
X136406Y-110583D01*
X136406Y-110743D01*
X136180Y-110970D01*
X136486Y-111276D01*
X136579Y-111248D01*
X136622Y-111121D01*
X136665Y-111224D01*
X136789Y-111349D01*
X136951Y-111416D01*
X137127Y-111416D01*
X137289Y-111349D01*
X137414Y-111225D01*
X137481Y-111063D01*
X137481Y-110887D01*
X137481Y-113083D01*
X136577Y-113083D01*
X136422Y-112304D01*
X136422Y-112300D01*
X136390Y-112222D01*
X135888Y-111471D01*
X136026Y-111519D01*
X136242Y-111505D01*
X136378Y-111449D01*
X136406Y-111356D01*
X136100Y-111050D01*
X136094Y-111055D01*
X136014Y-110975D01*
X136019Y-110970D01*
X135713Y-110663D01*
X135620Y-110691D01*
X135550Y-110896D01*
X135564Y-111112D01*
X135616Y-111238D01*
X134980Y-110812D01*
X134977Y-110809D01*
X134898Y-110776D01*
X134643Y-110726D01*
X134643Y-109393D01*
X135083Y-109393D01*
X134979Y-109436D01*
X134861Y-109553D01*
X134798Y-109706D01*
X134798Y-109872D01*
X134861Y-110025D01*
X134978Y-110143D01*
X135131Y-110206D01*
X135297Y-110206D01*
X135450Y-110143D01*
X135568Y-110026D01*
X135631Y-109873D01*
X135631Y-109707D01*
X135568Y-109554D01*
X135451Y-109436D01*
X135346Y-109393D01*
X135367Y-109393D01*
X135843Y-108917D01*
X135843Y-107532D01*
X134911Y-106600D01*
X134911Y-104751D01*
X134911Y-101251D01*
X134890Y-101199D01*
X134850Y-101159D01*
X134798Y-101138D01*
X134741Y-101138D01*
X131241Y-101138D01*
X131189Y-101159D01*
X131149Y-101199D01*
X131128Y-101251D01*
X131128Y-101308D01*
X131128Y-104808D01*
X131149Y-104860D01*
X131189Y-104900D01*
X131241Y-104921D01*
X131298Y-104921D01*
X134798Y-104921D01*
X134850Y-104900D01*
X134890Y-104860D01*
X134911Y-104808D01*
X134911Y-104751D01*
X134911Y-106600D01*
X134717Y-106406D01*
X132617Y-106406D01*
X132394Y-106182D01*
X132511Y-106231D01*
X132687Y-106231D01*
X132849Y-106164D01*
X132974Y-106040D01*
X133041Y-105878D01*
X133041Y-105702D01*
X132974Y-105540D01*
X132850Y-105415D01*
X132688Y-105348D01*
X132512Y-105348D01*
X132350Y-105415D01*
X132225Y-105539D01*
X132158Y-105701D01*
X132158Y-105877D01*
X132207Y-105995D01*
X131667Y-105456D01*
X130843Y-105456D01*
X130843Y-100935D01*
X134257Y-100255D01*
X134470Y-100315D01*
X134943Y-100315D01*
X134943Y-100118D01*
X135056Y-100096D01*
X135056Y-100315D01*
X135529Y-100315D01*
X135798Y-100239D01*
X136018Y-100066D01*
X136120Y-99884D01*
X136400Y-99828D01*
X136420Y-99878D01*
X136513Y-99906D01*
X136638Y-99781D01*
X136838Y-99741D01*
X136593Y-99986D01*
X136621Y-100079D01*
X136826Y-100149D01*
X137042Y-100135D01*
X137178Y-100079D01*
X137206Y-99986D01*
X136940Y-99721D01*
X137074Y-99694D01*
X137286Y-99906D01*
X137379Y-99878D01*
X137449Y-99673D01*
X137445Y-99620D01*
X137756Y-99558D01*
X137883Y-99685D01*
X137987Y-99728D01*
X137871Y-99776D01*
X137819Y-99889D01*
X138265Y-100334D01*
X138710Y-99889D01*
X138658Y-99776D01*
X138536Y-99731D01*
X138645Y-99686D01*
X138835Y-99496D01*
X138904Y-99329D01*
X138963Y-99318D01*
X139027Y-99473D01*
X139205Y-99652D01*
X139438Y-99748D01*
X139690Y-99748D01*
X139923Y-99652D01*
X140102Y-99474D01*
X140158Y-99338D01*
X140243Y-99545D01*
X140433Y-99735D01*
X140616Y-99811D01*
X140456Y-99877D01*
X140277Y-100055D01*
X140189Y-100267D01*
X140102Y-100056D01*
X139924Y-99877D01*
X139691Y-99781D01*
X139439Y-99781D01*
X139206Y-99877D01*
X139027Y-100055D01*
X138972Y-100188D01*
X138903Y-100021D01*
X138790Y-99969D01*
X138345Y-100415D01*
X138790Y-100860D01*
X138903Y-100808D01*
X138968Y-100632D01*
X139027Y-100773D01*
X139205Y-100952D01*
X139438Y-101048D01*
X139690Y-101048D01*
X139923Y-100952D01*
X140102Y-100774D01*
X140190Y-100562D01*
X140277Y-100773D01*
X140455Y-100952D01*
X140688Y-101048D01*
X140940Y-101048D01*
X141173Y-100952D01*
X141352Y-100774D01*
X141448Y-100541D01*
X141448Y-100289D01*
X141352Y-100056D01*
X141174Y-99877D01*
X141013Y-99811D01*
X141195Y-99736D01*
X141385Y-99546D01*
X141488Y-99299D01*
X141488Y-99031D01*
X141405Y-98831D01*
X141784Y-98756D01*
X141756Y-98823D01*
X141756Y-99075D01*
X141852Y-99308D01*
X142030Y-99487D01*
X142263Y-99583D01*
X142515Y-99583D01*
X142748Y-99487D01*
X142927Y-99309D01*
X143023Y-99076D01*
X143023Y-98824D01*
X142927Y-98591D01*
X142879Y-98543D01*
X147564Y-98543D01*
X147486Y-98732D01*
X147486Y-98984D01*
X147582Y-99217D01*
X147760Y-99395D01*
X147993Y-99492D01*
X148245Y-99492D01*
X148478Y-99396D01*
X148657Y-99218D01*
X148753Y-98985D01*
X148753Y-98733D01*
X148675Y-98543D01*
X149433Y-98543D01*
X149433Y-111410D01*
X149433Y-111410D01*
G37*
G54D35*
X149433Y-111410D02*
X149236Y-111607D01*
X149236Y-111166D01*
X149226Y-111142D01*
X149226Y-107366D01*
X149179Y-107253D01*
X149179Y-102289D01*
X149174Y-102277D01*
X149174Y-101119D01*
X149105Y-100951D01*
X148976Y-100823D01*
X148809Y-100753D01*
X148627Y-100753D01*
X148459Y-100822D01*
X148330Y-100950D01*
X148261Y-101118D01*
X148260Y-101300D01*
X148330Y-101468D01*
X148458Y-101596D01*
X148626Y-101666D01*
X148808Y-101666D01*
X148976Y-101597D01*
X149104Y-101469D01*
X149174Y-101301D01*
X149174Y-101119D01*
X149174Y-102277D01*
X149110Y-102121D01*
X148981Y-101993D01*
X148814Y-101923D01*
X148632Y-101923D01*
X148464Y-101992D01*
X148335Y-102120D01*
X148266Y-102288D01*
X148265Y-102470D01*
X148335Y-102638D01*
X148463Y-102766D01*
X148631Y-102836D01*
X148813Y-102836D01*
X148981Y-102767D01*
X149109Y-102639D01*
X149179Y-102471D01*
X149179Y-102289D01*
X149179Y-107253D01*
X149169Y-107229D01*
X149169Y-103529D01*
X149100Y-103361D01*
X148971Y-103233D01*
X148804Y-103163D01*
X148622Y-103163D01*
X148454Y-103232D01*
X148325Y-103360D01*
X148256Y-103528D01*
X148255Y-103710D01*
X148325Y-103878D01*
X148453Y-104006D01*
X148621Y-104076D01*
X148803Y-104076D01*
X148971Y-104007D01*
X149099Y-103879D01*
X149169Y-103711D01*
X149169Y-103529D01*
X149169Y-107229D01*
X149162Y-107211D01*
X149043Y-107092D01*
X148888Y-107028D01*
X148720Y-107028D01*
X148565Y-107092D01*
X148447Y-107210D01*
X148382Y-107365D01*
X148382Y-107533D01*
X148446Y-107688D01*
X148565Y-107807D01*
X148720Y-107871D01*
X148887Y-107871D01*
X149042Y-107807D01*
X149161Y-107689D01*
X149225Y-107534D01*
X149226Y-107366D01*
X149226Y-111142D01*
X149172Y-111011D01*
X149053Y-110892D01*
X148898Y-110828D01*
X148730Y-110828D01*
X148575Y-110892D01*
X148457Y-111010D01*
X148392Y-111165D01*
X148392Y-111333D01*
X148456Y-111488D01*
X148575Y-111607D01*
X148730Y-111671D01*
X148897Y-111671D01*
X149052Y-111607D01*
X149171Y-111489D01*
X149235Y-111334D01*
X149236Y-111166D01*
X149236Y-111607D01*
X147760Y-113083D01*
X146557Y-113083D01*
X146557Y-104804D01*
X146461Y-104571D01*
X146283Y-104392D01*
X146050Y-104296D01*
X145798Y-104296D01*
X145565Y-104392D01*
X145386Y-104570D01*
X145373Y-104601D01*
X145373Y-99374D01*
X145277Y-99141D01*
X145099Y-98962D01*
X144866Y-98866D01*
X144614Y-98866D01*
X144381Y-98962D01*
X144202Y-99140D01*
X144106Y-99373D01*
X144106Y-99625D01*
X144202Y-99858D01*
X144380Y-100037D01*
X144613Y-100133D01*
X144865Y-100133D01*
X145098Y-100037D01*
X145277Y-99859D01*
X145373Y-99626D01*
X145373Y-99374D01*
X145373Y-104601D01*
X145289Y-104803D01*
X145289Y-105055D01*
X145386Y-105288D01*
X145564Y-105467D01*
X145797Y-105563D01*
X146049Y-105563D01*
X146282Y-105467D01*
X146460Y-105289D01*
X146557Y-105056D01*
X146557Y-104804D01*
X146557Y-113083D01*
X144242Y-113083D01*
X144242Y-105049D01*
X144231Y-104757D01*
X144140Y-104536D01*
X144027Y-104484D01*
X144023Y-104488D01*
X144023Y-99674D01*
X143927Y-99441D01*
X143749Y-99262D01*
X143516Y-99166D01*
X143264Y-99166D01*
X143031Y-99262D01*
X142852Y-99440D01*
X142756Y-99673D01*
X142756Y-99925D01*
X142852Y-100158D01*
X143030Y-100337D01*
X143263Y-100433D01*
X143515Y-100433D01*
X143748Y-100337D01*
X143927Y-100159D01*
X144023Y-99926D01*
X144023Y-99674D01*
X144023Y-104488D01*
X143947Y-104564D01*
X143947Y-104404D01*
X143895Y-104291D01*
X143621Y-104189D01*
X143376Y-104198D01*
X143376Y-101287D01*
X143362Y-101065D01*
X143303Y-100922D01*
X143209Y-100892D01*
X143129Y-100972D01*
X143129Y-100812D01*
X143099Y-100718D01*
X142889Y-100646D01*
X142667Y-100659D01*
X142525Y-100718D01*
X142495Y-100812D01*
X142812Y-101129D01*
X143129Y-100812D01*
X143129Y-100972D01*
X142892Y-101210D01*
X143209Y-101527D01*
X143303Y-101497D01*
X143376Y-101287D01*
X143376Y-104198D01*
X143371Y-104198D01*
X143371Y-103697D01*
X143357Y-103475D01*
X143298Y-103332D01*
X143274Y-103325D01*
X143274Y-102289D01*
X143204Y-102121D01*
X143129Y-102046D01*
X143129Y-101607D01*
X142812Y-101290D01*
X142732Y-101370D01*
X142732Y-101210D01*
X142414Y-100892D01*
X142320Y-100922D01*
X142248Y-101132D01*
X142261Y-101354D01*
X142320Y-101497D01*
X142414Y-101527D01*
X142732Y-101210D01*
X142732Y-101370D01*
X142495Y-101607D01*
X142525Y-101701D01*
X142735Y-101773D01*
X142956Y-101760D01*
X143099Y-101701D01*
X143129Y-101607D01*
X143129Y-102046D01*
X143076Y-101993D01*
X142908Y-101923D01*
X142726Y-101923D01*
X142558Y-101992D01*
X142430Y-102120D01*
X142360Y-102288D01*
X142360Y-102470D01*
X142429Y-102638D01*
X142558Y-102766D01*
X142725Y-102836D01*
X142907Y-102836D01*
X143075Y-102767D01*
X143204Y-102639D01*
X143273Y-102471D01*
X143274Y-102289D01*
X143274Y-103325D01*
X143204Y-103302D01*
X143124Y-103382D01*
X143124Y-103222D01*
X143094Y-103128D01*
X142884Y-103056D01*
X142662Y-103069D01*
X142520Y-103128D01*
X142490Y-103222D01*
X142807Y-103539D01*
X143124Y-103222D01*
X143124Y-103382D01*
X142887Y-103620D01*
X143204Y-103937D01*
X143298Y-103907D01*
X143371Y-103697D01*
X143371Y-104198D01*
X143329Y-104200D01*
X143124Y-104285D01*
X143124Y-104017D01*
X142807Y-103700D01*
X142727Y-103780D01*
X142727Y-103620D01*
X142409Y-103302D01*
X142315Y-103332D01*
X142243Y-103542D01*
X142256Y-103764D01*
X142315Y-103907D01*
X142409Y-103937D01*
X142727Y-103620D01*
X142727Y-103780D01*
X142490Y-104017D01*
X142520Y-104111D01*
X142730Y-104183D01*
X142951Y-104170D01*
X143094Y-104111D01*
X143124Y-104017D01*
X143124Y-104285D01*
X143108Y-104291D01*
X143056Y-104404D01*
X143502Y-104849D01*
X143947Y-104404D01*
X143947Y-104564D01*
X143582Y-104930D01*
X144027Y-105375D01*
X144140Y-105323D01*
X144242Y-105049D01*
X144242Y-113083D01*
X143947Y-113083D01*
X143947Y-105455D01*
X143502Y-105010D01*
X143421Y-105090D01*
X143421Y-104930D01*
X142976Y-104484D01*
X142863Y-104536D01*
X142761Y-104810D01*
X142772Y-105102D01*
X142863Y-105323D01*
X142976Y-105375D01*
X143421Y-104930D01*
X143421Y-105090D01*
X143056Y-105455D01*
X143108Y-105568D01*
X143382Y-105670D01*
X143675Y-105659D01*
X143895Y-105568D01*
X143947Y-105455D01*
X143947Y-113083D01*
X143527Y-113083D01*
X143527Y-111166D01*
X143517Y-111142D01*
X143517Y-107366D01*
X143453Y-107211D01*
X143334Y-107092D01*
X143179Y-107028D01*
X143012Y-107028D01*
X142857Y-107092D01*
X142738Y-107210D01*
X142674Y-107365D01*
X142673Y-107533D01*
X142737Y-107688D01*
X142856Y-107807D01*
X143011Y-107871D01*
X143179Y-107871D01*
X143334Y-107807D01*
X143452Y-107689D01*
X143517Y-107534D01*
X143517Y-107366D01*
X143517Y-111142D01*
X143463Y-111011D01*
X143344Y-110892D01*
X143189Y-110828D01*
X143022Y-110828D01*
X142867Y-110892D01*
X142748Y-111010D01*
X142684Y-111165D01*
X142683Y-111333D01*
X142747Y-111488D01*
X142866Y-111607D01*
X143021Y-111671D01*
X143189Y-111671D01*
X143344Y-111607D01*
X143462Y-111489D01*
X143527Y-111334D01*
X143527Y-111166D01*
X143527Y-113083D01*
X142583Y-113083D01*
X142583Y-112117D01*
X142581Y-112080D01*
X142581Y-106392D01*
X142561Y-106344D01*
X142561Y-105232D01*
X142494Y-105070D01*
X142370Y-104945D01*
X142208Y-104878D01*
X142032Y-104878D01*
X141870Y-104945D01*
X141745Y-105069D01*
X141678Y-105231D01*
X141678Y-105407D01*
X141745Y-105569D01*
X141869Y-105694D01*
X142031Y-105761D01*
X142207Y-105761D01*
X142369Y-105694D01*
X142494Y-105570D01*
X142561Y-105408D01*
X142561Y-105232D01*
X142561Y-106344D01*
X142514Y-106230D01*
X142390Y-106105D01*
X142228Y-106038D01*
X142052Y-106038D01*
X141890Y-106105D01*
X141765Y-106229D01*
X141698Y-106391D01*
X141698Y-106567D01*
X141765Y-106729D01*
X141889Y-106854D01*
X142051Y-106921D01*
X142227Y-106921D01*
X142389Y-106854D01*
X142514Y-106730D01*
X142581Y-106568D01*
X142581Y-106392D01*
X142581Y-112080D01*
X142570Y-111895D01*
X142511Y-111752D01*
X142461Y-111737D01*
X142461Y-110872D01*
X142394Y-110710D01*
X142296Y-110612D01*
X142296Y-109657D01*
X142296Y-108697D01*
X142296Y-107557D01*
X142233Y-107404D01*
X142116Y-107286D01*
X141963Y-107223D01*
X141797Y-107223D01*
X141644Y-107286D01*
X141526Y-107403D01*
X141463Y-107556D01*
X141463Y-107722D01*
X141526Y-107875D01*
X141643Y-107993D01*
X141796Y-108056D01*
X141962Y-108056D01*
X142115Y-107993D01*
X142233Y-107876D01*
X142296Y-107723D01*
X142296Y-107557D01*
X142296Y-108697D01*
X142233Y-108544D01*
X142116Y-108426D01*
X141963Y-108363D01*
X141797Y-108363D01*
X141644Y-108426D01*
X141526Y-108543D01*
X141463Y-108696D01*
X141463Y-108862D01*
X141526Y-109015D01*
X141643Y-109133D01*
X141796Y-109196D01*
X141962Y-109196D01*
X142115Y-109133D01*
X142233Y-109016D01*
X142296Y-108863D01*
X142296Y-108697D01*
X142296Y-109657D01*
X142233Y-109504D01*
X142116Y-109386D01*
X141963Y-109323D01*
X141797Y-109323D01*
X141644Y-109386D01*
X141526Y-109503D01*
X141463Y-109656D01*
X141463Y-109822D01*
X141526Y-109975D01*
X141643Y-110093D01*
X141796Y-110156D01*
X141962Y-110156D01*
X142115Y-110093D01*
X142233Y-109976D01*
X142296Y-109823D01*
X142296Y-109657D01*
X142296Y-110612D01*
X142270Y-110585D01*
X142108Y-110518D01*
X141932Y-110518D01*
X141770Y-110585D01*
X141645Y-110709D01*
X141578Y-110871D01*
X141578Y-111047D01*
X141645Y-111209D01*
X141769Y-111334D01*
X141931Y-111401D01*
X142107Y-111401D01*
X142269Y-111334D01*
X142394Y-111210D01*
X142461Y-111048D01*
X142461Y-110872D01*
X142461Y-111737D01*
X142417Y-111722D01*
X142337Y-111802D01*
X142337Y-111642D01*
X142307Y-111548D01*
X142097Y-111476D01*
X141875Y-111489D01*
X141732Y-111548D01*
X141702Y-111642D01*
X142020Y-111959D01*
X142337Y-111642D01*
X142337Y-111802D01*
X142100Y-112040D01*
X142417Y-112357D01*
X142511Y-112327D01*
X142583Y-112117D01*
X142583Y-113083D01*
X142337Y-113083D01*
X142337Y-112437D01*
X142020Y-112120D01*
X141939Y-112200D01*
X141939Y-112040D01*
X141622Y-111722D01*
X141528Y-111752D01*
X141456Y-111962D01*
X141469Y-112184D01*
X141528Y-112327D01*
X141622Y-112357D01*
X141939Y-112040D01*
X141939Y-112200D01*
X141702Y-112437D01*
X141732Y-112531D01*
X141942Y-112603D01*
X142164Y-112590D01*
X142307Y-112531D01*
X142337Y-112437D01*
X142337Y-113083D01*
X140404Y-113083D01*
X140404Y-108847D01*
X140404Y-107707D01*
X140390Y-107501D01*
X140338Y-107377D01*
X140248Y-107351D01*
X140168Y-107432D01*
X140168Y-107271D01*
X140142Y-107181D01*
X140113Y-107171D01*
X140113Y-104331D01*
X140113Y-103728D01*
X140113Y-103631D01*
X140076Y-103541D01*
X140007Y-103473D01*
X139918Y-103436D01*
X139808Y-103436D01*
X139936Y-103308D01*
X140011Y-103128D01*
X140011Y-102932D01*
X140011Y-101932D01*
X139937Y-101751D01*
X139798Y-101613D01*
X139618Y-101538D01*
X139422Y-101538D01*
X139241Y-101612D01*
X139103Y-101751D01*
X139028Y-101931D01*
X139028Y-102127D01*
X139102Y-102308D01*
X139241Y-102446D01*
X139421Y-102521D01*
X139617Y-102521D01*
X139798Y-102447D01*
X139936Y-102308D01*
X140011Y-102128D01*
X140011Y-101932D01*
X140011Y-102932D01*
X139937Y-102751D01*
X139798Y-102613D01*
X139618Y-102538D01*
X139422Y-102538D01*
X139241Y-102612D01*
X139103Y-102751D01*
X139028Y-102931D01*
X139028Y-103127D01*
X139102Y-103308D01*
X139231Y-103436D01*
X139121Y-103436D01*
X139032Y-103473D01*
X138963Y-103541D01*
X138926Y-103631D01*
X138926Y-103728D01*
X138926Y-103912D01*
X138987Y-103973D01*
X139463Y-103973D01*
X139463Y-103965D01*
X139576Y-103965D01*
X139576Y-103973D01*
X140052Y-103973D01*
X140113Y-103912D01*
X140113Y-103728D01*
X140113Y-104331D01*
X140113Y-104147D01*
X140052Y-104086D01*
X139576Y-104086D01*
X139576Y-104562D01*
X139637Y-104623D01*
X139918Y-104623D01*
X140007Y-104586D01*
X140076Y-104518D01*
X140113Y-104428D01*
X140113Y-104331D01*
X140113Y-107171D01*
X139947Y-107115D01*
X139741Y-107129D01*
X139617Y-107181D01*
X139591Y-107271D01*
X139880Y-107559D01*
X140168Y-107271D01*
X140168Y-107432D01*
X139960Y-107640D01*
X140248Y-107928D01*
X140338Y-107902D01*
X140404Y-107707D01*
X140404Y-108847D01*
X140390Y-108641D01*
X140338Y-108517D01*
X140248Y-108491D01*
X140168Y-108572D01*
X140168Y-108411D01*
X140168Y-108008D01*
X139880Y-107720D01*
X139799Y-107800D01*
X139799Y-107640D01*
X139511Y-107351D01*
X139463Y-107365D01*
X139463Y-104562D01*
X139463Y-104086D01*
X138987Y-104086D01*
X138926Y-104147D01*
X138926Y-104331D01*
X138926Y-104428D01*
X138963Y-104518D01*
X139032Y-104586D01*
X139121Y-104623D01*
X139402Y-104623D01*
X139463Y-104562D01*
X139463Y-107365D01*
X139421Y-107377D01*
X139355Y-107572D01*
X139369Y-107778D01*
X139421Y-107902D01*
X139511Y-107928D01*
X139799Y-107640D01*
X139799Y-107800D01*
X139591Y-108008D01*
X139617Y-108098D01*
X139812Y-108164D01*
X140018Y-108150D01*
X140142Y-108098D01*
X140168Y-108008D01*
X140168Y-108411D01*
X140142Y-108321D01*
X139947Y-108255D01*
X139741Y-108269D01*
X139617Y-108321D01*
X139591Y-108411D01*
X139880Y-108699D01*
X140168Y-108411D01*
X140168Y-108572D01*
X139960Y-108780D01*
X140248Y-109068D01*
X140338Y-109042D01*
X140404Y-108847D01*
X140404Y-113083D01*
X140296Y-113083D01*
X140296Y-109657D01*
X140233Y-109504D01*
X140168Y-109438D01*
X140168Y-109148D01*
X139880Y-108860D01*
X139799Y-108940D01*
X139799Y-108780D01*
X139511Y-108491D01*
X139421Y-108517D01*
X139355Y-108712D01*
X139369Y-108918D01*
X139421Y-109042D01*
X139511Y-109068D01*
X139799Y-108780D01*
X139799Y-108940D01*
X139591Y-109148D01*
X139617Y-109238D01*
X139812Y-109304D01*
X140018Y-109290D01*
X140142Y-109238D01*
X140168Y-109148D01*
X140168Y-109438D01*
X140116Y-109386D01*
X139963Y-109323D01*
X139797Y-109323D01*
X139644Y-109386D01*
X139526Y-109503D01*
X139463Y-109656D01*
X139463Y-109822D01*
X139526Y-109975D01*
X139643Y-110093D01*
X139796Y-110156D01*
X139962Y-110156D01*
X140115Y-110093D01*
X140233Y-109976D01*
X140296Y-109823D01*
X140296Y-109657D01*
X140296Y-113083D01*
X139224Y-113083D01*
X139224Y-107727D01*
X139210Y-107521D01*
X139158Y-107397D01*
X139068Y-107371D01*
X138988Y-107452D01*
X138988Y-107291D01*
X138962Y-107201D01*
X138767Y-107135D01*
X138710Y-107139D01*
X138710Y-100940D01*
X138265Y-100495D01*
X138184Y-100575D01*
X138184Y-100415D01*
X137739Y-99969D01*
X137626Y-100021D01*
X137524Y-100295D01*
X137535Y-100587D01*
X137626Y-100808D01*
X137739Y-100860D01*
X138184Y-100415D01*
X138184Y-100575D01*
X137819Y-100940D01*
X137871Y-101053D01*
X138145Y-101155D01*
X138437Y-101144D01*
X138658Y-101053D01*
X138710Y-100940D01*
X138710Y-107139D01*
X138581Y-107148D01*
X138581Y-106392D01*
X138561Y-106344D01*
X138561Y-105232D01*
X138494Y-105070D01*
X138370Y-104945D01*
X138208Y-104878D01*
X138032Y-104878D01*
X137870Y-104945D01*
X137745Y-105069D01*
X137678Y-105231D01*
X137678Y-105407D01*
X137745Y-105569D01*
X137869Y-105694D01*
X138031Y-105761D01*
X138207Y-105761D01*
X138369Y-105694D01*
X138494Y-105570D01*
X138561Y-105408D01*
X138561Y-105232D01*
X138561Y-106344D01*
X138514Y-106230D01*
X138390Y-106105D01*
X138228Y-106038D01*
X138052Y-106038D01*
X137890Y-106105D01*
X137765Y-106229D01*
X137698Y-106391D01*
X137698Y-106567D01*
X137765Y-106729D01*
X137889Y-106854D01*
X138051Y-106921D01*
X138227Y-106921D01*
X138389Y-106854D01*
X138514Y-106730D01*
X138581Y-106568D01*
X138581Y-106392D01*
X138581Y-107148D01*
X138561Y-107149D01*
X138437Y-107201D01*
X138411Y-107291D01*
X138700Y-107579D01*
X138988Y-107291D01*
X138988Y-107452D01*
X138780Y-107660D01*
X139068Y-107948D01*
X139158Y-107922D01*
X139224Y-107727D01*
X139224Y-113083D01*
X139116Y-113083D01*
X139116Y-109577D01*
X139053Y-109424D01*
X138988Y-109358D01*
X138988Y-108028D01*
X138700Y-107740D01*
X138619Y-107820D01*
X138619Y-107660D01*
X138331Y-107371D01*
X138241Y-107397D01*
X138175Y-107592D01*
X138189Y-107798D01*
X138241Y-107922D01*
X138331Y-107948D01*
X138619Y-107660D01*
X138619Y-107820D01*
X138411Y-108028D01*
X138437Y-108118D01*
X138632Y-108184D01*
X138838Y-108170D01*
X138962Y-108118D01*
X138988Y-108028D01*
X138988Y-109358D01*
X138936Y-109306D01*
X138783Y-109243D01*
X138617Y-109243D01*
X138464Y-109306D01*
X138346Y-109423D01*
X138283Y-109576D01*
X138283Y-109742D01*
X138346Y-109895D01*
X138463Y-110013D01*
X138616Y-110076D01*
X138782Y-110076D01*
X138935Y-110013D01*
X139053Y-109896D01*
X139116Y-109743D01*
X139116Y-109577D01*
X139116Y-113083D01*
X138476Y-113083D01*
X138476Y-111949D01*
X138461Y-111913D01*
X138461Y-110872D01*
X138394Y-110710D01*
X138270Y-110585D01*
X138108Y-110518D01*
X137932Y-110518D01*
X137770Y-110585D01*
X137645Y-110709D01*
X137578Y-110871D01*
X137578Y-111047D01*
X137645Y-111209D01*
X137769Y-111334D01*
X137931Y-111401D01*
X138107Y-111401D01*
X138269Y-111334D01*
X138394Y-111210D01*
X138461Y-111048D01*
X138461Y-110872D01*
X138461Y-111913D01*
X138407Y-111781D01*
X138279Y-111653D01*
X138111Y-111583D01*
X137929Y-111583D01*
X137761Y-111652D01*
X137633Y-111780D01*
X137563Y-111948D01*
X137563Y-112130D01*
X137632Y-112298D01*
X137760Y-112426D01*
X137928Y-112496D01*
X138110Y-112496D01*
X138278Y-112427D01*
X138406Y-112299D01*
X138476Y-112131D01*
X138476Y-111949D01*
X138476Y-113083D01*
X137541Y-113083D01*
X137541Y-105702D01*
X137474Y-105540D01*
X137350Y-105415D01*
X137188Y-105348D01*
X137012Y-105348D01*
X136850Y-105415D01*
X136725Y-105539D01*
X136658Y-105701D01*
X136658Y-105877D01*
X136725Y-106039D01*
X136849Y-106164D01*
X137011Y-106231D01*
X137187Y-106231D01*
X137349Y-106164D01*
X137474Y-106040D01*
X137541Y-105878D01*
X137541Y-105702D01*
X137541Y-113083D01*
X137481Y-113083D01*
X137481Y-110887D01*
X137481Y-106887D01*
X137414Y-106725D01*
X137290Y-106600D01*
X137128Y-106533D01*
X136952Y-106533D01*
X136790Y-106600D01*
X136665Y-106724D01*
X136598Y-106886D01*
X136598Y-107062D01*
X136665Y-107224D01*
X136789Y-107349D01*
X136951Y-107416D01*
X137127Y-107416D01*
X137289Y-107349D01*
X137414Y-107225D01*
X137481Y-107063D01*
X137481Y-106887D01*
X137481Y-110887D01*
X137414Y-110725D01*
X137290Y-110600D01*
X137128Y-110533D01*
X136952Y-110533D01*
X136790Y-110600D01*
X136665Y-110724D01*
X136629Y-110812D01*
X136579Y-110691D01*
X136541Y-110680D01*
X136541Y-106882D01*
X136474Y-106720D01*
X136350Y-106595D01*
X136188Y-106528D01*
X136012Y-106528D01*
X135850Y-106595D01*
X135725Y-106719D01*
X135658Y-106881D01*
X135658Y-107057D01*
X135725Y-107219D01*
X135849Y-107344D01*
X136011Y-107411D01*
X136187Y-107411D01*
X136349Y-107344D01*
X136474Y-107220D01*
X136541Y-107058D01*
X136541Y-106882D01*
X136541Y-110680D01*
X136486Y-110663D01*
X136406Y-110743D01*
X136406Y-110583D01*
X136378Y-110490D01*
X136173Y-110420D01*
X135957Y-110434D01*
X135821Y-110490D01*
X135793Y-110583D01*
X136100Y-110889D01*
X136406Y-110583D01*
X136406Y-110743D01*
X136180Y-110970D01*
X136486Y-111276D01*
X136579Y-111248D01*
X136622Y-111121D01*
X136665Y-111224D01*
X136789Y-111349D01*
X136951Y-111416D01*
X137127Y-111416D01*
X137289Y-111349D01*
X137414Y-111225D01*
X137481Y-111063D01*
X137481Y-110887D01*
X137481Y-113083D01*
X136577Y-113083D01*
X136422Y-112304D01*
X136422Y-112300D01*
X136390Y-112222D01*
X135888Y-111471D01*
X136026Y-111519D01*
X136242Y-111505D01*
X136378Y-111449D01*
X136406Y-111356D01*
X136100Y-111050D01*
X136094Y-111055D01*
X136014Y-110975D01*
X136019Y-110970D01*
X135713Y-110663D01*
X135620Y-110691D01*
X135550Y-110896D01*
X135564Y-111112D01*
X135616Y-111238D01*
X134980Y-110812D01*
X134977Y-110809D01*
X134898Y-110776D01*
X134643Y-110726D01*
X134643Y-109393D01*
X135083Y-109393D01*
X134979Y-109436D01*
X134861Y-109553D01*
X134798Y-109706D01*
X134798Y-109872D01*
X134861Y-110025D01*
X134978Y-110143D01*
X135131Y-110206D01*
X135297Y-110206D01*
X135450Y-110143D01*
X135568Y-110026D01*
X135631Y-109873D01*
X135631Y-109707D01*
X135568Y-109554D01*
X135451Y-109436D01*
X135346Y-109393D01*
X135367Y-109393D01*
X135843Y-108917D01*
X135843Y-107532D01*
X134911Y-106600D01*
X134911Y-104751D01*
X134911Y-101251D01*
X134890Y-101199D01*
X134850Y-101159D01*
X134798Y-101138D01*
X134741Y-101138D01*
X131241Y-101138D01*
X131189Y-101159D01*
X131149Y-101199D01*
X131128Y-101251D01*
X131128Y-101308D01*
X131128Y-104808D01*
X131149Y-104860D01*
X131189Y-104900D01*
X131241Y-104921D01*
X131298Y-104921D01*
X134798Y-104921D01*
X134850Y-104900D01*
X134890Y-104860D01*
X134911Y-104808D01*
X134911Y-104751D01*
X134911Y-106600D01*
X134717Y-106406D01*
X132617Y-106406D01*
X132394Y-106182D01*
X132511Y-106231D01*
X132687Y-106231D01*
X132849Y-106164D01*
X132974Y-106040D01*
X133041Y-105878D01*
X133041Y-105702D01*
X132974Y-105540D01*
X132850Y-105415D01*
X132688Y-105348D01*
X132512Y-105348D01*
X132350Y-105415D01*
X132225Y-105539D01*
X132158Y-105701D01*
X132158Y-105877D01*
X132207Y-105995D01*
X131667Y-105456D01*
X130843Y-105456D01*
X130843Y-100935D01*
X134257Y-100255D01*
X134470Y-100315D01*
X134943Y-100315D01*
X134943Y-100118D01*
X135056Y-100096D01*
X135056Y-100315D01*
X135529Y-100315D01*
X135798Y-100239D01*
X136018Y-100066D01*
X136120Y-99884D01*
X136400Y-99828D01*
X136420Y-99878D01*
X136513Y-99906D01*
X136638Y-99781D01*
X136838Y-99741D01*
X136593Y-99986D01*
X136621Y-100079D01*
X136826Y-100149D01*
X137042Y-100135D01*
X137178Y-100079D01*
X137206Y-99986D01*
X136940Y-99721D01*
X137074Y-99694D01*
X137286Y-99906D01*
X137379Y-99878D01*
X137449Y-99673D01*
X137445Y-99620D01*
X137756Y-99558D01*
X137883Y-99685D01*
X137987Y-99728D01*
X137871Y-99776D01*
X137819Y-99889D01*
X138265Y-100334D01*
X138710Y-99889D01*
X138658Y-99776D01*
X138536Y-99731D01*
X138645Y-99686D01*
X138835Y-99496D01*
X138904Y-99329D01*
X138963Y-99318D01*
X139027Y-99473D01*
X139205Y-99652D01*
X139438Y-99748D01*
X139690Y-99748D01*
X139923Y-99652D01*
X140102Y-99474D01*
X140158Y-99338D01*
X140243Y-99545D01*
X140433Y-99735D01*
X140616Y-99811D01*
X140456Y-99877D01*
X140277Y-100055D01*
X140189Y-100267D01*
X140102Y-100056D01*
X139924Y-99877D01*
X139691Y-99781D01*
X139439Y-99781D01*
X139206Y-99877D01*
X139027Y-100055D01*
X138972Y-100188D01*
X138903Y-100021D01*
X138790Y-99969D01*
X138345Y-100415D01*
X138790Y-100860D01*
X138903Y-100808D01*
X138968Y-100632D01*
X139027Y-100773D01*
X139205Y-100952D01*
X139438Y-101048D01*
X139690Y-101048D01*
X139923Y-100952D01*
X140102Y-100774D01*
X140190Y-100562D01*
X140277Y-100773D01*
X140455Y-100952D01*
X140688Y-101048D01*
X140940Y-101048D01*
X141173Y-100952D01*
X141352Y-100774D01*
X141448Y-100541D01*
X141448Y-100289D01*
X141352Y-100056D01*
X141174Y-99877D01*
X141013Y-99811D01*
X141195Y-99736D01*
X141385Y-99546D01*
X141488Y-99299D01*
X141488Y-99031D01*
X141405Y-98831D01*
X141784Y-98756D01*
X141756Y-98823D01*
X141756Y-99075D01*
X141852Y-99308D01*
X142030Y-99487D01*
X142263Y-99583D01*
X142515Y-99583D01*
X142748Y-99487D01*
X142927Y-99309D01*
X143023Y-99076D01*
X143023Y-98824D01*
X142927Y-98591D01*
X142879Y-98543D01*
X147564Y-98543D01*
X147486Y-98732D01*
X147486Y-98984D01*
X147582Y-99217D01*
X147760Y-99395D01*
X147993Y-99492D01*
X148245Y-99492D01*
X148478Y-99396D01*
X148657Y-99218D01*
X148753Y-98985D01*
X148753Y-98733D01*
X148675Y-98543D01*
X149433Y-98543D01*
X149433Y-111410D01*
M02*
