G04 (created by PCBNEW (2013-07-07 BZR 4022)-stable) date 10/17/2015 1:36:39 PM*
%MOIN*%
G04 Gerber Fmt 3.4, Leading zero omitted, Abs format*
%FSLAX34Y34*%
G01*
G70*
G90*
G04 APERTURE LIST*
%ADD10C,0.00590551*%
%ADD11C,0.0035*%
%ADD12C,0.0059*%
%ADD13C,0.012*%
G04 APERTURE END LIST*
G54D10*
G54D11*
X91138Y-88517D02*
X90852Y-88517D01*
X90995Y-88517D02*
X90995Y-89017D01*
X90947Y-88946D01*
X90900Y-88898D01*
X90852Y-88874D01*
X91423Y-88803D02*
X91376Y-88827D01*
X91352Y-88850D01*
X91328Y-88898D01*
X91328Y-88922D01*
X91352Y-88970D01*
X91376Y-88993D01*
X91423Y-89017D01*
X91519Y-89017D01*
X91566Y-88993D01*
X91590Y-88970D01*
X91614Y-88922D01*
X91614Y-88898D01*
X91590Y-88850D01*
X91566Y-88827D01*
X91519Y-88803D01*
X91423Y-88803D01*
X91376Y-88779D01*
X91352Y-88755D01*
X91328Y-88708D01*
X91328Y-88612D01*
X91352Y-88565D01*
X91376Y-88541D01*
X91423Y-88517D01*
X91519Y-88517D01*
X91566Y-88541D01*
X91590Y-88565D01*
X91614Y-88612D01*
X91614Y-88708D01*
X91590Y-88755D01*
X91566Y-88779D01*
X91519Y-88803D01*
X91995Y-88779D02*
X91828Y-88779D01*
X91828Y-88517D02*
X91828Y-89017D01*
X92066Y-89017D01*
X92519Y-88517D02*
X92233Y-88517D01*
X92376Y-88517D02*
X92376Y-89017D01*
X92328Y-88946D01*
X92280Y-88898D01*
X92233Y-88874D01*
X92685Y-89017D02*
X92995Y-89017D01*
X92828Y-88827D01*
X92900Y-88827D01*
X92947Y-88803D01*
X92971Y-88779D01*
X92995Y-88731D01*
X92995Y-88612D01*
X92971Y-88565D01*
X92947Y-88541D01*
X92900Y-88517D01*
X92757Y-88517D01*
X92709Y-88541D01*
X92685Y-88565D01*
X93161Y-89017D02*
X93471Y-89017D01*
X93304Y-88827D01*
X93376Y-88827D01*
X93423Y-88803D01*
X93447Y-88779D01*
X93471Y-88731D01*
X93471Y-88612D01*
X93447Y-88565D01*
X93423Y-88541D01*
X93376Y-88517D01*
X93233Y-88517D01*
X93185Y-88541D01*
X93161Y-88565D01*
X93780Y-89017D02*
X93828Y-89017D01*
X93876Y-88993D01*
X93900Y-88970D01*
X93923Y-88922D01*
X93947Y-88827D01*
X93947Y-88708D01*
X93923Y-88612D01*
X93900Y-88565D01*
X93876Y-88541D01*
X93828Y-88517D01*
X93780Y-88517D01*
X93733Y-88541D01*
X93709Y-88565D01*
X93685Y-88612D01*
X93661Y-88708D01*
X93661Y-88827D01*
X93685Y-88922D01*
X93709Y-88970D01*
X93733Y-88993D01*
X93780Y-89017D01*
G54D12*
X118450Y-106575D02*
X118450Y-113725D01*
X118450Y-113725D02*
X125100Y-113725D01*
X125100Y-113725D02*
X125100Y-106550D01*
X125100Y-106550D02*
X118450Y-106550D01*
G54D11*
X124562Y-93449D02*
X124562Y-93163D01*
X125062Y-93306D02*
X124562Y-93306D01*
X125062Y-92734D02*
X125062Y-93020D01*
X125062Y-92877D02*
X124562Y-92877D01*
X124633Y-92925D01*
X124681Y-92972D01*
X124705Y-93020D01*
X125062Y-92496D02*
X125062Y-92401D01*
X125038Y-92353D01*
X125014Y-92330D01*
X124943Y-92282D01*
X124848Y-92258D01*
X124657Y-92258D01*
X124610Y-92282D01*
X124586Y-92306D01*
X124562Y-92353D01*
X124562Y-92449D01*
X124586Y-92496D01*
X124610Y-92520D01*
X124657Y-92544D01*
X124776Y-92544D01*
X124824Y-92520D01*
X124848Y-92496D01*
X124871Y-92449D01*
X124871Y-92353D01*
X124848Y-92306D01*
X124824Y-92282D01*
X124776Y-92258D01*
X123812Y-95627D02*
X123812Y-95294D01*
X124312Y-95627D01*
X124312Y-95294D01*
X123812Y-95175D02*
X123812Y-94889D01*
X124312Y-95032D02*
X123812Y-95032D01*
X123812Y-94770D02*
X124312Y-94437D01*
X123812Y-94437D02*
X124312Y-94770D01*
X123812Y-94008D02*
X123812Y-94246D01*
X124050Y-94270D01*
X124026Y-94246D01*
X124002Y-94199D01*
X124002Y-94080D01*
X124026Y-94032D01*
X124050Y-94008D01*
X124098Y-93984D01*
X124217Y-93984D01*
X124264Y-94008D01*
X124288Y-94032D01*
X124312Y-94080D01*
X124312Y-94199D01*
X124288Y-94246D01*
X124264Y-94270D01*
X123812Y-93532D02*
X123812Y-93770D01*
X124050Y-93794D01*
X124026Y-93770D01*
X124002Y-93722D01*
X124002Y-93603D01*
X124026Y-93556D01*
X124050Y-93532D01*
X124098Y-93508D01*
X124217Y-93508D01*
X124264Y-93532D01*
X124288Y-93556D01*
X124312Y-93603D01*
X124312Y-93722D01*
X124288Y-93770D01*
X124264Y-93794D01*
X123812Y-93341D02*
X123812Y-93032D01*
X124002Y-93199D01*
X124002Y-93127D01*
X124026Y-93079D01*
X124050Y-93056D01*
X124098Y-93032D01*
X124217Y-93032D01*
X124264Y-93056D01*
X124288Y-93079D01*
X124312Y-93127D01*
X124312Y-93270D01*
X124288Y-93318D01*
X124264Y-93341D01*
X124121Y-92818D02*
X124121Y-92437D01*
X123812Y-92270D02*
X123812Y-91984D01*
X124312Y-92127D02*
X123812Y-92127D01*
X123812Y-91722D02*
X123812Y-91627D01*
X123836Y-91579D01*
X123883Y-91532D01*
X123979Y-91508D01*
X124145Y-91508D01*
X124240Y-91532D01*
X124288Y-91579D01*
X124312Y-91627D01*
X124312Y-91722D01*
X124288Y-91770D01*
X124240Y-91818D01*
X124145Y-91841D01*
X123979Y-91841D01*
X123883Y-91818D01*
X123836Y-91770D01*
X123812Y-91722D01*
X124312Y-91270D02*
X124312Y-91175D01*
X124288Y-91127D01*
X124264Y-91103D01*
X124193Y-91056D01*
X124098Y-91032D01*
X123907Y-91032D01*
X123860Y-91056D01*
X123836Y-91079D01*
X123812Y-91127D01*
X123812Y-91222D01*
X123836Y-91270D01*
X123860Y-91294D01*
X123907Y-91318D01*
X124026Y-91318D01*
X124074Y-91294D01*
X124098Y-91270D01*
X124121Y-91222D01*
X124121Y-91127D01*
X124098Y-91079D01*
X124074Y-91056D01*
X124026Y-91032D01*
X123860Y-90841D02*
X123836Y-90818D01*
X123812Y-90770D01*
X123812Y-90651D01*
X123836Y-90603D01*
X123860Y-90579D01*
X123907Y-90556D01*
X123955Y-90556D01*
X124026Y-90579D01*
X124312Y-90865D01*
X124312Y-90556D01*
X123852Y-90619D02*
X123852Y-90333D01*
X124352Y-90476D02*
X123852Y-90476D01*
X123900Y-90190D02*
X123876Y-90166D01*
X123852Y-90119D01*
X123852Y-90000D01*
X123876Y-89952D01*
X123900Y-89928D01*
X123947Y-89904D01*
X123995Y-89904D01*
X124066Y-89928D01*
X124352Y-90214D01*
X124352Y-89904D01*
X124352Y-89428D02*
X124352Y-89714D01*
X124352Y-89571D02*
X123852Y-89571D01*
X123923Y-89619D01*
X123971Y-89666D01*
X123995Y-89714D01*
X124602Y-92297D02*
X124602Y-91964D01*
X125102Y-92297D01*
X125102Y-91964D01*
X124602Y-91845D02*
X124602Y-91559D01*
X125102Y-91702D02*
X124602Y-91702D01*
X124602Y-91440D02*
X125102Y-91107D01*
X124602Y-91107D02*
X125102Y-91440D01*
X124602Y-90678D02*
X124602Y-90916D01*
X124840Y-90940D01*
X124816Y-90916D01*
X124792Y-90869D01*
X124792Y-90750D01*
X124816Y-90702D01*
X124840Y-90678D01*
X124888Y-90654D01*
X125007Y-90654D01*
X125054Y-90678D01*
X125078Y-90702D01*
X125102Y-90750D01*
X125102Y-90869D01*
X125078Y-90916D01*
X125054Y-90940D01*
X124602Y-90202D02*
X124602Y-90440D01*
X124840Y-90464D01*
X124816Y-90440D01*
X124792Y-90392D01*
X124792Y-90273D01*
X124816Y-90226D01*
X124840Y-90202D01*
X124888Y-90178D01*
X125007Y-90178D01*
X125054Y-90202D01*
X125078Y-90226D01*
X125102Y-90273D01*
X125102Y-90392D01*
X125078Y-90440D01*
X125054Y-90464D01*
X124602Y-90011D02*
X124602Y-89702D01*
X124792Y-89869D01*
X124792Y-89797D01*
X124816Y-89749D01*
X124840Y-89726D01*
X124888Y-89702D01*
X125007Y-89702D01*
X125054Y-89726D01*
X125078Y-89749D01*
X125102Y-89797D01*
X125102Y-89940D01*
X125078Y-89988D01*
X125054Y-90011D01*
X124911Y-89488D02*
X124911Y-89107D01*
X124602Y-88940D02*
X124602Y-88654D01*
X125102Y-88797D02*
X124602Y-88797D01*
X124602Y-88392D02*
X124602Y-88297D01*
X124626Y-88249D01*
X124673Y-88202D01*
X124769Y-88178D01*
X124935Y-88178D01*
X125030Y-88202D01*
X125078Y-88249D01*
X125102Y-88297D01*
X125102Y-88392D01*
X125078Y-88440D01*
X125030Y-88488D01*
X124935Y-88511D01*
X124769Y-88511D01*
X124673Y-88488D01*
X124626Y-88440D01*
X124602Y-88392D01*
X125102Y-87940D02*
X125102Y-87845D01*
X125078Y-87797D01*
X125054Y-87773D01*
X124983Y-87726D01*
X124888Y-87702D01*
X124697Y-87702D01*
X124650Y-87726D01*
X124626Y-87749D01*
X124602Y-87797D01*
X124602Y-87892D01*
X124626Y-87940D01*
X124650Y-87964D01*
X124697Y-87988D01*
X124816Y-87988D01*
X124864Y-87964D01*
X124888Y-87940D01*
X124911Y-87892D01*
X124911Y-87797D01*
X124888Y-87749D01*
X124864Y-87726D01*
X124816Y-87702D01*
X124650Y-87511D02*
X124626Y-87488D01*
X124602Y-87440D01*
X124602Y-87321D01*
X124626Y-87273D01*
X124650Y-87249D01*
X124697Y-87226D01*
X124745Y-87226D01*
X124816Y-87249D01*
X125102Y-87535D01*
X125102Y-87226D01*
G54D13*
X122282Y-109517D02*
X122282Y-110003D01*
X122253Y-110060D01*
X122225Y-110089D01*
X122167Y-110117D01*
X122053Y-110117D01*
X121996Y-110089D01*
X121967Y-110060D01*
X121939Y-110003D01*
X121939Y-109517D01*
X121682Y-109575D02*
X121653Y-109546D01*
X121596Y-109517D01*
X121453Y-109517D01*
X121396Y-109546D01*
X121367Y-109575D01*
X121339Y-109632D01*
X121339Y-109689D01*
X121367Y-109775D01*
X121710Y-110117D01*
X121339Y-110117D01*
X127639Y-105342D02*
X127524Y-105342D01*
X127467Y-105371D01*
X127410Y-105428D01*
X127382Y-105542D01*
X127382Y-105742D01*
X127410Y-105857D01*
X127467Y-105914D01*
X127524Y-105942D01*
X127639Y-105942D01*
X127696Y-105914D01*
X127753Y-105857D01*
X127782Y-105742D01*
X127782Y-105542D01*
X127753Y-105428D01*
X127696Y-105371D01*
X127639Y-105342D01*
X127125Y-105942D02*
X127125Y-105342D01*
X126925Y-105771D01*
X126725Y-105342D01*
X126725Y-105942D01*
X126439Y-105628D02*
X126239Y-105628D01*
X126153Y-105942D02*
X126439Y-105942D01*
X126439Y-105342D01*
X126153Y-105342D01*
X125582Y-105371D02*
X125639Y-105342D01*
X125725Y-105342D01*
X125810Y-105371D01*
X125867Y-105428D01*
X125896Y-105485D01*
X125925Y-105600D01*
X125925Y-105685D01*
X125896Y-105800D01*
X125867Y-105857D01*
X125810Y-105914D01*
X125725Y-105942D01*
X125667Y-105942D01*
X125582Y-105914D01*
X125553Y-105885D01*
X125553Y-105685D01*
X125667Y-105685D01*
X125325Y-105771D02*
X125039Y-105771D01*
X125382Y-105942D02*
X125182Y-105342D01*
X124982Y-105942D01*
X124925Y-106000D02*
X124467Y-106000D01*
X124325Y-105942D02*
X124325Y-105342D01*
X124096Y-105342D01*
X124039Y-105371D01*
X124010Y-105400D01*
X123982Y-105457D01*
X123982Y-105542D01*
X124010Y-105600D01*
X124039Y-105628D01*
X124096Y-105657D01*
X124325Y-105657D01*
X123382Y-105885D02*
X123410Y-105914D01*
X123496Y-105942D01*
X123553Y-105942D01*
X123639Y-105914D01*
X123696Y-105857D01*
X123725Y-105800D01*
X123753Y-105685D01*
X123753Y-105600D01*
X123725Y-105485D01*
X123696Y-105428D01*
X123639Y-105371D01*
X123553Y-105342D01*
X123496Y-105342D01*
X123410Y-105371D01*
X123382Y-105400D01*
X122782Y-105885D02*
X122810Y-105914D01*
X122896Y-105942D01*
X122953Y-105942D01*
X123039Y-105914D01*
X123096Y-105857D01*
X123125Y-105800D01*
X123153Y-105685D01*
X123153Y-105600D01*
X123125Y-105485D01*
X123096Y-105428D01*
X123039Y-105371D01*
X122953Y-105342D01*
X122896Y-105342D01*
X122810Y-105371D01*
X122782Y-105400D01*
X122525Y-105714D02*
X122067Y-105714D01*
X121810Y-105914D02*
X121725Y-105942D01*
X121582Y-105942D01*
X121525Y-105914D01*
X121496Y-105885D01*
X121467Y-105828D01*
X121467Y-105771D01*
X121496Y-105714D01*
X121525Y-105685D01*
X121582Y-105657D01*
X121696Y-105628D01*
X121753Y-105600D01*
X121782Y-105571D01*
X121810Y-105514D01*
X121810Y-105457D01*
X121782Y-105400D01*
X121753Y-105371D01*
X121696Y-105342D01*
X121553Y-105342D01*
X121467Y-105371D01*
X121210Y-105942D02*
X121210Y-105342D01*
X121010Y-105771D01*
X120810Y-105342D01*
X120810Y-105942D01*
X120525Y-105942D02*
X120525Y-105342D01*
X120296Y-105342D01*
X120239Y-105371D01*
X120210Y-105400D01*
X120182Y-105457D01*
X120182Y-105542D01*
X120210Y-105600D01*
X120239Y-105628D01*
X120296Y-105657D01*
X120525Y-105657D01*
X120067Y-106000D02*
X119610Y-106000D01*
X119467Y-105942D02*
X119467Y-105342D01*
X119125Y-105942D02*
X119382Y-105600D01*
X119125Y-105342D02*
X119467Y-105685D01*
X118867Y-105714D02*
X118410Y-105714D01*
X118210Y-105342D02*
X117867Y-105342D01*
X118039Y-105942D02*
X118039Y-105342D01*
X117553Y-105657D02*
X117553Y-105942D01*
X117753Y-105342D02*
X117553Y-105657D01*
X117353Y-105342D01*
X117153Y-105942D02*
X117153Y-105342D01*
X116924Y-105342D01*
X116867Y-105371D01*
X116839Y-105400D01*
X116810Y-105457D01*
X116810Y-105542D01*
X116839Y-105600D01*
X116867Y-105628D01*
X116924Y-105657D01*
X117153Y-105657D01*
X116553Y-105628D02*
X116353Y-105628D01*
X116267Y-105942D02*
X116553Y-105942D01*
X116553Y-105342D01*
X116267Y-105342D01*
X123314Y-109067D02*
X123314Y-108467D01*
X122971Y-109067D02*
X123228Y-108725D01*
X122971Y-108467D02*
X123314Y-108810D01*
X122714Y-108839D02*
X122257Y-108839D01*
X122057Y-108467D02*
X121714Y-108467D01*
X121885Y-109067D02*
X121885Y-108467D01*
X121571Y-108667D02*
X121428Y-109067D01*
X121285Y-108667D02*
X121428Y-109067D01*
X121485Y-109210D01*
X121514Y-109239D01*
X121571Y-109267D01*
X121057Y-108667D02*
X121057Y-109267D01*
X121057Y-108696D02*
X121000Y-108667D01*
X120885Y-108667D01*
X120828Y-108696D01*
X120800Y-108725D01*
X120771Y-108782D01*
X120771Y-108953D01*
X120800Y-109010D01*
X120828Y-109039D01*
X120885Y-109067D01*
X121000Y-109067D01*
X121057Y-109039D01*
X120285Y-109039D02*
X120342Y-109067D01*
X120457Y-109067D01*
X120514Y-109039D01*
X120542Y-108982D01*
X120542Y-108753D01*
X120514Y-108696D01*
X120457Y-108667D01*
X120342Y-108667D01*
X120285Y-108696D01*
X120257Y-108753D01*
X120257Y-108810D01*
X120542Y-108867D01*
G54D11*
X142680Y-96002D02*
X142680Y-95502D01*
X142800Y-95502D01*
X142871Y-95526D01*
X142919Y-95573D01*
X142942Y-95621D01*
X142966Y-95716D01*
X142966Y-95788D01*
X142942Y-95883D01*
X142919Y-95930D01*
X142871Y-95978D01*
X142800Y-96002D01*
X142680Y-96002D01*
X143419Y-95502D02*
X143180Y-95502D01*
X143157Y-95740D01*
X143180Y-95716D01*
X143228Y-95692D01*
X143347Y-95692D01*
X143395Y-95716D01*
X143419Y-95740D01*
X143442Y-95788D01*
X143442Y-95907D01*
X143419Y-95954D01*
X143395Y-95978D01*
X143347Y-96002D01*
X143228Y-96002D01*
X143180Y-95978D01*
X143157Y-95954D01*
X138840Y-96002D02*
X138673Y-95764D01*
X138554Y-96002D02*
X138554Y-95502D01*
X138745Y-95502D01*
X138792Y-95526D01*
X138816Y-95550D01*
X138840Y-95597D01*
X138840Y-95669D01*
X138816Y-95716D01*
X138792Y-95740D01*
X138745Y-95764D01*
X138554Y-95764D01*
X139054Y-95502D02*
X139054Y-95907D01*
X139078Y-95954D01*
X139102Y-95978D01*
X139150Y-96002D01*
X139245Y-96002D01*
X139292Y-95978D01*
X139316Y-95954D01*
X139340Y-95907D01*
X139340Y-95502D01*
X139864Y-96002D02*
X139697Y-95764D01*
X139578Y-96002D02*
X139578Y-95502D01*
X139769Y-95502D01*
X139816Y-95526D01*
X139840Y-95550D01*
X139864Y-95597D01*
X139864Y-95669D01*
X139840Y-95716D01*
X139816Y-95740D01*
X139769Y-95764D01*
X139578Y-95764D01*
X140340Y-95526D02*
X140292Y-95502D01*
X140221Y-95502D01*
X140150Y-95526D01*
X140102Y-95573D01*
X140078Y-95621D01*
X140054Y-95716D01*
X140054Y-95788D01*
X140078Y-95883D01*
X140102Y-95930D01*
X140150Y-95978D01*
X140221Y-96002D01*
X140269Y-96002D01*
X140340Y-95978D01*
X140364Y-95954D01*
X140364Y-95788D01*
X140269Y-95788D01*
X140530Y-95502D02*
X140840Y-95502D01*
X140673Y-95692D01*
X140745Y-95692D01*
X140792Y-95716D01*
X140816Y-95740D01*
X140840Y-95788D01*
X140840Y-95907D01*
X140816Y-95954D01*
X140792Y-95978D01*
X140745Y-96002D01*
X140602Y-96002D01*
X140554Y-95978D01*
X140530Y-95954D01*
X141150Y-95502D02*
X141197Y-95502D01*
X141245Y-95526D01*
X141269Y-95550D01*
X141292Y-95597D01*
X141316Y-95692D01*
X141316Y-95811D01*
X141292Y-95907D01*
X141269Y-95954D01*
X141245Y-95978D01*
X141197Y-96002D01*
X141150Y-96002D01*
X141102Y-95978D01*
X141078Y-95954D01*
X141054Y-95907D01*
X141030Y-95811D01*
X141030Y-95692D01*
X141054Y-95597D01*
X141078Y-95550D01*
X141102Y-95526D01*
X141150Y-95502D01*
X141745Y-95502D02*
X141650Y-95502D01*
X141602Y-95526D01*
X141578Y-95550D01*
X141530Y-95621D01*
X141507Y-95716D01*
X141507Y-95907D01*
X141530Y-95954D01*
X141554Y-95978D01*
X141602Y-96002D01*
X141697Y-96002D01*
X141745Y-95978D01*
X141769Y-95954D01*
X141792Y-95907D01*
X141792Y-95788D01*
X141769Y-95740D01*
X141745Y-95716D01*
X141697Y-95692D01*
X141602Y-95692D01*
X141554Y-95716D01*
X141530Y-95740D01*
X141507Y-95788D01*
X142102Y-95502D02*
X142150Y-95502D01*
X142197Y-95526D01*
X142221Y-95550D01*
X142245Y-95597D01*
X142269Y-95692D01*
X142269Y-95811D01*
X142245Y-95907D01*
X142221Y-95954D01*
X142197Y-95978D01*
X142150Y-96002D01*
X142102Y-96002D01*
X142054Y-95978D01*
X142030Y-95954D01*
X142007Y-95907D01*
X141983Y-95811D01*
X141983Y-95692D01*
X142007Y-95597D01*
X142030Y-95550D01*
X142054Y-95526D01*
X142102Y-95502D01*
X124456Y-109989D02*
X124780Y-109989D01*
X124818Y-109970D01*
X124837Y-109951D01*
X124856Y-109913D01*
X124856Y-109837D01*
X124837Y-109799D01*
X124818Y-109780D01*
X124780Y-109761D01*
X124456Y-109761D01*
X124456Y-109380D02*
X124456Y-109570D01*
X124647Y-109589D01*
X124628Y-109570D01*
X124609Y-109532D01*
X124609Y-109437D01*
X124628Y-109399D01*
X124647Y-109380D01*
X124685Y-109361D01*
X124780Y-109361D01*
X124818Y-109380D01*
X124837Y-109399D01*
X124856Y-109437D01*
X124856Y-109532D01*
X124837Y-109570D01*
X124818Y-109589D01*
X127526Y-110275D02*
X127526Y-110465D01*
X127126Y-110465D01*
X127126Y-110199D02*
X127126Y-109970D01*
X127526Y-110084D02*
X127126Y-110084D01*
X127126Y-109875D02*
X127126Y-109627D01*
X127279Y-109761D01*
X127279Y-109704D01*
X127298Y-109665D01*
X127317Y-109646D01*
X127355Y-109627D01*
X127450Y-109627D01*
X127488Y-109646D01*
X127507Y-109665D01*
X127526Y-109704D01*
X127526Y-109818D01*
X127507Y-109856D01*
X127488Y-109875D01*
X127126Y-109380D02*
X127126Y-109342D01*
X127145Y-109304D01*
X127165Y-109285D01*
X127203Y-109265D01*
X127279Y-109246D01*
X127374Y-109246D01*
X127450Y-109265D01*
X127488Y-109285D01*
X127507Y-109304D01*
X127526Y-109342D01*
X127526Y-109380D01*
X127507Y-109418D01*
X127488Y-109437D01*
X127450Y-109456D01*
X127374Y-109475D01*
X127279Y-109475D01*
X127203Y-109456D01*
X127165Y-109437D01*
X127145Y-109418D01*
X127126Y-109380D01*
X127298Y-109018D02*
X127279Y-109056D01*
X127260Y-109075D01*
X127222Y-109094D01*
X127203Y-109094D01*
X127165Y-109075D01*
X127145Y-109056D01*
X127126Y-109018D01*
X127126Y-108942D01*
X127145Y-108904D01*
X127165Y-108885D01*
X127203Y-108865D01*
X127222Y-108865D01*
X127260Y-108885D01*
X127279Y-108904D01*
X127298Y-108942D01*
X127298Y-109018D01*
X127317Y-109056D01*
X127336Y-109075D01*
X127374Y-109094D01*
X127450Y-109094D01*
X127488Y-109075D01*
X127507Y-109056D01*
X127526Y-109018D01*
X127526Y-108942D01*
X127507Y-108904D01*
X127488Y-108885D01*
X127450Y-108865D01*
X127374Y-108865D01*
X127336Y-108885D01*
X127317Y-108904D01*
X127298Y-108942D01*
X127526Y-108485D02*
X127526Y-108713D01*
X127526Y-108599D02*
X127126Y-108599D01*
X127184Y-108637D01*
X127222Y-108675D01*
X127241Y-108713D01*
X137200Y-97216D02*
X137166Y-97283D01*
X137100Y-97350D01*
X137000Y-97450D01*
X136966Y-97516D01*
X136966Y-97583D01*
X137133Y-97550D02*
X137100Y-97616D01*
X137033Y-97683D01*
X136900Y-97716D01*
X136666Y-97716D01*
X136533Y-97683D01*
X136466Y-97616D01*
X136433Y-97550D01*
X136433Y-97416D01*
X136466Y-97350D01*
X136533Y-97283D01*
X136666Y-97250D01*
X136900Y-97250D01*
X137033Y-97283D01*
X137100Y-97350D01*
X137133Y-97416D01*
X137133Y-97550D01*
X137133Y-96583D02*
X137133Y-96983D01*
X137133Y-96783D02*
X136433Y-96783D01*
X136533Y-96850D01*
X136600Y-96916D01*
X136633Y-96983D01*
X132966Y-99549D02*
X132966Y-99783D01*
X133333Y-99783D02*
X132633Y-99783D01*
X132633Y-99449D01*
X133266Y-98783D02*
X133300Y-98816D01*
X133333Y-98916D01*
X133333Y-98983D01*
X133300Y-99083D01*
X133233Y-99149D01*
X133166Y-99183D01*
X133033Y-99216D01*
X132933Y-99216D01*
X132800Y-99183D01*
X132733Y-99149D01*
X132666Y-99083D01*
X132633Y-98983D01*
X132633Y-98916D01*
X132666Y-98816D01*
X132700Y-98783D01*
X133133Y-98516D02*
X133133Y-98183D01*
X133333Y-98583D02*
X132633Y-98349D01*
X133333Y-98116D01*
X132866Y-97583D02*
X133333Y-97583D01*
X132600Y-97749D02*
X133100Y-97916D01*
X133100Y-97483D01*
X132633Y-97283D02*
X132633Y-96816D01*
X133333Y-97116D01*
X133333Y-96550D02*
X132633Y-96550D01*
X133333Y-96150D01*
X132633Y-96150D01*
X132633Y-95516D02*
X132633Y-95649D01*
X132666Y-95716D01*
X132700Y-95749D01*
X132800Y-95816D01*
X132933Y-95849D01*
X133200Y-95849D01*
X133266Y-95816D01*
X133300Y-95783D01*
X133333Y-95716D01*
X133333Y-95583D01*
X133300Y-95516D01*
X133266Y-95483D01*
X133200Y-95449D01*
X133033Y-95449D01*
X132966Y-95483D01*
X132933Y-95516D01*
X132900Y-95583D01*
X132900Y-95716D01*
X132933Y-95783D01*
X132966Y-95816D01*
X133033Y-95849D01*
X132633Y-95016D02*
X132633Y-94950D01*
X132666Y-94883D01*
X132700Y-94850D01*
X132766Y-94816D01*
X132900Y-94783D01*
X133066Y-94783D01*
X133200Y-94816D01*
X133266Y-94850D01*
X133300Y-94883D01*
X133333Y-94950D01*
X133333Y-95016D01*
X133300Y-95083D01*
X133266Y-95116D01*
X133200Y-95150D01*
X133066Y-95183D01*
X132900Y-95183D01*
X132766Y-95150D01*
X132700Y-95116D01*
X132666Y-95083D01*
X132633Y-95016D01*
X145216Y-106204D02*
X145192Y-106228D01*
X145121Y-106252D01*
X145073Y-106252D01*
X145002Y-106228D01*
X144954Y-106180D01*
X144930Y-106133D01*
X144907Y-106038D01*
X144907Y-105966D01*
X144930Y-105871D01*
X144954Y-105823D01*
X145002Y-105776D01*
X145073Y-105752D01*
X145121Y-105752D01*
X145192Y-105776D01*
X145216Y-105800D01*
X145669Y-105752D02*
X145430Y-105752D01*
X145407Y-105990D01*
X145430Y-105966D01*
X145478Y-105942D01*
X145597Y-105942D01*
X145645Y-105966D01*
X145669Y-105990D01*
X145692Y-106038D01*
X145692Y-106157D01*
X145669Y-106204D01*
X145645Y-106228D01*
X145597Y-106252D01*
X145478Y-106252D01*
X145430Y-106228D01*
X145407Y-106204D01*
X144557Y-107702D02*
X144604Y-107702D01*
X144652Y-107726D01*
X144676Y-107750D01*
X144700Y-107797D01*
X144723Y-107892D01*
X144723Y-108011D01*
X144700Y-108107D01*
X144676Y-108154D01*
X144652Y-108178D01*
X144604Y-108202D01*
X144557Y-108202D01*
X144509Y-108178D01*
X144485Y-108154D01*
X144461Y-108107D01*
X144438Y-108011D01*
X144438Y-107892D01*
X144461Y-107797D01*
X144485Y-107750D01*
X144509Y-107726D01*
X144557Y-107702D01*
X144938Y-108154D02*
X144961Y-108178D01*
X144938Y-108202D01*
X144914Y-108178D01*
X144938Y-108154D01*
X144938Y-108202D01*
X145390Y-107869D02*
X145390Y-108202D01*
X145271Y-107678D02*
X145152Y-108035D01*
X145461Y-108035D01*
X145604Y-107702D02*
X145938Y-107702D01*
X145723Y-108202D01*
X146342Y-107869D02*
X146342Y-108202D01*
X146128Y-107869D02*
X146128Y-108130D01*
X146152Y-108178D01*
X146200Y-108202D01*
X146271Y-108202D01*
X146319Y-108178D01*
X146342Y-108154D01*
X146747Y-107940D02*
X146580Y-107940D01*
X146580Y-108202D02*
X146580Y-107702D01*
X146819Y-107702D01*
X147366Y-107750D02*
X147390Y-107726D01*
X147438Y-107702D01*
X147557Y-107702D01*
X147604Y-107726D01*
X147628Y-107750D01*
X147652Y-107797D01*
X147652Y-107845D01*
X147628Y-107916D01*
X147342Y-108202D01*
X147652Y-108202D01*
X147819Y-107702D02*
X148152Y-107702D01*
X147938Y-108202D01*
X148580Y-107702D02*
X148342Y-107702D01*
X148319Y-107940D01*
X148342Y-107916D01*
X148390Y-107892D01*
X148509Y-107892D01*
X148557Y-107916D01*
X148580Y-107940D01*
X148604Y-107988D01*
X148604Y-108107D01*
X148580Y-108154D01*
X148557Y-108178D01*
X148509Y-108202D01*
X148390Y-108202D01*
X148342Y-108178D01*
X148319Y-108154D01*
X148747Y-107702D02*
X148914Y-108202D01*
X149080Y-107702D01*
X149223Y-108059D02*
X149461Y-108059D01*
X149176Y-108202D02*
X149342Y-107702D01*
X149509Y-108202D01*
X149961Y-108154D02*
X149938Y-108178D01*
X149866Y-108202D01*
X149819Y-108202D01*
X149747Y-108178D01*
X149700Y-108130D01*
X149676Y-108083D01*
X149652Y-107988D01*
X149652Y-107916D01*
X149676Y-107821D01*
X149700Y-107773D01*
X149747Y-107726D01*
X149819Y-107702D01*
X149866Y-107702D01*
X149938Y-107726D01*
X149961Y-107750D01*
X145226Y-110004D02*
X145202Y-110028D01*
X145131Y-110052D01*
X145083Y-110052D01*
X145012Y-110028D01*
X144964Y-109980D01*
X144940Y-109933D01*
X144917Y-109838D01*
X144917Y-109766D01*
X144940Y-109671D01*
X144964Y-109623D01*
X145012Y-109576D01*
X145083Y-109552D01*
X145131Y-109552D01*
X145202Y-109576D01*
X145226Y-109600D01*
X145655Y-109719D02*
X145655Y-110052D01*
X145536Y-109528D02*
X145417Y-109885D01*
X145726Y-109885D01*
X144567Y-111502D02*
X144614Y-111502D01*
X144662Y-111526D01*
X144686Y-111550D01*
X144710Y-111597D01*
X144733Y-111692D01*
X144733Y-111811D01*
X144710Y-111907D01*
X144686Y-111954D01*
X144662Y-111978D01*
X144614Y-112002D01*
X144567Y-112002D01*
X144519Y-111978D01*
X144495Y-111954D01*
X144471Y-111907D01*
X144448Y-111811D01*
X144448Y-111692D01*
X144471Y-111597D01*
X144495Y-111550D01*
X144519Y-111526D01*
X144567Y-111502D01*
X144948Y-111954D02*
X144971Y-111978D01*
X144948Y-112002D01*
X144924Y-111978D01*
X144948Y-111954D01*
X144948Y-112002D01*
X145400Y-111669D02*
X145400Y-112002D01*
X145281Y-111478D02*
X145162Y-111835D01*
X145471Y-111835D01*
X145614Y-111502D02*
X145948Y-111502D01*
X145733Y-112002D01*
X146352Y-111669D02*
X146352Y-112002D01*
X146138Y-111669D02*
X146138Y-111930D01*
X146162Y-111978D01*
X146210Y-112002D01*
X146281Y-112002D01*
X146329Y-111978D01*
X146352Y-111954D01*
X146757Y-111740D02*
X146590Y-111740D01*
X146590Y-112002D02*
X146590Y-111502D01*
X146829Y-111502D01*
X147376Y-111550D02*
X147400Y-111526D01*
X147448Y-111502D01*
X147567Y-111502D01*
X147614Y-111526D01*
X147638Y-111550D01*
X147662Y-111597D01*
X147662Y-111645D01*
X147638Y-111716D01*
X147352Y-112002D01*
X147662Y-112002D01*
X147829Y-111502D02*
X148162Y-111502D01*
X147948Y-112002D01*
X148590Y-111502D02*
X148352Y-111502D01*
X148329Y-111740D01*
X148352Y-111716D01*
X148400Y-111692D01*
X148519Y-111692D01*
X148567Y-111716D01*
X148590Y-111740D01*
X148614Y-111788D01*
X148614Y-111907D01*
X148590Y-111954D01*
X148567Y-111978D01*
X148519Y-112002D01*
X148400Y-112002D01*
X148352Y-111978D01*
X148329Y-111954D01*
X148757Y-111502D02*
X148924Y-112002D01*
X149090Y-111502D01*
X149233Y-111859D02*
X149471Y-111859D01*
X149186Y-112002D02*
X149352Y-111502D01*
X149519Y-112002D01*
X149971Y-111954D02*
X149948Y-111978D01*
X149876Y-112002D01*
X149829Y-112002D01*
X149757Y-111978D01*
X149710Y-111930D01*
X149686Y-111883D01*
X149662Y-111788D01*
X149662Y-111716D01*
X149686Y-111621D01*
X149710Y-111573D01*
X149757Y-111526D01*
X149829Y-111502D01*
X149876Y-111502D01*
X149948Y-111526D01*
X149971Y-111550D01*
M02*
