G04 (created by PCBNEW (2013-07-07 BZR 4022)-stable) date 11/5/2016 11:09:50 AM*
%MOIN*%
G04 Gerber Fmt 3.4, Leading zero omitted, Abs format*
%FSLAX34Y34*%
G01*
G70*
G90*
G04 APERTURE LIST*
%ADD10C,0.00590551*%
%ADD11R,0.06X0.06*%
%ADD12C,0.06*%
%ADD13R,0.055X0.055*%
%ADD14C,0.055*%
%ADD15C,0.07*%
%ADD16R,0.07X0.07*%
%ADD17R,0.35X0.35*%
%ADD18C,0.0984*%
%ADD19C,0.0984252*%
%ADD20R,0.0587X0.0587*%
%ADD21C,0.0587*%
%ADD22C,0.063*%
%ADD23C,0.056*%
%ADD24C,0.15748*%
%ADD25C,0.0787402*%
%ADD26O,0.0885X0.177*%
%ADD27C,0.066*%
%ADD28C,0.472441*%
%ADD29C,0.035*%
%ADD30C,0.019685*%
%ADD31C,0.00984252*%
%ADD32C,0.0149606*%
%ADD33C,0.01*%
G04 APERTURE END LIST*
G54D10*
G54D11*
X119600Y-101800D03*
G54D12*
X119600Y-100800D03*
X120600Y-101800D03*
X120600Y-100800D03*
X121600Y-101800D03*
X121600Y-100800D03*
X122600Y-101800D03*
X122600Y-100800D03*
X123600Y-101800D03*
X123600Y-100800D03*
X124600Y-101800D03*
X124600Y-100800D03*
X125600Y-101800D03*
X125600Y-100800D03*
X126600Y-101800D03*
X126600Y-100800D03*
X127600Y-101800D03*
X127600Y-100800D03*
X128600Y-101800D03*
X128600Y-100800D03*
X138140Y-106480D03*
X142140Y-106480D03*
X130550Y-106750D03*
X130550Y-110750D03*
X136100Y-110970D03*
X136100Y-106970D03*
X137040Y-106975D03*
X137040Y-110975D03*
X138020Y-110960D03*
X142020Y-110960D03*
X142120Y-105320D03*
X138120Y-105320D03*
G54D13*
X131650Y-107700D03*
G54D14*
X131650Y-108700D03*
X131650Y-109700D03*
X134650Y-109700D03*
X134650Y-108700D03*
X134650Y-107700D03*
G54D15*
X139520Y-102030D03*
G54D16*
X139520Y-104030D03*
G54D15*
X139520Y-103030D03*
G54D17*
X133020Y-103030D03*
G54D14*
X141880Y-108780D03*
X139880Y-108780D03*
G54D18*
X124545Y-94440D03*
X119151Y-94440D03*
X124939Y-89125D03*
X118758Y-89125D03*
G54D14*
X141880Y-109740D03*
X139880Y-109740D03*
X141880Y-107640D03*
X139880Y-107640D03*
G54D19*
X146670Y-97740D03*
X147220Y-95390D03*
X146370Y-96390D03*
G54D20*
X138700Y-109054D03*
G54D21*
X138700Y-108266D03*
G54D22*
X142020Y-112040D03*
X138020Y-112040D03*
G54D23*
X143355Y-105690D03*
X149064Y-105690D03*
X143355Y-109520D03*
X149064Y-109520D03*
G54D15*
X137720Y-95600D03*
X138720Y-95600D03*
G54D16*
X139720Y-95600D03*
G54D24*
X147070Y-112276D03*
X143880Y-112246D03*
X148700Y-101056D03*
X146700Y-100006D03*
X148560Y-94682D03*
X148350Y-89143D03*
X148350Y-87300D03*
X132290Y-93166D03*
X132250Y-89206D03*
G54D25*
X145210Y-96230D03*
X145210Y-100230D03*
X144700Y-101700D03*
X140700Y-101700D03*
X144700Y-103100D03*
X140700Y-103100D03*
G54D24*
X131280Y-97006D03*
G54D11*
X123600Y-103210D03*
G54D12*
X122600Y-103210D03*
X121600Y-103210D03*
G54D26*
X142150Y-91500D03*
X148150Y-91500D03*
G54D27*
X147900Y-99500D03*
X147900Y-96500D03*
X148900Y-99500D03*
X148900Y-96500D03*
X146100Y-103300D03*
X149100Y-103300D03*
X146100Y-102400D03*
X149100Y-102400D03*
G54D20*
X132550Y-91444D03*
G54D21*
X132550Y-90656D03*
G54D28*
X133850Y-113300D03*
X133850Y-84950D03*
G54D24*
X131250Y-98856D03*
G54D11*
X119600Y-105750D03*
G54D12*
X119600Y-104750D03*
X120600Y-105750D03*
X120600Y-104750D03*
X121600Y-105750D03*
X121600Y-104750D03*
X122600Y-105750D03*
X122600Y-104750D03*
X123600Y-105750D03*
X123600Y-104750D03*
X124600Y-105750D03*
X124600Y-104750D03*
X125600Y-105750D03*
X125600Y-104750D03*
X126600Y-105750D03*
X126600Y-104750D03*
X127600Y-105750D03*
X127600Y-104750D03*
X128600Y-105750D03*
X128600Y-104750D03*
G54D11*
X119600Y-109700D03*
G54D12*
X119600Y-108700D03*
X120600Y-109700D03*
X120600Y-108700D03*
X121600Y-109700D03*
X121600Y-108700D03*
X122600Y-109700D03*
X122600Y-108700D03*
X123600Y-109700D03*
X123600Y-108700D03*
X124600Y-109700D03*
X124600Y-108700D03*
X125600Y-109700D03*
X125600Y-108700D03*
X126600Y-109700D03*
X126600Y-108700D03*
X127600Y-109700D03*
X127600Y-108700D03*
X128600Y-109700D03*
X128600Y-108700D03*
G54D24*
X144500Y-86006D03*
X146350Y-86006D03*
G54D29*
X130350Y-93000D03*
X130750Y-93000D03*
X130350Y-92600D03*
X130750Y-92600D03*
X133800Y-92250D03*
X134700Y-92250D03*
X134250Y-92750D03*
X133800Y-93250D03*
X134700Y-93250D03*
X134250Y-93750D03*
X133300Y-93750D03*
X133800Y-94200D03*
X134700Y-94200D03*
X134250Y-94200D03*
X133300Y-94200D03*
X133800Y-93750D03*
X134700Y-93750D03*
X134250Y-93250D03*
X133800Y-92750D03*
X134700Y-92750D03*
X134250Y-92250D03*
X133350Y-92250D03*
G54D30*
X123150Y-97200D03*
X124045Y-96030D03*
X128650Y-88150D03*
X124375Y-97365D03*
X123910Y-97790D03*
X122900Y-98000D03*
X124810Y-96040D03*
X128650Y-87650D03*
G54D29*
X119350Y-96800D03*
X127450Y-90400D03*
X129050Y-96150D03*
X129550Y-96150D03*
X139600Y-88150D03*
X139600Y-85450D03*
X139400Y-88700D03*
X135850Y-96900D03*
X135400Y-97300D03*
X135400Y-96900D03*
X133480Y-99775D03*
G54D30*
X125750Y-97900D03*
G54D29*
X137400Y-86300D03*
X137400Y-87850D03*
G54D30*
X126050Y-97550D03*
G54D29*
X131155Y-95680D03*
X127490Y-98235D03*
X140200Y-89550D03*
X122540Y-96565D03*
X125585Y-95130D03*
X140840Y-87420D03*
X141200Y-89555D03*
X140840Y-86770D03*
X140840Y-85885D03*
X142500Y-95100D03*
X136300Y-99700D03*
X136300Y-99300D03*
X136700Y-98500D03*
X136700Y-98900D03*
X136300Y-98900D03*
X136300Y-98500D03*
X142100Y-95100D03*
X141700Y-95100D03*
X141700Y-93200D03*
X141700Y-93600D03*
X142500Y-93600D03*
X142500Y-93200D03*
X142100Y-93200D03*
X134705Y-96795D03*
X126385Y-97925D03*
G54D30*
X123910Y-99395D03*
G54D29*
X128700Y-87150D03*
X128700Y-85950D03*
X142650Y-87000D03*
X142300Y-85450D03*
G54D31*
X132290Y-93166D02*
X132290Y-92490D01*
X119600Y-100400D02*
X119600Y-100800D01*
X120950Y-99050D02*
X119600Y-100400D01*
X120950Y-94700D02*
X120950Y-99050D01*
X124200Y-91450D02*
X120950Y-94700D01*
X131250Y-91450D02*
X124200Y-91450D01*
X132290Y-92490D02*
X131250Y-91450D01*
X124810Y-96040D02*
X124810Y-99475D01*
X124810Y-99475D02*
X124085Y-100200D01*
X124085Y-100200D02*
X124085Y-101315D01*
X124085Y-101315D02*
X123600Y-101800D01*
G54D32*
X129050Y-96150D02*
X129050Y-98700D01*
G54D31*
X129550Y-96150D02*
X129050Y-96150D01*
G54D32*
X129050Y-98700D02*
X130550Y-100200D01*
X130550Y-100200D02*
X130550Y-105100D01*
X134150Y-108700D02*
X134650Y-108700D01*
X130550Y-105100D02*
X134150Y-108700D01*
X135850Y-96900D02*
X135400Y-96900D01*
X133480Y-99770D02*
X135400Y-97850D01*
X135400Y-97850D02*
X135400Y-97300D01*
X133480Y-99770D02*
X133480Y-99775D01*
X130550Y-100200D02*
X133055Y-100200D01*
X133055Y-100200D02*
X133480Y-99775D01*
G54D31*
X127450Y-88500D02*
X126050Y-88500D01*
X126050Y-88500D02*
X125850Y-88300D01*
X129350Y-88500D02*
X130050Y-89200D01*
X127450Y-88500D02*
X129350Y-88500D01*
X130050Y-89200D02*
X132243Y-89200D01*
X126160Y-103550D02*
X125905Y-103550D01*
X120080Y-104130D02*
X119500Y-103550D01*
X125325Y-104130D02*
X120080Y-104130D01*
X125905Y-103550D02*
X125325Y-104130D01*
X118215Y-102265D02*
X119500Y-103550D01*
X118215Y-90785D02*
X118215Y-102265D01*
X119800Y-89200D02*
X118215Y-90785D01*
X125850Y-88300D02*
X125460Y-87910D01*
X125460Y-87910D02*
X121090Y-87910D01*
X121090Y-87910D02*
X119800Y-89200D01*
X128000Y-103550D02*
X126160Y-103550D01*
X132243Y-89200D02*
X132250Y-89206D01*
X133700Y-89200D02*
X132256Y-89200D01*
X132256Y-89200D02*
X132250Y-89206D01*
X140200Y-89550D02*
X139800Y-89550D01*
X134675Y-88225D02*
X138475Y-88225D01*
X134675Y-88225D02*
X133700Y-89200D01*
X138475Y-88225D02*
X139800Y-89550D01*
X141200Y-89555D02*
X140205Y-89555D01*
X140205Y-89555D02*
X140200Y-89550D01*
X143300Y-89550D02*
X141205Y-89550D01*
X143850Y-92350D02*
X143850Y-90100D01*
X143000Y-93200D02*
X143850Y-92350D01*
X142500Y-93200D02*
X143000Y-93200D01*
X143300Y-89550D02*
X143850Y-90100D01*
X141205Y-89550D02*
X141200Y-89555D01*
X132550Y-90656D02*
X132550Y-89506D01*
X132550Y-89506D02*
X132250Y-89206D01*
X128600Y-109700D02*
X128600Y-108700D01*
X128600Y-105750D02*
X128600Y-108700D01*
X128600Y-101800D02*
X128600Y-102950D01*
X128600Y-102950D02*
X128000Y-103550D01*
X128600Y-100800D02*
X128600Y-101800D01*
X128600Y-105750D02*
X128600Y-104750D01*
X141200Y-89555D02*
X141200Y-87780D01*
X141200Y-87780D02*
X140840Y-87420D01*
X128600Y-104150D02*
X128600Y-104750D01*
X128000Y-103550D02*
X128600Y-104150D01*
G54D10*
G36*
X135200Y-95450D02*
X131570Y-95450D01*
X130450Y-94329D01*
X130450Y-93600D01*
X126350Y-93600D01*
X123479Y-93600D01*
X121950Y-95129D01*
X121950Y-99229D01*
X120950Y-100229D01*
X120950Y-100350D01*
X120950Y-102300D01*
X119200Y-102300D01*
X119200Y-99370D01*
X120150Y-98420D01*
X120150Y-93370D01*
X122720Y-90800D01*
X131479Y-90800D01*
X131879Y-91200D01*
X132800Y-91200D01*
X134200Y-91200D01*
X134379Y-91200D01*
X135200Y-92020D01*
X135200Y-95450D01*
X135200Y-95450D01*
G37*
G54D33*
X135200Y-95450D02*
X131570Y-95450D01*
X130450Y-94329D01*
X130450Y-93600D01*
X126350Y-93600D01*
X123479Y-93600D01*
X121950Y-95129D01*
X121950Y-99229D01*
X120950Y-100229D01*
X120950Y-100350D01*
X120950Y-102300D01*
X119200Y-102300D01*
X119200Y-99370D01*
X120150Y-98420D01*
X120150Y-93370D01*
X122720Y-90800D01*
X131479Y-90800D01*
X131879Y-91200D01*
X132800Y-91200D01*
X134200Y-91200D01*
X134379Y-91200D01*
X135200Y-92020D01*
X135200Y-95450D01*
G54D10*
G36*
X144800Y-94429D02*
X143728Y-95550D01*
X141572Y-95550D01*
X141250Y-95181D01*
X141250Y-93300D01*
X141250Y-93020D01*
X141370Y-92900D01*
X142620Y-92900D01*
X143300Y-92220D01*
X143300Y-90229D01*
X143001Y-89930D01*
X143001Y-86930D01*
X142947Y-86801D01*
X142849Y-86702D01*
X142720Y-86649D01*
X142580Y-86648D01*
X142451Y-86702D01*
X142352Y-86800D01*
X142299Y-86929D01*
X142298Y-87069D01*
X142352Y-87198D01*
X142450Y-87297D01*
X142579Y-87350D01*
X142719Y-87351D01*
X142848Y-87297D01*
X142947Y-87199D01*
X143000Y-87070D01*
X143001Y-86930D01*
X143001Y-89930D01*
X142970Y-89900D01*
X139951Y-89900D01*
X139951Y-88080D01*
X139897Y-87951D01*
X139799Y-87852D01*
X139670Y-87799D01*
X139530Y-87798D01*
X139401Y-87852D01*
X139302Y-87950D01*
X139249Y-88079D01*
X139248Y-88219D01*
X139302Y-88348D01*
X139310Y-88357D01*
X139201Y-88402D01*
X139102Y-88500D01*
X139049Y-88629D01*
X139048Y-88769D01*
X139102Y-88898D01*
X139200Y-88997D01*
X139329Y-89050D01*
X139469Y-89051D01*
X139598Y-88997D01*
X139697Y-88899D01*
X139750Y-88770D01*
X139751Y-88630D01*
X139697Y-88501D01*
X139689Y-88492D01*
X139798Y-88447D01*
X139897Y-88349D01*
X139950Y-88220D01*
X139951Y-88080D01*
X139951Y-89900D01*
X139820Y-89900D01*
X138420Y-88500D01*
X137751Y-88500D01*
X137751Y-87780D01*
X137751Y-86230D01*
X137697Y-86101D01*
X137599Y-86002D01*
X137470Y-85949D01*
X137330Y-85948D01*
X137201Y-86002D01*
X137102Y-86100D01*
X137049Y-86229D01*
X137048Y-86369D01*
X137102Y-86498D01*
X137200Y-86597D01*
X137329Y-86650D01*
X137469Y-86651D01*
X137598Y-86597D01*
X137697Y-86499D01*
X137750Y-86370D01*
X137751Y-86230D01*
X137751Y-87780D01*
X137697Y-87651D01*
X137599Y-87552D01*
X137470Y-87499D01*
X137330Y-87498D01*
X137201Y-87552D01*
X137102Y-87650D01*
X137049Y-87779D01*
X137048Y-87919D01*
X137102Y-88048D01*
X137200Y-88147D01*
X137329Y-88200D01*
X137469Y-88201D01*
X137598Y-88147D01*
X137697Y-88049D01*
X137750Y-87920D01*
X137751Y-87780D01*
X137751Y-88500D01*
X136279Y-88500D01*
X134679Y-90100D01*
X133779Y-90100D01*
X132979Y-90900D01*
X132320Y-90900D01*
X131520Y-90100D01*
X129350Y-90100D01*
X129350Y-88650D01*
X129051Y-88650D01*
X129051Y-87080D01*
X129051Y-85880D01*
X128997Y-85751D01*
X128899Y-85652D01*
X128770Y-85599D01*
X128630Y-85598D01*
X128501Y-85652D01*
X128402Y-85750D01*
X128349Y-85879D01*
X128348Y-86019D01*
X128402Y-86148D01*
X128500Y-86247D01*
X128629Y-86300D01*
X128769Y-86301D01*
X128898Y-86247D01*
X128997Y-86149D01*
X129050Y-86020D01*
X129051Y-85880D01*
X129051Y-87080D01*
X128997Y-86951D01*
X128899Y-86852D01*
X128770Y-86799D01*
X128630Y-86798D01*
X128501Y-86852D01*
X128402Y-86950D01*
X128349Y-87079D01*
X128348Y-87219D01*
X128402Y-87348D01*
X128482Y-87429D01*
X128417Y-87494D01*
X128375Y-87595D01*
X128375Y-87704D01*
X128417Y-87805D01*
X128494Y-87882D01*
X128536Y-87899D01*
X128494Y-87917D01*
X128417Y-87994D01*
X128375Y-88095D01*
X128375Y-88204D01*
X128417Y-88305D01*
X128494Y-88382D01*
X128595Y-88424D01*
X128704Y-88424D01*
X128805Y-88382D01*
X128882Y-88305D01*
X128924Y-88204D01*
X128924Y-88095D01*
X128882Y-87994D01*
X128805Y-87917D01*
X128763Y-87900D01*
X128805Y-87882D01*
X128882Y-87805D01*
X128924Y-87704D01*
X128924Y-87595D01*
X128882Y-87494D01*
X128854Y-87466D01*
X128898Y-87447D01*
X128997Y-87349D01*
X129050Y-87220D01*
X129051Y-87080D01*
X129051Y-88650D01*
X125900Y-88650D01*
X125900Y-90100D01*
X125607Y-90100D01*
X125607Y-88992D01*
X125505Y-88747D01*
X125317Y-88559D01*
X125072Y-88457D01*
X124806Y-88456D01*
X124561Y-88558D01*
X124373Y-88746D01*
X124271Y-88991D01*
X124270Y-89257D01*
X124372Y-89502D01*
X124560Y-89690D01*
X124805Y-89792D01*
X125071Y-89793D01*
X125316Y-89691D01*
X125504Y-89503D01*
X125606Y-89258D01*
X125607Y-88992D01*
X125607Y-90100D01*
X122679Y-90100D01*
X119650Y-93129D01*
X119641Y-93986D01*
X119529Y-93874D01*
X119426Y-93830D01*
X119426Y-88992D01*
X119324Y-88747D01*
X119136Y-88559D01*
X118891Y-88457D01*
X118625Y-88456D01*
X118380Y-88558D01*
X118192Y-88746D01*
X118090Y-88991D01*
X118089Y-89257D01*
X118191Y-89502D01*
X118379Y-89690D01*
X118624Y-89792D01*
X118890Y-89793D01*
X119135Y-89691D01*
X119323Y-89503D01*
X119425Y-89258D01*
X119426Y-88992D01*
X119426Y-93830D01*
X119284Y-93772D01*
X119018Y-93771D01*
X118773Y-93873D01*
X118585Y-94061D01*
X118483Y-94306D01*
X118482Y-94572D01*
X118584Y-94817D01*
X118772Y-95005D01*
X119017Y-95107D01*
X119283Y-95108D01*
X119528Y-95006D01*
X119632Y-94902D01*
X119616Y-96570D01*
X119549Y-96502D01*
X119420Y-96449D01*
X119280Y-96448D01*
X119151Y-96502D01*
X119052Y-96600D01*
X118999Y-96729D01*
X118998Y-96869D01*
X119052Y-96998D01*
X119150Y-97097D01*
X119279Y-97150D01*
X119419Y-97151D01*
X119548Y-97097D01*
X119611Y-97034D01*
X119600Y-98229D01*
X118750Y-99079D01*
X118750Y-102470D01*
X119029Y-102750D01*
X121466Y-102750D01*
X121330Y-102806D01*
X121196Y-102940D01*
X121124Y-103114D01*
X121123Y-103304D01*
X121196Y-103479D01*
X121330Y-103613D01*
X121504Y-103685D01*
X121694Y-103686D01*
X121869Y-103613D01*
X122003Y-103479D01*
X122075Y-103305D01*
X122076Y-103115D01*
X122003Y-102940D01*
X121869Y-102806D01*
X121700Y-102736D01*
X121700Y-102350D01*
X121700Y-102273D01*
X121869Y-102203D01*
X122003Y-102069D01*
X122075Y-101895D01*
X122076Y-101705D01*
X122003Y-101530D01*
X121869Y-101396D01*
X121700Y-101326D01*
X121700Y-101273D01*
X121869Y-101203D01*
X122003Y-101069D01*
X122075Y-100895D01*
X122076Y-100705D01*
X122003Y-100530D01*
X121869Y-100396D01*
X121700Y-100326D01*
X121700Y-100120D01*
X122400Y-99420D01*
X122400Y-95470D01*
X123870Y-94000D01*
X124040Y-94000D01*
X123979Y-94061D01*
X123877Y-94306D01*
X123876Y-94572D01*
X123978Y-94817D01*
X124166Y-95005D01*
X124411Y-95107D01*
X124677Y-95108D01*
X124922Y-95006D01*
X125110Y-94818D01*
X125212Y-94573D01*
X125213Y-94307D01*
X125111Y-94062D01*
X125049Y-94000D01*
X127400Y-94000D01*
X127400Y-97420D01*
X128200Y-98220D01*
X128200Y-98970D01*
X129700Y-100470D01*
X129700Y-105370D01*
X130603Y-106274D01*
X130455Y-106273D01*
X130280Y-106346D01*
X130146Y-106480D01*
X130074Y-106654D01*
X130073Y-106844D01*
X130146Y-107019D01*
X130280Y-107153D01*
X130454Y-107225D01*
X130644Y-107226D01*
X130819Y-107153D01*
X130953Y-107019D01*
X131025Y-106845D01*
X131026Y-106696D01*
X131578Y-107248D01*
X131340Y-107248D01*
X131275Y-107275D01*
X131225Y-107325D01*
X131199Y-107389D01*
X131198Y-107459D01*
X131198Y-108009D01*
X131225Y-108074D01*
X131275Y-108124D01*
X131339Y-108150D01*
X131409Y-108151D01*
X131959Y-108151D01*
X132024Y-108124D01*
X132074Y-108074D01*
X132100Y-108010D01*
X132101Y-107940D01*
X132101Y-107771D01*
X134255Y-109926D01*
X134267Y-109955D01*
X134394Y-110082D01*
X134423Y-110094D01*
X135231Y-110902D01*
X136619Y-110746D01*
X136564Y-110879D01*
X136563Y-111069D01*
X136636Y-111244D01*
X136770Y-111378D01*
X136944Y-111450D01*
X137134Y-111451D01*
X137309Y-111378D01*
X137443Y-111244D01*
X137515Y-111070D01*
X137516Y-110880D01*
X137443Y-110705D01*
X137397Y-110659D01*
X137678Y-110627D01*
X137616Y-110690D01*
X137544Y-110864D01*
X137543Y-111054D01*
X137616Y-111229D01*
X137750Y-111363D01*
X137924Y-111435D01*
X138114Y-111436D01*
X138289Y-111363D01*
X138423Y-111229D01*
X138495Y-111055D01*
X138496Y-110865D01*
X138423Y-110690D01*
X138292Y-110559D01*
X140561Y-110304D01*
X141224Y-113049D01*
X138511Y-113049D01*
X138511Y-111942D01*
X138436Y-111762D01*
X138298Y-111624D01*
X138118Y-111549D01*
X137922Y-111548D01*
X137742Y-111623D01*
X137604Y-111761D01*
X137529Y-111941D01*
X137528Y-112137D01*
X137603Y-112317D01*
X137741Y-112455D01*
X137921Y-112530D01*
X138117Y-112531D01*
X138297Y-112456D01*
X138435Y-112318D01*
X138510Y-112138D01*
X138511Y-111942D01*
X138511Y-113049D01*
X136600Y-113049D01*
X136576Y-113053D01*
X136549Y-113053D01*
X136525Y-113063D01*
X136503Y-113068D01*
X136485Y-113080D01*
X136459Y-113091D01*
X136439Y-113111D01*
X136422Y-113122D01*
X136410Y-113139D01*
X136390Y-113160D01*
X136388Y-113165D01*
X136388Y-112797D01*
X136003Y-111864D01*
X135289Y-111149D01*
X134357Y-110762D01*
X133347Y-110761D01*
X132414Y-111146D01*
X132101Y-111459D01*
X132101Y-109610D01*
X132101Y-108610D01*
X132032Y-108444D01*
X131905Y-108317D01*
X131740Y-108249D01*
X131560Y-108248D01*
X131394Y-108317D01*
X131267Y-108444D01*
X131199Y-108609D01*
X131198Y-108789D01*
X131267Y-108955D01*
X131394Y-109082D01*
X131559Y-109150D01*
X131739Y-109151D01*
X131905Y-109082D01*
X132032Y-108955D01*
X132100Y-108790D01*
X132101Y-108610D01*
X132101Y-109610D01*
X132032Y-109444D01*
X131905Y-109317D01*
X131740Y-109249D01*
X131560Y-109248D01*
X131394Y-109317D01*
X131267Y-109444D01*
X131199Y-109609D01*
X131198Y-109789D01*
X131267Y-109955D01*
X131394Y-110082D01*
X131559Y-110150D01*
X131739Y-110151D01*
X131905Y-110082D01*
X132032Y-109955D01*
X132100Y-109790D01*
X132101Y-109610D01*
X132101Y-111459D01*
X131699Y-111860D01*
X131312Y-112792D01*
X131311Y-113168D01*
X131308Y-113160D01*
X131291Y-113143D01*
X131277Y-113122D01*
X131257Y-113108D01*
X131239Y-113091D01*
X131216Y-113081D01*
X131196Y-113068D01*
X131171Y-113063D01*
X131149Y-113053D01*
X131124Y-113053D01*
X131100Y-113049D01*
X128076Y-113049D01*
X128076Y-109605D01*
X128076Y-108605D01*
X128076Y-105655D01*
X128076Y-104655D01*
X128076Y-101705D01*
X128076Y-100705D01*
X128003Y-100530D01*
X127869Y-100396D01*
X127695Y-100324D01*
X127505Y-100323D01*
X127330Y-100396D01*
X127196Y-100530D01*
X127124Y-100704D01*
X127123Y-100894D01*
X127196Y-101069D01*
X127330Y-101203D01*
X127504Y-101275D01*
X127694Y-101276D01*
X127869Y-101203D01*
X128003Y-101069D01*
X128075Y-100895D01*
X128076Y-100705D01*
X128076Y-101705D01*
X128003Y-101530D01*
X127869Y-101396D01*
X127695Y-101324D01*
X127505Y-101323D01*
X127330Y-101396D01*
X127196Y-101530D01*
X127124Y-101704D01*
X127123Y-101894D01*
X127196Y-102069D01*
X127330Y-102203D01*
X127504Y-102275D01*
X127694Y-102276D01*
X127869Y-102203D01*
X128003Y-102069D01*
X128075Y-101895D01*
X128076Y-101705D01*
X128076Y-104655D01*
X128003Y-104480D01*
X127869Y-104346D01*
X127695Y-104274D01*
X127505Y-104273D01*
X127330Y-104346D01*
X127196Y-104480D01*
X127124Y-104654D01*
X127123Y-104844D01*
X127196Y-105019D01*
X127330Y-105153D01*
X127504Y-105225D01*
X127694Y-105226D01*
X127869Y-105153D01*
X128003Y-105019D01*
X128075Y-104845D01*
X128076Y-104655D01*
X128076Y-105655D01*
X128003Y-105480D01*
X127869Y-105346D01*
X127695Y-105274D01*
X127505Y-105273D01*
X127330Y-105346D01*
X127196Y-105480D01*
X127124Y-105654D01*
X127123Y-105844D01*
X127196Y-106019D01*
X127330Y-106153D01*
X127504Y-106225D01*
X127694Y-106226D01*
X127869Y-106153D01*
X128003Y-106019D01*
X128075Y-105845D01*
X128076Y-105655D01*
X128076Y-108605D01*
X128003Y-108430D01*
X127869Y-108296D01*
X127695Y-108224D01*
X127505Y-108223D01*
X127330Y-108296D01*
X127196Y-108430D01*
X127124Y-108604D01*
X127123Y-108794D01*
X127196Y-108969D01*
X127330Y-109103D01*
X127504Y-109175D01*
X127694Y-109176D01*
X127869Y-109103D01*
X128003Y-108969D01*
X128075Y-108795D01*
X128076Y-108605D01*
X128076Y-109605D01*
X128003Y-109430D01*
X127869Y-109296D01*
X127695Y-109224D01*
X127505Y-109223D01*
X127330Y-109296D01*
X127196Y-109430D01*
X127124Y-109604D01*
X127123Y-109794D01*
X127196Y-109969D01*
X127330Y-110103D01*
X127504Y-110175D01*
X127694Y-110176D01*
X127869Y-110103D01*
X128003Y-109969D01*
X128075Y-109795D01*
X128076Y-109605D01*
X128076Y-113049D01*
X127076Y-113049D01*
X127076Y-109605D01*
X127076Y-108605D01*
X127076Y-105655D01*
X127076Y-104655D01*
X127076Y-101705D01*
X127076Y-100705D01*
X127003Y-100530D01*
X126869Y-100396D01*
X126736Y-100341D01*
X126736Y-97855D01*
X126682Y-97726D01*
X126584Y-97627D01*
X126455Y-97574D01*
X126324Y-97573D01*
X126324Y-97495D01*
X126282Y-97394D01*
X126205Y-97317D01*
X126104Y-97275D01*
X125995Y-97275D01*
X125894Y-97317D01*
X125817Y-97394D01*
X125775Y-97495D01*
X125775Y-97604D01*
X125784Y-97625D01*
X125695Y-97625D01*
X125594Y-97667D01*
X125517Y-97744D01*
X125475Y-97845D01*
X125475Y-97954D01*
X125517Y-98055D01*
X125594Y-98132D01*
X125695Y-98174D01*
X125804Y-98174D01*
X125905Y-98132D01*
X125982Y-98055D01*
X126024Y-97954D01*
X126024Y-97845D01*
X126015Y-97824D01*
X126046Y-97824D01*
X126034Y-97854D01*
X126033Y-97994D01*
X126087Y-98123D01*
X126185Y-98222D01*
X126314Y-98275D01*
X126454Y-98276D01*
X126583Y-98222D01*
X126682Y-98124D01*
X126735Y-97995D01*
X126736Y-97855D01*
X126736Y-100341D01*
X126695Y-100324D01*
X126505Y-100323D01*
X126330Y-100396D01*
X126196Y-100530D01*
X126124Y-100704D01*
X126123Y-100894D01*
X126196Y-101069D01*
X126330Y-101203D01*
X126504Y-101275D01*
X126694Y-101276D01*
X126869Y-101203D01*
X127003Y-101069D01*
X127075Y-100895D01*
X127076Y-100705D01*
X127076Y-101705D01*
X127003Y-101530D01*
X126869Y-101396D01*
X126695Y-101324D01*
X126505Y-101323D01*
X126330Y-101396D01*
X126196Y-101530D01*
X126124Y-101704D01*
X126123Y-101894D01*
X126196Y-102069D01*
X126330Y-102203D01*
X126504Y-102275D01*
X126694Y-102276D01*
X126869Y-102203D01*
X127003Y-102069D01*
X127075Y-101895D01*
X127076Y-101705D01*
X127076Y-104655D01*
X127003Y-104480D01*
X126869Y-104346D01*
X126695Y-104274D01*
X126505Y-104273D01*
X126330Y-104346D01*
X126196Y-104480D01*
X126124Y-104654D01*
X126123Y-104844D01*
X126196Y-105019D01*
X126330Y-105153D01*
X126504Y-105225D01*
X126694Y-105226D01*
X126869Y-105153D01*
X127003Y-105019D01*
X127075Y-104845D01*
X127076Y-104655D01*
X127076Y-105655D01*
X127003Y-105480D01*
X126869Y-105346D01*
X126695Y-105274D01*
X126505Y-105273D01*
X126330Y-105346D01*
X126196Y-105480D01*
X126124Y-105654D01*
X126123Y-105844D01*
X126196Y-106019D01*
X126330Y-106153D01*
X126504Y-106225D01*
X126694Y-106226D01*
X126869Y-106153D01*
X127003Y-106019D01*
X127075Y-105845D01*
X127076Y-105655D01*
X127076Y-108605D01*
X127003Y-108430D01*
X126869Y-108296D01*
X126695Y-108224D01*
X126505Y-108223D01*
X126330Y-108296D01*
X126196Y-108430D01*
X126124Y-108604D01*
X126123Y-108794D01*
X126196Y-108969D01*
X126330Y-109103D01*
X126504Y-109175D01*
X126694Y-109176D01*
X126869Y-109103D01*
X127003Y-108969D01*
X127075Y-108795D01*
X127076Y-108605D01*
X127076Y-109605D01*
X127003Y-109430D01*
X126869Y-109296D01*
X126695Y-109224D01*
X126505Y-109223D01*
X126330Y-109296D01*
X126196Y-109430D01*
X126124Y-109604D01*
X126123Y-109794D01*
X126196Y-109969D01*
X126330Y-110103D01*
X126504Y-110175D01*
X126694Y-110176D01*
X126869Y-110103D01*
X127003Y-109969D01*
X127075Y-109795D01*
X127076Y-109605D01*
X127076Y-113049D01*
X126076Y-113049D01*
X126076Y-109605D01*
X126076Y-108605D01*
X126076Y-105655D01*
X126076Y-104655D01*
X126076Y-101705D01*
X126076Y-100705D01*
X126003Y-100530D01*
X125869Y-100396D01*
X125695Y-100324D01*
X125505Y-100323D01*
X125330Y-100396D01*
X125196Y-100530D01*
X125124Y-100704D01*
X125123Y-100894D01*
X125196Y-101069D01*
X125330Y-101203D01*
X125504Y-101275D01*
X125694Y-101276D01*
X125869Y-101203D01*
X126003Y-101069D01*
X126075Y-100895D01*
X126076Y-100705D01*
X126076Y-101705D01*
X126003Y-101530D01*
X125869Y-101396D01*
X125695Y-101324D01*
X125505Y-101323D01*
X125330Y-101396D01*
X125196Y-101530D01*
X125124Y-101704D01*
X125123Y-101894D01*
X125196Y-102069D01*
X125330Y-102203D01*
X125504Y-102275D01*
X125694Y-102276D01*
X125869Y-102203D01*
X126003Y-102069D01*
X126075Y-101895D01*
X126076Y-101705D01*
X126076Y-104655D01*
X126003Y-104480D01*
X125869Y-104346D01*
X125695Y-104274D01*
X125505Y-104273D01*
X125330Y-104346D01*
X125196Y-104480D01*
X125124Y-104654D01*
X125123Y-104844D01*
X125196Y-105019D01*
X125330Y-105153D01*
X125504Y-105225D01*
X125694Y-105226D01*
X125869Y-105153D01*
X126003Y-105019D01*
X126075Y-104845D01*
X126076Y-104655D01*
X126076Y-105655D01*
X126003Y-105480D01*
X125869Y-105346D01*
X125695Y-105274D01*
X125505Y-105273D01*
X125330Y-105346D01*
X125196Y-105480D01*
X125124Y-105654D01*
X125123Y-105844D01*
X125196Y-106019D01*
X125330Y-106153D01*
X125504Y-106225D01*
X125694Y-106226D01*
X125869Y-106153D01*
X126003Y-106019D01*
X126075Y-105845D01*
X126076Y-105655D01*
X126076Y-108605D01*
X126003Y-108430D01*
X125869Y-108296D01*
X125695Y-108224D01*
X125505Y-108223D01*
X125330Y-108296D01*
X125196Y-108430D01*
X125124Y-108604D01*
X125123Y-108794D01*
X125196Y-108969D01*
X125330Y-109103D01*
X125504Y-109175D01*
X125694Y-109176D01*
X125869Y-109103D01*
X126003Y-108969D01*
X126075Y-108795D01*
X126076Y-108605D01*
X126076Y-109605D01*
X126003Y-109430D01*
X125869Y-109296D01*
X125695Y-109224D01*
X125505Y-109223D01*
X125330Y-109296D01*
X125196Y-109430D01*
X125124Y-109604D01*
X125123Y-109794D01*
X125196Y-109969D01*
X125330Y-110103D01*
X125504Y-110175D01*
X125694Y-110176D01*
X125869Y-110103D01*
X126003Y-109969D01*
X126075Y-109795D01*
X126076Y-109605D01*
X126076Y-113049D01*
X125084Y-113049D01*
X125084Y-95985D01*
X125042Y-95884D01*
X124965Y-95807D01*
X124864Y-95765D01*
X124755Y-95765D01*
X124654Y-95807D01*
X124577Y-95884D01*
X124535Y-95985D01*
X124535Y-96094D01*
X124577Y-96195D01*
X124584Y-96202D01*
X124584Y-97186D01*
X124530Y-97132D01*
X124429Y-97090D01*
X124320Y-97090D01*
X124319Y-97091D01*
X124319Y-95975D01*
X124277Y-95874D01*
X124200Y-95797D01*
X124099Y-95755D01*
X123990Y-95755D01*
X123889Y-95797D01*
X123812Y-95874D01*
X123770Y-95975D01*
X123770Y-96084D01*
X123812Y-96185D01*
X123889Y-96262D01*
X123990Y-96304D01*
X124099Y-96304D01*
X124200Y-96262D01*
X124277Y-96185D01*
X124319Y-96084D01*
X124319Y-95975D01*
X124319Y-97091D01*
X124219Y-97132D01*
X124142Y-97209D01*
X124100Y-97310D01*
X124100Y-97419D01*
X124142Y-97520D01*
X124219Y-97597D01*
X124320Y-97639D01*
X124429Y-97639D01*
X124530Y-97597D01*
X124584Y-97543D01*
X124584Y-99381D01*
X124184Y-99782D01*
X124184Y-99340D01*
X124184Y-97735D01*
X124142Y-97634D01*
X124065Y-97557D01*
X123964Y-97515D01*
X123855Y-97515D01*
X123754Y-97557D01*
X123677Y-97634D01*
X123635Y-97735D01*
X123635Y-97844D01*
X123677Y-97945D01*
X123754Y-98022D01*
X123855Y-98064D01*
X123964Y-98064D01*
X124065Y-98022D01*
X124142Y-97945D01*
X124184Y-97844D01*
X124184Y-97735D01*
X124184Y-99340D01*
X124142Y-99239D01*
X124065Y-99162D01*
X123964Y-99120D01*
X123855Y-99120D01*
X123754Y-99162D01*
X123677Y-99239D01*
X123635Y-99340D01*
X123635Y-99449D01*
X123677Y-99550D01*
X123754Y-99627D01*
X123855Y-99669D01*
X123964Y-99669D01*
X124065Y-99627D01*
X124142Y-99550D01*
X124184Y-99449D01*
X124184Y-99340D01*
X124184Y-99782D01*
X123925Y-100040D01*
X123876Y-100113D01*
X123859Y-100200D01*
X123859Y-100392D01*
X123695Y-100324D01*
X123505Y-100323D01*
X123424Y-100357D01*
X123424Y-97145D01*
X123382Y-97044D01*
X123305Y-96967D01*
X123204Y-96925D01*
X123095Y-96925D01*
X122994Y-96967D01*
X122917Y-97044D01*
X122875Y-97145D01*
X122875Y-97254D01*
X122917Y-97355D01*
X122994Y-97432D01*
X123095Y-97474D01*
X123204Y-97474D01*
X123305Y-97432D01*
X123382Y-97355D01*
X123424Y-97254D01*
X123424Y-97145D01*
X123424Y-100357D01*
X123330Y-100396D01*
X123196Y-100530D01*
X123174Y-100583D01*
X123174Y-97945D01*
X123132Y-97844D01*
X123055Y-97767D01*
X122954Y-97725D01*
X122845Y-97725D01*
X122744Y-97767D01*
X122667Y-97844D01*
X122625Y-97945D01*
X122625Y-98054D01*
X122667Y-98155D01*
X122744Y-98232D01*
X122845Y-98274D01*
X122954Y-98274D01*
X123055Y-98232D01*
X123132Y-98155D01*
X123174Y-98054D01*
X123174Y-97945D01*
X123174Y-100583D01*
X123124Y-100704D01*
X123123Y-100894D01*
X123196Y-101069D01*
X123330Y-101203D01*
X123504Y-101275D01*
X123694Y-101276D01*
X123859Y-101207D01*
X123859Y-101221D01*
X123739Y-101342D01*
X123695Y-101324D01*
X123505Y-101323D01*
X123330Y-101396D01*
X123196Y-101530D01*
X123124Y-101704D01*
X123123Y-101894D01*
X123196Y-102069D01*
X123330Y-102203D01*
X123504Y-102275D01*
X123694Y-102276D01*
X123869Y-102203D01*
X124003Y-102069D01*
X124075Y-101895D01*
X124076Y-101705D01*
X124057Y-101660D01*
X124244Y-101474D01*
X124244Y-101474D01*
X124293Y-101401D01*
X124310Y-101315D01*
X124310Y-101315D01*
X124310Y-101183D01*
X124330Y-101203D01*
X124504Y-101275D01*
X124694Y-101276D01*
X124869Y-101203D01*
X125003Y-101069D01*
X125075Y-100895D01*
X125076Y-100705D01*
X125003Y-100530D01*
X124869Y-100396D01*
X124695Y-100324D01*
X124505Y-100323D01*
X124330Y-100396D01*
X124310Y-100416D01*
X124310Y-100293D01*
X124969Y-99634D01*
X125018Y-99561D01*
X125035Y-99475D01*
X125035Y-96202D01*
X125042Y-96195D01*
X125084Y-96094D01*
X125084Y-95985D01*
X125084Y-113049D01*
X125076Y-113049D01*
X125076Y-109605D01*
X125076Y-108605D01*
X125076Y-105655D01*
X125076Y-104655D01*
X125076Y-101705D01*
X125003Y-101530D01*
X124869Y-101396D01*
X124695Y-101324D01*
X124505Y-101323D01*
X124330Y-101396D01*
X124196Y-101530D01*
X124124Y-101704D01*
X124123Y-101894D01*
X124196Y-102069D01*
X124330Y-102203D01*
X124504Y-102275D01*
X124694Y-102276D01*
X124869Y-102203D01*
X125003Y-102069D01*
X125075Y-101895D01*
X125076Y-101705D01*
X125076Y-104655D01*
X125003Y-104480D01*
X124869Y-104346D01*
X124695Y-104274D01*
X124505Y-104273D01*
X124330Y-104346D01*
X124196Y-104480D01*
X124124Y-104654D01*
X124123Y-104844D01*
X124196Y-105019D01*
X124330Y-105153D01*
X124504Y-105225D01*
X124694Y-105226D01*
X124869Y-105153D01*
X125003Y-105019D01*
X125075Y-104845D01*
X125076Y-104655D01*
X125076Y-105655D01*
X125003Y-105480D01*
X124869Y-105346D01*
X124695Y-105274D01*
X124505Y-105273D01*
X124330Y-105346D01*
X124196Y-105480D01*
X124124Y-105654D01*
X124123Y-105844D01*
X124196Y-106019D01*
X124330Y-106153D01*
X124504Y-106225D01*
X124694Y-106226D01*
X124869Y-106153D01*
X125003Y-106019D01*
X125075Y-105845D01*
X125076Y-105655D01*
X125076Y-108605D01*
X125003Y-108430D01*
X124869Y-108296D01*
X124695Y-108224D01*
X124505Y-108223D01*
X124330Y-108296D01*
X124196Y-108430D01*
X124124Y-108604D01*
X124123Y-108794D01*
X124196Y-108969D01*
X124330Y-109103D01*
X124504Y-109175D01*
X124694Y-109176D01*
X124869Y-109103D01*
X125003Y-108969D01*
X125075Y-108795D01*
X125076Y-108605D01*
X125076Y-109605D01*
X125003Y-109430D01*
X124869Y-109296D01*
X124695Y-109224D01*
X124505Y-109223D01*
X124330Y-109296D01*
X124196Y-109430D01*
X124124Y-109604D01*
X124123Y-109794D01*
X124196Y-109969D01*
X124330Y-110103D01*
X124504Y-110175D01*
X124694Y-110176D01*
X124869Y-110103D01*
X125003Y-109969D01*
X125075Y-109795D01*
X125076Y-109605D01*
X125076Y-113049D01*
X124076Y-113049D01*
X124076Y-109605D01*
X124076Y-108605D01*
X124076Y-105655D01*
X124076Y-104655D01*
X124076Y-104655D01*
X124076Y-103475D01*
X124076Y-102875D01*
X124049Y-102810D01*
X123999Y-102760D01*
X123935Y-102734D01*
X123865Y-102733D01*
X123265Y-102733D01*
X123200Y-102760D01*
X123150Y-102810D01*
X123124Y-102874D01*
X123123Y-102944D01*
X123123Y-103544D01*
X123150Y-103609D01*
X123200Y-103659D01*
X123264Y-103685D01*
X123334Y-103686D01*
X123934Y-103686D01*
X123999Y-103659D01*
X124049Y-103609D01*
X124075Y-103545D01*
X124076Y-103475D01*
X124076Y-104655D01*
X124003Y-104480D01*
X123869Y-104346D01*
X123695Y-104274D01*
X123505Y-104273D01*
X123330Y-104346D01*
X123196Y-104480D01*
X123124Y-104654D01*
X123123Y-104844D01*
X123196Y-105019D01*
X123330Y-105153D01*
X123504Y-105225D01*
X123694Y-105226D01*
X123869Y-105153D01*
X124003Y-105019D01*
X124075Y-104845D01*
X124076Y-104655D01*
X124076Y-105655D01*
X124003Y-105480D01*
X123869Y-105346D01*
X123695Y-105274D01*
X123505Y-105273D01*
X123330Y-105346D01*
X123196Y-105480D01*
X123124Y-105654D01*
X123123Y-105844D01*
X123196Y-106019D01*
X123330Y-106153D01*
X123504Y-106225D01*
X123694Y-106226D01*
X123869Y-106153D01*
X124003Y-106019D01*
X124075Y-105845D01*
X124076Y-105655D01*
X124076Y-108605D01*
X124003Y-108430D01*
X123869Y-108296D01*
X123695Y-108224D01*
X123505Y-108223D01*
X123330Y-108296D01*
X123196Y-108430D01*
X123124Y-108604D01*
X123123Y-108794D01*
X123196Y-108969D01*
X123330Y-109103D01*
X123504Y-109175D01*
X123694Y-109176D01*
X123869Y-109103D01*
X124003Y-108969D01*
X124075Y-108795D01*
X124076Y-108605D01*
X124076Y-109605D01*
X124003Y-109430D01*
X123869Y-109296D01*
X123695Y-109224D01*
X123505Y-109223D01*
X123330Y-109296D01*
X123196Y-109430D01*
X123124Y-109604D01*
X123123Y-109794D01*
X123196Y-109969D01*
X123330Y-110103D01*
X123504Y-110175D01*
X123694Y-110176D01*
X123869Y-110103D01*
X124003Y-109969D01*
X124075Y-109795D01*
X124076Y-109605D01*
X124076Y-113049D01*
X123076Y-113049D01*
X123076Y-109605D01*
X123076Y-108605D01*
X123076Y-105655D01*
X123076Y-104655D01*
X123076Y-103115D01*
X123076Y-101705D01*
X123076Y-100705D01*
X123003Y-100530D01*
X122869Y-100396D01*
X122695Y-100324D01*
X122505Y-100323D01*
X122330Y-100396D01*
X122196Y-100530D01*
X122124Y-100704D01*
X122123Y-100894D01*
X122196Y-101069D01*
X122330Y-101203D01*
X122504Y-101275D01*
X122694Y-101276D01*
X122869Y-101203D01*
X123003Y-101069D01*
X123075Y-100895D01*
X123076Y-100705D01*
X123076Y-101705D01*
X123003Y-101530D01*
X122869Y-101396D01*
X122695Y-101324D01*
X122505Y-101323D01*
X122330Y-101396D01*
X122196Y-101530D01*
X122124Y-101704D01*
X122123Y-101894D01*
X122196Y-102069D01*
X122330Y-102203D01*
X122504Y-102275D01*
X122694Y-102276D01*
X122869Y-102203D01*
X123003Y-102069D01*
X123075Y-101895D01*
X123076Y-101705D01*
X123076Y-103115D01*
X123003Y-102940D01*
X122869Y-102806D01*
X122695Y-102734D01*
X122505Y-102733D01*
X122330Y-102806D01*
X122196Y-102940D01*
X122124Y-103114D01*
X122123Y-103304D01*
X122196Y-103479D01*
X122330Y-103613D01*
X122504Y-103685D01*
X122694Y-103686D01*
X122869Y-103613D01*
X123003Y-103479D01*
X123075Y-103305D01*
X123076Y-103115D01*
X123076Y-104655D01*
X123003Y-104480D01*
X122869Y-104346D01*
X122695Y-104274D01*
X122505Y-104273D01*
X122330Y-104346D01*
X122196Y-104480D01*
X122124Y-104654D01*
X122123Y-104844D01*
X122196Y-105019D01*
X122330Y-105153D01*
X122504Y-105225D01*
X122694Y-105226D01*
X122869Y-105153D01*
X123003Y-105019D01*
X123075Y-104845D01*
X123076Y-104655D01*
X123076Y-105655D01*
X123003Y-105480D01*
X122869Y-105346D01*
X122695Y-105274D01*
X122505Y-105273D01*
X122330Y-105346D01*
X122196Y-105480D01*
X122124Y-105654D01*
X122123Y-105844D01*
X122196Y-106019D01*
X122330Y-106153D01*
X122504Y-106225D01*
X122694Y-106226D01*
X122869Y-106153D01*
X123003Y-106019D01*
X123075Y-105845D01*
X123076Y-105655D01*
X123076Y-108605D01*
X123003Y-108430D01*
X122869Y-108296D01*
X122695Y-108224D01*
X122505Y-108223D01*
X122330Y-108296D01*
X122196Y-108430D01*
X122124Y-108604D01*
X122123Y-108794D01*
X122196Y-108969D01*
X122330Y-109103D01*
X122504Y-109175D01*
X122694Y-109176D01*
X122869Y-109103D01*
X123003Y-108969D01*
X123075Y-108795D01*
X123076Y-108605D01*
X123076Y-109605D01*
X123003Y-109430D01*
X122869Y-109296D01*
X122695Y-109224D01*
X122505Y-109223D01*
X122330Y-109296D01*
X122196Y-109430D01*
X122124Y-109604D01*
X122123Y-109794D01*
X122196Y-109969D01*
X122330Y-110103D01*
X122504Y-110175D01*
X122694Y-110176D01*
X122869Y-110103D01*
X123003Y-109969D01*
X123075Y-109795D01*
X123076Y-109605D01*
X123076Y-113049D01*
X122076Y-113049D01*
X122076Y-109605D01*
X122076Y-108605D01*
X122076Y-105655D01*
X122076Y-104655D01*
X122003Y-104480D01*
X121869Y-104346D01*
X121695Y-104274D01*
X121505Y-104273D01*
X121330Y-104346D01*
X121196Y-104480D01*
X121124Y-104654D01*
X121123Y-104844D01*
X121196Y-105019D01*
X121330Y-105153D01*
X121504Y-105225D01*
X121694Y-105226D01*
X121869Y-105153D01*
X122003Y-105019D01*
X122075Y-104845D01*
X122076Y-104655D01*
X122076Y-105655D01*
X122003Y-105480D01*
X121869Y-105346D01*
X121695Y-105274D01*
X121505Y-105273D01*
X121330Y-105346D01*
X121196Y-105480D01*
X121124Y-105654D01*
X121123Y-105844D01*
X121196Y-106019D01*
X121330Y-106153D01*
X121504Y-106225D01*
X121694Y-106226D01*
X121869Y-106153D01*
X122003Y-106019D01*
X122075Y-105845D01*
X122076Y-105655D01*
X122076Y-108605D01*
X122003Y-108430D01*
X121869Y-108296D01*
X121695Y-108224D01*
X121505Y-108223D01*
X121330Y-108296D01*
X121196Y-108430D01*
X121124Y-108604D01*
X121123Y-108794D01*
X121196Y-108969D01*
X121330Y-109103D01*
X121504Y-109175D01*
X121694Y-109176D01*
X121869Y-109103D01*
X122003Y-108969D01*
X122075Y-108795D01*
X122076Y-108605D01*
X122076Y-109605D01*
X122003Y-109430D01*
X121869Y-109296D01*
X121695Y-109224D01*
X121505Y-109223D01*
X121330Y-109296D01*
X121196Y-109430D01*
X121124Y-109604D01*
X121123Y-109794D01*
X121196Y-109969D01*
X121330Y-110103D01*
X121504Y-110175D01*
X121694Y-110176D01*
X121869Y-110103D01*
X122003Y-109969D01*
X122075Y-109795D01*
X122076Y-109605D01*
X122076Y-113049D01*
X121076Y-113049D01*
X121076Y-109605D01*
X121076Y-108605D01*
X121076Y-105655D01*
X121076Y-104655D01*
X121003Y-104480D01*
X120869Y-104346D01*
X120695Y-104274D01*
X120505Y-104273D01*
X120330Y-104346D01*
X120196Y-104480D01*
X120124Y-104654D01*
X120123Y-104844D01*
X120196Y-105019D01*
X120330Y-105153D01*
X120504Y-105225D01*
X120694Y-105226D01*
X120869Y-105153D01*
X121003Y-105019D01*
X121075Y-104845D01*
X121076Y-104655D01*
X121076Y-105655D01*
X121003Y-105480D01*
X120869Y-105346D01*
X120695Y-105274D01*
X120505Y-105273D01*
X120330Y-105346D01*
X120196Y-105480D01*
X120124Y-105654D01*
X120123Y-105844D01*
X120196Y-106019D01*
X120330Y-106153D01*
X120504Y-106225D01*
X120694Y-106226D01*
X120869Y-106153D01*
X121003Y-106019D01*
X121075Y-105845D01*
X121076Y-105655D01*
X121076Y-108605D01*
X121003Y-108430D01*
X120869Y-108296D01*
X120695Y-108224D01*
X120505Y-108223D01*
X120330Y-108296D01*
X120196Y-108430D01*
X120124Y-108604D01*
X120123Y-108794D01*
X120196Y-108969D01*
X120330Y-109103D01*
X120504Y-109175D01*
X120694Y-109176D01*
X120869Y-109103D01*
X121003Y-108969D01*
X121075Y-108795D01*
X121076Y-108605D01*
X121076Y-109605D01*
X121003Y-109430D01*
X120869Y-109296D01*
X120695Y-109224D01*
X120505Y-109223D01*
X120330Y-109296D01*
X120196Y-109430D01*
X120124Y-109604D01*
X120123Y-109794D01*
X120196Y-109969D01*
X120330Y-110103D01*
X120504Y-110175D01*
X120694Y-110176D01*
X120869Y-110103D01*
X121003Y-109969D01*
X121075Y-109795D01*
X121076Y-109605D01*
X121076Y-113049D01*
X120076Y-113049D01*
X120076Y-108605D01*
X120076Y-104655D01*
X120003Y-104480D01*
X119869Y-104346D01*
X119695Y-104274D01*
X119505Y-104273D01*
X119330Y-104346D01*
X119196Y-104480D01*
X119124Y-104654D01*
X119123Y-104844D01*
X119196Y-105019D01*
X119330Y-105153D01*
X119504Y-105225D01*
X119694Y-105226D01*
X119869Y-105153D01*
X120003Y-105019D01*
X120075Y-104845D01*
X120076Y-104655D01*
X120076Y-108605D01*
X120076Y-108605D01*
X120076Y-106015D01*
X120076Y-105415D01*
X120049Y-105350D01*
X119999Y-105300D01*
X119935Y-105274D01*
X119865Y-105273D01*
X119265Y-105273D01*
X119200Y-105300D01*
X119150Y-105350D01*
X119124Y-105414D01*
X119123Y-105484D01*
X119123Y-106084D01*
X119150Y-106149D01*
X119200Y-106199D01*
X119264Y-106225D01*
X119334Y-106226D01*
X119934Y-106226D01*
X119999Y-106199D01*
X120049Y-106149D01*
X120075Y-106085D01*
X120076Y-106015D01*
X120076Y-108605D01*
X120003Y-108430D01*
X119869Y-108296D01*
X119695Y-108224D01*
X119505Y-108223D01*
X119330Y-108296D01*
X119196Y-108430D01*
X119124Y-108604D01*
X119123Y-108794D01*
X119196Y-108969D01*
X119330Y-109103D01*
X119504Y-109175D01*
X119694Y-109176D01*
X119869Y-109103D01*
X120003Y-108969D01*
X120075Y-108795D01*
X120076Y-108605D01*
X120076Y-113049D01*
X120076Y-113049D01*
X120076Y-109965D01*
X120076Y-109365D01*
X120049Y-109300D01*
X119999Y-109250D01*
X119935Y-109224D01*
X119865Y-109223D01*
X119265Y-109223D01*
X119200Y-109250D01*
X119150Y-109300D01*
X119124Y-109364D01*
X119123Y-109434D01*
X119123Y-110034D01*
X119150Y-110099D01*
X119200Y-110149D01*
X119264Y-110175D01*
X119334Y-110176D01*
X119934Y-110176D01*
X119999Y-110149D01*
X120049Y-110099D01*
X120075Y-110035D01*
X120076Y-109965D01*
X120076Y-113049D01*
X118100Y-113049D01*
X118000Y-113049D01*
X118000Y-89750D01*
X118000Y-89450D01*
X118000Y-87650D01*
X118000Y-85200D01*
X131050Y-85200D01*
X131074Y-85196D01*
X131098Y-85196D01*
X131121Y-85186D01*
X131146Y-85181D01*
X131166Y-85168D01*
X131189Y-85158D01*
X131206Y-85141D01*
X131227Y-85127D01*
X131241Y-85107D01*
X131258Y-85089D01*
X131268Y-85066D01*
X131281Y-85046D01*
X131286Y-85021D01*
X131296Y-84999D01*
X131311Y-84920D01*
X131311Y-85452D01*
X131696Y-86385D01*
X132410Y-87100D01*
X133342Y-87487D01*
X134352Y-87488D01*
X135285Y-87103D01*
X136000Y-86389D01*
X136387Y-85457D01*
X136388Y-84915D01*
X136404Y-84998D01*
X136412Y-85017D01*
X136418Y-85046D01*
X136434Y-85070D01*
X136442Y-85089D01*
X136456Y-85103D01*
X136472Y-85127D01*
X136496Y-85143D01*
X136511Y-85158D01*
X136531Y-85166D01*
X136553Y-85181D01*
X136580Y-85187D01*
X136602Y-85196D01*
X136624Y-85195D01*
X136650Y-85200D01*
X139352Y-85200D01*
X139302Y-85250D01*
X139249Y-85379D01*
X139248Y-85519D01*
X139302Y-85648D01*
X139400Y-85747D01*
X139529Y-85800D01*
X139669Y-85801D01*
X139798Y-85747D01*
X139897Y-85649D01*
X139950Y-85520D01*
X139951Y-85380D01*
X139897Y-85251D01*
X139847Y-85200D01*
X142052Y-85200D01*
X142002Y-85250D01*
X141949Y-85379D01*
X141948Y-85519D01*
X142002Y-85648D01*
X142100Y-85747D01*
X142229Y-85800D01*
X142369Y-85801D01*
X142498Y-85747D01*
X142597Y-85649D01*
X142650Y-85520D01*
X142651Y-85380D01*
X142597Y-85251D01*
X142547Y-85200D01*
X143943Y-85200D01*
X143683Y-85459D01*
X143536Y-85813D01*
X143536Y-86197D01*
X143682Y-86551D01*
X143953Y-86822D01*
X144307Y-86969D01*
X144690Y-86969D01*
X144800Y-86924D01*
X144800Y-90100D01*
X144800Y-94429D01*
X144800Y-94429D01*
G37*
G54D33*
X144800Y-94429D02*
X143728Y-95550D01*
X141572Y-95550D01*
X141250Y-95181D01*
X141250Y-93300D01*
X141250Y-93020D01*
X141370Y-92900D01*
X142620Y-92900D01*
X143300Y-92220D01*
X143300Y-90229D01*
X143001Y-89930D01*
X143001Y-86930D01*
X142947Y-86801D01*
X142849Y-86702D01*
X142720Y-86649D01*
X142580Y-86648D01*
X142451Y-86702D01*
X142352Y-86800D01*
X142299Y-86929D01*
X142298Y-87069D01*
X142352Y-87198D01*
X142450Y-87297D01*
X142579Y-87350D01*
X142719Y-87351D01*
X142848Y-87297D01*
X142947Y-87199D01*
X143000Y-87070D01*
X143001Y-86930D01*
X143001Y-89930D01*
X142970Y-89900D01*
X139951Y-89900D01*
X139951Y-88080D01*
X139897Y-87951D01*
X139799Y-87852D01*
X139670Y-87799D01*
X139530Y-87798D01*
X139401Y-87852D01*
X139302Y-87950D01*
X139249Y-88079D01*
X139248Y-88219D01*
X139302Y-88348D01*
X139310Y-88357D01*
X139201Y-88402D01*
X139102Y-88500D01*
X139049Y-88629D01*
X139048Y-88769D01*
X139102Y-88898D01*
X139200Y-88997D01*
X139329Y-89050D01*
X139469Y-89051D01*
X139598Y-88997D01*
X139697Y-88899D01*
X139750Y-88770D01*
X139751Y-88630D01*
X139697Y-88501D01*
X139689Y-88492D01*
X139798Y-88447D01*
X139897Y-88349D01*
X139950Y-88220D01*
X139951Y-88080D01*
X139951Y-89900D01*
X139820Y-89900D01*
X138420Y-88500D01*
X137751Y-88500D01*
X137751Y-87780D01*
X137751Y-86230D01*
X137697Y-86101D01*
X137599Y-86002D01*
X137470Y-85949D01*
X137330Y-85948D01*
X137201Y-86002D01*
X137102Y-86100D01*
X137049Y-86229D01*
X137048Y-86369D01*
X137102Y-86498D01*
X137200Y-86597D01*
X137329Y-86650D01*
X137469Y-86651D01*
X137598Y-86597D01*
X137697Y-86499D01*
X137750Y-86370D01*
X137751Y-86230D01*
X137751Y-87780D01*
X137697Y-87651D01*
X137599Y-87552D01*
X137470Y-87499D01*
X137330Y-87498D01*
X137201Y-87552D01*
X137102Y-87650D01*
X137049Y-87779D01*
X137048Y-87919D01*
X137102Y-88048D01*
X137200Y-88147D01*
X137329Y-88200D01*
X137469Y-88201D01*
X137598Y-88147D01*
X137697Y-88049D01*
X137750Y-87920D01*
X137751Y-87780D01*
X137751Y-88500D01*
X136279Y-88500D01*
X134679Y-90100D01*
X133779Y-90100D01*
X132979Y-90900D01*
X132320Y-90900D01*
X131520Y-90100D01*
X129350Y-90100D01*
X129350Y-88650D01*
X129051Y-88650D01*
X129051Y-87080D01*
X129051Y-85880D01*
X128997Y-85751D01*
X128899Y-85652D01*
X128770Y-85599D01*
X128630Y-85598D01*
X128501Y-85652D01*
X128402Y-85750D01*
X128349Y-85879D01*
X128348Y-86019D01*
X128402Y-86148D01*
X128500Y-86247D01*
X128629Y-86300D01*
X128769Y-86301D01*
X128898Y-86247D01*
X128997Y-86149D01*
X129050Y-86020D01*
X129051Y-85880D01*
X129051Y-87080D01*
X128997Y-86951D01*
X128899Y-86852D01*
X128770Y-86799D01*
X128630Y-86798D01*
X128501Y-86852D01*
X128402Y-86950D01*
X128349Y-87079D01*
X128348Y-87219D01*
X128402Y-87348D01*
X128482Y-87429D01*
X128417Y-87494D01*
X128375Y-87595D01*
X128375Y-87704D01*
X128417Y-87805D01*
X128494Y-87882D01*
X128536Y-87899D01*
X128494Y-87917D01*
X128417Y-87994D01*
X128375Y-88095D01*
X128375Y-88204D01*
X128417Y-88305D01*
X128494Y-88382D01*
X128595Y-88424D01*
X128704Y-88424D01*
X128805Y-88382D01*
X128882Y-88305D01*
X128924Y-88204D01*
X128924Y-88095D01*
X128882Y-87994D01*
X128805Y-87917D01*
X128763Y-87900D01*
X128805Y-87882D01*
X128882Y-87805D01*
X128924Y-87704D01*
X128924Y-87595D01*
X128882Y-87494D01*
X128854Y-87466D01*
X128898Y-87447D01*
X128997Y-87349D01*
X129050Y-87220D01*
X129051Y-87080D01*
X129051Y-88650D01*
X125900Y-88650D01*
X125900Y-90100D01*
X125607Y-90100D01*
X125607Y-88992D01*
X125505Y-88747D01*
X125317Y-88559D01*
X125072Y-88457D01*
X124806Y-88456D01*
X124561Y-88558D01*
X124373Y-88746D01*
X124271Y-88991D01*
X124270Y-89257D01*
X124372Y-89502D01*
X124560Y-89690D01*
X124805Y-89792D01*
X125071Y-89793D01*
X125316Y-89691D01*
X125504Y-89503D01*
X125606Y-89258D01*
X125607Y-88992D01*
X125607Y-90100D01*
X122679Y-90100D01*
X119650Y-93129D01*
X119641Y-93986D01*
X119529Y-93874D01*
X119426Y-93830D01*
X119426Y-88992D01*
X119324Y-88747D01*
X119136Y-88559D01*
X118891Y-88457D01*
X118625Y-88456D01*
X118380Y-88558D01*
X118192Y-88746D01*
X118090Y-88991D01*
X118089Y-89257D01*
X118191Y-89502D01*
X118379Y-89690D01*
X118624Y-89792D01*
X118890Y-89793D01*
X119135Y-89691D01*
X119323Y-89503D01*
X119425Y-89258D01*
X119426Y-88992D01*
X119426Y-93830D01*
X119284Y-93772D01*
X119018Y-93771D01*
X118773Y-93873D01*
X118585Y-94061D01*
X118483Y-94306D01*
X118482Y-94572D01*
X118584Y-94817D01*
X118772Y-95005D01*
X119017Y-95107D01*
X119283Y-95108D01*
X119528Y-95006D01*
X119632Y-94902D01*
X119616Y-96570D01*
X119549Y-96502D01*
X119420Y-96449D01*
X119280Y-96448D01*
X119151Y-96502D01*
X119052Y-96600D01*
X118999Y-96729D01*
X118998Y-96869D01*
X119052Y-96998D01*
X119150Y-97097D01*
X119279Y-97150D01*
X119419Y-97151D01*
X119548Y-97097D01*
X119611Y-97034D01*
X119600Y-98229D01*
X118750Y-99079D01*
X118750Y-102470D01*
X119029Y-102750D01*
X121466Y-102750D01*
X121330Y-102806D01*
X121196Y-102940D01*
X121124Y-103114D01*
X121123Y-103304D01*
X121196Y-103479D01*
X121330Y-103613D01*
X121504Y-103685D01*
X121694Y-103686D01*
X121869Y-103613D01*
X122003Y-103479D01*
X122075Y-103305D01*
X122076Y-103115D01*
X122003Y-102940D01*
X121869Y-102806D01*
X121700Y-102736D01*
X121700Y-102350D01*
X121700Y-102273D01*
X121869Y-102203D01*
X122003Y-102069D01*
X122075Y-101895D01*
X122076Y-101705D01*
X122003Y-101530D01*
X121869Y-101396D01*
X121700Y-101326D01*
X121700Y-101273D01*
X121869Y-101203D01*
X122003Y-101069D01*
X122075Y-100895D01*
X122076Y-100705D01*
X122003Y-100530D01*
X121869Y-100396D01*
X121700Y-100326D01*
X121700Y-100120D01*
X122400Y-99420D01*
X122400Y-95470D01*
X123870Y-94000D01*
X124040Y-94000D01*
X123979Y-94061D01*
X123877Y-94306D01*
X123876Y-94572D01*
X123978Y-94817D01*
X124166Y-95005D01*
X124411Y-95107D01*
X124677Y-95108D01*
X124922Y-95006D01*
X125110Y-94818D01*
X125212Y-94573D01*
X125213Y-94307D01*
X125111Y-94062D01*
X125049Y-94000D01*
X127400Y-94000D01*
X127400Y-97420D01*
X128200Y-98220D01*
X128200Y-98970D01*
X129700Y-100470D01*
X129700Y-105370D01*
X130603Y-106274D01*
X130455Y-106273D01*
X130280Y-106346D01*
X130146Y-106480D01*
X130074Y-106654D01*
X130073Y-106844D01*
X130146Y-107019D01*
X130280Y-107153D01*
X130454Y-107225D01*
X130644Y-107226D01*
X130819Y-107153D01*
X130953Y-107019D01*
X131025Y-106845D01*
X131026Y-106696D01*
X131578Y-107248D01*
X131340Y-107248D01*
X131275Y-107275D01*
X131225Y-107325D01*
X131199Y-107389D01*
X131198Y-107459D01*
X131198Y-108009D01*
X131225Y-108074D01*
X131275Y-108124D01*
X131339Y-108150D01*
X131409Y-108151D01*
X131959Y-108151D01*
X132024Y-108124D01*
X132074Y-108074D01*
X132100Y-108010D01*
X132101Y-107940D01*
X132101Y-107771D01*
X134255Y-109926D01*
X134267Y-109955D01*
X134394Y-110082D01*
X134423Y-110094D01*
X135231Y-110902D01*
X136619Y-110746D01*
X136564Y-110879D01*
X136563Y-111069D01*
X136636Y-111244D01*
X136770Y-111378D01*
X136944Y-111450D01*
X137134Y-111451D01*
X137309Y-111378D01*
X137443Y-111244D01*
X137515Y-111070D01*
X137516Y-110880D01*
X137443Y-110705D01*
X137397Y-110659D01*
X137678Y-110627D01*
X137616Y-110690D01*
X137544Y-110864D01*
X137543Y-111054D01*
X137616Y-111229D01*
X137750Y-111363D01*
X137924Y-111435D01*
X138114Y-111436D01*
X138289Y-111363D01*
X138423Y-111229D01*
X138495Y-111055D01*
X138496Y-110865D01*
X138423Y-110690D01*
X138292Y-110559D01*
X140561Y-110304D01*
X141224Y-113049D01*
X138511Y-113049D01*
X138511Y-111942D01*
X138436Y-111762D01*
X138298Y-111624D01*
X138118Y-111549D01*
X137922Y-111548D01*
X137742Y-111623D01*
X137604Y-111761D01*
X137529Y-111941D01*
X137528Y-112137D01*
X137603Y-112317D01*
X137741Y-112455D01*
X137921Y-112530D01*
X138117Y-112531D01*
X138297Y-112456D01*
X138435Y-112318D01*
X138510Y-112138D01*
X138511Y-111942D01*
X138511Y-113049D01*
X136600Y-113049D01*
X136576Y-113053D01*
X136549Y-113053D01*
X136525Y-113063D01*
X136503Y-113068D01*
X136485Y-113080D01*
X136459Y-113091D01*
X136439Y-113111D01*
X136422Y-113122D01*
X136410Y-113139D01*
X136390Y-113160D01*
X136388Y-113165D01*
X136388Y-112797D01*
X136003Y-111864D01*
X135289Y-111149D01*
X134357Y-110762D01*
X133347Y-110761D01*
X132414Y-111146D01*
X132101Y-111459D01*
X132101Y-109610D01*
X132101Y-108610D01*
X132032Y-108444D01*
X131905Y-108317D01*
X131740Y-108249D01*
X131560Y-108248D01*
X131394Y-108317D01*
X131267Y-108444D01*
X131199Y-108609D01*
X131198Y-108789D01*
X131267Y-108955D01*
X131394Y-109082D01*
X131559Y-109150D01*
X131739Y-109151D01*
X131905Y-109082D01*
X132032Y-108955D01*
X132100Y-108790D01*
X132101Y-108610D01*
X132101Y-109610D01*
X132032Y-109444D01*
X131905Y-109317D01*
X131740Y-109249D01*
X131560Y-109248D01*
X131394Y-109317D01*
X131267Y-109444D01*
X131199Y-109609D01*
X131198Y-109789D01*
X131267Y-109955D01*
X131394Y-110082D01*
X131559Y-110150D01*
X131739Y-110151D01*
X131905Y-110082D01*
X132032Y-109955D01*
X132100Y-109790D01*
X132101Y-109610D01*
X132101Y-111459D01*
X131699Y-111860D01*
X131312Y-112792D01*
X131311Y-113168D01*
X131308Y-113160D01*
X131291Y-113143D01*
X131277Y-113122D01*
X131257Y-113108D01*
X131239Y-113091D01*
X131216Y-113081D01*
X131196Y-113068D01*
X131171Y-113063D01*
X131149Y-113053D01*
X131124Y-113053D01*
X131100Y-113049D01*
X128076Y-113049D01*
X128076Y-109605D01*
X128076Y-108605D01*
X128076Y-105655D01*
X128076Y-104655D01*
X128076Y-101705D01*
X128076Y-100705D01*
X128003Y-100530D01*
X127869Y-100396D01*
X127695Y-100324D01*
X127505Y-100323D01*
X127330Y-100396D01*
X127196Y-100530D01*
X127124Y-100704D01*
X127123Y-100894D01*
X127196Y-101069D01*
X127330Y-101203D01*
X127504Y-101275D01*
X127694Y-101276D01*
X127869Y-101203D01*
X128003Y-101069D01*
X128075Y-100895D01*
X128076Y-100705D01*
X128076Y-101705D01*
X128003Y-101530D01*
X127869Y-101396D01*
X127695Y-101324D01*
X127505Y-101323D01*
X127330Y-101396D01*
X127196Y-101530D01*
X127124Y-101704D01*
X127123Y-101894D01*
X127196Y-102069D01*
X127330Y-102203D01*
X127504Y-102275D01*
X127694Y-102276D01*
X127869Y-102203D01*
X128003Y-102069D01*
X128075Y-101895D01*
X128076Y-101705D01*
X128076Y-104655D01*
X128003Y-104480D01*
X127869Y-104346D01*
X127695Y-104274D01*
X127505Y-104273D01*
X127330Y-104346D01*
X127196Y-104480D01*
X127124Y-104654D01*
X127123Y-104844D01*
X127196Y-105019D01*
X127330Y-105153D01*
X127504Y-105225D01*
X127694Y-105226D01*
X127869Y-105153D01*
X128003Y-105019D01*
X128075Y-104845D01*
X128076Y-104655D01*
X128076Y-105655D01*
X128003Y-105480D01*
X127869Y-105346D01*
X127695Y-105274D01*
X127505Y-105273D01*
X127330Y-105346D01*
X127196Y-105480D01*
X127124Y-105654D01*
X127123Y-105844D01*
X127196Y-106019D01*
X127330Y-106153D01*
X127504Y-106225D01*
X127694Y-106226D01*
X127869Y-106153D01*
X128003Y-106019D01*
X128075Y-105845D01*
X128076Y-105655D01*
X128076Y-108605D01*
X128003Y-108430D01*
X127869Y-108296D01*
X127695Y-108224D01*
X127505Y-108223D01*
X127330Y-108296D01*
X127196Y-108430D01*
X127124Y-108604D01*
X127123Y-108794D01*
X127196Y-108969D01*
X127330Y-109103D01*
X127504Y-109175D01*
X127694Y-109176D01*
X127869Y-109103D01*
X128003Y-108969D01*
X128075Y-108795D01*
X128076Y-108605D01*
X128076Y-109605D01*
X128003Y-109430D01*
X127869Y-109296D01*
X127695Y-109224D01*
X127505Y-109223D01*
X127330Y-109296D01*
X127196Y-109430D01*
X127124Y-109604D01*
X127123Y-109794D01*
X127196Y-109969D01*
X127330Y-110103D01*
X127504Y-110175D01*
X127694Y-110176D01*
X127869Y-110103D01*
X128003Y-109969D01*
X128075Y-109795D01*
X128076Y-109605D01*
X128076Y-113049D01*
X127076Y-113049D01*
X127076Y-109605D01*
X127076Y-108605D01*
X127076Y-105655D01*
X127076Y-104655D01*
X127076Y-101705D01*
X127076Y-100705D01*
X127003Y-100530D01*
X126869Y-100396D01*
X126736Y-100341D01*
X126736Y-97855D01*
X126682Y-97726D01*
X126584Y-97627D01*
X126455Y-97574D01*
X126324Y-97573D01*
X126324Y-97495D01*
X126282Y-97394D01*
X126205Y-97317D01*
X126104Y-97275D01*
X125995Y-97275D01*
X125894Y-97317D01*
X125817Y-97394D01*
X125775Y-97495D01*
X125775Y-97604D01*
X125784Y-97625D01*
X125695Y-97625D01*
X125594Y-97667D01*
X125517Y-97744D01*
X125475Y-97845D01*
X125475Y-97954D01*
X125517Y-98055D01*
X125594Y-98132D01*
X125695Y-98174D01*
X125804Y-98174D01*
X125905Y-98132D01*
X125982Y-98055D01*
X126024Y-97954D01*
X126024Y-97845D01*
X126015Y-97824D01*
X126046Y-97824D01*
X126034Y-97854D01*
X126033Y-97994D01*
X126087Y-98123D01*
X126185Y-98222D01*
X126314Y-98275D01*
X126454Y-98276D01*
X126583Y-98222D01*
X126682Y-98124D01*
X126735Y-97995D01*
X126736Y-97855D01*
X126736Y-100341D01*
X126695Y-100324D01*
X126505Y-100323D01*
X126330Y-100396D01*
X126196Y-100530D01*
X126124Y-100704D01*
X126123Y-100894D01*
X126196Y-101069D01*
X126330Y-101203D01*
X126504Y-101275D01*
X126694Y-101276D01*
X126869Y-101203D01*
X127003Y-101069D01*
X127075Y-100895D01*
X127076Y-100705D01*
X127076Y-101705D01*
X127003Y-101530D01*
X126869Y-101396D01*
X126695Y-101324D01*
X126505Y-101323D01*
X126330Y-101396D01*
X126196Y-101530D01*
X126124Y-101704D01*
X126123Y-101894D01*
X126196Y-102069D01*
X126330Y-102203D01*
X126504Y-102275D01*
X126694Y-102276D01*
X126869Y-102203D01*
X127003Y-102069D01*
X127075Y-101895D01*
X127076Y-101705D01*
X127076Y-104655D01*
X127003Y-104480D01*
X126869Y-104346D01*
X126695Y-104274D01*
X126505Y-104273D01*
X126330Y-104346D01*
X126196Y-104480D01*
X126124Y-104654D01*
X126123Y-104844D01*
X126196Y-105019D01*
X126330Y-105153D01*
X126504Y-105225D01*
X126694Y-105226D01*
X126869Y-105153D01*
X127003Y-105019D01*
X127075Y-104845D01*
X127076Y-104655D01*
X127076Y-105655D01*
X127003Y-105480D01*
X126869Y-105346D01*
X126695Y-105274D01*
X126505Y-105273D01*
X126330Y-105346D01*
X126196Y-105480D01*
X126124Y-105654D01*
X126123Y-105844D01*
X126196Y-106019D01*
X126330Y-106153D01*
X126504Y-106225D01*
X126694Y-106226D01*
X126869Y-106153D01*
X127003Y-106019D01*
X127075Y-105845D01*
X127076Y-105655D01*
X127076Y-108605D01*
X127003Y-108430D01*
X126869Y-108296D01*
X126695Y-108224D01*
X126505Y-108223D01*
X126330Y-108296D01*
X126196Y-108430D01*
X126124Y-108604D01*
X126123Y-108794D01*
X126196Y-108969D01*
X126330Y-109103D01*
X126504Y-109175D01*
X126694Y-109176D01*
X126869Y-109103D01*
X127003Y-108969D01*
X127075Y-108795D01*
X127076Y-108605D01*
X127076Y-109605D01*
X127003Y-109430D01*
X126869Y-109296D01*
X126695Y-109224D01*
X126505Y-109223D01*
X126330Y-109296D01*
X126196Y-109430D01*
X126124Y-109604D01*
X126123Y-109794D01*
X126196Y-109969D01*
X126330Y-110103D01*
X126504Y-110175D01*
X126694Y-110176D01*
X126869Y-110103D01*
X127003Y-109969D01*
X127075Y-109795D01*
X127076Y-109605D01*
X127076Y-113049D01*
X126076Y-113049D01*
X126076Y-109605D01*
X126076Y-108605D01*
X126076Y-105655D01*
X126076Y-104655D01*
X126076Y-101705D01*
X126076Y-100705D01*
X126003Y-100530D01*
X125869Y-100396D01*
X125695Y-100324D01*
X125505Y-100323D01*
X125330Y-100396D01*
X125196Y-100530D01*
X125124Y-100704D01*
X125123Y-100894D01*
X125196Y-101069D01*
X125330Y-101203D01*
X125504Y-101275D01*
X125694Y-101276D01*
X125869Y-101203D01*
X126003Y-101069D01*
X126075Y-100895D01*
X126076Y-100705D01*
X126076Y-101705D01*
X126003Y-101530D01*
X125869Y-101396D01*
X125695Y-101324D01*
X125505Y-101323D01*
X125330Y-101396D01*
X125196Y-101530D01*
X125124Y-101704D01*
X125123Y-101894D01*
X125196Y-102069D01*
X125330Y-102203D01*
X125504Y-102275D01*
X125694Y-102276D01*
X125869Y-102203D01*
X126003Y-102069D01*
X126075Y-101895D01*
X126076Y-101705D01*
X126076Y-104655D01*
X126003Y-104480D01*
X125869Y-104346D01*
X125695Y-104274D01*
X125505Y-104273D01*
X125330Y-104346D01*
X125196Y-104480D01*
X125124Y-104654D01*
X125123Y-104844D01*
X125196Y-105019D01*
X125330Y-105153D01*
X125504Y-105225D01*
X125694Y-105226D01*
X125869Y-105153D01*
X126003Y-105019D01*
X126075Y-104845D01*
X126076Y-104655D01*
X126076Y-105655D01*
X126003Y-105480D01*
X125869Y-105346D01*
X125695Y-105274D01*
X125505Y-105273D01*
X125330Y-105346D01*
X125196Y-105480D01*
X125124Y-105654D01*
X125123Y-105844D01*
X125196Y-106019D01*
X125330Y-106153D01*
X125504Y-106225D01*
X125694Y-106226D01*
X125869Y-106153D01*
X126003Y-106019D01*
X126075Y-105845D01*
X126076Y-105655D01*
X126076Y-108605D01*
X126003Y-108430D01*
X125869Y-108296D01*
X125695Y-108224D01*
X125505Y-108223D01*
X125330Y-108296D01*
X125196Y-108430D01*
X125124Y-108604D01*
X125123Y-108794D01*
X125196Y-108969D01*
X125330Y-109103D01*
X125504Y-109175D01*
X125694Y-109176D01*
X125869Y-109103D01*
X126003Y-108969D01*
X126075Y-108795D01*
X126076Y-108605D01*
X126076Y-109605D01*
X126003Y-109430D01*
X125869Y-109296D01*
X125695Y-109224D01*
X125505Y-109223D01*
X125330Y-109296D01*
X125196Y-109430D01*
X125124Y-109604D01*
X125123Y-109794D01*
X125196Y-109969D01*
X125330Y-110103D01*
X125504Y-110175D01*
X125694Y-110176D01*
X125869Y-110103D01*
X126003Y-109969D01*
X126075Y-109795D01*
X126076Y-109605D01*
X126076Y-113049D01*
X125084Y-113049D01*
X125084Y-95985D01*
X125042Y-95884D01*
X124965Y-95807D01*
X124864Y-95765D01*
X124755Y-95765D01*
X124654Y-95807D01*
X124577Y-95884D01*
X124535Y-95985D01*
X124535Y-96094D01*
X124577Y-96195D01*
X124584Y-96202D01*
X124584Y-97186D01*
X124530Y-97132D01*
X124429Y-97090D01*
X124320Y-97090D01*
X124319Y-97091D01*
X124319Y-95975D01*
X124277Y-95874D01*
X124200Y-95797D01*
X124099Y-95755D01*
X123990Y-95755D01*
X123889Y-95797D01*
X123812Y-95874D01*
X123770Y-95975D01*
X123770Y-96084D01*
X123812Y-96185D01*
X123889Y-96262D01*
X123990Y-96304D01*
X124099Y-96304D01*
X124200Y-96262D01*
X124277Y-96185D01*
X124319Y-96084D01*
X124319Y-95975D01*
X124319Y-97091D01*
X124219Y-97132D01*
X124142Y-97209D01*
X124100Y-97310D01*
X124100Y-97419D01*
X124142Y-97520D01*
X124219Y-97597D01*
X124320Y-97639D01*
X124429Y-97639D01*
X124530Y-97597D01*
X124584Y-97543D01*
X124584Y-99381D01*
X124184Y-99782D01*
X124184Y-99340D01*
X124184Y-97735D01*
X124142Y-97634D01*
X124065Y-97557D01*
X123964Y-97515D01*
X123855Y-97515D01*
X123754Y-97557D01*
X123677Y-97634D01*
X123635Y-97735D01*
X123635Y-97844D01*
X123677Y-97945D01*
X123754Y-98022D01*
X123855Y-98064D01*
X123964Y-98064D01*
X124065Y-98022D01*
X124142Y-97945D01*
X124184Y-97844D01*
X124184Y-97735D01*
X124184Y-99340D01*
X124142Y-99239D01*
X124065Y-99162D01*
X123964Y-99120D01*
X123855Y-99120D01*
X123754Y-99162D01*
X123677Y-99239D01*
X123635Y-99340D01*
X123635Y-99449D01*
X123677Y-99550D01*
X123754Y-99627D01*
X123855Y-99669D01*
X123964Y-99669D01*
X124065Y-99627D01*
X124142Y-99550D01*
X124184Y-99449D01*
X124184Y-99340D01*
X124184Y-99782D01*
X123925Y-100040D01*
X123876Y-100113D01*
X123859Y-100200D01*
X123859Y-100392D01*
X123695Y-100324D01*
X123505Y-100323D01*
X123424Y-100357D01*
X123424Y-97145D01*
X123382Y-97044D01*
X123305Y-96967D01*
X123204Y-96925D01*
X123095Y-96925D01*
X122994Y-96967D01*
X122917Y-97044D01*
X122875Y-97145D01*
X122875Y-97254D01*
X122917Y-97355D01*
X122994Y-97432D01*
X123095Y-97474D01*
X123204Y-97474D01*
X123305Y-97432D01*
X123382Y-97355D01*
X123424Y-97254D01*
X123424Y-97145D01*
X123424Y-100357D01*
X123330Y-100396D01*
X123196Y-100530D01*
X123174Y-100583D01*
X123174Y-97945D01*
X123132Y-97844D01*
X123055Y-97767D01*
X122954Y-97725D01*
X122845Y-97725D01*
X122744Y-97767D01*
X122667Y-97844D01*
X122625Y-97945D01*
X122625Y-98054D01*
X122667Y-98155D01*
X122744Y-98232D01*
X122845Y-98274D01*
X122954Y-98274D01*
X123055Y-98232D01*
X123132Y-98155D01*
X123174Y-98054D01*
X123174Y-97945D01*
X123174Y-100583D01*
X123124Y-100704D01*
X123123Y-100894D01*
X123196Y-101069D01*
X123330Y-101203D01*
X123504Y-101275D01*
X123694Y-101276D01*
X123859Y-101207D01*
X123859Y-101221D01*
X123739Y-101342D01*
X123695Y-101324D01*
X123505Y-101323D01*
X123330Y-101396D01*
X123196Y-101530D01*
X123124Y-101704D01*
X123123Y-101894D01*
X123196Y-102069D01*
X123330Y-102203D01*
X123504Y-102275D01*
X123694Y-102276D01*
X123869Y-102203D01*
X124003Y-102069D01*
X124075Y-101895D01*
X124076Y-101705D01*
X124057Y-101660D01*
X124244Y-101474D01*
X124244Y-101474D01*
X124293Y-101401D01*
X124310Y-101315D01*
X124310Y-101315D01*
X124310Y-101183D01*
X124330Y-101203D01*
X124504Y-101275D01*
X124694Y-101276D01*
X124869Y-101203D01*
X125003Y-101069D01*
X125075Y-100895D01*
X125076Y-100705D01*
X125003Y-100530D01*
X124869Y-100396D01*
X124695Y-100324D01*
X124505Y-100323D01*
X124330Y-100396D01*
X124310Y-100416D01*
X124310Y-100293D01*
X124969Y-99634D01*
X125018Y-99561D01*
X125035Y-99475D01*
X125035Y-96202D01*
X125042Y-96195D01*
X125084Y-96094D01*
X125084Y-95985D01*
X125084Y-113049D01*
X125076Y-113049D01*
X125076Y-109605D01*
X125076Y-108605D01*
X125076Y-105655D01*
X125076Y-104655D01*
X125076Y-101705D01*
X125003Y-101530D01*
X124869Y-101396D01*
X124695Y-101324D01*
X124505Y-101323D01*
X124330Y-101396D01*
X124196Y-101530D01*
X124124Y-101704D01*
X124123Y-101894D01*
X124196Y-102069D01*
X124330Y-102203D01*
X124504Y-102275D01*
X124694Y-102276D01*
X124869Y-102203D01*
X125003Y-102069D01*
X125075Y-101895D01*
X125076Y-101705D01*
X125076Y-104655D01*
X125003Y-104480D01*
X124869Y-104346D01*
X124695Y-104274D01*
X124505Y-104273D01*
X124330Y-104346D01*
X124196Y-104480D01*
X124124Y-104654D01*
X124123Y-104844D01*
X124196Y-105019D01*
X124330Y-105153D01*
X124504Y-105225D01*
X124694Y-105226D01*
X124869Y-105153D01*
X125003Y-105019D01*
X125075Y-104845D01*
X125076Y-104655D01*
X125076Y-105655D01*
X125003Y-105480D01*
X124869Y-105346D01*
X124695Y-105274D01*
X124505Y-105273D01*
X124330Y-105346D01*
X124196Y-105480D01*
X124124Y-105654D01*
X124123Y-105844D01*
X124196Y-106019D01*
X124330Y-106153D01*
X124504Y-106225D01*
X124694Y-106226D01*
X124869Y-106153D01*
X125003Y-106019D01*
X125075Y-105845D01*
X125076Y-105655D01*
X125076Y-108605D01*
X125003Y-108430D01*
X124869Y-108296D01*
X124695Y-108224D01*
X124505Y-108223D01*
X124330Y-108296D01*
X124196Y-108430D01*
X124124Y-108604D01*
X124123Y-108794D01*
X124196Y-108969D01*
X124330Y-109103D01*
X124504Y-109175D01*
X124694Y-109176D01*
X124869Y-109103D01*
X125003Y-108969D01*
X125075Y-108795D01*
X125076Y-108605D01*
X125076Y-109605D01*
X125003Y-109430D01*
X124869Y-109296D01*
X124695Y-109224D01*
X124505Y-109223D01*
X124330Y-109296D01*
X124196Y-109430D01*
X124124Y-109604D01*
X124123Y-109794D01*
X124196Y-109969D01*
X124330Y-110103D01*
X124504Y-110175D01*
X124694Y-110176D01*
X124869Y-110103D01*
X125003Y-109969D01*
X125075Y-109795D01*
X125076Y-109605D01*
X125076Y-113049D01*
X124076Y-113049D01*
X124076Y-109605D01*
X124076Y-108605D01*
X124076Y-105655D01*
X124076Y-104655D01*
X124076Y-104655D01*
X124076Y-103475D01*
X124076Y-102875D01*
X124049Y-102810D01*
X123999Y-102760D01*
X123935Y-102734D01*
X123865Y-102733D01*
X123265Y-102733D01*
X123200Y-102760D01*
X123150Y-102810D01*
X123124Y-102874D01*
X123123Y-102944D01*
X123123Y-103544D01*
X123150Y-103609D01*
X123200Y-103659D01*
X123264Y-103685D01*
X123334Y-103686D01*
X123934Y-103686D01*
X123999Y-103659D01*
X124049Y-103609D01*
X124075Y-103545D01*
X124076Y-103475D01*
X124076Y-104655D01*
X124003Y-104480D01*
X123869Y-104346D01*
X123695Y-104274D01*
X123505Y-104273D01*
X123330Y-104346D01*
X123196Y-104480D01*
X123124Y-104654D01*
X123123Y-104844D01*
X123196Y-105019D01*
X123330Y-105153D01*
X123504Y-105225D01*
X123694Y-105226D01*
X123869Y-105153D01*
X124003Y-105019D01*
X124075Y-104845D01*
X124076Y-104655D01*
X124076Y-105655D01*
X124003Y-105480D01*
X123869Y-105346D01*
X123695Y-105274D01*
X123505Y-105273D01*
X123330Y-105346D01*
X123196Y-105480D01*
X123124Y-105654D01*
X123123Y-105844D01*
X123196Y-106019D01*
X123330Y-106153D01*
X123504Y-106225D01*
X123694Y-106226D01*
X123869Y-106153D01*
X124003Y-106019D01*
X124075Y-105845D01*
X124076Y-105655D01*
X124076Y-108605D01*
X124003Y-108430D01*
X123869Y-108296D01*
X123695Y-108224D01*
X123505Y-108223D01*
X123330Y-108296D01*
X123196Y-108430D01*
X123124Y-108604D01*
X123123Y-108794D01*
X123196Y-108969D01*
X123330Y-109103D01*
X123504Y-109175D01*
X123694Y-109176D01*
X123869Y-109103D01*
X124003Y-108969D01*
X124075Y-108795D01*
X124076Y-108605D01*
X124076Y-109605D01*
X124003Y-109430D01*
X123869Y-109296D01*
X123695Y-109224D01*
X123505Y-109223D01*
X123330Y-109296D01*
X123196Y-109430D01*
X123124Y-109604D01*
X123123Y-109794D01*
X123196Y-109969D01*
X123330Y-110103D01*
X123504Y-110175D01*
X123694Y-110176D01*
X123869Y-110103D01*
X124003Y-109969D01*
X124075Y-109795D01*
X124076Y-109605D01*
X124076Y-113049D01*
X123076Y-113049D01*
X123076Y-109605D01*
X123076Y-108605D01*
X123076Y-105655D01*
X123076Y-104655D01*
X123076Y-103115D01*
X123076Y-101705D01*
X123076Y-100705D01*
X123003Y-100530D01*
X122869Y-100396D01*
X122695Y-100324D01*
X122505Y-100323D01*
X122330Y-100396D01*
X122196Y-100530D01*
X122124Y-100704D01*
X122123Y-100894D01*
X122196Y-101069D01*
X122330Y-101203D01*
X122504Y-101275D01*
X122694Y-101276D01*
X122869Y-101203D01*
X123003Y-101069D01*
X123075Y-100895D01*
X123076Y-100705D01*
X123076Y-101705D01*
X123003Y-101530D01*
X122869Y-101396D01*
X122695Y-101324D01*
X122505Y-101323D01*
X122330Y-101396D01*
X122196Y-101530D01*
X122124Y-101704D01*
X122123Y-101894D01*
X122196Y-102069D01*
X122330Y-102203D01*
X122504Y-102275D01*
X122694Y-102276D01*
X122869Y-102203D01*
X123003Y-102069D01*
X123075Y-101895D01*
X123076Y-101705D01*
X123076Y-103115D01*
X123003Y-102940D01*
X122869Y-102806D01*
X122695Y-102734D01*
X122505Y-102733D01*
X122330Y-102806D01*
X122196Y-102940D01*
X122124Y-103114D01*
X122123Y-103304D01*
X122196Y-103479D01*
X122330Y-103613D01*
X122504Y-103685D01*
X122694Y-103686D01*
X122869Y-103613D01*
X123003Y-103479D01*
X123075Y-103305D01*
X123076Y-103115D01*
X123076Y-104655D01*
X123003Y-104480D01*
X122869Y-104346D01*
X122695Y-104274D01*
X122505Y-104273D01*
X122330Y-104346D01*
X122196Y-104480D01*
X122124Y-104654D01*
X122123Y-104844D01*
X122196Y-105019D01*
X122330Y-105153D01*
X122504Y-105225D01*
X122694Y-105226D01*
X122869Y-105153D01*
X123003Y-105019D01*
X123075Y-104845D01*
X123076Y-104655D01*
X123076Y-105655D01*
X123003Y-105480D01*
X122869Y-105346D01*
X122695Y-105274D01*
X122505Y-105273D01*
X122330Y-105346D01*
X122196Y-105480D01*
X122124Y-105654D01*
X122123Y-105844D01*
X122196Y-106019D01*
X122330Y-106153D01*
X122504Y-106225D01*
X122694Y-106226D01*
X122869Y-106153D01*
X123003Y-106019D01*
X123075Y-105845D01*
X123076Y-105655D01*
X123076Y-108605D01*
X123003Y-108430D01*
X122869Y-108296D01*
X122695Y-108224D01*
X122505Y-108223D01*
X122330Y-108296D01*
X122196Y-108430D01*
X122124Y-108604D01*
X122123Y-108794D01*
X122196Y-108969D01*
X122330Y-109103D01*
X122504Y-109175D01*
X122694Y-109176D01*
X122869Y-109103D01*
X123003Y-108969D01*
X123075Y-108795D01*
X123076Y-108605D01*
X123076Y-109605D01*
X123003Y-109430D01*
X122869Y-109296D01*
X122695Y-109224D01*
X122505Y-109223D01*
X122330Y-109296D01*
X122196Y-109430D01*
X122124Y-109604D01*
X122123Y-109794D01*
X122196Y-109969D01*
X122330Y-110103D01*
X122504Y-110175D01*
X122694Y-110176D01*
X122869Y-110103D01*
X123003Y-109969D01*
X123075Y-109795D01*
X123076Y-109605D01*
X123076Y-113049D01*
X122076Y-113049D01*
X122076Y-109605D01*
X122076Y-108605D01*
X122076Y-105655D01*
X122076Y-104655D01*
X122003Y-104480D01*
X121869Y-104346D01*
X121695Y-104274D01*
X121505Y-104273D01*
X121330Y-104346D01*
X121196Y-104480D01*
X121124Y-104654D01*
X121123Y-104844D01*
X121196Y-105019D01*
X121330Y-105153D01*
X121504Y-105225D01*
X121694Y-105226D01*
X121869Y-105153D01*
X122003Y-105019D01*
X122075Y-104845D01*
X122076Y-104655D01*
X122076Y-105655D01*
X122003Y-105480D01*
X121869Y-105346D01*
X121695Y-105274D01*
X121505Y-105273D01*
X121330Y-105346D01*
X121196Y-105480D01*
X121124Y-105654D01*
X121123Y-105844D01*
X121196Y-106019D01*
X121330Y-106153D01*
X121504Y-106225D01*
X121694Y-106226D01*
X121869Y-106153D01*
X122003Y-106019D01*
X122075Y-105845D01*
X122076Y-105655D01*
X122076Y-108605D01*
X122003Y-108430D01*
X121869Y-108296D01*
X121695Y-108224D01*
X121505Y-108223D01*
X121330Y-108296D01*
X121196Y-108430D01*
X121124Y-108604D01*
X121123Y-108794D01*
X121196Y-108969D01*
X121330Y-109103D01*
X121504Y-109175D01*
X121694Y-109176D01*
X121869Y-109103D01*
X122003Y-108969D01*
X122075Y-108795D01*
X122076Y-108605D01*
X122076Y-109605D01*
X122003Y-109430D01*
X121869Y-109296D01*
X121695Y-109224D01*
X121505Y-109223D01*
X121330Y-109296D01*
X121196Y-109430D01*
X121124Y-109604D01*
X121123Y-109794D01*
X121196Y-109969D01*
X121330Y-110103D01*
X121504Y-110175D01*
X121694Y-110176D01*
X121869Y-110103D01*
X122003Y-109969D01*
X122075Y-109795D01*
X122076Y-109605D01*
X122076Y-113049D01*
X121076Y-113049D01*
X121076Y-109605D01*
X121076Y-108605D01*
X121076Y-105655D01*
X121076Y-104655D01*
X121003Y-104480D01*
X120869Y-104346D01*
X120695Y-104274D01*
X120505Y-104273D01*
X120330Y-104346D01*
X120196Y-104480D01*
X120124Y-104654D01*
X120123Y-104844D01*
X120196Y-105019D01*
X120330Y-105153D01*
X120504Y-105225D01*
X120694Y-105226D01*
X120869Y-105153D01*
X121003Y-105019D01*
X121075Y-104845D01*
X121076Y-104655D01*
X121076Y-105655D01*
X121003Y-105480D01*
X120869Y-105346D01*
X120695Y-105274D01*
X120505Y-105273D01*
X120330Y-105346D01*
X120196Y-105480D01*
X120124Y-105654D01*
X120123Y-105844D01*
X120196Y-106019D01*
X120330Y-106153D01*
X120504Y-106225D01*
X120694Y-106226D01*
X120869Y-106153D01*
X121003Y-106019D01*
X121075Y-105845D01*
X121076Y-105655D01*
X121076Y-108605D01*
X121003Y-108430D01*
X120869Y-108296D01*
X120695Y-108224D01*
X120505Y-108223D01*
X120330Y-108296D01*
X120196Y-108430D01*
X120124Y-108604D01*
X120123Y-108794D01*
X120196Y-108969D01*
X120330Y-109103D01*
X120504Y-109175D01*
X120694Y-109176D01*
X120869Y-109103D01*
X121003Y-108969D01*
X121075Y-108795D01*
X121076Y-108605D01*
X121076Y-109605D01*
X121003Y-109430D01*
X120869Y-109296D01*
X120695Y-109224D01*
X120505Y-109223D01*
X120330Y-109296D01*
X120196Y-109430D01*
X120124Y-109604D01*
X120123Y-109794D01*
X120196Y-109969D01*
X120330Y-110103D01*
X120504Y-110175D01*
X120694Y-110176D01*
X120869Y-110103D01*
X121003Y-109969D01*
X121075Y-109795D01*
X121076Y-109605D01*
X121076Y-113049D01*
X120076Y-113049D01*
X120076Y-108605D01*
X120076Y-104655D01*
X120003Y-104480D01*
X119869Y-104346D01*
X119695Y-104274D01*
X119505Y-104273D01*
X119330Y-104346D01*
X119196Y-104480D01*
X119124Y-104654D01*
X119123Y-104844D01*
X119196Y-105019D01*
X119330Y-105153D01*
X119504Y-105225D01*
X119694Y-105226D01*
X119869Y-105153D01*
X120003Y-105019D01*
X120075Y-104845D01*
X120076Y-104655D01*
X120076Y-108605D01*
X120076Y-108605D01*
X120076Y-106015D01*
X120076Y-105415D01*
X120049Y-105350D01*
X119999Y-105300D01*
X119935Y-105274D01*
X119865Y-105273D01*
X119265Y-105273D01*
X119200Y-105300D01*
X119150Y-105350D01*
X119124Y-105414D01*
X119123Y-105484D01*
X119123Y-106084D01*
X119150Y-106149D01*
X119200Y-106199D01*
X119264Y-106225D01*
X119334Y-106226D01*
X119934Y-106226D01*
X119999Y-106199D01*
X120049Y-106149D01*
X120075Y-106085D01*
X120076Y-106015D01*
X120076Y-108605D01*
X120003Y-108430D01*
X119869Y-108296D01*
X119695Y-108224D01*
X119505Y-108223D01*
X119330Y-108296D01*
X119196Y-108430D01*
X119124Y-108604D01*
X119123Y-108794D01*
X119196Y-108969D01*
X119330Y-109103D01*
X119504Y-109175D01*
X119694Y-109176D01*
X119869Y-109103D01*
X120003Y-108969D01*
X120075Y-108795D01*
X120076Y-108605D01*
X120076Y-113049D01*
X120076Y-113049D01*
X120076Y-109965D01*
X120076Y-109365D01*
X120049Y-109300D01*
X119999Y-109250D01*
X119935Y-109224D01*
X119865Y-109223D01*
X119265Y-109223D01*
X119200Y-109250D01*
X119150Y-109300D01*
X119124Y-109364D01*
X119123Y-109434D01*
X119123Y-110034D01*
X119150Y-110099D01*
X119200Y-110149D01*
X119264Y-110175D01*
X119334Y-110176D01*
X119934Y-110176D01*
X119999Y-110149D01*
X120049Y-110099D01*
X120075Y-110035D01*
X120076Y-109965D01*
X120076Y-113049D01*
X118100Y-113049D01*
X118000Y-113049D01*
X118000Y-89750D01*
X118000Y-89450D01*
X118000Y-87650D01*
X118000Y-85200D01*
X131050Y-85200D01*
X131074Y-85196D01*
X131098Y-85196D01*
X131121Y-85186D01*
X131146Y-85181D01*
X131166Y-85168D01*
X131189Y-85158D01*
X131206Y-85141D01*
X131227Y-85127D01*
X131241Y-85107D01*
X131258Y-85089D01*
X131268Y-85066D01*
X131281Y-85046D01*
X131286Y-85021D01*
X131296Y-84999D01*
X131311Y-84920D01*
X131311Y-85452D01*
X131696Y-86385D01*
X132410Y-87100D01*
X133342Y-87487D01*
X134352Y-87488D01*
X135285Y-87103D01*
X136000Y-86389D01*
X136387Y-85457D01*
X136388Y-84915D01*
X136404Y-84998D01*
X136412Y-85017D01*
X136418Y-85046D01*
X136434Y-85070D01*
X136442Y-85089D01*
X136456Y-85103D01*
X136472Y-85127D01*
X136496Y-85143D01*
X136511Y-85158D01*
X136531Y-85166D01*
X136553Y-85181D01*
X136580Y-85187D01*
X136602Y-85196D01*
X136624Y-85195D01*
X136650Y-85200D01*
X139352Y-85200D01*
X139302Y-85250D01*
X139249Y-85379D01*
X139248Y-85519D01*
X139302Y-85648D01*
X139400Y-85747D01*
X139529Y-85800D01*
X139669Y-85801D01*
X139798Y-85747D01*
X139897Y-85649D01*
X139950Y-85520D01*
X139951Y-85380D01*
X139897Y-85251D01*
X139847Y-85200D01*
X142052Y-85200D01*
X142002Y-85250D01*
X141949Y-85379D01*
X141948Y-85519D01*
X142002Y-85648D01*
X142100Y-85747D01*
X142229Y-85800D01*
X142369Y-85801D01*
X142498Y-85747D01*
X142597Y-85649D01*
X142650Y-85520D01*
X142651Y-85380D01*
X142597Y-85251D01*
X142547Y-85200D01*
X143943Y-85200D01*
X143683Y-85459D01*
X143536Y-85813D01*
X143536Y-86197D01*
X143682Y-86551D01*
X143953Y-86822D01*
X144307Y-86969D01*
X144690Y-86969D01*
X144800Y-86924D01*
X144800Y-90100D01*
X144800Y-94429D01*
G54D10*
G36*
X136050Y-97478D02*
X133800Y-99678D01*
X133800Y-100079D01*
X133329Y-100550D01*
X130979Y-100550D01*
X130664Y-100864D01*
X130600Y-100929D01*
X130600Y-100529D01*
X128950Y-98879D01*
X128950Y-98229D01*
X128170Y-97450D01*
X127900Y-97450D01*
X127900Y-94150D01*
X128150Y-94150D01*
X129950Y-94150D01*
X129950Y-96129D01*
X129450Y-96629D01*
X129450Y-98920D01*
X130629Y-100100D01*
X133000Y-100100D01*
X133000Y-99221D01*
X135150Y-97171D01*
X135150Y-96700D01*
X135150Y-96650D01*
X136050Y-96650D01*
X136050Y-97478D01*
X136050Y-97478D01*
G37*
G54D33*
X136050Y-97478D02*
X133800Y-99678D01*
X133800Y-100079D01*
X133329Y-100550D01*
X130979Y-100550D01*
X130664Y-100864D01*
X130600Y-100929D01*
X130600Y-100529D01*
X128950Y-98879D01*
X128950Y-98229D01*
X128170Y-97450D01*
X127900Y-97450D01*
X127900Y-94150D01*
X128150Y-94150D01*
X129950Y-94150D01*
X129950Y-96129D01*
X129450Y-96629D01*
X129450Y-98920D01*
X130629Y-100100D01*
X133000Y-100100D01*
X133000Y-99221D01*
X135150Y-97171D01*
X135150Y-96700D01*
X135150Y-96650D01*
X136050Y-96650D01*
X136050Y-97478D01*
M02*
