G04 (created by PCBNEW (2013-07-07 BZR 4022)-stable) date 2/2/2017 10:33:48 AM*
%MOIN*%
G04 Gerber Fmt 3.4, Leading zero omitted, Abs format*
%FSLAX34Y34*%
G01*
G70*
G90*
G04 APERTURE LIST*
%ADD10C,0.00590551*%
%ADD11R,0.06X0.06*%
%ADD12C,0.06*%
%ADD13C,0.15748*%
%ADD14C,0.472441*%
%ADD15C,0.055*%
%ADD16R,0.0587X0.0587*%
%ADD17C,0.0587*%
%ADD18C,0.07*%
%ADD19R,0.07X0.07*%
%ADD20C,0.129921*%
%ADD21C,0.066*%
%ADD22C,0.052*%
%ADD23C,0.1*%
%ADD24C,0.056*%
%ADD25C,0.0787402*%
%ADD26R,0.11811X0.11811*%
%ADD27C,0.11811*%
%ADD28C,0.035*%
%ADD29C,0.0551181*%
%ADD30C,0.0255906*%
%ADD31C,0.00984252*%
%ADD32C,0.0149606*%
%ADD33C,0.00826772*%
%ADD34C,0.017*%
%ADD35C,0.0629921*%
G04 APERTURE END LIST*
G54D10*
G54D11*
X119600Y-101800D03*
G54D12*
X119600Y-100800D03*
X120600Y-101800D03*
X120600Y-100800D03*
X121600Y-101800D03*
X121600Y-100800D03*
X122600Y-101800D03*
X122600Y-100800D03*
X123600Y-101800D03*
X123600Y-100800D03*
X124600Y-101800D03*
X124600Y-100800D03*
X125600Y-101800D03*
X125600Y-100800D03*
X126600Y-101800D03*
X126600Y-100800D03*
X127600Y-101800D03*
X127600Y-100800D03*
X128600Y-101800D03*
X128600Y-100800D03*
G54D13*
X149570Y-112221D03*
X147400Y-112206D03*
X122693Y-86300D03*
X120400Y-86300D03*
X150950Y-95456D03*
X148000Y-88756D03*
X163920Y-81076D03*
G54D11*
X123600Y-103210D03*
G54D12*
X122600Y-103210D03*
X121600Y-103210D03*
G54D14*
X133850Y-113300D03*
X133850Y-84950D03*
G54D13*
X163940Y-83396D03*
G54D11*
X119600Y-105750D03*
G54D12*
X119600Y-104750D03*
X120600Y-105750D03*
X120600Y-104750D03*
X121600Y-105750D03*
X121600Y-104750D03*
X122600Y-105750D03*
X122600Y-104750D03*
X123600Y-105750D03*
X123600Y-104750D03*
X124600Y-105750D03*
X124600Y-104750D03*
X125600Y-105750D03*
X125600Y-104750D03*
X126600Y-105750D03*
X126600Y-104750D03*
X127600Y-105750D03*
X127600Y-104750D03*
X128600Y-105750D03*
X128600Y-104750D03*
G54D11*
X119600Y-108400D03*
G54D12*
X119600Y-107400D03*
X120600Y-108400D03*
X120600Y-107400D03*
X121600Y-108400D03*
X121600Y-107400D03*
X122600Y-108400D03*
X122600Y-107400D03*
X123600Y-108400D03*
X123600Y-107400D03*
X124600Y-108400D03*
X124600Y-107400D03*
X125600Y-108400D03*
X125600Y-107400D03*
X126600Y-108400D03*
X126600Y-107400D03*
X127600Y-108400D03*
X127600Y-107400D03*
X128600Y-108400D03*
X128600Y-107400D03*
G54D13*
X119106Y-90350D03*
X119106Y-88300D03*
G54D12*
X135250Y-108700D03*
X130250Y-108700D03*
X130250Y-107550D03*
X135250Y-107550D03*
G54D15*
X151450Y-105950D03*
X151450Y-102950D03*
G54D16*
X134950Y-109656D03*
G54D17*
X134950Y-110444D03*
G54D18*
X137800Y-86200D03*
X138800Y-86200D03*
G54D19*
X139800Y-86200D03*
G54D18*
X144050Y-112150D03*
X143050Y-112150D03*
G54D19*
X142050Y-112150D03*
G54D18*
X139700Y-112150D03*
X138700Y-112150D03*
G54D19*
X137700Y-112150D03*
G54D18*
X144550Y-86150D03*
X145550Y-86150D03*
G54D19*
X146550Y-86150D03*
G54D16*
X131900Y-88906D03*
G54D17*
X131900Y-89694D03*
G54D20*
X131800Y-93000D03*
X131800Y-95000D03*
X131800Y-97000D03*
X131800Y-101000D03*
X131800Y-103000D03*
X131800Y-105000D03*
X141800Y-105000D03*
X141800Y-103200D03*
X141800Y-101000D03*
X141800Y-99000D03*
X141800Y-97000D03*
X141800Y-95000D03*
X141800Y-93000D03*
G54D16*
X128250Y-93706D03*
G54D17*
X128250Y-94494D03*
G54D16*
X129044Y-91150D03*
G54D17*
X128256Y-91150D03*
G54D16*
X144856Y-106150D03*
G54D17*
X145644Y-106150D03*
G54D15*
X147500Y-106600D03*
X150500Y-106600D03*
X146650Y-105650D03*
X149650Y-105650D03*
G54D21*
X146800Y-102500D03*
X146800Y-99500D03*
X148350Y-102500D03*
X148350Y-99500D03*
X130500Y-109700D03*
X133500Y-109700D03*
X131650Y-110750D03*
X128650Y-110750D03*
X145150Y-102500D03*
X145150Y-99500D03*
X136250Y-107700D03*
X136250Y-110700D03*
X150050Y-102500D03*
X150050Y-99500D03*
X138450Y-110750D03*
X138450Y-107750D03*
G54D15*
X144550Y-87812D03*
X144550Y-89387D03*
X139100Y-88012D03*
X139100Y-89587D03*
G54D22*
X137250Y-107650D03*
X137250Y-110650D03*
X143650Y-90450D03*
X143650Y-87450D03*
G54D15*
X130050Y-111750D03*
X128050Y-111750D03*
X130050Y-112700D03*
X128050Y-112700D03*
X130400Y-90050D03*
X130400Y-88050D03*
X140400Y-88150D03*
X140400Y-90150D03*
X127200Y-92737D03*
X127200Y-91162D03*
G54D21*
X126400Y-91150D03*
X126400Y-94150D03*
G54D15*
X125500Y-92150D03*
X125500Y-94150D03*
X124900Y-89300D03*
X124900Y-87300D03*
X124900Y-86150D03*
X126900Y-86150D03*
X145650Y-112537D03*
X145650Y-110962D03*
X139350Y-110687D03*
X139350Y-109112D03*
X136487Y-90550D03*
X134912Y-90550D03*
X134187Y-90550D03*
X132612Y-90550D03*
G54D23*
X122020Y-110700D03*
X123279Y-110700D03*
G54D24*
X144647Y-104150D03*
X150552Y-104150D03*
X144647Y-98050D03*
X150552Y-98050D03*
G54D25*
X151479Y-109200D03*
X142620Y-109200D03*
G54D26*
X147100Y-95026D03*
G54D27*
X147100Y-92073D03*
G54D28*
X121900Y-99700D03*
X129950Y-86350D03*
X127100Y-103700D03*
X124600Y-93550D03*
X124660Y-92605D03*
X128100Y-104000D03*
X124855Y-93145D03*
X127600Y-103950D03*
X126900Y-103250D03*
X122700Y-92700D03*
X124100Y-109400D03*
X125740Y-97310D03*
X125100Y-104000D03*
X123200Y-96550D03*
X127200Y-100100D03*
X124200Y-96550D03*
X123700Y-94850D03*
X126100Y-104000D03*
X123600Y-106650D03*
X125200Y-97150D03*
X121050Y-104100D03*
X119550Y-111450D03*
X120550Y-112800D03*
X124700Y-96850D03*
X120100Y-103750D03*
X123700Y-94100D03*
X120050Y-110750D03*
X127700Y-96850D03*
X122400Y-98250D03*
X121600Y-95050D03*
X118550Y-94800D03*
X122400Y-97800D03*
X126700Y-96550D03*
X118200Y-96300D03*
X126050Y-96550D03*
X121500Y-96550D03*
X131250Y-106800D03*
X141050Y-106350D03*
X137100Y-90100D03*
X120500Y-93810D03*
X119235Y-93985D03*
X118250Y-97350D03*
X125350Y-112613D03*
X120600Y-111050D03*
X120150Y-97650D03*
X142200Y-91400D03*
X125787Y-112613D03*
X119870Y-93810D03*
X118250Y-99700D03*
X124800Y-91000D03*
X128450Y-88600D03*
X124350Y-86700D03*
X125370Y-89795D03*
X125050Y-112200D03*
X122550Y-112050D03*
X126890Y-89930D03*
X127450Y-87950D03*
X130140Y-87415D03*
X142950Y-92000D03*
X135000Y-91650D03*
X141700Y-90850D03*
X127900Y-86550D03*
X126805Y-87990D03*
X140600Y-106800D03*
X142800Y-107500D03*
X139500Y-105700D03*
X140500Y-111000D03*
X118650Y-92300D03*
X120100Y-92000D03*
X129000Y-89950D03*
X127700Y-91700D03*
G54D29*
X119600Y-107400D02*
X119600Y-108400D01*
G54D30*
X119600Y-107400D02*
X119150Y-107400D01*
X118600Y-102800D02*
X119600Y-101800D01*
X118600Y-106850D02*
X118600Y-102800D01*
X119150Y-107400D02*
X118600Y-106850D01*
G54D31*
X127100Y-103700D02*
X127100Y-103650D01*
X124600Y-93550D02*
X124300Y-93850D01*
X124300Y-94600D02*
X124300Y-93850D01*
X125050Y-95350D02*
X124300Y-94600D01*
X127250Y-95350D02*
X125050Y-95350D01*
X129750Y-97850D02*
X127250Y-95350D01*
X129750Y-102050D02*
X129750Y-97850D01*
X129080Y-102719D02*
X129750Y-102050D01*
X127680Y-102719D02*
X129080Y-102719D01*
X127250Y-103150D02*
X127680Y-102719D01*
X127250Y-103500D02*
X127250Y-103150D01*
X127100Y-103650D02*
X127250Y-103500D01*
X128100Y-103365D02*
X128385Y-103080D01*
X128385Y-103080D02*
X129250Y-103080D01*
X129250Y-103080D02*
X130130Y-102200D01*
X130130Y-102200D02*
X130130Y-97675D01*
X130130Y-97675D02*
X127200Y-94745D01*
X127200Y-94745D02*
X127200Y-93805D01*
X127200Y-93805D02*
X126615Y-93220D01*
X126615Y-93220D02*
X125755Y-93220D01*
X125755Y-93220D02*
X125140Y-92605D01*
X125140Y-92605D02*
X124660Y-92605D01*
X128100Y-104000D02*
X128100Y-103365D01*
X127600Y-103163D02*
X127863Y-102900D01*
X127863Y-102900D02*
X129160Y-102900D01*
X129160Y-102900D02*
X129940Y-102120D01*
X129940Y-102120D02*
X129940Y-97770D01*
X129940Y-97770D02*
X127330Y-95160D01*
X127330Y-95160D02*
X125240Y-95160D01*
X125240Y-95160D02*
X124670Y-94590D01*
X124670Y-94590D02*
X124670Y-94005D01*
X124670Y-94005D02*
X125060Y-93615D01*
X125060Y-93615D02*
X125060Y-93350D01*
X125060Y-93350D02*
X124855Y-93145D01*
X127600Y-103950D02*
X127600Y-103163D01*
G54D32*
X127600Y-107400D02*
X128100Y-106900D01*
X128100Y-105250D02*
X127600Y-104750D01*
X128100Y-106900D02*
X128100Y-105250D01*
G54D31*
X126900Y-103250D02*
X126900Y-103200D01*
X122700Y-92700D02*
X123500Y-92700D01*
X124100Y-93300D02*
X123500Y-92700D01*
X124100Y-94650D02*
X124100Y-93300D01*
X125000Y-95550D02*
X124100Y-94650D01*
X127200Y-95550D02*
X125000Y-95550D01*
X129550Y-97900D02*
X127200Y-95550D01*
X129550Y-102000D02*
X129550Y-97900D01*
X129000Y-102550D02*
X129550Y-102000D01*
X127550Y-102550D02*
X129000Y-102550D01*
X126900Y-103200D02*
X127550Y-102550D01*
G54D32*
X126600Y-107400D02*
X127100Y-106900D01*
X127100Y-105250D02*
X126600Y-104750D01*
X127100Y-106900D02*
X127100Y-105250D01*
G54D31*
X123600Y-103210D02*
X123600Y-103150D01*
X123100Y-101300D02*
X123600Y-100800D01*
X123100Y-102650D02*
X123100Y-101300D01*
X123600Y-103150D02*
X123100Y-102650D01*
X127600Y-101800D02*
X127600Y-101850D01*
X127600Y-101850D02*
X127000Y-102450D01*
X126650Y-102450D02*
X125550Y-103550D01*
X127000Y-102450D02*
X126650Y-102450D01*
X125550Y-103550D02*
X125100Y-104000D01*
X123200Y-96550D02*
X123200Y-99300D01*
X124100Y-101300D02*
X124600Y-101800D01*
X124100Y-100200D02*
X124100Y-101300D01*
X123200Y-99300D02*
X124100Y-100200D01*
X122100Y-100450D02*
X122100Y-101300D01*
X122750Y-95800D02*
X122750Y-96850D01*
X122750Y-96850D02*
X122850Y-96950D01*
X122850Y-96950D02*
X122850Y-99700D01*
X122850Y-99700D02*
X122100Y-100450D01*
X123700Y-94850D02*
X122750Y-95800D01*
X122100Y-101300D02*
X121600Y-101800D01*
G54D32*
X125600Y-107400D02*
X126100Y-106900D01*
X126100Y-105250D02*
X125600Y-104750D01*
X126100Y-106900D02*
X126100Y-105250D01*
X124600Y-107400D02*
X125100Y-106900D01*
X125100Y-105250D02*
X124600Y-104750D01*
X125100Y-106900D02*
X125100Y-105250D01*
X123600Y-107400D02*
X124100Y-106900D01*
X124100Y-105250D02*
X123600Y-104750D01*
X124100Y-106900D02*
X124100Y-105250D01*
X122600Y-107400D02*
X123100Y-106900D01*
X123100Y-105250D02*
X122600Y-104750D01*
X123100Y-106900D02*
X123100Y-105250D01*
X121600Y-107400D02*
X122100Y-106900D01*
X122100Y-105250D02*
X121600Y-104750D01*
X122100Y-106900D02*
X122100Y-105250D01*
X120600Y-107400D02*
X121100Y-106900D01*
X121100Y-105250D02*
X120600Y-104750D01*
X121100Y-106900D02*
X121100Y-105250D01*
G54D31*
X125200Y-97150D02*
X125200Y-98750D01*
X124200Y-104100D02*
X121050Y-104100D01*
X126100Y-102200D02*
X124200Y-104100D01*
X126100Y-99650D02*
X126100Y-102200D01*
X125200Y-98750D02*
X126100Y-99650D01*
X124700Y-96850D02*
X124700Y-99600D01*
X124050Y-103750D02*
X120100Y-103750D01*
X125100Y-102700D02*
X124050Y-103750D01*
X125100Y-100000D02*
X125100Y-102700D01*
X124700Y-99600D02*
X125100Y-100000D01*
G54D33*
X124800Y-91000D02*
X124750Y-91000D01*
X120500Y-93500D02*
X120500Y-93810D01*
X122050Y-91950D02*
X120500Y-93500D01*
X123800Y-91950D02*
X122050Y-91950D01*
X124750Y-91000D02*
X123800Y-91950D01*
X120500Y-93810D02*
X119870Y-93810D01*
X118250Y-97350D02*
X119850Y-97350D01*
X119850Y-97350D02*
X120150Y-97650D01*
G54D31*
X120150Y-97650D02*
X120150Y-95550D01*
X120150Y-95550D02*
X119870Y-95270D01*
X119870Y-95270D02*
X119870Y-93810D01*
G54D33*
X128450Y-88600D02*
X129850Y-88600D01*
X129850Y-88600D02*
X130400Y-88050D01*
X134950Y-110444D02*
X132756Y-110444D01*
X128700Y-109150D02*
X128600Y-109150D01*
X131100Y-111550D02*
X128700Y-109150D01*
X131650Y-111550D02*
X131100Y-111550D01*
X132756Y-110444D02*
X131650Y-111550D01*
X125787Y-112613D02*
X126137Y-112613D01*
X128600Y-109150D02*
X128600Y-108400D01*
X127700Y-110050D02*
X128600Y-109150D01*
X127700Y-111050D02*
X127700Y-110050D01*
X126137Y-112613D02*
X127700Y-111050D01*
X128600Y-105750D02*
X128600Y-104750D01*
X128600Y-107400D02*
X128600Y-105750D01*
X128600Y-108400D02*
X128600Y-107400D01*
G54D34*
X125500Y-89550D02*
X125500Y-89665D01*
G54D32*
X125500Y-88500D02*
X125000Y-88000D01*
X125000Y-88000D02*
X124650Y-88000D01*
X124650Y-88000D02*
X124350Y-87700D01*
X124350Y-87700D02*
X124350Y-86700D01*
X125500Y-89550D02*
X125500Y-88500D01*
G54D34*
X125500Y-89665D02*
X125370Y-89795D01*
X136487Y-90550D02*
X136487Y-90687D01*
X136487Y-90687D02*
X140600Y-94800D01*
X142350Y-97900D02*
X142400Y-97900D01*
X140600Y-94800D02*
X140600Y-97350D01*
X140600Y-97350D02*
X141150Y-97900D01*
X141150Y-97900D02*
X142350Y-97900D01*
X142400Y-97900D02*
X144575Y-100075D01*
G54D35*
X143900Y-100750D02*
X143900Y-103402D01*
X145150Y-99500D02*
X144575Y-100075D01*
X144575Y-100075D02*
X143900Y-100750D01*
X143900Y-103402D02*
X144647Y-104150D01*
G54D30*
X129650Y-87000D02*
X128350Y-87000D01*
X136550Y-87450D02*
X135950Y-88050D01*
X132300Y-88050D02*
X135950Y-88050D01*
X143650Y-87450D02*
X136550Y-87450D01*
X131250Y-87000D02*
X132300Y-88050D01*
X129650Y-87000D02*
X131250Y-87000D01*
X128350Y-87000D02*
X127900Y-86550D01*
G54D35*
X150050Y-99500D02*
X150050Y-100250D01*
X150050Y-100250D02*
X148350Y-101950D01*
X148350Y-101950D02*
X148350Y-102500D01*
X146800Y-99500D02*
X146800Y-99950D01*
X145150Y-101600D02*
X145150Y-102500D01*
X146800Y-99950D02*
X145150Y-101600D01*
G54D32*
X135250Y-107550D02*
X135250Y-107400D01*
X136550Y-106950D02*
X137250Y-107650D01*
X135700Y-106950D02*
X136550Y-106950D01*
X135250Y-107400D02*
X135700Y-106950D01*
X133500Y-109700D02*
X134906Y-109700D01*
X134906Y-109700D02*
X134950Y-109656D01*
X135250Y-108700D02*
X135250Y-109356D01*
X135250Y-109356D02*
X134950Y-109656D01*
X138450Y-110750D02*
X138450Y-110400D01*
X137706Y-109656D02*
X134950Y-109656D01*
X138450Y-110400D02*
X137706Y-109656D01*
X130500Y-109700D02*
X131700Y-109700D01*
X135850Y-108100D02*
X136250Y-107700D01*
X133300Y-108100D02*
X135850Y-108100D01*
X131700Y-109700D02*
X133300Y-108100D01*
G54D34*
X145500Y-110200D02*
X145650Y-110350D01*
X145650Y-110350D02*
X145650Y-110962D01*
X142800Y-107500D02*
X145500Y-110200D01*
X140500Y-107950D02*
X139500Y-106950D01*
X139500Y-106950D02*
X139500Y-105700D01*
X140500Y-111000D02*
X140500Y-107950D01*
M02*
