G04 (created by PCBNEW (2013-07-07 BZR 4022)-stable) date 2/2/2017 10:33:48 AM*
%MOIN*%
G04 Gerber Fmt 3.4, Leading zero omitted, Abs format*
%FSLAX34Y34*%
G01*
G70*
G90*
G04 APERTURE LIST*
%ADD10C,0.00590551*%
%ADD11C,0.00472441*%
%ADD12C,0.00629921*%
%ADD13C,0.00314961*%
%ADD14C,0.0035*%
%ADD15C,0.011811*%
%ADD16C,0.0118*%
%ADD17C,0.012*%
%ADD18C,0.005*%
%ADD19C,0.008*%
%ADD20C,0.0039*%
%ADD21C,0.0026*%
%ADD22C,0.0001*%
%ADD23C,0.006*%
%ADD24C,0.00787402*%
%ADD25C,0.01*%
%ADD26C,0.015*%
%ADD27C,0.002*%
%ADD28C,0.016*%
%ADD29C,0.007*%
%ADD30C,0.0043*%
%ADD31C,0.0047*%
%ADD32C,0.00748031*%
G04 APERTURE END LIST*
G54D10*
G54D11*
X148197Y-103859D02*
X148180Y-103876D01*
X148129Y-103893D01*
X148095Y-103893D01*
X148045Y-103876D01*
X148011Y-103842D01*
X147994Y-103809D01*
X147977Y-103741D01*
X147977Y-103690D01*
X147994Y-103623D01*
X148011Y-103589D01*
X148045Y-103555D01*
X148095Y-103539D01*
X148129Y-103539D01*
X148180Y-103555D01*
X148197Y-103572D01*
X148332Y-103572D02*
X148349Y-103555D01*
X148382Y-103539D01*
X148467Y-103539D01*
X148500Y-103555D01*
X148517Y-103572D01*
X148534Y-103606D01*
X148534Y-103640D01*
X148517Y-103690D01*
X148315Y-103893D01*
X148534Y-103893D01*
X148669Y-103572D02*
X148686Y-103555D01*
X148720Y-103539D01*
X148804Y-103539D01*
X148838Y-103555D01*
X148855Y-103572D01*
X148872Y-103606D01*
X148872Y-103640D01*
X148855Y-103690D01*
X148652Y-103893D01*
X148872Y-103893D01*
X153777Y-101509D02*
X153760Y-101526D01*
X153709Y-101543D01*
X153675Y-101543D01*
X153625Y-101526D01*
X153591Y-101492D01*
X153574Y-101459D01*
X153557Y-101391D01*
X153557Y-101340D01*
X153574Y-101273D01*
X153591Y-101239D01*
X153625Y-101205D01*
X153675Y-101189D01*
X153709Y-101189D01*
X153760Y-101205D01*
X153777Y-101222D01*
X153912Y-101222D02*
X153929Y-101205D01*
X153962Y-101189D01*
X154047Y-101189D01*
X154080Y-101205D01*
X154097Y-101222D01*
X154114Y-101256D01*
X154114Y-101290D01*
X154097Y-101340D01*
X153895Y-101543D01*
X154114Y-101543D01*
X154249Y-101222D02*
X154266Y-101205D01*
X154300Y-101189D01*
X154384Y-101189D01*
X154418Y-101205D01*
X154435Y-101222D01*
X154452Y-101256D01*
X154452Y-101290D01*
X154435Y-101340D01*
X154232Y-101543D01*
X154452Y-101543D01*
X148212Y-97729D02*
X148195Y-97746D01*
X148144Y-97763D01*
X148110Y-97763D01*
X148060Y-97746D01*
X148026Y-97712D01*
X148009Y-97679D01*
X147992Y-97611D01*
X147992Y-97560D01*
X148009Y-97493D01*
X148026Y-97459D01*
X148060Y-97425D01*
X148110Y-97409D01*
X148144Y-97409D01*
X148195Y-97425D01*
X148212Y-97442D01*
X148549Y-97763D02*
X148347Y-97763D01*
X148448Y-97763D02*
X148448Y-97409D01*
X148414Y-97459D01*
X148380Y-97493D01*
X148347Y-97510D01*
X148769Y-97409D02*
X148802Y-97409D01*
X148836Y-97425D01*
X148853Y-97442D01*
X148870Y-97476D01*
X148887Y-97544D01*
X148887Y-97628D01*
X148870Y-97695D01*
X148853Y-97729D01*
X148836Y-97746D01*
X148802Y-97763D01*
X148769Y-97763D01*
X148735Y-97746D01*
X148718Y-97729D01*
X148701Y-97695D01*
X148684Y-97628D01*
X148684Y-97544D01*
X148701Y-97476D01*
X148718Y-97442D01*
X148735Y-97425D01*
X148769Y-97409D01*
X150573Y-100781D02*
X150219Y-100781D01*
X150219Y-100697D01*
X150235Y-100646D01*
X150269Y-100612D01*
X150303Y-100595D01*
X150370Y-100579D01*
X150421Y-100579D01*
X150489Y-100595D01*
X150522Y-100612D01*
X150556Y-100646D01*
X150573Y-100697D01*
X150573Y-100781D01*
X150219Y-100460D02*
X150219Y-100241D01*
X150354Y-100359D01*
X150354Y-100309D01*
X150370Y-100275D01*
X150387Y-100258D01*
X150421Y-100241D01*
X150505Y-100241D01*
X150539Y-100258D01*
X150556Y-100275D01*
X150573Y-100309D01*
X150573Y-100410D01*
X150556Y-100444D01*
X150539Y-100460D01*
X148883Y-100781D02*
X148529Y-100781D01*
X148529Y-100697D01*
X148545Y-100646D01*
X148579Y-100612D01*
X148613Y-100595D01*
X148680Y-100579D01*
X148731Y-100579D01*
X148799Y-100595D01*
X148832Y-100612D01*
X148866Y-100646D01*
X148883Y-100697D01*
X148883Y-100781D01*
X148529Y-100258D02*
X148529Y-100427D01*
X148697Y-100444D01*
X148680Y-100427D01*
X148664Y-100393D01*
X148664Y-100309D01*
X148680Y-100275D01*
X148697Y-100258D01*
X148731Y-100241D01*
X148815Y-100241D01*
X148849Y-100258D01*
X148866Y-100275D01*
X148883Y-100309D01*
X148883Y-100393D01*
X148866Y-100427D01*
X148849Y-100444D01*
X147353Y-100781D02*
X146999Y-100781D01*
X146999Y-100697D01*
X147015Y-100646D01*
X147049Y-100612D01*
X147083Y-100595D01*
X147150Y-100579D01*
X147201Y-100579D01*
X147269Y-100595D01*
X147302Y-100612D01*
X147336Y-100646D01*
X147353Y-100697D01*
X147353Y-100781D01*
X147117Y-100275D02*
X147353Y-100275D01*
X146982Y-100359D02*
X147235Y-100444D01*
X147235Y-100224D01*
X145663Y-100751D02*
X145309Y-100751D01*
X145309Y-100667D01*
X145325Y-100616D01*
X145359Y-100582D01*
X145393Y-100565D01*
X145460Y-100549D01*
X145511Y-100549D01*
X145579Y-100565D01*
X145612Y-100582D01*
X145646Y-100616D01*
X145663Y-100667D01*
X145663Y-100751D01*
X145309Y-100245D02*
X145309Y-100312D01*
X145325Y-100346D01*
X145342Y-100363D01*
X145393Y-100397D01*
X145460Y-100414D01*
X145595Y-100414D01*
X145629Y-100397D01*
X145646Y-100380D01*
X145663Y-100346D01*
X145663Y-100279D01*
X145646Y-100245D01*
X145629Y-100228D01*
X145595Y-100211D01*
X145511Y-100211D01*
X145477Y-100228D01*
X145460Y-100245D01*
X145444Y-100279D01*
X145444Y-100346D01*
X145460Y-100380D01*
X145477Y-100397D01*
X145511Y-100414D01*
G54D12*
X120982Y-86992D02*
X121127Y-87425D01*
X121271Y-86992D01*
X121663Y-87425D02*
X121519Y-87219D01*
X121415Y-87425D02*
X121415Y-86992D01*
X121580Y-86992D01*
X121622Y-87012D01*
X121642Y-87033D01*
X121663Y-87074D01*
X121663Y-87136D01*
X121642Y-87177D01*
X121622Y-87198D01*
X121580Y-87219D01*
X121415Y-87219D01*
X121828Y-87033D02*
X121849Y-87012D01*
X121890Y-86992D01*
X121993Y-86992D01*
X122034Y-87012D01*
X122055Y-87033D01*
X122075Y-87074D01*
X122075Y-87115D01*
X122055Y-87177D01*
X121807Y-87425D01*
X122075Y-87425D01*
G54D11*
X120780Y-106836D02*
X120457Y-106836D01*
X120457Y-106746D01*
X120473Y-106724D01*
X120488Y-106713D01*
X120519Y-106701D01*
X120565Y-106701D01*
X120596Y-106713D01*
X120611Y-106724D01*
X120626Y-106746D01*
X120626Y-106836D01*
X120596Y-106566D02*
X120580Y-106589D01*
X120565Y-106600D01*
X120534Y-106611D01*
X120519Y-106611D01*
X120488Y-106600D01*
X120473Y-106589D01*
X120457Y-106566D01*
X120457Y-106521D01*
X120473Y-106499D01*
X120488Y-106488D01*
X120519Y-106476D01*
X120534Y-106476D01*
X120565Y-106488D01*
X120580Y-106499D01*
X120596Y-106521D01*
X120596Y-106566D01*
X120611Y-106589D01*
X120626Y-106600D01*
X120657Y-106611D01*
X120719Y-106611D01*
X120749Y-106600D01*
X120765Y-106589D01*
X120780Y-106566D01*
X120780Y-106521D01*
X120765Y-106499D01*
X120749Y-106488D01*
X120719Y-106476D01*
X120657Y-106476D01*
X120626Y-106488D01*
X120611Y-106499D01*
X120596Y-106521D01*
X120565Y-106274D02*
X120780Y-106274D01*
X120442Y-106330D02*
X120673Y-106386D01*
X120673Y-106240D01*
X121779Y-106836D02*
X121456Y-106836D01*
X121456Y-106746D01*
X121471Y-106724D01*
X121487Y-106713D01*
X121517Y-106701D01*
X121563Y-106701D01*
X121594Y-106713D01*
X121609Y-106724D01*
X121625Y-106746D01*
X121625Y-106836D01*
X121594Y-106566D02*
X121579Y-106589D01*
X121563Y-106600D01*
X121533Y-106611D01*
X121517Y-106611D01*
X121487Y-106600D01*
X121471Y-106589D01*
X121456Y-106566D01*
X121456Y-106521D01*
X121471Y-106499D01*
X121487Y-106488D01*
X121517Y-106476D01*
X121533Y-106476D01*
X121563Y-106488D01*
X121579Y-106499D01*
X121594Y-106521D01*
X121594Y-106566D01*
X121609Y-106589D01*
X121625Y-106600D01*
X121656Y-106611D01*
X121717Y-106611D01*
X121748Y-106600D01*
X121763Y-106589D01*
X121779Y-106566D01*
X121779Y-106521D01*
X121763Y-106499D01*
X121748Y-106488D01*
X121717Y-106476D01*
X121656Y-106476D01*
X121625Y-106488D01*
X121609Y-106499D01*
X121594Y-106521D01*
X121456Y-106398D02*
X121456Y-106251D01*
X121579Y-106330D01*
X121579Y-106296D01*
X121594Y-106274D01*
X121609Y-106263D01*
X121640Y-106251D01*
X121717Y-106251D01*
X121748Y-106263D01*
X121763Y-106274D01*
X121779Y-106296D01*
X121779Y-106364D01*
X121763Y-106386D01*
X121748Y-106398D01*
X122777Y-106836D02*
X122454Y-106836D01*
X122454Y-106746D01*
X122470Y-106724D01*
X122485Y-106713D01*
X122516Y-106701D01*
X122562Y-106701D01*
X122593Y-106713D01*
X122608Y-106724D01*
X122623Y-106746D01*
X122623Y-106836D01*
X122593Y-106566D02*
X122577Y-106589D01*
X122562Y-106600D01*
X122531Y-106611D01*
X122516Y-106611D01*
X122485Y-106600D01*
X122470Y-106589D01*
X122454Y-106566D01*
X122454Y-106521D01*
X122470Y-106499D01*
X122485Y-106488D01*
X122516Y-106476D01*
X122531Y-106476D01*
X122562Y-106488D01*
X122577Y-106499D01*
X122593Y-106521D01*
X122593Y-106566D01*
X122608Y-106589D01*
X122623Y-106600D01*
X122654Y-106611D01*
X122716Y-106611D01*
X122746Y-106600D01*
X122762Y-106589D01*
X122777Y-106566D01*
X122777Y-106521D01*
X122762Y-106499D01*
X122746Y-106488D01*
X122716Y-106476D01*
X122654Y-106476D01*
X122623Y-106488D01*
X122608Y-106499D01*
X122593Y-106521D01*
X122485Y-106386D02*
X122470Y-106375D01*
X122454Y-106353D01*
X122454Y-106296D01*
X122470Y-106274D01*
X122485Y-106263D01*
X122516Y-106251D01*
X122546Y-106251D01*
X122593Y-106263D01*
X122777Y-106398D01*
X122777Y-106251D01*
X123775Y-106836D02*
X123453Y-106836D01*
X123453Y-106746D01*
X123468Y-106724D01*
X123483Y-106713D01*
X123514Y-106701D01*
X123560Y-106701D01*
X123591Y-106713D01*
X123606Y-106724D01*
X123622Y-106746D01*
X123622Y-106836D01*
X123591Y-106566D02*
X123576Y-106589D01*
X123560Y-106600D01*
X123529Y-106611D01*
X123514Y-106611D01*
X123483Y-106600D01*
X123468Y-106589D01*
X123453Y-106566D01*
X123453Y-106521D01*
X123468Y-106499D01*
X123483Y-106488D01*
X123514Y-106476D01*
X123529Y-106476D01*
X123560Y-106488D01*
X123576Y-106499D01*
X123591Y-106521D01*
X123591Y-106566D01*
X123606Y-106589D01*
X123622Y-106600D01*
X123652Y-106611D01*
X123714Y-106611D01*
X123745Y-106600D01*
X123760Y-106589D01*
X123775Y-106566D01*
X123775Y-106521D01*
X123760Y-106499D01*
X123745Y-106488D01*
X123714Y-106476D01*
X123652Y-106476D01*
X123622Y-106488D01*
X123606Y-106499D01*
X123591Y-106521D01*
X123775Y-106251D02*
X123775Y-106386D01*
X123775Y-106319D02*
X123453Y-106319D01*
X123499Y-106341D01*
X123529Y-106364D01*
X123545Y-106386D01*
X124774Y-106836D02*
X124451Y-106836D01*
X124451Y-106746D01*
X124466Y-106724D01*
X124482Y-106713D01*
X124513Y-106701D01*
X124559Y-106701D01*
X124589Y-106713D01*
X124605Y-106724D01*
X124620Y-106746D01*
X124620Y-106836D01*
X124589Y-106566D02*
X124574Y-106589D01*
X124559Y-106600D01*
X124528Y-106611D01*
X124513Y-106611D01*
X124482Y-106600D01*
X124466Y-106589D01*
X124451Y-106566D01*
X124451Y-106521D01*
X124466Y-106499D01*
X124482Y-106488D01*
X124513Y-106476D01*
X124528Y-106476D01*
X124559Y-106488D01*
X124574Y-106499D01*
X124589Y-106521D01*
X124589Y-106566D01*
X124605Y-106589D01*
X124620Y-106600D01*
X124651Y-106611D01*
X124712Y-106611D01*
X124743Y-106600D01*
X124758Y-106589D01*
X124774Y-106566D01*
X124774Y-106521D01*
X124758Y-106499D01*
X124743Y-106488D01*
X124712Y-106476D01*
X124651Y-106476D01*
X124620Y-106488D01*
X124605Y-106499D01*
X124589Y-106521D01*
X124451Y-106330D02*
X124451Y-106308D01*
X124466Y-106285D01*
X124482Y-106274D01*
X124513Y-106263D01*
X124574Y-106251D01*
X124651Y-106251D01*
X124712Y-106263D01*
X124743Y-106274D01*
X124758Y-106285D01*
X124774Y-106308D01*
X124774Y-106330D01*
X124758Y-106353D01*
X124743Y-106364D01*
X124712Y-106375D01*
X124651Y-106386D01*
X124574Y-106386D01*
X124513Y-106375D01*
X124482Y-106364D01*
X124466Y-106353D01*
X124451Y-106330D01*
X125772Y-106836D02*
X125449Y-106836D01*
X125449Y-106746D01*
X125465Y-106724D01*
X125480Y-106713D01*
X125511Y-106701D01*
X125557Y-106701D01*
X125588Y-106713D01*
X125603Y-106724D01*
X125619Y-106746D01*
X125619Y-106836D01*
X125449Y-106623D02*
X125449Y-106465D01*
X125772Y-106566D01*
X125772Y-106364D02*
X125772Y-106319D01*
X125757Y-106296D01*
X125742Y-106285D01*
X125695Y-106263D01*
X125634Y-106251D01*
X125511Y-106251D01*
X125480Y-106263D01*
X125465Y-106274D01*
X125449Y-106296D01*
X125449Y-106341D01*
X125465Y-106364D01*
X125480Y-106375D01*
X125511Y-106386D01*
X125588Y-106386D01*
X125619Y-106375D01*
X125634Y-106364D01*
X125649Y-106341D01*
X125649Y-106296D01*
X125634Y-106274D01*
X125619Y-106263D01*
X125588Y-106251D01*
X126771Y-106836D02*
X126448Y-106836D01*
X126448Y-106746D01*
X126463Y-106724D01*
X126479Y-106713D01*
X126509Y-106701D01*
X126555Y-106701D01*
X126586Y-106713D01*
X126602Y-106724D01*
X126617Y-106746D01*
X126617Y-106836D01*
X126448Y-106623D02*
X126448Y-106465D01*
X126771Y-106566D01*
X126586Y-106341D02*
X126571Y-106364D01*
X126555Y-106375D01*
X126525Y-106386D01*
X126509Y-106386D01*
X126479Y-106375D01*
X126463Y-106364D01*
X126448Y-106341D01*
X126448Y-106296D01*
X126463Y-106274D01*
X126479Y-106263D01*
X126509Y-106251D01*
X126525Y-106251D01*
X126555Y-106263D01*
X126571Y-106274D01*
X126586Y-106296D01*
X126586Y-106341D01*
X126602Y-106364D01*
X126617Y-106375D01*
X126648Y-106386D01*
X126709Y-106386D01*
X126740Y-106375D01*
X126755Y-106364D01*
X126771Y-106341D01*
X126771Y-106296D01*
X126755Y-106274D01*
X126740Y-106263D01*
X126709Y-106251D01*
X126648Y-106251D01*
X126617Y-106263D01*
X126602Y-106274D01*
X126586Y-106296D01*
X127769Y-106836D02*
X127446Y-106836D01*
X127446Y-106746D01*
X127462Y-106724D01*
X127477Y-106713D01*
X127508Y-106701D01*
X127554Y-106701D01*
X127585Y-106713D01*
X127600Y-106724D01*
X127615Y-106746D01*
X127615Y-106836D01*
X127446Y-106499D02*
X127446Y-106544D01*
X127462Y-106566D01*
X127477Y-106578D01*
X127523Y-106600D01*
X127585Y-106611D01*
X127708Y-106611D01*
X127738Y-106600D01*
X127754Y-106589D01*
X127769Y-106566D01*
X127769Y-106521D01*
X127754Y-106499D01*
X127738Y-106488D01*
X127708Y-106476D01*
X127631Y-106476D01*
X127600Y-106488D01*
X127585Y-106499D01*
X127569Y-106521D01*
X127569Y-106566D01*
X127585Y-106589D01*
X127600Y-106600D01*
X127631Y-106611D01*
X127446Y-106274D02*
X127446Y-106319D01*
X127462Y-106341D01*
X127477Y-106353D01*
X127523Y-106375D01*
X127585Y-106386D01*
X127708Y-106386D01*
X127738Y-106375D01*
X127754Y-106364D01*
X127769Y-106341D01*
X127769Y-106296D01*
X127754Y-106274D01*
X127738Y-106263D01*
X127708Y-106251D01*
X127631Y-106251D01*
X127600Y-106263D01*
X127585Y-106274D01*
X127569Y-106296D01*
X127569Y-106341D01*
X127585Y-106364D01*
X127600Y-106375D01*
X127631Y-106386D01*
X128460Y-106729D02*
X128445Y-106752D01*
X128445Y-106786D01*
X128460Y-106819D01*
X128491Y-106842D01*
X128522Y-106853D01*
X128583Y-106864D01*
X128629Y-106864D01*
X128691Y-106853D01*
X128721Y-106842D01*
X128752Y-106819D01*
X128768Y-106786D01*
X128768Y-106763D01*
X128752Y-106729D01*
X128737Y-106718D01*
X128629Y-106718D01*
X128629Y-106763D01*
X128768Y-106617D02*
X128445Y-106617D01*
X128768Y-106482D01*
X128445Y-106482D01*
X128768Y-106370D02*
X128445Y-106370D01*
X128445Y-106313D01*
X128460Y-106280D01*
X128491Y-106257D01*
X128522Y-106246D01*
X128583Y-106235D01*
X128629Y-106235D01*
X128691Y-106246D01*
X128721Y-106257D01*
X128752Y-106280D01*
X128768Y-106313D01*
X128768Y-106370D01*
G54D13*
X105648Y-91585D02*
X105639Y-91595D01*
X105610Y-91604D01*
X105592Y-91604D01*
X105564Y-91595D01*
X105545Y-91576D01*
X105535Y-91557D01*
X105526Y-91520D01*
X105526Y-91492D01*
X105535Y-91454D01*
X105545Y-91435D01*
X105564Y-91417D01*
X105592Y-91407D01*
X105610Y-91407D01*
X105639Y-91417D01*
X105648Y-91426D01*
X105835Y-91604D02*
X105723Y-91604D01*
X105779Y-91604D02*
X105779Y-91407D01*
X105760Y-91435D01*
X105742Y-91454D01*
X105723Y-91464D01*
X105910Y-91426D02*
X105920Y-91417D01*
X105939Y-91407D01*
X105985Y-91407D01*
X106004Y-91417D01*
X106014Y-91426D01*
X106023Y-91445D01*
X106023Y-91464D01*
X106014Y-91492D01*
X105901Y-91604D01*
X106023Y-91604D01*
X105648Y-89385D02*
X105639Y-89395D01*
X105610Y-89404D01*
X105592Y-89404D01*
X105564Y-89395D01*
X105545Y-89376D01*
X105535Y-89357D01*
X105526Y-89320D01*
X105526Y-89292D01*
X105535Y-89254D01*
X105545Y-89235D01*
X105564Y-89217D01*
X105592Y-89207D01*
X105610Y-89207D01*
X105639Y-89217D01*
X105648Y-89226D01*
X105835Y-89404D02*
X105723Y-89404D01*
X105779Y-89404D02*
X105779Y-89207D01*
X105760Y-89235D01*
X105742Y-89254D01*
X105723Y-89264D01*
X106004Y-89273D02*
X106004Y-89404D01*
X105957Y-89198D02*
X105910Y-89339D01*
X106032Y-89339D01*
G54D11*
X174338Y-108693D02*
X174338Y-108339D01*
X174422Y-108339D01*
X174473Y-108355D01*
X174507Y-108389D01*
X174524Y-108423D01*
X174540Y-108490D01*
X174540Y-108541D01*
X174524Y-108609D01*
X174507Y-108642D01*
X174473Y-108676D01*
X174422Y-108693D01*
X174338Y-108693D01*
X174675Y-108372D02*
X174692Y-108355D01*
X174726Y-108339D01*
X174810Y-108339D01*
X174844Y-108355D01*
X174861Y-108372D01*
X174878Y-108406D01*
X174878Y-108440D01*
X174861Y-108490D01*
X174659Y-108693D01*
X174878Y-108693D01*
X174788Y-107143D02*
X174788Y-106789D01*
X174872Y-106789D01*
X174923Y-106805D01*
X174957Y-106839D01*
X174974Y-106873D01*
X174990Y-106940D01*
X174990Y-106991D01*
X174974Y-107059D01*
X174957Y-107092D01*
X174923Y-107126D01*
X174872Y-107143D01*
X174788Y-107143D01*
X175294Y-106907D02*
X175294Y-107143D01*
X175210Y-106772D02*
X175125Y-107025D01*
X175345Y-107025D01*
X157393Y-100661D02*
X157039Y-100661D01*
X157039Y-100577D01*
X157055Y-100526D01*
X157089Y-100492D01*
X157123Y-100475D01*
X157190Y-100459D01*
X157241Y-100459D01*
X157309Y-100475D01*
X157342Y-100492D01*
X157376Y-100526D01*
X157393Y-100577D01*
X157393Y-100661D01*
X157393Y-100121D02*
X157393Y-100324D01*
X157393Y-100222D02*
X157039Y-100222D01*
X157089Y-100256D01*
X157123Y-100290D01*
X157140Y-100324D01*
X156293Y-99811D02*
X155939Y-99811D01*
X155939Y-99727D01*
X155955Y-99676D01*
X155989Y-99642D01*
X156023Y-99625D01*
X156090Y-99609D01*
X156141Y-99609D01*
X156209Y-99625D01*
X156242Y-99642D01*
X156276Y-99676D01*
X156293Y-99727D01*
X156293Y-99811D01*
X156090Y-99406D02*
X156074Y-99440D01*
X156057Y-99457D01*
X156023Y-99474D01*
X156006Y-99474D01*
X155972Y-99457D01*
X155955Y-99440D01*
X155939Y-99406D01*
X155939Y-99339D01*
X155955Y-99305D01*
X155972Y-99288D01*
X156006Y-99271D01*
X156023Y-99271D01*
X156057Y-99288D01*
X156074Y-99305D01*
X156090Y-99339D01*
X156090Y-99406D01*
X156107Y-99440D01*
X156124Y-99457D01*
X156158Y-99474D01*
X156225Y-99474D01*
X156259Y-99457D01*
X156276Y-99440D01*
X156293Y-99406D01*
X156293Y-99339D01*
X156276Y-99305D01*
X156259Y-99288D01*
X156225Y-99271D01*
X156158Y-99271D01*
X156124Y-99288D01*
X156107Y-99305D01*
X156090Y-99339D01*
X161093Y-101561D02*
X160739Y-101561D01*
X160739Y-101477D01*
X160755Y-101426D01*
X160789Y-101392D01*
X160823Y-101375D01*
X160890Y-101359D01*
X160941Y-101359D01*
X161009Y-101375D01*
X161042Y-101392D01*
X161076Y-101426D01*
X161093Y-101477D01*
X161093Y-101561D01*
X161093Y-101190D02*
X161093Y-101122D01*
X161076Y-101089D01*
X161059Y-101072D01*
X161009Y-101038D01*
X160941Y-101021D01*
X160806Y-101021D01*
X160772Y-101038D01*
X160755Y-101055D01*
X160739Y-101089D01*
X160739Y-101156D01*
X160755Y-101190D01*
X160772Y-101207D01*
X160806Y-101224D01*
X160890Y-101224D01*
X160924Y-101207D01*
X160941Y-101190D01*
X160958Y-101156D01*
X160958Y-101089D01*
X160941Y-101055D01*
X160924Y-101038D01*
X160890Y-101021D01*
X156438Y-103043D02*
X156438Y-102689D01*
X156522Y-102689D01*
X156573Y-102705D01*
X156607Y-102739D01*
X156624Y-102773D01*
X156640Y-102840D01*
X156640Y-102891D01*
X156624Y-102959D01*
X156607Y-102992D01*
X156573Y-103026D01*
X156522Y-103043D01*
X156438Y-103043D01*
X156759Y-102689D02*
X156995Y-102689D01*
X156843Y-103043D01*
X158438Y-103993D02*
X158438Y-103639D01*
X158522Y-103639D01*
X158573Y-103655D01*
X158607Y-103689D01*
X158624Y-103723D01*
X158640Y-103790D01*
X158640Y-103841D01*
X158624Y-103909D01*
X158607Y-103942D01*
X158573Y-103976D01*
X158522Y-103993D01*
X158438Y-103993D01*
X158944Y-103639D02*
X158877Y-103639D01*
X158843Y-103655D01*
X158826Y-103672D01*
X158792Y-103723D01*
X158775Y-103790D01*
X158775Y-103925D01*
X158792Y-103959D01*
X158809Y-103976D01*
X158843Y-103993D01*
X158910Y-103993D01*
X158944Y-103976D01*
X158961Y-103959D01*
X158978Y-103925D01*
X158978Y-103841D01*
X158961Y-103807D01*
X158944Y-103790D01*
X158910Y-103774D01*
X158843Y-103774D01*
X158809Y-103790D01*
X158792Y-103807D01*
X158775Y-103841D01*
G54D12*
X162197Y-102125D02*
X162197Y-101692D01*
X162341Y-102001D01*
X162485Y-101692D01*
X162485Y-102125D01*
X162671Y-102001D02*
X162877Y-102001D01*
X162630Y-102125D02*
X162774Y-101692D01*
X162919Y-102125D01*
X163290Y-101712D02*
X163249Y-101692D01*
X163187Y-101692D01*
X163125Y-101712D01*
X163084Y-101754D01*
X163063Y-101795D01*
X163042Y-101877D01*
X163042Y-101939D01*
X163063Y-102022D01*
X163084Y-102063D01*
X163125Y-102104D01*
X163187Y-102125D01*
X163228Y-102125D01*
X163290Y-102104D01*
X163310Y-102084D01*
X163310Y-101939D01*
X163228Y-101939D01*
X163475Y-101733D02*
X163496Y-101712D01*
X163537Y-101692D01*
X163640Y-101692D01*
X163682Y-101712D01*
X163702Y-101733D01*
X163723Y-101774D01*
X163723Y-101815D01*
X163702Y-101877D01*
X163455Y-102125D01*
X163723Y-102125D01*
X147347Y-87498D02*
X147409Y-87519D01*
X147429Y-87539D01*
X147450Y-87580D01*
X147450Y-87642D01*
X147429Y-87684D01*
X147409Y-87704D01*
X147367Y-87725D01*
X147202Y-87725D01*
X147202Y-87292D01*
X147347Y-87292D01*
X147388Y-87312D01*
X147409Y-87333D01*
X147429Y-87374D01*
X147429Y-87415D01*
X147409Y-87457D01*
X147388Y-87477D01*
X147347Y-87498D01*
X147202Y-87498D01*
X147615Y-87601D02*
X147821Y-87601D01*
X147574Y-87725D02*
X147718Y-87292D01*
X147862Y-87725D01*
X147945Y-87292D02*
X148192Y-87292D01*
X148069Y-87725D02*
X148069Y-87292D01*
X148275Y-87292D02*
X148522Y-87292D01*
X148399Y-87725D02*
X148399Y-87292D01*
X148667Y-87560D02*
X148997Y-87560D01*
X165414Y-83715D02*
X165414Y-83282D01*
X165661Y-83715D02*
X165475Y-83467D01*
X165661Y-83282D02*
X165414Y-83529D01*
X165826Y-83694D02*
X165888Y-83715D01*
X165991Y-83715D01*
X166032Y-83694D01*
X166053Y-83674D01*
X166074Y-83632D01*
X166074Y-83591D01*
X166053Y-83550D01*
X166032Y-83529D01*
X165991Y-83509D01*
X165909Y-83488D01*
X165867Y-83467D01*
X165847Y-83447D01*
X165826Y-83405D01*
X165826Y-83364D01*
X165847Y-83323D01*
X165867Y-83302D01*
X165909Y-83282D01*
X166012Y-83282D01*
X166074Y-83302D01*
X166239Y-83323D02*
X166259Y-83302D01*
X166300Y-83282D01*
X166404Y-83282D01*
X166445Y-83302D01*
X166465Y-83323D01*
X166486Y-83364D01*
X166486Y-83405D01*
X166465Y-83467D01*
X166218Y-83715D01*
X166486Y-83715D01*
X165364Y-80615D02*
X165364Y-80182D01*
X165611Y-80615D02*
X165425Y-80367D01*
X165611Y-80182D02*
X165364Y-80429D01*
X165776Y-80594D02*
X165838Y-80615D01*
X165941Y-80615D01*
X165982Y-80594D01*
X166003Y-80574D01*
X166024Y-80532D01*
X166024Y-80491D01*
X166003Y-80450D01*
X165982Y-80429D01*
X165941Y-80409D01*
X165859Y-80388D01*
X165817Y-80367D01*
X165797Y-80347D01*
X165776Y-80305D01*
X165776Y-80264D01*
X165797Y-80223D01*
X165817Y-80202D01*
X165859Y-80182D01*
X165962Y-80182D01*
X166024Y-80202D01*
X166436Y-80615D02*
X166189Y-80615D01*
X166312Y-80615D02*
X166312Y-80182D01*
X166271Y-80244D01*
X166230Y-80285D01*
X166189Y-80305D01*
X147474Y-123825D02*
X147474Y-123392D01*
X147474Y-123598D02*
X147721Y-123598D01*
X147721Y-123825D02*
X147721Y-123392D01*
X147865Y-123392D02*
X148010Y-123825D01*
X148154Y-123392D01*
X148443Y-123598D02*
X148505Y-123619D01*
X148525Y-123639D01*
X148546Y-123680D01*
X148546Y-123742D01*
X148525Y-123784D01*
X148505Y-123804D01*
X148464Y-123825D01*
X148299Y-123825D01*
X148299Y-123392D01*
X148443Y-123392D01*
X148484Y-123412D01*
X148505Y-123433D01*
X148525Y-123474D01*
X148525Y-123515D01*
X148505Y-123557D01*
X148484Y-123577D01*
X148443Y-123598D01*
X148299Y-123598D01*
X157447Y-101075D02*
X157447Y-100642D01*
X157591Y-100951D01*
X157735Y-100642D01*
X157735Y-101075D01*
X157921Y-100951D02*
X158127Y-100951D01*
X157880Y-101075D02*
X158024Y-100642D01*
X158169Y-101075D01*
X158540Y-100662D02*
X158499Y-100642D01*
X158437Y-100642D01*
X158375Y-100662D01*
X158334Y-100704D01*
X158313Y-100745D01*
X158292Y-100827D01*
X158292Y-100889D01*
X158313Y-100972D01*
X158334Y-101013D01*
X158375Y-101054D01*
X158437Y-101075D01*
X158478Y-101075D01*
X158540Y-101054D01*
X158560Y-101034D01*
X158560Y-100889D01*
X158478Y-100889D01*
X158973Y-101075D02*
X158725Y-101075D01*
X158849Y-101075D02*
X158849Y-100642D01*
X158808Y-100704D01*
X158767Y-100745D01*
X158725Y-100765D01*
X154100Y-98902D02*
X153667Y-98902D01*
X153873Y-98902D02*
X153873Y-98654D01*
X154100Y-98654D02*
X153667Y-98654D01*
X153667Y-98510D02*
X154100Y-98366D01*
X153667Y-98221D01*
X153935Y-98077D02*
X153935Y-97747D01*
X146910Y-110934D02*
X146890Y-110954D01*
X146828Y-110975D01*
X146786Y-110975D01*
X146725Y-110954D01*
X146683Y-110913D01*
X146663Y-110872D01*
X146642Y-110789D01*
X146642Y-110727D01*
X146663Y-110645D01*
X146683Y-110604D01*
X146725Y-110562D01*
X146786Y-110542D01*
X146828Y-110542D01*
X146890Y-110562D01*
X146910Y-110583D01*
X147178Y-110542D02*
X147261Y-110542D01*
X147302Y-110562D01*
X147343Y-110604D01*
X147364Y-110686D01*
X147364Y-110830D01*
X147343Y-110913D01*
X147302Y-110954D01*
X147261Y-110975D01*
X147178Y-110975D01*
X147137Y-110954D01*
X147096Y-110913D01*
X147075Y-110830D01*
X147075Y-110686D01*
X147096Y-110604D01*
X147137Y-110562D01*
X147178Y-110542D01*
X147550Y-110975D02*
X147550Y-110542D01*
X147962Y-110975D02*
X147756Y-110975D01*
X147756Y-110542D01*
X148106Y-110810D02*
X148436Y-110810D01*
X149160Y-110984D02*
X149140Y-111004D01*
X149078Y-111025D01*
X149036Y-111025D01*
X148975Y-111004D01*
X148933Y-110963D01*
X148913Y-110922D01*
X148892Y-110839D01*
X148892Y-110777D01*
X148913Y-110695D01*
X148933Y-110654D01*
X148975Y-110612D01*
X149036Y-110592D01*
X149078Y-110592D01*
X149140Y-110612D01*
X149160Y-110633D01*
X149428Y-110592D02*
X149511Y-110592D01*
X149552Y-110612D01*
X149593Y-110654D01*
X149614Y-110736D01*
X149614Y-110880D01*
X149593Y-110963D01*
X149552Y-111004D01*
X149511Y-111025D01*
X149428Y-111025D01*
X149387Y-111004D01*
X149346Y-110963D01*
X149325Y-110880D01*
X149325Y-110736D01*
X149346Y-110654D01*
X149387Y-110612D01*
X149428Y-110592D01*
X149800Y-111025D02*
X149800Y-110592D01*
X150212Y-111025D02*
X150006Y-111025D01*
X150006Y-110592D01*
X150356Y-110860D02*
X150686Y-110860D01*
X150521Y-111025D02*
X150521Y-110695D01*
X119892Y-89817D02*
X120325Y-89672D01*
X119892Y-89528D01*
X120325Y-89136D02*
X120119Y-89280D01*
X120325Y-89384D02*
X119892Y-89384D01*
X119892Y-89219D01*
X119912Y-89177D01*
X119933Y-89157D01*
X119974Y-89136D01*
X120036Y-89136D01*
X120077Y-89157D01*
X120098Y-89177D01*
X120119Y-89219D01*
X120119Y-89384D01*
X120325Y-88724D02*
X120325Y-88971D01*
X120325Y-88847D02*
X119892Y-88847D01*
X119954Y-88889D01*
X119995Y-88930D01*
X120015Y-88971D01*
X195392Y-89382D02*
X195247Y-88949D01*
X195103Y-89382D01*
X194711Y-88949D02*
X194855Y-89155D01*
X194959Y-88949D02*
X194959Y-89382D01*
X194794Y-89382D01*
X194752Y-89362D01*
X194732Y-89341D01*
X194711Y-89300D01*
X194711Y-89238D01*
X194732Y-89197D01*
X194752Y-89176D01*
X194794Y-89155D01*
X194959Y-89155D01*
X194546Y-89341D02*
X194525Y-89362D01*
X194484Y-89382D01*
X194381Y-89382D01*
X194340Y-89362D01*
X194319Y-89341D01*
X194299Y-89300D01*
X194299Y-89259D01*
X194319Y-89197D01*
X194567Y-88949D01*
X194299Y-88949D01*
X151048Y-94152D02*
X151069Y-94090D01*
X151089Y-94070D01*
X151130Y-94049D01*
X151192Y-94049D01*
X151234Y-94070D01*
X151254Y-94090D01*
X151275Y-94132D01*
X151275Y-94297D01*
X150842Y-94297D01*
X150842Y-94152D01*
X150862Y-94111D01*
X150883Y-94090D01*
X150924Y-94070D01*
X150965Y-94070D01*
X151007Y-94090D01*
X151027Y-94111D01*
X151048Y-94152D01*
X151048Y-94297D01*
X151151Y-93884D02*
X151151Y-93678D01*
X151275Y-93925D02*
X150842Y-93781D01*
X151275Y-93637D01*
X150842Y-93554D02*
X150842Y-93307D01*
X151275Y-93430D02*
X150842Y-93430D01*
X150842Y-93224D02*
X150842Y-92977D01*
X151275Y-93100D02*
X150842Y-93100D01*
X151110Y-92832D02*
X151110Y-92502D01*
X151275Y-92667D02*
X150945Y-92667D01*
G54D14*
X168236Y-103864D02*
X168212Y-103888D01*
X168141Y-103912D01*
X168093Y-103912D01*
X168022Y-103888D01*
X167974Y-103840D01*
X167950Y-103793D01*
X167927Y-103698D01*
X167927Y-103626D01*
X167950Y-103531D01*
X167974Y-103483D01*
X168022Y-103436D01*
X168093Y-103412D01*
X168141Y-103412D01*
X168212Y-103436D01*
X168236Y-103460D01*
X168665Y-103579D02*
X168665Y-103912D01*
X168546Y-103388D02*
X168427Y-103745D01*
X168736Y-103745D01*
X169096Y-102519D02*
X169072Y-102543D01*
X169001Y-102567D01*
X168953Y-102567D01*
X168882Y-102543D01*
X168834Y-102495D01*
X168810Y-102448D01*
X168787Y-102353D01*
X168787Y-102281D01*
X168810Y-102186D01*
X168834Y-102138D01*
X168882Y-102091D01*
X168953Y-102067D01*
X169001Y-102067D01*
X169072Y-102091D01*
X169096Y-102115D01*
X169549Y-102067D02*
X169310Y-102067D01*
X169287Y-102305D01*
X169310Y-102281D01*
X169358Y-102257D01*
X169477Y-102257D01*
X169525Y-102281D01*
X169549Y-102305D01*
X169572Y-102353D01*
X169572Y-102472D01*
X169549Y-102519D01*
X169525Y-102543D01*
X169477Y-102567D01*
X169358Y-102567D01*
X169310Y-102543D01*
X169287Y-102519D01*
X166480Y-91302D02*
X166480Y-90802D01*
X166600Y-90802D01*
X166671Y-90826D01*
X166719Y-90873D01*
X166742Y-90921D01*
X166766Y-91016D01*
X166766Y-91088D01*
X166742Y-91183D01*
X166719Y-91230D01*
X166671Y-91278D01*
X166600Y-91302D01*
X166480Y-91302D01*
X167219Y-90802D02*
X166980Y-90802D01*
X166957Y-91040D01*
X166980Y-91016D01*
X167028Y-90992D01*
X167147Y-90992D01*
X167195Y-91016D01*
X167219Y-91040D01*
X167242Y-91088D01*
X167242Y-91207D01*
X167219Y-91254D01*
X167195Y-91278D01*
X167147Y-91302D01*
X167028Y-91302D01*
X166980Y-91278D01*
X166957Y-91254D01*
X162752Y-92030D02*
X163157Y-92030D01*
X163204Y-92007D01*
X163228Y-91983D01*
X163252Y-91935D01*
X163252Y-91840D01*
X163228Y-91792D01*
X163204Y-91769D01*
X163157Y-91745D01*
X162752Y-91745D01*
X162752Y-91554D02*
X162752Y-91245D01*
X162942Y-91411D01*
X162942Y-91340D01*
X162966Y-91292D01*
X162990Y-91269D01*
X163038Y-91245D01*
X163157Y-91245D01*
X163204Y-91269D01*
X163228Y-91292D01*
X163252Y-91340D01*
X163252Y-91483D01*
X163228Y-91530D01*
X163204Y-91554D01*
G54D11*
X120780Y-109804D02*
X120457Y-109804D01*
X120457Y-109714D01*
X120473Y-109692D01*
X120488Y-109681D01*
X120519Y-109669D01*
X120565Y-109669D01*
X120596Y-109681D01*
X120611Y-109692D01*
X120626Y-109714D01*
X120626Y-109804D01*
X120780Y-109444D02*
X120780Y-109579D01*
X120780Y-109512D02*
X120457Y-109512D01*
X120503Y-109534D01*
X120534Y-109557D01*
X120550Y-109579D01*
X120457Y-109298D02*
X120457Y-109276D01*
X120473Y-109253D01*
X120488Y-109242D01*
X120519Y-109231D01*
X120580Y-109219D01*
X120657Y-109219D01*
X120719Y-109231D01*
X120749Y-109242D01*
X120765Y-109253D01*
X120780Y-109276D01*
X120780Y-109298D01*
X120765Y-109321D01*
X120749Y-109332D01*
X120719Y-109343D01*
X120657Y-109354D01*
X120580Y-109354D01*
X120519Y-109343D01*
X120488Y-109332D01*
X120473Y-109321D01*
X120457Y-109298D01*
X120488Y-109129D02*
X120473Y-109118D01*
X120457Y-109096D01*
X120457Y-109039D01*
X120473Y-109017D01*
X120488Y-109006D01*
X120519Y-108994D01*
X120550Y-108994D01*
X120596Y-109006D01*
X120780Y-109141D01*
X120780Y-108994D01*
X121779Y-109804D02*
X121456Y-109804D01*
X121456Y-109714D01*
X121471Y-109692D01*
X121487Y-109681D01*
X121517Y-109669D01*
X121563Y-109669D01*
X121594Y-109681D01*
X121609Y-109692D01*
X121625Y-109714D01*
X121625Y-109804D01*
X121779Y-109444D02*
X121779Y-109579D01*
X121779Y-109512D02*
X121456Y-109512D01*
X121502Y-109534D01*
X121533Y-109557D01*
X121548Y-109579D01*
X121456Y-109298D02*
X121456Y-109276D01*
X121471Y-109253D01*
X121487Y-109242D01*
X121517Y-109231D01*
X121579Y-109219D01*
X121656Y-109219D01*
X121717Y-109231D01*
X121748Y-109242D01*
X121763Y-109253D01*
X121779Y-109276D01*
X121779Y-109298D01*
X121763Y-109321D01*
X121748Y-109332D01*
X121717Y-109343D01*
X121656Y-109354D01*
X121579Y-109354D01*
X121517Y-109343D01*
X121487Y-109332D01*
X121471Y-109321D01*
X121456Y-109298D01*
X121456Y-109073D02*
X121456Y-109051D01*
X121471Y-109028D01*
X121487Y-109017D01*
X121517Y-109006D01*
X121579Y-108994D01*
X121656Y-108994D01*
X121717Y-109006D01*
X121748Y-109017D01*
X121763Y-109028D01*
X121779Y-109051D01*
X121779Y-109073D01*
X121763Y-109096D01*
X121748Y-109107D01*
X121717Y-109118D01*
X121656Y-109129D01*
X121579Y-109129D01*
X121517Y-109118D01*
X121487Y-109107D01*
X121471Y-109096D01*
X121456Y-109073D01*
X122777Y-109579D02*
X122454Y-109579D01*
X122454Y-109489D01*
X122470Y-109467D01*
X122485Y-109456D01*
X122516Y-109444D01*
X122562Y-109444D01*
X122593Y-109456D01*
X122608Y-109467D01*
X122623Y-109489D01*
X122623Y-109579D01*
X122777Y-109332D02*
X122777Y-109287D01*
X122762Y-109264D01*
X122746Y-109253D01*
X122700Y-109231D01*
X122639Y-109219D01*
X122516Y-109219D01*
X122485Y-109231D01*
X122470Y-109242D01*
X122454Y-109264D01*
X122454Y-109309D01*
X122470Y-109332D01*
X122485Y-109343D01*
X122516Y-109354D01*
X122593Y-109354D01*
X122623Y-109343D01*
X122639Y-109332D01*
X122654Y-109309D01*
X122654Y-109264D01*
X122639Y-109242D01*
X122623Y-109231D01*
X122593Y-109219D01*
X122777Y-109107D02*
X122777Y-109062D01*
X122762Y-109039D01*
X122746Y-109028D01*
X122700Y-109006D01*
X122639Y-108994D01*
X122516Y-108994D01*
X122485Y-109006D01*
X122470Y-109017D01*
X122454Y-109039D01*
X122454Y-109084D01*
X122470Y-109107D01*
X122485Y-109118D01*
X122516Y-109129D01*
X122593Y-109129D01*
X122623Y-109118D01*
X122639Y-109107D01*
X122654Y-109084D01*
X122654Y-109039D01*
X122639Y-109017D01*
X122623Y-109006D01*
X122593Y-108994D01*
X123775Y-109579D02*
X123453Y-109579D01*
X123453Y-109489D01*
X123468Y-109467D01*
X123483Y-109456D01*
X123514Y-109444D01*
X123560Y-109444D01*
X123591Y-109456D01*
X123606Y-109467D01*
X123622Y-109489D01*
X123622Y-109579D01*
X123775Y-109332D02*
X123775Y-109287D01*
X123760Y-109264D01*
X123745Y-109253D01*
X123699Y-109231D01*
X123637Y-109219D01*
X123514Y-109219D01*
X123483Y-109231D01*
X123468Y-109242D01*
X123453Y-109264D01*
X123453Y-109309D01*
X123468Y-109332D01*
X123483Y-109343D01*
X123514Y-109354D01*
X123591Y-109354D01*
X123622Y-109343D01*
X123637Y-109332D01*
X123652Y-109309D01*
X123652Y-109264D01*
X123637Y-109242D01*
X123622Y-109231D01*
X123591Y-109219D01*
X123591Y-109084D02*
X123576Y-109107D01*
X123560Y-109118D01*
X123529Y-109129D01*
X123514Y-109129D01*
X123483Y-109118D01*
X123468Y-109107D01*
X123453Y-109084D01*
X123453Y-109039D01*
X123468Y-109017D01*
X123483Y-109006D01*
X123514Y-108994D01*
X123529Y-108994D01*
X123560Y-109006D01*
X123576Y-109017D01*
X123591Y-109039D01*
X123591Y-109084D01*
X123606Y-109107D01*
X123622Y-109118D01*
X123652Y-109129D01*
X123714Y-109129D01*
X123745Y-109118D01*
X123760Y-109107D01*
X123775Y-109084D01*
X123775Y-109039D01*
X123760Y-109017D01*
X123745Y-109006D01*
X123714Y-108994D01*
X123652Y-108994D01*
X123622Y-109006D01*
X123606Y-109017D01*
X123591Y-109039D01*
X124774Y-109579D02*
X124451Y-109579D01*
X124451Y-109489D01*
X124466Y-109467D01*
X124482Y-109456D01*
X124513Y-109444D01*
X124559Y-109444D01*
X124589Y-109456D01*
X124605Y-109467D01*
X124620Y-109489D01*
X124620Y-109579D01*
X124774Y-109332D02*
X124774Y-109287D01*
X124758Y-109264D01*
X124743Y-109253D01*
X124697Y-109231D01*
X124636Y-109219D01*
X124513Y-109219D01*
X124482Y-109231D01*
X124466Y-109242D01*
X124451Y-109264D01*
X124451Y-109309D01*
X124466Y-109332D01*
X124482Y-109343D01*
X124513Y-109354D01*
X124589Y-109354D01*
X124620Y-109343D01*
X124636Y-109332D01*
X124651Y-109309D01*
X124651Y-109264D01*
X124636Y-109242D01*
X124620Y-109231D01*
X124589Y-109219D01*
X124451Y-109141D02*
X124451Y-108983D01*
X124774Y-109084D01*
X125772Y-109579D02*
X125449Y-109579D01*
X125449Y-109489D01*
X125465Y-109467D01*
X125480Y-109456D01*
X125511Y-109444D01*
X125557Y-109444D01*
X125588Y-109456D01*
X125603Y-109467D01*
X125619Y-109489D01*
X125619Y-109579D01*
X125772Y-109332D02*
X125772Y-109287D01*
X125757Y-109264D01*
X125742Y-109253D01*
X125695Y-109231D01*
X125634Y-109219D01*
X125511Y-109219D01*
X125480Y-109231D01*
X125465Y-109242D01*
X125449Y-109264D01*
X125449Y-109309D01*
X125465Y-109332D01*
X125480Y-109343D01*
X125511Y-109354D01*
X125588Y-109354D01*
X125619Y-109343D01*
X125634Y-109332D01*
X125649Y-109309D01*
X125649Y-109264D01*
X125634Y-109242D01*
X125619Y-109231D01*
X125588Y-109219D01*
X125449Y-109141D02*
X125449Y-108994D01*
X125572Y-109073D01*
X125572Y-109039D01*
X125588Y-109017D01*
X125603Y-109006D01*
X125634Y-108994D01*
X125711Y-108994D01*
X125742Y-109006D01*
X125757Y-109017D01*
X125772Y-109039D01*
X125772Y-109107D01*
X125757Y-109129D01*
X125742Y-109141D01*
X126771Y-109579D02*
X126448Y-109579D01*
X126448Y-109489D01*
X126463Y-109467D01*
X126479Y-109456D01*
X126509Y-109444D01*
X126555Y-109444D01*
X126586Y-109456D01*
X126602Y-109467D01*
X126617Y-109489D01*
X126617Y-109579D01*
X126586Y-109309D02*
X126571Y-109332D01*
X126555Y-109343D01*
X126525Y-109354D01*
X126509Y-109354D01*
X126479Y-109343D01*
X126463Y-109332D01*
X126448Y-109309D01*
X126448Y-109264D01*
X126463Y-109242D01*
X126479Y-109231D01*
X126509Y-109219D01*
X126525Y-109219D01*
X126555Y-109231D01*
X126571Y-109242D01*
X126586Y-109264D01*
X126586Y-109309D01*
X126602Y-109332D01*
X126617Y-109343D01*
X126648Y-109354D01*
X126709Y-109354D01*
X126740Y-109343D01*
X126755Y-109332D01*
X126771Y-109309D01*
X126771Y-109264D01*
X126755Y-109242D01*
X126740Y-109231D01*
X126709Y-109219D01*
X126648Y-109219D01*
X126617Y-109231D01*
X126602Y-109242D01*
X126586Y-109264D01*
X126586Y-109084D02*
X126571Y-109107D01*
X126555Y-109118D01*
X126525Y-109129D01*
X126509Y-109129D01*
X126479Y-109118D01*
X126463Y-109107D01*
X126448Y-109084D01*
X126448Y-109039D01*
X126463Y-109017D01*
X126479Y-109006D01*
X126509Y-108994D01*
X126525Y-108994D01*
X126555Y-109006D01*
X126571Y-109017D01*
X126586Y-109039D01*
X126586Y-109084D01*
X126602Y-109107D01*
X126617Y-109118D01*
X126648Y-109129D01*
X126709Y-109129D01*
X126740Y-109118D01*
X126755Y-109107D01*
X126771Y-109084D01*
X126771Y-109039D01*
X126755Y-109017D01*
X126740Y-109006D01*
X126709Y-108994D01*
X126648Y-108994D01*
X126617Y-109006D01*
X126602Y-109017D01*
X126586Y-109039D01*
X127769Y-109579D02*
X127446Y-109579D01*
X127446Y-109489D01*
X127462Y-109467D01*
X127477Y-109456D01*
X127508Y-109444D01*
X127554Y-109444D01*
X127585Y-109456D01*
X127600Y-109467D01*
X127615Y-109489D01*
X127615Y-109579D01*
X127585Y-109309D02*
X127569Y-109332D01*
X127554Y-109343D01*
X127523Y-109354D01*
X127508Y-109354D01*
X127477Y-109343D01*
X127462Y-109332D01*
X127446Y-109309D01*
X127446Y-109264D01*
X127462Y-109242D01*
X127477Y-109231D01*
X127508Y-109219D01*
X127523Y-109219D01*
X127554Y-109231D01*
X127569Y-109242D01*
X127585Y-109264D01*
X127585Y-109309D01*
X127600Y-109332D01*
X127615Y-109343D01*
X127646Y-109354D01*
X127708Y-109354D01*
X127738Y-109343D01*
X127754Y-109332D01*
X127769Y-109309D01*
X127769Y-109264D01*
X127754Y-109242D01*
X127738Y-109231D01*
X127708Y-109219D01*
X127646Y-109219D01*
X127615Y-109231D01*
X127600Y-109242D01*
X127585Y-109264D01*
X127446Y-109141D02*
X127446Y-108983D01*
X127769Y-109084D01*
X128460Y-109489D02*
X128445Y-109512D01*
X128445Y-109546D01*
X128460Y-109579D01*
X128491Y-109602D01*
X128522Y-109613D01*
X128583Y-109624D01*
X128629Y-109624D01*
X128691Y-109613D01*
X128721Y-109602D01*
X128752Y-109579D01*
X128768Y-109546D01*
X128768Y-109523D01*
X128752Y-109489D01*
X128737Y-109478D01*
X128629Y-109478D01*
X128629Y-109523D01*
X128768Y-109377D02*
X128445Y-109377D01*
X128768Y-109242D01*
X128445Y-109242D01*
X128768Y-109129D02*
X128445Y-109129D01*
X128445Y-109073D01*
X128460Y-109039D01*
X128491Y-109017D01*
X128522Y-109006D01*
X128583Y-108994D01*
X128629Y-108994D01*
X128691Y-109006D01*
X128721Y-109017D01*
X128752Y-109039D01*
X128768Y-109073D01*
X128768Y-109129D01*
G54D15*
X126100Y-100400D02*
X129000Y-100400D01*
X129000Y-100400D02*
X129000Y-100800D01*
X129000Y-100800D02*
X129000Y-102050D01*
X129000Y-102050D02*
X129000Y-102200D01*
X129000Y-102200D02*
X126200Y-102200D01*
X125550Y-102200D02*
X126200Y-102200D01*
G54D16*
X126100Y-102200D02*
X119200Y-102200D01*
X119200Y-100400D02*
X126100Y-100400D01*
G54D17*
X119200Y-102200D02*
X119200Y-100400D01*
G54D18*
X121350Y-110400D02*
X121350Y-110350D01*
X121350Y-110350D02*
X119250Y-110350D01*
X119250Y-111850D02*
X121350Y-111850D01*
X121350Y-111850D02*
X121350Y-110400D01*
X121350Y-111300D02*
X121150Y-111300D01*
X121150Y-111300D02*
X121150Y-110900D01*
X121150Y-110900D02*
X121350Y-110900D01*
X119250Y-111850D02*
X119250Y-110350D01*
G54D19*
X122870Y-90450D02*
G75*
G03X122870Y-90450I-70J0D01*
G74*
G01*
G54D18*
X122700Y-91400D02*
X122800Y-91400D01*
X122800Y-91400D02*
X122800Y-90500D01*
X122800Y-90500D02*
X122700Y-90500D01*
X122700Y-91400D02*
X122700Y-90500D01*
X122700Y-90500D02*
X122050Y-90500D01*
X121350Y-91400D02*
X120700Y-91400D01*
X120700Y-91400D02*
X120700Y-90500D01*
X120700Y-90500D02*
X121350Y-90500D01*
X122050Y-91400D02*
X122700Y-91400D01*
G54D19*
X120670Y-88150D02*
G75*
G03X120670Y-88150I-70J0D01*
G74*
G01*
G54D18*
X121550Y-88250D02*
X121550Y-88150D01*
X121550Y-88150D02*
X120650Y-88150D01*
X120650Y-88150D02*
X120650Y-88250D01*
X121550Y-88250D02*
X120650Y-88250D01*
X120650Y-88250D02*
X120650Y-88900D01*
X121550Y-89600D02*
X121550Y-90250D01*
X121550Y-90250D02*
X120650Y-90250D01*
X120650Y-90250D02*
X120650Y-89600D01*
X121550Y-88900D02*
X121550Y-88250D01*
G54D20*
X121300Y-93750D02*
G75*
G03X121300Y-93750I-50J0D01*
G74*
G01*
X121700Y-93750D02*
X121300Y-93750D01*
X121300Y-93750D02*
X121300Y-93150D01*
X121300Y-93150D02*
X121700Y-93150D01*
X122100Y-93150D02*
X122500Y-93150D01*
X122500Y-93150D02*
X122500Y-93750D01*
X122500Y-93750D02*
X122100Y-93750D01*
X119949Y-96040D02*
G75*
G03X119949Y-96040I-50J0D01*
G74*
G01*
X120349Y-96040D02*
X119949Y-96040D01*
X119949Y-96040D02*
X119949Y-95440D01*
X119949Y-95440D02*
X120349Y-95440D01*
X120749Y-95440D02*
X121149Y-95440D01*
X121149Y-95440D02*
X121149Y-96040D01*
X121149Y-96040D02*
X120749Y-96040D01*
X122250Y-91550D02*
G75*
G03X122250Y-91550I-50J0D01*
G74*
G01*
X121750Y-91550D02*
X122150Y-91550D01*
X122150Y-91550D02*
X122150Y-92150D01*
X122150Y-92150D02*
X121750Y-92150D01*
X121350Y-92150D02*
X120950Y-92150D01*
X120950Y-92150D02*
X120950Y-91550D01*
X120950Y-91550D02*
X121350Y-91550D01*
X122600Y-94150D02*
G75*
G03X122600Y-94150I-50J0D01*
G74*
G01*
X122100Y-94150D02*
X122500Y-94150D01*
X122500Y-94150D02*
X122500Y-94750D01*
X122500Y-94750D02*
X122100Y-94750D01*
X121700Y-94750D02*
X121300Y-94750D01*
X121300Y-94750D02*
X121300Y-94150D01*
X121300Y-94150D02*
X121700Y-94150D01*
X119900Y-91450D02*
G75*
G03X119900Y-91450I-50J0D01*
G74*
G01*
X119400Y-91450D02*
X119800Y-91450D01*
X119800Y-91450D02*
X119800Y-92050D01*
X119800Y-92050D02*
X119400Y-92050D01*
X119000Y-92050D02*
X118600Y-92050D01*
X118600Y-92050D02*
X118600Y-91450D01*
X118600Y-91450D02*
X119000Y-91450D01*
X118514Y-96045D02*
G75*
G03X118514Y-96045I-50J0D01*
G74*
G01*
X118914Y-96045D02*
X118514Y-96045D01*
X118514Y-96045D02*
X118514Y-95445D01*
X118514Y-95445D02*
X118914Y-95445D01*
X119314Y-95445D02*
X119714Y-95445D01*
X119714Y-95445D02*
X119714Y-96045D01*
X119714Y-96045D02*
X119314Y-96045D01*
G54D21*
X119016Y-95020D02*
X119135Y-95020D01*
X119135Y-95020D02*
X119135Y-94508D01*
X119016Y-94508D02*
X119135Y-94508D01*
X119016Y-95020D02*
X119016Y-94508D01*
X119266Y-95020D02*
X119385Y-95020D01*
X119385Y-95020D02*
X119385Y-94508D01*
X119266Y-94508D02*
X119385Y-94508D01*
X119266Y-95020D02*
X119266Y-94508D01*
X119516Y-95020D02*
X119635Y-95020D01*
X119635Y-95020D02*
X119635Y-94508D01*
X119516Y-94508D02*
X119635Y-94508D01*
X119516Y-95020D02*
X119516Y-94508D01*
X119766Y-95020D02*
X119885Y-95020D01*
X119885Y-95020D02*
X119885Y-94508D01*
X119766Y-94508D02*
X119885Y-94508D01*
X119766Y-95020D02*
X119766Y-94508D01*
X120015Y-95020D02*
X120134Y-95020D01*
X120134Y-95020D02*
X120134Y-94508D01*
X120015Y-94508D02*
X120134Y-94508D01*
X120015Y-95020D02*
X120015Y-94508D01*
X120265Y-95020D02*
X120384Y-95020D01*
X120384Y-95020D02*
X120384Y-94508D01*
X120265Y-94508D02*
X120384Y-94508D01*
X120265Y-95020D02*
X120265Y-94508D01*
X120515Y-95020D02*
X120634Y-95020D01*
X120634Y-95020D02*
X120634Y-94508D01*
X120515Y-94508D02*
X120634Y-94508D01*
X120515Y-95020D02*
X120515Y-94508D01*
X120765Y-95020D02*
X120884Y-95020D01*
X120884Y-95020D02*
X120884Y-94508D01*
X120765Y-94508D02*
X120884Y-94508D01*
X120765Y-95020D02*
X120765Y-94508D01*
X120765Y-93092D02*
X120884Y-93092D01*
X120884Y-93092D02*
X120884Y-92580D01*
X120765Y-92580D02*
X120884Y-92580D01*
X120765Y-93092D02*
X120765Y-92580D01*
X120515Y-93092D02*
X120634Y-93092D01*
X120634Y-93092D02*
X120634Y-92580D01*
X120515Y-92580D02*
X120634Y-92580D01*
X120515Y-93092D02*
X120515Y-92580D01*
X120265Y-93092D02*
X120384Y-93092D01*
X120384Y-93092D02*
X120384Y-92580D01*
X120265Y-92580D02*
X120384Y-92580D01*
X120265Y-93092D02*
X120265Y-92580D01*
X120015Y-93092D02*
X120134Y-93092D01*
X120134Y-93092D02*
X120134Y-92580D01*
X120015Y-92580D02*
X120134Y-92580D01*
X120015Y-93092D02*
X120015Y-92580D01*
X119766Y-93092D02*
X119885Y-93092D01*
X119885Y-93092D02*
X119885Y-92580D01*
X119766Y-92580D02*
X119885Y-92580D01*
X119766Y-93092D02*
X119766Y-92580D01*
X119516Y-93092D02*
X119635Y-93092D01*
X119635Y-93092D02*
X119635Y-92580D01*
X119516Y-92580D02*
X119635Y-92580D01*
X119516Y-93092D02*
X119516Y-92580D01*
X119266Y-93092D02*
X119385Y-93092D01*
X119385Y-93092D02*
X119385Y-92580D01*
X119266Y-92580D02*
X119385Y-92580D01*
X119266Y-93092D02*
X119266Y-92580D01*
X119016Y-93092D02*
X119135Y-93092D01*
X119135Y-93092D02*
X119135Y-92580D01*
X119016Y-92580D02*
X119135Y-92580D01*
X119016Y-93092D02*
X119016Y-92580D01*
G54D19*
X118978Y-94528D02*
X118978Y-93072D01*
X120922Y-93072D02*
X120922Y-94528D01*
X118978Y-94528D02*
X120922Y-94528D01*
X120922Y-93072D02*
X118978Y-93072D01*
G54D22*
X119384Y-94213D02*
G75*
G03X119384Y-94213I-83J0D01*
G74*
G01*
G54D19*
X121820Y-88150D02*
G75*
G03X121820Y-88150I-70J0D01*
G74*
G01*
G54D18*
X122700Y-88250D02*
X122700Y-88150D01*
X122700Y-88150D02*
X121800Y-88150D01*
X121800Y-88150D02*
X121800Y-88250D01*
X122700Y-88250D02*
X121800Y-88250D01*
X121800Y-88250D02*
X121800Y-88900D01*
X122700Y-89600D02*
X122700Y-90250D01*
X122700Y-90250D02*
X121800Y-90250D01*
X121800Y-90250D02*
X121800Y-89600D01*
X122700Y-88900D02*
X122700Y-88250D01*
G54D20*
X121249Y-96239D02*
G75*
G03X121249Y-96239I-50J0D01*
G74*
G01*
X120749Y-96239D02*
X121149Y-96239D01*
X121149Y-96239D02*
X121149Y-96839D01*
X121149Y-96839D02*
X120749Y-96839D01*
X120349Y-96839D02*
X119949Y-96839D01*
X119949Y-96839D02*
X119949Y-96239D01*
X119949Y-96239D02*
X120349Y-96239D01*
X118525Y-96833D02*
G75*
G03X118525Y-96833I-50J0D01*
G74*
G01*
X118925Y-96833D02*
X118525Y-96833D01*
X118525Y-96833D02*
X118525Y-96233D01*
X118525Y-96233D02*
X118925Y-96233D01*
X119325Y-96233D02*
X119725Y-96233D01*
X119725Y-96233D02*
X119725Y-96833D01*
X119725Y-96833D02*
X119325Y-96833D01*
G54D23*
X124100Y-102710D02*
X124100Y-103710D01*
X124100Y-103710D02*
X121100Y-103710D01*
X121100Y-103710D02*
X121100Y-102710D01*
X121100Y-102710D02*
X124100Y-102710D01*
X123100Y-103710D02*
X123100Y-102710D01*
G54D20*
X123540Y-111440D02*
X123540Y-112970D01*
X123540Y-112970D02*
X122860Y-112970D01*
X122860Y-112970D02*
X122860Y-111420D01*
X122860Y-111420D02*
X123540Y-111420D01*
X124590Y-111440D02*
X124590Y-112970D01*
X124590Y-112970D02*
X123910Y-112970D01*
X123910Y-112970D02*
X123910Y-111420D01*
X123910Y-111420D02*
X124590Y-111420D01*
G54D21*
X127580Y-110460D02*
X127580Y-110640D01*
X127580Y-110640D02*
X127809Y-110640D01*
X127809Y-110460D02*
X127809Y-110640D01*
X127580Y-110460D02*
X127809Y-110460D01*
X126791Y-110830D02*
X126791Y-111010D01*
X126791Y-111010D02*
X127020Y-111010D01*
X127020Y-110830D02*
X127020Y-111010D01*
X126791Y-110830D02*
X127020Y-110830D01*
X126791Y-110090D02*
X126791Y-110270D01*
X126791Y-110270D02*
X127020Y-110270D01*
X127020Y-110090D02*
X127020Y-110270D01*
X126791Y-110090D02*
X127020Y-110090D01*
G54D23*
X127559Y-111109D02*
X127041Y-111109D01*
X127041Y-111109D02*
X127041Y-109991D01*
X127041Y-109991D02*
X127559Y-109991D01*
X127559Y-109991D02*
X127559Y-111109D01*
G54D15*
X126100Y-104350D02*
X129000Y-104350D01*
X129000Y-104350D02*
X129000Y-104750D01*
X129000Y-104750D02*
X129000Y-106000D01*
X129000Y-106000D02*
X129000Y-106150D01*
X129000Y-106150D02*
X126200Y-106150D01*
X125550Y-106150D02*
X126200Y-106150D01*
G54D16*
X126100Y-106150D02*
X119200Y-106150D01*
X119200Y-104350D02*
X126100Y-104350D01*
G54D17*
X119200Y-106150D02*
X119200Y-104350D01*
G54D15*
X126100Y-107000D02*
X129000Y-107000D01*
X129000Y-107000D02*
X129000Y-107400D01*
X129000Y-107400D02*
X129000Y-108650D01*
X129000Y-108650D02*
X129000Y-108800D01*
X129000Y-108800D02*
X126200Y-108800D01*
X125550Y-108800D02*
X126200Y-108800D01*
G54D16*
X126100Y-108800D02*
X119200Y-108800D01*
X119200Y-107000D02*
X126100Y-107000D01*
G54D17*
X119200Y-108800D02*
X119200Y-107000D01*
X135250Y-108700D02*
X134850Y-108700D01*
X130250Y-108700D02*
X130650Y-108700D01*
X130650Y-109200D02*
X130650Y-108200D01*
X130650Y-108200D02*
X134850Y-108200D01*
X134850Y-108200D02*
X134850Y-109200D01*
X134850Y-109200D02*
X130650Y-109200D01*
X134850Y-109000D02*
X134650Y-109200D01*
X130250Y-107550D02*
X130650Y-107550D01*
X135250Y-107550D02*
X134850Y-107550D01*
X134850Y-107050D02*
X134850Y-108050D01*
X134850Y-108050D02*
X130650Y-108050D01*
X130650Y-108050D02*
X130650Y-107050D01*
X130650Y-107050D02*
X134850Y-107050D01*
X130650Y-107250D02*
X130850Y-107050D01*
G54D24*
X151050Y-103150D02*
X151050Y-105750D01*
G54D19*
X151450Y-105950D02*
X151450Y-105750D01*
X151450Y-102950D02*
X151450Y-103150D01*
X151450Y-103150D02*
X151050Y-103150D01*
X151050Y-105750D02*
X151850Y-105750D01*
X151850Y-105750D02*
X151850Y-103150D01*
X151850Y-103150D02*
X151450Y-103150D01*
G54D25*
X135934Y-110050D02*
G75*
G03X135934Y-110050I-984J0D01*
G74*
G01*
G54D26*
X136800Y-85450D02*
X136800Y-85200D01*
X136800Y-85200D02*
X140800Y-85200D01*
X140800Y-85200D02*
X140800Y-85450D01*
X136800Y-86950D02*
X136800Y-85450D01*
X136800Y-85450D02*
X140800Y-85450D01*
X140800Y-85450D02*
X140800Y-86950D01*
X140800Y-86950D02*
X136800Y-86950D01*
X145050Y-112900D02*
X145050Y-113150D01*
X145050Y-113150D02*
X141050Y-113150D01*
X141050Y-113150D02*
X141050Y-112900D01*
X145050Y-111400D02*
X145050Y-112900D01*
X145050Y-112900D02*
X141050Y-112900D01*
X141050Y-112900D02*
X141050Y-111400D01*
X141050Y-111400D02*
X145050Y-111400D01*
X140700Y-112900D02*
X140700Y-113150D01*
X140700Y-113150D02*
X136700Y-113150D01*
X136700Y-113150D02*
X136700Y-112900D01*
X140700Y-111400D02*
X140700Y-112900D01*
X140700Y-112900D02*
X136700Y-112900D01*
X136700Y-112900D02*
X136700Y-111400D01*
X136700Y-111400D02*
X140700Y-111400D01*
X143550Y-85400D02*
X143550Y-85150D01*
X143550Y-85150D02*
X147550Y-85150D01*
X147550Y-85150D02*
X147550Y-85400D01*
X143550Y-86900D02*
X143550Y-85400D01*
X143550Y-85400D02*
X147550Y-85400D01*
X147550Y-85400D02*
X147550Y-86900D01*
X147550Y-86900D02*
X143550Y-86900D01*
G54D27*
X126376Y-110487D02*
X124824Y-110487D01*
X124824Y-110487D02*
X124824Y-109713D01*
X124824Y-109713D02*
X126376Y-109713D01*
X126376Y-109713D02*
X126376Y-110487D01*
X136713Y-89776D02*
X136713Y-88224D01*
X136713Y-88224D02*
X137487Y-88224D01*
X137487Y-88224D02*
X137487Y-89776D01*
X137487Y-89776D02*
X136713Y-89776D01*
G54D19*
X125500Y-87650D02*
X129800Y-87650D01*
X129800Y-87650D02*
X129800Y-89050D01*
X129800Y-89050D02*
X125500Y-89050D01*
X125500Y-89050D02*
X125500Y-87650D01*
X125500Y-88150D02*
X125800Y-88150D01*
X125800Y-88150D02*
X125800Y-88550D01*
X125800Y-88550D02*
X125500Y-88550D01*
G54D25*
X132884Y-89300D02*
G75*
G03X132884Y-89300I-984J0D01*
G74*
G01*
G54D27*
X125163Y-91576D02*
X125163Y-90024D01*
X125163Y-90024D02*
X125937Y-90024D01*
X125937Y-90024D02*
X125937Y-91576D01*
X125937Y-91576D02*
X125163Y-91576D01*
G54D11*
X141800Y-91000D02*
X143800Y-91000D01*
X143800Y-91000D02*
X143800Y-107000D01*
X143800Y-107000D02*
X143000Y-107000D01*
X131800Y-91000D02*
X129800Y-91000D01*
X129800Y-91000D02*
X129800Y-107000D01*
X129800Y-107000D02*
X130600Y-107000D01*
X130600Y-91000D02*
X143000Y-91000D01*
X143000Y-107000D02*
X130600Y-107000D01*
X141700Y-89050D02*
G75*
G03X141700Y-89050I-200J0D01*
G74*
G01*
G54D21*
X141254Y-90070D02*
X141447Y-90070D01*
X141447Y-90070D02*
X141447Y-89637D01*
X141254Y-89637D02*
X141447Y-89637D01*
X141254Y-90070D02*
X141254Y-89637D01*
X141754Y-90070D02*
X141947Y-90070D01*
X141947Y-90070D02*
X141947Y-89637D01*
X141754Y-89637D02*
X141947Y-89637D01*
X141754Y-90070D02*
X141754Y-89637D01*
X142253Y-90070D02*
X142446Y-90070D01*
X142446Y-90070D02*
X142446Y-89637D01*
X142253Y-89637D02*
X142446Y-89637D01*
X142253Y-90070D02*
X142253Y-89637D01*
X142753Y-90070D02*
X142946Y-90070D01*
X142946Y-90070D02*
X142946Y-89637D01*
X142753Y-89637D02*
X142946Y-89637D01*
X142753Y-90070D02*
X142753Y-89637D01*
X142753Y-88063D02*
X142946Y-88063D01*
X142946Y-88063D02*
X142946Y-87630D01*
X142753Y-87630D02*
X142946Y-87630D01*
X142753Y-88063D02*
X142753Y-87630D01*
X142253Y-88063D02*
X142446Y-88063D01*
X142446Y-88063D02*
X142446Y-87630D01*
X142253Y-87630D02*
X142446Y-87630D01*
X142253Y-88063D02*
X142253Y-87630D01*
X141754Y-88063D02*
X141947Y-88063D01*
X141947Y-88063D02*
X141947Y-87630D01*
X141754Y-87630D02*
X141947Y-87630D01*
X141754Y-88063D02*
X141754Y-87630D01*
X141254Y-88063D02*
X141447Y-88063D01*
X141447Y-88063D02*
X141447Y-87630D01*
X141254Y-87630D02*
X141447Y-87630D01*
X141254Y-88063D02*
X141254Y-87630D01*
G54D19*
X143044Y-88102D02*
X143044Y-89401D01*
X143044Y-89401D02*
X143044Y-89598D01*
X143044Y-89598D02*
X141156Y-89598D01*
X141156Y-89598D02*
X141156Y-89401D01*
X141156Y-89401D02*
X141156Y-88102D01*
X141156Y-88102D02*
X143044Y-88102D01*
G54D25*
X129234Y-94100D02*
G75*
G03X129234Y-94100I-984J0D01*
G74*
G01*
X129634Y-91150D02*
G75*
G03X129634Y-91150I-984J0D01*
G74*
G01*
G54D11*
X140450Y-109150D02*
G75*
G03X140450Y-109150I-200J0D01*
G74*
G01*
G54D21*
X140004Y-110170D02*
X140197Y-110170D01*
X140197Y-110170D02*
X140197Y-109737D01*
X140004Y-109737D02*
X140197Y-109737D01*
X140004Y-110170D02*
X140004Y-109737D01*
X140504Y-110170D02*
X140697Y-110170D01*
X140697Y-110170D02*
X140697Y-109737D01*
X140504Y-109737D02*
X140697Y-109737D01*
X140504Y-110170D02*
X140504Y-109737D01*
X141003Y-110170D02*
X141196Y-110170D01*
X141196Y-110170D02*
X141196Y-109737D01*
X141003Y-109737D02*
X141196Y-109737D01*
X141003Y-110170D02*
X141003Y-109737D01*
X141503Y-110170D02*
X141696Y-110170D01*
X141696Y-110170D02*
X141696Y-109737D01*
X141503Y-109737D02*
X141696Y-109737D01*
X141503Y-110170D02*
X141503Y-109737D01*
X141503Y-108163D02*
X141696Y-108163D01*
X141696Y-108163D02*
X141696Y-107730D01*
X141503Y-107730D02*
X141696Y-107730D01*
X141503Y-108163D02*
X141503Y-107730D01*
X141003Y-108163D02*
X141196Y-108163D01*
X141196Y-108163D02*
X141196Y-107730D01*
X141003Y-107730D02*
X141196Y-107730D01*
X141003Y-108163D02*
X141003Y-107730D01*
X140504Y-108163D02*
X140697Y-108163D01*
X140697Y-108163D02*
X140697Y-107730D01*
X140504Y-107730D02*
X140697Y-107730D01*
X140504Y-108163D02*
X140504Y-107730D01*
X140004Y-108163D02*
X140197Y-108163D01*
X140197Y-108163D02*
X140197Y-107730D01*
X140004Y-107730D02*
X140197Y-107730D01*
X140004Y-108163D02*
X140004Y-107730D01*
G54D19*
X141794Y-108202D02*
X141794Y-109501D01*
X141794Y-109501D02*
X141794Y-109698D01*
X141794Y-109698D02*
X139906Y-109698D01*
X139906Y-109698D02*
X139906Y-109501D01*
X139906Y-109501D02*
X139906Y-108202D01*
X139906Y-108202D02*
X141794Y-108202D01*
G54D27*
X128024Y-85913D02*
X129576Y-85913D01*
X129576Y-85913D02*
X129576Y-86687D01*
X129576Y-86687D02*
X128024Y-86687D01*
X128024Y-86687D02*
X128024Y-85913D01*
G54D25*
X146234Y-106150D02*
G75*
G03X146234Y-106150I-984J0D01*
G74*
G01*
G54D24*
X150300Y-106200D02*
X147700Y-106200D01*
G54D19*
X147500Y-106600D02*
X147700Y-106600D01*
X150500Y-106600D02*
X150300Y-106600D01*
X150300Y-106600D02*
X150300Y-106200D01*
X147700Y-106200D02*
X147700Y-107000D01*
X147700Y-107000D02*
X150300Y-107000D01*
X150300Y-107000D02*
X150300Y-106600D01*
G54D24*
X149450Y-105250D02*
X146850Y-105250D01*
G54D19*
X146650Y-105650D02*
X146850Y-105650D01*
X149650Y-105650D02*
X149450Y-105650D01*
X149450Y-105650D02*
X149450Y-105250D01*
X146850Y-105250D02*
X146850Y-106050D01*
X146850Y-106050D02*
X149450Y-106050D01*
X149450Y-106050D02*
X149450Y-105650D01*
G54D11*
X146800Y-101000D02*
X146800Y-100000D01*
X146800Y-101600D02*
X146800Y-101400D01*
X146800Y-101600D02*
X146800Y-102000D01*
G54D23*
X147050Y-101400D02*
X146550Y-101400D01*
X146550Y-101400D02*
X146800Y-101000D01*
X146800Y-101000D02*
X147050Y-101400D01*
X147050Y-101000D02*
X146800Y-101000D01*
X146800Y-101000D02*
X146550Y-101000D01*
G54D11*
X148350Y-101000D02*
X148350Y-100000D01*
X148350Y-101600D02*
X148350Y-101400D01*
X148350Y-101600D02*
X148350Y-102000D01*
G54D23*
X148600Y-101400D02*
X148100Y-101400D01*
X148100Y-101400D02*
X148350Y-101000D01*
X148350Y-101000D02*
X148600Y-101400D01*
X148600Y-101000D02*
X148350Y-101000D01*
X148350Y-101000D02*
X148100Y-101000D01*
G54D11*
X132000Y-109700D02*
X133000Y-109700D01*
X131400Y-109700D02*
X131600Y-109700D01*
X131400Y-109700D02*
X131000Y-109700D01*
G54D23*
X131600Y-109950D02*
X131600Y-109450D01*
X131600Y-109450D02*
X132000Y-109700D01*
X132000Y-109700D02*
X131600Y-109950D01*
X132000Y-109950D02*
X132000Y-109700D01*
X132000Y-109700D02*
X132000Y-109450D01*
G54D11*
X130150Y-110750D02*
X129150Y-110750D01*
X130750Y-110750D02*
X130550Y-110750D01*
X130750Y-110750D02*
X131150Y-110750D01*
G54D23*
X130550Y-110500D02*
X130550Y-111000D01*
X130550Y-111000D02*
X130150Y-110750D01*
X130150Y-110750D02*
X130550Y-110500D01*
X130150Y-110500D02*
X130150Y-110750D01*
X130150Y-110750D02*
X130150Y-111000D01*
G54D11*
X145150Y-101000D02*
X145150Y-100000D01*
X145150Y-101600D02*
X145150Y-101400D01*
X145150Y-101600D02*
X145150Y-102000D01*
G54D23*
X145400Y-101400D02*
X144900Y-101400D01*
X144900Y-101400D02*
X145150Y-101000D01*
X145150Y-101000D02*
X145400Y-101400D01*
X145400Y-101000D02*
X145150Y-101000D01*
X145150Y-101000D02*
X144900Y-101000D01*
G54D11*
X136250Y-109200D02*
X136250Y-110200D01*
X136250Y-108600D02*
X136250Y-108800D01*
X136250Y-108600D02*
X136250Y-108200D01*
G54D23*
X136000Y-108800D02*
X136500Y-108800D01*
X136500Y-108800D02*
X136250Y-109200D01*
X136250Y-109200D02*
X136000Y-108800D01*
X136000Y-109200D02*
X136250Y-109200D01*
X136250Y-109200D02*
X136500Y-109200D01*
G54D11*
X150050Y-101000D02*
X150050Y-100000D01*
X150050Y-101600D02*
X150050Y-101400D01*
X150050Y-101600D02*
X150050Y-102000D01*
G54D23*
X150300Y-101400D02*
X149800Y-101400D01*
X149800Y-101400D02*
X150050Y-101000D01*
X150050Y-101000D02*
X150300Y-101400D01*
X150300Y-101000D02*
X150050Y-101000D01*
X150050Y-101000D02*
X149800Y-101000D01*
G54D11*
X138450Y-109250D02*
X138450Y-108250D01*
X138450Y-109850D02*
X138450Y-109650D01*
X138450Y-109850D02*
X138450Y-110250D01*
G54D23*
X138700Y-109650D02*
X138200Y-109650D01*
X138200Y-109650D02*
X138450Y-109250D01*
X138450Y-109250D02*
X138700Y-109650D01*
X138700Y-109250D02*
X138450Y-109250D01*
X138450Y-109250D02*
X138200Y-109250D01*
G54D11*
X144400Y-88850D02*
X144350Y-88850D01*
X144350Y-88850D02*
X144350Y-88350D01*
X144350Y-88350D02*
X144400Y-88350D01*
X144550Y-88350D02*
X144550Y-88150D01*
X144550Y-88850D02*
X144750Y-88850D01*
X144750Y-88850D02*
X144750Y-88350D01*
X144750Y-88350D02*
X144400Y-88350D01*
X144400Y-88850D02*
X144550Y-88850D01*
X144550Y-89050D02*
X144550Y-88850D01*
X138950Y-89050D02*
X138900Y-89050D01*
X138900Y-89050D02*
X138900Y-88550D01*
X138900Y-88550D02*
X138950Y-88550D01*
X139100Y-88550D02*
X139100Y-88350D01*
X139100Y-89050D02*
X139300Y-89050D01*
X139300Y-89050D02*
X139300Y-88550D01*
X139300Y-88550D02*
X138950Y-88550D01*
X138950Y-89050D02*
X139100Y-89050D01*
X139100Y-89250D02*
X139100Y-89050D01*
G54D25*
X136750Y-109150D02*
X136750Y-109650D01*
X137250Y-109650D02*
X136750Y-108650D01*
X136750Y-108650D02*
X137250Y-108650D01*
X137750Y-108650D02*
X137250Y-109650D01*
X136750Y-109650D02*
X137250Y-109650D01*
X137250Y-108650D02*
X137250Y-108050D01*
X137250Y-108650D02*
X137750Y-108650D01*
X137250Y-110250D02*
X137250Y-109650D01*
X137250Y-109650D02*
X137750Y-109650D01*
X137750Y-109650D02*
X137750Y-110150D01*
X144150Y-88950D02*
X144150Y-88450D01*
X143650Y-88450D02*
X144150Y-89450D01*
X144150Y-89450D02*
X143650Y-89450D01*
X143150Y-89450D02*
X143650Y-88450D01*
X144150Y-88450D02*
X143650Y-88450D01*
X143650Y-89450D02*
X143650Y-90050D01*
X143650Y-89450D02*
X143150Y-89450D01*
X143650Y-87850D02*
X143650Y-88450D01*
X143650Y-88450D02*
X143150Y-88450D01*
X143150Y-88450D02*
X143150Y-87950D01*
G54D17*
X130450Y-112150D02*
X127650Y-112150D01*
X127650Y-112150D02*
X127650Y-111350D01*
X127650Y-111350D02*
X130450Y-111350D01*
X130450Y-111350D02*
X130450Y-112150D01*
X130450Y-111950D02*
X130250Y-112150D01*
X130450Y-113100D02*
X127650Y-113100D01*
X127650Y-113100D02*
X127650Y-112300D01*
X127650Y-112300D02*
X130450Y-112300D01*
X130450Y-112300D02*
X130450Y-113100D01*
X130450Y-112900D02*
X130250Y-113100D01*
X130000Y-90450D02*
X130000Y-87650D01*
X130000Y-87650D02*
X130800Y-87650D01*
X130800Y-87650D02*
X130800Y-90450D01*
X130800Y-90450D02*
X130000Y-90450D01*
X130200Y-90450D02*
X130000Y-90250D01*
X140800Y-87750D02*
X140800Y-90550D01*
X140800Y-90550D02*
X140000Y-90550D01*
X140000Y-90550D02*
X140000Y-87750D01*
X140000Y-87750D02*
X140800Y-87750D01*
X140600Y-87750D02*
X140800Y-87950D01*
G54D11*
X127350Y-91700D02*
X127400Y-91700D01*
X127400Y-91700D02*
X127400Y-92200D01*
X127400Y-92200D02*
X127350Y-92200D01*
X127200Y-92200D02*
X127200Y-92400D01*
X127200Y-91700D02*
X127000Y-91700D01*
X127000Y-91700D02*
X127000Y-92200D01*
X127000Y-92200D02*
X127350Y-92200D01*
X127350Y-91700D02*
X127200Y-91700D01*
X127200Y-91500D02*
X127200Y-91700D01*
X126400Y-92650D02*
X126400Y-93650D01*
X126400Y-92050D02*
X126400Y-92250D01*
X126400Y-92050D02*
X126400Y-91650D01*
G54D23*
X126150Y-92250D02*
X126650Y-92250D01*
X126650Y-92250D02*
X126400Y-92650D01*
X126400Y-92650D02*
X126150Y-92250D01*
X126150Y-92650D02*
X126400Y-92650D01*
X126400Y-92650D02*
X126650Y-92650D01*
G54D17*
X125900Y-91750D02*
X125900Y-94550D01*
X125900Y-94550D02*
X125100Y-94550D01*
X125100Y-94550D02*
X125100Y-91750D01*
X125100Y-91750D02*
X125900Y-91750D01*
X125700Y-91750D02*
X125900Y-91950D01*
X124500Y-89700D02*
X124500Y-86900D01*
X124500Y-86900D02*
X125300Y-86900D01*
X125300Y-86900D02*
X125300Y-89700D01*
X125300Y-89700D02*
X124500Y-89700D01*
X124700Y-89700D02*
X124500Y-89500D01*
X124500Y-85750D02*
X127300Y-85750D01*
X127300Y-85750D02*
X127300Y-86550D01*
X127300Y-86550D02*
X124500Y-86550D01*
X124500Y-86550D02*
X124500Y-85750D01*
X124500Y-85950D02*
X124700Y-85750D01*
G54D11*
X135450Y-90400D02*
X135450Y-90350D01*
X135450Y-90350D02*
X135950Y-90350D01*
X135950Y-90350D02*
X135950Y-90400D01*
X135950Y-90550D02*
X136150Y-90550D01*
X135450Y-90550D02*
X135450Y-90750D01*
X135450Y-90750D02*
X135950Y-90750D01*
X135950Y-90750D02*
X135950Y-90400D01*
X135450Y-90400D02*
X135450Y-90550D01*
X135250Y-90550D02*
X135450Y-90550D01*
X133150Y-90400D02*
X133150Y-90350D01*
X133150Y-90350D02*
X133650Y-90350D01*
X133650Y-90350D02*
X133650Y-90400D01*
X133650Y-90550D02*
X133850Y-90550D01*
X133150Y-90550D02*
X133150Y-90750D01*
X133150Y-90750D02*
X133650Y-90750D01*
X133650Y-90750D02*
X133650Y-90400D01*
X133150Y-90400D02*
X133150Y-90550D01*
X132950Y-90550D02*
X133150Y-90550D01*
G54D19*
X120670Y-99200D02*
G75*
G03X120670Y-99200I-70J0D01*
G74*
G01*
G54D18*
X120500Y-100150D02*
X120600Y-100150D01*
X120600Y-100150D02*
X120600Y-99250D01*
X120600Y-99250D02*
X120500Y-99250D01*
X120500Y-100150D02*
X120500Y-99250D01*
X120500Y-99250D02*
X119850Y-99250D01*
X119150Y-100150D02*
X118500Y-100150D01*
X118500Y-100150D02*
X118500Y-99250D01*
X118500Y-99250D02*
X119150Y-99250D01*
X119850Y-100150D02*
X120500Y-100150D01*
X121300Y-97100D02*
X121300Y-98800D01*
X118850Y-97100D02*
X118850Y-98800D01*
X118850Y-98800D02*
X121750Y-98800D01*
X121750Y-98800D02*
X121750Y-97100D01*
X121750Y-97100D02*
X118850Y-97100D01*
G54D11*
X123100Y-109900D02*
X123400Y-109900D01*
X123250Y-109750D02*
X123250Y-110050D01*
X121800Y-109900D02*
X122150Y-109900D01*
G54D27*
X125588Y-112408D02*
X125588Y-110462D01*
X125588Y-110462D02*
X126362Y-110462D01*
X126362Y-110462D02*
X126362Y-112408D01*
X126362Y-112408D02*
X125588Y-112408D01*
G54D11*
X150850Y-103150D02*
X150900Y-103150D01*
X150900Y-103150D02*
X150900Y-105150D01*
X150900Y-105150D02*
X150850Y-105150D01*
X150850Y-105150D02*
X144300Y-105150D01*
X144300Y-105150D02*
X144300Y-103150D01*
X144300Y-103150D02*
X150850Y-103150D01*
X145350Y-104150D02*
X145650Y-104150D01*
X145500Y-104000D02*
X145500Y-104100D01*
X145500Y-104100D02*
X145500Y-104300D01*
X144300Y-103150D02*
X150850Y-103150D01*
X150850Y-105150D02*
X144300Y-105150D01*
G54D23*
X147100Y-104150D02*
X148650Y-104150D01*
X146550Y-104150D02*
X146750Y-104150D01*
G54D28*
X146750Y-103650D02*
X146750Y-104150D01*
X146750Y-104150D02*
X146750Y-104650D01*
X147100Y-103650D02*
X147100Y-104150D01*
X147100Y-104150D02*
X147100Y-104650D01*
G54D11*
X150850Y-97050D02*
X150900Y-97050D01*
X150900Y-97050D02*
X150900Y-99050D01*
X150900Y-99050D02*
X150850Y-99050D01*
X150850Y-99050D02*
X144300Y-99050D01*
X144300Y-99050D02*
X144300Y-97050D01*
X144300Y-97050D02*
X150850Y-97050D01*
X145350Y-98050D02*
X145650Y-98050D01*
X145500Y-97900D02*
X145500Y-98000D01*
X145500Y-98000D02*
X145500Y-98200D01*
X144300Y-97050D02*
X150850Y-97050D01*
X150850Y-99050D02*
X144300Y-99050D01*
G54D23*
X147100Y-98050D02*
X148650Y-98050D01*
X146550Y-98050D02*
X146750Y-98050D01*
G54D28*
X146750Y-97550D02*
X146750Y-98050D01*
X146750Y-98050D02*
X146750Y-98550D01*
X147100Y-97550D02*
X147100Y-98050D01*
X147100Y-98050D02*
X147100Y-98550D01*
G54D11*
X141900Y-109200D02*
X141900Y-107200D01*
X141900Y-107200D02*
X152200Y-107200D01*
X152200Y-107200D02*
X152200Y-111200D01*
X152200Y-111200D02*
X141900Y-111200D01*
X141900Y-111200D02*
X141900Y-109200D01*
X141900Y-109200D02*
X141900Y-110200D01*
X152200Y-110200D02*
X152200Y-108200D01*
X141900Y-108200D02*
X141900Y-109200D01*
G54D23*
X147550Y-109200D02*
X146000Y-109200D01*
X148100Y-109200D02*
X147900Y-109200D01*
G54D28*
X147900Y-109700D02*
X147900Y-109200D01*
X147900Y-109200D02*
X147900Y-108700D01*
X147550Y-109700D02*
X147550Y-109200D01*
X147550Y-109200D02*
X147550Y-108700D01*
G54D20*
X123910Y-94515D02*
G75*
G03X123910Y-94515I-50J0D01*
G74*
G01*
X124310Y-94515D02*
X123910Y-94515D01*
X123910Y-94515D02*
X123910Y-93915D01*
X123910Y-93915D02*
X124310Y-93915D01*
X124710Y-93915D02*
X125110Y-93915D01*
X125110Y-93915D02*
X125110Y-94515D01*
X125110Y-94515D02*
X124710Y-94515D01*
X123040Y-92380D02*
G75*
G03X123040Y-92380I-50J0D01*
G74*
G01*
X123440Y-92380D02*
X123040Y-92380D01*
X123040Y-92380D02*
X123040Y-91780D01*
X123040Y-91780D02*
X123440Y-91780D01*
X123840Y-91780D02*
X124240Y-91780D01*
X124240Y-91780D02*
X124240Y-92380D01*
X124240Y-92380D02*
X123840Y-92380D01*
X123040Y-91685D02*
G75*
G03X123040Y-91685I-50J0D01*
G74*
G01*
X123440Y-91685D02*
X123040Y-91685D01*
X123040Y-91685D02*
X123040Y-91085D01*
X123040Y-91085D02*
X123440Y-91085D01*
X123840Y-91085D02*
X124240Y-91085D01*
X124240Y-91085D02*
X124240Y-91685D01*
X124240Y-91685D02*
X123840Y-91685D01*
X122770Y-92970D02*
G75*
G03X122770Y-92970I-50J0D01*
G74*
G01*
X122720Y-93420D02*
X122720Y-93020D01*
X122720Y-93020D02*
X123320Y-93020D01*
X123320Y-93020D02*
X123320Y-93420D01*
X123320Y-93820D02*
X123320Y-94220D01*
X123320Y-94220D02*
X122720Y-94220D01*
X122720Y-94220D02*
X122720Y-93820D01*
G54D11*
X150250Y-93550D02*
G75*
G03X150250Y-93550I-3150J0D01*
G74*
G01*
X133600Y-89700D02*
X133150Y-89700D01*
X133150Y-89700D02*
X133150Y-87700D01*
X133150Y-87700D02*
X133600Y-87700D01*
X135800Y-87700D02*
X136500Y-87700D01*
X136500Y-87700D02*
X136500Y-89700D01*
X136500Y-89700D02*
X135800Y-89700D01*
X133600Y-87700D02*
X135800Y-87700D01*
X135800Y-89700D02*
X133600Y-89700D01*
G54D19*
X119011Y-101595D02*
X118611Y-101595D01*
X118611Y-101442D01*
X118630Y-101404D01*
X118650Y-101385D01*
X118688Y-101366D01*
X118745Y-101366D01*
X118783Y-101385D01*
X118802Y-101404D01*
X118821Y-101442D01*
X118821Y-101595D01*
X118783Y-101138D02*
X118764Y-101176D01*
X118745Y-101195D01*
X118707Y-101214D01*
X118688Y-101214D01*
X118650Y-101195D01*
X118630Y-101176D01*
X118611Y-101138D01*
X118611Y-101061D01*
X118630Y-101023D01*
X118650Y-101004D01*
X118688Y-100985D01*
X118707Y-100985D01*
X118745Y-101004D01*
X118764Y-101023D01*
X118783Y-101061D01*
X118783Y-101138D01*
X118802Y-101176D01*
X118821Y-101195D01*
X118859Y-101214D01*
X118935Y-101214D01*
X118973Y-101195D01*
X118992Y-101176D01*
X119011Y-101138D01*
X119011Y-101061D01*
X118992Y-101023D01*
X118973Y-101004D01*
X118935Y-100985D01*
X118859Y-100985D01*
X118821Y-101004D01*
X118802Y-101023D01*
X118783Y-101061D01*
X105170Y-101698D02*
X105151Y-101717D01*
X105094Y-101736D01*
X105056Y-101736D01*
X104999Y-101717D01*
X104961Y-101679D01*
X104942Y-101641D01*
X104923Y-101565D01*
X104923Y-101508D01*
X104942Y-101432D01*
X104961Y-101394D01*
X104999Y-101355D01*
X105056Y-101336D01*
X105094Y-101336D01*
X105151Y-101355D01*
X105170Y-101375D01*
X105418Y-101336D02*
X105494Y-101336D01*
X105532Y-101355D01*
X105570Y-101394D01*
X105590Y-101470D01*
X105590Y-101603D01*
X105570Y-101679D01*
X105532Y-101717D01*
X105494Y-101736D01*
X105418Y-101736D01*
X105380Y-101717D01*
X105342Y-101679D01*
X105323Y-101603D01*
X105323Y-101470D01*
X105342Y-101394D01*
X105380Y-101355D01*
X105418Y-101336D01*
X105761Y-101736D02*
X105761Y-101336D01*
X105990Y-101736D01*
X105990Y-101336D01*
X106180Y-101736D02*
X106180Y-101336D01*
X106409Y-101736D01*
X106409Y-101336D01*
X106504Y-101775D02*
X106809Y-101775D01*
X107113Y-101736D02*
X106885Y-101736D01*
X106999Y-101736D02*
X106999Y-101336D01*
X106961Y-101394D01*
X106923Y-101432D01*
X106885Y-101451D01*
X107361Y-101336D02*
X107399Y-101336D01*
X107437Y-101355D01*
X107456Y-101375D01*
X107475Y-101413D01*
X107494Y-101489D01*
X107494Y-101584D01*
X107475Y-101660D01*
X107456Y-101698D01*
X107437Y-101717D01*
X107399Y-101736D01*
X107361Y-101736D01*
X107323Y-101717D01*
X107304Y-101698D01*
X107285Y-101660D01*
X107266Y-101584D01*
X107266Y-101489D01*
X107285Y-101413D01*
X107304Y-101375D01*
X107323Y-101355D01*
X107361Y-101336D01*
X107628Y-101336D02*
X107894Y-101736D01*
X107894Y-101336D02*
X107628Y-101736D01*
X108028Y-101375D02*
X108047Y-101355D01*
X108085Y-101336D01*
X108180Y-101336D01*
X108218Y-101355D01*
X108237Y-101375D01*
X108256Y-101413D01*
X108256Y-101451D01*
X108237Y-101508D01*
X108009Y-101736D01*
X108256Y-101736D01*
G54D23*
X118632Y-111442D02*
X118996Y-111442D01*
X119039Y-111421D01*
X119060Y-111400D01*
X119082Y-111357D01*
X119082Y-111271D01*
X119060Y-111228D01*
X119039Y-111207D01*
X118996Y-111185D01*
X118632Y-111185D01*
X118782Y-110778D02*
X119082Y-110778D01*
X118610Y-110885D02*
X118932Y-110992D01*
X118932Y-110714D01*
X113033Y-100141D02*
X113033Y-99791D01*
X113149Y-100041D01*
X113266Y-99791D01*
X113266Y-100141D01*
X113416Y-100041D02*
X113583Y-100041D01*
X113383Y-100141D02*
X113499Y-99791D01*
X113616Y-100141D01*
X113699Y-99791D02*
X113933Y-100141D01*
X113933Y-99791D02*
X113699Y-100141D01*
X114033Y-99791D02*
X114249Y-99791D01*
X114133Y-99925D01*
X114183Y-99925D01*
X114216Y-99941D01*
X114233Y-99958D01*
X114249Y-99991D01*
X114249Y-100075D01*
X114233Y-100108D01*
X114216Y-100125D01*
X114183Y-100141D01*
X114083Y-100141D01*
X114049Y-100125D01*
X114033Y-100108D01*
X114583Y-100141D02*
X114383Y-100141D01*
X114483Y-100141D02*
X114483Y-99791D01*
X114450Y-99841D01*
X114416Y-99875D01*
X114383Y-99891D01*
X114783Y-99941D02*
X114750Y-99925D01*
X114733Y-99908D01*
X114716Y-99875D01*
X114716Y-99858D01*
X114733Y-99825D01*
X114750Y-99808D01*
X114783Y-99791D01*
X114850Y-99791D01*
X114883Y-99808D01*
X114900Y-99825D01*
X114916Y-99858D01*
X114916Y-99875D01*
X114900Y-99908D01*
X114883Y-99925D01*
X114850Y-99941D01*
X114783Y-99941D01*
X114750Y-99958D01*
X114733Y-99975D01*
X114716Y-100008D01*
X114716Y-100075D01*
X114733Y-100108D01*
X114750Y-100125D01*
X114783Y-100141D01*
X114850Y-100141D01*
X114883Y-100125D01*
X114900Y-100108D01*
X114916Y-100075D01*
X114916Y-100008D01*
X114900Y-99975D01*
X114883Y-99958D01*
X114850Y-99941D01*
X115233Y-99791D02*
X115066Y-99791D01*
X115050Y-99958D01*
X115066Y-99941D01*
X115100Y-99925D01*
X115183Y-99925D01*
X115216Y-99941D01*
X115233Y-99958D01*
X115250Y-99991D01*
X115250Y-100075D01*
X115233Y-100108D01*
X115216Y-100125D01*
X115183Y-100141D01*
X115100Y-100141D01*
X115066Y-100125D01*
X115050Y-100108D01*
X115566Y-99791D02*
X115400Y-99791D01*
X115383Y-99958D01*
X115400Y-99941D01*
X115433Y-99925D01*
X115516Y-99925D01*
X115550Y-99941D01*
X115566Y-99958D01*
X115583Y-99991D01*
X115583Y-100075D01*
X115566Y-100108D01*
X115550Y-100125D01*
X115516Y-100141D01*
X115433Y-100141D01*
X115400Y-100125D01*
X115383Y-100108D01*
G54D29*
X121829Y-91130D02*
X121677Y-91223D01*
X121829Y-91290D02*
X121509Y-91290D01*
X121509Y-91183D01*
X121524Y-91156D01*
X121540Y-91143D01*
X121570Y-91130D01*
X121616Y-91130D01*
X121646Y-91143D01*
X121661Y-91156D01*
X121677Y-91183D01*
X121677Y-91290D01*
X121540Y-91023D02*
X121524Y-91010D01*
X121509Y-90983D01*
X121509Y-90916D01*
X121524Y-90890D01*
X121540Y-90876D01*
X121570Y-90863D01*
X121600Y-90863D01*
X121646Y-90876D01*
X121829Y-91036D01*
X121829Y-90863D01*
X121509Y-90623D02*
X121509Y-90676D01*
X121524Y-90703D01*
X121540Y-90716D01*
X121585Y-90743D01*
X121646Y-90756D01*
X121768Y-90756D01*
X121799Y-90743D01*
X121814Y-90730D01*
X121829Y-90703D01*
X121829Y-90650D01*
X121814Y-90623D01*
X121799Y-90610D01*
X121768Y-90596D01*
X121692Y-90596D01*
X121661Y-90610D01*
X121646Y-90623D01*
X121631Y-90650D01*
X121631Y-90703D01*
X121646Y-90730D01*
X121661Y-90743D01*
X121692Y-90756D01*
G54D19*
G54D29*
X120920Y-89379D02*
X120826Y-89227D01*
X120760Y-89379D02*
X120760Y-89059D01*
X120866Y-89059D01*
X120893Y-89074D01*
X120906Y-89090D01*
X120920Y-89120D01*
X120920Y-89166D01*
X120906Y-89196D01*
X120893Y-89211D01*
X120866Y-89227D01*
X120760Y-89227D01*
X121186Y-89379D02*
X121026Y-89379D01*
X121106Y-89379D02*
X121106Y-89059D01*
X121080Y-89105D01*
X121053Y-89135D01*
X121026Y-89150D01*
X121293Y-89090D02*
X121306Y-89074D01*
X121333Y-89059D01*
X121400Y-89059D01*
X121426Y-89074D01*
X121440Y-89090D01*
X121453Y-89120D01*
X121453Y-89150D01*
X121440Y-89196D01*
X121280Y-89379D01*
X121453Y-89379D01*
G54D19*
G54D30*
X121788Y-92940D02*
X121778Y-92950D01*
X121750Y-92959D01*
X121732Y-92959D01*
X121703Y-92950D01*
X121685Y-92931D01*
X121675Y-92912D01*
X121666Y-92875D01*
X121666Y-92847D01*
X121675Y-92809D01*
X121685Y-92790D01*
X121703Y-92772D01*
X121732Y-92762D01*
X121750Y-92762D01*
X121778Y-92772D01*
X121788Y-92781D01*
X121975Y-92959D02*
X121863Y-92959D01*
X121919Y-92959D02*
X121919Y-92762D01*
X121900Y-92790D01*
X121882Y-92809D01*
X121863Y-92819D01*
X122041Y-92762D02*
X122172Y-92762D01*
X122088Y-92959D01*
X124007Y-74252D02*
X124026Y-74252D01*
X124044Y-74262D01*
X124054Y-74271D01*
X124063Y-74290D01*
X124073Y-74327D01*
X124073Y-74374D01*
X124063Y-74412D01*
X124054Y-74430D01*
X124044Y-74440D01*
X124026Y-74449D01*
X124007Y-74449D01*
X123988Y-74440D01*
X123979Y-74430D01*
X123969Y-74412D01*
X123960Y-74374D01*
X123960Y-74327D01*
X123969Y-74290D01*
X123979Y-74271D01*
X123988Y-74262D01*
X124007Y-74252D01*
X124157Y-74430D02*
X124166Y-74440D01*
X124157Y-74449D01*
X124148Y-74440D01*
X124157Y-74430D01*
X124157Y-74449D01*
X124354Y-74449D02*
X124241Y-74449D01*
X124298Y-74449D02*
X124298Y-74252D01*
X124279Y-74280D01*
X124260Y-74299D01*
X124241Y-74309D01*
X124523Y-74318D02*
X124523Y-74449D01*
X124438Y-74318D02*
X124438Y-74421D01*
X124448Y-74440D01*
X124467Y-74449D01*
X124495Y-74449D01*
X124513Y-74440D01*
X124523Y-74430D01*
X124682Y-74346D02*
X124617Y-74346D01*
X124617Y-74449D02*
X124617Y-74252D01*
X124710Y-74252D01*
X121406Y-95877D02*
X121312Y-95943D01*
X121406Y-95990D02*
X121209Y-95990D01*
X121209Y-95915D01*
X121219Y-95896D01*
X121228Y-95887D01*
X121247Y-95877D01*
X121275Y-95877D01*
X121294Y-95887D01*
X121303Y-95896D01*
X121312Y-95915D01*
X121312Y-95990D01*
X121228Y-95802D02*
X121219Y-95793D01*
X121209Y-95774D01*
X121209Y-95727D01*
X121219Y-95708D01*
X121228Y-95699D01*
X121247Y-95690D01*
X121266Y-95690D01*
X121294Y-95699D01*
X121406Y-95811D01*
X121406Y-95690D01*
X121294Y-95577D02*
X121284Y-95596D01*
X121275Y-95605D01*
X121256Y-95614D01*
X121247Y-95614D01*
X121228Y-95605D01*
X121219Y-95596D01*
X121209Y-95577D01*
X121209Y-95539D01*
X121219Y-95521D01*
X121228Y-95511D01*
X121247Y-95502D01*
X121256Y-95502D01*
X121275Y-95511D01*
X121284Y-95521D01*
X121294Y-95539D01*
X121294Y-95577D01*
X121303Y-95596D01*
X121312Y-95605D01*
X121331Y-95614D01*
X121369Y-95614D01*
X121387Y-95605D01*
X121397Y-95596D01*
X121406Y-95577D01*
X121406Y-95539D01*
X121397Y-95521D01*
X121387Y-95511D01*
X121369Y-95502D01*
X121331Y-95502D01*
X121312Y-95511D01*
X121303Y-95521D01*
X121294Y-95539D01*
X125082Y-73429D02*
X124970Y-73429D01*
X125026Y-73429D02*
X125026Y-73232D01*
X125007Y-73260D01*
X124988Y-73279D01*
X124970Y-73289D01*
X125204Y-73232D02*
X125223Y-73232D01*
X125242Y-73242D01*
X125251Y-73251D01*
X125260Y-73270D01*
X125270Y-73307D01*
X125270Y-73354D01*
X125260Y-73392D01*
X125251Y-73410D01*
X125242Y-73420D01*
X125223Y-73429D01*
X125204Y-73429D01*
X125185Y-73420D01*
X125176Y-73410D01*
X125167Y-73392D01*
X125157Y-73354D01*
X125157Y-73307D01*
X125167Y-73270D01*
X125176Y-73251D01*
X125185Y-73242D01*
X125204Y-73232D01*
X125354Y-73429D02*
X125354Y-73232D01*
X125373Y-73354D02*
X125429Y-73429D01*
X125429Y-73298D02*
X125354Y-73373D01*
X121593Y-91998D02*
X121603Y-92008D01*
X121612Y-92036D01*
X121612Y-92054D01*
X121603Y-92083D01*
X121584Y-92101D01*
X121565Y-92111D01*
X121528Y-92120D01*
X121500Y-92120D01*
X121462Y-92111D01*
X121443Y-92101D01*
X121425Y-92083D01*
X121415Y-92054D01*
X121415Y-92036D01*
X121425Y-92008D01*
X121434Y-91998D01*
X121612Y-91811D02*
X121612Y-91923D01*
X121612Y-91867D02*
X121415Y-91867D01*
X121443Y-91886D01*
X121462Y-91904D01*
X121472Y-91923D01*
X121415Y-91632D02*
X121415Y-91726D01*
X121509Y-91735D01*
X121500Y-91726D01*
X121490Y-91707D01*
X121490Y-91660D01*
X121500Y-91642D01*
X121509Y-91632D01*
X121528Y-91623D01*
X121575Y-91623D01*
X121593Y-91632D01*
X121603Y-91642D01*
X121612Y-91660D01*
X121612Y-91707D01*
X121603Y-91726D01*
X121593Y-91735D01*
X124147Y-74824D02*
X124034Y-74824D01*
X124091Y-74824D02*
X124091Y-74627D01*
X124072Y-74655D01*
X124053Y-74674D01*
X124034Y-74684D01*
X124269Y-74627D02*
X124288Y-74627D01*
X124306Y-74637D01*
X124316Y-74646D01*
X124325Y-74665D01*
X124334Y-74702D01*
X124334Y-74749D01*
X124325Y-74787D01*
X124316Y-74805D01*
X124306Y-74815D01*
X124288Y-74824D01*
X124269Y-74824D01*
X124250Y-74815D01*
X124241Y-74805D01*
X124231Y-74787D01*
X124222Y-74749D01*
X124222Y-74702D01*
X124231Y-74665D01*
X124241Y-74646D01*
X124250Y-74637D01*
X124269Y-74627D01*
X124456Y-74627D02*
X124475Y-74627D01*
X124494Y-74637D01*
X124503Y-74646D01*
X124513Y-74665D01*
X124522Y-74702D01*
X124522Y-74749D01*
X124513Y-74787D01*
X124503Y-74805D01*
X124494Y-74815D01*
X124475Y-74824D01*
X124456Y-74824D01*
X124438Y-74815D01*
X124428Y-74805D01*
X124419Y-74787D01*
X124409Y-74749D01*
X124409Y-74702D01*
X124419Y-74665D01*
X124428Y-74646D01*
X124438Y-74637D01*
X124456Y-74627D01*
X124644Y-74627D02*
X124663Y-74627D01*
X124682Y-74637D01*
X124691Y-74646D01*
X124700Y-74665D01*
X124710Y-74702D01*
X124710Y-74749D01*
X124700Y-74787D01*
X124691Y-74805D01*
X124682Y-74815D01*
X124663Y-74824D01*
X124644Y-74824D01*
X124625Y-74815D01*
X124616Y-74805D01*
X124606Y-74787D01*
X124597Y-74749D01*
X124597Y-74702D01*
X124606Y-74665D01*
X124616Y-74646D01*
X124625Y-74637D01*
X124644Y-74627D01*
X124794Y-74693D02*
X124794Y-74890D01*
X124794Y-74702D02*
X124813Y-74693D01*
X124850Y-74693D01*
X124869Y-74702D01*
X124879Y-74712D01*
X124888Y-74730D01*
X124888Y-74787D01*
X124879Y-74805D01*
X124869Y-74815D01*
X124850Y-74824D01*
X124813Y-74824D01*
X124794Y-74815D01*
X125038Y-74721D02*
X124972Y-74721D01*
X124972Y-74824D02*
X124972Y-74627D01*
X125066Y-74627D01*
X121768Y-95010D02*
X121758Y-95020D01*
X121730Y-95029D01*
X121712Y-95029D01*
X121683Y-95020D01*
X121665Y-95001D01*
X121655Y-94982D01*
X121646Y-94945D01*
X121646Y-94917D01*
X121655Y-94879D01*
X121665Y-94860D01*
X121683Y-94842D01*
X121712Y-94832D01*
X121730Y-94832D01*
X121758Y-94842D01*
X121768Y-94851D01*
X121955Y-95029D02*
X121843Y-95029D01*
X121899Y-95029D02*
X121899Y-94832D01*
X121880Y-94860D01*
X121862Y-94879D01*
X121843Y-94889D01*
X122124Y-94832D02*
X122087Y-94832D01*
X122068Y-94842D01*
X122059Y-94851D01*
X122040Y-94879D01*
X122031Y-94917D01*
X122031Y-94992D01*
X122040Y-95010D01*
X122049Y-95020D01*
X122068Y-95029D01*
X122106Y-95029D01*
X122124Y-95020D01*
X122134Y-95010D01*
X122143Y-94992D01*
X122143Y-94945D01*
X122134Y-94926D01*
X122124Y-94917D01*
X122106Y-94907D01*
X122068Y-94907D01*
X122049Y-94917D01*
X122040Y-94926D01*
X122031Y-94945D01*
X123434Y-71944D02*
X123322Y-71944D01*
X123378Y-71944D02*
X123378Y-71747D01*
X123359Y-71775D01*
X123341Y-71794D01*
X123322Y-71804D01*
X123556Y-71747D02*
X123575Y-71747D01*
X123594Y-71757D01*
X123603Y-71766D01*
X123613Y-71785D01*
X123622Y-71822D01*
X123622Y-71869D01*
X123613Y-71907D01*
X123603Y-71925D01*
X123594Y-71935D01*
X123575Y-71944D01*
X123556Y-71944D01*
X123538Y-71935D01*
X123528Y-71925D01*
X123519Y-71907D01*
X123509Y-71869D01*
X123509Y-71822D01*
X123519Y-71785D01*
X123528Y-71766D01*
X123538Y-71757D01*
X123556Y-71747D01*
X123791Y-71813D02*
X123791Y-71944D01*
X123706Y-71813D02*
X123706Y-71916D01*
X123716Y-71935D01*
X123735Y-71944D01*
X123763Y-71944D01*
X123782Y-71935D01*
X123791Y-71925D01*
X123950Y-71841D02*
X123885Y-71841D01*
X123885Y-71944D02*
X123885Y-71747D01*
X123979Y-71747D01*
X119239Y-91804D02*
X119249Y-91814D01*
X119258Y-91842D01*
X119258Y-91861D01*
X119249Y-91889D01*
X119230Y-91908D01*
X119211Y-91917D01*
X119174Y-91926D01*
X119146Y-91926D01*
X119108Y-91917D01*
X119089Y-91908D01*
X119071Y-91889D01*
X119061Y-91861D01*
X119061Y-91842D01*
X119071Y-91814D01*
X119080Y-91804D01*
X119258Y-91711D02*
X119258Y-91673D01*
X119249Y-91654D01*
X119239Y-91645D01*
X119211Y-91626D01*
X119174Y-91617D01*
X119099Y-91617D01*
X119080Y-91626D01*
X119071Y-91635D01*
X119061Y-91654D01*
X119061Y-91692D01*
X119071Y-91711D01*
X119080Y-91720D01*
X119099Y-91729D01*
X119146Y-91729D01*
X119164Y-91720D01*
X119174Y-91711D01*
X119183Y-91692D01*
X119183Y-91654D01*
X119174Y-91635D01*
X119164Y-91626D01*
X119146Y-91617D01*
X125676Y-73754D02*
X125563Y-73754D01*
X125620Y-73754D02*
X125620Y-73557D01*
X125601Y-73585D01*
X125582Y-73604D01*
X125563Y-73614D01*
X125798Y-73557D02*
X125817Y-73557D01*
X125835Y-73567D01*
X125845Y-73576D01*
X125854Y-73595D01*
X125863Y-73632D01*
X125863Y-73679D01*
X125854Y-73717D01*
X125845Y-73735D01*
X125835Y-73745D01*
X125817Y-73754D01*
X125798Y-73754D01*
X125779Y-73745D01*
X125770Y-73735D01*
X125760Y-73717D01*
X125751Y-73679D01*
X125751Y-73632D01*
X125760Y-73595D01*
X125770Y-73576D01*
X125779Y-73567D01*
X125798Y-73557D01*
X125985Y-73557D02*
X126004Y-73557D01*
X126023Y-73567D01*
X126032Y-73576D01*
X126042Y-73595D01*
X126051Y-73632D01*
X126051Y-73679D01*
X126042Y-73717D01*
X126032Y-73735D01*
X126023Y-73745D01*
X126004Y-73754D01*
X125985Y-73754D01*
X125967Y-73745D01*
X125957Y-73735D01*
X125948Y-73717D01*
X125938Y-73679D01*
X125938Y-73632D01*
X125948Y-73595D01*
X125957Y-73576D01*
X125967Y-73567D01*
X125985Y-73557D01*
X126173Y-73557D02*
X126192Y-73557D01*
X126211Y-73567D01*
X126220Y-73576D01*
X126229Y-73595D01*
X126239Y-73632D01*
X126239Y-73679D01*
X126229Y-73717D01*
X126220Y-73735D01*
X126211Y-73745D01*
X126192Y-73754D01*
X126173Y-73754D01*
X126154Y-73745D01*
X126145Y-73735D01*
X126135Y-73717D01*
X126126Y-73679D01*
X126126Y-73632D01*
X126135Y-73595D01*
X126145Y-73576D01*
X126154Y-73567D01*
X126173Y-73557D01*
X126323Y-73623D02*
X126323Y-73820D01*
X126323Y-73632D02*
X126342Y-73623D01*
X126379Y-73623D01*
X126398Y-73632D01*
X126408Y-73642D01*
X126417Y-73660D01*
X126417Y-73717D01*
X126408Y-73735D01*
X126398Y-73745D01*
X126379Y-73754D01*
X126342Y-73754D01*
X126323Y-73745D01*
X126567Y-73651D02*
X126501Y-73651D01*
X126501Y-73754D02*
X126501Y-73557D01*
X126595Y-73557D01*
X118368Y-95855D02*
X118274Y-95921D01*
X118368Y-95968D02*
X118171Y-95968D01*
X118171Y-95893D01*
X118181Y-95874D01*
X118190Y-95865D01*
X118209Y-95855D01*
X118237Y-95855D01*
X118256Y-95865D01*
X118265Y-95874D01*
X118274Y-95893D01*
X118274Y-95968D01*
X118190Y-95780D02*
X118181Y-95771D01*
X118171Y-95752D01*
X118171Y-95705D01*
X118181Y-95686D01*
X118190Y-95677D01*
X118209Y-95668D01*
X118228Y-95668D01*
X118256Y-95677D01*
X118368Y-95789D01*
X118368Y-95668D01*
X118171Y-95602D02*
X118171Y-95471D01*
X118368Y-95555D01*
X122332Y-74779D02*
X122220Y-74779D01*
X122276Y-74779D02*
X122276Y-74582D01*
X122257Y-74610D01*
X122238Y-74629D01*
X122220Y-74639D01*
X122454Y-74582D02*
X122473Y-74582D01*
X122492Y-74592D01*
X122501Y-74601D01*
X122510Y-74620D01*
X122520Y-74657D01*
X122520Y-74704D01*
X122510Y-74742D01*
X122501Y-74760D01*
X122492Y-74770D01*
X122473Y-74779D01*
X122454Y-74779D01*
X122435Y-74770D01*
X122426Y-74760D01*
X122417Y-74742D01*
X122407Y-74704D01*
X122407Y-74657D01*
X122417Y-74620D01*
X122426Y-74601D01*
X122435Y-74592D01*
X122454Y-74582D01*
X122604Y-74779D02*
X122604Y-74582D01*
X122623Y-74704D02*
X122679Y-74779D01*
X122679Y-74648D02*
X122604Y-74723D01*
G54D14*
X119632Y-94245D02*
X120037Y-94245D01*
X120084Y-94222D01*
X120108Y-94198D01*
X120132Y-94150D01*
X120132Y-94055D01*
X120108Y-94007D01*
X120084Y-93984D01*
X120037Y-93960D01*
X119632Y-93960D01*
X119632Y-93507D02*
X119632Y-93603D01*
X119656Y-93650D01*
X119680Y-93674D01*
X119751Y-93722D01*
X119846Y-93745D01*
X120037Y-93745D01*
X120084Y-93722D01*
X120108Y-93698D01*
X120132Y-93650D01*
X120132Y-93555D01*
X120108Y-93507D01*
X120084Y-93484D01*
X120037Y-93460D01*
X119918Y-93460D01*
X119870Y-93484D01*
X119846Y-93507D01*
X119822Y-93555D01*
X119822Y-93650D01*
X119846Y-93698D01*
X119870Y-93722D01*
X119918Y-93745D01*
G54D29*
X122070Y-89379D02*
X121976Y-89227D01*
X121910Y-89379D02*
X121910Y-89059D01*
X122016Y-89059D01*
X122043Y-89074D01*
X122056Y-89090D01*
X122070Y-89120D01*
X122070Y-89166D01*
X122056Y-89196D01*
X122043Y-89211D01*
X122016Y-89227D01*
X121910Y-89227D01*
X122336Y-89379D02*
X122176Y-89379D01*
X122256Y-89379D02*
X122256Y-89059D01*
X122230Y-89105D01*
X122203Y-89135D01*
X122176Y-89150D01*
X122576Y-89166D02*
X122576Y-89379D01*
X122510Y-89044D02*
X122443Y-89272D01*
X122616Y-89272D01*
G54D19*
G54D30*
X120473Y-97079D02*
X120407Y-96985D01*
X120360Y-97079D02*
X120360Y-96882D01*
X120435Y-96882D01*
X120454Y-96892D01*
X120463Y-96901D01*
X120473Y-96920D01*
X120473Y-96948D01*
X120463Y-96967D01*
X120454Y-96976D01*
X120435Y-96985D01*
X120360Y-96985D01*
X120660Y-97079D02*
X120548Y-97079D01*
X120604Y-97079D02*
X120604Y-96882D01*
X120585Y-96910D01*
X120567Y-96929D01*
X120548Y-96939D01*
X120754Y-97079D02*
X120792Y-97079D01*
X120811Y-97070D01*
X120820Y-97060D01*
X120839Y-97032D01*
X120848Y-96995D01*
X120848Y-96920D01*
X120839Y-96901D01*
X120829Y-96892D01*
X120811Y-96882D01*
X120773Y-96882D01*
X120754Y-96892D01*
X120745Y-96901D01*
X120736Y-96920D01*
X120736Y-96967D01*
X120745Y-96985D01*
X120754Y-96995D01*
X120773Y-97004D01*
X120811Y-97004D01*
X120829Y-96995D01*
X120839Y-96985D01*
X120848Y-96967D01*
X120540Y-96432D02*
X120559Y-96432D01*
X120578Y-96442D01*
X120587Y-96451D01*
X120596Y-96470D01*
X120606Y-96507D01*
X120606Y-96554D01*
X120596Y-96592D01*
X120587Y-96610D01*
X120578Y-96620D01*
X120559Y-96629D01*
X120540Y-96629D01*
X120521Y-96620D01*
X120512Y-96610D01*
X120503Y-96592D01*
X120493Y-96554D01*
X120493Y-96507D01*
X120503Y-96470D01*
X120512Y-96451D01*
X120521Y-96442D01*
X120540Y-96432D01*
X119067Y-97079D02*
X119001Y-96985D01*
X118954Y-97079D02*
X118954Y-96882D01*
X119029Y-96882D01*
X119048Y-96892D01*
X119057Y-96901D01*
X119067Y-96920D01*
X119067Y-96948D01*
X119057Y-96967D01*
X119048Y-96976D01*
X119029Y-96985D01*
X118954Y-96985D01*
X119179Y-96967D02*
X119160Y-96957D01*
X119151Y-96948D01*
X119142Y-96929D01*
X119142Y-96920D01*
X119151Y-96901D01*
X119160Y-96892D01*
X119179Y-96882D01*
X119217Y-96882D01*
X119236Y-96892D01*
X119245Y-96901D01*
X119254Y-96920D01*
X119254Y-96929D01*
X119245Y-96948D01*
X119236Y-96957D01*
X119217Y-96967D01*
X119179Y-96967D01*
X119160Y-96976D01*
X119151Y-96985D01*
X119142Y-97004D01*
X119142Y-97042D01*
X119151Y-97060D01*
X119160Y-97070D01*
X119179Y-97079D01*
X119217Y-97079D01*
X119236Y-97070D01*
X119245Y-97060D01*
X119254Y-97042D01*
X119254Y-97004D01*
X119245Y-96985D01*
X119236Y-96976D01*
X119217Y-96967D01*
X119090Y-96432D02*
X119109Y-96432D01*
X119128Y-96442D01*
X119137Y-96451D01*
X119146Y-96470D01*
X119156Y-96507D01*
X119156Y-96554D01*
X119146Y-96592D01*
X119137Y-96610D01*
X119128Y-96620D01*
X119109Y-96629D01*
X119090Y-96629D01*
X119071Y-96620D01*
X119062Y-96610D01*
X119053Y-96592D01*
X119043Y-96554D01*
X119043Y-96507D01*
X119053Y-96470D01*
X119062Y-96451D01*
X119071Y-96442D01*
X119090Y-96432D01*
G54D17*
X129421Y-120737D02*
X129421Y-120137D01*
X129650Y-120137D01*
X129707Y-120166D01*
X129735Y-120195D01*
X129764Y-120252D01*
X129764Y-120337D01*
X129735Y-120395D01*
X129707Y-120423D01*
X129650Y-120452D01*
X129421Y-120452D01*
X129992Y-120195D02*
X130021Y-120166D01*
X130078Y-120137D01*
X130221Y-120137D01*
X130278Y-120166D01*
X130307Y-120195D01*
X130335Y-120252D01*
X130335Y-120309D01*
X130307Y-120395D01*
X129964Y-120737D01*
X130335Y-120737D01*
X130707Y-120137D02*
X130764Y-120137D01*
X130821Y-120166D01*
X130850Y-120195D01*
X130878Y-120252D01*
X130907Y-120366D01*
X130907Y-120509D01*
X130878Y-120623D01*
X130850Y-120680D01*
X130821Y-120709D01*
X130764Y-120737D01*
X130707Y-120737D01*
X130650Y-120709D01*
X130621Y-120680D01*
X130592Y-120623D01*
X130564Y-120509D01*
X130564Y-120366D01*
X130592Y-120252D01*
X130621Y-120195D01*
X130650Y-120166D01*
X130707Y-120137D01*
X160035Y-102416D02*
X160064Y-102444D01*
X160092Y-102530D01*
X160092Y-102587D01*
X160064Y-102673D01*
X160007Y-102730D01*
X159950Y-102759D01*
X159835Y-102787D01*
X159750Y-102787D01*
X159635Y-102759D01*
X159578Y-102730D01*
X159521Y-102673D01*
X159492Y-102587D01*
X159492Y-102530D01*
X159521Y-102444D01*
X159550Y-102416D01*
X159492Y-102044D02*
X159492Y-101930D01*
X159521Y-101873D01*
X159578Y-101816D01*
X159692Y-101787D01*
X159892Y-101787D01*
X160007Y-101816D01*
X160064Y-101873D01*
X160092Y-101930D01*
X160092Y-102044D01*
X160064Y-102102D01*
X160007Y-102159D01*
X159892Y-102187D01*
X159692Y-102187D01*
X159578Y-102159D01*
X159521Y-102102D01*
X159492Y-102044D01*
X160092Y-101530D02*
X159492Y-101530D01*
X160092Y-101187D01*
X159492Y-101187D01*
X160092Y-100902D02*
X159492Y-100902D01*
X160092Y-100559D01*
X159492Y-100559D01*
X160150Y-100416D02*
X160150Y-99959D01*
X160092Y-99502D02*
X160092Y-99845D01*
X160092Y-99673D02*
X159492Y-99673D01*
X159578Y-99730D01*
X159635Y-99787D01*
X159664Y-99845D01*
X130421Y-126792D02*
X130421Y-126192D01*
X130650Y-126192D01*
X130707Y-126221D01*
X130735Y-126250D01*
X130764Y-126307D01*
X130764Y-126392D01*
X130735Y-126450D01*
X130707Y-126478D01*
X130650Y-126507D01*
X130421Y-126507D01*
X130992Y-126250D02*
X131021Y-126221D01*
X131078Y-126192D01*
X131221Y-126192D01*
X131278Y-126221D01*
X131307Y-126250D01*
X131335Y-126307D01*
X131335Y-126364D01*
X131307Y-126450D01*
X130964Y-126792D01*
X131335Y-126792D01*
X131907Y-126792D02*
X131564Y-126792D01*
X131735Y-126792D02*
X131735Y-126192D01*
X131678Y-126278D01*
X131621Y-126335D01*
X131564Y-126364D01*
X160755Y-103381D02*
X160784Y-103409D01*
X160812Y-103495D01*
X160812Y-103552D01*
X160784Y-103638D01*
X160727Y-103695D01*
X160670Y-103724D01*
X160555Y-103752D01*
X160470Y-103752D01*
X160355Y-103724D01*
X160298Y-103695D01*
X160241Y-103638D01*
X160212Y-103552D01*
X160212Y-103495D01*
X160241Y-103409D01*
X160270Y-103381D01*
X160212Y-103009D02*
X160212Y-102895D01*
X160241Y-102838D01*
X160298Y-102781D01*
X160412Y-102752D01*
X160612Y-102752D01*
X160727Y-102781D01*
X160784Y-102838D01*
X160812Y-102895D01*
X160812Y-103009D01*
X160784Y-103067D01*
X160727Y-103124D01*
X160612Y-103152D01*
X160412Y-103152D01*
X160298Y-103124D01*
X160241Y-103067D01*
X160212Y-103009D01*
X160812Y-102495D02*
X160212Y-102495D01*
X160812Y-102152D01*
X160212Y-102152D01*
X160812Y-101867D02*
X160212Y-101867D01*
X160812Y-101524D01*
X160212Y-101524D01*
X160870Y-101381D02*
X160870Y-100924D01*
X160812Y-100467D02*
X160812Y-100810D01*
X160812Y-100638D02*
X160212Y-100638D01*
X160298Y-100695D01*
X160355Y-100752D01*
X160384Y-100810D01*
X124692Y-72268D02*
X124092Y-72268D01*
X124092Y-72040D01*
X124121Y-71982D01*
X124150Y-71954D01*
X124207Y-71925D01*
X124292Y-71925D01*
X124350Y-71954D01*
X124378Y-71982D01*
X124407Y-72040D01*
X124407Y-72268D01*
X124150Y-71697D02*
X124121Y-71668D01*
X124092Y-71611D01*
X124092Y-71468D01*
X124121Y-71411D01*
X124150Y-71382D01*
X124207Y-71354D01*
X124264Y-71354D01*
X124350Y-71382D01*
X124692Y-71725D01*
X124692Y-71354D01*
X124350Y-71011D02*
X124321Y-71068D01*
X124292Y-71097D01*
X124235Y-71125D01*
X124207Y-71125D01*
X124150Y-71097D01*
X124121Y-71068D01*
X124092Y-71011D01*
X124092Y-70897D01*
X124121Y-70840D01*
X124150Y-70811D01*
X124207Y-70782D01*
X124235Y-70782D01*
X124292Y-70811D01*
X124321Y-70840D01*
X124350Y-70897D01*
X124350Y-71011D01*
X124378Y-71068D01*
X124407Y-71097D01*
X124464Y-71125D01*
X124578Y-71125D01*
X124635Y-71097D01*
X124664Y-71068D01*
X124692Y-71011D01*
X124692Y-70897D01*
X124664Y-70840D01*
X124635Y-70811D01*
X124578Y-70782D01*
X124464Y-70782D01*
X124407Y-70811D01*
X124378Y-70840D01*
X124350Y-70897D01*
X117903Y-67860D02*
X117875Y-67889D01*
X117789Y-67917D01*
X117732Y-67917D01*
X117646Y-67889D01*
X117589Y-67832D01*
X117560Y-67775D01*
X117532Y-67660D01*
X117532Y-67575D01*
X117560Y-67460D01*
X117589Y-67403D01*
X117646Y-67346D01*
X117732Y-67317D01*
X117789Y-67317D01*
X117875Y-67346D01*
X117903Y-67375D01*
X118275Y-67317D02*
X118389Y-67317D01*
X118446Y-67346D01*
X118503Y-67403D01*
X118532Y-67517D01*
X118532Y-67717D01*
X118503Y-67832D01*
X118446Y-67889D01*
X118389Y-67917D01*
X118275Y-67917D01*
X118217Y-67889D01*
X118160Y-67832D01*
X118132Y-67717D01*
X118132Y-67517D01*
X118160Y-67403D01*
X118217Y-67346D01*
X118275Y-67317D01*
X118789Y-67917D02*
X118789Y-67317D01*
X119132Y-67917D01*
X119132Y-67317D01*
X119417Y-67917D02*
X119417Y-67317D01*
X119760Y-67917D01*
X119760Y-67317D01*
X119903Y-67975D02*
X120360Y-67975D01*
X120817Y-67917D02*
X120475Y-67917D01*
X120646Y-67917D02*
X120646Y-67317D01*
X120589Y-67403D01*
X120532Y-67460D01*
X120475Y-67489D01*
X122342Y-72268D02*
X121742Y-72268D01*
X121742Y-72040D01*
X121771Y-71982D01*
X121800Y-71954D01*
X121857Y-71925D01*
X121942Y-71925D01*
X122000Y-71954D01*
X122028Y-71982D01*
X122057Y-72040D01*
X122057Y-72268D01*
X121800Y-71697D02*
X121771Y-71668D01*
X121742Y-71611D01*
X121742Y-71468D01*
X121771Y-71411D01*
X121800Y-71382D01*
X121857Y-71354D01*
X121914Y-71354D01*
X122000Y-71382D01*
X122342Y-71725D01*
X122342Y-71354D01*
X122342Y-71068D02*
X122342Y-70954D01*
X122314Y-70897D01*
X122285Y-70868D01*
X122200Y-70811D01*
X122085Y-70782D01*
X121857Y-70782D01*
X121800Y-70811D01*
X121771Y-70840D01*
X121742Y-70897D01*
X121742Y-71011D01*
X121771Y-71068D01*
X121800Y-71097D01*
X121857Y-71125D01*
X122000Y-71125D01*
X122057Y-71097D01*
X122085Y-71068D01*
X122114Y-71011D01*
X122114Y-70897D01*
X122085Y-70840D01*
X122057Y-70811D01*
X122000Y-70782D01*
X117003Y-68410D02*
X116975Y-68439D01*
X116889Y-68467D01*
X116832Y-68467D01*
X116746Y-68439D01*
X116689Y-68382D01*
X116660Y-68325D01*
X116632Y-68210D01*
X116632Y-68125D01*
X116660Y-68010D01*
X116689Y-67953D01*
X116746Y-67896D01*
X116832Y-67867D01*
X116889Y-67867D01*
X116975Y-67896D01*
X117003Y-67925D01*
X117375Y-67867D02*
X117489Y-67867D01*
X117546Y-67896D01*
X117603Y-67953D01*
X117632Y-68067D01*
X117632Y-68267D01*
X117603Y-68382D01*
X117546Y-68439D01*
X117489Y-68467D01*
X117375Y-68467D01*
X117317Y-68439D01*
X117260Y-68382D01*
X117232Y-68267D01*
X117232Y-68067D01*
X117260Y-67953D01*
X117317Y-67896D01*
X117375Y-67867D01*
X117889Y-68467D02*
X117889Y-67867D01*
X118232Y-68467D01*
X118232Y-67867D01*
X118517Y-68467D02*
X118517Y-67867D01*
X118860Y-68467D01*
X118860Y-67867D01*
X119003Y-68525D02*
X119460Y-68525D01*
X119917Y-68467D02*
X119575Y-68467D01*
X119746Y-68467D02*
X119746Y-67867D01*
X119689Y-67953D01*
X119632Y-68010D01*
X119575Y-68039D01*
X156821Y-93557D02*
X156821Y-92957D01*
X157050Y-92957D01*
X157107Y-92986D01*
X157135Y-93015D01*
X157164Y-93072D01*
X157164Y-93157D01*
X157135Y-93215D01*
X157107Y-93243D01*
X157050Y-93272D01*
X156821Y-93272D01*
X157364Y-92957D02*
X157735Y-92957D01*
X157535Y-93186D01*
X157621Y-93186D01*
X157678Y-93215D01*
X157707Y-93243D01*
X157735Y-93300D01*
X157735Y-93443D01*
X157707Y-93500D01*
X157678Y-93529D01*
X157621Y-93557D01*
X157450Y-93557D01*
X157392Y-93529D01*
X157364Y-93500D01*
X158107Y-92957D02*
X158164Y-92957D01*
X158221Y-92986D01*
X158250Y-93015D01*
X158278Y-93072D01*
X158307Y-93186D01*
X158307Y-93329D01*
X158278Y-93443D01*
X158250Y-93500D01*
X158221Y-93529D01*
X158164Y-93557D01*
X158107Y-93557D01*
X158050Y-93529D01*
X158021Y-93500D01*
X157992Y-93443D01*
X157964Y-93329D01*
X157964Y-93186D01*
X157992Y-93072D01*
X158021Y-93015D01*
X158050Y-92986D01*
X158107Y-92957D01*
X152905Y-77891D02*
X152934Y-77919D01*
X152962Y-78005D01*
X152962Y-78062D01*
X152934Y-78148D01*
X152877Y-78205D01*
X152820Y-78234D01*
X152705Y-78262D01*
X152620Y-78262D01*
X152505Y-78234D01*
X152448Y-78205D01*
X152391Y-78148D01*
X152362Y-78062D01*
X152362Y-78005D01*
X152391Y-77919D01*
X152420Y-77891D01*
X152362Y-77519D02*
X152362Y-77405D01*
X152391Y-77348D01*
X152448Y-77291D01*
X152562Y-77262D01*
X152762Y-77262D01*
X152877Y-77291D01*
X152934Y-77348D01*
X152962Y-77405D01*
X152962Y-77519D01*
X152934Y-77577D01*
X152877Y-77634D01*
X152762Y-77662D01*
X152562Y-77662D01*
X152448Y-77634D01*
X152391Y-77577D01*
X152362Y-77519D01*
X152962Y-77005D02*
X152362Y-77005D01*
X152962Y-76662D01*
X152362Y-76662D01*
X152962Y-76377D02*
X152362Y-76377D01*
X152962Y-76034D01*
X152362Y-76034D01*
X153020Y-75891D02*
X153020Y-75434D01*
X152962Y-74977D02*
X152962Y-75320D01*
X152962Y-75148D02*
X152362Y-75148D01*
X152448Y-75205D01*
X152505Y-75262D01*
X152534Y-75320D01*
X123171Y-83142D02*
X123171Y-82542D01*
X123400Y-82542D01*
X123457Y-82571D01*
X123485Y-82600D01*
X123514Y-82657D01*
X123514Y-82742D01*
X123485Y-82800D01*
X123457Y-82828D01*
X123400Y-82857D01*
X123171Y-82857D01*
X123714Y-82542D02*
X124085Y-82542D01*
X123885Y-82771D01*
X123971Y-82771D01*
X124028Y-82800D01*
X124057Y-82828D01*
X124085Y-82885D01*
X124085Y-83028D01*
X124057Y-83085D01*
X124028Y-83114D01*
X123971Y-83142D01*
X123800Y-83142D01*
X123742Y-83114D01*
X123714Y-83085D01*
X124657Y-83142D02*
X124314Y-83142D01*
X124485Y-83142D02*
X124485Y-82542D01*
X124428Y-82628D01*
X124371Y-82685D01*
X124314Y-82714D01*
X147185Y-75071D02*
X147214Y-75099D01*
X147242Y-75185D01*
X147242Y-75242D01*
X147214Y-75328D01*
X147157Y-75385D01*
X147100Y-75414D01*
X146985Y-75442D01*
X146900Y-75442D01*
X146785Y-75414D01*
X146728Y-75385D01*
X146671Y-75328D01*
X146642Y-75242D01*
X146642Y-75185D01*
X146671Y-75099D01*
X146700Y-75071D01*
X146642Y-74699D02*
X146642Y-74585D01*
X146671Y-74528D01*
X146728Y-74471D01*
X146842Y-74442D01*
X147042Y-74442D01*
X147157Y-74471D01*
X147214Y-74528D01*
X147242Y-74585D01*
X147242Y-74699D01*
X147214Y-74757D01*
X147157Y-74814D01*
X147042Y-74842D01*
X146842Y-74842D01*
X146728Y-74814D01*
X146671Y-74757D01*
X146642Y-74699D01*
X147242Y-74185D02*
X146642Y-74185D01*
X147242Y-73842D01*
X146642Y-73842D01*
X147242Y-73557D02*
X146642Y-73557D01*
X147242Y-73214D01*
X146642Y-73214D01*
X147300Y-73071D02*
X147300Y-72614D01*
X147242Y-72157D02*
X147242Y-72500D01*
X147242Y-72328D02*
X146642Y-72328D01*
X146728Y-72385D01*
X146785Y-72442D01*
X146814Y-72500D01*
X141847Y-79362D02*
X141847Y-78762D01*
X142075Y-78762D01*
X142132Y-78791D01*
X142161Y-78820D01*
X142190Y-78877D01*
X142190Y-78962D01*
X142161Y-79020D01*
X142132Y-79048D01*
X142075Y-79077D01*
X141847Y-79077D01*
X142761Y-79362D02*
X142418Y-79362D01*
X142590Y-79362D02*
X142590Y-78762D01*
X142532Y-78848D01*
X142475Y-78905D01*
X142418Y-78934D01*
X192925Y-80141D02*
X192954Y-80169D01*
X192982Y-80255D01*
X192982Y-80312D01*
X192954Y-80398D01*
X192897Y-80455D01*
X192840Y-80484D01*
X192725Y-80512D01*
X192640Y-80512D01*
X192525Y-80484D01*
X192468Y-80455D01*
X192411Y-80398D01*
X192382Y-80312D01*
X192382Y-80255D01*
X192411Y-80169D01*
X192440Y-80141D01*
X192382Y-79769D02*
X192382Y-79655D01*
X192411Y-79598D01*
X192468Y-79541D01*
X192582Y-79512D01*
X192782Y-79512D01*
X192897Y-79541D01*
X192954Y-79598D01*
X192982Y-79655D01*
X192982Y-79769D01*
X192954Y-79827D01*
X192897Y-79884D01*
X192782Y-79912D01*
X192582Y-79912D01*
X192468Y-79884D01*
X192411Y-79827D01*
X192382Y-79769D01*
X192982Y-79255D02*
X192382Y-79255D01*
X192982Y-78912D01*
X192382Y-78912D01*
X192982Y-78627D02*
X192382Y-78627D01*
X192982Y-78284D01*
X192382Y-78284D01*
X193040Y-78141D02*
X193040Y-77684D01*
X192982Y-77227D02*
X192982Y-77570D01*
X192982Y-77398D02*
X192382Y-77398D01*
X192468Y-77455D01*
X192525Y-77512D01*
X192554Y-77570D01*
G54D23*
X124239Y-103451D02*
X124239Y-103051D01*
X124392Y-103051D01*
X124430Y-103070D01*
X124449Y-103090D01*
X124468Y-103128D01*
X124468Y-103185D01*
X124449Y-103223D01*
X124430Y-103242D01*
X124392Y-103261D01*
X124239Y-103261D01*
X124601Y-103051D02*
X124868Y-103051D01*
X124696Y-103451D01*
G54D18*
X122721Y-113064D02*
X122421Y-113064D01*
X122421Y-112992D01*
X122435Y-112950D01*
X122464Y-112921D01*
X122492Y-112907D01*
X122550Y-112892D01*
X122592Y-112892D01*
X122650Y-112907D01*
X122678Y-112921D01*
X122707Y-112950D01*
X122721Y-112992D01*
X122721Y-113064D01*
X122721Y-112607D02*
X122721Y-112778D01*
X122721Y-112692D02*
X122421Y-112692D01*
X122464Y-112721D01*
X122492Y-112750D01*
X122507Y-112778D01*
X122421Y-112421D02*
X122421Y-112392D01*
X122435Y-112364D01*
X122450Y-112350D01*
X122478Y-112335D01*
X122535Y-112321D01*
X122607Y-112321D01*
X122664Y-112335D01*
X122692Y-112350D01*
X122707Y-112364D01*
X122721Y-112392D01*
X122721Y-112421D01*
X122707Y-112450D01*
X122692Y-112464D01*
X122664Y-112478D01*
X122607Y-112492D01*
X122535Y-112492D01*
X122478Y-112478D01*
X122450Y-112464D01*
X122435Y-112450D01*
X122421Y-112421D01*
X126196Y-119570D02*
X126196Y-119713D01*
X125896Y-119713D01*
X126039Y-119470D02*
X126039Y-119370D01*
X126196Y-119327D02*
X126196Y-119470D01*
X125896Y-119470D01*
X125896Y-119327D01*
X126196Y-119199D02*
X125896Y-119199D01*
X125896Y-119127D01*
X125910Y-119085D01*
X125939Y-119056D01*
X125967Y-119042D01*
X126025Y-119027D01*
X126067Y-119027D01*
X126125Y-119042D01*
X126153Y-119056D01*
X126182Y-119085D01*
X126196Y-119127D01*
X126196Y-119199D01*
X125896Y-118927D02*
X125896Y-118742D01*
X126010Y-118842D01*
X126010Y-118799D01*
X126025Y-118770D01*
X126039Y-118756D01*
X126067Y-118742D01*
X126139Y-118742D01*
X126167Y-118756D01*
X126182Y-118770D01*
X126196Y-118799D01*
X126196Y-118885D01*
X126182Y-118913D01*
X126167Y-118927D01*
G54D27*
X123229Y-113151D02*
X123032Y-113151D01*
X123229Y-113039D02*
X123117Y-113123D01*
X123032Y-113039D02*
X123145Y-113151D01*
G54D18*
X124971Y-113064D02*
X124671Y-113064D01*
X124671Y-112992D01*
X124685Y-112950D01*
X124714Y-112921D01*
X124742Y-112907D01*
X124800Y-112892D01*
X124842Y-112892D01*
X124900Y-112907D01*
X124928Y-112921D01*
X124957Y-112950D01*
X124971Y-112992D01*
X124971Y-113064D01*
X124971Y-112607D02*
X124971Y-112778D01*
X124971Y-112692D02*
X124671Y-112692D01*
X124714Y-112721D01*
X124742Y-112750D01*
X124757Y-112778D01*
X124971Y-112321D02*
X124971Y-112492D01*
X124971Y-112407D02*
X124671Y-112407D01*
X124714Y-112435D01*
X124742Y-112464D01*
X124757Y-112492D01*
X125191Y-120185D02*
X125191Y-120328D01*
X124891Y-120328D01*
X125034Y-120085D02*
X125034Y-119985D01*
X125191Y-119942D02*
X125191Y-120085D01*
X124891Y-120085D01*
X124891Y-119942D01*
X125191Y-119814D02*
X124891Y-119814D01*
X124891Y-119742D01*
X124905Y-119700D01*
X124934Y-119671D01*
X124962Y-119657D01*
X125020Y-119642D01*
X125062Y-119642D01*
X125120Y-119657D01*
X125148Y-119671D01*
X125177Y-119700D01*
X125191Y-119742D01*
X125191Y-119814D01*
X124920Y-119528D02*
X124905Y-119514D01*
X124891Y-119485D01*
X124891Y-119414D01*
X124905Y-119385D01*
X124920Y-119371D01*
X124948Y-119357D01*
X124977Y-119357D01*
X125020Y-119371D01*
X125191Y-119542D01*
X125191Y-119357D01*
G54D27*
X124279Y-113151D02*
X124082Y-113151D01*
X124279Y-113039D02*
X124167Y-113123D01*
X124082Y-113039D02*
X124195Y-113151D01*
G54D14*
X127052Y-111980D02*
X127052Y-111695D01*
X127552Y-111838D02*
X127052Y-111838D01*
X127100Y-111552D02*
X127076Y-111528D01*
X127052Y-111480D01*
X127052Y-111361D01*
X127076Y-111314D01*
X127100Y-111290D01*
X127147Y-111266D01*
X127195Y-111266D01*
X127266Y-111290D01*
X127552Y-111576D01*
X127552Y-111266D01*
X96675Y-106038D02*
X96603Y-105942D01*
X96675Y-105847D01*
X96675Y-105752D02*
X96603Y-105657D01*
X96675Y-105561D01*
X97127Y-105395D02*
X96627Y-105395D01*
X97127Y-105109D01*
X96627Y-105109D01*
X97127Y-104871D02*
X96627Y-104871D01*
X96627Y-104680D01*
X96651Y-104633D01*
X96675Y-104609D01*
X96722Y-104585D01*
X96794Y-104585D01*
X96841Y-104609D01*
X96865Y-104633D01*
X96889Y-104680D01*
X96889Y-104871D01*
X97127Y-104371D02*
X96627Y-104371D01*
X97127Y-104085D01*
X96627Y-104085D01*
X96936Y-103847D02*
X96936Y-103466D01*
X97103Y-103252D02*
X97127Y-103180D01*
X97127Y-103061D01*
X97103Y-103014D01*
X97079Y-102990D01*
X97032Y-102966D01*
X96984Y-102966D01*
X96936Y-102990D01*
X96913Y-103014D01*
X96889Y-103061D01*
X96865Y-103157D01*
X96841Y-103204D01*
X96817Y-103228D01*
X96770Y-103252D01*
X96722Y-103252D01*
X96675Y-103228D01*
X96651Y-103204D01*
X96627Y-103157D01*
X96627Y-103038D01*
X96651Y-102966D01*
X96627Y-102657D02*
X96627Y-102561D01*
X96651Y-102514D01*
X96698Y-102466D01*
X96794Y-102442D01*
X96960Y-102442D01*
X97055Y-102466D01*
X97103Y-102514D01*
X97127Y-102561D01*
X97127Y-102657D01*
X97103Y-102704D01*
X97055Y-102752D01*
X96960Y-102776D01*
X96794Y-102776D01*
X96698Y-102752D01*
X96651Y-102704D01*
X96627Y-102657D01*
X96627Y-102300D02*
X96627Y-102014D01*
X97127Y-102157D02*
X96627Y-102157D01*
X96675Y-101871D02*
X96651Y-101847D01*
X96627Y-101800D01*
X96627Y-101680D01*
X96651Y-101633D01*
X96675Y-101609D01*
X96722Y-101585D01*
X96770Y-101585D01*
X96841Y-101609D01*
X97127Y-101895D01*
X97127Y-101585D01*
X96627Y-101419D02*
X96627Y-101109D01*
X96817Y-101276D01*
X96817Y-101204D01*
X96841Y-101157D01*
X96865Y-101133D01*
X96913Y-101109D01*
X97032Y-101109D01*
X97079Y-101133D01*
X97103Y-101157D01*
X97127Y-101204D01*
X97127Y-101347D01*
X97103Y-101395D01*
X97079Y-101419D01*
G54D17*
X127707Y-121192D02*
X127707Y-120592D01*
X127935Y-120592D01*
X127992Y-120621D01*
X128021Y-120650D01*
X128050Y-120707D01*
X128050Y-120792D01*
X128021Y-120850D01*
X127992Y-120878D01*
X127935Y-120907D01*
X127707Y-120907D01*
X128250Y-120592D02*
X128621Y-120592D01*
X128421Y-120821D01*
X128507Y-120821D01*
X128564Y-120850D01*
X128592Y-120878D01*
X128621Y-120935D01*
X128621Y-121078D01*
X128592Y-121135D01*
X128564Y-121164D01*
X128507Y-121192D01*
X128335Y-121192D01*
X128278Y-121164D01*
X128250Y-121135D01*
X123128Y-120535D02*
X123100Y-120564D01*
X123014Y-120592D01*
X122957Y-120592D01*
X122871Y-120564D01*
X122814Y-120507D01*
X122785Y-120450D01*
X122757Y-120335D01*
X122757Y-120250D01*
X122785Y-120135D01*
X122814Y-120078D01*
X122871Y-120021D01*
X122957Y-119992D01*
X123014Y-119992D01*
X123100Y-120021D01*
X123128Y-120050D01*
X123500Y-119992D02*
X123614Y-119992D01*
X123671Y-120021D01*
X123728Y-120078D01*
X123757Y-120192D01*
X123757Y-120392D01*
X123728Y-120507D01*
X123671Y-120564D01*
X123614Y-120592D01*
X123500Y-120592D01*
X123442Y-120564D01*
X123385Y-120507D01*
X123357Y-120392D01*
X123357Y-120192D01*
X123385Y-120078D01*
X123442Y-120021D01*
X123500Y-119992D01*
X124014Y-120592D02*
X124014Y-119992D01*
X124357Y-120592D01*
X124357Y-119992D01*
X124642Y-120592D02*
X124642Y-119992D01*
X124985Y-120592D01*
X124985Y-119992D01*
X125128Y-120650D02*
X125585Y-120650D01*
X126042Y-120592D02*
X125700Y-120592D01*
X125871Y-120592D02*
X125871Y-119992D01*
X125814Y-120078D01*
X125757Y-120135D01*
X125700Y-120164D01*
X141307Y-74942D02*
X141307Y-74342D01*
X141535Y-74342D01*
X141592Y-74371D01*
X141621Y-74400D01*
X141650Y-74457D01*
X141650Y-74542D01*
X141621Y-74600D01*
X141592Y-74628D01*
X141535Y-74657D01*
X141307Y-74657D01*
X142164Y-74542D02*
X142164Y-74942D01*
X142021Y-74314D02*
X141878Y-74742D01*
X142250Y-74742D01*
X141228Y-75685D02*
X141200Y-75714D01*
X141114Y-75742D01*
X141057Y-75742D01*
X140971Y-75714D01*
X140914Y-75657D01*
X140885Y-75600D01*
X140857Y-75485D01*
X140857Y-75400D01*
X140885Y-75285D01*
X140914Y-75228D01*
X140971Y-75171D01*
X141057Y-75142D01*
X141114Y-75142D01*
X141200Y-75171D01*
X141228Y-75200D01*
X141600Y-75142D02*
X141714Y-75142D01*
X141771Y-75171D01*
X141828Y-75228D01*
X141857Y-75342D01*
X141857Y-75542D01*
X141828Y-75657D01*
X141771Y-75714D01*
X141714Y-75742D01*
X141600Y-75742D01*
X141542Y-75714D01*
X141485Y-75657D01*
X141457Y-75542D01*
X141457Y-75342D01*
X141485Y-75228D01*
X141542Y-75171D01*
X141600Y-75142D01*
X142114Y-75742D02*
X142114Y-75142D01*
X142457Y-75742D01*
X142457Y-75142D01*
X142742Y-75742D02*
X142742Y-75142D01*
X143085Y-75742D01*
X143085Y-75142D01*
X143228Y-75800D02*
X143685Y-75800D01*
X144142Y-75742D02*
X143800Y-75742D01*
X143971Y-75742D02*
X143971Y-75142D01*
X143914Y-75228D01*
X143857Y-75285D01*
X143800Y-75314D01*
X148737Y-81882D02*
X148737Y-81282D01*
X148965Y-81282D01*
X149022Y-81311D01*
X149051Y-81340D01*
X149080Y-81397D01*
X149080Y-81482D01*
X149051Y-81540D01*
X149022Y-81568D01*
X148965Y-81597D01*
X148737Y-81597D01*
X149622Y-81282D02*
X149337Y-81282D01*
X149308Y-81568D01*
X149337Y-81540D01*
X149394Y-81511D01*
X149537Y-81511D01*
X149594Y-81540D01*
X149622Y-81568D01*
X149651Y-81625D01*
X149651Y-81768D01*
X149622Y-81825D01*
X149594Y-81854D01*
X149537Y-81882D01*
X149394Y-81882D01*
X149337Y-81854D01*
X149308Y-81825D01*
X141175Y-83661D02*
X141204Y-83689D01*
X141232Y-83775D01*
X141232Y-83832D01*
X141204Y-83918D01*
X141147Y-83975D01*
X141090Y-84004D01*
X140975Y-84032D01*
X140890Y-84032D01*
X140775Y-84004D01*
X140718Y-83975D01*
X140661Y-83918D01*
X140632Y-83832D01*
X140632Y-83775D01*
X140661Y-83689D01*
X140690Y-83661D01*
X140632Y-83289D02*
X140632Y-83175D01*
X140661Y-83118D01*
X140718Y-83061D01*
X140832Y-83032D01*
X141032Y-83032D01*
X141147Y-83061D01*
X141204Y-83118D01*
X141232Y-83175D01*
X141232Y-83289D01*
X141204Y-83347D01*
X141147Y-83404D01*
X141032Y-83432D01*
X140832Y-83432D01*
X140718Y-83404D01*
X140661Y-83347D01*
X140632Y-83289D01*
X141232Y-82775D02*
X140632Y-82775D01*
X141232Y-82432D01*
X140632Y-82432D01*
X141232Y-82147D02*
X140632Y-82147D01*
X141232Y-81804D01*
X140632Y-81804D01*
X141290Y-81661D02*
X141290Y-81204D01*
X141232Y-80747D02*
X141232Y-81090D01*
X141232Y-80918D02*
X140632Y-80918D01*
X140718Y-80975D01*
X140775Y-81032D01*
X140804Y-81090D01*
G54D19*
X119011Y-105495D02*
X118611Y-105495D01*
X118611Y-105342D01*
X118630Y-105304D01*
X118650Y-105285D01*
X118688Y-105266D01*
X118745Y-105266D01*
X118783Y-105285D01*
X118802Y-105304D01*
X118821Y-105342D01*
X118821Y-105495D01*
X118650Y-105114D02*
X118630Y-105095D01*
X118611Y-105057D01*
X118611Y-104961D01*
X118630Y-104923D01*
X118650Y-104904D01*
X118688Y-104885D01*
X118726Y-104885D01*
X118783Y-104904D01*
X119011Y-105133D01*
X119011Y-104885D01*
X103280Y-103673D02*
X103261Y-103692D01*
X103204Y-103711D01*
X103166Y-103711D01*
X103109Y-103692D01*
X103071Y-103654D01*
X103052Y-103616D01*
X103033Y-103540D01*
X103033Y-103483D01*
X103052Y-103407D01*
X103071Y-103369D01*
X103109Y-103330D01*
X103166Y-103311D01*
X103204Y-103311D01*
X103261Y-103330D01*
X103280Y-103350D01*
X103528Y-103311D02*
X103604Y-103311D01*
X103642Y-103330D01*
X103680Y-103369D01*
X103700Y-103445D01*
X103700Y-103578D01*
X103680Y-103654D01*
X103642Y-103692D01*
X103604Y-103711D01*
X103528Y-103711D01*
X103490Y-103692D01*
X103452Y-103654D01*
X103433Y-103578D01*
X103433Y-103445D01*
X103452Y-103369D01*
X103490Y-103330D01*
X103528Y-103311D01*
X103871Y-103711D02*
X103871Y-103311D01*
X104100Y-103711D01*
X104100Y-103311D01*
X104290Y-103711D02*
X104290Y-103311D01*
X104519Y-103711D01*
X104519Y-103311D01*
X104614Y-103750D02*
X104919Y-103750D01*
X105223Y-103711D02*
X104995Y-103711D01*
X105109Y-103711D02*
X105109Y-103311D01*
X105071Y-103369D01*
X105033Y-103407D01*
X104995Y-103426D01*
X105471Y-103311D02*
X105509Y-103311D01*
X105547Y-103330D01*
X105566Y-103350D01*
X105585Y-103388D01*
X105604Y-103464D01*
X105604Y-103559D01*
X105585Y-103635D01*
X105566Y-103673D01*
X105547Y-103692D01*
X105509Y-103711D01*
X105471Y-103711D01*
X105433Y-103692D01*
X105414Y-103673D01*
X105395Y-103635D01*
X105376Y-103559D01*
X105376Y-103464D01*
X105395Y-103388D01*
X105414Y-103350D01*
X105433Y-103330D01*
X105471Y-103311D01*
X105738Y-103311D02*
X106004Y-103711D01*
X106004Y-103311D02*
X105738Y-103711D01*
X106138Y-103350D02*
X106157Y-103330D01*
X106195Y-103311D01*
X106290Y-103311D01*
X106328Y-103330D01*
X106347Y-103350D01*
X106366Y-103388D01*
X106366Y-103426D01*
X106347Y-103483D01*
X106119Y-103711D01*
X106366Y-103711D01*
X119011Y-108480D02*
X118611Y-108480D01*
X118611Y-108328D01*
X118630Y-108290D01*
X118650Y-108271D01*
X118688Y-108252D01*
X118745Y-108252D01*
X118783Y-108271D01*
X118802Y-108290D01*
X118821Y-108328D01*
X118821Y-108480D01*
X118650Y-108100D02*
X118630Y-108080D01*
X118611Y-108042D01*
X118611Y-107947D01*
X118630Y-107909D01*
X118650Y-107890D01*
X118688Y-107871D01*
X118726Y-107871D01*
X118783Y-107890D01*
X119011Y-108119D01*
X119011Y-107871D01*
X118973Y-107700D02*
X118992Y-107680D01*
X119011Y-107700D01*
X118992Y-107719D01*
X118973Y-107700D01*
X119011Y-107700D01*
X119011Y-107300D02*
X119011Y-107528D01*
X119011Y-107414D02*
X118611Y-107414D01*
X118669Y-107452D01*
X118707Y-107490D01*
X118726Y-107528D01*
X123030Y-120523D02*
X123011Y-120542D01*
X122954Y-120561D01*
X122916Y-120561D01*
X122859Y-120542D01*
X122821Y-120504D01*
X122802Y-120466D01*
X122783Y-120390D01*
X122783Y-120333D01*
X122802Y-120257D01*
X122821Y-120219D01*
X122859Y-120180D01*
X122916Y-120161D01*
X122954Y-120161D01*
X123011Y-120180D01*
X123030Y-120200D01*
X123278Y-120161D02*
X123354Y-120161D01*
X123392Y-120180D01*
X123430Y-120219D01*
X123450Y-120295D01*
X123450Y-120428D01*
X123430Y-120504D01*
X123392Y-120542D01*
X123354Y-120561D01*
X123278Y-120561D01*
X123240Y-120542D01*
X123202Y-120504D01*
X123183Y-120428D01*
X123183Y-120295D01*
X123202Y-120219D01*
X123240Y-120180D01*
X123278Y-120161D01*
X123621Y-120561D02*
X123621Y-120161D01*
X123850Y-120561D01*
X123850Y-120161D01*
X124040Y-120561D02*
X124040Y-120161D01*
X124269Y-120561D01*
X124269Y-120161D01*
X124364Y-120600D02*
X124669Y-120600D01*
X124973Y-120561D02*
X124745Y-120561D01*
X124859Y-120561D02*
X124859Y-120161D01*
X124821Y-120219D01*
X124783Y-120257D01*
X124745Y-120276D01*
X125221Y-120161D02*
X125259Y-120161D01*
X125297Y-120180D01*
X125316Y-120200D01*
X125335Y-120238D01*
X125354Y-120314D01*
X125354Y-120409D01*
X125335Y-120485D01*
X125316Y-120523D01*
X125297Y-120542D01*
X125259Y-120561D01*
X125221Y-120561D01*
X125183Y-120542D01*
X125164Y-120523D01*
X125145Y-120485D01*
X125126Y-120409D01*
X125126Y-120314D01*
X125145Y-120238D01*
X125164Y-120200D01*
X125183Y-120180D01*
X125221Y-120161D01*
X125488Y-120161D02*
X125754Y-120561D01*
X125754Y-120161D02*
X125488Y-120561D01*
X125888Y-120200D02*
X125907Y-120180D01*
X125945Y-120161D01*
X126040Y-120161D01*
X126078Y-120180D01*
X126097Y-120200D01*
X126116Y-120238D01*
X126116Y-120276D01*
X126097Y-120333D01*
X125869Y-120561D01*
X126116Y-120561D01*
G54D17*
X112742Y-70242D02*
X112142Y-70242D01*
X112142Y-70014D01*
X112171Y-69957D01*
X112200Y-69928D01*
X112257Y-69900D01*
X112342Y-69900D01*
X112400Y-69928D01*
X112428Y-69957D01*
X112457Y-70014D01*
X112457Y-70242D01*
X112142Y-69385D02*
X112142Y-69500D01*
X112171Y-69557D01*
X112200Y-69585D01*
X112285Y-69642D01*
X112400Y-69671D01*
X112628Y-69671D01*
X112685Y-69642D01*
X112714Y-69614D01*
X112742Y-69557D01*
X112742Y-69442D01*
X112714Y-69385D01*
X112685Y-69357D01*
X112628Y-69328D01*
X112485Y-69328D01*
X112428Y-69357D01*
X112400Y-69385D01*
X112371Y-69442D01*
X112371Y-69557D01*
X112400Y-69614D01*
X112428Y-69642D01*
X112485Y-69671D01*
X108978Y-89735D02*
X108950Y-89764D01*
X108864Y-89792D01*
X108807Y-89792D01*
X108721Y-89764D01*
X108664Y-89707D01*
X108635Y-89650D01*
X108607Y-89535D01*
X108607Y-89450D01*
X108635Y-89335D01*
X108664Y-89278D01*
X108721Y-89221D01*
X108807Y-89192D01*
X108864Y-89192D01*
X108950Y-89221D01*
X108978Y-89250D01*
X109350Y-89192D02*
X109464Y-89192D01*
X109521Y-89221D01*
X109578Y-89278D01*
X109607Y-89392D01*
X109607Y-89592D01*
X109578Y-89707D01*
X109521Y-89764D01*
X109464Y-89792D01*
X109350Y-89792D01*
X109292Y-89764D01*
X109235Y-89707D01*
X109207Y-89592D01*
X109207Y-89392D01*
X109235Y-89278D01*
X109292Y-89221D01*
X109350Y-89192D01*
X109864Y-89792D02*
X109864Y-89192D01*
X110207Y-89792D01*
X110207Y-89192D01*
X110492Y-89792D02*
X110492Y-89192D01*
X110835Y-89792D01*
X110835Y-89192D01*
X110978Y-89850D02*
X111435Y-89850D01*
X111892Y-89792D02*
X111550Y-89792D01*
X111721Y-89792D02*
X111721Y-89192D01*
X111664Y-89278D01*
X111607Y-89335D01*
X111550Y-89364D01*
X114992Y-69642D02*
X114392Y-69642D01*
X114392Y-69414D01*
X114421Y-69357D01*
X114450Y-69328D01*
X114507Y-69300D01*
X114592Y-69300D01*
X114650Y-69328D01*
X114678Y-69357D01*
X114707Y-69414D01*
X114707Y-69642D01*
X114992Y-69014D02*
X114992Y-68900D01*
X114964Y-68842D01*
X114935Y-68814D01*
X114850Y-68757D01*
X114735Y-68728D01*
X114507Y-68728D01*
X114450Y-68757D01*
X114421Y-68785D01*
X114392Y-68842D01*
X114392Y-68957D01*
X114421Y-69014D01*
X114450Y-69042D01*
X114507Y-69071D01*
X114650Y-69071D01*
X114707Y-69042D01*
X114735Y-69014D01*
X114764Y-68957D01*
X114764Y-68842D01*
X114735Y-68785D01*
X114707Y-68757D01*
X114650Y-68728D01*
X108578Y-88335D02*
X108550Y-88364D01*
X108464Y-88392D01*
X108407Y-88392D01*
X108321Y-88364D01*
X108264Y-88307D01*
X108235Y-88250D01*
X108207Y-88135D01*
X108207Y-88050D01*
X108235Y-87935D01*
X108264Y-87878D01*
X108321Y-87821D01*
X108407Y-87792D01*
X108464Y-87792D01*
X108550Y-87821D01*
X108578Y-87850D01*
X108950Y-87792D02*
X109064Y-87792D01*
X109121Y-87821D01*
X109178Y-87878D01*
X109207Y-87992D01*
X109207Y-88192D01*
X109178Y-88307D01*
X109121Y-88364D01*
X109064Y-88392D01*
X108950Y-88392D01*
X108892Y-88364D01*
X108835Y-88307D01*
X108807Y-88192D01*
X108807Y-87992D01*
X108835Y-87878D01*
X108892Y-87821D01*
X108950Y-87792D01*
X109464Y-88392D02*
X109464Y-87792D01*
X109807Y-88392D01*
X109807Y-87792D01*
X110092Y-88392D02*
X110092Y-87792D01*
X110435Y-88392D01*
X110435Y-87792D01*
X110578Y-88450D02*
X111035Y-88450D01*
X111492Y-88392D02*
X111150Y-88392D01*
X111321Y-88392D02*
X111321Y-87792D01*
X111264Y-87878D01*
X111207Y-87935D01*
X111150Y-87964D01*
G54D19*
X132428Y-108922D02*
X132261Y-108660D01*
X132142Y-108922D02*
X132142Y-108372D01*
X132333Y-108372D01*
X132380Y-108398D01*
X132404Y-108425D01*
X132428Y-108477D01*
X132428Y-108555D01*
X132404Y-108608D01*
X132380Y-108634D01*
X132333Y-108660D01*
X132142Y-108660D01*
X132857Y-108555D02*
X132857Y-108922D01*
X132738Y-108346D02*
X132619Y-108739D01*
X132928Y-108739D01*
X133357Y-108372D02*
X133119Y-108372D01*
X133095Y-108634D01*
X133119Y-108608D01*
X133166Y-108582D01*
X133285Y-108582D01*
X133333Y-108608D01*
X133357Y-108634D01*
X133380Y-108686D01*
X133380Y-108817D01*
X133357Y-108870D01*
X133333Y-108896D01*
X133285Y-108922D01*
X133166Y-108922D01*
X133119Y-108896D01*
X133095Y-108870D01*
X132428Y-107772D02*
X132261Y-107510D01*
X132142Y-107772D02*
X132142Y-107222D01*
X132333Y-107222D01*
X132380Y-107248D01*
X132404Y-107275D01*
X132428Y-107327D01*
X132428Y-107405D01*
X132404Y-107458D01*
X132380Y-107484D01*
X132333Y-107510D01*
X132142Y-107510D01*
X132857Y-107405D02*
X132857Y-107772D01*
X132738Y-107196D02*
X132619Y-107589D01*
X132928Y-107589D01*
X133333Y-107405D02*
X133333Y-107772D01*
X133214Y-107196D02*
X133095Y-107589D01*
X133404Y-107589D01*
X162472Y-104890D02*
X163022Y-104723D01*
X162472Y-104557D01*
X162865Y-104414D02*
X162865Y-104176D01*
X163022Y-104461D02*
X162472Y-104295D01*
X163022Y-104128D01*
X163022Y-103676D02*
X162760Y-103842D01*
X163022Y-103961D02*
X162472Y-103961D01*
X162472Y-103771D01*
X162498Y-103723D01*
X162525Y-103700D01*
X162577Y-103676D01*
X162655Y-103676D01*
X162708Y-103700D01*
X162734Y-103723D01*
X162760Y-103771D01*
X162760Y-103961D01*
X163022Y-103461D02*
X162472Y-103461D01*
X162996Y-103247D02*
X163022Y-103176D01*
X163022Y-103057D01*
X162996Y-103009D01*
X162970Y-102985D01*
X162917Y-102961D01*
X162865Y-102961D01*
X162813Y-102985D01*
X162786Y-103009D01*
X162760Y-103057D01*
X162734Y-103152D01*
X162708Y-103200D01*
X162682Y-103223D01*
X162629Y-103247D01*
X162577Y-103247D01*
X162525Y-103223D01*
X162498Y-103200D01*
X162472Y-103152D01*
X162472Y-103033D01*
X162498Y-102961D01*
X162472Y-102819D02*
X162472Y-102533D01*
X163022Y-102676D02*
X162472Y-102676D01*
X162472Y-102271D02*
X162472Y-102176D01*
X162498Y-102128D01*
X162551Y-102080D01*
X162655Y-102057D01*
X162839Y-102057D01*
X162944Y-102080D01*
X162996Y-102128D01*
X163022Y-102176D01*
X163022Y-102271D01*
X162996Y-102319D01*
X162944Y-102366D01*
X162839Y-102390D01*
X162655Y-102390D01*
X162551Y-102366D01*
X162498Y-102319D01*
X162472Y-102271D01*
X163022Y-101557D02*
X162760Y-101723D01*
X163022Y-101842D02*
X162472Y-101842D01*
X162472Y-101652D01*
X162498Y-101604D01*
X162525Y-101580D01*
X162577Y-101557D01*
X162655Y-101557D01*
X162708Y-101580D01*
X162734Y-101604D01*
X162760Y-101652D01*
X162760Y-101842D01*
G54D25*
X135804Y-110371D02*
X135828Y-110395D01*
X135852Y-110466D01*
X135852Y-110514D01*
X135828Y-110585D01*
X135780Y-110633D01*
X135733Y-110657D01*
X135638Y-110680D01*
X135566Y-110680D01*
X135471Y-110657D01*
X135423Y-110633D01*
X135376Y-110585D01*
X135352Y-110514D01*
X135352Y-110466D01*
X135376Y-110395D01*
X135400Y-110371D01*
X135400Y-110180D02*
X135376Y-110157D01*
X135352Y-110109D01*
X135352Y-109990D01*
X135376Y-109942D01*
X135400Y-109919D01*
X135447Y-109895D01*
X135495Y-109895D01*
X135566Y-109919D01*
X135852Y-110204D01*
X135852Y-109895D01*
X135352Y-109585D02*
X135352Y-109538D01*
X135376Y-109490D01*
X135400Y-109466D01*
X135447Y-109442D01*
X135542Y-109419D01*
X135661Y-109419D01*
X135757Y-109442D01*
X135804Y-109466D01*
X135828Y-109490D01*
X135852Y-109538D01*
X135852Y-109585D01*
X135828Y-109633D01*
X135804Y-109657D01*
X135757Y-109680D01*
X135661Y-109704D01*
X135542Y-109704D01*
X135447Y-109680D01*
X135400Y-109657D01*
X135376Y-109633D01*
X135352Y-109585D01*
G54D19*
X133752Y-121742D02*
X133752Y-121971D01*
X133752Y-121857D02*
X133252Y-121794D01*
X133323Y-121841D01*
X133371Y-121885D01*
X133395Y-121926D01*
X133252Y-121432D02*
X133252Y-121394D01*
X133276Y-121359D01*
X133300Y-121343D01*
X133347Y-121330D01*
X133442Y-121323D01*
X133561Y-121338D01*
X133657Y-121369D01*
X133704Y-121394D01*
X133728Y-121416D01*
X133752Y-121457D01*
X133752Y-121495D01*
X133728Y-121530D01*
X133704Y-121546D01*
X133657Y-121559D01*
X133561Y-121566D01*
X133442Y-121551D01*
X133347Y-121520D01*
X133300Y-121495D01*
X133276Y-121473D01*
X133252Y-121432D01*
X133252Y-121051D02*
X133252Y-121013D01*
X133276Y-120978D01*
X133300Y-120962D01*
X133347Y-120949D01*
X133442Y-120942D01*
X133561Y-120957D01*
X133657Y-120988D01*
X133704Y-121013D01*
X133728Y-121035D01*
X133752Y-121076D01*
X133752Y-121114D01*
X133728Y-121149D01*
X133704Y-121165D01*
X133657Y-121178D01*
X133561Y-121185D01*
X133442Y-121170D01*
X133347Y-121139D01*
X133300Y-121114D01*
X133276Y-121092D01*
X133252Y-121051D01*
X133419Y-120596D02*
X133752Y-120638D01*
X133419Y-120767D02*
X133680Y-120800D01*
X133728Y-120787D01*
X133752Y-120752D01*
X133752Y-120695D01*
X133728Y-120654D01*
X133704Y-120632D01*
X133490Y-120281D02*
X133490Y-120414D01*
X133752Y-120447D02*
X133252Y-120385D01*
X133252Y-120194D01*
X133752Y-119590D02*
X133752Y-119819D01*
X133752Y-119704D02*
X133252Y-119642D01*
X133323Y-119689D01*
X133371Y-119733D01*
X133395Y-119774D01*
X133252Y-119185D02*
X133252Y-119261D01*
X133276Y-119302D01*
X133300Y-119324D01*
X133371Y-119371D01*
X133466Y-119402D01*
X133657Y-119426D01*
X133704Y-119413D01*
X133728Y-119397D01*
X133752Y-119361D01*
X133752Y-119285D01*
X133728Y-119244D01*
X133704Y-119222D01*
X133657Y-119197D01*
X133538Y-119182D01*
X133490Y-119195D01*
X133466Y-119211D01*
X133442Y-119247D01*
X133442Y-119323D01*
X133466Y-119364D01*
X133490Y-119386D01*
X133538Y-119411D01*
X133252Y-119032D02*
X133752Y-118961D01*
X133252Y-118766D01*
G54D25*
X134361Y-109890D02*
X134361Y-109509D01*
X134552Y-109700D02*
X134171Y-109700D01*
G54D19*
X138761Y-87750D02*
X138723Y-87721D01*
X138685Y-87664D01*
X138628Y-87578D01*
X138590Y-87550D01*
X138552Y-87550D01*
X138571Y-87692D02*
X138533Y-87664D01*
X138495Y-87607D01*
X138476Y-87492D01*
X138476Y-87292D01*
X138495Y-87178D01*
X138533Y-87121D01*
X138571Y-87092D01*
X138647Y-87092D01*
X138685Y-87121D01*
X138723Y-87178D01*
X138742Y-87292D01*
X138742Y-87492D01*
X138723Y-87607D01*
X138685Y-87664D01*
X138647Y-87692D01*
X138571Y-87692D01*
X139123Y-87692D02*
X138895Y-87692D01*
X139009Y-87692D02*
X139009Y-87092D01*
X138971Y-87178D01*
X138933Y-87235D01*
X138895Y-87264D01*
X139364Y-83809D02*
X139392Y-83752D01*
X139392Y-83657D01*
X139364Y-83619D01*
X139335Y-83600D01*
X139278Y-83580D01*
X139221Y-83580D01*
X139164Y-83600D01*
X139135Y-83619D01*
X139107Y-83657D01*
X139078Y-83733D01*
X139050Y-83771D01*
X139021Y-83790D01*
X138964Y-83809D01*
X138907Y-83809D01*
X138850Y-83790D01*
X138821Y-83771D01*
X138792Y-83733D01*
X138792Y-83638D01*
X138821Y-83580D01*
X138792Y-83466D02*
X138792Y-83238D01*
X139392Y-83352D02*
X138792Y-83352D01*
X139392Y-83104D02*
X138792Y-83104D01*
X138792Y-82952D01*
X138821Y-82914D01*
X138850Y-82895D01*
X138907Y-82876D01*
X138992Y-82876D01*
X139050Y-82895D01*
X139078Y-82914D01*
X139107Y-82952D01*
X139107Y-83104D01*
X138792Y-82533D02*
X138792Y-82609D01*
X138821Y-82647D01*
X138850Y-82666D01*
X138935Y-82704D01*
X139050Y-82723D01*
X139278Y-82723D01*
X139335Y-82704D01*
X139364Y-82685D01*
X139392Y-82647D01*
X139392Y-82571D01*
X139364Y-82533D01*
X139335Y-82514D01*
X139278Y-82495D01*
X139135Y-82495D01*
X139078Y-82514D01*
X139050Y-82533D01*
X139021Y-82571D01*
X139021Y-82647D01*
X139050Y-82685D01*
X139078Y-82704D01*
X139135Y-82723D01*
X138792Y-82247D02*
X138792Y-82209D01*
X138821Y-82171D01*
X138850Y-82152D01*
X138907Y-82133D01*
X139021Y-82114D01*
X139164Y-82114D01*
X139278Y-82133D01*
X139335Y-82152D01*
X139364Y-82171D01*
X139392Y-82209D01*
X139392Y-82247D01*
X139364Y-82285D01*
X139335Y-82304D01*
X139278Y-82323D01*
X139164Y-82342D01*
X139021Y-82342D01*
X138907Y-82323D01*
X138850Y-82304D01*
X138821Y-82285D01*
X138792Y-82247D01*
X139392Y-81942D02*
X138792Y-81942D01*
X139392Y-81714D01*
X138792Y-81714D01*
X139078Y-81390D02*
X139078Y-81523D01*
X139392Y-81523D02*
X138792Y-81523D01*
X138792Y-81333D01*
X138792Y-81104D02*
X138792Y-81066D01*
X138821Y-81028D01*
X138850Y-81009D01*
X138907Y-80990D01*
X139021Y-80971D01*
X139164Y-80971D01*
X139278Y-80990D01*
X139335Y-81009D01*
X139364Y-81028D01*
X139392Y-81066D01*
X139392Y-81104D01*
X139364Y-81142D01*
X139335Y-81161D01*
X139278Y-81180D01*
X139164Y-81200D01*
X139021Y-81200D01*
X138907Y-81180D01*
X138850Y-81161D01*
X138821Y-81142D01*
X138792Y-81104D01*
X138792Y-80628D02*
X138792Y-80704D01*
X138821Y-80742D01*
X138850Y-80761D01*
X138935Y-80800D01*
X139050Y-80819D01*
X139278Y-80819D01*
X139335Y-80800D01*
X139364Y-80780D01*
X139392Y-80742D01*
X139392Y-80666D01*
X139364Y-80628D01*
X139335Y-80609D01*
X139278Y-80590D01*
X139135Y-80590D01*
X139078Y-80609D01*
X139050Y-80628D01*
X139021Y-80666D01*
X139021Y-80742D01*
X139050Y-80780D01*
X139078Y-80800D01*
X139135Y-80819D01*
X145556Y-112525D02*
X145518Y-112496D01*
X145480Y-112439D01*
X145423Y-112353D01*
X145385Y-112325D01*
X145347Y-112325D01*
X145366Y-112467D02*
X145328Y-112439D01*
X145290Y-112382D01*
X145271Y-112267D01*
X145271Y-112067D01*
X145290Y-111953D01*
X145328Y-111896D01*
X145366Y-111867D01*
X145442Y-111867D01*
X145480Y-111896D01*
X145518Y-111953D01*
X145537Y-112067D01*
X145537Y-112267D01*
X145518Y-112382D01*
X145480Y-112439D01*
X145442Y-112467D01*
X145366Y-112467D01*
X145880Y-112067D02*
X145880Y-112467D01*
X145785Y-111839D02*
X145690Y-112267D01*
X145937Y-112267D01*
X140478Y-123514D02*
X140478Y-123647D01*
X140792Y-123647D02*
X140192Y-123647D01*
X140192Y-123457D01*
X140792Y-123304D02*
X140192Y-123304D01*
X140192Y-123209D01*
X140221Y-123152D01*
X140278Y-123114D01*
X140335Y-123095D01*
X140450Y-123076D01*
X140535Y-123076D01*
X140650Y-123095D01*
X140707Y-123114D01*
X140764Y-123152D01*
X140792Y-123209D01*
X140792Y-123304D01*
X140792Y-122904D02*
X140192Y-122904D01*
X140192Y-122752D01*
X140221Y-122714D01*
X140250Y-122695D01*
X140307Y-122676D01*
X140392Y-122676D01*
X140450Y-122695D01*
X140478Y-122714D01*
X140507Y-122752D01*
X140507Y-122904D01*
X140792Y-122295D02*
X140792Y-122523D01*
X140792Y-122409D02*
X140192Y-122409D01*
X140278Y-122447D01*
X140335Y-122485D01*
X140364Y-122523D01*
X140192Y-122047D02*
X140192Y-122009D01*
X140221Y-121971D01*
X140250Y-121952D01*
X140307Y-121933D01*
X140421Y-121914D01*
X140564Y-121914D01*
X140678Y-121933D01*
X140735Y-121952D01*
X140764Y-121971D01*
X140792Y-122009D01*
X140792Y-122047D01*
X140764Y-122085D01*
X140735Y-122104D01*
X140678Y-122123D01*
X140564Y-122142D01*
X140421Y-122142D01*
X140307Y-122123D01*
X140250Y-122104D01*
X140221Y-122085D01*
X140192Y-122047D01*
X140792Y-121742D02*
X140192Y-121742D01*
X140792Y-121514D01*
X140192Y-121514D01*
X140192Y-121152D02*
X140192Y-121228D01*
X140221Y-121266D01*
X140250Y-121285D01*
X140335Y-121323D01*
X140450Y-121342D01*
X140678Y-121342D01*
X140735Y-121323D01*
X140764Y-121304D01*
X140792Y-121266D01*
X140792Y-121190D01*
X140764Y-121152D01*
X140735Y-121133D01*
X140678Y-121114D01*
X140535Y-121114D01*
X140478Y-121133D01*
X140450Y-121152D01*
X140421Y-121190D01*
X140421Y-121266D01*
X140450Y-121304D01*
X140478Y-121323D01*
X140535Y-121342D01*
X140192Y-120866D02*
X140192Y-120828D01*
X140221Y-120790D01*
X140250Y-120771D01*
X140307Y-120752D01*
X140421Y-120733D01*
X140564Y-120733D01*
X140678Y-120752D01*
X140735Y-120771D01*
X140764Y-120790D01*
X140792Y-120828D01*
X140792Y-120866D01*
X140764Y-120904D01*
X140735Y-120923D01*
X140678Y-120942D01*
X140564Y-120961D01*
X140421Y-120961D01*
X140307Y-120942D01*
X140250Y-120923D01*
X140221Y-120904D01*
X140192Y-120866D01*
X136161Y-111950D02*
X136123Y-111921D01*
X136085Y-111864D01*
X136028Y-111778D01*
X135990Y-111750D01*
X135952Y-111750D01*
X135971Y-111892D02*
X135933Y-111864D01*
X135895Y-111807D01*
X135876Y-111692D01*
X135876Y-111492D01*
X135895Y-111378D01*
X135933Y-111321D01*
X135971Y-111292D01*
X136047Y-111292D01*
X136085Y-111321D01*
X136123Y-111378D01*
X136142Y-111492D01*
X136142Y-111692D01*
X136123Y-111807D01*
X136085Y-111864D01*
X136047Y-111892D01*
X135971Y-111892D01*
X136276Y-111292D02*
X136523Y-111292D01*
X136390Y-111521D01*
X136447Y-111521D01*
X136485Y-111550D01*
X136504Y-111578D01*
X136523Y-111635D01*
X136523Y-111778D01*
X136504Y-111835D01*
X136485Y-111864D01*
X136447Y-111892D01*
X136333Y-111892D01*
X136295Y-111864D01*
X136276Y-111835D01*
X139228Y-123214D02*
X139228Y-123347D01*
X139542Y-123347D02*
X138942Y-123347D01*
X138942Y-123157D01*
X139542Y-123004D02*
X138942Y-123004D01*
X138942Y-122909D01*
X138971Y-122852D01*
X139028Y-122814D01*
X139085Y-122795D01*
X139200Y-122776D01*
X139285Y-122776D01*
X139400Y-122795D01*
X139457Y-122814D01*
X139514Y-122852D01*
X139542Y-122909D01*
X139542Y-123004D01*
X139542Y-122604D02*
X138942Y-122604D01*
X138942Y-122452D01*
X138971Y-122414D01*
X139000Y-122395D01*
X139057Y-122376D01*
X139142Y-122376D01*
X139200Y-122395D01*
X139228Y-122414D01*
X139257Y-122452D01*
X139257Y-122604D01*
X139542Y-121995D02*
X139542Y-122223D01*
X139542Y-122109D02*
X138942Y-122109D01*
X139028Y-122147D01*
X139085Y-122185D01*
X139114Y-122223D01*
X138942Y-121747D02*
X138942Y-121709D01*
X138971Y-121671D01*
X139000Y-121652D01*
X139057Y-121633D01*
X139171Y-121614D01*
X139314Y-121614D01*
X139428Y-121633D01*
X139485Y-121652D01*
X139514Y-121671D01*
X139542Y-121709D01*
X139542Y-121747D01*
X139514Y-121785D01*
X139485Y-121804D01*
X139428Y-121823D01*
X139314Y-121842D01*
X139171Y-121842D01*
X139057Y-121823D01*
X139000Y-121804D01*
X138971Y-121785D01*
X138942Y-121747D01*
X139542Y-121442D02*
X138942Y-121442D01*
X139542Y-121214D01*
X138942Y-121214D01*
X138942Y-120852D02*
X138942Y-120928D01*
X138971Y-120966D01*
X139000Y-120985D01*
X139085Y-121023D01*
X139200Y-121042D01*
X139428Y-121042D01*
X139485Y-121023D01*
X139514Y-121004D01*
X139542Y-120966D01*
X139542Y-120890D01*
X139514Y-120852D01*
X139485Y-120833D01*
X139428Y-120814D01*
X139285Y-120814D01*
X139228Y-120833D01*
X139200Y-120852D01*
X139171Y-120890D01*
X139171Y-120966D01*
X139200Y-121004D01*
X139228Y-121023D01*
X139285Y-121042D01*
X138942Y-120566D02*
X138942Y-120528D01*
X138971Y-120490D01*
X139000Y-120471D01*
X139057Y-120452D01*
X139171Y-120433D01*
X139314Y-120433D01*
X139428Y-120452D01*
X139485Y-120471D01*
X139514Y-120490D01*
X139542Y-120528D01*
X139542Y-120566D01*
X139514Y-120604D01*
X139485Y-120623D01*
X139428Y-120642D01*
X139314Y-120661D01*
X139171Y-120661D01*
X139057Y-120642D01*
X139000Y-120623D01*
X138971Y-120604D01*
X138942Y-120566D01*
X145511Y-87700D02*
X145473Y-87671D01*
X145435Y-87614D01*
X145378Y-87528D01*
X145340Y-87500D01*
X145302Y-87500D01*
X145321Y-87642D02*
X145283Y-87614D01*
X145245Y-87557D01*
X145226Y-87442D01*
X145226Y-87242D01*
X145245Y-87128D01*
X145283Y-87071D01*
X145321Y-87042D01*
X145397Y-87042D01*
X145435Y-87071D01*
X145473Y-87128D01*
X145492Y-87242D01*
X145492Y-87442D01*
X145473Y-87557D01*
X145435Y-87614D01*
X145397Y-87642D01*
X145321Y-87642D01*
X145645Y-87100D02*
X145664Y-87071D01*
X145702Y-87042D01*
X145797Y-87042D01*
X145835Y-87071D01*
X145854Y-87100D01*
X145873Y-87157D01*
X145873Y-87214D01*
X145854Y-87300D01*
X145626Y-87642D01*
X145873Y-87642D01*
X146064Y-83909D02*
X146092Y-83852D01*
X146092Y-83757D01*
X146064Y-83719D01*
X146035Y-83700D01*
X145978Y-83680D01*
X145921Y-83680D01*
X145864Y-83700D01*
X145835Y-83719D01*
X145807Y-83757D01*
X145778Y-83833D01*
X145750Y-83871D01*
X145721Y-83890D01*
X145664Y-83909D01*
X145607Y-83909D01*
X145550Y-83890D01*
X145521Y-83871D01*
X145492Y-83833D01*
X145492Y-83738D01*
X145521Y-83680D01*
X145492Y-83566D02*
X145492Y-83338D01*
X146092Y-83452D02*
X145492Y-83452D01*
X146092Y-83204D02*
X145492Y-83204D01*
X145492Y-83052D01*
X145521Y-83014D01*
X145550Y-82995D01*
X145607Y-82976D01*
X145692Y-82976D01*
X145750Y-82995D01*
X145778Y-83014D01*
X145807Y-83052D01*
X145807Y-83204D01*
X145492Y-82633D02*
X145492Y-82709D01*
X145521Y-82747D01*
X145550Y-82766D01*
X145635Y-82804D01*
X145750Y-82823D01*
X145978Y-82823D01*
X146035Y-82804D01*
X146064Y-82785D01*
X146092Y-82747D01*
X146092Y-82671D01*
X146064Y-82633D01*
X146035Y-82614D01*
X145978Y-82595D01*
X145835Y-82595D01*
X145778Y-82614D01*
X145750Y-82633D01*
X145721Y-82671D01*
X145721Y-82747D01*
X145750Y-82785D01*
X145778Y-82804D01*
X145835Y-82823D01*
X145492Y-82347D02*
X145492Y-82309D01*
X145521Y-82271D01*
X145550Y-82252D01*
X145607Y-82233D01*
X145721Y-82214D01*
X145864Y-82214D01*
X145978Y-82233D01*
X146035Y-82252D01*
X146064Y-82271D01*
X146092Y-82309D01*
X146092Y-82347D01*
X146064Y-82385D01*
X146035Y-82404D01*
X145978Y-82423D01*
X145864Y-82442D01*
X145721Y-82442D01*
X145607Y-82423D01*
X145550Y-82404D01*
X145521Y-82385D01*
X145492Y-82347D01*
X146092Y-82042D02*
X145492Y-82042D01*
X146092Y-81814D01*
X145492Y-81814D01*
X145778Y-81490D02*
X145778Y-81623D01*
X146092Y-81623D02*
X145492Y-81623D01*
X145492Y-81433D01*
X145492Y-81204D02*
X145492Y-81166D01*
X145521Y-81128D01*
X145550Y-81109D01*
X145607Y-81090D01*
X145721Y-81071D01*
X145864Y-81071D01*
X145978Y-81090D01*
X146035Y-81109D01*
X146064Y-81128D01*
X146092Y-81166D01*
X146092Y-81204D01*
X146064Y-81242D01*
X146035Y-81261D01*
X145978Y-81280D01*
X145864Y-81300D01*
X145721Y-81300D01*
X145607Y-81280D01*
X145550Y-81261D01*
X145521Y-81242D01*
X145492Y-81204D01*
X145492Y-80728D02*
X145492Y-80804D01*
X145521Y-80842D01*
X145550Y-80861D01*
X145635Y-80900D01*
X145750Y-80919D01*
X145978Y-80919D01*
X146035Y-80900D01*
X146064Y-80880D01*
X146092Y-80842D01*
X146092Y-80766D01*
X146064Y-80728D01*
X146035Y-80709D01*
X145978Y-80690D01*
X145835Y-80690D01*
X145778Y-80709D01*
X145750Y-80728D01*
X145721Y-80766D01*
X145721Y-80842D01*
X145750Y-80880D01*
X145778Y-80900D01*
X145835Y-80919D01*
G54D14*
X124533Y-111067D02*
X124366Y-110829D01*
X124247Y-111067D02*
X124247Y-110567D01*
X124438Y-110567D01*
X124485Y-110591D01*
X124509Y-110615D01*
X124533Y-110662D01*
X124533Y-110734D01*
X124509Y-110781D01*
X124485Y-110805D01*
X124438Y-110829D01*
X124247Y-110829D01*
X124700Y-110567D02*
X125009Y-110567D01*
X124843Y-110757D01*
X124914Y-110757D01*
X124962Y-110781D01*
X124985Y-110805D01*
X125009Y-110853D01*
X125009Y-110972D01*
X124985Y-111019D01*
X124962Y-111043D01*
X124914Y-111067D01*
X124771Y-111067D01*
X124724Y-111043D01*
X124700Y-111019D01*
X125295Y-110781D02*
X125247Y-110757D01*
X125224Y-110734D01*
X125200Y-110686D01*
X125200Y-110662D01*
X125224Y-110615D01*
X125247Y-110591D01*
X125295Y-110567D01*
X125390Y-110567D01*
X125438Y-110591D01*
X125462Y-110615D01*
X125485Y-110662D01*
X125485Y-110686D01*
X125462Y-110734D01*
X125438Y-110757D01*
X125390Y-110781D01*
X125295Y-110781D01*
X125247Y-110805D01*
X125224Y-110829D01*
X125200Y-110876D01*
X125200Y-110972D01*
X125224Y-111019D01*
X125247Y-111043D01*
X125295Y-111067D01*
X125390Y-111067D01*
X125438Y-111043D01*
X125462Y-111019D01*
X125485Y-110972D01*
X125485Y-110876D01*
X125462Y-110829D01*
X125438Y-110805D01*
X125390Y-110781D01*
X122304Y-122802D02*
X122019Y-122802D01*
X122161Y-122802D02*
X122161Y-122302D01*
X122114Y-122373D01*
X122066Y-122421D01*
X122019Y-122445D01*
X122614Y-122302D02*
X122661Y-122302D01*
X122709Y-122326D01*
X122733Y-122350D01*
X122757Y-122397D01*
X122780Y-122492D01*
X122780Y-122611D01*
X122757Y-122707D01*
X122733Y-122754D01*
X122709Y-122778D01*
X122661Y-122802D01*
X122614Y-122802D01*
X122566Y-122778D01*
X122542Y-122754D01*
X122519Y-122707D01*
X122495Y-122611D01*
X122495Y-122492D01*
X122519Y-122397D01*
X122542Y-122350D01*
X122566Y-122326D01*
X122614Y-122302D01*
X122995Y-122802D02*
X122995Y-122302D01*
X123280Y-122802D02*
X123066Y-122516D01*
X123280Y-122302D02*
X122995Y-122588D01*
X137402Y-87821D02*
X137164Y-87988D01*
X137402Y-88107D02*
X136902Y-88107D01*
X136902Y-87916D01*
X136926Y-87869D01*
X136950Y-87845D01*
X136997Y-87821D01*
X137069Y-87821D01*
X137116Y-87845D01*
X137140Y-87869D01*
X137164Y-87916D01*
X137164Y-88107D01*
X136902Y-87654D02*
X136902Y-87345D01*
X137092Y-87511D01*
X137092Y-87440D01*
X137116Y-87392D01*
X137140Y-87369D01*
X137188Y-87345D01*
X137307Y-87345D01*
X137354Y-87369D01*
X137378Y-87392D01*
X137402Y-87440D01*
X137402Y-87583D01*
X137378Y-87630D01*
X137354Y-87654D01*
X137402Y-86869D02*
X137402Y-87154D01*
X137402Y-87011D02*
X136902Y-87011D01*
X136973Y-87059D01*
X137021Y-87107D01*
X137045Y-87154D01*
X138552Y-80895D02*
X138552Y-81180D01*
X138552Y-81038D02*
X138052Y-81038D01*
X138123Y-81085D01*
X138171Y-81133D01*
X138195Y-81180D01*
X138052Y-80585D02*
X138052Y-80538D01*
X138076Y-80490D01*
X138100Y-80466D01*
X138147Y-80442D01*
X138242Y-80419D01*
X138361Y-80419D01*
X138457Y-80442D01*
X138504Y-80466D01*
X138528Y-80490D01*
X138552Y-80538D01*
X138552Y-80585D01*
X138528Y-80633D01*
X138504Y-80657D01*
X138457Y-80680D01*
X138361Y-80704D01*
X138242Y-80704D01*
X138147Y-80680D01*
X138100Y-80657D01*
X138076Y-80633D01*
X138052Y-80585D01*
X138552Y-80204D02*
X138052Y-80204D01*
X138552Y-79919D02*
X138266Y-80133D01*
X138052Y-79919D02*
X138338Y-80204D01*
G54D18*
X128657Y-87861D02*
X128657Y-88185D01*
X128678Y-88223D01*
X128700Y-88242D01*
X128742Y-88261D01*
X128828Y-88261D01*
X128871Y-88242D01*
X128892Y-88223D01*
X128914Y-88185D01*
X128914Y-87861D01*
X129364Y-88261D02*
X129107Y-88261D01*
X129235Y-88261D02*
X129235Y-87861D01*
X129192Y-87919D01*
X129150Y-87957D01*
X129107Y-87976D01*
X127146Y-82011D02*
X127403Y-82011D01*
X127275Y-82411D02*
X127275Y-82011D01*
X127767Y-82411D02*
X127553Y-82411D01*
X127553Y-82011D01*
X128110Y-82145D02*
X128110Y-82411D01*
X128003Y-81992D02*
X127896Y-82278D01*
X128175Y-82278D01*
X128367Y-82411D02*
X128453Y-82411D01*
X128496Y-82392D01*
X128517Y-82373D01*
X128560Y-82316D01*
X128582Y-82240D01*
X128582Y-82088D01*
X128560Y-82050D01*
X128539Y-82030D01*
X128496Y-82011D01*
X128410Y-82011D01*
X128367Y-82030D01*
X128346Y-82050D01*
X128325Y-82088D01*
X128325Y-82183D01*
X128346Y-82221D01*
X128367Y-82240D01*
X128410Y-82259D01*
X128496Y-82259D01*
X128539Y-82240D01*
X128560Y-82221D01*
X128582Y-82183D01*
X128967Y-82145D02*
X128967Y-82411D01*
X128860Y-81992D02*
X128753Y-82278D01*
X129032Y-82278D01*
G54D25*
X132754Y-89433D02*
X132778Y-89457D01*
X132802Y-89528D01*
X132802Y-89576D01*
X132778Y-89647D01*
X132730Y-89695D01*
X132683Y-89719D01*
X132588Y-89742D01*
X132516Y-89742D01*
X132421Y-89719D01*
X132373Y-89695D01*
X132326Y-89647D01*
X132302Y-89576D01*
X132302Y-89528D01*
X132326Y-89457D01*
X132350Y-89433D01*
X132302Y-89266D02*
X132302Y-88957D01*
X132492Y-89123D01*
X132492Y-89052D01*
X132516Y-89004D01*
X132540Y-88980D01*
X132588Y-88957D01*
X132707Y-88957D01*
X132754Y-88980D01*
X132778Y-89004D01*
X132802Y-89052D01*
X132802Y-89195D01*
X132778Y-89242D01*
X132754Y-89266D01*
G54D19*
X132352Y-77800D02*
X132352Y-78028D01*
X132352Y-77914D02*
X131852Y-77851D01*
X131923Y-77898D01*
X131971Y-77942D01*
X131995Y-77983D01*
X131852Y-77489D02*
X131852Y-77451D01*
X131876Y-77416D01*
X131900Y-77400D01*
X131947Y-77387D01*
X132042Y-77380D01*
X132161Y-77395D01*
X132257Y-77426D01*
X132304Y-77451D01*
X132328Y-77473D01*
X132352Y-77514D01*
X132352Y-77552D01*
X132328Y-77587D01*
X132304Y-77603D01*
X132257Y-77616D01*
X132161Y-77623D01*
X132042Y-77608D01*
X131947Y-77577D01*
X131900Y-77552D01*
X131876Y-77530D01*
X131852Y-77489D01*
X132019Y-76729D02*
X132352Y-76771D01*
X132019Y-76901D02*
X132280Y-76933D01*
X132328Y-76920D01*
X132352Y-76885D01*
X132352Y-76828D01*
X132328Y-76787D01*
X132304Y-76765D01*
X132090Y-76414D02*
X132090Y-76548D01*
X132352Y-76580D02*
X131852Y-76518D01*
X131852Y-76327D01*
G54D25*
X131361Y-89090D02*
X131361Y-88709D01*
X131552Y-88900D02*
X131171Y-88900D01*
G54D14*
X125002Y-91346D02*
X124764Y-91513D01*
X125002Y-91632D02*
X124502Y-91632D01*
X124502Y-91441D01*
X124526Y-91394D01*
X124550Y-91370D01*
X124597Y-91346D01*
X124669Y-91346D01*
X124716Y-91370D01*
X124740Y-91394D01*
X124764Y-91441D01*
X124764Y-91632D01*
X125002Y-90870D02*
X125002Y-91155D01*
X125002Y-91013D02*
X124502Y-91013D01*
X124573Y-91060D01*
X124621Y-91108D01*
X124645Y-91155D01*
X124502Y-90441D02*
X124502Y-90536D01*
X124526Y-90584D01*
X124550Y-90608D01*
X124621Y-90655D01*
X124716Y-90679D01*
X124907Y-90679D01*
X124954Y-90655D01*
X124978Y-90632D01*
X125002Y-90584D01*
X125002Y-90489D01*
X124978Y-90441D01*
X124954Y-90417D01*
X124907Y-90394D01*
X124788Y-90394D01*
X124740Y-90417D01*
X124716Y-90441D01*
X124692Y-90489D01*
X124692Y-90584D01*
X124716Y-90632D01*
X124740Y-90655D01*
X124788Y-90679D01*
X131152Y-81295D02*
X131152Y-81580D01*
X131152Y-81438D02*
X130652Y-81438D01*
X130723Y-81485D01*
X130771Y-81533D01*
X130795Y-81580D01*
X130652Y-80985D02*
X130652Y-80938D01*
X130676Y-80890D01*
X130700Y-80866D01*
X130747Y-80842D01*
X130842Y-80819D01*
X130961Y-80819D01*
X131057Y-80842D01*
X131104Y-80866D01*
X131128Y-80890D01*
X131152Y-80938D01*
X131152Y-80985D01*
X131128Y-81033D01*
X131104Y-81057D01*
X131057Y-81080D01*
X130961Y-81104D01*
X130842Y-81104D01*
X130747Y-81080D01*
X130700Y-81057D01*
X130676Y-81033D01*
X130652Y-80985D01*
X131152Y-80604D02*
X130652Y-80604D01*
X131152Y-80319D02*
X130866Y-80533D01*
X130652Y-80319D02*
X130938Y-80604D01*
G54D17*
X136342Y-100042D02*
X136685Y-100042D01*
X136514Y-100642D02*
X136514Y-100042D01*
X137200Y-100642D02*
X136857Y-100642D01*
X137028Y-100642D02*
X137028Y-100042D01*
X136971Y-100128D01*
X136914Y-100185D01*
X136857Y-100214D01*
X133828Y-97642D02*
X134171Y-97642D01*
X133999Y-98242D02*
X133999Y-97642D01*
X134714Y-98242D02*
X134514Y-97957D01*
X134371Y-98242D02*
X134371Y-97642D01*
X134600Y-97642D01*
X134657Y-97671D01*
X134685Y-97700D01*
X134714Y-97757D01*
X134714Y-97842D01*
X134685Y-97900D01*
X134657Y-97928D01*
X134600Y-97957D01*
X134371Y-97957D01*
X134942Y-98071D02*
X135228Y-98071D01*
X134885Y-98242D02*
X135085Y-97642D01*
X135285Y-98242D01*
X135485Y-98242D02*
X135485Y-97642D01*
X135828Y-98242D01*
X135828Y-97642D01*
X136085Y-98214D02*
X136171Y-98242D01*
X136314Y-98242D01*
X136371Y-98214D01*
X136399Y-98185D01*
X136428Y-98128D01*
X136428Y-98071D01*
X136399Y-98014D01*
X136371Y-97985D01*
X136314Y-97957D01*
X136199Y-97928D01*
X136142Y-97900D01*
X136114Y-97871D01*
X136085Y-97814D01*
X136085Y-97757D01*
X136114Y-97700D01*
X136142Y-97671D01*
X136199Y-97642D01*
X136342Y-97642D01*
X136428Y-97671D01*
X136885Y-97928D02*
X136685Y-97928D01*
X136685Y-98242D02*
X136685Y-97642D01*
X136971Y-97642D01*
X137057Y-98300D02*
X137514Y-98300D01*
X137657Y-97928D02*
X137857Y-97928D01*
X137942Y-98242D02*
X137657Y-98242D01*
X137657Y-97642D01*
X137942Y-97642D01*
X138114Y-97642D02*
X138457Y-97642D01*
X138285Y-98242D02*
X138285Y-97642D01*
X138771Y-97642D02*
X138828Y-97642D01*
X138885Y-97671D01*
X138914Y-97700D01*
X138942Y-97757D01*
X138971Y-97871D01*
X138971Y-98014D01*
X138942Y-98128D01*
X138914Y-98185D01*
X138885Y-98214D01*
X138828Y-98242D01*
X138771Y-98242D01*
X138714Y-98214D01*
X138685Y-98185D01*
X138657Y-98128D01*
X138628Y-98014D01*
X138628Y-97871D01*
X138657Y-97757D01*
X138685Y-97700D01*
X138714Y-97671D01*
X138771Y-97642D01*
X139200Y-97700D02*
X139228Y-97671D01*
X139285Y-97642D01*
X139428Y-97642D01*
X139485Y-97671D01*
X139514Y-97700D01*
X139542Y-97757D01*
X139542Y-97814D01*
X139514Y-97900D01*
X139171Y-98242D01*
X139542Y-98242D01*
X139828Y-98242D02*
X139942Y-98242D01*
X140000Y-98214D01*
X140028Y-98185D01*
X140085Y-98100D01*
X140114Y-97985D01*
X140114Y-97757D01*
X140085Y-97700D01*
X140057Y-97671D01*
X140000Y-97642D01*
X139885Y-97642D01*
X139828Y-97671D01*
X139800Y-97700D01*
X139771Y-97757D01*
X139771Y-97900D01*
X139800Y-97957D01*
X139828Y-97985D01*
X139885Y-98014D01*
X140000Y-98014D01*
X140057Y-97985D01*
X140085Y-97957D01*
X140114Y-97900D01*
G54D25*
X129104Y-94183D02*
X129128Y-94207D01*
X129152Y-94278D01*
X129152Y-94326D01*
X129128Y-94397D01*
X129080Y-94445D01*
X129033Y-94469D01*
X128938Y-94492D01*
X128866Y-94492D01*
X128771Y-94469D01*
X128723Y-94445D01*
X128676Y-94397D01*
X128652Y-94326D01*
X128652Y-94278D01*
X128676Y-94207D01*
X128700Y-94183D01*
X128652Y-94016D02*
X128652Y-93683D01*
X129152Y-93897D01*
G54D19*
X129802Y-76657D02*
X129802Y-76885D01*
X129802Y-76771D02*
X129302Y-76708D01*
X129373Y-76755D01*
X129421Y-76800D01*
X129445Y-76841D01*
X129469Y-76444D02*
X129802Y-76485D01*
X129516Y-76450D02*
X129492Y-76427D01*
X129469Y-76386D01*
X129469Y-76329D01*
X129492Y-76294D01*
X129540Y-76281D01*
X129802Y-76314D01*
X129540Y-75957D02*
X129540Y-76091D01*
X129802Y-76123D02*
X129302Y-76061D01*
X129302Y-75870D01*
G54D25*
X128261Y-92912D02*
X128261Y-92531D01*
X128452Y-92722D02*
X128071Y-92722D01*
X128328Y-92754D02*
X128304Y-92778D01*
X128233Y-92802D01*
X128185Y-92802D01*
X128114Y-92778D01*
X128066Y-92730D01*
X128042Y-92683D01*
X128019Y-92588D01*
X128019Y-92516D01*
X128042Y-92421D01*
X128066Y-92373D01*
X128114Y-92326D01*
X128185Y-92302D01*
X128233Y-92302D01*
X128304Y-92326D01*
X128328Y-92350D01*
X128804Y-92802D02*
X128519Y-92802D01*
X128661Y-92802D02*
X128661Y-92302D01*
X128614Y-92373D01*
X128566Y-92421D01*
X128519Y-92445D01*
X128971Y-92302D02*
X129280Y-92302D01*
X129114Y-92492D01*
X129185Y-92492D01*
X129233Y-92516D01*
X129257Y-92540D01*
X129280Y-92588D01*
X129280Y-92707D01*
X129257Y-92754D01*
X129233Y-92778D01*
X129185Y-92802D01*
X129042Y-92802D01*
X128995Y-92778D01*
X128971Y-92754D01*
G54D19*
X127150Y-82152D02*
X126921Y-82152D01*
X127035Y-82152D02*
X127098Y-81652D01*
X127051Y-81723D01*
X127007Y-81771D01*
X126966Y-81795D01*
X127460Y-81652D02*
X127498Y-81652D01*
X127533Y-81676D01*
X127549Y-81700D01*
X127562Y-81747D01*
X127569Y-81842D01*
X127554Y-81961D01*
X127523Y-82057D01*
X127498Y-82104D01*
X127476Y-82128D01*
X127435Y-82152D01*
X127397Y-82152D01*
X127362Y-82128D01*
X127346Y-82104D01*
X127333Y-82057D01*
X127326Y-81961D01*
X127341Y-81842D01*
X127372Y-81747D01*
X127397Y-81700D01*
X127419Y-81676D01*
X127460Y-81652D01*
X128220Y-81819D02*
X128178Y-82152D01*
X128048Y-81819D02*
X128016Y-82080D01*
X128029Y-82128D01*
X128064Y-82152D01*
X128121Y-82152D01*
X128162Y-82128D01*
X128184Y-82104D01*
X128535Y-81890D02*
X128401Y-81890D01*
X128369Y-82152D02*
X128431Y-81652D01*
X128622Y-81652D01*
G54D25*
X128859Y-91761D02*
X129240Y-91761D01*
X129050Y-91952D02*
X129050Y-91571D01*
G54D14*
X139352Y-108880D02*
X139757Y-108880D01*
X139804Y-108857D01*
X139828Y-108833D01*
X139852Y-108785D01*
X139852Y-108690D01*
X139828Y-108642D01*
X139804Y-108619D01*
X139757Y-108595D01*
X139352Y-108595D01*
X139352Y-108404D02*
X139352Y-108071D01*
X139852Y-108285D01*
X141952Y-122647D02*
X141952Y-122885D01*
X141452Y-122885D01*
X141452Y-122266D02*
X141452Y-122361D01*
X141476Y-122409D01*
X141500Y-122433D01*
X141571Y-122480D01*
X141666Y-122504D01*
X141857Y-122504D01*
X141904Y-122480D01*
X141928Y-122457D01*
X141952Y-122409D01*
X141952Y-122314D01*
X141928Y-122266D01*
X141904Y-122242D01*
X141857Y-122219D01*
X141738Y-122219D01*
X141690Y-122242D01*
X141666Y-122266D01*
X141642Y-122314D01*
X141642Y-122409D01*
X141666Y-122457D01*
X141690Y-122480D01*
X141738Y-122504D01*
X141452Y-121766D02*
X141452Y-122004D01*
X141690Y-122028D01*
X141666Y-122004D01*
X141642Y-121957D01*
X141642Y-121838D01*
X141666Y-121790D01*
X141690Y-121766D01*
X141738Y-121742D01*
X141857Y-121742D01*
X141904Y-121766D01*
X141928Y-121790D01*
X141952Y-121838D01*
X141952Y-121957D01*
X141928Y-122004D01*
X141904Y-122028D01*
X141452Y-121576D02*
X141452Y-121242D01*
X141952Y-121457D01*
X141952Y-120790D02*
X141952Y-121076D01*
X141952Y-120933D02*
X141452Y-120933D01*
X141523Y-120980D01*
X141571Y-121028D01*
X141595Y-121076D01*
X128528Y-85902D02*
X128361Y-85664D01*
X128242Y-85902D02*
X128242Y-85402D01*
X128433Y-85402D01*
X128480Y-85426D01*
X128504Y-85450D01*
X128528Y-85497D01*
X128528Y-85569D01*
X128504Y-85616D01*
X128480Y-85640D01*
X128433Y-85664D01*
X128242Y-85664D01*
X128695Y-85402D02*
X129004Y-85402D01*
X128838Y-85592D01*
X128909Y-85592D01*
X128957Y-85616D01*
X128980Y-85640D01*
X129004Y-85688D01*
X129004Y-85807D01*
X128980Y-85854D01*
X128957Y-85878D01*
X128909Y-85902D01*
X128766Y-85902D01*
X128719Y-85878D01*
X128695Y-85854D01*
X129433Y-85569D02*
X129433Y-85902D01*
X129314Y-85378D02*
X129195Y-85735D01*
X129504Y-85735D01*
X128604Y-84002D02*
X128319Y-84002D01*
X128461Y-84002D02*
X128461Y-83502D01*
X128414Y-83573D01*
X128366Y-83621D01*
X128319Y-83645D01*
X128914Y-83502D02*
X128961Y-83502D01*
X129009Y-83526D01*
X129033Y-83550D01*
X129057Y-83597D01*
X129080Y-83692D01*
X129080Y-83811D01*
X129057Y-83907D01*
X129033Y-83954D01*
X129009Y-83978D01*
X128961Y-84002D01*
X128914Y-84002D01*
X128866Y-83978D01*
X128842Y-83954D01*
X128819Y-83907D01*
X128795Y-83811D01*
X128795Y-83692D01*
X128819Y-83597D01*
X128842Y-83550D01*
X128866Y-83526D01*
X128914Y-83502D01*
G54D25*
X144908Y-107174D02*
X144884Y-107198D01*
X144813Y-107222D01*
X144765Y-107222D01*
X144694Y-107198D01*
X144646Y-107150D01*
X144622Y-107103D01*
X144599Y-107008D01*
X144599Y-106936D01*
X144622Y-106841D01*
X144646Y-106793D01*
X144694Y-106746D01*
X144765Y-106722D01*
X144813Y-106722D01*
X144884Y-106746D01*
X144908Y-106770D01*
X145099Y-106770D02*
X145122Y-106746D01*
X145170Y-106722D01*
X145289Y-106722D01*
X145337Y-106746D01*
X145360Y-106770D01*
X145384Y-106817D01*
X145384Y-106865D01*
X145360Y-106936D01*
X145075Y-107222D01*
X145384Y-107222D01*
X145813Y-106889D02*
X145813Y-107222D01*
X145694Y-106698D02*
X145575Y-107055D01*
X145884Y-107055D01*
G54D19*
X140507Y-121002D02*
X140278Y-121002D01*
X140392Y-121002D02*
X140455Y-120502D01*
X140408Y-120573D01*
X140364Y-120621D01*
X140323Y-120645D01*
X140817Y-120502D02*
X140855Y-120502D01*
X140890Y-120526D01*
X140906Y-120550D01*
X140919Y-120597D01*
X140926Y-120692D01*
X140911Y-120811D01*
X140880Y-120907D01*
X140855Y-120954D01*
X140833Y-120978D01*
X140792Y-121002D01*
X140754Y-121002D01*
X140719Y-120978D01*
X140703Y-120954D01*
X140690Y-120907D01*
X140683Y-120811D01*
X140698Y-120692D01*
X140729Y-120597D01*
X140754Y-120550D01*
X140776Y-120526D01*
X140817Y-120502D01*
X141198Y-120502D02*
X141236Y-120502D01*
X141271Y-120526D01*
X141287Y-120550D01*
X141300Y-120597D01*
X141307Y-120692D01*
X141292Y-120811D01*
X141261Y-120907D01*
X141236Y-120954D01*
X141214Y-120978D01*
X141173Y-121002D01*
X141135Y-121002D01*
X141100Y-120978D01*
X141084Y-120954D01*
X141071Y-120907D01*
X141064Y-120811D01*
X141079Y-120692D01*
X141110Y-120597D01*
X141135Y-120550D01*
X141157Y-120526D01*
X141198Y-120502D01*
X141653Y-120669D02*
X141611Y-121002D01*
X141482Y-120669D02*
X141449Y-120930D01*
X141462Y-120978D01*
X141497Y-121002D01*
X141554Y-121002D01*
X141595Y-120978D01*
X141617Y-120954D01*
X141968Y-120740D02*
X141835Y-120740D01*
X141802Y-121002D02*
X141864Y-120502D01*
X142055Y-120502D01*
X142659Y-121002D02*
X142430Y-121002D01*
X142545Y-121002D02*
X142607Y-120502D01*
X142560Y-120573D01*
X142516Y-120621D01*
X142475Y-120645D01*
X143064Y-120502D02*
X142988Y-120502D01*
X142947Y-120526D01*
X142925Y-120550D01*
X142878Y-120621D01*
X142847Y-120716D01*
X142823Y-120907D01*
X142836Y-120954D01*
X142852Y-120978D01*
X142888Y-121002D01*
X142964Y-121002D01*
X143005Y-120978D01*
X143027Y-120954D01*
X143052Y-120907D01*
X143067Y-120788D01*
X143054Y-120740D01*
X143038Y-120716D01*
X143002Y-120692D01*
X142926Y-120692D01*
X142885Y-120716D01*
X142863Y-120740D01*
X142838Y-120788D01*
X143217Y-120502D02*
X143288Y-121002D01*
X143483Y-120502D01*
G54D25*
X144689Y-105506D02*
X145070Y-105506D01*
X144880Y-105697D02*
X144880Y-105316D01*
G54D19*
X155197Y-109522D02*
X154911Y-109522D01*
X155054Y-109522D02*
X155054Y-108972D01*
X155007Y-109051D01*
X154959Y-109103D01*
X154911Y-109129D01*
X155411Y-109522D02*
X155411Y-108972D01*
X155578Y-109365D01*
X155745Y-108972D01*
X155745Y-109522D01*
X156459Y-108972D02*
X156507Y-108972D01*
X156554Y-108998D01*
X156578Y-109025D01*
X156602Y-109077D01*
X156626Y-109182D01*
X156626Y-109313D01*
X156602Y-109417D01*
X156578Y-109470D01*
X156554Y-109496D01*
X156507Y-109522D01*
X156459Y-109522D01*
X156411Y-109496D01*
X156388Y-109470D01*
X156364Y-109417D01*
X156340Y-109313D01*
X156340Y-109182D01*
X156364Y-109077D01*
X156388Y-109025D01*
X156411Y-108998D01*
X156459Y-108972D01*
X156840Y-109470D02*
X156864Y-109496D01*
X156840Y-109522D01*
X156816Y-109496D01*
X156840Y-109470D01*
X156840Y-109522D01*
X157054Y-109025D02*
X157078Y-108998D01*
X157126Y-108972D01*
X157245Y-108972D01*
X157292Y-108998D01*
X157316Y-109025D01*
X157340Y-109077D01*
X157340Y-109129D01*
X157316Y-109208D01*
X157030Y-109522D01*
X157340Y-109522D01*
X157792Y-108972D02*
X157554Y-108972D01*
X157530Y-109234D01*
X157554Y-109208D01*
X157602Y-109182D01*
X157721Y-109182D01*
X157769Y-109208D01*
X157792Y-109234D01*
X157816Y-109286D01*
X157816Y-109417D01*
X157792Y-109470D01*
X157769Y-109496D01*
X157721Y-109522D01*
X157602Y-109522D01*
X157554Y-109496D01*
X157530Y-109470D01*
X157983Y-108972D02*
X158102Y-109522D01*
X158197Y-109129D01*
X158292Y-109522D01*
X158411Y-108972D01*
X155252Y-108192D02*
X154966Y-108192D01*
X155109Y-108192D02*
X155109Y-107642D01*
X155062Y-107721D01*
X155014Y-107773D01*
X154966Y-107799D01*
X155466Y-108192D02*
X155466Y-107642D01*
X155633Y-108035D01*
X155800Y-107642D01*
X155800Y-108192D01*
X156514Y-107642D02*
X156562Y-107642D01*
X156609Y-107668D01*
X156633Y-107695D01*
X156657Y-107747D01*
X156681Y-107852D01*
X156681Y-107983D01*
X156657Y-108087D01*
X156633Y-108140D01*
X156609Y-108166D01*
X156562Y-108192D01*
X156514Y-108192D01*
X156466Y-108166D01*
X156443Y-108140D01*
X156419Y-108087D01*
X156395Y-107983D01*
X156395Y-107852D01*
X156419Y-107747D01*
X156443Y-107695D01*
X156466Y-107668D01*
X156514Y-107642D01*
X156895Y-108140D02*
X156919Y-108166D01*
X156895Y-108192D01*
X156871Y-108166D01*
X156895Y-108140D01*
X156895Y-108192D01*
X157109Y-107695D02*
X157133Y-107668D01*
X157181Y-107642D01*
X157300Y-107642D01*
X157347Y-107668D01*
X157371Y-107695D01*
X157395Y-107747D01*
X157395Y-107799D01*
X157371Y-107878D01*
X157085Y-108192D01*
X157395Y-108192D01*
X157847Y-107642D02*
X157609Y-107642D01*
X157585Y-107904D01*
X157609Y-107878D01*
X157657Y-107852D01*
X157776Y-107852D01*
X157824Y-107878D01*
X157847Y-107904D01*
X157871Y-107956D01*
X157871Y-108087D01*
X157847Y-108140D01*
X157824Y-108166D01*
X157776Y-108192D01*
X157657Y-108192D01*
X157609Y-108166D01*
X157585Y-108140D01*
X158038Y-107642D02*
X158157Y-108192D01*
X158252Y-107799D01*
X158347Y-108192D01*
X158466Y-107642D01*
X144722Y-88695D02*
X144722Y-88980D01*
X144722Y-88838D02*
X144172Y-88838D01*
X144251Y-88885D01*
X144303Y-88933D01*
X144329Y-88980D01*
X144172Y-88385D02*
X144172Y-88338D01*
X144198Y-88290D01*
X144225Y-88266D01*
X144277Y-88242D01*
X144382Y-88219D01*
X144513Y-88219D01*
X144617Y-88242D01*
X144670Y-88266D01*
X144696Y-88290D01*
X144722Y-88338D01*
X144722Y-88385D01*
X144696Y-88433D01*
X144670Y-88457D01*
X144617Y-88480D01*
X144513Y-88504D01*
X144382Y-88504D01*
X144277Y-88480D01*
X144225Y-88457D01*
X144198Y-88433D01*
X144172Y-88385D01*
X139272Y-88895D02*
X139272Y-89180D01*
X139272Y-89038D02*
X138722Y-89038D01*
X138801Y-89085D01*
X138853Y-89133D01*
X138879Y-89180D01*
X138722Y-88585D02*
X138722Y-88538D01*
X138748Y-88490D01*
X138775Y-88466D01*
X138827Y-88442D01*
X138932Y-88419D01*
X139063Y-88419D01*
X139167Y-88442D01*
X139220Y-88466D01*
X139246Y-88490D01*
X139272Y-88538D01*
X139272Y-88585D01*
X139246Y-88633D01*
X139220Y-88657D01*
X139167Y-88680D01*
X139063Y-88704D01*
X138932Y-88704D01*
X138827Y-88680D01*
X138775Y-88657D01*
X138748Y-88633D01*
X138722Y-88585D01*
X128792Y-111873D02*
X128773Y-111892D01*
X128716Y-111911D01*
X128678Y-111911D01*
X128621Y-111892D01*
X128583Y-111854D01*
X128564Y-111816D01*
X128545Y-111740D01*
X128545Y-111683D01*
X128564Y-111607D01*
X128583Y-111569D01*
X128621Y-111530D01*
X128678Y-111511D01*
X128716Y-111511D01*
X128773Y-111530D01*
X128792Y-111550D01*
X128945Y-111550D02*
X128964Y-111530D01*
X129002Y-111511D01*
X129097Y-111511D01*
X129135Y-111530D01*
X129154Y-111550D01*
X129173Y-111588D01*
X129173Y-111626D01*
X129154Y-111683D01*
X128926Y-111911D01*
X129173Y-111911D01*
X129554Y-111911D02*
X129326Y-111911D01*
X129440Y-111911D02*
X129440Y-111511D01*
X129402Y-111569D01*
X129364Y-111607D01*
X129326Y-111626D01*
X128792Y-112823D02*
X128773Y-112842D01*
X128716Y-112861D01*
X128678Y-112861D01*
X128621Y-112842D01*
X128583Y-112804D01*
X128564Y-112766D01*
X128545Y-112690D01*
X128545Y-112633D01*
X128564Y-112557D01*
X128583Y-112519D01*
X128621Y-112480D01*
X128678Y-112461D01*
X128716Y-112461D01*
X128773Y-112480D01*
X128792Y-112500D01*
X128945Y-112500D02*
X128964Y-112480D01*
X129002Y-112461D01*
X129097Y-112461D01*
X129135Y-112480D01*
X129154Y-112500D01*
X129173Y-112538D01*
X129173Y-112576D01*
X129154Y-112633D01*
X128926Y-112861D01*
X129173Y-112861D01*
X129307Y-112461D02*
X129554Y-112461D01*
X129421Y-112614D01*
X129478Y-112614D01*
X129516Y-112633D01*
X129535Y-112652D01*
X129554Y-112690D01*
X129554Y-112785D01*
X129535Y-112823D01*
X129516Y-112842D01*
X129478Y-112861D01*
X129364Y-112861D01*
X129326Y-112842D01*
X129307Y-112823D01*
X130523Y-89307D02*
X130542Y-89326D01*
X130561Y-89383D01*
X130561Y-89421D01*
X130542Y-89478D01*
X130504Y-89516D01*
X130466Y-89535D01*
X130390Y-89554D01*
X130333Y-89554D01*
X130257Y-89535D01*
X130219Y-89516D01*
X130180Y-89478D01*
X130161Y-89421D01*
X130161Y-89383D01*
X130180Y-89326D01*
X130200Y-89307D01*
X130561Y-88926D02*
X130561Y-89154D01*
X130561Y-89040D02*
X130161Y-89040D01*
X130219Y-89078D01*
X130257Y-89116D01*
X130276Y-89154D01*
X130200Y-88773D02*
X130180Y-88754D01*
X130161Y-88716D01*
X130161Y-88621D01*
X130180Y-88583D01*
X130200Y-88564D01*
X130238Y-88545D01*
X130276Y-88545D01*
X130333Y-88564D01*
X130561Y-88792D01*
X130561Y-88545D01*
X140523Y-89407D02*
X140542Y-89426D01*
X140561Y-89483D01*
X140561Y-89521D01*
X140542Y-89578D01*
X140504Y-89616D01*
X140466Y-89635D01*
X140390Y-89654D01*
X140333Y-89654D01*
X140257Y-89635D01*
X140219Y-89616D01*
X140180Y-89578D01*
X140161Y-89521D01*
X140161Y-89483D01*
X140180Y-89426D01*
X140200Y-89407D01*
X140561Y-89026D02*
X140561Y-89254D01*
X140561Y-89140D02*
X140161Y-89140D01*
X140219Y-89178D01*
X140257Y-89216D01*
X140276Y-89254D01*
X140333Y-88797D02*
X140314Y-88835D01*
X140295Y-88854D01*
X140257Y-88873D01*
X140238Y-88873D01*
X140200Y-88854D01*
X140180Y-88835D01*
X140161Y-88797D01*
X140161Y-88721D01*
X140180Y-88683D01*
X140200Y-88664D01*
X140238Y-88645D01*
X140257Y-88645D01*
X140295Y-88664D01*
X140314Y-88683D01*
X140333Y-88721D01*
X140333Y-88797D01*
X140352Y-88835D01*
X140371Y-88854D01*
X140409Y-88873D01*
X140485Y-88873D01*
X140523Y-88854D01*
X140542Y-88835D01*
X140561Y-88797D01*
X140561Y-88721D01*
X140542Y-88683D01*
X140523Y-88664D01*
X140485Y-88645D01*
X140409Y-88645D01*
X140371Y-88664D01*
X140352Y-88683D01*
X140333Y-88721D01*
X126058Y-83035D02*
X126032Y-83083D01*
X126005Y-83107D01*
X125953Y-83130D01*
X125927Y-83130D01*
X125875Y-83107D01*
X125848Y-83083D01*
X125822Y-83035D01*
X125822Y-82940D01*
X125848Y-82892D01*
X125875Y-82869D01*
X125927Y-82845D01*
X125953Y-82845D01*
X126005Y-82869D01*
X126032Y-82892D01*
X126058Y-82940D01*
X126058Y-83035D01*
X126084Y-83083D01*
X126110Y-83107D01*
X126163Y-83130D01*
X126267Y-83130D01*
X126320Y-83107D01*
X126346Y-83083D01*
X126372Y-83035D01*
X126372Y-82940D01*
X126346Y-82892D01*
X126320Y-82869D01*
X126267Y-82845D01*
X126163Y-82845D01*
X126110Y-82869D01*
X126084Y-82892D01*
X126058Y-82940D01*
X126372Y-82630D02*
X125822Y-82630D01*
X126372Y-82345D02*
X126058Y-82559D01*
X125822Y-82345D02*
X126136Y-82630D01*
X125875Y-82154D02*
X125848Y-82130D01*
X125822Y-82083D01*
X125822Y-81964D01*
X125848Y-81916D01*
X125875Y-81892D01*
X125927Y-81869D01*
X125979Y-81869D01*
X126058Y-81892D01*
X126372Y-82178D01*
X126372Y-81869D01*
X125623Y-93216D02*
X125642Y-93235D01*
X125661Y-93292D01*
X125661Y-93330D01*
X125642Y-93388D01*
X125604Y-93426D01*
X125566Y-93445D01*
X125490Y-93464D01*
X125433Y-93464D01*
X125357Y-93445D01*
X125319Y-93426D01*
X125280Y-93388D01*
X125261Y-93330D01*
X125261Y-93292D01*
X125280Y-93235D01*
X125300Y-93216D01*
X125300Y-93064D02*
X125280Y-93045D01*
X125261Y-93007D01*
X125261Y-92911D01*
X125280Y-92873D01*
X125300Y-92854D01*
X125338Y-92835D01*
X125376Y-92835D01*
X125433Y-92854D01*
X125661Y-93083D01*
X125661Y-92835D01*
X125023Y-88366D02*
X125042Y-88385D01*
X125061Y-88442D01*
X125061Y-88480D01*
X125042Y-88538D01*
X125004Y-88576D01*
X124966Y-88595D01*
X124890Y-88614D01*
X124833Y-88614D01*
X124757Y-88595D01*
X124719Y-88576D01*
X124680Y-88538D01*
X124661Y-88480D01*
X124661Y-88442D01*
X124680Y-88385D01*
X124700Y-88366D01*
X125061Y-87985D02*
X125061Y-88214D01*
X125061Y-88099D02*
X124661Y-88099D01*
X124719Y-88138D01*
X124757Y-88176D01*
X124776Y-88214D01*
X125642Y-86273D02*
X125623Y-86292D01*
X125566Y-86311D01*
X125528Y-86311D01*
X125471Y-86292D01*
X125433Y-86254D01*
X125414Y-86216D01*
X125395Y-86140D01*
X125395Y-86083D01*
X125414Y-86007D01*
X125433Y-85969D01*
X125471Y-85930D01*
X125528Y-85911D01*
X125566Y-85911D01*
X125623Y-85930D01*
X125642Y-85950D01*
X126023Y-86311D02*
X125795Y-86311D01*
X125909Y-86311D02*
X125909Y-85911D01*
X125871Y-85969D01*
X125833Y-86007D01*
X125795Y-86026D01*
X126404Y-86311D02*
X126176Y-86311D01*
X126290Y-86311D02*
X126290Y-85911D01*
X126252Y-85969D01*
X126214Y-86007D01*
X126176Y-86026D01*
X134830Y-90225D02*
X134854Y-90198D01*
X134902Y-90172D01*
X135021Y-90172D01*
X135069Y-90198D01*
X135092Y-90225D01*
X135116Y-90277D01*
X135116Y-90329D01*
X135092Y-90408D01*
X134807Y-90722D01*
X135116Y-90722D01*
X135283Y-90172D02*
X135616Y-90172D01*
X135402Y-90722D01*
X135902Y-90172D02*
X135950Y-90172D01*
X135997Y-90198D01*
X136021Y-90225D01*
X136045Y-90277D01*
X136069Y-90382D01*
X136069Y-90513D01*
X136045Y-90617D01*
X136021Y-90670D01*
X135997Y-90696D01*
X135950Y-90722D01*
X135902Y-90722D01*
X135854Y-90696D01*
X135830Y-90670D01*
X135807Y-90617D01*
X135783Y-90513D01*
X135783Y-90382D01*
X135807Y-90277D01*
X135830Y-90225D01*
X135854Y-90198D01*
X135902Y-90172D01*
X136283Y-90722D02*
X136283Y-90172D01*
X136569Y-90722D02*
X136354Y-90408D01*
X136569Y-90172D02*
X136283Y-90486D01*
X132530Y-90225D02*
X132554Y-90198D01*
X132602Y-90172D01*
X132721Y-90172D01*
X132769Y-90198D01*
X132792Y-90225D01*
X132816Y-90277D01*
X132816Y-90329D01*
X132792Y-90408D01*
X132507Y-90722D01*
X132816Y-90722D01*
X132983Y-90172D02*
X133316Y-90172D01*
X133102Y-90722D01*
X133602Y-90172D02*
X133650Y-90172D01*
X133697Y-90198D01*
X133721Y-90225D01*
X133745Y-90277D01*
X133769Y-90382D01*
X133769Y-90513D01*
X133745Y-90617D01*
X133721Y-90670D01*
X133697Y-90696D01*
X133650Y-90722D01*
X133602Y-90722D01*
X133554Y-90696D01*
X133530Y-90670D01*
X133507Y-90617D01*
X133483Y-90513D01*
X133483Y-90382D01*
X133507Y-90277D01*
X133530Y-90225D01*
X133554Y-90198D01*
X133602Y-90172D01*
X133983Y-90722D02*
X133983Y-90172D01*
X134269Y-90722D02*
X134054Y-90408D01*
X134269Y-90172D02*
X133983Y-90486D01*
G54D29*
X119599Y-99880D02*
X119614Y-99893D01*
X119629Y-99933D01*
X119629Y-99960D01*
X119614Y-100000D01*
X119583Y-100026D01*
X119553Y-100040D01*
X119492Y-100053D01*
X119446Y-100053D01*
X119385Y-100040D01*
X119355Y-100026D01*
X119324Y-100000D01*
X119309Y-99960D01*
X119309Y-99933D01*
X119324Y-99893D01*
X119340Y-99880D01*
X119340Y-99773D02*
X119324Y-99760D01*
X119309Y-99733D01*
X119309Y-99666D01*
X119324Y-99640D01*
X119340Y-99626D01*
X119370Y-99613D01*
X119400Y-99613D01*
X119446Y-99626D01*
X119629Y-99786D01*
X119629Y-99613D01*
X119309Y-99360D02*
X119309Y-99493D01*
X119461Y-99506D01*
X119446Y-99493D01*
X119431Y-99466D01*
X119431Y-99400D01*
X119446Y-99373D01*
X119461Y-99360D01*
X119492Y-99346D01*
X119568Y-99346D01*
X119599Y-99360D01*
X119614Y-99373D01*
X119629Y-99400D01*
X119629Y-99466D01*
X119614Y-99493D01*
X119599Y-99506D01*
G54D19*
G54D31*
X120023Y-98860D02*
X120013Y-98870D01*
X119985Y-98879D01*
X119967Y-98879D01*
X119938Y-98870D01*
X119920Y-98851D01*
X119910Y-98832D01*
X119901Y-98795D01*
X119901Y-98767D01*
X119910Y-98729D01*
X119920Y-98710D01*
X119938Y-98692D01*
X119967Y-98682D01*
X119985Y-98682D01*
X120013Y-98692D01*
X120023Y-98701D01*
X120098Y-98701D02*
X120107Y-98692D01*
X120126Y-98682D01*
X120173Y-98682D01*
X120192Y-98692D01*
X120201Y-98701D01*
X120210Y-98720D01*
X120210Y-98739D01*
X120201Y-98767D01*
X120089Y-98879D01*
X120210Y-98879D01*
X120379Y-98682D02*
X120342Y-98682D01*
X120323Y-98692D01*
X120314Y-98701D01*
X120295Y-98729D01*
X120286Y-98767D01*
X120286Y-98842D01*
X120295Y-98860D01*
X120304Y-98870D01*
X120323Y-98879D01*
X120361Y-98879D01*
X120379Y-98870D01*
X120389Y-98860D01*
X120398Y-98842D01*
X120398Y-98795D01*
X120389Y-98776D01*
X120379Y-98767D01*
X120361Y-98757D01*
X120323Y-98757D01*
X120304Y-98767D01*
X120295Y-98776D01*
X120286Y-98795D01*
G54D19*
X121976Y-110111D02*
X121976Y-109711D01*
X122204Y-110111D02*
X122033Y-109883D01*
X122204Y-109711D02*
X121976Y-109940D01*
X122319Y-109845D02*
X122471Y-109845D01*
X122376Y-109711D02*
X122376Y-110054D01*
X122395Y-110092D01*
X122433Y-110111D01*
X122471Y-110111D01*
X122566Y-109845D02*
X122661Y-110111D01*
X122757Y-109845D02*
X122661Y-110111D01*
X122623Y-110207D01*
X122604Y-110226D01*
X122566Y-110245D01*
X122909Y-109845D02*
X122909Y-110245D01*
X122909Y-109864D02*
X122947Y-109845D01*
X123023Y-109845D01*
X123061Y-109864D01*
X123080Y-109883D01*
X123100Y-109921D01*
X123100Y-110035D01*
X123080Y-110073D01*
X123061Y-110092D01*
X123023Y-110111D01*
X122947Y-110111D01*
X122909Y-110092D01*
X123423Y-110092D02*
X123385Y-110111D01*
X123309Y-110111D01*
X123271Y-110092D01*
X123252Y-110054D01*
X123252Y-109902D01*
X123271Y-109864D01*
X123309Y-109845D01*
X123385Y-109845D01*
X123423Y-109864D01*
X123442Y-109902D01*
X123442Y-109940D01*
X123252Y-109978D01*
G54D14*
X126902Y-112256D02*
X126664Y-112423D01*
X126902Y-112542D02*
X126402Y-112542D01*
X126402Y-112351D01*
X126426Y-112304D01*
X126450Y-112280D01*
X126497Y-112256D01*
X126569Y-112256D01*
X126616Y-112280D01*
X126640Y-112304D01*
X126664Y-112351D01*
X126664Y-112542D01*
X126402Y-112089D02*
X126402Y-111780D01*
X126592Y-111946D01*
X126592Y-111875D01*
X126616Y-111827D01*
X126640Y-111804D01*
X126688Y-111780D01*
X126807Y-111780D01*
X126854Y-111804D01*
X126878Y-111827D01*
X126902Y-111875D01*
X126902Y-112018D01*
X126878Y-112065D01*
X126854Y-112089D01*
X126902Y-111542D02*
X126902Y-111446D01*
X126878Y-111399D01*
X126854Y-111375D01*
X126783Y-111327D01*
X126688Y-111304D01*
X126497Y-111304D01*
X126450Y-111327D01*
X126426Y-111351D01*
X126402Y-111399D01*
X126402Y-111494D01*
X126426Y-111542D01*
X126450Y-111565D01*
X126497Y-111589D01*
X126616Y-111589D01*
X126664Y-111565D01*
X126688Y-111542D01*
X126711Y-111494D01*
X126711Y-111399D01*
X126688Y-111351D01*
X126664Y-111327D01*
X126616Y-111304D01*
X125322Y-120864D02*
X125322Y-121102D01*
X125560Y-121125D01*
X125536Y-121102D01*
X125512Y-121054D01*
X125512Y-120935D01*
X125536Y-120887D01*
X125560Y-120864D01*
X125608Y-120840D01*
X125727Y-120840D01*
X125774Y-120864D01*
X125798Y-120887D01*
X125822Y-120935D01*
X125822Y-121054D01*
X125798Y-121102D01*
X125774Y-121125D01*
X125322Y-120411D02*
X125322Y-120506D01*
X125346Y-120554D01*
X125370Y-120578D01*
X125441Y-120625D01*
X125536Y-120649D01*
X125727Y-120649D01*
X125774Y-120625D01*
X125798Y-120602D01*
X125822Y-120554D01*
X125822Y-120459D01*
X125798Y-120411D01*
X125774Y-120387D01*
X125727Y-120364D01*
X125608Y-120364D01*
X125560Y-120387D01*
X125536Y-120411D01*
X125512Y-120459D01*
X125512Y-120554D01*
X125536Y-120602D01*
X125560Y-120625D01*
X125608Y-120649D01*
X125822Y-120149D02*
X125322Y-120149D01*
X125822Y-119864D02*
X125536Y-120078D01*
X125322Y-119864D02*
X125608Y-120149D01*
G54D30*
X124477Y-94169D02*
X124411Y-94075D01*
X124364Y-94169D02*
X124364Y-93972D01*
X124439Y-93972D01*
X124458Y-93982D01*
X124467Y-93991D01*
X124477Y-94010D01*
X124477Y-94038D01*
X124467Y-94057D01*
X124458Y-94066D01*
X124439Y-94075D01*
X124364Y-94075D01*
X124542Y-93972D02*
X124674Y-93972D01*
X124589Y-94169D01*
X124392Y-94444D02*
X124280Y-94444D01*
X124336Y-94444D02*
X124336Y-94247D01*
X124317Y-94275D01*
X124298Y-94294D01*
X124280Y-94304D01*
X124514Y-94247D02*
X124533Y-94247D01*
X124552Y-94257D01*
X124561Y-94266D01*
X124570Y-94285D01*
X124580Y-94322D01*
X124580Y-94369D01*
X124570Y-94407D01*
X124561Y-94425D01*
X124552Y-94435D01*
X124533Y-94444D01*
X124514Y-94444D01*
X124495Y-94435D01*
X124486Y-94425D01*
X124477Y-94407D01*
X124467Y-94369D01*
X124467Y-94322D01*
X124477Y-94285D01*
X124486Y-94266D01*
X124495Y-94257D01*
X124514Y-94247D01*
X124664Y-94444D02*
X124664Y-94247D01*
X124683Y-94369D02*
X124739Y-94444D01*
X124739Y-94313D02*
X124664Y-94388D01*
X123607Y-92034D02*
X123541Y-91940D01*
X123494Y-92034D02*
X123494Y-91837D01*
X123569Y-91837D01*
X123588Y-91847D01*
X123597Y-91856D01*
X123607Y-91875D01*
X123607Y-91903D01*
X123597Y-91922D01*
X123588Y-91931D01*
X123569Y-91940D01*
X123494Y-91940D01*
X123700Y-92034D02*
X123738Y-92034D01*
X123757Y-92025D01*
X123766Y-92015D01*
X123785Y-91987D01*
X123794Y-91950D01*
X123794Y-91875D01*
X123785Y-91856D01*
X123776Y-91847D01*
X123757Y-91837D01*
X123719Y-91837D01*
X123700Y-91847D01*
X123691Y-91856D01*
X123682Y-91875D01*
X123682Y-91922D01*
X123691Y-91940D01*
X123700Y-91950D01*
X123719Y-91959D01*
X123757Y-91959D01*
X123776Y-91950D01*
X123785Y-91940D01*
X123794Y-91922D01*
X123522Y-92309D02*
X123410Y-92309D01*
X123466Y-92309D02*
X123466Y-92112D01*
X123447Y-92140D01*
X123428Y-92159D01*
X123410Y-92169D01*
X123644Y-92112D02*
X123663Y-92112D01*
X123682Y-92122D01*
X123691Y-92131D01*
X123700Y-92150D01*
X123710Y-92187D01*
X123710Y-92234D01*
X123700Y-92272D01*
X123691Y-92290D01*
X123682Y-92300D01*
X123663Y-92309D01*
X123644Y-92309D01*
X123625Y-92300D01*
X123616Y-92290D01*
X123607Y-92272D01*
X123597Y-92234D01*
X123597Y-92187D01*
X123607Y-92150D01*
X123616Y-92131D01*
X123625Y-92122D01*
X123644Y-92112D01*
X123794Y-92309D02*
X123794Y-92112D01*
X123813Y-92234D02*
X123869Y-92309D01*
X123869Y-92178D02*
X123794Y-92253D01*
X123513Y-91339D02*
X123447Y-91245D01*
X123400Y-91339D02*
X123400Y-91142D01*
X123475Y-91142D01*
X123494Y-91152D01*
X123503Y-91161D01*
X123513Y-91180D01*
X123513Y-91208D01*
X123503Y-91227D01*
X123494Y-91236D01*
X123475Y-91245D01*
X123400Y-91245D01*
X123700Y-91339D02*
X123588Y-91339D01*
X123644Y-91339D02*
X123644Y-91142D01*
X123625Y-91170D01*
X123607Y-91189D01*
X123588Y-91199D01*
X123888Y-91339D02*
X123776Y-91339D01*
X123832Y-91339D02*
X123832Y-91142D01*
X123813Y-91170D01*
X123794Y-91189D01*
X123776Y-91199D01*
X123522Y-91614D02*
X123410Y-91614D01*
X123466Y-91614D02*
X123466Y-91417D01*
X123447Y-91445D01*
X123428Y-91464D01*
X123410Y-91474D01*
X123644Y-91417D02*
X123663Y-91417D01*
X123682Y-91427D01*
X123691Y-91436D01*
X123700Y-91455D01*
X123710Y-91492D01*
X123710Y-91539D01*
X123700Y-91577D01*
X123691Y-91595D01*
X123682Y-91605D01*
X123663Y-91614D01*
X123644Y-91614D01*
X123625Y-91605D01*
X123616Y-91595D01*
X123607Y-91577D01*
X123597Y-91539D01*
X123597Y-91492D01*
X123607Y-91455D01*
X123616Y-91436D01*
X123625Y-91427D01*
X123644Y-91417D01*
X123794Y-91614D02*
X123794Y-91417D01*
X123813Y-91539D02*
X123869Y-91614D01*
X123869Y-91483D02*
X123794Y-91558D01*
X123224Y-93746D02*
X123130Y-93812D01*
X123224Y-93859D02*
X123027Y-93859D01*
X123027Y-93784D01*
X123037Y-93765D01*
X123046Y-93756D01*
X123065Y-93746D01*
X123093Y-93746D01*
X123112Y-93756D01*
X123121Y-93765D01*
X123130Y-93784D01*
X123130Y-93859D01*
X123224Y-93559D02*
X123224Y-93671D01*
X123224Y-93615D02*
X123027Y-93615D01*
X123055Y-93634D01*
X123074Y-93652D01*
X123084Y-93671D01*
X123027Y-93493D02*
X123027Y-93371D01*
X123102Y-93437D01*
X123102Y-93408D01*
X123112Y-93390D01*
X123121Y-93380D01*
X123140Y-93371D01*
X123187Y-93371D01*
X123205Y-93380D01*
X123215Y-93390D01*
X123224Y-93408D01*
X123224Y-93465D01*
X123215Y-93483D01*
X123205Y-93493D01*
X122949Y-93737D02*
X122949Y-93849D01*
X122949Y-93793D02*
X122752Y-93793D01*
X122780Y-93812D01*
X122799Y-93831D01*
X122809Y-93849D01*
X122752Y-93615D02*
X122752Y-93596D01*
X122762Y-93577D01*
X122771Y-93568D01*
X122790Y-93559D01*
X122827Y-93549D01*
X122874Y-93549D01*
X122912Y-93559D01*
X122930Y-93568D01*
X122940Y-93577D01*
X122949Y-93596D01*
X122949Y-93615D01*
X122940Y-93634D01*
X122930Y-93643D01*
X122912Y-93652D01*
X122874Y-93662D01*
X122827Y-93662D01*
X122790Y-93652D01*
X122771Y-93643D01*
X122762Y-93634D01*
X122752Y-93615D01*
X122949Y-93465D02*
X122752Y-93465D01*
X122874Y-93446D02*
X122949Y-93390D01*
X122818Y-93390D02*
X122893Y-93465D01*
G54D25*
X146404Y-93821D02*
X146428Y-93845D01*
X146452Y-93916D01*
X146452Y-93964D01*
X146428Y-94035D01*
X146380Y-94083D01*
X146333Y-94107D01*
X146238Y-94130D01*
X146166Y-94130D01*
X146071Y-94107D01*
X146023Y-94083D01*
X145976Y-94035D01*
X145952Y-93964D01*
X145952Y-93916D01*
X145976Y-93845D01*
X146000Y-93821D01*
X146452Y-93345D02*
X146452Y-93630D01*
X146452Y-93488D02*
X145952Y-93488D01*
X146023Y-93535D01*
X146071Y-93583D01*
X146095Y-93630D01*
X146452Y-93107D02*
X146452Y-93011D01*
X146428Y-92964D01*
X146404Y-92940D01*
X146333Y-92892D01*
X146238Y-92869D01*
X146047Y-92869D01*
X146000Y-92892D01*
X145976Y-92916D01*
X145952Y-92964D01*
X145952Y-93059D01*
X145976Y-93107D01*
X146000Y-93130D01*
X146047Y-93154D01*
X146166Y-93154D01*
X146214Y-93130D01*
X146238Y-93107D01*
X146261Y-93059D01*
X146261Y-92964D01*
X146238Y-92916D01*
X146214Y-92892D01*
X146166Y-92869D01*
G54D19*
X153469Y-94255D02*
X153802Y-94297D01*
X153278Y-94327D02*
X153635Y-94467D01*
X153635Y-94219D01*
X153302Y-94063D02*
X153302Y-93797D01*
X153802Y-94030D01*
X153302Y-93568D02*
X153302Y-93530D01*
X153326Y-93495D01*
X153350Y-93479D01*
X153397Y-93466D01*
X153492Y-93458D01*
X153611Y-93473D01*
X153707Y-93504D01*
X153754Y-93529D01*
X153778Y-93551D01*
X153802Y-93592D01*
X153802Y-93630D01*
X153778Y-93666D01*
X153754Y-93682D01*
X153707Y-93695D01*
X153611Y-93702D01*
X153492Y-93687D01*
X153397Y-93656D01*
X153350Y-93631D01*
X153326Y-93609D01*
X153302Y-93568D01*
X153302Y-93187D02*
X153302Y-93149D01*
X153326Y-93114D01*
X153350Y-93098D01*
X153397Y-93085D01*
X153492Y-93077D01*
X153611Y-93092D01*
X153707Y-93123D01*
X153754Y-93148D01*
X153778Y-93170D01*
X153802Y-93211D01*
X153802Y-93249D01*
X153778Y-93285D01*
X153754Y-93301D01*
X153707Y-93314D01*
X153611Y-93321D01*
X153492Y-93306D01*
X153397Y-93275D01*
X153350Y-93250D01*
X153326Y-93228D01*
X153302Y-93187D01*
X153469Y-92732D02*
X153802Y-92773D01*
X153469Y-92903D02*
X153730Y-92936D01*
X153778Y-92923D01*
X153802Y-92888D01*
X153802Y-92830D01*
X153778Y-92789D01*
X153754Y-92767D01*
X153540Y-92417D02*
X153540Y-92550D01*
X153802Y-92583D02*
X153302Y-92520D01*
X153302Y-92330D01*
X153802Y-91726D02*
X153802Y-91954D01*
X153802Y-91840D02*
X153302Y-91777D01*
X153373Y-91824D01*
X153421Y-91869D01*
X153445Y-91910D01*
X153302Y-91320D02*
X153302Y-91397D01*
X153326Y-91438D01*
X153350Y-91460D01*
X153421Y-91507D01*
X153516Y-91538D01*
X153707Y-91561D01*
X153754Y-91548D01*
X153778Y-91532D01*
X153802Y-91497D01*
X153802Y-91421D01*
X153778Y-91380D01*
X153754Y-91358D01*
X153707Y-91333D01*
X153588Y-91318D01*
X153540Y-91331D01*
X153516Y-91347D01*
X153492Y-91382D01*
X153492Y-91458D01*
X153516Y-91500D01*
X153540Y-91522D01*
X153588Y-91547D01*
X153302Y-91168D02*
X153802Y-91097D01*
X153302Y-90901D01*
X153802Y-90335D02*
X153802Y-90526D01*
X153302Y-90463D01*
X153302Y-90063D02*
X153302Y-89987D01*
X153326Y-89952D01*
X153373Y-89920D01*
X153469Y-89913D01*
X153635Y-89933D01*
X153730Y-89964D01*
X153778Y-90008D01*
X153802Y-90050D01*
X153802Y-90126D01*
X153778Y-90161D01*
X153730Y-90193D01*
X153635Y-90200D01*
X153469Y-90179D01*
X153373Y-90148D01*
X153326Y-90104D01*
X153302Y-90063D01*
X153302Y-89758D02*
X153802Y-89726D01*
X153445Y-89605D01*
X153802Y-89573D01*
X153302Y-89416D01*
X153540Y-88988D02*
X153540Y-88855D01*
X153802Y-88830D02*
X153802Y-89021D01*
X153302Y-88958D01*
X153302Y-88768D01*
X153778Y-88675D02*
X153802Y-88621D01*
X153802Y-88526D01*
X153778Y-88485D01*
X153754Y-88463D01*
X153707Y-88438D01*
X153659Y-88432D01*
X153611Y-88445D01*
X153588Y-88461D01*
X153564Y-88496D01*
X153540Y-88569D01*
X153516Y-88604D01*
X153492Y-88620D01*
X153445Y-88633D01*
X153397Y-88627D01*
X153350Y-88602D01*
X153326Y-88580D01*
X153302Y-88539D01*
X153302Y-88444D01*
X153326Y-88390D01*
X153802Y-88050D02*
X153564Y-88153D01*
X153802Y-88278D02*
X153302Y-88216D01*
X153302Y-88063D01*
X153326Y-88028D01*
X153350Y-88012D01*
X153397Y-87999D01*
X153469Y-88008D01*
X153516Y-88033D01*
X153540Y-88055D01*
X153564Y-88096D01*
X153564Y-88248D01*
G54D25*
X145961Y-95240D02*
X145961Y-94859D01*
X146152Y-95050D02*
X145771Y-95050D01*
G54D24*
X133674Y-87780D02*
X133805Y-88174D01*
X133936Y-87780D01*
X134293Y-88174D02*
X134161Y-87986D01*
X134068Y-88174D02*
X134068Y-87780D01*
X134218Y-87780D01*
X134255Y-87799D01*
X134274Y-87818D01*
X134293Y-87855D01*
X134293Y-87911D01*
X134274Y-87949D01*
X134255Y-87968D01*
X134218Y-87986D01*
X134068Y-87986D01*
X134668Y-88174D02*
X134443Y-88174D01*
X134555Y-88174D02*
X134555Y-87780D01*
X134518Y-87836D01*
X134480Y-87874D01*
X134443Y-87893D01*
G54D32*
X155390Y-85509D02*
X155165Y-85509D01*
X155278Y-85509D02*
X155278Y-85115D01*
X155240Y-85171D01*
X155203Y-85209D01*
X155165Y-85228D01*
X155634Y-85115D02*
X155671Y-85115D01*
X155709Y-85134D01*
X155728Y-85153D01*
X155746Y-85190D01*
X155765Y-85265D01*
X155765Y-85359D01*
X155746Y-85434D01*
X155728Y-85471D01*
X155709Y-85490D01*
X155671Y-85509D01*
X155634Y-85509D01*
X155596Y-85490D01*
X155578Y-85471D01*
X155559Y-85434D01*
X155540Y-85359D01*
X155540Y-85265D01*
X155559Y-85190D01*
X155578Y-85153D01*
X155596Y-85134D01*
X155634Y-85115D01*
X156009Y-85115D02*
X156046Y-85115D01*
X156084Y-85134D01*
X156103Y-85153D01*
X156121Y-85190D01*
X156140Y-85265D01*
X156140Y-85359D01*
X156121Y-85434D01*
X156103Y-85471D01*
X156084Y-85490D01*
X156046Y-85509D01*
X156009Y-85509D01*
X155971Y-85490D01*
X155953Y-85471D01*
X155934Y-85434D01*
X155915Y-85359D01*
X155915Y-85265D01*
X155934Y-85190D01*
X155953Y-85153D01*
X155971Y-85134D01*
X156009Y-85115D01*
X156309Y-85509D02*
X156309Y-85115D01*
X156534Y-85509D02*
X156365Y-85284D01*
X156534Y-85115D02*
X156309Y-85340D01*
M02*
