G04 (created by PCBNEW (2013-07-07 BZR 4022)-stable) date 10/17/2015 1:36:39 PM*
%MOIN*%
G04 Gerber Fmt 3.4, Leading zero omitted, Abs format*
%FSLAX34Y34*%
G01*
G70*
G90*
G04 APERTURE LIST*
%ADD10C,0.00590551*%
%ADD11R,0.08X0.08*%
%ADD12C,0.08*%
%ADD13R,0.075X0.075*%
%ADD14C,0.075*%
%ADD15C,0.09*%
%ADD16R,0.09X0.09*%
%ADD17R,0.37X0.37*%
%ADD18C,0.3743*%
%ADD19C,0.1184*%
%ADD20C,0.126299*%
%ADD21R,0.0787X0.0787*%
%ADD22C,0.0787*%
%ADD23C,0.118425*%
G04 APERTURE END LIST*
G54D10*
G54D11*
X119600Y-101800D03*
G54D12*
X119600Y-100800D03*
X120600Y-101800D03*
X120600Y-100800D03*
X121600Y-101800D03*
X121600Y-100800D03*
X122600Y-101800D03*
X122600Y-100800D03*
X123600Y-101800D03*
X123600Y-100800D03*
X124600Y-101800D03*
X124600Y-100800D03*
X125600Y-101800D03*
X125600Y-100800D03*
X126600Y-101800D03*
X126600Y-100800D03*
X127600Y-101800D03*
X127600Y-100800D03*
X128600Y-101800D03*
X128600Y-100800D03*
X129950Y-86050D03*
X125950Y-86050D03*
X123900Y-88850D03*
X123900Y-84850D03*
X125950Y-87000D03*
X129950Y-87000D03*
X119000Y-85850D03*
X123000Y-85850D03*
X123000Y-84900D03*
X119000Y-84900D03*
X119700Y-95050D03*
X123700Y-95050D03*
X119700Y-94100D03*
X123700Y-94100D03*
X129900Y-88850D03*
X125900Y-88850D03*
X118900Y-91050D03*
X122900Y-91050D03*
X122900Y-91950D03*
X118900Y-91950D03*
X125900Y-89750D03*
X129900Y-89750D03*
G54D11*
X121550Y-96100D03*
G54D12*
X121550Y-97100D03*
X120550Y-96100D03*
X120550Y-97100D03*
X138140Y-106480D03*
X142140Y-106480D03*
X131360Y-106945D03*
X131360Y-110945D03*
X136100Y-110970D03*
X136100Y-106970D03*
X137040Y-106975D03*
X137040Y-110975D03*
X138020Y-110960D03*
X142020Y-110960D03*
X142120Y-105320D03*
X138120Y-105320D03*
G54D13*
X132215Y-107790D03*
G54D14*
X132215Y-108790D03*
X132215Y-109790D03*
X135215Y-109790D03*
X135215Y-108790D03*
X135215Y-107790D03*
G54D13*
X120300Y-93000D03*
G54D14*
X121300Y-93000D03*
X122300Y-93000D03*
G54D13*
X125950Y-92950D03*
G54D14*
X125950Y-91950D03*
X125950Y-90950D03*
G54D15*
X139520Y-102030D03*
G54D16*
X139520Y-104030D03*
G54D15*
X139520Y-103030D03*
G54D17*
X133020Y-103030D03*
G54D18*
X131520Y-124800D03*
X131440Y-130480D03*
X136650Y-130650D03*
X136550Y-124900D03*
X142100Y-130350D03*
X142300Y-125100D03*
G54D14*
X127000Y-90700D03*
X129000Y-90700D03*
X126950Y-87950D03*
X128950Y-87950D03*
X141880Y-108780D03*
X139880Y-108780D03*
G54D19*
X124500Y-107300D03*
X119106Y-107300D03*
X124894Y-112615D03*
X118713Y-112615D03*
G54D14*
X138700Y-109660D03*
X138700Y-107660D03*
X141880Y-109740D03*
X139880Y-109740D03*
G54D13*
X122800Y-89930D03*
G54D14*
X122800Y-88930D03*
X122800Y-87930D03*
X122800Y-86930D03*
X119800Y-86930D03*
X119800Y-87930D03*
X119800Y-88930D03*
X119800Y-89930D03*
X141880Y-107640D03*
X139880Y-107640D03*
G54D12*
X137050Y-86850D03*
X133050Y-86850D03*
X136900Y-99600D03*
X136900Y-95600D03*
X137800Y-95600D03*
X141800Y-95600D03*
X137050Y-87800D03*
X133050Y-87800D03*
G54D13*
X133600Y-91750D03*
G54D14*
X134600Y-91750D03*
X135600Y-91750D03*
X136600Y-91750D03*
X136600Y-88750D03*
X135600Y-88750D03*
X134600Y-88750D03*
X133600Y-88750D03*
G54D13*
X132900Y-98350D03*
G54D14*
X131900Y-98350D03*
X130900Y-98350D03*
G54D20*
X147851Y-89300D03*
X139348Y-89300D03*
G54D13*
X130250Y-97150D03*
G54D14*
X131250Y-97150D03*
X132250Y-97150D03*
X133250Y-97150D03*
X133250Y-94150D03*
X132250Y-94150D03*
X131250Y-94150D03*
X130250Y-94150D03*
G54D21*
X137544Y-93100D03*
G54D22*
X136756Y-93100D03*
G54D21*
X134544Y-93100D03*
G54D22*
X133756Y-93100D03*
G54D21*
X145506Y-97150D03*
G54D22*
X146294Y-97150D03*
G54D23*
X127056Y-98650D03*
X128750Y-98650D03*
X139565Y-99115D03*
X139565Y-100415D03*
X140815Y-100415D03*
G54D20*
X140815Y-99165D03*
X138265Y-99115D03*
G54D23*
X138265Y-100415D03*
X128643Y-84700D03*
X126950Y-84700D03*
X144740Y-99500D03*
X142390Y-98950D03*
X143390Y-99800D03*
G54D12*
X132600Y-105790D03*
X137100Y-105790D03*
G54D23*
X145923Y-104930D03*
X143502Y-104930D03*
X148120Y-98858D03*
X148120Y-97165D03*
M02*
