G04 (created by PCBNEW (2013-07-07 BZR 4022)-stable) date 11/5/2016 11:09:50 AM*
%MOIN*%
G04 Gerber Fmt 3.4, Leading zero omitted, Abs format*
%FSLAX34Y34*%
G01*
G70*
G90*
G04 APERTURE LIST*
%ADD10C,0.00590551*%
%ADD11R,0.06X0.06*%
%ADD12C,0.06*%
%ADD13R,0.055X0.055*%
%ADD14C,0.055*%
%ADD15C,0.07*%
%ADD16R,0.07X0.07*%
%ADD17R,0.35X0.35*%
%ADD18C,0.0984*%
%ADD19C,0.0984252*%
%ADD20R,0.0587X0.0587*%
%ADD21C,0.0587*%
%ADD22C,0.063*%
%ADD23C,0.056*%
%ADD24C,0.15748*%
%ADD25C,0.0787402*%
%ADD26O,0.0885X0.177*%
%ADD27C,0.066*%
%ADD28C,0.472441*%
%ADD29C,0.035*%
%ADD30C,0.019685*%
%ADD31C,0.00984252*%
%ADD32C,0.017*%
%ADD33C,0.01*%
G04 APERTURE END LIST*
G54D10*
G54D11*
X119600Y-101800D03*
G54D12*
X119600Y-100800D03*
X120600Y-101800D03*
X120600Y-100800D03*
X121600Y-101800D03*
X121600Y-100800D03*
X122600Y-101800D03*
X122600Y-100800D03*
X123600Y-101800D03*
X123600Y-100800D03*
X124600Y-101800D03*
X124600Y-100800D03*
X125600Y-101800D03*
X125600Y-100800D03*
X126600Y-101800D03*
X126600Y-100800D03*
X127600Y-101800D03*
X127600Y-100800D03*
X128600Y-101800D03*
X128600Y-100800D03*
X138140Y-106480D03*
X142140Y-106480D03*
X130550Y-106750D03*
X130550Y-110750D03*
X136100Y-110970D03*
X136100Y-106970D03*
X137040Y-106975D03*
X137040Y-110975D03*
X138020Y-110960D03*
X142020Y-110960D03*
X142120Y-105320D03*
X138120Y-105320D03*
G54D13*
X131650Y-107700D03*
G54D14*
X131650Y-108700D03*
X131650Y-109700D03*
X134650Y-109700D03*
X134650Y-108700D03*
X134650Y-107700D03*
G54D15*
X139520Y-102030D03*
G54D16*
X139520Y-104030D03*
G54D15*
X139520Y-103030D03*
G54D17*
X133020Y-103030D03*
G54D14*
X141880Y-108780D03*
X139880Y-108780D03*
G54D18*
X124545Y-94440D03*
X119151Y-94440D03*
X124939Y-89125D03*
X118758Y-89125D03*
G54D14*
X141880Y-109740D03*
X139880Y-109740D03*
X141880Y-107640D03*
X139880Y-107640D03*
G54D19*
X146670Y-97740D03*
X147220Y-95390D03*
X146370Y-96390D03*
G54D20*
X138700Y-109054D03*
G54D21*
X138700Y-108266D03*
G54D22*
X142020Y-112040D03*
X138020Y-112040D03*
G54D23*
X143355Y-105690D03*
X149064Y-105690D03*
X143355Y-109520D03*
X149064Y-109520D03*
G54D15*
X137720Y-95600D03*
X138720Y-95600D03*
G54D16*
X139720Y-95600D03*
G54D24*
X147070Y-112276D03*
X143880Y-112246D03*
X148700Y-101056D03*
X146700Y-100006D03*
X148560Y-94682D03*
X148350Y-89143D03*
X148350Y-87300D03*
X132290Y-93166D03*
X132250Y-89206D03*
G54D25*
X145210Y-96230D03*
X145210Y-100230D03*
X144700Y-101700D03*
X140700Y-101700D03*
X144700Y-103100D03*
X140700Y-103100D03*
G54D24*
X131280Y-97006D03*
G54D11*
X123600Y-103210D03*
G54D12*
X122600Y-103210D03*
X121600Y-103210D03*
G54D26*
X142150Y-91500D03*
X148150Y-91500D03*
G54D27*
X147900Y-99500D03*
X147900Y-96500D03*
X148900Y-99500D03*
X148900Y-96500D03*
X146100Y-103300D03*
X149100Y-103300D03*
X146100Y-102400D03*
X149100Y-102400D03*
G54D20*
X132550Y-91444D03*
G54D21*
X132550Y-90656D03*
G54D28*
X133850Y-113300D03*
X133850Y-84950D03*
G54D24*
X131250Y-98856D03*
G54D11*
X119600Y-105750D03*
G54D12*
X119600Y-104750D03*
X120600Y-105750D03*
X120600Y-104750D03*
X121600Y-105750D03*
X121600Y-104750D03*
X122600Y-105750D03*
X122600Y-104750D03*
X123600Y-105750D03*
X123600Y-104750D03*
X124600Y-105750D03*
X124600Y-104750D03*
X125600Y-105750D03*
X125600Y-104750D03*
X126600Y-105750D03*
X126600Y-104750D03*
X127600Y-105750D03*
X127600Y-104750D03*
X128600Y-105750D03*
X128600Y-104750D03*
G54D11*
X119600Y-109700D03*
G54D12*
X119600Y-108700D03*
X120600Y-109700D03*
X120600Y-108700D03*
X121600Y-109700D03*
X121600Y-108700D03*
X122600Y-109700D03*
X122600Y-108700D03*
X123600Y-109700D03*
X123600Y-108700D03*
X124600Y-109700D03*
X124600Y-108700D03*
X125600Y-109700D03*
X125600Y-108700D03*
X126600Y-109700D03*
X126600Y-108700D03*
X127600Y-109700D03*
X127600Y-108700D03*
X128600Y-109700D03*
X128600Y-108700D03*
G54D24*
X144500Y-86006D03*
X146350Y-86006D03*
G54D29*
X130350Y-93000D03*
X130750Y-93000D03*
X130350Y-92600D03*
X130750Y-92600D03*
X133800Y-92250D03*
X134700Y-92250D03*
X134250Y-92750D03*
X133800Y-93250D03*
X134700Y-93250D03*
X134250Y-93750D03*
X133300Y-93750D03*
X133800Y-94200D03*
X134700Y-94200D03*
X134250Y-94200D03*
X133300Y-94200D03*
X133800Y-93750D03*
X134700Y-93750D03*
X134250Y-93250D03*
X133800Y-92750D03*
X134700Y-92750D03*
X134250Y-92250D03*
X133350Y-92250D03*
G54D30*
X123150Y-97200D03*
X124045Y-96030D03*
X128650Y-88150D03*
X124375Y-97365D03*
X123910Y-97790D03*
X122900Y-98000D03*
X124810Y-96040D03*
X128650Y-87650D03*
G54D29*
X119350Y-96800D03*
X127450Y-90400D03*
X129050Y-96150D03*
X129550Y-96150D03*
X139600Y-88150D03*
X139600Y-85450D03*
X139400Y-88700D03*
X135850Y-96900D03*
X135400Y-97300D03*
X135400Y-96900D03*
X133480Y-99775D03*
G54D30*
X125750Y-97900D03*
G54D29*
X137400Y-86300D03*
X137400Y-87850D03*
G54D30*
X126050Y-97550D03*
G54D29*
X131155Y-95680D03*
X127490Y-98235D03*
X140200Y-89550D03*
X122540Y-96565D03*
X125585Y-95130D03*
X140840Y-87420D03*
X141200Y-89555D03*
X140840Y-86770D03*
X140840Y-85885D03*
X142500Y-95100D03*
X136300Y-99700D03*
X136300Y-99300D03*
X136700Y-98500D03*
X136700Y-98900D03*
X136300Y-98900D03*
X136300Y-98500D03*
X142100Y-95100D03*
X141700Y-95100D03*
X141700Y-93200D03*
X141700Y-93600D03*
X142500Y-93600D03*
X142500Y-93200D03*
X142100Y-93200D03*
X134705Y-96795D03*
X126385Y-97925D03*
G54D30*
X123910Y-99395D03*
G54D29*
X128700Y-87150D03*
X128700Y-85950D03*
X142650Y-87000D03*
X142300Y-85450D03*
G54D31*
X123150Y-97700D02*
X123150Y-97200D01*
X130350Y-107700D02*
X131650Y-107700D01*
X129750Y-107100D02*
X130350Y-107700D01*
X129750Y-104450D02*
X129750Y-107100D01*
X129000Y-103700D02*
X129750Y-104450D01*
X126200Y-103700D02*
X129000Y-103700D01*
X125100Y-102600D02*
X126200Y-103700D01*
X125100Y-99650D02*
X125100Y-102600D01*
X123150Y-97700D02*
X125100Y-99650D01*
X123600Y-103210D02*
X123600Y-103190D01*
X123095Y-101305D02*
X123600Y-100800D01*
X123095Y-102685D02*
X123095Y-101305D01*
X123600Y-103190D02*
X123095Y-102685D01*
X122600Y-103210D02*
X122600Y-103205D01*
X122100Y-101300D02*
X122600Y-100800D01*
X122100Y-102705D02*
X122100Y-101300D01*
X122600Y-103205D02*
X122100Y-102705D01*
X121600Y-103210D02*
X121600Y-103200D01*
X121105Y-101295D02*
X121600Y-100800D01*
X121105Y-102705D02*
X121105Y-101295D01*
X121600Y-103200D02*
X121105Y-102705D01*
X126430Y-90370D02*
X126430Y-88770D01*
X127050Y-88150D02*
X128650Y-88150D01*
X126430Y-88770D02*
X127050Y-88150D01*
X126430Y-90370D02*
X126430Y-90750D01*
X126430Y-90750D02*
X126430Y-96250D01*
X126430Y-96250D02*
X125455Y-97225D01*
X127105Y-101305D02*
X127600Y-101800D01*
X127105Y-100085D02*
X127105Y-101305D01*
X125455Y-98435D02*
X127105Y-100085D01*
X125455Y-97225D02*
X125455Y-98435D01*
X123150Y-99550D02*
X123150Y-98250D01*
X123150Y-98250D02*
X122900Y-98000D01*
X124600Y-101800D02*
X124450Y-101800D01*
X124100Y-100500D02*
X123150Y-99550D01*
X124100Y-101450D02*
X124100Y-100500D01*
X124450Y-101800D02*
X124100Y-101450D01*
X127600Y-104750D02*
X127100Y-105250D01*
X127100Y-108200D02*
X127600Y-108700D01*
X127100Y-105250D02*
X127100Y-108200D01*
X126045Y-90205D02*
X126045Y-88705D01*
X127100Y-87650D02*
X128650Y-87650D01*
X126045Y-88705D02*
X127100Y-87650D01*
X126045Y-90600D02*
X126045Y-96165D01*
X126045Y-90600D02*
X126045Y-90205D01*
X126045Y-96165D02*
X125170Y-97040D01*
X125600Y-99190D02*
X125600Y-100800D01*
X125170Y-98760D02*
X125600Y-99190D01*
X125170Y-97040D02*
X125170Y-98760D01*
X126600Y-104750D02*
X126100Y-105250D01*
X126100Y-108200D02*
X126600Y-108700D01*
X126100Y-105250D02*
X126100Y-108200D01*
X125600Y-104750D02*
X125100Y-105250D01*
X125100Y-108200D02*
X125600Y-108700D01*
X125100Y-105250D02*
X125100Y-108200D01*
X124600Y-104750D02*
X124100Y-105250D01*
X124100Y-108200D02*
X124600Y-108700D01*
X124100Y-105250D02*
X124100Y-108200D01*
X123600Y-104750D02*
X123100Y-105250D01*
X123100Y-108200D02*
X123600Y-108700D01*
X123100Y-105250D02*
X123100Y-108200D01*
X122600Y-104750D02*
X122100Y-105250D01*
X122100Y-108200D02*
X122600Y-108700D01*
X122100Y-105250D02*
X122100Y-108200D01*
X121600Y-104750D02*
X121100Y-105250D01*
X121100Y-108200D02*
X121600Y-108700D01*
X121100Y-105250D02*
X121100Y-108200D01*
X120600Y-104750D02*
X120100Y-105250D01*
X120100Y-108200D02*
X120600Y-108700D01*
X120100Y-105250D02*
X120100Y-108200D01*
X126817Y-90532D02*
X126817Y-89132D01*
X127500Y-88450D02*
X128900Y-88450D01*
X126817Y-89132D02*
X127500Y-88450D01*
X135550Y-87800D02*
X135900Y-87800D01*
X128900Y-88450D02*
X129550Y-87800D01*
X129550Y-87800D02*
X135550Y-87800D01*
X125750Y-97900D02*
X125750Y-97360D01*
X126817Y-96292D02*
X125750Y-97360D01*
X126817Y-90532D02*
X126817Y-96292D01*
X135900Y-87800D02*
X137400Y-86300D01*
X127140Y-90660D02*
X127140Y-89260D01*
X127750Y-88650D02*
X129150Y-88650D01*
X127140Y-89260D02*
X127750Y-88650D01*
X127140Y-90660D02*
X127140Y-96460D01*
X127140Y-96460D02*
X126050Y-97550D01*
X135750Y-88050D02*
X137200Y-88050D01*
X137200Y-88050D02*
X137400Y-87850D01*
X129750Y-88050D02*
X135750Y-88050D01*
X129150Y-88650D02*
X129750Y-88050D01*
X129950Y-96500D02*
X129950Y-98100D01*
X130770Y-95680D02*
X129950Y-96500D01*
X131155Y-95680D02*
X130770Y-95680D01*
X127490Y-98235D02*
X127685Y-98235D01*
X129700Y-98350D02*
X129950Y-98100D01*
X127800Y-98350D02*
X129700Y-98350D01*
X127685Y-98235D02*
X127800Y-98350D01*
X130706Y-98856D02*
X131250Y-98856D01*
X129950Y-98100D02*
X130706Y-98856D01*
X122540Y-96565D02*
X122540Y-95900D01*
X125330Y-95385D02*
X125585Y-95130D01*
X123055Y-95385D02*
X125330Y-95385D01*
X122540Y-95900D02*
X123055Y-95385D01*
G54D32*
X126385Y-97940D02*
X128565Y-100120D01*
X128565Y-100120D02*
X132140Y-100120D01*
X132140Y-100120D02*
X134705Y-97555D01*
X134705Y-97555D02*
X134705Y-96795D01*
X126385Y-97925D02*
X126385Y-97940D01*
G54D10*
G36*
X149399Y-90200D02*
X149313Y-90200D01*
X149313Y-88952D01*
X149167Y-88598D01*
X148896Y-88327D01*
X148641Y-88221D01*
X148895Y-88117D01*
X149166Y-87846D01*
X149313Y-87492D01*
X149313Y-87109D01*
X149167Y-86754D01*
X148896Y-86483D01*
X148542Y-86336D01*
X148159Y-86336D01*
X147804Y-86482D01*
X147533Y-86753D01*
X147386Y-87107D01*
X147386Y-87490D01*
X147532Y-87845D01*
X147803Y-88116D01*
X148058Y-88221D01*
X147804Y-88326D01*
X147533Y-88597D01*
X147386Y-88951D01*
X147386Y-89334D01*
X147532Y-89688D01*
X147803Y-89959D01*
X148157Y-90106D01*
X148540Y-90107D01*
X148895Y-89960D01*
X149166Y-89690D01*
X149313Y-89336D01*
X149313Y-88952D01*
X149313Y-90200D01*
X143001Y-90200D01*
X143001Y-86930D01*
X142947Y-86801D01*
X142849Y-86702D01*
X142720Y-86649D01*
X142580Y-86648D01*
X142451Y-86702D01*
X142352Y-86800D01*
X142299Y-86929D01*
X142298Y-87069D01*
X142352Y-87198D01*
X142450Y-87297D01*
X142579Y-87350D01*
X142719Y-87351D01*
X142848Y-87297D01*
X142947Y-87199D01*
X143000Y-87070D01*
X143001Y-86930D01*
X143001Y-90200D01*
X142650Y-90200D01*
X139951Y-90200D01*
X139951Y-88080D01*
X139897Y-87951D01*
X139799Y-87852D01*
X139670Y-87799D01*
X139530Y-87798D01*
X139401Y-87852D01*
X139302Y-87950D01*
X139249Y-88079D01*
X139248Y-88219D01*
X139302Y-88348D01*
X139310Y-88357D01*
X139201Y-88402D01*
X139102Y-88500D01*
X139049Y-88629D01*
X139048Y-88769D01*
X139102Y-88898D01*
X139200Y-88997D01*
X139329Y-89050D01*
X139469Y-89051D01*
X139598Y-88997D01*
X139697Y-88899D01*
X139750Y-88770D01*
X139751Y-88630D01*
X139697Y-88501D01*
X139689Y-88492D01*
X139798Y-88447D01*
X139897Y-88349D01*
X139950Y-88220D01*
X139951Y-88080D01*
X139951Y-90200D01*
X139570Y-90200D01*
X137970Y-88600D01*
X136300Y-88600D01*
X134829Y-88600D01*
X133650Y-89779D01*
X133650Y-90950D01*
X131500Y-90950D01*
X129800Y-90950D01*
X129800Y-94900D01*
X130350Y-94900D01*
X131729Y-94900D01*
X132929Y-96100D01*
X134950Y-96100D01*
X134950Y-96543D01*
X134904Y-96497D01*
X134775Y-96444D01*
X134635Y-96443D01*
X134506Y-96497D01*
X134407Y-96595D01*
X134354Y-96724D01*
X134353Y-96864D01*
X134407Y-96993D01*
X134444Y-97030D01*
X134444Y-97446D01*
X132243Y-99647D01*
X132243Y-96815D01*
X132097Y-96461D01*
X131826Y-96190D01*
X131472Y-96043D01*
X131089Y-96042D01*
X130734Y-96189D01*
X130463Y-96459D01*
X130316Y-96813D01*
X130316Y-97197D01*
X130462Y-97551D01*
X130733Y-97822D01*
X131087Y-97969D01*
X131470Y-97969D01*
X131825Y-97823D01*
X132096Y-97552D01*
X132243Y-97198D01*
X132243Y-96815D01*
X132243Y-99647D01*
X132031Y-99859D01*
X129901Y-99859D01*
X129901Y-96080D01*
X129847Y-95951D01*
X129749Y-95852D01*
X129620Y-95799D01*
X129480Y-95798D01*
X129351Y-95852D01*
X129299Y-95903D01*
X129249Y-95852D01*
X129120Y-95799D01*
X128980Y-95798D01*
X128851Y-95852D01*
X128752Y-95950D01*
X128699Y-96079D01*
X128698Y-96219D01*
X128752Y-96348D01*
X128850Y-96447D01*
X128979Y-96500D01*
X129119Y-96501D01*
X129248Y-96447D01*
X129300Y-96396D01*
X129350Y-96447D01*
X129479Y-96500D01*
X129619Y-96501D01*
X129748Y-96447D01*
X129847Y-96349D01*
X129900Y-96220D01*
X129901Y-96080D01*
X129901Y-99859D01*
X128673Y-99859D01*
X126735Y-97921D01*
X126736Y-97855D01*
X126682Y-97726D01*
X126584Y-97627D01*
X126455Y-97574D01*
X126344Y-97573D01*
X127299Y-96619D01*
X127299Y-96619D01*
X127348Y-96546D01*
X127365Y-96460D01*
X127365Y-96460D01*
X127365Y-90744D01*
X127379Y-90750D01*
X127519Y-90751D01*
X127648Y-90697D01*
X127747Y-90599D01*
X127800Y-90470D01*
X127801Y-90330D01*
X127747Y-90201D01*
X127649Y-90102D01*
X127520Y-90049D01*
X127380Y-90048D01*
X127365Y-90055D01*
X127365Y-89353D01*
X127843Y-88875D01*
X129150Y-88875D01*
X129236Y-88858D01*
X129309Y-88809D01*
X129843Y-88275D01*
X135750Y-88275D01*
X137200Y-88275D01*
X137286Y-88258D01*
X137359Y-88209D01*
X137367Y-88200D01*
X137469Y-88201D01*
X137598Y-88147D01*
X137697Y-88049D01*
X137750Y-87920D01*
X137751Y-87780D01*
X137697Y-87651D01*
X137599Y-87552D01*
X137470Y-87499D01*
X137330Y-87498D01*
X137201Y-87552D01*
X137102Y-87650D01*
X137049Y-87779D01*
X137049Y-87824D01*
X136193Y-87824D01*
X137367Y-86650D01*
X137469Y-86651D01*
X137598Y-86597D01*
X137697Y-86499D01*
X137750Y-86370D01*
X137751Y-86230D01*
X137697Y-86101D01*
X137599Y-86002D01*
X137470Y-85949D01*
X137330Y-85948D01*
X137201Y-86002D01*
X137102Y-86100D01*
X137049Y-86229D01*
X137048Y-86332D01*
X135806Y-87574D01*
X135550Y-87574D01*
X129550Y-87574D01*
X129463Y-87591D01*
X129390Y-87640D01*
X128924Y-88107D01*
X128924Y-88095D01*
X128882Y-87994D01*
X128805Y-87917D01*
X128763Y-87900D01*
X128805Y-87882D01*
X128882Y-87805D01*
X128924Y-87704D01*
X128924Y-87595D01*
X128882Y-87494D01*
X128854Y-87466D01*
X128898Y-87447D01*
X128997Y-87349D01*
X129050Y-87220D01*
X129051Y-87080D01*
X129051Y-85880D01*
X128997Y-85751D01*
X128899Y-85652D01*
X128770Y-85599D01*
X128630Y-85598D01*
X128501Y-85652D01*
X128402Y-85750D01*
X128349Y-85879D01*
X128348Y-86019D01*
X128402Y-86148D01*
X128500Y-86247D01*
X128629Y-86300D01*
X128769Y-86301D01*
X128898Y-86247D01*
X128997Y-86149D01*
X129050Y-86020D01*
X129051Y-85880D01*
X129051Y-87080D01*
X128997Y-86951D01*
X128899Y-86852D01*
X128770Y-86799D01*
X128630Y-86798D01*
X128501Y-86852D01*
X128402Y-86950D01*
X128349Y-87079D01*
X128348Y-87219D01*
X128402Y-87348D01*
X128478Y-87424D01*
X127100Y-87424D01*
X127013Y-87441D01*
X126940Y-87490D01*
X125885Y-88545D01*
X125836Y-88618D01*
X125819Y-88705D01*
X125819Y-90205D01*
X125819Y-90600D01*
X125819Y-96071D01*
X125607Y-96284D01*
X125607Y-88992D01*
X125505Y-88747D01*
X125317Y-88559D01*
X125072Y-88457D01*
X124806Y-88456D01*
X124561Y-88558D01*
X124373Y-88746D01*
X124271Y-88991D01*
X124270Y-89257D01*
X124372Y-89502D01*
X124560Y-89690D01*
X124805Y-89792D01*
X125071Y-89793D01*
X125316Y-89691D01*
X125504Y-89503D01*
X125606Y-89258D01*
X125607Y-88992D01*
X125607Y-96284D01*
X125213Y-96678D01*
X125213Y-94307D01*
X125111Y-94062D01*
X124923Y-93874D01*
X124678Y-93772D01*
X124412Y-93771D01*
X124167Y-93873D01*
X123979Y-94061D01*
X123877Y-94306D01*
X123876Y-94572D01*
X123978Y-94817D01*
X124166Y-95005D01*
X124411Y-95107D01*
X124677Y-95108D01*
X124922Y-95006D01*
X125110Y-94818D01*
X125212Y-94573D01*
X125213Y-94307D01*
X125213Y-96678D01*
X125084Y-96807D01*
X125084Y-95985D01*
X125042Y-95884D01*
X124965Y-95807D01*
X124864Y-95765D01*
X124755Y-95765D01*
X124654Y-95807D01*
X124577Y-95884D01*
X124535Y-95985D01*
X124535Y-96094D01*
X124577Y-96195D01*
X124654Y-96272D01*
X124755Y-96314D01*
X124864Y-96314D01*
X124965Y-96272D01*
X125042Y-96195D01*
X125084Y-96094D01*
X125084Y-95985D01*
X125084Y-96807D01*
X125010Y-96880D01*
X124961Y-96953D01*
X124944Y-97040D01*
X124944Y-98760D01*
X124961Y-98846D01*
X125010Y-98919D01*
X125374Y-99283D01*
X125374Y-100378D01*
X125330Y-100396D01*
X125325Y-100401D01*
X125325Y-99650D01*
X125325Y-99649D01*
X125308Y-99563D01*
X125259Y-99490D01*
X125259Y-99490D01*
X124649Y-98880D01*
X124649Y-97310D01*
X124607Y-97209D01*
X124530Y-97132D01*
X124429Y-97090D01*
X124320Y-97090D01*
X124319Y-97091D01*
X124319Y-95975D01*
X124277Y-95874D01*
X124200Y-95797D01*
X124099Y-95755D01*
X123990Y-95755D01*
X123889Y-95797D01*
X123812Y-95874D01*
X123770Y-95975D01*
X123770Y-96084D01*
X123812Y-96185D01*
X123889Y-96262D01*
X123990Y-96304D01*
X124099Y-96304D01*
X124200Y-96262D01*
X124277Y-96185D01*
X124319Y-96084D01*
X124319Y-95975D01*
X124319Y-97091D01*
X124219Y-97132D01*
X124142Y-97209D01*
X124100Y-97310D01*
X124100Y-97419D01*
X124142Y-97520D01*
X124219Y-97597D01*
X124320Y-97639D01*
X124429Y-97639D01*
X124530Y-97597D01*
X124607Y-97520D01*
X124649Y-97419D01*
X124649Y-97310D01*
X124649Y-98880D01*
X123816Y-98048D01*
X123855Y-98064D01*
X123964Y-98064D01*
X124065Y-98022D01*
X124142Y-97945D01*
X124184Y-97844D01*
X124184Y-97735D01*
X124142Y-97634D01*
X124065Y-97557D01*
X123964Y-97515D01*
X123855Y-97515D01*
X123754Y-97557D01*
X123677Y-97634D01*
X123635Y-97735D01*
X123635Y-97844D01*
X123651Y-97883D01*
X123375Y-97606D01*
X123375Y-97362D01*
X123382Y-97355D01*
X123424Y-97254D01*
X123424Y-97145D01*
X123382Y-97044D01*
X123305Y-96967D01*
X123204Y-96925D01*
X123095Y-96925D01*
X122994Y-96967D01*
X122917Y-97044D01*
X122875Y-97145D01*
X122875Y-97254D01*
X122917Y-97355D01*
X122924Y-97362D01*
X122924Y-97700D01*
X122929Y-97725D01*
X122845Y-97725D01*
X122744Y-97767D01*
X122667Y-97844D01*
X122625Y-97945D01*
X122625Y-98054D01*
X122667Y-98155D01*
X122744Y-98232D01*
X122845Y-98274D01*
X122855Y-98274D01*
X122924Y-98343D01*
X122924Y-99550D01*
X122941Y-99636D01*
X122990Y-99709D01*
X123605Y-100324D01*
X123505Y-100323D01*
X123330Y-100396D01*
X123196Y-100530D01*
X123124Y-100704D01*
X123123Y-100894D01*
X123142Y-100939D01*
X122935Y-101145D01*
X122886Y-101218D01*
X122869Y-101305D01*
X122869Y-101396D01*
X122695Y-101324D01*
X122505Y-101323D01*
X122330Y-101396D01*
X122325Y-101401D01*
X122325Y-101393D01*
X122460Y-101257D01*
X122504Y-101275D01*
X122694Y-101276D01*
X122869Y-101203D01*
X123003Y-101069D01*
X123075Y-100895D01*
X123076Y-100705D01*
X123003Y-100530D01*
X122869Y-100396D01*
X122695Y-100324D01*
X122505Y-100323D01*
X122330Y-100396D01*
X122196Y-100530D01*
X122124Y-100704D01*
X122123Y-100894D01*
X122142Y-100939D01*
X121940Y-101140D01*
X121891Y-101213D01*
X121874Y-101300D01*
X121874Y-101401D01*
X121869Y-101396D01*
X121695Y-101324D01*
X121505Y-101323D01*
X121330Y-101396D01*
X121330Y-101396D01*
X121330Y-101388D01*
X121460Y-101257D01*
X121504Y-101275D01*
X121694Y-101276D01*
X121869Y-101203D01*
X122003Y-101069D01*
X122075Y-100895D01*
X122076Y-100705D01*
X122003Y-100530D01*
X121869Y-100396D01*
X121695Y-100324D01*
X121505Y-100323D01*
X121330Y-100396D01*
X121196Y-100530D01*
X121124Y-100704D01*
X121123Y-100894D01*
X121142Y-100939D01*
X121076Y-101005D01*
X121076Y-100705D01*
X121003Y-100530D01*
X120869Y-100396D01*
X120695Y-100324D01*
X120505Y-100323D01*
X120330Y-100396D01*
X120196Y-100530D01*
X120124Y-100704D01*
X120123Y-100894D01*
X120196Y-101069D01*
X120330Y-101203D01*
X120504Y-101275D01*
X120694Y-101276D01*
X120869Y-101203D01*
X121003Y-101069D01*
X121075Y-100895D01*
X121076Y-100705D01*
X121076Y-101005D01*
X120945Y-101135D01*
X120896Y-101208D01*
X120879Y-101295D01*
X120879Y-101406D01*
X120869Y-101396D01*
X120695Y-101324D01*
X120505Y-101323D01*
X120330Y-101396D01*
X120196Y-101530D01*
X120124Y-101704D01*
X120123Y-101894D01*
X120196Y-102069D01*
X120330Y-102203D01*
X120504Y-102275D01*
X120694Y-102276D01*
X120869Y-102203D01*
X120879Y-102193D01*
X120879Y-102705D01*
X120896Y-102791D01*
X120945Y-102864D01*
X121145Y-103063D01*
X121124Y-103114D01*
X121123Y-103304D01*
X121196Y-103479D01*
X121330Y-103613D01*
X121504Y-103685D01*
X121694Y-103686D01*
X121869Y-103613D01*
X122003Y-103479D01*
X122075Y-103305D01*
X122076Y-103115D01*
X122003Y-102940D01*
X121869Y-102806D01*
X121695Y-102734D01*
X121505Y-102733D01*
X121468Y-102749D01*
X121330Y-102611D01*
X121330Y-102203D01*
X121504Y-102275D01*
X121694Y-102276D01*
X121869Y-102203D01*
X121874Y-102198D01*
X121874Y-102705D01*
X121891Y-102791D01*
X121940Y-102864D01*
X122143Y-103067D01*
X122124Y-103114D01*
X122123Y-103304D01*
X122196Y-103479D01*
X122330Y-103613D01*
X122504Y-103685D01*
X122694Y-103686D01*
X122869Y-103613D01*
X123003Y-103479D01*
X123075Y-103305D01*
X123076Y-103115D01*
X123003Y-102940D01*
X122869Y-102806D01*
X122695Y-102734D01*
X122505Y-102733D01*
X122464Y-102750D01*
X122325Y-102611D01*
X122325Y-102198D01*
X122330Y-102203D01*
X122504Y-102275D01*
X122694Y-102276D01*
X122869Y-102203D01*
X122869Y-102203D01*
X122869Y-102685D01*
X122886Y-102771D01*
X122935Y-102844D01*
X123123Y-103032D01*
X123123Y-103544D01*
X123150Y-103609D01*
X123200Y-103659D01*
X123264Y-103685D01*
X123334Y-103686D01*
X123934Y-103686D01*
X123999Y-103659D01*
X124049Y-103609D01*
X124075Y-103545D01*
X124076Y-103475D01*
X124076Y-102875D01*
X124049Y-102810D01*
X123999Y-102760D01*
X123935Y-102734D01*
X123865Y-102733D01*
X123462Y-102733D01*
X123320Y-102591D01*
X123320Y-102193D01*
X123330Y-102203D01*
X123504Y-102275D01*
X123694Y-102276D01*
X123869Y-102203D01*
X124003Y-102069D01*
X124075Y-101895D01*
X124076Y-101744D01*
X124124Y-101792D01*
X124123Y-101894D01*
X124196Y-102069D01*
X124330Y-102203D01*
X124504Y-102275D01*
X124694Y-102276D01*
X124869Y-102203D01*
X124874Y-102198D01*
X124874Y-102600D01*
X124891Y-102686D01*
X124940Y-102759D01*
X126040Y-103859D01*
X126040Y-103859D01*
X126113Y-103908D01*
X126200Y-103925D01*
X128906Y-103925D01*
X129524Y-104543D01*
X129524Y-107100D01*
X129541Y-107186D01*
X129590Y-107259D01*
X130190Y-107859D01*
X130263Y-107908D01*
X130350Y-107925D01*
X131198Y-107925D01*
X131198Y-108009D01*
X131225Y-108074D01*
X131275Y-108124D01*
X131339Y-108150D01*
X131409Y-108151D01*
X131959Y-108151D01*
X132024Y-108124D01*
X132074Y-108074D01*
X132100Y-108010D01*
X132101Y-107940D01*
X132101Y-107390D01*
X132074Y-107325D01*
X132024Y-107275D01*
X131960Y-107249D01*
X131890Y-107248D01*
X131340Y-107248D01*
X131275Y-107275D01*
X131225Y-107325D01*
X131199Y-107389D01*
X131198Y-107459D01*
X131198Y-107474D01*
X131026Y-107474D01*
X131026Y-106655D01*
X130953Y-106480D01*
X130819Y-106346D01*
X130645Y-106274D01*
X130455Y-106273D01*
X130280Y-106346D01*
X130146Y-106480D01*
X130074Y-106654D01*
X130073Y-106844D01*
X130146Y-107019D01*
X130280Y-107153D01*
X130454Y-107225D01*
X130644Y-107226D01*
X130819Y-107153D01*
X130953Y-107019D01*
X131025Y-106845D01*
X131026Y-106655D01*
X131026Y-107474D01*
X130443Y-107474D01*
X129975Y-107006D01*
X129975Y-104450D01*
X129975Y-104449D01*
X129958Y-104363D01*
X129909Y-104290D01*
X129909Y-104290D01*
X129159Y-103540D01*
X129086Y-103491D01*
X129000Y-103474D01*
X127076Y-103474D01*
X127076Y-101705D01*
X127003Y-101530D01*
X126869Y-101396D01*
X126695Y-101324D01*
X126505Y-101323D01*
X126330Y-101396D01*
X126196Y-101530D01*
X126124Y-101704D01*
X126123Y-101894D01*
X126196Y-102069D01*
X126330Y-102203D01*
X126504Y-102275D01*
X126694Y-102276D01*
X126869Y-102203D01*
X127003Y-102069D01*
X127075Y-101895D01*
X127076Y-101705D01*
X127076Y-103474D01*
X126293Y-103474D01*
X125325Y-102506D01*
X125325Y-102198D01*
X125330Y-102203D01*
X125504Y-102275D01*
X125694Y-102276D01*
X125869Y-102203D01*
X126003Y-102069D01*
X126075Y-101895D01*
X126076Y-101705D01*
X126003Y-101530D01*
X125869Y-101396D01*
X125695Y-101324D01*
X125505Y-101323D01*
X125330Y-101396D01*
X125325Y-101401D01*
X125325Y-101198D01*
X125330Y-101203D01*
X125504Y-101275D01*
X125694Y-101276D01*
X125869Y-101203D01*
X126003Y-101069D01*
X126075Y-100895D01*
X126076Y-100705D01*
X126003Y-100530D01*
X125869Y-100396D01*
X125825Y-100378D01*
X125825Y-99190D01*
X125808Y-99107D01*
X126879Y-100178D01*
X126879Y-100406D01*
X126869Y-100396D01*
X126695Y-100324D01*
X126505Y-100323D01*
X126330Y-100396D01*
X126196Y-100530D01*
X126124Y-100704D01*
X126123Y-100894D01*
X126196Y-101069D01*
X126330Y-101203D01*
X126504Y-101275D01*
X126694Y-101276D01*
X126869Y-101203D01*
X126879Y-101193D01*
X126879Y-101305D01*
X126896Y-101391D01*
X126945Y-101464D01*
X127142Y-101660D01*
X127124Y-101704D01*
X127123Y-101894D01*
X127196Y-102069D01*
X127330Y-102203D01*
X127504Y-102275D01*
X127694Y-102276D01*
X127869Y-102203D01*
X128003Y-102069D01*
X128075Y-101895D01*
X128076Y-101705D01*
X128003Y-101530D01*
X127869Y-101396D01*
X127695Y-101324D01*
X127505Y-101323D01*
X127460Y-101342D01*
X127330Y-101211D01*
X127330Y-101203D01*
X127504Y-101275D01*
X127694Y-101276D01*
X127869Y-101203D01*
X128003Y-101069D01*
X128075Y-100895D01*
X128076Y-100705D01*
X128003Y-100530D01*
X127869Y-100396D01*
X127695Y-100324D01*
X127505Y-100323D01*
X127330Y-100396D01*
X127330Y-100396D01*
X127330Y-100085D01*
X127313Y-99998D01*
X127264Y-99925D01*
X125680Y-98341D01*
X125680Y-98168D01*
X125695Y-98174D01*
X125804Y-98174D01*
X125905Y-98132D01*
X125982Y-98055D01*
X126024Y-97954D01*
X126024Y-97845D01*
X126015Y-97824D01*
X126046Y-97824D01*
X126034Y-97854D01*
X126033Y-97994D01*
X126087Y-98123D01*
X126185Y-98222D01*
X126314Y-98275D01*
X126351Y-98275D01*
X128380Y-100304D01*
X128465Y-100361D01*
X128565Y-100380D01*
X132140Y-100380D01*
X132239Y-100361D01*
X132324Y-100304D01*
X134889Y-97739D01*
X134889Y-97739D01*
X134912Y-97705D01*
X134946Y-97654D01*
X134946Y-97654D01*
X134950Y-97635D01*
X134950Y-100650D01*
X133831Y-100650D01*
X133831Y-99705D01*
X133777Y-99576D01*
X133679Y-99477D01*
X133550Y-99424D01*
X133410Y-99423D01*
X133281Y-99477D01*
X133182Y-99575D01*
X133129Y-99704D01*
X133128Y-99844D01*
X133182Y-99973D01*
X133280Y-100072D01*
X133409Y-100125D01*
X133549Y-100126D01*
X133678Y-100072D01*
X133777Y-99974D01*
X133830Y-99845D01*
X133831Y-99705D01*
X133831Y-100650D01*
X130850Y-100650D01*
X130850Y-105400D01*
X135400Y-105400D01*
X137300Y-105400D01*
X137300Y-106567D01*
X137135Y-106499D01*
X136945Y-106498D01*
X136770Y-106571D01*
X136636Y-106705D01*
X136570Y-106863D01*
X136503Y-106700D01*
X136369Y-106566D01*
X136195Y-106494D01*
X136005Y-106493D01*
X135830Y-106566D01*
X135696Y-106700D01*
X135624Y-106874D01*
X135623Y-107064D01*
X135696Y-107239D01*
X135830Y-107373D01*
X136004Y-107445D01*
X136194Y-107446D01*
X136369Y-107373D01*
X136503Y-107239D01*
X136569Y-107081D01*
X136636Y-107244D01*
X136770Y-107378D01*
X136944Y-107450D01*
X137134Y-107451D01*
X137300Y-107382D01*
X137300Y-110567D01*
X137135Y-110499D01*
X136945Y-110498D01*
X136770Y-110571D01*
X136636Y-110705D01*
X136564Y-110879D01*
X136563Y-111069D01*
X136636Y-111244D01*
X136770Y-111378D01*
X136944Y-111450D01*
X137134Y-111451D01*
X137300Y-111382D01*
X137300Y-113049D01*
X136600Y-113049D01*
X136576Y-113053D01*
X136549Y-113053D01*
X136525Y-113063D01*
X136503Y-113068D01*
X136485Y-113080D01*
X136459Y-113091D01*
X136439Y-113111D01*
X136422Y-113122D01*
X136410Y-113139D01*
X136390Y-113160D01*
X136388Y-113165D01*
X136388Y-112797D01*
X136003Y-111864D01*
X135289Y-111149D01*
X135101Y-111071D01*
X135101Y-109610D01*
X135101Y-108610D01*
X135101Y-107610D01*
X135032Y-107444D01*
X134905Y-107317D01*
X134740Y-107249D01*
X134560Y-107248D01*
X134394Y-107317D01*
X134267Y-107444D01*
X134199Y-107609D01*
X134198Y-107789D01*
X134267Y-107955D01*
X134394Y-108082D01*
X134559Y-108150D01*
X134739Y-108151D01*
X134905Y-108082D01*
X135032Y-107955D01*
X135100Y-107790D01*
X135101Y-107610D01*
X135101Y-108610D01*
X135032Y-108444D01*
X134905Y-108317D01*
X134740Y-108249D01*
X134560Y-108248D01*
X134394Y-108317D01*
X134267Y-108444D01*
X134199Y-108609D01*
X134198Y-108789D01*
X134267Y-108955D01*
X134394Y-109082D01*
X134559Y-109150D01*
X134739Y-109151D01*
X134905Y-109082D01*
X135032Y-108955D01*
X135100Y-108790D01*
X135101Y-108610D01*
X135101Y-109610D01*
X135032Y-109444D01*
X134905Y-109317D01*
X134740Y-109249D01*
X134560Y-109248D01*
X134394Y-109317D01*
X134267Y-109444D01*
X134199Y-109609D01*
X134198Y-109789D01*
X134267Y-109955D01*
X134394Y-110082D01*
X134559Y-110150D01*
X134739Y-110151D01*
X134905Y-110082D01*
X135032Y-109955D01*
X135100Y-109790D01*
X135101Y-109610D01*
X135101Y-111071D01*
X134357Y-110762D01*
X133347Y-110761D01*
X132414Y-111146D01*
X132101Y-111459D01*
X132101Y-109610D01*
X132101Y-108610D01*
X132032Y-108444D01*
X131905Y-108317D01*
X131740Y-108249D01*
X131560Y-108248D01*
X131394Y-108317D01*
X131267Y-108444D01*
X131199Y-108609D01*
X131198Y-108789D01*
X131267Y-108955D01*
X131394Y-109082D01*
X131559Y-109150D01*
X131739Y-109151D01*
X131905Y-109082D01*
X132032Y-108955D01*
X132100Y-108790D01*
X132101Y-108610D01*
X132101Y-109610D01*
X132032Y-109444D01*
X131905Y-109317D01*
X131740Y-109249D01*
X131560Y-109248D01*
X131394Y-109317D01*
X131267Y-109444D01*
X131199Y-109609D01*
X131198Y-109789D01*
X131267Y-109955D01*
X131394Y-110082D01*
X131559Y-110150D01*
X131739Y-110151D01*
X131905Y-110082D01*
X132032Y-109955D01*
X132100Y-109790D01*
X132101Y-109610D01*
X132101Y-111459D01*
X131699Y-111860D01*
X131312Y-112792D01*
X131311Y-113168D01*
X131308Y-113160D01*
X131291Y-113143D01*
X131277Y-113122D01*
X131257Y-113108D01*
X131239Y-113091D01*
X131216Y-113081D01*
X131196Y-113068D01*
X131171Y-113063D01*
X131149Y-113053D01*
X131124Y-113053D01*
X131100Y-113049D01*
X128076Y-113049D01*
X128076Y-109605D01*
X128076Y-108605D01*
X128003Y-108430D01*
X127869Y-108296D01*
X127695Y-108224D01*
X127505Y-108223D01*
X127460Y-108242D01*
X127325Y-108106D01*
X127325Y-106148D01*
X127330Y-106153D01*
X127504Y-106225D01*
X127694Y-106226D01*
X127869Y-106153D01*
X128003Y-106019D01*
X128075Y-105845D01*
X128076Y-105655D01*
X128003Y-105480D01*
X127869Y-105346D01*
X127695Y-105274D01*
X127505Y-105273D01*
X127330Y-105346D01*
X127325Y-105351D01*
X127325Y-105343D01*
X127460Y-105207D01*
X127504Y-105225D01*
X127694Y-105226D01*
X127869Y-105153D01*
X128003Y-105019D01*
X128075Y-104845D01*
X128076Y-104655D01*
X128003Y-104480D01*
X127869Y-104346D01*
X127695Y-104274D01*
X127505Y-104273D01*
X127330Y-104346D01*
X127196Y-104480D01*
X127124Y-104654D01*
X127123Y-104844D01*
X127142Y-104889D01*
X126940Y-105090D01*
X126891Y-105163D01*
X126874Y-105250D01*
X126874Y-105351D01*
X126869Y-105346D01*
X126695Y-105274D01*
X126505Y-105273D01*
X126330Y-105346D01*
X126325Y-105351D01*
X126325Y-105343D01*
X126460Y-105207D01*
X126504Y-105225D01*
X126694Y-105226D01*
X126869Y-105153D01*
X127003Y-105019D01*
X127075Y-104845D01*
X127076Y-104655D01*
X127003Y-104480D01*
X126869Y-104346D01*
X126695Y-104274D01*
X126505Y-104273D01*
X126330Y-104346D01*
X126196Y-104480D01*
X126124Y-104654D01*
X126123Y-104844D01*
X126142Y-104889D01*
X125940Y-105090D01*
X125891Y-105163D01*
X125874Y-105250D01*
X125874Y-105351D01*
X125869Y-105346D01*
X125695Y-105274D01*
X125505Y-105273D01*
X125330Y-105346D01*
X125325Y-105351D01*
X125325Y-105343D01*
X125460Y-105207D01*
X125504Y-105225D01*
X125694Y-105226D01*
X125869Y-105153D01*
X126003Y-105019D01*
X126075Y-104845D01*
X126076Y-104655D01*
X126003Y-104480D01*
X125869Y-104346D01*
X125695Y-104274D01*
X125505Y-104273D01*
X125330Y-104346D01*
X125196Y-104480D01*
X125124Y-104654D01*
X125123Y-104844D01*
X125142Y-104889D01*
X124940Y-105090D01*
X124891Y-105163D01*
X124874Y-105250D01*
X124874Y-105351D01*
X124869Y-105346D01*
X124695Y-105274D01*
X124505Y-105273D01*
X124330Y-105346D01*
X124325Y-105351D01*
X124325Y-105343D01*
X124460Y-105207D01*
X124504Y-105225D01*
X124694Y-105226D01*
X124869Y-105153D01*
X125003Y-105019D01*
X125075Y-104845D01*
X125076Y-104655D01*
X125003Y-104480D01*
X124869Y-104346D01*
X124695Y-104274D01*
X124505Y-104273D01*
X124330Y-104346D01*
X124196Y-104480D01*
X124124Y-104654D01*
X124123Y-104844D01*
X124142Y-104889D01*
X123940Y-105090D01*
X123891Y-105163D01*
X123874Y-105250D01*
X123874Y-105351D01*
X123869Y-105346D01*
X123695Y-105274D01*
X123505Y-105273D01*
X123330Y-105346D01*
X123325Y-105351D01*
X123325Y-105343D01*
X123460Y-105207D01*
X123504Y-105225D01*
X123694Y-105226D01*
X123869Y-105153D01*
X124003Y-105019D01*
X124075Y-104845D01*
X124076Y-104655D01*
X124003Y-104480D01*
X123869Y-104346D01*
X123695Y-104274D01*
X123505Y-104273D01*
X123330Y-104346D01*
X123196Y-104480D01*
X123124Y-104654D01*
X123123Y-104844D01*
X123142Y-104889D01*
X122940Y-105090D01*
X122891Y-105163D01*
X122874Y-105250D01*
X122874Y-105351D01*
X122869Y-105346D01*
X122695Y-105274D01*
X122505Y-105273D01*
X122330Y-105346D01*
X122325Y-105351D01*
X122325Y-105343D01*
X122460Y-105207D01*
X122504Y-105225D01*
X122694Y-105226D01*
X122869Y-105153D01*
X123003Y-105019D01*
X123075Y-104845D01*
X123076Y-104655D01*
X123003Y-104480D01*
X122869Y-104346D01*
X122695Y-104274D01*
X122505Y-104273D01*
X122330Y-104346D01*
X122196Y-104480D01*
X122124Y-104654D01*
X122123Y-104844D01*
X122142Y-104889D01*
X121940Y-105090D01*
X121891Y-105163D01*
X121874Y-105250D01*
X121874Y-105351D01*
X121869Y-105346D01*
X121695Y-105274D01*
X121505Y-105273D01*
X121330Y-105346D01*
X121325Y-105351D01*
X121325Y-105343D01*
X121460Y-105207D01*
X121504Y-105225D01*
X121694Y-105226D01*
X121869Y-105153D01*
X122003Y-105019D01*
X122075Y-104845D01*
X122076Y-104655D01*
X122003Y-104480D01*
X121869Y-104346D01*
X121695Y-104274D01*
X121505Y-104273D01*
X121330Y-104346D01*
X121196Y-104480D01*
X121124Y-104654D01*
X121123Y-104844D01*
X121142Y-104889D01*
X120940Y-105090D01*
X120891Y-105163D01*
X120874Y-105250D01*
X120874Y-105351D01*
X120869Y-105346D01*
X120695Y-105274D01*
X120505Y-105273D01*
X120330Y-105346D01*
X120325Y-105351D01*
X120325Y-105343D01*
X120460Y-105207D01*
X120504Y-105225D01*
X120694Y-105226D01*
X120869Y-105153D01*
X121003Y-105019D01*
X121075Y-104845D01*
X121076Y-104655D01*
X121003Y-104480D01*
X120869Y-104346D01*
X120695Y-104274D01*
X120505Y-104273D01*
X120330Y-104346D01*
X120196Y-104480D01*
X120124Y-104654D01*
X120123Y-104844D01*
X120142Y-104889D01*
X120076Y-104955D01*
X120076Y-104655D01*
X120076Y-100705D01*
X120003Y-100530D01*
X119869Y-100396D01*
X119819Y-100375D01*
X119819Y-94307D01*
X119717Y-94062D01*
X119529Y-93874D01*
X119426Y-93830D01*
X119426Y-88992D01*
X119324Y-88747D01*
X119136Y-88559D01*
X118891Y-88457D01*
X118625Y-88456D01*
X118380Y-88558D01*
X118192Y-88746D01*
X118090Y-88991D01*
X118089Y-89257D01*
X118191Y-89502D01*
X118379Y-89690D01*
X118624Y-89792D01*
X118890Y-89793D01*
X119135Y-89691D01*
X119323Y-89503D01*
X119425Y-89258D01*
X119426Y-88992D01*
X119426Y-93830D01*
X119284Y-93772D01*
X119018Y-93771D01*
X118773Y-93873D01*
X118585Y-94061D01*
X118483Y-94306D01*
X118482Y-94572D01*
X118584Y-94817D01*
X118772Y-95005D01*
X119017Y-95107D01*
X119283Y-95108D01*
X119528Y-95006D01*
X119716Y-94818D01*
X119818Y-94573D01*
X119819Y-94307D01*
X119819Y-100375D01*
X119701Y-100326D01*
X119701Y-96730D01*
X119647Y-96601D01*
X119549Y-96502D01*
X119420Y-96449D01*
X119280Y-96448D01*
X119151Y-96502D01*
X119052Y-96600D01*
X118999Y-96729D01*
X118998Y-96869D01*
X119052Y-96998D01*
X119150Y-97097D01*
X119279Y-97150D01*
X119419Y-97151D01*
X119548Y-97097D01*
X119647Y-96999D01*
X119700Y-96870D01*
X119701Y-96730D01*
X119701Y-100326D01*
X119695Y-100324D01*
X119505Y-100323D01*
X119330Y-100396D01*
X119196Y-100530D01*
X119124Y-100704D01*
X119123Y-100894D01*
X119196Y-101069D01*
X119330Y-101203D01*
X119504Y-101275D01*
X119694Y-101276D01*
X119869Y-101203D01*
X120003Y-101069D01*
X120075Y-100895D01*
X120076Y-100705D01*
X120076Y-104655D01*
X120076Y-104655D01*
X120076Y-102065D01*
X120076Y-101465D01*
X120049Y-101400D01*
X119999Y-101350D01*
X119935Y-101324D01*
X119865Y-101323D01*
X119265Y-101323D01*
X119200Y-101350D01*
X119150Y-101400D01*
X119124Y-101464D01*
X119123Y-101534D01*
X119123Y-102134D01*
X119150Y-102199D01*
X119200Y-102249D01*
X119264Y-102275D01*
X119334Y-102276D01*
X119934Y-102276D01*
X119999Y-102249D01*
X120049Y-102199D01*
X120075Y-102135D01*
X120076Y-102065D01*
X120076Y-104655D01*
X120003Y-104480D01*
X119869Y-104346D01*
X119695Y-104274D01*
X119505Y-104273D01*
X119330Y-104346D01*
X119196Y-104480D01*
X119124Y-104654D01*
X119123Y-104844D01*
X119196Y-105019D01*
X119330Y-105153D01*
X119504Y-105225D01*
X119694Y-105226D01*
X119869Y-105153D01*
X120003Y-105019D01*
X120075Y-104845D01*
X120076Y-104655D01*
X120076Y-104955D01*
X119940Y-105090D01*
X119891Y-105163D01*
X119874Y-105250D01*
X119874Y-105273D01*
X119865Y-105273D01*
X119265Y-105273D01*
X119200Y-105300D01*
X119150Y-105350D01*
X119124Y-105414D01*
X119123Y-105484D01*
X119123Y-106084D01*
X119150Y-106149D01*
X119200Y-106199D01*
X119264Y-106225D01*
X119334Y-106226D01*
X119874Y-106226D01*
X119874Y-108200D01*
X119891Y-108286D01*
X119940Y-108359D01*
X120142Y-108560D01*
X120124Y-108604D01*
X120123Y-108794D01*
X120196Y-108969D01*
X120330Y-109103D01*
X120504Y-109175D01*
X120694Y-109176D01*
X120869Y-109103D01*
X121003Y-108969D01*
X121075Y-108795D01*
X121076Y-108605D01*
X121003Y-108430D01*
X120869Y-108296D01*
X120695Y-108224D01*
X120505Y-108223D01*
X120460Y-108242D01*
X120325Y-108106D01*
X120325Y-106148D01*
X120330Y-106153D01*
X120504Y-106225D01*
X120694Y-106226D01*
X120869Y-106153D01*
X120874Y-106148D01*
X120874Y-108200D01*
X120891Y-108286D01*
X120940Y-108359D01*
X121142Y-108560D01*
X121124Y-108604D01*
X121123Y-108794D01*
X121196Y-108969D01*
X121330Y-109103D01*
X121504Y-109175D01*
X121694Y-109176D01*
X121869Y-109103D01*
X122003Y-108969D01*
X122075Y-108795D01*
X122076Y-108605D01*
X122003Y-108430D01*
X121869Y-108296D01*
X121695Y-108224D01*
X121505Y-108223D01*
X121460Y-108242D01*
X121325Y-108106D01*
X121325Y-106148D01*
X121330Y-106153D01*
X121504Y-106225D01*
X121694Y-106226D01*
X121869Y-106153D01*
X121874Y-106148D01*
X121874Y-108200D01*
X121891Y-108286D01*
X121940Y-108359D01*
X122142Y-108560D01*
X122124Y-108604D01*
X122123Y-108794D01*
X122196Y-108969D01*
X122330Y-109103D01*
X122504Y-109175D01*
X122694Y-109176D01*
X122869Y-109103D01*
X123003Y-108969D01*
X123075Y-108795D01*
X123076Y-108605D01*
X123003Y-108430D01*
X122869Y-108296D01*
X122695Y-108224D01*
X122505Y-108223D01*
X122460Y-108242D01*
X122325Y-108106D01*
X122325Y-106148D01*
X122330Y-106153D01*
X122504Y-106225D01*
X122694Y-106226D01*
X122869Y-106153D01*
X122874Y-106148D01*
X122874Y-108200D01*
X122891Y-108286D01*
X122940Y-108359D01*
X123142Y-108560D01*
X123124Y-108604D01*
X123123Y-108794D01*
X123196Y-108969D01*
X123330Y-109103D01*
X123504Y-109175D01*
X123694Y-109176D01*
X123869Y-109103D01*
X124003Y-108969D01*
X124075Y-108795D01*
X124076Y-108605D01*
X124003Y-108430D01*
X123869Y-108296D01*
X123695Y-108224D01*
X123505Y-108223D01*
X123460Y-108242D01*
X123325Y-108106D01*
X123325Y-106148D01*
X123330Y-106153D01*
X123504Y-106225D01*
X123694Y-106226D01*
X123869Y-106153D01*
X123874Y-106148D01*
X123874Y-108200D01*
X123891Y-108286D01*
X123940Y-108359D01*
X124142Y-108560D01*
X124124Y-108604D01*
X124123Y-108794D01*
X124196Y-108969D01*
X124330Y-109103D01*
X124504Y-109175D01*
X124694Y-109176D01*
X124869Y-109103D01*
X125003Y-108969D01*
X125075Y-108795D01*
X125076Y-108605D01*
X125003Y-108430D01*
X124869Y-108296D01*
X124695Y-108224D01*
X124505Y-108223D01*
X124460Y-108242D01*
X124325Y-108106D01*
X124325Y-106148D01*
X124330Y-106153D01*
X124504Y-106225D01*
X124694Y-106226D01*
X124869Y-106153D01*
X124874Y-106148D01*
X124874Y-108200D01*
X124891Y-108286D01*
X124940Y-108359D01*
X125142Y-108560D01*
X125124Y-108604D01*
X125123Y-108794D01*
X125196Y-108969D01*
X125330Y-109103D01*
X125504Y-109175D01*
X125694Y-109176D01*
X125869Y-109103D01*
X126003Y-108969D01*
X126075Y-108795D01*
X126076Y-108605D01*
X126003Y-108430D01*
X125869Y-108296D01*
X125695Y-108224D01*
X125505Y-108223D01*
X125460Y-108242D01*
X125325Y-108106D01*
X125325Y-106148D01*
X125330Y-106153D01*
X125504Y-106225D01*
X125694Y-106226D01*
X125869Y-106153D01*
X125874Y-106148D01*
X125874Y-108200D01*
X125891Y-108286D01*
X125940Y-108359D01*
X126142Y-108560D01*
X126124Y-108604D01*
X126123Y-108794D01*
X126196Y-108969D01*
X126330Y-109103D01*
X126504Y-109175D01*
X126694Y-109176D01*
X126869Y-109103D01*
X127003Y-108969D01*
X127075Y-108795D01*
X127076Y-108605D01*
X127003Y-108430D01*
X126869Y-108296D01*
X126695Y-108224D01*
X126505Y-108223D01*
X126460Y-108242D01*
X126325Y-108106D01*
X126325Y-106148D01*
X126330Y-106153D01*
X126504Y-106225D01*
X126694Y-106226D01*
X126869Y-106153D01*
X126874Y-106148D01*
X126874Y-108200D01*
X126891Y-108286D01*
X126940Y-108359D01*
X127142Y-108560D01*
X127124Y-108604D01*
X127123Y-108794D01*
X127196Y-108969D01*
X127330Y-109103D01*
X127504Y-109175D01*
X127694Y-109176D01*
X127869Y-109103D01*
X128003Y-108969D01*
X128075Y-108795D01*
X128076Y-108605D01*
X128076Y-109605D01*
X128003Y-109430D01*
X127869Y-109296D01*
X127695Y-109224D01*
X127505Y-109223D01*
X127330Y-109296D01*
X127196Y-109430D01*
X127124Y-109604D01*
X127123Y-109794D01*
X127196Y-109969D01*
X127330Y-110103D01*
X127504Y-110175D01*
X127694Y-110176D01*
X127869Y-110103D01*
X128003Y-109969D01*
X128075Y-109795D01*
X128076Y-109605D01*
X128076Y-113049D01*
X127076Y-113049D01*
X127076Y-109605D01*
X127003Y-109430D01*
X126869Y-109296D01*
X126695Y-109224D01*
X126505Y-109223D01*
X126330Y-109296D01*
X126196Y-109430D01*
X126124Y-109604D01*
X126123Y-109794D01*
X126196Y-109969D01*
X126330Y-110103D01*
X126504Y-110175D01*
X126694Y-110176D01*
X126869Y-110103D01*
X127003Y-109969D01*
X127075Y-109795D01*
X127076Y-109605D01*
X127076Y-113049D01*
X126076Y-113049D01*
X126076Y-109605D01*
X126003Y-109430D01*
X125869Y-109296D01*
X125695Y-109224D01*
X125505Y-109223D01*
X125330Y-109296D01*
X125196Y-109430D01*
X125124Y-109604D01*
X125123Y-109794D01*
X125196Y-109969D01*
X125330Y-110103D01*
X125504Y-110175D01*
X125694Y-110176D01*
X125869Y-110103D01*
X126003Y-109969D01*
X126075Y-109795D01*
X126076Y-109605D01*
X126076Y-113049D01*
X125076Y-113049D01*
X125076Y-109605D01*
X125003Y-109430D01*
X124869Y-109296D01*
X124695Y-109224D01*
X124505Y-109223D01*
X124330Y-109296D01*
X124196Y-109430D01*
X124124Y-109604D01*
X124123Y-109794D01*
X124196Y-109969D01*
X124330Y-110103D01*
X124504Y-110175D01*
X124694Y-110176D01*
X124869Y-110103D01*
X125003Y-109969D01*
X125075Y-109795D01*
X125076Y-109605D01*
X125076Y-113049D01*
X124076Y-113049D01*
X124076Y-109605D01*
X124003Y-109430D01*
X123869Y-109296D01*
X123695Y-109224D01*
X123505Y-109223D01*
X123330Y-109296D01*
X123196Y-109430D01*
X123124Y-109604D01*
X123123Y-109794D01*
X123196Y-109969D01*
X123330Y-110103D01*
X123504Y-110175D01*
X123694Y-110176D01*
X123869Y-110103D01*
X124003Y-109969D01*
X124075Y-109795D01*
X124076Y-109605D01*
X124076Y-113049D01*
X123076Y-113049D01*
X123076Y-109605D01*
X123003Y-109430D01*
X122869Y-109296D01*
X122695Y-109224D01*
X122505Y-109223D01*
X122330Y-109296D01*
X122196Y-109430D01*
X122124Y-109604D01*
X122123Y-109794D01*
X122196Y-109969D01*
X122330Y-110103D01*
X122504Y-110175D01*
X122694Y-110176D01*
X122869Y-110103D01*
X123003Y-109969D01*
X123075Y-109795D01*
X123076Y-109605D01*
X123076Y-113049D01*
X122076Y-113049D01*
X122076Y-109605D01*
X122003Y-109430D01*
X121869Y-109296D01*
X121695Y-109224D01*
X121505Y-109223D01*
X121330Y-109296D01*
X121196Y-109430D01*
X121124Y-109604D01*
X121123Y-109794D01*
X121196Y-109969D01*
X121330Y-110103D01*
X121504Y-110175D01*
X121694Y-110176D01*
X121869Y-110103D01*
X122003Y-109969D01*
X122075Y-109795D01*
X122076Y-109605D01*
X122076Y-113049D01*
X121076Y-113049D01*
X121076Y-109605D01*
X121003Y-109430D01*
X120869Y-109296D01*
X120695Y-109224D01*
X120505Y-109223D01*
X120330Y-109296D01*
X120196Y-109430D01*
X120124Y-109604D01*
X120123Y-109794D01*
X120196Y-109969D01*
X120330Y-110103D01*
X120504Y-110175D01*
X120694Y-110176D01*
X120869Y-110103D01*
X121003Y-109969D01*
X121075Y-109795D01*
X121076Y-109605D01*
X121076Y-113049D01*
X120076Y-113049D01*
X120076Y-108605D01*
X120003Y-108430D01*
X119869Y-108296D01*
X119695Y-108224D01*
X119505Y-108223D01*
X119330Y-108296D01*
X119196Y-108430D01*
X119124Y-108604D01*
X119123Y-108794D01*
X119196Y-108969D01*
X119330Y-109103D01*
X119504Y-109175D01*
X119694Y-109176D01*
X119869Y-109103D01*
X120003Y-108969D01*
X120075Y-108795D01*
X120076Y-108605D01*
X120076Y-113049D01*
X120076Y-113049D01*
X120076Y-109965D01*
X120076Y-109365D01*
X120049Y-109300D01*
X119999Y-109250D01*
X119935Y-109224D01*
X119865Y-109223D01*
X119265Y-109223D01*
X119200Y-109250D01*
X119150Y-109300D01*
X119124Y-109364D01*
X119123Y-109434D01*
X119123Y-110034D01*
X119150Y-110099D01*
X119200Y-110149D01*
X119264Y-110175D01*
X119334Y-110176D01*
X119934Y-110176D01*
X119999Y-110149D01*
X120049Y-110099D01*
X120075Y-110035D01*
X120076Y-109965D01*
X120076Y-113049D01*
X118100Y-113049D01*
X118000Y-113049D01*
X118000Y-89750D01*
X118000Y-89450D01*
X118000Y-87650D01*
X118000Y-85200D01*
X131050Y-85200D01*
X131074Y-85196D01*
X131098Y-85196D01*
X131121Y-85186D01*
X131146Y-85181D01*
X131166Y-85168D01*
X131189Y-85158D01*
X131206Y-85141D01*
X131227Y-85127D01*
X131241Y-85107D01*
X131258Y-85089D01*
X131268Y-85066D01*
X131281Y-85046D01*
X131286Y-85021D01*
X131296Y-84999D01*
X131311Y-84920D01*
X131311Y-85452D01*
X131696Y-86385D01*
X132410Y-87100D01*
X133342Y-87487D01*
X134352Y-87488D01*
X135285Y-87103D01*
X136000Y-86389D01*
X136387Y-85457D01*
X136388Y-84915D01*
X136404Y-84998D01*
X136412Y-85017D01*
X136418Y-85046D01*
X136434Y-85070D01*
X136442Y-85089D01*
X136456Y-85103D01*
X136472Y-85127D01*
X136496Y-85143D01*
X136511Y-85158D01*
X136531Y-85166D01*
X136553Y-85181D01*
X136580Y-85187D01*
X136602Y-85196D01*
X136624Y-85195D01*
X136650Y-85200D01*
X139352Y-85200D01*
X139302Y-85250D01*
X139249Y-85379D01*
X139248Y-85519D01*
X139302Y-85648D01*
X139400Y-85747D01*
X139529Y-85800D01*
X139669Y-85801D01*
X139798Y-85747D01*
X139897Y-85649D01*
X139950Y-85520D01*
X139951Y-85380D01*
X139897Y-85251D01*
X139847Y-85200D01*
X142052Y-85200D01*
X142002Y-85250D01*
X141949Y-85379D01*
X141948Y-85519D01*
X142002Y-85648D01*
X142100Y-85747D01*
X142229Y-85800D01*
X142369Y-85801D01*
X142498Y-85747D01*
X142597Y-85649D01*
X142650Y-85520D01*
X142651Y-85380D01*
X142597Y-85251D01*
X142547Y-85200D01*
X143943Y-85200D01*
X143683Y-85459D01*
X143536Y-85813D01*
X143536Y-86197D01*
X143682Y-86551D01*
X143953Y-86822D01*
X144307Y-86969D01*
X144690Y-86969D01*
X145045Y-86823D01*
X145316Y-86552D01*
X145425Y-86290D01*
X145532Y-86551D01*
X145803Y-86822D01*
X146157Y-86969D01*
X146540Y-86969D01*
X146895Y-86823D01*
X147166Y-86552D01*
X147313Y-86198D01*
X147313Y-85815D01*
X147167Y-85461D01*
X146907Y-85200D01*
X147746Y-85200D01*
X149399Y-86853D01*
X149399Y-90200D01*
X149399Y-90200D01*
G37*
G54D33*
X149399Y-90200D02*
X149313Y-90200D01*
X149313Y-88952D01*
X149167Y-88598D01*
X148896Y-88327D01*
X148641Y-88221D01*
X148895Y-88117D01*
X149166Y-87846D01*
X149313Y-87492D01*
X149313Y-87109D01*
X149167Y-86754D01*
X148896Y-86483D01*
X148542Y-86336D01*
X148159Y-86336D01*
X147804Y-86482D01*
X147533Y-86753D01*
X147386Y-87107D01*
X147386Y-87490D01*
X147532Y-87845D01*
X147803Y-88116D01*
X148058Y-88221D01*
X147804Y-88326D01*
X147533Y-88597D01*
X147386Y-88951D01*
X147386Y-89334D01*
X147532Y-89688D01*
X147803Y-89959D01*
X148157Y-90106D01*
X148540Y-90107D01*
X148895Y-89960D01*
X149166Y-89690D01*
X149313Y-89336D01*
X149313Y-88952D01*
X149313Y-90200D01*
X143001Y-90200D01*
X143001Y-86930D01*
X142947Y-86801D01*
X142849Y-86702D01*
X142720Y-86649D01*
X142580Y-86648D01*
X142451Y-86702D01*
X142352Y-86800D01*
X142299Y-86929D01*
X142298Y-87069D01*
X142352Y-87198D01*
X142450Y-87297D01*
X142579Y-87350D01*
X142719Y-87351D01*
X142848Y-87297D01*
X142947Y-87199D01*
X143000Y-87070D01*
X143001Y-86930D01*
X143001Y-90200D01*
X142650Y-90200D01*
X139951Y-90200D01*
X139951Y-88080D01*
X139897Y-87951D01*
X139799Y-87852D01*
X139670Y-87799D01*
X139530Y-87798D01*
X139401Y-87852D01*
X139302Y-87950D01*
X139249Y-88079D01*
X139248Y-88219D01*
X139302Y-88348D01*
X139310Y-88357D01*
X139201Y-88402D01*
X139102Y-88500D01*
X139049Y-88629D01*
X139048Y-88769D01*
X139102Y-88898D01*
X139200Y-88997D01*
X139329Y-89050D01*
X139469Y-89051D01*
X139598Y-88997D01*
X139697Y-88899D01*
X139750Y-88770D01*
X139751Y-88630D01*
X139697Y-88501D01*
X139689Y-88492D01*
X139798Y-88447D01*
X139897Y-88349D01*
X139950Y-88220D01*
X139951Y-88080D01*
X139951Y-90200D01*
X139570Y-90200D01*
X137970Y-88600D01*
X136300Y-88600D01*
X134829Y-88600D01*
X133650Y-89779D01*
X133650Y-90950D01*
X131500Y-90950D01*
X129800Y-90950D01*
X129800Y-94900D01*
X130350Y-94900D01*
X131729Y-94900D01*
X132929Y-96100D01*
X134950Y-96100D01*
X134950Y-96543D01*
X134904Y-96497D01*
X134775Y-96444D01*
X134635Y-96443D01*
X134506Y-96497D01*
X134407Y-96595D01*
X134354Y-96724D01*
X134353Y-96864D01*
X134407Y-96993D01*
X134444Y-97030D01*
X134444Y-97446D01*
X132243Y-99647D01*
X132243Y-96815D01*
X132097Y-96461D01*
X131826Y-96190D01*
X131472Y-96043D01*
X131089Y-96042D01*
X130734Y-96189D01*
X130463Y-96459D01*
X130316Y-96813D01*
X130316Y-97197D01*
X130462Y-97551D01*
X130733Y-97822D01*
X131087Y-97969D01*
X131470Y-97969D01*
X131825Y-97823D01*
X132096Y-97552D01*
X132243Y-97198D01*
X132243Y-96815D01*
X132243Y-99647D01*
X132031Y-99859D01*
X129901Y-99859D01*
X129901Y-96080D01*
X129847Y-95951D01*
X129749Y-95852D01*
X129620Y-95799D01*
X129480Y-95798D01*
X129351Y-95852D01*
X129299Y-95903D01*
X129249Y-95852D01*
X129120Y-95799D01*
X128980Y-95798D01*
X128851Y-95852D01*
X128752Y-95950D01*
X128699Y-96079D01*
X128698Y-96219D01*
X128752Y-96348D01*
X128850Y-96447D01*
X128979Y-96500D01*
X129119Y-96501D01*
X129248Y-96447D01*
X129300Y-96396D01*
X129350Y-96447D01*
X129479Y-96500D01*
X129619Y-96501D01*
X129748Y-96447D01*
X129847Y-96349D01*
X129900Y-96220D01*
X129901Y-96080D01*
X129901Y-99859D01*
X128673Y-99859D01*
X126735Y-97921D01*
X126736Y-97855D01*
X126682Y-97726D01*
X126584Y-97627D01*
X126455Y-97574D01*
X126344Y-97573D01*
X127299Y-96619D01*
X127299Y-96619D01*
X127348Y-96546D01*
X127365Y-96460D01*
X127365Y-96460D01*
X127365Y-90744D01*
X127379Y-90750D01*
X127519Y-90751D01*
X127648Y-90697D01*
X127747Y-90599D01*
X127800Y-90470D01*
X127801Y-90330D01*
X127747Y-90201D01*
X127649Y-90102D01*
X127520Y-90049D01*
X127380Y-90048D01*
X127365Y-90055D01*
X127365Y-89353D01*
X127843Y-88875D01*
X129150Y-88875D01*
X129236Y-88858D01*
X129309Y-88809D01*
X129843Y-88275D01*
X135750Y-88275D01*
X137200Y-88275D01*
X137286Y-88258D01*
X137359Y-88209D01*
X137367Y-88200D01*
X137469Y-88201D01*
X137598Y-88147D01*
X137697Y-88049D01*
X137750Y-87920D01*
X137751Y-87780D01*
X137697Y-87651D01*
X137599Y-87552D01*
X137470Y-87499D01*
X137330Y-87498D01*
X137201Y-87552D01*
X137102Y-87650D01*
X137049Y-87779D01*
X137049Y-87824D01*
X136193Y-87824D01*
X137367Y-86650D01*
X137469Y-86651D01*
X137598Y-86597D01*
X137697Y-86499D01*
X137750Y-86370D01*
X137751Y-86230D01*
X137697Y-86101D01*
X137599Y-86002D01*
X137470Y-85949D01*
X137330Y-85948D01*
X137201Y-86002D01*
X137102Y-86100D01*
X137049Y-86229D01*
X137048Y-86332D01*
X135806Y-87574D01*
X135550Y-87574D01*
X129550Y-87574D01*
X129463Y-87591D01*
X129390Y-87640D01*
X128924Y-88107D01*
X128924Y-88095D01*
X128882Y-87994D01*
X128805Y-87917D01*
X128763Y-87900D01*
X128805Y-87882D01*
X128882Y-87805D01*
X128924Y-87704D01*
X128924Y-87595D01*
X128882Y-87494D01*
X128854Y-87466D01*
X128898Y-87447D01*
X128997Y-87349D01*
X129050Y-87220D01*
X129051Y-87080D01*
X129051Y-85880D01*
X128997Y-85751D01*
X128899Y-85652D01*
X128770Y-85599D01*
X128630Y-85598D01*
X128501Y-85652D01*
X128402Y-85750D01*
X128349Y-85879D01*
X128348Y-86019D01*
X128402Y-86148D01*
X128500Y-86247D01*
X128629Y-86300D01*
X128769Y-86301D01*
X128898Y-86247D01*
X128997Y-86149D01*
X129050Y-86020D01*
X129051Y-85880D01*
X129051Y-87080D01*
X128997Y-86951D01*
X128899Y-86852D01*
X128770Y-86799D01*
X128630Y-86798D01*
X128501Y-86852D01*
X128402Y-86950D01*
X128349Y-87079D01*
X128348Y-87219D01*
X128402Y-87348D01*
X128478Y-87424D01*
X127100Y-87424D01*
X127013Y-87441D01*
X126940Y-87490D01*
X125885Y-88545D01*
X125836Y-88618D01*
X125819Y-88705D01*
X125819Y-90205D01*
X125819Y-90600D01*
X125819Y-96071D01*
X125607Y-96284D01*
X125607Y-88992D01*
X125505Y-88747D01*
X125317Y-88559D01*
X125072Y-88457D01*
X124806Y-88456D01*
X124561Y-88558D01*
X124373Y-88746D01*
X124271Y-88991D01*
X124270Y-89257D01*
X124372Y-89502D01*
X124560Y-89690D01*
X124805Y-89792D01*
X125071Y-89793D01*
X125316Y-89691D01*
X125504Y-89503D01*
X125606Y-89258D01*
X125607Y-88992D01*
X125607Y-96284D01*
X125213Y-96678D01*
X125213Y-94307D01*
X125111Y-94062D01*
X124923Y-93874D01*
X124678Y-93772D01*
X124412Y-93771D01*
X124167Y-93873D01*
X123979Y-94061D01*
X123877Y-94306D01*
X123876Y-94572D01*
X123978Y-94817D01*
X124166Y-95005D01*
X124411Y-95107D01*
X124677Y-95108D01*
X124922Y-95006D01*
X125110Y-94818D01*
X125212Y-94573D01*
X125213Y-94307D01*
X125213Y-96678D01*
X125084Y-96807D01*
X125084Y-95985D01*
X125042Y-95884D01*
X124965Y-95807D01*
X124864Y-95765D01*
X124755Y-95765D01*
X124654Y-95807D01*
X124577Y-95884D01*
X124535Y-95985D01*
X124535Y-96094D01*
X124577Y-96195D01*
X124654Y-96272D01*
X124755Y-96314D01*
X124864Y-96314D01*
X124965Y-96272D01*
X125042Y-96195D01*
X125084Y-96094D01*
X125084Y-95985D01*
X125084Y-96807D01*
X125010Y-96880D01*
X124961Y-96953D01*
X124944Y-97040D01*
X124944Y-98760D01*
X124961Y-98846D01*
X125010Y-98919D01*
X125374Y-99283D01*
X125374Y-100378D01*
X125330Y-100396D01*
X125325Y-100401D01*
X125325Y-99650D01*
X125325Y-99649D01*
X125308Y-99563D01*
X125259Y-99490D01*
X125259Y-99490D01*
X124649Y-98880D01*
X124649Y-97310D01*
X124607Y-97209D01*
X124530Y-97132D01*
X124429Y-97090D01*
X124320Y-97090D01*
X124319Y-97091D01*
X124319Y-95975D01*
X124277Y-95874D01*
X124200Y-95797D01*
X124099Y-95755D01*
X123990Y-95755D01*
X123889Y-95797D01*
X123812Y-95874D01*
X123770Y-95975D01*
X123770Y-96084D01*
X123812Y-96185D01*
X123889Y-96262D01*
X123990Y-96304D01*
X124099Y-96304D01*
X124200Y-96262D01*
X124277Y-96185D01*
X124319Y-96084D01*
X124319Y-95975D01*
X124319Y-97091D01*
X124219Y-97132D01*
X124142Y-97209D01*
X124100Y-97310D01*
X124100Y-97419D01*
X124142Y-97520D01*
X124219Y-97597D01*
X124320Y-97639D01*
X124429Y-97639D01*
X124530Y-97597D01*
X124607Y-97520D01*
X124649Y-97419D01*
X124649Y-97310D01*
X124649Y-98880D01*
X123816Y-98048D01*
X123855Y-98064D01*
X123964Y-98064D01*
X124065Y-98022D01*
X124142Y-97945D01*
X124184Y-97844D01*
X124184Y-97735D01*
X124142Y-97634D01*
X124065Y-97557D01*
X123964Y-97515D01*
X123855Y-97515D01*
X123754Y-97557D01*
X123677Y-97634D01*
X123635Y-97735D01*
X123635Y-97844D01*
X123651Y-97883D01*
X123375Y-97606D01*
X123375Y-97362D01*
X123382Y-97355D01*
X123424Y-97254D01*
X123424Y-97145D01*
X123382Y-97044D01*
X123305Y-96967D01*
X123204Y-96925D01*
X123095Y-96925D01*
X122994Y-96967D01*
X122917Y-97044D01*
X122875Y-97145D01*
X122875Y-97254D01*
X122917Y-97355D01*
X122924Y-97362D01*
X122924Y-97700D01*
X122929Y-97725D01*
X122845Y-97725D01*
X122744Y-97767D01*
X122667Y-97844D01*
X122625Y-97945D01*
X122625Y-98054D01*
X122667Y-98155D01*
X122744Y-98232D01*
X122845Y-98274D01*
X122855Y-98274D01*
X122924Y-98343D01*
X122924Y-99550D01*
X122941Y-99636D01*
X122990Y-99709D01*
X123605Y-100324D01*
X123505Y-100323D01*
X123330Y-100396D01*
X123196Y-100530D01*
X123124Y-100704D01*
X123123Y-100894D01*
X123142Y-100939D01*
X122935Y-101145D01*
X122886Y-101218D01*
X122869Y-101305D01*
X122869Y-101396D01*
X122695Y-101324D01*
X122505Y-101323D01*
X122330Y-101396D01*
X122325Y-101401D01*
X122325Y-101393D01*
X122460Y-101257D01*
X122504Y-101275D01*
X122694Y-101276D01*
X122869Y-101203D01*
X123003Y-101069D01*
X123075Y-100895D01*
X123076Y-100705D01*
X123003Y-100530D01*
X122869Y-100396D01*
X122695Y-100324D01*
X122505Y-100323D01*
X122330Y-100396D01*
X122196Y-100530D01*
X122124Y-100704D01*
X122123Y-100894D01*
X122142Y-100939D01*
X121940Y-101140D01*
X121891Y-101213D01*
X121874Y-101300D01*
X121874Y-101401D01*
X121869Y-101396D01*
X121695Y-101324D01*
X121505Y-101323D01*
X121330Y-101396D01*
X121330Y-101396D01*
X121330Y-101388D01*
X121460Y-101257D01*
X121504Y-101275D01*
X121694Y-101276D01*
X121869Y-101203D01*
X122003Y-101069D01*
X122075Y-100895D01*
X122076Y-100705D01*
X122003Y-100530D01*
X121869Y-100396D01*
X121695Y-100324D01*
X121505Y-100323D01*
X121330Y-100396D01*
X121196Y-100530D01*
X121124Y-100704D01*
X121123Y-100894D01*
X121142Y-100939D01*
X121076Y-101005D01*
X121076Y-100705D01*
X121003Y-100530D01*
X120869Y-100396D01*
X120695Y-100324D01*
X120505Y-100323D01*
X120330Y-100396D01*
X120196Y-100530D01*
X120124Y-100704D01*
X120123Y-100894D01*
X120196Y-101069D01*
X120330Y-101203D01*
X120504Y-101275D01*
X120694Y-101276D01*
X120869Y-101203D01*
X121003Y-101069D01*
X121075Y-100895D01*
X121076Y-100705D01*
X121076Y-101005D01*
X120945Y-101135D01*
X120896Y-101208D01*
X120879Y-101295D01*
X120879Y-101406D01*
X120869Y-101396D01*
X120695Y-101324D01*
X120505Y-101323D01*
X120330Y-101396D01*
X120196Y-101530D01*
X120124Y-101704D01*
X120123Y-101894D01*
X120196Y-102069D01*
X120330Y-102203D01*
X120504Y-102275D01*
X120694Y-102276D01*
X120869Y-102203D01*
X120879Y-102193D01*
X120879Y-102705D01*
X120896Y-102791D01*
X120945Y-102864D01*
X121145Y-103063D01*
X121124Y-103114D01*
X121123Y-103304D01*
X121196Y-103479D01*
X121330Y-103613D01*
X121504Y-103685D01*
X121694Y-103686D01*
X121869Y-103613D01*
X122003Y-103479D01*
X122075Y-103305D01*
X122076Y-103115D01*
X122003Y-102940D01*
X121869Y-102806D01*
X121695Y-102734D01*
X121505Y-102733D01*
X121468Y-102749D01*
X121330Y-102611D01*
X121330Y-102203D01*
X121504Y-102275D01*
X121694Y-102276D01*
X121869Y-102203D01*
X121874Y-102198D01*
X121874Y-102705D01*
X121891Y-102791D01*
X121940Y-102864D01*
X122143Y-103067D01*
X122124Y-103114D01*
X122123Y-103304D01*
X122196Y-103479D01*
X122330Y-103613D01*
X122504Y-103685D01*
X122694Y-103686D01*
X122869Y-103613D01*
X123003Y-103479D01*
X123075Y-103305D01*
X123076Y-103115D01*
X123003Y-102940D01*
X122869Y-102806D01*
X122695Y-102734D01*
X122505Y-102733D01*
X122464Y-102750D01*
X122325Y-102611D01*
X122325Y-102198D01*
X122330Y-102203D01*
X122504Y-102275D01*
X122694Y-102276D01*
X122869Y-102203D01*
X122869Y-102203D01*
X122869Y-102685D01*
X122886Y-102771D01*
X122935Y-102844D01*
X123123Y-103032D01*
X123123Y-103544D01*
X123150Y-103609D01*
X123200Y-103659D01*
X123264Y-103685D01*
X123334Y-103686D01*
X123934Y-103686D01*
X123999Y-103659D01*
X124049Y-103609D01*
X124075Y-103545D01*
X124076Y-103475D01*
X124076Y-102875D01*
X124049Y-102810D01*
X123999Y-102760D01*
X123935Y-102734D01*
X123865Y-102733D01*
X123462Y-102733D01*
X123320Y-102591D01*
X123320Y-102193D01*
X123330Y-102203D01*
X123504Y-102275D01*
X123694Y-102276D01*
X123869Y-102203D01*
X124003Y-102069D01*
X124075Y-101895D01*
X124076Y-101744D01*
X124124Y-101792D01*
X124123Y-101894D01*
X124196Y-102069D01*
X124330Y-102203D01*
X124504Y-102275D01*
X124694Y-102276D01*
X124869Y-102203D01*
X124874Y-102198D01*
X124874Y-102600D01*
X124891Y-102686D01*
X124940Y-102759D01*
X126040Y-103859D01*
X126040Y-103859D01*
X126113Y-103908D01*
X126200Y-103925D01*
X128906Y-103925D01*
X129524Y-104543D01*
X129524Y-107100D01*
X129541Y-107186D01*
X129590Y-107259D01*
X130190Y-107859D01*
X130263Y-107908D01*
X130350Y-107925D01*
X131198Y-107925D01*
X131198Y-108009D01*
X131225Y-108074D01*
X131275Y-108124D01*
X131339Y-108150D01*
X131409Y-108151D01*
X131959Y-108151D01*
X132024Y-108124D01*
X132074Y-108074D01*
X132100Y-108010D01*
X132101Y-107940D01*
X132101Y-107390D01*
X132074Y-107325D01*
X132024Y-107275D01*
X131960Y-107249D01*
X131890Y-107248D01*
X131340Y-107248D01*
X131275Y-107275D01*
X131225Y-107325D01*
X131199Y-107389D01*
X131198Y-107459D01*
X131198Y-107474D01*
X131026Y-107474D01*
X131026Y-106655D01*
X130953Y-106480D01*
X130819Y-106346D01*
X130645Y-106274D01*
X130455Y-106273D01*
X130280Y-106346D01*
X130146Y-106480D01*
X130074Y-106654D01*
X130073Y-106844D01*
X130146Y-107019D01*
X130280Y-107153D01*
X130454Y-107225D01*
X130644Y-107226D01*
X130819Y-107153D01*
X130953Y-107019D01*
X131025Y-106845D01*
X131026Y-106655D01*
X131026Y-107474D01*
X130443Y-107474D01*
X129975Y-107006D01*
X129975Y-104450D01*
X129975Y-104449D01*
X129958Y-104363D01*
X129909Y-104290D01*
X129909Y-104290D01*
X129159Y-103540D01*
X129086Y-103491D01*
X129000Y-103474D01*
X127076Y-103474D01*
X127076Y-101705D01*
X127003Y-101530D01*
X126869Y-101396D01*
X126695Y-101324D01*
X126505Y-101323D01*
X126330Y-101396D01*
X126196Y-101530D01*
X126124Y-101704D01*
X126123Y-101894D01*
X126196Y-102069D01*
X126330Y-102203D01*
X126504Y-102275D01*
X126694Y-102276D01*
X126869Y-102203D01*
X127003Y-102069D01*
X127075Y-101895D01*
X127076Y-101705D01*
X127076Y-103474D01*
X126293Y-103474D01*
X125325Y-102506D01*
X125325Y-102198D01*
X125330Y-102203D01*
X125504Y-102275D01*
X125694Y-102276D01*
X125869Y-102203D01*
X126003Y-102069D01*
X126075Y-101895D01*
X126076Y-101705D01*
X126003Y-101530D01*
X125869Y-101396D01*
X125695Y-101324D01*
X125505Y-101323D01*
X125330Y-101396D01*
X125325Y-101401D01*
X125325Y-101198D01*
X125330Y-101203D01*
X125504Y-101275D01*
X125694Y-101276D01*
X125869Y-101203D01*
X126003Y-101069D01*
X126075Y-100895D01*
X126076Y-100705D01*
X126003Y-100530D01*
X125869Y-100396D01*
X125825Y-100378D01*
X125825Y-99190D01*
X125808Y-99107D01*
X126879Y-100178D01*
X126879Y-100406D01*
X126869Y-100396D01*
X126695Y-100324D01*
X126505Y-100323D01*
X126330Y-100396D01*
X126196Y-100530D01*
X126124Y-100704D01*
X126123Y-100894D01*
X126196Y-101069D01*
X126330Y-101203D01*
X126504Y-101275D01*
X126694Y-101276D01*
X126869Y-101203D01*
X126879Y-101193D01*
X126879Y-101305D01*
X126896Y-101391D01*
X126945Y-101464D01*
X127142Y-101660D01*
X127124Y-101704D01*
X127123Y-101894D01*
X127196Y-102069D01*
X127330Y-102203D01*
X127504Y-102275D01*
X127694Y-102276D01*
X127869Y-102203D01*
X128003Y-102069D01*
X128075Y-101895D01*
X128076Y-101705D01*
X128003Y-101530D01*
X127869Y-101396D01*
X127695Y-101324D01*
X127505Y-101323D01*
X127460Y-101342D01*
X127330Y-101211D01*
X127330Y-101203D01*
X127504Y-101275D01*
X127694Y-101276D01*
X127869Y-101203D01*
X128003Y-101069D01*
X128075Y-100895D01*
X128076Y-100705D01*
X128003Y-100530D01*
X127869Y-100396D01*
X127695Y-100324D01*
X127505Y-100323D01*
X127330Y-100396D01*
X127330Y-100396D01*
X127330Y-100085D01*
X127313Y-99998D01*
X127264Y-99925D01*
X125680Y-98341D01*
X125680Y-98168D01*
X125695Y-98174D01*
X125804Y-98174D01*
X125905Y-98132D01*
X125982Y-98055D01*
X126024Y-97954D01*
X126024Y-97845D01*
X126015Y-97824D01*
X126046Y-97824D01*
X126034Y-97854D01*
X126033Y-97994D01*
X126087Y-98123D01*
X126185Y-98222D01*
X126314Y-98275D01*
X126351Y-98275D01*
X128380Y-100304D01*
X128465Y-100361D01*
X128565Y-100380D01*
X132140Y-100380D01*
X132239Y-100361D01*
X132324Y-100304D01*
X134889Y-97739D01*
X134889Y-97739D01*
X134912Y-97705D01*
X134946Y-97654D01*
X134946Y-97654D01*
X134950Y-97635D01*
X134950Y-100650D01*
X133831Y-100650D01*
X133831Y-99705D01*
X133777Y-99576D01*
X133679Y-99477D01*
X133550Y-99424D01*
X133410Y-99423D01*
X133281Y-99477D01*
X133182Y-99575D01*
X133129Y-99704D01*
X133128Y-99844D01*
X133182Y-99973D01*
X133280Y-100072D01*
X133409Y-100125D01*
X133549Y-100126D01*
X133678Y-100072D01*
X133777Y-99974D01*
X133830Y-99845D01*
X133831Y-99705D01*
X133831Y-100650D01*
X130850Y-100650D01*
X130850Y-105400D01*
X135400Y-105400D01*
X137300Y-105400D01*
X137300Y-106567D01*
X137135Y-106499D01*
X136945Y-106498D01*
X136770Y-106571D01*
X136636Y-106705D01*
X136570Y-106863D01*
X136503Y-106700D01*
X136369Y-106566D01*
X136195Y-106494D01*
X136005Y-106493D01*
X135830Y-106566D01*
X135696Y-106700D01*
X135624Y-106874D01*
X135623Y-107064D01*
X135696Y-107239D01*
X135830Y-107373D01*
X136004Y-107445D01*
X136194Y-107446D01*
X136369Y-107373D01*
X136503Y-107239D01*
X136569Y-107081D01*
X136636Y-107244D01*
X136770Y-107378D01*
X136944Y-107450D01*
X137134Y-107451D01*
X137300Y-107382D01*
X137300Y-110567D01*
X137135Y-110499D01*
X136945Y-110498D01*
X136770Y-110571D01*
X136636Y-110705D01*
X136564Y-110879D01*
X136563Y-111069D01*
X136636Y-111244D01*
X136770Y-111378D01*
X136944Y-111450D01*
X137134Y-111451D01*
X137300Y-111382D01*
X137300Y-113049D01*
X136600Y-113049D01*
X136576Y-113053D01*
X136549Y-113053D01*
X136525Y-113063D01*
X136503Y-113068D01*
X136485Y-113080D01*
X136459Y-113091D01*
X136439Y-113111D01*
X136422Y-113122D01*
X136410Y-113139D01*
X136390Y-113160D01*
X136388Y-113165D01*
X136388Y-112797D01*
X136003Y-111864D01*
X135289Y-111149D01*
X135101Y-111071D01*
X135101Y-109610D01*
X135101Y-108610D01*
X135101Y-107610D01*
X135032Y-107444D01*
X134905Y-107317D01*
X134740Y-107249D01*
X134560Y-107248D01*
X134394Y-107317D01*
X134267Y-107444D01*
X134199Y-107609D01*
X134198Y-107789D01*
X134267Y-107955D01*
X134394Y-108082D01*
X134559Y-108150D01*
X134739Y-108151D01*
X134905Y-108082D01*
X135032Y-107955D01*
X135100Y-107790D01*
X135101Y-107610D01*
X135101Y-108610D01*
X135032Y-108444D01*
X134905Y-108317D01*
X134740Y-108249D01*
X134560Y-108248D01*
X134394Y-108317D01*
X134267Y-108444D01*
X134199Y-108609D01*
X134198Y-108789D01*
X134267Y-108955D01*
X134394Y-109082D01*
X134559Y-109150D01*
X134739Y-109151D01*
X134905Y-109082D01*
X135032Y-108955D01*
X135100Y-108790D01*
X135101Y-108610D01*
X135101Y-109610D01*
X135032Y-109444D01*
X134905Y-109317D01*
X134740Y-109249D01*
X134560Y-109248D01*
X134394Y-109317D01*
X134267Y-109444D01*
X134199Y-109609D01*
X134198Y-109789D01*
X134267Y-109955D01*
X134394Y-110082D01*
X134559Y-110150D01*
X134739Y-110151D01*
X134905Y-110082D01*
X135032Y-109955D01*
X135100Y-109790D01*
X135101Y-109610D01*
X135101Y-111071D01*
X134357Y-110762D01*
X133347Y-110761D01*
X132414Y-111146D01*
X132101Y-111459D01*
X132101Y-109610D01*
X132101Y-108610D01*
X132032Y-108444D01*
X131905Y-108317D01*
X131740Y-108249D01*
X131560Y-108248D01*
X131394Y-108317D01*
X131267Y-108444D01*
X131199Y-108609D01*
X131198Y-108789D01*
X131267Y-108955D01*
X131394Y-109082D01*
X131559Y-109150D01*
X131739Y-109151D01*
X131905Y-109082D01*
X132032Y-108955D01*
X132100Y-108790D01*
X132101Y-108610D01*
X132101Y-109610D01*
X132032Y-109444D01*
X131905Y-109317D01*
X131740Y-109249D01*
X131560Y-109248D01*
X131394Y-109317D01*
X131267Y-109444D01*
X131199Y-109609D01*
X131198Y-109789D01*
X131267Y-109955D01*
X131394Y-110082D01*
X131559Y-110150D01*
X131739Y-110151D01*
X131905Y-110082D01*
X132032Y-109955D01*
X132100Y-109790D01*
X132101Y-109610D01*
X132101Y-111459D01*
X131699Y-111860D01*
X131312Y-112792D01*
X131311Y-113168D01*
X131308Y-113160D01*
X131291Y-113143D01*
X131277Y-113122D01*
X131257Y-113108D01*
X131239Y-113091D01*
X131216Y-113081D01*
X131196Y-113068D01*
X131171Y-113063D01*
X131149Y-113053D01*
X131124Y-113053D01*
X131100Y-113049D01*
X128076Y-113049D01*
X128076Y-109605D01*
X128076Y-108605D01*
X128003Y-108430D01*
X127869Y-108296D01*
X127695Y-108224D01*
X127505Y-108223D01*
X127460Y-108242D01*
X127325Y-108106D01*
X127325Y-106148D01*
X127330Y-106153D01*
X127504Y-106225D01*
X127694Y-106226D01*
X127869Y-106153D01*
X128003Y-106019D01*
X128075Y-105845D01*
X128076Y-105655D01*
X128003Y-105480D01*
X127869Y-105346D01*
X127695Y-105274D01*
X127505Y-105273D01*
X127330Y-105346D01*
X127325Y-105351D01*
X127325Y-105343D01*
X127460Y-105207D01*
X127504Y-105225D01*
X127694Y-105226D01*
X127869Y-105153D01*
X128003Y-105019D01*
X128075Y-104845D01*
X128076Y-104655D01*
X128003Y-104480D01*
X127869Y-104346D01*
X127695Y-104274D01*
X127505Y-104273D01*
X127330Y-104346D01*
X127196Y-104480D01*
X127124Y-104654D01*
X127123Y-104844D01*
X127142Y-104889D01*
X126940Y-105090D01*
X126891Y-105163D01*
X126874Y-105250D01*
X126874Y-105351D01*
X126869Y-105346D01*
X126695Y-105274D01*
X126505Y-105273D01*
X126330Y-105346D01*
X126325Y-105351D01*
X126325Y-105343D01*
X126460Y-105207D01*
X126504Y-105225D01*
X126694Y-105226D01*
X126869Y-105153D01*
X127003Y-105019D01*
X127075Y-104845D01*
X127076Y-104655D01*
X127003Y-104480D01*
X126869Y-104346D01*
X126695Y-104274D01*
X126505Y-104273D01*
X126330Y-104346D01*
X126196Y-104480D01*
X126124Y-104654D01*
X126123Y-104844D01*
X126142Y-104889D01*
X125940Y-105090D01*
X125891Y-105163D01*
X125874Y-105250D01*
X125874Y-105351D01*
X125869Y-105346D01*
X125695Y-105274D01*
X125505Y-105273D01*
X125330Y-105346D01*
X125325Y-105351D01*
X125325Y-105343D01*
X125460Y-105207D01*
X125504Y-105225D01*
X125694Y-105226D01*
X125869Y-105153D01*
X126003Y-105019D01*
X126075Y-104845D01*
X126076Y-104655D01*
X126003Y-104480D01*
X125869Y-104346D01*
X125695Y-104274D01*
X125505Y-104273D01*
X125330Y-104346D01*
X125196Y-104480D01*
X125124Y-104654D01*
X125123Y-104844D01*
X125142Y-104889D01*
X124940Y-105090D01*
X124891Y-105163D01*
X124874Y-105250D01*
X124874Y-105351D01*
X124869Y-105346D01*
X124695Y-105274D01*
X124505Y-105273D01*
X124330Y-105346D01*
X124325Y-105351D01*
X124325Y-105343D01*
X124460Y-105207D01*
X124504Y-105225D01*
X124694Y-105226D01*
X124869Y-105153D01*
X125003Y-105019D01*
X125075Y-104845D01*
X125076Y-104655D01*
X125003Y-104480D01*
X124869Y-104346D01*
X124695Y-104274D01*
X124505Y-104273D01*
X124330Y-104346D01*
X124196Y-104480D01*
X124124Y-104654D01*
X124123Y-104844D01*
X124142Y-104889D01*
X123940Y-105090D01*
X123891Y-105163D01*
X123874Y-105250D01*
X123874Y-105351D01*
X123869Y-105346D01*
X123695Y-105274D01*
X123505Y-105273D01*
X123330Y-105346D01*
X123325Y-105351D01*
X123325Y-105343D01*
X123460Y-105207D01*
X123504Y-105225D01*
X123694Y-105226D01*
X123869Y-105153D01*
X124003Y-105019D01*
X124075Y-104845D01*
X124076Y-104655D01*
X124003Y-104480D01*
X123869Y-104346D01*
X123695Y-104274D01*
X123505Y-104273D01*
X123330Y-104346D01*
X123196Y-104480D01*
X123124Y-104654D01*
X123123Y-104844D01*
X123142Y-104889D01*
X122940Y-105090D01*
X122891Y-105163D01*
X122874Y-105250D01*
X122874Y-105351D01*
X122869Y-105346D01*
X122695Y-105274D01*
X122505Y-105273D01*
X122330Y-105346D01*
X122325Y-105351D01*
X122325Y-105343D01*
X122460Y-105207D01*
X122504Y-105225D01*
X122694Y-105226D01*
X122869Y-105153D01*
X123003Y-105019D01*
X123075Y-104845D01*
X123076Y-104655D01*
X123003Y-104480D01*
X122869Y-104346D01*
X122695Y-104274D01*
X122505Y-104273D01*
X122330Y-104346D01*
X122196Y-104480D01*
X122124Y-104654D01*
X122123Y-104844D01*
X122142Y-104889D01*
X121940Y-105090D01*
X121891Y-105163D01*
X121874Y-105250D01*
X121874Y-105351D01*
X121869Y-105346D01*
X121695Y-105274D01*
X121505Y-105273D01*
X121330Y-105346D01*
X121325Y-105351D01*
X121325Y-105343D01*
X121460Y-105207D01*
X121504Y-105225D01*
X121694Y-105226D01*
X121869Y-105153D01*
X122003Y-105019D01*
X122075Y-104845D01*
X122076Y-104655D01*
X122003Y-104480D01*
X121869Y-104346D01*
X121695Y-104274D01*
X121505Y-104273D01*
X121330Y-104346D01*
X121196Y-104480D01*
X121124Y-104654D01*
X121123Y-104844D01*
X121142Y-104889D01*
X120940Y-105090D01*
X120891Y-105163D01*
X120874Y-105250D01*
X120874Y-105351D01*
X120869Y-105346D01*
X120695Y-105274D01*
X120505Y-105273D01*
X120330Y-105346D01*
X120325Y-105351D01*
X120325Y-105343D01*
X120460Y-105207D01*
X120504Y-105225D01*
X120694Y-105226D01*
X120869Y-105153D01*
X121003Y-105019D01*
X121075Y-104845D01*
X121076Y-104655D01*
X121003Y-104480D01*
X120869Y-104346D01*
X120695Y-104274D01*
X120505Y-104273D01*
X120330Y-104346D01*
X120196Y-104480D01*
X120124Y-104654D01*
X120123Y-104844D01*
X120142Y-104889D01*
X120076Y-104955D01*
X120076Y-104655D01*
X120076Y-100705D01*
X120003Y-100530D01*
X119869Y-100396D01*
X119819Y-100375D01*
X119819Y-94307D01*
X119717Y-94062D01*
X119529Y-93874D01*
X119426Y-93830D01*
X119426Y-88992D01*
X119324Y-88747D01*
X119136Y-88559D01*
X118891Y-88457D01*
X118625Y-88456D01*
X118380Y-88558D01*
X118192Y-88746D01*
X118090Y-88991D01*
X118089Y-89257D01*
X118191Y-89502D01*
X118379Y-89690D01*
X118624Y-89792D01*
X118890Y-89793D01*
X119135Y-89691D01*
X119323Y-89503D01*
X119425Y-89258D01*
X119426Y-88992D01*
X119426Y-93830D01*
X119284Y-93772D01*
X119018Y-93771D01*
X118773Y-93873D01*
X118585Y-94061D01*
X118483Y-94306D01*
X118482Y-94572D01*
X118584Y-94817D01*
X118772Y-95005D01*
X119017Y-95107D01*
X119283Y-95108D01*
X119528Y-95006D01*
X119716Y-94818D01*
X119818Y-94573D01*
X119819Y-94307D01*
X119819Y-100375D01*
X119701Y-100326D01*
X119701Y-96730D01*
X119647Y-96601D01*
X119549Y-96502D01*
X119420Y-96449D01*
X119280Y-96448D01*
X119151Y-96502D01*
X119052Y-96600D01*
X118999Y-96729D01*
X118998Y-96869D01*
X119052Y-96998D01*
X119150Y-97097D01*
X119279Y-97150D01*
X119419Y-97151D01*
X119548Y-97097D01*
X119647Y-96999D01*
X119700Y-96870D01*
X119701Y-96730D01*
X119701Y-100326D01*
X119695Y-100324D01*
X119505Y-100323D01*
X119330Y-100396D01*
X119196Y-100530D01*
X119124Y-100704D01*
X119123Y-100894D01*
X119196Y-101069D01*
X119330Y-101203D01*
X119504Y-101275D01*
X119694Y-101276D01*
X119869Y-101203D01*
X120003Y-101069D01*
X120075Y-100895D01*
X120076Y-100705D01*
X120076Y-104655D01*
X120076Y-104655D01*
X120076Y-102065D01*
X120076Y-101465D01*
X120049Y-101400D01*
X119999Y-101350D01*
X119935Y-101324D01*
X119865Y-101323D01*
X119265Y-101323D01*
X119200Y-101350D01*
X119150Y-101400D01*
X119124Y-101464D01*
X119123Y-101534D01*
X119123Y-102134D01*
X119150Y-102199D01*
X119200Y-102249D01*
X119264Y-102275D01*
X119334Y-102276D01*
X119934Y-102276D01*
X119999Y-102249D01*
X120049Y-102199D01*
X120075Y-102135D01*
X120076Y-102065D01*
X120076Y-104655D01*
X120003Y-104480D01*
X119869Y-104346D01*
X119695Y-104274D01*
X119505Y-104273D01*
X119330Y-104346D01*
X119196Y-104480D01*
X119124Y-104654D01*
X119123Y-104844D01*
X119196Y-105019D01*
X119330Y-105153D01*
X119504Y-105225D01*
X119694Y-105226D01*
X119869Y-105153D01*
X120003Y-105019D01*
X120075Y-104845D01*
X120076Y-104655D01*
X120076Y-104955D01*
X119940Y-105090D01*
X119891Y-105163D01*
X119874Y-105250D01*
X119874Y-105273D01*
X119865Y-105273D01*
X119265Y-105273D01*
X119200Y-105300D01*
X119150Y-105350D01*
X119124Y-105414D01*
X119123Y-105484D01*
X119123Y-106084D01*
X119150Y-106149D01*
X119200Y-106199D01*
X119264Y-106225D01*
X119334Y-106226D01*
X119874Y-106226D01*
X119874Y-108200D01*
X119891Y-108286D01*
X119940Y-108359D01*
X120142Y-108560D01*
X120124Y-108604D01*
X120123Y-108794D01*
X120196Y-108969D01*
X120330Y-109103D01*
X120504Y-109175D01*
X120694Y-109176D01*
X120869Y-109103D01*
X121003Y-108969D01*
X121075Y-108795D01*
X121076Y-108605D01*
X121003Y-108430D01*
X120869Y-108296D01*
X120695Y-108224D01*
X120505Y-108223D01*
X120460Y-108242D01*
X120325Y-108106D01*
X120325Y-106148D01*
X120330Y-106153D01*
X120504Y-106225D01*
X120694Y-106226D01*
X120869Y-106153D01*
X120874Y-106148D01*
X120874Y-108200D01*
X120891Y-108286D01*
X120940Y-108359D01*
X121142Y-108560D01*
X121124Y-108604D01*
X121123Y-108794D01*
X121196Y-108969D01*
X121330Y-109103D01*
X121504Y-109175D01*
X121694Y-109176D01*
X121869Y-109103D01*
X122003Y-108969D01*
X122075Y-108795D01*
X122076Y-108605D01*
X122003Y-108430D01*
X121869Y-108296D01*
X121695Y-108224D01*
X121505Y-108223D01*
X121460Y-108242D01*
X121325Y-108106D01*
X121325Y-106148D01*
X121330Y-106153D01*
X121504Y-106225D01*
X121694Y-106226D01*
X121869Y-106153D01*
X121874Y-106148D01*
X121874Y-108200D01*
X121891Y-108286D01*
X121940Y-108359D01*
X122142Y-108560D01*
X122124Y-108604D01*
X122123Y-108794D01*
X122196Y-108969D01*
X122330Y-109103D01*
X122504Y-109175D01*
X122694Y-109176D01*
X122869Y-109103D01*
X123003Y-108969D01*
X123075Y-108795D01*
X123076Y-108605D01*
X123003Y-108430D01*
X122869Y-108296D01*
X122695Y-108224D01*
X122505Y-108223D01*
X122460Y-108242D01*
X122325Y-108106D01*
X122325Y-106148D01*
X122330Y-106153D01*
X122504Y-106225D01*
X122694Y-106226D01*
X122869Y-106153D01*
X122874Y-106148D01*
X122874Y-108200D01*
X122891Y-108286D01*
X122940Y-108359D01*
X123142Y-108560D01*
X123124Y-108604D01*
X123123Y-108794D01*
X123196Y-108969D01*
X123330Y-109103D01*
X123504Y-109175D01*
X123694Y-109176D01*
X123869Y-109103D01*
X124003Y-108969D01*
X124075Y-108795D01*
X124076Y-108605D01*
X124003Y-108430D01*
X123869Y-108296D01*
X123695Y-108224D01*
X123505Y-108223D01*
X123460Y-108242D01*
X123325Y-108106D01*
X123325Y-106148D01*
X123330Y-106153D01*
X123504Y-106225D01*
X123694Y-106226D01*
X123869Y-106153D01*
X123874Y-106148D01*
X123874Y-108200D01*
X123891Y-108286D01*
X123940Y-108359D01*
X124142Y-108560D01*
X124124Y-108604D01*
X124123Y-108794D01*
X124196Y-108969D01*
X124330Y-109103D01*
X124504Y-109175D01*
X124694Y-109176D01*
X124869Y-109103D01*
X125003Y-108969D01*
X125075Y-108795D01*
X125076Y-108605D01*
X125003Y-108430D01*
X124869Y-108296D01*
X124695Y-108224D01*
X124505Y-108223D01*
X124460Y-108242D01*
X124325Y-108106D01*
X124325Y-106148D01*
X124330Y-106153D01*
X124504Y-106225D01*
X124694Y-106226D01*
X124869Y-106153D01*
X124874Y-106148D01*
X124874Y-108200D01*
X124891Y-108286D01*
X124940Y-108359D01*
X125142Y-108560D01*
X125124Y-108604D01*
X125123Y-108794D01*
X125196Y-108969D01*
X125330Y-109103D01*
X125504Y-109175D01*
X125694Y-109176D01*
X125869Y-109103D01*
X126003Y-108969D01*
X126075Y-108795D01*
X126076Y-108605D01*
X126003Y-108430D01*
X125869Y-108296D01*
X125695Y-108224D01*
X125505Y-108223D01*
X125460Y-108242D01*
X125325Y-108106D01*
X125325Y-106148D01*
X125330Y-106153D01*
X125504Y-106225D01*
X125694Y-106226D01*
X125869Y-106153D01*
X125874Y-106148D01*
X125874Y-108200D01*
X125891Y-108286D01*
X125940Y-108359D01*
X126142Y-108560D01*
X126124Y-108604D01*
X126123Y-108794D01*
X126196Y-108969D01*
X126330Y-109103D01*
X126504Y-109175D01*
X126694Y-109176D01*
X126869Y-109103D01*
X127003Y-108969D01*
X127075Y-108795D01*
X127076Y-108605D01*
X127003Y-108430D01*
X126869Y-108296D01*
X126695Y-108224D01*
X126505Y-108223D01*
X126460Y-108242D01*
X126325Y-108106D01*
X126325Y-106148D01*
X126330Y-106153D01*
X126504Y-106225D01*
X126694Y-106226D01*
X126869Y-106153D01*
X126874Y-106148D01*
X126874Y-108200D01*
X126891Y-108286D01*
X126940Y-108359D01*
X127142Y-108560D01*
X127124Y-108604D01*
X127123Y-108794D01*
X127196Y-108969D01*
X127330Y-109103D01*
X127504Y-109175D01*
X127694Y-109176D01*
X127869Y-109103D01*
X128003Y-108969D01*
X128075Y-108795D01*
X128076Y-108605D01*
X128076Y-109605D01*
X128003Y-109430D01*
X127869Y-109296D01*
X127695Y-109224D01*
X127505Y-109223D01*
X127330Y-109296D01*
X127196Y-109430D01*
X127124Y-109604D01*
X127123Y-109794D01*
X127196Y-109969D01*
X127330Y-110103D01*
X127504Y-110175D01*
X127694Y-110176D01*
X127869Y-110103D01*
X128003Y-109969D01*
X128075Y-109795D01*
X128076Y-109605D01*
X128076Y-113049D01*
X127076Y-113049D01*
X127076Y-109605D01*
X127003Y-109430D01*
X126869Y-109296D01*
X126695Y-109224D01*
X126505Y-109223D01*
X126330Y-109296D01*
X126196Y-109430D01*
X126124Y-109604D01*
X126123Y-109794D01*
X126196Y-109969D01*
X126330Y-110103D01*
X126504Y-110175D01*
X126694Y-110176D01*
X126869Y-110103D01*
X127003Y-109969D01*
X127075Y-109795D01*
X127076Y-109605D01*
X127076Y-113049D01*
X126076Y-113049D01*
X126076Y-109605D01*
X126003Y-109430D01*
X125869Y-109296D01*
X125695Y-109224D01*
X125505Y-109223D01*
X125330Y-109296D01*
X125196Y-109430D01*
X125124Y-109604D01*
X125123Y-109794D01*
X125196Y-109969D01*
X125330Y-110103D01*
X125504Y-110175D01*
X125694Y-110176D01*
X125869Y-110103D01*
X126003Y-109969D01*
X126075Y-109795D01*
X126076Y-109605D01*
X126076Y-113049D01*
X125076Y-113049D01*
X125076Y-109605D01*
X125003Y-109430D01*
X124869Y-109296D01*
X124695Y-109224D01*
X124505Y-109223D01*
X124330Y-109296D01*
X124196Y-109430D01*
X124124Y-109604D01*
X124123Y-109794D01*
X124196Y-109969D01*
X124330Y-110103D01*
X124504Y-110175D01*
X124694Y-110176D01*
X124869Y-110103D01*
X125003Y-109969D01*
X125075Y-109795D01*
X125076Y-109605D01*
X125076Y-113049D01*
X124076Y-113049D01*
X124076Y-109605D01*
X124003Y-109430D01*
X123869Y-109296D01*
X123695Y-109224D01*
X123505Y-109223D01*
X123330Y-109296D01*
X123196Y-109430D01*
X123124Y-109604D01*
X123123Y-109794D01*
X123196Y-109969D01*
X123330Y-110103D01*
X123504Y-110175D01*
X123694Y-110176D01*
X123869Y-110103D01*
X124003Y-109969D01*
X124075Y-109795D01*
X124076Y-109605D01*
X124076Y-113049D01*
X123076Y-113049D01*
X123076Y-109605D01*
X123003Y-109430D01*
X122869Y-109296D01*
X122695Y-109224D01*
X122505Y-109223D01*
X122330Y-109296D01*
X122196Y-109430D01*
X122124Y-109604D01*
X122123Y-109794D01*
X122196Y-109969D01*
X122330Y-110103D01*
X122504Y-110175D01*
X122694Y-110176D01*
X122869Y-110103D01*
X123003Y-109969D01*
X123075Y-109795D01*
X123076Y-109605D01*
X123076Y-113049D01*
X122076Y-113049D01*
X122076Y-109605D01*
X122003Y-109430D01*
X121869Y-109296D01*
X121695Y-109224D01*
X121505Y-109223D01*
X121330Y-109296D01*
X121196Y-109430D01*
X121124Y-109604D01*
X121123Y-109794D01*
X121196Y-109969D01*
X121330Y-110103D01*
X121504Y-110175D01*
X121694Y-110176D01*
X121869Y-110103D01*
X122003Y-109969D01*
X122075Y-109795D01*
X122076Y-109605D01*
X122076Y-113049D01*
X121076Y-113049D01*
X121076Y-109605D01*
X121003Y-109430D01*
X120869Y-109296D01*
X120695Y-109224D01*
X120505Y-109223D01*
X120330Y-109296D01*
X120196Y-109430D01*
X120124Y-109604D01*
X120123Y-109794D01*
X120196Y-109969D01*
X120330Y-110103D01*
X120504Y-110175D01*
X120694Y-110176D01*
X120869Y-110103D01*
X121003Y-109969D01*
X121075Y-109795D01*
X121076Y-109605D01*
X121076Y-113049D01*
X120076Y-113049D01*
X120076Y-108605D01*
X120003Y-108430D01*
X119869Y-108296D01*
X119695Y-108224D01*
X119505Y-108223D01*
X119330Y-108296D01*
X119196Y-108430D01*
X119124Y-108604D01*
X119123Y-108794D01*
X119196Y-108969D01*
X119330Y-109103D01*
X119504Y-109175D01*
X119694Y-109176D01*
X119869Y-109103D01*
X120003Y-108969D01*
X120075Y-108795D01*
X120076Y-108605D01*
X120076Y-113049D01*
X120076Y-113049D01*
X120076Y-109965D01*
X120076Y-109365D01*
X120049Y-109300D01*
X119999Y-109250D01*
X119935Y-109224D01*
X119865Y-109223D01*
X119265Y-109223D01*
X119200Y-109250D01*
X119150Y-109300D01*
X119124Y-109364D01*
X119123Y-109434D01*
X119123Y-110034D01*
X119150Y-110099D01*
X119200Y-110149D01*
X119264Y-110175D01*
X119334Y-110176D01*
X119934Y-110176D01*
X119999Y-110149D01*
X120049Y-110099D01*
X120075Y-110035D01*
X120076Y-109965D01*
X120076Y-113049D01*
X118100Y-113049D01*
X118000Y-113049D01*
X118000Y-89750D01*
X118000Y-89450D01*
X118000Y-87650D01*
X118000Y-85200D01*
X131050Y-85200D01*
X131074Y-85196D01*
X131098Y-85196D01*
X131121Y-85186D01*
X131146Y-85181D01*
X131166Y-85168D01*
X131189Y-85158D01*
X131206Y-85141D01*
X131227Y-85127D01*
X131241Y-85107D01*
X131258Y-85089D01*
X131268Y-85066D01*
X131281Y-85046D01*
X131286Y-85021D01*
X131296Y-84999D01*
X131311Y-84920D01*
X131311Y-85452D01*
X131696Y-86385D01*
X132410Y-87100D01*
X133342Y-87487D01*
X134352Y-87488D01*
X135285Y-87103D01*
X136000Y-86389D01*
X136387Y-85457D01*
X136388Y-84915D01*
X136404Y-84998D01*
X136412Y-85017D01*
X136418Y-85046D01*
X136434Y-85070D01*
X136442Y-85089D01*
X136456Y-85103D01*
X136472Y-85127D01*
X136496Y-85143D01*
X136511Y-85158D01*
X136531Y-85166D01*
X136553Y-85181D01*
X136580Y-85187D01*
X136602Y-85196D01*
X136624Y-85195D01*
X136650Y-85200D01*
X139352Y-85200D01*
X139302Y-85250D01*
X139249Y-85379D01*
X139248Y-85519D01*
X139302Y-85648D01*
X139400Y-85747D01*
X139529Y-85800D01*
X139669Y-85801D01*
X139798Y-85747D01*
X139897Y-85649D01*
X139950Y-85520D01*
X139951Y-85380D01*
X139897Y-85251D01*
X139847Y-85200D01*
X142052Y-85200D01*
X142002Y-85250D01*
X141949Y-85379D01*
X141948Y-85519D01*
X142002Y-85648D01*
X142100Y-85747D01*
X142229Y-85800D01*
X142369Y-85801D01*
X142498Y-85747D01*
X142597Y-85649D01*
X142650Y-85520D01*
X142651Y-85380D01*
X142597Y-85251D01*
X142547Y-85200D01*
X143943Y-85200D01*
X143683Y-85459D01*
X143536Y-85813D01*
X143536Y-86197D01*
X143682Y-86551D01*
X143953Y-86822D01*
X144307Y-86969D01*
X144690Y-86969D01*
X145045Y-86823D01*
X145316Y-86552D01*
X145425Y-86290D01*
X145532Y-86551D01*
X145803Y-86822D01*
X146157Y-86969D01*
X146540Y-86969D01*
X146895Y-86823D01*
X147166Y-86552D01*
X147313Y-86198D01*
X147313Y-85815D01*
X147167Y-85461D01*
X146907Y-85200D01*
X147746Y-85200D01*
X149399Y-86853D01*
X149399Y-90200D01*
M02*
