G04 (created by PCBNEW (2013-07-07 BZR 4022)-stable) date 2/2/2017 10:33:48 AM*
%MOIN*%
G04 Gerber Fmt 3.4, Leading zero omitted, Abs format*
%FSLAX34Y34*%
G01*
G70*
G90*
G04 APERTURE LIST*
%ADD10C,0.00590551*%
%ADD11R,0.06X0.06*%
%ADD12C,0.06*%
%ADD13R,0.0236X0.0551*%
%ADD14R,0.06X0.08*%
%ADD15R,0.08X0.06*%
%ADD16R,0.035X0.055*%
%ADD17R,0.0177X0.059*%
%ADD18C,0.15748*%
%ADD19R,0.0472X0.0472*%
%ADD20R,0.0551X0.0393*%
%ADD21C,0.472441*%
%ADD22C,0.055*%
%ADD23R,0.0587X0.0587*%
%ADD24C,0.0587*%
%ADD25C,0.07*%
%ADD26R,0.07X0.07*%
%ADD27R,0.0511X0.059*%
%ADD28R,0.059X0.0511*%
%ADD29R,0.02X0.045*%
%ADD30C,0.129921*%
%ADD31R,0.0236X0.125984*%
%ADD32C,0.066*%
%ADD33C,0.052*%
%ADD34R,0.1004X0.1496*%
%ADD35C,0.1*%
%ADD36R,0.0472X0.0708*%
%ADD37C,0.056*%
%ADD38C,0.0787402*%
%ADD39R,0.055X0.035*%
%ADD40R,0.11811X0.11811*%
%ADD41C,0.11811*%
%ADD42R,0.102362X0.0787402*%
%ADD43R,0.15748X0.0629921*%
%ADD44C,0.035*%
%ADD45C,0.0787402*%
%ADD46C,0.0255906*%
%ADD47C,0.0629921*%
%ADD48C,0.0393701*%
%ADD49C,0.0295276*%
%ADD50C,0.017*%
%ADD51C,0.0149606*%
%ADD52C,0.00984252*%
%ADD53C,0.00826772*%
%ADD54C,0.0551181*%
G04 APERTURE END LIST*
G54D10*
G54D11*
X119600Y-101800D03*
G54D12*
X119600Y-100800D03*
X120600Y-101800D03*
X120600Y-100800D03*
X121600Y-101800D03*
X121600Y-100800D03*
X122600Y-101800D03*
X122600Y-100800D03*
X123600Y-101800D03*
X123600Y-100800D03*
X124600Y-101800D03*
X124600Y-100800D03*
X125600Y-101800D03*
X125600Y-100800D03*
X126600Y-101800D03*
X126600Y-100800D03*
X127600Y-101800D03*
X127600Y-100800D03*
X128600Y-101800D03*
X128600Y-100800D03*
G54D13*
X121050Y-112150D03*
X121050Y-110050D03*
X120550Y-112150D03*
X120050Y-112150D03*
X119550Y-112150D03*
X120550Y-110050D03*
X120050Y-110050D03*
X119550Y-110050D03*
G54D14*
X122350Y-90950D03*
X121050Y-90950D03*
G54D15*
X121100Y-88600D03*
X121100Y-89900D03*
G54D16*
X121525Y-93450D03*
X122275Y-93450D03*
X120174Y-95740D03*
X120924Y-95740D03*
X121925Y-91850D03*
X121175Y-91850D03*
X122275Y-94450D03*
X121525Y-94450D03*
X119575Y-91750D03*
X118825Y-91750D03*
X118739Y-95745D03*
X119489Y-95745D03*
G54D17*
X119075Y-94859D03*
X119325Y-94859D03*
X119575Y-94859D03*
X119825Y-94859D03*
X120075Y-94859D03*
X120325Y-94859D03*
X120575Y-94859D03*
X120825Y-94859D03*
X120825Y-92741D03*
X120575Y-92741D03*
X120325Y-92741D03*
X120075Y-92741D03*
X119825Y-92741D03*
X119575Y-92741D03*
X119325Y-92741D03*
X119075Y-92741D03*
G54D15*
X122250Y-88600D03*
X122250Y-89900D03*
G54D16*
X120924Y-96539D03*
X120174Y-96539D03*
X118750Y-96533D03*
X119500Y-96533D03*
G54D18*
X149570Y-112221D03*
X147400Y-112206D03*
X122693Y-86300D03*
X120400Y-86300D03*
X150950Y-95456D03*
X148000Y-88756D03*
X163920Y-81076D03*
G54D11*
X123600Y-103210D03*
G54D12*
X122600Y-103210D03*
X121600Y-103210D03*
G54D19*
X123200Y-111787D03*
X123200Y-112613D03*
X124250Y-111787D03*
X124250Y-112613D03*
G54D20*
X126867Y-110176D03*
X126867Y-110924D03*
X127733Y-110550D03*
G54D21*
X133850Y-113300D03*
X133850Y-84950D03*
G54D18*
X163940Y-83396D03*
G54D11*
X119600Y-105750D03*
G54D12*
X119600Y-104750D03*
X120600Y-105750D03*
X120600Y-104750D03*
X121600Y-105750D03*
X121600Y-104750D03*
X122600Y-105750D03*
X122600Y-104750D03*
X123600Y-105750D03*
X123600Y-104750D03*
X124600Y-105750D03*
X124600Y-104750D03*
X125600Y-105750D03*
X125600Y-104750D03*
X126600Y-105750D03*
X126600Y-104750D03*
X127600Y-105750D03*
X127600Y-104750D03*
X128600Y-105750D03*
X128600Y-104750D03*
G54D11*
X119600Y-108400D03*
G54D12*
X119600Y-107400D03*
X120600Y-108400D03*
X120600Y-107400D03*
X121600Y-108400D03*
X121600Y-107400D03*
X122600Y-108400D03*
X122600Y-107400D03*
X123600Y-108400D03*
X123600Y-107400D03*
X124600Y-108400D03*
X124600Y-107400D03*
X125600Y-108400D03*
X125600Y-107400D03*
X126600Y-108400D03*
X126600Y-107400D03*
X127600Y-108400D03*
X127600Y-107400D03*
X128600Y-108400D03*
X128600Y-107400D03*
G54D18*
X119106Y-90350D03*
X119106Y-88300D03*
G54D12*
X135250Y-108700D03*
X130250Y-108700D03*
X130250Y-107550D03*
X135250Y-107550D03*
G54D22*
X151450Y-105950D03*
X151450Y-102950D03*
G54D23*
X134950Y-109656D03*
G54D24*
X134950Y-110444D03*
G54D25*
X137800Y-86200D03*
X138800Y-86200D03*
G54D26*
X139800Y-86200D03*
G54D25*
X144050Y-112150D03*
X143050Y-112150D03*
G54D26*
X142050Y-112150D03*
G54D25*
X139700Y-112150D03*
X138700Y-112150D03*
G54D26*
X137700Y-112150D03*
G54D25*
X144550Y-86150D03*
X145550Y-86150D03*
G54D26*
X146550Y-86150D03*
G54D27*
X125974Y-110100D03*
X125226Y-110100D03*
G54D28*
X137100Y-89374D03*
X137100Y-88626D03*
G54D29*
X125900Y-89350D03*
X126400Y-89350D03*
X126900Y-89350D03*
X127400Y-89350D03*
X127900Y-89350D03*
X128400Y-89350D03*
X128900Y-89350D03*
X129400Y-89350D03*
X129400Y-87350D03*
X128900Y-87350D03*
X128400Y-87350D03*
X127900Y-87350D03*
X127400Y-87350D03*
X126900Y-87350D03*
X126400Y-87350D03*
X125900Y-87350D03*
G54D23*
X131900Y-88906D03*
G54D24*
X131900Y-89694D03*
G54D28*
X125550Y-91174D03*
X125550Y-90426D03*
G54D30*
X131800Y-93000D03*
X131800Y-95000D03*
X131800Y-97000D03*
X131800Y-101000D03*
X131800Y-103000D03*
X131800Y-105000D03*
X141800Y-105000D03*
X141800Y-103200D03*
X141800Y-101000D03*
X141800Y-99000D03*
X141800Y-97000D03*
X141800Y-95000D03*
X141800Y-93000D03*
G54D31*
X141350Y-89873D03*
X141850Y-89873D03*
X142350Y-89873D03*
X142850Y-89873D03*
X142850Y-87827D03*
X142350Y-87827D03*
X141850Y-87827D03*
X141350Y-87827D03*
G54D23*
X128250Y-93706D03*
G54D24*
X128250Y-94494D03*
G54D23*
X129044Y-91150D03*
G54D24*
X128256Y-91150D03*
G54D31*
X140100Y-109973D03*
X140600Y-109973D03*
X141100Y-109973D03*
X141600Y-109973D03*
X141600Y-107927D03*
X141100Y-107927D03*
X140600Y-107927D03*
X140100Y-107927D03*
G54D27*
X128426Y-86300D03*
X129174Y-86300D03*
G54D23*
X144856Y-106150D03*
G54D24*
X145644Y-106150D03*
G54D22*
X147500Y-106600D03*
X150500Y-106600D03*
X146650Y-105650D03*
X149650Y-105650D03*
G54D32*
X146800Y-102500D03*
X146800Y-99500D03*
X148350Y-102500D03*
X148350Y-99500D03*
X130500Y-109700D03*
X133500Y-109700D03*
X131650Y-110750D03*
X128650Y-110750D03*
X145150Y-102500D03*
X145150Y-99500D03*
X136250Y-107700D03*
X136250Y-110700D03*
X150050Y-102500D03*
X150050Y-99500D03*
X138450Y-110750D03*
X138450Y-107750D03*
G54D22*
X144550Y-87812D03*
X144550Y-89387D03*
X139100Y-88012D03*
X139100Y-89587D03*
G54D33*
X137250Y-107650D03*
X137250Y-110650D03*
X143650Y-90450D03*
X143650Y-87450D03*
G54D22*
X130050Y-111750D03*
X128050Y-111750D03*
X130050Y-112700D03*
X128050Y-112700D03*
X130400Y-90050D03*
X130400Y-88050D03*
X140400Y-88150D03*
X140400Y-90150D03*
X127200Y-92737D03*
X127200Y-91162D03*
G54D32*
X126400Y-91150D03*
X126400Y-94150D03*
G54D22*
X125500Y-92150D03*
X125500Y-94150D03*
X124900Y-89300D03*
X124900Y-87300D03*
X124900Y-86150D03*
X126900Y-86150D03*
X145650Y-112537D03*
X145650Y-110962D03*
X139350Y-110687D03*
X139350Y-109112D03*
X136487Y-90550D03*
X134912Y-90550D03*
X134187Y-90550D03*
X132612Y-90550D03*
G54D14*
X120150Y-99700D03*
X118850Y-99700D03*
G54D34*
X121481Y-97950D03*
X119119Y-97950D03*
G54D35*
X122020Y-110700D03*
X123279Y-110700D03*
G54D36*
X125975Y-112025D03*
X125975Y-110845D03*
G54D37*
X144647Y-104150D03*
X150552Y-104150D03*
X144647Y-98050D03*
X150552Y-98050D03*
G54D38*
X151479Y-109200D03*
X142620Y-109200D03*
G54D16*
X124135Y-94215D03*
X124885Y-94215D03*
X123265Y-92080D03*
X124015Y-92080D03*
X123265Y-91385D03*
X124015Y-91385D03*
G54D39*
X123020Y-93245D03*
X123020Y-93995D03*
G54D40*
X147100Y-95026D03*
G54D41*
X147100Y-92073D03*
G54D42*
X133750Y-88700D03*
G54D43*
X135600Y-88300D03*
X135600Y-89150D03*
G54D44*
X121900Y-99700D03*
X129950Y-86350D03*
X127100Y-103700D03*
X124600Y-93550D03*
X124660Y-92605D03*
X128100Y-104000D03*
X124855Y-93145D03*
X127600Y-103950D03*
X126900Y-103250D03*
X122700Y-92700D03*
X124100Y-109400D03*
X125740Y-97310D03*
X125100Y-104000D03*
X123200Y-96550D03*
X127200Y-100100D03*
X124200Y-96550D03*
X123700Y-94850D03*
X126100Y-104000D03*
X123600Y-106650D03*
X125200Y-97150D03*
X121050Y-104100D03*
X119550Y-111450D03*
X120550Y-112800D03*
X124700Y-96850D03*
X120100Y-103750D03*
X123700Y-94100D03*
X120050Y-110750D03*
X127700Y-96850D03*
X122400Y-98250D03*
X121600Y-95050D03*
X118550Y-94800D03*
X122400Y-97800D03*
X126700Y-96550D03*
X118200Y-96300D03*
X126050Y-96550D03*
X121500Y-96550D03*
X131250Y-106800D03*
X141050Y-106350D03*
X137100Y-90100D03*
X120500Y-93810D03*
X119235Y-93985D03*
X118250Y-97350D03*
X125350Y-112613D03*
X120600Y-111050D03*
X120150Y-97650D03*
X142200Y-91400D03*
X125787Y-112613D03*
X119870Y-93810D03*
X118250Y-99700D03*
X124800Y-91000D03*
X128450Y-88600D03*
X124350Y-86700D03*
X125370Y-89795D03*
X125050Y-112200D03*
X122550Y-112050D03*
X126890Y-89930D03*
X127450Y-87950D03*
X130140Y-87415D03*
X142950Y-92000D03*
X135000Y-91650D03*
X141700Y-90850D03*
X127900Y-86550D03*
X126805Y-87990D03*
X140600Y-106800D03*
X142800Y-107500D03*
X139500Y-105700D03*
X140500Y-111000D03*
X118650Y-92300D03*
X120100Y-92000D03*
X129000Y-89950D03*
X127700Y-91700D03*
G54D45*
X128025Y-98625D02*
X123925Y-98625D01*
X122850Y-99700D02*
X122400Y-99700D01*
X129800Y-96850D02*
X128025Y-98625D01*
X122400Y-99700D02*
X121900Y-99700D01*
X123925Y-98625D02*
X122850Y-99700D01*
G54D46*
X119600Y-100800D02*
X119950Y-101150D01*
X120000Y-101300D02*
X120050Y-101300D01*
X119950Y-101350D02*
X120000Y-101300D01*
X119950Y-101450D02*
X119950Y-101350D01*
X120250Y-101450D02*
X119950Y-101450D01*
X120250Y-101150D02*
X120250Y-101450D01*
X119950Y-101150D02*
X120250Y-101150D01*
G54D47*
X120600Y-101800D02*
X119600Y-101800D01*
X120600Y-100800D02*
X120600Y-101800D01*
X119600Y-100800D02*
X119700Y-100800D01*
X119700Y-100800D02*
X120150Y-100350D01*
X120150Y-100350D02*
X120150Y-99700D01*
X120600Y-100800D02*
X119600Y-100800D01*
X121900Y-99700D02*
X120150Y-99700D01*
X120150Y-99700D02*
X120600Y-100150D01*
X120600Y-100150D02*
X120600Y-100800D01*
G54D45*
X131800Y-95000D02*
X130300Y-95000D01*
X130300Y-95000D02*
X129800Y-95500D01*
X129800Y-95500D02*
X129800Y-96850D01*
G54D48*
X128250Y-98400D02*
X129800Y-96850D01*
X129800Y-95500D02*
X130300Y-95000D01*
X129800Y-96850D02*
X129800Y-95500D01*
G54D49*
X120150Y-99700D02*
X120150Y-100350D01*
X120150Y-100350D02*
X120600Y-100800D01*
G54D46*
X129174Y-86300D02*
X129900Y-86300D01*
X129900Y-86300D02*
X129950Y-86350D01*
G54D50*
X145250Y-107750D02*
X144500Y-107750D01*
X141100Y-107035D02*
X141629Y-106506D01*
X141100Y-107035D02*
X141100Y-107927D01*
X143256Y-106506D02*
X143850Y-107100D01*
X141629Y-106506D02*
X143256Y-106506D01*
X144500Y-107750D02*
X143850Y-107100D01*
G54D46*
X142620Y-109200D02*
X143000Y-109200D01*
X143000Y-109200D02*
X144250Y-110450D01*
X143050Y-112150D02*
X143050Y-111650D01*
X145250Y-109450D02*
X145250Y-107750D01*
X145250Y-107750D02*
X145250Y-107100D01*
X143050Y-111650D02*
X144250Y-110450D01*
X144250Y-110450D02*
X145250Y-109450D01*
G54D50*
X145644Y-106706D02*
X145644Y-106150D01*
X145250Y-107100D02*
X145644Y-106706D01*
G54D48*
X146650Y-105650D02*
X146350Y-105650D01*
X145850Y-106150D02*
X145644Y-106150D01*
X146350Y-105650D02*
X145850Y-106150D01*
G54D51*
X143050Y-112150D02*
X143050Y-112600D01*
X142750Y-112900D02*
X140400Y-112900D01*
X143050Y-112600D02*
X142750Y-112900D01*
X137700Y-112150D02*
X137700Y-112700D01*
X137700Y-112700D02*
X137900Y-112900D01*
X137900Y-112900D02*
X140400Y-112900D01*
G54D52*
X124600Y-93550D02*
X124625Y-93550D01*
X127100Y-105250D02*
X127100Y-103700D01*
X126600Y-105750D02*
X127100Y-105250D01*
X124885Y-93810D02*
X124885Y-94215D01*
X124625Y-93550D02*
X124885Y-93810D01*
X124015Y-91385D02*
X124430Y-91385D01*
X128100Y-105250D02*
X127600Y-105750D01*
X128100Y-105250D02*
X128100Y-104000D01*
X124660Y-91615D02*
X124660Y-92605D01*
X124430Y-91385D02*
X124660Y-91615D01*
X124015Y-92080D02*
X124015Y-92555D01*
X127600Y-103950D02*
X127600Y-104750D01*
X124605Y-93145D02*
X124855Y-93145D01*
X124015Y-92555D02*
X124605Y-93145D01*
G54D50*
X122700Y-92700D02*
X122740Y-92700D01*
G54D52*
X126600Y-103550D02*
X126900Y-103250D01*
X126600Y-104750D02*
X126600Y-103550D01*
G54D50*
X123020Y-92980D02*
X123020Y-93245D01*
X122740Y-92700D02*
X123020Y-92980D01*
G54D52*
X125226Y-110100D02*
X124800Y-110100D01*
X124800Y-110100D02*
X124100Y-109400D01*
G54D48*
X151479Y-109200D02*
X150100Y-109200D01*
X150500Y-106600D02*
X150400Y-106600D01*
X150100Y-111691D02*
X149570Y-112221D01*
X150100Y-106900D02*
X150100Y-109200D01*
X150100Y-109200D02*
X150100Y-111691D01*
X150400Y-106600D02*
X150100Y-106900D01*
X151450Y-105950D02*
X151450Y-106250D01*
X151100Y-106600D02*
X150500Y-106600D01*
X151450Y-106250D02*
X151100Y-106600D01*
G54D53*
X149570Y-112221D02*
X149570Y-111450D01*
G54D52*
X123600Y-106650D02*
X119450Y-106650D01*
X120050Y-111350D02*
X120050Y-112150D01*
X119700Y-111000D02*
X120050Y-111350D01*
X119400Y-111000D02*
X119700Y-111000D01*
X118950Y-110550D02*
X119400Y-111000D01*
X118950Y-107150D02*
X118950Y-110550D01*
X119450Y-106650D02*
X118950Y-107150D01*
X119550Y-112150D02*
X119550Y-111450D01*
X120550Y-112150D02*
X120550Y-112800D01*
G54D50*
X123265Y-91385D02*
X123265Y-92080D01*
X123700Y-94100D02*
X123700Y-94005D01*
X123220Y-92265D02*
X123220Y-92005D01*
X123840Y-92885D02*
X123220Y-92265D01*
X123840Y-93865D02*
X123840Y-92885D01*
X123700Y-94005D02*
X123840Y-93865D01*
X123700Y-94100D02*
X124020Y-94100D01*
X124020Y-94100D02*
X124135Y-94215D01*
X119550Y-110500D02*
X119800Y-110750D01*
X119550Y-110050D02*
X119550Y-110500D01*
X119800Y-110750D02*
X120050Y-110750D01*
G54D49*
X122400Y-98250D02*
X122400Y-97950D01*
X122400Y-97800D02*
X122400Y-97950D01*
X122400Y-97950D02*
X122300Y-98050D01*
X122050Y-97800D02*
X122050Y-98050D01*
G54D48*
X122400Y-98250D02*
X121781Y-98250D01*
X121781Y-98250D02*
X121481Y-97950D01*
G54D49*
X121525Y-93450D02*
X121525Y-94450D01*
X121520Y-95740D02*
X121520Y-95315D01*
X121520Y-95315D02*
X121600Y-95235D01*
X121105Y-95740D02*
X121105Y-95730D01*
X121105Y-95730D02*
X121600Y-95235D01*
X121600Y-95235D02*
X121600Y-95050D01*
X121525Y-94450D02*
X121525Y-94650D01*
X121435Y-94885D02*
X121600Y-95050D01*
X121435Y-94740D02*
X121435Y-94885D01*
X121525Y-94650D02*
X121435Y-94740D01*
G54D46*
X120924Y-95740D02*
X121105Y-95740D01*
X121105Y-95740D02*
X121520Y-95740D01*
X121520Y-95740D02*
X121640Y-95740D01*
X122400Y-96500D02*
X122400Y-97800D01*
X121640Y-95740D02*
X122400Y-96500D01*
G54D49*
X122400Y-97800D02*
X122050Y-97800D01*
X122050Y-97800D02*
X121631Y-97800D01*
X121631Y-97800D02*
X121481Y-97950D01*
G54D50*
X121481Y-97950D02*
X121481Y-97319D01*
X121190Y-95740D02*
X120924Y-95740D01*
G54D51*
X118739Y-95745D02*
X118739Y-95239D01*
X119575Y-93240D02*
X119455Y-93360D01*
X119455Y-93360D02*
X118715Y-93360D01*
X118715Y-93360D02*
X118550Y-93525D01*
X118550Y-94510D02*
X118550Y-94800D01*
X118550Y-94800D02*
X118550Y-95050D01*
X118550Y-93525D02*
X118550Y-94510D01*
X119575Y-93240D02*
X119575Y-92741D01*
X118739Y-95239D02*
X118550Y-95050D01*
G54D50*
X120924Y-95726D02*
X120924Y-95740D01*
G54D51*
X118200Y-96300D02*
X118400Y-96500D01*
X118400Y-96500D02*
X118717Y-96500D01*
X118717Y-96500D02*
X118750Y-96533D01*
X118717Y-96500D02*
X118750Y-96533D01*
X121489Y-96539D02*
X120924Y-96539D01*
X121489Y-96539D02*
X121500Y-96550D01*
G54D54*
X122693Y-86300D02*
X122693Y-87156D01*
X122250Y-87600D02*
X122250Y-88600D01*
X122693Y-87156D02*
X122250Y-87600D01*
X121100Y-87700D02*
X120550Y-87150D01*
X121100Y-88600D02*
X121100Y-87700D01*
X120550Y-86450D02*
X120400Y-86300D01*
X120550Y-87150D02*
X120550Y-86450D01*
G54D46*
X131250Y-106600D02*
X131250Y-106800D01*
X131250Y-106800D02*
X131250Y-109650D01*
X131050Y-106800D02*
X131250Y-106600D01*
G54D53*
X128600Y-105750D02*
X128650Y-105750D01*
X128650Y-105750D02*
X129700Y-106800D01*
G54D46*
X129700Y-106800D02*
X131050Y-106800D01*
X131250Y-109650D02*
X131100Y-109800D01*
G54D53*
X137100Y-89374D02*
X137100Y-90100D01*
G54D52*
X123020Y-93995D02*
X123020Y-94185D01*
X122755Y-94450D02*
X122275Y-94450D01*
X123020Y-94185D02*
X122755Y-94450D01*
G54D53*
X122275Y-93450D02*
X122275Y-93025D01*
X122275Y-93025D02*
X122100Y-92850D01*
X122100Y-92850D02*
X121200Y-92850D01*
X121200Y-92850D02*
X121100Y-92950D01*
X121100Y-92950D02*
X121100Y-93210D01*
X121100Y-93210D02*
X120500Y-93810D01*
X125975Y-112025D02*
X126540Y-112025D01*
X126867Y-111698D02*
X126867Y-111583D01*
X126540Y-112025D02*
X126867Y-111698D01*
X125975Y-112025D02*
X125975Y-112425D01*
X125975Y-112425D02*
X125787Y-112613D01*
X120505Y-93795D02*
X120505Y-93805D01*
X120505Y-93805D02*
X120500Y-93810D01*
G54D52*
X121050Y-110600D02*
X120600Y-111050D01*
X121050Y-110050D02*
X121050Y-110600D01*
X120150Y-97650D02*
X120050Y-97650D01*
X119750Y-97950D02*
X119119Y-97950D01*
X120050Y-97650D02*
X119750Y-97950D01*
G54D53*
X142350Y-89873D02*
X142350Y-91250D01*
X142350Y-91250D02*
X142200Y-91400D01*
G54D51*
X141600Y-109973D02*
X141600Y-111350D01*
X141600Y-111350D02*
X142050Y-111800D01*
X142050Y-111800D02*
X142050Y-112150D01*
G54D53*
X126867Y-110924D02*
X126867Y-111583D01*
X124250Y-112613D02*
X125350Y-112613D01*
X125350Y-112613D02*
X125787Y-112613D01*
X123200Y-112613D02*
X124250Y-112613D01*
X118250Y-97350D02*
X118250Y-97950D01*
X118250Y-97950D02*
X119119Y-97950D01*
X118250Y-97350D02*
X118250Y-99700D01*
X118250Y-99700D02*
X118850Y-99700D01*
G54D50*
X125550Y-90426D02*
X125074Y-90426D01*
X124800Y-90700D02*
X124800Y-91000D01*
X125074Y-90426D02*
X124800Y-90700D01*
X128900Y-88900D02*
X128600Y-88600D01*
X128600Y-88600D02*
X128450Y-88600D01*
X128900Y-89350D02*
X128900Y-88900D01*
G54D52*
X119825Y-92741D02*
X119825Y-93225D01*
X120135Y-93535D02*
X120325Y-93535D01*
X119825Y-93225D02*
X120135Y-93535D01*
X122275Y-94450D02*
X122275Y-93450D01*
X119575Y-94859D02*
X119575Y-93895D01*
X119575Y-93895D02*
X119660Y-93810D01*
X120325Y-92741D02*
X120325Y-93535D01*
X120325Y-93535D02*
X120325Y-93615D01*
X120325Y-93615D02*
X120505Y-93795D01*
X120505Y-93795D02*
X120520Y-93810D01*
X120325Y-94859D02*
X120325Y-94005D01*
X120325Y-94005D02*
X120520Y-93810D01*
X120825Y-94859D02*
X120825Y-94115D01*
X120825Y-94115D02*
X120520Y-93810D01*
X120520Y-93810D02*
X119870Y-93810D01*
X119870Y-93810D02*
X119660Y-93810D01*
X119660Y-93810D02*
X119410Y-93810D01*
X119075Y-94859D02*
X119075Y-94145D01*
X119075Y-94145D02*
X119235Y-93985D01*
X119235Y-93985D02*
X119410Y-93810D01*
G54D50*
X125900Y-89350D02*
X125675Y-89350D01*
X125370Y-89655D02*
X125370Y-89795D01*
X125675Y-89350D02*
X125370Y-89655D01*
G54D46*
X134912Y-90550D02*
X134187Y-90550D01*
G54D51*
X120174Y-95740D02*
X120174Y-96539D01*
X120075Y-94859D02*
X120075Y-95325D01*
X120174Y-95424D02*
X120174Y-95740D01*
X120075Y-95325D02*
X120174Y-95424D01*
G54D46*
X125050Y-112200D02*
X125050Y-112050D01*
X124787Y-111787D02*
X124250Y-111787D01*
X125050Y-112050D02*
X124787Y-111787D01*
X122550Y-111850D02*
X122613Y-111787D01*
X122613Y-111787D02*
X123200Y-111787D01*
X122550Y-112050D02*
X122550Y-111850D01*
G54D47*
X148350Y-99500D02*
X147350Y-98500D01*
X146150Y-98500D02*
X147350Y-98500D01*
X146150Y-98500D02*
X145150Y-99500D01*
G54D46*
X134450Y-89800D02*
X135100Y-89800D01*
X133150Y-90550D02*
X133900Y-89800D01*
X133900Y-89800D02*
X134450Y-89800D01*
X132612Y-90550D02*
X133150Y-90550D01*
X135600Y-89300D02*
X135600Y-89150D01*
X135100Y-89800D02*
X135600Y-89300D01*
G54D50*
X126890Y-89930D02*
X127245Y-89930D01*
X126950Y-90300D02*
X126985Y-90265D01*
X126985Y-90025D02*
X126890Y-89930D01*
X126985Y-90265D02*
X126985Y-90025D01*
X127400Y-89775D02*
X127400Y-89350D01*
X127245Y-89930D02*
X127400Y-89775D01*
X127400Y-87350D02*
X127400Y-87900D01*
X127400Y-87900D02*
X127450Y-87950D01*
X126900Y-87350D02*
X127400Y-87350D01*
X139662Y-89587D02*
X139100Y-89587D01*
X141850Y-87827D02*
X141850Y-88500D01*
X141850Y-88500D02*
X141450Y-88900D01*
X141450Y-88900D02*
X140350Y-88900D01*
X140350Y-88900D02*
X139662Y-89587D01*
G54D52*
X141450Y-88900D02*
X141850Y-88500D01*
X140350Y-88900D02*
X141450Y-88900D01*
X139662Y-89587D02*
X140350Y-88900D01*
G54D50*
X129400Y-87350D02*
X130075Y-87350D01*
X130075Y-87350D02*
X130140Y-87415D01*
X142850Y-89873D02*
X142850Y-90750D01*
X142950Y-90850D02*
X142950Y-92000D01*
X142850Y-90750D02*
X142950Y-90850D01*
G54D46*
X142850Y-87827D02*
X142850Y-88650D01*
X143962Y-88800D02*
X144550Y-89387D01*
X143000Y-88800D02*
X143962Y-88800D01*
X142850Y-88650D02*
X143000Y-88800D01*
G54D48*
X144550Y-86150D02*
X144550Y-87812D01*
G54D51*
X128900Y-87000D02*
X129000Y-86900D01*
X129000Y-86900D02*
X130350Y-86900D01*
X130350Y-86900D02*
X131100Y-87650D01*
X131100Y-87650D02*
X131100Y-89900D01*
X131100Y-89900D02*
X132850Y-91650D01*
X132850Y-91650D02*
X135000Y-91650D01*
X128900Y-87000D02*
X128900Y-87350D01*
G54D50*
X141850Y-90700D02*
X141700Y-90850D01*
X141850Y-90700D02*
X141850Y-89873D01*
G54D48*
X138800Y-86200D02*
X138800Y-86700D01*
X138000Y-90750D02*
X137125Y-91625D01*
X138000Y-87500D02*
X138000Y-90750D01*
X138800Y-86700D02*
X138000Y-87500D01*
X135750Y-93000D02*
X131800Y-93000D01*
X137125Y-91625D02*
X135750Y-93000D01*
X145550Y-86150D02*
X145550Y-91100D01*
X145550Y-91100D02*
X143650Y-93000D01*
X143650Y-93000D02*
X141800Y-93000D01*
G54D52*
X143650Y-93000D02*
X141800Y-93000D01*
X145550Y-91100D02*
X143650Y-93000D01*
G54D50*
X127900Y-86950D02*
X127900Y-86550D01*
X127900Y-87350D02*
X127900Y-86950D01*
X128150Y-86300D02*
X128426Y-86300D01*
X127900Y-86550D02*
X128150Y-86300D01*
X129044Y-91150D02*
X129044Y-91506D01*
X126400Y-92600D02*
X126400Y-94150D01*
X126900Y-92100D02*
X126400Y-92600D01*
X128450Y-92100D02*
X126900Y-92100D01*
X129044Y-91506D02*
X128450Y-92100D01*
G54D46*
X143650Y-87450D02*
X143650Y-87200D01*
X142500Y-86750D02*
X142350Y-86900D01*
X143200Y-86750D02*
X142500Y-86750D01*
X143650Y-87200D02*
X143200Y-86750D01*
X142350Y-87827D02*
X142350Y-86900D01*
X140400Y-87200D02*
X140900Y-86700D01*
X142350Y-86900D02*
X142150Y-86700D01*
X140400Y-87200D02*
X140400Y-88150D01*
X140900Y-86700D02*
X142150Y-86700D01*
G54D50*
X130400Y-90050D02*
X129500Y-90050D01*
X129500Y-90050D02*
X129400Y-90150D01*
X127900Y-87350D02*
X128400Y-87350D01*
X128400Y-87350D02*
X128400Y-87800D01*
X128400Y-87800D02*
X129400Y-88800D01*
X129400Y-88800D02*
X129400Y-89350D01*
X129400Y-89350D02*
X129400Y-90150D01*
X129400Y-90150D02*
X129044Y-90506D01*
X129044Y-90506D02*
X129044Y-91150D01*
G54D47*
X148350Y-102500D02*
X148350Y-102000D01*
X143850Y-101050D02*
X141800Y-99000D01*
X146950Y-101050D02*
X143850Y-101050D01*
X147400Y-101050D02*
X146950Y-101050D01*
X148350Y-102000D02*
X147400Y-101050D01*
X141800Y-99000D02*
X141800Y-99200D01*
X143400Y-102500D02*
X142500Y-102500D01*
X142500Y-102500D02*
X141800Y-103200D01*
X145150Y-102500D02*
X143400Y-102500D01*
X141900Y-103100D02*
X141800Y-103200D01*
G54D52*
X141900Y-103100D02*
X141800Y-103200D01*
G54D50*
X120050Y-110050D02*
X120050Y-109550D01*
X123279Y-109879D02*
X123279Y-110700D01*
X122500Y-109100D02*
X123279Y-109879D01*
X120500Y-109100D02*
X122500Y-109100D01*
X120050Y-109550D02*
X120500Y-109100D01*
X144856Y-106150D02*
X144350Y-106150D01*
X140700Y-105850D02*
X140100Y-106450D01*
X144050Y-105850D02*
X140700Y-105850D01*
X144350Y-106150D02*
X144050Y-105850D01*
G54D51*
X140100Y-107927D02*
X140100Y-106450D01*
G54D46*
X140100Y-107927D02*
X138627Y-107927D01*
X138627Y-107927D02*
X138450Y-107750D01*
X130250Y-107550D02*
X130250Y-108700D01*
G54D50*
X126400Y-87765D02*
X126625Y-87990D01*
X126625Y-87990D02*
X126805Y-87990D01*
X126400Y-87350D02*
X126400Y-87765D01*
G54D52*
X140100Y-109973D02*
X139227Y-109973D01*
X139227Y-109973D02*
X138450Y-110750D01*
G54D50*
X130500Y-109700D02*
X130500Y-110450D01*
X130050Y-110900D02*
X130050Y-111750D01*
X130500Y-110450D02*
X130050Y-110900D01*
G54D46*
X140600Y-107927D02*
X140600Y-106800D01*
G54D50*
X141600Y-107927D02*
X142373Y-107927D01*
X142373Y-107927D02*
X142800Y-107500D01*
G54D46*
X127733Y-110550D02*
X127733Y-111433D01*
X127733Y-111433D02*
X128050Y-111750D01*
G54D50*
X128050Y-111750D02*
X128050Y-112700D01*
G54D46*
X126000Y-110976D02*
X126000Y-110550D01*
X125974Y-110524D02*
X125974Y-110100D01*
X126000Y-110550D02*
X125974Y-110524D01*
X126867Y-110176D02*
X126050Y-110176D01*
X126050Y-110176D02*
X125974Y-110100D01*
G54D50*
X140600Y-109973D02*
X140600Y-110900D01*
X140600Y-110900D02*
X140500Y-111000D01*
X126550Y-88650D02*
X125320Y-88650D01*
X126550Y-88650D02*
X126900Y-89000D01*
X126900Y-89350D02*
X126900Y-89000D01*
X124900Y-89070D02*
X124900Y-89300D01*
X125320Y-88650D02*
X124900Y-89070D01*
X136250Y-110700D02*
X136250Y-108800D01*
X130500Y-112700D02*
X130050Y-112700D01*
X131000Y-112200D02*
X130500Y-112700D01*
X131000Y-110400D02*
X131000Y-112200D01*
X131500Y-109900D02*
X131000Y-110400D01*
X132150Y-109900D02*
X131500Y-109900D01*
X133950Y-108100D02*
X132150Y-109900D01*
X135550Y-108100D02*
X133950Y-108100D01*
X136250Y-108800D02*
X135550Y-108100D01*
G54D51*
X141100Y-109973D02*
X141100Y-111200D01*
X136250Y-111050D02*
X136250Y-110700D01*
X136650Y-111450D02*
X136250Y-111050D01*
X140850Y-111450D02*
X136650Y-111450D01*
X141100Y-111200D02*
X140850Y-111450D01*
X120825Y-92741D02*
X120825Y-92575D01*
X121925Y-92275D02*
X121925Y-91850D01*
X121800Y-92400D02*
X121925Y-92275D01*
X121000Y-92400D02*
X121800Y-92400D01*
X120825Y-92575D02*
X121000Y-92400D01*
G54D49*
X122350Y-90950D02*
X122350Y-91600D01*
X122100Y-91850D02*
X121925Y-91850D01*
X122350Y-91600D02*
X122100Y-91850D01*
G54D48*
X122350Y-90950D02*
X122350Y-90000D01*
X122350Y-90000D02*
X122250Y-89900D01*
G54D51*
X118650Y-92300D02*
X118650Y-92250D01*
X118650Y-92250D02*
X118825Y-92075D01*
X118825Y-91750D02*
X118825Y-92075D01*
X119075Y-92741D02*
X119075Y-92325D01*
X119075Y-92325D02*
X118825Y-92075D01*
G54D50*
X125550Y-91174D02*
X126376Y-91174D01*
X126376Y-91174D02*
X126400Y-91150D01*
X125500Y-92150D02*
X125500Y-91224D01*
X125500Y-91224D02*
X125550Y-91174D01*
X126400Y-90300D02*
X126400Y-91150D01*
X126400Y-90300D02*
X126400Y-89350D01*
X127200Y-91162D02*
X126412Y-91162D01*
X126412Y-91162D02*
X126400Y-91150D01*
G54D51*
X119850Y-91750D02*
X120100Y-92000D01*
X119575Y-91750D02*
X119850Y-91750D01*
X119325Y-92741D02*
X119325Y-92325D01*
X119575Y-92075D02*
X119575Y-91750D01*
X119325Y-92325D02*
X119575Y-92075D01*
X120575Y-92741D02*
X120575Y-92125D01*
X120850Y-91850D02*
X121175Y-91850D01*
X120575Y-92125D02*
X120850Y-91850D01*
G54D49*
X121175Y-91850D02*
X121175Y-91775D01*
X121050Y-91650D02*
X121050Y-90950D01*
X121175Y-91775D02*
X121050Y-91650D01*
G54D48*
X121050Y-90950D02*
X121050Y-89950D01*
X121050Y-89950D02*
X121100Y-89900D01*
G54D50*
X120550Y-110050D02*
X120550Y-109700D01*
X122020Y-109920D02*
X122020Y-110700D01*
X121600Y-109500D02*
X122020Y-109920D01*
X120750Y-109500D02*
X121600Y-109500D01*
X120550Y-109700D02*
X120750Y-109500D01*
G54D46*
X133750Y-88700D02*
X133750Y-88550D01*
X135400Y-88100D02*
X135600Y-88300D01*
X134200Y-88100D02*
X135400Y-88100D01*
X133750Y-88550D02*
X134200Y-88100D01*
X135600Y-88300D02*
X136774Y-88300D01*
X136774Y-88300D02*
X137100Y-88626D01*
G54D50*
X130897Y-86597D02*
X132500Y-88200D01*
X125150Y-86150D02*
X125775Y-85525D01*
X125775Y-85525D02*
X130275Y-85525D01*
X130275Y-85525D02*
X130897Y-86147D01*
X130897Y-86147D02*
X130897Y-86597D01*
X124900Y-86150D02*
X125150Y-86150D01*
X132650Y-88200D02*
X133150Y-88700D01*
X132500Y-88200D02*
X132650Y-88200D01*
X133600Y-88700D02*
X133150Y-88700D01*
X125900Y-87350D02*
X125900Y-86850D01*
X125200Y-86150D02*
X124900Y-86150D01*
X125900Y-86850D02*
X125200Y-86150D01*
G54D48*
X147500Y-106600D02*
X148300Y-106600D01*
X149250Y-105650D02*
X149650Y-105650D01*
X148300Y-106600D02*
X149250Y-105650D01*
G54D50*
X128400Y-89600D02*
X128750Y-89950D01*
X128750Y-89950D02*
X129000Y-89950D01*
X128400Y-89350D02*
X128400Y-89600D01*
X127900Y-90400D02*
X127900Y-89350D01*
X127700Y-90600D02*
X127700Y-91500D01*
X127900Y-90400D02*
X127700Y-90600D01*
X127700Y-91700D02*
X127700Y-91500D01*
G54D51*
X119489Y-95745D02*
X119489Y-96522D01*
X119489Y-96522D02*
X119500Y-96533D01*
X119825Y-94859D02*
X119825Y-95275D01*
X119489Y-95611D02*
X119489Y-95745D01*
X119825Y-95275D02*
X119489Y-95611D01*
M02*
