G04 (created by PCBNEW (2013-07-07 BZR 4022)-stable) date 11/5/2016 11:09:50 AM*
%MOIN*%
G04 Gerber Fmt 3.4, Leading zero omitted, Abs format*
%FSLAX34Y34*%
G01*
G70*
G90*
G04 APERTURE LIST*
%ADD10C,0.00590551*%
%ADD11C,0.00629921*%
%ADD12R,0.06X0.06*%
%ADD13C,0.06*%
%ADD14R,0.055X0.055*%
%ADD15C,0.055*%
%ADD16C,0.07*%
%ADD17R,0.07X0.07*%
%ADD18R,0.35X0.35*%
%ADD19C,0.0984*%
%ADD20C,0.0984252*%
%ADD21R,0.06X0.08*%
%ADD22R,0.08X0.06*%
%ADD23R,0.0587X0.0587*%
%ADD24C,0.0587*%
%ADD25C,0.063*%
%ADD26C,0.056*%
%ADD27C,0.15748*%
%ADD28C,0.0787402*%
%ADD29O,0.0885X0.177*%
%ADD30R,0.0566X0.0472*%
%ADD31R,0.0566X0.0393*%
%ADD32R,0.0511X0.059*%
%ADD33C,0.066*%
%ADD34R,0.059X0.0511*%
%ADD35R,0.0551X0.0393*%
%ADD36C,0.472441*%
%ADD37C,0.035*%
%ADD38C,0.019685*%
%ADD39C,0.00984252*%
%ADD40C,0.0551181*%
%ADD41C,0.0393701*%
%ADD42C,0.0255906*%
%ADD43C,0.0492126*%
%ADD44C,0.0149606*%
%ADD45C,0.017*%
%ADD46C,0.0295276*%
%ADD47C,0.01*%
%ADD48C,0.00866142*%
G04 APERTURE END LIST*
G54D10*
G54D11*
X146322Y-110831D02*
X146637Y-110831D01*
X146412Y-110720D01*
X146637Y-110608D01*
X146322Y-110608D01*
X146412Y-110465D02*
X146412Y-110305D01*
X146322Y-110496D02*
X146637Y-110385D01*
X146322Y-110273D01*
X146352Y-109971D02*
X146337Y-109986D01*
X146322Y-110034D01*
X146322Y-110066D01*
X146337Y-110114D01*
X146367Y-110146D01*
X146397Y-110162D01*
X146457Y-110178D01*
X146502Y-110178D01*
X146562Y-110162D01*
X146592Y-110146D01*
X146622Y-110114D01*
X146637Y-110066D01*
X146637Y-110034D01*
X146622Y-109986D01*
X146607Y-109971D01*
X146322Y-109652D02*
X146322Y-109843D01*
X146322Y-109747D02*
X146637Y-109747D01*
X146592Y-109779D01*
X146562Y-109811D01*
X146547Y-109843D01*
X146637Y-109445D02*
X146637Y-109413D01*
X146622Y-109381D01*
X146607Y-109365D01*
X146577Y-109349D01*
X146517Y-109333D01*
X146442Y-109333D01*
X146382Y-109349D01*
X146352Y-109365D01*
X146337Y-109381D01*
X146322Y-109413D01*
X146322Y-109445D01*
X146337Y-109477D01*
X146352Y-109492D01*
X146382Y-109508D01*
X146442Y-109524D01*
X146517Y-109524D01*
X146577Y-109508D01*
X146607Y-109492D01*
X146622Y-109477D01*
X146637Y-109445D01*
X146637Y-108983D02*
X146637Y-108791D01*
X146322Y-108887D02*
X146637Y-108887D01*
X146322Y-108632D02*
X146337Y-108664D01*
X146352Y-108680D01*
X146382Y-108696D01*
X146472Y-108696D01*
X146502Y-108680D01*
X146517Y-108664D01*
X146532Y-108632D01*
X146532Y-108584D01*
X146517Y-108552D01*
X146502Y-108536D01*
X146472Y-108520D01*
X146382Y-108520D01*
X146352Y-108536D01*
X146337Y-108552D01*
X146322Y-108584D01*
X146322Y-108632D01*
X146532Y-108377D02*
X146217Y-108377D01*
X146517Y-108377D02*
X146532Y-108345D01*
X146532Y-108281D01*
X146517Y-108250D01*
X146502Y-108234D01*
X146472Y-108218D01*
X146382Y-108218D01*
X146352Y-108234D01*
X146337Y-108250D01*
X146322Y-108281D01*
X146322Y-108345D01*
X146337Y-108377D01*
X146487Y-107963D02*
X146472Y-107915D01*
X146457Y-107899D01*
X146427Y-107883D01*
X146382Y-107883D01*
X146352Y-107899D01*
X146337Y-107915D01*
X146322Y-107947D01*
X146322Y-108074D01*
X146637Y-108074D01*
X146637Y-107963D01*
X146622Y-107931D01*
X146607Y-107915D01*
X146577Y-107899D01*
X146547Y-107899D01*
X146517Y-107915D01*
X146502Y-107931D01*
X146487Y-107963D01*
X146487Y-108074D01*
X146322Y-107293D02*
X146472Y-107405D01*
X146322Y-107485D02*
X146637Y-107485D01*
X146637Y-107357D01*
X146622Y-107325D01*
X146607Y-107309D01*
X146577Y-107293D01*
X146532Y-107293D01*
X146502Y-107309D01*
X146487Y-107325D01*
X146472Y-107357D01*
X146472Y-107485D01*
X146487Y-107150D02*
X146487Y-107038D01*
X146322Y-106991D02*
X146322Y-107150D01*
X146637Y-107150D01*
X146637Y-106991D01*
X146637Y-106895D02*
X146322Y-106783D01*
X146637Y-106672D01*
X146607Y-106321D02*
X146622Y-106305D01*
X146637Y-106273D01*
X146637Y-106194D01*
X146622Y-106162D01*
X146607Y-106146D01*
X146577Y-106130D01*
X146547Y-106130D01*
X146502Y-106146D01*
X146322Y-106337D01*
X146322Y-106130D01*
X146352Y-105987D02*
X146337Y-105971D01*
X146322Y-105987D01*
X146337Y-106003D01*
X146352Y-105987D01*
X146322Y-105987D01*
X146637Y-105764D02*
X146637Y-105732D01*
X146622Y-105700D01*
X146607Y-105684D01*
X146577Y-105668D01*
X146517Y-105652D01*
X146442Y-105652D01*
X146382Y-105668D01*
X146352Y-105684D01*
X146337Y-105700D01*
X146322Y-105732D01*
X146322Y-105764D01*
X146337Y-105795D01*
X146352Y-105811D01*
X146382Y-105827D01*
X146442Y-105843D01*
X146517Y-105843D01*
X146577Y-105827D01*
X146607Y-105811D01*
X146622Y-105795D01*
X146637Y-105764D01*
X146058Y-110337D02*
X146073Y-110369D01*
X146073Y-110433D01*
X146058Y-110465D01*
X146028Y-110496D01*
X145998Y-110512D01*
X145938Y-110512D01*
X145908Y-110496D01*
X145878Y-110465D01*
X145863Y-110433D01*
X145863Y-110369D01*
X145878Y-110337D01*
X146178Y-110401D02*
X146163Y-110480D01*
X146118Y-110560D01*
X146043Y-110608D01*
X145968Y-110624D01*
X145893Y-110608D01*
X145818Y-110560D01*
X145773Y-110480D01*
X145758Y-110401D01*
X145773Y-110321D01*
X145818Y-110241D01*
X145893Y-110194D01*
X145968Y-110178D01*
X146043Y-110194D01*
X146118Y-110241D01*
X146163Y-110321D01*
X146178Y-110401D01*
X145908Y-109795D02*
X145908Y-109636D01*
X145818Y-109827D02*
X146133Y-109716D01*
X145818Y-109604D01*
X145983Y-109126D02*
X145968Y-109078D01*
X145953Y-109062D01*
X145923Y-109046D01*
X145878Y-109046D01*
X145848Y-109062D01*
X145833Y-109078D01*
X145818Y-109110D01*
X145818Y-109238D01*
X146133Y-109238D01*
X146133Y-109126D01*
X146118Y-109094D01*
X146103Y-109078D01*
X146073Y-109062D01*
X146043Y-109062D01*
X146013Y-109078D01*
X145998Y-109094D01*
X145983Y-109126D01*
X145983Y-109238D01*
X146028Y-108759D02*
X145818Y-108759D01*
X146028Y-108903D02*
X145863Y-108903D01*
X145833Y-108887D01*
X145818Y-108855D01*
X145818Y-108807D01*
X145833Y-108775D01*
X145848Y-108759D01*
X145818Y-108600D02*
X146028Y-108600D01*
X145968Y-108600D02*
X145998Y-108584D01*
X146013Y-108568D01*
X146028Y-108536D01*
X146028Y-108504D01*
X145818Y-108393D02*
X146028Y-108393D01*
X145968Y-108393D02*
X145998Y-108377D01*
X146013Y-108361D01*
X146028Y-108329D01*
X146028Y-108297D01*
X145818Y-108138D02*
X145833Y-108170D01*
X145848Y-108186D01*
X145878Y-108202D01*
X145968Y-108202D01*
X145998Y-108186D01*
X146013Y-108170D01*
X146028Y-108138D01*
X146028Y-108090D01*
X146013Y-108058D01*
X145998Y-108042D01*
X145968Y-108026D01*
X145878Y-108026D01*
X145848Y-108042D01*
X145833Y-108058D01*
X145818Y-108090D01*
X145818Y-108138D01*
X146028Y-107915D02*
X145818Y-107851D01*
X145968Y-107787D01*
X145818Y-107724D01*
X146028Y-107660D01*
X145833Y-107548D02*
X145818Y-107516D01*
X145818Y-107453D01*
X145833Y-107421D01*
X145863Y-107405D01*
X145878Y-107405D01*
X145908Y-107421D01*
X145923Y-107453D01*
X145923Y-107501D01*
X145938Y-107532D01*
X145968Y-107548D01*
X145983Y-107548D01*
X146013Y-107532D01*
X146028Y-107501D01*
X146028Y-107453D01*
X146013Y-107421D01*
X146103Y-107022D02*
X146118Y-107007D01*
X146133Y-106975D01*
X146133Y-106895D01*
X146118Y-106863D01*
X146103Y-106847D01*
X146073Y-106831D01*
X146043Y-106831D01*
X145998Y-106847D01*
X145818Y-107038D01*
X145818Y-106831D01*
X146133Y-106624D02*
X146133Y-106592D01*
X146118Y-106560D01*
X146103Y-106544D01*
X146073Y-106528D01*
X146013Y-106513D01*
X145938Y-106513D01*
X145878Y-106528D01*
X145848Y-106544D01*
X145833Y-106560D01*
X145818Y-106592D01*
X145818Y-106624D01*
X145833Y-106656D01*
X145848Y-106672D01*
X145878Y-106688D01*
X145938Y-106704D01*
X146013Y-106704D01*
X146073Y-106688D01*
X146103Y-106672D01*
X146118Y-106656D01*
X146133Y-106624D01*
X145818Y-106194D02*
X145818Y-106385D01*
X145818Y-106289D02*
X146133Y-106289D01*
X146088Y-106321D01*
X146058Y-106353D01*
X146043Y-106385D01*
X146133Y-105907D02*
X146133Y-105971D01*
X146118Y-106003D01*
X146103Y-106019D01*
X146058Y-106050D01*
X145998Y-106066D01*
X145878Y-106066D01*
X145848Y-106050D01*
X145833Y-106034D01*
X145818Y-106003D01*
X145818Y-105939D01*
X145833Y-105907D01*
X145848Y-105891D01*
X145878Y-105875D01*
X145953Y-105875D01*
X145983Y-105891D01*
X145998Y-105907D01*
X146013Y-105939D01*
X146013Y-106003D01*
X145998Y-106034D01*
X145983Y-106050D01*
X145953Y-106066D01*
X145404Y-110990D02*
X145404Y-110831D01*
X145314Y-111022D02*
X145629Y-110911D01*
X145314Y-110799D01*
X145314Y-110528D02*
X145314Y-110688D01*
X145629Y-110688D01*
X145314Y-110257D02*
X145314Y-110417D01*
X145629Y-110417D01*
X145314Y-109700D02*
X145464Y-109811D01*
X145314Y-109891D02*
X145629Y-109891D01*
X145629Y-109763D01*
X145614Y-109732D01*
X145599Y-109716D01*
X145569Y-109700D01*
X145524Y-109700D01*
X145494Y-109716D01*
X145479Y-109732D01*
X145464Y-109763D01*
X145464Y-109891D01*
X145314Y-109556D02*
X145629Y-109556D01*
X145614Y-109222D02*
X145629Y-109253D01*
X145629Y-109301D01*
X145614Y-109349D01*
X145584Y-109381D01*
X145554Y-109397D01*
X145494Y-109413D01*
X145449Y-109413D01*
X145389Y-109397D01*
X145359Y-109381D01*
X145329Y-109349D01*
X145314Y-109301D01*
X145314Y-109269D01*
X145329Y-109222D01*
X145344Y-109206D01*
X145449Y-109206D01*
X145449Y-109269D01*
X145314Y-109062D02*
X145629Y-109062D01*
X145479Y-109062D02*
X145479Y-108871D01*
X145314Y-108871D02*
X145629Y-108871D01*
X145629Y-108759D02*
X145629Y-108568D01*
X145314Y-108664D02*
X145629Y-108664D01*
X145329Y-108473D02*
X145314Y-108425D01*
X145314Y-108345D01*
X145329Y-108313D01*
X145344Y-108297D01*
X145374Y-108281D01*
X145404Y-108281D01*
X145434Y-108297D01*
X145449Y-108313D01*
X145464Y-108345D01*
X145479Y-108409D01*
X145494Y-108441D01*
X145509Y-108457D01*
X145539Y-108473D01*
X145569Y-108473D01*
X145599Y-108457D01*
X145614Y-108441D01*
X145629Y-108409D01*
X145629Y-108329D01*
X145614Y-108281D01*
X145314Y-107692D02*
X145464Y-107803D01*
X145314Y-107883D02*
X145629Y-107883D01*
X145629Y-107755D01*
X145614Y-107724D01*
X145599Y-107708D01*
X145569Y-107692D01*
X145524Y-107692D01*
X145494Y-107708D01*
X145479Y-107724D01*
X145464Y-107755D01*
X145464Y-107883D01*
X145479Y-107548D02*
X145479Y-107437D01*
X145314Y-107389D02*
X145314Y-107548D01*
X145629Y-107548D01*
X145629Y-107389D01*
X145329Y-107261D02*
X145314Y-107214D01*
X145314Y-107134D01*
X145329Y-107102D01*
X145344Y-107086D01*
X145374Y-107070D01*
X145404Y-107070D01*
X145434Y-107086D01*
X145449Y-107102D01*
X145464Y-107134D01*
X145479Y-107198D01*
X145494Y-107230D01*
X145509Y-107246D01*
X145539Y-107261D01*
X145569Y-107261D01*
X145599Y-107246D01*
X145614Y-107230D01*
X145629Y-107198D01*
X145629Y-107118D01*
X145614Y-107070D01*
X145479Y-106927D02*
X145479Y-106815D01*
X145314Y-106767D02*
X145314Y-106927D01*
X145629Y-106927D01*
X145629Y-106767D01*
X145314Y-106433D02*
X145464Y-106544D01*
X145314Y-106624D02*
X145629Y-106624D01*
X145629Y-106497D01*
X145614Y-106465D01*
X145599Y-106449D01*
X145569Y-106433D01*
X145524Y-106433D01*
X145494Y-106449D01*
X145479Y-106465D01*
X145464Y-106497D01*
X145464Y-106624D01*
X145629Y-106337D02*
X145314Y-106226D01*
X145629Y-106114D01*
X145479Y-106003D02*
X145479Y-105891D01*
X145314Y-105843D02*
X145314Y-106003D01*
X145629Y-106003D01*
X145629Y-105843D01*
X145314Y-105700D02*
X145629Y-105700D01*
X145629Y-105620D01*
X145614Y-105572D01*
X145584Y-105540D01*
X145554Y-105525D01*
X145494Y-105509D01*
X145449Y-105509D01*
X145389Y-105525D01*
X145359Y-105540D01*
X145329Y-105572D01*
X145314Y-105620D01*
X145314Y-105700D01*
G54D12*
X119600Y-101800D03*
G54D13*
X119600Y-100800D03*
X120600Y-101800D03*
X120600Y-100800D03*
X121600Y-101800D03*
X121600Y-100800D03*
X122600Y-101800D03*
X122600Y-100800D03*
X123600Y-101800D03*
X123600Y-100800D03*
X124600Y-101800D03*
X124600Y-100800D03*
X125600Y-101800D03*
X125600Y-100800D03*
X126600Y-101800D03*
X126600Y-100800D03*
X127600Y-101800D03*
X127600Y-100800D03*
X128600Y-101800D03*
X128600Y-100800D03*
X138140Y-106480D03*
X142140Y-106480D03*
X130550Y-106750D03*
X130550Y-110750D03*
X136100Y-110970D03*
X136100Y-106970D03*
X137040Y-106975D03*
X137040Y-110975D03*
X138020Y-110960D03*
X142020Y-110960D03*
X142120Y-105320D03*
X138120Y-105320D03*
G54D14*
X131650Y-107700D03*
G54D15*
X131650Y-108700D03*
X131650Y-109700D03*
X134650Y-109700D03*
X134650Y-108700D03*
X134650Y-107700D03*
G54D16*
X139520Y-102030D03*
G54D17*
X139520Y-104030D03*
G54D16*
X139520Y-103030D03*
G54D18*
X133020Y-103030D03*
G54D15*
X141880Y-108780D03*
X139880Y-108780D03*
G54D19*
X124545Y-94440D03*
X119151Y-94440D03*
X124939Y-89125D03*
X118758Y-89125D03*
G54D15*
X141880Y-109740D03*
X139880Y-109740D03*
X141880Y-107640D03*
X139880Y-107640D03*
G54D20*
X146670Y-97740D03*
X147220Y-95390D03*
X146370Y-96390D03*
G54D21*
X145900Y-87550D03*
X144600Y-87550D03*
G54D22*
X143700Y-88900D03*
X143700Y-87600D03*
G54D21*
X145950Y-88900D03*
X144650Y-88900D03*
G54D23*
X138700Y-109054D03*
G54D24*
X138700Y-108266D03*
G54D25*
X142020Y-112040D03*
X138020Y-112040D03*
G54D26*
X143355Y-105690D03*
X149064Y-105690D03*
X143355Y-109520D03*
X149064Y-109520D03*
G54D16*
X137720Y-95600D03*
X138720Y-95600D03*
G54D17*
X139720Y-95600D03*
G54D27*
X147070Y-112276D03*
X143880Y-112246D03*
X148700Y-101056D03*
X146700Y-100006D03*
X148560Y-94682D03*
X148350Y-89143D03*
X148350Y-87300D03*
X132290Y-93166D03*
X132250Y-89206D03*
G54D28*
X145210Y-96230D03*
X145210Y-100230D03*
X144700Y-101700D03*
X140700Y-101700D03*
X144700Y-103100D03*
X140700Y-103100D03*
G54D27*
X131280Y-97006D03*
G54D12*
X123600Y-103210D03*
G54D13*
X122600Y-103210D03*
X121600Y-103210D03*
G54D29*
X142150Y-91500D03*
X148150Y-91500D03*
G54D30*
X132617Y-98895D03*
G54D31*
X132617Y-98226D03*
X133483Y-98226D03*
X133483Y-98974D03*
G54D32*
X132226Y-99850D03*
X132974Y-99850D03*
X127276Y-87150D03*
X128024Y-87150D03*
X127276Y-85950D03*
X128024Y-85950D03*
G54D33*
X147900Y-99500D03*
X147900Y-96500D03*
X148900Y-99500D03*
X148900Y-96500D03*
X146100Y-103300D03*
X149100Y-103300D03*
X146100Y-102400D03*
X149100Y-102400D03*
G54D34*
X132700Y-106926D03*
X132700Y-107674D03*
G54D35*
X133717Y-106924D03*
X133717Y-106176D03*
X134583Y-106550D03*
G54D23*
X132550Y-91444D03*
G54D24*
X132550Y-90656D03*
G54D36*
X133850Y-113300D03*
X133850Y-84950D03*
G54D27*
X131250Y-98856D03*
G54D12*
X119600Y-105750D03*
G54D13*
X119600Y-104750D03*
X120600Y-105750D03*
X120600Y-104750D03*
X121600Y-105750D03*
X121600Y-104750D03*
X122600Y-105750D03*
X122600Y-104750D03*
X123600Y-105750D03*
X123600Y-104750D03*
X124600Y-105750D03*
X124600Y-104750D03*
X125600Y-105750D03*
X125600Y-104750D03*
X126600Y-105750D03*
X126600Y-104750D03*
X127600Y-105750D03*
X127600Y-104750D03*
X128600Y-105750D03*
X128600Y-104750D03*
G54D12*
X119600Y-109700D03*
G54D13*
X119600Y-108700D03*
X120600Y-109700D03*
X120600Y-108700D03*
X121600Y-109700D03*
X121600Y-108700D03*
X122600Y-109700D03*
X122600Y-108700D03*
X123600Y-109700D03*
X123600Y-108700D03*
X124600Y-109700D03*
X124600Y-108700D03*
X125600Y-109700D03*
X125600Y-108700D03*
X126600Y-109700D03*
X126600Y-108700D03*
X127600Y-109700D03*
X127600Y-108700D03*
X128600Y-109700D03*
X128600Y-108700D03*
G54D27*
X144500Y-86006D03*
X146350Y-86006D03*
G54D37*
X130350Y-93000D03*
X130750Y-93000D03*
X130350Y-92600D03*
X130750Y-92600D03*
X133800Y-92250D03*
X134700Y-92250D03*
X134250Y-92750D03*
X133800Y-93250D03*
X134700Y-93250D03*
X134250Y-93750D03*
X133300Y-93750D03*
X133800Y-94200D03*
X134700Y-94200D03*
X134250Y-94200D03*
X133300Y-94200D03*
X133800Y-93750D03*
X134700Y-93750D03*
X134250Y-93250D03*
X133800Y-92750D03*
X134700Y-92750D03*
X134250Y-92250D03*
X133350Y-92250D03*
G54D38*
X123150Y-97200D03*
X124045Y-96030D03*
X128650Y-88150D03*
X124375Y-97365D03*
X123910Y-97790D03*
X122900Y-98000D03*
X124810Y-96040D03*
X128650Y-87650D03*
G54D37*
X119350Y-96800D03*
X127450Y-90400D03*
X129050Y-96150D03*
X129550Y-96150D03*
X139600Y-88150D03*
X139600Y-85450D03*
X139400Y-88700D03*
X135850Y-96900D03*
X135400Y-97300D03*
X135400Y-96900D03*
X133480Y-99775D03*
G54D38*
X125750Y-97900D03*
G54D37*
X137400Y-86300D03*
X137400Y-87850D03*
G54D38*
X126050Y-97550D03*
G54D37*
X131155Y-95680D03*
X127490Y-98235D03*
X140200Y-89550D03*
X122540Y-96565D03*
X125585Y-95130D03*
X140840Y-87420D03*
X141200Y-89555D03*
X140840Y-86770D03*
X140840Y-85885D03*
X142500Y-95100D03*
X136300Y-99700D03*
X136300Y-99300D03*
X136700Y-98500D03*
X136700Y-98900D03*
X136300Y-98900D03*
X136300Y-98500D03*
X142100Y-95100D03*
X141700Y-95100D03*
X141700Y-93200D03*
X141700Y-93600D03*
X142500Y-93600D03*
X142500Y-93200D03*
X142100Y-93200D03*
X134705Y-96795D03*
X126385Y-97925D03*
G54D38*
X123910Y-99395D03*
G54D37*
X128700Y-87150D03*
X128700Y-85950D03*
X142650Y-87000D03*
X142300Y-85450D03*
G54D39*
X130350Y-93000D02*
X130350Y-92600D01*
X130750Y-93000D02*
X130350Y-93000D01*
G54D40*
X120600Y-100800D02*
X119600Y-101800D01*
X120600Y-101800D02*
X119600Y-100800D01*
G54D41*
X119600Y-100800D02*
X119600Y-101800D01*
X120600Y-100800D02*
X119600Y-100800D01*
X120600Y-101800D02*
X120600Y-100800D01*
X119600Y-101800D02*
X120600Y-101800D01*
X119600Y-108700D02*
X119600Y-109700D01*
X119600Y-108700D02*
X119100Y-108700D01*
X119100Y-108700D02*
X118550Y-108150D01*
X118550Y-108150D02*
X118550Y-102850D01*
X118550Y-102850D02*
X119600Y-101800D01*
G54D39*
X133350Y-92250D02*
X133800Y-92250D01*
X134250Y-92250D02*
X134700Y-92250D01*
X134700Y-92750D02*
X134250Y-92750D01*
X133800Y-92750D02*
X133800Y-93250D01*
X134250Y-93250D02*
X134700Y-93250D01*
X134700Y-93750D02*
X134250Y-93750D01*
X133800Y-93750D02*
X133300Y-93750D01*
X133300Y-94200D02*
X133800Y-94200D01*
X134250Y-94200D02*
X134700Y-94200D01*
G54D42*
X132700Y-107674D02*
X131676Y-107674D01*
X131676Y-107674D02*
X131650Y-107700D01*
G54D39*
X121600Y-105750D02*
X122050Y-106200D01*
X122050Y-109250D02*
X121600Y-109700D01*
X122050Y-106200D02*
X122050Y-109250D01*
X120600Y-105750D02*
X121050Y-106200D01*
X121050Y-109250D02*
X120600Y-109700D01*
X121050Y-106200D02*
X121050Y-109250D01*
X124045Y-96030D02*
X124045Y-96805D01*
X123575Y-99775D02*
X124600Y-100800D01*
X123575Y-97275D02*
X123575Y-99775D01*
X124045Y-96805D02*
X123575Y-97275D01*
X127276Y-87150D02*
X127276Y-87526D01*
X128400Y-87900D02*
X128650Y-88150D01*
X127650Y-87900D02*
X128400Y-87900D01*
X127276Y-87526D02*
X127650Y-87900D01*
X124375Y-97365D02*
X124375Y-98280D01*
X126095Y-101295D02*
X126600Y-101800D01*
X126095Y-100000D02*
X126095Y-101295D01*
X124375Y-98280D02*
X126095Y-100000D01*
X123910Y-97790D02*
X123910Y-98725D01*
X125100Y-101300D02*
X125600Y-101800D01*
X125100Y-99915D02*
X125100Y-101300D01*
X123910Y-98725D02*
X125100Y-99915D01*
X127276Y-86376D02*
X127450Y-86550D01*
X127276Y-86376D02*
X127276Y-85950D01*
X129000Y-87650D02*
X128650Y-87650D01*
X129250Y-87400D02*
X129000Y-87650D01*
X129250Y-86800D02*
X129250Y-87400D01*
X129000Y-86550D02*
X129250Y-86800D01*
X127450Y-86550D02*
X129000Y-86550D01*
X127600Y-105750D02*
X128050Y-106200D01*
X128050Y-109250D02*
X127600Y-109700D01*
X128050Y-106200D02*
X128050Y-109250D01*
X126600Y-105750D02*
X127050Y-106200D01*
X127050Y-109250D02*
X126600Y-109700D01*
X127050Y-106200D02*
X127050Y-109250D01*
X125600Y-105750D02*
X126050Y-106200D01*
X126050Y-109250D02*
X125600Y-109700D01*
X126050Y-106200D02*
X126050Y-109250D01*
X124600Y-105750D02*
X125050Y-106200D01*
X125050Y-109250D02*
X124600Y-109700D01*
X125050Y-106200D02*
X125050Y-109250D01*
X123600Y-105750D02*
X124050Y-106200D01*
X124050Y-109250D02*
X123600Y-109700D01*
X124050Y-106200D02*
X124050Y-109250D01*
X122600Y-105750D02*
X123050Y-106200D01*
X123050Y-109250D02*
X122600Y-109700D01*
X123050Y-106200D02*
X123050Y-109250D01*
G54D40*
X148900Y-99500D02*
X148900Y-99900D01*
X148700Y-100100D02*
X148700Y-101056D01*
X148900Y-99900D02*
X148700Y-100100D01*
X148900Y-100856D02*
X148700Y-101056D01*
X149100Y-102400D02*
X149100Y-102350D01*
X148700Y-101950D02*
X148700Y-101056D01*
X149100Y-102350D02*
X148700Y-101950D01*
G54D43*
X148900Y-100856D02*
X148700Y-101056D01*
G54D42*
X148900Y-100856D02*
X148700Y-101056D01*
G54D40*
X147900Y-99500D02*
X147206Y-99500D01*
X147206Y-99500D02*
X146700Y-100006D01*
X149100Y-103300D02*
X148700Y-103300D01*
X148700Y-103300D02*
X146700Y-101300D01*
X146700Y-101300D02*
X146700Y-100006D01*
G54D43*
X147900Y-99500D02*
X147856Y-99500D01*
G54D42*
X145210Y-96230D02*
X145210Y-98090D01*
X143900Y-103100D02*
X144700Y-103100D01*
X143500Y-102700D02*
X143900Y-103100D01*
X143500Y-99800D02*
X143500Y-102700D01*
X145210Y-98090D02*
X143500Y-99800D01*
G54D44*
X146370Y-96390D02*
X145370Y-96390D01*
X145370Y-96390D02*
X145210Y-96230D01*
G54D42*
X127600Y-100400D02*
X127600Y-100800D01*
X120950Y-95500D02*
X119650Y-96800D01*
X125050Y-95500D02*
X120950Y-95500D01*
X125400Y-95850D02*
X125050Y-95500D01*
X125400Y-96800D02*
X125400Y-95850D01*
X125200Y-97000D02*
X125400Y-96800D01*
X125200Y-98000D02*
X125200Y-97000D01*
X127600Y-100400D02*
X125200Y-98000D01*
X119350Y-96800D02*
X119650Y-96800D01*
G54D41*
X135750Y-87850D02*
X136000Y-87850D01*
X128150Y-90050D02*
X130350Y-87850D01*
X130350Y-87850D02*
X135750Y-87850D01*
X139300Y-87100D02*
X139600Y-86800D01*
X136750Y-87100D02*
X139300Y-87100D01*
X136000Y-87850D02*
X136750Y-87100D01*
G54D43*
X139600Y-85450D02*
X139600Y-86800D01*
X139600Y-86800D02*
X139600Y-88150D01*
X139600Y-88150D02*
X139600Y-88500D01*
X139600Y-88500D02*
X139400Y-88700D01*
G54D42*
X134583Y-106550D02*
X134583Y-107017D01*
X134350Y-108700D02*
X134650Y-108700D01*
X133900Y-108250D02*
X134350Y-108700D01*
X133900Y-107700D02*
X133900Y-108250D01*
X134583Y-107017D02*
X133900Y-107700D01*
X132974Y-99850D02*
X133405Y-99850D01*
X133405Y-99850D02*
X133480Y-99775D01*
X133483Y-99517D02*
X133483Y-99772D01*
X133483Y-99772D02*
X133480Y-99775D01*
X133483Y-98974D02*
X133483Y-99517D01*
G54D40*
X144500Y-86006D02*
X144606Y-86006D01*
X145900Y-87300D02*
X145900Y-87550D01*
X144606Y-86006D02*
X145900Y-87300D01*
X144500Y-86006D02*
X144506Y-86006D01*
X145950Y-88900D02*
X146700Y-88900D01*
X146350Y-86400D02*
X146350Y-86006D01*
X146950Y-87000D02*
X146350Y-86400D01*
X146950Y-88650D02*
X146950Y-87000D01*
X146700Y-88900D02*
X146950Y-88650D01*
G54D39*
X130550Y-110750D02*
X135880Y-110750D01*
X135880Y-110750D02*
X136100Y-110970D01*
X142500Y-95100D02*
X142500Y-98400D01*
X137100Y-98500D02*
X136700Y-98900D01*
X142400Y-98500D02*
X137100Y-98500D01*
X142500Y-98400D02*
X142400Y-98500D01*
G54D42*
X140120Y-104030D02*
X142130Y-104030D01*
G54D44*
X139520Y-104030D02*
X140120Y-104030D01*
G54D42*
X146100Y-104200D02*
X146100Y-103300D01*
X145800Y-104500D02*
X146100Y-104200D01*
X145300Y-104500D02*
X145800Y-104500D01*
X142600Y-104500D02*
X145300Y-104500D01*
X142130Y-104030D02*
X142600Y-104500D01*
X132617Y-98895D02*
X131298Y-98895D01*
X131298Y-98895D02*
X131280Y-98876D01*
X132226Y-99850D02*
X132226Y-99822D01*
X132226Y-99822D02*
X131280Y-98876D01*
G54D45*
X131298Y-98895D02*
X131280Y-98876D01*
G54D39*
X131298Y-98895D02*
X131280Y-98876D01*
X131280Y-98876D02*
X131176Y-98876D01*
X136700Y-98900D02*
X136700Y-102400D01*
X136700Y-102400D02*
X138330Y-104030D01*
X138330Y-104030D02*
X139520Y-104030D01*
X136300Y-99700D02*
X136300Y-99300D01*
X136700Y-98500D02*
X136700Y-98900D01*
X136300Y-98900D02*
X136300Y-98500D01*
X141700Y-95100D02*
X142100Y-95100D01*
X141700Y-93600D02*
X141700Y-93200D01*
X142500Y-93200D02*
X142100Y-93200D01*
G54D44*
X143880Y-112246D02*
X142226Y-112246D01*
X142226Y-112246D02*
X142020Y-112040D01*
G54D39*
X139520Y-104030D02*
X139520Y-107280D01*
X139520Y-107280D02*
X139880Y-107640D01*
X138700Y-108266D02*
X137869Y-108266D01*
X137869Y-108266D02*
X136100Y-110035D01*
X136100Y-110035D02*
X136100Y-110970D01*
X138700Y-108266D02*
X139366Y-108266D01*
X139366Y-108266D02*
X139880Y-108780D01*
X139860Y-107660D02*
X139880Y-107640D01*
X139880Y-108780D02*
X140430Y-108780D01*
X140430Y-108780D02*
X140930Y-109280D01*
X140930Y-109280D02*
X140930Y-110950D01*
X140930Y-110950D02*
X142020Y-112040D01*
X139880Y-107640D02*
X139880Y-108780D01*
G54D45*
X134705Y-96795D02*
X134105Y-96795D01*
X133483Y-97417D02*
X133483Y-98226D01*
X134105Y-96795D02*
X133483Y-97417D01*
G54D44*
X128024Y-87150D02*
X128700Y-87150D01*
G54D46*
X131273Y-97000D02*
X131280Y-97006D01*
G54D42*
X131280Y-97006D02*
X131906Y-97006D01*
X132617Y-97717D02*
X132617Y-98226D01*
X131906Y-97006D02*
X132617Y-97717D01*
X133717Y-106924D02*
X132702Y-106924D01*
X132702Y-106924D02*
X132700Y-106926D01*
G54D44*
X128024Y-85950D02*
X128700Y-85950D01*
G54D42*
X133717Y-106176D02*
X133717Y-105983D01*
X136100Y-106500D02*
X136100Y-106970D01*
X135350Y-105750D02*
X136100Y-106500D01*
X133950Y-105750D02*
X135350Y-105750D01*
X133717Y-105983D02*
X133950Y-105750D01*
X130550Y-106750D02*
X130550Y-108100D01*
X131150Y-108700D02*
X131650Y-108700D01*
X130550Y-108100D02*
X131150Y-108700D01*
G54D41*
X143700Y-88900D02*
X144650Y-88900D01*
G54D44*
X142650Y-87000D02*
X142650Y-88450D01*
X143100Y-88900D02*
X143700Y-88900D01*
X142650Y-88450D02*
X143100Y-88900D01*
G54D41*
X143700Y-87600D02*
X144550Y-87600D01*
X144550Y-87600D02*
X144600Y-87550D01*
G54D44*
X142300Y-85450D02*
X143200Y-86350D01*
X143200Y-87100D02*
X143700Y-87600D01*
X143200Y-86350D02*
X143200Y-87100D01*
G54D10*
G36*
X132674Y-98945D02*
X132667Y-98945D01*
X132667Y-98952D01*
X132567Y-98952D01*
X132567Y-98945D01*
X132559Y-98945D01*
X132559Y-98845D01*
X132567Y-98845D01*
X132567Y-98837D01*
X132667Y-98837D01*
X132667Y-98845D01*
X132674Y-98845D01*
X132674Y-98945D01*
X132674Y-98945D01*
G37*
G54D47*
X132674Y-98945D02*
X132667Y-98945D01*
X132667Y-98952D01*
X132567Y-98952D01*
X132567Y-98945D01*
X132559Y-98945D01*
X132559Y-98845D01*
X132567Y-98845D01*
X132567Y-98837D01*
X132667Y-98837D01*
X132667Y-98845D01*
X132674Y-98845D01*
X132674Y-98945D01*
G54D10*
G36*
X135250Y-96548D02*
X135183Y-96575D01*
X135075Y-96683D01*
X135074Y-96687D01*
X135029Y-96578D01*
X134921Y-96470D01*
X134781Y-96412D01*
X134629Y-96412D01*
X134488Y-96470D01*
X134456Y-96502D01*
X134105Y-96502D01*
X134104Y-96502D01*
X133993Y-96524D01*
X133898Y-96588D01*
X133898Y-96588D01*
X133276Y-97210D01*
X133212Y-97305D01*
X133209Y-97323D01*
X133190Y-97417D01*
X133190Y-97417D01*
X133190Y-97821D01*
X133158Y-97821D01*
X133082Y-97853D01*
X133049Y-97886D01*
X133017Y-97853D01*
X132952Y-97826D01*
X132952Y-97717D01*
X132926Y-97588D01*
X132854Y-97479D01*
X132274Y-96900D01*
X132275Y-96809D01*
X132123Y-96443D01*
X131844Y-96163D01*
X131478Y-96011D01*
X131082Y-96011D01*
X130717Y-96162D01*
X130437Y-96442D01*
X130350Y-96651D01*
X130350Y-95300D01*
X135250Y-95300D01*
X135250Y-96548D01*
X135250Y-96548D01*
G37*
G54D47*
X135250Y-96548D02*
X135183Y-96575D01*
X135075Y-96683D01*
X135074Y-96687D01*
X135029Y-96578D01*
X134921Y-96470D01*
X134781Y-96412D01*
X134629Y-96412D01*
X134488Y-96470D01*
X134456Y-96502D01*
X134105Y-96502D01*
X134104Y-96502D01*
X133993Y-96524D01*
X133898Y-96588D01*
X133898Y-96588D01*
X133276Y-97210D01*
X133212Y-97305D01*
X133209Y-97323D01*
X133190Y-97417D01*
X133190Y-97417D01*
X133190Y-97821D01*
X133158Y-97821D01*
X133082Y-97853D01*
X133049Y-97886D01*
X133017Y-97853D01*
X132952Y-97826D01*
X132952Y-97717D01*
X132926Y-97588D01*
X132854Y-97479D01*
X132274Y-96900D01*
X132275Y-96809D01*
X132123Y-96443D01*
X131844Y-96163D01*
X131478Y-96011D01*
X131082Y-96011D01*
X130717Y-96162D01*
X130437Y-96442D01*
X130350Y-96651D01*
X130350Y-95300D01*
X135250Y-95300D01*
X135250Y-96548D01*
G54D10*
G36*
X135250Y-100850D02*
X132176Y-100850D01*
X132176Y-100332D01*
X132176Y-99900D01*
X131783Y-99900D01*
X131720Y-99962D01*
X131720Y-100095D01*
X131720Y-100194D01*
X131758Y-100286D01*
X131829Y-100357D01*
X131920Y-100395D01*
X132113Y-100395D01*
X132176Y-100332D01*
X132176Y-100850D01*
X130150Y-100850D01*
X130150Y-105620D01*
X130379Y-105850D01*
X131820Y-105850D01*
X132120Y-105550D01*
X133675Y-105550D01*
X133479Y-105745D01*
X133462Y-105771D01*
X133400Y-105771D01*
X133324Y-105803D01*
X133265Y-105861D01*
X133234Y-105938D01*
X133233Y-106020D01*
X133233Y-106413D01*
X133265Y-106489D01*
X133323Y-106548D01*
X133327Y-106549D01*
X133324Y-106551D01*
X133286Y-106588D01*
X133185Y-106588D01*
X133170Y-106553D01*
X133112Y-106494D01*
X133036Y-106463D01*
X132953Y-106462D01*
X132363Y-106462D01*
X132287Y-106494D01*
X132229Y-106552D01*
X132197Y-106629D01*
X132197Y-106711D01*
X132197Y-107222D01*
X132229Y-107298D01*
X132230Y-107299D01*
X132229Y-107300D01*
X132213Y-107338D01*
X132113Y-107338D01*
X132100Y-107307D01*
X132042Y-107249D01*
X131966Y-107217D01*
X131883Y-107217D01*
X131333Y-107217D01*
X131257Y-107249D01*
X131199Y-107307D01*
X131167Y-107383D01*
X131167Y-107466D01*
X131167Y-108016D01*
X131199Y-108092D01*
X131257Y-108150D01*
X131333Y-108182D01*
X131416Y-108182D01*
X131966Y-108182D01*
X132042Y-108150D01*
X132100Y-108092D01*
X132132Y-108016D01*
X132132Y-108009D01*
X132213Y-108009D01*
X132229Y-108046D01*
X132287Y-108105D01*
X132363Y-108136D01*
X132446Y-108137D01*
X133036Y-108137D01*
X133112Y-108105D01*
X133170Y-108047D01*
X133202Y-107970D01*
X133202Y-107888D01*
X133202Y-107377D01*
X133170Y-107301D01*
X133169Y-107300D01*
X133170Y-107299D01*
X133187Y-107259D01*
X133287Y-107259D01*
X133323Y-107296D01*
X133400Y-107327D01*
X133482Y-107328D01*
X133797Y-107328D01*
X133662Y-107462D01*
X133590Y-107571D01*
X133564Y-107700D01*
X133564Y-108250D01*
X133590Y-108378D01*
X133662Y-108487D01*
X134025Y-108850D01*
X133950Y-108850D01*
X133950Y-110730D01*
X133341Y-110729D01*
X132396Y-111120D01*
X132132Y-111383D01*
X132132Y-109604D01*
X132132Y-108604D01*
X132059Y-108427D01*
X131923Y-108291D01*
X131746Y-108217D01*
X131554Y-108217D01*
X131377Y-108290D01*
X131303Y-108364D01*
X131288Y-108364D01*
X130885Y-107961D01*
X130885Y-107132D01*
X130979Y-107037D01*
X131057Y-106851D01*
X131057Y-106649D01*
X130980Y-106462D01*
X130837Y-106320D01*
X130651Y-106242D01*
X130449Y-106242D01*
X130262Y-106319D01*
X130120Y-106462D01*
X130042Y-106648D01*
X130042Y-106850D01*
X130119Y-107037D01*
X130214Y-107132D01*
X130214Y-108100D01*
X130240Y-108228D01*
X130312Y-108337D01*
X130912Y-108937D01*
X131021Y-109009D01*
X131021Y-109009D01*
X131150Y-109035D01*
X131303Y-109035D01*
X131376Y-109108D01*
X131553Y-109182D01*
X131745Y-109182D01*
X131922Y-109109D01*
X132058Y-108973D01*
X132132Y-108796D01*
X132132Y-108604D01*
X132132Y-109604D01*
X132059Y-109427D01*
X131923Y-109291D01*
X131746Y-109217D01*
X131554Y-109217D01*
X131377Y-109290D01*
X131241Y-109426D01*
X131167Y-109603D01*
X131167Y-109795D01*
X131240Y-109972D01*
X131376Y-110108D01*
X131553Y-110182D01*
X131745Y-110182D01*
X131922Y-110109D01*
X132058Y-109973D01*
X132132Y-109796D01*
X132132Y-109604D01*
X132132Y-111383D01*
X131672Y-111842D01*
X131280Y-112786D01*
X131280Y-113087D01*
X131276Y-113084D01*
X131257Y-113065D01*
X131231Y-113054D01*
X131208Y-113039D01*
X131180Y-113033D01*
X131155Y-113022D01*
X131127Y-113022D01*
X131104Y-113018D01*
X131104Y-110831D01*
X131093Y-110613D01*
X131031Y-110462D01*
X130935Y-110434D01*
X130865Y-110505D01*
X130865Y-110364D01*
X130837Y-110268D01*
X130631Y-110195D01*
X130413Y-110206D01*
X130262Y-110268D01*
X130234Y-110364D01*
X130550Y-110679D01*
X130865Y-110364D01*
X130865Y-110505D01*
X130620Y-110750D01*
X130935Y-111065D01*
X131031Y-111037D01*
X131104Y-110831D01*
X131104Y-113018D01*
X131100Y-113017D01*
X130865Y-113017D01*
X130865Y-111135D01*
X130550Y-110820D01*
X130479Y-110891D01*
X130479Y-110750D01*
X130164Y-110434D01*
X130068Y-110462D01*
X129995Y-110668D01*
X130006Y-110886D01*
X130068Y-111037D01*
X130164Y-111065D01*
X130479Y-110750D01*
X130479Y-110891D01*
X130234Y-111135D01*
X130262Y-111231D01*
X130468Y-111304D01*
X130686Y-111293D01*
X130837Y-111231D01*
X130865Y-111135D01*
X130865Y-113017D01*
X129154Y-113017D01*
X129154Y-109781D01*
X129154Y-108781D01*
X129154Y-105831D01*
X129154Y-104831D01*
X129154Y-101881D01*
X129154Y-100881D01*
X129143Y-100663D01*
X129081Y-100512D01*
X128985Y-100484D01*
X128915Y-100555D01*
X128915Y-100414D01*
X128887Y-100318D01*
X128681Y-100245D01*
X128463Y-100256D01*
X128312Y-100318D01*
X128284Y-100414D01*
X128600Y-100729D01*
X128915Y-100414D01*
X128915Y-100555D01*
X128670Y-100800D01*
X128985Y-101115D01*
X129081Y-101087D01*
X129154Y-100881D01*
X129154Y-101881D01*
X129143Y-101663D01*
X129081Y-101512D01*
X128985Y-101484D01*
X128915Y-101555D01*
X128915Y-101414D01*
X128887Y-101318D01*
X128839Y-101301D01*
X128887Y-101281D01*
X128915Y-101185D01*
X128600Y-100870D01*
X128284Y-101185D01*
X128312Y-101281D01*
X128360Y-101298D01*
X128312Y-101318D01*
X128284Y-101414D01*
X128600Y-101729D01*
X128915Y-101414D01*
X128915Y-101555D01*
X128670Y-101800D01*
X128985Y-102115D01*
X129081Y-102087D01*
X129154Y-101881D01*
X129154Y-104831D01*
X129143Y-104613D01*
X129081Y-104462D01*
X128985Y-104434D01*
X128915Y-104505D01*
X128915Y-104364D01*
X128915Y-102185D01*
X128600Y-101870D01*
X128284Y-102185D01*
X128312Y-102281D01*
X128518Y-102354D01*
X128736Y-102343D01*
X128887Y-102281D01*
X128915Y-102185D01*
X128915Y-104364D01*
X128887Y-104268D01*
X128681Y-104195D01*
X128463Y-104206D01*
X128312Y-104268D01*
X128284Y-104364D01*
X128600Y-104679D01*
X128915Y-104364D01*
X128915Y-104505D01*
X128670Y-104750D01*
X128985Y-105065D01*
X129081Y-105037D01*
X129154Y-104831D01*
X129154Y-105831D01*
X129143Y-105613D01*
X129081Y-105462D01*
X128985Y-105434D01*
X128915Y-105505D01*
X128915Y-105364D01*
X128887Y-105268D01*
X128839Y-105251D01*
X128887Y-105231D01*
X128915Y-105135D01*
X128600Y-104820D01*
X128284Y-105135D01*
X128312Y-105231D01*
X128360Y-105248D01*
X128312Y-105268D01*
X128284Y-105364D01*
X128600Y-105679D01*
X128915Y-105364D01*
X128915Y-105505D01*
X128670Y-105750D01*
X128985Y-106065D01*
X129081Y-106037D01*
X129154Y-105831D01*
X129154Y-108781D01*
X129143Y-108563D01*
X129081Y-108412D01*
X128985Y-108384D01*
X128670Y-108700D01*
X128985Y-109015D01*
X129081Y-108987D01*
X129154Y-108781D01*
X129154Y-109781D01*
X129143Y-109563D01*
X129081Y-109412D01*
X128985Y-109384D01*
X128670Y-109700D01*
X128985Y-110015D01*
X129081Y-109987D01*
X129154Y-109781D01*
X129154Y-113017D01*
X128915Y-113017D01*
X128915Y-110085D01*
X128600Y-109770D01*
X128284Y-110085D01*
X128312Y-110181D01*
X128518Y-110254D01*
X128736Y-110243D01*
X128887Y-110181D01*
X128915Y-110085D01*
X128915Y-113017D01*
X118100Y-113017D01*
X118032Y-113017D01*
X118032Y-110400D01*
X120200Y-110400D01*
X120200Y-110017D01*
X120312Y-110129D01*
X120498Y-110207D01*
X120700Y-110207D01*
X120887Y-110130D01*
X121029Y-109987D01*
X121100Y-109819D01*
X121169Y-109987D01*
X121312Y-110129D01*
X121498Y-110207D01*
X121700Y-110207D01*
X121887Y-110130D01*
X122029Y-109987D01*
X122100Y-109819D01*
X122169Y-109987D01*
X122312Y-110129D01*
X122498Y-110207D01*
X122700Y-110207D01*
X122887Y-110130D01*
X123029Y-109987D01*
X123100Y-109819D01*
X123169Y-109987D01*
X123312Y-110129D01*
X123498Y-110207D01*
X123700Y-110207D01*
X123887Y-110130D01*
X124029Y-109987D01*
X124100Y-109819D01*
X124169Y-109987D01*
X124312Y-110129D01*
X124498Y-110207D01*
X124700Y-110207D01*
X124887Y-110130D01*
X125029Y-109987D01*
X125100Y-109819D01*
X125169Y-109987D01*
X125312Y-110129D01*
X125498Y-110207D01*
X125700Y-110207D01*
X125887Y-110130D01*
X126029Y-109987D01*
X126100Y-109819D01*
X126169Y-109987D01*
X126312Y-110129D01*
X126498Y-110207D01*
X126700Y-110207D01*
X126887Y-110130D01*
X127029Y-109987D01*
X127100Y-109819D01*
X127169Y-109987D01*
X127312Y-110129D01*
X127498Y-110207D01*
X127700Y-110207D01*
X127887Y-110130D01*
X128029Y-109987D01*
X128074Y-109880D01*
X128118Y-109987D01*
X128214Y-110015D01*
X128529Y-109700D01*
X128523Y-109694D01*
X128594Y-109623D01*
X128600Y-109629D01*
X128915Y-109314D01*
X128887Y-109218D01*
X128839Y-109201D01*
X128887Y-109181D01*
X128915Y-109085D01*
X128600Y-108770D01*
X128594Y-108776D01*
X128523Y-108705D01*
X128529Y-108700D01*
X128523Y-108694D01*
X128594Y-108623D01*
X128600Y-108629D01*
X128915Y-108314D01*
X128887Y-108218D01*
X128681Y-108145D01*
X128463Y-108156D01*
X128312Y-108218D01*
X128306Y-108237D01*
X128306Y-106212D01*
X128312Y-106231D01*
X128518Y-106304D01*
X128736Y-106293D01*
X128887Y-106231D01*
X128915Y-106135D01*
X128600Y-105820D01*
X128594Y-105826D01*
X128523Y-105755D01*
X128529Y-105750D01*
X128214Y-105434D01*
X128118Y-105462D01*
X128077Y-105577D01*
X128030Y-105462D01*
X127887Y-105320D01*
X127719Y-105249D01*
X127887Y-105180D01*
X128029Y-105037D01*
X128074Y-104930D01*
X128118Y-105037D01*
X128214Y-105065D01*
X128529Y-104750D01*
X128214Y-104434D01*
X128118Y-104462D01*
X128077Y-104577D01*
X128030Y-104462D01*
X127887Y-104320D01*
X127701Y-104242D01*
X127499Y-104242D01*
X127312Y-104319D01*
X127170Y-104462D01*
X127099Y-104630D01*
X127030Y-104462D01*
X126887Y-104320D01*
X126701Y-104242D01*
X126499Y-104242D01*
X126312Y-104319D01*
X126170Y-104462D01*
X126099Y-104630D01*
X126030Y-104462D01*
X125887Y-104320D01*
X125701Y-104242D01*
X125499Y-104242D01*
X125312Y-104319D01*
X125170Y-104462D01*
X125099Y-104630D01*
X125030Y-104462D01*
X124887Y-104320D01*
X124701Y-104242D01*
X124499Y-104242D01*
X124312Y-104319D01*
X124170Y-104462D01*
X124107Y-104612D01*
X124107Y-103468D01*
X124107Y-102868D01*
X124075Y-102792D01*
X124017Y-102734D01*
X123941Y-102702D01*
X123858Y-102702D01*
X123258Y-102702D01*
X123182Y-102734D01*
X123124Y-102792D01*
X123092Y-102868D01*
X123092Y-102951D01*
X123092Y-103072D01*
X123030Y-102922D01*
X122887Y-102780D01*
X122701Y-102702D01*
X122499Y-102702D01*
X122312Y-102779D01*
X122170Y-102922D01*
X122099Y-103090D01*
X122030Y-102922D01*
X121887Y-102780D01*
X121701Y-102702D01*
X121499Y-102702D01*
X121312Y-102779D01*
X121170Y-102922D01*
X121092Y-103108D01*
X121092Y-103310D01*
X121169Y-103497D01*
X121312Y-103639D01*
X121498Y-103717D01*
X121700Y-103717D01*
X121887Y-103640D01*
X122029Y-103497D01*
X122100Y-103329D01*
X122169Y-103497D01*
X122312Y-103639D01*
X122498Y-103717D01*
X122700Y-103717D01*
X122887Y-103640D01*
X123029Y-103497D01*
X123092Y-103347D01*
X123092Y-103551D01*
X123124Y-103627D01*
X123182Y-103685D01*
X123258Y-103717D01*
X123341Y-103717D01*
X123941Y-103717D01*
X124017Y-103685D01*
X124075Y-103627D01*
X124107Y-103551D01*
X124107Y-103468D01*
X124107Y-104612D01*
X124099Y-104630D01*
X124030Y-104462D01*
X123887Y-104320D01*
X123701Y-104242D01*
X123499Y-104242D01*
X123312Y-104319D01*
X123170Y-104462D01*
X123099Y-104630D01*
X123030Y-104462D01*
X122887Y-104320D01*
X122701Y-104242D01*
X122499Y-104242D01*
X122312Y-104319D01*
X122170Y-104462D01*
X122099Y-104630D01*
X122030Y-104462D01*
X121887Y-104320D01*
X121701Y-104242D01*
X121499Y-104242D01*
X121312Y-104319D01*
X121170Y-104462D01*
X121099Y-104630D01*
X121030Y-104462D01*
X120887Y-104320D01*
X120701Y-104242D01*
X120499Y-104242D01*
X120312Y-104319D01*
X120170Y-104462D01*
X120099Y-104630D01*
X120030Y-104462D01*
X119887Y-104320D01*
X119701Y-104242D01*
X119499Y-104242D01*
X119312Y-104319D01*
X119200Y-104432D01*
X119200Y-103600D01*
X119200Y-103120D01*
X119820Y-102500D01*
X121300Y-102500D01*
X121300Y-102217D01*
X121312Y-102229D01*
X121498Y-102307D01*
X121700Y-102307D01*
X121887Y-102230D01*
X122029Y-102087D01*
X122100Y-101919D01*
X122169Y-102087D01*
X122312Y-102229D01*
X122498Y-102307D01*
X122700Y-102307D01*
X122887Y-102230D01*
X123029Y-102087D01*
X123100Y-101919D01*
X123169Y-102087D01*
X123312Y-102229D01*
X123498Y-102307D01*
X123700Y-102307D01*
X123887Y-102230D01*
X124029Y-102087D01*
X124100Y-101919D01*
X124169Y-102087D01*
X124312Y-102229D01*
X124498Y-102307D01*
X124700Y-102307D01*
X124887Y-102230D01*
X125029Y-102087D01*
X125100Y-101919D01*
X125169Y-102087D01*
X125312Y-102229D01*
X125498Y-102307D01*
X125700Y-102307D01*
X125887Y-102230D01*
X126029Y-102087D01*
X126100Y-101919D01*
X126169Y-102087D01*
X126312Y-102229D01*
X126498Y-102307D01*
X126700Y-102307D01*
X126887Y-102230D01*
X127029Y-102087D01*
X127100Y-101919D01*
X127169Y-102087D01*
X127312Y-102229D01*
X127498Y-102307D01*
X127700Y-102307D01*
X127887Y-102230D01*
X128029Y-102087D01*
X128074Y-101980D01*
X128118Y-102087D01*
X128214Y-102115D01*
X128529Y-101800D01*
X128214Y-101484D01*
X128118Y-101512D01*
X128077Y-101627D01*
X128030Y-101512D01*
X127887Y-101370D01*
X127719Y-101300D01*
X128150Y-101300D01*
X128150Y-101096D01*
X128214Y-101115D01*
X128529Y-100800D01*
X128214Y-100484D01*
X128150Y-100503D01*
X128150Y-100229D01*
X126170Y-98250D01*
X126308Y-98307D01*
X126460Y-98307D01*
X126601Y-98249D01*
X126709Y-98141D01*
X126767Y-98001D01*
X126767Y-97850D01*
X127429Y-97850D01*
X127779Y-98200D01*
X130020Y-98200D01*
X130350Y-97870D01*
X130350Y-97360D01*
X130436Y-97569D01*
X130715Y-97849D01*
X130840Y-97901D01*
X130669Y-97972D01*
X130582Y-98118D01*
X131250Y-98785D01*
X131917Y-98118D01*
X131830Y-97972D01*
X131687Y-97914D01*
X131842Y-97850D01*
X132059Y-97633D01*
X132260Y-97835D01*
X132216Y-97853D01*
X132158Y-97911D01*
X132126Y-97988D01*
X132126Y-98070D01*
X132126Y-98271D01*
X131988Y-98188D01*
X131320Y-98856D01*
X131326Y-98861D01*
X131255Y-98932D01*
X131250Y-98927D01*
X131179Y-98997D01*
X131179Y-98856D01*
X130511Y-98188D01*
X130365Y-98275D01*
X130210Y-98658D01*
X130214Y-99070D01*
X130365Y-99436D01*
X130511Y-99523D01*
X131179Y-98856D01*
X131179Y-98997D01*
X130582Y-99594D01*
X130669Y-99740D01*
X131051Y-99895D01*
X131464Y-99892D01*
X131754Y-99771D01*
X131783Y-99800D01*
X132176Y-99800D01*
X132176Y-99792D01*
X132276Y-99792D01*
X132276Y-99800D01*
X132283Y-99800D01*
X132283Y-99900D01*
X132276Y-99900D01*
X132276Y-100332D01*
X132338Y-100395D01*
X132531Y-100395D01*
X132622Y-100357D01*
X132642Y-100337D01*
X132677Y-100352D01*
X132759Y-100352D01*
X133270Y-100352D01*
X133346Y-100320D01*
X133405Y-100262D01*
X133436Y-100186D01*
X133436Y-100179D01*
X133533Y-100159D01*
X133536Y-100157D01*
X133555Y-100157D01*
X133696Y-100099D01*
X133804Y-99991D01*
X133862Y-99851D01*
X133862Y-99699D01*
X133818Y-99592D01*
X133818Y-99517D01*
X133818Y-99373D01*
X133883Y-99346D01*
X133941Y-99288D01*
X133973Y-99211D01*
X133973Y-99129D01*
X133973Y-98736D01*
X133941Y-98660D01*
X133883Y-98601D01*
X133879Y-98600D01*
X133883Y-98598D01*
X133941Y-98540D01*
X133973Y-98463D01*
X133973Y-98381D01*
X133973Y-97988D01*
X133941Y-97912D01*
X133883Y-97853D01*
X133807Y-97822D01*
X133775Y-97822D01*
X133775Y-97538D01*
X134226Y-97087D01*
X134456Y-97087D01*
X134488Y-97119D01*
X134628Y-97177D01*
X134780Y-97177D01*
X134921Y-97119D01*
X135029Y-97011D01*
X135030Y-97007D01*
X135068Y-97100D01*
X135017Y-97223D01*
X135017Y-97375D01*
X135075Y-97516D01*
X135183Y-97624D01*
X135250Y-97651D01*
X135250Y-100850D01*
X135250Y-100850D01*
G37*
G54D47*
X135250Y-100850D02*
X132176Y-100850D01*
X132176Y-100332D01*
X132176Y-99900D01*
X131783Y-99900D01*
X131720Y-99962D01*
X131720Y-100095D01*
X131720Y-100194D01*
X131758Y-100286D01*
X131829Y-100357D01*
X131920Y-100395D01*
X132113Y-100395D01*
X132176Y-100332D01*
X132176Y-100850D01*
X130150Y-100850D01*
X130150Y-105620D01*
X130379Y-105850D01*
X131820Y-105850D01*
X132120Y-105550D01*
X133675Y-105550D01*
X133479Y-105745D01*
X133462Y-105771D01*
X133400Y-105771D01*
X133324Y-105803D01*
X133265Y-105861D01*
X133234Y-105938D01*
X133233Y-106020D01*
X133233Y-106413D01*
X133265Y-106489D01*
X133323Y-106548D01*
X133327Y-106549D01*
X133324Y-106551D01*
X133286Y-106588D01*
X133185Y-106588D01*
X133170Y-106553D01*
X133112Y-106494D01*
X133036Y-106463D01*
X132953Y-106462D01*
X132363Y-106462D01*
X132287Y-106494D01*
X132229Y-106552D01*
X132197Y-106629D01*
X132197Y-106711D01*
X132197Y-107222D01*
X132229Y-107298D01*
X132230Y-107299D01*
X132229Y-107300D01*
X132213Y-107338D01*
X132113Y-107338D01*
X132100Y-107307D01*
X132042Y-107249D01*
X131966Y-107217D01*
X131883Y-107217D01*
X131333Y-107217D01*
X131257Y-107249D01*
X131199Y-107307D01*
X131167Y-107383D01*
X131167Y-107466D01*
X131167Y-108016D01*
X131199Y-108092D01*
X131257Y-108150D01*
X131333Y-108182D01*
X131416Y-108182D01*
X131966Y-108182D01*
X132042Y-108150D01*
X132100Y-108092D01*
X132132Y-108016D01*
X132132Y-108009D01*
X132213Y-108009D01*
X132229Y-108046D01*
X132287Y-108105D01*
X132363Y-108136D01*
X132446Y-108137D01*
X133036Y-108137D01*
X133112Y-108105D01*
X133170Y-108047D01*
X133202Y-107970D01*
X133202Y-107888D01*
X133202Y-107377D01*
X133170Y-107301D01*
X133169Y-107300D01*
X133170Y-107299D01*
X133187Y-107259D01*
X133287Y-107259D01*
X133323Y-107296D01*
X133400Y-107327D01*
X133482Y-107328D01*
X133797Y-107328D01*
X133662Y-107462D01*
X133590Y-107571D01*
X133564Y-107700D01*
X133564Y-108250D01*
X133590Y-108378D01*
X133662Y-108487D01*
X134025Y-108850D01*
X133950Y-108850D01*
X133950Y-110730D01*
X133341Y-110729D01*
X132396Y-111120D01*
X132132Y-111383D01*
X132132Y-109604D01*
X132132Y-108604D01*
X132059Y-108427D01*
X131923Y-108291D01*
X131746Y-108217D01*
X131554Y-108217D01*
X131377Y-108290D01*
X131303Y-108364D01*
X131288Y-108364D01*
X130885Y-107961D01*
X130885Y-107132D01*
X130979Y-107037D01*
X131057Y-106851D01*
X131057Y-106649D01*
X130980Y-106462D01*
X130837Y-106320D01*
X130651Y-106242D01*
X130449Y-106242D01*
X130262Y-106319D01*
X130120Y-106462D01*
X130042Y-106648D01*
X130042Y-106850D01*
X130119Y-107037D01*
X130214Y-107132D01*
X130214Y-108100D01*
X130240Y-108228D01*
X130312Y-108337D01*
X130912Y-108937D01*
X131021Y-109009D01*
X131021Y-109009D01*
X131150Y-109035D01*
X131303Y-109035D01*
X131376Y-109108D01*
X131553Y-109182D01*
X131745Y-109182D01*
X131922Y-109109D01*
X132058Y-108973D01*
X132132Y-108796D01*
X132132Y-108604D01*
X132132Y-109604D01*
X132059Y-109427D01*
X131923Y-109291D01*
X131746Y-109217D01*
X131554Y-109217D01*
X131377Y-109290D01*
X131241Y-109426D01*
X131167Y-109603D01*
X131167Y-109795D01*
X131240Y-109972D01*
X131376Y-110108D01*
X131553Y-110182D01*
X131745Y-110182D01*
X131922Y-110109D01*
X132058Y-109973D01*
X132132Y-109796D01*
X132132Y-109604D01*
X132132Y-111383D01*
X131672Y-111842D01*
X131280Y-112786D01*
X131280Y-113087D01*
X131276Y-113084D01*
X131257Y-113065D01*
X131231Y-113054D01*
X131208Y-113039D01*
X131180Y-113033D01*
X131155Y-113022D01*
X131127Y-113022D01*
X131104Y-113018D01*
X131104Y-110831D01*
X131093Y-110613D01*
X131031Y-110462D01*
X130935Y-110434D01*
X130865Y-110505D01*
X130865Y-110364D01*
X130837Y-110268D01*
X130631Y-110195D01*
X130413Y-110206D01*
X130262Y-110268D01*
X130234Y-110364D01*
X130550Y-110679D01*
X130865Y-110364D01*
X130865Y-110505D01*
X130620Y-110750D01*
X130935Y-111065D01*
X131031Y-111037D01*
X131104Y-110831D01*
X131104Y-113018D01*
X131100Y-113017D01*
X130865Y-113017D01*
X130865Y-111135D01*
X130550Y-110820D01*
X130479Y-110891D01*
X130479Y-110750D01*
X130164Y-110434D01*
X130068Y-110462D01*
X129995Y-110668D01*
X130006Y-110886D01*
X130068Y-111037D01*
X130164Y-111065D01*
X130479Y-110750D01*
X130479Y-110891D01*
X130234Y-111135D01*
X130262Y-111231D01*
X130468Y-111304D01*
X130686Y-111293D01*
X130837Y-111231D01*
X130865Y-111135D01*
X130865Y-113017D01*
X129154Y-113017D01*
X129154Y-109781D01*
X129154Y-108781D01*
X129154Y-105831D01*
X129154Y-104831D01*
X129154Y-101881D01*
X129154Y-100881D01*
X129143Y-100663D01*
X129081Y-100512D01*
X128985Y-100484D01*
X128915Y-100555D01*
X128915Y-100414D01*
X128887Y-100318D01*
X128681Y-100245D01*
X128463Y-100256D01*
X128312Y-100318D01*
X128284Y-100414D01*
X128600Y-100729D01*
X128915Y-100414D01*
X128915Y-100555D01*
X128670Y-100800D01*
X128985Y-101115D01*
X129081Y-101087D01*
X129154Y-100881D01*
X129154Y-101881D01*
X129143Y-101663D01*
X129081Y-101512D01*
X128985Y-101484D01*
X128915Y-101555D01*
X128915Y-101414D01*
X128887Y-101318D01*
X128839Y-101301D01*
X128887Y-101281D01*
X128915Y-101185D01*
X128600Y-100870D01*
X128284Y-101185D01*
X128312Y-101281D01*
X128360Y-101298D01*
X128312Y-101318D01*
X128284Y-101414D01*
X128600Y-101729D01*
X128915Y-101414D01*
X128915Y-101555D01*
X128670Y-101800D01*
X128985Y-102115D01*
X129081Y-102087D01*
X129154Y-101881D01*
X129154Y-104831D01*
X129143Y-104613D01*
X129081Y-104462D01*
X128985Y-104434D01*
X128915Y-104505D01*
X128915Y-104364D01*
X128915Y-102185D01*
X128600Y-101870D01*
X128284Y-102185D01*
X128312Y-102281D01*
X128518Y-102354D01*
X128736Y-102343D01*
X128887Y-102281D01*
X128915Y-102185D01*
X128915Y-104364D01*
X128887Y-104268D01*
X128681Y-104195D01*
X128463Y-104206D01*
X128312Y-104268D01*
X128284Y-104364D01*
X128600Y-104679D01*
X128915Y-104364D01*
X128915Y-104505D01*
X128670Y-104750D01*
X128985Y-105065D01*
X129081Y-105037D01*
X129154Y-104831D01*
X129154Y-105831D01*
X129143Y-105613D01*
X129081Y-105462D01*
X128985Y-105434D01*
X128915Y-105505D01*
X128915Y-105364D01*
X128887Y-105268D01*
X128839Y-105251D01*
X128887Y-105231D01*
X128915Y-105135D01*
X128600Y-104820D01*
X128284Y-105135D01*
X128312Y-105231D01*
X128360Y-105248D01*
X128312Y-105268D01*
X128284Y-105364D01*
X128600Y-105679D01*
X128915Y-105364D01*
X128915Y-105505D01*
X128670Y-105750D01*
X128985Y-106065D01*
X129081Y-106037D01*
X129154Y-105831D01*
X129154Y-108781D01*
X129143Y-108563D01*
X129081Y-108412D01*
X128985Y-108384D01*
X128670Y-108700D01*
X128985Y-109015D01*
X129081Y-108987D01*
X129154Y-108781D01*
X129154Y-109781D01*
X129143Y-109563D01*
X129081Y-109412D01*
X128985Y-109384D01*
X128670Y-109700D01*
X128985Y-110015D01*
X129081Y-109987D01*
X129154Y-109781D01*
X129154Y-113017D01*
X128915Y-113017D01*
X128915Y-110085D01*
X128600Y-109770D01*
X128284Y-110085D01*
X128312Y-110181D01*
X128518Y-110254D01*
X128736Y-110243D01*
X128887Y-110181D01*
X128915Y-110085D01*
X128915Y-113017D01*
X118100Y-113017D01*
X118032Y-113017D01*
X118032Y-110400D01*
X120200Y-110400D01*
X120200Y-110017D01*
X120312Y-110129D01*
X120498Y-110207D01*
X120700Y-110207D01*
X120887Y-110130D01*
X121029Y-109987D01*
X121100Y-109819D01*
X121169Y-109987D01*
X121312Y-110129D01*
X121498Y-110207D01*
X121700Y-110207D01*
X121887Y-110130D01*
X122029Y-109987D01*
X122100Y-109819D01*
X122169Y-109987D01*
X122312Y-110129D01*
X122498Y-110207D01*
X122700Y-110207D01*
X122887Y-110130D01*
X123029Y-109987D01*
X123100Y-109819D01*
X123169Y-109987D01*
X123312Y-110129D01*
X123498Y-110207D01*
X123700Y-110207D01*
X123887Y-110130D01*
X124029Y-109987D01*
X124100Y-109819D01*
X124169Y-109987D01*
X124312Y-110129D01*
X124498Y-110207D01*
X124700Y-110207D01*
X124887Y-110130D01*
X125029Y-109987D01*
X125100Y-109819D01*
X125169Y-109987D01*
X125312Y-110129D01*
X125498Y-110207D01*
X125700Y-110207D01*
X125887Y-110130D01*
X126029Y-109987D01*
X126100Y-109819D01*
X126169Y-109987D01*
X126312Y-110129D01*
X126498Y-110207D01*
X126700Y-110207D01*
X126887Y-110130D01*
X127029Y-109987D01*
X127100Y-109819D01*
X127169Y-109987D01*
X127312Y-110129D01*
X127498Y-110207D01*
X127700Y-110207D01*
X127887Y-110130D01*
X128029Y-109987D01*
X128074Y-109880D01*
X128118Y-109987D01*
X128214Y-110015D01*
X128529Y-109700D01*
X128523Y-109694D01*
X128594Y-109623D01*
X128600Y-109629D01*
X128915Y-109314D01*
X128887Y-109218D01*
X128839Y-109201D01*
X128887Y-109181D01*
X128915Y-109085D01*
X128600Y-108770D01*
X128594Y-108776D01*
X128523Y-108705D01*
X128529Y-108700D01*
X128523Y-108694D01*
X128594Y-108623D01*
X128600Y-108629D01*
X128915Y-108314D01*
X128887Y-108218D01*
X128681Y-108145D01*
X128463Y-108156D01*
X128312Y-108218D01*
X128306Y-108237D01*
X128306Y-106212D01*
X128312Y-106231D01*
X128518Y-106304D01*
X128736Y-106293D01*
X128887Y-106231D01*
X128915Y-106135D01*
X128600Y-105820D01*
X128594Y-105826D01*
X128523Y-105755D01*
X128529Y-105750D01*
X128214Y-105434D01*
X128118Y-105462D01*
X128077Y-105577D01*
X128030Y-105462D01*
X127887Y-105320D01*
X127719Y-105249D01*
X127887Y-105180D01*
X128029Y-105037D01*
X128074Y-104930D01*
X128118Y-105037D01*
X128214Y-105065D01*
X128529Y-104750D01*
X128214Y-104434D01*
X128118Y-104462D01*
X128077Y-104577D01*
X128030Y-104462D01*
X127887Y-104320D01*
X127701Y-104242D01*
X127499Y-104242D01*
X127312Y-104319D01*
X127170Y-104462D01*
X127099Y-104630D01*
X127030Y-104462D01*
X126887Y-104320D01*
X126701Y-104242D01*
X126499Y-104242D01*
X126312Y-104319D01*
X126170Y-104462D01*
X126099Y-104630D01*
X126030Y-104462D01*
X125887Y-104320D01*
X125701Y-104242D01*
X125499Y-104242D01*
X125312Y-104319D01*
X125170Y-104462D01*
X125099Y-104630D01*
X125030Y-104462D01*
X124887Y-104320D01*
X124701Y-104242D01*
X124499Y-104242D01*
X124312Y-104319D01*
X124170Y-104462D01*
X124107Y-104612D01*
X124107Y-103468D01*
X124107Y-102868D01*
X124075Y-102792D01*
X124017Y-102734D01*
X123941Y-102702D01*
X123858Y-102702D01*
X123258Y-102702D01*
X123182Y-102734D01*
X123124Y-102792D01*
X123092Y-102868D01*
X123092Y-102951D01*
X123092Y-103072D01*
X123030Y-102922D01*
X122887Y-102780D01*
X122701Y-102702D01*
X122499Y-102702D01*
X122312Y-102779D01*
X122170Y-102922D01*
X122099Y-103090D01*
X122030Y-102922D01*
X121887Y-102780D01*
X121701Y-102702D01*
X121499Y-102702D01*
X121312Y-102779D01*
X121170Y-102922D01*
X121092Y-103108D01*
X121092Y-103310D01*
X121169Y-103497D01*
X121312Y-103639D01*
X121498Y-103717D01*
X121700Y-103717D01*
X121887Y-103640D01*
X122029Y-103497D01*
X122100Y-103329D01*
X122169Y-103497D01*
X122312Y-103639D01*
X122498Y-103717D01*
X122700Y-103717D01*
X122887Y-103640D01*
X123029Y-103497D01*
X123092Y-103347D01*
X123092Y-103551D01*
X123124Y-103627D01*
X123182Y-103685D01*
X123258Y-103717D01*
X123341Y-103717D01*
X123941Y-103717D01*
X124017Y-103685D01*
X124075Y-103627D01*
X124107Y-103551D01*
X124107Y-103468D01*
X124107Y-104612D01*
X124099Y-104630D01*
X124030Y-104462D01*
X123887Y-104320D01*
X123701Y-104242D01*
X123499Y-104242D01*
X123312Y-104319D01*
X123170Y-104462D01*
X123099Y-104630D01*
X123030Y-104462D01*
X122887Y-104320D01*
X122701Y-104242D01*
X122499Y-104242D01*
X122312Y-104319D01*
X122170Y-104462D01*
X122099Y-104630D01*
X122030Y-104462D01*
X121887Y-104320D01*
X121701Y-104242D01*
X121499Y-104242D01*
X121312Y-104319D01*
X121170Y-104462D01*
X121099Y-104630D01*
X121030Y-104462D01*
X120887Y-104320D01*
X120701Y-104242D01*
X120499Y-104242D01*
X120312Y-104319D01*
X120170Y-104462D01*
X120099Y-104630D01*
X120030Y-104462D01*
X119887Y-104320D01*
X119701Y-104242D01*
X119499Y-104242D01*
X119312Y-104319D01*
X119200Y-104432D01*
X119200Y-103600D01*
X119200Y-103120D01*
X119820Y-102500D01*
X121300Y-102500D01*
X121300Y-102217D01*
X121312Y-102229D01*
X121498Y-102307D01*
X121700Y-102307D01*
X121887Y-102230D01*
X122029Y-102087D01*
X122100Y-101919D01*
X122169Y-102087D01*
X122312Y-102229D01*
X122498Y-102307D01*
X122700Y-102307D01*
X122887Y-102230D01*
X123029Y-102087D01*
X123100Y-101919D01*
X123169Y-102087D01*
X123312Y-102229D01*
X123498Y-102307D01*
X123700Y-102307D01*
X123887Y-102230D01*
X124029Y-102087D01*
X124100Y-101919D01*
X124169Y-102087D01*
X124312Y-102229D01*
X124498Y-102307D01*
X124700Y-102307D01*
X124887Y-102230D01*
X125029Y-102087D01*
X125100Y-101919D01*
X125169Y-102087D01*
X125312Y-102229D01*
X125498Y-102307D01*
X125700Y-102307D01*
X125887Y-102230D01*
X126029Y-102087D01*
X126100Y-101919D01*
X126169Y-102087D01*
X126312Y-102229D01*
X126498Y-102307D01*
X126700Y-102307D01*
X126887Y-102230D01*
X127029Y-102087D01*
X127100Y-101919D01*
X127169Y-102087D01*
X127312Y-102229D01*
X127498Y-102307D01*
X127700Y-102307D01*
X127887Y-102230D01*
X128029Y-102087D01*
X128074Y-101980D01*
X128118Y-102087D01*
X128214Y-102115D01*
X128529Y-101800D01*
X128214Y-101484D01*
X128118Y-101512D01*
X128077Y-101627D01*
X128030Y-101512D01*
X127887Y-101370D01*
X127719Y-101300D01*
X128150Y-101300D01*
X128150Y-101096D01*
X128214Y-101115D01*
X128529Y-100800D01*
X128214Y-100484D01*
X128150Y-100503D01*
X128150Y-100229D01*
X126170Y-98250D01*
X126308Y-98307D01*
X126460Y-98307D01*
X126601Y-98249D01*
X126709Y-98141D01*
X126767Y-98001D01*
X126767Y-97850D01*
X127429Y-97850D01*
X127779Y-98200D01*
X130020Y-98200D01*
X130350Y-97870D01*
X130350Y-97360D01*
X130436Y-97569D01*
X130715Y-97849D01*
X130840Y-97901D01*
X130669Y-97972D01*
X130582Y-98118D01*
X131250Y-98785D01*
X131917Y-98118D01*
X131830Y-97972D01*
X131687Y-97914D01*
X131842Y-97850D01*
X132059Y-97633D01*
X132260Y-97835D01*
X132216Y-97853D01*
X132158Y-97911D01*
X132126Y-97988D01*
X132126Y-98070D01*
X132126Y-98271D01*
X131988Y-98188D01*
X131320Y-98856D01*
X131326Y-98861D01*
X131255Y-98932D01*
X131250Y-98927D01*
X131179Y-98997D01*
X131179Y-98856D01*
X130511Y-98188D01*
X130365Y-98275D01*
X130210Y-98658D01*
X130214Y-99070D01*
X130365Y-99436D01*
X130511Y-99523D01*
X131179Y-98856D01*
X131179Y-98997D01*
X130582Y-99594D01*
X130669Y-99740D01*
X131051Y-99895D01*
X131464Y-99892D01*
X131754Y-99771D01*
X131783Y-99800D01*
X132176Y-99800D01*
X132176Y-99792D01*
X132276Y-99792D01*
X132276Y-99800D01*
X132283Y-99800D01*
X132283Y-99900D01*
X132276Y-99900D01*
X132276Y-100332D01*
X132338Y-100395D01*
X132531Y-100395D01*
X132622Y-100357D01*
X132642Y-100337D01*
X132677Y-100352D01*
X132759Y-100352D01*
X133270Y-100352D01*
X133346Y-100320D01*
X133405Y-100262D01*
X133436Y-100186D01*
X133436Y-100179D01*
X133533Y-100159D01*
X133536Y-100157D01*
X133555Y-100157D01*
X133696Y-100099D01*
X133804Y-99991D01*
X133862Y-99851D01*
X133862Y-99699D01*
X133818Y-99592D01*
X133818Y-99517D01*
X133818Y-99373D01*
X133883Y-99346D01*
X133941Y-99288D01*
X133973Y-99211D01*
X133973Y-99129D01*
X133973Y-98736D01*
X133941Y-98660D01*
X133883Y-98601D01*
X133879Y-98600D01*
X133883Y-98598D01*
X133941Y-98540D01*
X133973Y-98463D01*
X133973Y-98381D01*
X133973Y-97988D01*
X133941Y-97912D01*
X133883Y-97853D01*
X133807Y-97822D01*
X133775Y-97822D01*
X133775Y-97538D01*
X134226Y-97087D01*
X134456Y-97087D01*
X134488Y-97119D01*
X134628Y-97177D01*
X134780Y-97177D01*
X134921Y-97119D01*
X135029Y-97011D01*
X135030Y-97007D01*
X135068Y-97100D01*
X135017Y-97223D01*
X135017Y-97375D01*
X135075Y-97516D01*
X135183Y-97624D01*
X135250Y-97651D01*
X135250Y-100850D01*
G54D10*
G36*
X146856Y-104682D02*
X146682Y-104856D01*
X146678Y-104856D01*
X146678Y-103380D01*
X146665Y-103152D01*
X146603Y-103003D01*
X146508Y-102971D01*
X146428Y-103052D01*
X146180Y-103300D01*
X146508Y-103628D01*
X146603Y-103596D01*
X146678Y-103380D01*
X146678Y-104856D01*
X146428Y-104856D01*
X142310Y-104856D01*
X142220Y-104819D01*
X142020Y-104819D01*
X141929Y-104856D01*
X141556Y-104856D01*
X141556Y-107243D01*
X141603Y-107243D01*
X141476Y-107370D01*
X141404Y-107544D01*
X141404Y-107734D01*
X141476Y-107909D01*
X141610Y-108043D01*
X141784Y-108115D01*
X141974Y-108115D01*
X142149Y-108043D01*
X142283Y-107909D01*
X142355Y-107735D01*
X142355Y-107545D01*
X142283Y-107370D01*
X142156Y-107243D01*
X142556Y-107243D01*
X142556Y-111443D01*
X143260Y-111443D01*
X143221Y-111507D01*
X143880Y-112166D01*
X144538Y-111507D01*
X144499Y-111443D01*
X144756Y-111443D01*
X144756Y-111671D01*
X144619Y-111587D01*
X143960Y-112246D01*
X144619Y-112905D01*
X144756Y-112820D01*
X144756Y-113024D01*
X144514Y-113024D01*
X144538Y-112985D01*
X143880Y-112326D01*
X143799Y-112406D01*
X143799Y-112246D01*
X143140Y-111587D01*
X142997Y-111675D01*
X142846Y-112056D01*
X142852Y-112466D01*
X142997Y-112817D01*
X143140Y-112905D01*
X143799Y-112246D01*
X143799Y-112406D01*
X143221Y-112985D01*
X143245Y-113024D01*
X142583Y-113024D01*
X142583Y-112117D01*
X142570Y-111895D01*
X142520Y-111775D01*
X142520Y-110860D01*
X142444Y-110676D01*
X142355Y-110587D01*
X142355Y-109645D01*
X142355Y-108685D01*
X142283Y-108510D01*
X142149Y-108376D01*
X141975Y-108304D01*
X141785Y-108304D01*
X141610Y-108376D01*
X141476Y-108510D01*
X141404Y-108684D01*
X141404Y-108874D01*
X141476Y-109049D01*
X141610Y-109183D01*
X141784Y-109255D01*
X141974Y-109255D01*
X142149Y-109183D01*
X142283Y-109049D01*
X142355Y-108875D01*
X142355Y-108685D01*
X142355Y-109645D01*
X142283Y-109470D01*
X142149Y-109336D01*
X141975Y-109264D01*
X141785Y-109264D01*
X141610Y-109336D01*
X141476Y-109470D01*
X141404Y-109644D01*
X141404Y-109834D01*
X141476Y-110009D01*
X141610Y-110143D01*
X141784Y-110215D01*
X141974Y-110215D01*
X142149Y-110143D01*
X142283Y-110009D01*
X142355Y-109835D01*
X142355Y-109645D01*
X142355Y-110587D01*
X142304Y-110535D01*
X142120Y-110459D01*
X141920Y-110459D01*
X141736Y-110535D01*
X141595Y-110675D01*
X141519Y-110859D01*
X141519Y-111059D01*
X141595Y-111243D01*
X141735Y-111384D01*
X141919Y-111460D01*
X142119Y-111460D01*
X142303Y-111384D01*
X142444Y-111244D01*
X142520Y-111060D01*
X142520Y-110860D01*
X142520Y-111775D01*
X142511Y-111752D01*
X142417Y-111722D01*
X142337Y-111802D01*
X142337Y-111642D01*
X142307Y-111548D01*
X142097Y-111476D01*
X141875Y-111489D01*
X141732Y-111548D01*
X141702Y-111642D01*
X142020Y-111959D01*
X142337Y-111642D01*
X142337Y-111802D01*
X142100Y-112040D01*
X142417Y-112357D01*
X142511Y-112327D01*
X142583Y-112117D01*
X142583Y-113024D01*
X142337Y-113024D01*
X142337Y-112437D01*
X142020Y-112120D01*
X141939Y-112200D01*
X141939Y-112040D01*
X141622Y-111722D01*
X141528Y-111752D01*
X141456Y-111962D01*
X141469Y-112184D01*
X141528Y-112327D01*
X141622Y-112357D01*
X141939Y-112040D01*
X141939Y-112200D01*
X141702Y-112437D01*
X141732Y-112531D01*
X141942Y-112603D01*
X142164Y-112590D01*
X142307Y-112531D01*
X142337Y-112437D01*
X142337Y-113024D01*
X141294Y-113024D01*
X141294Y-102982D01*
X141294Y-101582D01*
X141204Y-101363D01*
X141037Y-101196D01*
X140818Y-101105D01*
X140582Y-101105D01*
X140363Y-101195D01*
X140196Y-101362D01*
X140105Y-101581D01*
X140105Y-101817D01*
X140195Y-102036D01*
X140362Y-102203D01*
X140581Y-102294D01*
X140817Y-102294D01*
X141036Y-102204D01*
X141203Y-102037D01*
X141294Y-101818D01*
X141294Y-101582D01*
X141294Y-102982D01*
X141204Y-102763D01*
X141037Y-102596D01*
X140818Y-102505D01*
X140582Y-102505D01*
X140363Y-102595D01*
X140196Y-102762D01*
X140105Y-102981D01*
X140105Y-103217D01*
X140195Y-103436D01*
X140362Y-103603D01*
X140581Y-103694D01*
X140817Y-103694D01*
X141036Y-103604D01*
X141203Y-103437D01*
X141294Y-103218D01*
X141294Y-102982D01*
X141294Y-113024D01*
X140404Y-113024D01*
X140404Y-108847D01*
X140404Y-107707D01*
X140390Y-107501D01*
X140338Y-107377D01*
X140248Y-107351D01*
X140168Y-107432D01*
X140168Y-107271D01*
X140142Y-107181D01*
X140113Y-107171D01*
X140113Y-104331D01*
X140113Y-103728D01*
X140113Y-103631D01*
X140076Y-103541D01*
X140007Y-103473D01*
X139918Y-103436D01*
X139892Y-103436D01*
X139986Y-103342D01*
X140070Y-103140D01*
X140070Y-102920D01*
X139987Y-102718D01*
X139832Y-102563D01*
X139752Y-102530D01*
X139831Y-102497D01*
X139986Y-102342D01*
X140070Y-102140D01*
X140070Y-101920D01*
X139987Y-101718D01*
X139832Y-101563D01*
X139630Y-101479D01*
X139410Y-101479D01*
X139208Y-101562D01*
X139053Y-101717D01*
X138969Y-101919D01*
X138969Y-102139D01*
X139052Y-102341D01*
X139207Y-102496D01*
X139287Y-102529D01*
X139208Y-102562D01*
X139053Y-102717D01*
X138969Y-102919D01*
X138969Y-103139D01*
X139052Y-103341D01*
X139147Y-103436D01*
X139121Y-103436D01*
X139032Y-103473D01*
X138963Y-103541D01*
X138926Y-103631D01*
X138926Y-103728D01*
X138926Y-103912D01*
X138987Y-103973D01*
X139463Y-103973D01*
X139463Y-103965D01*
X139576Y-103965D01*
X139576Y-103973D01*
X140052Y-103973D01*
X140113Y-103912D01*
X140113Y-103728D01*
X140113Y-104331D01*
X140113Y-104147D01*
X140052Y-104086D01*
X139576Y-104086D01*
X139576Y-104562D01*
X139637Y-104623D01*
X139918Y-104623D01*
X140007Y-104586D01*
X140076Y-104518D01*
X140113Y-104428D01*
X140113Y-104331D01*
X140113Y-107171D01*
X139947Y-107115D01*
X139741Y-107129D01*
X139617Y-107181D01*
X139591Y-107271D01*
X139880Y-107559D01*
X140168Y-107271D01*
X140168Y-107432D01*
X139960Y-107640D01*
X140248Y-107928D01*
X140338Y-107902D01*
X140404Y-107707D01*
X140404Y-108847D01*
X140390Y-108641D01*
X140338Y-108517D01*
X140248Y-108491D01*
X140168Y-108572D01*
X140168Y-108411D01*
X140168Y-108008D01*
X139880Y-107720D01*
X139799Y-107800D01*
X139799Y-107640D01*
X139511Y-107351D01*
X139463Y-107365D01*
X139463Y-104562D01*
X139463Y-104086D01*
X138987Y-104086D01*
X138926Y-104147D01*
X138926Y-104331D01*
X138926Y-104428D01*
X138963Y-104518D01*
X139032Y-104586D01*
X139121Y-104623D01*
X139402Y-104623D01*
X139463Y-104562D01*
X139463Y-107365D01*
X139421Y-107377D01*
X139355Y-107572D01*
X139369Y-107778D01*
X139421Y-107902D01*
X139511Y-107928D01*
X139799Y-107640D01*
X139799Y-107800D01*
X139591Y-108008D01*
X139617Y-108098D01*
X139812Y-108164D01*
X140018Y-108150D01*
X140142Y-108098D01*
X140168Y-108008D01*
X140168Y-108411D01*
X140142Y-108321D01*
X139947Y-108255D01*
X139741Y-108269D01*
X139617Y-108321D01*
X139591Y-108411D01*
X139880Y-108699D01*
X140168Y-108411D01*
X140168Y-108572D01*
X139960Y-108780D01*
X140248Y-109068D01*
X140338Y-109042D01*
X140404Y-108847D01*
X140404Y-113024D01*
X140355Y-113024D01*
X140355Y-109645D01*
X140283Y-109470D01*
X140149Y-109336D01*
X140027Y-109286D01*
X140142Y-109238D01*
X140168Y-109148D01*
X139880Y-108860D01*
X139799Y-108940D01*
X139799Y-108780D01*
X139511Y-108491D01*
X139421Y-108517D01*
X139355Y-108712D01*
X139369Y-108918D01*
X139421Y-109042D01*
X139511Y-109068D01*
X139799Y-108780D01*
X139799Y-108940D01*
X139591Y-109148D01*
X139617Y-109238D01*
X139744Y-109281D01*
X139610Y-109336D01*
X139476Y-109470D01*
X139404Y-109644D01*
X139404Y-109834D01*
X139476Y-110009D01*
X139610Y-110143D01*
X139784Y-110215D01*
X139974Y-110215D01*
X140149Y-110143D01*
X140283Y-110009D01*
X140355Y-109835D01*
X140355Y-109645D01*
X140355Y-113024D01*
X139242Y-113024D01*
X139242Y-108337D01*
X139228Y-108124D01*
X139173Y-107991D01*
X139081Y-107964D01*
X139001Y-108044D01*
X139001Y-107884D01*
X138974Y-107792D01*
X138771Y-107723D01*
X138640Y-107731D01*
X138640Y-106380D01*
X138620Y-106332D01*
X138620Y-105220D01*
X138544Y-105036D01*
X138404Y-104895D01*
X138220Y-104819D01*
X138020Y-104819D01*
X137836Y-104895D01*
X137695Y-105035D01*
X137619Y-105219D01*
X137619Y-105419D01*
X137695Y-105603D01*
X137835Y-105744D01*
X138019Y-105820D01*
X138219Y-105820D01*
X138403Y-105744D01*
X138544Y-105604D01*
X138620Y-105420D01*
X138620Y-105220D01*
X138620Y-106332D01*
X138564Y-106196D01*
X138424Y-106055D01*
X138240Y-105979D01*
X138040Y-105979D01*
X137856Y-106055D01*
X137715Y-106195D01*
X137639Y-106379D01*
X137639Y-106579D01*
X137715Y-106763D01*
X137855Y-106904D01*
X138039Y-106980D01*
X138239Y-106980D01*
X138423Y-106904D01*
X138564Y-106764D01*
X138640Y-106580D01*
X138640Y-106380D01*
X138640Y-107731D01*
X138558Y-107737D01*
X138425Y-107792D01*
X138398Y-107884D01*
X138700Y-108185D01*
X139001Y-107884D01*
X139001Y-108044D01*
X138780Y-108266D01*
X138785Y-108271D01*
X138705Y-108351D01*
X138700Y-108346D01*
X138694Y-108351D01*
X138619Y-108277D01*
X138614Y-108271D01*
X138619Y-108266D01*
X138318Y-107964D01*
X138226Y-107991D01*
X138157Y-108194D01*
X138171Y-108407D01*
X138226Y-108540D01*
X138318Y-108567D01*
X138297Y-108588D01*
X138292Y-108590D01*
X138236Y-108646D01*
X138205Y-108720D01*
X138205Y-108800D01*
X138205Y-109387D01*
X138236Y-109461D01*
X138292Y-109517D01*
X138366Y-109548D01*
X138446Y-109548D01*
X139033Y-109548D01*
X139107Y-109517D01*
X139163Y-109461D01*
X139194Y-109387D01*
X139194Y-109307D01*
X139194Y-108720D01*
X139163Y-108646D01*
X139107Y-108590D01*
X139102Y-108588D01*
X139081Y-108567D01*
X139173Y-108540D01*
X139242Y-108337D01*
X139242Y-113024D01*
X139194Y-113024D01*
X138535Y-113024D01*
X138535Y-111937D01*
X138520Y-111901D01*
X138520Y-110860D01*
X138444Y-110676D01*
X138304Y-110535D01*
X138120Y-110459D01*
X137920Y-110459D01*
X137736Y-110535D01*
X137595Y-110675D01*
X137526Y-110841D01*
X137464Y-110691D01*
X137324Y-110550D01*
X137140Y-110474D01*
X136940Y-110474D01*
X136756Y-110550D01*
X136615Y-110690D01*
X136597Y-110735D01*
X136579Y-110691D01*
X136486Y-110663D01*
X136406Y-110743D01*
X136406Y-110583D01*
X136378Y-110490D01*
X136173Y-110420D01*
X135957Y-110434D01*
X135821Y-110490D01*
X135793Y-110583D01*
X136100Y-110889D01*
X136406Y-110583D01*
X136406Y-110743D01*
X136180Y-110970D01*
X136486Y-111276D01*
X136579Y-111248D01*
X136593Y-111205D01*
X136615Y-111258D01*
X136755Y-111399D01*
X136939Y-111475D01*
X137139Y-111475D01*
X137323Y-111399D01*
X137464Y-111259D01*
X137533Y-111093D01*
X137595Y-111243D01*
X137735Y-111384D01*
X137919Y-111460D01*
X138119Y-111460D01*
X138303Y-111384D01*
X138444Y-111244D01*
X138520Y-111060D01*
X138520Y-110860D01*
X138520Y-111901D01*
X138457Y-111748D01*
X138312Y-111602D01*
X138123Y-111524D01*
X137917Y-111524D01*
X137728Y-111602D01*
X137582Y-111747D01*
X137504Y-111936D01*
X137504Y-112142D01*
X137582Y-112331D01*
X137727Y-112477D01*
X137916Y-112555D01*
X138122Y-112555D01*
X138311Y-112477D01*
X138457Y-112332D01*
X138535Y-112143D01*
X138535Y-111937D01*
X138535Y-113024D01*
X136600Y-113024D01*
X136574Y-113029D01*
X136545Y-113029D01*
X136518Y-113040D01*
X136494Y-113045D01*
X136474Y-113058D01*
X136445Y-113070D01*
X136424Y-113092D01*
X136413Y-113099D01*
X136413Y-112792D01*
X136406Y-112775D01*
X136406Y-111356D01*
X136100Y-111050D01*
X136019Y-111130D01*
X136019Y-110970D01*
X135713Y-110663D01*
X135620Y-110691D01*
X135550Y-110896D01*
X135564Y-111112D01*
X135620Y-111248D01*
X135713Y-111276D01*
X136019Y-110970D01*
X136019Y-111130D01*
X135793Y-111356D01*
X135821Y-111449D01*
X136026Y-111519D01*
X136242Y-111505D01*
X136378Y-111449D01*
X136406Y-111356D01*
X136406Y-112775D01*
X136024Y-111850D01*
X135303Y-111128D01*
X135193Y-111082D01*
X135193Y-106267D01*
X135298Y-106163D01*
X135748Y-106613D01*
X135675Y-106685D01*
X135599Y-106869D01*
X135599Y-107069D01*
X135675Y-107253D01*
X135815Y-107394D01*
X135999Y-107470D01*
X136199Y-107470D01*
X136383Y-107394D01*
X136524Y-107254D01*
X136568Y-107146D01*
X136615Y-107258D01*
X136755Y-107399D01*
X136939Y-107475D01*
X137139Y-107475D01*
X137323Y-107399D01*
X137464Y-107259D01*
X137540Y-107075D01*
X137540Y-106875D01*
X137464Y-106691D01*
X137324Y-106550D01*
X137140Y-106474D01*
X136940Y-106474D01*
X136756Y-106550D01*
X136615Y-106690D01*
X136571Y-106798D01*
X136524Y-106686D01*
X136428Y-106590D01*
X136428Y-106500D01*
X136428Y-106499D01*
X136403Y-106374D01*
X136332Y-106267D01*
X136332Y-106267D01*
X135763Y-105698D01*
X136143Y-105317D01*
X136143Y-100882D01*
X135943Y-100682D01*
X135943Y-98243D01*
X140717Y-98243D01*
X141443Y-97517D01*
X141443Y-96800D01*
X141443Y-92943D01*
X143906Y-92943D01*
X143906Y-97482D01*
X142556Y-98832D01*
X142556Y-102800D01*
X142556Y-103717D01*
X142882Y-104043D01*
X145743Y-104043D01*
X145743Y-103736D01*
X145771Y-103708D01*
X145803Y-103803D01*
X146019Y-103878D01*
X146247Y-103865D01*
X146396Y-103803D01*
X146428Y-103708D01*
X146100Y-103380D01*
X146094Y-103385D01*
X146014Y-103305D01*
X146019Y-103300D01*
X146014Y-103294D01*
X146094Y-103214D01*
X146100Y-103219D01*
X146428Y-102891D01*
X146414Y-102850D01*
X146428Y-102808D01*
X146100Y-102480D01*
X146094Y-102485D01*
X146014Y-102405D01*
X146019Y-102400D01*
X146014Y-102394D01*
X146094Y-102314D01*
X146100Y-102319D01*
X146105Y-102314D01*
X146185Y-102394D01*
X146180Y-102400D01*
X146508Y-102728D01*
X146603Y-102696D01*
X146678Y-102480D01*
X146676Y-102437D01*
X146856Y-102617D01*
X146856Y-104682D01*
X146856Y-104682D01*
G37*
G54D48*
X146856Y-104682D02*
X146682Y-104856D01*
X146678Y-104856D01*
X146678Y-103380D01*
X146665Y-103152D01*
X146603Y-103003D01*
X146508Y-102971D01*
X146428Y-103052D01*
X146180Y-103300D01*
X146508Y-103628D01*
X146603Y-103596D01*
X146678Y-103380D01*
X146678Y-104856D01*
X146428Y-104856D01*
X142310Y-104856D01*
X142220Y-104819D01*
X142020Y-104819D01*
X141929Y-104856D01*
X141556Y-104856D01*
X141556Y-107243D01*
X141603Y-107243D01*
X141476Y-107370D01*
X141404Y-107544D01*
X141404Y-107734D01*
X141476Y-107909D01*
X141610Y-108043D01*
X141784Y-108115D01*
X141974Y-108115D01*
X142149Y-108043D01*
X142283Y-107909D01*
X142355Y-107735D01*
X142355Y-107545D01*
X142283Y-107370D01*
X142156Y-107243D01*
X142556Y-107243D01*
X142556Y-111443D01*
X143260Y-111443D01*
X143221Y-111507D01*
X143880Y-112166D01*
X144538Y-111507D01*
X144499Y-111443D01*
X144756Y-111443D01*
X144756Y-111671D01*
X144619Y-111587D01*
X143960Y-112246D01*
X144619Y-112905D01*
X144756Y-112820D01*
X144756Y-113024D01*
X144514Y-113024D01*
X144538Y-112985D01*
X143880Y-112326D01*
X143799Y-112406D01*
X143799Y-112246D01*
X143140Y-111587D01*
X142997Y-111675D01*
X142846Y-112056D01*
X142852Y-112466D01*
X142997Y-112817D01*
X143140Y-112905D01*
X143799Y-112246D01*
X143799Y-112406D01*
X143221Y-112985D01*
X143245Y-113024D01*
X142583Y-113024D01*
X142583Y-112117D01*
X142570Y-111895D01*
X142520Y-111775D01*
X142520Y-110860D01*
X142444Y-110676D01*
X142355Y-110587D01*
X142355Y-109645D01*
X142355Y-108685D01*
X142283Y-108510D01*
X142149Y-108376D01*
X141975Y-108304D01*
X141785Y-108304D01*
X141610Y-108376D01*
X141476Y-108510D01*
X141404Y-108684D01*
X141404Y-108874D01*
X141476Y-109049D01*
X141610Y-109183D01*
X141784Y-109255D01*
X141974Y-109255D01*
X142149Y-109183D01*
X142283Y-109049D01*
X142355Y-108875D01*
X142355Y-108685D01*
X142355Y-109645D01*
X142283Y-109470D01*
X142149Y-109336D01*
X141975Y-109264D01*
X141785Y-109264D01*
X141610Y-109336D01*
X141476Y-109470D01*
X141404Y-109644D01*
X141404Y-109834D01*
X141476Y-110009D01*
X141610Y-110143D01*
X141784Y-110215D01*
X141974Y-110215D01*
X142149Y-110143D01*
X142283Y-110009D01*
X142355Y-109835D01*
X142355Y-109645D01*
X142355Y-110587D01*
X142304Y-110535D01*
X142120Y-110459D01*
X141920Y-110459D01*
X141736Y-110535D01*
X141595Y-110675D01*
X141519Y-110859D01*
X141519Y-111059D01*
X141595Y-111243D01*
X141735Y-111384D01*
X141919Y-111460D01*
X142119Y-111460D01*
X142303Y-111384D01*
X142444Y-111244D01*
X142520Y-111060D01*
X142520Y-110860D01*
X142520Y-111775D01*
X142511Y-111752D01*
X142417Y-111722D01*
X142337Y-111802D01*
X142337Y-111642D01*
X142307Y-111548D01*
X142097Y-111476D01*
X141875Y-111489D01*
X141732Y-111548D01*
X141702Y-111642D01*
X142020Y-111959D01*
X142337Y-111642D01*
X142337Y-111802D01*
X142100Y-112040D01*
X142417Y-112357D01*
X142511Y-112327D01*
X142583Y-112117D01*
X142583Y-113024D01*
X142337Y-113024D01*
X142337Y-112437D01*
X142020Y-112120D01*
X141939Y-112200D01*
X141939Y-112040D01*
X141622Y-111722D01*
X141528Y-111752D01*
X141456Y-111962D01*
X141469Y-112184D01*
X141528Y-112327D01*
X141622Y-112357D01*
X141939Y-112040D01*
X141939Y-112200D01*
X141702Y-112437D01*
X141732Y-112531D01*
X141942Y-112603D01*
X142164Y-112590D01*
X142307Y-112531D01*
X142337Y-112437D01*
X142337Y-113024D01*
X141294Y-113024D01*
X141294Y-102982D01*
X141294Y-101582D01*
X141204Y-101363D01*
X141037Y-101196D01*
X140818Y-101105D01*
X140582Y-101105D01*
X140363Y-101195D01*
X140196Y-101362D01*
X140105Y-101581D01*
X140105Y-101817D01*
X140195Y-102036D01*
X140362Y-102203D01*
X140581Y-102294D01*
X140817Y-102294D01*
X141036Y-102204D01*
X141203Y-102037D01*
X141294Y-101818D01*
X141294Y-101582D01*
X141294Y-102982D01*
X141204Y-102763D01*
X141037Y-102596D01*
X140818Y-102505D01*
X140582Y-102505D01*
X140363Y-102595D01*
X140196Y-102762D01*
X140105Y-102981D01*
X140105Y-103217D01*
X140195Y-103436D01*
X140362Y-103603D01*
X140581Y-103694D01*
X140817Y-103694D01*
X141036Y-103604D01*
X141203Y-103437D01*
X141294Y-103218D01*
X141294Y-102982D01*
X141294Y-113024D01*
X140404Y-113024D01*
X140404Y-108847D01*
X140404Y-107707D01*
X140390Y-107501D01*
X140338Y-107377D01*
X140248Y-107351D01*
X140168Y-107432D01*
X140168Y-107271D01*
X140142Y-107181D01*
X140113Y-107171D01*
X140113Y-104331D01*
X140113Y-103728D01*
X140113Y-103631D01*
X140076Y-103541D01*
X140007Y-103473D01*
X139918Y-103436D01*
X139892Y-103436D01*
X139986Y-103342D01*
X140070Y-103140D01*
X140070Y-102920D01*
X139987Y-102718D01*
X139832Y-102563D01*
X139752Y-102530D01*
X139831Y-102497D01*
X139986Y-102342D01*
X140070Y-102140D01*
X140070Y-101920D01*
X139987Y-101718D01*
X139832Y-101563D01*
X139630Y-101479D01*
X139410Y-101479D01*
X139208Y-101562D01*
X139053Y-101717D01*
X138969Y-101919D01*
X138969Y-102139D01*
X139052Y-102341D01*
X139207Y-102496D01*
X139287Y-102529D01*
X139208Y-102562D01*
X139053Y-102717D01*
X138969Y-102919D01*
X138969Y-103139D01*
X139052Y-103341D01*
X139147Y-103436D01*
X139121Y-103436D01*
X139032Y-103473D01*
X138963Y-103541D01*
X138926Y-103631D01*
X138926Y-103728D01*
X138926Y-103912D01*
X138987Y-103973D01*
X139463Y-103973D01*
X139463Y-103965D01*
X139576Y-103965D01*
X139576Y-103973D01*
X140052Y-103973D01*
X140113Y-103912D01*
X140113Y-103728D01*
X140113Y-104331D01*
X140113Y-104147D01*
X140052Y-104086D01*
X139576Y-104086D01*
X139576Y-104562D01*
X139637Y-104623D01*
X139918Y-104623D01*
X140007Y-104586D01*
X140076Y-104518D01*
X140113Y-104428D01*
X140113Y-104331D01*
X140113Y-107171D01*
X139947Y-107115D01*
X139741Y-107129D01*
X139617Y-107181D01*
X139591Y-107271D01*
X139880Y-107559D01*
X140168Y-107271D01*
X140168Y-107432D01*
X139960Y-107640D01*
X140248Y-107928D01*
X140338Y-107902D01*
X140404Y-107707D01*
X140404Y-108847D01*
X140390Y-108641D01*
X140338Y-108517D01*
X140248Y-108491D01*
X140168Y-108572D01*
X140168Y-108411D01*
X140168Y-108008D01*
X139880Y-107720D01*
X139799Y-107800D01*
X139799Y-107640D01*
X139511Y-107351D01*
X139463Y-107365D01*
X139463Y-104562D01*
X139463Y-104086D01*
X138987Y-104086D01*
X138926Y-104147D01*
X138926Y-104331D01*
X138926Y-104428D01*
X138963Y-104518D01*
X139032Y-104586D01*
X139121Y-104623D01*
X139402Y-104623D01*
X139463Y-104562D01*
X139463Y-107365D01*
X139421Y-107377D01*
X139355Y-107572D01*
X139369Y-107778D01*
X139421Y-107902D01*
X139511Y-107928D01*
X139799Y-107640D01*
X139799Y-107800D01*
X139591Y-108008D01*
X139617Y-108098D01*
X139812Y-108164D01*
X140018Y-108150D01*
X140142Y-108098D01*
X140168Y-108008D01*
X140168Y-108411D01*
X140142Y-108321D01*
X139947Y-108255D01*
X139741Y-108269D01*
X139617Y-108321D01*
X139591Y-108411D01*
X139880Y-108699D01*
X140168Y-108411D01*
X140168Y-108572D01*
X139960Y-108780D01*
X140248Y-109068D01*
X140338Y-109042D01*
X140404Y-108847D01*
X140404Y-113024D01*
X140355Y-113024D01*
X140355Y-109645D01*
X140283Y-109470D01*
X140149Y-109336D01*
X140027Y-109286D01*
X140142Y-109238D01*
X140168Y-109148D01*
X139880Y-108860D01*
X139799Y-108940D01*
X139799Y-108780D01*
X139511Y-108491D01*
X139421Y-108517D01*
X139355Y-108712D01*
X139369Y-108918D01*
X139421Y-109042D01*
X139511Y-109068D01*
X139799Y-108780D01*
X139799Y-108940D01*
X139591Y-109148D01*
X139617Y-109238D01*
X139744Y-109281D01*
X139610Y-109336D01*
X139476Y-109470D01*
X139404Y-109644D01*
X139404Y-109834D01*
X139476Y-110009D01*
X139610Y-110143D01*
X139784Y-110215D01*
X139974Y-110215D01*
X140149Y-110143D01*
X140283Y-110009D01*
X140355Y-109835D01*
X140355Y-109645D01*
X140355Y-113024D01*
X139242Y-113024D01*
X139242Y-108337D01*
X139228Y-108124D01*
X139173Y-107991D01*
X139081Y-107964D01*
X139001Y-108044D01*
X139001Y-107884D01*
X138974Y-107792D01*
X138771Y-107723D01*
X138640Y-107731D01*
X138640Y-106380D01*
X138620Y-106332D01*
X138620Y-105220D01*
X138544Y-105036D01*
X138404Y-104895D01*
X138220Y-104819D01*
X138020Y-104819D01*
X137836Y-104895D01*
X137695Y-105035D01*
X137619Y-105219D01*
X137619Y-105419D01*
X137695Y-105603D01*
X137835Y-105744D01*
X138019Y-105820D01*
X138219Y-105820D01*
X138403Y-105744D01*
X138544Y-105604D01*
X138620Y-105420D01*
X138620Y-105220D01*
X138620Y-106332D01*
X138564Y-106196D01*
X138424Y-106055D01*
X138240Y-105979D01*
X138040Y-105979D01*
X137856Y-106055D01*
X137715Y-106195D01*
X137639Y-106379D01*
X137639Y-106579D01*
X137715Y-106763D01*
X137855Y-106904D01*
X138039Y-106980D01*
X138239Y-106980D01*
X138423Y-106904D01*
X138564Y-106764D01*
X138640Y-106580D01*
X138640Y-106380D01*
X138640Y-107731D01*
X138558Y-107737D01*
X138425Y-107792D01*
X138398Y-107884D01*
X138700Y-108185D01*
X139001Y-107884D01*
X139001Y-108044D01*
X138780Y-108266D01*
X138785Y-108271D01*
X138705Y-108351D01*
X138700Y-108346D01*
X138694Y-108351D01*
X138619Y-108277D01*
X138614Y-108271D01*
X138619Y-108266D01*
X138318Y-107964D01*
X138226Y-107991D01*
X138157Y-108194D01*
X138171Y-108407D01*
X138226Y-108540D01*
X138318Y-108567D01*
X138297Y-108588D01*
X138292Y-108590D01*
X138236Y-108646D01*
X138205Y-108720D01*
X138205Y-108800D01*
X138205Y-109387D01*
X138236Y-109461D01*
X138292Y-109517D01*
X138366Y-109548D01*
X138446Y-109548D01*
X139033Y-109548D01*
X139107Y-109517D01*
X139163Y-109461D01*
X139194Y-109387D01*
X139194Y-109307D01*
X139194Y-108720D01*
X139163Y-108646D01*
X139107Y-108590D01*
X139102Y-108588D01*
X139081Y-108567D01*
X139173Y-108540D01*
X139242Y-108337D01*
X139242Y-113024D01*
X139194Y-113024D01*
X138535Y-113024D01*
X138535Y-111937D01*
X138520Y-111901D01*
X138520Y-110860D01*
X138444Y-110676D01*
X138304Y-110535D01*
X138120Y-110459D01*
X137920Y-110459D01*
X137736Y-110535D01*
X137595Y-110675D01*
X137526Y-110841D01*
X137464Y-110691D01*
X137324Y-110550D01*
X137140Y-110474D01*
X136940Y-110474D01*
X136756Y-110550D01*
X136615Y-110690D01*
X136597Y-110735D01*
X136579Y-110691D01*
X136486Y-110663D01*
X136406Y-110743D01*
X136406Y-110583D01*
X136378Y-110490D01*
X136173Y-110420D01*
X135957Y-110434D01*
X135821Y-110490D01*
X135793Y-110583D01*
X136100Y-110889D01*
X136406Y-110583D01*
X136406Y-110743D01*
X136180Y-110970D01*
X136486Y-111276D01*
X136579Y-111248D01*
X136593Y-111205D01*
X136615Y-111258D01*
X136755Y-111399D01*
X136939Y-111475D01*
X137139Y-111475D01*
X137323Y-111399D01*
X137464Y-111259D01*
X137533Y-111093D01*
X137595Y-111243D01*
X137735Y-111384D01*
X137919Y-111460D01*
X138119Y-111460D01*
X138303Y-111384D01*
X138444Y-111244D01*
X138520Y-111060D01*
X138520Y-110860D01*
X138520Y-111901D01*
X138457Y-111748D01*
X138312Y-111602D01*
X138123Y-111524D01*
X137917Y-111524D01*
X137728Y-111602D01*
X137582Y-111747D01*
X137504Y-111936D01*
X137504Y-112142D01*
X137582Y-112331D01*
X137727Y-112477D01*
X137916Y-112555D01*
X138122Y-112555D01*
X138311Y-112477D01*
X138457Y-112332D01*
X138535Y-112143D01*
X138535Y-111937D01*
X138535Y-113024D01*
X136600Y-113024D01*
X136574Y-113029D01*
X136545Y-113029D01*
X136518Y-113040D01*
X136494Y-113045D01*
X136474Y-113058D01*
X136445Y-113070D01*
X136424Y-113092D01*
X136413Y-113099D01*
X136413Y-112792D01*
X136406Y-112775D01*
X136406Y-111356D01*
X136100Y-111050D01*
X136019Y-111130D01*
X136019Y-110970D01*
X135713Y-110663D01*
X135620Y-110691D01*
X135550Y-110896D01*
X135564Y-111112D01*
X135620Y-111248D01*
X135713Y-111276D01*
X136019Y-110970D01*
X136019Y-111130D01*
X135793Y-111356D01*
X135821Y-111449D01*
X136026Y-111519D01*
X136242Y-111505D01*
X136378Y-111449D01*
X136406Y-111356D01*
X136406Y-112775D01*
X136024Y-111850D01*
X135303Y-111128D01*
X135193Y-111082D01*
X135193Y-106267D01*
X135298Y-106163D01*
X135748Y-106613D01*
X135675Y-106685D01*
X135599Y-106869D01*
X135599Y-107069D01*
X135675Y-107253D01*
X135815Y-107394D01*
X135999Y-107470D01*
X136199Y-107470D01*
X136383Y-107394D01*
X136524Y-107254D01*
X136568Y-107146D01*
X136615Y-107258D01*
X136755Y-107399D01*
X136939Y-107475D01*
X137139Y-107475D01*
X137323Y-107399D01*
X137464Y-107259D01*
X137540Y-107075D01*
X137540Y-106875D01*
X137464Y-106691D01*
X137324Y-106550D01*
X137140Y-106474D01*
X136940Y-106474D01*
X136756Y-106550D01*
X136615Y-106690D01*
X136571Y-106798D01*
X136524Y-106686D01*
X136428Y-106590D01*
X136428Y-106500D01*
X136428Y-106499D01*
X136403Y-106374D01*
X136332Y-106267D01*
X136332Y-106267D01*
X135763Y-105698D01*
X136143Y-105317D01*
X136143Y-100882D01*
X135943Y-100682D01*
X135943Y-98243D01*
X140717Y-98243D01*
X141443Y-97517D01*
X141443Y-96800D01*
X141443Y-92943D01*
X143906Y-92943D01*
X143906Y-97482D01*
X142556Y-98832D01*
X142556Y-102800D01*
X142556Y-103717D01*
X142882Y-104043D01*
X145743Y-104043D01*
X145743Y-103736D01*
X145771Y-103708D01*
X145803Y-103803D01*
X146019Y-103878D01*
X146247Y-103865D01*
X146396Y-103803D01*
X146428Y-103708D01*
X146100Y-103380D01*
X146094Y-103385D01*
X146014Y-103305D01*
X146019Y-103300D01*
X146014Y-103294D01*
X146094Y-103214D01*
X146100Y-103219D01*
X146428Y-102891D01*
X146414Y-102850D01*
X146428Y-102808D01*
X146100Y-102480D01*
X146094Y-102485D01*
X146014Y-102405D01*
X146019Y-102400D01*
X146014Y-102394D01*
X146094Y-102314D01*
X146100Y-102319D01*
X146105Y-102314D01*
X146185Y-102394D01*
X146180Y-102400D01*
X146508Y-102728D01*
X146603Y-102696D01*
X146678Y-102480D01*
X146676Y-102437D01*
X146856Y-102617D01*
X146856Y-104682D01*
G54D10*
G36*
X146650Y-96675D02*
X146283Y-96950D01*
X145979Y-96950D01*
X145550Y-97379D01*
X145550Y-98279D01*
X143850Y-99979D01*
X143850Y-102620D01*
X143979Y-102750D01*
X144750Y-102750D01*
X144750Y-103450D01*
X143520Y-103450D01*
X143050Y-102979D01*
X143050Y-99570D01*
X144850Y-97770D01*
X144850Y-95750D01*
X145100Y-95750D01*
X146279Y-95750D01*
X146650Y-96120D01*
X146650Y-96675D01*
X146650Y-96675D01*
G37*
G54D47*
X146650Y-96675D02*
X146283Y-96950D01*
X145979Y-96950D01*
X145550Y-97379D01*
X145550Y-98279D01*
X143850Y-99979D01*
X143850Y-102620D01*
X143979Y-102750D01*
X144750Y-102750D01*
X144750Y-103450D01*
X143520Y-103450D01*
X143050Y-102979D01*
X143050Y-99570D01*
X144850Y-97770D01*
X144850Y-95750D01*
X145100Y-95750D01*
X146279Y-95750D01*
X146650Y-96120D01*
X146650Y-96675D01*
G54D10*
G36*
X134900Y-94450D02*
X131320Y-94450D01*
X130570Y-93700D01*
X129500Y-93700D01*
X129500Y-92400D01*
X130420Y-92400D01*
X130920Y-91900D01*
X131850Y-91900D01*
X134900Y-91900D01*
X134900Y-94450D01*
X134900Y-94450D01*
G37*
G54D47*
X134900Y-94450D02*
X131320Y-94450D01*
X130570Y-93700D01*
X129500Y-93700D01*
X129500Y-92400D01*
X130420Y-92400D01*
X130920Y-91900D01*
X131850Y-91900D01*
X134900Y-91900D01*
X134900Y-94450D01*
G54D10*
G36*
X149399Y-90400D02*
X140120Y-90400D01*
X138270Y-88550D01*
X137751Y-88550D01*
X137751Y-87780D01*
X137697Y-87651D01*
X137599Y-87552D01*
X137470Y-87499D01*
X137330Y-87498D01*
X137201Y-87552D01*
X137102Y-87650D01*
X137049Y-87779D01*
X137048Y-87919D01*
X137102Y-88048D01*
X137200Y-88147D01*
X137329Y-88200D01*
X137469Y-88201D01*
X137598Y-88147D01*
X137697Y-88049D01*
X137750Y-87920D01*
X137751Y-87780D01*
X137751Y-88550D01*
X136279Y-88550D01*
X134514Y-90314D01*
X133929Y-90900D01*
X133150Y-90900D01*
X131900Y-90900D01*
X131900Y-91150D01*
X129300Y-91150D01*
X129300Y-91600D01*
X127627Y-91600D01*
X129050Y-90727D01*
X129050Y-89677D01*
X130504Y-88222D01*
X135750Y-88222D01*
X136000Y-88222D01*
X136142Y-88194D01*
X136263Y-88113D01*
X136904Y-87472D01*
X139177Y-87472D01*
X139177Y-88150D01*
X139177Y-88325D01*
X139101Y-88401D01*
X139010Y-88538D01*
X138977Y-88700D01*
X139010Y-88861D01*
X139101Y-88998D01*
X139238Y-89089D01*
X139400Y-89122D01*
X139561Y-89089D01*
X139698Y-88998D01*
X139898Y-88798D01*
X139898Y-88798D01*
X139989Y-88661D01*
X140022Y-88500D01*
X140022Y-88500D01*
X140022Y-88150D01*
X140022Y-86800D01*
X140022Y-85450D01*
X139989Y-85288D01*
X139931Y-85200D01*
X142052Y-85200D01*
X142002Y-85250D01*
X141949Y-85379D01*
X141948Y-85519D01*
X142002Y-85648D01*
X142100Y-85747D01*
X142229Y-85800D01*
X142296Y-85800D01*
X142949Y-86453D01*
X142949Y-86805D01*
X142947Y-86801D01*
X142849Y-86702D01*
X142720Y-86649D01*
X142580Y-86648D01*
X142451Y-86702D01*
X142352Y-86800D01*
X142299Y-86929D01*
X142298Y-87069D01*
X142352Y-87198D01*
X142399Y-87245D01*
X142399Y-88450D01*
X142418Y-88545D01*
X142472Y-88627D01*
X142922Y-89077D01*
X143004Y-89131D01*
X143100Y-89150D01*
X143123Y-89150D01*
X143123Y-89234D01*
X143150Y-89299D01*
X143200Y-89349D01*
X143264Y-89375D01*
X143334Y-89376D01*
X144134Y-89376D01*
X144182Y-89356D01*
X144200Y-89399D01*
X144250Y-89449D01*
X144314Y-89475D01*
X144384Y-89476D01*
X144984Y-89476D01*
X145049Y-89449D01*
X145099Y-89399D01*
X145125Y-89335D01*
X145126Y-89265D01*
X145126Y-88465D01*
X145099Y-88400D01*
X145049Y-88350D01*
X144985Y-88324D01*
X144915Y-88323D01*
X144315Y-88323D01*
X144250Y-88350D01*
X144200Y-88400D01*
X144182Y-88443D01*
X144135Y-88424D01*
X144065Y-88423D01*
X143265Y-88423D01*
X143200Y-88450D01*
X143150Y-88500D01*
X143124Y-88564D01*
X143124Y-88569D01*
X142900Y-88346D01*
X142900Y-87245D01*
X142947Y-87199D01*
X142961Y-87163D01*
X142968Y-87195D01*
X143022Y-87277D01*
X143123Y-87378D01*
X143123Y-87934D01*
X143150Y-87999D01*
X143200Y-88049D01*
X143264Y-88075D01*
X143334Y-88076D01*
X144134Y-88076D01*
X144164Y-88063D01*
X144200Y-88099D01*
X144264Y-88125D01*
X144334Y-88126D01*
X144934Y-88126D01*
X144999Y-88099D01*
X145049Y-88049D01*
X145075Y-87985D01*
X145076Y-87915D01*
X145076Y-87115D01*
X145075Y-87114D01*
X145423Y-87462D01*
X145423Y-87984D01*
X145450Y-88049D01*
X145500Y-88099D01*
X145564Y-88125D01*
X145634Y-88126D01*
X146234Y-88126D01*
X146299Y-88099D01*
X146349Y-88049D01*
X146375Y-87985D01*
X146376Y-87915D01*
X146376Y-87115D01*
X146349Y-87050D01*
X146299Y-87000D01*
X146235Y-86974D01*
X146212Y-86974D01*
X146208Y-86969D01*
X146281Y-86969D01*
X146498Y-87187D01*
X146498Y-88448D01*
X146419Y-88448D01*
X146399Y-88400D01*
X146349Y-88350D01*
X146285Y-88324D01*
X146215Y-88323D01*
X145615Y-88323D01*
X145550Y-88350D01*
X145500Y-88400D01*
X145474Y-88464D01*
X145473Y-88534D01*
X145473Y-89334D01*
X145500Y-89399D01*
X145550Y-89449D01*
X145614Y-89475D01*
X145684Y-89476D01*
X146284Y-89476D01*
X146349Y-89449D01*
X146399Y-89399D01*
X146419Y-89351D01*
X146700Y-89351D01*
X146700Y-89351D01*
X146872Y-89317D01*
X147019Y-89219D01*
X147269Y-88969D01*
X147269Y-88969D01*
X147367Y-88822D01*
X147401Y-88650D01*
X147401Y-88650D01*
X147401Y-87527D01*
X147532Y-87845D01*
X147803Y-88116D01*
X148058Y-88221D01*
X147804Y-88326D01*
X147533Y-88597D01*
X147386Y-88951D01*
X147386Y-89334D01*
X147532Y-89688D01*
X147803Y-89959D01*
X148157Y-90106D01*
X148540Y-90107D01*
X148895Y-89960D01*
X149166Y-89690D01*
X149313Y-89336D01*
X149313Y-88952D01*
X149167Y-88598D01*
X148896Y-88327D01*
X148641Y-88221D01*
X148895Y-88117D01*
X149166Y-87846D01*
X149313Y-87492D01*
X149313Y-87109D01*
X149167Y-86754D01*
X148896Y-86483D01*
X148542Y-86336D01*
X148159Y-86336D01*
X147804Y-86482D01*
X147533Y-86753D01*
X147401Y-87071D01*
X147401Y-87000D01*
X147367Y-86827D01*
X147269Y-86680D01*
X147269Y-86680D01*
X147153Y-86565D01*
X147166Y-86552D01*
X147313Y-86198D01*
X147313Y-85815D01*
X147167Y-85461D01*
X146907Y-85200D01*
X147746Y-85200D01*
X149399Y-86853D01*
X149399Y-90400D01*
X149399Y-90400D01*
G37*
G54D47*
X149399Y-90400D02*
X140120Y-90400D01*
X138270Y-88550D01*
X137751Y-88550D01*
X137751Y-87780D01*
X137697Y-87651D01*
X137599Y-87552D01*
X137470Y-87499D01*
X137330Y-87498D01*
X137201Y-87552D01*
X137102Y-87650D01*
X137049Y-87779D01*
X137048Y-87919D01*
X137102Y-88048D01*
X137200Y-88147D01*
X137329Y-88200D01*
X137469Y-88201D01*
X137598Y-88147D01*
X137697Y-88049D01*
X137750Y-87920D01*
X137751Y-87780D01*
X137751Y-88550D01*
X136279Y-88550D01*
X134514Y-90314D01*
X133929Y-90900D01*
X133150Y-90900D01*
X131900Y-90900D01*
X131900Y-91150D01*
X129300Y-91150D01*
X129300Y-91600D01*
X127627Y-91600D01*
X129050Y-90727D01*
X129050Y-89677D01*
X130504Y-88222D01*
X135750Y-88222D01*
X136000Y-88222D01*
X136142Y-88194D01*
X136263Y-88113D01*
X136904Y-87472D01*
X139177Y-87472D01*
X139177Y-88150D01*
X139177Y-88325D01*
X139101Y-88401D01*
X139010Y-88538D01*
X138977Y-88700D01*
X139010Y-88861D01*
X139101Y-88998D01*
X139238Y-89089D01*
X139400Y-89122D01*
X139561Y-89089D01*
X139698Y-88998D01*
X139898Y-88798D01*
X139898Y-88798D01*
X139989Y-88661D01*
X140022Y-88500D01*
X140022Y-88500D01*
X140022Y-88150D01*
X140022Y-86800D01*
X140022Y-85450D01*
X139989Y-85288D01*
X139931Y-85200D01*
X142052Y-85200D01*
X142002Y-85250D01*
X141949Y-85379D01*
X141948Y-85519D01*
X142002Y-85648D01*
X142100Y-85747D01*
X142229Y-85800D01*
X142296Y-85800D01*
X142949Y-86453D01*
X142949Y-86805D01*
X142947Y-86801D01*
X142849Y-86702D01*
X142720Y-86649D01*
X142580Y-86648D01*
X142451Y-86702D01*
X142352Y-86800D01*
X142299Y-86929D01*
X142298Y-87069D01*
X142352Y-87198D01*
X142399Y-87245D01*
X142399Y-88450D01*
X142418Y-88545D01*
X142472Y-88627D01*
X142922Y-89077D01*
X143004Y-89131D01*
X143100Y-89150D01*
X143123Y-89150D01*
X143123Y-89234D01*
X143150Y-89299D01*
X143200Y-89349D01*
X143264Y-89375D01*
X143334Y-89376D01*
X144134Y-89376D01*
X144182Y-89356D01*
X144200Y-89399D01*
X144250Y-89449D01*
X144314Y-89475D01*
X144384Y-89476D01*
X144984Y-89476D01*
X145049Y-89449D01*
X145099Y-89399D01*
X145125Y-89335D01*
X145126Y-89265D01*
X145126Y-88465D01*
X145099Y-88400D01*
X145049Y-88350D01*
X144985Y-88324D01*
X144915Y-88323D01*
X144315Y-88323D01*
X144250Y-88350D01*
X144200Y-88400D01*
X144182Y-88443D01*
X144135Y-88424D01*
X144065Y-88423D01*
X143265Y-88423D01*
X143200Y-88450D01*
X143150Y-88500D01*
X143124Y-88564D01*
X143124Y-88569D01*
X142900Y-88346D01*
X142900Y-87245D01*
X142947Y-87199D01*
X142961Y-87163D01*
X142968Y-87195D01*
X143022Y-87277D01*
X143123Y-87378D01*
X143123Y-87934D01*
X143150Y-87999D01*
X143200Y-88049D01*
X143264Y-88075D01*
X143334Y-88076D01*
X144134Y-88076D01*
X144164Y-88063D01*
X144200Y-88099D01*
X144264Y-88125D01*
X144334Y-88126D01*
X144934Y-88126D01*
X144999Y-88099D01*
X145049Y-88049D01*
X145075Y-87985D01*
X145076Y-87915D01*
X145076Y-87115D01*
X145075Y-87114D01*
X145423Y-87462D01*
X145423Y-87984D01*
X145450Y-88049D01*
X145500Y-88099D01*
X145564Y-88125D01*
X145634Y-88126D01*
X146234Y-88126D01*
X146299Y-88099D01*
X146349Y-88049D01*
X146375Y-87985D01*
X146376Y-87915D01*
X146376Y-87115D01*
X146349Y-87050D01*
X146299Y-87000D01*
X146235Y-86974D01*
X146212Y-86974D01*
X146208Y-86969D01*
X146281Y-86969D01*
X146498Y-87187D01*
X146498Y-88448D01*
X146419Y-88448D01*
X146399Y-88400D01*
X146349Y-88350D01*
X146285Y-88324D01*
X146215Y-88323D01*
X145615Y-88323D01*
X145550Y-88350D01*
X145500Y-88400D01*
X145474Y-88464D01*
X145473Y-88534D01*
X145473Y-89334D01*
X145500Y-89399D01*
X145550Y-89449D01*
X145614Y-89475D01*
X145684Y-89476D01*
X146284Y-89476D01*
X146349Y-89449D01*
X146399Y-89399D01*
X146419Y-89351D01*
X146700Y-89351D01*
X146700Y-89351D01*
X146872Y-89317D01*
X147019Y-89219D01*
X147269Y-88969D01*
X147269Y-88969D01*
X147367Y-88822D01*
X147401Y-88650D01*
X147401Y-88650D01*
X147401Y-87527D01*
X147532Y-87845D01*
X147803Y-88116D01*
X148058Y-88221D01*
X147804Y-88326D01*
X147533Y-88597D01*
X147386Y-88951D01*
X147386Y-89334D01*
X147532Y-89688D01*
X147803Y-89959D01*
X148157Y-90106D01*
X148540Y-90107D01*
X148895Y-89960D01*
X149166Y-89690D01*
X149313Y-89336D01*
X149313Y-88952D01*
X149167Y-88598D01*
X148896Y-88327D01*
X148641Y-88221D01*
X148895Y-88117D01*
X149166Y-87846D01*
X149313Y-87492D01*
X149313Y-87109D01*
X149167Y-86754D01*
X148896Y-86483D01*
X148542Y-86336D01*
X148159Y-86336D01*
X147804Y-86482D01*
X147533Y-86753D01*
X147401Y-87071D01*
X147401Y-87000D01*
X147367Y-86827D01*
X147269Y-86680D01*
X147269Y-86680D01*
X147153Y-86565D01*
X147166Y-86552D01*
X147313Y-86198D01*
X147313Y-85815D01*
X147167Y-85461D01*
X146907Y-85200D01*
X147746Y-85200D01*
X149399Y-86853D01*
X149399Y-90400D01*
G54D10*
G36*
X128700Y-90429D02*
X128529Y-90600D01*
X127320Y-90600D01*
X127150Y-90429D01*
X127150Y-89270D01*
X127320Y-89100D01*
X128700Y-89100D01*
X128700Y-90429D01*
X128700Y-90429D01*
G37*
G54D47*
X128700Y-90429D02*
X128529Y-90600D01*
X127320Y-90600D01*
X127150Y-90429D01*
X127150Y-89270D01*
X127320Y-89100D01*
X128700Y-89100D01*
X128700Y-90429D01*
M02*
