G04 (created by PCBNEW (2013-07-07 BZR 4022)-stable) date 1/23/2016 5:45:45 PM*
%MOIN*%
G04 Gerber Fmt 3.4, Leading zero omitted, Abs format*
%FSLAX34Y34*%
G01*
G70*
G90*
G04 APERTURE LIST*
%ADD10C,0.00590551*%
%ADD11C,0.00787402*%
%ADD12R,0.06X0.06*%
%ADD13C,0.06*%
%ADD14R,0.055X0.055*%
%ADD15C,0.055*%
%ADD16C,0.063*%
%ADD17C,0.052*%
%ADD18C,0.0984*%
%ADD19R,0.0587X0.0587*%
%ADD20C,0.0587*%
%ADD21C,0.0984252*%
%ADD22C,0.035*%
%ADD23C,0.019685*%
%ADD24C,0.0629921*%
%ADD25C,0.017*%
%ADD26C,0.00984252*%
%ADD27C,0.0295276*%
%ADD28C,0.0393701*%
%ADD29C,0.0255906*%
%ADD30C,0.0149606*%
%ADD31C,0.00866142*%
G04 APERTURE END LIST*
G54D10*
G54D11*
X139068Y-101239D02*
X139068Y-100648D01*
X138910Y-101070D01*
X138753Y-100648D01*
X138753Y-101239D01*
X138550Y-101070D02*
X138325Y-101070D01*
X138595Y-101239D02*
X138438Y-100648D01*
X138280Y-101239D01*
X137853Y-101182D02*
X137875Y-101210D01*
X137943Y-101239D01*
X137988Y-101239D01*
X138055Y-101210D01*
X138100Y-101154D01*
X138123Y-101098D01*
X138145Y-100985D01*
X138145Y-100901D01*
X138123Y-100789D01*
X138100Y-100732D01*
X138055Y-100676D01*
X137988Y-100648D01*
X137943Y-100648D01*
X137875Y-100676D01*
X137853Y-100704D01*
X137650Y-101014D02*
X137291Y-101014D01*
X136818Y-101239D02*
X137088Y-101239D01*
X136953Y-101239D02*
X136953Y-100648D01*
X136998Y-100732D01*
X137043Y-100789D01*
X137088Y-100817D01*
X136526Y-100648D02*
X136481Y-100648D01*
X136436Y-100676D01*
X136413Y-100704D01*
X136391Y-100760D01*
X136368Y-100873D01*
X136368Y-101014D01*
X136391Y-101126D01*
X136413Y-101182D01*
X136436Y-101210D01*
X136481Y-101239D01*
X136526Y-101239D01*
X136571Y-101210D01*
X136593Y-101182D01*
X136616Y-101126D01*
X136638Y-101014D01*
X136638Y-100873D01*
X136616Y-100760D01*
X136593Y-100704D01*
X136571Y-100676D01*
X136526Y-100648D01*
X136166Y-101182D02*
X136143Y-101210D01*
X136166Y-101239D01*
X136188Y-101210D01*
X136166Y-101182D01*
X136166Y-101239D01*
X135851Y-100648D02*
X135806Y-100648D01*
X135761Y-100676D01*
X135738Y-100704D01*
X135716Y-100760D01*
X135693Y-100873D01*
X135693Y-101014D01*
X135716Y-101126D01*
X135738Y-101182D01*
X135761Y-101210D01*
X135806Y-101239D01*
X135851Y-101239D01*
X135896Y-101210D01*
X135918Y-101182D01*
X135941Y-101126D01*
X135963Y-101014D01*
X135963Y-100873D01*
X135941Y-100760D01*
X135918Y-100704D01*
X135896Y-100676D01*
X135851Y-100648D01*
X135198Y-100648D02*
X134928Y-100648D01*
X135063Y-101239D02*
X135063Y-100648D01*
X134591Y-101210D02*
X134636Y-101239D01*
X134726Y-101239D01*
X134771Y-101210D01*
X134793Y-101154D01*
X134793Y-100929D01*
X134771Y-100873D01*
X134726Y-100845D01*
X134636Y-100845D01*
X134591Y-100873D01*
X134568Y-100929D01*
X134568Y-100985D01*
X134793Y-101042D01*
X134388Y-101210D02*
X134343Y-101239D01*
X134253Y-101239D01*
X134208Y-101210D01*
X134186Y-101154D01*
X134186Y-101126D01*
X134208Y-101070D01*
X134253Y-101042D01*
X134321Y-101042D01*
X134366Y-101014D01*
X134388Y-100957D01*
X134388Y-100929D01*
X134366Y-100873D01*
X134321Y-100845D01*
X134253Y-100845D01*
X134208Y-100873D01*
X134051Y-100845D02*
X133871Y-100845D01*
X133983Y-100648D02*
X133983Y-101154D01*
X133961Y-101210D01*
X133916Y-101239D01*
X133871Y-101239D01*
X133196Y-100929D02*
X133129Y-100957D01*
X133106Y-100985D01*
X133084Y-101042D01*
X133084Y-101126D01*
X133106Y-101182D01*
X133129Y-101210D01*
X133174Y-101239D01*
X133353Y-101239D01*
X133353Y-100648D01*
X133196Y-100648D01*
X133151Y-100676D01*
X133129Y-100704D01*
X133106Y-100760D01*
X133106Y-100817D01*
X133129Y-100873D01*
X133151Y-100901D01*
X133196Y-100929D01*
X133353Y-100929D01*
X132814Y-101239D02*
X132859Y-101210D01*
X132881Y-101182D01*
X132904Y-101126D01*
X132904Y-100957D01*
X132881Y-100901D01*
X132859Y-100873D01*
X132814Y-100845D01*
X132746Y-100845D01*
X132701Y-100873D01*
X132679Y-100901D01*
X132656Y-100957D01*
X132656Y-101126D01*
X132679Y-101182D01*
X132701Y-101210D01*
X132746Y-101239D01*
X132814Y-101239D01*
X132251Y-101239D02*
X132251Y-100929D01*
X132274Y-100873D01*
X132319Y-100845D01*
X132409Y-100845D01*
X132454Y-100873D01*
X132251Y-101210D02*
X132296Y-101239D01*
X132409Y-101239D01*
X132454Y-101210D01*
X132476Y-101154D01*
X132476Y-101098D01*
X132454Y-101042D01*
X132409Y-101014D01*
X132296Y-101014D01*
X132251Y-100985D01*
X132026Y-101239D02*
X132026Y-100845D01*
X132026Y-100957D02*
X132004Y-100901D01*
X131981Y-100873D01*
X131936Y-100845D01*
X131891Y-100845D01*
X131531Y-101239D02*
X131531Y-100648D01*
X131531Y-101210D02*
X131576Y-101239D01*
X131666Y-101239D01*
X131711Y-101210D01*
X131734Y-101182D01*
X131756Y-101126D01*
X131756Y-100957D01*
X131734Y-100901D01*
X131711Y-100873D01*
X131666Y-100845D01*
X131576Y-100845D01*
X131531Y-100873D01*
X136019Y-101553D02*
X135862Y-102144D01*
X135704Y-101553D01*
X135300Y-102144D02*
X135569Y-102144D01*
X135434Y-102144D02*
X135434Y-101553D01*
X135479Y-101638D01*
X135524Y-101694D01*
X135569Y-101722D01*
X135097Y-102088D02*
X135075Y-102116D01*
X135097Y-102144D01*
X135120Y-102116D01*
X135097Y-102088D01*
X135097Y-102144D01*
X134782Y-101553D02*
X134737Y-101553D01*
X134692Y-101582D01*
X134670Y-101610D01*
X134647Y-101666D01*
X134625Y-101778D01*
X134625Y-101919D01*
X134647Y-102032D01*
X134670Y-102088D01*
X134692Y-102116D01*
X134737Y-102144D01*
X134782Y-102144D01*
X134827Y-102116D01*
X134850Y-102088D01*
X134872Y-102032D01*
X134895Y-101919D01*
X134895Y-101778D01*
X134872Y-101666D01*
X134850Y-101610D01*
X134827Y-101582D01*
X134782Y-101553D01*
G54D12*
X119600Y-101800D03*
G54D13*
X119600Y-100800D03*
X120600Y-101800D03*
X120600Y-100800D03*
X121600Y-101800D03*
X121600Y-100800D03*
X122600Y-101800D03*
X122600Y-100800D03*
X123600Y-101800D03*
X123600Y-100800D03*
X124600Y-101800D03*
X124600Y-100800D03*
X125600Y-101800D03*
X125600Y-100800D03*
X126600Y-101800D03*
X126600Y-100800D03*
X127600Y-101800D03*
X127600Y-100800D03*
X128600Y-101800D03*
X128600Y-100800D03*
X129950Y-86050D03*
X125950Y-86050D03*
X123900Y-88850D03*
X123900Y-84850D03*
X125950Y-87000D03*
X129950Y-87000D03*
X119000Y-85850D03*
X123000Y-85850D03*
X123000Y-84900D03*
X119000Y-84900D03*
X119700Y-95050D03*
X123700Y-95050D03*
X119700Y-94100D03*
X123700Y-94100D03*
X129900Y-88850D03*
X125900Y-88850D03*
X118900Y-91050D03*
X122900Y-91050D03*
X122900Y-91950D03*
X118900Y-91950D03*
X125900Y-89750D03*
X129900Y-89750D03*
G54D12*
X121550Y-96100D03*
G54D13*
X121550Y-97100D03*
X120550Y-96100D03*
X120550Y-97100D03*
X131360Y-106945D03*
X131360Y-110945D03*
X136100Y-110970D03*
X136100Y-106970D03*
X133555Y-96305D03*
X133555Y-92305D03*
X137225Y-91420D03*
X141225Y-91420D03*
X134575Y-96305D03*
X134575Y-92305D03*
G54D14*
X132215Y-107790D03*
G54D15*
X132215Y-108790D03*
X132215Y-109790D03*
X135215Y-109790D03*
X135215Y-108790D03*
X135215Y-107790D03*
G54D14*
X120300Y-93000D03*
G54D15*
X121300Y-93000D03*
X122300Y-93000D03*
G54D14*
X125950Y-92950D03*
G54D15*
X125950Y-91950D03*
X125950Y-90950D03*
G54D16*
X125000Y-88850D03*
X125000Y-84850D03*
G54D15*
X127000Y-90700D03*
X129000Y-90700D03*
X126950Y-87950D03*
X128950Y-87950D03*
G54D17*
X124360Y-89830D03*
X125110Y-90330D03*
X124360Y-90830D03*
X124650Y-93000D03*
X123900Y-92500D03*
X124650Y-92000D03*
G54D18*
X124500Y-107300D03*
X119106Y-107300D03*
X124894Y-112615D03*
X118713Y-112615D03*
G54D14*
X122800Y-89930D03*
G54D15*
X122800Y-88930D03*
X122800Y-87930D03*
X122800Y-86930D03*
X119800Y-86930D03*
X119800Y-87930D03*
X119800Y-88930D03*
X119800Y-89930D03*
G54D13*
X135595Y-96305D03*
X135595Y-92305D03*
G54D14*
X137680Y-95740D03*
G54D15*
X138680Y-95740D03*
X139680Y-95740D03*
X140680Y-95740D03*
X140680Y-92740D03*
X139680Y-92740D03*
X138680Y-92740D03*
X137680Y-92740D03*
G54D14*
X145670Y-90830D03*
G54D15*
X144670Y-90830D03*
X143670Y-90830D03*
G54D19*
X138599Y-98035D03*
G54D20*
X137811Y-98035D03*
G54D21*
X128643Y-84700D03*
X126950Y-84700D03*
G54D17*
X131725Y-94865D03*
X132475Y-94365D03*
X131725Y-93865D03*
G54D12*
X132380Y-89775D03*
G54D13*
X131380Y-89775D03*
G54D14*
X143690Y-88245D03*
G54D15*
X144690Y-88245D03*
X145690Y-88245D03*
G54D19*
X143750Y-93926D03*
G54D20*
X143750Y-94714D03*
G54D15*
X142065Y-95200D03*
X142065Y-93200D03*
G54D12*
X141450Y-101050D03*
G54D13*
X142450Y-101050D03*
G54D12*
X141500Y-110400D03*
G54D13*
X142500Y-110400D03*
G54D12*
X141500Y-108150D03*
G54D13*
X142500Y-108150D03*
G54D12*
X141450Y-102600D03*
G54D13*
X142450Y-102600D03*
G54D12*
X141500Y-105200D03*
G54D13*
X142500Y-105200D03*
G54D22*
X125700Y-106550D03*
G54D23*
X122105Y-102890D03*
X123445Y-108295D03*
X121290Y-104380D03*
X122830Y-103180D03*
X120885Y-106890D03*
X122325Y-107375D03*
G54D22*
X129650Y-107500D03*
X123720Y-112170D03*
X125900Y-112850D03*
X118700Y-98650D03*
X119250Y-98650D03*
X119300Y-99200D03*
X119300Y-111400D03*
X135800Y-98500D03*
X136300Y-98500D03*
X135800Y-98035D03*
X136300Y-98035D03*
X118720Y-99190D03*
X120405Y-111770D03*
X120880Y-102650D03*
X119275Y-105360D03*
X123555Y-106195D03*
X120430Y-106450D03*
X127960Y-105205D03*
G54D24*
X123200Y-105050D02*
X120540Y-105050D01*
X120540Y-105050D02*
X119600Y-104110D01*
X119600Y-104110D02*
X119600Y-101800D01*
X125700Y-106550D02*
X125700Y-105950D01*
X124800Y-105050D02*
X125700Y-105950D01*
X123200Y-105050D02*
X124800Y-105050D01*
X120600Y-100800D02*
X120600Y-101800D01*
X119600Y-101800D02*
X120600Y-101800D01*
X120600Y-100800D02*
X119600Y-100800D01*
G54D25*
X134575Y-96305D02*
X134575Y-94605D01*
X132050Y-93540D02*
X131725Y-93865D01*
X133510Y-93540D02*
X132050Y-93540D01*
X134575Y-94605D02*
X133510Y-93540D01*
G54D26*
X121550Y-97100D02*
X120550Y-97100D01*
X122105Y-102890D02*
X122105Y-99385D01*
X120550Y-97830D02*
X120550Y-97100D01*
X122105Y-99385D02*
X120550Y-97830D01*
X132215Y-107790D02*
X133710Y-107790D01*
X139200Y-105850D02*
X141500Y-108150D01*
X135650Y-105850D02*
X139200Y-105850D01*
X133710Y-107790D02*
X135650Y-105850D01*
X123445Y-108295D02*
X123445Y-108300D01*
X123445Y-108300D02*
X124100Y-108300D01*
X131705Y-108300D02*
X132215Y-107790D01*
X124100Y-108300D02*
X131705Y-108300D01*
X141500Y-105200D02*
X140450Y-105200D01*
X124850Y-100800D02*
X125100Y-101050D01*
X125100Y-101050D02*
X125100Y-102450D01*
X125100Y-102450D02*
X126850Y-104200D01*
X126850Y-104200D02*
X139450Y-104200D01*
X139450Y-104200D02*
X140300Y-105050D01*
X124850Y-100800D02*
X124600Y-100800D01*
X140450Y-105200D02*
X140300Y-105050D01*
X121290Y-104380D02*
X123500Y-104380D01*
X124600Y-103280D02*
X124600Y-101800D01*
X123500Y-104380D02*
X124600Y-103280D01*
X121600Y-101800D02*
X121600Y-102900D01*
X121880Y-103180D02*
X122830Y-103180D01*
X121600Y-102900D02*
X121880Y-103180D01*
X120885Y-106890D02*
X121840Y-106890D01*
X121840Y-106890D02*
X122325Y-107375D01*
G54D27*
X137680Y-92740D02*
X137460Y-92740D01*
X137460Y-92740D02*
X135952Y-94247D01*
X134575Y-92305D02*
X134575Y-92870D01*
X139630Y-94690D02*
X140680Y-95740D01*
X136395Y-94690D02*
X139630Y-94690D01*
X134575Y-92870D02*
X135952Y-94247D01*
X135952Y-94247D02*
X136395Y-94690D01*
X125950Y-90950D02*
X126035Y-90950D01*
X133720Y-91450D02*
X134575Y-92305D01*
X126535Y-91450D02*
X133720Y-91450D01*
X126035Y-90950D02*
X126535Y-91450D01*
G54D28*
X143690Y-88245D02*
X143280Y-88245D01*
X142870Y-94395D02*
X142065Y-95200D01*
X142870Y-88655D02*
X142870Y-94395D01*
X143280Y-88245D02*
X142870Y-88655D01*
G54D27*
X125950Y-90950D02*
X125950Y-90750D01*
X126800Y-86050D02*
X125950Y-86050D01*
X127650Y-86900D02*
X126800Y-86050D01*
X127650Y-89050D02*
X127650Y-86900D01*
X125950Y-90750D02*
X127650Y-89050D01*
X125000Y-84850D02*
X125050Y-84850D01*
X125950Y-85750D02*
X125950Y-86050D01*
X125050Y-84850D02*
X125950Y-85750D01*
X123900Y-84850D02*
X125000Y-84850D01*
X119800Y-89930D02*
X119800Y-91450D01*
X119300Y-91950D02*
X118900Y-91950D01*
X119800Y-91450D02*
X119300Y-91950D01*
X123900Y-84850D02*
X123050Y-84850D01*
X123050Y-84850D02*
X123000Y-84900D01*
G54D26*
X129650Y-107500D02*
X129650Y-106895D01*
X129650Y-106895D02*
X127960Y-105205D01*
G54D29*
X123720Y-112170D02*
X123700Y-112150D01*
G54D26*
X142450Y-102600D02*
X142450Y-105150D01*
X142450Y-105150D02*
X142500Y-105200D01*
X142500Y-108150D02*
X142500Y-105200D01*
X142450Y-102600D02*
X142450Y-101050D01*
X142500Y-102650D02*
X142450Y-102600D01*
X119250Y-98650D02*
X118700Y-98650D01*
X118720Y-99190D02*
X119290Y-99190D01*
X119290Y-99190D02*
X119300Y-99200D01*
X135800Y-98500D02*
X135800Y-98035D01*
X135800Y-98035D02*
X135800Y-98000D01*
X136300Y-98035D02*
X136300Y-98000D01*
X127865Y-94865D02*
X127535Y-94865D01*
X131725Y-94865D02*
X127865Y-94865D01*
X126900Y-98100D02*
X125720Y-99280D01*
X126900Y-95500D02*
X126900Y-98100D01*
X127535Y-94865D02*
X126900Y-95500D01*
X142500Y-110400D02*
X142500Y-108150D01*
X136100Y-110970D02*
X137170Y-110970D01*
X141500Y-111400D02*
X142500Y-110400D01*
X137600Y-111400D02*
X141500Y-111400D01*
X137170Y-110970D02*
X137600Y-111400D01*
X142065Y-93200D02*
X141810Y-93200D01*
X141810Y-93200D02*
X141370Y-93640D01*
X141370Y-93640D02*
X141370Y-97370D01*
X141370Y-97370D02*
X139910Y-98830D01*
X139910Y-98830D02*
X138230Y-98830D01*
X138230Y-98830D02*
X137811Y-98411D01*
X137811Y-98411D02*
X137811Y-98035D01*
X118720Y-99190D02*
X118720Y-99940D01*
X118720Y-99940D02*
X118865Y-100085D01*
X120880Y-102650D02*
X120880Y-102465D01*
X120880Y-102465D02*
X121095Y-102250D01*
X121095Y-102250D02*
X121095Y-100360D01*
X121095Y-100360D02*
X120820Y-100085D01*
X120820Y-100085D02*
X118865Y-100085D01*
X119275Y-104845D02*
X119275Y-105360D01*
X119275Y-105360D02*
X119340Y-105360D01*
X119340Y-105360D02*
X120430Y-106450D01*
X118865Y-100085D02*
X118755Y-100195D01*
X118755Y-100195D02*
X118755Y-104325D01*
X118755Y-104325D02*
X119275Y-104845D01*
X125950Y-92950D02*
X125950Y-93770D01*
X125950Y-93770D02*
X124680Y-95040D01*
X124680Y-95040D02*
X124680Y-98240D01*
X124680Y-98240D02*
X125720Y-99280D01*
X125720Y-99280D02*
X126510Y-100070D01*
X126510Y-100070D02*
X127870Y-100070D01*
X127870Y-100070D02*
X128600Y-100800D01*
X123300Y-106450D02*
X123555Y-106195D01*
X123300Y-106450D02*
X120430Y-106450D01*
X124650Y-92000D02*
X125000Y-92000D01*
X125000Y-92000D02*
X125950Y-92950D01*
X122800Y-86930D02*
X122930Y-86930D01*
X123400Y-89870D02*
X124360Y-90830D01*
X123400Y-87400D02*
X123400Y-89870D01*
X122930Y-86930D02*
X123400Y-87400D01*
X126950Y-84700D02*
X126300Y-84700D01*
X122000Y-84850D02*
X123000Y-85850D01*
X122000Y-84250D02*
X122000Y-84850D01*
X122200Y-84050D02*
X122000Y-84250D01*
X125650Y-84050D02*
X122200Y-84050D01*
X126300Y-84700D02*
X125650Y-84050D01*
X123000Y-85850D02*
X123000Y-86730D01*
X123000Y-86730D02*
X122800Y-86930D01*
X131360Y-110945D02*
X132005Y-110945D01*
X135600Y-110970D02*
X136100Y-110970D01*
X134880Y-110250D02*
X135600Y-110970D01*
X132700Y-110250D02*
X134880Y-110250D01*
X132005Y-110945D02*
X132700Y-110250D01*
G54D25*
X139680Y-95740D02*
X139680Y-96535D01*
X134410Y-97160D02*
X133555Y-96305D01*
X139055Y-97160D02*
X134410Y-97160D01*
X139680Y-96535D02*
X139055Y-97160D01*
G54D30*
X119700Y-95050D02*
X120000Y-95050D01*
X120550Y-95600D02*
X120550Y-96100D01*
X120000Y-95050D02*
X120550Y-95600D01*
X119700Y-95050D02*
X119450Y-95050D01*
X120080Y-88930D02*
X119800Y-88930D01*
X120600Y-89450D02*
X120080Y-88930D01*
X120600Y-91600D02*
X120600Y-89450D01*
X119000Y-93200D02*
X120600Y-91600D01*
X119000Y-94600D02*
X119000Y-93200D01*
X119450Y-95050D02*
X119000Y-94600D01*
G54D27*
X119000Y-85850D02*
X119000Y-86130D01*
X119000Y-86130D02*
X119800Y-86930D01*
X119000Y-84900D02*
X119000Y-85850D01*
G54D30*
X123700Y-95050D02*
X123700Y-94100D01*
X119800Y-87930D02*
X120980Y-87930D01*
X123700Y-93600D02*
X123700Y-94100D01*
X122050Y-91950D02*
X123700Y-93600D01*
X122050Y-89000D02*
X122050Y-91950D01*
X120980Y-87930D02*
X122050Y-89000D01*
G54D26*
X141500Y-110400D02*
X137900Y-110400D01*
X137290Y-109790D02*
X135215Y-109790D01*
X137900Y-110400D02*
X137290Y-109790D01*
G54D10*
G36*
X149433Y-111410D02*
X147760Y-113083D01*
X146106Y-113083D01*
X146106Y-88162D01*
X146043Y-88009D01*
X145926Y-87891D01*
X145773Y-87828D01*
X145607Y-87828D01*
X145454Y-87891D01*
X145336Y-88008D01*
X145273Y-88161D01*
X145273Y-88327D01*
X145336Y-88480D01*
X145453Y-88598D01*
X145606Y-88661D01*
X145772Y-88661D01*
X145925Y-88598D01*
X146043Y-88481D01*
X146106Y-88328D01*
X146106Y-88162D01*
X146106Y-113083D01*
X146086Y-113083D01*
X146086Y-91076D01*
X146086Y-90526D01*
X146065Y-90474D01*
X146025Y-90434D01*
X145973Y-90413D01*
X145916Y-90413D01*
X145366Y-90413D01*
X145314Y-90434D01*
X145274Y-90474D01*
X145253Y-90526D01*
X145253Y-90583D01*
X145253Y-91133D01*
X145274Y-91185D01*
X145314Y-91225D01*
X145366Y-91246D01*
X145423Y-91246D01*
X145973Y-91246D01*
X146025Y-91225D01*
X146065Y-91185D01*
X146086Y-91133D01*
X146086Y-91076D01*
X146086Y-113083D01*
X145106Y-113083D01*
X145106Y-88162D01*
X145043Y-88009D01*
X144926Y-87891D01*
X144773Y-87828D01*
X144607Y-87828D01*
X144454Y-87891D01*
X144336Y-88008D01*
X144273Y-88161D01*
X144273Y-88327D01*
X144336Y-88480D01*
X144453Y-88598D01*
X144606Y-88661D01*
X144772Y-88661D01*
X144925Y-88598D01*
X145043Y-88481D01*
X145106Y-88328D01*
X145106Y-88162D01*
X145106Y-113083D01*
X145086Y-113083D01*
X145086Y-90747D01*
X145023Y-90594D01*
X144906Y-90476D01*
X144753Y-90413D01*
X144587Y-90413D01*
X144434Y-90476D01*
X144316Y-90593D01*
X144253Y-90746D01*
X144253Y-90912D01*
X144316Y-91065D01*
X144433Y-91183D01*
X144586Y-91246D01*
X144752Y-91246D01*
X144905Y-91183D01*
X145023Y-91066D01*
X145086Y-90913D01*
X145086Y-90747D01*
X145086Y-113083D01*
X144292Y-113083D01*
X144292Y-94785D01*
X144278Y-94572D01*
X144223Y-94439D01*
X144185Y-94428D01*
X144185Y-94191D01*
X144185Y-93604D01*
X144163Y-93552D01*
X144123Y-93512D01*
X144106Y-93505D01*
X144106Y-88491D01*
X144106Y-87941D01*
X144085Y-87889D01*
X144045Y-87849D01*
X143993Y-87828D01*
X143936Y-87828D01*
X143386Y-87828D01*
X143334Y-87849D01*
X143294Y-87889D01*
X143287Y-87906D01*
X143280Y-87906D01*
X143150Y-87932D01*
X143040Y-88005D01*
X142630Y-88415D01*
X142557Y-88525D01*
X142531Y-88655D01*
X142531Y-92956D01*
X142523Y-92937D01*
X142433Y-92911D01*
X142353Y-92992D01*
X142353Y-92831D01*
X142327Y-92741D01*
X142132Y-92675D01*
X141926Y-92689D01*
X141802Y-92741D01*
X141776Y-92831D01*
X142065Y-93119D01*
X142353Y-92831D01*
X142353Y-92992D01*
X142145Y-93200D01*
X142433Y-93488D01*
X142523Y-93462D01*
X142531Y-93439D01*
X142531Y-94254D01*
X142353Y-94433D01*
X142353Y-93568D01*
X142065Y-93280D01*
X141984Y-93360D01*
X141984Y-93200D01*
X141696Y-92911D01*
X141666Y-92920D01*
X141666Y-91332D01*
X141599Y-91170D01*
X141475Y-91045D01*
X141313Y-90978D01*
X141137Y-90978D01*
X140975Y-91045D01*
X140850Y-91169D01*
X140783Y-91331D01*
X140783Y-91507D01*
X140850Y-91669D01*
X140974Y-91794D01*
X141136Y-91861D01*
X141312Y-91861D01*
X141474Y-91794D01*
X141599Y-91670D01*
X141666Y-91508D01*
X141666Y-91332D01*
X141666Y-92920D01*
X141606Y-92937D01*
X141540Y-93132D01*
X141554Y-93338D01*
X141606Y-93462D01*
X141696Y-93488D01*
X141984Y-93200D01*
X141984Y-93360D01*
X141776Y-93568D01*
X141802Y-93658D01*
X141997Y-93724D01*
X142203Y-93710D01*
X142327Y-93658D01*
X142353Y-93568D01*
X142353Y-94433D01*
X142002Y-94783D01*
X141982Y-94783D01*
X141829Y-94846D01*
X141711Y-94963D01*
X141648Y-95116D01*
X141648Y-95282D01*
X141711Y-95435D01*
X141828Y-95553D01*
X141981Y-95616D01*
X142147Y-95616D01*
X142300Y-95553D01*
X142418Y-95436D01*
X142481Y-95283D01*
X142481Y-95262D01*
X143109Y-94634D01*
X143109Y-94634D01*
X143109Y-94634D01*
X143182Y-94524D01*
X143208Y-94395D01*
X143208Y-88795D01*
X143355Y-88648D01*
X143386Y-88661D01*
X143443Y-88661D01*
X143993Y-88661D01*
X144045Y-88640D01*
X144085Y-88600D01*
X144106Y-88548D01*
X144106Y-88491D01*
X144106Y-93505D01*
X144086Y-93497D01*
X144086Y-90747D01*
X144023Y-90594D01*
X143906Y-90476D01*
X143753Y-90413D01*
X143587Y-90413D01*
X143434Y-90476D01*
X143316Y-90593D01*
X143253Y-90746D01*
X143253Y-90912D01*
X143316Y-91065D01*
X143433Y-91183D01*
X143586Y-91246D01*
X143752Y-91246D01*
X143905Y-91183D01*
X144023Y-91066D01*
X144086Y-90913D01*
X144086Y-90747D01*
X144086Y-93497D01*
X144071Y-93490D01*
X144015Y-93490D01*
X143428Y-93490D01*
X143376Y-93512D01*
X143336Y-93552D01*
X143314Y-93604D01*
X143314Y-93660D01*
X143314Y-94247D01*
X143336Y-94299D01*
X143376Y-94339D01*
X143428Y-94361D01*
X143477Y-94361D01*
X143750Y-94633D01*
X144022Y-94361D01*
X144071Y-94361D01*
X144123Y-94339D01*
X144163Y-94299D01*
X144185Y-94247D01*
X144185Y-94191D01*
X144185Y-94428D01*
X144131Y-94412D01*
X143830Y-94714D01*
X144131Y-95015D01*
X144223Y-94988D01*
X144292Y-94785D01*
X144292Y-113083D01*
X144051Y-113083D01*
X144051Y-95095D01*
X143750Y-94794D01*
X143669Y-94874D01*
X143669Y-94714D01*
X143368Y-94412D01*
X143276Y-94439D01*
X143207Y-94642D01*
X143221Y-94855D01*
X143276Y-94988D01*
X143368Y-95015D01*
X143669Y-94714D01*
X143669Y-94874D01*
X143448Y-95095D01*
X143475Y-95187D01*
X143678Y-95256D01*
X143891Y-95242D01*
X144024Y-95187D01*
X144051Y-95095D01*
X144051Y-113083D01*
X143049Y-113083D01*
X143049Y-110473D01*
X143049Y-108223D01*
X143049Y-105273D01*
X143035Y-105057D01*
X142999Y-104970D01*
X142999Y-102673D01*
X142999Y-101123D01*
X142985Y-100907D01*
X142929Y-100771D01*
X142836Y-100743D01*
X142756Y-100823D01*
X142756Y-100663D01*
X142728Y-100570D01*
X142523Y-100500D01*
X142307Y-100514D01*
X142171Y-100570D01*
X142143Y-100663D01*
X142450Y-100969D01*
X142756Y-100663D01*
X142756Y-100823D01*
X142530Y-101050D01*
X142836Y-101356D01*
X142929Y-101328D01*
X142999Y-101123D01*
X142999Y-102673D01*
X142985Y-102457D01*
X142929Y-102321D01*
X142836Y-102293D01*
X142756Y-102373D01*
X142756Y-102213D01*
X142756Y-101436D01*
X142450Y-101130D01*
X142369Y-101210D01*
X142369Y-101050D01*
X142063Y-100743D01*
X141970Y-100771D01*
X141900Y-100976D01*
X141914Y-101192D01*
X141970Y-101328D01*
X142063Y-101356D01*
X142369Y-101050D01*
X142369Y-101210D01*
X142143Y-101436D01*
X142171Y-101529D01*
X142376Y-101599D01*
X142592Y-101585D01*
X142728Y-101529D01*
X142756Y-101436D01*
X142756Y-102213D01*
X142728Y-102120D01*
X142523Y-102050D01*
X142307Y-102064D01*
X142171Y-102120D01*
X142143Y-102213D01*
X142450Y-102519D01*
X142756Y-102213D01*
X142756Y-102373D01*
X142530Y-102600D01*
X142836Y-102906D01*
X142929Y-102878D01*
X142999Y-102673D01*
X142999Y-104970D01*
X142979Y-104921D01*
X142886Y-104893D01*
X142806Y-104973D01*
X142806Y-104813D01*
X142778Y-104720D01*
X142756Y-104713D01*
X142756Y-102986D01*
X142450Y-102680D01*
X142369Y-102760D01*
X142369Y-102600D01*
X142063Y-102293D01*
X141970Y-102321D01*
X141900Y-102526D01*
X141914Y-102742D01*
X141970Y-102878D01*
X142063Y-102906D01*
X142369Y-102600D01*
X142369Y-102760D01*
X142143Y-102986D01*
X142171Y-103079D01*
X142376Y-103149D01*
X142592Y-103135D01*
X142728Y-103079D01*
X142756Y-102986D01*
X142756Y-104713D01*
X142573Y-104650D01*
X142357Y-104664D01*
X142221Y-104720D01*
X142193Y-104813D01*
X142500Y-105119D01*
X142806Y-104813D01*
X142806Y-104973D01*
X142580Y-105200D01*
X142886Y-105506D01*
X142979Y-105478D01*
X143049Y-105273D01*
X143049Y-108223D01*
X143035Y-108007D01*
X142979Y-107871D01*
X142886Y-107843D01*
X142806Y-107923D01*
X142806Y-107763D01*
X142806Y-105586D01*
X142500Y-105280D01*
X142419Y-105360D01*
X142419Y-105200D01*
X142113Y-104893D01*
X142020Y-104921D01*
X141950Y-105126D01*
X141964Y-105342D01*
X142020Y-105478D01*
X142113Y-105506D01*
X142419Y-105200D01*
X142419Y-105360D01*
X142193Y-105586D01*
X142221Y-105679D01*
X142426Y-105749D01*
X142642Y-105735D01*
X142778Y-105679D01*
X142806Y-105586D01*
X142806Y-107763D01*
X142778Y-107670D01*
X142573Y-107600D01*
X142357Y-107614D01*
X142221Y-107670D01*
X142193Y-107763D01*
X142500Y-108069D01*
X142806Y-107763D01*
X142806Y-107923D01*
X142580Y-108150D01*
X142886Y-108456D01*
X142979Y-108428D01*
X143049Y-108223D01*
X143049Y-110473D01*
X143035Y-110257D01*
X142979Y-110121D01*
X142886Y-110093D01*
X142806Y-110173D01*
X142806Y-110013D01*
X142806Y-108536D01*
X142500Y-108230D01*
X142419Y-108310D01*
X142419Y-108150D01*
X142113Y-107843D01*
X142020Y-107871D01*
X141950Y-108076D01*
X141964Y-108292D01*
X142020Y-108428D01*
X142113Y-108456D01*
X142419Y-108150D01*
X142419Y-108310D01*
X142193Y-108536D01*
X142221Y-108629D01*
X142426Y-108699D01*
X142642Y-108685D01*
X142778Y-108629D01*
X142806Y-108536D01*
X142806Y-110013D01*
X142778Y-109920D01*
X142573Y-109850D01*
X142357Y-109864D01*
X142221Y-109920D01*
X142193Y-110013D01*
X142500Y-110319D01*
X142806Y-110013D01*
X142806Y-110173D01*
X142580Y-110400D01*
X142886Y-110706D01*
X142979Y-110678D01*
X143049Y-110473D01*
X143049Y-113083D01*
X142806Y-113083D01*
X142806Y-110786D01*
X142500Y-110480D01*
X142419Y-110560D01*
X142419Y-110400D01*
X142113Y-110093D01*
X142020Y-110121D01*
X141950Y-110326D01*
X141964Y-110542D01*
X142020Y-110678D01*
X142113Y-110706D01*
X142419Y-110400D01*
X142419Y-110560D01*
X142193Y-110786D01*
X142221Y-110879D01*
X142426Y-110949D01*
X142642Y-110935D01*
X142778Y-110879D01*
X142806Y-110786D01*
X142806Y-113083D01*
X136649Y-113083D01*
X136649Y-111043D01*
X136635Y-110827D01*
X136579Y-110691D01*
X136486Y-110663D01*
X136406Y-110743D01*
X136406Y-110583D01*
X136378Y-110490D01*
X136173Y-110420D01*
X135957Y-110434D01*
X135821Y-110490D01*
X135793Y-110583D01*
X136100Y-110889D01*
X136406Y-110583D01*
X136406Y-110743D01*
X136180Y-110970D01*
X136486Y-111276D01*
X136579Y-111248D01*
X136649Y-111043D01*
X136649Y-113083D01*
X136577Y-113083D01*
X136422Y-112304D01*
X136422Y-112300D01*
X136390Y-112222D01*
X135888Y-111471D01*
X136026Y-111519D01*
X136242Y-111505D01*
X136378Y-111449D01*
X136406Y-111356D01*
X136100Y-111050D01*
X136094Y-111055D01*
X136014Y-110975D01*
X136019Y-110970D01*
X135713Y-110663D01*
X135620Y-110691D01*
X135550Y-110896D01*
X135564Y-111112D01*
X135616Y-111238D01*
X134980Y-110812D01*
X134977Y-110809D01*
X134898Y-110776D01*
X134643Y-110726D01*
X134643Y-109393D01*
X135083Y-109393D01*
X134979Y-109436D01*
X134861Y-109553D01*
X134798Y-109706D01*
X134798Y-109872D01*
X134861Y-110025D01*
X134978Y-110143D01*
X135131Y-110206D01*
X135297Y-110206D01*
X135450Y-110143D01*
X135568Y-110026D01*
X135586Y-109980D01*
X137210Y-109980D01*
X137764Y-110535D01*
X137764Y-110535D01*
X137826Y-110576D01*
X137826Y-110576D01*
X137900Y-110590D01*
X141058Y-110590D01*
X141058Y-110728D01*
X141079Y-110780D01*
X141119Y-110820D01*
X141171Y-110841D01*
X141228Y-110841D01*
X141828Y-110841D01*
X141880Y-110820D01*
X141920Y-110780D01*
X141941Y-110728D01*
X141941Y-110671D01*
X141941Y-110071D01*
X141920Y-110019D01*
X141880Y-109979D01*
X141828Y-109958D01*
X141771Y-109958D01*
X141171Y-109958D01*
X141119Y-109979D01*
X141079Y-110019D01*
X141058Y-110071D01*
X141058Y-110128D01*
X141058Y-110209D01*
X137979Y-110209D01*
X137425Y-109654D01*
X137363Y-109613D01*
X137290Y-109599D01*
X136541Y-109599D01*
X136541Y-106882D01*
X136474Y-106720D01*
X136350Y-106595D01*
X136188Y-106528D01*
X136012Y-106528D01*
X135850Y-106595D01*
X135725Y-106719D01*
X135658Y-106881D01*
X135658Y-107057D01*
X135725Y-107219D01*
X135849Y-107344D01*
X136011Y-107411D01*
X136187Y-107411D01*
X136349Y-107344D01*
X136474Y-107220D01*
X136541Y-107058D01*
X136541Y-106882D01*
X136541Y-109599D01*
X135587Y-109599D01*
X135568Y-109554D01*
X135451Y-109436D01*
X135346Y-109393D01*
X135367Y-109393D01*
X135843Y-108917D01*
X135843Y-107532D01*
X135040Y-106729D01*
X135729Y-106040D01*
X139120Y-106040D01*
X141058Y-107978D01*
X141058Y-108478D01*
X141079Y-108530D01*
X141119Y-108570D01*
X141171Y-108591D01*
X141228Y-108591D01*
X141828Y-108591D01*
X141880Y-108570D01*
X141920Y-108530D01*
X141941Y-108478D01*
X141941Y-108421D01*
X141941Y-107821D01*
X141920Y-107769D01*
X141880Y-107729D01*
X141828Y-107708D01*
X141771Y-107708D01*
X141328Y-107708D01*
X139335Y-105714D01*
X139273Y-105673D01*
X139200Y-105659D01*
X135650Y-105659D01*
X135649Y-105659D01*
X135631Y-105662D01*
X135576Y-105673D01*
X135576Y-105673D01*
X135576Y-105673D01*
X135561Y-105684D01*
X135514Y-105714D01*
X135514Y-105714D01*
X134770Y-106459D01*
X134717Y-106406D01*
X132617Y-106406D01*
X131667Y-105456D01*
X130843Y-105456D01*
X130843Y-104390D01*
X139370Y-104390D01*
X140164Y-105185D01*
X140314Y-105335D01*
X140376Y-105376D01*
X140376Y-105376D01*
X140450Y-105390D01*
X141058Y-105390D01*
X141058Y-105528D01*
X141079Y-105580D01*
X141119Y-105620D01*
X141171Y-105641D01*
X141228Y-105641D01*
X141828Y-105641D01*
X141880Y-105620D01*
X141920Y-105580D01*
X141941Y-105528D01*
X141941Y-105471D01*
X141941Y-104871D01*
X141920Y-104819D01*
X141891Y-104791D01*
X141891Y-102871D01*
X141891Y-102271D01*
X141891Y-101321D01*
X141891Y-100721D01*
X141870Y-100669D01*
X141830Y-100629D01*
X141778Y-100608D01*
X141721Y-100608D01*
X141121Y-100608D01*
X141069Y-100629D01*
X141029Y-100669D01*
X141008Y-100721D01*
X141008Y-100778D01*
X141008Y-101378D01*
X141029Y-101430D01*
X141069Y-101470D01*
X141121Y-101491D01*
X141178Y-101491D01*
X141778Y-101491D01*
X141830Y-101470D01*
X141870Y-101430D01*
X141891Y-101378D01*
X141891Y-101321D01*
X141891Y-102271D01*
X141870Y-102219D01*
X141830Y-102179D01*
X141778Y-102158D01*
X141721Y-102158D01*
X141121Y-102158D01*
X141069Y-102179D01*
X141029Y-102219D01*
X141008Y-102271D01*
X141008Y-102328D01*
X141008Y-102928D01*
X141029Y-102980D01*
X141069Y-103020D01*
X141121Y-103041D01*
X141178Y-103041D01*
X141778Y-103041D01*
X141830Y-103020D01*
X141870Y-102980D01*
X141891Y-102928D01*
X141891Y-102871D01*
X141891Y-104791D01*
X141880Y-104779D01*
X141828Y-104758D01*
X141771Y-104758D01*
X141171Y-104758D01*
X141119Y-104779D01*
X141079Y-104819D01*
X141058Y-104871D01*
X141058Y-104928D01*
X141058Y-105009D01*
X140529Y-105009D01*
X140435Y-104914D01*
X140096Y-104576D01*
X140096Y-95657D01*
X140033Y-95504D01*
X139916Y-95386D01*
X139763Y-95323D01*
X139597Y-95323D01*
X139444Y-95386D01*
X139326Y-95503D01*
X139263Y-95656D01*
X139263Y-95822D01*
X139326Y-95975D01*
X139443Y-96093D01*
X139453Y-96097D01*
X139453Y-96441D01*
X139096Y-96797D01*
X139096Y-95657D01*
X139033Y-95504D01*
X138916Y-95386D01*
X138763Y-95323D01*
X138597Y-95323D01*
X138444Y-95386D01*
X138326Y-95503D01*
X138263Y-95656D01*
X138263Y-95822D01*
X138326Y-95975D01*
X138443Y-96093D01*
X138596Y-96156D01*
X138762Y-96156D01*
X138915Y-96093D01*
X139033Y-95976D01*
X139096Y-95823D01*
X139096Y-95657D01*
X139096Y-96797D01*
X138961Y-96933D01*
X138198Y-96933D01*
X138198Y-95966D01*
X138198Y-95513D01*
X138198Y-95416D01*
X138161Y-95326D01*
X138092Y-95258D01*
X138003Y-95221D01*
X137797Y-95221D01*
X137736Y-95282D01*
X137736Y-95683D01*
X138137Y-95683D01*
X138198Y-95622D01*
X138198Y-95513D01*
X138198Y-95966D01*
X138198Y-95857D01*
X138137Y-95796D01*
X137736Y-95796D01*
X137736Y-96197D01*
X137797Y-96258D01*
X138003Y-96258D01*
X138092Y-96221D01*
X138161Y-96153D01*
X138198Y-96063D01*
X138198Y-95966D01*
X138198Y-96933D01*
X137623Y-96933D01*
X137623Y-96197D01*
X137623Y-95796D01*
X137623Y-95683D01*
X137623Y-95282D01*
X137562Y-95221D01*
X137356Y-95221D01*
X137267Y-95258D01*
X137198Y-95326D01*
X137161Y-95416D01*
X137161Y-95513D01*
X137161Y-95622D01*
X137222Y-95683D01*
X137623Y-95683D01*
X137623Y-95796D01*
X137222Y-95796D01*
X137161Y-95857D01*
X137161Y-95966D01*
X137161Y-96063D01*
X137198Y-96153D01*
X137267Y-96221D01*
X137356Y-96258D01*
X137562Y-96258D01*
X137623Y-96197D01*
X137623Y-96933D01*
X136036Y-96933D01*
X136036Y-96217D01*
X135969Y-96055D01*
X135845Y-95930D01*
X135683Y-95863D01*
X135507Y-95863D01*
X135345Y-95930D01*
X135220Y-96054D01*
X135153Y-96216D01*
X135153Y-96392D01*
X135220Y-96554D01*
X135344Y-96679D01*
X135506Y-96746D01*
X135682Y-96746D01*
X135844Y-96679D01*
X135969Y-96555D01*
X136036Y-96393D01*
X136036Y-96217D01*
X136036Y-96933D01*
X135016Y-96933D01*
X135016Y-96217D01*
X134949Y-96055D01*
X134825Y-95930D01*
X134801Y-95920D01*
X134801Y-94605D01*
X134784Y-94518D01*
X134784Y-94518D01*
X134735Y-94444D01*
X133670Y-93379D01*
X133596Y-93330D01*
X133510Y-93313D01*
X132050Y-93313D01*
X131963Y-93330D01*
X131889Y-93379D01*
X131805Y-93463D01*
X131805Y-93463D01*
X131645Y-93463D01*
X131497Y-93524D01*
X131384Y-93637D01*
X131323Y-93784D01*
X131323Y-93944D01*
X131384Y-94092D01*
X131497Y-94205D01*
X131644Y-94266D01*
X131804Y-94266D01*
X131952Y-94205D01*
X132065Y-94092D01*
X132126Y-93945D01*
X132126Y-93785D01*
X132126Y-93784D01*
X132143Y-93766D01*
X133416Y-93766D01*
X134348Y-94698D01*
X134348Y-95920D01*
X134325Y-95930D01*
X134200Y-96054D01*
X134133Y-96216D01*
X134133Y-96392D01*
X134200Y-96554D01*
X134324Y-96679D01*
X134486Y-96746D01*
X134662Y-96746D01*
X134824Y-96679D01*
X134949Y-96555D01*
X135016Y-96393D01*
X135016Y-96217D01*
X135016Y-96933D01*
X134503Y-96933D01*
X133987Y-96416D01*
X133996Y-96393D01*
X133996Y-96217D01*
X133929Y-96055D01*
X133805Y-95930D01*
X133643Y-95863D01*
X133467Y-95863D01*
X133305Y-95930D01*
X133180Y-96054D01*
X133113Y-96216D01*
X133113Y-96392D01*
X133180Y-96554D01*
X133304Y-96679D01*
X133466Y-96746D01*
X133642Y-96746D01*
X133666Y-96736D01*
X134249Y-97320D01*
X134249Y-97320D01*
X134323Y-97369D01*
X134323Y-97369D01*
X134410Y-97386D01*
X139055Y-97386D01*
X139141Y-97369D01*
X139141Y-97369D01*
X139215Y-97320D01*
X139840Y-96695D01*
X139889Y-96621D01*
X139889Y-96621D01*
X139906Y-96535D01*
X139906Y-96097D01*
X139915Y-96093D01*
X140033Y-95976D01*
X140096Y-95823D01*
X140096Y-95657D01*
X140096Y-104576D01*
X139585Y-104064D01*
X139523Y-104023D01*
X139450Y-104009D01*
X139361Y-104009D01*
X139361Y-102500D01*
X139361Y-100326D01*
X139034Y-100326D01*
X139034Y-98300D01*
X139034Y-97713D01*
X139012Y-97661D01*
X138972Y-97621D01*
X138920Y-97599D01*
X138864Y-97599D01*
X138277Y-97599D01*
X138225Y-97621D01*
X138185Y-97661D01*
X138163Y-97713D01*
X138163Y-97762D01*
X138112Y-97813D01*
X138112Y-97653D01*
X138085Y-97561D01*
X137882Y-97492D01*
X137669Y-97506D01*
X137536Y-97561D01*
X137509Y-97653D01*
X137811Y-97954D01*
X138112Y-97653D01*
X138112Y-97813D01*
X137891Y-98035D01*
X138163Y-98307D01*
X138163Y-98356D01*
X138185Y-98408D01*
X138225Y-98448D01*
X138277Y-98470D01*
X138333Y-98470D01*
X138920Y-98470D01*
X138972Y-98448D01*
X139012Y-98408D01*
X139034Y-98356D01*
X139034Y-98300D01*
X139034Y-100326D01*
X138112Y-100326D01*
X138112Y-98416D01*
X137811Y-98115D01*
X137730Y-98195D01*
X137730Y-98035D01*
X137429Y-97733D01*
X137337Y-97760D01*
X137268Y-97963D01*
X137282Y-98176D01*
X137337Y-98309D01*
X137429Y-98336D01*
X137730Y-98035D01*
X137730Y-98195D01*
X137509Y-98416D01*
X137536Y-98508D01*
X137739Y-98577D01*
X137952Y-98563D01*
X138085Y-98508D01*
X138112Y-98416D01*
X138112Y-100326D01*
X132876Y-100326D01*
X132876Y-94285D01*
X132815Y-94137D01*
X132702Y-94024D01*
X132555Y-93963D01*
X132395Y-93963D01*
X132247Y-94024D01*
X132134Y-94137D01*
X132073Y-94284D01*
X132073Y-94444D01*
X132134Y-94592D01*
X132146Y-94604D01*
X132082Y-94587D01*
X132002Y-94667D01*
X132002Y-94507D01*
X131978Y-94419D01*
X131788Y-94355D01*
X131589Y-94370D01*
X131471Y-94419D01*
X131447Y-94507D01*
X131725Y-94784D01*
X132002Y-94507D01*
X132002Y-94667D01*
X131805Y-94865D01*
X132082Y-95142D01*
X132170Y-95118D01*
X132234Y-94928D01*
X132219Y-94729D01*
X132183Y-94641D01*
X132247Y-94705D01*
X132394Y-94766D01*
X132554Y-94766D01*
X132702Y-94705D01*
X132815Y-94592D01*
X132876Y-94445D01*
X132876Y-94285D01*
X132876Y-100326D01*
X132002Y-100326D01*
X132002Y-95222D01*
X131725Y-94945D01*
X131644Y-95025D01*
X131644Y-94865D01*
X131367Y-94587D01*
X131279Y-94611D01*
X131215Y-94801D01*
X131230Y-95000D01*
X131279Y-95118D01*
X131367Y-95142D01*
X131644Y-94865D01*
X131644Y-95025D01*
X131447Y-95222D01*
X131471Y-95310D01*
X131661Y-95374D01*
X131860Y-95359D01*
X131978Y-95310D01*
X132002Y-95222D01*
X132002Y-100326D01*
X131238Y-100326D01*
X131238Y-102500D01*
X139361Y-102500D01*
X139361Y-104009D01*
X130843Y-104009D01*
X130843Y-100882D01*
X128200Y-98238D01*
X127738Y-98700D01*
X130106Y-101067D01*
X130106Y-104009D01*
X129149Y-104009D01*
X129149Y-101873D01*
X129149Y-100873D01*
X129135Y-100657D01*
X129079Y-100521D01*
X128986Y-100493D01*
X128906Y-100573D01*
X128906Y-100413D01*
X128878Y-100320D01*
X128673Y-100250D01*
X128457Y-100264D01*
X128321Y-100320D01*
X128293Y-100413D01*
X128600Y-100719D01*
X128906Y-100413D01*
X128906Y-100573D01*
X128680Y-100800D01*
X128986Y-101106D01*
X129079Y-101078D01*
X129149Y-100873D01*
X129149Y-101873D01*
X129135Y-101657D01*
X129079Y-101521D01*
X128986Y-101493D01*
X128906Y-101573D01*
X128906Y-101413D01*
X128878Y-101320D01*
X128822Y-101301D01*
X128878Y-101279D01*
X128906Y-101186D01*
X128600Y-100880D01*
X128519Y-100960D01*
X128519Y-100800D01*
X128213Y-100493D01*
X128120Y-100521D01*
X128050Y-100726D01*
X128064Y-100942D01*
X128120Y-101078D01*
X128213Y-101106D01*
X128519Y-100800D01*
X128519Y-100960D01*
X128293Y-101186D01*
X128321Y-101279D01*
X128377Y-101298D01*
X128321Y-101320D01*
X128293Y-101413D01*
X128600Y-101719D01*
X128906Y-101413D01*
X128906Y-101573D01*
X128680Y-101800D01*
X128986Y-102106D01*
X129079Y-102078D01*
X129149Y-101873D01*
X129149Y-104009D01*
X128906Y-104009D01*
X128906Y-102186D01*
X128600Y-101880D01*
X128519Y-101960D01*
X128519Y-101800D01*
X128213Y-101493D01*
X128120Y-101521D01*
X128050Y-101726D01*
X128064Y-101942D01*
X128120Y-102078D01*
X128213Y-102106D01*
X128519Y-101800D01*
X128519Y-101960D01*
X128293Y-102186D01*
X128321Y-102279D01*
X128526Y-102349D01*
X128742Y-102335D01*
X128878Y-102279D01*
X128906Y-102186D01*
X128906Y-104009D01*
X128041Y-104009D01*
X128041Y-101712D01*
X128041Y-100712D01*
X127974Y-100550D01*
X127850Y-100425D01*
X127688Y-100358D01*
X127512Y-100358D01*
X127350Y-100425D01*
X127225Y-100549D01*
X127158Y-100711D01*
X127158Y-100887D01*
X127225Y-101049D01*
X127349Y-101174D01*
X127511Y-101241D01*
X127687Y-101241D01*
X127849Y-101174D01*
X127974Y-101050D01*
X128041Y-100888D01*
X128041Y-100712D01*
X128041Y-101712D01*
X127974Y-101550D01*
X127850Y-101425D01*
X127688Y-101358D01*
X127512Y-101358D01*
X127350Y-101425D01*
X127225Y-101549D01*
X127158Y-101711D01*
X127158Y-101887D01*
X127225Y-102049D01*
X127349Y-102174D01*
X127511Y-102241D01*
X127687Y-102241D01*
X127849Y-102174D01*
X127974Y-102050D01*
X128041Y-101888D01*
X128041Y-101712D01*
X128041Y-104009D01*
X127041Y-104009D01*
X127041Y-101712D01*
X127041Y-100712D01*
X126974Y-100550D01*
X126850Y-100425D01*
X126688Y-100358D01*
X126512Y-100358D01*
X126350Y-100425D01*
X126225Y-100549D01*
X126158Y-100711D01*
X126158Y-100887D01*
X126225Y-101049D01*
X126349Y-101174D01*
X126511Y-101241D01*
X126687Y-101241D01*
X126849Y-101174D01*
X126974Y-101050D01*
X127041Y-100888D01*
X127041Y-100712D01*
X127041Y-101712D01*
X126974Y-101550D01*
X126850Y-101425D01*
X126688Y-101358D01*
X126512Y-101358D01*
X126350Y-101425D01*
X126225Y-101549D01*
X126158Y-101711D01*
X126158Y-101887D01*
X126225Y-102049D01*
X126349Y-102174D01*
X126511Y-102241D01*
X126687Y-102241D01*
X126849Y-102174D01*
X126974Y-102050D01*
X127041Y-101888D01*
X127041Y-101712D01*
X127041Y-104009D01*
X126929Y-104009D01*
X125290Y-102370D01*
X125290Y-102115D01*
X125349Y-102174D01*
X125511Y-102241D01*
X125687Y-102241D01*
X125849Y-102174D01*
X125974Y-102050D01*
X126041Y-101888D01*
X126041Y-101712D01*
X125974Y-101550D01*
X125850Y-101425D01*
X125688Y-101358D01*
X125512Y-101358D01*
X125350Y-101425D01*
X125290Y-101484D01*
X125290Y-101115D01*
X125349Y-101174D01*
X125511Y-101241D01*
X125687Y-101241D01*
X125849Y-101174D01*
X125974Y-101050D01*
X126041Y-100888D01*
X126041Y-100712D01*
X125974Y-100550D01*
X125850Y-100425D01*
X125688Y-100358D01*
X125512Y-100358D01*
X125350Y-100425D01*
X125225Y-100549D01*
X125158Y-100711D01*
X125158Y-100838D01*
X125051Y-100731D01*
X125051Y-92920D01*
X124990Y-92772D01*
X124927Y-92709D01*
X124927Y-92357D01*
X124650Y-92080D01*
X124569Y-92160D01*
X124569Y-92000D01*
X124292Y-91722D01*
X124204Y-91746D01*
X124140Y-91936D01*
X124155Y-92135D01*
X124191Y-92223D01*
X124127Y-92159D01*
X123980Y-92098D01*
X123820Y-92098D01*
X123672Y-92159D01*
X123559Y-92272D01*
X123498Y-92419D01*
X123498Y-92579D01*
X123559Y-92727D01*
X123672Y-92840D01*
X123819Y-92901D01*
X123979Y-92901D01*
X124127Y-92840D01*
X124240Y-92727D01*
X124301Y-92580D01*
X124301Y-92420D01*
X124240Y-92272D01*
X124228Y-92260D01*
X124292Y-92277D01*
X124569Y-92000D01*
X124569Y-92160D01*
X124372Y-92357D01*
X124396Y-92445D01*
X124586Y-92509D01*
X124785Y-92494D01*
X124903Y-92445D01*
X124927Y-92357D01*
X124927Y-92709D01*
X124877Y-92659D01*
X124730Y-92598D01*
X124570Y-92598D01*
X124422Y-92659D01*
X124309Y-92772D01*
X124248Y-92919D01*
X124248Y-93079D01*
X124309Y-93227D01*
X124422Y-93340D01*
X124569Y-93401D01*
X124729Y-93401D01*
X124877Y-93340D01*
X124990Y-93227D01*
X125051Y-93080D01*
X125051Y-92920D01*
X125051Y-100731D01*
X125041Y-100721D01*
X125041Y-100712D01*
X124974Y-100550D01*
X124850Y-100425D01*
X124688Y-100358D01*
X124512Y-100358D01*
X124350Y-100425D01*
X124225Y-100549D01*
X124158Y-100711D01*
X124158Y-100887D01*
X124225Y-101049D01*
X124349Y-101174D01*
X124511Y-101241D01*
X124687Y-101241D01*
X124849Y-101174D01*
X124902Y-101122D01*
X124909Y-101129D01*
X124909Y-101484D01*
X124850Y-101425D01*
X124688Y-101358D01*
X124512Y-101358D01*
X124350Y-101425D01*
X124225Y-101549D01*
X124158Y-101711D01*
X124158Y-101887D01*
X124225Y-102049D01*
X124349Y-102174D01*
X124409Y-102199D01*
X124409Y-103200D01*
X124141Y-103468D01*
X124141Y-94962D01*
X124074Y-94800D01*
X123950Y-94675D01*
X123916Y-94661D01*
X123916Y-94488D01*
X123949Y-94474D01*
X124074Y-94350D01*
X124141Y-94188D01*
X124141Y-94012D01*
X124074Y-93850D01*
X123950Y-93725D01*
X123916Y-93711D01*
X123916Y-93600D01*
X123900Y-93517D01*
X123853Y-93446D01*
X122788Y-92381D01*
X122811Y-92391D01*
X122987Y-92391D01*
X123149Y-92324D01*
X123274Y-92200D01*
X123341Y-92038D01*
X123341Y-91862D01*
X123341Y-90962D01*
X123324Y-90919D01*
X123324Y-86997D01*
X123310Y-86791D01*
X123306Y-86782D01*
X123306Y-86236D01*
X123000Y-85930D01*
X122919Y-86010D01*
X122919Y-85850D01*
X122613Y-85543D01*
X122520Y-85571D01*
X122450Y-85776D01*
X122464Y-85992D01*
X122520Y-86128D01*
X122613Y-86156D01*
X122919Y-85850D01*
X122919Y-86010D01*
X122693Y-86236D01*
X122721Y-86329D01*
X122926Y-86399D01*
X123142Y-86385D01*
X123278Y-86329D01*
X123306Y-86236D01*
X123306Y-86782D01*
X123258Y-86667D01*
X123168Y-86641D01*
X123088Y-86722D01*
X123088Y-86561D01*
X123062Y-86471D01*
X122867Y-86405D01*
X122661Y-86419D01*
X122537Y-86471D01*
X122511Y-86561D01*
X122800Y-86849D01*
X123088Y-86561D01*
X123088Y-86722D01*
X122880Y-86930D01*
X123168Y-87218D01*
X123258Y-87192D01*
X123324Y-86997D01*
X123324Y-90919D01*
X123274Y-90800D01*
X123216Y-90742D01*
X123216Y-88847D01*
X123216Y-87847D01*
X123153Y-87694D01*
X123088Y-87628D01*
X123088Y-87298D01*
X122800Y-87010D01*
X122719Y-87090D01*
X122719Y-86930D01*
X122431Y-86641D01*
X122341Y-86667D01*
X122275Y-86862D01*
X122289Y-87068D01*
X122341Y-87192D01*
X122431Y-87218D01*
X122719Y-86930D01*
X122719Y-87090D01*
X122511Y-87298D01*
X122537Y-87388D01*
X122732Y-87454D01*
X122938Y-87440D01*
X123062Y-87388D01*
X123088Y-87298D01*
X123088Y-87628D01*
X123036Y-87576D01*
X122883Y-87513D01*
X122717Y-87513D01*
X122564Y-87576D01*
X122446Y-87693D01*
X122383Y-87846D01*
X122383Y-88012D01*
X122446Y-88165D01*
X122563Y-88283D01*
X122716Y-88346D01*
X122882Y-88346D01*
X123035Y-88283D01*
X123153Y-88166D01*
X123216Y-88013D01*
X123216Y-87847D01*
X123216Y-88847D01*
X123153Y-88694D01*
X123036Y-88576D01*
X122883Y-88513D01*
X122717Y-88513D01*
X122564Y-88576D01*
X122446Y-88693D01*
X122383Y-88846D01*
X122383Y-89012D01*
X122446Y-89165D01*
X122563Y-89283D01*
X122716Y-89346D01*
X122882Y-89346D01*
X123035Y-89283D01*
X123153Y-89166D01*
X123216Y-89013D01*
X123216Y-88847D01*
X123216Y-90742D01*
X123216Y-90742D01*
X123216Y-90176D01*
X123216Y-89626D01*
X123195Y-89574D01*
X123155Y-89534D01*
X123103Y-89513D01*
X123046Y-89513D01*
X122496Y-89513D01*
X122444Y-89534D01*
X122404Y-89574D01*
X122383Y-89626D01*
X122383Y-89683D01*
X122383Y-90233D01*
X122404Y-90285D01*
X122444Y-90325D01*
X122496Y-90346D01*
X122553Y-90346D01*
X123103Y-90346D01*
X123155Y-90325D01*
X123195Y-90285D01*
X123216Y-90233D01*
X123216Y-90176D01*
X123216Y-90742D01*
X123150Y-90675D01*
X122988Y-90608D01*
X122812Y-90608D01*
X122650Y-90675D01*
X122525Y-90799D01*
X122458Y-90961D01*
X122458Y-91137D01*
X122525Y-91299D01*
X122649Y-91424D01*
X122811Y-91491D01*
X122987Y-91491D01*
X123149Y-91424D01*
X123274Y-91300D01*
X123341Y-91138D01*
X123341Y-90962D01*
X123341Y-91862D01*
X123274Y-91700D01*
X123150Y-91575D01*
X122988Y-91508D01*
X122812Y-91508D01*
X122650Y-91575D01*
X122525Y-91699D01*
X122458Y-91861D01*
X122458Y-92037D01*
X122468Y-92062D01*
X122266Y-91860D01*
X122266Y-89000D01*
X122250Y-88917D01*
X122203Y-88846D01*
X122203Y-88846D01*
X121133Y-87776D01*
X121062Y-87729D01*
X120980Y-87713D01*
X120216Y-87713D01*
X120216Y-86847D01*
X120153Y-86694D01*
X120036Y-86576D01*
X119883Y-86513D01*
X119792Y-86513D01*
X119375Y-86096D01*
X119441Y-85938D01*
X119441Y-85762D01*
X119374Y-85600D01*
X119289Y-85514D01*
X119289Y-85235D01*
X119374Y-85150D01*
X119441Y-84988D01*
X119441Y-84812D01*
X119374Y-84650D01*
X119250Y-84525D01*
X119088Y-84458D01*
X118912Y-84458D01*
X118750Y-84525D01*
X118625Y-84649D01*
X118558Y-84811D01*
X118558Y-84987D01*
X118625Y-85149D01*
X118710Y-85235D01*
X118710Y-85514D01*
X118625Y-85599D01*
X118558Y-85761D01*
X118558Y-85937D01*
X118625Y-86099D01*
X118724Y-86199D01*
X118732Y-86240D01*
X118795Y-86334D01*
X119383Y-86922D01*
X119383Y-87012D01*
X119446Y-87165D01*
X119563Y-87283D01*
X119716Y-87346D01*
X119882Y-87346D01*
X120035Y-87283D01*
X120153Y-87166D01*
X120216Y-87013D01*
X120216Y-86847D01*
X120216Y-87713D01*
X120161Y-87713D01*
X120153Y-87694D01*
X120036Y-87576D01*
X119883Y-87513D01*
X119717Y-87513D01*
X119564Y-87576D01*
X119446Y-87693D01*
X119383Y-87846D01*
X119383Y-88012D01*
X119446Y-88165D01*
X119563Y-88283D01*
X119716Y-88346D01*
X119882Y-88346D01*
X120035Y-88283D01*
X120153Y-88166D01*
X120161Y-88146D01*
X120890Y-88146D01*
X121833Y-89089D01*
X121833Y-91950D01*
X121849Y-92032D01*
X121896Y-92103D01*
X122377Y-92583D01*
X122217Y-92583D01*
X122064Y-92646D01*
X121946Y-92763D01*
X121883Y-92916D01*
X121883Y-93082D01*
X121946Y-93235D01*
X122063Y-93353D01*
X122216Y-93416D01*
X122382Y-93416D01*
X122535Y-93353D01*
X122653Y-93236D01*
X122716Y-93083D01*
X122716Y-92923D01*
X123483Y-93689D01*
X123483Y-93711D01*
X123450Y-93725D01*
X123325Y-93849D01*
X123258Y-94011D01*
X123258Y-94187D01*
X123325Y-94349D01*
X123449Y-94474D01*
X123483Y-94488D01*
X123483Y-94661D01*
X123450Y-94675D01*
X123325Y-94799D01*
X123258Y-94961D01*
X123258Y-95137D01*
X123325Y-95299D01*
X123449Y-95424D01*
X123611Y-95491D01*
X123787Y-95491D01*
X123949Y-95424D01*
X124074Y-95300D01*
X124141Y-95138D01*
X124141Y-94962D01*
X124141Y-103468D01*
X124041Y-103568D01*
X124041Y-101712D01*
X124041Y-100712D01*
X123974Y-100550D01*
X123850Y-100425D01*
X123688Y-100358D01*
X123512Y-100358D01*
X123350Y-100425D01*
X123225Y-100549D01*
X123158Y-100711D01*
X123158Y-100887D01*
X123225Y-101049D01*
X123349Y-101174D01*
X123511Y-101241D01*
X123687Y-101241D01*
X123849Y-101174D01*
X123974Y-101050D01*
X124041Y-100888D01*
X124041Y-100712D01*
X124041Y-101712D01*
X123974Y-101550D01*
X123850Y-101425D01*
X123688Y-101358D01*
X123512Y-101358D01*
X123350Y-101425D01*
X123225Y-101549D01*
X123158Y-101711D01*
X123158Y-101887D01*
X123225Y-102049D01*
X123349Y-102174D01*
X123511Y-102241D01*
X123687Y-102241D01*
X123849Y-102174D01*
X123974Y-102050D01*
X124041Y-101888D01*
X124041Y-101712D01*
X124041Y-103568D01*
X123420Y-104189D01*
X123070Y-104189D01*
X123070Y-103132D01*
X123033Y-103044D01*
X122966Y-102976D01*
X122877Y-102939D01*
X122782Y-102939D01*
X122694Y-102976D01*
X122681Y-102989D01*
X122323Y-102989D01*
X122345Y-102937D01*
X122345Y-102842D01*
X122308Y-102754D01*
X122295Y-102741D01*
X122295Y-102120D01*
X122349Y-102174D01*
X122511Y-102241D01*
X122687Y-102241D01*
X122849Y-102174D01*
X122974Y-102050D01*
X123041Y-101888D01*
X123041Y-101712D01*
X122974Y-101550D01*
X122850Y-101425D01*
X122688Y-101358D01*
X122512Y-101358D01*
X122350Y-101425D01*
X122295Y-101479D01*
X122295Y-101120D01*
X122349Y-101174D01*
X122511Y-101241D01*
X122687Y-101241D01*
X122849Y-101174D01*
X122974Y-101050D01*
X123041Y-100888D01*
X123041Y-100712D01*
X122974Y-100550D01*
X122850Y-100425D01*
X122688Y-100358D01*
X122512Y-100358D01*
X122350Y-100425D01*
X122295Y-100479D01*
X122295Y-99385D01*
X122281Y-99311D01*
X122281Y-99311D01*
X122240Y-99249D01*
X120740Y-97750D01*
X120740Y-97499D01*
X120799Y-97474D01*
X120924Y-97350D01*
X120949Y-97290D01*
X121150Y-97290D01*
X121175Y-97349D01*
X121299Y-97474D01*
X121461Y-97541D01*
X121637Y-97541D01*
X121799Y-97474D01*
X121924Y-97350D01*
X121991Y-97188D01*
X121991Y-97012D01*
X121991Y-97012D01*
X121991Y-96371D01*
X121991Y-95771D01*
X121970Y-95719D01*
X121930Y-95679D01*
X121878Y-95658D01*
X121821Y-95658D01*
X121716Y-95658D01*
X121716Y-92917D01*
X121653Y-92764D01*
X121536Y-92646D01*
X121383Y-92583D01*
X121217Y-92583D01*
X121064Y-92646D01*
X120946Y-92763D01*
X120883Y-92916D01*
X120883Y-93082D01*
X120946Y-93235D01*
X121063Y-93353D01*
X121216Y-93416D01*
X121382Y-93416D01*
X121535Y-93353D01*
X121653Y-93236D01*
X121716Y-93083D01*
X121716Y-92917D01*
X121716Y-95658D01*
X121221Y-95658D01*
X121169Y-95679D01*
X121129Y-95719D01*
X121108Y-95771D01*
X121108Y-95828D01*
X121108Y-96428D01*
X121129Y-96480D01*
X121169Y-96520D01*
X121221Y-96541D01*
X121278Y-96541D01*
X121878Y-96541D01*
X121930Y-96520D01*
X121970Y-96480D01*
X121991Y-96428D01*
X121991Y-96371D01*
X121991Y-97012D01*
X121924Y-96850D01*
X121800Y-96725D01*
X121638Y-96658D01*
X121462Y-96658D01*
X121300Y-96725D01*
X121175Y-96849D01*
X121150Y-96909D01*
X120991Y-96909D01*
X120991Y-96012D01*
X120924Y-95850D01*
X120800Y-95725D01*
X120766Y-95711D01*
X120766Y-95600D01*
X120750Y-95517D01*
X120716Y-95467D01*
X120716Y-93246D01*
X120716Y-92696D01*
X120695Y-92644D01*
X120655Y-92604D01*
X120603Y-92583D01*
X120546Y-92583D01*
X119996Y-92583D01*
X119944Y-92604D01*
X119904Y-92644D01*
X119883Y-92696D01*
X119883Y-92753D01*
X119883Y-93303D01*
X119904Y-93355D01*
X119944Y-93395D01*
X119996Y-93416D01*
X120053Y-93416D01*
X120603Y-93416D01*
X120655Y-93395D01*
X120695Y-93355D01*
X120716Y-93303D01*
X120716Y-93246D01*
X120716Y-95467D01*
X120703Y-95446D01*
X120703Y-95446D01*
X120153Y-94896D01*
X120141Y-94889D01*
X120141Y-94012D01*
X120074Y-93850D01*
X119950Y-93725D01*
X119788Y-93658D01*
X119612Y-93658D01*
X119450Y-93725D01*
X119325Y-93849D01*
X119258Y-94011D01*
X119258Y-94187D01*
X119325Y-94349D01*
X119449Y-94474D01*
X119611Y-94541D01*
X119787Y-94541D01*
X119949Y-94474D01*
X120074Y-94350D01*
X120141Y-94188D01*
X120141Y-94012D01*
X120141Y-94889D01*
X120100Y-94861D01*
X120074Y-94800D01*
X119950Y-94675D01*
X119788Y-94608D01*
X119612Y-94608D01*
X119450Y-94675D01*
X119415Y-94709D01*
X119216Y-94510D01*
X119216Y-93289D01*
X120753Y-91753D01*
X120753Y-91753D01*
X120753Y-91753D01*
X120800Y-91682D01*
X120800Y-91682D01*
X120813Y-91616D01*
X120816Y-91600D01*
X120816Y-91600D01*
X120816Y-91600D01*
X120816Y-89450D01*
X120800Y-89367D01*
X120753Y-89296D01*
X120233Y-88776D01*
X120170Y-88734D01*
X120153Y-88694D01*
X120036Y-88576D01*
X119883Y-88513D01*
X119717Y-88513D01*
X119564Y-88576D01*
X119446Y-88693D01*
X119383Y-88846D01*
X119383Y-89012D01*
X119446Y-89165D01*
X119563Y-89283D01*
X119716Y-89346D01*
X119882Y-89346D01*
X120035Y-89283D01*
X120081Y-89237D01*
X120383Y-89539D01*
X120383Y-91510D01*
X120216Y-91676D01*
X120216Y-89847D01*
X120153Y-89694D01*
X120036Y-89576D01*
X119883Y-89513D01*
X119717Y-89513D01*
X119564Y-89576D01*
X119446Y-89693D01*
X119383Y-89846D01*
X119383Y-90012D01*
X119446Y-90165D01*
X119510Y-90229D01*
X119510Y-91330D01*
X119341Y-91498D01*
X119341Y-90962D01*
X119274Y-90800D01*
X119150Y-90675D01*
X118988Y-90608D01*
X118812Y-90608D01*
X118650Y-90675D01*
X118525Y-90799D01*
X118458Y-90961D01*
X118458Y-91137D01*
X118525Y-91299D01*
X118649Y-91424D01*
X118811Y-91491D01*
X118987Y-91491D01*
X119149Y-91424D01*
X119274Y-91300D01*
X119341Y-91138D01*
X119341Y-90962D01*
X119341Y-91498D01*
X119207Y-91633D01*
X119150Y-91575D01*
X118988Y-91508D01*
X118812Y-91508D01*
X118650Y-91575D01*
X118525Y-91699D01*
X118458Y-91861D01*
X118458Y-92037D01*
X118525Y-92199D01*
X118649Y-92324D01*
X118811Y-92391D01*
X118987Y-92391D01*
X119149Y-92324D01*
X119235Y-92239D01*
X119300Y-92239D01*
X119300Y-92239D01*
X119410Y-92217D01*
X119504Y-92154D01*
X120004Y-91654D01*
X120004Y-91654D01*
X120067Y-91560D01*
X120089Y-91450D01*
X120089Y-91450D01*
X120089Y-90229D01*
X120153Y-90166D01*
X120216Y-90013D01*
X120216Y-89847D01*
X120216Y-91676D01*
X118846Y-93046D01*
X118799Y-93117D01*
X118783Y-93200D01*
X118783Y-94600D01*
X118799Y-94682D01*
X118846Y-94753D01*
X119277Y-95183D01*
X119325Y-95299D01*
X119449Y-95424D01*
X119611Y-95491D01*
X119787Y-95491D01*
X119949Y-95424D01*
X120009Y-95365D01*
X120333Y-95689D01*
X120333Y-95711D01*
X120300Y-95725D01*
X120175Y-95849D01*
X120108Y-96011D01*
X120108Y-96187D01*
X120175Y-96349D01*
X120299Y-96474D01*
X120461Y-96541D01*
X120637Y-96541D01*
X120799Y-96474D01*
X120924Y-96350D01*
X120991Y-96188D01*
X120991Y-96012D01*
X120991Y-96909D01*
X120949Y-96909D01*
X120924Y-96850D01*
X120800Y-96725D01*
X120638Y-96658D01*
X120462Y-96658D01*
X120300Y-96725D01*
X120175Y-96849D01*
X120108Y-97011D01*
X120108Y-97187D01*
X120175Y-97349D01*
X120299Y-97474D01*
X120359Y-97499D01*
X120359Y-97830D01*
X120373Y-97903D01*
X120414Y-97965D01*
X121914Y-99464D01*
X121914Y-100489D01*
X121850Y-100425D01*
X121688Y-100358D01*
X121512Y-100358D01*
X121350Y-100425D01*
X121225Y-100549D01*
X121158Y-100711D01*
X121158Y-100887D01*
X121225Y-101049D01*
X121349Y-101174D01*
X121511Y-101241D01*
X121687Y-101241D01*
X121849Y-101174D01*
X121914Y-101110D01*
X121914Y-101489D01*
X121850Y-101425D01*
X121688Y-101358D01*
X121512Y-101358D01*
X121350Y-101425D01*
X121225Y-101549D01*
X121158Y-101711D01*
X121158Y-101887D01*
X121225Y-102049D01*
X121349Y-102174D01*
X121409Y-102199D01*
X121409Y-102900D01*
X121423Y-102973D01*
X121464Y-103035D01*
X121744Y-103315D01*
X121744Y-103315D01*
X121791Y-103345D01*
X121806Y-103356D01*
X121806Y-103356D01*
X121880Y-103370D01*
X122681Y-103370D01*
X122693Y-103383D01*
X122782Y-103420D01*
X122877Y-103420D01*
X122965Y-103383D01*
X123033Y-103316D01*
X123070Y-103227D01*
X123070Y-103132D01*
X123070Y-104189D01*
X121438Y-104189D01*
X121426Y-104176D01*
X121337Y-104139D01*
X121242Y-104139D01*
X121154Y-104176D01*
X121086Y-104243D01*
X121049Y-104332D01*
X121049Y-104427D01*
X121086Y-104515D01*
X121153Y-104583D01*
X121177Y-104593D01*
X120729Y-104593D01*
X120056Y-103920D01*
X120056Y-102256D01*
X120600Y-102256D01*
X120674Y-102241D01*
X120687Y-102241D01*
X120699Y-102236D01*
X120774Y-102221D01*
X120838Y-102179D01*
X120849Y-102174D01*
X120858Y-102165D01*
X120922Y-102122D01*
X120965Y-102059D01*
X120974Y-102050D01*
X120979Y-102038D01*
X121021Y-101974D01*
X121036Y-101899D01*
X121041Y-101888D01*
X121041Y-101875D01*
X121056Y-101800D01*
X121056Y-100800D01*
X121041Y-100725D01*
X121041Y-100712D01*
X121036Y-100700D01*
X121021Y-100625D01*
X120979Y-100561D01*
X120974Y-100550D01*
X120965Y-100541D01*
X120922Y-100477D01*
X120859Y-100434D01*
X120850Y-100425D01*
X120838Y-100420D01*
X120774Y-100378D01*
X120699Y-100363D01*
X120688Y-100358D01*
X120675Y-100358D01*
X120600Y-100343D01*
X119600Y-100343D01*
X119525Y-100358D01*
X119512Y-100358D01*
X119500Y-100363D01*
X119425Y-100378D01*
X119361Y-100420D01*
X119350Y-100425D01*
X119341Y-100434D01*
X119277Y-100477D01*
X119234Y-100540D01*
X119225Y-100549D01*
X119220Y-100561D01*
X119178Y-100625D01*
X119163Y-100700D01*
X119158Y-100711D01*
X119158Y-100724D01*
X119143Y-100800D01*
X119158Y-100874D01*
X119158Y-100887D01*
X119163Y-100899D01*
X119178Y-100974D01*
X119220Y-101038D01*
X119225Y-101049D01*
X119234Y-101058D01*
X119277Y-101122D01*
X119340Y-101165D01*
X119349Y-101174D01*
X119361Y-101179D01*
X119425Y-101221D01*
X119500Y-101236D01*
X119511Y-101241D01*
X119524Y-101241D01*
X119600Y-101256D01*
X120143Y-101256D01*
X120143Y-101343D01*
X119600Y-101343D01*
X119524Y-101358D01*
X119271Y-101358D01*
X119219Y-101379D01*
X119179Y-101419D01*
X119158Y-101471D01*
X119158Y-101528D01*
X119158Y-101724D01*
X119143Y-101800D01*
X119143Y-104110D01*
X119178Y-104284D01*
X119277Y-104432D01*
X120217Y-105372D01*
X120365Y-105471D01*
X120540Y-105506D01*
X123200Y-105506D01*
X124610Y-105506D01*
X125243Y-106139D01*
X125243Y-106550D01*
X125278Y-106724D01*
X125377Y-106872D01*
X125525Y-106971D01*
X125700Y-107006D01*
X125874Y-106971D01*
X126022Y-106872D01*
X126121Y-106724D01*
X126156Y-106550D01*
X126156Y-105950D01*
X126121Y-105775D01*
X126022Y-105627D01*
X125122Y-104727D01*
X124974Y-104628D01*
X124800Y-104593D01*
X123200Y-104593D01*
X121402Y-104593D01*
X121425Y-104583D01*
X121438Y-104570D01*
X123500Y-104570D01*
X123573Y-104556D01*
X123573Y-104556D01*
X123635Y-104515D01*
X124735Y-103415D01*
X124735Y-103415D01*
X124735Y-103415D01*
X124765Y-103368D01*
X124776Y-103353D01*
X124776Y-103353D01*
X124776Y-103353D01*
X124790Y-103280D01*
X124790Y-102199D01*
X124849Y-102174D01*
X124909Y-102115D01*
X124909Y-102450D01*
X124923Y-102523D01*
X124964Y-102585D01*
X126714Y-104335D01*
X126776Y-104376D01*
X126776Y-104376D01*
X126850Y-104390D01*
X130106Y-104390D01*
X130106Y-105893D01*
X131232Y-105893D01*
X132937Y-107599D01*
X132631Y-107599D01*
X132631Y-107486D01*
X132610Y-107434D01*
X132570Y-107394D01*
X132518Y-107373D01*
X132461Y-107373D01*
X131911Y-107373D01*
X131859Y-107394D01*
X131819Y-107434D01*
X131801Y-107478D01*
X131801Y-106857D01*
X131734Y-106695D01*
X131610Y-106570D01*
X131448Y-106503D01*
X131272Y-106503D01*
X131110Y-106570D01*
X130985Y-106694D01*
X130918Y-106856D01*
X130918Y-107032D01*
X130985Y-107194D01*
X131109Y-107319D01*
X131271Y-107386D01*
X131447Y-107386D01*
X131609Y-107319D01*
X131734Y-107195D01*
X131801Y-107033D01*
X131801Y-106857D01*
X131801Y-107478D01*
X131798Y-107486D01*
X131798Y-107543D01*
X131798Y-107936D01*
X131625Y-108109D01*
X125133Y-108109D01*
X125133Y-107174D01*
X125037Y-106941D01*
X124859Y-106763D01*
X124626Y-106666D01*
X124374Y-106666D01*
X124141Y-106762D01*
X123963Y-106940D01*
X123866Y-107173D01*
X123866Y-107425D01*
X123962Y-107658D01*
X124140Y-107836D01*
X124373Y-107933D01*
X124625Y-107933D01*
X124858Y-107837D01*
X125036Y-107659D01*
X125133Y-107426D01*
X125133Y-107174D01*
X125133Y-108109D01*
X124100Y-108109D01*
X123598Y-108109D01*
X123581Y-108091D01*
X123492Y-108054D01*
X123397Y-108054D01*
X123309Y-108091D01*
X123241Y-108158D01*
X123204Y-108247D01*
X123204Y-108342D01*
X123241Y-108430D01*
X123308Y-108498D01*
X123397Y-108535D01*
X123492Y-108535D01*
X123580Y-108498D01*
X123588Y-108490D01*
X124100Y-108490D01*
X131705Y-108490D01*
X131778Y-108476D01*
X131778Y-108476D01*
X131840Y-108435D01*
X132068Y-108206D01*
X132518Y-108206D01*
X132570Y-108185D01*
X132610Y-108145D01*
X132631Y-108093D01*
X132631Y-108036D01*
X132631Y-107980D01*
X133319Y-107980D01*
X133606Y-108267D01*
X133606Y-110638D01*
X132904Y-110777D01*
X132900Y-110777D01*
X132822Y-110809D01*
X132631Y-110936D01*
X132631Y-109707D01*
X132631Y-108707D01*
X132568Y-108554D01*
X132451Y-108436D01*
X132298Y-108373D01*
X132132Y-108373D01*
X131979Y-108436D01*
X131861Y-108553D01*
X131798Y-108706D01*
X131798Y-108872D01*
X131861Y-109025D01*
X131978Y-109143D01*
X132131Y-109206D01*
X132297Y-109206D01*
X132450Y-109143D01*
X132568Y-109026D01*
X132631Y-108873D01*
X132631Y-108707D01*
X132631Y-109707D01*
X132568Y-109554D01*
X132451Y-109436D01*
X132298Y-109373D01*
X132132Y-109373D01*
X131979Y-109436D01*
X131861Y-109553D01*
X131798Y-109706D01*
X131798Y-109872D01*
X131861Y-110025D01*
X131978Y-110143D01*
X132131Y-110206D01*
X132297Y-110206D01*
X132450Y-110143D01*
X132568Y-110026D01*
X132631Y-109873D01*
X132631Y-109707D01*
X132631Y-110936D01*
X132011Y-111352D01*
X131951Y-111411D01*
X131950Y-111415D01*
X131909Y-111477D01*
X131909Y-111018D01*
X131895Y-110802D01*
X131839Y-110666D01*
X131746Y-110638D01*
X131666Y-110718D01*
X131666Y-110558D01*
X131638Y-110465D01*
X131433Y-110395D01*
X131217Y-110409D01*
X131081Y-110465D01*
X131053Y-110558D01*
X131360Y-110864D01*
X131666Y-110558D01*
X131666Y-110718D01*
X131440Y-110945D01*
X131746Y-111251D01*
X131839Y-111223D01*
X131909Y-111018D01*
X131909Y-111477D01*
X131666Y-111840D01*
X131666Y-111331D01*
X131360Y-111025D01*
X131279Y-111105D01*
X131279Y-110945D01*
X130973Y-110638D01*
X130880Y-110666D01*
X130810Y-110871D01*
X130824Y-111087D01*
X130880Y-111223D01*
X130973Y-111251D01*
X131279Y-110945D01*
X131279Y-111105D01*
X131053Y-111331D01*
X131081Y-111424D01*
X131286Y-111494D01*
X131502Y-111480D01*
X131638Y-111424D01*
X131666Y-111331D01*
X131666Y-111840D01*
X131412Y-112219D01*
X131409Y-112222D01*
X131376Y-112301D01*
X131221Y-113083D01*
X125321Y-113083D01*
X125430Y-112974D01*
X125527Y-112741D01*
X125527Y-112489D01*
X125431Y-112256D01*
X125253Y-112078D01*
X125020Y-111981D01*
X124768Y-111981D01*
X124535Y-112077D01*
X124357Y-112255D01*
X124260Y-112488D01*
X124260Y-112740D01*
X124356Y-112973D01*
X124465Y-113083D01*
X122565Y-113083D01*
X122565Y-107327D01*
X122528Y-107239D01*
X122461Y-107171D01*
X122372Y-107134D01*
X122354Y-107134D01*
X121975Y-106754D01*
X121913Y-106713D01*
X121840Y-106699D01*
X121033Y-106699D01*
X121021Y-106686D01*
X120932Y-106649D01*
X120837Y-106649D01*
X120749Y-106686D01*
X120681Y-106753D01*
X120644Y-106842D01*
X120644Y-106937D01*
X120681Y-107025D01*
X120748Y-107093D01*
X120837Y-107130D01*
X120932Y-107130D01*
X121020Y-107093D01*
X121033Y-107080D01*
X121760Y-107080D01*
X122084Y-107404D01*
X122084Y-107422D01*
X122121Y-107510D01*
X122188Y-107578D01*
X122277Y-107615D01*
X122372Y-107615D01*
X122460Y-107578D01*
X122528Y-107511D01*
X122565Y-107422D01*
X122565Y-107327D01*
X122565Y-113083D01*
X119739Y-113083D01*
X119739Y-107174D01*
X119643Y-106941D01*
X119465Y-106763D01*
X119232Y-106666D01*
X118980Y-106666D01*
X118747Y-106762D01*
X118569Y-106940D01*
X118472Y-107173D01*
X118472Y-107425D01*
X118568Y-107658D01*
X118746Y-107836D01*
X118979Y-107933D01*
X119231Y-107933D01*
X119464Y-107837D01*
X119642Y-107659D01*
X119739Y-107426D01*
X119739Y-107174D01*
X119739Y-113083D01*
X119140Y-113083D01*
X119249Y-112974D01*
X119346Y-112741D01*
X119346Y-112489D01*
X119250Y-112256D01*
X119072Y-112078D01*
X118839Y-111981D01*
X118587Y-111981D01*
X118354Y-112077D01*
X118316Y-112115D01*
X118316Y-83616D01*
X130456Y-83616D01*
X130456Y-89732D01*
X130391Y-89796D01*
X130391Y-86912D01*
X130391Y-85962D01*
X130324Y-85800D01*
X130200Y-85675D01*
X130038Y-85608D01*
X129862Y-85608D01*
X129700Y-85675D01*
X129575Y-85799D01*
X129508Y-85961D01*
X129508Y-86137D01*
X129575Y-86299D01*
X129699Y-86424D01*
X129861Y-86491D01*
X130037Y-86491D01*
X130199Y-86424D01*
X130324Y-86300D01*
X130391Y-86138D01*
X130391Y-85962D01*
X130391Y-86912D01*
X130324Y-86750D01*
X130200Y-86625D01*
X130038Y-86558D01*
X129862Y-86558D01*
X129700Y-86625D01*
X129575Y-86749D01*
X129508Y-86911D01*
X129508Y-87087D01*
X129575Y-87249D01*
X129699Y-87374D01*
X129861Y-87441D01*
X130037Y-87441D01*
X130199Y-87374D01*
X130324Y-87250D01*
X130391Y-87088D01*
X130391Y-86912D01*
X130391Y-89796D01*
X130335Y-89853D01*
X130341Y-89838D01*
X130341Y-89662D01*
X130341Y-88762D01*
X130274Y-88600D01*
X130150Y-88475D01*
X129988Y-88408D01*
X129812Y-88408D01*
X129650Y-88475D01*
X129525Y-88599D01*
X129458Y-88761D01*
X129458Y-88937D01*
X129525Y-89099D01*
X129649Y-89224D01*
X129811Y-89291D01*
X129987Y-89291D01*
X130149Y-89224D01*
X130274Y-89100D01*
X130341Y-88938D01*
X130341Y-88762D01*
X130341Y-89662D01*
X130274Y-89500D01*
X130150Y-89375D01*
X129988Y-89308D01*
X129812Y-89308D01*
X129650Y-89375D01*
X129525Y-89499D01*
X129458Y-89661D01*
X129458Y-89837D01*
X129525Y-89999D01*
X129649Y-90124D01*
X129811Y-90191D01*
X129987Y-90191D01*
X130003Y-90185D01*
X129517Y-90671D01*
X129510Y-90561D01*
X129458Y-90437D01*
X129368Y-90411D01*
X129366Y-90413D01*
X129366Y-87867D01*
X129303Y-87714D01*
X129277Y-87688D01*
X129277Y-84574D01*
X129181Y-84341D01*
X129003Y-84162D01*
X128770Y-84066D01*
X128518Y-84066D01*
X128285Y-84162D01*
X128106Y-84340D01*
X128009Y-84573D01*
X128009Y-84825D01*
X128106Y-85058D01*
X128284Y-85237D01*
X128517Y-85333D01*
X128769Y-85333D01*
X129002Y-85237D01*
X129180Y-85059D01*
X129277Y-84826D01*
X129277Y-84574D01*
X129277Y-87688D01*
X129186Y-87596D01*
X129033Y-87533D01*
X128867Y-87533D01*
X128714Y-87596D01*
X128596Y-87713D01*
X128533Y-87866D01*
X128533Y-88032D01*
X128596Y-88185D01*
X128713Y-88303D01*
X128866Y-88366D01*
X129032Y-88366D01*
X129185Y-88303D01*
X129303Y-88186D01*
X129366Y-88033D01*
X129366Y-87867D01*
X129366Y-90413D01*
X129288Y-90492D01*
X129288Y-90331D01*
X129262Y-90241D01*
X129067Y-90175D01*
X128861Y-90189D01*
X128737Y-90241D01*
X128711Y-90331D01*
X129000Y-90619D01*
X129288Y-90331D01*
X129288Y-90492D01*
X129080Y-90700D01*
X129085Y-90705D01*
X129005Y-90785D01*
X129000Y-90780D01*
X128919Y-90860D01*
X128919Y-90700D01*
X128631Y-90411D01*
X128541Y-90437D01*
X128475Y-90632D01*
X128489Y-90838D01*
X128541Y-90962D01*
X128631Y-90988D01*
X128919Y-90700D01*
X128919Y-90860D01*
X128711Y-91068D01*
X128737Y-91158D01*
X128743Y-91160D01*
X127416Y-91160D01*
X127416Y-90617D01*
X127353Y-90464D01*
X127236Y-90346D01*
X127083Y-90283D01*
X126917Y-90283D01*
X126764Y-90346D01*
X126646Y-90463D01*
X126583Y-90616D01*
X126583Y-90782D01*
X126646Y-90935D01*
X126763Y-91053D01*
X126916Y-91116D01*
X127082Y-91116D01*
X127235Y-91053D01*
X127353Y-90936D01*
X127416Y-90783D01*
X127416Y-90617D01*
X127416Y-91160D01*
X126654Y-91160D01*
X126366Y-90872D01*
X126366Y-90867D01*
X126330Y-90778D01*
X127854Y-89254D01*
X127854Y-89254D01*
X127917Y-89160D01*
X127939Y-89050D01*
X127939Y-89050D01*
X127939Y-86900D01*
X127917Y-86789D01*
X127854Y-86695D01*
X127854Y-86695D01*
X127690Y-86531D01*
X127690Y-84819D01*
X127679Y-84527D01*
X127588Y-84306D01*
X127475Y-84254D01*
X127395Y-84334D01*
X127395Y-84174D01*
X127343Y-84061D01*
X127069Y-83959D01*
X126777Y-83970D01*
X126556Y-84061D01*
X126504Y-84174D01*
X126950Y-84619D01*
X127395Y-84174D01*
X127395Y-84334D01*
X127030Y-84700D01*
X127475Y-85145D01*
X127588Y-85093D01*
X127690Y-84819D01*
X127690Y-86531D01*
X127395Y-86236D01*
X127395Y-85225D01*
X126950Y-84780D01*
X126869Y-84860D01*
X126869Y-84700D01*
X126424Y-84254D01*
X126311Y-84306D01*
X126209Y-84580D01*
X126220Y-84872D01*
X126311Y-85093D01*
X126424Y-85145D01*
X126869Y-84700D01*
X126869Y-84860D01*
X126504Y-85225D01*
X126556Y-85338D01*
X126830Y-85440D01*
X127122Y-85429D01*
X127343Y-85338D01*
X127395Y-85225D01*
X127395Y-86236D01*
X127004Y-85845D01*
X126910Y-85782D01*
X126800Y-85760D01*
X126285Y-85760D01*
X126230Y-85705D01*
X126230Y-85705D01*
X126217Y-85639D01*
X126154Y-85545D01*
X126154Y-85545D01*
X125456Y-84847D01*
X125456Y-84759D01*
X125387Y-84591D01*
X125259Y-84463D01*
X125091Y-84393D01*
X124909Y-84393D01*
X124741Y-84462D01*
X124643Y-84560D01*
X124235Y-84560D01*
X124150Y-84475D01*
X123988Y-84408D01*
X123812Y-84408D01*
X123650Y-84475D01*
X123564Y-84560D01*
X123285Y-84560D01*
X123250Y-84525D01*
X123088Y-84458D01*
X122912Y-84458D01*
X122750Y-84525D01*
X122625Y-84649D01*
X122558Y-84811D01*
X122558Y-84987D01*
X122625Y-85149D01*
X122749Y-85274D01*
X122852Y-85316D01*
X122721Y-85370D01*
X122693Y-85463D01*
X123000Y-85769D01*
X123306Y-85463D01*
X123278Y-85370D01*
X123135Y-85322D01*
X123249Y-85274D01*
X123374Y-85150D01*
X123378Y-85139D01*
X123564Y-85139D01*
X123649Y-85224D01*
X123811Y-85291D01*
X123987Y-85291D01*
X124149Y-85224D01*
X124235Y-85139D01*
X124643Y-85139D01*
X124740Y-85236D01*
X124908Y-85306D01*
X125090Y-85306D01*
X125095Y-85304D01*
X125582Y-85792D01*
X125575Y-85799D01*
X125508Y-85961D01*
X125508Y-86137D01*
X125575Y-86299D01*
X125699Y-86424D01*
X125861Y-86491D01*
X126037Y-86491D01*
X126199Y-86424D01*
X126285Y-86339D01*
X126680Y-86339D01*
X127360Y-87019D01*
X127360Y-87852D01*
X127303Y-87714D01*
X127186Y-87596D01*
X127033Y-87533D01*
X126867Y-87533D01*
X126714Y-87596D01*
X126596Y-87713D01*
X126533Y-87866D01*
X126533Y-88032D01*
X126596Y-88185D01*
X126713Y-88303D01*
X126866Y-88366D01*
X127032Y-88366D01*
X127185Y-88303D01*
X127303Y-88186D01*
X127360Y-88047D01*
X127360Y-88930D01*
X126391Y-89898D01*
X126391Y-86912D01*
X126324Y-86750D01*
X126200Y-86625D01*
X126038Y-86558D01*
X125862Y-86558D01*
X125700Y-86625D01*
X125575Y-86749D01*
X125508Y-86911D01*
X125508Y-87087D01*
X125575Y-87249D01*
X125699Y-87374D01*
X125861Y-87441D01*
X126037Y-87441D01*
X126199Y-87374D01*
X126324Y-87250D01*
X126391Y-87088D01*
X126391Y-86912D01*
X126391Y-89898D01*
X126341Y-89948D01*
X126341Y-89662D01*
X126341Y-88762D01*
X126274Y-88600D01*
X126150Y-88475D01*
X125988Y-88408D01*
X125812Y-88408D01*
X125650Y-88475D01*
X125525Y-88599D01*
X125458Y-88761D01*
X125458Y-88937D01*
X125525Y-89099D01*
X125649Y-89224D01*
X125811Y-89291D01*
X125987Y-89291D01*
X126149Y-89224D01*
X126274Y-89100D01*
X126341Y-88938D01*
X126341Y-88762D01*
X126341Y-89662D01*
X126274Y-89500D01*
X126150Y-89375D01*
X125988Y-89308D01*
X125812Y-89308D01*
X125650Y-89375D01*
X125525Y-89499D01*
X125458Y-89661D01*
X125458Y-89837D01*
X125525Y-89999D01*
X125649Y-90124D01*
X125811Y-90191D01*
X125987Y-90191D01*
X126149Y-90124D01*
X126274Y-90000D01*
X126341Y-89838D01*
X126341Y-89662D01*
X126341Y-89948D01*
X125745Y-90545D01*
X125705Y-90605D01*
X125596Y-90713D01*
X125533Y-90866D01*
X125533Y-91032D01*
X125596Y-91185D01*
X125713Y-91303D01*
X125866Y-91366D01*
X126032Y-91366D01*
X126039Y-91363D01*
X126330Y-91654D01*
X126330Y-91654D01*
X126424Y-91717D01*
X126535Y-91739D01*
X128449Y-91739D01*
X126468Y-93720D01*
X126468Y-93273D01*
X126468Y-92626D01*
X126431Y-92537D01*
X126366Y-92472D01*
X126366Y-91867D01*
X126303Y-91714D01*
X126186Y-91596D01*
X126033Y-91533D01*
X125867Y-91533D01*
X125714Y-91596D01*
X125596Y-91713D01*
X125533Y-91866D01*
X125533Y-92032D01*
X125596Y-92185D01*
X125713Y-92303D01*
X125866Y-92366D01*
X126032Y-92366D01*
X126185Y-92303D01*
X126303Y-92186D01*
X126366Y-92033D01*
X126366Y-91867D01*
X126366Y-92472D01*
X126363Y-92468D01*
X126273Y-92431D01*
X126176Y-92431D01*
X126067Y-92431D01*
X126006Y-92492D01*
X126006Y-92893D01*
X126407Y-92893D01*
X126468Y-92832D01*
X126468Y-92626D01*
X126468Y-93273D01*
X126468Y-93067D01*
X126407Y-93006D01*
X126006Y-93006D01*
X126006Y-93407D01*
X126067Y-93468D01*
X126176Y-93468D01*
X126273Y-93468D01*
X126363Y-93431D01*
X126431Y-93362D01*
X126468Y-93273D01*
X126468Y-93720D01*
X125893Y-94295D01*
X125893Y-93407D01*
X125893Y-93006D01*
X125893Y-92893D01*
X125893Y-92492D01*
X125832Y-92431D01*
X125723Y-92431D01*
X125626Y-92431D01*
X125536Y-92468D01*
X125511Y-92494D01*
X125511Y-90250D01*
X125456Y-90117D01*
X125456Y-88759D01*
X125387Y-88591D01*
X125259Y-88463D01*
X125091Y-88393D01*
X124909Y-88393D01*
X124741Y-88462D01*
X124613Y-88590D01*
X124543Y-88758D01*
X124543Y-88940D01*
X124612Y-89108D01*
X124740Y-89236D01*
X124908Y-89306D01*
X125090Y-89306D01*
X125258Y-89237D01*
X125386Y-89109D01*
X125456Y-88941D01*
X125456Y-88759D01*
X125456Y-90117D01*
X125450Y-90102D01*
X125337Y-89989D01*
X125190Y-89928D01*
X125030Y-89928D01*
X124882Y-89989D01*
X124769Y-90102D01*
X124761Y-90120D01*
X124761Y-89750D01*
X124700Y-89602D01*
X124587Y-89489D01*
X124440Y-89428D01*
X124341Y-89428D01*
X124341Y-88762D01*
X124274Y-88600D01*
X124150Y-88475D01*
X123988Y-88408D01*
X123812Y-88408D01*
X123650Y-88475D01*
X123549Y-88576D01*
X123549Y-85923D01*
X123535Y-85707D01*
X123479Y-85571D01*
X123386Y-85543D01*
X123080Y-85850D01*
X123386Y-86156D01*
X123479Y-86128D01*
X123549Y-85923D01*
X123549Y-88576D01*
X123525Y-88599D01*
X123458Y-88761D01*
X123458Y-88937D01*
X123525Y-89099D01*
X123649Y-89224D01*
X123811Y-89291D01*
X123987Y-89291D01*
X124149Y-89224D01*
X124274Y-89100D01*
X124341Y-88938D01*
X124341Y-88762D01*
X124341Y-89428D01*
X124280Y-89428D01*
X124132Y-89489D01*
X124019Y-89602D01*
X123958Y-89749D01*
X123958Y-89909D01*
X124019Y-90057D01*
X124132Y-90170D01*
X124279Y-90231D01*
X124439Y-90231D01*
X124587Y-90170D01*
X124700Y-90057D01*
X124761Y-89910D01*
X124761Y-89750D01*
X124761Y-90120D01*
X124708Y-90249D01*
X124708Y-90409D01*
X124769Y-90557D01*
X124781Y-90569D01*
X124717Y-90552D01*
X124637Y-90632D01*
X124637Y-90472D01*
X124613Y-90384D01*
X124423Y-90320D01*
X124224Y-90335D01*
X124106Y-90384D01*
X124082Y-90472D01*
X124360Y-90749D01*
X124637Y-90472D01*
X124637Y-90632D01*
X124440Y-90830D01*
X124717Y-91107D01*
X124805Y-91083D01*
X124869Y-90893D01*
X124854Y-90694D01*
X124818Y-90606D01*
X124882Y-90670D01*
X125029Y-90731D01*
X125189Y-90731D01*
X125337Y-90670D01*
X125450Y-90557D01*
X125511Y-90410D01*
X125511Y-90250D01*
X125511Y-92494D01*
X125468Y-92537D01*
X125431Y-92626D01*
X125431Y-92832D01*
X125492Y-92893D01*
X125893Y-92893D01*
X125893Y-93006D01*
X125492Y-93006D01*
X125431Y-93067D01*
X125431Y-93273D01*
X125468Y-93362D01*
X125536Y-93431D01*
X125626Y-93468D01*
X125723Y-93468D01*
X125832Y-93468D01*
X125893Y-93407D01*
X125893Y-94295D01*
X125159Y-95029D01*
X125159Y-92063D01*
X125144Y-91864D01*
X125095Y-91746D01*
X125007Y-91722D01*
X124927Y-91802D01*
X124927Y-91642D01*
X124903Y-91554D01*
X124713Y-91490D01*
X124637Y-91496D01*
X124637Y-91187D01*
X124360Y-90910D01*
X124279Y-90990D01*
X124279Y-90830D01*
X124002Y-90552D01*
X123914Y-90576D01*
X123850Y-90766D01*
X123865Y-90965D01*
X123914Y-91083D01*
X124002Y-91107D01*
X124279Y-90830D01*
X124279Y-90990D01*
X124082Y-91187D01*
X124106Y-91275D01*
X124296Y-91339D01*
X124495Y-91324D01*
X124613Y-91275D01*
X124637Y-91187D01*
X124637Y-91496D01*
X124514Y-91505D01*
X124396Y-91554D01*
X124372Y-91642D01*
X124650Y-91919D01*
X124927Y-91642D01*
X124927Y-91802D01*
X124730Y-92000D01*
X125007Y-92277D01*
X125095Y-92253D01*
X125159Y-92063D01*
X125159Y-95029D01*
X125156Y-95032D01*
X125156Y-98050D01*
X125156Y-98143D01*
X126243Y-98143D01*
X126243Y-97500D01*
X126243Y-95317D01*
X129821Y-91739D01*
X133600Y-91739D01*
X133781Y-91920D01*
X133643Y-91863D01*
X133467Y-91863D01*
X133305Y-91930D01*
X133180Y-92054D01*
X133113Y-92216D01*
X133113Y-92392D01*
X133180Y-92554D01*
X133304Y-92679D01*
X133466Y-92746D01*
X133642Y-92746D01*
X133804Y-92679D01*
X133929Y-92555D01*
X133996Y-92393D01*
X133996Y-92217D01*
X133939Y-92078D01*
X134133Y-92272D01*
X134133Y-92392D01*
X134200Y-92554D01*
X134285Y-92640D01*
X134285Y-92870D01*
X134307Y-92980D01*
X134370Y-93074D01*
X135747Y-94452D01*
X135747Y-94452D01*
X135747Y-94452D01*
X136190Y-94894D01*
X136190Y-94894D01*
X136284Y-94957D01*
X136395Y-94979D01*
X139510Y-94979D01*
X140263Y-95732D01*
X140263Y-95822D01*
X140326Y-95975D01*
X140443Y-96093D01*
X140596Y-96156D01*
X140762Y-96156D01*
X140915Y-96093D01*
X141033Y-95976D01*
X141096Y-95823D01*
X141096Y-95657D01*
X141096Y-92657D01*
X141033Y-92504D01*
X140916Y-92386D01*
X140763Y-92323D01*
X140597Y-92323D01*
X140444Y-92386D01*
X140326Y-92503D01*
X140263Y-92656D01*
X140263Y-92822D01*
X140326Y-92975D01*
X140443Y-93093D01*
X140596Y-93156D01*
X140762Y-93156D01*
X140915Y-93093D01*
X141033Y-92976D01*
X141096Y-92823D01*
X141096Y-92657D01*
X141096Y-95657D01*
X141033Y-95504D01*
X140916Y-95386D01*
X140763Y-95323D01*
X140672Y-95323D01*
X140096Y-94747D01*
X140096Y-92657D01*
X140033Y-92504D01*
X139916Y-92386D01*
X139763Y-92323D01*
X139597Y-92323D01*
X139444Y-92386D01*
X139326Y-92503D01*
X139263Y-92656D01*
X139263Y-92822D01*
X139326Y-92975D01*
X139443Y-93093D01*
X139596Y-93156D01*
X139762Y-93156D01*
X139915Y-93093D01*
X140033Y-92976D01*
X140096Y-92823D01*
X140096Y-92657D01*
X140096Y-94747D01*
X139834Y-94485D01*
X139740Y-94422D01*
X139630Y-94400D01*
X139096Y-94400D01*
X139096Y-92657D01*
X139033Y-92504D01*
X138916Y-92386D01*
X138763Y-92323D01*
X138597Y-92323D01*
X138444Y-92386D01*
X138326Y-92503D01*
X138263Y-92656D01*
X138263Y-92822D01*
X138326Y-92975D01*
X138443Y-93093D01*
X138596Y-93156D01*
X138762Y-93156D01*
X138915Y-93093D01*
X139033Y-92976D01*
X139096Y-92823D01*
X139096Y-92657D01*
X139096Y-94400D01*
X136514Y-94400D01*
X136361Y-94247D01*
X137494Y-93114D01*
X137596Y-93156D01*
X137762Y-93156D01*
X137915Y-93093D01*
X138033Y-92976D01*
X138096Y-92823D01*
X138096Y-92657D01*
X138033Y-92504D01*
X137916Y-92386D01*
X137763Y-92323D01*
X137666Y-92323D01*
X137666Y-91332D01*
X137599Y-91170D01*
X137475Y-91045D01*
X137313Y-90978D01*
X137137Y-90978D01*
X136975Y-91045D01*
X136850Y-91169D01*
X136783Y-91331D01*
X136783Y-91507D01*
X136850Y-91669D01*
X136974Y-91794D01*
X137136Y-91861D01*
X137312Y-91861D01*
X137474Y-91794D01*
X137599Y-91670D01*
X137666Y-91508D01*
X137666Y-91332D01*
X137666Y-92323D01*
X137597Y-92323D01*
X137444Y-92386D01*
X137360Y-92470D01*
X137349Y-92472D01*
X137255Y-92535D01*
X136036Y-93753D01*
X136036Y-92217D01*
X135969Y-92055D01*
X135845Y-91930D01*
X135683Y-91863D01*
X135507Y-91863D01*
X135345Y-91930D01*
X135220Y-92054D01*
X135153Y-92216D01*
X135153Y-92392D01*
X135220Y-92554D01*
X135344Y-92679D01*
X135506Y-92746D01*
X135682Y-92746D01*
X135844Y-92679D01*
X135969Y-92555D01*
X136036Y-92393D01*
X136036Y-92217D01*
X136036Y-93753D01*
X135952Y-93838D01*
X134864Y-92750D01*
X134864Y-92640D01*
X134949Y-92555D01*
X135016Y-92393D01*
X135016Y-92217D01*
X134949Y-92055D01*
X134825Y-91930D01*
X134663Y-91863D01*
X134542Y-91863D01*
X133924Y-91245D01*
X133830Y-91182D01*
X133720Y-91160D01*
X132821Y-91160D01*
X132821Y-90046D01*
X132821Y-89446D01*
X132800Y-89394D01*
X132760Y-89354D01*
X132708Y-89333D01*
X132651Y-89333D01*
X132051Y-89333D01*
X131999Y-89354D01*
X131959Y-89394D01*
X131938Y-89446D01*
X131938Y-89503D01*
X131938Y-90103D01*
X131959Y-90155D01*
X131999Y-90195D01*
X132051Y-90216D01*
X132108Y-90216D01*
X132708Y-90216D01*
X132760Y-90195D01*
X132800Y-90155D01*
X132821Y-90103D01*
X132821Y-90046D01*
X132821Y-91160D01*
X130400Y-91160D01*
X131043Y-90517D01*
X131043Y-90062D01*
X131129Y-90149D01*
X131291Y-90216D01*
X131467Y-90216D01*
X131629Y-90149D01*
X131754Y-90025D01*
X131821Y-89863D01*
X131821Y-89687D01*
X131754Y-89525D01*
X131630Y-89400D01*
X131468Y-89333D01*
X131292Y-89333D01*
X131130Y-89400D01*
X131043Y-89486D01*
X131043Y-83616D01*
X131221Y-83616D01*
X131376Y-84398D01*
X131409Y-84477D01*
X131412Y-84480D01*
X131950Y-85284D01*
X131951Y-85288D01*
X132011Y-85347D01*
X132822Y-85890D01*
X132900Y-85922D01*
X132904Y-85922D01*
X133853Y-86110D01*
X133857Y-86112D01*
X133942Y-86112D01*
X134898Y-85923D01*
X134977Y-85890D01*
X134980Y-85887D01*
X135784Y-85349D01*
X135788Y-85348D01*
X135847Y-85288D01*
X136390Y-84477D01*
X136422Y-84399D01*
X136422Y-84395D01*
X136577Y-83616D01*
X147760Y-83616D01*
X149433Y-85289D01*
X149433Y-111410D01*
X149433Y-111410D01*
G37*
G54D31*
X149433Y-111410D02*
X147760Y-113083D01*
X146106Y-113083D01*
X146106Y-88162D01*
X146043Y-88009D01*
X145926Y-87891D01*
X145773Y-87828D01*
X145607Y-87828D01*
X145454Y-87891D01*
X145336Y-88008D01*
X145273Y-88161D01*
X145273Y-88327D01*
X145336Y-88480D01*
X145453Y-88598D01*
X145606Y-88661D01*
X145772Y-88661D01*
X145925Y-88598D01*
X146043Y-88481D01*
X146106Y-88328D01*
X146106Y-88162D01*
X146106Y-113083D01*
X146086Y-113083D01*
X146086Y-91076D01*
X146086Y-90526D01*
X146065Y-90474D01*
X146025Y-90434D01*
X145973Y-90413D01*
X145916Y-90413D01*
X145366Y-90413D01*
X145314Y-90434D01*
X145274Y-90474D01*
X145253Y-90526D01*
X145253Y-90583D01*
X145253Y-91133D01*
X145274Y-91185D01*
X145314Y-91225D01*
X145366Y-91246D01*
X145423Y-91246D01*
X145973Y-91246D01*
X146025Y-91225D01*
X146065Y-91185D01*
X146086Y-91133D01*
X146086Y-91076D01*
X146086Y-113083D01*
X145106Y-113083D01*
X145106Y-88162D01*
X145043Y-88009D01*
X144926Y-87891D01*
X144773Y-87828D01*
X144607Y-87828D01*
X144454Y-87891D01*
X144336Y-88008D01*
X144273Y-88161D01*
X144273Y-88327D01*
X144336Y-88480D01*
X144453Y-88598D01*
X144606Y-88661D01*
X144772Y-88661D01*
X144925Y-88598D01*
X145043Y-88481D01*
X145106Y-88328D01*
X145106Y-88162D01*
X145106Y-113083D01*
X145086Y-113083D01*
X145086Y-90747D01*
X145023Y-90594D01*
X144906Y-90476D01*
X144753Y-90413D01*
X144587Y-90413D01*
X144434Y-90476D01*
X144316Y-90593D01*
X144253Y-90746D01*
X144253Y-90912D01*
X144316Y-91065D01*
X144433Y-91183D01*
X144586Y-91246D01*
X144752Y-91246D01*
X144905Y-91183D01*
X145023Y-91066D01*
X145086Y-90913D01*
X145086Y-90747D01*
X145086Y-113083D01*
X144292Y-113083D01*
X144292Y-94785D01*
X144278Y-94572D01*
X144223Y-94439D01*
X144185Y-94428D01*
X144185Y-94191D01*
X144185Y-93604D01*
X144163Y-93552D01*
X144123Y-93512D01*
X144106Y-93505D01*
X144106Y-88491D01*
X144106Y-87941D01*
X144085Y-87889D01*
X144045Y-87849D01*
X143993Y-87828D01*
X143936Y-87828D01*
X143386Y-87828D01*
X143334Y-87849D01*
X143294Y-87889D01*
X143287Y-87906D01*
X143280Y-87906D01*
X143150Y-87932D01*
X143040Y-88005D01*
X142630Y-88415D01*
X142557Y-88525D01*
X142531Y-88655D01*
X142531Y-92956D01*
X142523Y-92937D01*
X142433Y-92911D01*
X142353Y-92992D01*
X142353Y-92831D01*
X142327Y-92741D01*
X142132Y-92675D01*
X141926Y-92689D01*
X141802Y-92741D01*
X141776Y-92831D01*
X142065Y-93119D01*
X142353Y-92831D01*
X142353Y-92992D01*
X142145Y-93200D01*
X142433Y-93488D01*
X142523Y-93462D01*
X142531Y-93439D01*
X142531Y-94254D01*
X142353Y-94433D01*
X142353Y-93568D01*
X142065Y-93280D01*
X141984Y-93360D01*
X141984Y-93200D01*
X141696Y-92911D01*
X141666Y-92920D01*
X141666Y-91332D01*
X141599Y-91170D01*
X141475Y-91045D01*
X141313Y-90978D01*
X141137Y-90978D01*
X140975Y-91045D01*
X140850Y-91169D01*
X140783Y-91331D01*
X140783Y-91507D01*
X140850Y-91669D01*
X140974Y-91794D01*
X141136Y-91861D01*
X141312Y-91861D01*
X141474Y-91794D01*
X141599Y-91670D01*
X141666Y-91508D01*
X141666Y-91332D01*
X141666Y-92920D01*
X141606Y-92937D01*
X141540Y-93132D01*
X141554Y-93338D01*
X141606Y-93462D01*
X141696Y-93488D01*
X141984Y-93200D01*
X141984Y-93360D01*
X141776Y-93568D01*
X141802Y-93658D01*
X141997Y-93724D01*
X142203Y-93710D01*
X142327Y-93658D01*
X142353Y-93568D01*
X142353Y-94433D01*
X142002Y-94783D01*
X141982Y-94783D01*
X141829Y-94846D01*
X141711Y-94963D01*
X141648Y-95116D01*
X141648Y-95282D01*
X141711Y-95435D01*
X141828Y-95553D01*
X141981Y-95616D01*
X142147Y-95616D01*
X142300Y-95553D01*
X142418Y-95436D01*
X142481Y-95283D01*
X142481Y-95262D01*
X143109Y-94634D01*
X143109Y-94634D01*
X143109Y-94634D01*
X143182Y-94524D01*
X143208Y-94395D01*
X143208Y-88795D01*
X143355Y-88648D01*
X143386Y-88661D01*
X143443Y-88661D01*
X143993Y-88661D01*
X144045Y-88640D01*
X144085Y-88600D01*
X144106Y-88548D01*
X144106Y-88491D01*
X144106Y-93505D01*
X144086Y-93497D01*
X144086Y-90747D01*
X144023Y-90594D01*
X143906Y-90476D01*
X143753Y-90413D01*
X143587Y-90413D01*
X143434Y-90476D01*
X143316Y-90593D01*
X143253Y-90746D01*
X143253Y-90912D01*
X143316Y-91065D01*
X143433Y-91183D01*
X143586Y-91246D01*
X143752Y-91246D01*
X143905Y-91183D01*
X144023Y-91066D01*
X144086Y-90913D01*
X144086Y-90747D01*
X144086Y-93497D01*
X144071Y-93490D01*
X144015Y-93490D01*
X143428Y-93490D01*
X143376Y-93512D01*
X143336Y-93552D01*
X143314Y-93604D01*
X143314Y-93660D01*
X143314Y-94247D01*
X143336Y-94299D01*
X143376Y-94339D01*
X143428Y-94361D01*
X143477Y-94361D01*
X143750Y-94633D01*
X144022Y-94361D01*
X144071Y-94361D01*
X144123Y-94339D01*
X144163Y-94299D01*
X144185Y-94247D01*
X144185Y-94191D01*
X144185Y-94428D01*
X144131Y-94412D01*
X143830Y-94714D01*
X144131Y-95015D01*
X144223Y-94988D01*
X144292Y-94785D01*
X144292Y-113083D01*
X144051Y-113083D01*
X144051Y-95095D01*
X143750Y-94794D01*
X143669Y-94874D01*
X143669Y-94714D01*
X143368Y-94412D01*
X143276Y-94439D01*
X143207Y-94642D01*
X143221Y-94855D01*
X143276Y-94988D01*
X143368Y-95015D01*
X143669Y-94714D01*
X143669Y-94874D01*
X143448Y-95095D01*
X143475Y-95187D01*
X143678Y-95256D01*
X143891Y-95242D01*
X144024Y-95187D01*
X144051Y-95095D01*
X144051Y-113083D01*
X143049Y-113083D01*
X143049Y-110473D01*
X143049Y-108223D01*
X143049Y-105273D01*
X143035Y-105057D01*
X142999Y-104970D01*
X142999Y-102673D01*
X142999Y-101123D01*
X142985Y-100907D01*
X142929Y-100771D01*
X142836Y-100743D01*
X142756Y-100823D01*
X142756Y-100663D01*
X142728Y-100570D01*
X142523Y-100500D01*
X142307Y-100514D01*
X142171Y-100570D01*
X142143Y-100663D01*
X142450Y-100969D01*
X142756Y-100663D01*
X142756Y-100823D01*
X142530Y-101050D01*
X142836Y-101356D01*
X142929Y-101328D01*
X142999Y-101123D01*
X142999Y-102673D01*
X142985Y-102457D01*
X142929Y-102321D01*
X142836Y-102293D01*
X142756Y-102373D01*
X142756Y-102213D01*
X142756Y-101436D01*
X142450Y-101130D01*
X142369Y-101210D01*
X142369Y-101050D01*
X142063Y-100743D01*
X141970Y-100771D01*
X141900Y-100976D01*
X141914Y-101192D01*
X141970Y-101328D01*
X142063Y-101356D01*
X142369Y-101050D01*
X142369Y-101210D01*
X142143Y-101436D01*
X142171Y-101529D01*
X142376Y-101599D01*
X142592Y-101585D01*
X142728Y-101529D01*
X142756Y-101436D01*
X142756Y-102213D01*
X142728Y-102120D01*
X142523Y-102050D01*
X142307Y-102064D01*
X142171Y-102120D01*
X142143Y-102213D01*
X142450Y-102519D01*
X142756Y-102213D01*
X142756Y-102373D01*
X142530Y-102600D01*
X142836Y-102906D01*
X142929Y-102878D01*
X142999Y-102673D01*
X142999Y-104970D01*
X142979Y-104921D01*
X142886Y-104893D01*
X142806Y-104973D01*
X142806Y-104813D01*
X142778Y-104720D01*
X142756Y-104713D01*
X142756Y-102986D01*
X142450Y-102680D01*
X142369Y-102760D01*
X142369Y-102600D01*
X142063Y-102293D01*
X141970Y-102321D01*
X141900Y-102526D01*
X141914Y-102742D01*
X141970Y-102878D01*
X142063Y-102906D01*
X142369Y-102600D01*
X142369Y-102760D01*
X142143Y-102986D01*
X142171Y-103079D01*
X142376Y-103149D01*
X142592Y-103135D01*
X142728Y-103079D01*
X142756Y-102986D01*
X142756Y-104713D01*
X142573Y-104650D01*
X142357Y-104664D01*
X142221Y-104720D01*
X142193Y-104813D01*
X142500Y-105119D01*
X142806Y-104813D01*
X142806Y-104973D01*
X142580Y-105200D01*
X142886Y-105506D01*
X142979Y-105478D01*
X143049Y-105273D01*
X143049Y-108223D01*
X143035Y-108007D01*
X142979Y-107871D01*
X142886Y-107843D01*
X142806Y-107923D01*
X142806Y-107763D01*
X142806Y-105586D01*
X142500Y-105280D01*
X142419Y-105360D01*
X142419Y-105200D01*
X142113Y-104893D01*
X142020Y-104921D01*
X141950Y-105126D01*
X141964Y-105342D01*
X142020Y-105478D01*
X142113Y-105506D01*
X142419Y-105200D01*
X142419Y-105360D01*
X142193Y-105586D01*
X142221Y-105679D01*
X142426Y-105749D01*
X142642Y-105735D01*
X142778Y-105679D01*
X142806Y-105586D01*
X142806Y-107763D01*
X142778Y-107670D01*
X142573Y-107600D01*
X142357Y-107614D01*
X142221Y-107670D01*
X142193Y-107763D01*
X142500Y-108069D01*
X142806Y-107763D01*
X142806Y-107923D01*
X142580Y-108150D01*
X142886Y-108456D01*
X142979Y-108428D01*
X143049Y-108223D01*
X143049Y-110473D01*
X143035Y-110257D01*
X142979Y-110121D01*
X142886Y-110093D01*
X142806Y-110173D01*
X142806Y-110013D01*
X142806Y-108536D01*
X142500Y-108230D01*
X142419Y-108310D01*
X142419Y-108150D01*
X142113Y-107843D01*
X142020Y-107871D01*
X141950Y-108076D01*
X141964Y-108292D01*
X142020Y-108428D01*
X142113Y-108456D01*
X142419Y-108150D01*
X142419Y-108310D01*
X142193Y-108536D01*
X142221Y-108629D01*
X142426Y-108699D01*
X142642Y-108685D01*
X142778Y-108629D01*
X142806Y-108536D01*
X142806Y-110013D01*
X142778Y-109920D01*
X142573Y-109850D01*
X142357Y-109864D01*
X142221Y-109920D01*
X142193Y-110013D01*
X142500Y-110319D01*
X142806Y-110013D01*
X142806Y-110173D01*
X142580Y-110400D01*
X142886Y-110706D01*
X142979Y-110678D01*
X143049Y-110473D01*
X143049Y-113083D01*
X142806Y-113083D01*
X142806Y-110786D01*
X142500Y-110480D01*
X142419Y-110560D01*
X142419Y-110400D01*
X142113Y-110093D01*
X142020Y-110121D01*
X141950Y-110326D01*
X141964Y-110542D01*
X142020Y-110678D01*
X142113Y-110706D01*
X142419Y-110400D01*
X142419Y-110560D01*
X142193Y-110786D01*
X142221Y-110879D01*
X142426Y-110949D01*
X142642Y-110935D01*
X142778Y-110879D01*
X142806Y-110786D01*
X142806Y-113083D01*
X136649Y-113083D01*
X136649Y-111043D01*
X136635Y-110827D01*
X136579Y-110691D01*
X136486Y-110663D01*
X136406Y-110743D01*
X136406Y-110583D01*
X136378Y-110490D01*
X136173Y-110420D01*
X135957Y-110434D01*
X135821Y-110490D01*
X135793Y-110583D01*
X136100Y-110889D01*
X136406Y-110583D01*
X136406Y-110743D01*
X136180Y-110970D01*
X136486Y-111276D01*
X136579Y-111248D01*
X136649Y-111043D01*
X136649Y-113083D01*
X136577Y-113083D01*
X136422Y-112304D01*
X136422Y-112300D01*
X136390Y-112222D01*
X135888Y-111471D01*
X136026Y-111519D01*
X136242Y-111505D01*
X136378Y-111449D01*
X136406Y-111356D01*
X136100Y-111050D01*
X136094Y-111055D01*
X136014Y-110975D01*
X136019Y-110970D01*
X135713Y-110663D01*
X135620Y-110691D01*
X135550Y-110896D01*
X135564Y-111112D01*
X135616Y-111238D01*
X134980Y-110812D01*
X134977Y-110809D01*
X134898Y-110776D01*
X134643Y-110726D01*
X134643Y-109393D01*
X135083Y-109393D01*
X134979Y-109436D01*
X134861Y-109553D01*
X134798Y-109706D01*
X134798Y-109872D01*
X134861Y-110025D01*
X134978Y-110143D01*
X135131Y-110206D01*
X135297Y-110206D01*
X135450Y-110143D01*
X135568Y-110026D01*
X135586Y-109980D01*
X137210Y-109980D01*
X137764Y-110535D01*
X137764Y-110535D01*
X137826Y-110576D01*
X137826Y-110576D01*
X137900Y-110590D01*
X141058Y-110590D01*
X141058Y-110728D01*
X141079Y-110780D01*
X141119Y-110820D01*
X141171Y-110841D01*
X141228Y-110841D01*
X141828Y-110841D01*
X141880Y-110820D01*
X141920Y-110780D01*
X141941Y-110728D01*
X141941Y-110671D01*
X141941Y-110071D01*
X141920Y-110019D01*
X141880Y-109979D01*
X141828Y-109958D01*
X141771Y-109958D01*
X141171Y-109958D01*
X141119Y-109979D01*
X141079Y-110019D01*
X141058Y-110071D01*
X141058Y-110128D01*
X141058Y-110209D01*
X137979Y-110209D01*
X137425Y-109654D01*
X137363Y-109613D01*
X137290Y-109599D01*
X136541Y-109599D01*
X136541Y-106882D01*
X136474Y-106720D01*
X136350Y-106595D01*
X136188Y-106528D01*
X136012Y-106528D01*
X135850Y-106595D01*
X135725Y-106719D01*
X135658Y-106881D01*
X135658Y-107057D01*
X135725Y-107219D01*
X135849Y-107344D01*
X136011Y-107411D01*
X136187Y-107411D01*
X136349Y-107344D01*
X136474Y-107220D01*
X136541Y-107058D01*
X136541Y-106882D01*
X136541Y-109599D01*
X135587Y-109599D01*
X135568Y-109554D01*
X135451Y-109436D01*
X135346Y-109393D01*
X135367Y-109393D01*
X135843Y-108917D01*
X135843Y-107532D01*
X135040Y-106729D01*
X135729Y-106040D01*
X139120Y-106040D01*
X141058Y-107978D01*
X141058Y-108478D01*
X141079Y-108530D01*
X141119Y-108570D01*
X141171Y-108591D01*
X141228Y-108591D01*
X141828Y-108591D01*
X141880Y-108570D01*
X141920Y-108530D01*
X141941Y-108478D01*
X141941Y-108421D01*
X141941Y-107821D01*
X141920Y-107769D01*
X141880Y-107729D01*
X141828Y-107708D01*
X141771Y-107708D01*
X141328Y-107708D01*
X139335Y-105714D01*
X139273Y-105673D01*
X139200Y-105659D01*
X135650Y-105659D01*
X135649Y-105659D01*
X135631Y-105662D01*
X135576Y-105673D01*
X135576Y-105673D01*
X135576Y-105673D01*
X135561Y-105684D01*
X135514Y-105714D01*
X135514Y-105714D01*
X134770Y-106459D01*
X134717Y-106406D01*
X132617Y-106406D01*
X131667Y-105456D01*
X130843Y-105456D01*
X130843Y-104390D01*
X139370Y-104390D01*
X140164Y-105185D01*
X140314Y-105335D01*
X140376Y-105376D01*
X140376Y-105376D01*
X140450Y-105390D01*
X141058Y-105390D01*
X141058Y-105528D01*
X141079Y-105580D01*
X141119Y-105620D01*
X141171Y-105641D01*
X141228Y-105641D01*
X141828Y-105641D01*
X141880Y-105620D01*
X141920Y-105580D01*
X141941Y-105528D01*
X141941Y-105471D01*
X141941Y-104871D01*
X141920Y-104819D01*
X141891Y-104791D01*
X141891Y-102871D01*
X141891Y-102271D01*
X141891Y-101321D01*
X141891Y-100721D01*
X141870Y-100669D01*
X141830Y-100629D01*
X141778Y-100608D01*
X141721Y-100608D01*
X141121Y-100608D01*
X141069Y-100629D01*
X141029Y-100669D01*
X141008Y-100721D01*
X141008Y-100778D01*
X141008Y-101378D01*
X141029Y-101430D01*
X141069Y-101470D01*
X141121Y-101491D01*
X141178Y-101491D01*
X141778Y-101491D01*
X141830Y-101470D01*
X141870Y-101430D01*
X141891Y-101378D01*
X141891Y-101321D01*
X141891Y-102271D01*
X141870Y-102219D01*
X141830Y-102179D01*
X141778Y-102158D01*
X141721Y-102158D01*
X141121Y-102158D01*
X141069Y-102179D01*
X141029Y-102219D01*
X141008Y-102271D01*
X141008Y-102328D01*
X141008Y-102928D01*
X141029Y-102980D01*
X141069Y-103020D01*
X141121Y-103041D01*
X141178Y-103041D01*
X141778Y-103041D01*
X141830Y-103020D01*
X141870Y-102980D01*
X141891Y-102928D01*
X141891Y-102871D01*
X141891Y-104791D01*
X141880Y-104779D01*
X141828Y-104758D01*
X141771Y-104758D01*
X141171Y-104758D01*
X141119Y-104779D01*
X141079Y-104819D01*
X141058Y-104871D01*
X141058Y-104928D01*
X141058Y-105009D01*
X140529Y-105009D01*
X140435Y-104914D01*
X140096Y-104576D01*
X140096Y-95657D01*
X140033Y-95504D01*
X139916Y-95386D01*
X139763Y-95323D01*
X139597Y-95323D01*
X139444Y-95386D01*
X139326Y-95503D01*
X139263Y-95656D01*
X139263Y-95822D01*
X139326Y-95975D01*
X139443Y-96093D01*
X139453Y-96097D01*
X139453Y-96441D01*
X139096Y-96797D01*
X139096Y-95657D01*
X139033Y-95504D01*
X138916Y-95386D01*
X138763Y-95323D01*
X138597Y-95323D01*
X138444Y-95386D01*
X138326Y-95503D01*
X138263Y-95656D01*
X138263Y-95822D01*
X138326Y-95975D01*
X138443Y-96093D01*
X138596Y-96156D01*
X138762Y-96156D01*
X138915Y-96093D01*
X139033Y-95976D01*
X139096Y-95823D01*
X139096Y-95657D01*
X139096Y-96797D01*
X138961Y-96933D01*
X138198Y-96933D01*
X138198Y-95966D01*
X138198Y-95513D01*
X138198Y-95416D01*
X138161Y-95326D01*
X138092Y-95258D01*
X138003Y-95221D01*
X137797Y-95221D01*
X137736Y-95282D01*
X137736Y-95683D01*
X138137Y-95683D01*
X138198Y-95622D01*
X138198Y-95513D01*
X138198Y-95966D01*
X138198Y-95857D01*
X138137Y-95796D01*
X137736Y-95796D01*
X137736Y-96197D01*
X137797Y-96258D01*
X138003Y-96258D01*
X138092Y-96221D01*
X138161Y-96153D01*
X138198Y-96063D01*
X138198Y-95966D01*
X138198Y-96933D01*
X137623Y-96933D01*
X137623Y-96197D01*
X137623Y-95796D01*
X137623Y-95683D01*
X137623Y-95282D01*
X137562Y-95221D01*
X137356Y-95221D01*
X137267Y-95258D01*
X137198Y-95326D01*
X137161Y-95416D01*
X137161Y-95513D01*
X137161Y-95622D01*
X137222Y-95683D01*
X137623Y-95683D01*
X137623Y-95796D01*
X137222Y-95796D01*
X137161Y-95857D01*
X137161Y-95966D01*
X137161Y-96063D01*
X137198Y-96153D01*
X137267Y-96221D01*
X137356Y-96258D01*
X137562Y-96258D01*
X137623Y-96197D01*
X137623Y-96933D01*
X136036Y-96933D01*
X136036Y-96217D01*
X135969Y-96055D01*
X135845Y-95930D01*
X135683Y-95863D01*
X135507Y-95863D01*
X135345Y-95930D01*
X135220Y-96054D01*
X135153Y-96216D01*
X135153Y-96392D01*
X135220Y-96554D01*
X135344Y-96679D01*
X135506Y-96746D01*
X135682Y-96746D01*
X135844Y-96679D01*
X135969Y-96555D01*
X136036Y-96393D01*
X136036Y-96217D01*
X136036Y-96933D01*
X135016Y-96933D01*
X135016Y-96217D01*
X134949Y-96055D01*
X134825Y-95930D01*
X134801Y-95920D01*
X134801Y-94605D01*
X134784Y-94518D01*
X134784Y-94518D01*
X134735Y-94444D01*
X133670Y-93379D01*
X133596Y-93330D01*
X133510Y-93313D01*
X132050Y-93313D01*
X131963Y-93330D01*
X131889Y-93379D01*
X131805Y-93463D01*
X131805Y-93463D01*
X131645Y-93463D01*
X131497Y-93524D01*
X131384Y-93637D01*
X131323Y-93784D01*
X131323Y-93944D01*
X131384Y-94092D01*
X131497Y-94205D01*
X131644Y-94266D01*
X131804Y-94266D01*
X131952Y-94205D01*
X132065Y-94092D01*
X132126Y-93945D01*
X132126Y-93785D01*
X132126Y-93784D01*
X132143Y-93766D01*
X133416Y-93766D01*
X134348Y-94698D01*
X134348Y-95920D01*
X134325Y-95930D01*
X134200Y-96054D01*
X134133Y-96216D01*
X134133Y-96392D01*
X134200Y-96554D01*
X134324Y-96679D01*
X134486Y-96746D01*
X134662Y-96746D01*
X134824Y-96679D01*
X134949Y-96555D01*
X135016Y-96393D01*
X135016Y-96217D01*
X135016Y-96933D01*
X134503Y-96933D01*
X133987Y-96416D01*
X133996Y-96393D01*
X133996Y-96217D01*
X133929Y-96055D01*
X133805Y-95930D01*
X133643Y-95863D01*
X133467Y-95863D01*
X133305Y-95930D01*
X133180Y-96054D01*
X133113Y-96216D01*
X133113Y-96392D01*
X133180Y-96554D01*
X133304Y-96679D01*
X133466Y-96746D01*
X133642Y-96746D01*
X133666Y-96736D01*
X134249Y-97320D01*
X134249Y-97320D01*
X134323Y-97369D01*
X134323Y-97369D01*
X134410Y-97386D01*
X139055Y-97386D01*
X139141Y-97369D01*
X139141Y-97369D01*
X139215Y-97320D01*
X139840Y-96695D01*
X139889Y-96621D01*
X139889Y-96621D01*
X139906Y-96535D01*
X139906Y-96097D01*
X139915Y-96093D01*
X140033Y-95976D01*
X140096Y-95823D01*
X140096Y-95657D01*
X140096Y-104576D01*
X139585Y-104064D01*
X139523Y-104023D01*
X139450Y-104009D01*
X139361Y-104009D01*
X139361Y-102500D01*
X139361Y-100326D01*
X139034Y-100326D01*
X139034Y-98300D01*
X139034Y-97713D01*
X139012Y-97661D01*
X138972Y-97621D01*
X138920Y-97599D01*
X138864Y-97599D01*
X138277Y-97599D01*
X138225Y-97621D01*
X138185Y-97661D01*
X138163Y-97713D01*
X138163Y-97762D01*
X138112Y-97813D01*
X138112Y-97653D01*
X138085Y-97561D01*
X137882Y-97492D01*
X137669Y-97506D01*
X137536Y-97561D01*
X137509Y-97653D01*
X137811Y-97954D01*
X138112Y-97653D01*
X138112Y-97813D01*
X137891Y-98035D01*
X138163Y-98307D01*
X138163Y-98356D01*
X138185Y-98408D01*
X138225Y-98448D01*
X138277Y-98470D01*
X138333Y-98470D01*
X138920Y-98470D01*
X138972Y-98448D01*
X139012Y-98408D01*
X139034Y-98356D01*
X139034Y-98300D01*
X139034Y-100326D01*
X138112Y-100326D01*
X138112Y-98416D01*
X137811Y-98115D01*
X137730Y-98195D01*
X137730Y-98035D01*
X137429Y-97733D01*
X137337Y-97760D01*
X137268Y-97963D01*
X137282Y-98176D01*
X137337Y-98309D01*
X137429Y-98336D01*
X137730Y-98035D01*
X137730Y-98195D01*
X137509Y-98416D01*
X137536Y-98508D01*
X137739Y-98577D01*
X137952Y-98563D01*
X138085Y-98508D01*
X138112Y-98416D01*
X138112Y-100326D01*
X132876Y-100326D01*
X132876Y-94285D01*
X132815Y-94137D01*
X132702Y-94024D01*
X132555Y-93963D01*
X132395Y-93963D01*
X132247Y-94024D01*
X132134Y-94137D01*
X132073Y-94284D01*
X132073Y-94444D01*
X132134Y-94592D01*
X132146Y-94604D01*
X132082Y-94587D01*
X132002Y-94667D01*
X132002Y-94507D01*
X131978Y-94419D01*
X131788Y-94355D01*
X131589Y-94370D01*
X131471Y-94419D01*
X131447Y-94507D01*
X131725Y-94784D01*
X132002Y-94507D01*
X132002Y-94667D01*
X131805Y-94865D01*
X132082Y-95142D01*
X132170Y-95118D01*
X132234Y-94928D01*
X132219Y-94729D01*
X132183Y-94641D01*
X132247Y-94705D01*
X132394Y-94766D01*
X132554Y-94766D01*
X132702Y-94705D01*
X132815Y-94592D01*
X132876Y-94445D01*
X132876Y-94285D01*
X132876Y-100326D01*
X132002Y-100326D01*
X132002Y-95222D01*
X131725Y-94945D01*
X131644Y-95025D01*
X131644Y-94865D01*
X131367Y-94587D01*
X131279Y-94611D01*
X131215Y-94801D01*
X131230Y-95000D01*
X131279Y-95118D01*
X131367Y-95142D01*
X131644Y-94865D01*
X131644Y-95025D01*
X131447Y-95222D01*
X131471Y-95310D01*
X131661Y-95374D01*
X131860Y-95359D01*
X131978Y-95310D01*
X132002Y-95222D01*
X132002Y-100326D01*
X131238Y-100326D01*
X131238Y-102500D01*
X139361Y-102500D01*
X139361Y-104009D01*
X130843Y-104009D01*
X130843Y-100882D01*
X128200Y-98238D01*
X127738Y-98700D01*
X130106Y-101067D01*
X130106Y-104009D01*
X129149Y-104009D01*
X129149Y-101873D01*
X129149Y-100873D01*
X129135Y-100657D01*
X129079Y-100521D01*
X128986Y-100493D01*
X128906Y-100573D01*
X128906Y-100413D01*
X128878Y-100320D01*
X128673Y-100250D01*
X128457Y-100264D01*
X128321Y-100320D01*
X128293Y-100413D01*
X128600Y-100719D01*
X128906Y-100413D01*
X128906Y-100573D01*
X128680Y-100800D01*
X128986Y-101106D01*
X129079Y-101078D01*
X129149Y-100873D01*
X129149Y-101873D01*
X129135Y-101657D01*
X129079Y-101521D01*
X128986Y-101493D01*
X128906Y-101573D01*
X128906Y-101413D01*
X128878Y-101320D01*
X128822Y-101301D01*
X128878Y-101279D01*
X128906Y-101186D01*
X128600Y-100880D01*
X128519Y-100960D01*
X128519Y-100800D01*
X128213Y-100493D01*
X128120Y-100521D01*
X128050Y-100726D01*
X128064Y-100942D01*
X128120Y-101078D01*
X128213Y-101106D01*
X128519Y-100800D01*
X128519Y-100960D01*
X128293Y-101186D01*
X128321Y-101279D01*
X128377Y-101298D01*
X128321Y-101320D01*
X128293Y-101413D01*
X128600Y-101719D01*
X128906Y-101413D01*
X128906Y-101573D01*
X128680Y-101800D01*
X128986Y-102106D01*
X129079Y-102078D01*
X129149Y-101873D01*
X129149Y-104009D01*
X128906Y-104009D01*
X128906Y-102186D01*
X128600Y-101880D01*
X128519Y-101960D01*
X128519Y-101800D01*
X128213Y-101493D01*
X128120Y-101521D01*
X128050Y-101726D01*
X128064Y-101942D01*
X128120Y-102078D01*
X128213Y-102106D01*
X128519Y-101800D01*
X128519Y-101960D01*
X128293Y-102186D01*
X128321Y-102279D01*
X128526Y-102349D01*
X128742Y-102335D01*
X128878Y-102279D01*
X128906Y-102186D01*
X128906Y-104009D01*
X128041Y-104009D01*
X128041Y-101712D01*
X128041Y-100712D01*
X127974Y-100550D01*
X127850Y-100425D01*
X127688Y-100358D01*
X127512Y-100358D01*
X127350Y-100425D01*
X127225Y-100549D01*
X127158Y-100711D01*
X127158Y-100887D01*
X127225Y-101049D01*
X127349Y-101174D01*
X127511Y-101241D01*
X127687Y-101241D01*
X127849Y-101174D01*
X127974Y-101050D01*
X128041Y-100888D01*
X128041Y-100712D01*
X128041Y-101712D01*
X127974Y-101550D01*
X127850Y-101425D01*
X127688Y-101358D01*
X127512Y-101358D01*
X127350Y-101425D01*
X127225Y-101549D01*
X127158Y-101711D01*
X127158Y-101887D01*
X127225Y-102049D01*
X127349Y-102174D01*
X127511Y-102241D01*
X127687Y-102241D01*
X127849Y-102174D01*
X127974Y-102050D01*
X128041Y-101888D01*
X128041Y-101712D01*
X128041Y-104009D01*
X127041Y-104009D01*
X127041Y-101712D01*
X127041Y-100712D01*
X126974Y-100550D01*
X126850Y-100425D01*
X126688Y-100358D01*
X126512Y-100358D01*
X126350Y-100425D01*
X126225Y-100549D01*
X126158Y-100711D01*
X126158Y-100887D01*
X126225Y-101049D01*
X126349Y-101174D01*
X126511Y-101241D01*
X126687Y-101241D01*
X126849Y-101174D01*
X126974Y-101050D01*
X127041Y-100888D01*
X127041Y-100712D01*
X127041Y-101712D01*
X126974Y-101550D01*
X126850Y-101425D01*
X126688Y-101358D01*
X126512Y-101358D01*
X126350Y-101425D01*
X126225Y-101549D01*
X126158Y-101711D01*
X126158Y-101887D01*
X126225Y-102049D01*
X126349Y-102174D01*
X126511Y-102241D01*
X126687Y-102241D01*
X126849Y-102174D01*
X126974Y-102050D01*
X127041Y-101888D01*
X127041Y-101712D01*
X127041Y-104009D01*
X126929Y-104009D01*
X125290Y-102370D01*
X125290Y-102115D01*
X125349Y-102174D01*
X125511Y-102241D01*
X125687Y-102241D01*
X125849Y-102174D01*
X125974Y-102050D01*
X126041Y-101888D01*
X126041Y-101712D01*
X125974Y-101550D01*
X125850Y-101425D01*
X125688Y-101358D01*
X125512Y-101358D01*
X125350Y-101425D01*
X125290Y-101484D01*
X125290Y-101115D01*
X125349Y-101174D01*
X125511Y-101241D01*
X125687Y-101241D01*
X125849Y-101174D01*
X125974Y-101050D01*
X126041Y-100888D01*
X126041Y-100712D01*
X125974Y-100550D01*
X125850Y-100425D01*
X125688Y-100358D01*
X125512Y-100358D01*
X125350Y-100425D01*
X125225Y-100549D01*
X125158Y-100711D01*
X125158Y-100838D01*
X125051Y-100731D01*
X125051Y-92920D01*
X124990Y-92772D01*
X124927Y-92709D01*
X124927Y-92357D01*
X124650Y-92080D01*
X124569Y-92160D01*
X124569Y-92000D01*
X124292Y-91722D01*
X124204Y-91746D01*
X124140Y-91936D01*
X124155Y-92135D01*
X124191Y-92223D01*
X124127Y-92159D01*
X123980Y-92098D01*
X123820Y-92098D01*
X123672Y-92159D01*
X123559Y-92272D01*
X123498Y-92419D01*
X123498Y-92579D01*
X123559Y-92727D01*
X123672Y-92840D01*
X123819Y-92901D01*
X123979Y-92901D01*
X124127Y-92840D01*
X124240Y-92727D01*
X124301Y-92580D01*
X124301Y-92420D01*
X124240Y-92272D01*
X124228Y-92260D01*
X124292Y-92277D01*
X124569Y-92000D01*
X124569Y-92160D01*
X124372Y-92357D01*
X124396Y-92445D01*
X124586Y-92509D01*
X124785Y-92494D01*
X124903Y-92445D01*
X124927Y-92357D01*
X124927Y-92709D01*
X124877Y-92659D01*
X124730Y-92598D01*
X124570Y-92598D01*
X124422Y-92659D01*
X124309Y-92772D01*
X124248Y-92919D01*
X124248Y-93079D01*
X124309Y-93227D01*
X124422Y-93340D01*
X124569Y-93401D01*
X124729Y-93401D01*
X124877Y-93340D01*
X124990Y-93227D01*
X125051Y-93080D01*
X125051Y-92920D01*
X125051Y-100731D01*
X125041Y-100721D01*
X125041Y-100712D01*
X124974Y-100550D01*
X124850Y-100425D01*
X124688Y-100358D01*
X124512Y-100358D01*
X124350Y-100425D01*
X124225Y-100549D01*
X124158Y-100711D01*
X124158Y-100887D01*
X124225Y-101049D01*
X124349Y-101174D01*
X124511Y-101241D01*
X124687Y-101241D01*
X124849Y-101174D01*
X124902Y-101122D01*
X124909Y-101129D01*
X124909Y-101484D01*
X124850Y-101425D01*
X124688Y-101358D01*
X124512Y-101358D01*
X124350Y-101425D01*
X124225Y-101549D01*
X124158Y-101711D01*
X124158Y-101887D01*
X124225Y-102049D01*
X124349Y-102174D01*
X124409Y-102199D01*
X124409Y-103200D01*
X124141Y-103468D01*
X124141Y-94962D01*
X124074Y-94800D01*
X123950Y-94675D01*
X123916Y-94661D01*
X123916Y-94488D01*
X123949Y-94474D01*
X124074Y-94350D01*
X124141Y-94188D01*
X124141Y-94012D01*
X124074Y-93850D01*
X123950Y-93725D01*
X123916Y-93711D01*
X123916Y-93600D01*
X123900Y-93517D01*
X123853Y-93446D01*
X122788Y-92381D01*
X122811Y-92391D01*
X122987Y-92391D01*
X123149Y-92324D01*
X123274Y-92200D01*
X123341Y-92038D01*
X123341Y-91862D01*
X123341Y-90962D01*
X123324Y-90919D01*
X123324Y-86997D01*
X123310Y-86791D01*
X123306Y-86782D01*
X123306Y-86236D01*
X123000Y-85930D01*
X122919Y-86010D01*
X122919Y-85850D01*
X122613Y-85543D01*
X122520Y-85571D01*
X122450Y-85776D01*
X122464Y-85992D01*
X122520Y-86128D01*
X122613Y-86156D01*
X122919Y-85850D01*
X122919Y-86010D01*
X122693Y-86236D01*
X122721Y-86329D01*
X122926Y-86399D01*
X123142Y-86385D01*
X123278Y-86329D01*
X123306Y-86236D01*
X123306Y-86782D01*
X123258Y-86667D01*
X123168Y-86641D01*
X123088Y-86722D01*
X123088Y-86561D01*
X123062Y-86471D01*
X122867Y-86405D01*
X122661Y-86419D01*
X122537Y-86471D01*
X122511Y-86561D01*
X122800Y-86849D01*
X123088Y-86561D01*
X123088Y-86722D01*
X122880Y-86930D01*
X123168Y-87218D01*
X123258Y-87192D01*
X123324Y-86997D01*
X123324Y-90919D01*
X123274Y-90800D01*
X123216Y-90742D01*
X123216Y-88847D01*
X123216Y-87847D01*
X123153Y-87694D01*
X123088Y-87628D01*
X123088Y-87298D01*
X122800Y-87010D01*
X122719Y-87090D01*
X122719Y-86930D01*
X122431Y-86641D01*
X122341Y-86667D01*
X122275Y-86862D01*
X122289Y-87068D01*
X122341Y-87192D01*
X122431Y-87218D01*
X122719Y-86930D01*
X122719Y-87090D01*
X122511Y-87298D01*
X122537Y-87388D01*
X122732Y-87454D01*
X122938Y-87440D01*
X123062Y-87388D01*
X123088Y-87298D01*
X123088Y-87628D01*
X123036Y-87576D01*
X122883Y-87513D01*
X122717Y-87513D01*
X122564Y-87576D01*
X122446Y-87693D01*
X122383Y-87846D01*
X122383Y-88012D01*
X122446Y-88165D01*
X122563Y-88283D01*
X122716Y-88346D01*
X122882Y-88346D01*
X123035Y-88283D01*
X123153Y-88166D01*
X123216Y-88013D01*
X123216Y-87847D01*
X123216Y-88847D01*
X123153Y-88694D01*
X123036Y-88576D01*
X122883Y-88513D01*
X122717Y-88513D01*
X122564Y-88576D01*
X122446Y-88693D01*
X122383Y-88846D01*
X122383Y-89012D01*
X122446Y-89165D01*
X122563Y-89283D01*
X122716Y-89346D01*
X122882Y-89346D01*
X123035Y-89283D01*
X123153Y-89166D01*
X123216Y-89013D01*
X123216Y-88847D01*
X123216Y-90742D01*
X123216Y-90742D01*
X123216Y-90176D01*
X123216Y-89626D01*
X123195Y-89574D01*
X123155Y-89534D01*
X123103Y-89513D01*
X123046Y-89513D01*
X122496Y-89513D01*
X122444Y-89534D01*
X122404Y-89574D01*
X122383Y-89626D01*
X122383Y-89683D01*
X122383Y-90233D01*
X122404Y-90285D01*
X122444Y-90325D01*
X122496Y-90346D01*
X122553Y-90346D01*
X123103Y-90346D01*
X123155Y-90325D01*
X123195Y-90285D01*
X123216Y-90233D01*
X123216Y-90176D01*
X123216Y-90742D01*
X123150Y-90675D01*
X122988Y-90608D01*
X122812Y-90608D01*
X122650Y-90675D01*
X122525Y-90799D01*
X122458Y-90961D01*
X122458Y-91137D01*
X122525Y-91299D01*
X122649Y-91424D01*
X122811Y-91491D01*
X122987Y-91491D01*
X123149Y-91424D01*
X123274Y-91300D01*
X123341Y-91138D01*
X123341Y-90962D01*
X123341Y-91862D01*
X123274Y-91700D01*
X123150Y-91575D01*
X122988Y-91508D01*
X122812Y-91508D01*
X122650Y-91575D01*
X122525Y-91699D01*
X122458Y-91861D01*
X122458Y-92037D01*
X122468Y-92062D01*
X122266Y-91860D01*
X122266Y-89000D01*
X122250Y-88917D01*
X122203Y-88846D01*
X122203Y-88846D01*
X121133Y-87776D01*
X121062Y-87729D01*
X120980Y-87713D01*
X120216Y-87713D01*
X120216Y-86847D01*
X120153Y-86694D01*
X120036Y-86576D01*
X119883Y-86513D01*
X119792Y-86513D01*
X119375Y-86096D01*
X119441Y-85938D01*
X119441Y-85762D01*
X119374Y-85600D01*
X119289Y-85514D01*
X119289Y-85235D01*
X119374Y-85150D01*
X119441Y-84988D01*
X119441Y-84812D01*
X119374Y-84650D01*
X119250Y-84525D01*
X119088Y-84458D01*
X118912Y-84458D01*
X118750Y-84525D01*
X118625Y-84649D01*
X118558Y-84811D01*
X118558Y-84987D01*
X118625Y-85149D01*
X118710Y-85235D01*
X118710Y-85514D01*
X118625Y-85599D01*
X118558Y-85761D01*
X118558Y-85937D01*
X118625Y-86099D01*
X118724Y-86199D01*
X118732Y-86240D01*
X118795Y-86334D01*
X119383Y-86922D01*
X119383Y-87012D01*
X119446Y-87165D01*
X119563Y-87283D01*
X119716Y-87346D01*
X119882Y-87346D01*
X120035Y-87283D01*
X120153Y-87166D01*
X120216Y-87013D01*
X120216Y-86847D01*
X120216Y-87713D01*
X120161Y-87713D01*
X120153Y-87694D01*
X120036Y-87576D01*
X119883Y-87513D01*
X119717Y-87513D01*
X119564Y-87576D01*
X119446Y-87693D01*
X119383Y-87846D01*
X119383Y-88012D01*
X119446Y-88165D01*
X119563Y-88283D01*
X119716Y-88346D01*
X119882Y-88346D01*
X120035Y-88283D01*
X120153Y-88166D01*
X120161Y-88146D01*
X120890Y-88146D01*
X121833Y-89089D01*
X121833Y-91950D01*
X121849Y-92032D01*
X121896Y-92103D01*
X122377Y-92583D01*
X122217Y-92583D01*
X122064Y-92646D01*
X121946Y-92763D01*
X121883Y-92916D01*
X121883Y-93082D01*
X121946Y-93235D01*
X122063Y-93353D01*
X122216Y-93416D01*
X122382Y-93416D01*
X122535Y-93353D01*
X122653Y-93236D01*
X122716Y-93083D01*
X122716Y-92923D01*
X123483Y-93689D01*
X123483Y-93711D01*
X123450Y-93725D01*
X123325Y-93849D01*
X123258Y-94011D01*
X123258Y-94187D01*
X123325Y-94349D01*
X123449Y-94474D01*
X123483Y-94488D01*
X123483Y-94661D01*
X123450Y-94675D01*
X123325Y-94799D01*
X123258Y-94961D01*
X123258Y-95137D01*
X123325Y-95299D01*
X123449Y-95424D01*
X123611Y-95491D01*
X123787Y-95491D01*
X123949Y-95424D01*
X124074Y-95300D01*
X124141Y-95138D01*
X124141Y-94962D01*
X124141Y-103468D01*
X124041Y-103568D01*
X124041Y-101712D01*
X124041Y-100712D01*
X123974Y-100550D01*
X123850Y-100425D01*
X123688Y-100358D01*
X123512Y-100358D01*
X123350Y-100425D01*
X123225Y-100549D01*
X123158Y-100711D01*
X123158Y-100887D01*
X123225Y-101049D01*
X123349Y-101174D01*
X123511Y-101241D01*
X123687Y-101241D01*
X123849Y-101174D01*
X123974Y-101050D01*
X124041Y-100888D01*
X124041Y-100712D01*
X124041Y-101712D01*
X123974Y-101550D01*
X123850Y-101425D01*
X123688Y-101358D01*
X123512Y-101358D01*
X123350Y-101425D01*
X123225Y-101549D01*
X123158Y-101711D01*
X123158Y-101887D01*
X123225Y-102049D01*
X123349Y-102174D01*
X123511Y-102241D01*
X123687Y-102241D01*
X123849Y-102174D01*
X123974Y-102050D01*
X124041Y-101888D01*
X124041Y-101712D01*
X124041Y-103568D01*
X123420Y-104189D01*
X123070Y-104189D01*
X123070Y-103132D01*
X123033Y-103044D01*
X122966Y-102976D01*
X122877Y-102939D01*
X122782Y-102939D01*
X122694Y-102976D01*
X122681Y-102989D01*
X122323Y-102989D01*
X122345Y-102937D01*
X122345Y-102842D01*
X122308Y-102754D01*
X122295Y-102741D01*
X122295Y-102120D01*
X122349Y-102174D01*
X122511Y-102241D01*
X122687Y-102241D01*
X122849Y-102174D01*
X122974Y-102050D01*
X123041Y-101888D01*
X123041Y-101712D01*
X122974Y-101550D01*
X122850Y-101425D01*
X122688Y-101358D01*
X122512Y-101358D01*
X122350Y-101425D01*
X122295Y-101479D01*
X122295Y-101120D01*
X122349Y-101174D01*
X122511Y-101241D01*
X122687Y-101241D01*
X122849Y-101174D01*
X122974Y-101050D01*
X123041Y-100888D01*
X123041Y-100712D01*
X122974Y-100550D01*
X122850Y-100425D01*
X122688Y-100358D01*
X122512Y-100358D01*
X122350Y-100425D01*
X122295Y-100479D01*
X122295Y-99385D01*
X122281Y-99311D01*
X122281Y-99311D01*
X122240Y-99249D01*
X120740Y-97750D01*
X120740Y-97499D01*
X120799Y-97474D01*
X120924Y-97350D01*
X120949Y-97290D01*
X121150Y-97290D01*
X121175Y-97349D01*
X121299Y-97474D01*
X121461Y-97541D01*
X121637Y-97541D01*
X121799Y-97474D01*
X121924Y-97350D01*
X121991Y-97188D01*
X121991Y-97012D01*
X121991Y-97012D01*
X121991Y-96371D01*
X121991Y-95771D01*
X121970Y-95719D01*
X121930Y-95679D01*
X121878Y-95658D01*
X121821Y-95658D01*
X121716Y-95658D01*
X121716Y-92917D01*
X121653Y-92764D01*
X121536Y-92646D01*
X121383Y-92583D01*
X121217Y-92583D01*
X121064Y-92646D01*
X120946Y-92763D01*
X120883Y-92916D01*
X120883Y-93082D01*
X120946Y-93235D01*
X121063Y-93353D01*
X121216Y-93416D01*
X121382Y-93416D01*
X121535Y-93353D01*
X121653Y-93236D01*
X121716Y-93083D01*
X121716Y-92917D01*
X121716Y-95658D01*
X121221Y-95658D01*
X121169Y-95679D01*
X121129Y-95719D01*
X121108Y-95771D01*
X121108Y-95828D01*
X121108Y-96428D01*
X121129Y-96480D01*
X121169Y-96520D01*
X121221Y-96541D01*
X121278Y-96541D01*
X121878Y-96541D01*
X121930Y-96520D01*
X121970Y-96480D01*
X121991Y-96428D01*
X121991Y-96371D01*
X121991Y-97012D01*
X121924Y-96850D01*
X121800Y-96725D01*
X121638Y-96658D01*
X121462Y-96658D01*
X121300Y-96725D01*
X121175Y-96849D01*
X121150Y-96909D01*
X120991Y-96909D01*
X120991Y-96012D01*
X120924Y-95850D01*
X120800Y-95725D01*
X120766Y-95711D01*
X120766Y-95600D01*
X120750Y-95517D01*
X120716Y-95467D01*
X120716Y-93246D01*
X120716Y-92696D01*
X120695Y-92644D01*
X120655Y-92604D01*
X120603Y-92583D01*
X120546Y-92583D01*
X119996Y-92583D01*
X119944Y-92604D01*
X119904Y-92644D01*
X119883Y-92696D01*
X119883Y-92753D01*
X119883Y-93303D01*
X119904Y-93355D01*
X119944Y-93395D01*
X119996Y-93416D01*
X120053Y-93416D01*
X120603Y-93416D01*
X120655Y-93395D01*
X120695Y-93355D01*
X120716Y-93303D01*
X120716Y-93246D01*
X120716Y-95467D01*
X120703Y-95446D01*
X120703Y-95446D01*
X120153Y-94896D01*
X120141Y-94889D01*
X120141Y-94012D01*
X120074Y-93850D01*
X119950Y-93725D01*
X119788Y-93658D01*
X119612Y-93658D01*
X119450Y-93725D01*
X119325Y-93849D01*
X119258Y-94011D01*
X119258Y-94187D01*
X119325Y-94349D01*
X119449Y-94474D01*
X119611Y-94541D01*
X119787Y-94541D01*
X119949Y-94474D01*
X120074Y-94350D01*
X120141Y-94188D01*
X120141Y-94012D01*
X120141Y-94889D01*
X120100Y-94861D01*
X120074Y-94800D01*
X119950Y-94675D01*
X119788Y-94608D01*
X119612Y-94608D01*
X119450Y-94675D01*
X119415Y-94709D01*
X119216Y-94510D01*
X119216Y-93289D01*
X120753Y-91753D01*
X120753Y-91753D01*
X120753Y-91753D01*
X120800Y-91682D01*
X120800Y-91682D01*
X120813Y-91616D01*
X120816Y-91600D01*
X120816Y-91600D01*
X120816Y-91600D01*
X120816Y-89450D01*
X120800Y-89367D01*
X120753Y-89296D01*
X120233Y-88776D01*
X120170Y-88734D01*
X120153Y-88694D01*
X120036Y-88576D01*
X119883Y-88513D01*
X119717Y-88513D01*
X119564Y-88576D01*
X119446Y-88693D01*
X119383Y-88846D01*
X119383Y-89012D01*
X119446Y-89165D01*
X119563Y-89283D01*
X119716Y-89346D01*
X119882Y-89346D01*
X120035Y-89283D01*
X120081Y-89237D01*
X120383Y-89539D01*
X120383Y-91510D01*
X120216Y-91676D01*
X120216Y-89847D01*
X120153Y-89694D01*
X120036Y-89576D01*
X119883Y-89513D01*
X119717Y-89513D01*
X119564Y-89576D01*
X119446Y-89693D01*
X119383Y-89846D01*
X119383Y-90012D01*
X119446Y-90165D01*
X119510Y-90229D01*
X119510Y-91330D01*
X119341Y-91498D01*
X119341Y-90962D01*
X119274Y-90800D01*
X119150Y-90675D01*
X118988Y-90608D01*
X118812Y-90608D01*
X118650Y-90675D01*
X118525Y-90799D01*
X118458Y-90961D01*
X118458Y-91137D01*
X118525Y-91299D01*
X118649Y-91424D01*
X118811Y-91491D01*
X118987Y-91491D01*
X119149Y-91424D01*
X119274Y-91300D01*
X119341Y-91138D01*
X119341Y-90962D01*
X119341Y-91498D01*
X119207Y-91633D01*
X119150Y-91575D01*
X118988Y-91508D01*
X118812Y-91508D01*
X118650Y-91575D01*
X118525Y-91699D01*
X118458Y-91861D01*
X118458Y-92037D01*
X118525Y-92199D01*
X118649Y-92324D01*
X118811Y-92391D01*
X118987Y-92391D01*
X119149Y-92324D01*
X119235Y-92239D01*
X119300Y-92239D01*
X119300Y-92239D01*
X119410Y-92217D01*
X119504Y-92154D01*
X120004Y-91654D01*
X120004Y-91654D01*
X120067Y-91560D01*
X120089Y-91450D01*
X120089Y-91450D01*
X120089Y-90229D01*
X120153Y-90166D01*
X120216Y-90013D01*
X120216Y-89847D01*
X120216Y-91676D01*
X118846Y-93046D01*
X118799Y-93117D01*
X118783Y-93200D01*
X118783Y-94600D01*
X118799Y-94682D01*
X118846Y-94753D01*
X119277Y-95183D01*
X119325Y-95299D01*
X119449Y-95424D01*
X119611Y-95491D01*
X119787Y-95491D01*
X119949Y-95424D01*
X120009Y-95365D01*
X120333Y-95689D01*
X120333Y-95711D01*
X120300Y-95725D01*
X120175Y-95849D01*
X120108Y-96011D01*
X120108Y-96187D01*
X120175Y-96349D01*
X120299Y-96474D01*
X120461Y-96541D01*
X120637Y-96541D01*
X120799Y-96474D01*
X120924Y-96350D01*
X120991Y-96188D01*
X120991Y-96012D01*
X120991Y-96909D01*
X120949Y-96909D01*
X120924Y-96850D01*
X120800Y-96725D01*
X120638Y-96658D01*
X120462Y-96658D01*
X120300Y-96725D01*
X120175Y-96849D01*
X120108Y-97011D01*
X120108Y-97187D01*
X120175Y-97349D01*
X120299Y-97474D01*
X120359Y-97499D01*
X120359Y-97830D01*
X120373Y-97903D01*
X120414Y-97965D01*
X121914Y-99464D01*
X121914Y-100489D01*
X121850Y-100425D01*
X121688Y-100358D01*
X121512Y-100358D01*
X121350Y-100425D01*
X121225Y-100549D01*
X121158Y-100711D01*
X121158Y-100887D01*
X121225Y-101049D01*
X121349Y-101174D01*
X121511Y-101241D01*
X121687Y-101241D01*
X121849Y-101174D01*
X121914Y-101110D01*
X121914Y-101489D01*
X121850Y-101425D01*
X121688Y-101358D01*
X121512Y-101358D01*
X121350Y-101425D01*
X121225Y-101549D01*
X121158Y-101711D01*
X121158Y-101887D01*
X121225Y-102049D01*
X121349Y-102174D01*
X121409Y-102199D01*
X121409Y-102900D01*
X121423Y-102973D01*
X121464Y-103035D01*
X121744Y-103315D01*
X121744Y-103315D01*
X121791Y-103345D01*
X121806Y-103356D01*
X121806Y-103356D01*
X121880Y-103370D01*
X122681Y-103370D01*
X122693Y-103383D01*
X122782Y-103420D01*
X122877Y-103420D01*
X122965Y-103383D01*
X123033Y-103316D01*
X123070Y-103227D01*
X123070Y-103132D01*
X123070Y-104189D01*
X121438Y-104189D01*
X121426Y-104176D01*
X121337Y-104139D01*
X121242Y-104139D01*
X121154Y-104176D01*
X121086Y-104243D01*
X121049Y-104332D01*
X121049Y-104427D01*
X121086Y-104515D01*
X121153Y-104583D01*
X121177Y-104593D01*
X120729Y-104593D01*
X120056Y-103920D01*
X120056Y-102256D01*
X120600Y-102256D01*
X120674Y-102241D01*
X120687Y-102241D01*
X120699Y-102236D01*
X120774Y-102221D01*
X120838Y-102179D01*
X120849Y-102174D01*
X120858Y-102165D01*
X120922Y-102122D01*
X120965Y-102059D01*
X120974Y-102050D01*
X120979Y-102038D01*
X121021Y-101974D01*
X121036Y-101899D01*
X121041Y-101888D01*
X121041Y-101875D01*
X121056Y-101800D01*
X121056Y-100800D01*
X121041Y-100725D01*
X121041Y-100712D01*
X121036Y-100700D01*
X121021Y-100625D01*
X120979Y-100561D01*
X120974Y-100550D01*
X120965Y-100541D01*
X120922Y-100477D01*
X120859Y-100434D01*
X120850Y-100425D01*
X120838Y-100420D01*
X120774Y-100378D01*
X120699Y-100363D01*
X120688Y-100358D01*
X120675Y-100358D01*
X120600Y-100343D01*
X119600Y-100343D01*
X119525Y-100358D01*
X119512Y-100358D01*
X119500Y-100363D01*
X119425Y-100378D01*
X119361Y-100420D01*
X119350Y-100425D01*
X119341Y-100434D01*
X119277Y-100477D01*
X119234Y-100540D01*
X119225Y-100549D01*
X119220Y-100561D01*
X119178Y-100625D01*
X119163Y-100700D01*
X119158Y-100711D01*
X119158Y-100724D01*
X119143Y-100800D01*
X119158Y-100874D01*
X119158Y-100887D01*
X119163Y-100899D01*
X119178Y-100974D01*
X119220Y-101038D01*
X119225Y-101049D01*
X119234Y-101058D01*
X119277Y-101122D01*
X119340Y-101165D01*
X119349Y-101174D01*
X119361Y-101179D01*
X119425Y-101221D01*
X119500Y-101236D01*
X119511Y-101241D01*
X119524Y-101241D01*
X119600Y-101256D01*
X120143Y-101256D01*
X120143Y-101343D01*
X119600Y-101343D01*
X119524Y-101358D01*
X119271Y-101358D01*
X119219Y-101379D01*
X119179Y-101419D01*
X119158Y-101471D01*
X119158Y-101528D01*
X119158Y-101724D01*
X119143Y-101800D01*
X119143Y-104110D01*
X119178Y-104284D01*
X119277Y-104432D01*
X120217Y-105372D01*
X120365Y-105471D01*
X120540Y-105506D01*
X123200Y-105506D01*
X124610Y-105506D01*
X125243Y-106139D01*
X125243Y-106550D01*
X125278Y-106724D01*
X125377Y-106872D01*
X125525Y-106971D01*
X125700Y-107006D01*
X125874Y-106971D01*
X126022Y-106872D01*
X126121Y-106724D01*
X126156Y-106550D01*
X126156Y-105950D01*
X126121Y-105775D01*
X126022Y-105627D01*
X125122Y-104727D01*
X124974Y-104628D01*
X124800Y-104593D01*
X123200Y-104593D01*
X121402Y-104593D01*
X121425Y-104583D01*
X121438Y-104570D01*
X123500Y-104570D01*
X123573Y-104556D01*
X123573Y-104556D01*
X123635Y-104515D01*
X124735Y-103415D01*
X124735Y-103415D01*
X124735Y-103415D01*
X124765Y-103368D01*
X124776Y-103353D01*
X124776Y-103353D01*
X124776Y-103353D01*
X124790Y-103280D01*
X124790Y-102199D01*
X124849Y-102174D01*
X124909Y-102115D01*
X124909Y-102450D01*
X124923Y-102523D01*
X124964Y-102585D01*
X126714Y-104335D01*
X126776Y-104376D01*
X126776Y-104376D01*
X126850Y-104390D01*
X130106Y-104390D01*
X130106Y-105893D01*
X131232Y-105893D01*
X132937Y-107599D01*
X132631Y-107599D01*
X132631Y-107486D01*
X132610Y-107434D01*
X132570Y-107394D01*
X132518Y-107373D01*
X132461Y-107373D01*
X131911Y-107373D01*
X131859Y-107394D01*
X131819Y-107434D01*
X131801Y-107478D01*
X131801Y-106857D01*
X131734Y-106695D01*
X131610Y-106570D01*
X131448Y-106503D01*
X131272Y-106503D01*
X131110Y-106570D01*
X130985Y-106694D01*
X130918Y-106856D01*
X130918Y-107032D01*
X130985Y-107194D01*
X131109Y-107319D01*
X131271Y-107386D01*
X131447Y-107386D01*
X131609Y-107319D01*
X131734Y-107195D01*
X131801Y-107033D01*
X131801Y-106857D01*
X131801Y-107478D01*
X131798Y-107486D01*
X131798Y-107543D01*
X131798Y-107936D01*
X131625Y-108109D01*
X125133Y-108109D01*
X125133Y-107174D01*
X125037Y-106941D01*
X124859Y-106763D01*
X124626Y-106666D01*
X124374Y-106666D01*
X124141Y-106762D01*
X123963Y-106940D01*
X123866Y-107173D01*
X123866Y-107425D01*
X123962Y-107658D01*
X124140Y-107836D01*
X124373Y-107933D01*
X124625Y-107933D01*
X124858Y-107837D01*
X125036Y-107659D01*
X125133Y-107426D01*
X125133Y-107174D01*
X125133Y-108109D01*
X124100Y-108109D01*
X123598Y-108109D01*
X123581Y-108091D01*
X123492Y-108054D01*
X123397Y-108054D01*
X123309Y-108091D01*
X123241Y-108158D01*
X123204Y-108247D01*
X123204Y-108342D01*
X123241Y-108430D01*
X123308Y-108498D01*
X123397Y-108535D01*
X123492Y-108535D01*
X123580Y-108498D01*
X123588Y-108490D01*
X124100Y-108490D01*
X131705Y-108490D01*
X131778Y-108476D01*
X131778Y-108476D01*
X131840Y-108435D01*
X132068Y-108206D01*
X132518Y-108206D01*
X132570Y-108185D01*
X132610Y-108145D01*
X132631Y-108093D01*
X132631Y-108036D01*
X132631Y-107980D01*
X133319Y-107980D01*
X133606Y-108267D01*
X133606Y-110638D01*
X132904Y-110777D01*
X132900Y-110777D01*
X132822Y-110809D01*
X132631Y-110936D01*
X132631Y-109707D01*
X132631Y-108707D01*
X132568Y-108554D01*
X132451Y-108436D01*
X132298Y-108373D01*
X132132Y-108373D01*
X131979Y-108436D01*
X131861Y-108553D01*
X131798Y-108706D01*
X131798Y-108872D01*
X131861Y-109025D01*
X131978Y-109143D01*
X132131Y-109206D01*
X132297Y-109206D01*
X132450Y-109143D01*
X132568Y-109026D01*
X132631Y-108873D01*
X132631Y-108707D01*
X132631Y-109707D01*
X132568Y-109554D01*
X132451Y-109436D01*
X132298Y-109373D01*
X132132Y-109373D01*
X131979Y-109436D01*
X131861Y-109553D01*
X131798Y-109706D01*
X131798Y-109872D01*
X131861Y-110025D01*
X131978Y-110143D01*
X132131Y-110206D01*
X132297Y-110206D01*
X132450Y-110143D01*
X132568Y-110026D01*
X132631Y-109873D01*
X132631Y-109707D01*
X132631Y-110936D01*
X132011Y-111352D01*
X131951Y-111411D01*
X131950Y-111415D01*
X131909Y-111477D01*
X131909Y-111018D01*
X131895Y-110802D01*
X131839Y-110666D01*
X131746Y-110638D01*
X131666Y-110718D01*
X131666Y-110558D01*
X131638Y-110465D01*
X131433Y-110395D01*
X131217Y-110409D01*
X131081Y-110465D01*
X131053Y-110558D01*
X131360Y-110864D01*
X131666Y-110558D01*
X131666Y-110718D01*
X131440Y-110945D01*
X131746Y-111251D01*
X131839Y-111223D01*
X131909Y-111018D01*
X131909Y-111477D01*
X131666Y-111840D01*
X131666Y-111331D01*
X131360Y-111025D01*
X131279Y-111105D01*
X131279Y-110945D01*
X130973Y-110638D01*
X130880Y-110666D01*
X130810Y-110871D01*
X130824Y-111087D01*
X130880Y-111223D01*
X130973Y-111251D01*
X131279Y-110945D01*
X131279Y-111105D01*
X131053Y-111331D01*
X131081Y-111424D01*
X131286Y-111494D01*
X131502Y-111480D01*
X131638Y-111424D01*
X131666Y-111331D01*
X131666Y-111840D01*
X131412Y-112219D01*
X131409Y-112222D01*
X131376Y-112301D01*
X131221Y-113083D01*
X125321Y-113083D01*
X125430Y-112974D01*
X125527Y-112741D01*
X125527Y-112489D01*
X125431Y-112256D01*
X125253Y-112078D01*
X125020Y-111981D01*
X124768Y-111981D01*
X124535Y-112077D01*
X124357Y-112255D01*
X124260Y-112488D01*
X124260Y-112740D01*
X124356Y-112973D01*
X124465Y-113083D01*
X122565Y-113083D01*
X122565Y-107327D01*
X122528Y-107239D01*
X122461Y-107171D01*
X122372Y-107134D01*
X122354Y-107134D01*
X121975Y-106754D01*
X121913Y-106713D01*
X121840Y-106699D01*
X121033Y-106699D01*
X121021Y-106686D01*
X120932Y-106649D01*
X120837Y-106649D01*
X120749Y-106686D01*
X120681Y-106753D01*
X120644Y-106842D01*
X120644Y-106937D01*
X120681Y-107025D01*
X120748Y-107093D01*
X120837Y-107130D01*
X120932Y-107130D01*
X121020Y-107093D01*
X121033Y-107080D01*
X121760Y-107080D01*
X122084Y-107404D01*
X122084Y-107422D01*
X122121Y-107510D01*
X122188Y-107578D01*
X122277Y-107615D01*
X122372Y-107615D01*
X122460Y-107578D01*
X122528Y-107511D01*
X122565Y-107422D01*
X122565Y-107327D01*
X122565Y-113083D01*
X119739Y-113083D01*
X119739Y-107174D01*
X119643Y-106941D01*
X119465Y-106763D01*
X119232Y-106666D01*
X118980Y-106666D01*
X118747Y-106762D01*
X118569Y-106940D01*
X118472Y-107173D01*
X118472Y-107425D01*
X118568Y-107658D01*
X118746Y-107836D01*
X118979Y-107933D01*
X119231Y-107933D01*
X119464Y-107837D01*
X119642Y-107659D01*
X119739Y-107426D01*
X119739Y-107174D01*
X119739Y-113083D01*
X119140Y-113083D01*
X119249Y-112974D01*
X119346Y-112741D01*
X119346Y-112489D01*
X119250Y-112256D01*
X119072Y-112078D01*
X118839Y-111981D01*
X118587Y-111981D01*
X118354Y-112077D01*
X118316Y-112115D01*
X118316Y-83616D01*
X130456Y-83616D01*
X130456Y-89732D01*
X130391Y-89796D01*
X130391Y-86912D01*
X130391Y-85962D01*
X130324Y-85800D01*
X130200Y-85675D01*
X130038Y-85608D01*
X129862Y-85608D01*
X129700Y-85675D01*
X129575Y-85799D01*
X129508Y-85961D01*
X129508Y-86137D01*
X129575Y-86299D01*
X129699Y-86424D01*
X129861Y-86491D01*
X130037Y-86491D01*
X130199Y-86424D01*
X130324Y-86300D01*
X130391Y-86138D01*
X130391Y-85962D01*
X130391Y-86912D01*
X130324Y-86750D01*
X130200Y-86625D01*
X130038Y-86558D01*
X129862Y-86558D01*
X129700Y-86625D01*
X129575Y-86749D01*
X129508Y-86911D01*
X129508Y-87087D01*
X129575Y-87249D01*
X129699Y-87374D01*
X129861Y-87441D01*
X130037Y-87441D01*
X130199Y-87374D01*
X130324Y-87250D01*
X130391Y-87088D01*
X130391Y-86912D01*
X130391Y-89796D01*
X130335Y-89853D01*
X130341Y-89838D01*
X130341Y-89662D01*
X130341Y-88762D01*
X130274Y-88600D01*
X130150Y-88475D01*
X129988Y-88408D01*
X129812Y-88408D01*
X129650Y-88475D01*
X129525Y-88599D01*
X129458Y-88761D01*
X129458Y-88937D01*
X129525Y-89099D01*
X129649Y-89224D01*
X129811Y-89291D01*
X129987Y-89291D01*
X130149Y-89224D01*
X130274Y-89100D01*
X130341Y-88938D01*
X130341Y-88762D01*
X130341Y-89662D01*
X130274Y-89500D01*
X130150Y-89375D01*
X129988Y-89308D01*
X129812Y-89308D01*
X129650Y-89375D01*
X129525Y-89499D01*
X129458Y-89661D01*
X129458Y-89837D01*
X129525Y-89999D01*
X129649Y-90124D01*
X129811Y-90191D01*
X129987Y-90191D01*
X130003Y-90185D01*
X129517Y-90671D01*
X129510Y-90561D01*
X129458Y-90437D01*
X129368Y-90411D01*
X129366Y-90413D01*
X129366Y-87867D01*
X129303Y-87714D01*
X129277Y-87688D01*
X129277Y-84574D01*
X129181Y-84341D01*
X129003Y-84162D01*
X128770Y-84066D01*
X128518Y-84066D01*
X128285Y-84162D01*
X128106Y-84340D01*
X128009Y-84573D01*
X128009Y-84825D01*
X128106Y-85058D01*
X128284Y-85237D01*
X128517Y-85333D01*
X128769Y-85333D01*
X129002Y-85237D01*
X129180Y-85059D01*
X129277Y-84826D01*
X129277Y-84574D01*
X129277Y-87688D01*
X129186Y-87596D01*
X129033Y-87533D01*
X128867Y-87533D01*
X128714Y-87596D01*
X128596Y-87713D01*
X128533Y-87866D01*
X128533Y-88032D01*
X128596Y-88185D01*
X128713Y-88303D01*
X128866Y-88366D01*
X129032Y-88366D01*
X129185Y-88303D01*
X129303Y-88186D01*
X129366Y-88033D01*
X129366Y-87867D01*
X129366Y-90413D01*
X129288Y-90492D01*
X129288Y-90331D01*
X129262Y-90241D01*
X129067Y-90175D01*
X128861Y-90189D01*
X128737Y-90241D01*
X128711Y-90331D01*
X129000Y-90619D01*
X129288Y-90331D01*
X129288Y-90492D01*
X129080Y-90700D01*
X129085Y-90705D01*
X129005Y-90785D01*
X129000Y-90780D01*
X128919Y-90860D01*
X128919Y-90700D01*
X128631Y-90411D01*
X128541Y-90437D01*
X128475Y-90632D01*
X128489Y-90838D01*
X128541Y-90962D01*
X128631Y-90988D01*
X128919Y-90700D01*
X128919Y-90860D01*
X128711Y-91068D01*
X128737Y-91158D01*
X128743Y-91160D01*
X127416Y-91160D01*
X127416Y-90617D01*
X127353Y-90464D01*
X127236Y-90346D01*
X127083Y-90283D01*
X126917Y-90283D01*
X126764Y-90346D01*
X126646Y-90463D01*
X126583Y-90616D01*
X126583Y-90782D01*
X126646Y-90935D01*
X126763Y-91053D01*
X126916Y-91116D01*
X127082Y-91116D01*
X127235Y-91053D01*
X127353Y-90936D01*
X127416Y-90783D01*
X127416Y-90617D01*
X127416Y-91160D01*
X126654Y-91160D01*
X126366Y-90872D01*
X126366Y-90867D01*
X126330Y-90778D01*
X127854Y-89254D01*
X127854Y-89254D01*
X127917Y-89160D01*
X127939Y-89050D01*
X127939Y-89050D01*
X127939Y-86900D01*
X127917Y-86789D01*
X127854Y-86695D01*
X127854Y-86695D01*
X127690Y-86531D01*
X127690Y-84819D01*
X127679Y-84527D01*
X127588Y-84306D01*
X127475Y-84254D01*
X127395Y-84334D01*
X127395Y-84174D01*
X127343Y-84061D01*
X127069Y-83959D01*
X126777Y-83970D01*
X126556Y-84061D01*
X126504Y-84174D01*
X126950Y-84619D01*
X127395Y-84174D01*
X127395Y-84334D01*
X127030Y-84700D01*
X127475Y-85145D01*
X127588Y-85093D01*
X127690Y-84819D01*
X127690Y-86531D01*
X127395Y-86236D01*
X127395Y-85225D01*
X126950Y-84780D01*
X126869Y-84860D01*
X126869Y-84700D01*
X126424Y-84254D01*
X126311Y-84306D01*
X126209Y-84580D01*
X126220Y-84872D01*
X126311Y-85093D01*
X126424Y-85145D01*
X126869Y-84700D01*
X126869Y-84860D01*
X126504Y-85225D01*
X126556Y-85338D01*
X126830Y-85440D01*
X127122Y-85429D01*
X127343Y-85338D01*
X127395Y-85225D01*
X127395Y-86236D01*
X127004Y-85845D01*
X126910Y-85782D01*
X126800Y-85760D01*
X126285Y-85760D01*
X126230Y-85705D01*
X126230Y-85705D01*
X126217Y-85639D01*
X126154Y-85545D01*
X126154Y-85545D01*
X125456Y-84847D01*
X125456Y-84759D01*
X125387Y-84591D01*
X125259Y-84463D01*
X125091Y-84393D01*
X124909Y-84393D01*
X124741Y-84462D01*
X124643Y-84560D01*
X124235Y-84560D01*
X124150Y-84475D01*
X123988Y-84408D01*
X123812Y-84408D01*
X123650Y-84475D01*
X123564Y-84560D01*
X123285Y-84560D01*
X123250Y-84525D01*
X123088Y-84458D01*
X122912Y-84458D01*
X122750Y-84525D01*
X122625Y-84649D01*
X122558Y-84811D01*
X122558Y-84987D01*
X122625Y-85149D01*
X122749Y-85274D01*
X122852Y-85316D01*
X122721Y-85370D01*
X122693Y-85463D01*
X123000Y-85769D01*
X123306Y-85463D01*
X123278Y-85370D01*
X123135Y-85322D01*
X123249Y-85274D01*
X123374Y-85150D01*
X123378Y-85139D01*
X123564Y-85139D01*
X123649Y-85224D01*
X123811Y-85291D01*
X123987Y-85291D01*
X124149Y-85224D01*
X124235Y-85139D01*
X124643Y-85139D01*
X124740Y-85236D01*
X124908Y-85306D01*
X125090Y-85306D01*
X125095Y-85304D01*
X125582Y-85792D01*
X125575Y-85799D01*
X125508Y-85961D01*
X125508Y-86137D01*
X125575Y-86299D01*
X125699Y-86424D01*
X125861Y-86491D01*
X126037Y-86491D01*
X126199Y-86424D01*
X126285Y-86339D01*
X126680Y-86339D01*
X127360Y-87019D01*
X127360Y-87852D01*
X127303Y-87714D01*
X127186Y-87596D01*
X127033Y-87533D01*
X126867Y-87533D01*
X126714Y-87596D01*
X126596Y-87713D01*
X126533Y-87866D01*
X126533Y-88032D01*
X126596Y-88185D01*
X126713Y-88303D01*
X126866Y-88366D01*
X127032Y-88366D01*
X127185Y-88303D01*
X127303Y-88186D01*
X127360Y-88047D01*
X127360Y-88930D01*
X126391Y-89898D01*
X126391Y-86912D01*
X126324Y-86750D01*
X126200Y-86625D01*
X126038Y-86558D01*
X125862Y-86558D01*
X125700Y-86625D01*
X125575Y-86749D01*
X125508Y-86911D01*
X125508Y-87087D01*
X125575Y-87249D01*
X125699Y-87374D01*
X125861Y-87441D01*
X126037Y-87441D01*
X126199Y-87374D01*
X126324Y-87250D01*
X126391Y-87088D01*
X126391Y-86912D01*
X126391Y-89898D01*
X126341Y-89948D01*
X126341Y-89662D01*
X126341Y-88762D01*
X126274Y-88600D01*
X126150Y-88475D01*
X125988Y-88408D01*
X125812Y-88408D01*
X125650Y-88475D01*
X125525Y-88599D01*
X125458Y-88761D01*
X125458Y-88937D01*
X125525Y-89099D01*
X125649Y-89224D01*
X125811Y-89291D01*
X125987Y-89291D01*
X126149Y-89224D01*
X126274Y-89100D01*
X126341Y-88938D01*
X126341Y-88762D01*
X126341Y-89662D01*
X126274Y-89500D01*
X126150Y-89375D01*
X125988Y-89308D01*
X125812Y-89308D01*
X125650Y-89375D01*
X125525Y-89499D01*
X125458Y-89661D01*
X125458Y-89837D01*
X125525Y-89999D01*
X125649Y-90124D01*
X125811Y-90191D01*
X125987Y-90191D01*
X126149Y-90124D01*
X126274Y-90000D01*
X126341Y-89838D01*
X126341Y-89662D01*
X126341Y-89948D01*
X125745Y-90545D01*
X125705Y-90605D01*
X125596Y-90713D01*
X125533Y-90866D01*
X125533Y-91032D01*
X125596Y-91185D01*
X125713Y-91303D01*
X125866Y-91366D01*
X126032Y-91366D01*
X126039Y-91363D01*
X126330Y-91654D01*
X126330Y-91654D01*
X126424Y-91717D01*
X126535Y-91739D01*
X128449Y-91739D01*
X126468Y-93720D01*
X126468Y-93273D01*
X126468Y-92626D01*
X126431Y-92537D01*
X126366Y-92472D01*
X126366Y-91867D01*
X126303Y-91714D01*
X126186Y-91596D01*
X126033Y-91533D01*
X125867Y-91533D01*
X125714Y-91596D01*
X125596Y-91713D01*
X125533Y-91866D01*
X125533Y-92032D01*
X125596Y-92185D01*
X125713Y-92303D01*
X125866Y-92366D01*
X126032Y-92366D01*
X126185Y-92303D01*
X126303Y-92186D01*
X126366Y-92033D01*
X126366Y-91867D01*
X126366Y-92472D01*
X126363Y-92468D01*
X126273Y-92431D01*
X126176Y-92431D01*
X126067Y-92431D01*
X126006Y-92492D01*
X126006Y-92893D01*
X126407Y-92893D01*
X126468Y-92832D01*
X126468Y-92626D01*
X126468Y-93273D01*
X126468Y-93067D01*
X126407Y-93006D01*
X126006Y-93006D01*
X126006Y-93407D01*
X126067Y-93468D01*
X126176Y-93468D01*
X126273Y-93468D01*
X126363Y-93431D01*
X126431Y-93362D01*
X126468Y-93273D01*
X126468Y-93720D01*
X125893Y-94295D01*
X125893Y-93407D01*
X125893Y-93006D01*
X125893Y-92893D01*
X125893Y-92492D01*
X125832Y-92431D01*
X125723Y-92431D01*
X125626Y-92431D01*
X125536Y-92468D01*
X125511Y-92494D01*
X125511Y-90250D01*
X125456Y-90117D01*
X125456Y-88759D01*
X125387Y-88591D01*
X125259Y-88463D01*
X125091Y-88393D01*
X124909Y-88393D01*
X124741Y-88462D01*
X124613Y-88590D01*
X124543Y-88758D01*
X124543Y-88940D01*
X124612Y-89108D01*
X124740Y-89236D01*
X124908Y-89306D01*
X125090Y-89306D01*
X125258Y-89237D01*
X125386Y-89109D01*
X125456Y-88941D01*
X125456Y-88759D01*
X125456Y-90117D01*
X125450Y-90102D01*
X125337Y-89989D01*
X125190Y-89928D01*
X125030Y-89928D01*
X124882Y-89989D01*
X124769Y-90102D01*
X124761Y-90120D01*
X124761Y-89750D01*
X124700Y-89602D01*
X124587Y-89489D01*
X124440Y-89428D01*
X124341Y-89428D01*
X124341Y-88762D01*
X124274Y-88600D01*
X124150Y-88475D01*
X123988Y-88408D01*
X123812Y-88408D01*
X123650Y-88475D01*
X123549Y-88576D01*
X123549Y-85923D01*
X123535Y-85707D01*
X123479Y-85571D01*
X123386Y-85543D01*
X123080Y-85850D01*
X123386Y-86156D01*
X123479Y-86128D01*
X123549Y-85923D01*
X123549Y-88576D01*
X123525Y-88599D01*
X123458Y-88761D01*
X123458Y-88937D01*
X123525Y-89099D01*
X123649Y-89224D01*
X123811Y-89291D01*
X123987Y-89291D01*
X124149Y-89224D01*
X124274Y-89100D01*
X124341Y-88938D01*
X124341Y-88762D01*
X124341Y-89428D01*
X124280Y-89428D01*
X124132Y-89489D01*
X124019Y-89602D01*
X123958Y-89749D01*
X123958Y-89909D01*
X124019Y-90057D01*
X124132Y-90170D01*
X124279Y-90231D01*
X124439Y-90231D01*
X124587Y-90170D01*
X124700Y-90057D01*
X124761Y-89910D01*
X124761Y-89750D01*
X124761Y-90120D01*
X124708Y-90249D01*
X124708Y-90409D01*
X124769Y-90557D01*
X124781Y-90569D01*
X124717Y-90552D01*
X124637Y-90632D01*
X124637Y-90472D01*
X124613Y-90384D01*
X124423Y-90320D01*
X124224Y-90335D01*
X124106Y-90384D01*
X124082Y-90472D01*
X124360Y-90749D01*
X124637Y-90472D01*
X124637Y-90632D01*
X124440Y-90830D01*
X124717Y-91107D01*
X124805Y-91083D01*
X124869Y-90893D01*
X124854Y-90694D01*
X124818Y-90606D01*
X124882Y-90670D01*
X125029Y-90731D01*
X125189Y-90731D01*
X125337Y-90670D01*
X125450Y-90557D01*
X125511Y-90410D01*
X125511Y-90250D01*
X125511Y-92494D01*
X125468Y-92537D01*
X125431Y-92626D01*
X125431Y-92832D01*
X125492Y-92893D01*
X125893Y-92893D01*
X125893Y-93006D01*
X125492Y-93006D01*
X125431Y-93067D01*
X125431Y-93273D01*
X125468Y-93362D01*
X125536Y-93431D01*
X125626Y-93468D01*
X125723Y-93468D01*
X125832Y-93468D01*
X125893Y-93407D01*
X125893Y-94295D01*
X125159Y-95029D01*
X125159Y-92063D01*
X125144Y-91864D01*
X125095Y-91746D01*
X125007Y-91722D01*
X124927Y-91802D01*
X124927Y-91642D01*
X124903Y-91554D01*
X124713Y-91490D01*
X124637Y-91496D01*
X124637Y-91187D01*
X124360Y-90910D01*
X124279Y-90990D01*
X124279Y-90830D01*
X124002Y-90552D01*
X123914Y-90576D01*
X123850Y-90766D01*
X123865Y-90965D01*
X123914Y-91083D01*
X124002Y-91107D01*
X124279Y-90830D01*
X124279Y-90990D01*
X124082Y-91187D01*
X124106Y-91275D01*
X124296Y-91339D01*
X124495Y-91324D01*
X124613Y-91275D01*
X124637Y-91187D01*
X124637Y-91496D01*
X124514Y-91505D01*
X124396Y-91554D01*
X124372Y-91642D01*
X124650Y-91919D01*
X124927Y-91642D01*
X124927Y-91802D01*
X124730Y-92000D01*
X125007Y-92277D01*
X125095Y-92253D01*
X125159Y-92063D01*
X125159Y-95029D01*
X125156Y-95032D01*
X125156Y-98050D01*
X125156Y-98143D01*
X126243Y-98143D01*
X126243Y-97500D01*
X126243Y-95317D01*
X129821Y-91739D01*
X133600Y-91739D01*
X133781Y-91920D01*
X133643Y-91863D01*
X133467Y-91863D01*
X133305Y-91930D01*
X133180Y-92054D01*
X133113Y-92216D01*
X133113Y-92392D01*
X133180Y-92554D01*
X133304Y-92679D01*
X133466Y-92746D01*
X133642Y-92746D01*
X133804Y-92679D01*
X133929Y-92555D01*
X133996Y-92393D01*
X133996Y-92217D01*
X133939Y-92078D01*
X134133Y-92272D01*
X134133Y-92392D01*
X134200Y-92554D01*
X134285Y-92640D01*
X134285Y-92870D01*
X134307Y-92980D01*
X134370Y-93074D01*
X135747Y-94452D01*
X135747Y-94452D01*
X135747Y-94452D01*
X136190Y-94894D01*
X136190Y-94894D01*
X136284Y-94957D01*
X136395Y-94979D01*
X139510Y-94979D01*
X140263Y-95732D01*
X140263Y-95822D01*
X140326Y-95975D01*
X140443Y-96093D01*
X140596Y-96156D01*
X140762Y-96156D01*
X140915Y-96093D01*
X141033Y-95976D01*
X141096Y-95823D01*
X141096Y-95657D01*
X141096Y-92657D01*
X141033Y-92504D01*
X140916Y-92386D01*
X140763Y-92323D01*
X140597Y-92323D01*
X140444Y-92386D01*
X140326Y-92503D01*
X140263Y-92656D01*
X140263Y-92822D01*
X140326Y-92975D01*
X140443Y-93093D01*
X140596Y-93156D01*
X140762Y-93156D01*
X140915Y-93093D01*
X141033Y-92976D01*
X141096Y-92823D01*
X141096Y-92657D01*
X141096Y-95657D01*
X141033Y-95504D01*
X140916Y-95386D01*
X140763Y-95323D01*
X140672Y-95323D01*
X140096Y-94747D01*
X140096Y-92657D01*
X140033Y-92504D01*
X139916Y-92386D01*
X139763Y-92323D01*
X139597Y-92323D01*
X139444Y-92386D01*
X139326Y-92503D01*
X139263Y-92656D01*
X139263Y-92822D01*
X139326Y-92975D01*
X139443Y-93093D01*
X139596Y-93156D01*
X139762Y-93156D01*
X139915Y-93093D01*
X140033Y-92976D01*
X140096Y-92823D01*
X140096Y-92657D01*
X140096Y-94747D01*
X139834Y-94485D01*
X139740Y-94422D01*
X139630Y-94400D01*
X139096Y-94400D01*
X139096Y-92657D01*
X139033Y-92504D01*
X138916Y-92386D01*
X138763Y-92323D01*
X138597Y-92323D01*
X138444Y-92386D01*
X138326Y-92503D01*
X138263Y-92656D01*
X138263Y-92822D01*
X138326Y-92975D01*
X138443Y-93093D01*
X138596Y-93156D01*
X138762Y-93156D01*
X138915Y-93093D01*
X139033Y-92976D01*
X139096Y-92823D01*
X139096Y-92657D01*
X139096Y-94400D01*
X136514Y-94400D01*
X136361Y-94247D01*
X137494Y-93114D01*
X137596Y-93156D01*
X137762Y-93156D01*
X137915Y-93093D01*
X138033Y-92976D01*
X138096Y-92823D01*
X138096Y-92657D01*
X138033Y-92504D01*
X137916Y-92386D01*
X137763Y-92323D01*
X137666Y-92323D01*
X137666Y-91332D01*
X137599Y-91170D01*
X137475Y-91045D01*
X137313Y-90978D01*
X137137Y-90978D01*
X136975Y-91045D01*
X136850Y-91169D01*
X136783Y-91331D01*
X136783Y-91507D01*
X136850Y-91669D01*
X136974Y-91794D01*
X137136Y-91861D01*
X137312Y-91861D01*
X137474Y-91794D01*
X137599Y-91670D01*
X137666Y-91508D01*
X137666Y-91332D01*
X137666Y-92323D01*
X137597Y-92323D01*
X137444Y-92386D01*
X137360Y-92470D01*
X137349Y-92472D01*
X137255Y-92535D01*
X136036Y-93753D01*
X136036Y-92217D01*
X135969Y-92055D01*
X135845Y-91930D01*
X135683Y-91863D01*
X135507Y-91863D01*
X135345Y-91930D01*
X135220Y-92054D01*
X135153Y-92216D01*
X135153Y-92392D01*
X135220Y-92554D01*
X135344Y-92679D01*
X135506Y-92746D01*
X135682Y-92746D01*
X135844Y-92679D01*
X135969Y-92555D01*
X136036Y-92393D01*
X136036Y-92217D01*
X136036Y-93753D01*
X135952Y-93838D01*
X134864Y-92750D01*
X134864Y-92640D01*
X134949Y-92555D01*
X135016Y-92393D01*
X135016Y-92217D01*
X134949Y-92055D01*
X134825Y-91930D01*
X134663Y-91863D01*
X134542Y-91863D01*
X133924Y-91245D01*
X133830Y-91182D01*
X133720Y-91160D01*
X132821Y-91160D01*
X132821Y-90046D01*
X132821Y-89446D01*
X132800Y-89394D01*
X132760Y-89354D01*
X132708Y-89333D01*
X132651Y-89333D01*
X132051Y-89333D01*
X131999Y-89354D01*
X131959Y-89394D01*
X131938Y-89446D01*
X131938Y-89503D01*
X131938Y-90103D01*
X131959Y-90155D01*
X131999Y-90195D01*
X132051Y-90216D01*
X132108Y-90216D01*
X132708Y-90216D01*
X132760Y-90195D01*
X132800Y-90155D01*
X132821Y-90103D01*
X132821Y-90046D01*
X132821Y-91160D01*
X130400Y-91160D01*
X131043Y-90517D01*
X131043Y-90062D01*
X131129Y-90149D01*
X131291Y-90216D01*
X131467Y-90216D01*
X131629Y-90149D01*
X131754Y-90025D01*
X131821Y-89863D01*
X131821Y-89687D01*
X131754Y-89525D01*
X131630Y-89400D01*
X131468Y-89333D01*
X131292Y-89333D01*
X131130Y-89400D01*
X131043Y-89486D01*
X131043Y-83616D01*
X131221Y-83616D01*
X131376Y-84398D01*
X131409Y-84477D01*
X131412Y-84480D01*
X131950Y-85284D01*
X131951Y-85288D01*
X132011Y-85347D01*
X132822Y-85890D01*
X132900Y-85922D01*
X132904Y-85922D01*
X133853Y-86110D01*
X133857Y-86112D01*
X133942Y-86112D01*
X134898Y-85923D01*
X134977Y-85890D01*
X134980Y-85887D01*
X135784Y-85349D01*
X135788Y-85348D01*
X135847Y-85288D01*
X136390Y-84477D01*
X136422Y-84399D01*
X136422Y-84395D01*
X136577Y-83616D01*
X147760Y-83616D01*
X149433Y-85289D01*
X149433Y-111410D01*
M02*
