G04 (created by PCBNEW (2013-07-07 BZR 4022)-stable) date 10/27/2016 9:50:44 PM*
%MOIN*%
G04 Gerber Fmt 3.4, Leading zero omitted, Abs format*
%FSLAX34Y34*%
G01*
G70*
G90*
G04 APERTURE LIST*
%ADD10C,0.00590551*%
%ADD11R,0.06X0.06*%
%ADD12C,0.06*%
%ADD13R,0.055X0.055*%
%ADD14C,0.055*%
%ADD15C,0.07*%
%ADD16R,0.07X0.07*%
%ADD17R,0.35X0.35*%
%ADD18C,0.0984*%
%ADD19C,0.0984252*%
%ADD20R,0.0587X0.0587*%
%ADD21C,0.0587*%
%ADD22C,0.063*%
%ADD23C,0.056*%
%ADD24C,0.15748*%
%ADD25C,0.0787402*%
%ADD26O,0.0885X0.177*%
%ADD27R,0.0566X0.0472*%
%ADD28R,0.0566X0.0393*%
%ADD29R,0.0511X0.059*%
%ADD30C,0.066*%
%ADD31R,0.059X0.0511*%
%ADD32R,0.0551X0.0393*%
%ADD33C,0.472441*%
%ADD34C,0.035*%
%ADD35C,0.019685*%
%ADD36C,0.00984252*%
%ADD37C,0.0255906*%
%ADD38C,0.0551181*%
%ADD39C,0.0492126*%
%ADD40C,0.0149606*%
%ADD41C,0.017*%
%ADD42C,0.01*%
%ADD43C,0.00866142*%
G04 APERTURE END LIST*
G54D10*
G54D11*
X119600Y-101800D03*
G54D12*
X119600Y-100800D03*
X120600Y-101800D03*
X120600Y-100800D03*
X121600Y-101800D03*
X121600Y-100800D03*
X122600Y-101800D03*
X122600Y-100800D03*
X123600Y-101800D03*
X123600Y-100800D03*
X124600Y-101800D03*
X124600Y-100800D03*
X125600Y-101800D03*
X125600Y-100800D03*
X126600Y-101800D03*
X126600Y-100800D03*
X127600Y-101800D03*
X127600Y-100800D03*
X128600Y-101800D03*
X128600Y-100800D03*
X138140Y-106480D03*
X142140Y-106480D03*
X130550Y-106750D03*
X130550Y-110750D03*
X136100Y-110970D03*
X136100Y-106970D03*
X137040Y-106975D03*
X137040Y-110975D03*
X138020Y-110960D03*
X142020Y-110960D03*
X142120Y-105320D03*
X138120Y-105320D03*
G54D13*
X131650Y-107700D03*
G54D14*
X131650Y-108700D03*
X131650Y-109700D03*
X134650Y-109700D03*
X134650Y-108700D03*
X134650Y-107700D03*
G54D15*
X139520Y-102030D03*
G54D16*
X139520Y-104030D03*
G54D15*
X139520Y-103030D03*
G54D17*
X133020Y-103030D03*
G54D14*
X141880Y-108780D03*
X139880Y-108780D03*
G54D18*
X124250Y-107300D03*
X118856Y-107300D03*
X124644Y-112615D03*
X118463Y-112615D03*
G54D14*
X141880Y-109740D03*
X139880Y-109740D03*
X141880Y-107640D03*
X139880Y-107640D03*
G54D19*
X146670Y-97740D03*
X147220Y-95390D03*
X146370Y-96390D03*
G54D20*
X138700Y-109054D03*
G54D21*
X138700Y-108266D03*
G54D22*
X142020Y-112040D03*
X138020Y-112040D03*
G54D23*
X143355Y-105690D03*
X149064Y-105690D03*
X143355Y-109520D03*
X149064Y-109520D03*
G54D15*
X137720Y-95600D03*
X138720Y-95600D03*
G54D16*
X139720Y-95600D03*
G54D24*
X147070Y-112276D03*
X143880Y-112246D03*
X148700Y-101056D03*
X146700Y-100006D03*
X148560Y-94682D03*
X119250Y-93856D03*
X119600Y-90556D03*
X123350Y-86206D03*
X120850Y-87506D03*
X132290Y-93166D03*
X129400Y-89056D03*
G54D25*
X145210Y-96230D03*
X145210Y-100230D03*
X144700Y-101700D03*
X140700Y-101700D03*
X144700Y-103100D03*
X140700Y-103100D03*
G54D24*
X131280Y-98876D03*
X131280Y-97006D03*
G54D11*
X122500Y-103300D03*
G54D12*
X122500Y-104300D03*
X122500Y-105300D03*
G54D26*
X142250Y-89750D03*
X148250Y-89750D03*
G54D27*
X132617Y-98895D03*
G54D28*
X132617Y-98226D03*
X133483Y-98226D03*
X133483Y-98974D03*
G54D29*
X132226Y-99850D03*
X132974Y-99850D03*
G54D30*
X147900Y-99500D03*
X147900Y-96500D03*
X148900Y-99500D03*
X148900Y-96500D03*
X146100Y-103300D03*
X149100Y-103300D03*
X146100Y-102400D03*
X149100Y-102400D03*
G54D31*
X132700Y-106926D03*
X132700Y-107674D03*
G54D32*
X133717Y-106924D03*
X133717Y-106176D03*
X134583Y-106550D03*
G54D20*
X120644Y-95750D03*
G54D21*
X119856Y-95750D03*
G54D20*
X119644Y-97700D03*
G54D21*
X118856Y-97700D03*
G54D33*
X133850Y-113300D03*
X133850Y-84950D03*
G54D34*
X132850Y-91750D03*
X132850Y-91250D03*
X133800Y-91250D03*
X133350Y-91250D03*
X125450Y-106800D03*
X126150Y-106800D03*
X125800Y-107200D03*
X125450Y-107200D03*
X126150Y-107200D03*
X125800Y-106800D03*
X125450Y-107600D03*
X126150Y-107600D03*
X125800Y-107600D03*
X133800Y-91750D03*
X133350Y-91750D03*
X133350Y-92250D03*
X134250Y-92250D03*
X134700Y-92750D03*
X133800Y-92750D03*
X134250Y-93250D03*
X134700Y-93750D03*
X133800Y-93750D03*
X133300Y-94200D03*
X134250Y-94200D03*
X134700Y-94200D03*
X133800Y-94200D03*
X133300Y-93750D03*
X134250Y-93750D03*
X134700Y-93250D03*
X133800Y-93250D03*
X134250Y-92750D03*
X134700Y-92250D03*
X133800Y-92250D03*
G54D35*
X124300Y-97900D03*
X126100Y-96550D03*
X125750Y-99650D03*
X127100Y-98350D03*
X126150Y-96150D03*
X126100Y-96900D03*
X126350Y-95800D03*
X123650Y-100100D03*
X127300Y-104200D03*
G54D34*
X120560Y-111780D03*
G54D35*
X128750Y-106400D03*
G54D34*
X126835Y-95810D03*
X133480Y-99775D03*
X126900Y-104900D03*
X127700Y-104900D03*
X127300Y-104900D03*
X127700Y-104450D03*
X121800Y-112500D03*
X121800Y-112100D03*
X122600Y-112100D03*
X122200Y-112100D03*
X122200Y-112500D03*
X123050Y-112500D03*
X122600Y-112500D03*
X118300Y-96150D03*
X118300Y-95750D03*
X118300Y-96550D03*
X118300Y-95350D03*
X118700Y-88950D03*
X118700Y-88450D03*
X118700Y-87950D03*
X148450Y-87250D03*
X148900Y-86750D03*
X148900Y-87750D03*
X148900Y-87250D03*
X148450Y-86750D03*
X148450Y-87750D03*
X123550Y-112500D03*
X126110Y-91650D03*
X124650Y-89050D03*
X124650Y-89500D03*
X125100Y-89050D03*
X125550Y-89500D03*
X126000Y-89500D03*
X125550Y-89050D03*
X125100Y-89500D03*
X119050Y-110050D03*
X126000Y-89050D03*
X126450Y-89050D03*
X126450Y-89500D03*
X123150Y-96650D03*
X123550Y-96250D03*
X123950Y-95850D03*
X123950Y-96250D03*
X123550Y-96650D03*
X142500Y-95100D03*
X136300Y-99700D03*
X136300Y-99300D03*
X136700Y-98500D03*
X136700Y-98900D03*
X136300Y-98900D03*
X136300Y-98500D03*
X142100Y-95100D03*
X141700Y-95100D03*
X141700Y-93200D03*
X141700Y-93600D03*
X142500Y-93600D03*
X142500Y-93200D03*
X142100Y-93200D03*
X126110Y-92021D03*
X129500Y-99950D03*
G54D36*
X120644Y-95750D02*
X122000Y-95750D01*
X131406Y-94050D02*
X132290Y-93166D01*
X123700Y-94050D02*
X131406Y-94050D01*
X122000Y-95750D02*
X123700Y-94050D01*
X120644Y-95750D02*
X120644Y-96700D01*
X120644Y-96700D02*
X119644Y-97700D01*
X119600Y-101800D02*
X119600Y-105550D01*
X125450Y-108350D02*
X125450Y-107600D01*
X125000Y-108800D02*
X125450Y-108350D01*
X122850Y-108800D02*
X125000Y-108800D01*
X119600Y-105550D02*
X122850Y-108800D01*
X120600Y-101800D02*
X119600Y-101800D01*
X120600Y-100800D02*
X120600Y-101800D01*
X119600Y-100800D02*
X120600Y-100800D01*
X119644Y-97700D02*
X119644Y-100756D01*
X119644Y-100756D02*
X119600Y-100800D01*
X132850Y-91750D02*
X133350Y-91750D01*
X133800Y-91250D02*
X133800Y-91750D01*
X125800Y-106800D02*
X126150Y-106800D01*
X126150Y-107200D02*
X125800Y-107200D01*
X125450Y-107200D02*
X125450Y-107600D01*
X125800Y-107600D02*
X126150Y-107600D01*
X133800Y-91750D02*
X133350Y-91750D01*
X134250Y-94200D02*
X134700Y-94200D01*
X133300Y-94200D02*
X133800Y-94200D01*
X133800Y-93750D02*
X133300Y-93750D01*
X134700Y-93750D02*
X134250Y-93750D01*
X134250Y-93250D02*
X134700Y-93250D01*
X133800Y-92750D02*
X133800Y-93250D01*
X134700Y-92750D02*
X134250Y-92750D01*
X134250Y-92250D02*
X134700Y-92250D01*
X133350Y-92250D02*
X133800Y-92250D01*
X123100Y-103850D02*
X124650Y-105400D01*
X124650Y-105400D02*
X129250Y-105400D01*
X129250Y-105400D02*
X129850Y-106000D01*
X129850Y-106000D02*
X130800Y-106000D01*
X130800Y-106000D02*
X131650Y-106850D01*
X123100Y-101800D02*
X123100Y-101600D01*
X124050Y-101000D02*
X124050Y-98350D01*
X123800Y-101250D02*
X124050Y-101000D01*
X123450Y-101250D02*
X123800Y-101250D01*
X123100Y-101600D02*
X123450Y-101250D01*
X123100Y-101800D02*
X123100Y-102150D01*
X131650Y-106850D02*
X131650Y-107700D01*
X123100Y-102150D02*
X123100Y-103850D01*
X124050Y-98150D02*
X124300Y-97900D01*
X124050Y-98350D02*
X124050Y-98150D01*
G54D37*
X132700Y-107674D02*
X131676Y-107674D01*
X131676Y-107674D02*
X131650Y-107700D01*
G54D36*
X126000Y-96550D02*
X126100Y-96550D01*
X125750Y-96800D02*
X126000Y-96550D01*
X125750Y-96950D02*
X125750Y-96800D01*
X125750Y-99650D02*
X125750Y-96950D01*
X123600Y-100800D02*
X123400Y-100800D01*
X122150Y-102950D02*
X122500Y-103300D01*
X122150Y-101550D02*
X122150Y-102950D01*
X122400Y-101300D02*
X122150Y-101550D01*
X122900Y-101300D02*
X122400Y-101300D01*
X123400Y-100800D02*
X122900Y-101300D01*
X127100Y-98350D02*
X127100Y-96950D01*
X126300Y-96150D02*
X126150Y-96150D01*
X127100Y-96950D02*
X126300Y-96150D01*
X126100Y-96900D02*
X126400Y-96900D01*
X126100Y-101300D02*
X125600Y-101800D01*
X126100Y-100350D02*
X126100Y-101300D01*
X126450Y-100000D02*
X126100Y-100350D01*
X126450Y-96950D02*
X126450Y-100000D01*
X126400Y-96900D02*
X126450Y-96950D01*
X123600Y-101800D02*
X123750Y-101800D01*
X125900Y-95800D02*
X126350Y-95800D01*
X125100Y-96600D02*
X125900Y-95800D01*
X125100Y-100950D02*
X125100Y-96600D01*
X124750Y-101300D02*
X125100Y-100950D01*
X124250Y-101300D02*
X124750Y-101300D01*
X123750Y-101800D02*
X124250Y-101300D01*
X121600Y-101800D02*
X121600Y-101650D01*
X122450Y-100100D02*
X123650Y-100100D01*
X122100Y-100450D02*
X122450Y-100100D01*
X122100Y-101150D02*
X122100Y-100450D01*
X121600Y-101650D02*
X122100Y-101150D01*
X125100Y-101300D02*
X125600Y-100800D01*
X125100Y-102250D02*
X125100Y-101300D01*
X125550Y-102700D02*
X125100Y-102250D01*
X125800Y-102700D02*
X125550Y-102700D01*
X127300Y-104200D02*
X125800Y-102700D01*
G54D38*
X148900Y-99500D02*
X148900Y-99900D01*
X148700Y-100100D02*
X148700Y-101056D01*
X148900Y-99900D02*
X148700Y-100100D01*
X148900Y-100856D02*
X148700Y-101056D01*
X149100Y-102400D02*
X149100Y-102350D01*
X148700Y-101950D02*
X148700Y-101056D01*
X149100Y-102350D02*
X148700Y-101950D01*
G54D39*
X148900Y-100856D02*
X148700Y-101056D01*
G54D37*
X148900Y-100856D02*
X148700Y-101056D01*
G54D38*
X147900Y-99500D02*
X147206Y-99500D01*
X147206Y-99500D02*
X146700Y-100006D01*
X149100Y-103300D02*
X148700Y-103300D01*
X148700Y-103300D02*
X146700Y-101300D01*
X146700Y-101300D02*
X146700Y-100006D01*
G54D39*
X147900Y-99500D02*
X147856Y-99500D01*
G54D37*
X145210Y-96230D02*
X145210Y-98090D01*
X143900Y-103100D02*
X144700Y-103100D01*
X143500Y-102700D02*
X143900Y-103100D01*
X143500Y-99800D02*
X143500Y-102700D01*
X145210Y-98090D02*
X143500Y-99800D01*
G54D40*
X146370Y-96390D02*
X145370Y-96390D01*
X145370Y-96390D02*
X145210Y-96230D01*
G54D41*
X126835Y-95810D02*
X126835Y-95835D01*
X127600Y-96600D02*
X127600Y-100800D01*
X126835Y-95835D02*
X127600Y-96600D01*
G54D37*
X120790Y-111550D02*
X120560Y-111780D01*
X127885Y-111550D02*
X120790Y-111550D01*
X129240Y-110195D02*
X127885Y-111550D01*
X129240Y-108600D02*
X129240Y-110195D01*
X129240Y-108600D02*
X129240Y-106890D01*
X129240Y-106890D02*
X128750Y-106400D01*
X134583Y-106550D02*
X134583Y-107017D01*
X134583Y-107017D02*
X133900Y-107700D01*
X133900Y-107700D02*
X133900Y-108250D01*
X133900Y-108250D02*
X134350Y-108700D01*
X134350Y-108700D02*
X134650Y-108700D01*
X132974Y-99850D02*
X133405Y-99850D01*
X133405Y-99850D02*
X133480Y-99775D01*
X133483Y-99517D02*
X133483Y-99772D01*
X133483Y-98974D02*
X133483Y-99517D01*
X133483Y-99772D02*
X133480Y-99775D01*
G54D36*
X126900Y-104900D02*
X127300Y-104900D01*
X127700Y-104900D02*
X127700Y-104450D01*
X128600Y-101800D02*
X128600Y-104000D01*
X128600Y-104000D02*
X127700Y-104900D01*
X119050Y-110050D02*
X119050Y-111500D01*
X121800Y-112500D02*
X121800Y-112100D01*
X120050Y-112500D02*
X121800Y-112500D01*
X119050Y-111500D02*
X120050Y-112500D01*
X122600Y-112100D02*
X122200Y-112100D01*
X122200Y-112500D02*
X122600Y-112500D01*
X122600Y-112500D02*
X123050Y-112500D01*
X118300Y-96550D02*
X118300Y-96150D01*
X118300Y-95750D02*
X118300Y-95350D01*
X118700Y-88950D02*
X118700Y-88450D01*
X118700Y-87950D02*
X118700Y-88450D01*
X119250Y-88450D02*
X119800Y-89000D01*
X119800Y-89000D02*
X122200Y-89000D01*
X118700Y-88450D02*
X119250Y-88450D01*
X118200Y-100756D02*
X118200Y-99750D01*
X118200Y-99750D02*
X118150Y-99700D01*
G54D41*
X118150Y-102750D02*
X118150Y-102150D01*
X118150Y-102150D02*
X118200Y-102100D01*
G54D36*
X128600Y-100800D02*
X128600Y-100000D01*
X130050Y-98850D02*
X130050Y-98876D01*
X129750Y-98850D02*
X130050Y-98850D01*
X128600Y-100000D02*
X129750Y-98850D01*
X128600Y-101800D02*
X128600Y-100800D01*
X123350Y-87950D02*
X122750Y-87950D01*
X122750Y-87950D02*
X122200Y-88500D01*
X122200Y-88500D02*
X122200Y-89000D01*
X125250Y-87950D02*
X123350Y-87950D01*
X126000Y-89050D02*
X126000Y-88700D01*
X125250Y-87950D02*
X126000Y-88700D01*
X119350Y-95350D02*
X118300Y-95350D01*
X118300Y-95350D02*
X118150Y-95350D01*
X118150Y-99700D02*
X118150Y-96750D01*
X118150Y-96750D02*
X118150Y-95350D01*
X122200Y-89000D02*
X122200Y-92500D01*
X122200Y-92500D02*
X119350Y-95350D01*
X118200Y-102100D02*
X118200Y-100756D01*
X148450Y-87250D02*
X148450Y-87750D01*
X148450Y-86750D02*
X148900Y-86750D01*
X148900Y-87250D02*
X148900Y-87750D01*
X118150Y-102750D02*
X118150Y-106850D01*
X118100Y-106900D02*
X118100Y-109100D01*
X118150Y-106850D02*
X118100Y-106900D01*
X124650Y-89050D02*
X124650Y-89500D01*
X125100Y-89500D02*
X125100Y-89050D01*
X125550Y-89050D02*
X125550Y-89500D01*
X126000Y-89500D02*
X126000Y-89050D01*
X130550Y-110750D02*
X135880Y-110750D01*
X135880Y-110750D02*
X136100Y-110970D01*
X118100Y-109100D02*
X119050Y-110050D01*
X126110Y-92021D02*
X126110Y-91650D01*
X126110Y-91650D02*
X126110Y-89840D01*
X126110Y-89840D02*
X126450Y-89500D01*
X126450Y-89050D02*
X126450Y-89500D01*
G54D41*
X130050Y-98876D02*
X130000Y-98876D01*
G54D36*
X130000Y-96350D02*
X129100Y-95450D01*
X129100Y-95450D02*
X124350Y-95450D01*
X124350Y-95450D02*
X123950Y-95850D01*
X130000Y-96350D02*
X130000Y-98876D01*
X123550Y-96250D02*
X123950Y-96250D01*
X123150Y-96650D02*
X123550Y-96650D01*
X142500Y-95100D02*
X142500Y-98400D01*
X137100Y-98500D02*
X136700Y-98900D01*
X142400Y-98500D02*
X137100Y-98500D01*
X142500Y-98400D02*
X142400Y-98500D01*
G54D37*
X140120Y-104030D02*
X142130Y-104030D01*
G54D40*
X139520Y-104030D02*
X140120Y-104030D01*
G54D37*
X146100Y-104200D02*
X146100Y-103300D01*
X145800Y-104500D02*
X146100Y-104200D01*
X145300Y-104500D02*
X145800Y-104500D01*
X142600Y-104500D02*
X145300Y-104500D01*
X142130Y-104030D02*
X142600Y-104500D01*
X132617Y-98895D02*
X131298Y-98895D01*
X131298Y-98895D02*
X131280Y-98876D01*
X132226Y-99850D02*
X132226Y-99822D01*
X132226Y-99822D02*
X131280Y-98876D01*
G54D41*
X131280Y-98876D02*
X130050Y-98876D01*
X131298Y-98895D02*
X131280Y-98876D01*
G54D36*
X131298Y-98895D02*
X131280Y-98876D01*
X131280Y-98876D02*
X131176Y-98876D01*
X136700Y-98900D02*
X136700Y-102400D01*
X136700Y-102400D02*
X138330Y-104030D01*
X138330Y-104030D02*
X139520Y-104030D01*
X136300Y-99700D02*
X136300Y-99300D01*
X136700Y-98500D02*
X136700Y-98900D01*
X136300Y-98900D02*
X136300Y-98500D01*
X141700Y-95100D02*
X142100Y-95100D01*
X141700Y-93600D02*
X141700Y-93200D01*
X142500Y-93200D02*
X142100Y-93200D01*
G54D40*
X143880Y-112246D02*
X142226Y-112246D01*
X142226Y-112246D02*
X142020Y-112040D01*
G54D36*
X126110Y-92021D02*
X126110Y-92130D01*
X126109Y-92022D02*
X126108Y-92022D01*
X126110Y-92021D02*
X126109Y-92022D01*
X139520Y-104030D02*
X139520Y-107280D01*
X139520Y-107280D02*
X139880Y-107640D01*
X138700Y-108266D02*
X137869Y-108266D01*
X137869Y-108266D02*
X136100Y-110035D01*
X136100Y-110035D02*
X136100Y-110970D01*
X138700Y-108266D02*
X139366Y-108266D01*
X139366Y-108266D02*
X139880Y-108780D01*
X139860Y-107660D02*
X139880Y-107640D01*
X139880Y-108780D02*
X140430Y-108780D01*
X140430Y-108780D02*
X140930Y-109280D01*
X140930Y-109280D02*
X140930Y-110950D01*
X140930Y-110950D02*
X142020Y-112040D01*
X139880Y-107640D02*
X139880Y-108780D01*
G54D40*
X129500Y-99950D02*
X130350Y-99950D01*
X130350Y-99950D02*
X130575Y-100175D01*
X133876Y-98226D02*
X133483Y-98226D01*
X133876Y-98226D02*
X134150Y-98500D01*
X134150Y-98500D02*
X134150Y-99950D01*
X134150Y-99950D02*
X133700Y-100400D01*
X133700Y-100400D02*
X130800Y-100400D01*
X130800Y-100400D02*
X130575Y-100175D01*
G54D37*
X131280Y-97006D02*
X131906Y-97006D01*
X132617Y-97717D02*
X132617Y-98226D01*
X131906Y-97006D02*
X132617Y-97717D01*
X133717Y-106924D02*
X132702Y-106924D01*
X132702Y-106924D02*
X132700Y-106926D01*
X130550Y-106750D02*
X130550Y-108100D01*
X131150Y-108700D02*
X131650Y-108700D01*
X130550Y-108100D02*
X131150Y-108700D01*
X133717Y-106176D02*
X133717Y-105983D01*
X136100Y-106500D02*
X136100Y-106970D01*
X135350Y-105750D02*
X136100Y-106500D01*
X133950Y-105750D02*
X135350Y-105750D01*
X133717Y-105983D02*
X133950Y-105750D01*
G54D10*
G36*
X135200Y-95450D02*
X130620Y-95450D01*
X130020Y-94850D01*
X123779Y-94850D01*
X120950Y-97679D01*
X120950Y-106170D01*
X123079Y-108300D01*
X124920Y-108300D01*
X125100Y-108120D01*
X125100Y-106550D01*
X126400Y-106550D01*
X126400Y-109900D01*
X123070Y-109900D01*
X119250Y-106079D01*
X119250Y-100320D01*
X119400Y-100170D01*
X119400Y-97021D01*
X120400Y-96071D01*
X120400Y-95500D01*
X120969Y-95500D01*
X123419Y-93200D01*
X130370Y-93200D01*
X132970Y-90600D01*
X135200Y-90600D01*
X135200Y-95450D01*
X135200Y-95450D01*
G37*
G54D42*
X135200Y-95450D02*
X130620Y-95450D01*
X130020Y-94850D01*
X123779Y-94850D01*
X120950Y-97679D01*
X120950Y-106170D01*
X123079Y-108300D01*
X124920Y-108300D01*
X125100Y-108120D01*
X125100Y-106550D01*
X126400Y-106550D01*
X126400Y-109900D01*
X123070Y-109900D01*
X119250Y-106079D01*
X119250Y-100320D01*
X119400Y-100170D01*
X119400Y-97021D01*
X120400Y-96071D01*
X120400Y-95500D01*
X120969Y-95500D01*
X123419Y-93200D01*
X130370Y-93200D01*
X132970Y-90600D01*
X135200Y-90600D01*
X135200Y-95450D01*
G54D10*
G36*
X132674Y-98945D02*
X132667Y-98945D01*
X132667Y-98952D01*
X132567Y-98952D01*
X132567Y-98945D01*
X132559Y-98945D01*
X132559Y-98845D01*
X132567Y-98845D01*
X132567Y-98837D01*
X132667Y-98837D01*
X132667Y-98845D01*
X132674Y-98845D01*
X132674Y-98945D01*
X132674Y-98945D01*
G37*
G54D42*
X132674Y-98945D02*
X132667Y-98945D01*
X132667Y-98952D01*
X132567Y-98952D01*
X132567Y-98945D01*
X132559Y-98945D01*
X132559Y-98845D01*
X132567Y-98845D01*
X132567Y-98837D01*
X132667Y-98837D01*
X132667Y-98845D01*
X132674Y-98845D01*
X132674Y-98945D01*
G54D10*
G36*
X134650Y-100850D02*
X130150Y-100850D01*
X130150Y-105470D01*
X130229Y-105550D01*
X130850Y-105550D01*
X132100Y-105550D01*
X133675Y-105550D01*
X133479Y-105745D01*
X133462Y-105771D01*
X133400Y-105771D01*
X133324Y-105803D01*
X133265Y-105861D01*
X133234Y-105938D01*
X133233Y-106020D01*
X133233Y-106413D01*
X133265Y-106489D01*
X133323Y-106548D01*
X133327Y-106549D01*
X133324Y-106551D01*
X133286Y-106588D01*
X133185Y-106588D01*
X133170Y-106553D01*
X133112Y-106494D01*
X133036Y-106463D01*
X132953Y-106462D01*
X132363Y-106462D01*
X132287Y-106494D01*
X132229Y-106552D01*
X132197Y-106629D01*
X132197Y-106711D01*
X132197Y-107222D01*
X132229Y-107298D01*
X132230Y-107299D01*
X132229Y-107300D01*
X132213Y-107338D01*
X132113Y-107338D01*
X132100Y-107307D01*
X132042Y-107249D01*
X131966Y-107217D01*
X131906Y-107217D01*
X131906Y-106850D01*
X131887Y-106751D01*
X131887Y-106751D01*
X131831Y-106668D01*
X130981Y-105818D01*
X130898Y-105762D01*
X130881Y-105759D01*
X130800Y-105743D01*
X130799Y-105743D01*
X129956Y-105743D01*
X129431Y-105218D01*
X129348Y-105162D01*
X129331Y-105159D01*
X129250Y-105143D01*
X129249Y-105143D01*
X129154Y-105143D01*
X129154Y-101881D01*
X129154Y-100881D01*
X129143Y-100663D01*
X129081Y-100512D01*
X128985Y-100484D01*
X128915Y-100555D01*
X128915Y-100414D01*
X128887Y-100318D01*
X128681Y-100245D01*
X128463Y-100256D01*
X128312Y-100318D01*
X128284Y-100414D01*
X128600Y-100729D01*
X128915Y-100414D01*
X128915Y-100555D01*
X128670Y-100800D01*
X128985Y-101115D01*
X129081Y-101087D01*
X129154Y-100881D01*
X129154Y-101881D01*
X129143Y-101663D01*
X129081Y-101512D01*
X128985Y-101484D01*
X128915Y-101555D01*
X128915Y-101414D01*
X128887Y-101318D01*
X128839Y-101301D01*
X128887Y-101281D01*
X128915Y-101185D01*
X128600Y-100870D01*
X128284Y-101185D01*
X128312Y-101281D01*
X128360Y-101298D01*
X128312Y-101318D01*
X128284Y-101414D01*
X128600Y-101729D01*
X128915Y-101414D01*
X128915Y-101555D01*
X128670Y-101800D01*
X128985Y-102115D01*
X129081Y-102087D01*
X129154Y-101881D01*
X129154Y-105143D01*
X128915Y-105143D01*
X128915Y-102185D01*
X128600Y-101870D01*
X128284Y-102185D01*
X128312Y-102281D01*
X128518Y-102354D01*
X128736Y-102343D01*
X128887Y-102281D01*
X128915Y-102185D01*
X128915Y-105143D01*
X124756Y-105143D01*
X123356Y-103743D01*
X123356Y-102248D01*
X123498Y-102307D01*
X123700Y-102307D01*
X123887Y-102230D01*
X124029Y-102087D01*
X124100Y-101919D01*
X124169Y-102087D01*
X124312Y-102229D01*
X124498Y-102307D01*
X124700Y-102307D01*
X124843Y-102248D01*
X124843Y-102249D01*
X124843Y-102250D01*
X124859Y-102331D01*
X124862Y-102348D01*
X124918Y-102431D01*
X125368Y-102881D01*
X125451Y-102937D01*
X125451Y-102937D01*
X125550Y-102956D01*
X125693Y-102956D01*
X126994Y-104257D01*
X126994Y-104260D01*
X127040Y-104373D01*
X127126Y-104459D01*
X127238Y-104505D01*
X127360Y-104505D01*
X127473Y-104459D01*
X127559Y-104373D01*
X127605Y-104261D01*
X127605Y-104139D01*
X127559Y-104026D01*
X127473Y-103940D01*
X127361Y-103894D01*
X127357Y-103894D01*
X125981Y-102518D01*
X125898Y-102462D01*
X125881Y-102459D01*
X125800Y-102443D01*
X125799Y-102443D01*
X125656Y-102443D01*
X125520Y-102307D01*
X125700Y-102307D01*
X125887Y-102230D01*
X126029Y-102087D01*
X126100Y-101919D01*
X126169Y-102087D01*
X126312Y-102229D01*
X126498Y-102307D01*
X126700Y-102307D01*
X126887Y-102230D01*
X127029Y-102087D01*
X127100Y-101919D01*
X127169Y-102087D01*
X127312Y-102229D01*
X127498Y-102307D01*
X127700Y-102307D01*
X127887Y-102230D01*
X128029Y-102087D01*
X128074Y-101980D01*
X128118Y-102087D01*
X128214Y-102115D01*
X128529Y-101800D01*
X128214Y-101484D01*
X128118Y-101512D01*
X128077Y-101627D01*
X128030Y-101512D01*
X127887Y-101370D01*
X127719Y-101299D01*
X127887Y-101230D01*
X128029Y-101087D01*
X128074Y-100980D01*
X128118Y-101087D01*
X128214Y-101115D01*
X128529Y-100800D01*
X128214Y-100484D01*
X128118Y-100512D01*
X128077Y-100627D01*
X128030Y-100512D01*
X127892Y-100374D01*
X127892Y-96600D01*
X127870Y-96488D01*
X127870Y-96488D01*
X127806Y-96393D01*
X127806Y-96393D01*
X127217Y-95803D01*
X127217Y-95734D01*
X127159Y-95593D01*
X127051Y-95485D01*
X126911Y-95427D01*
X126759Y-95427D01*
X126618Y-95485D01*
X126543Y-95560D01*
X126523Y-95540D01*
X126411Y-95494D01*
X126289Y-95494D01*
X126176Y-95540D01*
X126174Y-95543D01*
X125900Y-95543D01*
X125899Y-95543D01*
X125801Y-95562D01*
X125718Y-95618D01*
X125718Y-95618D01*
X124918Y-96418D01*
X124862Y-96501D01*
X124859Y-96518D01*
X124843Y-96600D01*
X124843Y-96600D01*
X124843Y-100351D01*
X124701Y-100292D01*
X124499Y-100292D01*
X124312Y-100369D01*
X124306Y-100375D01*
X124306Y-98350D01*
X124306Y-98256D01*
X124357Y-98205D01*
X124360Y-98205D01*
X124473Y-98159D01*
X124559Y-98073D01*
X124605Y-97961D01*
X124605Y-97839D01*
X124559Y-97726D01*
X124473Y-97640D01*
X124361Y-97594D01*
X124239Y-97594D01*
X124126Y-97640D01*
X124040Y-97726D01*
X123994Y-97838D01*
X123994Y-97842D01*
X123868Y-97968D01*
X123812Y-98051D01*
X123809Y-98068D01*
X123793Y-98150D01*
X123793Y-98150D01*
X123793Y-98350D01*
X123793Y-99828D01*
X123711Y-99794D01*
X123589Y-99794D01*
X123476Y-99840D01*
X123474Y-99843D01*
X122450Y-99843D01*
X122449Y-99843D01*
X122351Y-99862D01*
X122268Y-99918D01*
X122268Y-99918D01*
X121918Y-100268D01*
X121862Y-100351D01*
X121861Y-100359D01*
X121701Y-100292D01*
X121499Y-100292D01*
X121350Y-100354D01*
X121350Y-97920D01*
X123970Y-95300D01*
X129529Y-95300D01*
X130279Y-96050D01*
X130989Y-96050D01*
X130717Y-96162D01*
X130437Y-96442D01*
X130285Y-96807D01*
X130284Y-97203D01*
X130436Y-97569D01*
X130715Y-97849D01*
X130879Y-97917D01*
X130699Y-97992D01*
X130612Y-98138D01*
X131280Y-98805D01*
X131947Y-98138D01*
X131860Y-97992D01*
X131678Y-97918D01*
X131842Y-97850D01*
X132059Y-97633D01*
X132260Y-97835D01*
X132216Y-97853D01*
X132158Y-97911D01*
X132126Y-97988D01*
X132126Y-98070D01*
X132126Y-98273D01*
X132018Y-98208D01*
X131350Y-98876D01*
X131356Y-98881D01*
X131285Y-98952D01*
X131280Y-98947D01*
X131209Y-99017D01*
X131209Y-98876D01*
X130541Y-98208D01*
X130395Y-98295D01*
X130240Y-98678D01*
X130244Y-99090D01*
X130395Y-99456D01*
X130541Y-99543D01*
X131209Y-98876D01*
X131209Y-99017D01*
X130612Y-99614D01*
X130699Y-99760D01*
X131081Y-99915D01*
X131494Y-99912D01*
X131777Y-99794D01*
X131783Y-99800D01*
X132176Y-99800D01*
X132176Y-99792D01*
X132276Y-99792D01*
X132276Y-99800D01*
X132283Y-99800D01*
X132283Y-99900D01*
X132276Y-99900D01*
X132276Y-99907D01*
X132176Y-99907D01*
X132176Y-99900D01*
X131783Y-99900D01*
X131720Y-99962D01*
X131720Y-100095D01*
X131720Y-100117D01*
X130916Y-100117D01*
X130774Y-99975D01*
X130549Y-99750D01*
X130458Y-99689D01*
X130350Y-99667D01*
X130349Y-99667D01*
X129758Y-99667D01*
X129716Y-99625D01*
X129576Y-99567D01*
X129424Y-99567D01*
X129283Y-99625D01*
X129175Y-99733D01*
X129117Y-99873D01*
X129117Y-100025D01*
X129175Y-100166D01*
X129283Y-100274D01*
X129423Y-100332D01*
X129575Y-100332D01*
X129716Y-100274D01*
X129758Y-100232D01*
X130233Y-100232D01*
X130375Y-100374D01*
X130600Y-100599D01*
X130691Y-100660D01*
X130800Y-100682D01*
X130800Y-100682D01*
X130800Y-100682D01*
X133699Y-100682D01*
X133700Y-100682D01*
X133700Y-100682D01*
X133808Y-100660D01*
X133899Y-100599D01*
X134349Y-100149D01*
X134349Y-100149D01*
X134349Y-100149D01*
X134410Y-100058D01*
X134432Y-99950D01*
X134432Y-99950D01*
X134432Y-99949D01*
X134432Y-98500D01*
X134432Y-98500D01*
X134432Y-98500D01*
X134410Y-98391D01*
X134349Y-98300D01*
X134075Y-98026D01*
X133984Y-97965D01*
X133962Y-97960D01*
X133941Y-97912D01*
X133883Y-97853D01*
X133807Y-97822D01*
X133724Y-97821D01*
X133158Y-97821D01*
X133082Y-97853D01*
X133049Y-97886D01*
X133017Y-97853D01*
X132952Y-97826D01*
X132952Y-97717D01*
X132926Y-97588D01*
X132854Y-97479D01*
X132274Y-96900D01*
X132275Y-96809D01*
X132123Y-96443D01*
X131844Y-96163D01*
X131571Y-96050D01*
X134650Y-96050D01*
X134650Y-100850D01*
X134650Y-100850D01*
G37*
G54D42*
X134650Y-100850D02*
X130150Y-100850D01*
X130150Y-105470D01*
X130229Y-105550D01*
X130850Y-105550D01*
X132100Y-105550D01*
X133675Y-105550D01*
X133479Y-105745D01*
X133462Y-105771D01*
X133400Y-105771D01*
X133324Y-105803D01*
X133265Y-105861D01*
X133234Y-105938D01*
X133233Y-106020D01*
X133233Y-106413D01*
X133265Y-106489D01*
X133323Y-106548D01*
X133327Y-106549D01*
X133324Y-106551D01*
X133286Y-106588D01*
X133185Y-106588D01*
X133170Y-106553D01*
X133112Y-106494D01*
X133036Y-106463D01*
X132953Y-106462D01*
X132363Y-106462D01*
X132287Y-106494D01*
X132229Y-106552D01*
X132197Y-106629D01*
X132197Y-106711D01*
X132197Y-107222D01*
X132229Y-107298D01*
X132230Y-107299D01*
X132229Y-107300D01*
X132213Y-107338D01*
X132113Y-107338D01*
X132100Y-107307D01*
X132042Y-107249D01*
X131966Y-107217D01*
X131906Y-107217D01*
X131906Y-106850D01*
X131887Y-106751D01*
X131887Y-106751D01*
X131831Y-106668D01*
X130981Y-105818D01*
X130898Y-105762D01*
X130881Y-105759D01*
X130800Y-105743D01*
X130799Y-105743D01*
X129956Y-105743D01*
X129431Y-105218D01*
X129348Y-105162D01*
X129331Y-105159D01*
X129250Y-105143D01*
X129249Y-105143D01*
X129154Y-105143D01*
X129154Y-101881D01*
X129154Y-100881D01*
X129143Y-100663D01*
X129081Y-100512D01*
X128985Y-100484D01*
X128915Y-100555D01*
X128915Y-100414D01*
X128887Y-100318D01*
X128681Y-100245D01*
X128463Y-100256D01*
X128312Y-100318D01*
X128284Y-100414D01*
X128600Y-100729D01*
X128915Y-100414D01*
X128915Y-100555D01*
X128670Y-100800D01*
X128985Y-101115D01*
X129081Y-101087D01*
X129154Y-100881D01*
X129154Y-101881D01*
X129143Y-101663D01*
X129081Y-101512D01*
X128985Y-101484D01*
X128915Y-101555D01*
X128915Y-101414D01*
X128887Y-101318D01*
X128839Y-101301D01*
X128887Y-101281D01*
X128915Y-101185D01*
X128600Y-100870D01*
X128284Y-101185D01*
X128312Y-101281D01*
X128360Y-101298D01*
X128312Y-101318D01*
X128284Y-101414D01*
X128600Y-101729D01*
X128915Y-101414D01*
X128915Y-101555D01*
X128670Y-101800D01*
X128985Y-102115D01*
X129081Y-102087D01*
X129154Y-101881D01*
X129154Y-105143D01*
X128915Y-105143D01*
X128915Y-102185D01*
X128600Y-101870D01*
X128284Y-102185D01*
X128312Y-102281D01*
X128518Y-102354D01*
X128736Y-102343D01*
X128887Y-102281D01*
X128915Y-102185D01*
X128915Y-105143D01*
X124756Y-105143D01*
X123356Y-103743D01*
X123356Y-102248D01*
X123498Y-102307D01*
X123700Y-102307D01*
X123887Y-102230D01*
X124029Y-102087D01*
X124100Y-101919D01*
X124169Y-102087D01*
X124312Y-102229D01*
X124498Y-102307D01*
X124700Y-102307D01*
X124843Y-102248D01*
X124843Y-102249D01*
X124843Y-102250D01*
X124859Y-102331D01*
X124862Y-102348D01*
X124918Y-102431D01*
X125368Y-102881D01*
X125451Y-102937D01*
X125451Y-102937D01*
X125550Y-102956D01*
X125693Y-102956D01*
X126994Y-104257D01*
X126994Y-104260D01*
X127040Y-104373D01*
X127126Y-104459D01*
X127238Y-104505D01*
X127360Y-104505D01*
X127473Y-104459D01*
X127559Y-104373D01*
X127605Y-104261D01*
X127605Y-104139D01*
X127559Y-104026D01*
X127473Y-103940D01*
X127361Y-103894D01*
X127357Y-103894D01*
X125981Y-102518D01*
X125898Y-102462D01*
X125881Y-102459D01*
X125800Y-102443D01*
X125799Y-102443D01*
X125656Y-102443D01*
X125520Y-102307D01*
X125700Y-102307D01*
X125887Y-102230D01*
X126029Y-102087D01*
X126100Y-101919D01*
X126169Y-102087D01*
X126312Y-102229D01*
X126498Y-102307D01*
X126700Y-102307D01*
X126887Y-102230D01*
X127029Y-102087D01*
X127100Y-101919D01*
X127169Y-102087D01*
X127312Y-102229D01*
X127498Y-102307D01*
X127700Y-102307D01*
X127887Y-102230D01*
X128029Y-102087D01*
X128074Y-101980D01*
X128118Y-102087D01*
X128214Y-102115D01*
X128529Y-101800D01*
X128214Y-101484D01*
X128118Y-101512D01*
X128077Y-101627D01*
X128030Y-101512D01*
X127887Y-101370D01*
X127719Y-101299D01*
X127887Y-101230D01*
X128029Y-101087D01*
X128074Y-100980D01*
X128118Y-101087D01*
X128214Y-101115D01*
X128529Y-100800D01*
X128214Y-100484D01*
X128118Y-100512D01*
X128077Y-100627D01*
X128030Y-100512D01*
X127892Y-100374D01*
X127892Y-96600D01*
X127870Y-96488D01*
X127870Y-96488D01*
X127806Y-96393D01*
X127806Y-96393D01*
X127217Y-95803D01*
X127217Y-95734D01*
X127159Y-95593D01*
X127051Y-95485D01*
X126911Y-95427D01*
X126759Y-95427D01*
X126618Y-95485D01*
X126543Y-95560D01*
X126523Y-95540D01*
X126411Y-95494D01*
X126289Y-95494D01*
X126176Y-95540D01*
X126174Y-95543D01*
X125900Y-95543D01*
X125899Y-95543D01*
X125801Y-95562D01*
X125718Y-95618D01*
X125718Y-95618D01*
X124918Y-96418D01*
X124862Y-96501D01*
X124859Y-96518D01*
X124843Y-96600D01*
X124843Y-96600D01*
X124843Y-100351D01*
X124701Y-100292D01*
X124499Y-100292D01*
X124312Y-100369D01*
X124306Y-100375D01*
X124306Y-98350D01*
X124306Y-98256D01*
X124357Y-98205D01*
X124360Y-98205D01*
X124473Y-98159D01*
X124559Y-98073D01*
X124605Y-97961D01*
X124605Y-97839D01*
X124559Y-97726D01*
X124473Y-97640D01*
X124361Y-97594D01*
X124239Y-97594D01*
X124126Y-97640D01*
X124040Y-97726D01*
X123994Y-97838D01*
X123994Y-97842D01*
X123868Y-97968D01*
X123812Y-98051D01*
X123809Y-98068D01*
X123793Y-98150D01*
X123793Y-98150D01*
X123793Y-98350D01*
X123793Y-99828D01*
X123711Y-99794D01*
X123589Y-99794D01*
X123476Y-99840D01*
X123474Y-99843D01*
X122450Y-99843D01*
X122449Y-99843D01*
X122351Y-99862D01*
X122268Y-99918D01*
X122268Y-99918D01*
X121918Y-100268D01*
X121862Y-100351D01*
X121861Y-100359D01*
X121701Y-100292D01*
X121499Y-100292D01*
X121350Y-100354D01*
X121350Y-97920D01*
X123970Y-95300D01*
X129529Y-95300D01*
X130279Y-96050D01*
X130989Y-96050D01*
X130717Y-96162D01*
X130437Y-96442D01*
X130285Y-96807D01*
X130284Y-97203D01*
X130436Y-97569D01*
X130715Y-97849D01*
X130879Y-97917D01*
X130699Y-97992D01*
X130612Y-98138D01*
X131280Y-98805D01*
X131947Y-98138D01*
X131860Y-97992D01*
X131678Y-97918D01*
X131842Y-97850D01*
X132059Y-97633D01*
X132260Y-97835D01*
X132216Y-97853D01*
X132158Y-97911D01*
X132126Y-97988D01*
X132126Y-98070D01*
X132126Y-98273D01*
X132018Y-98208D01*
X131350Y-98876D01*
X131356Y-98881D01*
X131285Y-98952D01*
X131280Y-98947D01*
X131209Y-99017D01*
X131209Y-98876D01*
X130541Y-98208D01*
X130395Y-98295D01*
X130240Y-98678D01*
X130244Y-99090D01*
X130395Y-99456D01*
X130541Y-99543D01*
X131209Y-98876D01*
X131209Y-99017D01*
X130612Y-99614D01*
X130699Y-99760D01*
X131081Y-99915D01*
X131494Y-99912D01*
X131777Y-99794D01*
X131783Y-99800D01*
X132176Y-99800D01*
X132176Y-99792D01*
X132276Y-99792D01*
X132276Y-99800D01*
X132283Y-99800D01*
X132283Y-99900D01*
X132276Y-99900D01*
X132276Y-99907D01*
X132176Y-99907D01*
X132176Y-99900D01*
X131783Y-99900D01*
X131720Y-99962D01*
X131720Y-100095D01*
X131720Y-100117D01*
X130916Y-100117D01*
X130774Y-99975D01*
X130549Y-99750D01*
X130458Y-99689D01*
X130350Y-99667D01*
X130349Y-99667D01*
X129758Y-99667D01*
X129716Y-99625D01*
X129576Y-99567D01*
X129424Y-99567D01*
X129283Y-99625D01*
X129175Y-99733D01*
X129117Y-99873D01*
X129117Y-100025D01*
X129175Y-100166D01*
X129283Y-100274D01*
X129423Y-100332D01*
X129575Y-100332D01*
X129716Y-100274D01*
X129758Y-100232D01*
X130233Y-100232D01*
X130375Y-100374D01*
X130600Y-100599D01*
X130691Y-100660D01*
X130800Y-100682D01*
X130800Y-100682D01*
X130800Y-100682D01*
X133699Y-100682D01*
X133700Y-100682D01*
X133700Y-100682D01*
X133808Y-100660D01*
X133899Y-100599D01*
X134349Y-100149D01*
X134349Y-100149D01*
X134349Y-100149D01*
X134410Y-100058D01*
X134432Y-99950D01*
X134432Y-99950D01*
X134432Y-99949D01*
X134432Y-98500D01*
X134432Y-98500D01*
X134432Y-98500D01*
X134410Y-98391D01*
X134349Y-98300D01*
X134075Y-98026D01*
X133984Y-97965D01*
X133962Y-97960D01*
X133941Y-97912D01*
X133883Y-97853D01*
X133807Y-97822D01*
X133724Y-97821D01*
X133158Y-97821D01*
X133082Y-97853D01*
X133049Y-97886D01*
X133017Y-97853D01*
X132952Y-97826D01*
X132952Y-97717D01*
X132926Y-97588D01*
X132854Y-97479D01*
X132274Y-96900D01*
X132275Y-96809D01*
X132123Y-96443D01*
X131844Y-96163D01*
X131571Y-96050D01*
X134650Y-96050D01*
X134650Y-100850D01*
G54D10*
G36*
X149367Y-88250D02*
X133179Y-88250D01*
X130439Y-90990D01*
X130439Y-89254D01*
X130435Y-88841D01*
X130284Y-88475D01*
X130138Y-88388D01*
X130067Y-88459D01*
X130067Y-88318D01*
X129980Y-88172D01*
X129598Y-88017D01*
X129185Y-88020D01*
X128819Y-88172D01*
X128732Y-88318D01*
X129400Y-88985D01*
X130067Y-88318D01*
X130067Y-88459D01*
X129470Y-89056D01*
X130138Y-89723D01*
X130284Y-89636D01*
X130439Y-89254D01*
X130439Y-90990D01*
X130067Y-91361D01*
X130067Y-89794D01*
X129400Y-89127D01*
X129329Y-89197D01*
X129329Y-89056D01*
X128661Y-88388D01*
X128515Y-88475D01*
X128360Y-88858D01*
X128364Y-89270D01*
X128515Y-89636D01*
X128661Y-89723D01*
X129329Y-89056D01*
X129329Y-89197D01*
X128732Y-89794D01*
X128819Y-89940D01*
X129201Y-90095D01*
X129614Y-90092D01*
X129980Y-89940D01*
X130067Y-89794D01*
X130067Y-91361D01*
X129964Y-91464D01*
X129179Y-92250D01*
X123329Y-92250D01*
X121845Y-93707D01*
X121845Y-87309D01*
X121693Y-86943D01*
X121414Y-86663D01*
X121048Y-86511D01*
X120652Y-86511D01*
X120287Y-86662D01*
X120007Y-86942D01*
X119855Y-87307D01*
X119854Y-87703D01*
X120006Y-88069D01*
X120285Y-88349D01*
X120651Y-88501D01*
X121047Y-88501D01*
X121412Y-88350D01*
X121692Y-88070D01*
X121844Y-87705D01*
X121845Y-87309D01*
X121845Y-93707D01*
X120595Y-94935D01*
X120595Y-90359D01*
X120443Y-89993D01*
X120164Y-89713D01*
X119798Y-89561D01*
X119402Y-89561D01*
X119037Y-89712D01*
X118757Y-89992D01*
X118605Y-90357D01*
X118604Y-90753D01*
X118756Y-91119D01*
X119035Y-91399D01*
X119401Y-91551D01*
X119797Y-91551D01*
X120162Y-91400D01*
X120442Y-91120D01*
X120594Y-90755D01*
X120595Y-90359D01*
X120595Y-94935D01*
X120529Y-95000D01*
X120245Y-95000D01*
X120245Y-93659D01*
X120093Y-93293D01*
X119814Y-93013D01*
X119448Y-92861D01*
X119052Y-92861D01*
X118687Y-93012D01*
X118407Y-93292D01*
X118255Y-93657D01*
X118254Y-94053D01*
X118406Y-94419D01*
X118685Y-94699D01*
X119051Y-94851D01*
X119447Y-94851D01*
X119812Y-94700D01*
X120092Y-94420D01*
X120244Y-94055D01*
X120245Y-93659D01*
X120245Y-95000D01*
X119850Y-95000D01*
X119850Y-95206D01*
X119720Y-95212D01*
X119572Y-95274D01*
X119545Y-95368D01*
X119850Y-95673D01*
X119850Y-95726D01*
X119795Y-95771D01*
X119779Y-95755D01*
X119785Y-95750D01*
X119474Y-95439D01*
X119380Y-95466D01*
X119307Y-95669D01*
X119318Y-95885D01*
X119380Y-96033D01*
X119470Y-96059D01*
X119000Y-96529D01*
X119000Y-97174D01*
X118936Y-97151D01*
X118720Y-97162D01*
X118572Y-97224D01*
X118545Y-97318D01*
X118856Y-97629D01*
X118861Y-97623D01*
X118932Y-97694D01*
X118926Y-97700D01*
X118932Y-97705D01*
X118861Y-97776D01*
X118856Y-97770D01*
X118785Y-97841D01*
X118785Y-97700D01*
X118474Y-97389D01*
X118380Y-97416D01*
X118307Y-97619D01*
X118318Y-97835D01*
X118380Y-97983D01*
X118474Y-98010D01*
X118785Y-97700D01*
X118785Y-97841D01*
X118545Y-98081D01*
X118572Y-98175D01*
X118775Y-98248D01*
X118991Y-98237D01*
X119000Y-98233D01*
X119000Y-98329D01*
X118700Y-98629D01*
X118700Y-106220D01*
X119131Y-106657D01*
X118995Y-106600D01*
X118717Y-106600D01*
X118460Y-106706D01*
X118263Y-106903D01*
X118156Y-107160D01*
X118156Y-107438D01*
X118262Y-107695D01*
X118459Y-107892D01*
X118716Y-107999D01*
X118994Y-107999D01*
X119251Y-107893D01*
X119448Y-107696D01*
X119555Y-107439D01*
X119555Y-107161D01*
X119501Y-107031D01*
X123129Y-110700D01*
X127150Y-110700D01*
X127150Y-106200D01*
X124029Y-106200D01*
X123129Y-107100D01*
X122420Y-107100D01*
X121350Y-106029D01*
X121350Y-102245D01*
X121498Y-102307D01*
X121700Y-102307D01*
X121887Y-102230D01*
X121893Y-102224D01*
X121893Y-102949D01*
X121893Y-102950D01*
X121909Y-103031D01*
X121912Y-103048D01*
X121968Y-103131D01*
X121992Y-103155D01*
X121992Y-103641D01*
X122024Y-103717D01*
X122082Y-103775D01*
X122158Y-103807D01*
X122241Y-103807D01*
X122362Y-103807D01*
X122212Y-103869D01*
X122070Y-104012D01*
X121992Y-104198D01*
X121992Y-104400D01*
X122069Y-104587D01*
X122212Y-104729D01*
X122380Y-104800D01*
X122212Y-104869D01*
X122070Y-105012D01*
X121992Y-105198D01*
X121992Y-105400D01*
X122069Y-105587D01*
X122212Y-105729D01*
X122398Y-105807D01*
X122600Y-105807D01*
X122787Y-105730D01*
X122929Y-105587D01*
X123007Y-105401D01*
X123007Y-105199D01*
X122930Y-105012D01*
X122787Y-104870D01*
X122619Y-104799D01*
X122787Y-104730D01*
X122929Y-104587D01*
X123007Y-104401D01*
X123007Y-104199D01*
X122952Y-104065D01*
X124468Y-105581D01*
X124468Y-105581D01*
X124551Y-105637D01*
X124649Y-105656D01*
X124649Y-105656D01*
X124650Y-105656D01*
X129143Y-105656D01*
X129668Y-106181D01*
X129668Y-106181D01*
X129751Y-106237D01*
X129751Y-106237D01*
X129850Y-106256D01*
X130414Y-106256D01*
X130262Y-106319D01*
X130120Y-106462D01*
X130042Y-106648D01*
X130042Y-106850D01*
X130119Y-107037D01*
X130214Y-107132D01*
X130214Y-108100D01*
X130240Y-108228D01*
X130312Y-108337D01*
X130912Y-108937D01*
X131021Y-109009D01*
X131021Y-109009D01*
X131150Y-109035D01*
X131303Y-109035D01*
X131376Y-109108D01*
X131553Y-109182D01*
X131745Y-109182D01*
X131922Y-109109D01*
X132058Y-108973D01*
X132132Y-108796D01*
X132132Y-108604D01*
X132059Y-108427D01*
X131923Y-108291D01*
X131746Y-108217D01*
X131554Y-108217D01*
X131377Y-108290D01*
X131303Y-108364D01*
X131288Y-108364D01*
X130885Y-107961D01*
X130885Y-107132D01*
X130979Y-107037D01*
X131057Y-106851D01*
X131057Y-106649D01*
X131037Y-106600D01*
X131393Y-106956D01*
X131393Y-107217D01*
X131333Y-107217D01*
X131257Y-107249D01*
X131199Y-107307D01*
X131167Y-107383D01*
X131167Y-107466D01*
X131167Y-108016D01*
X131199Y-108092D01*
X131257Y-108150D01*
X131333Y-108182D01*
X131416Y-108182D01*
X131966Y-108182D01*
X132042Y-108150D01*
X132100Y-108092D01*
X132132Y-108016D01*
X132132Y-108009D01*
X132213Y-108009D01*
X132229Y-108046D01*
X132287Y-108105D01*
X132363Y-108136D01*
X132446Y-108137D01*
X133036Y-108137D01*
X133112Y-108105D01*
X133170Y-108047D01*
X133202Y-107970D01*
X133202Y-107888D01*
X133202Y-107377D01*
X133170Y-107301D01*
X133169Y-107300D01*
X133170Y-107299D01*
X133187Y-107259D01*
X133287Y-107259D01*
X133323Y-107296D01*
X133400Y-107327D01*
X133482Y-107328D01*
X133797Y-107328D01*
X133662Y-107462D01*
X133590Y-107571D01*
X133564Y-107700D01*
X133564Y-108250D01*
X133590Y-108378D01*
X133662Y-108487D01*
X134025Y-108850D01*
X133950Y-108850D01*
X133950Y-110730D01*
X133341Y-110729D01*
X132396Y-111120D01*
X132132Y-111383D01*
X132132Y-109604D01*
X132059Y-109427D01*
X131923Y-109291D01*
X131746Y-109217D01*
X131554Y-109217D01*
X131377Y-109290D01*
X131241Y-109426D01*
X131167Y-109603D01*
X131167Y-109795D01*
X131240Y-109972D01*
X131376Y-110108D01*
X131553Y-110182D01*
X131745Y-110182D01*
X131922Y-110109D01*
X132058Y-109973D01*
X132132Y-109796D01*
X132132Y-109604D01*
X132132Y-111383D01*
X131672Y-111842D01*
X131280Y-112786D01*
X131280Y-113087D01*
X131276Y-113084D01*
X131257Y-113065D01*
X131231Y-113054D01*
X131208Y-113039D01*
X131180Y-113033D01*
X131155Y-113022D01*
X131127Y-113022D01*
X131104Y-113018D01*
X131104Y-110831D01*
X131093Y-110613D01*
X131031Y-110462D01*
X130935Y-110434D01*
X130865Y-110505D01*
X130865Y-110364D01*
X130837Y-110268D01*
X130631Y-110195D01*
X130413Y-110206D01*
X130262Y-110268D01*
X130234Y-110364D01*
X130550Y-110679D01*
X130865Y-110364D01*
X130865Y-110505D01*
X130620Y-110750D01*
X130935Y-111065D01*
X131031Y-111037D01*
X131104Y-110831D01*
X131104Y-113018D01*
X131100Y-113017D01*
X130865Y-113017D01*
X130865Y-111135D01*
X130550Y-110820D01*
X130479Y-110891D01*
X130479Y-110750D01*
X130164Y-110434D01*
X130068Y-110462D01*
X129995Y-110668D01*
X130006Y-110886D01*
X130068Y-111037D01*
X130164Y-111065D01*
X130479Y-110750D01*
X130479Y-110891D01*
X130234Y-111135D01*
X130262Y-111231D01*
X130468Y-111304D01*
X130686Y-111293D01*
X130837Y-111231D01*
X130865Y-111135D01*
X130865Y-113017D01*
X129575Y-113017D01*
X129575Y-110195D01*
X129575Y-108600D01*
X129575Y-106890D01*
X129549Y-106761D01*
X129477Y-106652D01*
X128987Y-106162D01*
X128878Y-106090D01*
X128750Y-106064D01*
X128621Y-106090D01*
X128512Y-106162D01*
X128440Y-106271D01*
X128414Y-106400D01*
X128440Y-106528D01*
X128512Y-106637D01*
X128904Y-107028D01*
X128904Y-108600D01*
X128904Y-110056D01*
X127746Y-111214D01*
X120790Y-111214D01*
X120661Y-111240D01*
X120552Y-111312D01*
X120456Y-111408D01*
X120343Y-111455D01*
X120235Y-111563D01*
X120177Y-111703D01*
X120177Y-111855D01*
X120235Y-111996D01*
X120343Y-112104D01*
X120483Y-112162D01*
X120635Y-112162D01*
X120776Y-112104D01*
X120884Y-111996D01*
X120930Y-111885D01*
X127885Y-111885D01*
X128013Y-111859D01*
X128122Y-111787D01*
X129477Y-110432D01*
X129477Y-110432D01*
X129477Y-110432D01*
X129549Y-110323D01*
X129549Y-110323D01*
X129575Y-110195D01*
X129575Y-110195D01*
X129575Y-113017D01*
X125230Y-113017D01*
X125236Y-113011D01*
X125343Y-112754D01*
X125343Y-112476D01*
X125237Y-112219D01*
X125040Y-112022D01*
X124783Y-111915D01*
X124505Y-111915D01*
X124248Y-112021D01*
X124051Y-112218D01*
X123944Y-112475D01*
X123944Y-112753D01*
X124050Y-113010D01*
X124057Y-113017D01*
X119049Y-113017D01*
X119055Y-113011D01*
X119162Y-112754D01*
X119162Y-112476D01*
X119056Y-112219D01*
X118859Y-112022D01*
X118602Y-111915D01*
X118324Y-111915D01*
X118067Y-112021D01*
X118032Y-112056D01*
X118032Y-89750D01*
X118032Y-89450D01*
X118032Y-87650D01*
X118032Y-85232D01*
X123101Y-85232D01*
X122787Y-85362D01*
X122507Y-85642D01*
X122355Y-86007D01*
X122354Y-86403D01*
X122506Y-86769D01*
X122785Y-87049D01*
X123151Y-87201D01*
X123547Y-87201D01*
X123912Y-87050D01*
X124192Y-86770D01*
X124344Y-86405D01*
X124345Y-86009D01*
X124193Y-85643D01*
X123914Y-85363D01*
X123599Y-85232D01*
X131050Y-85232D01*
X131077Y-85227D01*
X131104Y-85227D01*
X131130Y-85216D01*
X131158Y-85210D01*
X131181Y-85195D01*
X131206Y-85185D01*
X131226Y-85165D01*
X131249Y-85149D01*
X131265Y-85126D01*
X131280Y-85111D01*
X131279Y-85458D01*
X131670Y-86403D01*
X132392Y-87127D01*
X133336Y-87519D01*
X134358Y-87520D01*
X135303Y-87129D01*
X136027Y-86407D01*
X136419Y-85463D01*
X136419Y-85110D01*
X136432Y-85123D01*
X136450Y-85149D01*
X136476Y-85167D01*
X136494Y-85184D01*
X136516Y-85194D01*
X136541Y-85210D01*
X136571Y-85216D01*
X136596Y-85226D01*
X136621Y-85226D01*
X136650Y-85232D01*
X147732Y-85232D01*
X149367Y-86867D01*
X149367Y-88250D01*
X149367Y-88250D01*
G37*
G54D42*
X149367Y-88250D02*
X133179Y-88250D01*
X130439Y-90990D01*
X130439Y-89254D01*
X130435Y-88841D01*
X130284Y-88475D01*
X130138Y-88388D01*
X130067Y-88459D01*
X130067Y-88318D01*
X129980Y-88172D01*
X129598Y-88017D01*
X129185Y-88020D01*
X128819Y-88172D01*
X128732Y-88318D01*
X129400Y-88985D01*
X130067Y-88318D01*
X130067Y-88459D01*
X129470Y-89056D01*
X130138Y-89723D01*
X130284Y-89636D01*
X130439Y-89254D01*
X130439Y-90990D01*
X130067Y-91361D01*
X130067Y-89794D01*
X129400Y-89127D01*
X129329Y-89197D01*
X129329Y-89056D01*
X128661Y-88388D01*
X128515Y-88475D01*
X128360Y-88858D01*
X128364Y-89270D01*
X128515Y-89636D01*
X128661Y-89723D01*
X129329Y-89056D01*
X129329Y-89197D01*
X128732Y-89794D01*
X128819Y-89940D01*
X129201Y-90095D01*
X129614Y-90092D01*
X129980Y-89940D01*
X130067Y-89794D01*
X130067Y-91361D01*
X129964Y-91464D01*
X129179Y-92250D01*
X123329Y-92250D01*
X121845Y-93707D01*
X121845Y-87309D01*
X121693Y-86943D01*
X121414Y-86663D01*
X121048Y-86511D01*
X120652Y-86511D01*
X120287Y-86662D01*
X120007Y-86942D01*
X119855Y-87307D01*
X119854Y-87703D01*
X120006Y-88069D01*
X120285Y-88349D01*
X120651Y-88501D01*
X121047Y-88501D01*
X121412Y-88350D01*
X121692Y-88070D01*
X121844Y-87705D01*
X121845Y-87309D01*
X121845Y-93707D01*
X120595Y-94935D01*
X120595Y-90359D01*
X120443Y-89993D01*
X120164Y-89713D01*
X119798Y-89561D01*
X119402Y-89561D01*
X119037Y-89712D01*
X118757Y-89992D01*
X118605Y-90357D01*
X118604Y-90753D01*
X118756Y-91119D01*
X119035Y-91399D01*
X119401Y-91551D01*
X119797Y-91551D01*
X120162Y-91400D01*
X120442Y-91120D01*
X120594Y-90755D01*
X120595Y-90359D01*
X120595Y-94935D01*
X120529Y-95000D01*
X120245Y-95000D01*
X120245Y-93659D01*
X120093Y-93293D01*
X119814Y-93013D01*
X119448Y-92861D01*
X119052Y-92861D01*
X118687Y-93012D01*
X118407Y-93292D01*
X118255Y-93657D01*
X118254Y-94053D01*
X118406Y-94419D01*
X118685Y-94699D01*
X119051Y-94851D01*
X119447Y-94851D01*
X119812Y-94700D01*
X120092Y-94420D01*
X120244Y-94055D01*
X120245Y-93659D01*
X120245Y-95000D01*
X119850Y-95000D01*
X119850Y-95206D01*
X119720Y-95212D01*
X119572Y-95274D01*
X119545Y-95368D01*
X119850Y-95673D01*
X119850Y-95726D01*
X119795Y-95771D01*
X119779Y-95755D01*
X119785Y-95750D01*
X119474Y-95439D01*
X119380Y-95466D01*
X119307Y-95669D01*
X119318Y-95885D01*
X119380Y-96033D01*
X119470Y-96059D01*
X119000Y-96529D01*
X119000Y-97174D01*
X118936Y-97151D01*
X118720Y-97162D01*
X118572Y-97224D01*
X118545Y-97318D01*
X118856Y-97629D01*
X118861Y-97623D01*
X118932Y-97694D01*
X118926Y-97700D01*
X118932Y-97705D01*
X118861Y-97776D01*
X118856Y-97770D01*
X118785Y-97841D01*
X118785Y-97700D01*
X118474Y-97389D01*
X118380Y-97416D01*
X118307Y-97619D01*
X118318Y-97835D01*
X118380Y-97983D01*
X118474Y-98010D01*
X118785Y-97700D01*
X118785Y-97841D01*
X118545Y-98081D01*
X118572Y-98175D01*
X118775Y-98248D01*
X118991Y-98237D01*
X119000Y-98233D01*
X119000Y-98329D01*
X118700Y-98629D01*
X118700Y-106220D01*
X119131Y-106657D01*
X118995Y-106600D01*
X118717Y-106600D01*
X118460Y-106706D01*
X118263Y-106903D01*
X118156Y-107160D01*
X118156Y-107438D01*
X118262Y-107695D01*
X118459Y-107892D01*
X118716Y-107999D01*
X118994Y-107999D01*
X119251Y-107893D01*
X119448Y-107696D01*
X119555Y-107439D01*
X119555Y-107161D01*
X119501Y-107031D01*
X123129Y-110700D01*
X127150Y-110700D01*
X127150Y-106200D01*
X124029Y-106200D01*
X123129Y-107100D01*
X122420Y-107100D01*
X121350Y-106029D01*
X121350Y-102245D01*
X121498Y-102307D01*
X121700Y-102307D01*
X121887Y-102230D01*
X121893Y-102224D01*
X121893Y-102949D01*
X121893Y-102950D01*
X121909Y-103031D01*
X121912Y-103048D01*
X121968Y-103131D01*
X121992Y-103155D01*
X121992Y-103641D01*
X122024Y-103717D01*
X122082Y-103775D01*
X122158Y-103807D01*
X122241Y-103807D01*
X122362Y-103807D01*
X122212Y-103869D01*
X122070Y-104012D01*
X121992Y-104198D01*
X121992Y-104400D01*
X122069Y-104587D01*
X122212Y-104729D01*
X122380Y-104800D01*
X122212Y-104869D01*
X122070Y-105012D01*
X121992Y-105198D01*
X121992Y-105400D01*
X122069Y-105587D01*
X122212Y-105729D01*
X122398Y-105807D01*
X122600Y-105807D01*
X122787Y-105730D01*
X122929Y-105587D01*
X123007Y-105401D01*
X123007Y-105199D01*
X122930Y-105012D01*
X122787Y-104870D01*
X122619Y-104799D01*
X122787Y-104730D01*
X122929Y-104587D01*
X123007Y-104401D01*
X123007Y-104199D01*
X122952Y-104065D01*
X124468Y-105581D01*
X124468Y-105581D01*
X124551Y-105637D01*
X124649Y-105656D01*
X124649Y-105656D01*
X124650Y-105656D01*
X129143Y-105656D01*
X129668Y-106181D01*
X129668Y-106181D01*
X129751Y-106237D01*
X129751Y-106237D01*
X129850Y-106256D01*
X130414Y-106256D01*
X130262Y-106319D01*
X130120Y-106462D01*
X130042Y-106648D01*
X130042Y-106850D01*
X130119Y-107037D01*
X130214Y-107132D01*
X130214Y-108100D01*
X130240Y-108228D01*
X130312Y-108337D01*
X130912Y-108937D01*
X131021Y-109009D01*
X131021Y-109009D01*
X131150Y-109035D01*
X131303Y-109035D01*
X131376Y-109108D01*
X131553Y-109182D01*
X131745Y-109182D01*
X131922Y-109109D01*
X132058Y-108973D01*
X132132Y-108796D01*
X132132Y-108604D01*
X132059Y-108427D01*
X131923Y-108291D01*
X131746Y-108217D01*
X131554Y-108217D01*
X131377Y-108290D01*
X131303Y-108364D01*
X131288Y-108364D01*
X130885Y-107961D01*
X130885Y-107132D01*
X130979Y-107037D01*
X131057Y-106851D01*
X131057Y-106649D01*
X131037Y-106600D01*
X131393Y-106956D01*
X131393Y-107217D01*
X131333Y-107217D01*
X131257Y-107249D01*
X131199Y-107307D01*
X131167Y-107383D01*
X131167Y-107466D01*
X131167Y-108016D01*
X131199Y-108092D01*
X131257Y-108150D01*
X131333Y-108182D01*
X131416Y-108182D01*
X131966Y-108182D01*
X132042Y-108150D01*
X132100Y-108092D01*
X132132Y-108016D01*
X132132Y-108009D01*
X132213Y-108009D01*
X132229Y-108046D01*
X132287Y-108105D01*
X132363Y-108136D01*
X132446Y-108137D01*
X133036Y-108137D01*
X133112Y-108105D01*
X133170Y-108047D01*
X133202Y-107970D01*
X133202Y-107888D01*
X133202Y-107377D01*
X133170Y-107301D01*
X133169Y-107300D01*
X133170Y-107299D01*
X133187Y-107259D01*
X133287Y-107259D01*
X133323Y-107296D01*
X133400Y-107327D01*
X133482Y-107328D01*
X133797Y-107328D01*
X133662Y-107462D01*
X133590Y-107571D01*
X133564Y-107700D01*
X133564Y-108250D01*
X133590Y-108378D01*
X133662Y-108487D01*
X134025Y-108850D01*
X133950Y-108850D01*
X133950Y-110730D01*
X133341Y-110729D01*
X132396Y-111120D01*
X132132Y-111383D01*
X132132Y-109604D01*
X132059Y-109427D01*
X131923Y-109291D01*
X131746Y-109217D01*
X131554Y-109217D01*
X131377Y-109290D01*
X131241Y-109426D01*
X131167Y-109603D01*
X131167Y-109795D01*
X131240Y-109972D01*
X131376Y-110108D01*
X131553Y-110182D01*
X131745Y-110182D01*
X131922Y-110109D01*
X132058Y-109973D01*
X132132Y-109796D01*
X132132Y-109604D01*
X132132Y-111383D01*
X131672Y-111842D01*
X131280Y-112786D01*
X131280Y-113087D01*
X131276Y-113084D01*
X131257Y-113065D01*
X131231Y-113054D01*
X131208Y-113039D01*
X131180Y-113033D01*
X131155Y-113022D01*
X131127Y-113022D01*
X131104Y-113018D01*
X131104Y-110831D01*
X131093Y-110613D01*
X131031Y-110462D01*
X130935Y-110434D01*
X130865Y-110505D01*
X130865Y-110364D01*
X130837Y-110268D01*
X130631Y-110195D01*
X130413Y-110206D01*
X130262Y-110268D01*
X130234Y-110364D01*
X130550Y-110679D01*
X130865Y-110364D01*
X130865Y-110505D01*
X130620Y-110750D01*
X130935Y-111065D01*
X131031Y-111037D01*
X131104Y-110831D01*
X131104Y-113018D01*
X131100Y-113017D01*
X130865Y-113017D01*
X130865Y-111135D01*
X130550Y-110820D01*
X130479Y-110891D01*
X130479Y-110750D01*
X130164Y-110434D01*
X130068Y-110462D01*
X129995Y-110668D01*
X130006Y-110886D01*
X130068Y-111037D01*
X130164Y-111065D01*
X130479Y-110750D01*
X130479Y-110891D01*
X130234Y-111135D01*
X130262Y-111231D01*
X130468Y-111304D01*
X130686Y-111293D01*
X130837Y-111231D01*
X130865Y-111135D01*
X130865Y-113017D01*
X129575Y-113017D01*
X129575Y-110195D01*
X129575Y-108600D01*
X129575Y-106890D01*
X129549Y-106761D01*
X129477Y-106652D01*
X128987Y-106162D01*
X128878Y-106090D01*
X128750Y-106064D01*
X128621Y-106090D01*
X128512Y-106162D01*
X128440Y-106271D01*
X128414Y-106400D01*
X128440Y-106528D01*
X128512Y-106637D01*
X128904Y-107028D01*
X128904Y-108600D01*
X128904Y-110056D01*
X127746Y-111214D01*
X120790Y-111214D01*
X120661Y-111240D01*
X120552Y-111312D01*
X120456Y-111408D01*
X120343Y-111455D01*
X120235Y-111563D01*
X120177Y-111703D01*
X120177Y-111855D01*
X120235Y-111996D01*
X120343Y-112104D01*
X120483Y-112162D01*
X120635Y-112162D01*
X120776Y-112104D01*
X120884Y-111996D01*
X120930Y-111885D01*
X127885Y-111885D01*
X128013Y-111859D01*
X128122Y-111787D01*
X129477Y-110432D01*
X129477Y-110432D01*
X129477Y-110432D01*
X129549Y-110323D01*
X129549Y-110323D01*
X129575Y-110195D01*
X129575Y-110195D01*
X129575Y-113017D01*
X125230Y-113017D01*
X125236Y-113011D01*
X125343Y-112754D01*
X125343Y-112476D01*
X125237Y-112219D01*
X125040Y-112022D01*
X124783Y-111915D01*
X124505Y-111915D01*
X124248Y-112021D01*
X124051Y-112218D01*
X123944Y-112475D01*
X123944Y-112753D01*
X124050Y-113010D01*
X124057Y-113017D01*
X119049Y-113017D01*
X119055Y-113011D01*
X119162Y-112754D01*
X119162Y-112476D01*
X119056Y-112219D01*
X118859Y-112022D01*
X118602Y-111915D01*
X118324Y-111915D01*
X118067Y-112021D01*
X118032Y-112056D01*
X118032Y-89750D01*
X118032Y-89450D01*
X118032Y-87650D01*
X118032Y-85232D01*
X123101Y-85232D01*
X122787Y-85362D01*
X122507Y-85642D01*
X122355Y-86007D01*
X122354Y-86403D01*
X122506Y-86769D01*
X122785Y-87049D01*
X123151Y-87201D01*
X123547Y-87201D01*
X123912Y-87050D01*
X124192Y-86770D01*
X124344Y-86405D01*
X124345Y-86009D01*
X124193Y-85643D01*
X123914Y-85363D01*
X123599Y-85232D01*
X131050Y-85232D01*
X131077Y-85227D01*
X131104Y-85227D01*
X131130Y-85216D01*
X131158Y-85210D01*
X131181Y-85195D01*
X131206Y-85185D01*
X131226Y-85165D01*
X131249Y-85149D01*
X131265Y-85126D01*
X131280Y-85111D01*
X131279Y-85458D01*
X131670Y-86403D01*
X132392Y-87127D01*
X133336Y-87519D01*
X134358Y-87520D01*
X135303Y-87129D01*
X136027Y-86407D01*
X136419Y-85463D01*
X136419Y-85110D01*
X136432Y-85123D01*
X136450Y-85149D01*
X136476Y-85167D01*
X136494Y-85184D01*
X136516Y-85194D01*
X136541Y-85210D01*
X136571Y-85216D01*
X136596Y-85226D01*
X136621Y-85226D01*
X136650Y-85232D01*
X147732Y-85232D01*
X149367Y-86867D01*
X149367Y-88250D01*
G54D10*
G36*
X146856Y-104482D02*
X146682Y-104656D01*
X146678Y-104656D01*
X146678Y-103380D01*
X146665Y-103152D01*
X146603Y-103003D01*
X146508Y-102971D01*
X146428Y-103052D01*
X146428Y-102891D01*
X146414Y-102850D01*
X146428Y-102808D01*
X146100Y-102480D01*
X145771Y-102808D01*
X145785Y-102850D01*
X145771Y-102891D01*
X146100Y-103219D01*
X146428Y-102891D01*
X146428Y-103052D01*
X146180Y-103300D01*
X146508Y-103628D01*
X146603Y-103596D01*
X146678Y-103380D01*
X146678Y-104656D01*
X146428Y-104656D01*
X146428Y-103708D01*
X146100Y-103380D01*
X145771Y-103708D01*
X145803Y-103803D01*
X146019Y-103878D01*
X146247Y-103865D01*
X146396Y-103803D01*
X146428Y-103708D01*
X146428Y-104656D01*
X141406Y-104656D01*
X141406Y-107243D01*
X141603Y-107243D01*
X141476Y-107370D01*
X141404Y-107544D01*
X141404Y-107734D01*
X141476Y-107909D01*
X141610Y-108043D01*
X141784Y-108115D01*
X141974Y-108115D01*
X142149Y-108043D01*
X142283Y-107909D01*
X142355Y-107735D01*
X142355Y-107545D01*
X142283Y-107370D01*
X142156Y-107243D01*
X142556Y-107243D01*
X142556Y-111043D01*
X144382Y-111043D01*
X144756Y-111417D01*
X144756Y-111671D01*
X144619Y-111587D01*
X144538Y-111667D01*
X144538Y-111507D01*
X144450Y-111364D01*
X144069Y-111212D01*
X143659Y-111218D01*
X143309Y-111364D01*
X143221Y-111507D01*
X143880Y-112166D01*
X144538Y-111507D01*
X144538Y-111667D01*
X143960Y-112246D01*
X144619Y-112905D01*
X144756Y-112820D01*
X144756Y-113024D01*
X144514Y-113024D01*
X144538Y-112985D01*
X143880Y-112326D01*
X143799Y-112406D01*
X143799Y-112246D01*
X143140Y-111587D01*
X142997Y-111675D01*
X142846Y-112056D01*
X142852Y-112466D01*
X142997Y-112817D01*
X143140Y-112905D01*
X143799Y-112246D01*
X143799Y-112406D01*
X143221Y-112985D01*
X143245Y-113024D01*
X142583Y-113024D01*
X142583Y-112117D01*
X142570Y-111895D01*
X142520Y-111775D01*
X142520Y-110860D01*
X142444Y-110676D01*
X142355Y-110587D01*
X142355Y-109645D01*
X142355Y-108685D01*
X142283Y-108510D01*
X142149Y-108376D01*
X141975Y-108304D01*
X141785Y-108304D01*
X141610Y-108376D01*
X141476Y-108510D01*
X141404Y-108684D01*
X141404Y-108874D01*
X141476Y-109049D01*
X141610Y-109183D01*
X141784Y-109255D01*
X141974Y-109255D01*
X142149Y-109183D01*
X142283Y-109049D01*
X142355Y-108875D01*
X142355Y-108685D01*
X142355Y-109645D01*
X142283Y-109470D01*
X142149Y-109336D01*
X141975Y-109264D01*
X141785Y-109264D01*
X141610Y-109336D01*
X141476Y-109470D01*
X141404Y-109644D01*
X141404Y-109834D01*
X141476Y-110009D01*
X141610Y-110143D01*
X141784Y-110215D01*
X141974Y-110215D01*
X142149Y-110143D01*
X142283Y-110009D01*
X142355Y-109835D01*
X142355Y-109645D01*
X142355Y-110587D01*
X142304Y-110535D01*
X142120Y-110459D01*
X141920Y-110459D01*
X141736Y-110535D01*
X141595Y-110675D01*
X141519Y-110859D01*
X141519Y-111059D01*
X141595Y-111243D01*
X141735Y-111384D01*
X141919Y-111460D01*
X142119Y-111460D01*
X142303Y-111384D01*
X142444Y-111244D01*
X142520Y-111060D01*
X142520Y-110860D01*
X142520Y-111775D01*
X142511Y-111752D01*
X142417Y-111722D01*
X142337Y-111802D01*
X142337Y-111642D01*
X142307Y-111548D01*
X142097Y-111476D01*
X141875Y-111489D01*
X141732Y-111548D01*
X141702Y-111642D01*
X142020Y-111959D01*
X142337Y-111642D01*
X142337Y-111802D01*
X142100Y-112040D01*
X142417Y-112357D01*
X142511Y-112327D01*
X142583Y-112117D01*
X142583Y-113024D01*
X142337Y-113024D01*
X142337Y-112437D01*
X142020Y-112120D01*
X141939Y-112200D01*
X141939Y-112040D01*
X141622Y-111722D01*
X141528Y-111752D01*
X141456Y-111962D01*
X141469Y-112184D01*
X141528Y-112327D01*
X141622Y-112357D01*
X141939Y-112040D01*
X141939Y-112200D01*
X141702Y-112437D01*
X141732Y-112531D01*
X141942Y-112603D01*
X142164Y-112590D01*
X142307Y-112531D01*
X142337Y-112437D01*
X142337Y-113024D01*
X141294Y-113024D01*
X141294Y-102982D01*
X141294Y-101582D01*
X141204Y-101363D01*
X141037Y-101196D01*
X140818Y-101105D01*
X140582Y-101105D01*
X140363Y-101195D01*
X140196Y-101362D01*
X140105Y-101581D01*
X140105Y-101817D01*
X140195Y-102036D01*
X140362Y-102203D01*
X140581Y-102294D01*
X140817Y-102294D01*
X141036Y-102204D01*
X141203Y-102037D01*
X141294Y-101818D01*
X141294Y-101582D01*
X141294Y-102982D01*
X141204Y-102763D01*
X141037Y-102596D01*
X140818Y-102505D01*
X140582Y-102505D01*
X140363Y-102595D01*
X140196Y-102762D01*
X140105Y-102981D01*
X140105Y-103217D01*
X140195Y-103436D01*
X140362Y-103603D01*
X140581Y-103694D01*
X140817Y-103694D01*
X141036Y-103604D01*
X141203Y-103437D01*
X141294Y-103218D01*
X141294Y-102982D01*
X141294Y-113024D01*
X140404Y-113024D01*
X140404Y-108847D01*
X140404Y-107707D01*
X140390Y-107501D01*
X140338Y-107377D01*
X140248Y-107351D01*
X140168Y-107432D01*
X140168Y-107271D01*
X140142Y-107181D01*
X140113Y-107171D01*
X140113Y-104331D01*
X140113Y-103728D01*
X140113Y-103631D01*
X140076Y-103541D01*
X140007Y-103473D01*
X139918Y-103436D01*
X139892Y-103436D01*
X139986Y-103342D01*
X140070Y-103140D01*
X140070Y-102920D01*
X139987Y-102718D01*
X139832Y-102563D01*
X139752Y-102530D01*
X139831Y-102497D01*
X139986Y-102342D01*
X140070Y-102140D01*
X140070Y-101920D01*
X139987Y-101718D01*
X139832Y-101563D01*
X139630Y-101479D01*
X139410Y-101479D01*
X139208Y-101562D01*
X139053Y-101717D01*
X138969Y-101919D01*
X138969Y-102139D01*
X139052Y-102341D01*
X139207Y-102496D01*
X139287Y-102529D01*
X139208Y-102562D01*
X139053Y-102717D01*
X138969Y-102919D01*
X138969Y-103139D01*
X139052Y-103341D01*
X139147Y-103436D01*
X139121Y-103436D01*
X139032Y-103473D01*
X138963Y-103541D01*
X138926Y-103631D01*
X138926Y-103728D01*
X138926Y-103912D01*
X138987Y-103973D01*
X139463Y-103973D01*
X139463Y-103965D01*
X139576Y-103965D01*
X139576Y-103973D01*
X140052Y-103973D01*
X140113Y-103912D01*
X140113Y-103728D01*
X140113Y-104331D01*
X140113Y-104147D01*
X140052Y-104086D01*
X139576Y-104086D01*
X139576Y-104562D01*
X139637Y-104623D01*
X139918Y-104623D01*
X140007Y-104586D01*
X140076Y-104518D01*
X140113Y-104428D01*
X140113Y-104331D01*
X140113Y-107171D01*
X139947Y-107115D01*
X139741Y-107129D01*
X139617Y-107181D01*
X139591Y-107271D01*
X139880Y-107559D01*
X140168Y-107271D01*
X140168Y-107432D01*
X139960Y-107640D01*
X140248Y-107928D01*
X140338Y-107902D01*
X140404Y-107707D01*
X140404Y-108847D01*
X140390Y-108641D01*
X140338Y-108517D01*
X140248Y-108491D01*
X140168Y-108572D01*
X140168Y-108411D01*
X140168Y-108008D01*
X139880Y-107720D01*
X139799Y-107800D01*
X139799Y-107640D01*
X139511Y-107351D01*
X139463Y-107365D01*
X139463Y-104562D01*
X139463Y-104086D01*
X138987Y-104086D01*
X138926Y-104147D01*
X138926Y-104331D01*
X138926Y-104428D01*
X138963Y-104518D01*
X139032Y-104586D01*
X139121Y-104623D01*
X139402Y-104623D01*
X139463Y-104562D01*
X139463Y-107365D01*
X139421Y-107377D01*
X139355Y-107572D01*
X139369Y-107778D01*
X139421Y-107902D01*
X139511Y-107928D01*
X139799Y-107640D01*
X139799Y-107800D01*
X139591Y-108008D01*
X139617Y-108098D01*
X139812Y-108164D01*
X140018Y-108150D01*
X140142Y-108098D01*
X140168Y-108008D01*
X140168Y-108411D01*
X140142Y-108321D01*
X139947Y-108255D01*
X139741Y-108269D01*
X139617Y-108321D01*
X139591Y-108411D01*
X139880Y-108699D01*
X140168Y-108411D01*
X140168Y-108572D01*
X139960Y-108780D01*
X140248Y-109068D01*
X140338Y-109042D01*
X140404Y-108847D01*
X140404Y-113024D01*
X140355Y-113024D01*
X140355Y-109645D01*
X140283Y-109470D01*
X140149Y-109336D01*
X140027Y-109286D01*
X140142Y-109238D01*
X140168Y-109148D01*
X139880Y-108860D01*
X139799Y-108940D01*
X139799Y-108780D01*
X139511Y-108491D01*
X139421Y-108517D01*
X139355Y-108712D01*
X139369Y-108918D01*
X139421Y-109042D01*
X139511Y-109068D01*
X139799Y-108780D01*
X139799Y-108940D01*
X139591Y-109148D01*
X139617Y-109238D01*
X139744Y-109281D01*
X139610Y-109336D01*
X139476Y-109470D01*
X139404Y-109644D01*
X139404Y-109834D01*
X139476Y-110009D01*
X139610Y-110143D01*
X139784Y-110215D01*
X139974Y-110215D01*
X140149Y-110143D01*
X140283Y-110009D01*
X140355Y-109835D01*
X140355Y-109645D01*
X140355Y-113024D01*
X139242Y-113024D01*
X139242Y-108337D01*
X139228Y-108124D01*
X139173Y-107991D01*
X139081Y-107964D01*
X139001Y-108044D01*
X139001Y-107884D01*
X138974Y-107792D01*
X138771Y-107723D01*
X138640Y-107731D01*
X138640Y-106380D01*
X138620Y-106332D01*
X138620Y-105220D01*
X138544Y-105036D01*
X138404Y-104895D01*
X138220Y-104819D01*
X138020Y-104819D01*
X137836Y-104895D01*
X137695Y-105035D01*
X137619Y-105219D01*
X137619Y-105419D01*
X137695Y-105603D01*
X137835Y-105744D01*
X138019Y-105820D01*
X138219Y-105820D01*
X138403Y-105744D01*
X138544Y-105604D01*
X138620Y-105420D01*
X138620Y-105220D01*
X138620Y-106332D01*
X138564Y-106196D01*
X138424Y-106055D01*
X138240Y-105979D01*
X138040Y-105979D01*
X137856Y-106055D01*
X137715Y-106195D01*
X137639Y-106379D01*
X137639Y-106579D01*
X137715Y-106763D01*
X137855Y-106904D01*
X138039Y-106980D01*
X138239Y-106980D01*
X138423Y-106904D01*
X138564Y-106764D01*
X138640Y-106580D01*
X138640Y-106380D01*
X138640Y-107731D01*
X138558Y-107737D01*
X138425Y-107792D01*
X138398Y-107884D01*
X138700Y-108185D01*
X139001Y-107884D01*
X139001Y-108044D01*
X138780Y-108266D01*
X138785Y-108271D01*
X138705Y-108351D01*
X138700Y-108346D01*
X138694Y-108351D01*
X138619Y-108277D01*
X138614Y-108271D01*
X138619Y-108266D01*
X138318Y-107964D01*
X138226Y-107991D01*
X138157Y-108194D01*
X138171Y-108407D01*
X138226Y-108540D01*
X138318Y-108567D01*
X138297Y-108588D01*
X138292Y-108590D01*
X138236Y-108646D01*
X138205Y-108720D01*
X138205Y-108800D01*
X138205Y-109387D01*
X138236Y-109461D01*
X138292Y-109517D01*
X138366Y-109548D01*
X138446Y-109548D01*
X139033Y-109548D01*
X139107Y-109517D01*
X139163Y-109461D01*
X139194Y-109387D01*
X139194Y-109307D01*
X139194Y-108720D01*
X139163Y-108646D01*
X139107Y-108590D01*
X139102Y-108588D01*
X139081Y-108567D01*
X139173Y-108540D01*
X139242Y-108337D01*
X139242Y-113024D01*
X139194Y-113024D01*
X138535Y-113024D01*
X138535Y-111937D01*
X138520Y-111901D01*
X138520Y-110860D01*
X138444Y-110676D01*
X138304Y-110535D01*
X138120Y-110459D01*
X137920Y-110459D01*
X137736Y-110535D01*
X137595Y-110675D01*
X137526Y-110841D01*
X137464Y-110691D01*
X137324Y-110550D01*
X137140Y-110474D01*
X136940Y-110474D01*
X136756Y-110550D01*
X136615Y-110690D01*
X136597Y-110735D01*
X136579Y-110691D01*
X136486Y-110663D01*
X136406Y-110743D01*
X136406Y-110583D01*
X136378Y-110490D01*
X136173Y-110420D01*
X135957Y-110434D01*
X135821Y-110490D01*
X135793Y-110583D01*
X136100Y-110889D01*
X136406Y-110583D01*
X136406Y-110743D01*
X136180Y-110970D01*
X136486Y-111276D01*
X136579Y-111248D01*
X136593Y-111205D01*
X136615Y-111258D01*
X136755Y-111399D01*
X136939Y-111475D01*
X137139Y-111475D01*
X137323Y-111399D01*
X137464Y-111259D01*
X137533Y-111093D01*
X137595Y-111243D01*
X137735Y-111384D01*
X137919Y-111460D01*
X138119Y-111460D01*
X138303Y-111384D01*
X138444Y-111244D01*
X138520Y-111060D01*
X138520Y-110860D01*
X138520Y-111901D01*
X138457Y-111748D01*
X138312Y-111602D01*
X138123Y-111524D01*
X137917Y-111524D01*
X137728Y-111602D01*
X137582Y-111747D01*
X137504Y-111936D01*
X137504Y-112142D01*
X137582Y-112331D01*
X137727Y-112477D01*
X137916Y-112555D01*
X138122Y-112555D01*
X138311Y-112477D01*
X138457Y-112332D01*
X138535Y-112143D01*
X138535Y-111937D01*
X138535Y-113024D01*
X136600Y-113024D01*
X136574Y-113029D01*
X136545Y-113029D01*
X136518Y-113040D01*
X136494Y-113045D01*
X136474Y-113058D01*
X136445Y-113070D01*
X136424Y-113092D01*
X136413Y-113099D01*
X136413Y-112792D01*
X136406Y-112775D01*
X136406Y-111356D01*
X136100Y-111050D01*
X136019Y-111130D01*
X136019Y-110970D01*
X135713Y-110663D01*
X135620Y-110691D01*
X135550Y-110896D01*
X135564Y-111112D01*
X135620Y-111248D01*
X135713Y-111276D01*
X136019Y-110970D01*
X136019Y-111130D01*
X135793Y-111356D01*
X135821Y-111449D01*
X136026Y-111519D01*
X136242Y-111505D01*
X136378Y-111449D01*
X136406Y-111356D01*
X136406Y-112775D01*
X136024Y-111850D01*
X135303Y-111128D01*
X135193Y-111082D01*
X135193Y-106267D01*
X135298Y-106163D01*
X135748Y-106613D01*
X135675Y-106685D01*
X135599Y-106869D01*
X135599Y-107069D01*
X135675Y-107253D01*
X135815Y-107394D01*
X135999Y-107470D01*
X136199Y-107470D01*
X136383Y-107394D01*
X136524Y-107254D01*
X136568Y-107146D01*
X136615Y-107258D01*
X136755Y-107399D01*
X136939Y-107475D01*
X137139Y-107475D01*
X137323Y-107399D01*
X137464Y-107259D01*
X137540Y-107075D01*
X137540Y-106875D01*
X137464Y-106691D01*
X137324Y-106550D01*
X137140Y-106474D01*
X136940Y-106474D01*
X136756Y-106550D01*
X136615Y-106690D01*
X136571Y-106798D01*
X136524Y-106686D01*
X136428Y-106590D01*
X136428Y-106500D01*
X136428Y-106499D01*
X136403Y-106374D01*
X136332Y-106267D01*
X136332Y-106267D01*
X135763Y-105698D01*
X136143Y-105317D01*
X136143Y-100882D01*
X135943Y-100682D01*
X135943Y-98243D01*
X140717Y-98243D01*
X141443Y-97517D01*
X141443Y-96800D01*
X141443Y-92943D01*
X143906Y-92943D01*
X143906Y-97482D01*
X142556Y-98832D01*
X142556Y-102800D01*
X142556Y-103717D01*
X142882Y-104043D01*
X145267Y-104043D01*
X145643Y-103667D01*
X145643Y-103611D01*
X145691Y-103628D01*
X146019Y-103300D01*
X145691Y-102971D01*
X145643Y-102988D01*
X145643Y-102711D01*
X145691Y-102728D01*
X146019Y-102400D01*
X145691Y-102071D01*
X145643Y-102088D01*
X145643Y-101893D01*
X145810Y-101893D01*
X145803Y-101896D01*
X145771Y-101991D01*
X146100Y-102319D01*
X146105Y-102314D01*
X146185Y-102394D01*
X146180Y-102400D01*
X146508Y-102728D01*
X146603Y-102696D01*
X146678Y-102480D01*
X146667Y-102278D01*
X146856Y-102467D01*
X146856Y-104482D01*
X146856Y-104482D01*
G37*
G54D43*
X146856Y-104482D02*
X146682Y-104656D01*
X146678Y-104656D01*
X146678Y-103380D01*
X146665Y-103152D01*
X146603Y-103003D01*
X146508Y-102971D01*
X146428Y-103052D01*
X146428Y-102891D01*
X146414Y-102850D01*
X146428Y-102808D01*
X146100Y-102480D01*
X145771Y-102808D01*
X145785Y-102850D01*
X145771Y-102891D01*
X146100Y-103219D01*
X146428Y-102891D01*
X146428Y-103052D01*
X146180Y-103300D01*
X146508Y-103628D01*
X146603Y-103596D01*
X146678Y-103380D01*
X146678Y-104656D01*
X146428Y-104656D01*
X146428Y-103708D01*
X146100Y-103380D01*
X145771Y-103708D01*
X145803Y-103803D01*
X146019Y-103878D01*
X146247Y-103865D01*
X146396Y-103803D01*
X146428Y-103708D01*
X146428Y-104656D01*
X141406Y-104656D01*
X141406Y-107243D01*
X141603Y-107243D01*
X141476Y-107370D01*
X141404Y-107544D01*
X141404Y-107734D01*
X141476Y-107909D01*
X141610Y-108043D01*
X141784Y-108115D01*
X141974Y-108115D01*
X142149Y-108043D01*
X142283Y-107909D01*
X142355Y-107735D01*
X142355Y-107545D01*
X142283Y-107370D01*
X142156Y-107243D01*
X142556Y-107243D01*
X142556Y-111043D01*
X144382Y-111043D01*
X144756Y-111417D01*
X144756Y-111671D01*
X144619Y-111587D01*
X144538Y-111667D01*
X144538Y-111507D01*
X144450Y-111364D01*
X144069Y-111212D01*
X143659Y-111218D01*
X143309Y-111364D01*
X143221Y-111507D01*
X143880Y-112166D01*
X144538Y-111507D01*
X144538Y-111667D01*
X143960Y-112246D01*
X144619Y-112905D01*
X144756Y-112820D01*
X144756Y-113024D01*
X144514Y-113024D01*
X144538Y-112985D01*
X143880Y-112326D01*
X143799Y-112406D01*
X143799Y-112246D01*
X143140Y-111587D01*
X142997Y-111675D01*
X142846Y-112056D01*
X142852Y-112466D01*
X142997Y-112817D01*
X143140Y-112905D01*
X143799Y-112246D01*
X143799Y-112406D01*
X143221Y-112985D01*
X143245Y-113024D01*
X142583Y-113024D01*
X142583Y-112117D01*
X142570Y-111895D01*
X142520Y-111775D01*
X142520Y-110860D01*
X142444Y-110676D01*
X142355Y-110587D01*
X142355Y-109645D01*
X142355Y-108685D01*
X142283Y-108510D01*
X142149Y-108376D01*
X141975Y-108304D01*
X141785Y-108304D01*
X141610Y-108376D01*
X141476Y-108510D01*
X141404Y-108684D01*
X141404Y-108874D01*
X141476Y-109049D01*
X141610Y-109183D01*
X141784Y-109255D01*
X141974Y-109255D01*
X142149Y-109183D01*
X142283Y-109049D01*
X142355Y-108875D01*
X142355Y-108685D01*
X142355Y-109645D01*
X142283Y-109470D01*
X142149Y-109336D01*
X141975Y-109264D01*
X141785Y-109264D01*
X141610Y-109336D01*
X141476Y-109470D01*
X141404Y-109644D01*
X141404Y-109834D01*
X141476Y-110009D01*
X141610Y-110143D01*
X141784Y-110215D01*
X141974Y-110215D01*
X142149Y-110143D01*
X142283Y-110009D01*
X142355Y-109835D01*
X142355Y-109645D01*
X142355Y-110587D01*
X142304Y-110535D01*
X142120Y-110459D01*
X141920Y-110459D01*
X141736Y-110535D01*
X141595Y-110675D01*
X141519Y-110859D01*
X141519Y-111059D01*
X141595Y-111243D01*
X141735Y-111384D01*
X141919Y-111460D01*
X142119Y-111460D01*
X142303Y-111384D01*
X142444Y-111244D01*
X142520Y-111060D01*
X142520Y-110860D01*
X142520Y-111775D01*
X142511Y-111752D01*
X142417Y-111722D01*
X142337Y-111802D01*
X142337Y-111642D01*
X142307Y-111548D01*
X142097Y-111476D01*
X141875Y-111489D01*
X141732Y-111548D01*
X141702Y-111642D01*
X142020Y-111959D01*
X142337Y-111642D01*
X142337Y-111802D01*
X142100Y-112040D01*
X142417Y-112357D01*
X142511Y-112327D01*
X142583Y-112117D01*
X142583Y-113024D01*
X142337Y-113024D01*
X142337Y-112437D01*
X142020Y-112120D01*
X141939Y-112200D01*
X141939Y-112040D01*
X141622Y-111722D01*
X141528Y-111752D01*
X141456Y-111962D01*
X141469Y-112184D01*
X141528Y-112327D01*
X141622Y-112357D01*
X141939Y-112040D01*
X141939Y-112200D01*
X141702Y-112437D01*
X141732Y-112531D01*
X141942Y-112603D01*
X142164Y-112590D01*
X142307Y-112531D01*
X142337Y-112437D01*
X142337Y-113024D01*
X141294Y-113024D01*
X141294Y-102982D01*
X141294Y-101582D01*
X141204Y-101363D01*
X141037Y-101196D01*
X140818Y-101105D01*
X140582Y-101105D01*
X140363Y-101195D01*
X140196Y-101362D01*
X140105Y-101581D01*
X140105Y-101817D01*
X140195Y-102036D01*
X140362Y-102203D01*
X140581Y-102294D01*
X140817Y-102294D01*
X141036Y-102204D01*
X141203Y-102037D01*
X141294Y-101818D01*
X141294Y-101582D01*
X141294Y-102982D01*
X141204Y-102763D01*
X141037Y-102596D01*
X140818Y-102505D01*
X140582Y-102505D01*
X140363Y-102595D01*
X140196Y-102762D01*
X140105Y-102981D01*
X140105Y-103217D01*
X140195Y-103436D01*
X140362Y-103603D01*
X140581Y-103694D01*
X140817Y-103694D01*
X141036Y-103604D01*
X141203Y-103437D01*
X141294Y-103218D01*
X141294Y-102982D01*
X141294Y-113024D01*
X140404Y-113024D01*
X140404Y-108847D01*
X140404Y-107707D01*
X140390Y-107501D01*
X140338Y-107377D01*
X140248Y-107351D01*
X140168Y-107432D01*
X140168Y-107271D01*
X140142Y-107181D01*
X140113Y-107171D01*
X140113Y-104331D01*
X140113Y-103728D01*
X140113Y-103631D01*
X140076Y-103541D01*
X140007Y-103473D01*
X139918Y-103436D01*
X139892Y-103436D01*
X139986Y-103342D01*
X140070Y-103140D01*
X140070Y-102920D01*
X139987Y-102718D01*
X139832Y-102563D01*
X139752Y-102530D01*
X139831Y-102497D01*
X139986Y-102342D01*
X140070Y-102140D01*
X140070Y-101920D01*
X139987Y-101718D01*
X139832Y-101563D01*
X139630Y-101479D01*
X139410Y-101479D01*
X139208Y-101562D01*
X139053Y-101717D01*
X138969Y-101919D01*
X138969Y-102139D01*
X139052Y-102341D01*
X139207Y-102496D01*
X139287Y-102529D01*
X139208Y-102562D01*
X139053Y-102717D01*
X138969Y-102919D01*
X138969Y-103139D01*
X139052Y-103341D01*
X139147Y-103436D01*
X139121Y-103436D01*
X139032Y-103473D01*
X138963Y-103541D01*
X138926Y-103631D01*
X138926Y-103728D01*
X138926Y-103912D01*
X138987Y-103973D01*
X139463Y-103973D01*
X139463Y-103965D01*
X139576Y-103965D01*
X139576Y-103973D01*
X140052Y-103973D01*
X140113Y-103912D01*
X140113Y-103728D01*
X140113Y-104331D01*
X140113Y-104147D01*
X140052Y-104086D01*
X139576Y-104086D01*
X139576Y-104562D01*
X139637Y-104623D01*
X139918Y-104623D01*
X140007Y-104586D01*
X140076Y-104518D01*
X140113Y-104428D01*
X140113Y-104331D01*
X140113Y-107171D01*
X139947Y-107115D01*
X139741Y-107129D01*
X139617Y-107181D01*
X139591Y-107271D01*
X139880Y-107559D01*
X140168Y-107271D01*
X140168Y-107432D01*
X139960Y-107640D01*
X140248Y-107928D01*
X140338Y-107902D01*
X140404Y-107707D01*
X140404Y-108847D01*
X140390Y-108641D01*
X140338Y-108517D01*
X140248Y-108491D01*
X140168Y-108572D01*
X140168Y-108411D01*
X140168Y-108008D01*
X139880Y-107720D01*
X139799Y-107800D01*
X139799Y-107640D01*
X139511Y-107351D01*
X139463Y-107365D01*
X139463Y-104562D01*
X139463Y-104086D01*
X138987Y-104086D01*
X138926Y-104147D01*
X138926Y-104331D01*
X138926Y-104428D01*
X138963Y-104518D01*
X139032Y-104586D01*
X139121Y-104623D01*
X139402Y-104623D01*
X139463Y-104562D01*
X139463Y-107365D01*
X139421Y-107377D01*
X139355Y-107572D01*
X139369Y-107778D01*
X139421Y-107902D01*
X139511Y-107928D01*
X139799Y-107640D01*
X139799Y-107800D01*
X139591Y-108008D01*
X139617Y-108098D01*
X139812Y-108164D01*
X140018Y-108150D01*
X140142Y-108098D01*
X140168Y-108008D01*
X140168Y-108411D01*
X140142Y-108321D01*
X139947Y-108255D01*
X139741Y-108269D01*
X139617Y-108321D01*
X139591Y-108411D01*
X139880Y-108699D01*
X140168Y-108411D01*
X140168Y-108572D01*
X139960Y-108780D01*
X140248Y-109068D01*
X140338Y-109042D01*
X140404Y-108847D01*
X140404Y-113024D01*
X140355Y-113024D01*
X140355Y-109645D01*
X140283Y-109470D01*
X140149Y-109336D01*
X140027Y-109286D01*
X140142Y-109238D01*
X140168Y-109148D01*
X139880Y-108860D01*
X139799Y-108940D01*
X139799Y-108780D01*
X139511Y-108491D01*
X139421Y-108517D01*
X139355Y-108712D01*
X139369Y-108918D01*
X139421Y-109042D01*
X139511Y-109068D01*
X139799Y-108780D01*
X139799Y-108940D01*
X139591Y-109148D01*
X139617Y-109238D01*
X139744Y-109281D01*
X139610Y-109336D01*
X139476Y-109470D01*
X139404Y-109644D01*
X139404Y-109834D01*
X139476Y-110009D01*
X139610Y-110143D01*
X139784Y-110215D01*
X139974Y-110215D01*
X140149Y-110143D01*
X140283Y-110009D01*
X140355Y-109835D01*
X140355Y-109645D01*
X140355Y-113024D01*
X139242Y-113024D01*
X139242Y-108337D01*
X139228Y-108124D01*
X139173Y-107991D01*
X139081Y-107964D01*
X139001Y-108044D01*
X139001Y-107884D01*
X138974Y-107792D01*
X138771Y-107723D01*
X138640Y-107731D01*
X138640Y-106380D01*
X138620Y-106332D01*
X138620Y-105220D01*
X138544Y-105036D01*
X138404Y-104895D01*
X138220Y-104819D01*
X138020Y-104819D01*
X137836Y-104895D01*
X137695Y-105035D01*
X137619Y-105219D01*
X137619Y-105419D01*
X137695Y-105603D01*
X137835Y-105744D01*
X138019Y-105820D01*
X138219Y-105820D01*
X138403Y-105744D01*
X138544Y-105604D01*
X138620Y-105420D01*
X138620Y-105220D01*
X138620Y-106332D01*
X138564Y-106196D01*
X138424Y-106055D01*
X138240Y-105979D01*
X138040Y-105979D01*
X137856Y-106055D01*
X137715Y-106195D01*
X137639Y-106379D01*
X137639Y-106579D01*
X137715Y-106763D01*
X137855Y-106904D01*
X138039Y-106980D01*
X138239Y-106980D01*
X138423Y-106904D01*
X138564Y-106764D01*
X138640Y-106580D01*
X138640Y-106380D01*
X138640Y-107731D01*
X138558Y-107737D01*
X138425Y-107792D01*
X138398Y-107884D01*
X138700Y-108185D01*
X139001Y-107884D01*
X139001Y-108044D01*
X138780Y-108266D01*
X138785Y-108271D01*
X138705Y-108351D01*
X138700Y-108346D01*
X138694Y-108351D01*
X138619Y-108277D01*
X138614Y-108271D01*
X138619Y-108266D01*
X138318Y-107964D01*
X138226Y-107991D01*
X138157Y-108194D01*
X138171Y-108407D01*
X138226Y-108540D01*
X138318Y-108567D01*
X138297Y-108588D01*
X138292Y-108590D01*
X138236Y-108646D01*
X138205Y-108720D01*
X138205Y-108800D01*
X138205Y-109387D01*
X138236Y-109461D01*
X138292Y-109517D01*
X138366Y-109548D01*
X138446Y-109548D01*
X139033Y-109548D01*
X139107Y-109517D01*
X139163Y-109461D01*
X139194Y-109387D01*
X139194Y-109307D01*
X139194Y-108720D01*
X139163Y-108646D01*
X139107Y-108590D01*
X139102Y-108588D01*
X139081Y-108567D01*
X139173Y-108540D01*
X139242Y-108337D01*
X139242Y-113024D01*
X139194Y-113024D01*
X138535Y-113024D01*
X138535Y-111937D01*
X138520Y-111901D01*
X138520Y-110860D01*
X138444Y-110676D01*
X138304Y-110535D01*
X138120Y-110459D01*
X137920Y-110459D01*
X137736Y-110535D01*
X137595Y-110675D01*
X137526Y-110841D01*
X137464Y-110691D01*
X137324Y-110550D01*
X137140Y-110474D01*
X136940Y-110474D01*
X136756Y-110550D01*
X136615Y-110690D01*
X136597Y-110735D01*
X136579Y-110691D01*
X136486Y-110663D01*
X136406Y-110743D01*
X136406Y-110583D01*
X136378Y-110490D01*
X136173Y-110420D01*
X135957Y-110434D01*
X135821Y-110490D01*
X135793Y-110583D01*
X136100Y-110889D01*
X136406Y-110583D01*
X136406Y-110743D01*
X136180Y-110970D01*
X136486Y-111276D01*
X136579Y-111248D01*
X136593Y-111205D01*
X136615Y-111258D01*
X136755Y-111399D01*
X136939Y-111475D01*
X137139Y-111475D01*
X137323Y-111399D01*
X137464Y-111259D01*
X137533Y-111093D01*
X137595Y-111243D01*
X137735Y-111384D01*
X137919Y-111460D01*
X138119Y-111460D01*
X138303Y-111384D01*
X138444Y-111244D01*
X138520Y-111060D01*
X138520Y-110860D01*
X138520Y-111901D01*
X138457Y-111748D01*
X138312Y-111602D01*
X138123Y-111524D01*
X137917Y-111524D01*
X137728Y-111602D01*
X137582Y-111747D01*
X137504Y-111936D01*
X137504Y-112142D01*
X137582Y-112331D01*
X137727Y-112477D01*
X137916Y-112555D01*
X138122Y-112555D01*
X138311Y-112477D01*
X138457Y-112332D01*
X138535Y-112143D01*
X138535Y-111937D01*
X138535Y-113024D01*
X136600Y-113024D01*
X136574Y-113029D01*
X136545Y-113029D01*
X136518Y-113040D01*
X136494Y-113045D01*
X136474Y-113058D01*
X136445Y-113070D01*
X136424Y-113092D01*
X136413Y-113099D01*
X136413Y-112792D01*
X136406Y-112775D01*
X136406Y-111356D01*
X136100Y-111050D01*
X136019Y-111130D01*
X136019Y-110970D01*
X135713Y-110663D01*
X135620Y-110691D01*
X135550Y-110896D01*
X135564Y-111112D01*
X135620Y-111248D01*
X135713Y-111276D01*
X136019Y-110970D01*
X136019Y-111130D01*
X135793Y-111356D01*
X135821Y-111449D01*
X136026Y-111519D01*
X136242Y-111505D01*
X136378Y-111449D01*
X136406Y-111356D01*
X136406Y-112775D01*
X136024Y-111850D01*
X135303Y-111128D01*
X135193Y-111082D01*
X135193Y-106267D01*
X135298Y-106163D01*
X135748Y-106613D01*
X135675Y-106685D01*
X135599Y-106869D01*
X135599Y-107069D01*
X135675Y-107253D01*
X135815Y-107394D01*
X135999Y-107470D01*
X136199Y-107470D01*
X136383Y-107394D01*
X136524Y-107254D01*
X136568Y-107146D01*
X136615Y-107258D01*
X136755Y-107399D01*
X136939Y-107475D01*
X137139Y-107475D01*
X137323Y-107399D01*
X137464Y-107259D01*
X137540Y-107075D01*
X137540Y-106875D01*
X137464Y-106691D01*
X137324Y-106550D01*
X137140Y-106474D01*
X136940Y-106474D01*
X136756Y-106550D01*
X136615Y-106690D01*
X136571Y-106798D01*
X136524Y-106686D01*
X136428Y-106590D01*
X136428Y-106500D01*
X136428Y-106499D01*
X136403Y-106374D01*
X136332Y-106267D01*
X136332Y-106267D01*
X135763Y-105698D01*
X136143Y-105317D01*
X136143Y-100882D01*
X135943Y-100682D01*
X135943Y-98243D01*
X140717Y-98243D01*
X141443Y-97517D01*
X141443Y-96800D01*
X141443Y-92943D01*
X143906Y-92943D01*
X143906Y-97482D01*
X142556Y-98832D01*
X142556Y-102800D01*
X142556Y-103717D01*
X142882Y-104043D01*
X145267Y-104043D01*
X145643Y-103667D01*
X145643Y-103611D01*
X145691Y-103628D01*
X146019Y-103300D01*
X145691Y-102971D01*
X145643Y-102988D01*
X145643Y-102711D01*
X145691Y-102728D01*
X146019Y-102400D01*
X145691Y-102071D01*
X145643Y-102088D01*
X145643Y-101893D01*
X145810Y-101893D01*
X145803Y-101896D01*
X145771Y-101991D01*
X146100Y-102319D01*
X146105Y-102314D01*
X146185Y-102394D01*
X146180Y-102400D01*
X146508Y-102728D01*
X146603Y-102696D01*
X146678Y-102480D01*
X146667Y-102278D01*
X146856Y-102467D01*
X146856Y-104482D01*
G54D10*
G36*
X146650Y-96675D02*
X146283Y-96950D01*
X145979Y-96950D01*
X145550Y-97379D01*
X145550Y-98279D01*
X143850Y-99979D01*
X143850Y-102620D01*
X143979Y-102750D01*
X144750Y-102750D01*
X144750Y-103450D01*
X143520Y-103450D01*
X143050Y-102979D01*
X143050Y-99570D01*
X144850Y-97770D01*
X144850Y-95750D01*
X145100Y-95750D01*
X146279Y-95750D01*
X146650Y-96120D01*
X146650Y-96675D01*
X146650Y-96675D01*
G37*
G54D42*
X146650Y-96675D02*
X146283Y-96950D01*
X145979Y-96950D01*
X145550Y-97379D01*
X145550Y-98279D01*
X143850Y-99979D01*
X143850Y-102620D01*
X143979Y-102750D01*
X144750Y-102750D01*
X144750Y-103450D01*
X143520Y-103450D01*
X143050Y-102979D01*
X143050Y-99570D01*
X144850Y-97770D01*
X144850Y-95750D01*
X145100Y-95750D01*
X146279Y-95750D01*
X146650Y-96120D01*
X146650Y-96675D01*
M02*
