G04 (created by PCBNEW (2013-07-07 BZR 4022)-stable) date 11/5/2016 11:09:51 AM*
%MOIN*%
G04 Gerber Fmt 3.4, Leading zero omitted, Abs format*
%FSLAX34Y34*%
G01*
G70*
G90*
G04 APERTURE LIST*
%ADD10C,0.00590551*%
%ADD11C,0.00314961*%
%ADD12C,0.00275591*%
%ADD13C,0.008*%
%ADD14C,0.005*%
%ADD15C,0.0026*%
%ADD16C,0.004*%
%ADD17C,0.002*%
%ADD18C,0.006*%
%ADD19C,0.007*%
%ADD20C,0.0035*%
%ADD21C,0.0011811*%
G04 APERTURE END LIST*
G54D10*
G54D11*
X127776Y-85479D02*
X127842Y-85385D01*
X127889Y-85479D02*
X127889Y-85282D01*
X127814Y-85282D01*
X127795Y-85292D01*
X127785Y-85301D01*
X127776Y-85320D01*
X127776Y-85348D01*
X127785Y-85367D01*
X127795Y-85376D01*
X127814Y-85385D01*
X127889Y-85385D01*
X127701Y-85301D02*
X127692Y-85292D01*
X127673Y-85282D01*
X127626Y-85282D01*
X127607Y-85292D01*
X127598Y-85301D01*
X127589Y-85320D01*
X127589Y-85339D01*
X127598Y-85367D01*
X127710Y-85479D01*
X127589Y-85479D01*
X127523Y-85282D02*
X127401Y-85282D01*
X127467Y-85357D01*
X127439Y-85357D01*
X127420Y-85367D01*
X127410Y-85376D01*
X127401Y-85395D01*
X127401Y-85442D01*
X127410Y-85460D01*
X127420Y-85470D01*
X127439Y-85479D01*
X127495Y-85479D01*
X127514Y-85470D01*
X127523Y-85460D01*
X127776Y-86679D02*
X127842Y-86585D01*
X127889Y-86679D02*
X127889Y-86482D01*
X127814Y-86482D01*
X127795Y-86492D01*
X127785Y-86501D01*
X127776Y-86520D01*
X127776Y-86548D01*
X127785Y-86567D01*
X127795Y-86576D01*
X127814Y-86585D01*
X127889Y-86585D01*
X127701Y-86501D02*
X127692Y-86492D01*
X127673Y-86482D01*
X127626Y-86482D01*
X127607Y-86492D01*
X127598Y-86501D01*
X127589Y-86520D01*
X127589Y-86539D01*
X127598Y-86567D01*
X127710Y-86679D01*
X127589Y-86679D01*
X127514Y-86501D02*
X127504Y-86492D01*
X127485Y-86482D01*
X127439Y-86482D01*
X127420Y-86492D01*
X127410Y-86501D01*
X127401Y-86520D01*
X127401Y-86539D01*
X127410Y-86567D01*
X127523Y-86679D01*
X127401Y-86679D01*
G54D12*
X127174Y-83170D02*
X127174Y-83489D01*
X127156Y-83526D01*
X127137Y-83545D01*
X127099Y-83564D01*
X127024Y-83564D01*
X126987Y-83545D01*
X126968Y-83526D01*
X126949Y-83489D01*
X126949Y-83170D01*
X126575Y-83170D02*
X126762Y-83170D01*
X126781Y-83358D01*
X126762Y-83339D01*
X126725Y-83320D01*
X126631Y-83320D01*
X126593Y-83339D01*
X126575Y-83358D01*
X126556Y-83395D01*
X126556Y-83489D01*
X126575Y-83526D01*
X126593Y-83545D01*
X126631Y-83564D01*
X126725Y-83564D01*
X126762Y-83545D01*
X126781Y-83526D01*
G54D13*
X146420Y-88050D02*
G75*
G03X146420Y-88050I-70J0D01*
G74*
G01*
G54D14*
X146250Y-87100D02*
X146350Y-87100D01*
X146350Y-87100D02*
X146350Y-88000D01*
X146350Y-88000D02*
X146250Y-88000D01*
X146250Y-87100D02*
X146250Y-88000D01*
X146250Y-88000D02*
X145600Y-88000D01*
X144900Y-87100D02*
X144250Y-87100D01*
X144250Y-87100D02*
X144250Y-88000D01*
X144250Y-88000D02*
X144900Y-88000D01*
X145600Y-87100D02*
X146250Y-87100D01*
G54D13*
X143270Y-89350D02*
G75*
G03X143270Y-89350I-70J0D01*
G74*
G01*
G54D14*
X144150Y-89250D02*
X144150Y-89350D01*
X144150Y-89350D02*
X143250Y-89350D01*
X143250Y-89350D02*
X143250Y-89250D01*
X144150Y-89250D02*
X143250Y-89250D01*
X143250Y-89250D02*
X143250Y-88600D01*
X144150Y-87900D02*
X144150Y-87250D01*
X144150Y-87250D02*
X143250Y-87250D01*
X143250Y-87250D02*
X143250Y-87900D01*
X144150Y-88600D02*
X144150Y-89250D01*
G54D13*
X146470Y-89400D02*
G75*
G03X146470Y-89400I-70J0D01*
G74*
G01*
G54D14*
X146300Y-88450D02*
X146400Y-88450D01*
X146400Y-88450D02*
X146400Y-89350D01*
X146400Y-89350D02*
X146300Y-89350D01*
X146300Y-88450D02*
X146300Y-89350D01*
X146300Y-89350D02*
X145650Y-89350D01*
X144950Y-88450D02*
X144300Y-88450D01*
X144300Y-88450D02*
X144300Y-89350D01*
X144300Y-89350D02*
X144950Y-89350D01*
X145650Y-88450D02*
X146300Y-88450D01*
G54D15*
X132530Y-98310D02*
X132530Y-98130D01*
X132530Y-98130D02*
X132800Y-98130D01*
X132800Y-98310D02*
X132800Y-98130D01*
X132530Y-98310D02*
X132800Y-98310D01*
X133300Y-98320D02*
X133300Y-98140D01*
X133300Y-98140D02*
X133570Y-98140D01*
X133570Y-98320D02*
X133570Y-98140D01*
X133300Y-98320D02*
X133570Y-98320D01*
X133300Y-99050D02*
X133300Y-98870D01*
X133300Y-98870D02*
X133570Y-98870D01*
X133570Y-99050D02*
X133570Y-98870D01*
X133300Y-99050D02*
X133570Y-99050D01*
X132530Y-99070D02*
X132530Y-98720D01*
X132530Y-98720D02*
X132800Y-98720D01*
X132800Y-99070D02*
X132800Y-98720D01*
X132530Y-99070D02*
X132800Y-99070D01*
G54D16*
X133300Y-99170D02*
X133300Y-98030D01*
X132800Y-99170D02*
X132800Y-98030D01*
X132800Y-99170D02*
X133300Y-99170D01*
X132800Y-98030D02*
X133300Y-98030D01*
G54D17*
X131824Y-100237D02*
X133376Y-100237D01*
X133376Y-100237D02*
X133376Y-99463D01*
X133376Y-99463D02*
X131824Y-99463D01*
X131824Y-99463D02*
X131824Y-100237D01*
X126874Y-87537D02*
X128426Y-87537D01*
X128426Y-87537D02*
X128426Y-86763D01*
X128426Y-86763D02*
X126874Y-86763D01*
X126874Y-86763D02*
X126874Y-87537D01*
X126874Y-86337D02*
X128426Y-86337D01*
X128426Y-86337D02*
X128426Y-85563D01*
X128426Y-85563D02*
X126874Y-85563D01*
X126874Y-85563D02*
X126874Y-86337D01*
X132313Y-106524D02*
X132313Y-108076D01*
X132313Y-108076D02*
X133087Y-108076D01*
X133087Y-108076D02*
X133087Y-106524D01*
X133087Y-106524D02*
X132313Y-106524D01*
G54D15*
X134430Y-106640D02*
X134430Y-106460D01*
X134430Y-106460D02*
X134659Y-106460D01*
X134659Y-106640D02*
X134659Y-106460D01*
X134430Y-106640D02*
X134659Y-106640D01*
X133641Y-106270D02*
X133641Y-106090D01*
X133641Y-106090D02*
X133870Y-106090D01*
X133870Y-106270D02*
X133870Y-106090D01*
X133641Y-106270D02*
X133870Y-106270D01*
X133641Y-107010D02*
X133641Y-106830D01*
X133641Y-106830D02*
X133870Y-106830D01*
X133870Y-107010D02*
X133870Y-106830D01*
X133641Y-107010D02*
X133870Y-107010D01*
G54D18*
X134409Y-105991D02*
X133891Y-105991D01*
X133891Y-105991D02*
X133891Y-107109D01*
X133891Y-107109D02*
X134409Y-107109D01*
X134409Y-107109D02*
X134409Y-105991D01*
G54D19*
X145379Y-87370D02*
X145227Y-87276D01*
X145379Y-87210D02*
X145059Y-87210D01*
X145059Y-87316D01*
X145074Y-87343D01*
X145090Y-87356D01*
X145120Y-87370D01*
X145166Y-87370D01*
X145196Y-87356D01*
X145211Y-87343D01*
X145227Y-87316D01*
X145227Y-87210D01*
X145090Y-87476D02*
X145074Y-87490D01*
X145059Y-87516D01*
X145059Y-87583D01*
X145074Y-87610D01*
X145090Y-87623D01*
X145120Y-87636D01*
X145150Y-87636D01*
X145196Y-87623D01*
X145379Y-87463D01*
X145379Y-87636D01*
X145379Y-87903D02*
X145379Y-87743D01*
X145379Y-87823D02*
X145059Y-87823D01*
X145105Y-87796D01*
X145135Y-87770D01*
X145150Y-87743D01*
G54D13*
G54D19*
X143880Y-88379D02*
X143973Y-88227D01*
X144040Y-88379D02*
X144040Y-88059D01*
X143933Y-88059D01*
X143906Y-88074D01*
X143893Y-88090D01*
X143880Y-88120D01*
X143880Y-88166D01*
X143893Y-88196D01*
X143906Y-88211D01*
X143933Y-88227D01*
X144040Y-88227D01*
X143773Y-88090D02*
X143760Y-88074D01*
X143733Y-88059D01*
X143666Y-88059D01*
X143640Y-88074D01*
X143626Y-88090D01*
X143613Y-88120D01*
X143613Y-88150D01*
X143626Y-88196D01*
X143786Y-88379D01*
X143613Y-88379D01*
X143360Y-88059D02*
X143493Y-88059D01*
X143506Y-88211D01*
X143493Y-88196D01*
X143466Y-88181D01*
X143400Y-88181D01*
X143373Y-88196D01*
X143360Y-88211D01*
X143346Y-88242D01*
X143346Y-88318D01*
X143360Y-88349D01*
X143373Y-88364D01*
X143400Y-88379D01*
X143466Y-88379D01*
X143493Y-88364D01*
X143506Y-88349D01*
G54D13*
G54D19*
X145429Y-88720D02*
X145277Y-88626D01*
X145429Y-88560D02*
X145109Y-88560D01*
X145109Y-88666D01*
X145124Y-88693D01*
X145140Y-88706D01*
X145170Y-88720D01*
X145216Y-88720D01*
X145246Y-88706D01*
X145261Y-88693D01*
X145277Y-88666D01*
X145277Y-88560D01*
X145429Y-88986D02*
X145429Y-88826D01*
X145429Y-88906D02*
X145109Y-88906D01*
X145155Y-88880D01*
X145185Y-88853D01*
X145200Y-88826D01*
X145109Y-89160D02*
X145109Y-89186D01*
X145124Y-89213D01*
X145140Y-89226D01*
X145170Y-89240D01*
X145231Y-89253D01*
X145307Y-89253D01*
X145368Y-89240D01*
X145399Y-89226D01*
X145414Y-89213D01*
X145429Y-89186D01*
X145429Y-89160D01*
X145414Y-89133D01*
X145399Y-89120D01*
X145368Y-89106D01*
X145307Y-89093D01*
X145231Y-89093D01*
X145170Y-89106D01*
X145140Y-89120D01*
X145124Y-89133D01*
X145109Y-89160D01*
G54D13*
G54D20*
X155116Y-103304D02*
X155092Y-103328D01*
X155021Y-103352D01*
X154973Y-103352D01*
X154902Y-103328D01*
X154854Y-103280D01*
X154830Y-103233D01*
X154807Y-103138D01*
X154807Y-103066D01*
X154830Y-102971D01*
X154854Y-102923D01*
X154902Y-102876D01*
X154973Y-102852D01*
X155021Y-102852D01*
X155092Y-102876D01*
X155116Y-102900D01*
X155569Y-102852D02*
X155330Y-102852D01*
X155307Y-103090D01*
X155330Y-103066D01*
X155378Y-103042D01*
X155497Y-103042D01*
X155545Y-103066D01*
X155569Y-103090D01*
X155592Y-103138D01*
X155592Y-103257D01*
X155569Y-103304D01*
X155545Y-103328D01*
X155497Y-103352D01*
X155378Y-103352D01*
X155330Y-103328D01*
X155307Y-103304D01*
X153607Y-102702D02*
X153654Y-102702D01*
X153702Y-102726D01*
X153726Y-102750D01*
X153750Y-102797D01*
X153773Y-102892D01*
X153773Y-103011D01*
X153750Y-103107D01*
X153726Y-103154D01*
X153702Y-103178D01*
X153654Y-103202D01*
X153607Y-103202D01*
X153559Y-103178D01*
X153535Y-103154D01*
X153511Y-103107D01*
X153488Y-103011D01*
X153488Y-102892D01*
X153511Y-102797D01*
X153535Y-102750D01*
X153559Y-102726D01*
X153607Y-102702D01*
X153988Y-103154D02*
X154011Y-103178D01*
X153988Y-103202D01*
X153964Y-103178D01*
X153988Y-103154D01*
X153988Y-103202D01*
X154440Y-102869D02*
X154440Y-103202D01*
X154321Y-102678D02*
X154202Y-103035D01*
X154511Y-103035D01*
X154654Y-102702D02*
X154988Y-102702D01*
X154773Y-103202D01*
X155392Y-102869D02*
X155392Y-103202D01*
X155178Y-102869D02*
X155178Y-103130D01*
X155202Y-103178D01*
X155250Y-103202D01*
X155321Y-103202D01*
X155369Y-103178D01*
X155392Y-103154D01*
X155797Y-102940D02*
X155630Y-102940D01*
X155630Y-103202D02*
X155630Y-102702D01*
X155869Y-102702D01*
X156416Y-102750D02*
X156440Y-102726D01*
X156488Y-102702D01*
X156607Y-102702D01*
X156654Y-102726D01*
X156678Y-102750D01*
X156702Y-102797D01*
X156702Y-102845D01*
X156678Y-102916D01*
X156392Y-103202D01*
X156702Y-103202D01*
X156869Y-102702D02*
X157202Y-102702D01*
X156988Y-103202D01*
X157630Y-102702D02*
X157392Y-102702D01*
X157369Y-102940D01*
X157392Y-102916D01*
X157440Y-102892D01*
X157559Y-102892D01*
X157607Y-102916D01*
X157630Y-102940D01*
X157654Y-102988D01*
X157654Y-103107D01*
X157630Y-103154D01*
X157607Y-103178D01*
X157559Y-103202D01*
X157440Y-103202D01*
X157392Y-103178D01*
X157369Y-103154D01*
X157797Y-102702D02*
X157964Y-103202D01*
X158130Y-102702D01*
X158273Y-103059D02*
X158511Y-103059D01*
X158226Y-103202D02*
X158392Y-102702D01*
X158559Y-103202D01*
X159011Y-103154D02*
X158988Y-103178D01*
X158916Y-103202D01*
X158869Y-103202D01*
X158797Y-103178D01*
X158750Y-103130D01*
X158726Y-103083D01*
X158702Y-102988D01*
X158702Y-102916D01*
X158726Y-102821D01*
X158750Y-102773D01*
X158797Y-102726D01*
X158869Y-102702D01*
X158916Y-102702D01*
X158988Y-102726D01*
X159011Y-102750D01*
X156816Y-104354D02*
X156792Y-104378D01*
X156721Y-104402D01*
X156673Y-104402D01*
X156602Y-104378D01*
X156554Y-104330D01*
X156530Y-104283D01*
X156507Y-104188D01*
X156507Y-104116D01*
X156530Y-104021D01*
X156554Y-103973D01*
X156602Y-103926D01*
X156673Y-103902D01*
X156721Y-103902D01*
X156792Y-103926D01*
X156816Y-103950D01*
X157245Y-104069D02*
X157245Y-104402D01*
X157126Y-103878D02*
X157007Y-104235D01*
X157316Y-104235D01*
X154607Y-102152D02*
X154654Y-102152D01*
X154702Y-102176D01*
X154726Y-102200D01*
X154750Y-102247D01*
X154773Y-102342D01*
X154773Y-102461D01*
X154750Y-102557D01*
X154726Y-102604D01*
X154702Y-102628D01*
X154654Y-102652D01*
X154607Y-102652D01*
X154559Y-102628D01*
X154535Y-102604D01*
X154511Y-102557D01*
X154488Y-102461D01*
X154488Y-102342D01*
X154511Y-102247D01*
X154535Y-102200D01*
X154559Y-102176D01*
X154607Y-102152D01*
X154988Y-102604D02*
X155011Y-102628D01*
X154988Y-102652D01*
X154964Y-102628D01*
X154988Y-102604D01*
X154988Y-102652D01*
X155440Y-102319D02*
X155440Y-102652D01*
X155321Y-102128D02*
X155202Y-102485D01*
X155511Y-102485D01*
X155654Y-102152D02*
X155988Y-102152D01*
X155773Y-102652D01*
X156392Y-102319D02*
X156392Y-102652D01*
X156178Y-102319D02*
X156178Y-102580D01*
X156202Y-102628D01*
X156250Y-102652D01*
X156321Y-102652D01*
X156369Y-102628D01*
X156392Y-102604D01*
X156797Y-102390D02*
X156630Y-102390D01*
X156630Y-102652D02*
X156630Y-102152D01*
X156869Y-102152D01*
X157416Y-102200D02*
X157440Y-102176D01*
X157488Y-102152D01*
X157607Y-102152D01*
X157654Y-102176D01*
X157678Y-102200D01*
X157702Y-102247D01*
X157702Y-102295D01*
X157678Y-102366D01*
X157392Y-102652D01*
X157702Y-102652D01*
X157869Y-102152D02*
X158202Y-102152D01*
X157988Y-102652D01*
X158630Y-102152D02*
X158392Y-102152D01*
X158369Y-102390D01*
X158392Y-102366D01*
X158440Y-102342D01*
X158559Y-102342D01*
X158607Y-102366D01*
X158630Y-102390D01*
X158654Y-102438D01*
X158654Y-102557D01*
X158630Y-102604D01*
X158607Y-102628D01*
X158559Y-102652D01*
X158440Y-102652D01*
X158392Y-102628D01*
X158369Y-102604D01*
X158797Y-102152D02*
X158964Y-102652D01*
X159130Y-102152D01*
X159273Y-102509D02*
X159511Y-102509D01*
X159226Y-102652D02*
X159392Y-102152D01*
X159559Y-102652D01*
X160011Y-102604D02*
X159988Y-102628D01*
X159916Y-102652D01*
X159869Y-102652D01*
X159797Y-102628D01*
X159750Y-102580D01*
X159726Y-102533D01*
X159702Y-102438D01*
X159702Y-102366D01*
X159726Y-102271D01*
X159750Y-102223D01*
X159797Y-102176D01*
X159869Y-102152D01*
X159916Y-102152D01*
X159988Y-102176D01*
X160011Y-102200D01*
X156219Y-95402D02*
X156219Y-95807D01*
X156242Y-95854D01*
X156266Y-95878D01*
X156314Y-95902D01*
X156409Y-95902D01*
X156457Y-95878D01*
X156480Y-95854D01*
X156504Y-95807D01*
X156504Y-95402D01*
X156695Y-95402D02*
X157004Y-95402D01*
X156838Y-95592D01*
X156909Y-95592D01*
X156957Y-95616D01*
X156980Y-95640D01*
X157004Y-95688D01*
X157004Y-95807D01*
X156980Y-95854D01*
X156957Y-95878D01*
X156909Y-95902D01*
X156766Y-95902D01*
X156719Y-95878D01*
X156695Y-95854D01*
X155788Y-98657D02*
X155788Y-98157D01*
X155955Y-98514D01*
X156121Y-98157D01*
X156121Y-98657D01*
X156336Y-98514D02*
X156574Y-98514D01*
X156288Y-98657D02*
X156455Y-98157D01*
X156621Y-98657D01*
X156740Y-98157D02*
X157074Y-98657D01*
X157074Y-98157D02*
X156740Y-98657D01*
X157526Y-98657D02*
X157240Y-98657D01*
X157383Y-98657D02*
X157383Y-98157D01*
X157336Y-98228D01*
X157288Y-98276D01*
X157240Y-98300D01*
X157693Y-98157D02*
X158026Y-98157D01*
X157812Y-98657D01*
X158169Y-98157D02*
X158502Y-98157D01*
X158288Y-98657D01*
X158955Y-98657D02*
X158669Y-98657D01*
X158812Y-98657D02*
X158812Y-98157D01*
X158764Y-98228D01*
X158717Y-98276D01*
X158669Y-98300D01*
X147280Y-77752D02*
X147280Y-77252D01*
X147400Y-77252D01*
X147471Y-77276D01*
X147519Y-77323D01*
X147542Y-77371D01*
X147566Y-77466D01*
X147566Y-77538D01*
X147542Y-77633D01*
X147519Y-77680D01*
X147471Y-77728D01*
X147400Y-77752D01*
X147280Y-77752D01*
X148019Y-77252D02*
X147780Y-77252D01*
X147757Y-77490D01*
X147780Y-77466D01*
X147828Y-77442D01*
X147947Y-77442D01*
X147995Y-77466D01*
X148019Y-77490D01*
X148042Y-77538D01*
X148042Y-77657D01*
X148019Y-77704D01*
X147995Y-77728D01*
X147947Y-77752D01*
X147828Y-77752D01*
X147780Y-77728D01*
X147757Y-77704D01*
X145766Y-76578D02*
X145838Y-76602D01*
X145957Y-76602D01*
X146004Y-76578D01*
X146028Y-76554D01*
X146052Y-76507D01*
X146052Y-76459D01*
X146028Y-76411D01*
X146004Y-76388D01*
X145957Y-76364D01*
X145861Y-76340D01*
X145814Y-76316D01*
X145790Y-76292D01*
X145766Y-76245D01*
X145766Y-76197D01*
X145790Y-76150D01*
X145814Y-76126D01*
X145861Y-76102D01*
X145980Y-76102D01*
X146052Y-76126D01*
X146433Y-76340D02*
X146266Y-76340D01*
X146266Y-76602D02*
X146266Y-76102D01*
X146504Y-76102D01*
X146647Y-76102D02*
X146957Y-76102D01*
X146790Y-76292D01*
X146861Y-76292D01*
X146909Y-76316D01*
X146933Y-76340D01*
X146957Y-76388D01*
X146957Y-76507D01*
X146933Y-76554D01*
X146909Y-76578D01*
X146861Y-76602D01*
X146719Y-76602D01*
X146671Y-76578D01*
X146647Y-76554D01*
X147409Y-76102D02*
X147171Y-76102D01*
X147147Y-76340D01*
X147171Y-76316D01*
X147219Y-76292D01*
X147338Y-76292D01*
X147385Y-76316D01*
X147409Y-76340D01*
X147433Y-76388D01*
X147433Y-76507D01*
X147409Y-76554D01*
X147385Y-76578D01*
X147338Y-76602D01*
X147219Y-76602D01*
X147171Y-76578D01*
X147147Y-76554D01*
G54D21*
X133912Y-98365D02*
X134167Y-98365D01*
X134197Y-98380D01*
X134212Y-98395D01*
X134227Y-98425D01*
X134227Y-98485D01*
X134212Y-98515D01*
X134197Y-98530D01*
X134167Y-98545D01*
X133912Y-98545D01*
X133912Y-98664D02*
X133912Y-98874D01*
X134227Y-98739D01*
X153777Y-93265D02*
X153462Y-93265D01*
X153687Y-93370D01*
X153462Y-93475D01*
X153777Y-93475D01*
X153687Y-93610D02*
X153687Y-93760D01*
X153777Y-93580D02*
X153462Y-93685D01*
X153777Y-93790D01*
X153462Y-93865D02*
X153777Y-94075D01*
X153462Y-94075D02*
X153777Y-93865D01*
X153462Y-94329D02*
X153462Y-94269D01*
X153477Y-94240D01*
X153492Y-94225D01*
X153537Y-94195D01*
X153597Y-94180D01*
X153717Y-94180D01*
X153747Y-94195D01*
X153762Y-94210D01*
X153777Y-94240D01*
X153777Y-94299D01*
X153762Y-94329D01*
X153747Y-94344D01*
X153717Y-94359D01*
X153642Y-94359D01*
X153612Y-94344D01*
X153597Y-94329D01*
X153582Y-94299D01*
X153582Y-94240D01*
X153597Y-94210D01*
X153612Y-94195D01*
X153642Y-94180D01*
X153597Y-94539D02*
X153582Y-94509D01*
X153567Y-94494D01*
X153537Y-94479D01*
X153522Y-94479D01*
X153492Y-94494D01*
X153477Y-94509D01*
X153462Y-94539D01*
X153462Y-94599D01*
X153477Y-94629D01*
X153492Y-94644D01*
X153522Y-94659D01*
X153537Y-94659D01*
X153567Y-94644D01*
X153582Y-94629D01*
X153597Y-94599D01*
X153597Y-94539D01*
X153612Y-94509D01*
X153627Y-94494D01*
X153657Y-94479D01*
X153717Y-94479D01*
X153747Y-94494D01*
X153762Y-94509D01*
X153777Y-94539D01*
X153777Y-94599D01*
X153762Y-94629D01*
X153747Y-94644D01*
X153717Y-94659D01*
X153657Y-94659D01*
X153627Y-94644D01*
X153612Y-94629D01*
X153597Y-94599D01*
X153777Y-94959D02*
X153777Y-94779D01*
X153777Y-94869D02*
X153462Y-94869D01*
X153507Y-94839D01*
X153537Y-94809D01*
X153552Y-94779D01*
X153462Y-95229D02*
X153462Y-95169D01*
X153477Y-95139D01*
X153492Y-95124D01*
X153537Y-95094D01*
X153597Y-95079D01*
X153717Y-95079D01*
X153747Y-95094D01*
X153762Y-95109D01*
X153777Y-95139D01*
X153777Y-95199D01*
X153762Y-95229D01*
X153747Y-95244D01*
X153717Y-95259D01*
X153642Y-95259D01*
X153612Y-95244D01*
X153597Y-95229D01*
X153582Y-95199D01*
X153582Y-95139D01*
X153597Y-95109D01*
X153612Y-95094D01*
X153642Y-95079D01*
G54D20*
X132931Y-100764D02*
X132955Y-100788D01*
X133026Y-100812D01*
X133074Y-100812D01*
X133145Y-100788D01*
X133193Y-100740D01*
X133217Y-100693D01*
X133240Y-100598D01*
X133240Y-100526D01*
X133217Y-100431D01*
X133193Y-100383D01*
X133145Y-100336D01*
X133074Y-100312D01*
X133026Y-100312D01*
X132955Y-100336D01*
X132931Y-100360D01*
X132455Y-100812D02*
X132740Y-100812D01*
X132598Y-100812D02*
X132598Y-100312D01*
X132645Y-100383D01*
X132693Y-100431D01*
X132740Y-100455D01*
X132217Y-100812D02*
X132121Y-100812D01*
X132074Y-100788D01*
X132050Y-100764D01*
X132002Y-100693D01*
X131979Y-100598D01*
X131979Y-100407D01*
X132002Y-100360D01*
X132026Y-100336D01*
X132074Y-100312D01*
X132169Y-100312D01*
X132217Y-100336D01*
X132240Y-100360D01*
X132264Y-100407D01*
X132264Y-100526D01*
X132240Y-100574D01*
X132217Y-100598D01*
X132169Y-100621D01*
X132074Y-100621D01*
X132026Y-100598D01*
X132002Y-100574D01*
X131979Y-100526D01*
X153981Y-96722D02*
X153933Y-96722D01*
X153886Y-96746D01*
X153862Y-96770D01*
X153838Y-96817D01*
X153814Y-96912D01*
X153814Y-97031D01*
X153838Y-97127D01*
X153862Y-97174D01*
X153886Y-97198D01*
X153933Y-97222D01*
X153981Y-97222D01*
X154029Y-97198D01*
X154052Y-97174D01*
X154076Y-97127D01*
X154100Y-97031D01*
X154100Y-96912D01*
X154076Y-96817D01*
X154052Y-96770D01*
X154029Y-96746D01*
X153981Y-96722D01*
X153600Y-97174D02*
X153576Y-97198D01*
X153600Y-97222D01*
X153624Y-97198D01*
X153600Y-97174D01*
X153600Y-97222D01*
X153100Y-97222D02*
X153386Y-97222D01*
X153243Y-97222D02*
X153243Y-96722D01*
X153290Y-96793D01*
X153338Y-96841D01*
X153386Y-96865D01*
X152671Y-96889D02*
X152671Y-97222D01*
X152886Y-96889D02*
X152886Y-97150D01*
X152862Y-97198D01*
X152814Y-97222D01*
X152743Y-97222D01*
X152695Y-97198D01*
X152671Y-97174D01*
X152267Y-96960D02*
X152433Y-96960D01*
X152433Y-97222D02*
X152433Y-96722D01*
X152195Y-96722D01*
X130311Y-102302D02*
X130478Y-102064D01*
X130597Y-102302D02*
X130597Y-101802D01*
X130406Y-101802D01*
X130359Y-101826D01*
X130335Y-101850D01*
X130311Y-101897D01*
X130311Y-101969D01*
X130335Y-102016D01*
X130359Y-102040D01*
X130406Y-102064D01*
X130597Y-102064D01*
X130120Y-101850D02*
X130097Y-101826D01*
X130049Y-101802D01*
X129930Y-101802D01*
X129882Y-101826D01*
X129859Y-101850D01*
X129835Y-101897D01*
X129835Y-101945D01*
X129859Y-102016D01*
X130144Y-102302D01*
X129835Y-102302D01*
X129644Y-101850D02*
X129620Y-101826D01*
X129573Y-101802D01*
X129454Y-101802D01*
X129406Y-101826D01*
X129382Y-101850D01*
X129359Y-101897D01*
X129359Y-101945D01*
X129382Y-102016D01*
X129668Y-102302D01*
X129359Y-102302D01*
X129342Y-82502D02*
X129033Y-82502D01*
X129200Y-82692D01*
X129128Y-82692D01*
X129080Y-82716D01*
X129057Y-82740D01*
X129033Y-82788D01*
X129033Y-82907D01*
X129057Y-82954D01*
X129080Y-82978D01*
X129128Y-83002D01*
X129271Y-83002D01*
X129319Y-82978D01*
X129342Y-82954D01*
X128866Y-82502D02*
X128557Y-82502D01*
X128723Y-82692D01*
X128652Y-82692D01*
X128604Y-82716D01*
X128580Y-82740D01*
X128557Y-82788D01*
X128557Y-82907D01*
X128580Y-82954D01*
X128604Y-82978D01*
X128652Y-83002D01*
X128795Y-83002D01*
X128842Y-82978D01*
X128866Y-82954D01*
X128247Y-82502D02*
X128200Y-82502D01*
X128152Y-82526D01*
X128128Y-82550D01*
X128104Y-82597D01*
X128080Y-82692D01*
X128080Y-82811D01*
X128104Y-82907D01*
X128128Y-82954D01*
X128152Y-82978D01*
X128200Y-83002D01*
X128247Y-83002D01*
X128295Y-82978D01*
X128319Y-82954D01*
X128342Y-82907D01*
X128366Y-82811D01*
X128366Y-82692D01*
X128342Y-82597D01*
X128319Y-82550D01*
X128295Y-82526D01*
X128247Y-82502D01*
X129821Y-99902D02*
X129988Y-99664D01*
X130107Y-99902D02*
X130107Y-99402D01*
X129916Y-99402D01*
X129869Y-99426D01*
X129845Y-99450D01*
X129821Y-99497D01*
X129821Y-99569D01*
X129845Y-99616D01*
X129869Y-99640D01*
X129916Y-99664D01*
X130107Y-99664D01*
X129630Y-99450D02*
X129607Y-99426D01*
X129559Y-99402D01*
X129440Y-99402D01*
X129392Y-99426D01*
X129369Y-99450D01*
X129345Y-99497D01*
X129345Y-99545D01*
X129369Y-99616D01*
X129654Y-99902D01*
X129345Y-99902D01*
X129178Y-99402D02*
X128869Y-99402D01*
X129035Y-99592D01*
X128964Y-99592D01*
X128916Y-99616D01*
X128892Y-99640D01*
X128869Y-99688D01*
X128869Y-99807D01*
X128892Y-99854D01*
X128916Y-99878D01*
X128964Y-99902D01*
X129107Y-99902D01*
X129154Y-99878D01*
X129178Y-99854D01*
X126922Y-82652D02*
X126613Y-82652D01*
X126780Y-82842D01*
X126708Y-82842D01*
X126660Y-82866D01*
X126637Y-82890D01*
X126613Y-82938D01*
X126613Y-83057D01*
X126637Y-83104D01*
X126660Y-83128D01*
X126708Y-83152D01*
X126851Y-83152D01*
X126899Y-83128D01*
X126922Y-83104D01*
X126446Y-82652D02*
X126137Y-82652D01*
X126303Y-82842D01*
X126232Y-82842D01*
X126184Y-82866D01*
X126160Y-82890D01*
X126137Y-82938D01*
X126137Y-83057D01*
X126160Y-83104D01*
X126184Y-83128D01*
X126232Y-83152D01*
X126375Y-83152D01*
X126422Y-83128D01*
X126446Y-83104D01*
X125827Y-82652D02*
X125780Y-82652D01*
X125732Y-82676D01*
X125708Y-82700D01*
X125684Y-82747D01*
X125660Y-82842D01*
X125660Y-82961D01*
X125684Y-83057D01*
X125708Y-83104D01*
X125732Y-83128D01*
X125780Y-83152D01*
X125827Y-83152D01*
X125875Y-83128D01*
X125899Y-83104D01*
X125922Y-83057D01*
X125946Y-82961D01*
X125946Y-82842D01*
X125922Y-82747D01*
X125899Y-82700D01*
X125875Y-82676D01*
X125827Y-82652D01*
X153577Y-97369D02*
X153077Y-97369D01*
X153077Y-97250D01*
X153101Y-97178D01*
X153148Y-97130D01*
X153196Y-97107D01*
X153291Y-97083D01*
X153363Y-97083D01*
X153458Y-97107D01*
X153505Y-97130D01*
X153553Y-97178D01*
X153577Y-97250D01*
X153577Y-97369D01*
X153291Y-96797D02*
X153267Y-96845D01*
X153244Y-96869D01*
X153196Y-96892D01*
X153172Y-96892D01*
X153125Y-96869D01*
X153101Y-96845D01*
X153077Y-96797D01*
X153077Y-96702D01*
X153101Y-96654D01*
X153125Y-96630D01*
X153172Y-96607D01*
X153196Y-96607D01*
X153244Y-96630D01*
X153267Y-96654D01*
X153291Y-96702D01*
X153291Y-96797D01*
X153315Y-96845D01*
X153339Y-96869D01*
X153386Y-96892D01*
X153482Y-96892D01*
X153529Y-96869D01*
X153553Y-96845D01*
X153577Y-96797D01*
X153577Y-96702D01*
X153553Y-96654D01*
X153529Y-96630D01*
X153482Y-96607D01*
X153386Y-96607D01*
X153339Y-96630D01*
X153315Y-96654D01*
X153291Y-96702D01*
X153402Y-98971D02*
X153402Y-99257D01*
X153402Y-99114D02*
X152902Y-99114D01*
X152973Y-99161D01*
X153021Y-99209D01*
X153045Y-99257D01*
X153402Y-98757D02*
X152902Y-98757D01*
X153402Y-98471D01*
X152902Y-98471D01*
X153069Y-98019D02*
X153402Y-98019D01*
X152878Y-98138D02*
X153235Y-98257D01*
X153235Y-97947D01*
X152902Y-97661D02*
X152902Y-97614D01*
X152926Y-97566D01*
X152950Y-97542D01*
X152997Y-97519D01*
X153092Y-97495D01*
X153211Y-97495D01*
X153307Y-97519D01*
X153354Y-97542D01*
X153378Y-97566D01*
X153402Y-97614D01*
X153402Y-97661D01*
X153378Y-97709D01*
X153354Y-97733D01*
X153307Y-97757D01*
X153211Y-97780D01*
X153092Y-97780D01*
X152997Y-97757D01*
X152950Y-97733D01*
X152926Y-97709D01*
X152902Y-97661D01*
X152902Y-97185D02*
X152902Y-97138D01*
X152926Y-97090D01*
X152950Y-97066D01*
X152997Y-97042D01*
X153092Y-97019D01*
X153211Y-97019D01*
X153307Y-97042D01*
X153354Y-97066D01*
X153378Y-97090D01*
X153402Y-97138D01*
X153402Y-97185D01*
X153378Y-97233D01*
X153354Y-97257D01*
X153307Y-97280D01*
X153211Y-97304D01*
X153092Y-97304D01*
X152997Y-97280D01*
X152950Y-97257D01*
X152926Y-97233D01*
X152902Y-97185D01*
X153069Y-96590D02*
X153402Y-96590D01*
X152878Y-96709D02*
X153235Y-96828D01*
X153235Y-96519D01*
X153552Y-98169D02*
X153052Y-98169D01*
X153052Y-98050D01*
X153076Y-97978D01*
X153123Y-97930D01*
X153171Y-97907D01*
X153266Y-97883D01*
X153338Y-97883D01*
X153433Y-97907D01*
X153480Y-97930D01*
X153528Y-97978D01*
X153552Y-98050D01*
X153552Y-98169D01*
X153552Y-97645D02*
X153552Y-97550D01*
X153528Y-97502D01*
X153504Y-97478D01*
X153433Y-97430D01*
X153338Y-97407D01*
X153147Y-97407D01*
X153100Y-97430D01*
X153076Y-97454D01*
X153052Y-97502D01*
X153052Y-97597D01*
X153076Y-97645D01*
X153100Y-97669D01*
X153147Y-97692D01*
X153266Y-97692D01*
X153314Y-97669D01*
X153338Y-97645D01*
X153361Y-97597D01*
X153361Y-97502D01*
X153338Y-97454D01*
X153314Y-97430D01*
X153266Y-97407D01*
X154402Y-98971D02*
X154402Y-99257D01*
X154402Y-99114D02*
X153902Y-99114D01*
X153973Y-99161D01*
X154021Y-99209D01*
X154045Y-99257D01*
X154402Y-98757D02*
X153902Y-98757D01*
X154402Y-98471D01*
X153902Y-98471D01*
X154069Y-98019D02*
X154402Y-98019D01*
X153878Y-98138D02*
X154235Y-98257D01*
X154235Y-97947D01*
X153902Y-97661D02*
X153902Y-97614D01*
X153926Y-97566D01*
X153950Y-97542D01*
X153997Y-97519D01*
X154092Y-97495D01*
X154211Y-97495D01*
X154307Y-97519D01*
X154354Y-97542D01*
X154378Y-97566D01*
X154402Y-97614D01*
X154402Y-97661D01*
X154378Y-97709D01*
X154354Y-97733D01*
X154307Y-97757D01*
X154211Y-97780D01*
X154092Y-97780D01*
X153997Y-97757D01*
X153950Y-97733D01*
X153926Y-97709D01*
X153902Y-97661D01*
X153902Y-97185D02*
X153902Y-97138D01*
X153926Y-97090D01*
X153950Y-97066D01*
X153997Y-97042D01*
X154092Y-97019D01*
X154211Y-97019D01*
X154307Y-97042D01*
X154354Y-97066D01*
X154378Y-97090D01*
X154402Y-97138D01*
X154402Y-97185D01*
X154378Y-97233D01*
X154354Y-97257D01*
X154307Y-97280D01*
X154211Y-97304D01*
X154092Y-97304D01*
X153997Y-97280D01*
X153950Y-97257D01*
X153926Y-97233D01*
X153902Y-97185D01*
X154069Y-96590D02*
X154402Y-96590D01*
X153878Y-96709D02*
X154235Y-96828D01*
X154235Y-96519D01*
X152930Y-102602D02*
X152930Y-102102D01*
X153050Y-102102D01*
X153121Y-102126D01*
X153169Y-102173D01*
X153192Y-102221D01*
X153216Y-102316D01*
X153216Y-102388D01*
X153192Y-102483D01*
X153169Y-102530D01*
X153121Y-102578D01*
X153050Y-102602D01*
X152930Y-102602D01*
X153645Y-102102D02*
X153550Y-102102D01*
X153502Y-102126D01*
X153478Y-102150D01*
X153430Y-102221D01*
X153407Y-102316D01*
X153407Y-102507D01*
X153430Y-102554D01*
X153454Y-102578D01*
X153502Y-102602D01*
X153597Y-102602D01*
X153645Y-102578D01*
X153669Y-102554D01*
X153692Y-102507D01*
X153692Y-102388D01*
X153669Y-102340D01*
X153645Y-102316D01*
X153597Y-102292D01*
X153502Y-102292D01*
X153454Y-102316D01*
X153430Y-102340D01*
X153407Y-102388D01*
X153828Y-102202D02*
X153542Y-102202D01*
X153685Y-102202D02*
X153685Y-101702D01*
X153638Y-101773D01*
X153590Y-101821D01*
X153542Y-101845D01*
X154042Y-102202D02*
X154042Y-101702D01*
X154328Y-102202D01*
X154328Y-101702D01*
X154780Y-101869D02*
X154780Y-102202D01*
X154661Y-101678D02*
X154542Y-102035D01*
X154852Y-102035D01*
X155138Y-101702D02*
X155185Y-101702D01*
X155233Y-101726D01*
X155257Y-101750D01*
X155280Y-101797D01*
X155304Y-101892D01*
X155304Y-102011D01*
X155280Y-102107D01*
X155257Y-102154D01*
X155233Y-102178D01*
X155185Y-102202D01*
X155138Y-102202D01*
X155090Y-102178D01*
X155066Y-102154D01*
X155042Y-102107D01*
X155019Y-102011D01*
X155019Y-101892D01*
X155042Y-101797D01*
X155066Y-101750D01*
X155090Y-101726D01*
X155138Y-101702D01*
X155614Y-101702D02*
X155661Y-101702D01*
X155709Y-101726D01*
X155733Y-101750D01*
X155757Y-101797D01*
X155780Y-101892D01*
X155780Y-102011D01*
X155757Y-102107D01*
X155733Y-102154D01*
X155709Y-102178D01*
X155661Y-102202D01*
X155614Y-102202D01*
X155566Y-102178D01*
X155542Y-102154D01*
X155519Y-102107D01*
X155495Y-102011D01*
X155495Y-101892D01*
X155519Y-101797D01*
X155542Y-101750D01*
X155566Y-101726D01*
X155614Y-101702D01*
X156209Y-101869D02*
X156209Y-102202D01*
X156090Y-101678D02*
X155971Y-102035D01*
X156280Y-102035D01*
X152280Y-102877D02*
X152280Y-102377D01*
X152400Y-102377D01*
X152471Y-102401D01*
X152519Y-102448D01*
X152542Y-102496D01*
X152566Y-102591D01*
X152566Y-102663D01*
X152542Y-102758D01*
X152519Y-102805D01*
X152471Y-102853D01*
X152400Y-102877D01*
X152280Y-102877D01*
X152733Y-102377D02*
X153066Y-102377D01*
X152852Y-102877D01*
X154228Y-102202D02*
X153942Y-102202D01*
X154085Y-102202D02*
X154085Y-101702D01*
X154038Y-101773D01*
X153990Y-101821D01*
X153942Y-101845D01*
X154442Y-102202D02*
X154442Y-101702D01*
X154728Y-102202D01*
X154728Y-101702D01*
X155180Y-101869D02*
X155180Y-102202D01*
X155061Y-101678D02*
X154942Y-102035D01*
X155252Y-102035D01*
X155538Y-101702D02*
X155585Y-101702D01*
X155633Y-101726D01*
X155657Y-101750D01*
X155680Y-101797D01*
X155704Y-101892D01*
X155704Y-102011D01*
X155680Y-102107D01*
X155657Y-102154D01*
X155633Y-102178D01*
X155585Y-102202D01*
X155538Y-102202D01*
X155490Y-102178D01*
X155466Y-102154D01*
X155442Y-102107D01*
X155419Y-102011D01*
X155419Y-101892D01*
X155442Y-101797D01*
X155466Y-101750D01*
X155490Y-101726D01*
X155538Y-101702D01*
X156014Y-101702D02*
X156061Y-101702D01*
X156109Y-101726D01*
X156133Y-101750D01*
X156157Y-101797D01*
X156180Y-101892D01*
X156180Y-102011D01*
X156157Y-102107D01*
X156133Y-102154D01*
X156109Y-102178D01*
X156061Y-102202D01*
X156014Y-102202D01*
X155966Y-102178D01*
X155942Y-102154D01*
X155919Y-102107D01*
X155895Y-102011D01*
X155895Y-101892D01*
X155919Y-101797D01*
X155942Y-101750D01*
X155966Y-101726D01*
X156014Y-101702D01*
X156609Y-101869D02*
X156609Y-102202D01*
X156490Y-101678D02*
X156371Y-102035D01*
X156680Y-102035D01*
X132177Y-106928D02*
X131939Y-106761D01*
X132177Y-106642D02*
X131677Y-106642D01*
X131677Y-106833D01*
X131701Y-106880D01*
X131725Y-106904D01*
X131772Y-106928D01*
X131844Y-106928D01*
X131891Y-106904D01*
X131915Y-106880D01*
X131939Y-106833D01*
X131939Y-106642D01*
X131725Y-107119D02*
X131701Y-107142D01*
X131677Y-107190D01*
X131677Y-107309D01*
X131701Y-107357D01*
X131725Y-107380D01*
X131772Y-107404D01*
X131820Y-107404D01*
X131891Y-107380D01*
X132177Y-107095D01*
X132177Y-107404D01*
X131844Y-107833D02*
X132177Y-107833D01*
X131653Y-107714D02*
X132010Y-107595D01*
X132010Y-107904D01*
X155602Y-93547D02*
X155602Y-93857D01*
X155792Y-93690D01*
X155792Y-93761D01*
X155816Y-93809D01*
X155840Y-93833D01*
X155888Y-93857D01*
X156007Y-93857D01*
X156054Y-93833D01*
X156078Y-93809D01*
X156102Y-93761D01*
X156102Y-93619D01*
X156078Y-93571D01*
X156054Y-93547D01*
X155602Y-94023D02*
X155602Y-94333D01*
X155792Y-94166D01*
X155792Y-94238D01*
X155816Y-94285D01*
X155840Y-94309D01*
X155888Y-94333D01*
X156007Y-94333D01*
X156054Y-94309D01*
X156078Y-94285D01*
X156102Y-94238D01*
X156102Y-94095D01*
X156078Y-94047D01*
X156054Y-94023D01*
X155602Y-94642D02*
X155602Y-94690D01*
X155626Y-94738D01*
X155650Y-94761D01*
X155697Y-94785D01*
X155792Y-94809D01*
X155911Y-94809D01*
X156007Y-94785D01*
X156054Y-94761D01*
X156078Y-94738D01*
X156102Y-94690D01*
X156102Y-94642D01*
X156078Y-94595D01*
X156054Y-94571D01*
X156007Y-94547D01*
X155911Y-94523D01*
X155792Y-94523D01*
X155697Y-94547D01*
X155650Y-94571D01*
X155626Y-94595D01*
X155602Y-94642D01*
X155602Y-95500D02*
X155602Y-95547D01*
X155626Y-95595D01*
X155650Y-95619D01*
X155697Y-95642D01*
X155792Y-95666D01*
X155911Y-95666D01*
X156007Y-95642D01*
X156054Y-95619D01*
X156078Y-95595D01*
X156102Y-95547D01*
X156102Y-95500D01*
X156078Y-95452D01*
X156054Y-95428D01*
X156007Y-95404D01*
X155911Y-95380D01*
X155792Y-95380D01*
X155697Y-95404D01*
X155650Y-95428D01*
X155626Y-95452D01*
X155602Y-95500D01*
X156054Y-95880D02*
X156078Y-95904D01*
X156102Y-95880D01*
X156078Y-95857D01*
X156054Y-95880D01*
X156102Y-95880D01*
X155650Y-96095D02*
X155626Y-96119D01*
X155602Y-96166D01*
X155602Y-96285D01*
X155626Y-96333D01*
X155650Y-96357D01*
X155697Y-96380D01*
X155745Y-96380D01*
X155816Y-96357D01*
X156102Y-96071D01*
X156102Y-96380D01*
X155602Y-96833D02*
X155602Y-96595D01*
X155840Y-96571D01*
X155816Y-96595D01*
X155792Y-96642D01*
X155792Y-96761D01*
X155816Y-96809D01*
X155840Y-96833D01*
X155888Y-96857D01*
X156007Y-96857D01*
X156054Y-96833D01*
X156078Y-96809D01*
X156102Y-96761D01*
X156102Y-96642D01*
X156078Y-96595D01*
X156054Y-96571D01*
X155602Y-97023D02*
X156102Y-97142D01*
X155745Y-97238D01*
X156102Y-97333D01*
X155602Y-97452D01*
X134602Y-105419D02*
X134602Y-105704D01*
X135102Y-105561D02*
X134602Y-105561D01*
X134650Y-105847D02*
X134626Y-105871D01*
X134602Y-105919D01*
X134602Y-106038D01*
X134626Y-106085D01*
X134650Y-106109D01*
X134697Y-106133D01*
X134745Y-106133D01*
X134816Y-106109D01*
X135102Y-105823D01*
X135102Y-106133D01*
X103525Y-111061D02*
X103453Y-111157D01*
X103525Y-111252D01*
X103525Y-111347D02*
X103453Y-111442D01*
X103525Y-111538D01*
X103977Y-111704D02*
X103477Y-111704D01*
X103977Y-111990D01*
X103477Y-111990D01*
X103977Y-112228D02*
X103477Y-112228D01*
X103477Y-112419D01*
X103501Y-112466D01*
X103525Y-112490D01*
X103572Y-112514D01*
X103644Y-112514D01*
X103691Y-112490D01*
X103715Y-112466D01*
X103739Y-112419D01*
X103739Y-112228D01*
X103977Y-112728D02*
X103477Y-112728D01*
X103977Y-113014D01*
X103477Y-113014D01*
X103786Y-113252D02*
X103786Y-113633D01*
X103953Y-113847D02*
X103977Y-113919D01*
X103977Y-114038D01*
X103953Y-114085D01*
X103929Y-114109D01*
X103882Y-114133D01*
X103834Y-114133D01*
X103786Y-114109D01*
X103763Y-114085D01*
X103739Y-114038D01*
X103715Y-113942D01*
X103691Y-113895D01*
X103667Y-113871D01*
X103620Y-113847D01*
X103572Y-113847D01*
X103525Y-113871D01*
X103501Y-113895D01*
X103477Y-113942D01*
X103477Y-114061D01*
X103501Y-114133D01*
X103477Y-114442D02*
X103477Y-114538D01*
X103501Y-114585D01*
X103548Y-114633D01*
X103644Y-114657D01*
X103810Y-114657D01*
X103905Y-114633D01*
X103953Y-114585D01*
X103977Y-114538D01*
X103977Y-114442D01*
X103953Y-114395D01*
X103905Y-114347D01*
X103810Y-114323D01*
X103644Y-114323D01*
X103548Y-114347D01*
X103501Y-114395D01*
X103477Y-114442D01*
X103477Y-114799D02*
X103477Y-115085D01*
X103977Y-114942D02*
X103477Y-114942D01*
X103525Y-115228D02*
X103501Y-115252D01*
X103477Y-115299D01*
X103477Y-115419D01*
X103501Y-115466D01*
X103525Y-115490D01*
X103572Y-115514D01*
X103620Y-115514D01*
X103691Y-115490D01*
X103977Y-115204D01*
X103977Y-115514D01*
X103477Y-115680D02*
X103477Y-115990D01*
X103667Y-115823D01*
X103667Y-115895D01*
X103691Y-115942D01*
X103715Y-115966D01*
X103763Y-115990D01*
X103882Y-115990D01*
X103929Y-115966D01*
X103953Y-115942D01*
X103977Y-115895D01*
X103977Y-115752D01*
X103953Y-115704D01*
X103929Y-115680D01*
M02*
