G04 (created by PCBNEW (2013-07-07 BZR 4022)-stable) date 10/17/2015 1:36:39 PM*
%MOIN*%
G04 Gerber Fmt 3.4, Leading zero omitted, Abs format*
%FSLAX34Y34*%
G01*
G70*
G90*
G04 APERTURE LIST*
%ADD10C,0.00590551*%
%ADD11C,0.00393701*%
%ADD12C,0.00629921*%
%ADD13C,0.0035*%
%ADD14C,0.00787402*%
%ADD15C,0.00669291*%
%ADD16C,0.011811*%
%ADD17C,0.0118*%
%ADD18C,0.012*%
%ADD19C,0.005*%
%ADD20C,0.015*%
%ADD21C,0.01*%
%ADD22C,0.0098*%
%ADD23C,0.008*%
%ADD24C,0.006*%
%ADD25C,0.002*%
%ADD26C,0.0026*%
%ADD27C,0.003*%
%ADD28C,0.00984252*%
%ADD29C,0.016*%
%ADD30C,0.007*%
%ADD31C,0.0106*%
%ADD32C,0.0065*%
G04 APERTURE END LIST*
G54D10*
G54D11*
X140825Y-101230D02*
X140825Y-100880D01*
X139560Y-101230D02*
X140825Y-101230D01*
X139560Y-100920D02*
X139560Y-101230D01*
X140825Y-98295D02*
X140825Y-98645D01*
X139590Y-98295D02*
X140825Y-98295D01*
X139590Y-98565D02*
X139590Y-98295D01*
X140045Y-99155D02*
X140070Y-99155D01*
X140050Y-100415D02*
X140315Y-100415D01*
X140065Y-99155D02*
X140275Y-99155D01*
G54D12*
X89817Y-86279D02*
X89412Y-86279D01*
X89365Y-86302D01*
X89341Y-86326D01*
X89317Y-86374D01*
X89317Y-86469D01*
X89341Y-86517D01*
X89365Y-86540D01*
X89412Y-86564D01*
X89817Y-86564D01*
X89317Y-87064D02*
X89317Y-86779D01*
X89317Y-86921D02*
X89817Y-86921D01*
X89746Y-86874D01*
X89698Y-86826D01*
X89674Y-86779D01*
X89317Y-87540D02*
X89317Y-87255D01*
X89317Y-87398D02*
X89817Y-87398D01*
X89746Y-87350D01*
X89698Y-87302D01*
X89674Y-87255D01*
X88602Y-86564D02*
X88578Y-86540D01*
X88554Y-86469D01*
X88554Y-86421D01*
X88578Y-86350D01*
X88626Y-86302D01*
X88673Y-86279D01*
X88768Y-86255D01*
X88840Y-86255D01*
X88935Y-86279D01*
X88983Y-86302D01*
X89030Y-86350D01*
X89054Y-86421D01*
X89054Y-86469D01*
X89030Y-86540D01*
X89007Y-86564D01*
X88554Y-86779D02*
X89054Y-86779D01*
X88816Y-86779D02*
X88816Y-87064D01*
X88554Y-87064D02*
X89054Y-87064D01*
X89054Y-87255D02*
X89054Y-87564D01*
X88864Y-87398D01*
X88864Y-87469D01*
X88840Y-87517D01*
X88816Y-87540D01*
X88768Y-87564D01*
X88649Y-87564D01*
X88602Y-87540D01*
X88578Y-87517D01*
X88554Y-87469D01*
X88554Y-87326D01*
X88578Y-87279D01*
X88602Y-87255D01*
X88887Y-87993D02*
X88554Y-87993D01*
X89078Y-87874D02*
X88721Y-87755D01*
X88721Y-88064D01*
X88554Y-88517D02*
X88554Y-88231D01*
X88554Y-88374D02*
X89054Y-88374D01*
X88983Y-88326D01*
X88935Y-88279D01*
X88911Y-88231D01*
X88697Y-88707D02*
X88697Y-88945D01*
X88554Y-88660D02*
X89054Y-88826D01*
X88554Y-88993D01*
G54D13*
X90939Y-92217D02*
X90939Y-91812D01*
X90915Y-91765D01*
X90891Y-91741D01*
X90843Y-91717D01*
X90748Y-91717D01*
X90700Y-91741D01*
X90677Y-91765D01*
X90653Y-91812D01*
X90653Y-92217D01*
X90462Y-92217D02*
X90153Y-92217D01*
X90320Y-92027D01*
X90248Y-92027D01*
X90200Y-92003D01*
X90177Y-91979D01*
X90153Y-91931D01*
X90153Y-91812D01*
X90177Y-91765D01*
X90200Y-91741D01*
X90248Y-91717D01*
X90391Y-91717D01*
X90439Y-91741D01*
X90462Y-91765D01*
X89843Y-92217D02*
X89796Y-92217D01*
X89748Y-92193D01*
X89724Y-92170D01*
X89700Y-92122D01*
X89677Y-92027D01*
X89677Y-91908D01*
X89700Y-91812D01*
X89724Y-91765D01*
X89748Y-91741D01*
X89796Y-91717D01*
X89843Y-91717D01*
X89891Y-91741D01*
X89915Y-91765D01*
X89939Y-91812D01*
X89962Y-91908D01*
X89962Y-92027D01*
X89939Y-92122D01*
X89915Y-92170D01*
X89891Y-92193D01*
X89843Y-92217D01*
G54D10*
X91205Y-86033D02*
X91100Y-86033D01*
X91100Y-86239D02*
X91100Y-85845D01*
X91250Y-85845D01*
X91520Y-86239D02*
X91370Y-86239D01*
X91370Y-85845D01*
X91610Y-86126D02*
X91760Y-86126D01*
X91580Y-86239D02*
X91685Y-85845D01*
X91790Y-86239D01*
X91895Y-86239D02*
X91895Y-85845D01*
X91895Y-86033D02*
X92075Y-86033D01*
X92075Y-86239D02*
X92075Y-85845D01*
X92449Y-85826D02*
X92180Y-86333D01*
X92734Y-86239D02*
X92629Y-86051D01*
X92554Y-86239D02*
X92554Y-85845D01*
X92674Y-85845D01*
X92704Y-85864D01*
X92719Y-85883D01*
X92734Y-85920D01*
X92734Y-85976D01*
X92719Y-86014D01*
X92704Y-86033D01*
X92674Y-86051D01*
X92554Y-86051D01*
X92869Y-85845D02*
X92869Y-86164D01*
X92884Y-86201D01*
X92899Y-86220D01*
X92929Y-86239D01*
X92989Y-86239D01*
X93019Y-86220D01*
X93034Y-86201D01*
X93049Y-86164D01*
X93049Y-85845D01*
X93199Y-86239D02*
X93199Y-85845D01*
X93379Y-86239D01*
X93379Y-85845D01*
G54D12*
X85257Y-86039D02*
X84852Y-86039D01*
X84805Y-86062D01*
X84781Y-86086D01*
X84757Y-86134D01*
X84757Y-86229D01*
X84781Y-86277D01*
X84805Y-86300D01*
X84852Y-86324D01*
X85257Y-86324D01*
X85257Y-86515D02*
X85257Y-86824D01*
X85067Y-86658D01*
X85067Y-86729D01*
X85043Y-86777D01*
X85019Y-86800D01*
X84971Y-86824D01*
X84852Y-86824D01*
X84805Y-86800D01*
X84781Y-86777D01*
X84757Y-86729D01*
X84757Y-86586D01*
X84781Y-86539D01*
X84805Y-86515D01*
X85257Y-87134D02*
X85257Y-87181D01*
X85233Y-87229D01*
X85210Y-87253D01*
X85162Y-87277D01*
X85067Y-87300D01*
X84948Y-87300D01*
X84852Y-87277D01*
X84805Y-87253D01*
X84781Y-87229D01*
X84757Y-87181D01*
X84757Y-87134D01*
X84781Y-87086D01*
X84805Y-87062D01*
X84852Y-87039D01*
X84948Y-87015D01*
X85067Y-87015D01*
X85162Y-87039D01*
X85210Y-87062D01*
X85233Y-87086D01*
X85257Y-87134D01*
X84494Y-85991D02*
X83994Y-86324D01*
X84494Y-86324D02*
X83994Y-85991D01*
X84042Y-86800D02*
X84018Y-86777D01*
X83994Y-86705D01*
X83994Y-86658D01*
X84018Y-86586D01*
X84066Y-86539D01*
X84113Y-86515D01*
X84208Y-86491D01*
X84280Y-86491D01*
X84375Y-86515D01*
X84423Y-86539D01*
X84470Y-86586D01*
X84494Y-86658D01*
X84494Y-86705D01*
X84470Y-86777D01*
X84447Y-86800D01*
X84494Y-87229D02*
X84494Y-87134D01*
X84470Y-87086D01*
X84447Y-87062D01*
X84375Y-87015D01*
X84280Y-86991D01*
X84089Y-86991D01*
X84042Y-87015D01*
X84018Y-87039D01*
X83994Y-87086D01*
X83994Y-87181D01*
X84018Y-87229D01*
X84042Y-87253D01*
X84089Y-87277D01*
X84208Y-87277D01*
X84256Y-87253D01*
X84280Y-87229D01*
X84304Y-87181D01*
X84304Y-87086D01*
X84280Y-87039D01*
X84256Y-87015D01*
X84208Y-86991D01*
X84018Y-87467D02*
X83994Y-87539D01*
X83994Y-87658D01*
X84018Y-87705D01*
X84042Y-87729D01*
X84089Y-87753D01*
X84137Y-87753D01*
X84185Y-87729D01*
X84208Y-87705D01*
X84232Y-87658D01*
X84256Y-87562D01*
X84280Y-87515D01*
X84304Y-87491D01*
X84351Y-87467D01*
X84399Y-87467D01*
X84447Y-87491D01*
X84470Y-87515D01*
X84494Y-87562D01*
X84494Y-87681D01*
X84470Y-87753D01*
X83994Y-88205D02*
X83994Y-87967D01*
X84494Y-87967D01*
X84494Y-88324D02*
X83994Y-88658D01*
X84494Y-88658D02*
X83994Y-88324D01*
X83994Y-88872D02*
X83994Y-88967D01*
X84018Y-89015D01*
X84042Y-89039D01*
X84113Y-89086D01*
X84208Y-89110D01*
X84399Y-89110D01*
X84447Y-89086D01*
X84470Y-89062D01*
X84494Y-89015D01*
X84494Y-88920D01*
X84470Y-88872D01*
X84447Y-88848D01*
X84399Y-88824D01*
X84280Y-88824D01*
X84232Y-88848D01*
X84208Y-88872D01*
X84185Y-88920D01*
X84185Y-89015D01*
X84208Y-89062D01*
X84232Y-89086D01*
X84280Y-89110D01*
X84185Y-89324D02*
X84185Y-89705D01*
X84494Y-89872D02*
X84494Y-90158D01*
X83994Y-90015D02*
X84494Y-90015D01*
X83947Y-90658D02*
X83970Y-90610D01*
X84018Y-90562D01*
X84089Y-90491D01*
X84113Y-90443D01*
X84113Y-90396D01*
X83994Y-90420D02*
X84018Y-90372D01*
X84066Y-90324D01*
X84161Y-90300D01*
X84327Y-90300D01*
X84423Y-90324D01*
X84470Y-90372D01*
X84494Y-90420D01*
X84494Y-90515D01*
X84470Y-90562D01*
X84423Y-90610D01*
X84327Y-90634D01*
X84161Y-90634D01*
X84066Y-90610D01*
X84018Y-90562D01*
X83994Y-90515D01*
X83994Y-90420D01*
X83994Y-91110D02*
X83994Y-90824D01*
X83994Y-90967D02*
X84494Y-90967D01*
X84423Y-90920D01*
X84375Y-90872D01*
X84351Y-90824D01*
X84327Y-91539D02*
X83994Y-91539D01*
X84518Y-91420D02*
X84161Y-91300D01*
X84161Y-91610D01*
X84327Y-92015D02*
X83994Y-92015D01*
X84518Y-91896D02*
X84161Y-91777D01*
X84161Y-92086D01*
G54D14*
X72188Y-114597D02*
X71388Y-114597D01*
X71960Y-114397D01*
X71388Y-114197D01*
X72188Y-114197D01*
X71388Y-113997D02*
X71388Y-113654D01*
X72188Y-113825D02*
X71388Y-113825D01*
X71655Y-113197D02*
X72188Y-113197D01*
X71350Y-113340D02*
X71922Y-113482D01*
X71922Y-113111D01*
X71731Y-112797D02*
X71693Y-112854D01*
X71655Y-112882D01*
X71579Y-112911D01*
X71541Y-112911D01*
X71465Y-112882D01*
X71426Y-112854D01*
X71388Y-112797D01*
X71388Y-112682D01*
X71426Y-112625D01*
X71465Y-112597D01*
X71541Y-112568D01*
X71579Y-112568D01*
X71655Y-112597D01*
X71693Y-112625D01*
X71731Y-112682D01*
X71731Y-112797D01*
X71769Y-112854D01*
X71807Y-112882D01*
X71884Y-112911D01*
X72036Y-112911D01*
X72112Y-112882D01*
X72150Y-112854D01*
X72188Y-112797D01*
X72188Y-112682D01*
X72150Y-112625D01*
X72112Y-112597D01*
X72036Y-112568D01*
X71884Y-112568D01*
X71807Y-112597D01*
X71769Y-112625D01*
X71731Y-112682D01*
X72188Y-112025D02*
X72188Y-112311D01*
X71388Y-112311D01*
X72112Y-111482D02*
X72150Y-111511D01*
X72188Y-111597D01*
X72188Y-111654D01*
X72150Y-111740D01*
X72074Y-111797D01*
X71998Y-111825D01*
X71845Y-111854D01*
X71731Y-111854D01*
X71579Y-111825D01*
X71503Y-111797D01*
X71426Y-111740D01*
X71388Y-111654D01*
X71388Y-111597D01*
X71426Y-111511D01*
X71465Y-111482D01*
X71388Y-110968D02*
X71388Y-111082D01*
X71426Y-111140D01*
X71465Y-111168D01*
X71579Y-111225D01*
X71731Y-111254D01*
X72036Y-111254D01*
X72112Y-111225D01*
X72150Y-111197D01*
X72188Y-111140D01*
X72188Y-111025D01*
X72150Y-110968D01*
X72112Y-110940D01*
X72036Y-110911D01*
X71845Y-110911D01*
X71769Y-110940D01*
X71731Y-110968D01*
X71693Y-111025D01*
X71693Y-111140D01*
X71731Y-111197D01*
X71769Y-111225D01*
X71845Y-111254D01*
X71655Y-110397D02*
X72188Y-110397D01*
X71350Y-110539D02*
X71922Y-110682D01*
X71922Y-110311D01*
X72188Y-110082D02*
X71388Y-110082D01*
X71960Y-109882D01*
X71388Y-109682D01*
X72188Y-109682D01*
X71655Y-109139D02*
X72188Y-109139D01*
X71350Y-109282D02*
X71922Y-109425D01*
X71922Y-109054D01*
X71960Y-108854D02*
X71960Y-108568D01*
X72188Y-108911D02*
X71388Y-108711D01*
X72188Y-108511D01*
X71465Y-108339D02*
X71426Y-108311D01*
X71388Y-108254D01*
X71388Y-108111D01*
X71426Y-108054D01*
X71465Y-108025D01*
X71541Y-107997D01*
X71617Y-107997D01*
X71731Y-108025D01*
X72188Y-108368D01*
X72188Y-107997D01*
X72587Y-114597D02*
X73235Y-114597D01*
X73311Y-114568D01*
X73349Y-114540D01*
X73387Y-114482D01*
X73387Y-114368D01*
X73349Y-114311D01*
X73311Y-114282D01*
X73235Y-114254D01*
X72587Y-114254D01*
X72663Y-113997D02*
X72625Y-113968D01*
X72587Y-113911D01*
X72587Y-113768D01*
X72625Y-113711D01*
X72663Y-113682D01*
X72739Y-113654D01*
X72816Y-113654D01*
X72930Y-113682D01*
X73387Y-114025D01*
X73387Y-113654D01*
G54D15*
X110010Y-91039D02*
X110010Y-90769D01*
X110010Y-88710D02*
X110010Y-88440D01*
X110175Y-88575D02*
X109845Y-88575D01*
X74995Y-109755D02*
X74995Y-109958D01*
X74995Y-109857D02*
X74562Y-109857D01*
X74624Y-109890D01*
X74665Y-109924D01*
X74685Y-109958D01*
X74747Y-109553D02*
X74727Y-109587D01*
X74706Y-109603D01*
X74665Y-109620D01*
X74644Y-109620D01*
X74603Y-109603D01*
X74582Y-109587D01*
X74562Y-109553D01*
X74562Y-109485D01*
X74582Y-109452D01*
X74603Y-109435D01*
X74644Y-109418D01*
X74665Y-109418D01*
X74706Y-109435D01*
X74727Y-109452D01*
X74747Y-109485D01*
X74747Y-109553D01*
X74768Y-109587D01*
X74789Y-109603D01*
X74830Y-109620D01*
X74912Y-109620D01*
X74954Y-109603D01*
X74974Y-109587D01*
X74995Y-109553D01*
X74995Y-109485D01*
X74974Y-109452D01*
X74954Y-109435D01*
X74912Y-109418D01*
X74830Y-109418D01*
X74789Y-109435D01*
X74768Y-109452D01*
X74747Y-109485D01*
X74768Y-109148D02*
X74768Y-109266D01*
X74995Y-109266D02*
X74562Y-109266D01*
X74562Y-109097D01*
X74995Y-108490D02*
X74789Y-108608D01*
X74995Y-108692D02*
X74562Y-108692D01*
X74562Y-108557D01*
X74582Y-108524D01*
X74603Y-108507D01*
X74644Y-108490D01*
X74706Y-108490D01*
X74747Y-108507D01*
X74768Y-108524D01*
X74789Y-108557D01*
X74789Y-108692D01*
X74768Y-108338D02*
X74768Y-108220D01*
X74995Y-108169D02*
X74995Y-108338D01*
X74562Y-108338D01*
X74562Y-108169D01*
X74974Y-108034D02*
X74995Y-107984D01*
X74995Y-107899D01*
X74974Y-107866D01*
X74954Y-107849D01*
X74912Y-107832D01*
X74871Y-107832D01*
X74830Y-107849D01*
X74809Y-107866D01*
X74789Y-107899D01*
X74768Y-107967D01*
X74747Y-108001D01*
X74727Y-108017D01*
X74685Y-108034D01*
X74644Y-108034D01*
X74603Y-108017D01*
X74582Y-108001D01*
X74562Y-107967D01*
X74562Y-107882D01*
X74582Y-107832D01*
X74768Y-107680D02*
X74768Y-107562D01*
X74995Y-107511D02*
X74995Y-107680D01*
X74562Y-107680D01*
X74562Y-107511D01*
X74562Y-107410D02*
X74562Y-107207D01*
X74995Y-107309D02*
X74562Y-107309D01*
X136176Y-99925D02*
X136176Y-99492D01*
X136379Y-99925D02*
X136227Y-99677D01*
X136379Y-99492D02*
X136176Y-99739D01*
X136514Y-99904D02*
X136564Y-99925D01*
X136649Y-99925D01*
X136682Y-99904D01*
X136699Y-99884D01*
X136716Y-99842D01*
X136716Y-99801D01*
X136699Y-99760D01*
X136682Y-99739D01*
X136649Y-99719D01*
X136581Y-99698D01*
X136547Y-99677D01*
X136530Y-99657D01*
X136514Y-99615D01*
X136514Y-99574D01*
X136530Y-99533D01*
X136547Y-99512D01*
X136581Y-99492D01*
X136665Y-99492D01*
X136716Y-99512D01*
X137121Y-99801D02*
X137290Y-99801D01*
X137087Y-99925D02*
X137205Y-99492D01*
X137323Y-99925D01*
X136151Y-100598D02*
X136151Y-100165D01*
X136353Y-100598D02*
X136201Y-100351D01*
X136353Y-100165D02*
X136151Y-100412D01*
X136488Y-100577D02*
X136539Y-100598D01*
X136623Y-100598D01*
X136657Y-100577D01*
X136674Y-100557D01*
X136691Y-100516D01*
X136691Y-100474D01*
X136674Y-100433D01*
X136657Y-100412D01*
X136623Y-100392D01*
X136556Y-100371D01*
X136522Y-100351D01*
X136505Y-100330D01*
X136488Y-100289D01*
X136488Y-100247D01*
X136505Y-100206D01*
X136522Y-100186D01*
X136556Y-100165D01*
X136640Y-100165D01*
X136691Y-100186D01*
X137231Y-100371D02*
X137281Y-100392D01*
X137298Y-100412D01*
X137315Y-100454D01*
X137315Y-100516D01*
X137298Y-100557D01*
X137281Y-100577D01*
X137248Y-100598D01*
X137113Y-100598D01*
X137113Y-100165D01*
X137231Y-100165D01*
X137264Y-100186D01*
X137281Y-100206D01*
X137298Y-100247D01*
X137298Y-100289D01*
X137281Y-100330D01*
X137264Y-100351D01*
X137231Y-100371D01*
X137113Y-100371D01*
X88221Y-91615D02*
X88221Y-91182D01*
X88356Y-91182D01*
X88390Y-91202D01*
X88407Y-91223D01*
X88424Y-91264D01*
X88424Y-91326D01*
X88407Y-91367D01*
X88390Y-91388D01*
X88356Y-91409D01*
X88221Y-91409D01*
X88643Y-91182D02*
X88710Y-91182D01*
X88744Y-91202D01*
X88778Y-91244D01*
X88795Y-91326D01*
X88795Y-91470D01*
X88778Y-91553D01*
X88744Y-91594D01*
X88710Y-91615D01*
X88643Y-91615D01*
X88609Y-91594D01*
X88575Y-91553D01*
X88559Y-91470D01*
X88559Y-91326D01*
X88575Y-91244D01*
X88609Y-91202D01*
X88643Y-91182D01*
X88913Y-91182D02*
X88997Y-91615D01*
X89065Y-91305D01*
X89132Y-91615D01*
X89217Y-91182D01*
X89352Y-91388D02*
X89470Y-91388D01*
X89520Y-91615D02*
X89352Y-91615D01*
X89352Y-91182D01*
X89520Y-91182D01*
X89875Y-91615D02*
X89757Y-91409D01*
X89672Y-91615D02*
X89672Y-91182D01*
X89807Y-91182D01*
X89841Y-91202D01*
X89858Y-91223D01*
X89875Y-91264D01*
X89875Y-91326D01*
X89858Y-91367D01*
X89841Y-91388D01*
X89807Y-91409D01*
X89672Y-91409D01*
G54D10*
X60440Y-106139D02*
X60170Y-106139D01*
X60305Y-106139D02*
X60305Y-105548D01*
X60260Y-105632D01*
X60215Y-105689D01*
X60170Y-105717D01*
X60642Y-106082D02*
X60665Y-106110D01*
X60642Y-106139D01*
X60620Y-106110D01*
X60642Y-106082D01*
X60642Y-106139D01*
X60845Y-105604D02*
X60867Y-105576D01*
X60912Y-105548D01*
X61024Y-105548D01*
X61069Y-105576D01*
X61092Y-105604D01*
X61114Y-105660D01*
X61114Y-105717D01*
X61092Y-105801D01*
X60822Y-106139D01*
X61114Y-106139D01*
X61249Y-105548D02*
X61407Y-106139D01*
X61564Y-105548D01*
X59610Y-107673D02*
X59610Y-108151D01*
X59632Y-108207D01*
X59655Y-108235D01*
X59700Y-108264D01*
X59790Y-108264D01*
X59835Y-108235D01*
X59857Y-108207D01*
X59880Y-108151D01*
X59880Y-107673D01*
X60060Y-107673D02*
X60352Y-107673D01*
X60195Y-107898D01*
X60262Y-107898D01*
X60307Y-107926D01*
X60329Y-107954D01*
X60352Y-108010D01*
X60352Y-108151D01*
X60329Y-108207D01*
X60307Y-108235D01*
X60262Y-108264D01*
X60127Y-108264D01*
X60082Y-108235D01*
X60060Y-108207D01*
X60779Y-107673D02*
X60554Y-107673D01*
X60532Y-107954D01*
X60554Y-107926D01*
X60599Y-107898D01*
X60712Y-107898D01*
X60757Y-107926D01*
X60779Y-107954D01*
X60802Y-108010D01*
X60802Y-108151D01*
X60779Y-108207D01*
X60757Y-108235D01*
X60712Y-108264D01*
X60599Y-108264D01*
X60554Y-108235D01*
X60532Y-108207D01*
X59435Y-112773D02*
X59435Y-113251D01*
X59457Y-113307D01*
X59480Y-113335D01*
X59525Y-113364D01*
X59615Y-113364D01*
X59660Y-113335D01*
X59682Y-113307D01*
X59705Y-113251D01*
X59705Y-112773D01*
X59885Y-112773D02*
X60177Y-112773D01*
X60020Y-112998D01*
X60087Y-112998D01*
X60132Y-113026D01*
X60154Y-113054D01*
X60177Y-113110D01*
X60177Y-113251D01*
X60154Y-113307D01*
X60132Y-113335D01*
X60087Y-113364D01*
X59952Y-113364D01*
X59907Y-113335D01*
X59885Y-113307D01*
X60582Y-112970D02*
X60582Y-113364D01*
X60469Y-112745D02*
X60357Y-113167D01*
X60649Y-113167D01*
X60730Y-114748D02*
X60505Y-114748D01*
X60482Y-115029D01*
X60505Y-115001D01*
X60550Y-114973D01*
X60662Y-114973D01*
X60707Y-115001D01*
X60730Y-115029D01*
X60752Y-115085D01*
X60752Y-115226D01*
X60730Y-115282D01*
X60707Y-115310D01*
X60662Y-115339D01*
X60550Y-115339D01*
X60505Y-115310D01*
X60482Y-115282D01*
X60887Y-114748D02*
X61044Y-115339D01*
X61202Y-114748D01*
X60272Y-109698D02*
X60565Y-109698D01*
X60407Y-109923D01*
X60475Y-109923D01*
X60520Y-109951D01*
X60542Y-109979D01*
X60565Y-110035D01*
X60565Y-110176D01*
X60542Y-110232D01*
X60520Y-110260D01*
X60475Y-110289D01*
X60340Y-110289D01*
X60295Y-110260D01*
X60272Y-110232D01*
X60767Y-110232D02*
X60790Y-110260D01*
X60767Y-110289D01*
X60745Y-110260D01*
X60767Y-110232D01*
X60767Y-110289D01*
X60947Y-109698D02*
X61239Y-109698D01*
X61082Y-109923D01*
X61149Y-109923D01*
X61194Y-109951D01*
X61217Y-109979D01*
X61239Y-110035D01*
X61239Y-110176D01*
X61217Y-110232D01*
X61194Y-110260D01*
X61149Y-110289D01*
X61014Y-110289D01*
X60970Y-110260D01*
X60947Y-110232D01*
X61374Y-109698D02*
X61532Y-110289D01*
X61689Y-109698D01*
G54D14*
X73485Y-111839D02*
X73485Y-111248D01*
X73650Y-111248D01*
X73691Y-111276D01*
X73711Y-111304D01*
X73732Y-111360D01*
X73732Y-111445D01*
X73711Y-111501D01*
X73691Y-111529D01*
X73650Y-111557D01*
X73485Y-111557D01*
X74165Y-111839D02*
X74021Y-111557D01*
X73918Y-111839D02*
X73918Y-111248D01*
X74083Y-111248D01*
X74124Y-111276D01*
X74145Y-111304D01*
X74165Y-111360D01*
X74165Y-111445D01*
X74145Y-111501D01*
X74124Y-111529D01*
X74083Y-111557D01*
X73918Y-111557D01*
X74433Y-111248D02*
X74516Y-111248D01*
X74557Y-111276D01*
X74598Y-111332D01*
X74619Y-111445D01*
X74619Y-111642D01*
X74598Y-111754D01*
X74557Y-111810D01*
X74516Y-111839D01*
X74433Y-111839D01*
X74392Y-111810D01*
X74351Y-111754D01*
X74330Y-111642D01*
X74330Y-111445D01*
X74351Y-111332D01*
X74392Y-111276D01*
X74433Y-111248D01*
X75031Y-111276D02*
X74990Y-111248D01*
X74928Y-111248D01*
X74866Y-111276D01*
X74825Y-111332D01*
X74804Y-111389D01*
X74784Y-111501D01*
X74784Y-111585D01*
X74804Y-111698D01*
X74825Y-111754D01*
X74866Y-111810D01*
X74928Y-111839D01*
X74969Y-111839D01*
X75031Y-111810D01*
X75052Y-111782D01*
X75052Y-111585D01*
X74969Y-111585D01*
X75134Y-111895D02*
X75464Y-111895D01*
X75712Y-111529D02*
X75774Y-111557D01*
X75794Y-111585D01*
X75815Y-111642D01*
X75815Y-111726D01*
X75794Y-111782D01*
X75774Y-111810D01*
X75732Y-111839D01*
X75568Y-111839D01*
X75568Y-111248D01*
X75712Y-111248D01*
X75753Y-111276D01*
X75774Y-111304D01*
X75794Y-111360D01*
X75794Y-111417D01*
X75774Y-111473D01*
X75753Y-111501D01*
X75712Y-111529D01*
X75568Y-111529D01*
G54D15*
X90575Y-90095D02*
X90575Y-89662D01*
X90660Y-89662D01*
X90710Y-89682D01*
X90744Y-89724D01*
X90761Y-89765D01*
X90778Y-89847D01*
X90778Y-89909D01*
X90761Y-89992D01*
X90744Y-90033D01*
X90710Y-90074D01*
X90660Y-90095D01*
X90575Y-90095D01*
X90997Y-89662D02*
X91065Y-89662D01*
X91098Y-89682D01*
X91132Y-89724D01*
X91149Y-89806D01*
X91149Y-89950D01*
X91132Y-90033D01*
X91098Y-90074D01*
X91065Y-90095D01*
X90997Y-90095D01*
X90963Y-90074D01*
X90930Y-90033D01*
X90913Y-89950D01*
X90913Y-89806D01*
X90930Y-89724D01*
X90963Y-89682D01*
X90997Y-89662D01*
X91301Y-90095D02*
X91301Y-89662D01*
X91503Y-90095D01*
X91503Y-89662D01*
X91672Y-89868D02*
X91790Y-89868D01*
X91841Y-90095D02*
X91672Y-90095D01*
X91672Y-89662D01*
X91841Y-89662D01*
G54D16*
X126100Y-100400D02*
X129000Y-100400D01*
X129000Y-100400D02*
X129000Y-100800D01*
X129000Y-100800D02*
X129000Y-102050D01*
X129000Y-102050D02*
X129000Y-102200D01*
X129000Y-102200D02*
X126200Y-102200D01*
X125550Y-102200D02*
X126200Y-102200D01*
G54D17*
X126100Y-102200D02*
X119200Y-102200D01*
X119200Y-100400D02*
X126100Y-100400D01*
G54D18*
X119200Y-102200D02*
X119200Y-100400D01*
X129950Y-86050D02*
X129550Y-86050D01*
X129550Y-86050D02*
X129550Y-86450D01*
X129550Y-86450D02*
X126350Y-86450D01*
X126350Y-86450D02*
X126350Y-85650D01*
X126350Y-85650D02*
X129550Y-85650D01*
X129550Y-85650D02*
X129550Y-86050D01*
X129550Y-86250D02*
X129350Y-86450D01*
X125950Y-86050D02*
X126350Y-86050D01*
X123900Y-88850D02*
X123900Y-88450D01*
X123900Y-88450D02*
X123500Y-88450D01*
X123500Y-88450D02*
X123500Y-85250D01*
X123500Y-85250D02*
X124300Y-85250D01*
X124300Y-85250D02*
X124300Y-88450D01*
X124300Y-88450D02*
X123900Y-88450D01*
X123700Y-88450D02*
X123500Y-88250D01*
X123900Y-84850D02*
X123900Y-85250D01*
X125950Y-87000D02*
X126350Y-87000D01*
X126350Y-87000D02*
X126350Y-86600D01*
X126350Y-86600D02*
X129550Y-86600D01*
X129550Y-86600D02*
X129550Y-87400D01*
X129550Y-87400D02*
X126350Y-87400D01*
X126350Y-87400D02*
X126350Y-87000D01*
X126350Y-86800D02*
X126550Y-86600D01*
X129950Y-87000D02*
X129550Y-87000D01*
X119000Y-85850D02*
X119400Y-85850D01*
X119400Y-85850D02*
X119400Y-85450D01*
X119400Y-85450D02*
X122600Y-85450D01*
X122600Y-85450D02*
X122600Y-86250D01*
X122600Y-86250D02*
X119400Y-86250D01*
X119400Y-86250D02*
X119400Y-85850D01*
X119400Y-85650D02*
X119600Y-85450D01*
X123000Y-85850D02*
X122600Y-85850D01*
X123000Y-84900D02*
X122600Y-84900D01*
X122600Y-84900D02*
X122600Y-85300D01*
X122600Y-85300D02*
X119400Y-85300D01*
X119400Y-85300D02*
X119400Y-84500D01*
X119400Y-84500D02*
X122600Y-84500D01*
X122600Y-84500D02*
X122600Y-84900D01*
X122600Y-85100D02*
X122400Y-85300D01*
X119000Y-84900D02*
X119400Y-84900D01*
X119700Y-95050D02*
X120100Y-95050D01*
X120100Y-95050D02*
X120100Y-94650D01*
X120100Y-94650D02*
X123300Y-94650D01*
X123300Y-94650D02*
X123300Y-95450D01*
X123300Y-95450D02*
X120100Y-95450D01*
X120100Y-95450D02*
X120100Y-95050D01*
X120100Y-94850D02*
X120300Y-94650D01*
X123700Y-95050D02*
X123300Y-95050D01*
X119700Y-94100D02*
X120100Y-94100D01*
X120100Y-94100D02*
X120100Y-93700D01*
X120100Y-93700D02*
X123300Y-93700D01*
X123300Y-93700D02*
X123300Y-94500D01*
X123300Y-94500D02*
X120100Y-94500D01*
X120100Y-94500D02*
X120100Y-94100D01*
X120100Y-93900D02*
X120300Y-93700D01*
X123700Y-94100D02*
X123300Y-94100D01*
X129900Y-88850D02*
X129500Y-88850D01*
X129500Y-88850D02*
X129500Y-89250D01*
X129500Y-89250D02*
X126300Y-89250D01*
X126300Y-89250D02*
X126300Y-88450D01*
X126300Y-88450D02*
X129500Y-88450D01*
X129500Y-88450D02*
X129500Y-88850D01*
X129500Y-89050D02*
X129300Y-89250D01*
X125900Y-88850D02*
X126300Y-88850D01*
X118900Y-91050D02*
X119300Y-91050D01*
X119300Y-91050D02*
X119300Y-90650D01*
X119300Y-90650D02*
X122500Y-90650D01*
X122500Y-90650D02*
X122500Y-91450D01*
X122500Y-91450D02*
X119300Y-91450D01*
X119300Y-91450D02*
X119300Y-91050D01*
X119300Y-90850D02*
X119500Y-90650D01*
X122900Y-91050D02*
X122500Y-91050D01*
X122900Y-91950D02*
X122500Y-91950D01*
X122500Y-91950D02*
X122500Y-92350D01*
X122500Y-92350D02*
X119300Y-92350D01*
X119300Y-92350D02*
X119300Y-91550D01*
X119300Y-91550D02*
X122500Y-91550D01*
X122500Y-91550D02*
X122500Y-91950D01*
X122500Y-92150D02*
X122300Y-92350D01*
X118900Y-91950D02*
X119300Y-91950D01*
X125900Y-89750D02*
X126300Y-89750D01*
X126300Y-89750D02*
X126300Y-89350D01*
X126300Y-89350D02*
X129500Y-89350D01*
X129500Y-89350D02*
X129500Y-90150D01*
X129500Y-90150D02*
X126300Y-90150D01*
X126300Y-90150D02*
X126300Y-89750D01*
X126300Y-89550D02*
X126500Y-89350D01*
X129900Y-89750D02*
X129500Y-89750D01*
X122050Y-97600D02*
X120050Y-97600D01*
X120050Y-97600D02*
X120050Y-95600D01*
X120050Y-95600D02*
X122050Y-95600D01*
X122050Y-95600D02*
X122050Y-97600D01*
X138140Y-106480D02*
X138540Y-106480D01*
X138540Y-106480D02*
X138540Y-106080D01*
X138540Y-106080D02*
X141740Y-106080D01*
X141740Y-106080D02*
X141740Y-106880D01*
X141740Y-106880D02*
X138540Y-106880D01*
X138540Y-106880D02*
X138540Y-106480D01*
X138540Y-106280D02*
X138740Y-106080D01*
X142140Y-106480D02*
X141740Y-106480D01*
X131360Y-106945D02*
X131360Y-107345D01*
X131360Y-107345D02*
X131760Y-107345D01*
X131760Y-107345D02*
X131760Y-110545D01*
X131760Y-110545D02*
X130960Y-110545D01*
X130960Y-110545D02*
X130960Y-107345D01*
X130960Y-107345D02*
X131360Y-107345D01*
X131560Y-107345D02*
X131760Y-107545D01*
X131360Y-110945D02*
X131360Y-110545D01*
X136100Y-110970D02*
X136100Y-110570D01*
X136100Y-110570D02*
X135700Y-110570D01*
X135700Y-110570D02*
X135700Y-107370D01*
X135700Y-107370D02*
X136500Y-107370D01*
X136500Y-107370D02*
X136500Y-110570D01*
X136500Y-110570D02*
X136100Y-110570D01*
X135900Y-110570D02*
X135700Y-110370D01*
X136100Y-106970D02*
X136100Y-107370D01*
X137040Y-106975D02*
X137040Y-107375D01*
X137040Y-107375D02*
X137440Y-107375D01*
X137440Y-107375D02*
X137440Y-110575D01*
X137440Y-110575D02*
X136640Y-110575D01*
X136640Y-110575D02*
X136640Y-107375D01*
X136640Y-107375D02*
X137040Y-107375D01*
X137240Y-107375D02*
X137440Y-107575D01*
X137040Y-110975D02*
X137040Y-110575D01*
X138020Y-110960D02*
X138420Y-110960D01*
X138420Y-110960D02*
X138420Y-110560D01*
X138420Y-110560D02*
X141620Y-110560D01*
X141620Y-110560D02*
X141620Y-111360D01*
X141620Y-111360D02*
X138420Y-111360D01*
X138420Y-111360D02*
X138420Y-110960D01*
X138420Y-110760D02*
X138620Y-110560D01*
X142020Y-110960D02*
X141620Y-110960D01*
X142120Y-105320D02*
X141720Y-105320D01*
X141720Y-105320D02*
X141720Y-105720D01*
X141720Y-105720D02*
X138520Y-105720D01*
X138520Y-105720D02*
X138520Y-104920D01*
X138520Y-104920D02*
X141720Y-104920D01*
X141720Y-104920D02*
X141720Y-105320D01*
X141720Y-105520D02*
X141520Y-105720D01*
X138120Y-105320D02*
X138520Y-105320D01*
G54D19*
X120700Y-110350D02*
X120700Y-110400D01*
X120700Y-110400D02*
X122800Y-110400D01*
X122800Y-108900D02*
X120700Y-108900D01*
X120700Y-108900D02*
X120700Y-110350D01*
X120700Y-109450D02*
X120900Y-109450D01*
X120900Y-109450D02*
X120900Y-109850D01*
X120900Y-109850D02*
X120700Y-109850D01*
X122800Y-108900D02*
X122800Y-110400D01*
G54D20*
X134715Y-107040D02*
X134715Y-110540D01*
X134715Y-110540D02*
X132715Y-110540D01*
X132715Y-110540D02*
X132715Y-107040D01*
X132715Y-107040D02*
X134715Y-107040D01*
X133965Y-107040D02*
X133965Y-107540D01*
X133965Y-107540D02*
X133465Y-107540D01*
X133465Y-107540D02*
X133465Y-107040D01*
G54D18*
X119800Y-93500D02*
X119800Y-92500D01*
X119800Y-92500D02*
X122800Y-92500D01*
X122800Y-92500D02*
X122800Y-93500D01*
X122800Y-93500D02*
X119800Y-93500D01*
X120800Y-92500D02*
X120800Y-93500D01*
X126450Y-93450D02*
X125450Y-93450D01*
X125450Y-93450D02*
X125450Y-90450D01*
X125450Y-90450D02*
X126450Y-90450D01*
X126450Y-90450D02*
X126450Y-93450D01*
X125450Y-92450D02*
X126450Y-92450D01*
X139520Y-104030D02*
X137520Y-104030D01*
X139520Y-103030D02*
X137520Y-103030D01*
X139520Y-102030D02*
X137520Y-102030D01*
X137520Y-101030D02*
X131520Y-101030D01*
X131520Y-101030D02*
X131520Y-105030D01*
X131520Y-105030D02*
X137520Y-105030D01*
X137520Y-105030D02*
X137520Y-101030D01*
X134520Y-101530D02*
X134520Y-105030D01*
X134520Y-101530D02*
X134520Y-101030D01*
G54D21*
X125000Y-86350D02*
X125500Y-87350D01*
X125500Y-87350D02*
X125000Y-87350D01*
X124500Y-87350D02*
X125000Y-86350D01*
X125500Y-86350D02*
X125000Y-86350D01*
X125000Y-85450D02*
X125000Y-86350D01*
X125000Y-86350D02*
X124500Y-86350D01*
X125000Y-87350D02*
X125000Y-88250D01*
X125000Y-87350D02*
X124500Y-87350D01*
G54D18*
X126600Y-90300D02*
X129400Y-90300D01*
X129400Y-90300D02*
X129400Y-91100D01*
X129400Y-91100D02*
X126600Y-91100D01*
X126600Y-91100D02*
X126600Y-90300D01*
X126600Y-90500D02*
X126800Y-90300D01*
X126550Y-87550D02*
X129350Y-87550D01*
X129350Y-87550D02*
X129350Y-88350D01*
X129350Y-88350D02*
X126550Y-88350D01*
X126550Y-88350D02*
X126550Y-87550D01*
X126550Y-87750D02*
X126750Y-87550D01*
G54D19*
X123710Y-89506D02*
X123710Y-91154D01*
X124260Y-89443D02*
X124260Y-90218D01*
X124260Y-89285D02*
X124260Y-89443D01*
X124260Y-90218D02*
X124260Y-90442D01*
X124260Y-91217D02*
X124260Y-91375D01*
X124260Y-90442D02*
X124260Y-91217D01*
X124257Y-89285D02*
G75*
G03X123709Y-89506I102J-1044D01*
G74*
G01*
X125362Y-90019D02*
G75*
G03X124259Y-89285I-1002J-310D01*
G74*
G01*
X123712Y-91155D02*
G75*
G03X125363Y-90638I647J825D01*
G74*
G01*
X125363Y-90638D02*
G75*
G03X125363Y-90021I-1003J308D01*
G74*
G01*
X125300Y-93324D02*
X125300Y-91676D01*
X124750Y-93387D02*
X124750Y-92612D01*
X124750Y-93545D02*
X124750Y-93387D01*
X124750Y-92612D02*
X124750Y-92388D01*
X124750Y-91613D02*
X124750Y-91455D01*
X124750Y-92388D02*
X124750Y-91613D01*
X124752Y-93544D02*
G75*
G03X125300Y-93323I-102J1044D01*
G74*
G01*
X123647Y-92810D02*
G75*
G03X124750Y-93544I1002J310D01*
G74*
G01*
X125297Y-91674D02*
G75*
G03X123646Y-92191I-647J-825D01*
G74*
G01*
X123646Y-92191D02*
G75*
G03X123646Y-92808I1003J-308D01*
G74*
G01*
G54D22*
X139520Y-112540D02*
X139345Y-112540D01*
X139520Y-111540D02*
X139695Y-111540D01*
G54D21*
X139520Y-112040D02*
X140520Y-111540D01*
X140520Y-111540D02*
X140520Y-112040D01*
X140520Y-112540D02*
X139520Y-112040D01*
X139520Y-111540D02*
X139520Y-112040D01*
X138620Y-112040D02*
X139520Y-112040D01*
X139520Y-112040D02*
X139520Y-112540D01*
X140520Y-112040D02*
X141420Y-112040D01*
X140520Y-112040D02*
X140520Y-112540D01*
G54D18*
X142280Y-109180D02*
X139480Y-109180D01*
X139480Y-109180D02*
X139480Y-108380D01*
X139480Y-108380D02*
X142280Y-108380D01*
X142280Y-108380D02*
X142280Y-109180D01*
X142280Y-108980D02*
X142080Y-109180D01*
X138300Y-110060D02*
X138300Y-107260D01*
X138300Y-107260D02*
X139100Y-107260D01*
X139100Y-107260D02*
X139100Y-110060D01*
X139100Y-110060D02*
X138300Y-110060D01*
X138500Y-110060D02*
X138300Y-109860D01*
X142280Y-110140D02*
X139480Y-110140D01*
X139480Y-110140D02*
X139480Y-109340D01*
X139480Y-109340D02*
X142280Y-109340D01*
X142280Y-109340D02*
X142280Y-110140D01*
X142280Y-109940D02*
X142080Y-110140D01*
G54D21*
X120800Y-90430D02*
X120800Y-89930D01*
X120800Y-89930D02*
X121800Y-89930D01*
X121800Y-89930D02*
X121800Y-90430D01*
X120300Y-90430D02*
X120300Y-86430D01*
X120300Y-86430D02*
X122300Y-86430D01*
X122300Y-86430D02*
X122300Y-90430D01*
X122300Y-90430D02*
X120300Y-90430D01*
G54D18*
X142280Y-108040D02*
X139480Y-108040D01*
X139480Y-108040D02*
X139480Y-107240D01*
X139480Y-107240D02*
X142280Y-107240D01*
X142280Y-107240D02*
X142280Y-108040D01*
X142280Y-107840D02*
X142080Y-108040D01*
G54D20*
X146260Y-103620D02*
X148510Y-103620D01*
X146260Y-104120D02*
X146260Y-103120D01*
X142860Y-103620D02*
X145260Y-103620D01*
X145260Y-103620D02*
X145260Y-104120D01*
X145260Y-104120D02*
X146260Y-103620D01*
X146260Y-103620D02*
X145260Y-103120D01*
X145260Y-103120D02*
X145260Y-103620D01*
X144360Y-103620D02*
X143810Y-103620D01*
G54D21*
X146260Y-103620D02*
X145260Y-104120D01*
X145260Y-104120D02*
X145260Y-103620D01*
X145260Y-103120D02*
X146260Y-103620D01*
X146260Y-104120D02*
X146260Y-103620D01*
X147160Y-103620D02*
X146260Y-103620D01*
X146260Y-103620D02*
X146260Y-103120D01*
X145260Y-103620D02*
X144360Y-103620D01*
X145260Y-103620D02*
X145260Y-103120D01*
G54D20*
X145270Y-102380D02*
X143020Y-102380D01*
X145270Y-101880D02*
X145270Y-102880D01*
X148670Y-102380D02*
X146270Y-102380D01*
X146270Y-102380D02*
X146270Y-101880D01*
X146270Y-101880D02*
X145270Y-102380D01*
X145270Y-102380D02*
X146270Y-102880D01*
X146270Y-102880D02*
X146270Y-102380D01*
X147170Y-102380D02*
X147720Y-102380D01*
G54D21*
X145270Y-102380D02*
X146270Y-101880D01*
X146270Y-101880D02*
X146270Y-102380D01*
X146270Y-102880D02*
X145270Y-102380D01*
X145270Y-101880D02*
X145270Y-102380D01*
X144370Y-102380D02*
X145270Y-102380D01*
X145270Y-102380D02*
X145270Y-102880D01*
X146270Y-102380D02*
X147170Y-102380D01*
X146270Y-102380D02*
X146270Y-102880D01*
G54D20*
X145265Y-101210D02*
X143015Y-101210D01*
X145265Y-100710D02*
X145265Y-101710D01*
X148665Y-101210D02*
X146265Y-101210D01*
X146265Y-101210D02*
X146265Y-100710D01*
X146265Y-100710D02*
X145265Y-101210D01*
X145265Y-101210D02*
X146265Y-101710D01*
X146265Y-101710D02*
X146265Y-101210D01*
X147165Y-101210D02*
X147715Y-101210D01*
G54D21*
X145265Y-101210D02*
X146265Y-100710D01*
X146265Y-100710D02*
X146265Y-101210D01*
X146265Y-101710D02*
X145265Y-101210D01*
X145265Y-100710D02*
X145265Y-101210D01*
X144365Y-101210D02*
X145265Y-101210D01*
X145265Y-101210D02*
X145265Y-101710D01*
X146265Y-101210D02*
X147165Y-101210D01*
X146265Y-101210D02*
X146265Y-101710D01*
G54D23*
X125320Y-105900D02*
G75*
G03X125320Y-105900I-70J0D01*
G74*
G01*
G54D19*
X124300Y-105800D02*
X124300Y-105900D01*
X124300Y-105900D02*
X125200Y-105900D01*
X125200Y-105900D02*
X125200Y-105800D01*
X124300Y-105800D02*
X125200Y-105800D01*
X125200Y-105800D02*
X125200Y-105150D01*
X124300Y-104450D02*
X124300Y-103800D01*
X124300Y-103800D02*
X125200Y-103800D01*
X125200Y-103800D02*
X125200Y-104450D01*
X124300Y-105150D02*
X124300Y-105800D01*
G54D23*
X126370Y-105900D02*
G75*
G03X126370Y-105900I-70J0D01*
G74*
G01*
G54D19*
X125350Y-105800D02*
X125350Y-105900D01*
X125350Y-105900D02*
X126250Y-105900D01*
X126250Y-105900D02*
X126250Y-105800D01*
X125350Y-105800D02*
X126250Y-105800D01*
X126250Y-105800D02*
X126250Y-105150D01*
X125350Y-104450D02*
X125350Y-103800D01*
X125350Y-103800D02*
X126250Y-103800D01*
X126250Y-103800D02*
X126250Y-104450D01*
X125350Y-105150D02*
X125350Y-105800D01*
G54D23*
X127785Y-109895D02*
G75*
G03X127785Y-109895I-70J0D01*
G74*
G01*
G54D19*
X127815Y-108945D02*
X127715Y-108945D01*
X127715Y-108945D02*
X127715Y-109845D01*
X127715Y-109845D02*
X127815Y-109845D01*
X127815Y-108945D02*
X127815Y-109845D01*
X127815Y-109845D02*
X128465Y-109845D01*
X129165Y-108945D02*
X129815Y-108945D01*
X129815Y-108945D02*
X129815Y-109845D01*
X129815Y-109845D02*
X129165Y-109845D01*
X128465Y-108945D02*
X127815Y-108945D01*
G54D23*
X127790Y-112570D02*
G75*
G03X127790Y-112570I-70J0D01*
G74*
G01*
G54D19*
X127820Y-111620D02*
X127720Y-111620D01*
X127720Y-111620D02*
X127720Y-112520D01*
X127720Y-112520D02*
X127820Y-112520D01*
X127820Y-111620D02*
X127820Y-112520D01*
X127820Y-112520D02*
X128470Y-112520D01*
X129170Y-111620D02*
X129820Y-111620D01*
X129820Y-111620D02*
X129820Y-112520D01*
X129820Y-112520D02*
X129170Y-112520D01*
X128470Y-111620D02*
X127820Y-111620D01*
G54D23*
X127790Y-111245D02*
G75*
G03X127790Y-111245I-70J0D01*
G74*
G01*
G54D19*
X127820Y-110295D02*
X127720Y-110295D01*
X127720Y-110295D02*
X127720Y-111195D01*
X127720Y-111195D02*
X127820Y-111195D01*
X127820Y-110295D02*
X127820Y-111195D01*
X127820Y-111195D02*
X128470Y-111195D01*
X129170Y-110295D02*
X129820Y-110295D01*
X129820Y-110295D02*
X129820Y-111195D01*
X129820Y-111195D02*
X129170Y-111195D01*
X128470Y-110295D02*
X127820Y-110295D01*
G54D18*
X137050Y-86850D02*
X136650Y-86850D01*
X136650Y-86850D02*
X136650Y-87250D01*
X136650Y-87250D02*
X133450Y-87250D01*
X133450Y-87250D02*
X133450Y-86450D01*
X133450Y-86450D02*
X136650Y-86450D01*
X136650Y-86450D02*
X136650Y-86850D01*
X136650Y-87050D02*
X136450Y-87250D01*
X133050Y-86850D02*
X133450Y-86850D01*
X136900Y-99600D02*
X136900Y-99200D01*
X136900Y-99200D02*
X136500Y-99200D01*
X136500Y-99200D02*
X136500Y-96000D01*
X136500Y-96000D02*
X137300Y-96000D01*
X137300Y-96000D02*
X137300Y-99200D01*
X137300Y-99200D02*
X136900Y-99200D01*
X136700Y-99200D02*
X136500Y-99000D01*
X136900Y-95600D02*
X136900Y-96000D01*
X137800Y-95600D02*
X138200Y-95600D01*
X138200Y-95600D02*
X138200Y-95200D01*
X138200Y-95200D02*
X141400Y-95200D01*
X141400Y-95200D02*
X141400Y-96000D01*
X141400Y-96000D02*
X138200Y-96000D01*
X138200Y-96000D02*
X138200Y-95600D01*
X138200Y-95400D02*
X138400Y-95200D01*
X141800Y-95600D02*
X141400Y-95600D01*
X137050Y-87800D02*
X136650Y-87800D01*
X136650Y-87800D02*
X136650Y-88200D01*
X136650Y-88200D02*
X133450Y-88200D01*
X133450Y-88200D02*
X133450Y-87400D01*
X133450Y-87400D02*
X136650Y-87400D01*
X136650Y-87400D02*
X136650Y-87800D01*
X136650Y-88000D02*
X136450Y-88200D01*
X133050Y-87800D02*
X133450Y-87800D01*
G54D21*
X133100Y-89750D02*
X133600Y-89750D01*
X133600Y-89750D02*
X133600Y-90750D01*
X133600Y-90750D02*
X133100Y-90750D01*
X133100Y-89250D02*
X137100Y-89250D01*
X137100Y-89250D02*
X137100Y-91250D01*
X137100Y-91250D02*
X133100Y-91250D01*
X133100Y-91250D02*
X133100Y-89250D01*
G54D18*
X133400Y-97850D02*
X133400Y-98850D01*
X133400Y-98850D02*
X130400Y-98850D01*
X130400Y-98850D02*
X130400Y-97850D01*
X130400Y-97850D02*
X133400Y-97850D01*
X132400Y-98850D02*
X132400Y-97850D01*
G54D24*
X144050Y-96250D02*
X138550Y-96250D01*
X138550Y-96250D02*
X138400Y-96400D01*
X144050Y-96250D02*
X144200Y-96400D01*
X138400Y-96400D02*
X138200Y-97650D01*
X144200Y-96400D02*
X144400Y-97650D01*
X138200Y-97650D02*
X138300Y-98250D01*
X138300Y-98250D02*
X144300Y-98250D01*
X144300Y-98250D02*
X144400Y-97650D01*
G54D25*
X144400Y-97650D02*
X143950Y-97650D01*
X143950Y-97650D02*
X143050Y-97650D01*
X143050Y-97650D02*
X141800Y-97650D01*
X141800Y-97650D02*
X140850Y-97650D01*
X140850Y-97650D02*
X139550Y-97650D01*
X139550Y-97650D02*
X138650Y-97650D01*
X138650Y-97650D02*
X138200Y-97650D01*
G54D26*
X125100Y-111124D02*
X125179Y-111124D01*
X125179Y-111124D02*
X125179Y-110731D01*
X125100Y-110731D02*
X125179Y-110731D01*
X125100Y-111124D02*
X125100Y-110731D01*
X125356Y-111124D02*
X125435Y-111124D01*
X125435Y-111124D02*
X125435Y-110731D01*
X125356Y-110731D02*
X125435Y-110731D01*
X125356Y-111124D02*
X125356Y-110731D01*
X125612Y-111124D02*
X125691Y-111124D01*
X125691Y-111124D02*
X125691Y-110731D01*
X125612Y-110731D02*
X125691Y-110731D01*
X125612Y-111124D02*
X125612Y-110731D01*
X125868Y-111124D02*
X125947Y-111124D01*
X125947Y-111124D02*
X125947Y-110731D01*
X125868Y-110731D02*
X125947Y-110731D01*
X125868Y-111124D02*
X125868Y-110731D01*
X126123Y-111124D02*
X126202Y-111124D01*
X126202Y-111124D02*
X126202Y-110731D01*
X126123Y-110731D02*
X126202Y-110731D01*
X126123Y-111124D02*
X126123Y-110731D01*
X126379Y-111124D02*
X126458Y-111124D01*
X126458Y-111124D02*
X126458Y-110731D01*
X126379Y-110731D02*
X126458Y-110731D01*
X126379Y-111124D02*
X126379Y-110731D01*
X126635Y-111124D02*
X126714Y-111124D01*
X126714Y-111124D02*
X126714Y-110731D01*
X126635Y-110731D02*
X126714Y-110731D01*
X126635Y-111124D02*
X126635Y-110731D01*
X126891Y-111124D02*
X126970Y-111124D01*
X126970Y-111124D02*
X126970Y-110731D01*
X126891Y-110731D02*
X126970Y-110731D01*
X126891Y-111124D02*
X126891Y-110731D01*
X126891Y-108999D02*
X126970Y-108999D01*
X126970Y-108999D02*
X126970Y-108606D01*
X126891Y-108606D02*
X126970Y-108606D01*
X126891Y-108999D02*
X126891Y-108606D01*
X126635Y-108999D02*
X126714Y-108999D01*
X126714Y-108999D02*
X126714Y-108606D01*
X126635Y-108606D02*
X126714Y-108606D01*
X126635Y-108999D02*
X126635Y-108606D01*
X126379Y-108999D02*
X126458Y-108999D01*
X126458Y-108999D02*
X126458Y-108606D01*
X126379Y-108606D02*
X126458Y-108606D01*
X126379Y-108999D02*
X126379Y-108606D01*
X126123Y-108999D02*
X126202Y-108999D01*
X126202Y-108999D02*
X126202Y-108606D01*
X126123Y-108606D02*
X126202Y-108606D01*
X126123Y-108999D02*
X126123Y-108606D01*
X125868Y-108999D02*
X125947Y-108999D01*
X125947Y-108999D02*
X125947Y-108606D01*
X125868Y-108606D02*
X125947Y-108606D01*
X125868Y-108999D02*
X125868Y-108606D01*
X125612Y-108999D02*
X125691Y-108999D01*
X125691Y-108999D02*
X125691Y-108606D01*
X125612Y-108606D02*
X125691Y-108606D01*
X125612Y-108999D02*
X125612Y-108606D01*
X125356Y-108999D02*
X125435Y-108999D01*
X125435Y-108999D02*
X125435Y-108606D01*
X125356Y-108606D02*
X125435Y-108606D01*
X125356Y-108999D02*
X125356Y-108606D01*
X125100Y-108999D02*
X125179Y-108999D01*
X125179Y-108999D02*
X125179Y-108606D01*
X125100Y-108606D02*
X125179Y-108606D01*
X125100Y-108999D02*
X125100Y-108606D01*
G54D24*
X125045Y-110625D02*
X125045Y-109105D01*
X125124Y-109026D02*
X126946Y-109026D01*
X127025Y-109105D02*
X127025Y-110625D01*
X126946Y-110704D02*
X125124Y-110704D01*
G54D27*
X125522Y-110345D02*
G75*
G03X125522Y-110345I-127J0D01*
G74*
G01*
G54D24*
X125045Y-110625D02*
G75*
G03X125124Y-110704I79J0D01*
G74*
G01*
X125124Y-109026D02*
G75*
G03X125045Y-109105I0J-79D01*
G74*
G01*
X127025Y-109105D02*
G75*
G03X126946Y-109026I-79J0D01*
G74*
G01*
X126946Y-110704D02*
G75*
G03X127025Y-110625I0J79D01*
G74*
G01*
G54D20*
X136050Y-94150D02*
X136050Y-100600D01*
X136000Y-94150D02*
X136250Y-94150D01*
X136250Y-94150D02*
X136250Y-100600D01*
X136250Y-100600D02*
X135950Y-100600D01*
X135950Y-100600D02*
X133950Y-100600D01*
X133950Y-100600D02*
X133950Y-94150D01*
X133950Y-94150D02*
X136000Y-94150D01*
G54D26*
X135050Y-94950D02*
X135050Y-95450D01*
X135050Y-95450D02*
X135800Y-95450D01*
X135800Y-94950D02*
X135800Y-95450D01*
X135050Y-94950D02*
X135800Y-94950D01*
X135050Y-97150D02*
X135050Y-97650D01*
X135050Y-97650D02*
X135800Y-97650D01*
X135800Y-97150D02*
X135800Y-97650D01*
X135050Y-97150D02*
X135800Y-97150D01*
X135050Y-99350D02*
X135050Y-99850D01*
X135050Y-99850D02*
X135800Y-99850D01*
X135800Y-99350D02*
X135800Y-99850D01*
X135050Y-99350D02*
X135800Y-99350D01*
X135800Y-97150D02*
X135800Y-97650D01*
X135800Y-99350D02*
X135800Y-99850D01*
X135800Y-94950D02*
X135800Y-95450D01*
G54D25*
X127076Y-112662D02*
X125524Y-112662D01*
X125524Y-112662D02*
X125524Y-111888D01*
X125524Y-111888D02*
X127076Y-111888D01*
X127076Y-111888D02*
X127076Y-112662D01*
X128304Y-107903D02*
X129856Y-107903D01*
X129856Y-107903D02*
X129856Y-108677D01*
X129856Y-108677D02*
X128304Y-108677D01*
X128304Y-108677D02*
X128304Y-107903D01*
X124737Y-109999D02*
X124737Y-111551D01*
X124737Y-111551D02*
X123963Y-111551D01*
X123963Y-111551D02*
X123963Y-109999D01*
X123963Y-109999D02*
X124737Y-109999D01*
X127313Y-107226D02*
X127313Y-105674D01*
X127313Y-105674D02*
X128087Y-105674D01*
X128087Y-105674D02*
X128087Y-107226D01*
X128087Y-107226D02*
X127313Y-107226D01*
X126513Y-107226D02*
X126513Y-105674D01*
X126513Y-105674D02*
X127287Y-105674D01*
X127287Y-105674D02*
X127287Y-107226D01*
X127287Y-107226D02*
X126513Y-107226D01*
G54D28*
X149581Y-89300D02*
G75*
G03X149581Y-89300I-5981J0D01*
G74*
G01*
G54D21*
X129750Y-95150D02*
X130250Y-95150D01*
X130250Y-95150D02*
X130250Y-96150D01*
X130250Y-96150D02*
X129750Y-96150D01*
X129750Y-94650D02*
X133750Y-94650D01*
X133750Y-94650D02*
X133750Y-96650D01*
X133750Y-96650D02*
X129750Y-96650D01*
X129750Y-96650D02*
X129750Y-94650D01*
X138134Y-93100D02*
G75*
G03X138134Y-93100I-984J0D01*
G74*
G01*
X135134Y-93100D02*
G75*
G03X135134Y-93100I-984J0D01*
G74*
G01*
X146884Y-97150D02*
G75*
G03X146884Y-97150I-984J0D01*
G74*
G01*
G54D28*
X126500Y-99250D02*
X126500Y-98100D01*
X126500Y-98100D02*
X129300Y-98100D01*
X129300Y-98100D02*
X129300Y-99250D01*
X129300Y-99250D02*
X126500Y-99250D01*
X138965Y-101065D02*
X137665Y-101065D01*
X137665Y-101065D02*
X137665Y-98465D01*
X137665Y-98465D02*
X139015Y-98465D01*
X141415Y-101065D02*
X141465Y-101065D01*
X141465Y-101065D02*
X141465Y-98465D01*
X138965Y-98465D02*
X141465Y-98465D01*
X141415Y-101065D02*
X138965Y-101065D01*
X129200Y-84100D02*
X129200Y-85250D01*
X129200Y-85250D02*
X126400Y-85250D01*
X126400Y-85250D02*
X126400Y-84100D01*
X126400Y-84100D02*
X129200Y-84100D01*
G54D18*
X133100Y-105290D02*
X133100Y-106290D01*
X133100Y-106290D02*
X136600Y-106290D01*
X136600Y-106290D02*
X136600Y-105290D01*
X136600Y-105290D02*
X133100Y-105290D01*
X133100Y-105540D02*
X133350Y-105290D01*
X133100Y-105790D02*
X132600Y-105790D01*
X136600Y-105790D02*
X137100Y-105790D01*
G54D28*
X146480Y-104330D02*
X142980Y-104330D01*
X142980Y-105480D02*
X146480Y-105480D01*
X142980Y-104330D02*
X142980Y-105480D01*
X146480Y-104330D02*
X146480Y-105480D01*
X148720Y-99415D02*
X147570Y-99415D01*
X147570Y-99415D02*
X147570Y-96615D01*
X147570Y-96615D02*
X148720Y-96615D01*
X148720Y-96615D02*
X148720Y-99415D01*
X142650Y-109250D02*
X142650Y-105600D01*
X142650Y-105600D02*
X149200Y-105600D01*
X149200Y-105600D02*
X149200Y-109050D01*
X149200Y-109050D02*
X149200Y-109100D01*
X149200Y-109100D02*
X149200Y-109150D01*
X149200Y-109150D02*
X149200Y-109250D01*
X149200Y-109250D02*
X142650Y-109250D01*
G54D24*
X145450Y-107450D02*
X147000Y-107450D01*
X144900Y-107450D02*
X145100Y-107450D01*
G54D29*
X145100Y-106950D02*
X145100Y-107450D01*
X145100Y-107450D02*
X145100Y-107950D01*
X145450Y-106950D02*
X145450Y-107450D01*
X145450Y-107450D02*
X145450Y-107950D01*
G54D28*
X142660Y-113050D02*
X142660Y-109400D01*
X142660Y-109400D02*
X149210Y-109400D01*
X149210Y-109400D02*
X149210Y-112850D01*
X149210Y-112850D02*
X149210Y-112900D01*
X149210Y-112900D02*
X149210Y-112950D01*
X149210Y-112950D02*
X149210Y-113050D01*
X149210Y-113050D02*
X142660Y-113050D01*
G54D24*
X145460Y-111250D02*
X147010Y-111250D01*
X144910Y-111250D02*
X145110Y-111250D01*
G54D29*
X145110Y-110750D02*
X145110Y-111250D01*
X145110Y-111250D02*
X145110Y-111750D01*
X145460Y-110750D02*
X145460Y-111250D01*
X145460Y-111250D02*
X145460Y-111750D01*
G54D30*
X123211Y-104350D02*
G75*
G03X123211Y-104350I-111J0D01*
G74*
G01*
X123300Y-105100D02*
X123100Y-105100D01*
X123100Y-105100D02*
X123100Y-104600D01*
X123100Y-104600D02*
X123300Y-104600D01*
X120700Y-105750D02*
X120600Y-105750D01*
X120600Y-105750D02*
X120600Y-103950D01*
X120600Y-103950D02*
X120700Y-103950D01*
X123200Y-105750D02*
X123300Y-105750D01*
X123300Y-105750D02*
X123300Y-103950D01*
X123300Y-103950D02*
X123200Y-103950D01*
G54D23*
X123834Y-102861D02*
X123834Y-102461D01*
X123987Y-102461D01*
X124025Y-102480D01*
X124044Y-102500D01*
X124063Y-102538D01*
X124063Y-102595D01*
X124044Y-102633D01*
X124025Y-102652D01*
X123987Y-102671D01*
X123834Y-102671D01*
X124291Y-102633D02*
X124253Y-102614D01*
X124234Y-102595D01*
X124215Y-102557D01*
X124215Y-102538D01*
X124234Y-102500D01*
X124253Y-102480D01*
X124291Y-102461D01*
X124368Y-102461D01*
X124406Y-102480D01*
X124425Y-102500D01*
X124444Y-102538D01*
X124444Y-102557D01*
X124425Y-102595D01*
X124406Y-102614D01*
X124368Y-102633D01*
X124291Y-102633D01*
X124253Y-102652D01*
X124234Y-102671D01*
X124215Y-102709D01*
X124215Y-102785D01*
X124234Y-102823D01*
X124253Y-102842D01*
X124291Y-102861D01*
X124368Y-102861D01*
X124406Y-102842D01*
X124425Y-102823D01*
X124444Y-102785D01*
X124444Y-102709D01*
X124425Y-102671D01*
X124406Y-102652D01*
X124368Y-102633D01*
X105170Y-101698D02*
X105151Y-101717D01*
X105094Y-101736D01*
X105056Y-101736D01*
X104999Y-101717D01*
X104961Y-101679D01*
X104942Y-101641D01*
X104923Y-101565D01*
X104923Y-101508D01*
X104942Y-101432D01*
X104961Y-101394D01*
X104999Y-101355D01*
X105056Y-101336D01*
X105094Y-101336D01*
X105151Y-101355D01*
X105170Y-101375D01*
X105418Y-101336D02*
X105494Y-101336D01*
X105532Y-101355D01*
X105570Y-101394D01*
X105590Y-101470D01*
X105590Y-101603D01*
X105570Y-101679D01*
X105532Y-101717D01*
X105494Y-101736D01*
X105418Y-101736D01*
X105380Y-101717D01*
X105342Y-101679D01*
X105323Y-101603D01*
X105323Y-101470D01*
X105342Y-101394D01*
X105380Y-101355D01*
X105418Y-101336D01*
X105761Y-101736D02*
X105761Y-101336D01*
X105990Y-101736D01*
X105990Y-101336D01*
X106180Y-101736D02*
X106180Y-101336D01*
X106409Y-101736D01*
X106409Y-101336D01*
X106504Y-101775D02*
X106809Y-101775D01*
X107113Y-101736D02*
X106885Y-101736D01*
X106999Y-101736D02*
X106999Y-101336D01*
X106961Y-101394D01*
X106923Y-101432D01*
X106885Y-101451D01*
X107361Y-101336D02*
X107399Y-101336D01*
X107437Y-101355D01*
X107456Y-101375D01*
X107475Y-101413D01*
X107494Y-101489D01*
X107494Y-101584D01*
X107475Y-101660D01*
X107456Y-101698D01*
X107437Y-101717D01*
X107399Y-101736D01*
X107361Y-101736D01*
X107323Y-101717D01*
X107304Y-101698D01*
X107285Y-101660D01*
X107266Y-101584D01*
X107266Y-101489D01*
X107285Y-101413D01*
X107304Y-101375D01*
X107323Y-101355D01*
X107361Y-101336D01*
X107628Y-101336D02*
X107894Y-101736D01*
X107894Y-101336D02*
X107628Y-101736D01*
X108028Y-101375D02*
X108047Y-101355D01*
X108085Y-101336D01*
X108180Y-101336D01*
X108218Y-101355D01*
X108237Y-101375D01*
X108256Y-101413D01*
X108256Y-101451D01*
X108237Y-101508D01*
X108009Y-101736D01*
X108256Y-101736D01*
X127628Y-86272D02*
X127461Y-86010D01*
X127342Y-86272D02*
X127342Y-85722D01*
X127533Y-85722D01*
X127580Y-85748D01*
X127604Y-85775D01*
X127628Y-85827D01*
X127628Y-85905D01*
X127604Y-85958D01*
X127580Y-85984D01*
X127533Y-86010D01*
X127342Y-86010D01*
X127795Y-85722D02*
X128128Y-85722D01*
X127914Y-86272D01*
X128557Y-85722D02*
X128319Y-85722D01*
X128295Y-85984D01*
X128319Y-85958D01*
X128366Y-85932D01*
X128485Y-85932D01*
X128533Y-85958D01*
X128557Y-85984D01*
X128580Y-86036D01*
X128580Y-86167D01*
X128557Y-86220D01*
X128533Y-86246D01*
X128485Y-86272D01*
X128366Y-86272D01*
X128319Y-86246D01*
X128295Y-86220D01*
X124122Y-87171D02*
X123860Y-87338D01*
X124122Y-87457D02*
X123572Y-87457D01*
X123572Y-87266D01*
X123598Y-87219D01*
X123625Y-87195D01*
X123677Y-87171D01*
X123755Y-87171D01*
X123808Y-87195D01*
X123834Y-87219D01*
X123860Y-87266D01*
X123860Y-87457D01*
X123572Y-87004D02*
X123572Y-86671D01*
X124122Y-86885D01*
X124122Y-86457D02*
X124122Y-86361D01*
X124096Y-86314D01*
X124070Y-86290D01*
X123991Y-86242D01*
X123886Y-86219D01*
X123677Y-86219D01*
X123625Y-86242D01*
X123598Y-86266D01*
X123572Y-86314D01*
X123572Y-86409D01*
X123598Y-86457D01*
X123625Y-86480D01*
X123677Y-86504D01*
X123808Y-86504D01*
X123860Y-86480D01*
X123886Y-86457D01*
X123913Y-86409D01*
X123913Y-86314D01*
X123886Y-86266D01*
X123860Y-86242D01*
X123808Y-86219D01*
X127628Y-87222D02*
X127461Y-86960D01*
X127342Y-87222D02*
X127342Y-86672D01*
X127533Y-86672D01*
X127580Y-86698D01*
X127604Y-86725D01*
X127628Y-86777D01*
X127628Y-86855D01*
X127604Y-86908D01*
X127580Y-86934D01*
X127533Y-86960D01*
X127342Y-86960D01*
X127795Y-86672D02*
X128128Y-86672D01*
X127914Y-87222D01*
X128271Y-86672D02*
X128604Y-86672D01*
X128390Y-87222D01*
X120678Y-86072D02*
X120511Y-85810D01*
X120392Y-86072D02*
X120392Y-85522D01*
X120583Y-85522D01*
X120630Y-85548D01*
X120654Y-85575D01*
X120678Y-85627D01*
X120678Y-85705D01*
X120654Y-85758D01*
X120630Y-85784D01*
X120583Y-85810D01*
X120392Y-85810D01*
X120964Y-85758D02*
X120916Y-85732D01*
X120892Y-85705D01*
X120869Y-85653D01*
X120869Y-85627D01*
X120892Y-85575D01*
X120916Y-85548D01*
X120964Y-85522D01*
X121059Y-85522D01*
X121107Y-85548D01*
X121130Y-85575D01*
X121154Y-85627D01*
X121154Y-85653D01*
X121130Y-85705D01*
X121107Y-85732D01*
X121059Y-85758D01*
X120964Y-85758D01*
X120916Y-85784D01*
X120892Y-85810D01*
X120869Y-85863D01*
X120869Y-85967D01*
X120892Y-86020D01*
X120916Y-86046D01*
X120964Y-86072D01*
X121059Y-86072D01*
X121107Y-86046D01*
X121130Y-86020D01*
X121154Y-85967D01*
X121154Y-85863D01*
X121130Y-85810D01*
X121107Y-85784D01*
X121059Y-85758D01*
X121321Y-85522D02*
X121630Y-85522D01*
X121464Y-85732D01*
X121535Y-85732D01*
X121583Y-85758D01*
X121607Y-85784D01*
X121630Y-85836D01*
X121630Y-85967D01*
X121607Y-86020D01*
X121583Y-86046D01*
X121535Y-86072D01*
X121392Y-86072D01*
X121345Y-86046D01*
X121321Y-86020D01*
X120678Y-85122D02*
X120511Y-84860D01*
X120392Y-85122D02*
X120392Y-84572D01*
X120583Y-84572D01*
X120630Y-84598D01*
X120654Y-84625D01*
X120678Y-84677D01*
X120678Y-84755D01*
X120654Y-84808D01*
X120630Y-84834D01*
X120583Y-84860D01*
X120392Y-84860D01*
X120964Y-84808D02*
X120916Y-84782D01*
X120892Y-84755D01*
X120869Y-84703D01*
X120869Y-84677D01*
X120892Y-84625D01*
X120916Y-84598D01*
X120964Y-84572D01*
X121059Y-84572D01*
X121107Y-84598D01*
X121130Y-84625D01*
X121154Y-84677D01*
X121154Y-84703D01*
X121130Y-84755D01*
X121107Y-84782D01*
X121059Y-84808D01*
X120964Y-84808D01*
X120916Y-84834D01*
X120892Y-84860D01*
X120869Y-84913D01*
X120869Y-85017D01*
X120892Y-85070D01*
X120916Y-85096D01*
X120964Y-85122D01*
X121059Y-85122D01*
X121107Y-85096D01*
X121130Y-85070D01*
X121154Y-85017D01*
X121154Y-84913D01*
X121130Y-84860D01*
X121107Y-84834D01*
X121059Y-84808D01*
X121345Y-84625D02*
X121369Y-84598D01*
X121416Y-84572D01*
X121535Y-84572D01*
X121583Y-84598D01*
X121607Y-84625D01*
X121630Y-84677D01*
X121630Y-84729D01*
X121607Y-84808D01*
X121321Y-85122D01*
X121630Y-85122D01*
X121378Y-95272D02*
X121211Y-95010D01*
X121092Y-95272D02*
X121092Y-94722D01*
X121283Y-94722D01*
X121330Y-94748D01*
X121354Y-94775D01*
X121378Y-94827D01*
X121378Y-94905D01*
X121354Y-94958D01*
X121330Y-94984D01*
X121283Y-95010D01*
X121092Y-95010D01*
X121664Y-94958D02*
X121616Y-94932D01*
X121592Y-94905D01*
X121569Y-94853D01*
X121569Y-94827D01*
X121592Y-94775D01*
X121616Y-94748D01*
X121664Y-94722D01*
X121759Y-94722D01*
X121807Y-94748D01*
X121830Y-94775D01*
X121854Y-94827D01*
X121854Y-94853D01*
X121830Y-94905D01*
X121807Y-94932D01*
X121759Y-94958D01*
X121664Y-94958D01*
X121616Y-94984D01*
X121592Y-95010D01*
X121569Y-95063D01*
X121569Y-95167D01*
X121592Y-95220D01*
X121616Y-95246D01*
X121664Y-95272D01*
X121759Y-95272D01*
X121807Y-95246D01*
X121830Y-95220D01*
X121854Y-95167D01*
X121854Y-95063D01*
X121830Y-95010D01*
X121807Y-94984D01*
X121759Y-94958D01*
X122021Y-94722D02*
X122354Y-94722D01*
X122140Y-95272D01*
X121378Y-94322D02*
X121211Y-94060D01*
X121092Y-94322D02*
X121092Y-93772D01*
X121283Y-93772D01*
X121330Y-93798D01*
X121354Y-93825D01*
X121378Y-93877D01*
X121378Y-93955D01*
X121354Y-94008D01*
X121330Y-94034D01*
X121283Y-94060D01*
X121092Y-94060D01*
X121616Y-94322D02*
X121711Y-94322D01*
X121759Y-94296D01*
X121783Y-94270D01*
X121830Y-94191D01*
X121854Y-94086D01*
X121854Y-93877D01*
X121830Y-93825D01*
X121807Y-93798D01*
X121759Y-93772D01*
X121664Y-93772D01*
X121616Y-93798D01*
X121592Y-93825D01*
X121569Y-93877D01*
X121569Y-94008D01*
X121592Y-94060D01*
X121616Y-94086D01*
X121664Y-94113D01*
X121759Y-94113D01*
X121807Y-94086D01*
X121830Y-94060D01*
X121854Y-94008D01*
X122330Y-94322D02*
X122045Y-94322D01*
X122188Y-94322D02*
X122188Y-93772D01*
X122140Y-93851D01*
X122092Y-93903D01*
X122045Y-93929D01*
X127578Y-89072D02*
X127411Y-88810D01*
X127292Y-89072D02*
X127292Y-88522D01*
X127483Y-88522D01*
X127530Y-88548D01*
X127554Y-88575D01*
X127578Y-88627D01*
X127578Y-88705D01*
X127554Y-88758D01*
X127530Y-88784D01*
X127483Y-88810D01*
X127292Y-88810D01*
X127745Y-88522D02*
X128078Y-88522D01*
X127864Y-89072D01*
X128221Y-88522D02*
X128530Y-88522D01*
X128364Y-88732D01*
X128435Y-88732D01*
X128483Y-88758D01*
X128507Y-88784D01*
X128530Y-88836D01*
X128530Y-88967D01*
X128507Y-89020D01*
X128483Y-89046D01*
X128435Y-89072D01*
X128292Y-89072D01*
X128245Y-89046D01*
X128221Y-89020D01*
X120578Y-91272D02*
X120411Y-91010D01*
X120292Y-91272D02*
X120292Y-90722D01*
X120483Y-90722D01*
X120530Y-90748D01*
X120554Y-90775D01*
X120578Y-90827D01*
X120578Y-90905D01*
X120554Y-90958D01*
X120530Y-90984D01*
X120483Y-91010D01*
X120292Y-91010D01*
X120864Y-90958D02*
X120816Y-90932D01*
X120792Y-90905D01*
X120769Y-90853D01*
X120769Y-90827D01*
X120792Y-90775D01*
X120816Y-90748D01*
X120864Y-90722D01*
X120959Y-90722D01*
X121007Y-90748D01*
X121030Y-90775D01*
X121054Y-90827D01*
X121054Y-90853D01*
X121030Y-90905D01*
X121007Y-90932D01*
X120959Y-90958D01*
X120864Y-90958D01*
X120816Y-90984D01*
X120792Y-91010D01*
X120769Y-91063D01*
X120769Y-91167D01*
X120792Y-91220D01*
X120816Y-91246D01*
X120864Y-91272D01*
X120959Y-91272D01*
X121007Y-91246D01*
X121030Y-91220D01*
X121054Y-91167D01*
X121054Y-91063D01*
X121030Y-91010D01*
X121007Y-90984D01*
X120959Y-90958D01*
X121292Y-91272D02*
X121388Y-91272D01*
X121435Y-91246D01*
X121459Y-91220D01*
X121507Y-91141D01*
X121530Y-91036D01*
X121530Y-90827D01*
X121507Y-90775D01*
X121483Y-90748D01*
X121435Y-90722D01*
X121340Y-90722D01*
X121292Y-90748D01*
X121269Y-90775D01*
X121245Y-90827D01*
X121245Y-90958D01*
X121269Y-91010D01*
X121292Y-91036D01*
X121340Y-91063D01*
X121435Y-91063D01*
X121483Y-91036D01*
X121507Y-91010D01*
X121530Y-90958D01*
X120578Y-92172D02*
X120411Y-91910D01*
X120292Y-92172D02*
X120292Y-91622D01*
X120483Y-91622D01*
X120530Y-91648D01*
X120554Y-91675D01*
X120578Y-91727D01*
X120578Y-91805D01*
X120554Y-91858D01*
X120530Y-91884D01*
X120483Y-91910D01*
X120292Y-91910D01*
X120864Y-91858D02*
X120816Y-91832D01*
X120792Y-91805D01*
X120769Y-91753D01*
X120769Y-91727D01*
X120792Y-91675D01*
X120816Y-91648D01*
X120864Y-91622D01*
X120959Y-91622D01*
X121007Y-91648D01*
X121030Y-91675D01*
X121054Y-91727D01*
X121054Y-91753D01*
X121030Y-91805D01*
X121007Y-91832D01*
X120959Y-91858D01*
X120864Y-91858D01*
X120816Y-91884D01*
X120792Y-91910D01*
X120769Y-91963D01*
X120769Y-92067D01*
X120792Y-92120D01*
X120816Y-92146D01*
X120864Y-92172D01*
X120959Y-92172D01*
X121007Y-92146D01*
X121030Y-92120D01*
X121054Y-92067D01*
X121054Y-91963D01*
X121030Y-91910D01*
X121007Y-91884D01*
X120959Y-91858D01*
X121507Y-91622D02*
X121269Y-91622D01*
X121245Y-91884D01*
X121269Y-91858D01*
X121316Y-91832D01*
X121435Y-91832D01*
X121483Y-91858D01*
X121507Y-91884D01*
X121530Y-91936D01*
X121530Y-92067D01*
X121507Y-92120D01*
X121483Y-92146D01*
X121435Y-92172D01*
X121316Y-92172D01*
X121269Y-92146D01*
X121245Y-92120D01*
X127578Y-89972D02*
X127411Y-89710D01*
X127292Y-89972D02*
X127292Y-89422D01*
X127483Y-89422D01*
X127530Y-89448D01*
X127554Y-89475D01*
X127578Y-89527D01*
X127578Y-89605D01*
X127554Y-89658D01*
X127530Y-89684D01*
X127483Y-89710D01*
X127292Y-89710D01*
X127745Y-89422D02*
X128078Y-89422D01*
X127864Y-89972D01*
X128530Y-89972D02*
X128245Y-89972D01*
X128388Y-89972D02*
X128388Y-89422D01*
X128340Y-89501D01*
X128292Y-89553D01*
X128245Y-89579D01*
X120714Y-98111D02*
X120714Y-97711D01*
X120866Y-97711D01*
X120904Y-97730D01*
X120923Y-97750D01*
X120942Y-97788D01*
X120942Y-97845D01*
X120923Y-97883D01*
X120904Y-97902D01*
X120866Y-97921D01*
X120714Y-97921D01*
X121304Y-97711D02*
X121114Y-97711D01*
X121095Y-97902D01*
X121114Y-97883D01*
X121152Y-97864D01*
X121247Y-97864D01*
X121285Y-97883D01*
X121304Y-97902D01*
X121323Y-97940D01*
X121323Y-98035D01*
X121304Y-98073D01*
X121285Y-98092D01*
X121247Y-98111D01*
X121152Y-98111D01*
X121114Y-98092D01*
X121095Y-98073D01*
X121476Y-97750D02*
X121495Y-97730D01*
X121533Y-97711D01*
X121628Y-97711D01*
X121666Y-97730D01*
X121685Y-97750D01*
X121704Y-97788D01*
X121704Y-97826D01*
X121685Y-97883D01*
X121457Y-98111D01*
X121704Y-98111D01*
X140056Y-106702D02*
X139890Y-106440D01*
X139770Y-106702D02*
X139770Y-106152D01*
X139961Y-106152D01*
X140009Y-106178D01*
X140032Y-106205D01*
X140056Y-106257D01*
X140056Y-106335D01*
X140032Y-106388D01*
X140009Y-106414D01*
X139961Y-106440D01*
X139770Y-106440D01*
X140485Y-106152D02*
X140390Y-106152D01*
X140342Y-106178D01*
X140318Y-106205D01*
X140270Y-106283D01*
X140247Y-106388D01*
X140247Y-106597D01*
X140270Y-106650D01*
X140294Y-106676D01*
X140342Y-106702D01*
X140437Y-106702D01*
X140485Y-106676D01*
X140509Y-106650D01*
X140532Y-106597D01*
X140532Y-106466D01*
X140509Y-106414D01*
X140485Y-106388D01*
X140437Y-106362D01*
X140342Y-106362D01*
X140294Y-106388D01*
X140270Y-106414D01*
X140247Y-106466D01*
X131582Y-109028D02*
X131320Y-109195D01*
X131582Y-109314D02*
X131032Y-109314D01*
X131032Y-109123D01*
X131058Y-109075D01*
X131085Y-109052D01*
X131137Y-109028D01*
X131215Y-109028D01*
X131268Y-109052D01*
X131294Y-109075D01*
X131320Y-109123D01*
X131320Y-109314D01*
X131582Y-108552D02*
X131582Y-108837D01*
X131582Y-108695D02*
X131032Y-108695D01*
X131111Y-108742D01*
X131163Y-108790D01*
X131189Y-108837D01*
X136322Y-109053D02*
X136060Y-109220D01*
X136322Y-109339D02*
X135772Y-109339D01*
X135772Y-109148D01*
X135798Y-109100D01*
X135825Y-109077D01*
X135877Y-109053D01*
X135955Y-109053D01*
X136008Y-109077D01*
X136034Y-109100D01*
X136060Y-109148D01*
X136060Y-109339D01*
X135825Y-108862D02*
X135798Y-108839D01*
X135772Y-108791D01*
X135772Y-108672D01*
X135798Y-108624D01*
X135825Y-108600D01*
X135877Y-108577D01*
X135929Y-108577D01*
X136008Y-108600D01*
X136322Y-108886D01*
X136322Y-108577D01*
X137262Y-109058D02*
X137000Y-109225D01*
X137262Y-109344D02*
X136712Y-109344D01*
X136712Y-109153D01*
X136738Y-109105D01*
X136765Y-109082D01*
X136817Y-109058D01*
X136895Y-109058D01*
X136948Y-109082D01*
X136974Y-109105D01*
X137000Y-109153D01*
X137000Y-109344D01*
X136712Y-108891D02*
X136712Y-108582D01*
X136922Y-108748D01*
X136922Y-108677D01*
X136948Y-108629D01*
X136974Y-108605D01*
X137026Y-108582D01*
X137157Y-108582D01*
X137210Y-108605D01*
X137236Y-108629D01*
X137262Y-108677D01*
X137262Y-108820D01*
X137236Y-108867D01*
X137210Y-108891D01*
X139936Y-111182D02*
X139770Y-110920D01*
X139650Y-111182D02*
X139650Y-110632D01*
X139841Y-110632D01*
X139889Y-110658D01*
X139912Y-110685D01*
X139936Y-110737D01*
X139936Y-110815D01*
X139912Y-110868D01*
X139889Y-110894D01*
X139841Y-110920D01*
X139650Y-110920D01*
X140365Y-110815D02*
X140365Y-111182D01*
X140246Y-110606D02*
X140127Y-110999D01*
X140436Y-110999D01*
X140036Y-105542D02*
X139870Y-105280D01*
X139750Y-105542D02*
X139750Y-104992D01*
X139941Y-104992D01*
X139989Y-105018D01*
X140012Y-105045D01*
X140036Y-105097D01*
X140036Y-105175D01*
X140012Y-105228D01*
X139989Y-105254D01*
X139941Y-105280D01*
X139750Y-105280D01*
X140489Y-104992D02*
X140250Y-104992D01*
X140227Y-105254D01*
X140250Y-105228D01*
X140298Y-105202D01*
X140417Y-105202D01*
X140465Y-105228D01*
X140489Y-105254D01*
X140512Y-105306D01*
X140512Y-105437D01*
X140489Y-105490D01*
X140465Y-105516D01*
X140417Y-105542D01*
X140298Y-105542D01*
X140250Y-105516D01*
X140227Y-105490D01*
G54D24*
X121407Y-109032D02*
X121407Y-109396D01*
X121428Y-109439D01*
X121450Y-109460D01*
X121492Y-109482D01*
X121578Y-109482D01*
X121621Y-109460D01*
X121642Y-109439D01*
X121664Y-109396D01*
X121664Y-109032D01*
X122071Y-109182D02*
X122071Y-109482D01*
X121964Y-109010D02*
X121857Y-109332D01*
X122135Y-109332D01*
X120483Y-110191D02*
X120483Y-109841D01*
X120599Y-110091D01*
X120716Y-109841D01*
X120716Y-110191D01*
X120866Y-110091D02*
X121033Y-110091D01*
X120833Y-110191D02*
X120949Y-109841D01*
X121066Y-110191D01*
X121149Y-109841D02*
X121383Y-110191D01*
X121383Y-109841D02*
X121149Y-110191D01*
X121483Y-109841D02*
X121699Y-109841D01*
X121583Y-109975D01*
X121633Y-109975D01*
X121666Y-109991D01*
X121683Y-110008D01*
X121699Y-110041D01*
X121699Y-110125D01*
X121683Y-110158D01*
X121666Y-110175D01*
X121633Y-110191D01*
X121533Y-110191D01*
X121499Y-110175D01*
X121483Y-110158D01*
X122033Y-110191D02*
X121833Y-110191D01*
X121933Y-110191D02*
X121933Y-109841D01*
X121900Y-109891D01*
X121866Y-109925D01*
X121833Y-109941D01*
X122233Y-109991D02*
X122200Y-109975D01*
X122183Y-109958D01*
X122166Y-109925D01*
X122166Y-109908D01*
X122183Y-109875D01*
X122200Y-109858D01*
X122233Y-109841D01*
X122300Y-109841D01*
X122333Y-109858D01*
X122350Y-109875D01*
X122366Y-109908D01*
X122366Y-109925D01*
X122350Y-109958D01*
X122333Y-109975D01*
X122300Y-109991D01*
X122233Y-109991D01*
X122200Y-110008D01*
X122183Y-110025D01*
X122166Y-110058D01*
X122166Y-110125D01*
X122183Y-110158D01*
X122200Y-110175D01*
X122233Y-110191D01*
X122300Y-110191D01*
X122333Y-110175D01*
X122350Y-110158D01*
X122366Y-110125D01*
X122366Y-110058D01*
X122350Y-110025D01*
X122333Y-110008D01*
X122300Y-109991D01*
X122683Y-109841D02*
X122516Y-109841D01*
X122500Y-110008D01*
X122516Y-109991D01*
X122550Y-109975D01*
X122633Y-109975D01*
X122666Y-109991D01*
X122683Y-110008D01*
X122700Y-110041D01*
X122700Y-110125D01*
X122683Y-110158D01*
X122666Y-110175D01*
X122633Y-110191D01*
X122550Y-110191D01*
X122516Y-110175D01*
X122500Y-110158D01*
X123016Y-109841D02*
X122850Y-109841D01*
X122833Y-110008D01*
X122850Y-109991D01*
X122883Y-109975D01*
X122966Y-109975D01*
X123000Y-109991D01*
X123016Y-110008D01*
X123033Y-110041D01*
X123033Y-110125D01*
X123016Y-110158D01*
X123000Y-110175D01*
X122966Y-110191D01*
X122883Y-110191D01*
X122850Y-110175D01*
X122833Y-110158D01*
G54D23*
X133390Y-109603D02*
X133390Y-110210D01*
X133409Y-110282D01*
X133428Y-110317D01*
X133466Y-110353D01*
X133542Y-110353D01*
X133580Y-110317D01*
X133599Y-110282D01*
X133618Y-110210D01*
X133618Y-109603D01*
X134018Y-110353D02*
X133790Y-110353D01*
X133904Y-110353D02*
X133904Y-109603D01*
X133866Y-109710D01*
X133828Y-109782D01*
X133790Y-109817D01*
X133557Y-109240D02*
X133957Y-109240D01*
X133329Y-109323D02*
X133757Y-109406D01*
X133757Y-109190D01*
X133957Y-109056D02*
X133357Y-109056D01*
X133957Y-108856D01*
X133357Y-108856D01*
X133415Y-108706D02*
X133386Y-108690D01*
X133357Y-108656D01*
X133357Y-108573D01*
X133386Y-108540D01*
X133415Y-108523D01*
X133472Y-108506D01*
X133529Y-108506D01*
X133615Y-108523D01*
X133957Y-108723D01*
X133957Y-108506D01*
X133357Y-108190D02*
X133357Y-108356D01*
X133643Y-108373D01*
X133615Y-108356D01*
X133586Y-108323D01*
X133586Y-108240D01*
X133615Y-108206D01*
X133643Y-108190D01*
X133700Y-108173D01*
X133843Y-108173D01*
X133900Y-108190D01*
X133929Y-108206D01*
X133957Y-108240D01*
X133957Y-108323D01*
X133929Y-108356D01*
X133900Y-108373D01*
G54D31*
X120916Y-93670D02*
X121058Y-94375D01*
X121199Y-93670D01*
X121583Y-94375D02*
X121441Y-94039D01*
X121340Y-94375D02*
X121340Y-93670D01*
X121502Y-93670D01*
X121542Y-93703D01*
X121562Y-93737D01*
X121583Y-93804D01*
X121583Y-93905D01*
X121562Y-93972D01*
X121542Y-94006D01*
X121502Y-94039D01*
X121340Y-94039D01*
X121946Y-93905D02*
X121946Y-94375D01*
X121845Y-93636D02*
X121744Y-94140D01*
X122007Y-94140D01*
X126620Y-92333D02*
X127325Y-92191D01*
X126620Y-92050D01*
X127325Y-91666D02*
X126989Y-91808D01*
X127325Y-91909D02*
X126620Y-91909D01*
X126620Y-91747D01*
X126653Y-91707D01*
X126687Y-91687D01*
X126754Y-91666D01*
X126855Y-91666D01*
X126922Y-91687D01*
X126956Y-91707D01*
X126989Y-91747D01*
X126989Y-91909D01*
X126687Y-91505D02*
X126653Y-91485D01*
X126620Y-91444D01*
X126620Y-91343D01*
X126653Y-91303D01*
X126687Y-91283D01*
X126754Y-91263D01*
X126821Y-91263D01*
X126922Y-91283D01*
X127325Y-91525D01*
X127325Y-91263D01*
G54D23*
X136912Y-103734D02*
X136931Y-103677D01*
X136931Y-103582D01*
X136912Y-103544D01*
X136893Y-103525D01*
X136855Y-103506D01*
X136817Y-103506D01*
X136779Y-103525D01*
X136760Y-103544D01*
X136741Y-103582D01*
X136722Y-103658D01*
X136703Y-103696D01*
X136684Y-103715D01*
X136646Y-103734D01*
X136608Y-103734D01*
X136570Y-103715D01*
X136550Y-103696D01*
X136531Y-103658D01*
X136531Y-103563D01*
X136550Y-103506D01*
X136893Y-103106D02*
X136912Y-103125D01*
X136931Y-103182D01*
X136931Y-103220D01*
X136912Y-103277D01*
X136874Y-103315D01*
X136836Y-103334D01*
X136760Y-103353D01*
X136703Y-103353D01*
X136627Y-103334D01*
X136589Y-103315D01*
X136550Y-103277D01*
X136531Y-103220D01*
X136531Y-103182D01*
X136550Y-103125D01*
X136570Y-103106D01*
X136931Y-102706D02*
X136741Y-102839D01*
X136931Y-102934D02*
X136531Y-102934D01*
X136531Y-102782D01*
X136550Y-102744D01*
X136570Y-102725D01*
X136608Y-102706D01*
X136665Y-102706D01*
X136703Y-102725D01*
X136722Y-102744D01*
X136741Y-102782D01*
X136741Y-102934D01*
X136931Y-102325D02*
X136931Y-102553D01*
X136931Y-102439D02*
X136531Y-102439D01*
X136589Y-102477D01*
X136627Y-102515D01*
X136646Y-102553D01*
X135222Y-103725D02*
X135241Y-103668D01*
X135260Y-103649D01*
X135298Y-103630D01*
X135355Y-103630D01*
X135393Y-103649D01*
X135412Y-103668D01*
X135431Y-103706D01*
X135431Y-103858D01*
X135031Y-103858D01*
X135031Y-103725D01*
X135050Y-103687D01*
X135070Y-103668D01*
X135108Y-103649D01*
X135146Y-103649D01*
X135184Y-103668D01*
X135203Y-103687D01*
X135222Y-103725D01*
X135222Y-103858D01*
X135031Y-103515D02*
X135031Y-103287D01*
X135431Y-103401D02*
X135031Y-103401D01*
X135431Y-102944D02*
X135431Y-103172D01*
X135431Y-103058D02*
X135031Y-103058D01*
X135089Y-103096D01*
X135127Y-103134D01*
X135146Y-103172D01*
X135031Y-102582D02*
X135031Y-102772D01*
X135222Y-102791D01*
X135203Y-102772D01*
X135184Y-102734D01*
X135184Y-102639D01*
X135203Y-102601D01*
X135222Y-102582D01*
X135260Y-102563D01*
X135355Y-102563D01*
X135393Y-102582D01*
X135412Y-102601D01*
X135431Y-102639D01*
X135431Y-102734D01*
X135412Y-102772D01*
X135393Y-102791D01*
X135431Y-102182D02*
X135431Y-102410D01*
X135431Y-102296D02*
X135031Y-102296D01*
X135089Y-102334D01*
X135127Y-102372D01*
X135146Y-102410D01*
G54D18*
X130791Y-127042D02*
X130791Y-126442D01*
X131020Y-126442D01*
X131077Y-126471D01*
X131105Y-126500D01*
X131134Y-126557D01*
X131134Y-126642D01*
X131105Y-126700D01*
X131077Y-126728D01*
X131020Y-126757D01*
X130791Y-126757D01*
X131334Y-126442D02*
X131705Y-126442D01*
X131505Y-126671D01*
X131591Y-126671D01*
X131648Y-126700D01*
X131677Y-126728D01*
X131705Y-126785D01*
X131705Y-126928D01*
X131677Y-126985D01*
X131648Y-127014D01*
X131591Y-127042D01*
X131420Y-127042D01*
X131362Y-127014D01*
X131334Y-126985D01*
X132248Y-126442D02*
X131962Y-126442D01*
X131934Y-126728D01*
X131962Y-126700D01*
X132020Y-126671D01*
X132162Y-126671D01*
X132220Y-126700D01*
X132248Y-126728D01*
X132277Y-126785D01*
X132277Y-126928D01*
X132248Y-126985D01*
X132220Y-127014D01*
X132162Y-127042D01*
X132020Y-127042D01*
X131962Y-127014D01*
X131934Y-126985D01*
X130720Y-122942D02*
X130720Y-122342D01*
X130720Y-122628D02*
X131062Y-122628D01*
X131062Y-122942D02*
X131062Y-122342D01*
X131462Y-122342D02*
X131577Y-122342D01*
X131634Y-122371D01*
X131691Y-122428D01*
X131720Y-122542D01*
X131720Y-122742D01*
X131691Y-122857D01*
X131634Y-122914D01*
X131577Y-122942D01*
X131462Y-122942D01*
X131405Y-122914D01*
X131348Y-122857D01*
X131320Y-122742D01*
X131320Y-122542D01*
X131348Y-122428D01*
X131405Y-122371D01*
X131462Y-122342D01*
X132262Y-122942D02*
X131977Y-122942D01*
X131977Y-122342D01*
X132462Y-122628D02*
X132662Y-122628D01*
X132748Y-122942D02*
X132462Y-122942D01*
X132462Y-122342D01*
X132748Y-122342D01*
X130711Y-132722D02*
X130711Y-132122D01*
X130940Y-132122D01*
X130997Y-132151D01*
X131025Y-132180D01*
X131054Y-132237D01*
X131054Y-132322D01*
X131025Y-132380D01*
X130997Y-132408D01*
X130940Y-132437D01*
X130711Y-132437D01*
X131568Y-132122D02*
X131454Y-132122D01*
X131397Y-132151D01*
X131368Y-132180D01*
X131311Y-132265D01*
X131282Y-132380D01*
X131282Y-132608D01*
X131311Y-132665D01*
X131340Y-132694D01*
X131397Y-132722D01*
X131511Y-132722D01*
X131568Y-132694D01*
X131597Y-132665D01*
X131625Y-132608D01*
X131625Y-132465D01*
X131597Y-132408D01*
X131568Y-132380D01*
X131511Y-132351D01*
X131397Y-132351D01*
X131340Y-132380D01*
X131311Y-132408D01*
X131282Y-132465D01*
X132168Y-132122D02*
X131882Y-132122D01*
X131854Y-132408D01*
X131882Y-132380D01*
X131940Y-132351D01*
X132082Y-132351D01*
X132140Y-132380D01*
X132168Y-132408D01*
X132197Y-132465D01*
X132197Y-132608D01*
X132168Y-132665D01*
X132140Y-132694D01*
X132082Y-132722D01*
X131940Y-132722D01*
X131882Y-132694D01*
X131854Y-132665D01*
X130640Y-128622D02*
X130640Y-128022D01*
X130640Y-128308D02*
X130982Y-128308D01*
X130982Y-128622D02*
X130982Y-128022D01*
X131382Y-128022D02*
X131497Y-128022D01*
X131554Y-128051D01*
X131611Y-128108D01*
X131640Y-128222D01*
X131640Y-128422D01*
X131611Y-128537D01*
X131554Y-128594D01*
X131497Y-128622D01*
X131382Y-128622D01*
X131325Y-128594D01*
X131268Y-128537D01*
X131240Y-128422D01*
X131240Y-128222D01*
X131268Y-128108D01*
X131325Y-128051D01*
X131382Y-128022D01*
X132182Y-128622D02*
X131897Y-128622D01*
X131897Y-128022D01*
X132382Y-128308D02*
X132582Y-128308D01*
X132668Y-128622D02*
X132382Y-128622D01*
X132382Y-128022D01*
X132668Y-128022D01*
X135921Y-132892D02*
X135921Y-132292D01*
X136150Y-132292D01*
X136207Y-132321D01*
X136235Y-132350D01*
X136264Y-132407D01*
X136264Y-132492D01*
X136235Y-132550D01*
X136207Y-132578D01*
X136150Y-132607D01*
X135921Y-132607D01*
X136778Y-132292D02*
X136664Y-132292D01*
X136607Y-132321D01*
X136578Y-132350D01*
X136521Y-132435D01*
X136492Y-132550D01*
X136492Y-132778D01*
X136521Y-132835D01*
X136550Y-132864D01*
X136607Y-132892D01*
X136721Y-132892D01*
X136778Y-132864D01*
X136807Y-132835D01*
X136835Y-132778D01*
X136835Y-132635D01*
X136807Y-132578D01*
X136778Y-132550D01*
X136721Y-132521D01*
X136607Y-132521D01*
X136550Y-132550D01*
X136521Y-132578D01*
X136492Y-132635D01*
X137350Y-132492D02*
X137350Y-132892D01*
X137207Y-132264D02*
X137064Y-132692D01*
X137435Y-132692D01*
X135850Y-128792D02*
X135850Y-128192D01*
X135850Y-128478D02*
X136192Y-128478D01*
X136192Y-128792D02*
X136192Y-128192D01*
X136592Y-128192D02*
X136707Y-128192D01*
X136764Y-128221D01*
X136821Y-128278D01*
X136850Y-128392D01*
X136850Y-128592D01*
X136821Y-128707D01*
X136764Y-128764D01*
X136707Y-128792D01*
X136592Y-128792D01*
X136535Y-128764D01*
X136478Y-128707D01*
X136450Y-128592D01*
X136450Y-128392D01*
X136478Y-128278D01*
X136535Y-128221D01*
X136592Y-128192D01*
X137392Y-128792D02*
X137107Y-128792D01*
X137107Y-128192D01*
X137592Y-128478D02*
X137792Y-128478D01*
X137878Y-128792D02*
X137592Y-128792D01*
X137592Y-128192D01*
X137878Y-128192D01*
X135821Y-127142D02*
X135821Y-126542D01*
X136050Y-126542D01*
X136107Y-126571D01*
X136135Y-126600D01*
X136164Y-126657D01*
X136164Y-126742D01*
X136135Y-126800D01*
X136107Y-126828D01*
X136050Y-126857D01*
X135821Y-126857D01*
X136678Y-126542D02*
X136564Y-126542D01*
X136507Y-126571D01*
X136478Y-126600D01*
X136421Y-126685D01*
X136392Y-126800D01*
X136392Y-127028D01*
X136421Y-127085D01*
X136450Y-127114D01*
X136507Y-127142D01*
X136621Y-127142D01*
X136678Y-127114D01*
X136707Y-127085D01*
X136735Y-127028D01*
X136735Y-126885D01*
X136707Y-126828D01*
X136678Y-126800D01*
X136621Y-126771D01*
X136507Y-126771D01*
X136450Y-126800D01*
X136421Y-126828D01*
X136392Y-126885D01*
X137078Y-126800D02*
X137021Y-126771D01*
X136992Y-126742D01*
X136964Y-126685D01*
X136964Y-126657D01*
X136992Y-126600D01*
X137021Y-126571D01*
X137078Y-126542D01*
X137192Y-126542D01*
X137250Y-126571D01*
X137278Y-126600D01*
X137307Y-126657D01*
X137307Y-126685D01*
X137278Y-126742D01*
X137250Y-126771D01*
X137192Y-126800D01*
X137078Y-126800D01*
X137021Y-126828D01*
X136992Y-126857D01*
X136964Y-126914D01*
X136964Y-127028D01*
X136992Y-127085D01*
X137021Y-127114D01*
X137078Y-127142D01*
X137192Y-127142D01*
X137250Y-127114D01*
X137278Y-127085D01*
X137307Y-127028D01*
X137307Y-126914D01*
X137278Y-126857D01*
X137250Y-126828D01*
X137192Y-126800D01*
X135750Y-123042D02*
X135750Y-122442D01*
X135750Y-122728D02*
X136092Y-122728D01*
X136092Y-123042D02*
X136092Y-122442D01*
X136492Y-122442D02*
X136607Y-122442D01*
X136664Y-122471D01*
X136721Y-122528D01*
X136750Y-122642D01*
X136750Y-122842D01*
X136721Y-122957D01*
X136664Y-123014D01*
X136607Y-123042D01*
X136492Y-123042D01*
X136435Y-123014D01*
X136378Y-122957D01*
X136350Y-122842D01*
X136350Y-122642D01*
X136378Y-122528D01*
X136435Y-122471D01*
X136492Y-122442D01*
X137292Y-123042D02*
X137007Y-123042D01*
X137007Y-122442D01*
X137492Y-122728D02*
X137692Y-122728D01*
X137778Y-123042D02*
X137492Y-123042D01*
X137492Y-122442D01*
X137778Y-122442D01*
X141371Y-132592D02*
X141371Y-131992D01*
X141600Y-131992D01*
X141657Y-132021D01*
X141685Y-132050D01*
X141714Y-132107D01*
X141714Y-132192D01*
X141685Y-132250D01*
X141657Y-132278D01*
X141600Y-132307D01*
X141371Y-132307D01*
X142228Y-131992D02*
X142114Y-131992D01*
X142057Y-132021D01*
X142028Y-132050D01*
X141971Y-132135D01*
X141942Y-132250D01*
X141942Y-132478D01*
X141971Y-132535D01*
X142000Y-132564D01*
X142057Y-132592D01*
X142171Y-132592D01*
X142228Y-132564D01*
X142257Y-132535D01*
X142285Y-132478D01*
X142285Y-132335D01*
X142257Y-132278D01*
X142228Y-132250D01*
X142171Y-132221D01*
X142057Y-132221D01*
X142000Y-132250D01*
X141971Y-132278D01*
X141942Y-132335D01*
X142485Y-131992D02*
X142885Y-131992D01*
X142628Y-132592D01*
X141300Y-128492D02*
X141300Y-127892D01*
X141300Y-128178D02*
X141642Y-128178D01*
X141642Y-128492D02*
X141642Y-127892D01*
X142042Y-127892D02*
X142157Y-127892D01*
X142214Y-127921D01*
X142271Y-127978D01*
X142300Y-128092D01*
X142300Y-128292D01*
X142271Y-128407D01*
X142214Y-128464D01*
X142157Y-128492D01*
X142042Y-128492D01*
X141985Y-128464D01*
X141928Y-128407D01*
X141900Y-128292D01*
X141900Y-128092D01*
X141928Y-127978D01*
X141985Y-127921D01*
X142042Y-127892D01*
X142842Y-128492D02*
X142557Y-128492D01*
X142557Y-127892D01*
X143042Y-128178D02*
X143242Y-128178D01*
X143328Y-128492D02*
X143042Y-128492D01*
X143042Y-127892D01*
X143328Y-127892D01*
X141571Y-127342D02*
X141571Y-126742D01*
X141800Y-126742D01*
X141857Y-126771D01*
X141885Y-126800D01*
X141914Y-126857D01*
X141914Y-126942D01*
X141885Y-127000D01*
X141857Y-127028D01*
X141800Y-127057D01*
X141571Y-127057D01*
X142428Y-126742D02*
X142314Y-126742D01*
X142257Y-126771D01*
X142228Y-126800D01*
X142171Y-126885D01*
X142142Y-127000D01*
X142142Y-127228D01*
X142171Y-127285D01*
X142200Y-127314D01*
X142257Y-127342D01*
X142371Y-127342D01*
X142428Y-127314D01*
X142457Y-127285D01*
X142485Y-127228D01*
X142485Y-127085D01*
X142457Y-127028D01*
X142428Y-127000D01*
X142371Y-126971D01*
X142257Y-126971D01*
X142200Y-127000D01*
X142171Y-127028D01*
X142142Y-127085D01*
X143000Y-126742D02*
X142885Y-126742D01*
X142828Y-126771D01*
X142800Y-126800D01*
X142742Y-126885D01*
X142714Y-127000D01*
X142714Y-127228D01*
X142742Y-127285D01*
X142771Y-127314D01*
X142828Y-127342D01*
X142942Y-127342D01*
X143000Y-127314D01*
X143028Y-127285D01*
X143057Y-127228D01*
X143057Y-127085D01*
X143028Y-127028D01*
X143000Y-127000D01*
X142942Y-126971D01*
X142828Y-126971D01*
X142771Y-127000D01*
X142742Y-127028D01*
X142714Y-127085D01*
X141500Y-123242D02*
X141500Y-122642D01*
X141500Y-122928D02*
X141842Y-122928D01*
X141842Y-123242D02*
X141842Y-122642D01*
X142242Y-122642D02*
X142357Y-122642D01*
X142414Y-122671D01*
X142471Y-122728D01*
X142500Y-122842D01*
X142500Y-123042D01*
X142471Y-123157D01*
X142414Y-123214D01*
X142357Y-123242D01*
X142242Y-123242D01*
X142185Y-123214D01*
X142128Y-123157D01*
X142100Y-123042D01*
X142100Y-122842D01*
X142128Y-122728D01*
X142185Y-122671D01*
X142242Y-122642D01*
X143042Y-123242D02*
X142757Y-123242D01*
X142757Y-122642D01*
X143242Y-122928D02*
X143442Y-122928D01*
X143528Y-123242D02*
X143242Y-123242D01*
X143242Y-122642D01*
X143528Y-122642D01*
G54D13*
X126172Y-87727D02*
X125672Y-87727D01*
X125672Y-87608D01*
X125696Y-87536D01*
X125743Y-87489D01*
X125791Y-87465D01*
X125886Y-87441D01*
X125958Y-87441D01*
X126053Y-87465D01*
X126100Y-87489D01*
X126148Y-87536D01*
X126172Y-87608D01*
X126172Y-87727D01*
X125720Y-87250D02*
X125696Y-87227D01*
X125672Y-87179D01*
X125672Y-87060D01*
X125696Y-87012D01*
X125720Y-86989D01*
X125767Y-86965D01*
X125815Y-86965D01*
X125886Y-86989D01*
X126172Y-87274D01*
X126172Y-86965D01*
X125672Y-86512D02*
X125672Y-86750D01*
X125910Y-86774D01*
X125886Y-86750D01*
X125862Y-86703D01*
X125862Y-86584D01*
X125886Y-86536D01*
X125910Y-86512D01*
X125958Y-86489D01*
X126077Y-86489D01*
X126124Y-86512D01*
X126148Y-86536D01*
X126172Y-86584D01*
X126172Y-86703D01*
X126148Y-86750D01*
X126124Y-86774D01*
X124252Y-88421D02*
X124252Y-88707D01*
X124252Y-88564D02*
X123752Y-88564D01*
X123823Y-88611D01*
X123871Y-88659D01*
X123895Y-88707D01*
X124252Y-88207D02*
X123752Y-88207D01*
X124252Y-87921D01*
X123752Y-87921D01*
X123919Y-87469D02*
X124252Y-87469D01*
X123728Y-87588D02*
X124085Y-87707D01*
X124085Y-87397D01*
X123752Y-87111D02*
X123752Y-87064D01*
X123776Y-87016D01*
X123800Y-86992D01*
X123847Y-86969D01*
X123942Y-86945D01*
X124061Y-86945D01*
X124157Y-86969D01*
X124204Y-86992D01*
X124228Y-87016D01*
X124252Y-87064D01*
X124252Y-87111D01*
X124228Y-87159D01*
X124204Y-87183D01*
X124157Y-87207D01*
X124061Y-87230D01*
X123942Y-87230D01*
X123847Y-87207D01*
X123800Y-87183D01*
X123776Y-87159D01*
X123752Y-87111D01*
X123752Y-86635D02*
X123752Y-86588D01*
X123776Y-86540D01*
X123800Y-86516D01*
X123847Y-86492D01*
X123942Y-86469D01*
X124061Y-86469D01*
X124157Y-86492D01*
X124204Y-86516D01*
X124228Y-86540D01*
X124252Y-86588D01*
X124252Y-86635D01*
X124228Y-86683D01*
X124204Y-86707D01*
X124157Y-86730D01*
X124061Y-86754D01*
X123942Y-86754D01*
X123847Y-86730D01*
X123800Y-86707D01*
X123776Y-86683D01*
X123752Y-86635D01*
X124252Y-85992D02*
X124252Y-86278D01*
X124252Y-86135D02*
X123752Y-86135D01*
X123823Y-86183D01*
X123871Y-86230D01*
X123895Y-86278D01*
G54D23*
X127742Y-90823D02*
X127723Y-90842D01*
X127666Y-90861D01*
X127628Y-90861D01*
X127571Y-90842D01*
X127533Y-90804D01*
X127514Y-90766D01*
X127495Y-90690D01*
X127495Y-90633D01*
X127514Y-90557D01*
X127533Y-90519D01*
X127571Y-90480D01*
X127628Y-90461D01*
X127666Y-90461D01*
X127723Y-90480D01*
X127742Y-90500D01*
X128085Y-90595D02*
X128085Y-90861D01*
X127990Y-90442D02*
X127895Y-90728D01*
X128142Y-90728D01*
X128314Y-90861D02*
X128390Y-90861D01*
X128428Y-90842D01*
X128447Y-90823D01*
X128485Y-90766D01*
X128504Y-90690D01*
X128504Y-90538D01*
X128485Y-90500D01*
X128466Y-90480D01*
X128428Y-90461D01*
X128352Y-90461D01*
X128314Y-90480D01*
X128295Y-90500D01*
X128276Y-90538D01*
X128276Y-90633D01*
X128295Y-90671D01*
X128314Y-90690D01*
X128352Y-90709D01*
X128428Y-90709D01*
X128466Y-90690D01*
X128485Y-90671D01*
X128504Y-90633D01*
X127692Y-88073D02*
X127673Y-88092D01*
X127616Y-88111D01*
X127578Y-88111D01*
X127521Y-88092D01*
X127483Y-88054D01*
X127464Y-88016D01*
X127445Y-87940D01*
X127445Y-87883D01*
X127464Y-87807D01*
X127483Y-87769D01*
X127521Y-87730D01*
X127578Y-87711D01*
X127616Y-87711D01*
X127673Y-87730D01*
X127692Y-87750D01*
X128054Y-87711D02*
X127864Y-87711D01*
X127845Y-87902D01*
X127864Y-87883D01*
X127902Y-87864D01*
X127997Y-87864D01*
X128035Y-87883D01*
X128054Y-87902D01*
X128073Y-87940D01*
X128073Y-88035D01*
X128054Y-88073D01*
X128035Y-88092D01*
X127997Y-88111D01*
X127902Y-88111D01*
X127864Y-88092D01*
X127845Y-88073D01*
X128454Y-88111D02*
X128226Y-88111D01*
X128340Y-88111D02*
X128340Y-87711D01*
X128302Y-87769D01*
X128264Y-87807D01*
X128226Y-87826D01*
G54D13*
X139920Y-111272D02*
X139920Y-110772D01*
X140040Y-110772D01*
X140111Y-110796D01*
X140159Y-110843D01*
X140182Y-110891D01*
X140206Y-110986D01*
X140206Y-111058D01*
X140182Y-111153D01*
X140159Y-111200D01*
X140111Y-111248D01*
X140040Y-111272D01*
X139920Y-111272D01*
X140373Y-110772D02*
X140682Y-110772D01*
X140516Y-110962D01*
X140587Y-110962D01*
X140635Y-110986D01*
X140659Y-111010D01*
X140682Y-111058D01*
X140682Y-111177D01*
X140659Y-111224D01*
X140635Y-111248D01*
X140587Y-111272D01*
X140444Y-111272D01*
X140397Y-111248D01*
X140373Y-111224D01*
X139448Y-113192D02*
X139162Y-113192D01*
X139305Y-113192D02*
X139305Y-112692D01*
X139258Y-112763D01*
X139210Y-112811D01*
X139162Y-112835D01*
X139662Y-113192D02*
X139662Y-112692D01*
X139948Y-113192D01*
X139948Y-112692D01*
X140400Y-112859D02*
X140400Y-113192D01*
X140281Y-112668D02*
X140162Y-113025D01*
X140472Y-113025D01*
X140758Y-112692D02*
X140805Y-112692D01*
X140853Y-112716D01*
X140877Y-112740D01*
X140900Y-112787D01*
X140924Y-112882D01*
X140924Y-113001D01*
X140900Y-113097D01*
X140877Y-113144D01*
X140853Y-113168D01*
X140805Y-113192D01*
X140758Y-113192D01*
X140710Y-113168D01*
X140686Y-113144D01*
X140662Y-113097D01*
X140639Y-113001D01*
X140639Y-112882D01*
X140662Y-112787D01*
X140686Y-112740D01*
X140710Y-112716D01*
X140758Y-112692D01*
X141234Y-112692D02*
X141281Y-112692D01*
X141329Y-112716D01*
X141353Y-112740D01*
X141377Y-112787D01*
X141400Y-112882D01*
X141400Y-113001D01*
X141377Y-113097D01*
X141353Y-113144D01*
X141329Y-113168D01*
X141281Y-113192D01*
X141234Y-113192D01*
X141186Y-113168D01*
X141162Y-113144D01*
X141139Y-113097D01*
X141115Y-113001D01*
X141115Y-112882D01*
X141139Y-112787D01*
X141162Y-112740D01*
X141186Y-112716D01*
X141234Y-112692D01*
X141829Y-112859D02*
X141829Y-113192D01*
X141710Y-112668D02*
X141591Y-113025D01*
X141900Y-113025D01*
G54D23*
X140813Y-108903D02*
X140794Y-108922D01*
X140737Y-108941D01*
X140699Y-108941D01*
X140641Y-108922D01*
X140603Y-108884D01*
X140584Y-108846D01*
X140565Y-108770D01*
X140565Y-108713D01*
X140584Y-108637D01*
X140603Y-108599D01*
X140641Y-108560D01*
X140699Y-108541D01*
X140737Y-108541D01*
X140794Y-108560D01*
X140813Y-108580D01*
X140946Y-108541D02*
X141194Y-108541D01*
X141060Y-108694D01*
X141118Y-108694D01*
X141156Y-108713D01*
X141175Y-108732D01*
X141194Y-108770D01*
X141194Y-108865D01*
X141175Y-108903D01*
X141156Y-108922D01*
X141118Y-108941D01*
X141003Y-108941D01*
X140965Y-108922D01*
X140946Y-108903D01*
G54D18*
X142351Y-108794D02*
X142808Y-108794D01*
X142580Y-109022D02*
X142580Y-108565D01*
G54D23*
X138823Y-108726D02*
X138842Y-108745D01*
X138861Y-108802D01*
X138861Y-108840D01*
X138842Y-108898D01*
X138804Y-108936D01*
X138766Y-108955D01*
X138690Y-108974D01*
X138633Y-108974D01*
X138557Y-108955D01*
X138519Y-108936D01*
X138480Y-108898D01*
X138461Y-108840D01*
X138461Y-108802D01*
X138480Y-108745D01*
X138500Y-108726D01*
X138861Y-108345D02*
X138861Y-108574D01*
X138861Y-108459D02*
X138461Y-108459D01*
X138519Y-108498D01*
X138557Y-108536D01*
X138576Y-108574D01*
G54D18*
X138714Y-110588D02*
X138714Y-110131D01*
X138942Y-110359D02*
X138485Y-110359D01*
G54D23*
X140813Y-109863D02*
X140794Y-109882D01*
X140737Y-109901D01*
X140699Y-109901D01*
X140641Y-109882D01*
X140603Y-109844D01*
X140584Y-109806D01*
X140565Y-109730D01*
X140565Y-109673D01*
X140584Y-109597D01*
X140603Y-109559D01*
X140641Y-109520D01*
X140699Y-109501D01*
X140737Y-109501D01*
X140794Y-109520D01*
X140813Y-109540D01*
X140965Y-109540D02*
X140984Y-109520D01*
X141022Y-109501D01*
X141118Y-109501D01*
X141156Y-109520D01*
X141175Y-109540D01*
X141194Y-109578D01*
X141194Y-109616D01*
X141175Y-109673D01*
X140946Y-109901D01*
X141194Y-109901D01*
G54D18*
X142351Y-109754D02*
X142808Y-109754D01*
X142580Y-109982D02*
X142580Y-109525D01*
G54D23*
X120742Y-90632D02*
X120742Y-91037D01*
X120764Y-91084D01*
X120785Y-91108D01*
X120828Y-91132D01*
X120914Y-91132D01*
X120957Y-91108D01*
X120978Y-91084D01*
X121000Y-91037D01*
X121000Y-90632D01*
X121171Y-90632D02*
X121450Y-90632D01*
X121300Y-90822D01*
X121364Y-90822D01*
X121407Y-90846D01*
X121428Y-90870D01*
X121450Y-90918D01*
X121450Y-91037D01*
X121428Y-91084D01*
X121407Y-91108D01*
X121364Y-91132D01*
X121235Y-91132D01*
X121192Y-91108D01*
X121171Y-91084D01*
X121857Y-90632D02*
X121642Y-90632D01*
X121621Y-90870D01*
X121642Y-90846D01*
X121685Y-90822D01*
X121792Y-90822D01*
X121835Y-90846D01*
X121857Y-90870D01*
X121878Y-90918D01*
X121878Y-91037D01*
X121857Y-91084D01*
X121835Y-91108D01*
X121792Y-91132D01*
X121685Y-91132D01*
X121642Y-91108D01*
X121621Y-91084D01*
X121502Y-89715D02*
X121002Y-89715D01*
X121359Y-89582D01*
X121002Y-89449D01*
X121502Y-89449D01*
X121454Y-89030D02*
X121478Y-89049D01*
X121502Y-89106D01*
X121502Y-89144D01*
X121478Y-89201D01*
X121430Y-89239D01*
X121383Y-89258D01*
X121288Y-89277D01*
X121216Y-89277D01*
X121121Y-89258D01*
X121073Y-89239D01*
X121026Y-89201D01*
X121002Y-89144D01*
X121002Y-89106D01*
X121026Y-89049D01*
X121050Y-89030D01*
X121002Y-88896D02*
X121002Y-88649D01*
X121192Y-88782D01*
X121192Y-88725D01*
X121216Y-88687D01*
X121240Y-88668D01*
X121288Y-88649D01*
X121407Y-88649D01*
X121454Y-88668D01*
X121478Y-88687D01*
X121502Y-88725D01*
X121502Y-88839D01*
X121478Y-88877D01*
X121454Y-88896D01*
X121169Y-88306D02*
X121502Y-88306D01*
X120978Y-88401D02*
X121335Y-88496D01*
X121335Y-88249D01*
X121002Y-88020D02*
X121002Y-87982D01*
X121026Y-87944D01*
X121050Y-87925D01*
X121097Y-87906D01*
X121192Y-87887D01*
X121311Y-87887D01*
X121407Y-87906D01*
X121454Y-87925D01*
X121478Y-87944D01*
X121502Y-87982D01*
X121502Y-88020D01*
X121478Y-88058D01*
X121454Y-88077D01*
X121407Y-88096D01*
X121311Y-88115D01*
X121192Y-88115D01*
X121097Y-88096D01*
X121050Y-88077D01*
X121026Y-88058D01*
X121002Y-88020D01*
X121002Y-87753D02*
X121002Y-87487D01*
X121502Y-87658D01*
X121050Y-87353D02*
X121026Y-87334D01*
X121002Y-87296D01*
X121002Y-87201D01*
X121026Y-87163D01*
X121050Y-87144D01*
X121097Y-87125D01*
X121145Y-87125D01*
X121216Y-87144D01*
X121502Y-87372D01*
X121502Y-87125D01*
X140365Y-107401D02*
X140594Y-107401D01*
X140480Y-107801D02*
X140480Y-107401D01*
X140727Y-107801D02*
X140727Y-107401D01*
X140727Y-107592D02*
X140956Y-107592D01*
X140956Y-107801D02*
X140956Y-107401D01*
X141356Y-107801D02*
X141127Y-107801D01*
X141241Y-107801D02*
X141241Y-107401D01*
X141203Y-107459D01*
X141165Y-107497D01*
X141127Y-107516D01*
G54D18*
X142351Y-107654D02*
X142808Y-107654D01*
X142580Y-107882D02*
X142580Y-107425D01*
G54D13*
X145120Y-104792D02*
X145120Y-104292D01*
X145240Y-104292D01*
X145311Y-104316D01*
X145359Y-104363D01*
X145382Y-104411D01*
X145406Y-104506D01*
X145406Y-104578D01*
X145382Y-104673D01*
X145359Y-104720D01*
X145311Y-104768D01*
X145240Y-104792D01*
X145120Y-104792D01*
X145835Y-104459D02*
X145835Y-104792D01*
X145716Y-104268D02*
X145597Y-104625D01*
X145906Y-104625D01*
X144188Y-102872D02*
X143902Y-102872D01*
X144045Y-102872D02*
X144045Y-102372D01*
X143998Y-102443D01*
X143950Y-102491D01*
X143902Y-102515D01*
X144402Y-102872D02*
X144402Y-102372D01*
X144688Y-102872D01*
X144688Y-102372D01*
X145164Y-102372D02*
X144926Y-102372D01*
X144902Y-102610D01*
X144926Y-102586D01*
X144974Y-102562D01*
X145093Y-102562D01*
X145140Y-102586D01*
X145164Y-102610D01*
X145188Y-102658D01*
X145188Y-102777D01*
X145164Y-102824D01*
X145140Y-102848D01*
X145093Y-102872D01*
X144974Y-102872D01*
X144926Y-102848D01*
X144902Y-102824D01*
X145617Y-102539D02*
X145617Y-102872D01*
X145498Y-102348D02*
X145379Y-102705D01*
X145688Y-102705D01*
X145974Y-102372D02*
X146021Y-102372D01*
X146069Y-102396D01*
X146093Y-102420D01*
X146117Y-102467D01*
X146140Y-102562D01*
X146140Y-102681D01*
X146117Y-102777D01*
X146093Y-102824D01*
X146069Y-102848D01*
X146021Y-102872D01*
X145974Y-102872D01*
X145926Y-102848D01*
X145902Y-102824D01*
X145879Y-102777D01*
X145855Y-102681D01*
X145855Y-102562D01*
X145879Y-102467D01*
X145902Y-102420D01*
X145926Y-102396D01*
X145974Y-102372D01*
X146426Y-102586D02*
X146379Y-102562D01*
X146355Y-102539D01*
X146331Y-102491D01*
X146331Y-102467D01*
X146355Y-102420D01*
X146379Y-102396D01*
X146426Y-102372D01*
X146521Y-102372D01*
X146569Y-102396D01*
X146593Y-102420D01*
X146617Y-102467D01*
X146617Y-102491D01*
X146593Y-102539D01*
X146569Y-102562D01*
X146521Y-102586D01*
X146426Y-102586D01*
X146379Y-102610D01*
X146355Y-102634D01*
X146331Y-102681D01*
X146331Y-102777D01*
X146355Y-102824D01*
X146379Y-102848D01*
X146426Y-102872D01*
X146521Y-102872D01*
X146569Y-102848D01*
X146593Y-102824D01*
X146617Y-102777D01*
X146617Y-102681D01*
X146593Y-102634D01*
X146569Y-102610D01*
X146521Y-102586D01*
X145670Y-101612D02*
X145670Y-101112D01*
X145790Y-101112D01*
X145861Y-101136D01*
X145909Y-101183D01*
X145932Y-101231D01*
X145956Y-101326D01*
X145956Y-101398D01*
X145932Y-101493D01*
X145909Y-101540D01*
X145861Y-101588D01*
X145790Y-101612D01*
X145670Y-101612D01*
X146147Y-101160D02*
X146170Y-101136D01*
X146218Y-101112D01*
X146337Y-101112D01*
X146385Y-101136D01*
X146409Y-101160D01*
X146432Y-101207D01*
X146432Y-101255D01*
X146409Y-101326D01*
X146123Y-101612D01*
X146432Y-101612D01*
X145198Y-103532D02*
X144912Y-103532D01*
X145055Y-103532D02*
X145055Y-103032D01*
X145008Y-103103D01*
X144960Y-103151D01*
X144912Y-103175D01*
X145412Y-103532D02*
X145412Y-103032D01*
X145698Y-103532D01*
X145698Y-103032D01*
X146174Y-103032D02*
X145936Y-103032D01*
X145912Y-103270D01*
X145936Y-103246D01*
X145984Y-103222D01*
X146103Y-103222D01*
X146150Y-103246D01*
X146174Y-103270D01*
X146198Y-103318D01*
X146198Y-103437D01*
X146174Y-103484D01*
X146150Y-103508D01*
X146103Y-103532D01*
X145984Y-103532D01*
X145936Y-103508D01*
X145912Y-103484D01*
X146627Y-103199D02*
X146627Y-103532D01*
X146508Y-103008D02*
X146389Y-103365D01*
X146698Y-103365D01*
X146984Y-103032D02*
X147031Y-103032D01*
X147079Y-103056D01*
X147103Y-103080D01*
X147127Y-103127D01*
X147150Y-103222D01*
X147150Y-103341D01*
X147127Y-103437D01*
X147103Y-103484D01*
X147079Y-103508D01*
X147031Y-103532D01*
X146984Y-103532D01*
X146936Y-103508D01*
X146912Y-103484D01*
X146889Y-103437D01*
X146865Y-103341D01*
X146865Y-103222D01*
X146889Y-103127D01*
X146912Y-103080D01*
X146936Y-103056D01*
X146984Y-103032D01*
X147436Y-103246D02*
X147389Y-103222D01*
X147365Y-103199D01*
X147341Y-103151D01*
X147341Y-103127D01*
X147365Y-103080D01*
X147389Y-103056D01*
X147436Y-103032D01*
X147531Y-103032D01*
X147579Y-103056D01*
X147603Y-103080D01*
X147627Y-103127D01*
X147627Y-103151D01*
X147603Y-103199D01*
X147579Y-103222D01*
X147531Y-103246D01*
X147436Y-103246D01*
X147389Y-103270D01*
X147365Y-103294D01*
X147341Y-103341D01*
X147341Y-103437D01*
X147365Y-103484D01*
X147389Y-103508D01*
X147436Y-103532D01*
X147531Y-103532D01*
X147579Y-103508D01*
X147603Y-103484D01*
X147627Y-103437D01*
X147627Y-103341D01*
X147603Y-103294D01*
X147579Y-103270D01*
X147531Y-103246D01*
X145665Y-100442D02*
X145665Y-99942D01*
X145785Y-99942D01*
X145856Y-99966D01*
X145904Y-100013D01*
X145927Y-100061D01*
X145951Y-100156D01*
X145951Y-100228D01*
X145927Y-100323D01*
X145904Y-100370D01*
X145856Y-100418D01*
X145785Y-100442D01*
X145665Y-100442D01*
X146427Y-100442D02*
X146142Y-100442D01*
X146285Y-100442D02*
X146285Y-99942D01*
X146237Y-100013D01*
X146189Y-100061D01*
X146142Y-100085D01*
X145193Y-102362D02*
X144907Y-102362D01*
X145050Y-102362D02*
X145050Y-101862D01*
X145003Y-101933D01*
X144955Y-101981D01*
X144907Y-102005D01*
X145407Y-102362D02*
X145407Y-101862D01*
X145693Y-102362D01*
X145693Y-101862D01*
X146169Y-101862D02*
X145931Y-101862D01*
X145907Y-102100D01*
X145931Y-102076D01*
X145979Y-102052D01*
X146098Y-102052D01*
X146145Y-102076D01*
X146169Y-102100D01*
X146193Y-102148D01*
X146193Y-102267D01*
X146169Y-102314D01*
X146145Y-102338D01*
X146098Y-102362D01*
X145979Y-102362D01*
X145931Y-102338D01*
X145907Y-102314D01*
X146622Y-102029D02*
X146622Y-102362D01*
X146503Y-101838D02*
X146384Y-102195D01*
X146693Y-102195D01*
X146979Y-101862D02*
X147026Y-101862D01*
X147074Y-101886D01*
X147098Y-101910D01*
X147122Y-101957D01*
X147145Y-102052D01*
X147145Y-102171D01*
X147122Y-102267D01*
X147098Y-102314D01*
X147074Y-102338D01*
X147026Y-102362D01*
X146979Y-102362D01*
X146931Y-102338D01*
X146907Y-102314D01*
X146884Y-102267D01*
X146860Y-102171D01*
X146860Y-102052D01*
X146884Y-101957D01*
X146907Y-101910D01*
X146931Y-101886D01*
X146979Y-101862D01*
X147431Y-102076D02*
X147384Y-102052D01*
X147360Y-102029D01*
X147336Y-101981D01*
X147336Y-101957D01*
X147360Y-101910D01*
X147384Y-101886D01*
X147431Y-101862D01*
X147526Y-101862D01*
X147574Y-101886D01*
X147598Y-101910D01*
X147622Y-101957D01*
X147622Y-101981D01*
X147598Y-102029D01*
X147574Y-102052D01*
X147526Y-102076D01*
X147431Y-102076D01*
X147384Y-102100D01*
X147360Y-102124D01*
X147336Y-102171D01*
X147336Y-102267D01*
X147360Y-102314D01*
X147384Y-102338D01*
X147431Y-102362D01*
X147526Y-102362D01*
X147574Y-102338D01*
X147598Y-102314D01*
X147622Y-102267D01*
X147622Y-102171D01*
X147598Y-102124D01*
X147574Y-102100D01*
X147526Y-102076D01*
G54D30*
X124570Y-104899D02*
X124556Y-104914D01*
X124516Y-104929D01*
X124490Y-104929D01*
X124450Y-104914D01*
X124423Y-104883D01*
X124410Y-104853D01*
X124396Y-104792D01*
X124396Y-104746D01*
X124410Y-104685D01*
X124423Y-104655D01*
X124450Y-104624D01*
X124490Y-104609D01*
X124516Y-104609D01*
X124556Y-104624D01*
X124570Y-104640D01*
X124836Y-104929D02*
X124676Y-104929D01*
X124756Y-104929D02*
X124756Y-104609D01*
X124730Y-104655D01*
X124703Y-104685D01*
X124676Y-104700D01*
X124943Y-104640D02*
X124956Y-104624D01*
X124983Y-104609D01*
X125050Y-104609D01*
X125076Y-104624D01*
X125090Y-104640D01*
X125103Y-104670D01*
X125103Y-104700D01*
X125090Y-104746D01*
X124930Y-104929D01*
X125103Y-104929D01*
G54D23*
G54D30*
X125620Y-104899D02*
X125606Y-104914D01*
X125566Y-104929D01*
X125540Y-104929D01*
X125500Y-104914D01*
X125473Y-104883D01*
X125460Y-104853D01*
X125446Y-104792D01*
X125446Y-104746D01*
X125460Y-104685D01*
X125473Y-104655D01*
X125500Y-104624D01*
X125540Y-104609D01*
X125566Y-104609D01*
X125606Y-104624D01*
X125620Y-104640D01*
X125886Y-104929D02*
X125726Y-104929D01*
X125806Y-104929D02*
X125806Y-104609D01*
X125780Y-104655D01*
X125753Y-104685D01*
X125726Y-104700D01*
X126126Y-104716D02*
X126126Y-104929D01*
X126060Y-104594D02*
X125993Y-104822D01*
X126166Y-104822D01*
G54D23*
G54D30*
X128914Y-109575D02*
X128929Y-109588D01*
X128944Y-109628D01*
X128944Y-109655D01*
X128929Y-109695D01*
X128898Y-109721D01*
X128868Y-109735D01*
X128807Y-109748D01*
X128761Y-109748D01*
X128700Y-109735D01*
X128670Y-109721D01*
X128639Y-109695D01*
X128624Y-109655D01*
X128624Y-109628D01*
X128639Y-109588D01*
X128655Y-109575D01*
X128944Y-109308D02*
X128944Y-109468D01*
X128944Y-109388D02*
X128624Y-109388D01*
X128670Y-109415D01*
X128700Y-109441D01*
X128715Y-109468D01*
X128624Y-109135D02*
X128624Y-109108D01*
X128639Y-109081D01*
X128655Y-109068D01*
X128685Y-109055D01*
X128746Y-109041D01*
X128822Y-109041D01*
X128883Y-109055D01*
X128914Y-109068D01*
X128929Y-109081D01*
X128944Y-109108D01*
X128944Y-109135D01*
X128929Y-109161D01*
X128914Y-109175D01*
X128883Y-109188D01*
X128822Y-109201D01*
X128746Y-109201D01*
X128685Y-109188D01*
X128655Y-109175D01*
X128639Y-109161D01*
X128624Y-109135D01*
G54D23*
G54D30*
X128919Y-112116D02*
X128934Y-112129D01*
X128949Y-112169D01*
X128949Y-112196D01*
X128934Y-112236D01*
X128903Y-112263D01*
X128873Y-112276D01*
X128812Y-112289D01*
X128766Y-112289D01*
X128705Y-112276D01*
X128675Y-112263D01*
X128644Y-112236D01*
X128629Y-112196D01*
X128629Y-112169D01*
X128644Y-112129D01*
X128660Y-112116D01*
X128629Y-111876D02*
X128629Y-111929D01*
X128644Y-111956D01*
X128660Y-111969D01*
X128705Y-111996D01*
X128766Y-112009D01*
X128888Y-112009D01*
X128919Y-111996D01*
X128934Y-111983D01*
X128949Y-111956D01*
X128949Y-111903D01*
X128934Y-111876D01*
X128919Y-111863D01*
X128888Y-111849D01*
X128812Y-111849D01*
X128781Y-111863D01*
X128766Y-111876D01*
X128751Y-111903D01*
X128751Y-111956D01*
X128766Y-111983D01*
X128781Y-111996D01*
X128812Y-112009D01*
G54D23*
G54D30*
X128919Y-110791D02*
X128934Y-110804D01*
X128949Y-110844D01*
X128949Y-110871D01*
X128934Y-110911D01*
X128903Y-110938D01*
X128873Y-110951D01*
X128812Y-110964D01*
X128766Y-110964D01*
X128705Y-110951D01*
X128675Y-110938D01*
X128644Y-110911D01*
X128629Y-110871D01*
X128629Y-110844D01*
X128644Y-110804D01*
X128660Y-110791D01*
X128766Y-110631D02*
X128751Y-110658D01*
X128736Y-110671D01*
X128705Y-110684D01*
X128690Y-110684D01*
X128660Y-110671D01*
X128644Y-110658D01*
X128629Y-110631D01*
X128629Y-110578D01*
X128644Y-110551D01*
X128660Y-110538D01*
X128690Y-110524D01*
X128705Y-110524D01*
X128736Y-110538D01*
X128751Y-110551D01*
X128766Y-110578D01*
X128766Y-110631D01*
X128781Y-110658D01*
X128797Y-110671D01*
X128827Y-110684D01*
X128888Y-110684D01*
X128919Y-110671D01*
X128934Y-110658D01*
X128949Y-110631D01*
X128949Y-110578D01*
X128934Y-110551D01*
X128919Y-110538D01*
X128888Y-110524D01*
X128827Y-110524D01*
X128797Y-110538D01*
X128781Y-110551D01*
X128766Y-110578D01*
G54D23*
X134728Y-87072D02*
X134561Y-86810D01*
X134442Y-87072D02*
X134442Y-86522D01*
X134633Y-86522D01*
X134680Y-86548D01*
X134704Y-86575D01*
X134728Y-86627D01*
X134728Y-86705D01*
X134704Y-86758D01*
X134680Y-86784D01*
X134633Y-86810D01*
X134442Y-86810D01*
X135204Y-87072D02*
X134919Y-87072D01*
X135061Y-87072D02*
X135061Y-86522D01*
X135014Y-86601D01*
X134966Y-86653D01*
X134919Y-86679D01*
X135371Y-86522D02*
X135704Y-86522D01*
X135490Y-87072D01*
X137122Y-97921D02*
X136860Y-98088D01*
X137122Y-98207D02*
X136572Y-98207D01*
X136572Y-98016D01*
X136598Y-97969D01*
X136625Y-97945D01*
X136677Y-97921D01*
X136755Y-97921D01*
X136808Y-97945D01*
X136834Y-97969D01*
X136860Y-98016D01*
X136860Y-98207D01*
X136625Y-97730D02*
X136598Y-97707D01*
X136572Y-97659D01*
X136572Y-97540D01*
X136598Y-97492D01*
X136625Y-97469D01*
X136677Y-97445D01*
X136729Y-97445D01*
X136808Y-97469D01*
X137122Y-97754D01*
X137122Y-97445D01*
X136572Y-97135D02*
X136572Y-97088D01*
X136598Y-97040D01*
X136625Y-97016D01*
X136677Y-96992D01*
X136782Y-96969D01*
X136913Y-96969D01*
X137017Y-96992D01*
X137070Y-97016D01*
X137096Y-97040D01*
X137122Y-97088D01*
X137122Y-97135D01*
X137096Y-97183D01*
X137070Y-97207D01*
X137017Y-97230D01*
X136913Y-97254D01*
X136782Y-97254D01*
X136677Y-97230D01*
X136625Y-97207D01*
X136598Y-97183D01*
X136572Y-97135D01*
X139478Y-95822D02*
X139311Y-95560D01*
X139192Y-95822D02*
X139192Y-95272D01*
X139383Y-95272D01*
X139430Y-95298D01*
X139454Y-95325D01*
X139478Y-95377D01*
X139478Y-95455D01*
X139454Y-95508D01*
X139430Y-95534D01*
X139383Y-95560D01*
X139192Y-95560D01*
X139954Y-95822D02*
X139669Y-95822D01*
X139811Y-95822D02*
X139811Y-95272D01*
X139764Y-95351D01*
X139716Y-95403D01*
X139669Y-95429D01*
X140192Y-95822D02*
X140288Y-95822D01*
X140335Y-95796D01*
X140359Y-95770D01*
X140407Y-95691D01*
X140430Y-95586D01*
X140430Y-95377D01*
X140407Y-95325D01*
X140383Y-95298D01*
X140335Y-95272D01*
X140240Y-95272D01*
X140192Y-95298D01*
X140169Y-95325D01*
X140145Y-95377D01*
X140145Y-95508D01*
X140169Y-95560D01*
X140192Y-95586D01*
X140240Y-95613D01*
X140335Y-95613D01*
X140383Y-95586D01*
X140407Y-95560D01*
X140430Y-95508D01*
X134728Y-88022D02*
X134561Y-87760D01*
X134442Y-88022D02*
X134442Y-87472D01*
X134633Y-87472D01*
X134680Y-87498D01*
X134704Y-87525D01*
X134728Y-87577D01*
X134728Y-87655D01*
X134704Y-87708D01*
X134680Y-87734D01*
X134633Y-87760D01*
X134442Y-87760D01*
X135204Y-88022D02*
X134919Y-88022D01*
X135061Y-88022D02*
X135061Y-87472D01*
X135014Y-87551D01*
X134966Y-87603D01*
X134919Y-87629D01*
X135490Y-87708D02*
X135442Y-87682D01*
X135419Y-87655D01*
X135395Y-87603D01*
X135395Y-87577D01*
X135419Y-87525D01*
X135442Y-87498D01*
X135490Y-87472D01*
X135585Y-87472D01*
X135633Y-87498D01*
X135657Y-87525D01*
X135680Y-87577D01*
X135680Y-87603D01*
X135657Y-87655D01*
X135633Y-87682D01*
X135585Y-87708D01*
X135490Y-87708D01*
X135442Y-87734D01*
X135419Y-87760D01*
X135395Y-87813D01*
X135395Y-87917D01*
X135419Y-87970D01*
X135442Y-87996D01*
X135490Y-88022D01*
X135585Y-88022D01*
X135633Y-87996D01*
X135657Y-87970D01*
X135680Y-87917D01*
X135680Y-87813D01*
X135657Y-87760D01*
X135633Y-87734D01*
X135585Y-87708D01*
X132302Y-90592D02*
X132707Y-90592D01*
X132754Y-90571D01*
X132778Y-90550D01*
X132802Y-90507D01*
X132802Y-90421D01*
X132778Y-90378D01*
X132754Y-90357D01*
X132707Y-90335D01*
X132302Y-90335D01*
X132302Y-90164D02*
X132302Y-89864D01*
X132802Y-90057D01*
X133738Y-90000D02*
X133814Y-89928D01*
X133890Y-90000D01*
X133966Y-90000D02*
X134042Y-89928D01*
X134119Y-90000D01*
X134442Y-90452D02*
X134252Y-90452D01*
X134252Y-89952D01*
X134576Y-90452D02*
X134576Y-89952D01*
X134709Y-90309D01*
X134842Y-89952D01*
X134842Y-90452D01*
X135223Y-89952D02*
X135033Y-89952D01*
X135014Y-90190D01*
X135033Y-90166D01*
X135071Y-90142D01*
X135166Y-90142D01*
X135204Y-90166D01*
X135223Y-90190D01*
X135242Y-90238D01*
X135242Y-90357D01*
X135223Y-90404D01*
X135204Y-90428D01*
X135166Y-90452D01*
X135071Y-90452D01*
X135033Y-90428D01*
X135014Y-90404D01*
X135604Y-89952D02*
X135414Y-89952D01*
X135395Y-90190D01*
X135414Y-90166D01*
X135452Y-90142D01*
X135547Y-90142D01*
X135585Y-90166D01*
X135604Y-90190D01*
X135623Y-90238D01*
X135623Y-90357D01*
X135604Y-90404D01*
X135585Y-90428D01*
X135547Y-90452D01*
X135452Y-90452D01*
X135414Y-90428D01*
X135395Y-90404D01*
X135985Y-89952D02*
X135795Y-89952D01*
X135776Y-90190D01*
X135795Y-90166D01*
X135833Y-90142D01*
X135928Y-90142D01*
X135966Y-90166D01*
X135985Y-90190D01*
X136004Y-90238D01*
X136004Y-90357D01*
X135985Y-90404D01*
X135966Y-90428D01*
X135928Y-90452D01*
X135833Y-90452D01*
X135795Y-90428D01*
X135776Y-90404D01*
X136176Y-90452D02*
X136176Y-89952D01*
X136404Y-90452D01*
X136404Y-89952D01*
G54D31*
X131172Y-96840D02*
X131314Y-97545D01*
X131455Y-96840D01*
X131839Y-97545D02*
X131697Y-97209D01*
X131596Y-97545D02*
X131596Y-96840D01*
X131758Y-96840D01*
X131798Y-96873D01*
X131818Y-96907D01*
X131839Y-96974D01*
X131839Y-97075D01*
X131818Y-97142D01*
X131798Y-97176D01*
X131758Y-97209D01*
X131596Y-97209D01*
X132242Y-97545D02*
X132000Y-97545D01*
X132121Y-97545D02*
X132121Y-96840D01*
X132081Y-96941D01*
X132040Y-97008D01*
X132000Y-97041D01*
G54D18*
X142442Y-97192D02*
X142442Y-96592D01*
X142785Y-97192D02*
X142528Y-96850D01*
X142785Y-96592D02*
X142442Y-96935D01*
X139907Y-97021D02*
X140192Y-97021D01*
X139850Y-97192D02*
X140050Y-96592D01*
X140250Y-97192D01*
G54D13*
X126441Y-113227D02*
X126275Y-112989D01*
X126155Y-113227D02*
X126155Y-112727D01*
X126346Y-112727D01*
X126394Y-112751D01*
X126417Y-112775D01*
X126441Y-112822D01*
X126441Y-112894D01*
X126417Y-112941D01*
X126394Y-112965D01*
X126346Y-112989D01*
X126155Y-112989D01*
X126679Y-113227D02*
X126775Y-113227D01*
X126822Y-113203D01*
X126846Y-113179D01*
X126894Y-113108D01*
X126917Y-113013D01*
X126917Y-112822D01*
X126894Y-112775D01*
X126870Y-112751D01*
X126822Y-112727D01*
X126727Y-112727D01*
X126679Y-112751D01*
X126655Y-112775D01*
X126632Y-112822D01*
X126632Y-112941D01*
X126655Y-112989D01*
X126679Y-113013D01*
X126727Y-113036D01*
X126822Y-113036D01*
X126870Y-113013D01*
X126894Y-112989D01*
X126917Y-112941D01*
X125866Y-111702D02*
X125580Y-111702D01*
X125723Y-111702D02*
X125723Y-111202D01*
X125676Y-111273D01*
X125628Y-111321D01*
X125580Y-111345D01*
X126176Y-111202D02*
X126223Y-111202D01*
X126271Y-111226D01*
X126295Y-111250D01*
X126319Y-111297D01*
X126342Y-111392D01*
X126342Y-111511D01*
X126319Y-111607D01*
X126295Y-111654D01*
X126271Y-111678D01*
X126223Y-111702D01*
X126176Y-111702D01*
X126128Y-111678D01*
X126104Y-111654D01*
X126080Y-111607D01*
X126057Y-111511D01*
X126057Y-111392D01*
X126080Y-111297D01*
X126104Y-111250D01*
X126128Y-111226D01*
X126176Y-111202D01*
X126652Y-111202D02*
X126700Y-111202D01*
X126747Y-111226D01*
X126771Y-111250D01*
X126795Y-111297D01*
X126819Y-111392D01*
X126819Y-111511D01*
X126795Y-111607D01*
X126771Y-111654D01*
X126747Y-111678D01*
X126700Y-111702D01*
X126652Y-111702D01*
X126604Y-111678D01*
X126580Y-111654D01*
X126557Y-111607D01*
X126533Y-111511D01*
X126533Y-111392D01*
X126557Y-111297D01*
X126580Y-111250D01*
X126604Y-111226D01*
X126652Y-111202D01*
X127033Y-111702D02*
X127033Y-111202D01*
X127319Y-111702D02*
X127104Y-111416D01*
X127319Y-111202D02*
X127033Y-111488D01*
X128533Y-107742D02*
X128366Y-107504D01*
X128247Y-107742D02*
X128247Y-107242D01*
X128438Y-107242D01*
X128485Y-107266D01*
X128509Y-107290D01*
X128533Y-107337D01*
X128533Y-107409D01*
X128509Y-107456D01*
X128485Y-107480D01*
X128438Y-107504D01*
X128247Y-107504D01*
X129009Y-107742D02*
X128724Y-107742D01*
X128866Y-107742D02*
X128866Y-107242D01*
X128819Y-107313D01*
X128771Y-107361D01*
X128724Y-107385D01*
X129485Y-107742D02*
X129200Y-107742D01*
X129343Y-107742D02*
X129343Y-107242D01*
X129295Y-107313D01*
X129247Y-107361D01*
X129200Y-107385D01*
X128287Y-108767D02*
X128596Y-108767D01*
X128430Y-108957D01*
X128501Y-108957D01*
X128549Y-108981D01*
X128572Y-109005D01*
X128596Y-109053D01*
X128596Y-109172D01*
X128572Y-109219D01*
X128549Y-109243D01*
X128501Y-109267D01*
X128358Y-109267D01*
X128310Y-109243D01*
X128287Y-109219D01*
X128906Y-108767D02*
X128953Y-108767D01*
X129001Y-108791D01*
X129025Y-108815D01*
X129049Y-108862D01*
X129072Y-108957D01*
X129072Y-109076D01*
X129049Y-109172D01*
X129025Y-109219D01*
X129001Y-109243D01*
X128953Y-109267D01*
X128906Y-109267D01*
X128858Y-109243D01*
X128834Y-109219D01*
X128810Y-109172D01*
X128787Y-109076D01*
X128787Y-108957D01*
X128810Y-108862D01*
X128834Y-108815D01*
X128858Y-108791D01*
X128906Y-108767D01*
X129382Y-108767D02*
X129430Y-108767D01*
X129477Y-108791D01*
X129501Y-108815D01*
X129525Y-108862D01*
X129549Y-108957D01*
X129549Y-109076D01*
X129525Y-109172D01*
X129501Y-109219D01*
X129477Y-109243D01*
X129430Y-109267D01*
X129382Y-109267D01*
X129334Y-109243D01*
X129310Y-109219D01*
X129287Y-109172D01*
X129263Y-109076D01*
X129263Y-108957D01*
X129287Y-108862D01*
X129310Y-108815D01*
X129334Y-108791D01*
X129382Y-108767D01*
X125302Y-110633D02*
X125064Y-110800D01*
X125302Y-110919D02*
X124802Y-110919D01*
X124802Y-110728D01*
X124826Y-110680D01*
X124850Y-110657D01*
X124897Y-110633D01*
X124969Y-110633D01*
X125016Y-110657D01*
X125040Y-110680D01*
X125064Y-110728D01*
X125064Y-110919D01*
X124802Y-110466D02*
X124802Y-110133D01*
X125302Y-110347D01*
X123444Y-111327D02*
X123777Y-111327D01*
X123253Y-111446D02*
X123610Y-111565D01*
X123610Y-111255D01*
X123729Y-111065D02*
X123753Y-111041D01*
X123777Y-111065D01*
X123753Y-111089D01*
X123729Y-111065D01*
X123777Y-111065D01*
X123277Y-110589D02*
X123277Y-110827D01*
X123515Y-110851D01*
X123491Y-110827D01*
X123467Y-110779D01*
X123467Y-110660D01*
X123491Y-110613D01*
X123515Y-110589D01*
X123563Y-110565D01*
X123682Y-110565D01*
X123729Y-110589D01*
X123753Y-110613D01*
X123777Y-110660D01*
X123777Y-110779D01*
X123753Y-110827D01*
X123729Y-110851D01*
X123277Y-110398D02*
X123277Y-110089D01*
X123467Y-110255D01*
X123467Y-110184D01*
X123491Y-110136D01*
X123515Y-110113D01*
X123563Y-110089D01*
X123682Y-110089D01*
X123729Y-110113D01*
X123753Y-110136D01*
X123777Y-110184D01*
X123777Y-110327D01*
X123753Y-110374D01*
X123729Y-110398D01*
X123777Y-109874D02*
X123277Y-109874D01*
X123586Y-109827D02*
X123777Y-109684D01*
X123444Y-109684D02*
X123634Y-109874D01*
X127152Y-106996D02*
X126914Y-107163D01*
X127152Y-107282D02*
X126652Y-107282D01*
X126652Y-107091D01*
X126676Y-107044D01*
X126700Y-107020D01*
X126747Y-106996D01*
X126819Y-106996D01*
X126866Y-107020D01*
X126890Y-107044D01*
X126914Y-107091D01*
X126914Y-107282D01*
X127152Y-106520D02*
X127152Y-106805D01*
X127152Y-106663D02*
X126652Y-106663D01*
X126723Y-106710D01*
X126771Y-106758D01*
X126795Y-106805D01*
X126652Y-106353D02*
X126652Y-106044D01*
X126842Y-106210D01*
X126842Y-106139D01*
X126866Y-106091D01*
X126890Y-106067D01*
X126938Y-106044D01*
X127057Y-106044D01*
X127104Y-106067D01*
X127128Y-106091D01*
X127152Y-106139D01*
X127152Y-106282D01*
X127128Y-106329D01*
X127104Y-106353D01*
X128177Y-106957D02*
X128177Y-107195D01*
X128415Y-107219D01*
X128391Y-107195D01*
X128367Y-107147D01*
X128367Y-107028D01*
X128391Y-106980D01*
X128415Y-106957D01*
X128463Y-106933D01*
X128582Y-106933D01*
X128629Y-106957D01*
X128653Y-106980D01*
X128677Y-107028D01*
X128677Y-107147D01*
X128653Y-107195D01*
X128629Y-107219D01*
X128177Y-106623D02*
X128177Y-106576D01*
X128201Y-106528D01*
X128225Y-106504D01*
X128272Y-106480D01*
X128367Y-106457D01*
X128486Y-106457D01*
X128582Y-106480D01*
X128629Y-106504D01*
X128653Y-106528D01*
X128677Y-106576D01*
X128677Y-106623D01*
X128653Y-106671D01*
X128629Y-106695D01*
X128582Y-106719D01*
X128486Y-106742D01*
X128367Y-106742D01*
X128272Y-106719D01*
X128225Y-106695D01*
X128201Y-106671D01*
X128177Y-106623D01*
X128177Y-106147D02*
X128177Y-106100D01*
X128201Y-106052D01*
X128225Y-106028D01*
X128272Y-106004D01*
X128367Y-105980D01*
X128486Y-105980D01*
X128582Y-106004D01*
X128629Y-106028D01*
X128653Y-106052D01*
X128677Y-106100D01*
X128677Y-106147D01*
X128653Y-106195D01*
X128629Y-106219D01*
X128582Y-106242D01*
X128486Y-106266D01*
X128367Y-106266D01*
X128272Y-106242D01*
X128225Y-106219D01*
X128201Y-106195D01*
X128177Y-106147D01*
X126352Y-106996D02*
X126114Y-107163D01*
X126352Y-107282D02*
X125852Y-107282D01*
X125852Y-107091D01*
X125876Y-107044D01*
X125900Y-107020D01*
X125947Y-106996D01*
X126019Y-106996D01*
X126066Y-107020D01*
X126090Y-107044D01*
X126114Y-107091D01*
X126114Y-107282D01*
X126352Y-106520D02*
X126352Y-106805D01*
X126352Y-106663D02*
X125852Y-106663D01*
X125923Y-106710D01*
X125971Y-106758D01*
X125995Y-106805D01*
X125852Y-106067D02*
X125852Y-106305D01*
X126090Y-106329D01*
X126066Y-106305D01*
X126042Y-106258D01*
X126042Y-106139D01*
X126066Y-106091D01*
X126090Y-106067D01*
X126138Y-106044D01*
X126257Y-106044D01*
X126304Y-106067D01*
X126328Y-106091D01*
X126352Y-106139D01*
X126352Y-106258D01*
X126328Y-106305D01*
X126304Y-106329D01*
X127877Y-106707D02*
X127877Y-106992D01*
X127877Y-106850D02*
X127377Y-106850D01*
X127448Y-106897D01*
X127496Y-106945D01*
X127520Y-106992D01*
X127877Y-106492D02*
X127377Y-106492D01*
X127877Y-106207D02*
X127591Y-106421D01*
X127377Y-106207D02*
X127663Y-106492D01*
G54D18*
X143600Y-91442D02*
X143314Y-91442D01*
X143314Y-90842D01*
X144114Y-91442D02*
X143771Y-91442D01*
X143942Y-91442D02*
X143942Y-90842D01*
X143885Y-90928D01*
X143828Y-90985D01*
X143771Y-91014D01*
X139789Y-88047D02*
X139789Y-87447D01*
X140017Y-87447D01*
X140074Y-87476D01*
X140103Y-87505D01*
X140132Y-87562D01*
X140132Y-87647D01*
X140103Y-87705D01*
X140074Y-87733D01*
X140017Y-87762D01*
X139789Y-87762D01*
X140732Y-87990D02*
X140703Y-88019D01*
X140617Y-88047D01*
X140560Y-88047D01*
X140474Y-88019D01*
X140417Y-87962D01*
X140389Y-87905D01*
X140360Y-87790D01*
X140360Y-87705D01*
X140389Y-87590D01*
X140417Y-87533D01*
X140474Y-87476D01*
X140560Y-87447D01*
X140617Y-87447D01*
X140703Y-87476D01*
X140732Y-87505D01*
X140903Y-87447D02*
X141103Y-88047D01*
X141303Y-87447D01*
X141503Y-87819D02*
X141960Y-87819D01*
X142217Y-87505D02*
X142246Y-87476D01*
X142303Y-87447D01*
X142446Y-87447D01*
X142503Y-87476D01*
X142532Y-87505D01*
X142560Y-87562D01*
X142560Y-87619D01*
X142532Y-87705D01*
X142189Y-88047D01*
X142560Y-88047D01*
X142817Y-87819D02*
X143275Y-87819D01*
X143503Y-87447D02*
X143875Y-87447D01*
X143675Y-87676D01*
X143760Y-87676D01*
X143817Y-87705D01*
X143846Y-87733D01*
X143875Y-87790D01*
X143875Y-87933D01*
X143846Y-87990D01*
X143817Y-88019D01*
X143760Y-88047D01*
X143589Y-88047D01*
X143532Y-88019D01*
X143503Y-87990D01*
X144160Y-88047D02*
X144275Y-88047D01*
X144332Y-88019D01*
X144360Y-87990D01*
X144417Y-87905D01*
X144446Y-87790D01*
X144446Y-87562D01*
X144417Y-87505D01*
X144389Y-87476D01*
X144332Y-87447D01*
X144217Y-87447D01*
X144160Y-87476D01*
X144132Y-87505D01*
X144103Y-87562D01*
X144103Y-87705D01*
X144132Y-87762D01*
X144160Y-87790D01*
X144217Y-87819D01*
X144332Y-87819D01*
X144389Y-87790D01*
X144417Y-87762D01*
X144446Y-87705D01*
X144960Y-87647D02*
X144960Y-88047D01*
X144817Y-87419D02*
X144675Y-87847D01*
X145046Y-87847D01*
X145275Y-87819D02*
X145732Y-87819D01*
X146132Y-87447D02*
X146189Y-87447D01*
X146246Y-87476D01*
X146275Y-87505D01*
X146303Y-87562D01*
X146332Y-87676D01*
X146332Y-87819D01*
X146303Y-87933D01*
X146275Y-87990D01*
X146246Y-88019D01*
X146189Y-88047D01*
X146132Y-88047D01*
X146075Y-88019D01*
X146046Y-87990D01*
X146017Y-87933D01*
X145989Y-87819D01*
X145989Y-87676D01*
X146017Y-87562D01*
X146046Y-87505D01*
X146075Y-87476D01*
X146132Y-87447D01*
X146875Y-87447D02*
X146589Y-87447D01*
X146560Y-87733D01*
X146589Y-87705D01*
X146646Y-87676D01*
X146789Y-87676D01*
X146846Y-87705D01*
X146875Y-87733D01*
X146903Y-87790D01*
X146903Y-87933D01*
X146875Y-87990D01*
X146846Y-88019D01*
X146789Y-88047D01*
X146646Y-88047D01*
X146589Y-88019D01*
X146560Y-87990D01*
X147446Y-88047D02*
X147160Y-88047D01*
X147160Y-87447D01*
G54D23*
X128952Y-95992D02*
X129357Y-95992D01*
X129404Y-95971D01*
X129428Y-95950D01*
X129452Y-95907D01*
X129452Y-95821D01*
X129428Y-95778D01*
X129404Y-95757D01*
X129357Y-95735D01*
X128952Y-95735D01*
X128952Y-95564D02*
X128952Y-95285D01*
X129142Y-95435D01*
X129142Y-95371D01*
X129166Y-95328D01*
X129190Y-95307D01*
X129238Y-95285D01*
X129357Y-95285D01*
X129404Y-95307D01*
X129428Y-95328D01*
X129452Y-95371D01*
X129452Y-95500D01*
X129428Y-95542D01*
X129404Y-95564D01*
X131073Y-95852D02*
X130883Y-95852D01*
X130883Y-95352D01*
X131207Y-95852D02*
X131207Y-95352D01*
X131340Y-95709D01*
X131473Y-95352D01*
X131473Y-95852D01*
X131626Y-95352D02*
X131873Y-95352D01*
X131740Y-95542D01*
X131797Y-95542D01*
X131835Y-95566D01*
X131854Y-95590D01*
X131873Y-95638D01*
X131873Y-95757D01*
X131854Y-95804D01*
X131835Y-95828D01*
X131797Y-95852D01*
X131683Y-95852D01*
X131645Y-95828D01*
X131626Y-95804D01*
X132064Y-95852D02*
X132140Y-95852D01*
X132178Y-95828D01*
X132197Y-95804D01*
X132235Y-95733D01*
X132254Y-95638D01*
X132254Y-95447D01*
X132235Y-95400D01*
X132216Y-95376D01*
X132178Y-95352D01*
X132102Y-95352D01*
X132064Y-95376D01*
X132045Y-95400D01*
X132026Y-95447D01*
X132026Y-95566D01*
X132045Y-95614D01*
X132064Y-95638D01*
X132102Y-95661D01*
X132178Y-95661D01*
X132216Y-95638D01*
X132235Y-95614D01*
X132254Y-95566D01*
X132388Y-95352D02*
X132635Y-95352D01*
X132502Y-95542D01*
X132559Y-95542D01*
X132597Y-95566D01*
X132616Y-95590D01*
X132635Y-95638D01*
X132635Y-95757D01*
X132616Y-95804D01*
X132597Y-95828D01*
X132559Y-95852D01*
X132445Y-95852D01*
X132407Y-95828D01*
X132388Y-95804D01*
G54D21*
X137081Y-92624D02*
X137057Y-92648D01*
X136986Y-92672D01*
X136938Y-92672D01*
X136867Y-92648D01*
X136819Y-92600D01*
X136795Y-92553D01*
X136772Y-92458D01*
X136772Y-92386D01*
X136795Y-92291D01*
X136819Y-92243D01*
X136867Y-92196D01*
X136938Y-92172D01*
X136986Y-92172D01*
X137057Y-92196D01*
X137081Y-92220D01*
X137248Y-92172D02*
X137581Y-92172D01*
X137367Y-92672D01*
G54D23*
X141988Y-77834D02*
X141966Y-77858D01*
X141906Y-77882D01*
X141868Y-77882D01*
X141813Y-77858D01*
X141781Y-77810D01*
X141768Y-77763D01*
X141761Y-77668D01*
X141770Y-77596D01*
X141801Y-77501D01*
X141826Y-77453D01*
X141870Y-77406D01*
X141930Y-77382D01*
X141968Y-77382D01*
X142022Y-77406D01*
X142038Y-77430D01*
X142153Y-77882D02*
X142216Y-77382D01*
X142368Y-77382D01*
X142403Y-77406D01*
X142419Y-77430D01*
X142432Y-77477D01*
X142424Y-77549D01*
X142399Y-77596D01*
X142377Y-77620D01*
X142335Y-77644D01*
X142183Y-77644D01*
X142452Y-77930D02*
X142757Y-77930D01*
X142921Y-77382D02*
X142870Y-77787D01*
X142883Y-77834D01*
X142899Y-77858D01*
X142934Y-77882D01*
X143010Y-77882D01*
X143052Y-77858D01*
X143074Y-77834D01*
X143099Y-77787D01*
X143149Y-77382D01*
X143261Y-77858D02*
X143315Y-77882D01*
X143410Y-77882D01*
X143452Y-77858D01*
X143474Y-77834D01*
X143499Y-77787D01*
X143505Y-77739D01*
X143491Y-77691D01*
X143475Y-77668D01*
X143440Y-77644D01*
X143367Y-77620D01*
X143332Y-77596D01*
X143316Y-77572D01*
X143303Y-77525D01*
X143309Y-77477D01*
X143334Y-77430D01*
X143356Y-77406D01*
X143397Y-77382D01*
X143492Y-77382D01*
X143546Y-77406D01*
G54D21*
X138337Y-93111D02*
X138718Y-93111D01*
X138528Y-93302D02*
X138528Y-92921D01*
X133828Y-93909D02*
X133804Y-93933D01*
X133733Y-93957D01*
X133685Y-93957D01*
X133614Y-93933D01*
X133566Y-93885D01*
X133542Y-93838D01*
X133519Y-93743D01*
X133519Y-93671D01*
X133542Y-93576D01*
X133566Y-93528D01*
X133614Y-93481D01*
X133685Y-93457D01*
X133733Y-93457D01*
X133804Y-93481D01*
X133828Y-93505D01*
X134304Y-93957D02*
X134019Y-93957D01*
X134161Y-93957D02*
X134161Y-93457D01*
X134114Y-93528D01*
X134066Y-93576D01*
X134019Y-93600D01*
X134780Y-93957D02*
X134495Y-93957D01*
X134638Y-93957D02*
X134638Y-93457D01*
X134590Y-93528D01*
X134542Y-93576D01*
X134495Y-93600D01*
G54D23*
X129633Y-110329D02*
X129611Y-110353D01*
X129551Y-110377D01*
X129513Y-110377D01*
X129458Y-110353D01*
X129426Y-110305D01*
X129413Y-110258D01*
X129406Y-110163D01*
X129415Y-110091D01*
X129446Y-109996D01*
X129471Y-109948D01*
X129515Y-109901D01*
X129575Y-109877D01*
X129613Y-109877D01*
X129667Y-109901D01*
X129683Y-109925D01*
X129798Y-110377D02*
X129861Y-109877D01*
X130013Y-109877D01*
X130048Y-109901D01*
X130064Y-109925D01*
X130077Y-109972D01*
X130069Y-110044D01*
X130044Y-110091D01*
X130022Y-110115D01*
X129980Y-110139D01*
X129828Y-110139D01*
X130097Y-110425D02*
X130402Y-110425D01*
X130566Y-109877D02*
X130515Y-110282D01*
X130528Y-110329D01*
X130544Y-110353D01*
X130579Y-110377D01*
X130655Y-110377D01*
X130697Y-110353D01*
X130719Y-110329D01*
X130744Y-110282D01*
X130794Y-109877D01*
X130906Y-110353D02*
X130960Y-110377D01*
X131055Y-110377D01*
X131097Y-110353D01*
X131119Y-110329D01*
X131144Y-110282D01*
X131150Y-110234D01*
X131136Y-110186D01*
X131120Y-110163D01*
X131085Y-110139D01*
X131012Y-110115D01*
X130977Y-110091D01*
X130961Y-110067D01*
X130948Y-110020D01*
X130954Y-109972D01*
X130979Y-109925D01*
X131001Y-109901D01*
X131042Y-109877D01*
X131137Y-109877D01*
X131191Y-109901D01*
G54D21*
X135337Y-93111D02*
X135718Y-93111D01*
X135528Y-93302D02*
X135528Y-92921D01*
X145558Y-98084D02*
X145534Y-98108D01*
X145463Y-98132D01*
X145415Y-98132D01*
X145344Y-98108D01*
X145296Y-98060D01*
X145272Y-98013D01*
X145249Y-97918D01*
X145249Y-97846D01*
X145272Y-97751D01*
X145296Y-97703D01*
X145344Y-97656D01*
X145415Y-97632D01*
X145463Y-97632D01*
X145534Y-97656D01*
X145558Y-97680D01*
X146034Y-98132D02*
X145749Y-98132D01*
X145891Y-98132D02*
X145891Y-97632D01*
X145844Y-97703D01*
X145796Y-97751D01*
X145749Y-97775D01*
X146201Y-97632D02*
X146510Y-97632D01*
X146344Y-97822D01*
X146415Y-97822D01*
X146463Y-97846D01*
X146487Y-97870D01*
X146510Y-97918D01*
X146510Y-98037D01*
X146487Y-98084D01*
X146463Y-98108D01*
X146415Y-98132D01*
X146272Y-98132D01*
X146225Y-98108D01*
X146201Y-98084D01*
G54D23*
X147578Y-110599D02*
X147556Y-110623D01*
X147496Y-110647D01*
X147458Y-110647D01*
X147403Y-110623D01*
X147371Y-110575D01*
X147358Y-110528D01*
X147351Y-110433D01*
X147360Y-110361D01*
X147391Y-110266D01*
X147416Y-110218D01*
X147460Y-110171D01*
X147520Y-110147D01*
X147558Y-110147D01*
X147612Y-110171D01*
X147628Y-110195D01*
X147743Y-110647D02*
X147806Y-110147D01*
X147958Y-110147D01*
X147993Y-110171D01*
X148009Y-110195D01*
X148022Y-110242D01*
X148014Y-110314D01*
X147989Y-110361D01*
X147967Y-110385D01*
X147925Y-110409D01*
X147773Y-110409D01*
X148042Y-110695D02*
X148347Y-110695D01*
X148511Y-110147D02*
X148460Y-110552D01*
X148473Y-110599D01*
X148489Y-110623D01*
X148524Y-110647D01*
X148600Y-110647D01*
X148642Y-110623D01*
X148664Y-110599D01*
X148689Y-110552D01*
X148739Y-110147D01*
X148851Y-110623D02*
X148905Y-110647D01*
X149000Y-110647D01*
X149042Y-110623D01*
X149064Y-110599D01*
X149089Y-110552D01*
X149095Y-110504D01*
X149081Y-110456D01*
X149065Y-110433D01*
X149030Y-110409D01*
X148957Y-110385D01*
X148922Y-110361D01*
X148906Y-110337D01*
X148893Y-110290D01*
X148899Y-110242D01*
X148924Y-110195D01*
X148946Y-110171D01*
X148987Y-110147D01*
X149082Y-110147D01*
X149136Y-110171D01*
G54D21*
X144331Y-97161D02*
X144712Y-97161D01*
X144522Y-97352D02*
X144522Y-96971D01*
G54D18*
X129892Y-98542D02*
X129292Y-98542D01*
X129292Y-98314D01*
X129321Y-98257D01*
X129350Y-98228D01*
X129407Y-98200D01*
X129492Y-98200D01*
X129550Y-98228D01*
X129578Y-98257D01*
X129607Y-98314D01*
X129607Y-98542D01*
X129492Y-97685D02*
X129892Y-97685D01*
X129264Y-97828D02*
X129692Y-97971D01*
X129692Y-97600D01*
X126342Y-98835D02*
X126342Y-99178D01*
X126342Y-99007D02*
X125742Y-99007D01*
X125828Y-99064D01*
X125885Y-99121D01*
X125914Y-99178D01*
X125800Y-98607D02*
X125771Y-98578D01*
X125742Y-98521D01*
X125742Y-98378D01*
X125771Y-98321D01*
X125800Y-98292D01*
X125857Y-98264D01*
X125914Y-98264D01*
X126000Y-98292D01*
X126342Y-98635D01*
X126342Y-98264D01*
X125942Y-98064D02*
X126342Y-97921D01*
X125942Y-97778D01*
X126342Y-97092D02*
X125942Y-97092D01*
X125742Y-97092D02*
X125771Y-97121D01*
X125800Y-97092D01*
X125771Y-97064D01*
X125742Y-97092D01*
X125800Y-97092D01*
X125942Y-96807D02*
X126342Y-96807D01*
X126000Y-96807D02*
X125971Y-96778D01*
X125942Y-96721D01*
X125942Y-96635D01*
X125971Y-96578D01*
X126028Y-96549D01*
X126342Y-96549D01*
X139612Y-99422D02*
X139612Y-99908D01*
X139641Y-99965D01*
X139670Y-99994D01*
X139727Y-100022D01*
X139841Y-100022D01*
X139898Y-99994D01*
X139927Y-99965D01*
X139955Y-99908D01*
X139955Y-99422D01*
X140270Y-100022D02*
X140384Y-100022D01*
X140441Y-99994D01*
X140470Y-99965D01*
X140527Y-99880D01*
X140555Y-99765D01*
X140555Y-99537D01*
X140527Y-99480D01*
X140498Y-99451D01*
X140441Y-99422D01*
X140327Y-99422D01*
X140270Y-99451D01*
X140241Y-99480D01*
X140212Y-99537D01*
X140212Y-99680D01*
X140241Y-99737D01*
X140270Y-99765D01*
X140327Y-99794D01*
X140441Y-99794D01*
X140498Y-99765D01*
X140527Y-99737D01*
X140555Y-99680D01*
X151505Y-100057D02*
X151505Y-99457D01*
X151848Y-100057D02*
X151591Y-99715D01*
X151848Y-99457D02*
X151505Y-99800D01*
X152105Y-100057D02*
X152105Y-99457D01*
X152677Y-100057D02*
X152391Y-100057D01*
X152391Y-99457D01*
X153162Y-100057D02*
X152877Y-100057D01*
X152877Y-99457D01*
X153791Y-100029D02*
X153877Y-100057D01*
X154020Y-100057D01*
X154077Y-100029D01*
X154105Y-100000D01*
X154134Y-99943D01*
X154134Y-99886D01*
X154105Y-99829D01*
X154077Y-99800D01*
X154020Y-99772D01*
X153905Y-99743D01*
X153848Y-99715D01*
X153820Y-99686D01*
X153791Y-99629D01*
X153791Y-99572D01*
X153820Y-99515D01*
X153848Y-99486D01*
X153905Y-99457D01*
X154048Y-99457D01*
X154134Y-99486D01*
X154391Y-99743D02*
X154591Y-99743D01*
X154677Y-100057D02*
X154391Y-100057D01*
X154391Y-99457D01*
X154677Y-99457D01*
X155220Y-100057D02*
X154934Y-100057D01*
X154934Y-99457D01*
X126292Y-85692D02*
X125692Y-85692D01*
X125692Y-85464D01*
X125721Y-85407D01*
X125750Y-85378D01*
X125807Y-85350D01*
X125892Y-85350D01*
X125950Y-85378D01*
X125978Y-85407D01*
X126007Y-85464D01*
X126007Y-85692D01*
X126292Y-84778D02*
X126292Y-85121D01*
X126292Y-84950D02*
X125692Y-84950D01*
X125778Y-85007D01*
X125835Y-85064D01*
X125864Y-85121D01*
X129242Y-86685D02*
X129842Y-86485D01*
X129242Y-86285D01*
X129842Y-85742D02*
X129557Y-85942D01*
X129842Y-86085D02*
X129242Y-86085D01*
X129242Y-85857D01*
X129271Y-85800D01*
X129300Y-85771D01*
X129357Y-85742D01*
X129442Y-85742D01*
X129500Y-85771D01*
X129528Y-85800D01*
X129557Y-85857D01*
X129557Y-86085D01*
X129842Y-85028D02*
X129242Y-85028D01*
X129842Y-84742D02*
X129242Y-84742D01*
X129842Y-84400D01*
X129242Y-84400D01*
X142282Y-100992D02*
X142282Y-101478D01*
X142311Y-101535D01*
X142340Y-101564D01*
X142397Y-101592D01*
X142511Y-101592D01*
X142568Y-101564D01*
X142597Y-101535D01*
X142625Y-101478D01*
X142625Y-100992D01*
X142997Y-101250D02*
X142940Y-101221D01*
X142911Y-101192D01*
X142882Y-101135D01*
X142882Y-101107D01*
X142911Y-101050D01*
X142940Y-101021D01*
X142997Y-100992D01*
X143111Y-100992D01*
X143168Y-101021D01*
X143197Y-101050D01*
X143225Y-101107D01*
X143225Y-101135D01*
X143197Y-101192D01*
X143168Y-101221D01*
X143111Y-101250D01*
X142997Y-101250D01*
X142940Y-101278D01*
X142911Y-101307D01*
X142882Y-101364D01*
X142882Y-101478D01*
X142911Y-101535D01*
X142940Y-101564D01*
X142997Y-101592D01*
X143111Y-101592D01*
X143168Y-101564D01*
X143197Y-101535D01*
X143225Y-101478D01*
X143225Y-101364D01*
X143197Y-101307D01*
X143168Y-101278D01*
X143111Y-101250D01*
X150820Y-98972D02*
X150820Y-98372D01*
X151049Y-98372D01*
X151106Y-98401D01*
X151135Y-98430D01*
X151163Y-98487D01*
X151163Y-98572D01*
X151135Y-98630D01*
X151106Y-98658D01*
X151049Y-98687D01*
X150820Y-98687D01*
X151535Y-98372D02*
X151649Y-98372D01*
X151706Y-98401D01*
X151763Y-98458D01*
X151792Y-98572D01*
X151792Y-98772D01*
X151763Y-98887D01*
X151706Y-98944D01*
X151649Y-98972D01*
X151535Y-98972D01*
X151477Y-98944D01*
X151420Y-98887D01*
X151392Y-98772D01*
X151392Y-98572D01*
X151420Y-98458D01*
X151477Y-98401D01*
X151535Y-98372D01*
X151992Y-98372D02*
X152135Y-98972D01*
X152249Y-98544D01*
X152363Y-98972D01*
X152506Y-98372D01*
X152735Y-98658D02*
X152935Y-98658D01*
X153020Y-98972D02*
X152735Y-98972D01*
X152735Y-98372D01*
X153020Y-98372D01*
X153620Y-98972D02*
X153420Y-98687D01*
X153277Y-98972D02*
X153277Y-98372D01*
X153506Y-98372D01*
X153563Y-98401D01*
X153592Y-98430D01*
X153620Y-98487D01*
X153620Y-98572D01*
X153592Y-98630D01*
X153563Y-98658D01*
X153506Y-98687D01*
X153277Y-98687D01*
X153735Y-99030D02*
X154192Y-99030D01*
X154306Y-98944D02*
X154392Y-98972D01*
X154535Y-98972D01*
X154592Y-98944D01*
X154620Y-98915D01*
X154649Y-98858D01*
X154649Y-98801D01*
X154620Y-98744D01*
X154592Y-98715D01*
X154535Y-98687D01*
X154420Y-98658D01*
X154363Y-98630D01*
X154335Y-98601D01*
X154306Y-98544D01*
X154306Y-98487D01*
X154335Y-98430D01*
X154363Y-98401D01*
X154420Y-98372D01*
X154563Y-98372D01*
X154649Y-98401D01*
X154906Y-98658D02*
X155106Y-98658D01*
X155192Y-98972D02*
X154906Y-98972D01*
X154906Y-98372D01*
X155192Y-98372D01*
X155735Y-98972D02*
X155449Y-98972D01*
X155449Y-98372D01*
X155935Y-98658D02*
X156135Y-98658D01*
X156220Y-98972D02*
X155935Y-98972D01*
X155935Y-98372D01*
X156220Y-98372D01*
X156820Y-98915D02*
X156792Y-98944D01*
X156706Y-98972D01*
X156649Y-98972D01*
X156563Y-98944D01*
X156506Y-98887D01*
X156477Y-98830D01*
X156449Y-98715D01*
X156449Y-98630D01*
X156477Y-98515D01*
X156506Y-98458D01*
X156563Y-98401D01*
X156649Y-98372D01*
X156706Y-98372D01*
X156792Y-98401D01*
X156820Y-98430D01*
X156992Y-98372D02*
X157335Y-98372D01*
X157163Y-98972D02*
X157163Y-98372D01*
G54D21*
X134783Y-106032D02*
X134650Y-105747D01*
X134554Y-106032D02*
X134554Y-105432D01*
X134707Y-105432D01*
X134745Y-105461D01*
X134764Y-105490D01*
X134783Y-105547D01*
X134783Y-105632D01*
X134764Y-105690D01*
X134745Y-105718D01*
X134707Y-105747D01*
X134554Y-105747D01*
X135011Y-105690D02*
X134973Y-105661D01*
X134954Y-105632D01*
X134935Y-105575D01*
X134935Y-105547D01*
X134954Y-105490D01*
X134973Y-105461D01*
X135011Y-105432D01*
X135088Y-105432D01*
X135126Y-105461D01*
X135145Y-105490D01*
X135164Y-105547D01*
X135164Y-105575D01*
X135145Y-105632D01*
X135126Y-105661D01*
X135088Y-105690D01*
X135011Y-105690D01*
X134973Y-105718D01*
X134954Y-105747D01*
X134935Y-105804D01*
X134935Y-105918D01*
X134954Y-105975D01*
X134973Y-106004D01*
X135011Y-106032D01*
X135088Y-106032D01*
X135126Y-106004D01*
X135145Y-105975D01*
X135164Y-105918D01*
X135164Y-105804D01*
X135145Y-105747D01*
X135126Y-105718D01*
X135088Y-105690D01*
G54D18*
X143572Y-105922D02*
X142972Y-105922D01*
X142972Y-105694D01*
X143001Y-105637D01*
X143030Y-105608D01*
X143087Y-105580D01*
X143172Y-105580D01*
X143230Y-105608D01*
X143258Y-105637D01*
X143287Y-105694D01*
X143287Y-105922D01*
X142972Y-105380D02*
X142972Y-105008D01*
X143201Y-105208D01*
X143201Y-105122D01*
X143230Y-105065D01*
X143258Y-105037D01*
X143315Y-105008D01*
X143458Y-105008D01*
X143515Y-105037D01*
X143544Y-105065D01*
X143572Y-105122D01*
X143572Y-105294D01*
X143544Y-105351D01*
X143515Y-105380D01*
X147065Y-106244D02*
X147094Y-106272D01*
X147122Y-106358D01*
X147122Y-106415D01*
X147094Y-106501D01*
X147037Y-106558D01*
X146980Y-106587D01*
X146865Y-106615D01*
X146780Y-106615D01*
X146665Y-106587D01*
X146608Y-106558D01*
X146551Y-106501D01*
X146522Y-106415D01*
X146522Y-106358D01*
X146551Y-106272D01*
X146580Y-106244D01*
X146522Y-105872D02*
X146522Y-105758D01*
X146551Y-105701D01*
X146608Y-105644D01*
X146722Y-105615D01*
X146922Y-105615D01*
X147037Y-105644D01*
X147094Y-105701D01*
X147122Y-105758D01*
X147122Y-105872D01*
X147094Y-105929D01*
X147037Y-105987D01*
X146922Y-106015D01*
X146722Y-106015D01*
X146608Y-105987D01*
X146551Y-105929D01*
X146522Y-105872D01*
X147122Y-105358D02*
X146522Y-105358D01*
X147122Y-104787D02*
X147122Y-105072D01*
X146522Y-105072D01*
X147127Y-96507D02*
X147127Y-95907D01*
X147355Y-95907D01*
X147412Y-95936D01*
X147441Y-95965D01*
X147470Y-96022D01*
X147470Y-96107D01*
X147441Y-96165D01*
X147412Y-96193D01*
X147355Y-96222D01*
X147127Y-96222D01*
X148012Y-95907D02*
X147727Y-95907D01*
X147698Y-96193D01*
X147727Y-96165D01*
X147784Y-96136D01*
X147927Y-96136D01*
X147984Y-96165D01*
X148012Y-96193D01*
X148041Y-96250D01*
X148041Y-96393D01*
X148012Y-96450D01*
X147984Y-96479D01*
X147927Y-96507D01*
X147784Y-96507D01*
X147727Y-96479D01*
X147698Y-96450D01*
X146405Y-99486D02*
X146348Y-99457D01*
X146262Y-99457D01*
X146177Y-99486D01*
X146120Y-99543D01*
X146091Y-99600D01*
X146062Y-99715D01*
X146062Y-99800D01*
X146091Y-99915D01*
X146120Y-99972D01*
X146177Y-100029D01*
X146262Y-100057D01*
X146320Y-100057D01*
X146405Y-100029D01*
X146434Y-100000D01*
X146434Y-99800D01*
X146320Y-99800D01*
X146691Y-99743D02*
X146891Y-99743D01*
X146977Y-100057D02*
X146691Y-100057D01*
X146691Y-99457D01*
X146977Y-99457D01*
X147234Y-100057D02*
X147234Y-99457D01*
X147577Y-100057D01*
X147577Y-99457D01*
X148291Y-99886D02*
X148577Y-99886D01*
X148234Y-100057D02*
X148434Y-99457D01*
X148634Y-100057D01*
G54D32*
X121628Y-104921D02*
X121628Y-105164D01*
X121640Y-105192D01*
X121652Y-105207D01*
X121677Y-105221D01*
X121727Y-105221D01*
X121751Y-105207D01*
X121764Y-105192D01*
X121776Y-105164D01*
X121776Y-104921D01*
X122036Y-105221D02*
X121888Y-105221D01*
X121962Y-105221D02*
X121962Y-104921D01*
X121937Y-104964D01*
X121912Y-104992D01*
X121888Y-105007D01*
X122197Y-104921D02*
X122222Y-104921D01*
X122247Y-104935D01*
X122259Y-104950D01*
X122271Y-104978D01*
X122284Y-105035D01*
X122284Y-105107D01*
X122271Y-105164D01*
X122259Y-105192D01*
X122247Y-105207D01*
X122222Y-105221D01*
X122197Y-105221D01*
X122172Y-105207D01*
X122160Y-105192D01*
X122148Y-105164D01*
X122135Y-105107D01*
X122135Y-105035D01*
X122148Y-104978D01*
X122160Y-104950D01*
X122172Y-104935D01*
X122197Y-104921D01*
G54D30*
G54D24*
X121092Y-104471D02*
X121252Y-104471D01*
X121150Y-104771D01*
X121447Y-104571D02*
X121447Y-104771D01*
X121390Y-104457D02*
X121332Y-104671D01*
X121481Y-104671D01*
X121687Y-104771D02*
X121572Y-104771D01*
X121572Y-104471D01*
X121732Y-104471D02*
X121812Y-104771D01*
X121892Y-104471D01*
X122110Y-104742D02*
X122098Y-104757D01*
X122064Y-104771D01*
X122041Y-104771D01*
X122007Y-104757D01*
X121984Y-104728D01*
X121972Y-104700D01*
X121961Y-104642D01*
X121961Y-104600D01*
X121972Y-104542D01*
X121984Y-104514D01*
X122007Y-104485D01*
X122041Y-104471D01*
X122064Y-104471D01*
X122098Y-104485D01*
X122110Y-104500D01*
X122201Y-104500D02*
X122212Y-104485D01*
X122235Y-104471D01*
X122292Y-104471D01*
X122315Y-104485D01*
X122327Y-104500D01*
X122338Y-104528D01*
X122338Y-104557D01*
X122327Y-104600D01*
X122190Y-104771D01*
X122338Y-104771D01*
X122544Y-104571D02*
X122544Y-104771D01*
X122487Y-104457D02*
X122430Y-104671D01*
X122578Y-104671D01*
X122784Y-104471D02*
X122670Y-104471D01*
X122658Y-104614D01*
X122670Y-104600D01*
X122692Y-104585D01*
X122750Y-104585D01*
X122772Y-104600D01*
X122784Y-104614D01*
X122795Y-104642D01*
X122795Y-104714D01*
X122784Y-104742D01*
X122772Y-104757D01*
X122750Y-104771D01*
X122692Y-104771D01*
X122670Y-104757D01*
X122658Y-104742D01*
G54D30*
M02*
