M48
;DRILL file {Pcbnew (2013-07-07 BZR 4022)-stable} date 10/24/2016 7:07:05 PM
;FORMAT={-:-/ absolute / metric / decimal}
FMAT,2
METRIC,TZ
T1C0.300
T2C0.584
T3C0.800
T4C0.813
T5C0.914
T6C1.001
T7C1.016
T8C1.118
T9C1.143
T10C1.300
T11C1.499
T12C1.500
T13C1.801
T14C2.500
T15C3.048
T16C6.500
%
G90
G05
M71
T1
X310.896Y263.144
X312.763Y272.288
X313.131Y270.561
X315.976Y262.763
X315.989Y246.062
X317.5Y247.396
X317.894Y260.972
X318.618Y260.274
X321.17Y263.589
X321.297Y253.073
X321.945Y254.698
X322.872Y246.177
X322.897Y248.628
X323.431Y252.336
X324.231Y249.644
X325.869Y248.031
X325.895Y246.672
T2
X301.498Y223.393
X301.498Y224.663
X301.498Y225.933
X302.387Y279.527
X302.387Y280.67
X306.222Y283.921
X308.737Y280.416
X308.737Y281.559
X309.88Y280.416
X309.88Y281.559
X311.023Y280.416
X311.023Y281.559
X311.404Y285.75
X312.547Y285.75
X312.801Y245.491
X313.817Y244.475
X313.817Y245.491
X313.817Y285.75
X314.833Y243.459
X314.833Y244.475
X316.611Y226.187
X316.611Y227.33
X317.754Y226.187
X317.754Y227.33
X318.643Y271.272
X318.643Y272.288
X318.643Y273.304
X318.897Y226.187
X318.897Y227.33
X319.532Y271.272
X319.532Y272.288
X319.532Y273.304
X320.04Y226.187
X320.04Y227.33
X320.319Y232.791
X320.319Y233.733
X320.421Y271.272
X320.421Y272.288
X320.421Y273.304
X321.183Y226.187
X321.183Y227.33
X322.161Y243.357
X325.565Y252.222
X327.152Y254.381
X327.152Y255.524
X327.152Y256.667
X327.152Y257.81
X327.152Y258.953
X328.93Y253.873
X337.439Y231.775
X337.439Y233.045
X338.582Y238.125
X338.582Y239.268
X338.709Y231.775
X338.709Y233.045
X338.709Y234.315
X339.039Y253.428
X339.852Y231.775
X339.852Y233.045
X339.852Y234.315
X339.852Y235.585
X339.852Y236.855
X339.852Y238.125
X339.852Y239.268
X340.995Y234.315
X340.995Y235.585
X340.995Y236.855
X340.995Y238.125
X340.995Y239.268
X342.138Y234.315
X342.138Y235.585
X342.138Y236.855
X342.138Y238.125
X342.138Y239.268
X346.202Y250.19
X346.202Y251.206
X346.202Y252.222
X346.202Y253.238
X347.218Y250.19
X347.218Y251.206
X359.918Y236.728
X359.918Y237.744
X359.918Y241.554
X360.934Y236.728
X360.934Y241.554
X361.95Y236.728
X361.95Y237.744
X361.95Y241.554
X377.063Y220.345
X377.063Y221.615
X377.063Y222.885
X378.206Y220.345
X378.206Y221.615
X378.206Y222.885
T3
X301.259Y254.889
X301.386Y260.096
X303.261Y254.889
X303.388Y260.096
X352.298Y274.996
X352.298Y276.997
T4
X331.597Y271.145
X331.597Y281.305
X334.391Y273.558
X334.391Y276.098
X334.391Y278.638
X342.011Y273.558
X342.011Y276.098
X342.011Y278.638
X345.694Y271.704
X345.694Y281.864
X348.082Y271.716
X348.082Y281.876
X350.571Y281.838
X350.825Y267.513
X350.876Y270.459
X355.295Y273.406
X355.295Y276.301
X355.295Y278.74
X360.375Y273.406
X360.375Y276.301
X360.375Y278.74
X360.731Y281.838
X360.985Y267.513
X361.036Y270.459
T5
X364.123Y268.453
X364.123Y278.181
X378.623Y268.453
X378.623Y278.181
T6
X350.571Y284.582
X360.731Y284.582
T7
X303.784Y266.065
X303.784Y268.605
X306.324Y266.065
X306.324Y268.605
X308.864Y266.065
X308.864Y268.605
X310.693Y253.467
X310.693Y256.007
X310.693Y258.547
X311.404Y266.065
X311.404Y268.605
X313.944Y266.065
X313.944Y268.605
X316.484Y266.065
X316.484Y268.605
X319.024Y266.065
X319.024Y268.605
X321.564Y266.065
X321.564Y268.605
X324.104Y266.065
X324.104Y268.605
X326.644Y266.065
X326.644Y268.605
X349.809Y242.824
X352.349Y242.824
X354.889Y242.824
T8
X371.094Y260.096
X371.094Y262.382
X375.666Y245.11
X375.666Y252.73
X378.206Y245.11
X378.206Y252.73
X378.714Y260.096
X378.714Y262.382
T9
X354.381Y259.156
X354.381Y261.696
X354.381Y264.236
T10
X357.378Y258.318
X357.378Y261.874
X367.538Y258.318
X367.538Y261.874
X368.833Y244.424
X368.833Y254.584
T11
X361.315Y227.965
X376.555Y227.965
T12
X371.78Y244.831
X372.542Y248.26
X373.939Y242.291
T13
X300.896Y286.042
X301.894Y272.542
X315.595Y272.542
X316.596Y286.042
T14
X302.895Y238.395
X303.784Y230.013
X306.959Y222.266
X313.309Y218.964
X328.676Y226.203
X333.451Y246.396
X333.451Y251.146
X336.017Y236.642
X365.455Y285.106
X372.618Y254.016
X373.558Y285.182
X377.342Y240.493
X377.698Y256.683
T15
X337.871Y261.696
T16
X339.979Y215.773
X339.979Y287.782
T0
M30
