G04 (created by PCBNEW (2013-07-07 BZR 4022)-stable) date 10/27/2016 9:50:44 PM*
%MOIN*%
G04 Gerber Fmt 3.4, Leading zero omitted, Abs format*
%FSLAX34Y34*%
G01*
G70*
G90*
G04 APERTURE LIST*
%ADD10C,0.00590551*%
%ADD11C,0.00511811*%
%ADD12R,0.06X0.06*%
%ADD13C,0.06*%
%ADD14R,0.0236X0.0551*%
%ADD15R,0.055X0.055*%
%ADD16C,0.055*%
%ADD17C,0.07*%
%ADD18R,0.07X0.07*%
%ADD19R,0.35X0.35*%
%ADD20C,0.0984*%
%ADD21R,0.06X0.08*%
%ADD22R,0.0165X0.07*%
%ADD23R,0.140945X0.115748*%
%ADD24R,0.0511X0.059*%
%ADD25R,0.059X0.0511*%
%ADD26C,0.0984252*%
%ADD27R,0.05X0.016*%
%ADD28R,0.08X0.06*%
%ADD29R,0.055X0.035*%
%ADD30R,0.0587X0.0587*%
%ADD31C,0.0587*%
%ADD32R,0.059X0.0177*%
%ADD33C,0.063*%
%ADD34C,0.056*%
%ADD35R,0.1181X0.0787*%
%ADD36R,0.0787X0.1181*%
%ADD37R,0.035X0.055*%
%ADD38R,0.0866X0.0236*%
%ADD39R,0.0984X0.1004*%
%ADD40R,0.1004X0.19685*%
%ADD41R,0.0629921X0.0787402*%
%ADD42R,0.0787402X0.0629921*%
%ADD43R,0.1496X0.1004*%
%ADD44C,0.15748*%
%ADD45C,0.0787402*%
%ADD46O,0.0885X0.177*%
%ADD47R,0.0472X0.0472*%
%ADD48C,0.066*%
%ADD49R,0.15748X0.110236*%
%ADD50C,0.472441*%
%ADD51C,0.035*%
%ADD52C,0.019685*%
%ADD53C,0.00984252*%
%ADD54C,0.0255906*%
%ADD55C,0.0295276*%
%ADD56C,0.0149606*%
%ADD57C,0.0629921*%
%ADD58C,0.017*%
%ADD59C,0.0393701*%
%ADD60C,0.0551181*%
%ADD61C,0.0492126*%
%ADD62C,0.01*%
%ADD63C,0.00866142*%
G04 APERTURE END LIST*
G54D10*
G54D11*
X125722Y-86311D02*
X125722Y-86035D01*
X125820Y-86232D01*
X125919Y-86035D01*
X125919Y-86311D01*
X126045Y-86232D02*
X126186Y-86232D01*
X126017Y-86311D02*
X126115Y-86035D01*
X126214Y-86311D01*
X126481Y-86285D02*
X126467Y-86298D01*
X126425Y-86311D01*
X126397Y-86311D01*
X126354Y-86298D01*
X126326Y-86272D01*
X126312Y-86245D01*
X126298Y-86193D01*
X126298Y-86154D01*
X126312Y-86101D01*
X126326Y-86075D01*
X126354Y-86049D01*
X126397Y-86035D01*
X126425Y-86035D01*
X126467Y-86049D01*
X126481Y-86062D01*
X126762Y-86311D02*
X126593Y-86311D01*
X126678Y-86311D02*
X126678Y-86035D01*
X126650Y-86075D01*
X126622Y-86101D01*
X126593Y-86114D01*
X126945Y-86035D02*
X126973Y-86035D01*
X127001Y-86049D01*
X127015Y-86062D01*
X127029Y-86088D01*
X127043Y-86140D01*
X127043Y-86206D01*
X127029Y-86259D01*
X127015Y-86285D01*
X127001Y-86298D01*
X126973Y-86311D01*
X126945Y-86311D01*
X126917Y-86298D01*
X126903Y-86285D01*
X126889Y-86259D01*
X126875Y-86206D01*
X126875Y-86140D01*
X126889Y-86088D01*
X126903Y-86062D01*
X126917Y-86049D01*
X126945Y-86035D01*
X127353Y-86035D02*
X127521Y-86035D01*
X127437Y-86311D02*
X127437Y-86035D01*
X127662Y-86311D02*
X127634Y-86298D01*
X127620Y-86285D01*
X127606Y-86259D01*
X127606Y-86180D01*
X127620Y-86154D01*
X127634Y-86140D01*
X127662Y-86127D01*
X127704Y-86127D01*
X127732Y-86140D01*
X127746Y-86154D01*
X127760Y-86180D01*
X127760Y-86259D01*
X127746Y-86285D01*
X127732Y-86298D01*
X127704Y-86311D01*
X127662Y-86311D01*
X127887Y-86127D02*
X127887Y-86403D01*
X127887Y-86140D02*
X127915Y-86127D01*
X127971Y-86127D01*
X128000Y-86140D01*
X128014Y-86154D01*
X128028Y-86180D01*
X128028Y-86259D01*
X128014Y-86285D01*
X128000Y-86298D01*
X127971Y-86311D01*
X127915Y-86311D01*
X127887Y-86298D01*
X128253Y-86167D02*
X128295Y-86180D01*
X128309Y-86193D01*
X128323Y-86219D01*
X128323Y-86259D01*
X128309Y-86285D01*
X128295Y-86298D01*
X128267Y-86311D01*
X128154Y-86311D01*
X128154Y-86035D01*
X128253Y-86035D01*
X128281Y-86049D01*
X128295Y-86062D01*
X128309Y-86088D01*
X128309Y-86114D01*
X128295Y-86140D01*
X128281Y-86154D01*
X128253Y-86167D01*
X128154Y-86167D01*
X128843Y-86311D02*
X128745Y-86180D01*
X128674Y-86311D02*
X128674Y-86035D01*
X128787Y-86035D01*
X128815Y-86049D01*
X128829Y-86062D01*
X128843Y-86088D01*
X128843Y-86127D01*
X128829Y-86154D01*
X128815Y-86167D01*
X128787Y-86180D01*
X128674Y-86180D01*
X128970Y-86167D02*
X129068Y-86167D01*
X129110Y-86311D02*
X128970Y-86311D01*
X128970Y-86035D01*
X129110Y-86035D01*
X129195Y-86035D02*
X129293Y-86311D01*
X129392Y-86035D01*
X129687Y-86035D02*
X129870Y-86035D01*
X129771Y-86140D01*
X129813Y-86140D01*
X129841Y-86154D01*
X129856Y-86167D01*
X129870Y-86193D01*
X129870Y-86259D01*
X129856Y-86285D01*
X129841Y-86298D01*
X129813Y-86311D01*
X129729Y-86311D01*
X129701Y-86298D01*
X129687Y-86285D01*
X129996Y-86285D02*
X130010Y-86298D01*
X129996Y-86311D01*
X129982Y-86298D01*
X129996Y-86285D01*
X129996Y-86311D01*
X130193Y-86035D02*
X130221Y-86035D01*
X130249Y-86049D01*
X130263Y-86062D01*
X130277Y-86088D01*
X130291Y-86140D01*
X130291Y-86206D01*
X130277Y-86259D01*
X130263Y-86285D01*
X130249Y-86298D01*
X130221Y-86311D01*
X130193Y-86311D01*
X130165Y-86298D01*
X130151Y-86285D01*
X130137Y-86259D01*
X130123Y-86206D01*
X130123Y-86140D01*
X130137Y-86088D01*
X130151Y-86062D01*
X130165Y-86049D01*
X130193Y-86035D01*
X126158Y-86538D02*
X126129Y-86525D01*
X126073Y-86525D01*
X126045Y-86538D01*
X126017Y-86564D01*
X126003Y-86591D01*
X126003Y-86643D01*
X126017Y-86669D01*
X126045Y-86696D01*
X126073Y-86709D01*
X126129Y-86709D01*
X126158Y-86696D01*
X126101Y-86433D02*
X126031Y-86446D01*
X125961Y-86486D01*
X125919Y-86551D01*
X125904Y-86617D01*
X125919Y-86682D01*
X125961Y-86748D01*
X126031Y-86787D01*
X126101Y-86801D01*
X126172Y-86787D01*
X126242Y-86748D01*
X126284Y-86682D01*
X126298Y-86617D01*
X126284Y-86551D01*
X126242Y-86486D01*
X126172Y-86446D01*
X126101Y-86433D01*
X126636Y-86669D02*
X126776Y-86669D01*
X126607Y-86748D02*
X126706Y-86472D01*
X126804Y-86748D01*
X127226Y-86604D02*
X127268Y-86617D01*
X127282Y-86630D01*
X127296Y-86656D01*
X127296Y-86696D01*
X127282Y-86722D01*
X127268Y-86735D01*
X127240Y-86748D01*
X127128Y-86748D01*
X127128Y-86472D01*
X127226Y-86472D01*
X127254Y-86486D01*
X127268Y-86499D01*
X127282Y-86525D01*
X127282Y-86551D01*
X127268Y-86577D01*
X127254Y-86591D01*
X127226Y-86604D01*
X127128Y-86604D01*
X127550Y-86564D02*
X127550Y-86748D01*
X127423Y-86564D02*
X127423Y-86709D01*
X127437Y-86735D01*
X127465Y-86748D01*
X127507Y-86748D01*
X127535Y-86735D01*
X127550Y-86722D01*
X127690Y-86748D02*
X127690Y-86564D01*
X127690Y-86617D02*
X127704Y-86591D01*
X127718Y-86577D01*
X127746Y-86564D01*
X127775Y-86564D01*
X127873Y-86748D02*
X127873Y-86564D01*
X127873Y-86617D02*
X127887Y-86591D01*
X127901Y-86577D01*
X127929Y-86564D01*
X127957Y-86564D01*
X128098Y-86748D02*
X128070Y-86735D01*
X128056Y-86722D01*
X128042Y-86696D01*
X128042Y-86617D01*
X128056Y-86591D01*
X128070Y-86577D01*
X128098Y-86564D01*
X128140Y-86564D01*
X128168Y-86577D01*
X128182Y-86591D01*
X128196Y-86617D01*
X128196Y-86696D01*
X128182Y-86722D01*
X128168Y-86735D01*
X128140Y-86748D01*
X128098Y-86748D01*
X128295Y-86564D02*
X128351Y-86748D01*
X128407Y-86617D01*
X128464Y-86748D01*
X128520Y-86564D01*
X128618Y-86735D02*
X128646Y-86748D01*
X128703Y-86748D01*
X128731Y-86735D01*
X128745Y-86709D01*
X128745Y-86696D01*
X128731Y-86669D01*
X128703Y-86656D01*
X128660Y-86656D01*
X128632Y-86643D01*
X128618Y-86617D01*
X128618Y-86604D01*
X128632Y-86577D01*
X128660Y-86564D01*
X128703Y-86564D01*
X128731Y-86577D01*
X129082Y-86499D02*
X129096Y-86486D01*
X129124Y-86472D01*
X129195Y-86472D01*
X129223Y-86486D01*
X129237Y-86499D01*
X129251Y-86525D01*
X129251Y-86551D01*
X129237Y-86591D01*
X129068Y-86748D01*
X129251Y-86748D01*
X129434Y-86472D02*
X129462Y-86472D01*
X129490Y-86486D01*
X129504Y-86499D01*
X129518Y-86525D01*
X129532Y-86577D01*
X129532Y-86643D01*
X129518Y-86696D01*
X129504Y-86722D01*
X129490Y-86735D01*
X129462Y-86748D01*
X129434Y-86748D01*
X129406Y-86735D01*
X129392Y-86722D01*
X129377Y-86696D01*
X129363Y-86643D01*
X129363Y-86577D01*
X129377Y-86525D01*
X129392Y-86499D01*
X129406Y-86486D01*
X129434Y-86472D01*
X129813Y-86748D02*
X129645Y-86748D01*
X129729Y-86748D02*
X129729Y-86472D01*
X129701Y-86512D01*
X129673Y-86538D01*
X129645Y-86551D01*
X130066Y-86472D02*
X130010Y-86472D01*
X129982Y-86486D01*
X129968Y-86499D01*
X129940Y-86538D01*
X129926Y-86591D01*
X129926Y-86696D01*
X129940Y-86722D01*
X129954Y-86735D01*
X129982Y-86748D01*
X130038Y-86748D01*
X130066Y-86735D01*
X130080Y-86722D01*
X130095Y-86696D01*
X130095Y-86630D01*
X130080Y-86604D01*
X130066Y-86591D01*
X130038Y-86577D01*
X129982Y-86577D01*
X129954Y-86591D01*
X129940Y-86604D01*
X129926Y-86630D01*
X125581Y-87106D02*
X125722Y-87106D01*
X125553Y-87185D02*
X125651Y-86909D01*
X125750Y-87185D01*
X125989Y-87185D02*
X125848Y-87185D01*
X125848Y-86909D01*
X126228Y-87185D02*
X126087Y-87185D01*
X126087Y-86909D01*
X126720Y-87185D02*
X126622Y-87054D01*
X126551Y-87185D02*
X126551Y-86909D01*
X126664Y-86909D01*
X126692Y-86923D01*
X126706Y-86936D01*
X126720Y-86962D01*
X126720Y-87001D01*
X126706Y-87028D01*
X126692Y-87041D01*
X126664Y-87054D01*
X126551Y-87054D01*
X126847Y-87185D02*
X126847Y-86909D01*
X127142Y-86923D02*
X127114Y-86909D01*
X127071Y-86909D01*
X127029Y-86923D01*
X127001Y-86949D01*
X126987Y-86975D01*
X126973Y-87028D01*
X126973Y-87067D01*
X126987Y-87119D01*
X127001Y-87146D01*
X127029Y-87172D01*
X127071Y-87185D01*
X127100Y-87185D01*
X127142Y-87172D01*
X127156Y-87159D01*
X127156Y-87067D01*
X127100Y-87067D01*
X127282Y-87185D02*
X127282Y-86909D01*
X127282Y-87041D02*
X127451Y-87041D01*
X127451Y-87185D02*
X127451Y-86909D01*
X127550Y-86909D02*
X127718Y-86909D01*
X127634Y-87185D02*
X127634Y-86909D01*
X127803Y-87172D02*
X127845Y-87185D01*
X127915Y-87185D01*
X127943Y-87172D01*
X127957Y-87159D01*
X127971Y-87133D01*
X127971Y-87106D01*
X127957Y-87080D01*
X127943Y-87067D01*
X127915Y-87054D01*
X127859Y-87041D01*
X127831Y-87028D01*
X127817Y-87014D01*
X127803Y-86988D01*
X127803Y-86962D01*
X127817Y-86936D01*
X127831Y-86923D01*
X127859Y-86909D01*
X127929Y-86909D01*
X127971Y-86923D01*
X128492Y-87185D02*
X128393Y-87054D01*
X128323Y-87185D02*
X128323Y-86909D01*
X128435Y-86909D01*
X128464Y-86923D01*
X128478Y-86936D01*
X128492Y-86962D01*
X128492Y-87001D01*
X128478Y-87028D01*
X128464Y-87041D01*
X128435Y-87054D01*
X128323Y-87054D01*
X128618Y-87041D02*
X128717Y-87041D01*
X128759Y-87185D02*
X128618Y-87185D01*
X128618Y-86909D01*
X128759Y-86909D01*
X128871Y-87172D02*
X128913Y-87185D01*
X128984Y-87185D01*
X129012Y-87172D01*
X129026Y-87159D01*
X129040Y-87133D01*
X129040Y-87106D01*
X129026Y-87080D01*
X129012Y-87067D01*
X128984Y-87054D01*
X128928Y-87041D01*
X128899Y-87028D01*
X128885Y-87014D01*
X128871Y-86988D01*
X128871Y-86962D01*
X128885Y-86936D01*
X128899Y-86923D01*
X128928Y-86909D01*
X128998Y-86909D01*
X129040Y-86923D01*
X129167Y-87041D02*
X129265Y-87041D01*
X129307Y-87185D02*
X129167Y-87185D01*
X129167Y-86909D01*
X129307Y-86909D01*
X129602Y-87185D02*
X129504Y-87054D01*
X129434Y-87185D02*
X129434Y-86909D01*
X129546Y-86909D01*
X129574Y-86923D01*
X129588Y-86936D01*
X129602Y-86962D01*
X129602Y-87001D01*
X129588Y-87028D01*
X129574Y-87041D01*
X129546Y-87054D01*
X129434Y-87054D01*
X129687Y-86909D02*
X129785Y-87185D01*
X129884Y-86909D01*
X129982Y-87041D02*
X130080Y-87041D01*
X130123Y-87185D02*
X129982Y-87185D01*
X129982Y-86909D01*
X130123Y-86909D01*
X130249Y-87185D02*
X130249Y-86909D01*
X130320Y-86909D01*
X130362Y-86923D01*
X130390Y-86949D01*
X130404Y-86975D01*
X130418Y-87028D01*
X130418Y-87067D01*
X130404Y-87119D01*
X130390Y-87146D01*
X130362Y-87172D01*
X130320Y-87185D01*
X130249Y-87185D01*
G54D12*
X119600Y-101800D03*
G54D13*
X119600Y-100800D03*
X120600Y-101800D03*
X120600Y-100800D03*
X121600Y-101800D03*
X121600Y-100800D03*
X122600Y-101800D03*
X122600Y-100800D03*
X123600Y-101800D03*
X123600Y-100800D03*
X124600Y-101800D03*
X124600Y-100800D03*
X125600Y-101800D03*
X125600Y-100800D03*
X126600Y-101800D03*
X126600Y-100800D03*
X127600Y-101800D03*
X127600Y-100800D03*
X128600Y-101800D03*
X128600Y-100800D03*
X138140Y-106480D03*
X142140Y-106480D03*
X130550Y-106750D03*
X130550Y-110750D03*
X136100Y-110970D03*
X136100Y-106970D03*
X137040Y-106975D03*
X137040Y-110975D03*
X138020Y-110960D03*
X142020Y-110960D03*
X142120Y-105320D03*
X138120Y-105320D03*
G54D14*
X119050Y-109000D03*
X119050Y-111100D03*
X119550Y-109000D03*
X120050Y-109000D03*
X120550Y-109000D03*
X119550Y-111100D03*
X120050Y-111100D03*
X120550Y-111100D03*
G54D15*
X131650Y-107700D03*
G54D16*
X131650Y-108700D03*
X131650Y-109700D03*
X134650Y-109700D03*
X134650Y-108700D03*
X134650Y-107700D03*
G54D17*
X139520Y-102030D03*
G54D18*
X139520Y-104030D03*
G54D17*
X139520Y-103030D03*
G54D19*
X133020Y-103030D03*
G54D16*
X141880Y-108780D03*
X139880Y-108780D03*
G54D20*
X124250Y-107300D03*
X118856Y-107300D03*
X124644Y-112615D03*
X118463Y-112615D03*
G54D16*
X141880Y-109740D03*
X139880Y-109740D03*
X141880Y-107640D03*
X139880Y-107640D03*
G54D21*
X128170Y-112070D03*
X129470Y-112070D03*
X128200Y-110000D03*
X129500Y-110000D03*
G54D22*
X125140Y-111034D03*
X125396Y-111034D03*
X125652Y-111034D03*
X125908Y-111034D03*
X126162Y-111034D03*
X126418Y-111034D03*
X126674Y-111034D03*
X126930Y-111034D03*
X126930Y-108696D03*
X126674Y-108696D03*
X126418Y-108696D03*
X126162Y-108696D03*
X125908Y-108696D03*
X125652Y-108696D03*
X125396Y-108696D03*
X125140Y-108696D03*
G54D23*
X126035Y-109865D03*
G54D24*
X126674Y-112275D03*
X125926Y-112275D03*
G54D25*
X128600Y-107974D03*
X128600Y-107226D03*
X124350Y-110401D03*
X124350Y-111149D03*
X127700Y-107724D03*
X127700Y-106976D03*
X126900Y-107474D03*
X126900Y-106726D03*
G54D26*
X146670Y-97740D03*
X147220Y-95390D03*
X146370Y-96390D03*
G54D27*
X125550Y-95600D03*
X125550Y-95860D03*
X125550Y-96120D03*
X125550Y-96370D03*
X125550Y-96630D03*
X125550Y-96890D03*
X125550Y-97140D03*
X125550Y-97400D03*
X125550Y-97650D03*
X125550Y-97910D03*
X127650Y-97910D03*
X127650Y-97650D03*
X127650Y-97400D03*
X127650Y-97140D03*
X127650Y-96890D03*
X127650Y-96630D03*
X127650Y-96370D03*
X127650Y-96120D03*
X127650Y-95860D03*
X127650Y-95600D03*
G54D21*
X120650Y-94100D03*
X121950Y-94100D03*
G54D28*
X122900Y-93050D03*
X122900Y-94350D03*
X122900Y-90400D03*
X122900Y-91700D03*
G54D21*
X120650Y-92800D03*
X121950Y-92800D03*
G54D28*
X121650Y-90400D03*
X121650Y-91700D03*
G54D29*
X125555Y-91131D03*
X125555Y-90381D03*
X127665Y-92201D03*
X127665Y-91451D03*
X123830Y-90996D03*
X123830Y-91746D03*
X126510Y-90396D03*
X126510Y-91146D03*
X123800Y-93225D03*
X123800Y-93975D03*
X127670Y-93636D03*
X127670Y-92886D03*
G54D30*
X138700Y-109054D03*
G54D31*
X138700Y-108266D03*
G54D32*
X126814Y-93511D03*
X126814Y-93261D03*
X126814Y-93011D03*
X126814Y-92761D03*
X126814Y-92511D03*
X126814Y-92261D03*
X126814Y-92011D03*
X126814Y-91761D03*
X124696Y-91761D03*
X124696Y-92011D03*
X124696Y-92261D03*
X124696Y-92511D03*
X124696Y-92761D03*
X124696Y-93011D03*
X124696Y-93261D03*
X124696Y-93511D03*
G54D28*
X123350Y-87950D03*
X123350Y-89250D03*
G54D33*
X142020Y-112040D03*
X138020Y-112040D03*
G54D34*
X143355Y-105690D03*
X149064Y-105690D03*
X143355Y-109520D03*
X149064Y-109520D03*
G54D35*
X141960Y-94349D03*
X141960Y-96711D03*
G54D36*
X141469Y-99320D03*
X143831Y-99320D03*
G54D29*
X137130Y-99375D03*
X137130Y-100125D03*
G54D37*
X141340Y-98005D03*
X142090Y-98005D03*
G54D29*
X136260Y-97380D03*
X136260Y-98130D03*
G54D17*
X137720Y-95600D03*
X138720Y-95600D03*
G54D18*
X139720Y-95600D03*
G54D38*
X137707Y-96810D03*
X137707Y-97310D03*
X137707Y-97810D03*
X137707Y-98310D03*
X139753Y-98310D03*
X139753Y-97810D03*
X139753Y-97310D03*
X139753Y-96810D03*
G54D39*
X135100Y-97996D03*
X135100Y-99984D03*
G54D40*
X145558Y-94013D03*
X143570Y-94013D03*
G54D41*
X138433Y-99870D03*
G54D42*
X139575Y-99377D03*
X139575Y-100362D03*
G54D29*
X128464Y-91451D03*
X128464Y-92201D03*
X128458Y-93625D03*
X128458Y-92875D03*
G54D43*
X133215Y-95194D03*
X133215Y-97556D03*
G54D44*
X147070Y-112276D03*
X143880Y-112246D03*
X148700Y-101056D03*
X146700Y-100006D03*
X148560Y-94682D03*
X119250Y-93856D03*
X119600Y-90556D03*
X123350Y-86206D03*
X120850Y-87506D03*
X132290Y-93166D03*
X129400Y-89056D03*
G54D45*
X145210Y-96230D03*
X145210Y-100230D03*
X144700Y-101700D03*
X140700Y-101700D03*
X144700Y-103100D03*
X140700Y-103100D03*
G54D37*
X129925Y-98000D03*
X129175Y-98000D03*
G54D44*
X131280Y-98876D03*
X131280Y-97006D03*
G54D12*
X122500Y-103300D03*
G54D13*
X122500Y-104300D03*
X122500Y-105300D03*
G54D46*
X142250Y-89750D03*
X148250Y-89750D03*
G54D24*
X126614Y-103000D03*
X125866Y-103000D03*
X126624Y-104200D03*
X125876Y-104200D03*
G54D47*
X124963Y-103000D03*
X124137Y-103000D03*
X124963Y-104200D03*
X124137Y-104200D03*
G54D48*
X147900Y-99500D03*
X147900Y-96500D03*
X148900Y-99500D03*
X148900Y-96500D03*
X146100Y-103300D03*
X149100Y-103300D03*
X146100Y-102400D03*
X149100Y-102400D03*
G54D30*
X120644Y-95750D03*
G54D31*
X119856Y-95750D03*
G54D30*
X119644Y-97700D03*
G54D31*
X118856Y-97700D03*
G54D49*
X135450Y-91300D03*
X139650Y-91300D03*
G54D50*
X133850Y-113300D03*
X133850Y-84950D03*
G54D51*
X132850Y-91750D03*
X132850Y-91250D03*
X133800Y-91250D03*
X133350Y-91250D03*
X125450Y-106800D03*
X126150Y-106800D03*
X125800Y-107200D03*
X125450Y-107200D03*
X126150Y-107200D03*
X125800Y-106800D03*
X125450Y-107600D03*
X126150Y-107600D03*
X125800Y-107600D03*
X133800Y-91750D03*
X133350Y-91750D03*
X133350Y-92250D03*
X134250Y-92250D03*
X134700Y-92750D03*
X133800Y-92750D03*
X134250Y-93250D03*
X134700Y-93750D03*
X133800Y-93750D03*
X133300Y-94200D03*
X134250Y-94200D03*
X134700Y-94200D03*
X133800Y-94200D03*
X133300Y-93750D03*
X134250Y-93750D03*
X134700Y-93250D03*
X133800Y-93250D03*
X134250Y-92750D03*
X134700Y-92250D03*
X133800Y-92250D03*
G54D52*
X124300Y-97900D03*
X126100Y-96550D03*
X125750Y-99650D03*
X127100Y-98350D03*
X126150Y-96150D03*
X126100Y-96900D03*
X126350Y-95800D03*
X123650Y-100100D03*
X127300Y-104200D03*
G54D51*
X120560Y-111780D03*
G54D52*
X128750Y-106400D03*
G54D51*
X126835Y-95810D03*
X133480Y-99775D03*
X126900Y-104900D03*
X127700Y-104900D03*
X127300Y-104900D03*
X127700Y-104450D03*
X121800Y-112500D03*
X121800Y-112100D03*
X122600Y-112100D03*
X122200Y-112100D03*
X122200Y-112500D03*
X123050Y-112500D03*
X122600Y-112500D03*
X118300Y-96150D03*
X118300Y-95750D03*
X118300Y-96550D03*
X118300Y-95350D03*
X118700Y-88950D03*
X118700Y-88450D03*
X118700Y-87950D03*
X148450Y-87250D03*
X148900Y-86750D03*
X148900Y-87750D03*
X148900Y-87250D03*
X148450Y-86750D03*
X148450Y-87750D03*
X123550Y-112500D03*
X126110Y-91650D03*
X124650Y-89050D03*
X124650Y-89500D03*
X125100Y-89050D03*
X125550Y-89500D03*
X126000Y-89500D03*
X125550Y-89050D03*
X125100Y-89500D03*
X119050Y-110050D03*
X126000Y-89050D03*
X126450Y-89050D03*
X126450Y-89500D03*
X123150Y-96650D03*
X123550Y-96250D03*
X123950Y-95850D03*
X123950Y-96250D03*
X123550Y-96650D03*
X142500Y-95100D03*
X136300Y-99700D03*
X136300Y-99300D03*
X136700Y-98500D03*
X136700Y-98900D03*
X136300Y-98900D03*
X136300Y-98500D03*
X142100Y-95100D03*
X141700Y-95100D03*
X141700Y-93200D03*
X141700Y-93600D03*
X142500Y-93600D03*
X142500Y-93200D03*
X142100Y-93200D03*
X126110Y-92021D03*
X129500Y-99950D03*
G54D53*
X132850Y-91250D02*
X132850Y-91750D01*
X133350Y-91250D02*
X133800Y-91250D01*
X125450Y-106800D02*
X125800Y-106800D01*
X125800Y-107200D02*
X125450Y-107200D01*
X126150Y-106800D02*
X126150Y-107200D01*
X125450Y-107600D02*
X125800Y-107600D01*
X126162Y-107612D02*
X126150Y-107600D01*
X126162Y-107612D02*
X126162Y-108150D01*
X133800Y-91750D02*
X134288Y-91750D01*
X133350Y-92250D02*
X133350Y-91750D01*
X134288Y-91750D02*
X134738Y-91300D01*
X133350Y-92250D02*
X133206Y-92250D01*
X133206Y-92250D02*
X132290Y-93166D01*
X133800Y-92250D02*
X134250Y-92250D01*
X134700Y-92250D02*
X134700Y-92750D01*
X134250Y-92750D02*
X133800Y-92750D01*
X133800Y-93250D02*
X134250Y-93250D01*
X134700Y-93250D02*
X134700Y-93750D01*
X134250Y-93750D02*
X133800Y-93750D01*
X133300Y-93750D02*
X133300Y-94200D01*
X133800Y-94200D02*
X134250Y-94200D01*
X133215Y-95194D02*
X133706Y-95194D01*
X133706Y-95194D02*
X134700Y-94200D01*
X125396Y-108696D02*
X125396Y-107860D01*
X125396Y-107860D02*
X125395Y-107860D01*
X125652Y-108696D02*
X125652Y-107967D01*
X125652Y-107967D02*
X125545Y-107860D01*
X125908Y-108696D02*
X125908Y-107928D01*
X125908Y-107928D02*
X125840Y-107860D01*
X126162Y-108696D02*
X126162Y-108150D01*
X126162Y-108150D02*
X126162Y-108132D01*
X125890Y-107860D02*
X125840Y-107860D01*
X126162Y-108132D02*
X125890Y-107860D01*
X125840Y-107860D02*
X125705Y-107860D01*
X125705Y-107860D02*
X125545Y-107860D01*
X125545Y-107860D02*
X125395Y-107860D01*
X147900Y-96500D02*
X147900Y-97200D01*
X147360Y-97740D02*
X146670Y-97740D01*
X147900Y-97200D02*
X147360Y-97740D01*
X148900Y-96500D02*
X147900Y-96500D01*
G54D54*
X148250Y-89750D02*
X148250Y-92650D01*
X148250Y-92650D02*
X147317Y-93583D01*
X147294Y-93583D02*
X147317Y-93583D01*
X147317Y-93583D02*
X147460Y-93583D01*
X147460Y-93583D02*
X148560Y-94682D01*
X147220Y-95390D02*
X147220Y-94462D01*
X147220Y-94462D02*
X146771Y-94013D01*
X143831Y-99320D02*
X143831Y-97669D01*
X145558Y-94338D02*
X145558Y-94013D01*
X144256Y-95640D02*
X145558Y-94338D01*
X144256Y-97244D02*
X144256Y-95640D01*
X143831Y-97669D02*
X144256Y-97244D01*
G54D55*
X145558Y-94013D02*
X146771Y-94013D01*
X146771Y-94013D02*
X146864Y-94013D01*
X146864Y-94013D02*
X147294Y-93583D01*
G54D53*
X124750Y-97650D02*
X124550Y-97650D01*
X125550Y-97650D02*
X124750Y-97650D01*
X124550Y-97650D02*
X124300Y-97900D01*
X124600Y-100800D02*
X124600Y-100350D01*
X126020Y-96630D02*
X126100Y-96550D01*
X126020Y-96630D02*
X125550Y-96630D01*
X125300Y-99650D02*
X125750Y-99650D01*
X124600Y-100350D02*
X125300Y-99650D01*
X122600Y-100800D02*
X122600Y-100950D01*
X123100Y-103700D02*
X122500Y-104300D01*
X123100Y-102950D02*
X123100Y-103700D01*
X122800Y-102650D02*
X123100Y-102950D01*
X122600Y-102650D02*
X122800Y-102650D01*
X122100Y-102150D02*
X122600Y-102650D01*
X122100Y-101450D02*
X122100Y-102150D01*
X122600Y-100950D02*
X122100Y-101450D01*
X122500Y-105300D02*
X121950Y-104750D01*
X121150Y-101250D02*
X121600Y-100800D01*
X121150Y-102050D02*
X121150Y-101250D01*
X121950Y-102850D02*
X121150Y-102050D01*
X121950Y-104750D02*
X121950Y-102850D01*
X126614Y-103000D02*
X127200Y-103000D01*
X127600Y-102600D02*
X127600Y-101800D01*
X127200Y-103000D02*
X127600Y-102600D01*
X126600Y-101800D02*
X126700Y-101800D01*
X127100Y-98350D02*
X127100Y-101400D01*
X126700Y-101800D02*
X127100Y-101400D01*
X126120Y-96120D02*
X125550Y-96120D01*
X126150Y-96150D02*
X126120Y-96120D01*
X126090Y-96890D02*
X126100Y-96900D01*
X125550Y-96890D02*
X126090Y-96890D01*
X125100Y-101300D02*
X125100Y-100500D01*
X124600Y-101800D02*
X125100Y-101300D01*
X126550Y-99600D02*
X126550Y-98500D01*
X126100Y-100050D02*
X126550Y-99600D01*
X125550Y-100050D02*
X126100Y-100050D01*
X125100Y-100500D02*
X125550Y-100050D01*
X127650Y-97910D02*
X127140Y-97910D01*
X127140Y-97910D02*
X126550Y-98500D01*
X126290Y-95860D02*
X125550Y-95860D01*
X126350Y-95800D02*
X126290Y-95860D01*
X123100Y-100850D02*
X123100Y-101000D01*
X122600Y-101500D02*
X122600Y-101800D01*
X123100Y-101000D02*
X122600Y-101500D01*
X127100Y-97400D02*
X127650Y-97400D01*
X126000Y-98500D02*
X127100Y-97400D01*
X124050Y-98500D02*
X126000Y-98500D01*
X123100Y-99450D02*
X124050Y-98500D01*
X123100Y-100850D02*
X123100Y-99450D01*
X124100Y-99650D02*
X124100Y-99550D01*
X123650Y-100100D02*
X124100Y-99650D01*
X127100Y-97650D02*
X127650Y-97650D01*
X126050Y-98700D02*
X127100Y-97650D01*
X124650Y-98700D02*
X126050Y-98700D01*
X124100Y-99250D02*
X124650Y-98700D01*
X124100Y-99550D02*
X124100Y-99250D01*
X126624Y-104200D02*
X127300Y-104200D01*
G54D54*
X149064Y-105690D02*
X146890Y-105690D01*
X142400Y-104500D02*
X142120Y-104780D01*
X145700Y-104500D02*
X142400Y-104500D01*
X146890Y-105690D02*
X145700Y-104500D01*
X140700Y-101700D02*
X140800Y-101700D01*
X141100Y-102700D02*
X140700Y-103100D01*
X141100Y-102000D02*
X141100Y-102700D01*
X140800Y-101700D02*
X141100Y-102000D01*
G54D56*
X149064Y-105690D02*
X147300Y-105690D01*
X149064Y-109520D02*
X149064Y-105690D01*
X142120Y-105320D02*
X142120Y-104780D01*
X142120Y-104780D02*
X142120Y-104270D01*
G54D57*
X139520Y-103030D02*
X140475Y-103030D01*
X140475Y-103030D02*
X140772Y-103327D01*
X141195Y-104395D02*
X142120Y-105320D01*
X140812Y-103367D02*
X141195Y-103750D01*
X140772Y-103327D02*
X140812Y-103367D01*
X141195Y-103750D02*
X141195Y-104395D01*
G54D56*
X143355Y-109520D02*
X143355Y-106219D01*
X143355Y-106219D02*
X143295Y-106280D01*
X142140Y-106480D02*
X143095Y-106480D01*
X143355Y-106219D02*
X143355Y-105690D01*
X143095Y-106480D02*
X143295Y-106280D01*
X143295Y-106280D02*
X143355Y-106219D01*
X143355Y-109520D02*
X145230Y-109520D01*
X147070Y-111360D02*
X147070Y-112276D01*
X145230Y-109520D02*
X147070Y-111360D01*
G54D53*
X125550Y-97400D02*
X124400Y-97400D01*
X124400Y-97400D02*
X122050Y-99750D01*
X120050Y-109000D02*
X120050Y-109400D01*
X119150Y-99750D02*
X122050Y-99750D01*
X118650Y-100250D02*
X119150Y-99750D01*
X118650Y-105300D02*
X118650Y-100250D01*
X120950Y-107600D02*
X118650Y-105300D01*
X120950Y-109400D02*
X120950Y-107600D01*
X120800Y-109550D02*
X120950Y-109400D01*
X120200Y-109550D02*
X120800Y-109550D01*
X120050Y-109400D02*
X120200Y-109550D01*
X125550Y-97140D02*
X124410Y-97140D01*
X120550Y-107450D02*
X120550Y-109000D01*
X118450Y-105350D02*
X120550Y-107450D01*
X118450Y-100150D02*
X118450Y-105350D01*
X119050Y-99550D02*
X118450Y-100150D01*
X122000Y-99550D02*
X119050Y-99550D01*
X124410Y-97140D02*
X122000Y-99550D01*
X119550Y-109000D02*
X119550Y-109500D01*
X127010Y-97140D02*
X125900Y-98250D01*
X125900Y-98250D02*
X123850Y-98250D01*
X123850Y-98250D02*
X122150Y-99950D01*
X122150Y-99950D02*
X119250Y-99950D01*
X119250Y-99950D02*
X118850Y-100350D01*
X118850Y-100350D02*
X118850Y-105250D01*
X118850Y-105250D02*
X121250Y-107650D01*
X121250Y-107650D02*
X121250Y-108750D01*
X127010Y-97140D02*
X127650Y-97140D01*
X121250Y-109500D02*
X121250Y-108750D01*
X120950Y-109800D02*
X121250Y-109500D01*
X119850Y-109800D02*
X120950Y-109800D01*
X119550Y-109500D02*
X119850Y-109800D01*
G54D56*
X137707Y-96810D02*
X137707Y-95613D01*
X137707Y-95613D02*
X137720Y-95600D01*
G54D54*
X140050Y-91300D02*
X140900Y-91300D01*
X142250Y-89950D02*
X142250Y-89750D01*
X140900Y-91300D02*
X142250Y-89950D01*
X138720Y-95600D02*
X138720Y-93630D01*
X140050Y-92300D02*
X140050Y-91300D01*
X138720Y-93630D02*
X140050Y-92300D01*
G54D58*
X139720Y-95600D02*
X139720Y-95665D01*
X140730Y-96675D02*
X140730Y-96810D01*
X139720Y-95665D02*
X140730Y-96675D01*
X139753Y-96810D02*
X140730Y-96810D01*
X140730Y-96810D02*
X141861Y-96810D01*
X141861Y-96810D02*
X141960Y-96711D01*
G54D54*
X128750Y-106400D02*
X128350Y-106000D01*
G54D56*
X120550Y-111770D02*
X120560Y-111780D01*
X120550Y-111100D02*
X120550Y-111770D01*
G54D54*
X128350Y-106000D02*
X128350Y-102550D01*
X128350Y-102550D02*
X128100Y-102300D01*
X128100Y-102300D02*
X128100Y-101300D01*
X128100Y-101300D02*
X127600Y-100800D01*
G54D56*
X127045Y-95600D02*
X126835Y-95810D01*
X127045Y-95600D02*
X127650Y-95600D01*
G54D54*
X134650Y-108700D02*
X133900Y-108700D01*
X132100Y-110500D02*
X131650Y-110500D01*
X133900Y-108700D02*
X132100Y-110500D01*
X129450Y-108050D02*
X129850Y-108050D01*
X129850Y-108050D02*
X130850Y-109050D01*
X130850Y-109050D02*
X130850Y-110050D01*
X130850Y-110050D02*
X131300Y-110500D01*
X131300Y-110500D02*
X131650Y-110500D01*
X129725Y-96975D02*
X129725Y-91305D01*
X129175Y-98000D02*
X129175Y-97525D01*
X129500Y-97200D02*
X129175Y-97525D01*
X129028Y-90608D02*
X129710Y-91290D01*
X129725Y-96975D02*
X129500Y-97200D01*
X127568Y-90608D02*
X127030Y-91146D01*
X128974Y-90608D02*
X127568Y-90608D01*
X128974Y-90608D02*
X129028Y-90608D01*
X129725Y-91305D02*
X129710Y-91290D01*
G54D59*
X129450Y-107324D02*
X129450Y-100950D01*
X129300Y-108200D02*
X129450Y-108050D01*
X129450Y-108050D02*
X129450Y-107324D01*
X129450Y-100950D02*
X130200Y-100200D01*
X128750Y-108200D02*
X128910Y-108200D01*
X128910Y-108200D02*
X129300Y-108200D01*
G54D54*
X133412Y-99843D02*
X133412Y-99850D01*
X133480Y-99775D02*
X133412Y-99843D01*
X130200Y-100200D02*
X130200Y-99900D01*
X130200Y-99900D02*
X129175Y-98875D01*
X129175Y-98875D02*
X129175Y-98000D01*
X133150Y-99850D02*
X132650Y-99850D01*
X133150Y-99850D02*
X133412Y-99850D01*
X132650Y-99850D02*
X132300Y-100200D01*
X132300Y-100200D02*
X130200Y-100200D01*
X130200Y-100200D02*
X129645Y-100755D01*
X135100Y-98162D02*
X134520Y-98742D01*
X135100Y-97996D02*
X135100Y-98162D01*
X133412Y-99850D02*
X134520Y-98742D01*
X128750Y-108200D02*
X128755Y-108195D01*
G54D59*
X128755Y-108195D02*
X128625Y-108325D01*
X128165Y-109395D02*
X128165Y-108785D01*
G54D55*
X127695Y-109865D02*
X127150Y-109865D01*
G54D59*
X128625Y-108325D02*
X128165Y-108785D01*
G54D55*
X127695Y-109865D02*
X128165Y-109395D01*
G54D58*
X127670Y-93636D02*
X127670Y-93726D01*
X126236Y-93998D02*
X125249Y-93011D01*
X127398Y-93998D02*
X126236Y-93998D01*
X127670Y-93726D02*
X127398Y-93998D01*
G54D54*
X136260Y-97380D02*
X136758Y-97380D01*
X136828Y-97310D02*
X137707Y-97310D01*
X136758Y-97380D02*
X136828Y-97310D01*
X136260Y-97380D02*
X135716Y-97380D01*
X135716Y-97380D02*
X135100Y-97996D01*
X126510Y-91146D02*
X127030Y-91146D01*
X127335Y-91451D02*
X127665Y-91451D01*
X127030Y-91146D02*
X127335Y-91451D01*
X125555Y-91131D02*
X126495Y-91131D01*
X126495Y-91131D02*
X126510Y-91146D01*
G54D56*
X124696Y-93011D02*
X125249Y-93011D01*
X125555Y-92705D02*
X125555Y-91131D01*
X125249Y-93011D02*
X125555Y-92705D01*
G54D58*
X125570Y-91146D02*
X125555Y-91131D01*
X135100Y-97996D02*
X135100Y-98130D01*
X135100Y-97620D02*
X135100Y-97996D01*
X136330Y-97310D02*
X136260Y-97380D01*
G54D55*
X126495Y-91131D02*
X126510Y-91146D01*
G54D53*
X128200Y-110000D02*
X128200Y-112040D01*
X128200Y-112040D02*
X128170Y-112070D01*
X127150Y-109865D02*
X128065Y-109865D01*
X128065Y-109865D02*
X128200Y-110000D01*
X125140Y-108696D02*
X125140Y-109315D01*
X125690Y-109865D02*
X126035Y-109865D01*
X125140Y-109315D02*
X125690Y-109865D01*
X126930Y-108696D02*
X126930Y-109300D01*
X126365Y-109865D02*
X126035Y-109865D01*
X126930Y-109300D02*
X126365Y-109865D01*
X124350Y-110401D02*
X125039Y-110401D01*
X125039Y-110401D02*
X125140Y-110300D01*
X125140Y-111034D02*
X125140Y-110300D01*
X125575Y-109865D02*
X126035Y-109865D01*
X125140Y-110300D02*
X125575Y-109865D01*
X125396Y-111034D02*
X125396Y-110504D01*
X125396Y-110504D02*
X126035Y-109865D01*
X125652Y-111034D02*
X125652Y-110248D01*
X125652Y-110248D02*
X126035Y-109865D01*
X125908Y-111034D02*
X125908Y-109992D01*
X125908Y-109992D02*
X126035Y-109865D01*
X126162Y-111034D02*
X126162Y-109992D01*
X126162Y-109992D02*
X126035Y-109865D01*
X126930Y-111034D02*
X126930Y-110335D01*
X126460Y-109865D02*
X126035Y-109865D01*
X126930Y-110335D02*
X126460Y-109865D01*
G54D55*
X126035Y-109865D02*
X127150Y-109865D01*
G54D56*
X128458Y-93625D02*
X128458Y-95840D01*
X128178Y-96120D02*
X128372Y-95926D01*
X128178Y-96120D02*
X127650Y-96120D01*
X128458Y-95840D02*
X128372Y-95926D01*
X128464Y-91451D02*
X128841Y-91451D01*
X128352Y-96370D02*
X127650Y-96370D01*
X128352Y-96370D02*
X128660Y-96062D01*
X129020Y-95702D02*
X128660Y-96062D01*
X129020Y-91630D02*
X129020Y-95702D01*
X128841Y-91451D02*
X129020Y-91630D01*
G54D57*
X120650Y-94100D02*
X119493Y-94100D01*
X119493Y-94100D02*
X119250Y-93856D01*
G54D60*
X120650Y-92800D02*
X120600Y-92800D01*
X119600Y-91800D02*
X119600Y-90556D01*
X120600Y-92800D02*
X119600Y-91800D01*
X123350Y-86206D02*
X123350Y-87950D01*
X120850Y-87506D02*
X120850Y-87650D01*
X121650Y-88450D02*
X121650Y-90400D01*
X120850Y-87650D02*
X121650Y-88450D01*
G54D53*
X124875Y-95875D02*
X124875Y-95025D01*
X127590Y-94750D02*
X128090Y-95250D01*
X125150Y-94750D02*
X127590Y-94750D01*
X124875Y-95025D02*
X125150Y-94750D01*
X126900Y-104900D02*
X124550Y-104900D01*
X127700Y-104900D02*
X127300Y-104900D01*
X124137Y-104487D02*
X124137Y-104200D01*
X124550Y-104900D02*
X124137Y-104487D01*
X121800Y-112100D02*
X122200Y-112100D01*
X122200Y-112100D02*
X122200Y-112500D01*
X124137Y-103000D02*
X124137Y-104200D01*
X125550Y-97910D02*
X125940Y-97910D01*
X127290Y-95860D02*
X127650Y-95860D01*
X127150Y-96000D02*
X127290Y-95860D01*
X127150Y-96700D02*
X127150Y-96000D01*
X125940Y-97910D02*
X127150Y-96700D01*
G54D55*
X128600Y-107226D02*
X128600Y-107050D01*
X127950Y-106400D02*
X127960Y-106400D01*
X128600Y-107050D02*
X127950Y-106400D01*
G54D53*
X127700Y-106976D02*
X128350Y-106976D01*
X128350Y-106976D02*
X128600Y-107226D01*
X118300Y-96150D02*
X118300Y-95750D01*
X118700Y-95750D02*
X118700Y-97544D01*
X118700Y-97544D02*
X118856Y-97700D01*
X119856Y-95750D02*
X118700Y-95750D01*
X122625Y-95775D02*
X122275Y-95775D01*
X118100Y-89550D02*
X118700Y-88950D01*
X118100Y-91800D02*
X118100Y-90150D01*
X118100Y-95150D02*
X118150Y-95200D01*
X118100Y-91800D02*
X118100Y-95150D01*
X118150Y-95200D02*
X118300Y-95350D01*
X118300Y-95350D02*
X118700Y-95750D01*
X118100Y-90150D02*
X118100Y-89550D01*
X119550Y-96600D02*
X118700Y-95750D01*
X121450Y-96600D02*
X119550Y-96600D01*
X122275Y-95775D02*
X121450Y-96600D01*
X122600Y-95750D02*
X122625Y-95775D01*
X122625Y-95775D02*
X123150Y-96300D01*
X123150Y-96300D02*
X123150Y-96650D01*
X143570Y-91330D02*
X147150Y-87750D01*
X148450Y-87750D02*
X148900Y-87750D01*
X147150Y-87750D02*
X148450Y-87750D01*
X143570Y-94013D02*
X143570Y-91330D01*
X148900Y-86750D02*
X148900Y-87250D01*
X148450Y-87250D02*
X148450Y-86750D01*
X123050Y-112500D02*
X123550Y-112500D01*
X123050Y-112500D02*
X123050Y-112000D01*
X126110Y-91650D02*
X126100Y-91650D01*
X125550Y-89500D02*
X126000Y-89500D01*
X125100Y-89050D02*
X125550Y-89050D01*
X124650Y-89500D02*
X125100Y-89500D01*
X129470Y-112070D02*
X129470Y-111430D01*
X130150Y-110750D02*
X130550Y-110750D01*
X129470Y-111430D02*
X130150Y-110750D01*
X129424Y-109924D02*
X129500Y-110000D01*
X119050Y-110050D02*
X119050Y-110500D01*
X126000Y-89050D02*
X126450Y-89050D01*
X126510Y-89560D02*
X126510Y-90396D01*
X126510Y-89560D02*
X126450Y-89500D01*
X125550Y-95600D02*
X125150Y-95600D01*
X125150Y-95600D02*
X124875Y-95875D01*
X124875Y-95875D02*
X123600Y-97150D01*
X123600Y-97150D02*
X123450Y-97150D01*
X123550Y-96650D02*
X123550Y-96250D01*
X123950Y-96250D02*
X123950Y-95850D01*
X123450Y-97150D02*
X123300Y-97150D01*
X123300Y-97150D02*
X123150Y-97000D01*
X123150Y-97000D02*
X123150Y-96650D01*
X126900Y-106726D02*
X126900Y-106600D01*
X127100Y-106400D02*
X127550Y-106400D01*
X127550Y-106400D02*
X127960Y-106400D01*
X126900Y-106600D02*
X127100Y-106400D01*
X119050Y-110500D02*
X119050Y-111100D01*
X125425Y-112275D02*
X125150Y-112000D01*
X125150Y-112000D02*
X123050Y-112000D01*
X125425Y-112275D02*
X125926Y-112275D01*
X127700Y-106660D02*
X127700Y-106976D01*
X127960Y-106400D02*
X127700Y-106660D01*
X124696Y-92261D02*
X125144Y-92261D01*
X125059Y-90381D02*
X125555Y-90381D01*
X124960Y-90480D02*
X125059Y-90381D01*
X124960Y-91280D02*
X124960Y-90480D01*
X125280Y-91600D02*
X124960Y-91280D01*
X125280Y-92125D02*
X125280Y-91600D01*
X125144Y-92261D02*
X125280Y-92125D01*
X129400Y-89056D02*
X127993Y-89056D01*
G54D56*
X126654Y-90396D02*
X126950Y-90100D01*
X126654Y-90396D02*
X126510Y-90396D01*
G54D53*
X127993Y-89056D02*
X126950Y-90100D01*
X125555Y-90381D02*
X125474Y-90300D01*
G54D54*
X145200Y-101700D02*
X145400Y-101700D01*
X144700Y-101700D02*
X145200Y-101700D01*
X145400Y-101700D02*
X146100Y-102400D01*
X146100Y-103300D02*
X146100Y-102400D01*
X144700Y-101700D02*
X144700Y-100740D01*
X144700Y-100740D02*
X145210Y-100230D01*
G54D53*
X137130Y-99375D02*
X136725Y-99375D01*
X136400Y-99700D02*
X136300Y-99700D01*
X136725Y-99375D02*
X136400Y-99700D01*
X136300Y-99700D02*
X136000Y-100000D01*
X136300Y-98900D02*
X136300Y-99300D01*
X135116Y-100000D02*
X135100Y-99984D01*
X136000Y-100000D02*
X135116Y-100000D01*
X136700Y-98900D02*
X136300Y-98900D01*
X136260Y-98460D02*
X136260Y-98130D01*
X136260Y-98460D02*
X136300Y-98500D01*
X142100Y-95100D02*
X142500Y-95100D01*
X141700Y-93200D02*
X142100Y-93200D01*
X142500Y-93600D02*
X142500Y-93200D01*
X141960Y-93340D02*
X142100Y-93200D01*
X141960Y-93340D02*
X141960Y-93900D01*
X143570Y-94030D02*
X142500Y-95100D01*
X143570Y-94013D02*
X143570Y-94030D01*
X143115Y-97215D02*
X143115Y-94468D01*
X143115Y-94468D02*
X143570Y-94013D01*
X127650Y-95860D02*
X128050Y-95860D01*
X128050Y-95860D02*
X128200Y-95710D01*
X128200Y-95710D02*
X128200Y-95360D01*
X128200Y-95360D02*
X128090Y-95250D01*
X126080Y-95600D02*
X125550Y-95600D01*
X131280Y-98876D02*
X132353Y-98876D01*
X132353Y-98876D02*
X133215Y-98015D01*
X133215Y-98015D02*
X133215Y-97556D01*
G54D56*
X135638Y-99984D02*
X135100Y-99984D01*
X141960Y-93890D02*
X141960Y-93900D01*
X141960Y-93900D02*
X141960Y-94349D01*
X141960Y-94349D02*
X143234Y-94349D01*
X143234Y-94349D02*
X143570Y-94013D01*
G54D58*
X142770Y-97560D02*
X143115Y-97215D01*
X142090Y-97560D02*
X142770Y-97560D01*
G54D53*
X126115Y-92016D02*
X126110Y-92021D01*
X125555Y-90381D02*
X126495Y-90381D01*
X126495Y-90381D02*
X126510Y-90396D01*
G54D58*
X139753Y-97310D02*
X140445Y-97310D01*
X142090Y-97560D02*
X142090Y-98005D01*
X141985Y-97455D02*
X142090Y-97560D01*
X140590Y-97455D02*
X141985Y-97455D01*
X140445Y-97310D02*
X140590Y-97455D01*
X139753Y-97810D02*
X139753Y-97310D01*
X137707Y-98310D02*
X136440Y-98310D01*
X136440Y-98310D02*
X136260Y-98130D01*
X143224Y-93667D02*
X143570Y-94013D01*
G54D53*
X124696Y-92261D02*
X124100Y-92261D01*
X124100Y-92261D02*
X123840Y-92521D01*
X123850Y-92511D02*
X123840Y-92521D01*
X124080Y-92761D02*
X123840Y-92521D01*
X124696Y-92761D02*
X124080Y-92761D01*
X129500Y-110000D02*
X129800Y-110000D01*
X129800Y-110000D02*
X130550Y-110750D01*
X126814Y-93011D02*
X126280Y-93011D01*
X126280Y-93011D02*
X126110Y-92841D01*
X126814Y-92261D02*
X126225Y-92261D01*
X126225Y-92261D02*
X126110Y-92376D01*
X126814Y-93511D02*
X126320Y-93511D01*
X126370Y-91761D02*
X126814Y-91761D01*
X126115Y-92016D02*
X126370Y-91761D01*
X126110Y-93301D02*
X126110Y-92841D01*
X126110Y-92841D02*
X126110Y-92376D01*
X126110Y-92376D02*
X126110Y-92021D01*
X126320Y-93511D02*
X126110Y-93301D01*
X125926Y-112275D02*
X125926Y-112696D01*
X129470Y-112715D02*
X129470Y-112070D01*
X129220Y-112965D02*
X129470Y-112715D01*
X126195Y-112965D02*
X129220Y-112965D01*
X125926Y-112696D02*
X126195Y-112965D01*
G54D56*
X128464Y-92201D02*
X127665Y-92201D01*
X126814Y-92511D02*
X127267Y-92511D01*
X127577Y-92201D02*
X127665Y-92201D01*
X127267Y-92511D02*
X127577Y-92201D01*
G54D54*
X139575Y-99377D02*
X141411Y-99377D01*
X141411Y-99377D02*
X141469Y-99320D01*
G54D58*
X139575Y-99377D02*
X139472Y-99377D01*
X138380Y-97810D02*
X137707Y-97810D01*
X138710Y-98140D02*
X138380Y-97810D01*
X138710Y-98615D02*
X138710Y-98140D01*
X139472Y-99377D02*
X138710Y-98615D01*
X139753Y-98310D02*
X140565Y-98310D01*
X140870Y-98005D02*
X141340Y-98005D01*
X140565Y-98310D02*
X140870Y-98005D01*
G54D59*
X123350Y-89250D02*
X123350Y-89550D01*
X122900Y-90000D02*
X122900Y-90400D01*
X123350Y-89550D02*
X122900Y-90000D01*
G54D55*
X122900Y-90400D02*
X123450Y-90400D01*
X123830Y-90780D02*
X123830Y-90996D01*
X123450Y-90400D02*
X123830Y-90780D01*
G54D56*
X124696Y-91761D02*
X124696Y-91418D01*
X124274Y-90996D02*
X123830Y-90996D01*
X124696Y-91418D02*
X124274Y-90996D01*
G54D59*
X122900Y-91700D02*
X121650Y-91700D01*
G54D55*
X123830Y-91746D02*
X122946Y-91746D01*
X122946Y-91746D02*
X122900Y-91700D01*
G54D56*
X124696Y-92011D02*
X124095Y-92011D01*
X124095Y-92011D02*
X123830Y-91746D01*
G54D53*
X123620Y-91696D02*
X123600Y-91716D01*
G54D55*
X123800Y-93975D02*
X123800Y-94175D01*
X123625Y-94350D02*
X122900Y-94350D01*
X123800Y-94175D02*
X123625Y-94350D01*
G54D59*
X122900Y-94350D02*
X122200Y-94350D01*
X122200Y-94350D02*
X121950Y-94100D01*
G54D58*
X124696Y-93511D02*
X124696Y-93694D01*
X124415Y-93975D02*
X123800Y-93975D01*
X124696Y-93694D02*
X124415Y-93975D01*
G54D56*
X126814Y-92761D02*
X127249Y-92761D01*
X127374Y-92886D02*
X127670Y-92886D01*
X127249Y-92761D02*
X127374Y-92886D01*
X128458Y-92875D02*
X127681Y-92875D01*
X127681Y-92875D02*
X127670Y-92886D01*
G54D55*
X122900Y-93050D02*
X123625Y-93050D01*
X123625Y-93050D02*
X123800Y-93225D01*
G54D59*
X121950Y-92800D02*
X122650Y-92800D01*
X122650Y-92800D02*
X122900Y-93050D01*
G54D58*
X124696Y-93261D02*
X123836Y-93261D01*
X123836Y-93261D02*
X123800Y-93225D01*
G54D53*
X129500Y-99950D02*
X129300Y-99950D01*
X129200Y-99850D02*
X128700Y-99350D01*
X128700Y-99350D02*
X128700Y-97000D01*
X128700Y-97000D02*
X128450Y-96750D01*
X128450Y-96750D02*
X128200Y-96750D01*
X128200Y-96750D02*
X128060Y-96890D01*
X127650Y-96890D02*
X128060Y-96890D01*
X129300Y-99950D02*
X129200Y-99850D01*
G54D55*
X129925Y-98000D02*
X129925Y-97665D01*
X130583Y-97006D02*
X131280Y-97006D01*
X129925Y-97665D02*
X130583Y-97006D01*
G54D58*
X124963Y-103000D02*
X125866Y-103000D01*
X124963Y-104200D02*
X125876Y-104200D01*
G54D54*
X137130Y-100125D02*
X138178Y-100125D01*
X138178Y-100125D02*
X138433Y-99870D01*
X139575Y-100362D02*
X138925Y-100362D01*
X138925Y-100362D02*
X138433Y-99870D01*
G54D58*
X120050Y-111100D02*
X120050Y-111500D01*
X118856Y-107944D02*
X118856Y-107300D01*
X118500Y-108300D02*
X118856Y-107944D01*
X118500Y-111300D02*
X118500Y-108300D01*
X118850Y-111650D02*
X118500Y-111300D01*
X119900Y-111650D02*
X118850Y-111650D01*
X120050Y-111500D02*
X119900Y-111650D01*
X119650Y-110450D02*
X121900Y-110450D01*
X123850Y-108500D02*
X123850Y-107650D01*
X121900Y-110450D02*
X123850Y-108500D01*
X124250Y-107300D02*
X124200Y-107300D01*
X124200Y-107300D02*
X123850Y-107650D01*
X119550Y-110550D02*
X119550Y-111100D01*
X119650Y-110450D02*
X119550Y-110550D01*
G54D56*
X126418Y-111034D02*
X126418Y-111512D01*
X124846Y-111645D02*
X124350Y-111149D01*
X126285Y-111645D02*
X124846Y-111645D01*
X126418Y-111512D02*
X126285Y-111645D01*
X126418Y-108042D02*
X126418Y-107956D01*
X126418Y-108696D02*
X126418Y-108042D01*
X126418Y-107956D02*
X126900Y-107474D01*
X126674Y-108696D02*
X126674Y-108176D01*
X127374Y-108050D02*
X127700Y-107724D01*
X126800Y-108050D02*
X127374Y-108050D01*
X126674Y-108176D02*
X126800Y-108050D01*
G54D59*
X141880Y-107640D02*
X141380Y-107640D01*
X138830Y-102030D02*
X139520Y-102030D01*
X138320Y-102540D02*
X138830Y-102030D01*
X138320Y-104300D02*
X138320Y-102540D01*
X139455Y-105435D02*
X138320Y-104300D01*
X139455Y-105715D02*
X139455Y-105435D01*
X141380Y-107640D02*
X139455Y-105715D01*
G54D57*
X141880Y-109740D02*
X141880Y-110820D01*
X141880Y-110820D02*
X142020Y-110960D01*
X141880Y-108780D02*
X141880Y-107640D01*
X141880Y-108780D02*
X141880Y-109740D01*
G54D55*
X134650Y-109700D02*
X135350Y-109700D01*
X136100Y-108950D02*
X136100Y-106970D01*
X135350Y-109700D02*
X136100Y-108950D01*
G54D57*
X137040Y-106975D02*
X136105Y-106975D01*
X136105Y-106975D02*
X136100Y-106970D01*
G54D61*
X139880Y-109740D02*
X138770Y-109740D01*
X138770Y-109740D02*
X138700Y-109810D01*
X138020Y-110960D02*
X138020Y-110490D01*
X138700Y-109810D02*
X138700Y-109054D01*
X138020Y-110490D02*
X138700Y-109810D01*
X138020Y-110960D02*
X138020Y-112040D01*
X137040Y-110975D02*
X138005Y-110975D01*
X138005Y-110975D02*
X138020Y-110960D01*
G54D57*
X138120Y-105320D02*
X138120Y-106460D01*
X138120Y-106460D02*
X138140Y-106480D01*
G54D56*
X126674Y-111034D02*
X126674Y-112275D01*
G54D10*
G36*
X128850Y-108679D02*
X128450Y-109079D01*
X128450Y-109379D01*
X128250Y-109579D01*
X128250Y-112250D01*
X127550Y-112250D01*
X127550Y-111673D01*
X127215Y-111450D01*
X126950Y-111450D01*
X126950Y-110350D01*
X126150Y-110350D01*
X126150Y-111050D01*
X125150Y-111050D01*
X125150Y-110879D01*
X124820Y-110550D01*
X124350Y-110550D01*
X124350Y-109420D01*
X124920Y-108850D01*
X125050Y-108850D01*
X125050Y-109450D01*
X126820Y-109450D01*
X126950Y-109320D01*
X126950Y-108550D01*
X128311Y-108550D01*
X128850Y-108280D01*
X128850Y-108679D01*
X128850Y-108679D01*
G37*
G54D62*
X128850Y-108679D02*
X128450Y-109079D01*
X128450Y-109379D01*
X128250Y-109579D01*
X128250Y-112250D01*
X127550Y-112250D01*
X127550Y-111673D01*
X127215Y-111450D01*
X126950Y-111450D01*
X126950Y-110350D01*
X126150Y-110350D01*
X126150Y-111050D01*
X125150Y-111050D01*
X125150Y-110879D01*
X124820Y-110550D01*
X124350Y-110550D01*
X124350Y-109420D01*
X124920Y-108850D01*
X125050Y-108850D01*
X125050Y-109450D01*
X126820Y-109450D01*
X126950Y-109320D01*
X126950Y-108550D01*
X128311Y-108550D01*
X128850Y-108280D01*
X128850Y-108679D01*
G54D10*
G36*
X124269Y-92761D02*
X124225Y-92804D01*
X124225Y-92805D01*
X124213Y-92805D01*
X124158Y-92860D01*
X124116Y-92842D01*
X124033Y-92842D01*
X123919Y-92842D01*
X123876Y-92798D01*
X123760Y-92721D01*
X123625Y-92694D01*
X123501Y-92694D01*
X123475Y-92632D01*
X123417Y-92574D01*
X123341Y-92542D01*
X123258Y-92542D01*
X122964Y-92542D01*
X122935Y-92514D01*
X122804Y-92426D01*
X122650Y-92395D01*
X122457Y-92395D01*
X122457Y-92358D01*
X122425Y-92282D01*
X122367Y-92224D01*
X122291Y-92192D01*
X122208Y-92192D01*
X122127Y-92192D01*
X122167Y-92175D01*
X122225Y-92117D01*
X122231Y-92104D01*
X122318Y-92104D01*
X122324Y-92117D01*
X122382Y-92175D01*
X122458Y-92207D01*
X122541Y-92207D01*
X123341Y-92207D01*
X123417Y-92175D01*
X123475Y-92117D01*
X123477Y-92113D01*
X123513Y-92128D01*
X123596Y-92128D01*
X123813Y-92128D01*
X123895Y-92210D01*
X123895Y-92210D01*
X123986Y-92271D01*
X124095Y-92293D01*
X124095Y-92293D01*
X124095Y-92293D01*
X124151Y-92293D01*
X124151Y-92311D01*
X124207Y-92311D01*
X124151Y-92367D01*
X124150Y-92399D01*
X124188Y-92490D01*
X124193Y-92495D01*
X124193Y-92526D01*
X124188Y-92531D01*
X124150Y-92622D01*
X124151Y-92654D01*
X124213Y-92716D01*
X124224Y-92716D01*
X124225Y-92716D01*
X124269Y-92761D01*
X124269Y-92761D01*
G37*
G54D62*
X124269Y-92761D02*
X124225Y-92804D01*
X124225Y-92805D01*
X124213Y-92805D01*
X124158Y-92860D01*
X124116Y-92842D01*
X124033Y-92842D01*
X123919Y-92842D01*
X123876Y-92798D01*
X123760Y-92721D01*
X123625Y-92694D01*
X123501Y-92694D01*
X123475Y-92632D01*
X123417Y-92574D01*
X123341Y-92542D01*
X123258Y-92542D01*
X122964Y-92542D01*
X122935Y-92514D01*
X122804Y-92426D01*
X122650Y-92395D01*
X122457Y-92395D01*
X122457Y-92358D01*
X122425Y-92282D01*
X122367Y-92224D01*
X122291Y-92192D01*
X122208Y-92192D01*
X122127Y-92192D01*
X122167Y-92175D01*
X122225Y-92117D01*
X122231Y-92104D01*
X122318Y-92104D01*
X122324Y-92117D01*
X122382Y-92175D01*
X122458Y-92207D01*
X122541Y-92207D01*
X123341Y-92207D01*
X123417Y-92175D01*
X123475Y-92117D01*
X123477Y-92113D01*
X123513Y-92128D01*
X123596Y-92128D01*
X123813Y-92128D01*
X123895Y-92210D01*
X123895Y-92210D01*
X123986Y-92271D01*
X124095Y-92293D01*
X124095Y-92293D01*
X124095Y-92293D01*
X124151Y-92293D01*
X124151Y-92311D01*
X124207Y-92311D01*
X124151Y-92367D01*
X124150Y-92399D01*
X124188Y-92490D01*
X124193Y-92495D01*
X124193Y-92526D01*
X124188Y-92531D01*
X124150Y-92622D01*
X124151Y-92654D01*
X124213Y-92716D01*
X124224Y-92716D01*
X124225Y-92716D01*
X124269Y-92761D01*
G54D10*
G36*
X124750Y-106810D02*
X124646Y-106707D01*
X124389Y-106600D01*
X124111Y-106600D01*
X123854Y-106706D01*
X123657Y-106903D01*
X123550Y-107160D01*
X123550Y-107438D01*
X123587Y-107527D01*
X123579Y-107538D01*
X123576Y-107556D01*
X123557Y-107650D01*
X123557Y-107650D01*
X123557Y-108378D01*
X121778Y-110157D01*
X119650Y-110157D01*
X119538Y-110179D01*
X119443Y-110243D01*
X119443Y-110243D01*
X119343Y-110343D01*
X119279Y-110438D01*
X119276Y-110456D01*
X119257Y-110550D01*
X119257Y-110550D01*
X119257Y-110590D01*
X119217Y-110574D01*
X119162Y-110574D01*
X119100Y-110637D01*
X119100Y-111050D01*
X119107Y-111050D01*
X119107Y-111150D01*
X119100Y-111150D01*
X119100Y-111157D01*
X119000Y-111157D01*
X119000Y-111150D01*
X118992Y-111150D01*
X118992Y-111050D01*
X119000Y-111050D01*
X119000Y-110637D01*
X118937Y-110574D01*
X118882Y-110574D01*
X118792Y-110611D01*
X118792Y-109429D01*
X118814Y-109451D01*
X118890Y-109482D01*
X118973Y-109483D01*
X119209Y-109483D01*
X119285Y-109451D01*
X119293Y-109443D01*
X119293Y-109499D01*
X119293Y-109500D01*
X119309Y-109581D01*
X119312Y-109598D01*
X119368Y-109681D01*
X119668Y-109981D01*
X119668Y-109981D01*
X119751Y-110037D01*
X119849Y-110056D01*
X119849Y-110056D01*
X119850Y-110056D01*
X120949Y-110056D01*
X120950Y-110056D01*
X120950Y-110056D01*
X121031Y-110040D01*
X121048Y-110037D01*
X121048Y-110037D01*
X121131Y-109981D01*
X121431Y-109681D01*
X121431Y-109681D01*
X121431Y-109681D01*
X121487Y-109598D01*
X121506Y-109500D01*
X121506Y-109500D01*
X121506Y-109500D01*
X121506Y-108750D01*
X121506Y-107650D01*
X121506Y-107649D01*
X121506Y-107649D01*
X121487Y-107551D01*
X121431Y-107468D01*
X121431Y-107468D01*
X120463Y-106500D01*
X124750Y-106500D01*
X124750Y-106810D01*
X124750Y-106810D01*
G37*
G54D62*
X124750Y-106810D02*
X124646Y-106707D01*
X124389Y-106600D01*
X124111Y-106600D01*
X123854Y-106706D01*
X123657Y-106903D01*
X123550Y-107160D01*
X123550Y-107438D01*
X123587Y-107527D01*
X123579Y-107538D01*
X123576Y-107556D01*
X123557Y-107650D01*
X123557Y-107650D01*
X123557Y-108378D01*
X121778Y-110157D01*
X119650Y-110157D01*
X119538Y-110179D01*
X119443Y-110243D01*
X119443Y-110243D01*
X119343Y-110343D01*
X119279Y-110438D01*
X119276Y-110456D01*
X119257Y-110550D01*
X119257Y-110550D01*
X119257Y-110590D01*
X119217Y-110574D01*
X119162Y-110574D01*
X119100Y-110637D01*
X119100Y-111050D01*
X119107Y-111050D01*
X119107Y-111150D01*
X119100Y-111150D01*
X119100Y-111157D01*
X119000Y-111157D01*
X119000Y-111150D01*
X118992Y-111150D01*
X118992Y-111050D01*
X119000Y-111050D01*
X119000Y-110637D01*
X118937Y-110574D01*
X118882Y-110574D01*
X118792Y-110611D01*
X118792Y-109429D01*
X118814Y-109451D01*
X118890Y-109482D01*
X118973Y-109483D01*
X119209Y-109483D01*
X119285Y-109451D01*
X119293Y-109443D01*
X119293Y-109499D01*
X119293Y-109500D01*
X119309Y-109581D01*
X119312Y-109598D01*
X119368Y-109681D01*
X119668Y-109981D01*
X119668Y-109981D01*
X119751Y-110037D01*
X119849Y-110056D01*
X119849Y-110056D01*
X119850Y-110056D01*
X120949Y-110056D01*
X120950Y-110056D01*
X120950Y-110056D01*
X121031Y-110040D01*
X121048Y-110037D01*
X121048Y-110037D01*
X121131Y-109981D01*
X121431Y-109681D01*
X121431Y-109681D01*
X121431Y-109681D01*
X121487Y-109598D01*
X121506Y-109500D01*
X121506Y-109500D01*
X121506Y-109500D01*
X121506Y-108750D01*
X121506Y-107650D01*
X121506Y-107649D01*
X121506Y-107649D01*
X121487Y-107551D01*
X121431Y-107468D01*
X121431Y-107468D01*
X120463Y-106500D01*
X124750Y-106500D01*
X124750Y-106810D01*
G54D10*
G36*
X124750Y-108385D02*
X124510Y-108768D01*
X123750Y-109529D01*
X123750Y-111950D01*
X124421Y-111950D01*
X124248Y-112021D01*
X124051Y-112218D01*
X123944Y-112475D01*
X123944Y-112753D01*
X124050Y-113010D01*
X124057Y-113017D01*
X119049Y-113017D01*
X119055Y-113011D01*
X119162Y-112754D01*
X119162Y-112476D01*
X119056Y-112219D01*
X118859Y-112022D01*
X118602Y-111915D01*
X118324Y-111915D01*
X118067Y-112021D01*
X118032Y-112056D01*
X118032Y-105800D01*
X118536Y-105800D01*
X119050Y-106313D01*
X119050Y-106500D01*
X119236Y-106500D01*
X120293Y-107556D01*
X120293Y-108556D01*
X120285Y-108548D01*
X120209Y-108517D01*
X120126Y-108516D01*
X119890Y-108516D01*
X119814Y-108548D01*
X119800Y-108563D01*
X119785Y-108548D01*
X119709Y-108517D01*
X119626Y-108516D01*
X119390Y-108516D01*
X119314Y-108548D01*
X119300Y-108563D01*
X119285Y-108548D01*
X119209Y-108517D01*
X119126Y-108516D01*
X118890Y-108516D01*
X118814Y-108548D01*
X118792Y-108570D01*
X118792Y-108421D01*
X119062Y-108150D01*
X119062Y-108150D01*
X119062Y-108150D01*
X119126Y-108055D01*
X119126Y-108055D01*
X119148Y-107944D01*
X119148Y-107935D01*
X119251Y-107893D01*
X119448Y-107696D01*
X119555Y-107439D01*
X119555Y-107161D01*
X119449Y-106904D01*
X119252Y-106707D01*
X118995Y-106600D01*
X118717Y-106600D01*
X118460Y-106706D01*
X118263Y-106903D01*
X118156Y-107160D01*
X118156Y-107438D01*
X118262Y-107695D01*
X118459Y-107892D01*
X118483Y-107902D01*
X118293Y-108093D01*
X118229Y-108188D01*
X118226Y-108206D01*
X118207Y-108300D01*
X118207Y-108300D01*
X118207Y-111299D01*
X118207Y-111300D01*
X118226Y-111393D01*
X118229Y-111411D01*
X118293Y-111506D01*
X118643Y-111856D01*
X118643Y-111856D01*
X118738Y-111920D01*
X118849Y-111942D01*
X118849Y-111942D01*
X118850Y-111942D01*
X119899Y-111942D01*
X119900Y-111942D01*
X119900Y-111942D01*
X119993Y-111923D01*
X120011Y-111920D01*
X120011Y-111920D01*
X120106Y-111856D01*
X120177Y-111786D01*
X120177Y-111855D01*
X120235Y-111996D01*
X120343Y-112104D01*
X120483Y-112162D01*
X120635Y-112162D01*
X120776Y-112104D01*
X120884Y-111996D01*
X120942Y-111856D01*
X120942Y-111704D01*
X120884Y-111563D01*
X120832Y-111511D01*
X120832Y-111504D01*
X120843Y-111493D01*
X120875Y-111416D01*
X120875Y-111334D01*
X120875Y-110783D01*
X120858Y-110742D01*
X121899Y-110742D01*
X121900Y-110742D01*
X121900Y-110742D01*
X121993Y-110723D01*
X122011Y-110720D01*
X122011Y-110720D01*
X122106Y-110656D01*
X124056Y-108706D01*
X124056Y-108706D01*
X124056Y-108706D01*
X124120Y-108611D01*
X124142Y-108500D01*
X124142Y-108500D01*
X124142Y-108500D01*
X124142Y-107999D01*
X124388Y-107999D01*
X124645Y-107893D01*
X124750Y-107789D01*
X124750Y-108385D01*
X124750Y-108385D01*
G37*
G54D62*
X124750Y-108385D02*
X124510Y-108768D01*
X123750Y-109529D01*
X123750Y-111950D01*
X124421Y-111950D01*
X124248Y-112021D01*
X124051Y-112218D01*
X123944Y-112475D01*
X123944Y-112753D01*
X124050Y-113010D01*
X124057Y-113017D01*
X119049Y-113017D01*
X119055Y-113011D01*
X119162Y-112754D01*
X119162Y-112476D01*
X119056Y-112219D01*
X118859Y-112022D01*
X118602Y-111915D01*
X118324Y-111915D01*
X118067Y-112021D01*
X118032Y-112056D01*
X118032Y-105800D01*
X118536Y-105800D01*
X119050Y-106313D01*
X119050Y-106500D01*
X119236Y-106500D01*
X120293Y-107556D01*
X120293Y-108556D01*
X120285Y-108548D01*
X120209Y-108517D01*
X120126Y-108516D01*
X119890Y-108516D01*
X119814Y-108548D01*
X119800Y-108563D01*
X119785Y-108548D01*
X119709Y-108517D01*
X119626Y-108516D01*
X119390Y-108516D01*
X119314Y-108548D01*
X119300Y-108563D01*
X119285Y-108548D01*
X119209Y-108517D01*
X119126Y-108516D01*
X118890Y-108516D01*
X118814Y-108548D01*
X118792Y-108570D01*
X118792Y-108421D01*
X119062Y-108150D01*
X119062Y-108150D01*
X119062Y-108150D01*
X119126Y-108055D01*
X119126Y-108055D01*
X119148Y-107944D01*
X119148Y-107935D01*
X119251Y-107893D01*
X119448Y-107696D01*
X119555Y-107439D01*
X119555Y-107161D01*
X119449Y-106904D01*
X119252Y-106707D01*
X118995Y-106600D01*
X118717Y-106600D01*
X118460Y-106706D01*
X118263Y-106903D01*
X118156Y-107160D01*
X118156Y-107438D01*
X118262Y-107695D01*
X118459Y-107892D01*
X118483Y-107902D01*
X118293Y-108093D01*
X118229Y-108188D01*
X118226Y-108206D01*
X118207Y-108300D01*
X118207Y-108300D01*
X118207Y-111299D01*
X118207Y-111300D01*
X118226Y-111393D01*
X118229Y-111411D01*
X118293Y-111506D01*
X118643Y-111856D01*
X118643Y-111856D01*
X118738Y-111920D01*
X118849Y-111942D01*
X118849Y-111942D01*
X118850Y-111942D01*
X119899Y-111942D01*
X119900Y-111942D01*
X119900Y-111942D01*
X119993Y-111923D01*
X120011Y-111920D01*
X120011Y-111920D01*
X120106Y-111856D01*
X120177Y-111786D01*
X120177Y-111855D01*
X120235Y-111996D01*
X120343Y-112104D01*
X120483Y-112162D01*
X120635Y-112162D01*
X120776Y-112104D01*
X120884Y-111996D01*
X120942Y-111856D01*
X120942Y-111704D01*
X120884Y-111563D01*
X120832Y-111511D01*
X120832Y-111504D01*
X120843Y-111493D01*
X120875Y-111416D01*
X120875Y-111334D01*
X120875Y-110783D01*
X120858Y-110742D01*
X121899Y-110742D01*
X121900Y-110742D01*
X121900Y-110742D01*
X121993Y-110723D01*
X122011Y-110720D01*
X122011Y-110720D01*
X122106Y-110656D01*
X124056Y-108706D01*
X124056Y-108706D01*
X124056Y-108706D01*
X124120Y-108611D01*
X124142Y-108500D01*
X124142Y-108500D01*
X124142Y-108500D01*
X124142Y-107999D01*
X124388Y-107999D01*
X124645Y-107893D01*
X124750Y-107789D01*
X124750Y-108385D01*
G54D10*
G36*
X126473Y-91716D02*
X126401Y-91746D01*
X126343Y-91804D01*
X126343Y-91805D01*
X126331Y-91805D01*
X126269Y-91867D01*
X126268Y-91899D01*
X126306Y-91990D01*
X126311Y-91995D01*
X126311Y-92026D01*
X126306Y-92031D01*
X126268Y-92122D01*
X126269Y-92154D01*
X126331Y-92216D01*
X126342Y-92216D01*
X126343Y-92216D01*
X126387Y-92261D01*
X126343Y-92304D01*
X126343Y-92305D01*
X126331Y-92305D01*
X126269Y-92367D01*
X126268Y-92399D01*
X126306Y-92490D01*
X126311Y-92495D01*
X126311Y-92640D01*
X126311Y-92640D01*
X126311Y-92713D01*
X126311Y-92776D01*
X126306Y-92781D01*
X126268Y-92872D01*
X126269Y-92904D01*
X126331Y-92966D01*
X126342Y-92966D01*
X126343Y-92966D01*
X126387Y-93011D01*
X126343Y-93054D01*
X126343Y-93055D01*
X126331Y-93055D01*
X126269Y-93117D01*
X126268Y-93149D01*
X126306Y-93240D01*
X126311Y-93245D01*
X126311Y-93276D01*
X126306Y-93281D01*
X126268Y-93372D01*
X126269Y-93404D01*
X126331Y-93466D01*
X126342Y-93466D01*
X126343Y-93466D01*
X126401Y-93525D01*
X126473Y-93555D01*
X126331Y-93555D01*
X126269Y-93617D01*
X125655Y-93003D01*
X125754Y-92904D01*
X125754Y-92904D01*
X125754Y-92904D01*
X125791Y-92849D01*
X125815Y-92813D01*
X125815Y-92813D01*
X125837Y-92705D01*
X125837Y-91513D01*
X125871Y-91513D01*
X125947Y-91481D01*
X125962Y-91466D01*
X126087Y-91466D01*
X126117Y-91496D01*
X126193Y-91528D01*
X126276Y-91528D01*
X126309Y-91528D01*
X126306Y-91531D01*
X126268Y-91622D01*
X126269Y-91654D01*
X126331Y-91716D01*
X126473Y-91716D01*
X126473Y-91716D01*
G37*
G54D62*
X126473Y-91716D02*
X126401Y-91746D01*
X126343Y-91804D01*
X126343Y-91805D01*
X126331Y-91805D01*
X126269Y-91867D01*
X126268Y-91899D01*
X126306Y-91990D01*
X126311Y-91995D01*
X126311Y-92026D01*
X126306Y-92031D01*
X126268Y-92122D01*
X126269Y-92154D01*
X126331Y-92216D01*
X126342Y-92216D01*
X126343Y-92216D01*
X126387Y-92261D01*
X126343Y-92304D01*
X126343Y-92305D01*
X126331Y-92305D01*
X126269Y-92367D01*
X126268Y-92399D01*
X126306Y-92490D01*
X126311Y-92495D01*
X126311Y-92640D01*
X126311Y-92640D01*
X126311Y-92713D01*
X126311Y-92776D01*
X126306Y-92781D01*
X126268Y-92872D01*
X126269Y-92904D01*
X126331Y-92966D01*
X126342Y-92966D01*
X126343Y-92966D01*
X126387Y-93011D01*
X126343Y-93054D01*
X126343Y-93055D01*
X126331Y-93055D01*
X126269Y-93117D01*
X126268Y-93149D01*
X126306Y-93240D01*
X126311Y-93245D01*
X126311Y-93276D01*
X126306Y-93281D01*
X126268Y-93372D01*
X126269Y-93404D01*
X126331Y-93466D01*
X126342Y-93466D01*
X126343Y-93466D01*
X126401Y-93525D01*
X126473Y-93555D01*
X126331Y-93555D01*
X126269Y-93617D01*
X125655Y-93003D01*
X125754Y-92904D01*
X125754Y-92904D01*
X125754Y-92904D01*
X125791Y-92849D01*
X125815Y-92813D01*
X125815Y-92813D01*
X125837Y-92705D01*
X125837Y-91513D01*
X125871Y-91513D01*
X125947Y-91481D01*
X125962Y-91466D01*
X126087Y-91466D01*
X126117Y-91496D01*
X126193Y-91528D01*
X126276Y-91528D01*
X126309Y-91528D01*
X126306Y-91531D01*
X126268Y-91622D01*
X126269Y-91654D01*
X126331Y-91716D01*
X126473Y-91716D01*
G54D10*
G36*
X127196Y-96759D02*
X127192Y-96768D01*
X127192Y-96851D01*
X127192Y-96883D01*
X127010Y-96883D01*
X127009Y-96883D01*
X126960Y-96893D01*
X126911Y-96902D01*
X126828Y-96958D01*
X126828Y-96958D01*
X126037Y-97749D01*
X126012Y-97688D01*
X126007Y-97684D01*
X126007Y-97528D01*
X126005Y-97525D01*
X126007Y-97521D01*
X126007Y-97438D01*
X126007Y-97278D01*
X126003Y-97270D01*
X126007Y-97261D01*
X126007Y-97192D01*
X126038Y-97205D01*
X126160Y-97205D01*
X126273Y-97159D01*
X126359Y-97073D01*
X126405Y-96961D01*
X126405Y-96839D01*
X126359Y-96726D01*
X126357Y-96725D01*
X126359Y-96723D01*
X126405Y-96611D01*
X126405Y-96489D01*
X126359Y-96376D01*
X126357Y-96375D01*
X126409Y-96323D01*
X126455Y-96211D01*
X126455Y-96089D01*
X126455Y-96087D01*
X126523Y-96059D01*
X126533Y-96049D01*
X126618Y-96134D01*
X126758Y-96192D01*
X126910Y-96192D01*
X127051Y-96134D01*
X127159Y-96026D01*
X127162Y-96019D01*
X127187Y-96081D01*
X127192Y-96085D01*
X127192Y-96241D01*
X127194Y-96244D01*
X127192Y-96248D01*
X127192Y-96331D01*
X127192Y-96491D01*
X127196Y-96499D01*
X127192Y-96508D01*
X127192Y-96591D01*
X127192Y-96751D01*
X127196Y-96759D01*
X127196Y-96759D01*
G37*
G54D62*
X127196Y-96759D02*
X127192Y-96768D01*
X127192Y-96851D01*
X127192Y-96883D01*
X127010Y-96883D01*
X127009Y-96883D01*
X126960Y-96893D01*
X126911Y-96902D01*
X126828Y-96958D01*
X126828Y-96958D01*
X126037Y-97749D01*
X126012Y-97688D01*
X126007Y-97684D01*
X126007Y-97528D01*
X126005Y-97525D01*
X126007Y-97521D01*
X126007Y-97438D01*
X126007Y-97278D01*
X126003Y-97270D01*
X126007Y-97261D01*
X126007Y-97192D01*
X126038Y-97205D01*
X126160Y-97205D01*
X126273Y-97159D01*
X126359Y-97073D01*
X126405Y-96961D01*
X126405Y-96839D01*
X126359Y-96726D01*
X126357Y-96725D01*
X126359Y-96723D01*
X126405Y-96611D01*
X126405Y-96489D01*
X126359Y-96376D01*
X126357Y-96375D01*
X126409Y-96323D01*
X126455Y-96211D01*
X126455Y-96089D01*
X126455Y-96087D01*
X126523Y-96059D01*
X126533Y-96049D01*
X126618Y-96134D01*
X126758Y-96192D01*
X126910Y-96192D01*
X127051Y-96134D01*
X127159Y-96026D01*
X127162Y-96019D01*
X127187Y-96081D01*
X127192Y-96085D01*
X127192Y-96241D01*
X127194Y-96244D01*
X127192Y-96248D01*
X127192Y-96331D01*
X127192Y-96491D01*
X127196Y-96499D01*
X127192Y-96508D01*
X127192Y-96591D01*
X127192Y-96751D01*
X127196Y-96759D01*
G54D10*
G36*
X128706Y-106726D02*
X128650Y-106783D01*
X128650Y-106850D01*
X128550Y-106850D01*
X128550Y-106783D01*
X128487Y-106720D01*
X128354Y-106720D01*
X128255Y-106720D01*
X128245Y-106724D01*
X128245Y-106670D01*
X128207Y-106579D01*
X128136Y-106508D01*
X128044Y-106470D01*
X127945Y-106470D01*
X127812Y-106470D01*
X127750Y-106533D01*
X127750Y-106821D01*
X127650Y-106815D01*
X127650Y-106533D01*
X127605Y-106488D01*
X127605Y-104139D01*
X127559Y-104026D01*
X127473Y-103940D01*
X127361Y-103894D01*
X127239Y-103894D01*
X127126Y-103940D01*
X127124Y-103943D01*
X127087Y-103943D01*
X127087Y-103863D01*
X127055Y-103787D01*
X126997Y-103729D01*
X126920Y-103697D01*
X126838Y-103697D01*
X126327Y-103697D01*
X126251Y-103729D01*
X126250Y-103730D01*
X126249Y-103729D01*
X126172Y-103697D01*
X126090Y-103697D01*
X125579Y-103697D01*
X125503Y-103729D01*
X125444Y-103787D01*
X125413Y-103863D01*
X125413Y-103907D01*
X125400Y-103907D01*
X125374Y-103846D01*
X125316Y-103788D01*
X125240Y-103756D01*
X125157Y-103756D01*
X124685Y-103756D01*
X124609Y-103788D01*
X124580Y-103817D01*
X124514Y-103751D01*
X124422Y-103713D01*
X124249Y-103714D01*
X124187Y-103776D01*
X124187Y-104150D01*
X124194Y-104150D01*
X124194Y-104250D01*
X124187Y-104250D01*
X124187Y-104623D01*
X124249Y-104686D01*
X124422Y-104686D01*
X124514Y-104648D01*
X124580Y-104582D01*
X124609Y-104611D01*
X124685Y-104643D01*
X124768Y-104643D01*
X125240Y-104643D01*
X125316Y-104611D01*
X125374Y-104553D01*
X125400Y-104492D01*
X125412Y-104492D01*
X125412Y-104536D01*
X125444Y-104612D01*
X125502Y-104670D01*
X125579Y-104702D01*
X125661Y-104702D01*
X126172Y-104702D01*
X126248Y-104670D01*
X126249Y-104669D01*
X126250Y-104670D01*
X126327Y-104702D01*
X126409Y-104702D01*
X126920Y-104702D01*
X126996Y-104670D01*
X127055Y-104612D01*
X127086Y-104536D01*
X127087Y-104456D01*
X127124Y-104456D01*
X127126Y-104459D01*
X127238Y-104505D01*
X127360Y-104505D01*
X127473Y-104459D01*
X127559Y-104373D01*
X127605Y-104261D01*
X127605Y-104139D01*
X127605Y-106488D01*
X127587Y-106470D01*
X127454Y-106470D01*
X127445Y-106470D01*
X127445Y-106420D01*
X127407Y-106329D01*
X127336Y-106258D01*
X127244Y-106220D01*
X127145Y-106220D01*
X127012Y-106220D01*
X126950Y-106283D01*
X126950Y-106676D01*
X126957Y-106676D01*
X126957Y-106772D01*
X126842Y-106765D01*
X126842Y-106676D01*
X126850Y-106676D01*
X126850Y-106283D01*
X126787Y-106220D01*
X126654Y-106220D01*
X126650Y-106220D01*
X126650Y-106200D01*
X124087Y-106200D01*
X124087Y-104623D01*
X124087Y-104250D01*
X124087Y-104150D01*
X124087Y-103776D01*
X124087Y-103423D01*
X124087Y-103050D01*
X124087Y-102950D01*
X124087Y-102576D01*
X124024Y-102514D01*
X123851Y-102513D01*
X123759Y-102551D01*
X123689Y-102622D01*
X123651Y-102714D01*
X123650Y-102813D01*
X123651Y-102887D01*
X123713Y-102950D01*
X124087Y-102950D01*
X124087Y-103050D01*
X123713Y-103050D01*
X123651Y-103112D01*
X123650Y-103186D01*
X123651Y-103285D01*
X123689Y-103377D01*
X123759Y-103448D01*
X123851Y-103486D01*
X124024Y-103486D01*
X124087Y-103423D01*
X124087Y-103776D01*
X124024Y-103714D01*
X123851Y-103713D01*
X123759Y-103751D01*
X123689Y-103822D01*
X123651Y-103914D01*
X123650Y-104013D01*
X123651Y-104087D01*
X123713Y-104150D01*
X124087Y-104150D01*
X124087Y-104250D01*
X123713Y-104250D01*
X123651Y-104312D01*
X123650Y-104386D01*
X123651Y-104485D01*
X123689Y-104577D01*
X123759Y-104648D01*
X123851Y-104686D01*
X124024Y-104686D01*
X124087Y-104623D01*
X124087Y-106200D01*
X121200Y-106200D01*
X120163Y-106200D01*
X119106Y-105143D01*
X119106Y-102175D01*
X119124Y-102217D01*
X119182Y-102275D01*
X119258Y-102307D01*
X119341Y-102307D01*
X119941Y-102307D01*
X120017Y-102275D01*
X120075Y-102217D01*
X120107Y-102141D01*
X120107Y-102058D01*
X120107Y-101937D01*
X120169Y-102087D01*
X120312Y-102229D01*
X120498Y-102307D01*
X120700Y-102307D01*
X120887Y-102230D01*
X120935Y-102182D01*
X120935Y-102182D01*
X120968Y-102231D01*
X121693Y-102956D01*
X121693Y-104749D01*
X121693Y-104750D01*
X121709Y-104831D01*
X121712Y-104848D01*
X121768Y-104931D01*
X122005Y-105168D01*
X121992Y-105198D01*
X121992Y-105400D01*
X122069Y-105587D01*
X122212Y-105729D01*
X122398Y-105807D01*
X122600Y-105807D01*
X122787Y-105730D01*
X122929Y-105587D01*
X123007Y-105401D01*
X123007Y-105199D01*
X122930Y-105012D01*
X122787Y-104870D01*
X122619Y-104799D01*
X122787Y-104730D01*
X122929Y-104587D01*
X123007Y-104401D01*
X123007Y-104199D01*
X122994Y-104168D01*
X123281Y-103881D01*
X123281Y-103881D01*
X123281Y-103881D01*
X123337Y-103798D01*
X123337Y-103798D01*
X123356Y-103700D01*
X123356Y-102950D01*
X123356Y-102949D01*
X123356Y-102949D01*
X123337Y-102851D01*
X123281Y-102768D01*
X123281Y-102768D01*
X122981Y-102468D01*
X122898Y-102412D01*
X122881Y-102409D01*
X122800Y-102393D01*
X122799Y-102393D01*
X122706Y-102393D01*
X122620Y-102307D01*
X122700Y-102307D01*
X122887Y-102230D01*
X123029Y-102087D01*
X123100Y-101919D01*
X123169Y-102087D01*
X123312Y-102229D01*
X123498Y-102307D01*
X123700Y-102307D01*
X123887Y-102230D01*
X124029Y-102087D01*
X124100Y-101919D01*
X124169Y-102087D01*
X124312Y-102229D01*
X124498Y-102307D01*
X124700Y-102307D01*
X124887Y-102230D01*
X125029Y-102087D01*
X125100Y-101919D01*
X125169Y-102087D01*
X125312Y-102229D01*
X125498Y-102307D01*
X125700Y-102307D01*
X125887Y-102230D01*
X126029Y-102087D01*
X126100Y-101919D01*
X126169Y-102087D01*
X126312Y-102229D01*
X126498Y-102307D01*
X126700Y-102307D01*
X126887Y-102230D01*
X127029Y-102087D01*
X127100Y-101919D01*
X127169Y-102087D01*
X127312Y-102229D01*
X127343Y-102242D01*
X127343Y-102493D01*
X127093Y-102743D01*
X127077Y-102743D01*
X127077Y-102663D01*
X127045Y-102587D01*
X126987Y-102529D01*
X126910Y-102497D01*
X126828Y-102497D01*
X126317Y-102497D01*
X126241Y-102529D01*
X126240Y-102530D01*
X126239Y-102529D01*
X126162Y-102497D01*
X126080Y-102497D01*
X125569Y-102497D01*
X125493Y-102529D01*
X125434Y-102587D01*
X125403Y-102663D01*
X125403Y-102707D01*
X125400Y-102707D01*
X125374Y-102646D01*
X125316Y-102588D01*
X125240Y-102556D01*
X125157Y-102556D01*
X124685Y-102556D01*
X124609Y-102588D01*
X124580Y-102617D01*
X124514Y-102551D01*
X124422Y-102513D01*
X124249Y-102514D01*
X124187Y-102576D01*
X124187Y-102950D01*
X124194Y-102950D01*
X124194Y-103050D01*
X124187Y-103050D01*
X124187Y-103423D01*
X124249Y-103486D01*
X124422Y-103486D01*
X124514Y-103448D01*
X124580Y-103382D01*
X124609Y-103411D01*
X124685Y-103443D01*
X124768Y-103443D01*
X125240Y-103443D01*
X125316Y-103411D01*
X125374Y-103353D01*
X125400Y-103292D01*
X125402Y-103292D01*
X125402Y-103336D01*
X125434Y-103412D01*
X125492Y-103470D01*
X125569Y-103502D01*
X125651Y-103502D01*
X126162Y-103502D01*
X126238Y-103470D01*
X126239Y-103469D01*
X126240Y-103470D01*
X126317Y-103502D01*
X126399Y-103502D01*
X126910Y-103502D01*
X126986Y-103470D01*
X127045Y-103412D01*
X127076Y-103336D01*
X127077Y-103256D01*
X127199Y-103256D01*
X127200Y-103256D01*
X127200Y-103256D01*
X127281Y-103240D01*
X127298Y-103237D01*
X127298Y-103237D01*
X127381Y-103181D01*
X127781Y-102781D01*
X127781Y-102781D01*
X127781Y-102781D01*
X127837Y-102698D01*
X127856Y-102600D01*
X127856Y-102600D01*
X127856Y-102600D01*
X127856Y-102528D01*
X127862Y-102537D01*
X128014Y-102688D01*
X128014Y-106000D01*
X128040Y-106128D01*
X128112Y-106237D01*
X128512Y-106637D01*
X128621Y-106709D01*
X128706Y-106726D01*
X128706Y-106726D01*
G37*
G54D62*
X128706Y-106726D02*
X128650Y-106783D01*
X128650Y-106850D01*
X128550Y-106850D01*
X128550Y-106783D01*
X128487Y-106720D01*
X128354Y-106720D01*
X128255Y-106720D01*
X128245Y-106724D01*
X128245Y-106670D01*
X128207Y-106579D01*
X128136Y-106508D01*
X128044Y-106470D01*
X127945Y-106470D01*
X127812Y-106470D01*
X127750Y-106533D01*
X127750Y-106821D01*
X127650Y-106815D01*
X127650Y-106533D01*
X127605Y-106488D01*
X127605Y-104139D01*
X127559Y-104026D01*
X127473Y-103940D01*
X127361Y-103894D01*
X127239Y-103894D01*
X127126Y-103940D01*
X127124Y-103943D01*
X127087Y-103943D01*
X127087Y-103863D01*
X127055Y-103787D01*
X126997Y-103729D01*
X126920Y-103697D01*
X126838Y-103697D01*
X126327Y-103697D01*
X126251Y-103729D01*
X126250Y-103730D01*
X126249Y-103729D01*
X126172Y-103697D01*
X126090Y-103697D01*
X125579Y-103697D01*
X125503Y-103729D01*
X125444Y-103787D01*
X125413Y-103863D01*
X125413Y-103907D01*
X125400Y-103907D01*
X125374Y-103846D01*
X125316Y-103788D01*
X125240Y-103756D01*
X125157Y-103756D01*
X124685Y-103756D01*
X124609Y-103788D01*
X124580Y-103817D01*
X124514Y-103751D01*
X124422Y-103713D01*
X124249Y-103714D01*
X124187Y-103776D01*
X124187Y-104150D01*
X124194Y-104150D01*
X124194Y-104250D01*
X124187Y-104250D01*
X124187Y-104623D01*
X124249Y-104686D01*
X124422Y-104686D01*
X124514Y-104648D01*
X124580Y-104582D01*
X124609Y-104611D01*
X124685Y-104643D01*
X124768Y-104643D01*
X125240Y-104643D01*
X125316Y-104611D01*
X125374Y-104553D01*
X125400Y-104492D01*
X125412Y-104492D01*
X125412Y-104536D01*
X125444Y-104612D01*
X125502Y-104670D01*
X125579Y-104702D01*
X125661Y-104702D01*
X126172Y-104702D01*
X126248Y-104670D01*
X126249Y-104669D01*
X126250Y-104670D01*
X126327Y-104702D01*
X126409Y-104702D01*
X126920Y-104702D01*
X126996Y-104670D01*
X127055Y-104612D01*
X127086Y-104536D01*
X127087Y-104456D01*
X127124Y-104456D01*
X127126Y-104459D01*
X127238Y-104505D01*
X127360Y-104505D01*
X127473Y-104459D01*
X127559Y-104373D01*
X127605Y-104261D01*
X127605Y-104139D01*
X127605Y-106488D01*
X127587Y-106470D01*
X127454Y-106470D01*
X127445Y-106470D01*
X127445Y-106420D01*
X127407Y-106329D01*
X127336Y-106258D01*
X127244Y-106220D01*
X127145Y-106220D01*
X127012Y-106220D01*
X126950Y-106283D01*
X126950Y-106676D01*
X126957Y-106676D01*
X126957Y-106772D01*
X126842Y-106765D01*
X126842Y-106676D01*
X126850Y-106676D01*
X126850Y-106283D01*
X126787Y-106220D01*
X126654Y-106220D01*
X126650Y-106220D01*
X126650Y-106200D01*
X124087Y-106200D01*
X124087Y-104623D01*
X124087Y-104250D01*
X124087Y-104150D01*
X124087Y-103776D01*
X124087Y-103423D01*
X124087Y-103050D01*
X124087Y-102950D01*
X124087Y-102576D01*
X124024Y-102514D01*
X123851Y-102513D01*
X123759Y-102551D01*
X123689Y-102622D01*
X123651Y-102714D01*
X123650Y-102813D01*
X123651Y-102887D01*
X123713Y-102950D01*
X124087Y-102950D01*
X124087Y-103050D01*
X123713Y-103050D01*
X123651Y-103112D01*
X123650Y-103186D01*
X123651Y-103285D01*
X123689Y-103377D01*
X123759Y-103448D01*
X123851Y-103486D01*
X124024Y-103486D01*
X124087Y-103423D01*
X124087Y-103776D01*
X124024Y-103714D01*
X123851Y-103713D01*
X123759Y-103751D01*
X123689Y-103822D01*
X123651Y-103914D01*
X123650Y-104013D01*
X123651Y-104087D01*
X123713Y-104150D01*
X124087Y-104150D01*
X124087Y-104250D01*
X123713Y-104250D01*
X123651Y-104312D01*
X123650Y-104386D01*
X123651Y-104485D01*
X123689Y-104577D01*
X123759Y-104648D01*
X123851Y-104686D01*
X124024Y-104686D01*
X124087Y-104623D01*
X124087Y-106200D01*
X121200Y-106200D01*
X120163Y-106200D01*
X119106Y-105143D01*
X119106Y-102175D01*
X119124Y-102217D01*
X119182Y-102275D01*
X119258Y-102307D01*
X119341Y-102307D01*
X119941Y-102307D01*
X120017Y-102275D01*
X120075Y-102217D01*
X120107Y-102141D01*
X120107Y-102058D01*
X120107Y-101937D01*
X120169Y-102087D01*
X120312Y-102229D01*
X120498Y-102307D01*
X120700Y-102307D01*
X120887Y-102230D01*
X120935Y-102182D01*
X120935Y-102182D01*
X120968Y-102231D01*
X121693Y-102956D01*
X121693Y-104749D01*
X121693Y-104750D01*
X121709Y-104831D01*
X121712Y-104848D01*
X121768Y-104931D01*
X122005Y-105168D01*
X121992Y-105198D01*
X121992Y-105400D01*
X122069Y-105587D01*
X122212Y-105729D01*
X122398Y-105807D01*
X122600Y-105807D01*
X122787Y-105730D01*
X122929Y-105587D01*
X123007Y-105401D01*
X123007Y-105199D01*
X122930Y-105012D01*
X122787Y-104870D01*
X122619Y-104799D01*
X122787Y-104730D01*
X122929Y-104587D01*
X123007Y-104401D01*
X123007Y-104199D01*
X122994Y-104168D01*
X123281Y-103881D01*
X123281Y-103881D01*
X123281Y-103881D01*
X123337Y-103798D01*
X123337Y-103798D01*
X123356Y-103700D01*
X123356Y-102950D01*
X123356Y-102949D01*
X123356Y-102949D01*
X123337Y-102851D01*
X123281Y-102768D01*
X123281Y-102768D01*
X122981Y-102468D01*
X122898Y-102412D01*
X122881Y-102409D01*
X122800Y-102393D01*
X122799Y-102393D01*
X122706Y-102393D01*
X122620Y-102307D01*
X122700Y-102307D01*
X122887Y-102230D01*
X123029Y-102087D01*
X123100Y-101919D01*
X123169Y-102087D01*
X123312Y-102229D01*
X123498Y-102307D01*
X123700Y-102307D01*
X123887Y-102230D01*
X124029Y-102087D01*
X124100Y-101919D01*
X124169Y-102087D01*
X124312Y-102229D01*
X124498Y-102307D01*
X124700Y-102307D01*
X124887Y-102230D01*
X125029Y-102087D01*
X125100Y-101919D01*
X125169Y-102087D01*
X125312Y-102229D01*
X125498Y-102307D01*
X125700Y-102307D01*
X125887Y-102230D01*
X126029Y-102087D01*
X126100Y-101919D01*
X126169Y-102087D01*
X126312Y-102229D01*
X126498Y-102307D01*
X126700Y-102307D01*
X126887Y-102230D01*
X127029Y-102087D01*
X127100Y-101919D01*
X127169Y-102087D01*
X127312Y-102229D01*
X127343Y-102242D01*
X127343Y-102493D01*
X127093Y-102743D01*
X127077Y-102743D01*
X127077Y-102663D01*
X127045Y-102587D01*
X126987Y-102529D01*
X126910Y-102497D01*
X126828Y-102497D01*
X126317Y-102497D01*
X126241Y-102529D01*
X126240Y-102530D01*
X126239Y-102529D01*
X126162Y-102497D01*
X126080Y-102497D01*
X125569Y-102497D01*
X125493Y-102529D01*
X125434Y-102587D01*
X125403Y-102663D01*
X125403Y-102707D01*
X125400Y-102707D01*
X125374Y-102646D01*
X125316Y-102588D01*
X125240Y-102556D01*
X125157Y-102556D01*
X124685Y-102556D01*
X124609Y-102588D01*
X124580Y-102617D01*
X124514Y-102551D01*
X124422Y-102513D01*
X124249Y-102514D01*
X124187Y-102576D01*
X124187Y-102950D01*
X124194Y-102950D01*
X124194Y-103050D01*
X124187Y-103050D01*
X124187Y-103423D01*
X124249Y-103486D01*
X124422Y-103486D01*
X124514Y-103448D01*
X124580Y-103382D01*
X124609Y-103411D01*
X124685Y-103443D01*
X124768Y-103443D01*
X125240Y-103443D01*
X125316Y-103411D01*
X125374Y-103353D01*
X125400Y-103292D01*
X125402Y-103292D01*
X125402Y-103336D01*
X125434Y-103412D01*
X125492Y-103470D01*
X125569Y-103502D01*
X125651Y-103502D01*
X126162Y-103502D01*
X126238Y-103470D01*
X126239Y-103469D01*
X126240Y-103470D01*
X126317Y-103502D01*
X126399Y-103502D01*
X126910Y-103502D01*
X126986Y-103470D01*
X127045Y-103412D01*
X127076Y-103336D01*
X127077Y-103256D01*
X127199Y-103256D01*
X127200Y-103256D01*
X127200Y-103256D01*
X127281Y-103240D01*
X127298Y-103237D01*
X127298Y-103237D01*
X127381Y-103181D01*
X127781Y-102781D01*
X127781Y-102781D01*
X127781Y-102781D01*
X127837Y-102698D01*
X127856Y-102600D01*
X127856Y-102600D01*
X127856Y-102600D01*
X127856Y-102528D01*
X127862Y-102537D01*
X128014Y-102688D01*
X128014Y-106000D01*
X128040Y-106128D01*
X128112Y-106237D01*
X128512Y-106637D01*
X128621Y-106709D01*
X128706Y-106726D01*
G54D10*
G36*
X129495Y-100332D02*
X129164Y-100664D01*
X129145Y-100692D01*
X129143Y-100663D01*
X129081Y-100512D01*
X128985Y-100484D01*
X128915Y-100555D01*
X128915Y-100414D01*
X128887Y-100318D01*
X128681Y-100245D01*
X128463Y-100256D01*
X128312Y-100318D01*
X128284Y-100414D01*
X128600Y-100729D01*
X128915Y-100414D01*
X128915Y-100555D01*
X128670Y-100800D01*
X128985Y-101115D01*
X129045Y-101098D01*
X129045Y-101501D01*
X128985Y-101484D01*
X128670Y-101800D01*
X128985Y-102115D01*
X129045Y-102098D01*
X129045Y-106250D01*
X128987Y-106162D01*
X128685Y-105861D01*
X128685Y-102550D01*
X128659Y-102421D01*
X128659Y-102421D01*
X128612Y-102350D01*
X128736Y-102343D01*
X128887Y-102281D01*
X128915Y-102185D01*
X128600Y-101870D01*
X128594Y-101876D01*
X128523Y-101805D01*
X128529Y-101800D01*
X128523Y-101794D01*
X128594Y-101723D01*
X128600Y-101729D01*
X128915Y-101414D01*
X128887Y-101318D01*
X128839Y-101301D01*
X128887Y-101281D01*
X128915Y-101185D01*
X128600Y-100870D01*
X128594Y-100876D01*
X128523Y-100805D01*
X128529Y-100800D01*
X128214Y-100484D01*
X128118Y-100512D01*
X128077Y-100627D01*
X128030Y-100512D01*
X127887Y-100370D01*
X127701Y-100292D01*
X127499Y-100292D01*
X127356Y-100351D01*
X127356Y-98525D01*
X127359Y-98523D01*
X127405Y-98411D01*
X127405Y-98289D01*
X127367Y-98197D01*
X127441Y-98197D01*
X127941Y-98197D01*
X128017Y-98165D01*
X128075Y-98107D01*
X128107Y-98031D01*
X128107Y-97948D01*
X128107Y-97788D01*
X128103Y-97780D01*
X128107Y-97771D01*
X128107Y-97688D01*
X128107Y-97528D01*
X128105Y-97525D01*
X128107Y-97521D01*
X128107Y-97438D01*
X128107Y-97278D01*
X128103Y-97270D01*
X128107Y-97261D01*
X128107Y-97178D01*
X128107Y-97137D01*
X128141Y-97130D01*
X128158Y-97127D01*
X128158Y-97127D01*
X128241Y-97071D01*
X128306Y-97006D01*
X128343Y-97006D01*
X128443Y-97106D01*
X128443Y-99349D01*
X128443Y-99350D01*
X128459Y-99431D01*
X128462Y-99448D01*
X128518Y-99531D01*
X129018Y-100031D01*
X129018Y-100031D01*
X129118Y-100131D01*
X129118Y-100131D01*
X129185Y-100176D01*
X129185Y-100176D01*
X129283Y-100274D01*
X129423Y-100332D01*
X129495Y-100332D01*
X129495Y-100332D01*
G37*
G54D62*
X129495Y-100332D02*
X129164Y-100664D01*
X129145Y-100692D01*
X129143Y-100663D01*
X129081Y-100512D01*
X128985Y-100484D01*
X128915Y-100555D01*
X128915Y-100414D01*
X128887Y-100318D01*
X128681Y-100245D01*
X128463Y-100256D01*
X128312Y-100318D01*
X128284Y-100414D01*
X128600Y-100729D01*
X128915Y-100414D01*
X128915Y-100555D01*
X128670Y-100800D01*
X128985Y-101115D01*
X129045Y-101098D01*
X129045Y-101501D01*
X128985Y-101484D01*
X128670Y-101800D01*
X128985Y-102115D01*
X129045Y-102098D01*
X129045Y-106250D01*
X128987Y-106162D01*
X128685Y-105861D01*
X128685Y-102550D01*
X128659Y-102421D01*
X128659Y-102421D01*
X128612Y-102350D01*
X128736Y-102343D01*
X128887Y-102281D01*
X128915Y-102185D01*
X128600Y-101870D01*
X128594Y-101876D01*
X128523Y-101805D01*
X128529Y-101800D01*
X128523Y-101794D01*
X128594Y-101723D01*
X128600Y-101729D01*
X128915Y-101414D01*
X128887Y-101318D01*
X128839Y-101301D01*
X128887Y-101281D01*
X128915Y-101185D01*
X128600Y-100870D01*
X128594Y-100876D01*
X128523Y-100805D01*
X128529Y-100800D01*
X128214Y-100484D01*
X128118Y-100512D01*
X128077Y-100627D01*
X128030Y-100512D01*
X127887Y-100370D01*
X127701Y-100292D01*
X127499Y-100292D01*
X127356Y-100351D01*
X127356Y-98525D01*
X127359Y-98523D01*
X127405Y-98411D01*
X127405Y-98289D01*
X127367Y-98197D01*
X127441Y-98197D01*
X127941Y-98197D01*
X128017Y-98165D01*
X128075Y-98107D01*
X128107Y-98031D01*
X128107Y-97948D01*
X128107Y-97788D01*
X128103Y-97780D01*
X128107Y-97771D01*
X128107Y-97688D01*
X128107Y-97528D01*
X128105Y-97525D01*
X128107Y-97521D01*
X128107Y-97438D01*
X128107Y-97278D01*
X128103Y-97270D01*
X128107Y-97261D01*
X128107Y-97178D01*
X128107Y-97137D01*
X128141Y-97130D01*
X128158Y-97127D01*
X128158Y-97127D01*
X128241Y-97071D01*
X128306Y-97006D01*
X128343Y-97006D01*
X128443Y-97106D01*
X128443Y-99349D01*
X128443Y-99350D01*
X128459Y-99431D01*
X128462Y-99448D01*
X128518Y-99531D01*
X129018Y-100031D01*
X129018Y-100031D01*
X129118Y-100131D01*
X129118Y-100131D01*
X129185Y-100176D01*
X129185Y-100176D01*
X129283Y-100274D01*
X129423Y-100332D01*
X129495Y-100332D01*
G54D10*
G36*
X133950Y-110730D02*
X133341Y-110729D01*
X132396Y-111120D01*
X131672Y-111842D01*
X131280Y-112786D01*
X131280Y-113087D01*
X131276Y-113084D01*
X131257Y-113065D01*
X131231Y-113054D01*
X131208Y-113039D01*
X131180Y-113033D01*
X131155Y-113022D01*
X131127Y-113022D01*
X131100Y-113017D01*
X130865Y-113017D01*
X130865Y-111135D01*
X130550Y-110820D01*
X130479Y-110891D01*
X130479Y-110750D01*
X130164Y-110434D01*
X130068Y-110462D01*
X130050Y-110514D01*
X130050Y-110350D01*
X130050Y-109649D01*
X130049Y-109550D01*
X130011Y-109458D01*
X129941Y-109387D01*
X129849Y-109349D01*
X129612Y-109350D01*
X129550Y-109412D01*
X129550Y-109950D01*
X129987Y-109950D01*
X130050Y-109887D01*
X130050Y-109649D01*
X130050Y-110350D01*
X130050Y-110112D01*
X129987Y-110050D01*
X129550Y-110050D01*
X129550Y-110587D01*
X129612Y-110650D01*
X129849Y-110650D01*
X129941Y-110612D01*
X130011Y-110541D01*
X130049Y-110449D01*
X130050Y-110350D01*
X130050Y-110514D01*
X129995Y-110668D01*
X130006Y-110886D01*
X130068Y-111037D01*
X130164Y-111065D01*
X130479Y-110750D01*
X130479Y-110891D01*
X130234Y-111135D01*
X130262Y-111231D01*
X130468Y-111304D01*
X130686Y-111293D01*
X130837Y-111231D01*
X130865Y-111135D01*
X130865Y-113017D01*
X130020Y-113017D01*
X130020Y-112420D01*
X130020Y-111719D01*
X130019Y-111620D01*
X129981Y-111528D01*
X129911Y-111457D01*
X129819Y-111419D01*
X129582Y-111420D01*
X129520Y-111482D01*
X129520Y-112020D01*
X129957Y-112020D01*
X130020Y-111957D01*
X130020Y-111719D01*
X130020Y-112420D01*
X130020Y-112182D01*
X129957Y-112120D01*
X129520Y-112120D01*
X129520Y-112657D01*
X129582Y-112720D01*
X129819Y-112720D01*
X129911Y-112682D01*
X129981Y-112611D01*
X130019Y-112519D01*
X130020Y-112420D01*
X130020Y-113017D01*
X125876Y-113017D01*
X125876Y-112757D01*
X125876Y-112325D01*
X125483Y-112325D01*
X125420Y-112387D01*
X125420Y-112520D01*
X125420Y-112619D01*
X125458Y-112711D01*
X125529Y-112782D01*
X125620Y-112820D01*
X125813Y-112820D01*
X125876Y-112757D01*
X125876Y-113017D01*
X125230Y-113017D01*
X125236Y-113011D01*
X125343Y-112754D01*
X125343Y-112476D01*
X125237Y-112219D01*
X125040Y-112022D01*
X124866Y-111950D01*
X125420Y-111950D01*
X125420Y-112029D01*
X125420Y-112162D01*
X125483Y-112225D01*
X125876Y-112225D01*
X125876Y-112217D01*
X125976Y-112217D01*
X125976Y-112225D01*
X125983Y-112225D01*
X125983Y-112325D01*
X125976Y-112325D01*
X125976Y-112757D01*
X126038Y-112820D01*
X126231Y-112820D01*
X126322Y-112782D01*
X126342Y-112762D01*
X126377Y-112777D01*
X126459Y-112777D01*
X126970Y-112777D01*
X127037Y-112750D01*
X129350Y-112750D01*
X129350Y-112720D01*
X129357Y-112720D01*
X129420Y-112657D01*
X129420Y-112120D01*
X129412Y-112120D01*
X129412Y-112020D01*
X129420Y-112020D01*
X129420Y-111482D01*
X129357Y-111420D01*
X129350Y-111419D01*
X129350Y-110650D01*
X129387Y-110650D01*
X129450Y-110587D01*
X129450Y-110050D01*
X129442Y-110050D01*
X129442Y-109950D01*
X129450Y-109950D01*
X129450Y-109412D01*
X129387Y-109350D01*
X129350Y-109349D01*
X129350Y-108594D01*
X129454Y-108573D01*
X129585Y-108485D01*
X129686Y-108385D01*
X129711Y-108385D01*
X130514Y-109188D01*
X130514Y-110050D01*
X130540Y-110178D01*
X130553Y-110199D01*
X130413Y-110206D01*
X130262Y-110268D01*
X130234Y-110364D01*
X130550Y-110679D01*
X130555Y-110673D01*
X130626Y-110744D01*
X130620Y-110750D01*
X130935Y-111065D01*
X131031Y-111037D01*
X131104Y-110831D01*
X131101Y-110762D01*
X131171Y-110809D01*
X131300Y-110835D01*
X131650Y-110835D01*
X132100Y-110835D01*
X132228Y-110809D01*
X132337Y-110737D01*
X133950Y-109124D01*
X133950Y-110730D01*
X133950Y-110730D01*
G37*
G54D62*
X133950Y-110730D02*
X133341Y-110729D01*
X132396Y-111120D01*
X131672Y-111842D01*
X131280Y-112786D01*
X131280Y-113087D01*
X131276Y-113084D01*
X131257Y-113065D01*
X131231Y-113054D01*
X131208Y-113039D01*
X131180Y-113033D01*
X131155Y-113022D01*
X131127Y-113022D01*
X131100Y-113017D01*
X130865Y-113017D01*
X130865Y-111135D01*
X130550Y-110820D01*
X130479Y-110891D01*
X130479Y-110750D01*
X130164Y-110434D01*
X130068Y-110462D01*
X130050Y-110514D01*
X130050Y-110350D01*
X130050Y-109649D01*
X130049Y-109550D01*
X130011Y-109458D01*
X129941Y-109387D01*
X129849Y-109349D01*
X129612Y-109350D01*
X129550Y-109412D01*
X129550Y-109950D01*
X129987Y-109950D01*
X130050Y-109887D01*
X130050Y-109649D01*
X130050Y-110350D01*
X130050Y-110112D01*
X129987Y-110050D01*
X129550Y-110050D01*
X129550Y-110587D01*
X129612Y-110650D01*
X129849Y-110650D01*
X129941Y-110612D01*
X130011Y-110541D01*
X130049Y-110449D01*
X130050Y-110350D01*
X130050Y-110514D01*
X129995Y-110668D01*
X130006Y-110886D01*
X130068Y-111037D01*
X130164Y-111065D01*
X130479Y-110750D01*
X130479Y-110891D01*
X130234Y-111135D01*
X130262Y-111231D01*
X130468Y-111304D01*
X130686Y-111293D01*
X130837Y-111231D01*
X130865Y-111135D01*
X130865Y-113017D01*
X130020Y-113017D01*
X130020Y-112420D01*
X130020Y-111719D01*
X130019Y-111620D01*
X129981Y-111528D01*
X129911Y-111457D01*
X129819Y-111419D01*
X129582Y-111420D01*
X129520Y-111482D01*
X129520Y-112020D01*
X129957Y-112020D01*
X130020Y-111957D01*
X130020Y-111719D01*
X130020Y-112420D01*
X130020Y-112182D01*
X129957Y-112120D01*
X129520Y-112120D01*
X129520Y-112657D01*
X129582Y-112720D01*
X129819Y-112720D01*
X129911Y-112682D01*
X129981Y-112611D01*
X130019Y-112519D01*
X130020Y-112420D01*
X130020Y-113017D01*
X125876Y-113017D01*
X125876Y-112757D01*
X125876Y-112325D01*
X125483Y-112325D01*
X125420Y-112387D01*
X125420Y-112520D01*
X125420Y-112619D01*
X125458Y-112711D01*
X125529Y-112782D01*
X125620Y-112820D01*
X125813Y-112820D01*
X125876Y-112757D01*
X125876Y-113017D01*
X125230Y-113017D01*
X125236Y-113011D01*
X125343Y-112754D01*
X125343Y-112476D01*
X125237Y-112219D01*
X125040Y-112022D01*
X124866Y-111950D01*
X125420Y-111950D01*
X125420Y-112029D01*
X125420Y-112162D01*
X125483Y-112225D01*
X125876Y-112225D01*
X125876Y-112217D01*
X125976Y-112217D01*
X125976Y-112225D01*
X125983Y-112225D01*
X125983Y-112325D01*
X125976Y-112325D01*
X125976Y-112757D01*
X126038Y-112820D01*
X126231Y-112820D01*
X126322Y-112782D01*
X126342Y-112762D01*
X126377Y-112777D01*
X126459Y-112777D01*
X126970Y-112777D01*
X127037Y-112750D01*
X129350Y-112750D01*
X129350Y-112720D01*
X129357Y-112720D01*
X129420Y-112657D01*
X129420Y-112120D01*
X129412Y-112120D01*
X129412Y-112020D01*
X129420Y-112020D01*
X129420Y-111482D01*
X129357Y-111420D01*
X129350Y-111419D01*
X129350Y-110650D01*
X129387Y-110650D01*
X129450Y-110587D01*
X129450Y-110050D01*
X129442Y-110050D01*
X129442Y-109950D01*
X129450Y-109950D01*
X129450Y-109412D01*
X129387Y-109350D01*
X129350Y-109349D01*
X129350Y-108594D01*
X129454Y-108573D01*
X129585Y-108485D01*
X129686Y-108385D01*
X129711Y-108385D01*
X130514Y-109188D01*
X130514Y-110050D01*
X130540Y-110178D01*
X130553Y-110199D01*
X130413Y-110206D01*
X130262Y-110268D01*
X130234Y-110364D01*
X130550Y-110679D01*
X130555Y-110673D01*
X130626Y-110744D01*
X130620Y-110750D01*
X130935Y-111065D01*
X131031Y-111037D01*
X131104Y-110831D01*
X131101Y-110762D01*
X131171Y-110809D01*
X131300Y-110835D01*
X131650Y-110835D01*
X132100Y-110835D01*
X132228Y-110809D01*
X132337Y-110737D01*
X133950Y-109124D01*
X133950Y-110730D01*
G54D10*
G36*
X135450Y-97171D02*
X135335Y-97286D01*
X134566Y-97286D01*
X134490Y-97318D01*
X134432Y-97376D01*
X134400Y-97452D01*
X134400Y-97535D01*
X134400Y-98387D01*
X134282Y-98504D01*
X134213Y-98574D01*
X134213Y-98107D01*
X134213Y-97004D01*
X134175Y-96912D01*
X134104Y-96842D01*
X134012Y-96804D01*
X133913Y-96803D01*
X133327Y-96804D01*
X133265Y-96866D01*
X133265Y-97506D01*
X134150Y-97506D01*
X134213Y-97443D01*
X134213Y-97004D01*
X134213Y-98107D01*
X134213Y-97668D01*
X134150Y-97606D01*
X133265Y-97606D01*
X133265Y-98245D01*
X133327Y-98308D01*
X133913Y-98308D01*
X134012Y-98307D01*
X134104Y-98269D01*
X134175Y-98199D01*
X134213Y-98107D01*
X134213Y-98574D01*
X133388Y-99398D01*
X133263Y-99450D01*
X133199Y-99514D01*
X133165Y-99514D01*
X133165Y-98245D01*
X133165Y-97606D01*
X132279Y-97606D01*
X132217Y-97668D01*
X132216Y-98107D01*
X132254Y-98199D01*
X132325Y-98269D01*
X132417Y-98307D01*
X132516Y-98308D01*
X133102Y-98308D01*
X133165Y-98245D01*
X133165Y-99514D01*
X133150Y-99514D01*
X132650Y-99514D01*
X132521Y-99540D01*
X132412Y-99612D01*
X132412Y-99612D01*
X132412Y-99612D01*
X132319Y-99706D01*
X132319Y-99074D01*
X132315Y-98661D01*
X132164Y-98295D01*
X132018Y-98208D01*
X131350Y-98876D01*
X132018Y-99543D01*
X132164Y-99456D01*
X132319Y-99074D01*
X132319Y-99706D01*
X132161Y-99864D01*
X131609Y-99864D01*
X131860Y-99760D01*
X131947Y-99614D01*
X131280Y-98947D01*
X131209Y-99017D01*
X131209Y-98876D01*
X130541Y-98208D01*
X130395Y-98295D01*
X130240Y-98678D01*
X130244Y-99090D01*
X130395Y-99456D01*
X130541Y-99543D01*
X131209Y-98876D01*
X131209Y-99017D01*
X130612Y-99614D01*
X130699Y-99760D01*
X130956Y-99864D01*
X130528Y-99864D01*
X130509Y-99771D01*
X130437Y-99662D01*
X129510Y-98736D01*
X129510Y-98408D01*
X129525Y-98392D01*
X129550Y-98334D01*
X129574Y-98392D01*
X129632Y-98450D01*
X129708Y-98482D01*
X129791Y-98482D01*
X130141Y-98482D01*
X130217Y-98450D01*
X130275Y-98392D01*
X130307Y-98316D01*
X130307Y-98233D01*
X130307Y-97784D01*
X130479Y-97612D01*
X130715Y-97849D01*
X130879Y-97917D01*
X130699Y-97992D01*
X130612Y-98138D01*
X131280Y-98805D01*
X131947Y-98138D01*
X131860Y-97992D01*
X131678Y-97918D01*
X131842Y-97850D01*
X132122Y-97570D01*
X132216Y-97344D01*
X132217Y-97443D01*
X132279Y-97506D01*
X133165Y-97506D01*
X133165Y-96866D01*
X133102Y-96804D01*
X132516Y-96803D01*
X132417Y-96804D01*
X132325Y-96842D01*
X132274Y-96892D01*
X132275Y-96809D01*
X132167Y-96550D01*
X135450Y-96550D01*
X135450Y-97171D01*
X135450Y-97171D01*
G37*
G54D62*
X135450Y-97171D02*
X135335Y-97286D01*
X134566Y-97286D01*
X134490Y-97318D01*
X134432Y-97376D01*
X134400Y-97452D01*
X134400Y-97535D01*
X134400Y-98387D01*
X134282Y-98504D01*
X134213Y-98574D01*
X134213Y-98107D01*
X134213Y-97004D01*
X134175Y-96912D01*
X134104Y-96842D01*
X134012Y-96804D01*
X133913Y-96803D01*
X133327Y-96804D01*
X133265Y-96866D01*
X133265Y-97506D01*
X134150Y-97506D01*
X134213Y-97443D01*
X134213Y-97004D01*
X134213Y-98107D01*
X134213Y-97668D01*
X134150Y-97606D01*
X133265Y-97606D01*
X133265Y-98245D01*
X133327Y-98308D01*
X133913Y-98308D01*
X134012Y-98307D01*
X134104Y-98269D01*
X134175Y-98199D01*
X134213Y-98107D01*
X134213Y-98574D01*
X133388Y-99398D01*
X133263Y-99450D01*
X133199Y-99514D01*
X133165Y-99514D01*
X133165Y-98245D01*
X133165Y-97606D01*
X132279Y-97606D01*
X132217Y-97668D01*
X132216Y-98107D01*
X132254Y-98199D01*
X132325Y-98269D01*
X132417Y-98307D01*
X132516Y-98308D01*
X133102Y-98308D01*
X133165Y-98245D01*
X133165Y-99514D01*
X133150Y-99514D01*
X132650Y-99514D01*
X132521Y-99540D01*
X132412Y-99612D01*
X132412Y-99612D01*
X132412Y-99612D01*
X132319Y-99706D01*
X132319Y-99074D01*
X132315Y-98661D01*
X132164Y-98295D01*
X132018Y-98208D01*
X131350Y-98876D01*
X132018Y-99543D01*
X132164Y-99456D01*
X132319Y-99074D01*
X132319Y-99706D01*
X132161Y-99864D01*
X131609Y-99864D01*
X131860Y-99760D01*
X131947Y-99614D01*
X131280Y-98947D01*
X131209Y-99017D01*
X131209Y-98876D01*
X130541Y-98208D01*
X130395Y-98295D01*
X130240Y-98678D01*
X130244Y-99090D01*
X130395Y-99456D01*
X130541Y-99543D01*
X131209Y-98876D01*
X131209Y-99017D01*
X130612Y-99614D01*
X130699Y-99760D01*
X130956Y-99864D01*
X130528Y-99864D01*
X130509Y-99771D01*
X130437Y-99662D01*
X129510Y-98736D01*
X129510Y-98408D01*
X129525Y-98392D01*
X129550Y-98334D01*
X129574Y-98392D01*
X129632Y-98450D01*
X129708Y-98482D01*
X129791Y-98482D01*
X130141Y-98482D01*
X130217Y-98450D01*
X130275Y-98392D01*
X130307Y-98316D01*
X130307Y-98233D01*
X130307Y-97784D01*
X130479Y-97612D01*
X130715Y-97849D01*
X130879Y-97917D01*
X130699Y-97992D01*
X130612Y-98138D01*
X131280Y-98805D01*
X131947Y-98138D01*
X131860Y-97992D01*
X131678Y-97918D01*
X131842Y-97850D01*
X132122Y-97570D01*
X132216Y-97344D01*
X132217Y-97443D01*
X132279Y-97506D01*
X133165Y-97506D01*
X133165Y-96866D01*
X133102Y-96804D01*
X132516Y-96803D01*
X132417Y-96804D01*
X132325Y-96842D01*
X132274Y-96892D01*
X132275Y-96809D01*
X132167Y-96550D01*
X135450Y-96550D01*
X135450Y-97171D01*
G54D10*
G36*
X137656Y-98672D02*
X137379Y-98949D01*
X137355Y-98949D01*
X137242Y-98950D01*
X137180Y-99012D01*
X137180Y-99325D01*
X137187Y-99325D01*
X137187Y-99425D01*
X137180Y-99425D01*
X137180Y-99432D01*
X137080Y-99432D01*
X137080Y-99425D01*
X137080Y-99325D01*
X137080Y-99012D01*
X137017Y-98950D01*
X136904Y-98949D01*
X136805Y-98950D01*
X136713Y-98988D01*
X136642Y-99058D01*
X136604Y-99150D01*
X136605Y-99262D01*
X136667Y-99325D01*
X137080Y-99325D01*
X137080Y-99425D01*
X136667Y-99425D01*
X136605Y-99487D01*
X136604Y-99599D01*
X136612Y-99617D01*
X136050Y-100179D01*
X136050Y-100650D01*
X135781Y-100650D01*
X135804Y-100627D01*
X135842Y-100535D01*
X135842Y-99432D01*
X135804Y-99340D01*
X135733Y-99270D01*
X135641Y-99232D01*
X135542Y-99231D01*
X135212Y-99232D01*
X135150Y-99294D01*
X135150Y-99934D01*
X135779Y-99934D01*
X135842Y-99871D01*
X135842Y-99432D01*
X135842Y-100535D01*
X135842Y-100096D01*
X135779Y-100034D01*
X135150Y-100034D01*
X135150Y-100041D01*
X135050Y-100041D01*
X135050Y-100034D01*
X135050Y-99934D01*
X135050Y-99294D01*
X134987Y-99232D01*
X134657Y-99231D01*
X134558Y-99232D01*
X134466Y-99270D01*
X134395Y-99340D01*
X134357Y-99432D01*
X134358Y-99871D01*
X134420Y-99934D01*
X135050Y-99934D01*
X135050Y-100034D01*
X134420Y-100034D01*
X134358Y-100096D01*
X134357Y-100535D01*
X134395Y-100627D01*
X134418Y-100650D01*
X130479Y-100650D01*
X130150Y-100979D01*
X130150Y-105220D01*
X130479Y-105550D01*
X132100Y-105550D01*
X134550Y-105550D01*
X134550Y-107219D01*
X134377Y-107290D01*
X134241Y-107426D01*
X134167Y-107603D01*
X134167Y-107795D01*
X134240Y-107972D01*
X134376Y-108108D01*
X134550Y-108180D01*
X134550Y-108219D01*
X134377Y-108290D01*
X134303Y-108364D01*
X133900Y-108364D01*
X133771Y-108390D01*
X133662Y-108462D01*
X131961Y-110164D01*
X131789Y-110164D01*
X131922Y-110109D01*
X132058Y-109973D01*
X132132Y-109796D01*
X132132Y-109604D01*
X132132Y-108604D01*
X132132Y-108604D01*
X132132Y-107933D01*
X132132Y-107383D01*
X132100Y-107307D01*
X132042Y-107249D01*
X131966Y-107217D01*
X131883Y-107217D01*
X131333Y-107217D01*
X131257Y-107249D01*
X131199Y-107307D01*
X131167Y-107383D01*
X131167Y-107466D01*
X131167Y-108016D01*
X131199Y-108092D01*
X131257Y-108150D01*
X131333Y-108182D01*
X131416Y-108182D01*
X131966Y-108182D01*
X132042Y-108150D01*
X132100Y-108092D01*
X132132Y-108016D01*
X132132Y-107933D01*
X132132Y-108604D01*
X132059Y-108427D01*
X131923Y-108291D01*
X131746Y-108217D01*
X131554Y-108217D01*
X131377Y-108290D01*
X131241Y-108426D01*
X131167Y-108603D01*
X131167Y-108795D01*
X131240Y-108972D01*
X131376Y-109108D01*
X131553Y-109182D01*
X131745Y-109182D01*
X131922Y-109109D01*
X132058Y-108973D01*
X132132Y-108796D01*
X132132Y-108604D01*
X132132Y-109604D01*
X132059Y-109427D01*
X131923Y-109291D01*
X131746Y-109217D01*
X131554Y-109217D01*
X131377Y-109290D01*
X131241Y-109426D01*
X131185Y-109560D01*
X131185Y-109050D01*
X131159Y-108921D01*
X131159Y-108921D01*
X131087Y-108812D01*
X131057Y-108783D01*
X131057Y-106649D01*
X130980Y-106462D01*
X130837Y-106320D01*
X130651Y-106242D01*
X130449Y-106242D01*
X130262Y-106319D01*
X130120Y-106462D01*
X130042Y-106648D01*
X130042Y-106850D01*
X130119Y-107037D01*
X130262Y-107179D01*
X130448Y-107257D01*
X130650Y-107257D01*
X130837Y-107180D01*
X130979Y-107037D01*
X131057Y-106851D01*
X131057Y-106649D01*
X131057Y-108783D01*
X130087Y-107812D01*
X129978Y-107740D01*
X129854Y-107715D01*
X129854Y-107324D01*
X129854Y-101117D01*
X130436Y-100535D01*
X132300Y-100535D01*
X132428Y-100509D01*
X132537Y-100437D01*
X132788Y-100185D01*
X133150Y-100185D01*
X133412Y-100185D01*
X133540Y-100159D01*
X133543Y-100157D01*
X133555Y-100157D01*
X133696Y-100099D01*
X133804Y-99991D01*
X133846Y-99889D01*
X134757Y-98979D01*
X135030Y-98705D01*
X135633Y-98705D01*
X135709Y-98673D01*
X135767Y-98615D01*
X135799Y-98539D01*
X135799Y-98473D01*
X135843Y-98516D01*
X135935Y-98554D01*
X136034Y-98555D01*
X136147Y-98555D01*
X136210Y-98492D01*
X136210Y-98180D01*
X136202Y-98180D01*
X136202Y-98150D01*
X136317Y-98150D01*
X136317Y-98180D01*
X136310Y-98180D01*
X136310Y-98492D01*
X136372Y-98555D01*
X136485Y-98555D01*
X136584Y-98554D01*
X136676Y-98516D01*
X136747Y-98446D01*
X136785Y-98354D01*
X136785Y-98350D01*
X137024Y-98350D01*
X137024Y-98360D01*
X137086Y-98360D01*
X137024Y-98422D01*
X137023Y-98477D01*
X137061Y-98569D01*
X137132Y-98639D01*
X137224Y-98677D01*
X137323Y-98678D01*
X137594Y-98678D01*
X137656Y-98615D01*
X137656Y-98672D01*
X137656Y-98672D01*
G37*
G54D62*
X137656Y-98672D02*
X137379Y-98949D01*
X137355Y-98949D01*
X137242Y-98950D01*
X137180Y-99012D01*
X137180Y-99325D01*
X137187Y-99325D01*
X137187Y-99425D01*
X137180Y-99425D01*
X137180Y-99432D01*
X137080Y-99432D01*
X137080Y-99425D01*
X137080Y-99325D01*
X137080Y-99012D01*
X137017Y-98950D01*
X136904Y-98949D01*
X136805Y-98950D01*
X136713Y-98988D01*
X136642Y-99058D01*
X136604Y-99150D01*
X136605Y-99262D01*
X136667Y-99325D01*
X137080Y-99325D01*
X137080Y-99425D01*
X136667Y-99425D01*
X136605Y-99487D01*
X136604Y-99599D01*
X136612Y-99617D01*
X136050Y-100179D01*
X136050Y-100650D01*
X135781Y-100650D01*
X135804Y-100627D01*
X135842Y-100535D01*
X135842Y-99432D01*
X135804Y-99340D01*
X135733Y-99270D01*
X135641Y-99232D01*
X135542Y-99231D01*
X135212Y-99232D01*
X135150Y-99294D01*
X135150Y-99934D01*
X135779Y-99934D01*
X135842Y-99871D01*
X135842Y-99432D01*
X135842Y-100535D01*
X135842Y-100096D01*
X135779Y-100034D01*
X135150Y-100034D01*
X135150Y-100041D01*
X135050Y-100041D01*
X135050Y-100034D01*
X135050Y-99934D01*
X135050Y-99294D01*
X134987Y-99232D01*
X134657Y-99231D01*
X134558Y-99232D01*
X134466Y-99270D01*
X134395Y-99340D01*
X134357Y-99432D01*
X134358Y-99871D01*
X134420Y-99934D01*
X135050Y-99934D01*
X135050Y-100034D01*
X134420Y-100034D01*
X134358Y-100096D01*
X134357Y-100535D01*
X134395Y-100627D01*
X134418Y-100650D01*
X130479Y-100650D01*
X130150Y-100979D01*
X130150Y-105220D01*
X130479Y-105550D01*
X132100Y-105550D01*
X134550Y-105550D01*
X134550Y-107219D01*
X134377Y-107290D01*
X134241Y-107426D01*
X134167Y-107603D01*
X134167Y-107795D01*
X134240Y-107972D01*
X134376Y-108108D01*
X134550Y-108180D01*
X134550Y-108219D01*
X134377Y-108290D01*
X134303Y-108364D01*
X133900Y-108364D01*
X133771Y-108390D01*
X133662Y-108462D01*
X131961Y-110164D01*
X131789Y-110164D01*
X131922Y-110109D01*
X132058Y-109973D01*
X132132Y-109796D01*
X132132Y-109604D01*
X132132Y-108604D01*
X132132Y-108604D01*
X132132Y-107933D01*
X132132Y-107383D01*
X132100Y-107307D01*
X132042Y-107249D01*
X131966Y-107217D01*
X131883Y-107217D01*
X131333Y-107217D01*
X131257Y-107249D01*
X131199Y-107307D01*
X131167Y-107383D01*
X131167Y-107466D01*
X131167Y-108016D01*
X131199Y-108092D01*
X131257Y-108150D01*
X131333Y-108182D01*
X131416Y-108182D01*
X131966Y-108182D01*
X132042Y-108150D01*
X132100Y-108092D01*
X132132Y-108016D01*
X132132Y-107933D01*
X132132Y-108604D01*
X132059Y-108427D01*
X131923Y-108291D01*
X131746Y-108217D01*
X131554Y-108217D01*
X131377Y-108290D01*
X131241Y-108426D01*
X131167Y-108603D01*
X131167Y-108795D01*
X131240Y-108972D01*
X131376Y-109108D01*
X131553Y-109182D01*
X131745Y-109182D01*
X131922Y-109109D01*
X132058Y-108973D01*
X132132Y-108796D01*
X132132Y-108604D01*
X132132Y-109604D01*
X132059Y-109427D01*
X131923Y-109291D01*
X131746Y-109217D01*
X131554Y-109217D01*
X131377Y-109290D01*
X131241Y-109426D01*
X131185Y-109560D01*
X131185Y-109050D01*
X131159Y-108921D01*
X131159Y-108921D01*
X131087Y-108812D01*
X131057Y-108783D01*
X131057Y-106649D01*
X130980Y-106462D01*
X130837Y-106320D01*
X130651Y-106242D01*
X130449Y-106242D01*
X130262Y-106319D01*
X130120Y-106462D01*
X130042Y-106648D01*
X130042Y-106850D01*
X130119Y-107037D01*
X130262Y-107179D01*
X130448Y-107257D01*
X130650Y-107257D01*
X130837Y-107180D01*
X130979Y-107037D01*
X131057Y-106851D01*
X131057Y-106649D01*
X131057Y-108783D01*
X130087Y-107812D01*
X129978Y-107740D01*
X129854Y-107715D01*
X129854Y-107324D01*
X129854Y-101117D01*
X130436Y-100535D01*
X132300Y-100535D01*
X132428Y-100509D01*
X132537Y-100437D01*
X132788Y-100185D01*
X133150Y-100185D01*
X133412Y-100185D01*
X133540Y-100159D01*
X133543Y-100157D01*
X133555Y-100157D01*
X133696Y-100099D01*
X133804Y-99991D01*
X133846Y-99889D01*
X134757Y-98979D01*
X135030Y-98705D01*
X135633Y-98705D01*
X135709Y-98673D01*
X135767Y-98615D01*
X135799Y-98539D01*
X135799Y-98473D01*
X135843Y-98516D01*
X135935Y-98554D01*
X136034Y-98555D01*
X136147Y-98555D01*
X136210Y-98492D01*
X136210Y-98180D01*
X136202Y-98180D01*
X136202Y-98150D01*
X136317Y-98150D01*
X136317Y-98180D01*
X136310Y-98180D01*
X136310Y-98492D01*
X136372Y-98555D01*
X136485Y-98555D01*
X136584Y-98554D01*
X136676Y-98516D01*
X136747Y-98446D01*
X136785Y-98354D01*
X136785Y-98350D01*
X137024Y-98350D01*
X137024Y-98360D01*
X137086Y-98360D01*
X137024Y-98422D01*
X137023Y-98477D01*
X137061Y-98569D01*
X137132Y-98639D01*
X137224Y-98677D01*
X137323Y-98678D01*
X137594Y-98678D01*
X137656Y-98615D01*
X137656Y-98672D01*
G54D10*
G36*
X149367Y-88250D02*
X147429Y-88250D01*
X144150Y-91529D01*
X144150Y-92790D01*
X144121Y-92778D01*
X143682Y-92778D01*
X143620Y-92841D01*
X143620Y-93963D01*
X143627Y-93963D01*
X143627Y-94063D01*
X143620Y-94063D01*
X143620Y-94070D01*
X143520Y-94070D01*
X143520Y-94063D01*
X143520Y-93963D01*
X143520Y-92841D01*
X143457Y-92778D01*
X143018Y-92778D01*
X142926Y-92816D01*
X142856Y-92886D01*
X142818Y-92978D01*
X142817Y-93078D01*
X142818Y-93900D01*
X142880Y-93963D01*
X143520Y-93963D01*
X143520Y-94063D01*
X142880Y-94063D01*
X142818Y-94125D01*
X142817Y-94947D01*
X142818Y-95047D01*
X142856Y-95139D01*
X142926Y-95209D01*
X143018Y-95247D01*
X143350Y-95247D01*
X143350Y-97479D01*
X142579Y-98250D01*
X142515Y-98250D01*
X142515Y-98230D01*
X142515Y-97779D01*
X142514Y-97680D01*
X142476Y-97588D01*
X142406Y-97517D01*
X142314Y-97479D01*
X142202Y-97480D01*
X142140Y-97542D01*
X142140Y-97955D01*
X142452Y-97955D01*
X142515Y-97892D01*
X142515Y-97779D01*
X142515Y-98230D01*
X142515Y-98117D01*
X142452Y-98055D01*
X142140Y-98055D01*
X142140Y-98062D01*
X142040Y-98062D01*
X142040Y-98055D01*
X142032Y-98055D01*
X142032Y-97955D01*
X142040Y-97955D01*
X142040Y-97542D01*
X141977Y-97480D01*
X141950Y-97479D01*
X141950Y-97350D01*
X142079Y-97350D01*
X142179Y-97450D01*
X142720Y-97450D01*
X143050Y-97120D01*
X143050Y-95450D01*
X142800Y-95450D01*
X142800Y-94792D01*
X142800Y-93905D01*
X142762Y-93814D01*
X142692Y-93743D01*
X142600Y-93705D01*
X142500Y-93705D01*
X142072Y-93705D01*
X142010Y-93768D01*
X142010Y-94299D01*
X142738Y-94299D01*
X142800Y-94236D01*
X142800Y-93905D01*
X142800Y-94792D01*
X142800Y-94461D01*
X142738Y-94399D01*
X142010Y-94399D01*
X142010Y-94930D01*
X142072Y-94992D01*
X142500Y-94992D01*
X142600Y-94992D01*
X142692Y-94954D01*
X142762Y-94883D01*
X142800Y-94792D01*
X142800Y-95450D01*
X141720Y-95450D01*
X141450Y-95179D01*
X141450Y-94992D01*
X141847Y-94992D01*
X141910Y-94930D01*
X141910Y-94399D01*
X141902Y-94399D01*
X141902Y-94299D01*
X141910Y-94299D01*
X141910Y-93768D01*
X141847Y-93705D01*
X141450Y-93705D01*
X141450Y-92950D01*
X141970Y-92950D01*
X142950Y-91970D01*
X142950Y-91470D01*
X143900Y-90520D01*
X143848Y-88199D01*
X143700Y-88200D01*
X143700Y-87400D01*
X143700Y-85900D01*
X139150Y-85900D01*
X139150Y-87400D01*
X143700Y-87400D01*
X143700Y-88200D01*
X132379Y-88250D01*
X131864Y-88764D01*
X130707Y-89921D01*
X130707Y-87500D01*
X130707Y-85722D01*
X125292Y-85722D01*
X125292Y-87500D01*
X130707Y-87500D01*
X130707Y-89921D01*
X130439Y-90190D01*
X130439Y-89254D01*
X130435Y-88841D01*
X130284Y-88475D01*
X130138Y-88388D01*
X130067Y-88459D01*
X130067Y-88318D01*
X129980Y-88172D01*
X129598Y-88017D01*
X129185Y-88020D01*
X128819Y-88172D01*
X128732Y-88318D01*
X129400Y-88985D01*
X130067Y-88318D01*
X130067Y-88459D01*
X129470Y-89056D01*
X130138Y-89723D01*
X130284Y-89636D01*
X130439Y-89254D01*
X130439Y-90190D01*
X130150Y-90479D01*
X130150Y-95120D01*
X131052Y-96023D01*
X130717Y-96162D01*
X130437Y-96442D01*
X130288Y-96798D01*
X130067Y-97020D01*
X130067Y-89794D01*
X129400Y-89127D01*
X129329Y-89197D01*
X129329Y-89056D01*
X128661Y-88388D01*
X128515Y-88475D01*
X128360Y-88858D01*
X128364Y-89270D01*
X128515Y-89636D01*
X128661Y-89723D01*
X129329Y-89056D01*
X129329Y-89197D01*
X128732Y-89794D01*
X128819Y-89940D01*
X129201Y-90095D01*
X129614Y-90092D01*
X129980Y-89940D01*
X130067Y-89794D01*
X130067Y-97020D01*
X130047Y-97040D01*
X130060Y-96975D01*
X130060Y-91305D01*
X130034Y-91176D01*
X130034Y-91176D01*
X129962Y-91067D01*
X129947Y-91052D01*
X129947Y-91052D01*
X129265Y-90370D01*
X129156Y-90298D01*
X129028Y-90272D01*
X128974Y-90272D01*
X127568Y-90272D01*
X127439Y-90298D01*
X127330Y-90370D01*
X127002Y-90699D01*
X127035Y-90620D01*
X127035Y-90171D01*
X126997Y-90079D01*
X126926Y-90009D01*
X126834Y-89971D01*
X126735Y-89970D01*
X126622Y-89971D01*
X126560Y-90033D01*
X126560Y-90346D01*
X126972Y-90346D01*
X127035Y-90283D01*
X127035Y-90171D01*
X127035Y-90620D01*
X127035Y-90508D01*
X126972Y-90446D01*
X126560Y-90446D01*
X126560Y-90453D01*
X126460Y-90453D01*
X126460Y-90446D01*
X126460Y-90346D01*
X126460Y-90033D01*
X126397Y-89971D01*
X126284Y-89970D01*
X126185Y-89971D01*
X126093Y-90009D01*
X126039Y-90062D01*
X125971Y-89994D01*
X125879Y-89956D01*
X125780Y-89955D01*
X125667Y-89956D01*
X125605Y-90018D01*
X125605Y-90331D01*
X126017Y-90331D01*
X126025Y-90323D01*
X126047Y-90346D01*
X126460Y-90346D01*
X126460Y-90446D01*
X126047Y-90446D01*
X126040Y-90453D01*
X126017Y-90431D01*
X125605Y-90431D01*
X125605Y-90438D01*
X125505Y-90438D01*
X125505Y-90431D01*
X125505Y-90331D01*
X125505Y-90018D01*
X125442Y-89956D01*
X125329Y-89955D01*
X125230Y-89956D01*
X125138Y-89994D01*
X125067Y-90064D01*
X125029Y-90156D01*
X125030Y-90268D01*
X125092Y-90331D01*
X125505Y-90331D01*
X125505Y-90431D01*
X125092Y-90431D01*
X125030Y-90493D01*
X125029Y-90605D01*
X125067Y-90697D01*
X125138Y-90767D01*
X125165Y-90778D01*
X125162Y-90780D01*
X125104Y-90838D01*
X125072Y-90914D01*
X125072Y-90997D01*
X125072Y-91347D01*
X125104Y-91423D01*
X125162Y-91481D01*
X125238Y-91513D01*
X125272Y-91513D01*
X125272Y-92588D01*
X125240Y-92620D01*
X125203Y-92531D01*
X125198Y-92526D01*
X125198Y-92495D01*
X125203Y-92490D01*
X125241Y-92399D01*
X125241Y-92367D01*
X125178Y-92305D01*
X125167Y-92305D01*
X125166Y-92305D01*
X125122Y-92260D01*
X125166Y-92217D01*
X125166Y-92216D01*
X125178Y-92216D01*
X125241Y-92154D01*
X125241Y-92122D01*
X125203Y-92031D01*
X125198Y-92026D01*
X125198Y-91881D01*
X125198Y-91881D01*
X125198Y-91808D01*
X125198Y-91631D01*
X125166Y-91555D01*
X125108Y-91496D01*
X125032Y-91465D01*
X124978Y-91465D01*
X124978Y-91418D01*
X124956Y-91309D01*
X124895Y-91218D01*
X124895Y-91218D01*
X124473Y-90796D01*
X124382Y-90735D01*
X124286Y-90716D01*
X124280Y-90703D01*
X124222Y-90645D01*
X124146Y-90613D01*
X124137Y-90613D01*
X124132Y-90605D01*
X124081Y-90528D01*
X124081Y-90528D01*
X123701Y-90148D01*
X123585Y-90071D01*
X123506Y-90056D01*
X123479Y-89991D01*
X123635Y-89835D01*
X123688Y-89757D01*
X123791Y-89757D01*
X123867Y-89725D01*
X123925Y-89667D01*
X123957Y-89591D01*
X123957Y-89508D01*
X123957Y-88908D01*
X123925Y-88832D01*
X123867Y-88774D01*
X123791Y-88742D01*
X123708Y-88742D01*
X122908Y-88742D01*
X122832Y-88774D01*
X122774Y-88832D01*
X122742Y-88908D01*
X122742Y-88991D01*
X122742Y-89585D01*
X122614Y-89714D01*
X122526Y-89845D01*
X122517Y-89892D01*
X122458Y-89892D01*
X122382Y-89924D01*
X122324Y-89982D01*
X122292Y-90058D01*
X122292Y-90141D01*
X122292Y-90741D01*
X122324Y-90817D01*
X122382Y-90875D01*
X122458Y-90907D01*
X122541Y-90907D01*
X123341Y-90907D01*
X123347Y-90904D01*
X123347Y-91195D01*
X123341Y-91192D01*
X123258Y-91192D01*
X122458Y-91192D01*
X122382Y-91224D01*
X122324Y-91282D01*
X122318Y-91295D01*
X122257Y-91295D01*
X122257Y-90658D01*
X122257Y-90058D01*
X122225Y-89982D01*
X122167Y-89924D01*
X122133Y-89909D01*
X122133Y-88450D01*
X122133Y-88449D01*
X122096Y-88265D01*
X121991Y-88108D01*
X121991Y-88108D01*
X121769Y-87886D01*
X121844Y-87705D01*
X121845Y-87309D01*
X121693Y-86943D01*
X121414Y-86663D01*
X121048Y-86511D01*
X120652Y-86511D01*
X120287Y-86662D01*
X120007Y-86942D01*
X119855Y-87307D01*
X119854Y-87703D01*
X120006Y-88069D01*
X120285Y-88349D01*
X120651Y-88501D01*
X121018Y-88501D01*
X121166Y-88650D01*
X121166Y-89909D01*
X121132Y-89924D01*
X121074Y-89982D01*
X121042Y-90058D01*
X121042Y-90141D01*
X121042Y-90741D01*
X121074Y-90817D01*
X121132Y-90875D01*
X121208Y-90907D01*
X121291Y-90907D01*
X122091Y-90907D01*
X122167Y-90875D01*
X122225Y-90817D01*
X122257Y-90741D01*
X122257Y-90658D01*
X122257Y-91295D01*
X122231Y-91295D01*
X122225Y-91282D01*
X122167Y-91224D01*
X122091Y-91192D01*
X122008Y-91192D01*
X121208Y-91192D01*
X121132Y-91224D01*
X121074Y-91282D01*
X121042Y-91358D01*
X121042Y-91441D01*
X121042Y-92041D01*
X121074Y-92117D01*
X121132Y-92175D01*
X121208Y-92207D01*
X121291Y-92207D01*
X121572Y-92207D01*
X121532Y-92224D01*
X121474Y-92282D01*
X121442Y-92358D01*
X121442Y-92441D01*
X121442Y-93241D01*
X121474Y-93317D01*
X121532Y-93375D01*
X121608Y-93407D01*
X121691Y-93407D01*
X122291Y-93407D01*
X122298Y-93404D01*
X122324Y-93467D01*
X122382Y-93525D01*
X122458Y-93557D01*
X122541Y-93557D01*
X123341Y-93557D01*
X123375Y-93543D01*
X123407Y-93575D01*
X123465Y-93600D01*
X123407Y-93624D01*
X123349Y-93682D01*
X123317Y-93758D01*
X123317Y-93841D01*
X123317Y-93842D01*
X123258Y-93842D01*
X122458Y-93842D01*
X122457Y-93843D01*
X122457Y-93658D01*
X122425Y-93582D01*
X122367Y-93524D01*
X122291Y-93492D01*
X122208Y-93492D01*
X121608Y-93492D01*
X121532Y-93524D01*
X121474Y-93582D01*
X121442Y-93658D01*
X121442Y-93741D01*
X121442Y-94541D01*
X121474Y-94617D01*
X121532Y-94675D01*
X121608Y-94707D01*
X121691Y-94707D01*
X122021Y-94707D01*
X122045Y-94723D01*
X122200Y-94754D01*
X122318Y-94754D01*
X122324Y-94767D01*
X122382Y-94825D01*
X122458Y-94857D01*
X122541Y-94857D01*
X123341Y-94857D01*
X123417Y-94825D01*
X123475Y-94767D01*
X123501Y-94705D01*
X123625Y-94705D01*
X123760Y-94678D01*
X123760Y-94678D01*
X123876Y-94601D01*
X124051Y-94426D01*
X124051Y-94426D01*
X124096Y-94357D01*
X124116Y-94357D01*
X124192Y-94325D01*
X124250Y-94267D01*
X124250Y-94267D01*
X124414Y-94267D01*
X124415Y-94267D01*
X124415Y-94267D01*
X124508Y-94248D01*
X124526Y-94245D01*
X124526Y-94245D01*
X124621Y-94181D01*
X124902Y-93900D01*
X124902Y-93900D01*
X124902Y-93900D01*
X124965Y-93807D01*
X125032Y-93807D01*
X125108Y-93775D01*
X125166Y-93717D01*
X125198Y-93640D01*
X125198Y-93558D01*
X125198Y-93381D01*
X125198Y-93381D01*
X125198Y-93374D01*
X126029Y-94204D01*
X126124Y-94268D01*
X126124Y-94268D01*
X126236Y-94290D01*
X127397Y-94290D01*
X127398Y-94290D01*
X127398Y-94290D01*
X127491Y-94271D01*
X127509Y-94268D01*
X127509Y-94268D01*
X127604Y-94204D01*
X127791Y-94018D01*
X127986Y-94018D01*
X128062Y-93986D01*
X128071Y-93978D01*
X128141Y-94007D01*
X128175Y-94007D01*
X128175Y-95723D01*
X128172Y-95726D01*
X128172Y-95726D01*
X128150Y-95748D01*
X128150Y-95730D01*
X128112Y-95638D01*
X128107Y-95634D01*
X128107Y-95478D01*
X128075Y-95402D01*
X128017Y-95344D01*
X127941Y-95312D01*
X127858Y-95312D01*
X127358Y-95312D01*
X127346Y-95317D01*
X127045Y-95317D01*
X126936Y-95339D01*
X126900Y-95363D01*
X126845Y-95400D01*
X126845Y-95400D01*
X126818Y-95427D01*
X126759Y-95427D01*
X126618Y-95485D01*
X126543Y-95560D01*
X126523Y-95540D01*
X126411Y-95494D01*
X126289Y-95494D01*
X126176Y-95540D01*
X126114Y-95603D01*
X126050Y-95603D01*
X126050Y-95470D01*
X126012Y-95378D01*
X125941Y-95308D01*
X125849Y-95270D01*
X125750Y-95269D01*
X125662Y-95270D01*
X125600Y-95332D01*
X125600Y-95560D01*
X125987Y-95560D01*
X126050Y-95497D01*
X126050Y-95470D01*
X126050Y-95603D01*
X125915Y-95603D01*
X125841Y-95572D01*
X125758Y-95572D01*
X125500Y-95572D01*
X125500Y-95560D01*
X125500Y-95332D01*
X125437Y-95270D01*
X125349Y-95269D01*
X125250Y-95270D01*
X125158Y-95308D01*
X125087Y-95378D01*
X125049Y-95470D01*
X125050Y-95497D01*
X125112Y-95560D01*
X125500Y-95560D01*
X125500Y-95572D01*
X125258Y-95572D01*
X125182Y-95604D01*
X125146Y-95640D01*
X125112Y-95640D01*
X125050Y-95702D01*
X125049Y-95729D01*
X125087Y-95821D01*
X125092Y-95825D01*
X125092Y-95981D01*
X125096Y-95989D01*
X125092Y-95998D01*
X125092Y-96081D01*
X125092Y-96241D01*
X125094Y-96244D01*
X125092Y-96248D01*
X125092Y-96331D01*
X125092Y-96491D01*
X125096Y-96499D01*
X125092Y-96508D01*
X125092Y-96591D01*
X125092Y-96751D01*
X125096Y-96759D01*
X125092Y-96768D01*
X125092Y-96851D01*
X125092Y-96883D01*
X124410Y-96883D01*
X124409Y-96883D01*
X124311Y-96902D01*
X124228Y-96958D01*
X124228Y-96958D01*
X121893Y-99293D01*
X121172Y-99293D01*
X121172Y-94100D01*
X121157Y-94024D01*
X121157Y-93658D01*
X121157Y-93158D01*
X121157Y-92358D01*
X121125Y-92282D01*
X121067Y-92224D01*
X120991Y-92192D01*
X120908Y-92192D01*
X120675Y-92192D01*
X120083Y-91599D01*
X120083Y-91433D01*
X120162Y-91400D01*
X120442Y-91120D01*
X120594Y-90755D01*
X120595Y-90359D01*
X120443Y-89993D01*
X120164Y-89713D01*
X119798Y-89561D01*
X119402Y-89561D01*
X119037Y-89712D01*
X118757Y-89992D01*
X118605Y-90357D01*
X118604Y-90753D01*
X118756Y-91119D01*
X119035Y-91399D01*
X119116Y-91432D01*
X119116Y-91800D01*
X119153Y-91984D01*
X119258Y-92141D01*
X120142Y-93025D01*
X120142Y-93241D01*
X120174Y-93317D01*
X120232Y-93375D01*
X120308Y-93407D01*
X120391Y-93407D01*
X120991Y-93407D01*
X121067Y-93375D01*
X121125Y-93317D01*
X121157Y-93241D01*
X121157Y-93158D01*
X121157Y-93658D01*
X121125Y-93582D01*
X121067Y-93524D01*
X120991Y-93492D01*
X120908Y-93492D01*
X120308Y-93492D01*
X120232Y-93524D01*
X120201Y-93554D01*
X120093Y-93293D01*
X119814Y-93013D01*
X119448Y-92861D01*
X119052Y-92861D01*
X118687Y-93012D01*
X118407Y-93292D01*
X118255Y-93657D01*
X118254Y-94053D01*
X118406Y-94419D01*
X118685Y-94699D01*
X119051Y-94851D01*
X119447Y-94851D01*
X119812Y-94700D01*
X119890Y-94622D01*
X120179Y-94622D01*
X120232Y-94675D01*
X120308Y-94707D01*
X120391Y-94707D01*
X120991Y-94707D01*
X121067Y-94675D01*
X121125Y-94617D01*
X121157Y-94541D01*
X121157Y-94458D01*
X121157Y-94175D01*
X121172Y-94100D01*
X121172Y-99293D01*
X121145Y-99293D01*
X121145Y-96002D01*
X121145Y-95415D01*
X121113Y-95339D01*
X121055Y-95280D01*
X120978Y-95249D01*
X120896Y-95248D01*
X120309Y-95248D01*
X120233Y-95280D01*
X120174Y-95338D01*
X120164Y-95362D01*
X120139Y-95274D01*
X119936Y-95201D01*
X119720Y-95212D01*
X119572Y-95274D01*
X119545Y-95368D01*
X119856Y-95679D01*
X119861Y-95673D01*
X119932Y-95744D01*
X119926Y-95750D01*
X119932Y-95755D01*
X119861Y-95826D01*
X119856Y-95820D01*
X119785Y-95891D01*
X119785Y-95750D01*
X119474Y-95439D01*
X119380Y-95466D01*
X119307Y-95669D01*
X119318Y-95885D01*
X119380Y-96033D01*
X119474Y-96060D01*
X119785Y-95750D01*
X119785Y-95891D01*
X119545Y-96131D01*
X119572Y-96225D01*
X119775Y-96298D01*
X119991Y-96287D01*
X120139Y-96225D01*
X120164Y-96137D01*
X120174Y-96160D01*
X120232Y-96219D01*
X120309Y-96250D01*
X120391Y-96251D01*
X120978Y-96251D01*
X121054Y-96219D01*
X121113Y-96161D01*
X121144Y-96084D01*
X121145Y-96002D01*
X121145Y-99293D01*
X120145Y-99293D01*
X120145Y-97952D01*
X120145Y-97365D01*
X120113Y-97289D01*
X120055Y-97230D01*
X119978Y-97199D01*
X119896Y-97198D01*
X119309Y-97198D01*
X119233Y-97230D01*
X119174Y-97288D01*
X119164Y-97312D01*
X119139Y-97224D01*
X118936Y-97151D01*
X118720Y-97162D01*
X118572Y-97224D01*
X118545Y-97318D01*
X118856Y-97629D01*
X118861Y-97623D01*
X118932Y-97694D01*
X118926Y-97700D01*
X118932Y-97705D01*
X118861Y-97776D01*
X118856Y-97770D01*
X118785Y-97841D01*
X118785Y-97700D01*
X118474Y-97389D01*
X118380Y-97416D01*
X118307Y-97619D01*
X118318Y-97835D01*
X118380Y-97983D01*
X118474Y-98010D01*
X118785Y-97700D01*
X118785Y-97841D01*
X118545Y-98081D01*
X118572Y-98175D01*
X118775Y-98248D01*
X118991Y-98237D01*
X119139Y-98175D01*
X119164Y-98087D01*
X119174Y-98110D01*
X119232Y-98169D01*
X119309Y-98200D01*
X119391Y-98201D01*
X119978Y-98201D01*
X120054Y-98169D01*
X120113Y-98111D01*
X120144Y-98034D01*
X120145Y-97952D01*
X120145Y-99293D01*
X119050Y-99293D01*
X118951Y-99312D01*
X118868Y-99368D01*
X118868Y-99368D01*
X118268Y-99968D01*
X118212Y-100051D01*
X118209Y-100068D01*
X118193Y-100150D01*
X118193Y-100150D01*
X118193Y-105349D01*
X118193Y-105350D01*
X118209Y-105431D01*
X118212Y-105448D01*
X118268Y-105531D01*
X118286Y-105550D01*
X118032Y-105550D01*
X118032Y-89750D01*
X118032Y-89450D01*
X118032Y-87650D01*
X118032Y-85232D01*
X123101Y-85232D01*
X122787Y-85362D01*
X122507Y-85642D01*
X122355Y-86007D01*
X122354Y-86403D01*
X122506Y-86769D01*
X122785Y-87049D01*
X122866Y-87082D01*
X122866Y-87459D01*
X122832Y-87474D01*
X122774Y-87532D01*
X122742Y-87608D01*
X122742Y-87691D01*
X122742Y-88291D01*
X122774Y-88367D01*
X122832Y-88425D01*
X122908Y-88457D01*
X122991Y-88457D01*
X123791Y-88457D01*
X123867Y-88425D01*
X123925Y-88367D01*
X123957Y-88291D01*
X123957Y-88208D01*
X123957Y-87608D01*
X123925Y-87532D01*
X123867Y-87474D01*
X123833Y-87459D01*
X123833Y-87083D01*
X123912Y-87050D01*
X124192Y-86770D01*
X124344Y-86405D01*
X124345Y-86009D01*
X124193Y-85643D01*
X123914Y-85363D01*
X123599Y-85232D01*
X131050Y-85232D01*
X131077Y-85227D01*
X131104Y-85227D01*
X131130Y-85216D01*
X131158Y-85210D01*
X131181Y-85195D01*
X131206Y-85185D01*
X131226Y-85165D01*
X131249Y-85149D01*
X131265Y-85126D01*
X131280Y-85111D01*
X131279Y-85458D01*
X131670Y-86403D01*
X132392Y-87127D01*
X133336Y-87519D01*
X134358Y-87520D01*
X135303Y-87129D01*
X136027Y-86407D01*
X136419Y-85463D01*
X136419Y-85110D01*
X136432Y-85123D01*
X136450Y-85149D01*
X136476Y-85167D01*
X136494Y-85184D01*
X136516Y-85194D01*
X136541Y-85210D01*
X136571Y-85216D01*
X136596Y-85226D01*
X136621Y-85226D01*
X136650Y-85232D01*
X147732Y-85232D01*
X149367Y-86867D01*
X149367Y-88250D01*
X149367Y-88250D01*
G37*
G54D62*
X149367Y-88250D02*
X147429Y-88250D01*
X144150Y-91529D01*
X144150Y-92790D01*
X144121Y-92778D01*
X143682Y-92778D01*
X143620Y-92841D01*
X143620Y-93963D01*
X143627Y-93963D01*
X143627Y-94063D01*
X143620Y-94063D01*
X143620Y-94070D01*
X143520Y-94070D01*
X143520Y-94063D01*
X143520Y-93963D01*
X143520Y-92841D01*
X143457Y-92778D01*
X143018Y-92778D01*
X142926Y-92816D01*
X142856Y-92886D01*
X142818Y-92978D01*
X142817Y-93078D01*
X142818Y-93900D01*
X142880Y-93963D01*
X143520Y-93963D01*
X143520Y-94063D01*
X142880Y-94063D01*
X142818Y-94125D01*
X142817Y-94947D01*
X142818Y-95047D01*
X142856Y-95139D01*
X142926Y-95209D01*
X143018Y-95247D01*
X143350Y-95247D01*
X143350Y-97479D01*
X142579Y-98250D01*
X142515Y-98250D01*
X142515Y-98230D01*
X142515Y-97779D01*
X142514Y-97680D01*
X142476Y-97588D01*
X142406Y-97517D01*
X142314Y-97479D01*
X142202Y-97480D01*
X142140Y-97542D01*
X142140Y-97955D01*
X142452Y-97955D01*
X142515Y-97892D01*
X142515Y-97779D01*
X142515Y-98230D01*
X142515Y-98117D01*
X142452Y-98055D01*
X142140Y-98055D01*
X142140Y-98062D01*
X142040Y-98062D01*
X142040Y-98055D01*
X142032Y-98055D01*
X142032Y-97955D01*
X142040Y-97955D01*
X142040Y-97542D01*
X141977Y-97480D01*
X141950Y-97479D01*
X141950Y-97350D01*
X142079Y-97350D01*
X142179Y-97450D01*
X142720Y-97450D01*
X143050Y-97120D01*
X143050Y-95450D01*
X142800Y-95450D01*
X142800Y-94792D01*
X142800Y-93905D01*
X142762Y-93814D01*
X142692Y-93743D01*
X142600Y-93705D01*
X142500Y-93705D01*
X142072Y-93705D01*
X142010Y-93768D01*
X142010Y-94299D01*
X142738Y-94299D01*
X142800Y-94236D01*
X142800Y-93905D01*
X142800Y-94792D01*
X142800Y-94461D01*
X142738Y-94399D01*
X142010Y-94399D01*
X142010Y-94930D01*
X142072Y-94992D01*
X142500Y-94992D01*
X142600Y-94992D01*
X142692Y-94954D01*
X142762Y-94883D01*
X142800Y-94792D01*
X142800Y-95450D01*
X141720Y-95450D01*
X141450Y-95179D01*
X141450Y-94992D01*
X141847Y-94992D01*
X141910Y-94930D01*
X141910Y-94399D01*
X141902Y-94399D01*
X141902Y-94299D01*
X141910Y-94299D01*
X141910Y-93768D01*
X141847Y-93705D01*
X141450Y-93705D01*
X141450Y-92950D01*
X141970Y-92950D01*
X142950Y-91970D01*
X142950Y-91470D01*
X143900Y-90520D01*
X143848Y-88199D01*
X143700Y-88200D01*
X143700Y-87400D01*
X143700Y-85900D01*
X139150Y-85900D01*
X139150Y-87400D01*
X143700Y-87400D01*
X143700Y-88200D01*
X132379Y-88250D01*
X131864Y-88764D01*
X130707Y-89921D01*
X130707Y-87500D01*
X130707Y-85722D01*
X125292Y-85722D01*
X125292Y-87500D01*
X130707Y-87500D01*
X130707Y-89921D01*
X130439Y-90190D01*
X130439Y-89254D01*
X130435Y-88841D01*
X130284Y-88475D01*
X130138Y-88388D01*
X130067Y-88459D01*
X130067Y-88318D01*
X129980Y-88172D01*
X129598Y-88017D01*
X129185Y-88020D01*
X128819Y-88172D01*
X128732Y-88318D01*
X129400Y-88985D01*
X130067Y-88318D01*
X130067Y-88459D01*
X129470Y-89056D01*
X130138Y-89723D01*
X130284Y-89636D01*
X130439Y-89254D01*
X130439Y-90190D01*
X130150Y-90479D01*
X130150Y-95120D01*
X131052Y-96023D01*
X130717Y-96162D01*
X130437Y-96442D01*
X130288Y-96798D01*
X130067Y-97020D01*
X130067Y-89794D01*
X129400Y-89127D01*
X129329Y-89197D01*
X129329Y-89056D01*
X128661Y-88388D01*
X128515Y-88475D01*
X128360Y-88858D01*
X128364Y-89270D01*
X128515Y-89636D01*
X128661Y-89723D01*
X129329Y-89056D01*
X129329Y-89197D01*
X128732Y-89794D01*
X128819Y-89940D01*
X129201Y-90095D01*
X129614Y-90092D01*
X129980Y-89940D01*
X130067Y-89794D01*
X130067Y-97020D01*
X130047Y-97040D01*
X130060Y-96975D01*
X130060Y-91305D01*
X130034Y-91176D01*
X130034Y-91176D01*
X129962Y-91067D01*
X129947Y-91052D01*
X129947Y-91052D01*
X129265Y-90370D01*
X129156Y-90298D01*
X129028Y-90272D01*
X128974Y-90272D01*
X127568Y-90272D01*
X127439Y-90298D01*
X127330Y-90370D01*
X127002Y-90699D01*
X127035Y-90620D01*
X127035Y-90171D01*
X126997Y-90079D01*
X126926Y-90009D01*
X126834Y-89971D01*
X126735Y-89970D01*
X126622Y-89971D01*
X126560Y-90033D01*
X126560Y-90346D01*
X126972Y-90346D01*
X127035Y-90283D01*
X127035Y-90171D01*
X127035Y-90620D01*
X127035Y-90508D01*
X126972Y-90446D01*
X126560Y-90446D01*
X126560Y-90453D01*
X126460Y-90453D01*
X126460Y-90446D01*
X126460Y-90346D01*
X126460Y-90033D01*
X126397Y-89971D01*
X126284Y-89970D01*
X126185Y-89971D01*
X126093Y-90009D01*
X126039Y-90062D01*
X125971Y-89994D01*
X125879Y-89956D01*
X125780Y-89955D01*
X125667Y-89956D01*
X125605Y-90018D01*
X125605Y-90331D01*
X126017Y-90331D01*
X126025Y-90323D01*
X126047Y-90346D01*
X126460Y-90346D01*
X126460Y-90446D01*
X126047Y-90446D01*
X126040Y-90453D01*
X126017Y-90431D01*
X125605Y-90431D01*
X125605Y-90438D01*
X125505Y-90438D01*
X125505Y-90431D01*
X125505Y-90331D01*
X125505Y-90018D01*
X125442Y-89956D01*
X125329Y-89955D01*
X125230Y-89956D01*
X125138Y-89994D01*
X125067Y-90064D01*
X125029Y-90156D01*
X125030Y-90268D01*
X125092Y-90331D01*
X125505Y-90331D01*
X125505Y-90431D01*
X125092Y-90431D01*
X125030Y-90493D01*
X125029Y-90605D01*
X125067Y-90697D01*
X125138Y-90767D01*
X125165Y-90778D01*
X125162Y-90780D01*
X125104Y-90838D01*
X125072Y-90914D01*
X125072Y-90997D01*
X125072Y-91347D01*
X125104Y-91423D01*
X125162Y-91481D01*
X125238Y-91513D01*
X125272Y-91513D01*
X125272Y-92588D01*
X125240Y-92620D01*
X125203Y-92531D01*
X125198Y-92526D01*
X125198Y-92495D01*
X125203Y-92490D01*
X125241Y-92399D01*
X125241Y-92367D01*
X125178Y-92305D01*
X125167Y-92305D01*
X125166Y-92305D01*
X125122Y-92260D01*
X125166Y-92217D01*
X125166Y-92216D01*
X125178Y-92216D01*
X125241Y-92154D01*
X125241Y-92122D01*
X125203Y-92031D01*
X125198Y-92026D01*
X125198Y-91881D01*
X125198Y-91881D01*
X125198Y-91808D01*
X125198Y-91631D01*
X125166Y-91555D01*
X125108Y-91496D01*
X125032Y-91465D01*
X124978Y-91465D01*
X124978Y-91418D01*
X124956Y-91309D01*
X124895Y-91218D01*
X124895Y-91218D01*
X124473Y-90796D01*
X124382Y-90735D01*
X124286Y-90716D01*
X124280Y-90703D01*
X124222Y-90645D01*
X124146Y-90613D01*
X124137Y-90613D01*
X124132Y-90605D01*
X124081Y-90528D01*
X124081Y-90528D01*
X123701Y-90148D01*
X123585Y-90071D01*
X123506Y-90056D01*
X123479Y-89991D01*
X123635Y-89835D01*
X123688Y-89757D01*
X123791Y-89757D01*
X123867Y-89725D01*
X123925Y-89667D01*
X123957Y-89591D01*
X123957Y-89508D01*
X123957Y-88908D01*
X123925Y-88832D01*
X123867Y-88774D01*
X123791Y-88742D01*
X123708Y-88742D01*
X122908Y-88742D01*
X122832Y-88774D01*
X122774Y-88832D01*
X122742Y-88908D01*
X122742Y-88991D01*
X122742Y-89585D01*
X122614Y-89714D01*
X122526Y-89845D01*
X122517Y-89892D01*
X122458Y-89892D01*
X122382Y-89924D01*
X122324Y-89982D01*
X122292Y-90058D01*
X122292Y-90141D01*
X122292Y-90741D01*
X122324Y-90817D01*
X122382Y-90875D01*
X122458Y-90907D01*
X122541Y-90907D01*
X123341Y-90907D01*
X123347Y-90904D01*
X123347Y-91195D01*
X123341Y-91192D01*
X123258Y-91192D01*
X122458Y-91192D01*
X122382Y-91224D01*
X122324Y-91282D01*
X122318Y-91295D01*
X122257Y-91295D01*
X122257Y-90658D01*
X122257Y-90058D01*
X122225Y-89982D01*
X122167Y-89924D01*
X122133Y-89909D01*
X122133Y-88450D01*
X122133Y-88449D01*
X122096Y-88265D01*
X121991Y-88108D01*
X121991Y-88108D01*
X121769Y-87886D01*
X121844Y-87705D01*
X121845Y-87309D01*
X121693Y-86943D01*
X121414Y-86663D01*
X121048Y-86511D01*
X120652Y-86511D01*
X120287Y-86662D01*
X120007Y-86942D01*
X119855Y-87307D01*
X119854Y-87703D01*
X120006Y-88069D01*
X120285Y-88349D01*
X120651Y-88501D01*
X121018Y-88501D01*
X121166Y-88650D01*
X121166Y-89909D01*
X121132Y-89924D01*
X121074Y-89982D01*
X121042Y-90058D01*
X121042Y-90141D01*
X121042Y-90741D01*
X121074Y-90817D01*
X121132Y-90875D01*
X121208Y-90907D01*
X121291Y-90907D01*
X122091Y-90907D01*
X122167Y-90875D01*
X122225Y-90817D01*
X122257Y-90741D01*
X122257Y-90658D01*
X122257Y-91295D01*
X122231Y-91295D01*
X122225Y-91282D01*
X122167Y-91224D01*
X122091Y-91192D01*
X122008Y-91192D01*
X121208Y-91192D01*
X121132Y-91224D01*
X121074Y-91282D01*
X121042Y-91358D01*
X121042Y-91441D01*
X121042Y-92041D01*
X121074Y-92117D01*
X121132Y-92175D01*
X121208Y-92207D01*
X121291Y-92207D01*
X121572Y-92207D01*
X121532Y-92224D01*
X121474Y-92282D01*
X121442Y-92358D01*
X121442Y-92441D01*
X121442Y-93241D01*
X121474Y-93317D01*
X121532Y-93375D01*
X121608Y-93407D01*
X121691Y-93407D01*
X122291Y-93407D01*
X122298Y-93404D01*
X122324Y-93467D01*
X122382Y-93525D01*
X122458Y-93557D01*
X122541Y-93557D01*
X123341Y-93557D01*
X123375Y-93543D01*
X123407Y-93575D01*
X123465Y-93600D01*
X123407Y-93624D01*
X123349Y-93682D01*
X123317Y-93758D01*
X123317Y-93841D01*
X123317Y-93842D01*
X123258Y-93842D01*
X122458Y-93842D01*
X122457Y-93843D01*
X122457Y-93658D01*
X122425Y-93582D01*
X122367Y-93524D01*
X122291Y-93492D01*
X122208Y-93492D01*
X121608Y-93492D01*
X121532Y-93524D01*
X121474Y-93582D01*
X121442Y-93658D01*
X121442Y-93741D01*
X121442Y-94541D01*
X121474Y-94617D01*
X121532Y-94675D01*
X121608Y-94707D01*
X121691Y-94707D01*
X122021Y-94707D01*
X122045Y-94723D01*
X122200Y-94754D01*
X122318Y-94754D01*
X122324Y-94767D01*
X122382Y-94825D01*
X122458Y-94857D01*
X122541Y-94857D01*
X123341Y-94857D01*
X123417Y-94825D01*
X123475Y-94767D01*
X123501Y-94705D01*
X123625Y-94705D01*
X123760Y-94678D01*
X123760Y-94678D01*
X123876Y-94601D01*
X124051Y-94426D01*
X124051Y-94426D01*
X124096Y-94357D01*
X124116Y-94357D01*
X124192Y-94325D01*
X124250Y-94267D01*
X124250Y-94267D01*
X124414Y-94267D01*
X124415Y-94267D01*
X124415Y-94267D01*
X124508Y-94248D01*
X124526Y-94245D01*
X124526Y-94245D01*
X124621Y-94181D01*
X124902Y-93900D01*
X124902Y-93900D01*
X124902Y-93900D01*
X124965Y-93807D01*
X125032Y-93807D01*
X125108Y-93775D01*
X125166Y-93717D01*
X125198Y-93640D01*
X125198Y-93558D01*
X125198Y-93381D01*
X125198Y-93381D01*
X125198Y-93374D01*
X126029Y-94204D01*
X126124Y-94268D01*
X126124Y-94268D01*
X126236Y-94290D01*
X127397Y-94290D01*
X127398Y-94290D01*
X127398Y-94290D01*
X127491Y-94271D01*
X127509Y-94268D01*
X127509Y-94268D01*
X127604Y-94204D01*
X127791Y-94018D01*
X127986Y-94018D01*
X128062Y-93986D01*
X128071Y-93978D01*
X128141Y-94007D01*
X128175Y-94007D01*
X128175Y-95723D01*
X128172Y-95726D01*
X128172Y-95726D01*
X128150Y-95748D01*
X128150Y-95730D01*
X128112Y-95638D01*
X128107Y-95634D01*
X128107Y-95478D01*
X128075Y-95402D01*
X128017Y-95344D01*
X127941Y-95312D01*
X127858Y-95312D01*
X127358Y-95312D01*
X127346Y-95317D01*
X127045Y-95317D01*
X126936Y-95339D01*
X126900Y-95363D01*
X126845Y-95400D01*
X126845Y-95400D01*
X126818Y-95427D01*
X126759Y-95427D01*
X126618Y-95485D01*
X126543Y-95560D01*
X126523Y-95540D01*
X126411Y-95494D01*
X126289Y-95494D01*
X126176Y-95540D01*
X126114Y-95603D01*
X126050Y-95603D01*
X126050Y-95470D01*
X126012Y-95378D01*
X125941Y-95308D01*
X125849Y-95270D01*
X125750Y-95269D01*
X125662Y-95270D01*
X125600Y-95332D01*
X125600Y-95560D01*
X125987Y-95560D01*
X126050Y-95497D01*
X126050Y-95470D01*
X126050Y-95603D01*
X125915Y-95603D01*
X125841Y-95572D01*
X125758Y-95572D01*
X125500Y-95572D01*
X125500Y-95560D01*
X125500Y-95332D01*
X125437Y-95270D01*
X125349Y-95269D01*
X125250Y-95270D01*
X125158Y-95308D01*
X125087Y-95378D01*
X125049Y-95470D01*
X125050Y-95497D01*
X125112Y-95560D01*
X125500Y-95560D01*
X125500Y-95572D01*
X125258Y-95572D01*
X125182Y-95604D01*
X125146Y-95640D01*
X125112Y-95640D01*
X125050Y-95702D01*
X125049Y-95729D01*
X125087Y-95821D01*
X125092Y-95825D01*
X125092Y-95981D01*
X125096Y-95989D01*
X125092Y-95998D01*
X125092Y-96081D01*
X125092Y-96241D01*
X125094Y-96244D01*
X125092Y-96248D01*
X125092Y-96331D01*
X125092Y-96491D01*
X125096Y-96499D01*
X125092Y-96508D01*
X125092Y-96591D01*
X125092Y-96751D01*
X125096Y-96759D01*
X125092Y-96768D01*
X125092Y-96851D01*
X125092Y-96883D01*
X124410Y-96883D01*
X124409Y-96883D01*
X124311Y-96902D01*
X124228Y-96958D01*
X124228Y-96958D01*
X121893Y-99293D01*
X121172Y-99293D01*
X121172Y-94100D01*
X121157Y-94024D01*
X121157Y-93658D01*
X121157Y-93158D01*
X121157Y-92358D01*
X121125Y-92282D01*
X121067Y-92224D01*
X120991Y-92192D01*
X120908Y-92192D01*
X120675Y-92192D01*
X120083Y-91599D01*
X120083Y-91433D01*
X120162Y-91400D01*
X120442Y-91120D01*
X120594Y-90755D01*
X120595Y-90359D01*
X120443Y-89993D01*
X120164Y-89713D01*
X119798Y-89561D01*
X119402Y-89561D01*
X119037Y-89712D01*
X118757Y-89992D01*
X118605Y-90357D01*
X118604Y-90753D01*
X118756Y-91119D01*
X119035Y-91399D01*
X119116Y-91432D01*
X119116Y-91800D01*
X119153Y-91984D01*
X119258Y-92141D01*
X120142Y-93025D01*
X120142Y-93241D01*
X120174Y-93317D01*
X120232Y-93375D01*
X120308Y-93407D01*
X120391Y-93407D01*
X120991Y-93407D01*
X121067Y-93375D01*
X121125Y-93317D01*
X121157Y-93241D01*
X121157Y-93158D01*
X121157Y-93658D01*
X121125Y-93582D01*
X121067Y-93524D01*
X120991Y-93492D01*
X120908Y-93492D01*
X120308Y-93492D01*
X120232Y-93524D01*
X120201Y-93554D01*
X120093Y-93293D01*
X119814Y-93013D01*
X119448Y-92861D01*
X119052Y-92861D01*
X118687Y-93012D01*
X118407Y-93292D01*
X118255Y-93657D01*
X118254Y-94053D01*
X118406Y-94419D01*
X118685Y-94699D01*
X119051Y-94851D01*
X119447Y-94851D01*
X119812Y-94700D01*
X119890Y-94622D01*
X120179Y-94622D01*
X120232Y-94675D01*
X120308Y-94707D01*
X120391Y-94707D01*
X120991Y-94707D01*
X121067Y-94675D01*
X121125Y-94617D01*
X121157Y-94541D01*
X121157Y-94458D01*
X121157Y-94175D01*
X121172Y-94100D01*
X121172Y-99293D01*
X121145Y-99293D01*
X121145Y-96002D01*
X121145Y-95415D01*
X121113Y-95339D01*
X121055Y-95280D01*
X120978Y-95249D01*
X120896Y-95248D01*
X120309Y-95248D01*
X120233Y-95280D01*
X120174Y-95338D01*
X120164Y-95362D01*
X120139Y-95274D01*
X119936Y-95201D01*
X119720Y-95212D01*
X119572Y-95274D01*
X119545Y-95368D01*
X119856Y-95679D01*
X119861Y-95673D01*
X119932Y-95744D01*
X119926Y-95750D01*
X119932Y-95755D01*
X119861Y-95826D01*
X119856Y-95820D01*
X119785Y-95891D01*
X119785Y-95750D01*
X119474Y-95439D01*
X119380Y-95466D01*
X119307Y-95669D01*
X119318Y-95885D01*
X119380Y-96033D01*
X119474Y-96060D01*
X119785Y-95750D01*
X119785Y-95891D01*
X119545Y-96131D01*
X119572Y-96225D01*
X119775Y-96298D01*
X119991Y-96287D01*
X120139Y-96225D01*
X120164Y-96137D01*
X120174Y-96160D01*
X120232Y-96219D01*
X120309Y-96250D01*
X120391Y-96251D01*
X120978Y-96251D01*
X121054Y-96219D01*
X121113Y-96161D01*
X121144Y-96084D01*
X121145Y-96002D01*
X121145Y-99293D01*
X120145Y-99293D01*
X120145Y-97952D01*
X120145Y-97365D01*
X120113Y-97289D01*
X120055Y-97230D01*
X119978Y-97199D01*
X119896Y-97198D01*
X119309Y-97198D01*
X119233Y-97230D01*
X119174Y-97288D01*
X119164Y-97312D01*
X119139Y-97224D01*
X118936Y-97151D01*
X118720Y-97162D01*
X118572Y-97224D01*
X118545Y-97318D01*
X118856Y-97629D01*
X118861Y-97623D01*
X118932Y-97694D01*
X118926Y-97700D01*
X118932Y-97705D01*
X118861Y-97776D01*
X118856Y-97770D01*
X118785Y-97841D01*
X118785Y-97700D01*
X118474Y-97389D01*
X118380Y-97416D01*
X118307Y-97619D01*
X118318Y-97835D01*
X118380Y-97983D01*
X118474Y-98010D01*
X118785Y-97700D01*
X118785Y-97841D01*
X118545Y-98081D01*
X118572Y-98175D01*
X118775Y-98248D01*
X118991Y-98237D01*
X119139Y-98175D01*
X119164Y-98087D01*
X119174Y-98110D01*
X119232Y-98169D01*
X119309Y-98200D01*
X119391Y-98201D01*
X119978Y-98201D01*
X120054Y-98169D01*
X120113Y-98111D01*
X120144Y-98034D01*
X120145Y-97952D01*
X120145Y-99293D01*
X119050Y-99293D01*
X118951Y-99312D01*
X118868Y-99368D01*
X118868Y-99368D01*
X118268Y-99968D01*
X118212Y-100051D01*
X118209Y-100068D01*
X118193Y-100150D01*
X118193Y-100150D01*
X118193Y-105349D01*
X118193Y-105350D01*
X118209Y-105431D01*
X118212Y-105448D01*
X118268Y-105531D01*
X118286Y-105550D01*
X118032Y-105550D01*
X118032Y-89750D01*
X118032Y-89450D01*
X118032Y-87650D01*
X118032Y-85232D01*
X123101Y-85232D01*
X122787Y-85362D01*
X122507Y-85642D01*
X122355Y-86007D01*
X122354Y-86403D01*
X122506Y-86769D01*
X122785Y-87049D01*
X122866Y-87082D01*
X122866Y-87459D01*
X122832Y-87474D01*
X122774Y-87532D01*
X122742Y-87608D01*
X122742Y-87691D01*
X122742Y-88291D01*
X122774Y-88367D01*
X122832Y-88425D01*
X122908Y-88457D01*
X122991Y-88457D01*
X123791Y-88457D01*
X123867Y-88425D01*
X123925Y-88367D01*
X123957Y-88291D01*
X123957Y-88208D01*
X123957Y-87608D01*
X123925Y-87532D01*
X123867Y-87474D01*
X123833Y-87459D01*
X123833Y-87083D01*
X123912Y-87050D01*
X124192Y-86770D01*
X124344Y-86405D01*
X124345Y-86009D01*
X124193Y-85643D01*
X123914Y-85363D01*
X123599Y-85232D01*
X131050Y-85232D01*
X131077Y-85227D01*
X131104Y-85227D01*
X131130Y-85216D01*
X131158Y-85210D01*
X131181Y-85195D01*
X131206Y-85185D01*
X131226Y-85165D01*
X131249Y-85149D01*
X131265Y-85126D01*
X131280Y-85111D01*
X131279Y-85458D01*
X131670Y-86403D01*
X132392Y-87127D01*
X133336Y-87519D01*
X134358Y-87520D01*
X135303Y-87129D01*
X136027Y-86407D01*
X136419Y-85463D01*
X136419Y-85110D01*
X136432Y-85123D01*
X136450Y-85149D01*
X136476Y-85167D01*
X136494Y-85184D01*
X136516Y-85194D01*
X136541Y-85210D01*
X136571Y-85216D01*
X136596Y-85226D01*
X136621Y-85226D01*
X136650Y-85232D01*
X147732Y-85232D01*
X149367Y-86867D01*
X149367Y-88250D01*
G54D10*
G36*
X135200Y-95450D02*
X131220Y-95450D01*
X130650Y-94879D01*
X130650Y-92920D01*
X132970Y-90600D01*
X135200Y-90600D01*
X135200Y-95450D01*
X135200Y-95450D01*
G37*
G54D62*
X135200Y-95450D02*
X131220Y-95450D01*
X130650Y-94879D01*
X130650Y-92920D01*
X132970Y-90600D01*
X135200Y-90600D01*
X135200Y-95450D01*
G54D10*
G36*
X138050Y-96850D02*
X137150Y-96850D01*
X137150Y-95150D01*
X138050Y-95150D01*
X138050Y-95200D01*
X138050Y-96800D01*
X138050Y-96850D01*
X138050Y-96850D01*
G37*
G54D62*
X138050Y-96850D02*
X137150Y-96850D01*
X137150Y-95150D01*
X138050Y-95150D01*
X138050Y-95200D01*
X138050Y-96800D01*
X138050Y-96850D01*
G54D10*
G36*
X142750Y-90629D02*
X139150Y-94229D01*
X139150Y-95925D01*
X138350Y-95925D01*
X138350Y-93120D01*
X139550Y-91920D01*
X139550Y-90800D01*
X140150Y-90800D01*
X140150Y-88850D01*
X142750Y-88850D01*
X142750Y-90629D01*
X142750Y-90629D01*
G37*
G54D62*
X142750Y-90629D02*
X139150Y-94229D01*
X139150Y-95925D01*
X138350Y-95925D01*
X138350Y-93120D01*
X139550Y-91920D01*
X139550Y-90800D01*
X140150Y-90800D01*
X140150Y-88850D01*
X142750Y-88850D01*
X142750Y-90629D01*
G54D10*
G36*
X142450Y-96850D02*
X139450Y-96850D01*
X139450Y-95050D01*
X140550Y-95050D01*
X140550Y-95420D01*
X141279Y-96150D01*
X142450Y-96150D01*
X142450Y-96850D01*
X142450Y-96850D01*
G37*
G54D62*
X142450Y-96850D02*
X139450Y-96850D01*
X139450Y-95050D01*
X140550Y-95050D01*
X140550Y-95420D01*
X141279Y-96150D01*
X142450Y-96150D01*
X142450Y-96850D01*
G54D10*
G36*
X149399Y-109950D02*
X149200Y-109950D01*
X148800Y-109950D01*
X148550Y-109950D01*
X148550Y-108279D01*
X145220Y-104950D01*
X142779Y-104950D01*
X142550Y-105179D01*
X142550Y-105650D01*
X141320Y-105650D01*
X140450Y-104779D01*
X140450Y-103479D01*
X140320Y-103350D01*
X139250Y-103350D01*
X139250Y-102750D01*
X140650Y-102750D01*
X140650Y-101450D01*
X142279Y-101450D01*
X142450Y-101620D01*
X142450Y-103820D01*
X142679Y-104050D01*
X146279Y-104050D01*
X147579Y-105350D01*
X149079Y-105350D01*
X149399Y-105669D01*
X149399Y-109950D01*
X149399Y-109950D01*
G37*
G54D62*
X149399Y-109950D02*
X149200Y-109950D01*
X148800Y-109950D01*
X148550Y-109950D01*
X148550Y-108279D01*
X145220Y-104950D01*
X142779Y-104950D01*
X142550Y-105179D01*
X142550Y-105650D01*
X141320Y-105650D01*
X140450Y-104779D01*
X140450Y-103479D01*
X140320Y-103350D01*
X139250Y-103350D01*
X139250Y-102750D01*
X140650Y-102750D01*
X140650Y-101450D01*
X142279Y-101450D01*
X142450Y-101620D01*
X142450Y-103820D01*
X142679Y-104050D01*
X146279Y-104050D01*
X147579Y-105350D01*
X149079Y-105350D01*
X149399Y-105669D01*
X149399Y-109950D01*
G54D10*
G36*
X147850Y-112679D02*
X147480Y-113049D01*
X146419Y-113049D01*
X145850Y-112479D01*
X145850Y-111579D01*
X144220Y-109950D01*
X143050Y-109950D01*
X143050Y-106750D01*
X141850Y-106750D01*
X141850Y-106150D01*
X142920Y-106150D01*
X143050Y-106020D01*
X143050Y-105420D01*
X143120Y-105350D01*
X143850Y-105350D01*
X143850Y-107720D01*
X147850Y-111720D01*
X147850Y-112679D01*
X147850Y-112679D01*
G37*
G54D62*
X147850Y-112679D02*
X147480Y-113049D01*
X146419Y-113049D01*
X145850Y-112479D01*
X145850Y-111579D01*
X144220Y-109950D01*
X143050Y-109950D01*
X143050Y-106750D01*
X141850Y-106750D01*
X141850Y-106150D01*
X142920Y-106150D01*
X143050Y-106020D01*
X143050Y-105420D01*
X143120Y-105350D01*
X143850Y-105350D01*
X143850Y-107720D01*
X147850Y-111720D01*
X147850Y-112679D01*
G54D10*
G36*
X149250Y-94624D02*
X148084Y-95450D01*
X146720Y-95450D01*
X146520Y-95250D01*
X145079Y-95250D01*
X144450Y-95879D01*
X144450Y-97279D01*
X144050Y-97679D01*
X144050Y-98850D01*
X143650Y-98850D01*
X143650Y-97620D01*
X143750Y-97520D01*
X143750Y-95920D01*
X144035Y-95635D01*
X145220Y-94450D01*
X145350Y-94450D01*
X145350Y-94000D01*
X145350Y-91270D01*
X147770Y-88850D01*
X148579Y-88850D01*
X149250Y-89520D01*
X149250Y-94624D01*
X149250Y-94624D01*
G37*
G54D62*
X149250Y-94624D02*
X148084Y-95450D01*
X146720Y-95450D01*
X146520Y-95250D01*
X145079Y-95250D01*
X144450Y-95879D01*
X144450Y-97279D01*
X144050Y-97679D01*
X144050Y-98850D01*
X143650Y-98850D01*
X143650Y-97620D01*
X143750Y-97520D01*
X143750Y-95920D01*
X144035Y-95635D01*
X145220Y-94450D01*
X145350Y-94450D01*
X145350Y-94000D01*
X145350Y-91270D01*
X147770Y-88850D01*
X148579Y-88850D01*
X149250Y-89520D01*
X149250Y-94624D01*
G54D10*
G36*
X146650Y-96573D02*
X146384Y-96750D01*
X145416Y-96750D01*
X145050Y-96475D01*
X145050Y-96036D01*
X145308Y-95950D01*
X146279Y-95950D01*
X146650Y-96320D01*
X146650Y-96573D01*
X146650Y-96573D01*
G37*
G54D62*
X146650Y-96573D02*
X146384Y-96750D01*
X145416Y-96750D01*
X145050Y-96475D01*
X145050Y-96036D01*
X145308Y-95950D01*
X146279Y-95950D01*
X146650Y-96320D01*
X146650Y-96573D01*
G54D10*
G36*
X149256Y-97282D02*
X148282Y-98256D01*
X146543Y-98256D01*
X146543Y-97343D01*
X147017Y-97343D01*
X147443Y-96917D01*
X147443Y-96317D01*
X147717Y-96043D01*
X149256Y-96043D01*
X149256Y-96100D01*
X149256Y-97282D01*
X149256Y-97282D01*
G37*
G54D63*
X149256Y-97282D02*
X148282Y-98256D01*
X146543Y-98256D01*
X146543Y-97343D01*
X147017Y-97343D01*
X147443Y-96917D01*
X147443Y-96317D01*
X147717Y-96043D01*
X149256Y-96043D01*
X149256Y-96100D01*
X149256Y-97282D01*
G54D10*
G36*
X146556Y-103456D02*
X145643Y-103456D01*
X145643Y-102482D01*
X145217Y-102056D01*
X144721Y-102056D01*
X144443Y-101685D01*
X144443Y-100617D01*
X145010Y-100050D01*
X145456Y-100229D01*
X145456Y-101417D01*
X145982Y-101943D01*
X146282Y-101943D01*
X146556Y-102217D01*
X146556Y-103456D01*
X146556Y-103456D01*
G37*
G54D63*
X146556Y-103456D02*
X145643Y-103456D01*
X145643Y-102482D01*
X145217Y-102056D01*
X144721Y-102056D01*
X144443Y-101685D01*
X144443Y-100617D01*
X145010Y-100050D01*
X145456Y-100229D01*
X145456Y-101417D01*
X145982Y-101943D01*
X146282Y-101943D01*
X146556Y-102217D01*
X146556Y-103456D01*
G54D10*
G36*
X126356Y-107627D02*
X126223Y-107761D01*
X126214Y-107774D01*
X126206Y-107782D01*
X126206Y-107785D01*
X126163Y-107850D01*
X126142Y-107956D01*
X126142Y-108042D01*
X126142Y-108287D01*
X126134Y-108305D01*
X126134Y-108385D01*
X126134Y-108406D01*
X126106Y-108406D01*
X126106Y-108756D01*
X125423Y-108756D01*
X125423Y-108306D01*
X125393Y-108233D01*
X125393Y-108082D01*
X125093Y-107782D01*
X125093Y-106667D01*
X125217Y-106543D01*
X126232Y-106543D01*
X126356Y-106667D01*
X126356Y-107627D01*
X126356Y-107627D01*
G37*
G54D63*
X126356Y-107627D02*
X126223Y-107761D01*
X126214Y-107774D01*
X126206Y-107782D01*
X126206Y-107785D01*
X126163Y-107850D01*
X126142Y-107956D01*
X126142Y-108042D01*
X126142Y-108287D01*
X126134Y-108305D01*
X126134Y-108385D01*
X126134Y-108406D01*
X126106Y-108406D01*
X126106Y-108756D01*
X125423Y-108756D01*
X125423Y-108306D01*
X125393Y-108233D01*
X125393Y-108082D01*
X125093Y-107782D01*
X125093Y-106667D01*
X125217Y-106543D01*
X126232Y-106543D01*
X126356Y-106667D01*
X126356Y-107627D01*
G54D10*
G36*
X140200Y-110479D02*
X139414Y-111264D01*
X138279Y-112400D01*
X137770Y-112400D01*
X137735Y-112364D01*
X136700Y-111329D01*
X136700Y-110370D01*
X138320Y-108750D01*
X139100Y-108750D01*
X139100Y-109120D01*
X139379Y-109400D01*
X140200Y-109400D01*
X140200Y-110479D01*
X140200Y-110479D01*
G37*
G54D62*
X140200Y-110479D02*
X139414Y-111264D01*
X138279Y-112400D01*
X137770Y-112400D01*
X137735Y-112364D01*
X136700Y-111329D01*
X136700Y-110370D01*
X138320Y-108750D01*
X139100Y-108750D01*
X139100Y-109120D01*
X139379Y-109400D01*
X140200Y-109400D01*
X140200Y-110479D01*
M02*
