G04 (created by PCBNEW (2013-07-07 BZR 4022)-stable) date 2/2/2017 10:33:48 AM*
%MOIN*%
G04 Gerber Fmt 3.4, Leading zero omitted, Abs format*
%FSLAX34Y34*%
G01*
G70*
G90*
G04 APERTURE LIST*
%ADD10C,0.00590551*%
%ADD11R,0.08X0.08*%
%ADD12C,0.08*%
%ADD13R,0.1X0.08*%
%ADD14R,0.08X0.1*%
%ADD15C,0.17748*%
%ADD16R,0.0711X0.079*%
%ADD17R,0.079X0.0711*%
%ADD18C,0.492441*%
%ADD19C,0.075*%
%ADD20R,0.0787X0.0787*%
%ADD21C,0.0787*%
%ADD22C,0.09*%
%ADD23R,0.09X0.09*%
%ADD24R,0.0436X0.1066*%
%ADD25C,0.149921*%
%ADD26C,0.086*%
%ADD27R,0.1079X0.0679*%
%ADD28R,0.1066X0.1617*%
%ADD29C,0.12*%
%ADD30R,0.0672X0.0908*%
%ADD31R,0.0908X0.0672*%
%ADD32C,0.076*%
%ADD33C,0.0987402*%
%ADD34R,0.0337795X0.0337795*%
%ADD35R,0.055X0.075*%
%ADD36R,0.13811X0.13811*%
%ADD37C,0.13811*%
G04 APERTURE END LIST*
G54D10*
G54D11*
X119600Y-101800D03*
G54D12*
X119600Y-100800D03*
X120600Y-101800D03*
X120600Y-100800D03*
X121600Y-101800D03*
X121600Y-100800D03*
X122600Y-101800D03*
X122600Y-100800D03*
X123600Y-101800D03*
X123600Y-100800D03*
X124600Y-101800D03*
X124600Y-100800D03*
X125600Y-101800D03*
X125600Y-100800D03*
X126600Y-101800D03*
X126600Y-100800D03*
X127600Y-101800D03*
X127600Y-100800D03*
X128600Y-101800D03*
X128600Y-100800D03*
G54D13*
X120650Y-88750D03*
X120650Y-90050D03*
G54D14*
X122000Y-90950D03*
X120700Y-90950D03*
G54D13*
X122000Y-88700D03*
X122000Y-90000D03*
G54D15*
X149570Y-112221D03*
X147400Y-112206D03*
X122693Y-86300D03*
X120400Y-86300D03*
X150950Y-95456D03*
X148000Y-88756D03*
X163920Y-81076D03*
G54D11*
X123600Y-103210D03*
G54D12*
X122600Y-103210D03*
X121600Y-103210D03*
G54D16*
X124024Y-111900D03*
X123276Y-111900D03*
G54D17*
X125050Y-110976D03*
X125050Y-111724D03*
X130300Y-91824D03*
X130300Y-91076D03*
G54D18*
X133850Y-113300D03*
X133850Y-84950D03*
G54D15*
X163940Y-83396D03*
G54D11*
X119600Y-105750D03*
G54D12*
X119600Y-104750D03*
X120600Y-105750D03*
X120600Y-104750D03*
X121600Y-105750D03*
X121600Y-104750D03*
X122600Y-105750D03*
X122600Y-104750D03*
X123600Y-105750D03*
X123600Y-104750D03*
X124600Y-105750D03*
X124600Y-104750D03*
X125600Y-105750D03*
X125600Y-104750D03*
X126600Y-105750D03*
X126600Y-104750D03*
X127600Y-105750D03*
X127600Y-104750D03*
X128600Y-105750D03*
X128600Y-104750D03*
G54D11*
X119600Y-108400D03*
G54D12*
X119600Y-107400D03*
X120600Y-108400D03*
X120600Y-107400D03*
X121600Y-108400D03*
X121600Y-107400D03*
X122600Y-108400D03*
X122600Y-107400D03*
X123600Y-108400D03*
X123600Y-107400D03*
X124600Y-108400D03*
X124600Y-107400D03*
X125600Y-108400D03*
X125600Y-107400D03*
X126600Y-108400D03*
X126600Y-107400D03*
X127600Y-108400D03*
X127600Y-107400D03*
X128600Y-108400D03*
X128600Y-107400D03*
G54D15*
X119106Y-90350D03*
X119106Y-88300D03*
G54D12*
X135250Y-108700D03*
X130250Y-108700D03*
X130250Y-107550D03*
X135250Y-107550D03*
G54D19*
X151450Y-105950D03*
X151450Y-102950D03*
G54D20*
X134950Y-109656D03*
G54D21*
X134950Y-110444D03*
G54D22*
X137800Y-86200D03*
X138800Y-86200D03*
G54D23*
X139800Y-86200D03*
G54D22*
X144050Y-112150D03*
X143050Y-112150D03*
G54D23*
X142050Y-112150D03*
G54D22*
X139700Y-112150D03*
X138700Y-112150D03*
G54D23*
X137700Y-112150D03*
G54D22*
X144550Y-86150D03*
X145550Y-86150D03*
G54D23*
X146550Y-86150D03*
G54D16*
X140626Y-91350D03*
X141374Y-91350D03*
X143724Y-91350D03*
X142976Y-91350D03*
G54D20*
X131900Y-88906D03*
G54D21*
X131900Y-89694D03*
G54D24*
X127700Y-99311D03*
X127200Y-99311D03*
X126700Y-99311D03*
X126200Y-99311D03*
X125700Y-99311D03*
X125200Y-99311D03*
X124700Y-99311D03*
X124200Y-99311D03*
X123700Y-99311D03*
X123200Y-99311D03*
X123200Y-95689D03*
X123700Y-95689D03*
X124200Y-95689D03*
X124700Y-95689D03*
X125200Y-95689D03*
X125700Y-95689D03*
X126200Y-95689D03*
X126700Y-95689D03*
X127200Y-95689D03*
X127700Y-95689D03*
G54D25*
X131800Y-93000D03*
X131800Y-95000D03*
X131800Y-97000D03*
X131800Y-101000D03*
X131800Y-103000D03*
X131800Y-105000D03*
X141800Y-105000D03*
X141800Y-103200D03*
X141800Y-101000D03*
X141800Y-99000D03*
X141800Y-97000D03*
X141800Y-95000D03*
X141800Y-93000D03*
G54D20*
X128250Y-93706D03*
G54D21*
X128250Y-94494D03*
G54D20*
X129044Y-91150D03*
G54D21*
X128256Y-91150D03*
G54D20*
X144856Y-106150D03*
G54D21*
X145644Y-106150D03*
G54D19*
X147500Y-106600D03*
X150500Y-106600D03*
X146650Y-105650D03*
X149650Y-105650D03*
G54D26*
X146800Y-102500D03*
X146800Y-99500D03*
X148350Y-102500D03*
X148350Y-99500D03*
X130500Y-109700D03*
X133500Y-109700D03*
X131650Y-110750D03*
X128650Y-110750D03*
X145150Y-102500D03*
X145150Y-99500D03*
X136250Y-107700D03*
X136250Y-110700D03*
X150050Y-102500D03*
X150050Y-99500D03*
X138450Y-110750D03*
X138450Y-107750D03*
G54D19*
X144550Y-87812D03*
X144550Y-89387D03*
X139100Y-88012D03*
X139100Y-89587D03*
X130050Y-111750D03*
X128050Y-111750D03*
X130050Y-112700D03*
X128050Y-112700D03*
X130400Y-90050D03*
X130400Y-88050D03*
X140400Y-88150D03*
X140400Y-90150D03*
X127200Y-92737D03*
X127200Y-91162D03*
G54D26*
X126400Y-91150D03*
X126400Y-94150D03*
G54D19*
X125500Y-92150D03*
X125500Y-94150D03*
X124900Y-89300D03*
X124900Y-87300D03*
X124900Y-86150D03*
X126900Y-86150D03*
X145650Y-112537D03*
X145650Y-110962D03*
X139350Y-110687D03*
X139350Y-109112D03*
X136487Y-90550D03*
X134912Y-90550D03*
X134187Y-90550D03*
X132612Y-90550D03*
G54D27*
X121120Y-97641D03*
X121120Y-98550D03*
X121120Y-99459D03*
G54D28*
X118680Y-98550D03*
G54D29*
X122020Y-110700D03*
X123279Y-110700D03*
G54D30*
X137700Y-108410D03*
X137700Y-109590D03*
G54D31*
X139690Y-106400D03*
X138510Y-106400D03*
X133310Y-108700D03*
X134490Y-108700D03*
X125610Y-87100D03*
X126790Y-87100D03*
X128160Y-87850D03*
X129340Y-87850D03*
G54D30*
X134250Y-106710D03*
X134250Y-107890D03*
X129650Y-88510D03*
X129650Y-89690D03*
G54D31*
X127050Y-90300D03*
X128230Y-90300D03*
X125160Y-88400D03*
X126340Y-88400D03*
X125890Y-90250D03*
X124710Y-90250D03*
X126060Y-89300D03*
X127240Y-89300D03*
G54D32*
X144647Y-104150D03*
X150552Y-104150D03*
X144647Y-98050D03*
X150552Y-98050D03*
G54D33*
X151479Y-109200D03*
X142620Y-109200D03*
G54D34*
X124067Y-93500D03*
X124067Y-93244D03*
X124067Y-92988D03*
X124067Y-92732D03*
X123300Y-93500D03*
X123300Y-93244D03*
X123300Y-92988D03*
X123300Y-92732D03*
G54D35*
X124965Y-94590D03*
X124215Y-94590D03*
G54D36*
X147100Y-95026D03*
G54D37*
X147100Y-92073D03*
M02*
