G04 (created by PCBNEW (2013-07-07 BZR 4022)-stable) date 10/27/2016 9:50:45 PM*
%MOIN*%
G04 Gerber Fmt 3.4, Leading zero omitted, Abs format*
%FSLAX34Y34*%
G01*
G70*
G90*
G04 APERTURE LIST*
%ADD10C,0.00590551*%
%ADD11R,0.08X0.08*%
%ADD12C,0.08*%
%ADD13R,0.0436X0.0751*%
%ADD14R,0.075X0.075*%
%ADD15C,0.075*%
%ADD16C,0.09*%
%ADD17R,0.09X0.09*%
%ADD18R,0.37X0.37*%
%ADD19C,0.1184*%
%ADD20R,0.08X0.1*%
%ADD21R,0.0365X0.09*%
%ADD22R,0.160945X0.135748*%
%ADD23R,0.0711X0.079*%
%ADD24R,0.079X0.0711*%
%ADD25C,0.118425*%
%ADD26R,0.07X0.036*%
%ADD27R,0.1X0.08*%
%ADD28R,0.075X0.055*%
%ADD29R,0.0787X0.0787*%
%ADD30C,0.0787*%
%ADD31R,0.079X0.0377*%
%ADD32C,0.083*%
%ADD33C,0.076*%
%ADD34R,0.1381X0.0987*%
%ADD35R,0.0987X0.1381*%
%ADD36R,0.055X0.075*%
%ADD37R,0.1066X0.0436*%
%ADD38R,0.1184X0.1204*%
%ADD39R,0.1204X0.21685*%
%ADD40R,0.0829921X0.0987402*%
%ADD41R,0.0987402X0.0829921*%
%ADD42R,0.1696X0.1204*%
%ADD43C,0.17748*%
%ADD44C,0.0987402*%
%ADD45O,0.1085X0.197*%
%ADD46R,0.0672X0.0672*%
%ADD47C,0.086*%
%ADD48R,0.17748X0.130236*%
%ADD49C,0.492441*%
G04 APERTURE END LIST*
G54D10*
G54D11*
X119600Y-101800D03*
G54D12*
X119600Y-100800D03*
X120600Y-101800D03*
X120600Y-100800D03*
X121600Y-101800D03*
X121600Y-100800D03*
X122600Y-101800D03*
X122600Y-100800D03*
X123600Y-101800D03*
X123600Y-100800D03*
X124600Y-101800D03*
X124600Y-100800D03*
X125600Y-101800D03*
X125600Y-100800D03*
X126600Y-101800D03*
X126600Y-100800D03*
X127600Y-101800D03*
X127600Y-100800D03*
X128600Y-101800D03*
X128600Y-100800D03*
X138140Y-106480D03*
X142140Y-106480D03*
X130550Y-106750D03*
X130550Y-110750D03*
X136100Y-110970D03*
X136100Y-106970D03*
X137040Y-106975D03*
X137040Y-110975D03*
X138020Y-110960D03*
X142020Y-110960D03*
X142120Y-105320D03*
X138120Y-105320D03*
G54D13*
X119050Y-109000D03*
X119050Y-111100D03*
X119550Y-109000D03*
X120050Y-109000D03*
X120550Y-109000D03*
X119550Y-111100D03*
X120050Y-111100D03*
X120550Y-111100D03*
G54D14*
X131650Y-107700D03*
G54D15*
X131650Y-108700D03*
X131650Y-109700D03*
X134650Y-109700D03*
X134650Y-108700D03*
X134650Y-107700D03*
G54D16*
X139520Y-102030D03*
G54D17*
X139520Y-104030D03*
G54D16*
X139520Y-103030D03*
G54D18*
X133020Y-103030D03*
G54D15*
X141880Y-108780D03*
X139880Y-108780D03*
G54D19*
X124250Y-107300D03*
X118856Y-107300D03*
X124644Y-112615D03*
X118463Y-112615D03*
G54D15*
X141880Y-109740D03*
X139880Y-109740D03*
X141880Y-107640D03*
X139880Y-107640D03*
G54D20*
X128170Y-112070D03*
X129470Y-112070D03*
X128200Y-110000D03*
X129500Y-110000D03*
G54D21*
X125140Y-111034D03*
X125396Y-111034D03*
X125652Y-111034D03*
X125908Y-111034D03*
X126162Y-111034D03*
X126418Y-111034D03*
X126674Y-111034D03*
X126930Y-111034D03*
X126930Y-108696D03*
X126674Y-108696D03*
X126418Y-108696D03*
X126162Y-108696D03*
X125908Y-108696D03*
X125652Y-108696D03*
X125396Y-108696D03*
X125140Y-108696D03*
G54D22*
X126035Y-109865D03*
G54D23*
X126674Y-112275D03*
X125926Y-112275D03*
G54D24*
X128600Y-107974D03*
X128600Y-107226D03*
X124350Y-110401D03*
X124350Y-111149D03*
X127700Y-107724D03*
X127700Y-106976D03*
X126900Y-107474D03*
X126900Y-106726D03*
G54D25*
X146670Y-97740D03*
X147220Y-95390D03*
X146370Y-96390D03*
G54D26*
X125550Y-95600D03*
X125550Y-95860D03*
X125550Y-96120D03*
X125550Y-96370D03*
X125550Y-96630D03*
X125550Y-96890D03*
X125550Y-97140D03*
X125550Y-97400D03*
X125550Y-97650D03*
X125550Y-97910D03*
X127650Y-97910D03*
X127650Y-97650D03*
X127650Y-97400D03*
X127650Y-97140D03*
X127650Y-96890D03*
X127650Y-96630D03*
X127650Y-96370D03*
X127650Y-96120D03*
X127650Y-95860D03*
X127650Y-95600D03*
G54D20*
X120650Y-94100D03*
X121950Y-94100D03*
G54D27*
X122900Y-93050D03*
X122900Y-94350D03*
X122900Y-90400D03*
X122900Y-91700D03*
G54D20*
X120650Y-92800D03*
X121950Y-92800D03*
G54D27*
X121650Y-90400D03*
X121650Y-91700D03*
G54D28*
X125555Y-91131D03*
X125555Y-90381D03*
X127665Y-92201D03*
X127665Y-91451D03*
X123830Y-90996D03*
X123830Y-91746D03*
X126510Y-90396D03*
X126510Y-91146D03*
X123800Y-93225D03*
X123800Y-93975D03*
X127670Y-93636D03*
X127670Y-92886D03*
G54D29*
X138700Y-109054D03*
G54D30*
X138700Y-108266D03*
G54D31*
X126814Y-93511D03*
X126814Y-93261D03*
X126814Y-93011D03*
X126814Y-92761D03*
X126814Y-92511D03*
X126814Y-92261D03*
X126814Y-92011D03*
X126814Y-91761D03*
X124696Y-91761D03*
X124696Y-92011D03*
X124696Y-92261D03*
X124696Y-92511D03*
X124696Y-92761D03*
X124696Y-93011D03*
X124696Y-93261D03*
X124696Y-93511D03*
G54D27*
X123350Y-87950D03*
X123350Y-89250D03*
G54D32*
X142020Y-112040D03*
X138020Y-112040D03*
G54D33*
X143355Y-105690D03*
X149064Y-105690D03*
X143355Y-109520D03*
X149064Y-109520D03*
G54D34*
X141960Y-94349D03*
X141960Y-96711D03*
G54D35*
X141469Y-99320D03*
X143831Y-99320D03*
G54D28*
X137130Y-99375D03*
X137130Y-100125D03*
G54D36*
X141340Y-98005D03*
X142090Y-98005D03*
G54D28*
X136260Y-97380D03*
X136260Y-98130D03*
G54D16*
X137720Y-95600D03*
X138720Y-95600D03*
G54D17*
X139720Y-95600D03*
G54D37*
X137707Y-96810D03*
X137707Y-97310D03*
X137707Y-97810D03*
X137707Y-98310D03*
X139753Y-98310D03*
X139753Y-97810D03*
X139753Y-97310D03*
X139753Y-96810D03*
G54D38*
X135100Y-97996D03*
X135100Y-99984D03*
G54D39*
X145558Y-94013D03*
X143570Y-94013D03*
G54D40*
X138433Y-99870D03*
G54D41*
X139575Y-99377D03*
X139575Y-100362D03*
G54D28*
X128464Y-91451D03*
X128464Y-92201D03*
X128458Y-93625D03*
X128458Y-92875D03*
G54D42*
X133215Y-95194D03*
X133215Y-97556D03*
G54D43*
X147070Y-112276D03*
X143880Y-112246D03*
X148700Y-101056D03*
X146700Y-100006D03*
X148560Y-94682D03*
X119250Y-93856D03*
X119600Y-90556D03*
X123350Y-86206D03*
X120850Y-87506D03*
X132290Y-93166D03*
X129400Y-89056D03*
G54D44*
X145210Y-96230D03*
X145210Y-100230D03*
X144700Y-101700D03*
X140700Y-101700D03*
X144700Y-103100D03*
X140700Y-103100D03*
G54D36*
X129925Y-98000D03*
X129175Y-98000D03*
G54D43*
X131280Y-98876D03*
X131280Y-97006D03*
G54D11*
X122500Y-103300D03*
G54D12*
X122500Y-104300D03*
X122500Y-105300D03*
G54D45*
X142250Y-89750D03*
X148250Y-89750D03*
G54D23*
X126614Y-103000D03*
X125866Y-103000D03*
X126624Y-104200D03*
X125876Y-104200D03*
G54D46*
X124963Y-103000D03*
X124137Y-103000D03*
X124963Y-104200D03*
X124137Y-104200D03*
G54D47*
X147900Y-99500D03*
X147900Y-96500D03*
X148900Y-99500D03*
X148900Y-96500D03*
X146100Y-103300D03*
X149100Y-103300D03*
X146100Y-102400D03*
X149100Y-102400D03*
G54D29*
X120644Y-95750D03*
G54D30*
X119856Y-95750D03*
G54D29*
X119644Y-97700D03*
G54D30*
X118856Y-97700D03*
G54D48*
X135450Y-91300D03*
X139650Y-91300D03*
G54D49*
X133850Y-113300D03*
X133850Y-84950D03*
M02*
