G04 (created by PCBNEW (2013-07-07 BZR 4022)-stable) date 10/17/2015 1:36:39 PM*
%MOIN*%
G04 Gerber Fmt 3.4, Leading zero omitted, Abs format*
%FSLAX34Y34*%
G01*
G70*
G90*
G04 APERTURE LIST*
%ADD10C,0.00590551*%
%ADD11C,0.00393701*%
%ADD12C,0.012*%
G04 APERTURE END LIST*
G54D10*
G54D11*
X117050Y-82100D02*
X117050Y-82450D01*
X130500Y-82100D02*
X117050Y-82100D01*
X130500Y-89750D02*
X130500Y-82100D01*
X125100Y-95150D02*
X130500Y-89750D01*
X125200Y-98050D02*
X125200Y-94750D01*
X126900Y-99750D02*
X125200Y-98050D01*
X128850Y-99750D02*
X126900Y-99750D01*
X130150Y-101050D02*
X128850Y-99750D01*
X130150Y-105850D02*
X130600Y-105850D01*
X130150Y-101050D02*
X130150Y-105850D01*
X130250Y-100450D02*
X130250Y-100400D01*
X117200Y-82700D02*
X116700Y-82700D01*
X117050Y-113950D02*
X117050Y-82450D01*
X133700Y-113850D02*
X116850Y-113850D01*
X133650Y-108250D02*
X133650Y-114150D01*
X131250Y-105850D02*
X133650Y-108250D01*
X130600Y-105850D02*
X131250Y-105850D01*
X130800Y-105500D02*
X130800Y-100900D01*
X131650Y-105500D02*
X130800Y-105500D01*
X132600Y-106450D02*
X131650Y-105500D01*
X134700Y-106450D02*
X132600Y-106450D01*
X135800Y-107550D02*
X134700Y-106450D01*
X135800Y-108900D02*
X135800Y-107550D01*
X135350Y-109350D02*
X135800Y-108900D01*
X134600Y-109350D02*
X135350Y-109350D01*
X134600Y-113800D02*
X134600Y-109350D01*
X150550Y-113800D02*
X134600Y-113800D01*
X150550Y-98500D02*
X150550Y-113800D01*
X149650Y-85200D02*
X147250Y-82800D01*
X149650Y-111500D02*
X147150Y-114000D01*
G54D12*
X152280Y-114314D02*
X152813Y-114314D01*
X151975Y-114457D02*
X152547Y-114600D01*
X152547Y-114228D01*
X152737Y-114000D02*
X152775Y-113971D01*
X152813Y-114000D01*
X152775Y-114028D01*
X152737Y-114000D01*
X152813Y-114000D01*
X152013Y-113428D02*
X152013Y-113714D01*
X152394Y-113742D01*
X152356Y-113714D01*
X152318Y-113657D01*
X152318Y-113514D01*
X152356Y-113457D01*
X152394Y-113428D01*
X152470Y-113400D01*
X152661Y-113400D01*
X152737Y-113428D01*
X152775Y-113457D01*
X152813Y-113514D01*
X152813Y-113657D01*
X152775Y-113714D01*
X152737Y-113742D01*
X152013Y-113200D02*
X152013Y-112800D01*
X152813Y-113057D01*
X152090Y-112599D02*
X152051Y-112571D01*
X152013Y-112514D01*
X152013Y-112371D01*
X152051Y-112314D01*
X152090Y-112285D01*
X152166Y-112257D01*
X152242Y-112257D01*
X152356Y-112285D01*
X152813Y-112628D01*
X152813Y-112257D01*
X152813Y-111542D02*
X152280Y-111542D01*
X152356Y-111542D02*
X152318Y-111514D01*
X152280Y-111457D01*
X152280Y-111371D01*
X152318Y-111314D01*
X152394Y-111285D01*
X152813Y-111285D01*
X152394Y-111285D02*
X152318Y-111257D01*
X152280Y-111199D01*
X152280Y-111114D01*
X152318Y-111057D01*
X152394Y-111028D01*
X152813Y-111028D01*
X152813Y-110742D02*
X152280Y-110742D01*
X152356Y-110742D02*
X152318Y-110714D01*
X152280Y-110657D01*
X152280Y-110571D01*
X152318Y-110514D01*
X152394Y-110485D01*
X152813Y-110485D01*
X152394Y-110485D02*
X152318Y-110457D01*
X152280Y-110399D01*
X152280Y-110314D01*
X152318Y-110257D01*
X152394Y-110228D01*
X152813Y-110228D01*
X151850Y-113300D02*
X151850Y-111500D01*
X149650Y-113300D02*
X153130Y-113300D01*
X149650Y-111500D02*
X153130Y-111500D01*
X151850Y-111500D02*
X152080Y-111943D01*
X151850Y-111500D02*
X151619Y-111943D01*
X151850Y-113300D02*
X152080Y-112856D01*
X151850Y-113300D02*
X151619Y-112856D01*
X151599Y-82385D02*
X151066Y-82385D01*
X151904Y-82242D02*
X151332Y-82100D01*
X151332Y-82471D01*
X151142Y-82700D02*
X151104Y-82728D01*
X151066Y-82700D01*
X151104Y-82671D01*
X151142Y-82700D01*
X151066Y-82700D01*
X151866Y-83271D02*
X151866Y-82985D01*
X151485Y-82957D01*
X151523Y-82985D01*
X151561Y-83042D01*
X151561Y-83185D01*
X151523Y-83242D01*
X151485Y-83271D01*
X151409Y-83300D01*
X151218Y-83300D01*
X151142Y-83271D01*
X151104Y-83242D01*
X151066Y-83185D01*
X151066Y-83042D01*
X151104Y-82985D01*
X151142Y-82957D01*
X151866Y-83500D02*
X151866Y-83900D01*
X151066Y-83642D01*
X151789Y-84100D02*
X151828Y-84128D01*
X151866Y-84185D01*
X151866Y-84328D01*
X151828Y-84385D01*
X151789Y-84414D01*
X151713Y-84442D01*
X151637Y-84442D01*
X151523Y-84414D01*
X151066Y-84071D01*
X151066Y-84442D01*
X151066Y-85157D02*
X151599Y-85157D01*
X151523Y-85157D02*
X151561Y-85185D01*
X151599Y-85242D01*
X151599Y-85328D01*
X151561Y-85385D01*
X151485Y-85414D01*
X151066Y-85414D01*
X151485Y-85414D02*
X151561Y-85442D01*
X151599Y-85500D01*
X151599Y-85585D01*
X151561Y-85642D01*
X151485Y-85671D01*
X151066Y-85671D01*
X151066Y-85957D02*
X151599Y-85957D01*
X151523Y-85957D02*
X151561Y-85985D01*
X151599Y-86042D01*
X151599Y-86128D01*
X151561Y-86185D01*
X151485Y-86214D01*
X151066Y-86214D01*
X151485Y-86214D02*
X151561Y-86242D01*
X151599Y-86300D01*
X151599Y-86385D01*
X151561Y-86442D01*
X151485Y-86471D01*
X151066Y-86471D01*
X150749Y-83400D02*
X150749Y-85200D01*
X149650Y-83400D02*
X152029Y-83400D01*
X149650Y-85200D02*
X152029Y-85200D01*
X150749Y-85200D02*
X150519Y-84756D01*
X150749Y-85200D02*
X150980Y-84756D01*
X150749Y-83400D02*
X150519Y-83843D01*
X150749Y-83400D02*
X150980Y-83843D01*
G54D11*
X133900Y-110700D02*
X133900Y-113900D01*
X133900Y-110800D02*
X133900Y-83100D01*
X131500Y-113300D02*
X117800Y-113300D01*
X131400Y-113300D02*
X149800Y-113300D01*
X133920Y-112380D02*
X133680Y-112380D01*
X132720Y-115040D02*
X132720Y-111960D01*
X132050Y-83400D02*
X156200Y-83400D01*
X117400Y-115600D02*
X117800Y-116000D01*
X117800Y-115600D02*
X117400Y-116000D01*
X150200Y-115600D02*
X149800Y-116000D01*
X149800Y-115600D02*
X150200Y-116000D01*
X150200Y-80800D02*
X149800Y-81200D01*
X149800Y-80800D02*
X150200Y-81200D01*
X117600Y-81200D02*
X117600Y-80800D01*
X118000Y-80800D02*
X117600Y-81200D01*
X118000Y-81200D02*
X118000Y-80800D01*
X117600Y-80800D02*
X118000Y-81200D01*
G54D12*
X116333Y-105917D02*
X116333Y-106260D01*
X116333Y-106089D02*
X115533Y-106089D01*
X115648Y-106146D01*
X115724Y-106203D01*
X115762Y-106260D01*
X115533Y-105546D02*
X115533Y-105489D01*
X115571Y-105432D01*
X115610Y-105403D01*
X115686Y-105375D01*
X115838Y-105346D01*
X116029Y-105346D01*
X116181Y-105375D01*
X116257Y-105403D01*
X116295Y-105432D01*
X116333Y-105489D01*
X116333Y-105546D01*
X116295Y-105603D01*
X116257Y-105632D01*
X116181Y-105660D01*
X116029Y-105689D01*
X115838Y-105689D01*
X115686Y-105660D01*
X115610Y-105632D01*
X115571Y-105603D01*
X115533Y-105546D01*
X116257Y-105089D02*
X116295Y-105060D01*
X116333Y-105089D01*
X116295Y-105117D01*
X116257Y-105089D01*
X116333Y-105089D01*
X115533Y-104689D02*
X115533Y-104632D01*
X115571Y-104575D01*
X115610Y-104546D01*
X115686Y-104517D01*
X115838Y-104489D01*
X116029Y-104489D01*
X116181Y-104517D01*
X116257Y-104546D01*
X116295Y-104575D01*
X116333Y-104632D01*
X116333Y-104689D01*
X116295Y-104746D01*
X116257Y-104775D01*
X116181Y-104803D01*
X116029Y-104832D01*
X115838Y-104832D01*
X115686Y-104803D01*
X115610Y-104775D01*
X115571Y-104746D01*
X115533Y-104689D01*
X115533Y-104289D02*
X115533Y-103917D01*
X115838Y-104117D01*
X115838Y-104032D01*
X115876Y-103975D01*
X115914Y-103946D01*
X115990Y-103917D01*
X116181Y-103917D01*
X116257Y-103946D01*
X116295Y-103975D01*
X116333Y-104032D01*
X116333Y-104203D01*
X116295Y-104260D01*
X116257Y-104289D01*
X115533Y-103717D02*
X115533Y-103346D01*
X115838Y-103546D01*
X115838Y-103460D01*
X115876Y-103403D01*
X115914Y-103375D01*
X115990Y-103346D01*
X116181Y-103346D01*
X116257Y-103375D01*
X116295Y-103403D01*
X116333Y-103460D01*
X116333Y-103632D01*
X116295Y-103689D01*
X116257Y-103717D01*
X116333Y-102632D02*
X115800Y-102632D01*
X115876Y-102632D02*
X115838Y-102603D01*
X115800Y-102546D01*
X115800Y-102460D01*
X115838Y-102403D01*
X115914Y-102374D01*
X116333Y-102374D01*
X115914Y-102374D02*
X115838Y-102346D01*
X115800Y-102289D01*
X115800Y-102203D01*
X115838Y-102146D01*
X115914Y-102117D01*
X116333Y-102117D01*
X116333Y-101832D02*
X115800Y-101832D01*
X115876Y-101832D02*
X115838Y-101803D01*
X115800Y-101746D01*
X115800Y-101660D01*
X115838Y-101603D01*
X115914Y-101574D01*
X116333Y-101574D01*
X115914Y-101574D02*
X115838Y-101546D01*
X115800Y-101489D01*
X115800Y-101403D01*
X115838Y-101346D01*
X115914Y-101317D01*
X116333Y-101317D01*
X116650Y-105750D02*
X116650Y-101800D01*
X119600Y-105750D02*
X115370Y-105750D01*
X119600Y-101800D02*
X115370Y-101800D01*
X116650Y-101800D02*
X116880Y-102243D01*
X116650Y-101800D02*
X116419Y-102243D01*
X116650Y-105750D02*
X116880Y-105306D01*
X116650Y-105750D02*
X116419Y-105306D01*
G54D11*
X119610Y-105900D02*
X119610Y-99400D01*
G54D12*
X116985Y-108930D02*
X116985Y-109463D01*
X116842Y-108625D02*
X116700Y-109197D01*
X117071Y-109197D01*
X117300Y-109387D02*
X117328Y-109425D01*
X117300Y-109463D01*
X117271Y-109425D01*
X117300Y-109387D01*
X117300Y-109463D01*
X117700Y-108663D02*
X117757Y-108663D01*
X117814Y-108701D01*
X117842Y-108739D01*
X117871Y-108816D01*
X117900Y-108968D01*
X117900Y-109159D01*
X117871Y-109311D01*
X117842Y-109387D01*
X117814Y-109425D01*
X117757Y-109463D01*
X117700Y-109463D01*
X117642Y-109425D01*
X117614Y-109387D01*
X117585Y-109311D01*
X117557Y-109159D01*
X117557Y-108968D01*
X117585Y-108816D01*
X117614Y-108739D01*
X117642Y-108701D01*
X117700Y-108663D01*
X118414Y-108663D02*
X118300Y-108663D01*
X118242Y-108701D01*
X118214Y-108739D01*
X118157Y-108854D01*
X118128Y-109006D01*
X118128Y-109311D01*
X118157Y-109387D01*
X118185Y-109425D01*
X118242Y-109463D01*
X118357Y-109463D01*
X118414Y-109425D01*
X118442Y-109387D01*
X118471Y-109311D01*
X118471Y-109120D01*
X118442Y-109044D01*
X118414Y-109006D01*
X118357Y-108968D01*
X118242Y-108968D01*
X118185Y-109006D01*
X118157Y-109044D01*
X118128Y-109120D01*
X118985Y-108930D02*
X118985Y-109463D01*
X118842Y-108625D02*
X118700Y-109197D01*
X119071Y-109197D01*
X119757Y-109463D02*
X119757Y-108930D01*
X119757Y-109006D02*
X119785Y-108968D01*
X119842Y-108930D01*
X119928Y-108930D01*
X119985Y-108968D01*
X120014Y-109044D01*
X120014Y-109463D01*
X120014Y-109044D02*
X120042Y-108968D01*
X120100Y-108930D01*
X120185Y-108930D01*
X120242Y-108968D01*
X120271Y-109044D01*
X120271Y-109463D01*
X120557Y-109463D02*
X120557Y-108930D01*
X120557Y-109006D02*
X120585Y-108968D01*
X120642Y-108930D01*
X120728Y-108930D01*
X120785Y-108968D01*
X120814Y-109044D01*
X120814Y-109463D01*
X120814Y-109044D02*
X120842Y-108968D01*
X120900Y-108930D01*
X120985Y-108930D01*
X121042Y-108968D01*
X121071Y-109044D01*
X121071Y-109463D01*
X118100Y-108499D02*
X119700Y-108499D01*
X118100Y-107550D02*
X118100Y-109779D01*
X119700Y-107550D02*
X119700Y-109779D01*
X119700Y-108499D02*
X119256Y-108730D01*
X119700Y-108499D02*
X119256Y-108269D01*
X118100Y-108499D02*
X118543Y-108730D01*
X118100Y-108499D02*
X118543Y-108269D01*
G54D11*
X119810Y-105750D02*
X116710Y-105750D01*
X133850Y-84190D02*
X134060Y-84190D01*
X133850Y-84190D02*
X133680Y-84190D01*
X132750Y-112390D02*
X132930Y-112390D01*
X132750Y-112390D02*
X132560Y-112390D01*
X118100Y-83400D02*
X132060Y-83400D01*
G54D12*
X113836Y-95845D02*
X113836Y-96245D01*
X113036Y-95988D01*
X113836Y-96759D02*
X113836Y-96474D01*
X113455Y-96445D01*
X113493Y-96474D01*
X113531Y-96531D01*
X113531Y-96674D01*
X113493Y-96731D01*
X113455Y-96759D01*
X113379Y-96788D01*
X113188Y-96788D01*
X113112Y-96759D01*
X113074Y-96731D01*
X113036Y-96674D01*
X113036Y-96531D01*
X113074Y-96474D01*
X113112Y-96445D01*
X113112Y-97045D02*
X113074Y-97074D01*
X113036Y-97045D01*
X113074Y-97017D01*
X113112Y-97045D01*
X113036Y-97045D01*
X113036Y-97360D02*
X113036Y-97474D01*
X113074Y-97531D01*
X113112Y-97560D01*
X113226Y-97617D01*
X113379Y-97645D01*
X113683Y-97645D01*
X113760Y-97617D01*
X113798Y-97588D01*
X113836Y-97531D01*
X113836Y-97417D01*
X113798Y-97360D01*
X113760Y-97331D01*
X113683Y-97302D01*
X113493Y-97302D01*
X113417Y-97331D01*
X113379Y-97360D01*
X113340Y-97417D01*
X113340Y-97531D01*
X113379Y-97588D01*
X113417Y-97617D01*
X113493Y-97645D01*
X113036Y-97931D02*
X113036Y-98045D01*
X113074Y-98102D01*
X113112Y-98131D01*
X113226Y-98188D01*
X113379Y-98217D01*
X113683Y-98217D01*
X113760Y-98188D01*
X113798Y-98160D01*
X113836Y-98102D01*
X113836Y-97988D01*
X113798Y-97931D01*
X113760Y-97902D01*
X113683Y-97874D01*
X113493Y-97874D01*
X113417Y-97902D01*
X113379Y-97931D01*
X113340Y-97988D01*
X113340Y-98102D01*
X113379Y-98160D01*
X113417Y-98188D01*
X113493Y-98217D01*
X113836Y-98417D02*
X113836Y-98817D01*
X113036Y-98560D01*
X113036Y-99502D02*
X113569Y-99502D01*
X113493Y-99502D02*
X113531Y-99531D01*
X113569Y-99588D01*
X113569Y-99674D01*
X113531Y-99731D01*
X113455Y-99760D01*
X113036Y-99760D01*
X113455Y-99760D02*
X113531Y-99788D01*
X113569Y-99845D01*
X113569Y-99931D01*
X113531Y-99988D01*
X113455Y-100017D01*
X113036Y-100017D01*
X113036Y-100302D02*
X113569Y-100302D01*
X113493Y-100302D02*
X113531Y-100331D01*
X113569Y-100388D01*
X113569Y-100474D01*
X113531Y-100531D01*
X113455Y-100560D01*
X113036Y-100560D01*
X113455Y-100560D02*
X113531Y-100588D01*
X113569Y-100645D01*
X113569Y-100731D01*
X113531Y-100788D01*
X113455Y-100817D01*
X113036Y-100817D01*
X114000Y-83400D02*
X114000Y-113320D01*
X118100Y-83400D02*
X112720Y-83400D01*
X118100Y-113320D02*
X112720Y-113320D01*
X114000Y-113320D02*
X113769Y-112876D01*
X114000Y-113320D02*
X114230Y-112876D01*
X114000Y-83400D02*
X113769Y-83843D01*
X114000Y-83400D02*
X114230Y-83843D01*
G54D11*
X118160Y-83400D02*
X118030Y-83400D01*
X118240Y-113320D02*
X117900Y-113320D01*
X132720Y-115300D02*
X132720Y-115390D01*
X144900Y-81440D02*
X144900Y-81250D01*
X149620Y-86160D02*
X149700Y-86160D01*
X144900Y-81440D02*
X149620Y-86160D01*
X149620Y-110580D02*
X149770Y-110580D01*
X144900Y-115300D02*
X149620Y-110580D01*
X144900Y-115430D02*
X144900Y-115240D01*
X149620Y-114240D02*
X149620Y-115680D01*
G54D12*
X112443Y-95998D02*
X112481Y-95941D01*
X112519Y-95912D01*
X112595Y-95884D01*
X112633Y-95884D01*
X112709Y-95912D01*
X112748Y-95941D01*
X112786Y-95998D01*
X112786Y-96112D01*
X112748Y-96169D01*
X112709Y-96198D01*
X112633Y-96227D01*
X112595Y-96227D01*
X112519Y-96198D01*
X112481Y-96169D01*
X112443Y-96112D01*
X112443Y-95998D01*
X112405Y-95941D01*
X112367Y-95912D01*
X112290Y-95884D01*
X112138Y-95884D01*
X112062Y-95912D01*
X112024Y-95941D01*
X111986Y-95998D01*
X111986Y-96112D01*
X112024Y-96169D01*
X112062Y-96198D01*
X112138Y-96227D01*
X112290Y-96227D01*
X112367Y-96198D01*
X112405Y-96169D01*
X112443Y-96112D01*
X112786Y-96741D02*
X112786Y-96627D01*
X112748Y-96569D01*
X112709Y-96541D01*
X112595Y-96484D01*
X112443Y-96455D01*
X112138Y-96455D01*
X112062Y-96484D01*
X112024Y-96512D01*
X111986Y-96569D01*
X111986Y-96684D01*
X112024Y-96741D01*
X112062Y-96769D01*
X112138Y-96798D01*
X112329Y-96798D01*
X112405Y-96769D01*
X112443Y-96741D01*
X112481Y-96684D01*
X112481Y-96569D01*
X112443Y-96512D01*
X112405Y-96484D01*
X112329Y-96455D01*
X112062Y-97055D02*
X112024Y-97084D01*
X111986Y-97055D01*
X112024Y-97027D01*
X112062Y-97055D01*
X111986Y-97055D01*
X112786Y-97455D02*
X112786Y-97512D01*
X112748Y-97569D01*
X112709Y-97598D01*
X112633Y-97627D01*
X112481Y-97655D01*
X112290Y-97655D01*
X112138Y-97627D01*
X112062Y-97598D01*
X112024Y-97569D01*
X111986Y-97512D01*
X111986Y-97455D01*
X112024Y-97398D01*
X112062Y-97369D01*
X112138Y-97341D01*
X112290Y-97312D01*
X112481Y-97312D01*
X112633Y-97341D01*
X112709Y-97369D01*
X112748Y-97398D01*
X112786Y-97455D01*
X112786Y-98027D02*
X112786Y-98084D01*
X112748Y-98141D01*
X112709Y-98169D01*
X112633Y-98198D01*
X112481Y-98227D01*
X112290Y-98227D01*
X112138Y-98198D01*
X112062Y-98169D01*
X112024Y-98141D01*
X111986Y-98084D01*
X111986Y-98027D01*
X112024Y-97969D01*
X112062Y-97941D01*
X112138Y-97912D01*
X112290Y-97884D01*
X112481Y-97884D01*
X112633Y-97912D01*
X112709Y-97941D01*
X112748Y-97969D01*
X112786Y-98027D01*
X112519Y-98741D02*
X111986Y-98741D01*
X112824Y-98598D02*
X112252Y-98455D01*
X112252Y-98827D01*
X111986Y-99512D02*
X112519Y-99512D01*
X112443Y-99512D02*
X112481Y-99541D01*
X112519Y-99598D01*
X112519Y-99684D01*
X112481Y-99741D01*
X112405Y-99770D01*
X111986Y-99770D01*
X112405Y-99770D02*
X112481Y-99798D01*
X112519Y-99855D01*
X112519Y-99941D01*
X112481Y-99998D01*
X112405Y-100027D01*
X111986Y-100027D01*
X111986Y-100312D02*
X112519Y-100312D01*
X112443Y-100312D02*
X112481Y-100341D01*
X112519Y-100398D01*
X112519Y-100484D01*
X112481Y-100541D01*
X112405Y-100570D01*
X111986Y-100570D01*
X112405Y-100570D02*
X112481Y-100598D01*
X112519Y-100655D01*
X112519Y-100741D01*
X112481Y-100798D01*
X112405Y-100827D01*
X111986Y-100827D01*
X112949Y-81439D02*
X112949Y-115299D01*
X118100Y-81440D02*
X111669Y-81439D01*
X118100Y-115300D02*
X111669Y-115299D01*
X112949Y-115299D02*
X112719Y-114856D01*
X112949Y-115299D02*
X113180Y-114856D01*
X112949Y-81439D02*
X112719Y-81883D01*
X112949Y-81439D02*
X113180Y-81883D01*
G54D11*
X118100Y-113320D02*
X118100Y-115740D01*
X117880Y-115300D02*
X151690Y-115300D01*
X117880Y-81440D02*
X150700Y-81440D01*
G54D12*
X114936Y-95845D02*
X114936Y-96245D01*
X114136Y-95988D01*
X114136Y-96788D02*
X114136Y-96445D01*
X114136Y-96617D02*
X114936Y-96617D01*
X114821Y-96559D01*
X114745Y-96502D01*
X114707Y-96445D01*
X114212Y-97045D02*
X114174Y-97074D01*
X114136Y-97045D01*
X114174Y-97017D01*
X114212Y-97045D01*
X114136Y-97045D01*
X114136Y-97360D02*
X114136Y-97474D01*
X114174Y-97531D01*
X114212Y-97560D01*
X114326Y-97617D01*
X114479Y-97645D01*
X114783Y-97645D01*
X114860Y-97617D01*
X114898Y-97588D01*
X114936Y-97531D01*
X114936Y-97417D01*
X114898Y-97360D01*
X114860Y-97331D01*
X114783Y-97302D01*
X114593Y-97302D01*
X114517Y-97331D01*
X114479Y-97360D01*
X114440Y-97417D01*
X114440Y-97531D01*
X114479Y-97588D01*
X114517Y-97617D01*
X114593Y-97645D01*
X114593Y-97988D02*
X114631Y-97931D01*
X114669Y-97902D01*
X114745Y-97874D01*
X114783Y-97874D01*
X114860Y-97902D01*
X114898Y-97931D01*
X114936Y-97988D01*
X114936Y-98102D01*
X114898Y-98160D01*
X114860Y-98188D01*
X114783Y-98217D01*
X114745Y-98217D01*
X114669Y-98188D01*
X114631Y-98160D01*
X114593Y-98102D01*
X114593Y-97988D01*
X114555Y-97931D01*
X114517Y-97902D01*
X114440Y-97874D01*
X114288Y-97874D01*
X114212Y-97902D01*
X114174Y-97931D01*
X114136Y-97988D01*
X114136Y-98102D01*
X114174Y-98160D01*
X114212Y-98188D01*
X114288Y-98217D01*
X114440Y-98217D01*
X114517Y-98188D01*
X114555Y-98160D01*
X114593Y-98102D01*
X114669Y-98731D02*
X114136Y-98731D01*
X114974Y-98588D02*
X114402Y-98445D01*
X114402Y-98817D01*
X114136Y-99502D02*
X114669Y-99502D01*
X114593Y-99502D02*
X114631Y-99531D01*
X114669Y-99588D01*
X114669Y-99674D01*
X114631Y-99731D01*
X114555Y-99760D01*
X114136Y-99760D01*
X114555Y-99760D02*
X114631Y-99788D01*
X114669Y-99845D01*
X114669Y-99931D01*
X114631Y-99988D01*
X114555Y-100017D01*
X114136Y-100017D01*
X114136Y-100302D02*
X114669Y-100302D01*
X114593Y-100302D02*
X114631Y-100331D01*
X114669Y-100388D01*
X114669Y-100474D01*
X114631Y-100531D01*
X114555Y-100560D01*
X114136Y-100560D01*
X114555Y-100560D02*
X114631Y-100588D01*
X114669Y-100645D01*
X114669Y-100731D01*
X114631Y-100788D01*
X114555Y-100817D01*
X114136Y-100817D01*
X115100Y-84190D02*
X115100Y-112530D01*
X117870Y-84190D02*
X113820Y-84190D01*
X117870Y-112530D02*
X113820Y-112530D01*
X115100Y-112530D02*
X114869Y-112086D01*
X115100Y-112530D02*
X115330Y-112086D01*
X115100Y-84190D02*
X114869Y-84633D01*
X115100Y-84190D02*
X115330Y-84633D01*
G54D11*
X117980Y-84190D02*
X117750Y-84190D01*
X118000Y-112530D02*
X117530Y-112530D01*
X118100Y-83400D02*
X118100Y-113321D01*
G54D12*
X139534Y-79150D02*
X139534Y-79683D01*
X139392Y-78845D02*
X139249Y-79417D01*
X139620Y-79417D01*
X139963Y-78883D02*
X140020Y-78883D01*
X140077Y-78921D01*
X140106Y-78960D01*
X140134Y-79036D01*
X140163Y-79188D01*
X140163Y-79379D01*
X140134Y-79531D01*
X140106Y-79607D01*
X140077Y-79645D01*
X140020Y-79683D01*
X139963Y-79683D01*
X139906Y-79645D01*
X139877Y-79607D01*
X139849Y-79531D01*
X139820Y-79379D01*
X139820Y-79188D01*
X139849Y-79036D01*
X139877Y-78960D01*
X139906Y-78921D01*
X139963Y-78883D01*
X140420Y-79607D02*
X140449Y-79645D01*
X140420Y-79683D01*
X140392Y-79645D01*
X140420Y-79607D01*
X140420Y-79683D01*
X140820Y-78883D02*
X140877Y-78883D01*
X140935Y-78921D01*
X140963Y-78960D01*
X140992Y-79036D01*
X141020Y-79188D01*
X141020Y-79379D01*
X140992Y-79531D01*
X140963Y-79607D01*
X140935Y-79645D01*
X140877Y-79683D01*
X140820Y-79683D01*
X140763Y-79645D01*
X140735Y-79607D01*
X140706Y-79531D01*
X140677Y-79379D01*
X140677Y-79188D01*
X140706Y-79036D01*
X140735Y-78960D01*
X140763Y-78921D01*
X140820Y-78883D01*
X141563Y-78883D02*
X141277Y-78883D01*
X141249Y-79264D01*
X141277Y-79226D01*
X141335Y-79188D01*
X141477Y-79188D01*
X141535Y-79226D01*
X141563Y-79264D01*
X141592Y-79340D01*
X141592Y-79531D01*
X141563Y-79607D01*
X141535Y-79645D01*
X141477Y-79683D01*
X141335Y-79683D01*
X141277Y-79645D01*
X141249Y-79607D01*
X142106Y-78883D02*
X141992Y-78883D01*
X141935Y-78921D01*
X141906Y-78960D01*
X141849Y-79074D01*
X141820Y-79226D01*
X141820Y-79531D01*
X141849Y-79607D01*
X141877Y-79645D01*
X141935Y-79683D01*
X142049Y-79683D01*
X142106Y-79645D01*
X142135Y-79607D01*
X142163Y-79531D01*
X142163Y-79340D01*
X142135Y-79264D01*
X142106Y-79226D01*
X142049Y-79188D01*
X141935Y-79188D01*
X141877Y-79226D01*
X141849Y-79264D01*
X141820Y-79340D01*
X142877Y-79683D02*
X142877Y-79150D01*
X142877Y-79226D02*
X142906Y-79188D01*
X142963Y-79150D01*
X143049Y-79150D01*
X143106Y-79188D01*
X143135Y-79264D01*
X143135Y-79683D01*
X143135Y-79264D02*
X143163Y-79188D01*
X143220Y-79150D01*
X143306Y-79150D01*
X143363Y-79188D01*
X143392Y-79264D01*
X143392Y-79683D01*
X143677Y-79683D02*
X143677Y-79150D01*
X143677Y-79226D02*
X143706Y-79188D01*
X143763Y-79150D01*
X143849Y-79150D01*
X143906Y-79188D01*
X143935Y-79264D01*
X143935Y-79683D01*
X143935Y-79264D02*
X143963Y-79188D01*
X144020Y-79150D01*
X144106Y-79150D01*
X144163Y-79188D01*
X144192Y-79264D01*
X144192Y-79683D01*
X133850Y-80000D02*
X149620Y-80000D01*
X133850Y-83400D02*
X133850Y-78720D01*
X149620Y-83400D02*
X149620Y-78720D01*
X149620Y-80000D02*
X149176Y-80230D01*
X149620Y-80000D02*
X149176Y-79769D01*
X133850Y-80000D02*
X134293Y-80230D01*
X133850Y-80000D02*
X134293Y-79769D01*
G54D11*
X149620Y-83400D02*
X149620Y-114240D01*
G54D12*
X123774Y-79150D02*
X123774Y-79683D01*
X123632Y-78845D02*
X123489Y-79417D01*
X123860Y-79417D01*
X124203Y-78883D02*
X124260Y-78883D01*
X124317Y-78921D01*
X124346Y-78960D01*
X124374Y-79036D01*
X124403Y-79188D01*
X124403Y-79379D01*
X124374Y-79531D01*
X124346Y-79607D01*
X124317Y-79645D01*
X124260Y-79683D01*
X124203Y-79683D01*
X124146Y-79645D01*
X124117Y-79607D01*
X124089Y-79531D01*
X124060Y-79379D01*
X124060Y-79188D01*
X124089Y-79036D01*
X124117Y-78960D01*
X124146Y-78921D01*
X124203Y-78883D01*
X124660Y-79607D02*
X124689Y-79645D01*
X124660Y-79683D01*
X124632Y-79645D01*
X124660Y-79607D01*
X124660Y-79683D01*
X125060Y-78883D02*
X125117Y-78883D01*
X125175Y-78921D01*
X125203Y-78960D01*
X125232Y-79036D01*
X125260Y-79188D01*
X125260Y-79379D01*
X125232Y-79531D01*
X125203Y-79607D01*
X125175Y-79645D01*
X125117Y-79683D01*
X125060Y-79683D01*
X125003Y-79645D01*
X124975Y-79607D01*
X124946Y-79531D01*
X124917Y-79379D01*
X124917Y-79188D01*
X124946Y-79036D01*
X124975Y-78960D01*
X125003Y-78921D01*
X125060Y-78883D01*
X125632Y-78883D02*
X125689Y-78883D01*
X125746Y-78921D01*
X125775Y-78960D01*
X125803Y-79036D01*
X125832Y-79188D01*
X125832Y-79379D01*
X125803Y-79531D01*
X125775Y-79607D01*
X125746Y-79645D01*
X125689Y-79683D01*
X125632Y-79683D01*
X125575Y-79645D01*
X125546Y-79607D01*
X125517Y-79531D01*
X125489Y-79379D01*
X125489Y-79188D01*
X125517Y-79036D01*
X125546Y-78960D01*
X125575Y-78921D01*
X125632Y-78883D01*
X126375Y-78883D02*
X126089Y-78883D01*
X126060Y-79264D01*
X126089Y-79226D01*
X126146Y-79188D01*
X126289Y-79188D01*
X126346Y-79226D01*
X126375Y-79264D01*
X126403Y-79340D01*
X126403Y-79531D01*
X126375Y-79607D01*
X126346Y-79645D01*
X126289Y-79683D01*
X126146Y-79683D01*
X126089Y-79645D01*
X126060Y-79607D01*
X127117Y-79683D02*
X127117Y-79150D01*
X127117Y-79226D02*
X127146Y-79188D01*
X127203Y-79150D01*
X127289Y-79150D01*
X127346Y-79188D01*
X127375Y-79264D01*
X127375Y-79683D01*
X127375Y-79264D02*
X127403Y-79188D01*
X127460Y-79150D01*
X127546Y-79150D01*
X127603Y-79188D01*
X127632Y-79264D01*
X127632Y-79683D01*
X127917Y-79683D02*
X127917Y-79150D01*
X127917Y-79226D02*
X127946Y-79188D01*
X128003Y-79150D01*
X128089Y-79150D01*
X128146Y-79188D01*
X128175Y-79264D01*
X128175Y-79683D01*
X128175Y-79264D02*
X128203Y-79188D01*
X128260Y-79150D01*
X128346Y-79150D01*
X128403Y-79188D01*
X128432Y-79264D01*
X128432Y-79683D01*
X133850Y-80000D02*
X118100Y-80000D01*
X133850Y-81400D02*
X133850Y-78720D01*
X118100Y-81400D02*
X118100Y-78720D01*
X118100Y-80000D02*
X118543Y-79769D01*
X118100Y-80000D02*
X118543Y-80230D01*
X133850Y-80000D02*
X133406Y-79769D01*
X133850Y-80000D02*
X133406Y-80230D01*
G54D11*
X118100Y-83400D02*
X118100Y-81400D01*
M02*
