G04 (created by PCBNEW (2013-07-07 BZR 4022)-stable) date 11/5/2016 11:09:51 AM*
%MOIN*%
G04 Gerber Fmt 3.4, Leading zero omitted, Abs format*
%FSLAX34Y34*%
G01*
G70*
G90*
G04 APERTURE LIST*
%ADD10C,0.00590551*%
%ADD11R,0.08X0.08*%
%ADD12C,0.08*%
%ADD13R,0.0436X0.0751*%
%ADD14R,0.075X0.075*%
%ADD15C,0.075*%
%ADD16C,0.09*%
%ADD17R,0.09X0.09*%
%ADD18R,0.37X0.37*%
%ADD19C,0.1184*%
%ADD20R,0.08X0.1*%
%ADD21R,0.09X0.0365*%
%ADD22R,0.135748X0.160945*%
%ADD23R,0.0711X0.079*%
%ADD24R,0.079X0.0711*%
%ADD25C,0.118425*%
%ADD26R,0.036X0.07*%
%ADD27R,0.1X0.08*%
%ADD28R,0.075X0.055*%
%ADD29R,0.0787X0.0787*%
%ADD30C,0.0787*%
%ADD31R,0.079X0.0377*%
%ADD32C,0.083*%
%ADD33C,0.076*%
%ADD34R,0.1381X0.0987*%
%ADD35R,0.0987X0.1381*%
%ADD36R,0.055X0.075*%
%ADD37R,0.1066X0.0436*%
%ADD38R,0.1184X0.1204*%
%ADD39R,0.1204X0.21685*%
%ADD40R,0.0829921X0.0987402*%
%ADD41R,0.0987402X0.0829921*%
%ADD42R,0.1696X0.1204*%
%ADD43C,0.17748*%
%ADD44C,0.0987402*%
%ADD45O,0.1085X0.197*%
%ADD46R,0.0672X0.0672*%
%ADD47C,0.086*%
%ADD48R,0.17748X0.130236*%
%ADD49C,0.492441*%
G04 APERTURE END LIST*
G54D10*
G54D11*
X119600Y-101800D03*
G54D12*
X119600Y-100800D03*
X120600Y-101800D03*
X120600Y-100800D03*
X121600Y-101800D03*
X121600Y-100800D03*
X122600Y-101800D03*
X122600Y-100800D03*
X123600Y-101800D03*
X123600Y-100800D03*
X124600Y-101800D03*
X124600Y-100800D03*
X125600Y-101800D03*
X125600Y-100800D03*
X126600Y-101800D03*
X126600Y-100800D03*
X127600Y-101800D03*
X127600Y-100800D03*
X128600Y-101800D03*
X128600Y-100800D03*
X138140Y-106480D03*
X142140Y-106480D03*
X130550Y-106750D03*
X130550Y-110750D03*
X136100Y-110970D03*
X136100Y-106970D03*
X137040Y-106975D03*
X137040Y-110975D03*
X138020Y-110960D03*
X142020Y-110960D03*
X142120Y-105320D03*
X138120Y-105320D03*
G54D13*
X121150Y-98150D03*
X121150Y-96050D03*
X120650Y-98150D03*
X120150Y-98150D03*
X119650Y-98150D03*
X120650Y-96050D03*
X120150Y-96050D03*
X119650Y-96050D03*
G54D14*
X131650Y-107700D03*
G54D15*
X131650Y-108700D03*
X131650Y-109700D03*
X134650Y-109700D03*
X134650Y-108700D03*
X134650Y-107700D03*
G54D16*
X139520Y-102030D03*
G54D17*
X139520Y-104030D03*
G54D16*
X139520Y-103030D03*
G54D18*
X133020Y-103030D03*
G54D15*
X141880Y-108780D03*
X139880Y-108780D03*
G54D19*
X124545Y-94440D03*
X119151Y-94440D03*
X124939Y-89125D03*
X118758Y-89125D03*
G54D15*
X141880Y-109740D03*
X139880Y-109740D03*
X141880Y-107640D03*
X139880Y-107640D03*
G54D20*
X128250Y-95800D03*
X126950Y-95800D03*
X128250Y-97250D03*
X126950Y-97250D03*
G54D21*
X127256Y-92180D03*
X127256Y-92436D03*
X127256Y-92692D03*
X127256Y-92948D03*
X127256Y-93202D03*
X127256Y-93458D03*
X127256Y-93714D03*
X127256Y-93970D03*
X129594Y-93970D03*
X129594Y-93714D03*
X129594Y-93458D03*
X129594Y-93202D03*
X129594Y-92948D03*
X129594Y-92692D03*
X129594Y-92436D03*
X129594Y-92180D03*
G54D22*
X128425Y-93075D03*
G54D23*
X126674Y-94550D03*
X125926Y-94550D03*
X129726Y-95600D03*
X130474Y-95600D03*
G54D24*
X126200Y-92176D03*
X126200Y-92924D03*
X130400Y-93976D03*
X130400Y-94724D03*
X131200Y-94076D03*
X131200Y-94824D03*
G54D25*
X146670Y-97740D03*
X147220Y-95390D03*
X146370Y-96390D03*
G54D26*
X125200Y-96600D03*
X124940Y-96600D03*
X124680Y-96600D03*
X124430Y-96600D03*
X124170Y-96600D03*
X123910Y-96600D03*
X123660Y-96600D03*
X123400Y-96600D03*
X123150Y-96600D03*
X122890Y-96600D03*
X122890Y-98700D03*
X123150Y-98700D03*
X123400Y-98700D03*
X123660Y-98700D03*
X123910Y-98700D03*
X124170Y-98700D03*
X124430Y-98700D03*
X124680Y-98700D03*
X124940Y-98700D03*
X125200Y-98700D03*
G54D27*
X143700Y-89250D03*
X143700Y-87950D03*
G54D20*
X146050Y-88000D03*
X144750Y-88000D03*
G54D28*
X141200Y-88425D03*
X141200Y-89175D03*
X138910Y-87074D03*
X138910Y-87824D03*
X142800Y-88825D03*
X142800Y-88075D03*
X140200Y-89175D03*
X140200Y-88425D03*
X142900Y-86475D03*
X142900Y-85725D03*
X138905Y-85639D03*
X138905Y-86389D03*
G54D29*
X138700Y-109054D03*
G54D30*
X138700Y-108266D03*
G54D31*
X139791Y-85975D03*
X139791Y-86225D03*
X139791Y-86475D03*
X139791Y-86725D03*
X139791Y-86975D03*
X139791Y-87225D03*
X139791Y-87475D03*
X139791Y-87725D03*
X141909Y-87725D03*
X141909Y-87475D03*
X141909Y-87225D03*
X141909Y-86975D03*
X141909Y-86725D03*
X141909Y-86475D03*
X141909Y-86225D03*
X141909Y-85975D03*
G54D20*
X146050Y-89150D03*
X144750Y-89150D03*
G54D32*
X142020Y-112040D03*
X138020Y-112040D03*
G54D33*
X143355Y-105690D03*
X149064Y-105690D03*
X143355Y-109520D03*
X149064Y-109520D03*
G54D34*
X141960Y-94349D03*
X141960Y-96711D03*
G54D35*
X141469Y-99320D03*
X143831Y-99320D03*
G54D28*
X137130Y-99375D03*
X137130Y-100125D03*
G54D36*
X141340Y-98005D03*
X142090Y-98005D03*
G54D28*
X136260Y-97380D03*
X136260Y-98130D03*
G54D16*
X137720Y-95600D03*
X138720Y-95600D03*
G54D17*
X139720Y-95600D03*
G54D37*
X137707Y-96810D03*
X137707Y-97310D03*
X137707Y-97810D03*
X137707Y-98310D03*
X139753Y-98310D03*
X139753Y-97810D03*
X139753Y-97310D03*
X139753Y-96810D03*
G54D38*
X135100Y-97996D03*
X135100Y-99984D03*
G54D39*
X145558Y-94013D03*
X143570Y-94013D03*
G54D40*
X138433Y-99870D03*
G54D41*
X139575Y-99377D03*
X139575Y-100362D03*
G54D28*
X138111Y-87824D03*
X138111Y-87074D03*
X138117Y-85650D03*
X138117Y-86400D03*
G54D42*
X133215Y-95194D03*
X133215Y-97556D03*
G54D43*
X147070Y-112276D03*
X143880Y-112246D03*
X148700Y-101056D03*
X146700Y-100006D03*
X148560Y-94682D03*
X148350Y-89143D03*
X148350Y-87300D03*
X132290Y-93166D03*
X132250Y-89206D03*
G54D44*
X145210Y-96230D03*
X145210Y-100230D03*
X144700Y-101700D03*
X140700Y-101700D03*
X144700Y-103100D03*
X140700Y-103100D03*
G54D36*
X130025Y-97000D03*
X129275Y-97000D03*
G54D43*
X131280Y-97006D03*
G54D11*
X123600Y-103210D03*
G54D12*
X122600Y-103210D03*
X121600Y-103210D03*
G54D45*
X142150Y-91500D03*
X148150Y-91500D03*
G54D46*
X129337Y-87150D03*
X130163Y-87150D03*
X129337Y-85950D03*
X130163Y-85950D03*
G54D47*
X147900Y-99500D03*
X147900Y-96500D03*
X148900Y-99500D03*
X148900Y-96500D03*
X146100Y-103300D03*
X149100Y-103300D03*
X146100Y-102400D03*
X149100Y-102400D03*
G54D29*
X132550Y-91444D03*
G54D30*
X132550Y-90656D03*
G54D48*
X135450Y-91300D03*
X139650Y-91300D03*
G54D49*
X133850Y-113300D03*
X133850Y-84950D03*
G54D43*
X131250Y-98856D03*
G54D11*
X119600Y-105750D03*
G54D12*
X119600Y-104750D03*
X120600Y-105750D03*
X120600Y-104750D03*
X121600Y-105750D03*
X121600Y-104750D03*
X122600Y-105750D03*
X122600Y-104750D03*
X123600Y-105750D03*
X123600Y-104750D03*
X124600Y-105750D03*
X124600Y-104750D03*
X125600Y-105750D03*
X125600Y-104750D03*
X126600Y-105750D03*
X126600Y-104750D03*
X127600Y-105750D03*
X127600Y-104750D03*
X128600Y-105750D03*
X128600Y-104750D03*
G54D11*
X119600Y-109700D03*
G54D12*
X119600Y-108700D03*
X120600Y-109700D03*
X120600Y-108700D03*
X121600Y-109700D03*
X121600Y-108700D03*
X122600Y-109700D03*
X122600Y-108700D03*
X123600Y-109700D03*
X123600Y-108700D03*
X124600Y-109700D03*
X124600Y-108700D03*
X125600Y-109700D03*
X125600Y-108700D03*
X126600Y-109700D03*
X126600Y-108700D03*
X127600Y-109700D03*
X127600Y-108700D03*
X128600Y-109700D03*
X128600Y-108700D03*
G54D43*
X144500Y-86006D03*
X146350Y-86006D03*
M02*
