G04 (created by PCBNEW (2013-07-07 BZR 4022)-stable) date 10/27/2016 9:50:45 PM*
%MOIN*%
G04 Gerber Fmt 3.4, Leading zero omitted, Abs format*
%FSLAX34Y34*%
G01*
G70*
G90*
G04 APERTURE LIST*
%ADD10C,0.00590551*%
%ADD11C,0.00314961*%
%ADD12C,0.00472441*%
%ADD13C,0.00629921*%
%ADD14C,0.0035*%
%ADD15C,0.00275591*%
%ADD16C,0.011811*%
%ADD17C,0.0118*%
%ADD18C,0.012*%
%ADD19C,0.005*%
%ADD20C,0.015*%
%ADD21C,0.008*%
%ADD22C,0.0026*%
%ADD23C,0.006*%
%ADD24C,0.003*%
%ADD25C,0.002*%
%ADD26C,0.007*%
%ADD27C,0.0039*%
%ADD28C,0.01*%
%ADD29C,0.0001*%
%ADD30C,0.0098*%
%ADD31C,0.00984252*%
%ADD32C,0.016*%
%ADD33C,0.0059*%
%ADD34C,0.05*%
%ADD35C,0.0065*%
%ADD36C,0.0043*%
%ADD37C,0.0047*%
%ADD38C,0.00787402*%
%ADD39C,0.00748031*%
G04 APERTURE END LIST*
G54D10*
G54D11*
X120073Y-96510D02*
X120064Y-96520D01*
X120035Y-96529D01*
X120017Y-96529D01*
X119989Y-96520D01*
X119970Y-96501D01*
X119960Y-96482D01*
X119951Y-96445D01*
X119951Y-96417D01*
X119960Y-96379D01*
X119970Y-96360D01*
X119989Y-96342D01*
X120017Y-96332D01*
X120035Y-96332D01*
X120064Y-96342D01*
X120073Y-96351D01*
X120260Y-96529D02*
X120148Y-96529D01*
X120204Y-96529D02*
X120204Y-96332D01*
X120185Y-96360D01*
X120167Y-96379D01*
X120148Y-96389D01*
X120335Y-96351D02*
X120345Y-96342D01*
X120364Y-96332D01*
X120410Y-96332D01*
X120429Y-96342D01*
X120439Y-96351D01*
X120448Y-96370D01*
X120448Y-96389D01*
X120439Y-96417D01*
X120326Y-96529D01*
X120448Y-96529D01*
X119123Y-98410D02*
X119114Y-98420D01*
X119085Y-98429D01*
X119067Y-98429D01*
X119039Y-98420D01*
X119020Y-98401D01*
X119010Y-98382D01*
X119001Y-98345D01*
X119001Y-98317D01*
X119010Y-98279D01*
X119020Y-98260D01*
X119039Y-98242D01*
X119067Y-98232D01*
X119085Y-98232D01*
X119114Y-98242D01*
X119123Y-98251D01*
X119310Y-98429D02*
X119198Y-98429D01*
X119254Y-98429D02*
X119254Y-98232D01*
X119235Y-98260D01*
X119217Y-98279D01*
X119198Y-98289D01*
X119479Y-98298D02*
X119479Y-98429D01*
X119432Y-98223D02*
X119385Y-98364D01*
X119507Y-98364D01*
X126336Y-104705D02*
X126402Y-104799D01*
X126449Y-104705D02*
X126449Y-104902D01*
X126374Y-104902D01*
X126355Y-104892D01*
X126345Y-104883D01*
X126336Y-104864D01*
X126336Y-104836D01*
X126345Y-104817D01*
X126355Y-104808D01*
X126374Y-104799D01*
X126449Y-104799D01*
X126261Y-104883D02*
X126252Y-104892D01*
X126233Y-104902D01*
X126186Y-104902D01*
X126167Y-104892D01*
X126158Y-104883D01*
X126149Y-104864D01*
X126149Y-104845D01*
X126158Y-104817D01*
X126270Y-104705D01*
X126149Y-104705D01*
X126083Y-104902D02*
X125961Y-104902D01*
X126027Y-104827D01*
X125999Y-104827D01*
X125980Y-104817D01*
X125970Y-104808D01*
X125961Y-104789D01*
X125961Y-104742D01*
X125970Y-104724D01*
X125980Y-104714D01*
X125999Y-104705D01*
X126055Y-104705D01*
X126074Y-104714D01*
X126083Y-104724D01*
X126361Y-102325D02*
X126427Y-102419D01*
X126474Y-102325D02*
X126474Y-102522D01*
X126399Y-102522D01*
X126380Y-102512D01*
X126370Y-102503D01*
X126361Y-102484D01*
X126361Y-102456D01*
X126370Y-102437D01*
X126380Y-102428D01*
X126399Y-102419D01*
X126474Y-102419D01*
X126286Y-102503D02*
X126277Y-102512D01*
X126258Y-102522D01*
X126211Y-102522D01*
X126192Y-102512D01*
X126183Y-102503D01*
X126174Y-102484D01*
X126174Y-102465D01*
X126183Y-102437D01*
X126295Y-102325D01*
X126174Y-102325D01*
X126099Y-102503D02*
X126089Y-102512D01*
X126070Y-102522D01*
X126024Y-102522D01*
X126005Y-102512D01*
X125995Y-102503D01*
X125986Y-102484D01*
X125986Y-102465D01*
X125995Y-102437D01*
X126108Y-102325D01*
X125986Y-102325D01*
G54D12*
X143438Y-103018D02*
X143438Y-102664D01*
X143522Y-102664D01*
X143573Y-102680D01*
X143607Y-102714D01*
X143624Y-102748D01*
X143640Y-102815D01*
X143640Y-102866D01*
X143624Y-102934D01*
X143607Y-102967D01*
X143573Y-103001D01*
X143522Y-103018D01*
X143438Y-103018D01*
X143775Y-102697D02*
X143792Y-102680D01*
X143826Y-102664D01*
X143910Y-102664D01*
X143944Y-102680D01*
X143961Y-102697D01*
X143978Y-102731D01*
X143978Y-102765D01*
X143961Y-102815D01*
X143759Y-103018D01*
X143978Y-103018D01*
X143438Y-101568D02*
X143438Y-101214D01*
X143522Y-101214D01*
X143573Y-101230D01*
X143607Y-101264D01*
X143624Y-101298D01*
X143640Y-101365D01*
X143640Y-101416D01*
X143624Y-101484D01*
X143607Y-101517D01*
X143573Y-101551D01*
X143522Y-101568D01*
X143438Y-101568D01*
X143944Y-101332D02*
X143944Y-101568D01*
X143860Y-101197D02*
X143775Y-101450D01*
X143995Y-101450D01*
X145093Y-97536D02*
X144739Y-97536D01*
X144739Y-97452D01*
X144755Y-97401D01*
X144789Y-97367D01*
X144823Y-97350D01*
X144890Y-97334D01*
X144941Y-97334D01*
X145009Y-97350D01*
X145042Y-97367D01*
X145076Y-97401D01*
X145093Y-97452D01*
X145093Y-97536D01*
X145093Y-96996D02*
X145093Y-97199D01*
X145093Y-97097D02*
X144739Y-97097D01*
X144789Y-97131D01*
X144823Y-97165D01*
X144840Y-97199D01*
X148318Y-97911D02*
X147964Y-97911D01*
X147964Y-97827D01*
X147980Y-97776D01*
X148014Y-97742D01*
X148048Y-97725D01*
X148115Y-97709D01*
X148166Y-97709D01*
X148234Y-97725D01*
X148267Y-97742D01*
X148301Y-97776D01*
X148318Y-97827D01*
X148318Y-97911D01*
X148115Y-97506D02*
X148099Y-97540D01*
X148082Y-97557D01*
X148048Y-97574D01*
X148031Y-97574D01*
X147997Y-97557D01*
X147980Y-97540D01*
X147964Y-97506D01*
X147964Y-97439D01*
X147980Y-97405D01*
X147997Y-97388D01*
X148031Y-97371D01*
X148048Y-97371D01*
X148082Y-97388D01*
X148099Y-97405D01*
X148115Y-97439D01*
X148115Y-97506D01*
X148132Y-97540D01*
X148149Y-97557D01*
X148183Y-97574D01*
X148250Y-97574D01*
X148284Y-97557D01*
X148301Y-97540D01*
X148318Y-97506D01*
X148318Y-97439D01*
X148301Y-97405D01*
X148284Y-97388D01*
X148250Y-97371D01*
X148183Y-97371D01*
X148149Y-97388D01*
X148132Y-97405D01*
X148115Y-97439D01*
X149318Y-97911D02*
X148964Y-97911D01*
X148964Y-97827D01*
X148980Y-97776D01*
X149014Y-97742D01*
X149048Y-97725D01*
X149115Y-97709D01*
X149166Y-97709D01*
X149234Y-97725D01*
X149267Y-97742D01*
X149301Y-97776D01*
X149318Y-97827D01*
X149318Y-97911D01*
X149318Y-97540D02*
X149318Y-97472D01*
X149301Y-97439D01*
X149284Y-97422D01*
X149234Y-97388D01*
X149166Y-97371D01*
X149031Y-97371D01*
X148997Y-97388D01*
X148980Y-97405D01*
X148964Y-97439D01*
X148964Y-97506D01*
X148980Y-97540D01*
X148997Y-97557D01*
X149031Y-97574D01*
X149115Y-97574D01*
X149149Y-97557D01*
X149166Y-97540D01*
X149183Y-97506D01*
X149183Y-97439D01*
X149166Y-97405D01*
X149149Y-97388D01*
X149115Y-97371D01*
X147688Y-102818D02*
X147688Y-102464D01*
X147772Y-102464D01*
X147823Y-102480D01*
X147857Y-102514D01*
X147874Y-102548D01*
X147890Y-102615D01*
X147890Y-102666D01*
X147874Y-102734D01*
X147857Y-102767D01*
X147823Y-102801D01*
X147772Y-102818D01*
X147688Y-102818D01*
X148009Y-102464D02*
X148245Y-102464D01*
X148093Y-102818D01*
X147688Y-103718D02*
X147688Y-103364D01*
X147772Y-103364D01*
X147823Y-103380D01*
X147857Y-103414D01*
X147874Y-103448D01*
X147890Y-103515D01*
X147890Y-103566D01*
X147874Y-103634D01*
X147857Y-103667D01*
X147823Y-103701D01*
X147772Y-103718D01*
X147688Y-103718D01*
X148194Y-103364D02*
X148127Y-103364D01*
X148093Y-103380D01*
X148076Y-103397D01*
X148042Y-103448D01*
X148025Y-103515D01*
X148025Y-103650D01*
X148042Y-103684D01*
X148059Y-103701D01*
X148093Y-103718D01*
X148160Y-103718D01*
X148194Y-103701D01*
X148211Y-103684D01*
X148228Y-103650D01*
X148228Y-103566D01*
X148211Y-103532D01*
X148194Y-103515D01*
X148160Y-103499D01*
X148093Y-103499D01*
X148059Y-103515D01*
X148042Y-103532D01*
X148025Y-103566D01*
G54D13*
X145897Y-99075D02*
X145897Y-98642D01*
X146041Y-98951D01*
X146185Y-98642D01*
X146185Y-99075D01*
X146371Y-98951D02*
X146577Y-98951D01*
X146330Y-99075D02*
X146474Y-98642D01*
X146619Y-99075D01*
X146990Y-98662D02*
X146949Y-98642D01*
X146887Y-98642D01*
X146825Y-98662D01*
X146784Y-98704D01*
X146763Y-98745D01*
X146742Y-98827D01*
X146742Y-98889D01*
X146763Y-98972D01*
X146784Y-99013D01*
X146825Y-99054D01*
X146887Y-99075D01*
X146928Y-99075D01*
X146990Y-99054D01*
X147010Y-99034D01*
X147010Y-98889D01*
X146928Y-98889D01*
X147175Y-98683D02*
X147196Y-98662D01*
X147237Y-98642D01*
X147340Y-98642D01*
X147382Y-98662D01*
X147402Y-98683D01*
X147423Y-98724D01*
X147423Y-98765D01*
X147402Y-98827D01*
X147155Y-99075D01*
X147423Y-99075D01*
X130647Y-89148D02*
X130709Y-89169D01*
X130729Y-89189D01*
X130750Y-89230D01*
X130750Y-89292D01*
X130729Y-89334D01*
X130709Y-89354D01*
X130667Y-89375D01*
X130502Y-89375D01*
X130502Y-88942D01*
X130647Y-88942D01*
X130688Y-88962D01*
X130709Y-88983D01*
X130729Y-89024D01*
X130729Y-89065D01*
X130709Y-89107D01*
X130688Y-89127D01*
X130647Y-89148D01*
X130502Y-89148D01*
X130915Y-89251D02*
X131121Y-89251D01*
X130874Y-89375D02*
X131018Y-88942D01*
X131162Y-89375D01*
X131245Y-88942D02*
X131492Y-88942D01*
X131369Y-89375D02*
X131369Y-88942D01*
X131575Y-88942D02*
X131822Y-88942D01*
X131699Y-89375D02*
X131699Y-88942D01*
X131967Y-89210D02*
X132297Y-89210D01*
X129274Y-99375D02*
X129274Y-98942D01*
X129521Y-99375D02*
X129335Y-99127D01*
X129521Y-98942D02*
X129274Y-99189D01*
X129686Y-99354D02*
X129748Y-99375D01*
X129851Y-99375D01*
X129892Y-99354D01*
X129913Y-99334D01*
X129934Y-99292D01*
X129934Y-99251D01*
X129913Y-99210D01*
X129892Y-99189D01*
X129851Y-99169D01*
X129769Y-99148D01*
X129727Y-99127D01*
X129707Y-99107D01*
X129686Y-99065D01*
X129686Y-99024D01*
X129707Y-98983D01*
X129727Y-98962D01*
X129769Y-98942D01*
X129872Y-98942D01*
X129934Y-98962D01*
X130099Y-98983D02*
X130119Y-98962D01*
X130160Y-98942D01*
X130264Y-98942D01*
X130305Y-98962D01*
X130325Y-98983D01*
X130346Y-99024D01*
X130346Y-99065D01*
X130325Y-99127D01*
X130078Y-99375D01*
X130346Y-99375D01*
X129274Y-97075D02*
X129274Y-96642D01*
X129521Y-97075D02*
X129335Y-96827D01*
X129521Y-96642D02*
X129274Y-96889D01*
X129686Y-97054D02*
X129748Y-97075D01*
X129851Y-97075D01*
X129892Y-97054D01*
X129913Y-97034D01*
X129934Y-96992D01*
X129934Y-96951D01*
X129913Y-96910D01*
X129892Y-96889D01*
X129851Y-96869D01*
X129769Y-96848D01*
X129727Y-96827D01*
X129707Y-96807D01*
X129686Y-96765D01*
X129686Y-96724D01*
X129707Y-96683D01*
X129727Y-96662D01*
X129769Y-96642D01*
X129872Y-96642D01*
X129934Y-96662D01*
X130346Y-97075D02*
X130099Y-97075D01*
X130222Y-97075D02*
X130222Y-96642D01*
X130181Y-96704D01*
X130140Y-96745D01*
X130099Y-96765D01*
X147974Y-93675D02*
X147974Y-93242D01*
X147974Y-93448D02*
X148221Y-93448D01*
X148221Y-93675D02*
X148221Y-93242D01*
X148365Y-93242D02*
X148510Y-93675D01*
X148654Y-93242D01*
X148943Y-93448D02*
X149005Y-93469D01*
X149025Y-93489D01*
X149046Y-93530D01*
X149046Y-93592D01*
X149025Y-93634D01*
X149005Y-93654D01*
X148964Y-93675D01*
X148799Y-93675D01*
X148799Y-93242D01*
X148943Y-93242D01*
X148984Y-93262D01*
X149005Y-93283D01*
X149025Y-93324D01*
X149025Y-93365D01*
X149005Y-93407D01*
X148984Y-93427D01*
X148943Y-93448D01*
X148799Y-93448D01*
X146447Y-101875D02*
X146447Y-101442D01*
X146591Y-101751D01*
X146735Y-101442D01*
X146735Y-101875D01*
X146921Y-101751D02*
X147127Y-101751D01*
X146880Y-101875D02*
X147024Y-101442D01*
X147169Y-101875D01*
X147540Y-101462D02*
X147499Y-101442D01*
X147437Y-101442D01*
X147375Y-101462D01*
X147334Y-101504D01*
X147313Y-101545D01*
X147292Y-101627D01*
X147292Y-101689D01*
X147313Y-101772D01*
X147334Y-101813D01*
X147375Y-101854D01*
X147437Y-101875D01*
X147478Y-101875D01*
X147540Y-101854D01*
X147560Y-101834D01*
X147560Y-101689D01*
X147478Y-101689D01*
X147973Y-101875D02*
X147725Y-101875D01*
X147849Y-101875D02*
X147849Y-101442D01*
X147808Y-101504D01*
X147767Y-101545D01*
X147725Y-101565D01*
X154100Y-98902D02*
X153667Y-98902D01*
X153873Y-98902D02*
X153873Y-98654D01*
X154100Y-98654D02*
X153667Y-98654D01*
X153667Y-98510D02*
X154100Y-98366D01*
X153667Y-98221D01*
X153935Y-98077D02*
X153935Y-97747D01*
X145234Y-112939D02*
X145254Y-112959D01*
X145275Y-113021D01*
X145275Y-113063D01*
X145254Y-113124D01*
X145213Y-113166D01*
X145172Y-113186D01*
X145089Y-113207D01*
X145027Y-113207D01*
X144945Y-113186D01*
X144904Y-113166D01*
X144862Y-113124D01*
X144842Y-113063D01*
X144842Y-113021D01*
X144862Y-112959D01*
X144883Y-112939D01*
X144842Y-112671D02*
X144842Y-112588D01*
X144862Y-112547D01*
X144904Y-112506D01*
X144986Y-112485D01*
X145130Y-112485D01*
X145213Y-112506D01*
X145254Y-112547D01*
X145275Y-112588D01*
X145275Y-112671D01*
X145254Y-112712D01*
X145213Y-112753D01*
X145130Y-112774D01*
X144986Y-112774D01*
X144904Y-112753D01*
X144862Y-112712D01*
X144842Y-112671D01*
X145275Y-112300D02*
X144842Y-112300D01*
X145275Y-111887D02*
X145275Y-112093D01*
X144842Y-112093D01*
X145110Y-111743D02*
X145110Y-111413D01*
X146034Y-112939D02*
X146054Y-112959D01*
X146075Y-113021D01*
X146075Y-113063D01*
X146054Y-113124D01*
X146013Y-113166D01*
X145972Y-113186D01*
X145889Y-113207D01*
X145827Y-113207D01*
X145745Y-113186D01*
X145704Y-113166D01*
X145662Y-113124D01*
X145642Y-113063D01*
X145642Y-113021D01*
X145662Y-112959D01*
X145683Y-112939D01*
X145642Y-112671D02*
X145642Y-112588D01*
X145662Y-112547D01*
X145704Y-112506D01*
X145786Y-112485D01*
X145930Y-112485D01*
X146013Y-112506D01*
X146054Y-112547D01*
X146075Y-112588D01*
X146075Y-112671D01*
X146054Y-112712D01*
X146013Y-112753D01*
X145930Y-112774D01*
X145786Y-112774D01*
X145704Y-112753D01*
X145662Y-112712D01*
X145642Y-112671D01*
X146075Y-112300D02*
X145642Y-112300D01*
X146075Y-111887D02*
X146075Y-112093D01*
X145642Y-112093D01*
X145910Y-111743D02*
X145910Y-111413D01*
X146075Y-111578D02*
X145745Y-111578D01*
X118782Y-92292D02*
X118927Y-92725D01*
X119071Y-92292D01*
X119463Y-92725D02*
X119319Y-92519D01*
X119215Y-92725D02*
X119215Y-92292D01*
X119380Y-92292D01*
X119422Y-92312D01*
X119442Y-92333D01*
X119463Y-92374D01*
X119463Y-92436D01*
X119442Y-92477D01*
X119422Y-92498D01*
X119380Y-92519D01*
X119215Y-92519D01*
X119875Y-92725D02*
X119628Y-92725D01*
X119752Y-92725D02*
X119752Y-92292D01*
X119710Y-92354D01*
X119669Y-92395D01*
X119628Y-92415D01*
X120982Y-85842D02*
X121127Y-86275D01*
X121271Y-85842D01*
X121663Y-86275D02*
X121519Y-86069D01*
X121415Y-86275D02*
X121415Y-85842D01*
X121580Y-85842D01*
X121622Y-85862D01*
X121642Y-85883D01*
X121663Y-85924D01*
X121663Y-85986D01*
X121642Y-86027D01*
X121622Y-86048D01*
X121580Y-86069D01*
X121415Y-86069D01*
X121828Y-85883D02*
X121849Y-85862D01*
X121890Y-85842D01*
X121993Y-85842D01*
X122034Y-85862D01*
X122055Y-85883D01*
X122075Y-85924D01*
X122075Y-85965D01*
X122055Y-86027D01*
X121807Y-86275D01*
X122075Y-86275D01*
X130797Y-91948D02*
X130859Y-91969D01*
X130879Y-91989D01*
X130900Y-92030D01*
X130900Y-92092D01*
X130879Y-92134D01*
X130859Y-92154D01*
X130817Y-92175D01*
X130652Y-92175D01*
X130652Y-91742D01*
X130797Y-91742D01*
X130838Y-91762D01*
X130859Y-91783D01*
X130879Y-91824D01*
X130879Y-91865D01*
X130859Y-91907D01*
X130838Y-91927D01*
X130797Y-91948D01*
X130652Y-91948D01*
X131065Y-92051D02*
X131271Y-92051D01*
X131024Y-92175D02*
X131168Y-91742D01*
X131312Y-92175D01*
X131395Y-91742D02*
X131642Y-91742D01*
X131519Y-92175D02*
X131519Y-91742D01*
X131725Y-91742D02*
X131972Y-91742D01*
X131849Y-92175D02*
X131849Y-91742D01*
X132117Y-92010D02*
X132447Y-92010D01*
X132282Y-92175D02*
X132282Y-91845D01*
G54D14*
X146646Y-110284D02*
X146622Y-110308D01*
X146551Y-110332D01*
X146503Y-110332D01*
X146432Y-110308D01*
X146384Y-110260D01*
X146360Y-110213D01*
X146337Y-110118D01*
X146337Y-110046D01*
X146360Y-109951D01*
X146384Y-109903D01*
X146432Y-109856D01*
X146503Y-109832D01*
X146551Y-109832D01*
X146622Y-109856D01*
X146646Y-109880D01*
X147075Y-109999D02*
X147075Y-110332D01*
X146956Y-109808D02*
X146837Y-110165D01*
X147146Y-110165D01*
X146656Y-106454D02*
X146632Y-106478D01*
X146561Y-106502D01*
X146513Y-106502D01*
X146442Y-106478D01*
X146394Y-106430D01*
X146370Y-106383D01*
X146347Y-106288D01*
X146347Y-106216D01*
X146370Y-106121D01*
X146394Y-106073D01*
X146442Y-106026D01*
X146513Y-106002D01*
X146561Y-106002D01*
X146632Y-106026D01*
X146656Y-106050D01*
X147109Y-106002D02*
X146870Y-106002D01*
X146847Y-106240D01*
X146870Y-106216D01*
X146918Y-106192D01*
X147037Y-106192D01*
X147085Y-106216D01*
X147109Y-106240D01*
X147132Y-106288D01*
X147132Y-106407D01*
X147109Y-106454D01*
X147085Y-106478D01*
X147037Y-106502D01*
X146918Y-106502D01*
X146870Y-106478D01*
X146847Y-106454D01*
X144930Y-90002D02*
X144930Y-89502D01*
X145050Y-89502D01*
X145121Y-89526D01*
X145169Y-89573D01*
X145192Y-89621D01*
X145216Y-89716D01*
X145216Y-89788D01*
X145192Y-89883D01*
X145169Y-89930D01*
X145121Y-89978D01*
X145050Y-90002D01*
X144930Y-90002D01*
X145669Y-89502D02*
X145430Y-89502D01*
X145407Y-89740D01*
X145430Y-89716D01*
X145478Y-89692D01*
X145597Y-89692D01*
X145645Y-89716D01*
X145669Y-89740D01*
X145692Y-89788D01*
X145692Y-89907D01*
X145669Y-89954D01*
X145645Y-89978D01*
X145597Y-90002D01*
X145478Y-90002D01*
X145430Y-89978D01*
X145407Y-89954D01*
G54D15*
X127120Y-110149D02*
X127439Y-110149D01*
X127476Y-110131D01*
X127495Y-110112D01*
X127514Y-110074D01*
X127514Y-109999D01*
X127495Y-109962D01*
X127476Y-109943D01*
X127439Y-109924D01*
X127120Y-109924D01*
X127120Y-109550D02*
X127120Y-109737D01*
X127308Y-109756D01*
X127289Y-109737D01*
X127270Y-109700D01*
X127270Y-109606D01*
X127289Y-109568D01*
X127308Y-109550D01*
X127345Y-109531D01*
X127439Y-109531D01*
X127476Y-109550D01*
X127495Y-109568D01*
X127514Y-109606D01*
X127514Y-109700D01*
X127495Y-109737D01*
X127476Y-109756D01*
G54D14*
X138542Y-97970D02*
X138947Y-97970D01*
X138994Y-97947D01*
X139018Y-97923D01*
X139042Y-97875D01*
X139042Y-97780D01*
X139018Y-97732D01*
X138994Y-97709D01*
X138947Y-97685D01*
X138542Y-97685D01*
X138542Y-97494D02*
X138542Y-97185D01*
X138732Y-97351D01*
X138732Y-97280D01*
X138756Y-97232D01*
X138780Y-97209D01*
X138828Y-97185D01*
X138947Y-97185D01*
X138994Y-97209D01*
X139018Y-97232D01*
X139042Y-97280D01*
X139042Y-97423D01*
X139018Y-97470D01*
X138994Y-97494D01*
G54D12*
X110796Y-99119D02*
X110931Y-99119D01*
X110863Y-99119D02*
X110863Y-99442D01*
X110886Y-99396D01*
X110908Y-99365D01*
X110931Y-99349D01*
X110706Y-99411D02*
X110694Y-99426D01*
X110672Y-99442D01*
X110616Y-99442D01*
X110593Y-99426D01*
X110582Y-99411D01*
X110571Y-99380D01*
X110571Y-99349D01*
X110582Y-99303D01*
X110717Y-99119D01*
X110571Y-99119D01*
X110503Y-99442D02*
X110425Y-99119D01*
X110346Y-99442D01*
X110936Y-98120D02*
X110936Y-98443D01*
X110846Y-98443D01*
X110824Y-98428D01*
X110813Y-98412D01*
X110801Y-98382D01*
X110801Y-98336D01*
X110813Y-98305D01*
X110824Y-98290D01*
X110846Y-98274D01*
X110936Y-98274D01*
X110588Y-98443D02*
X110700Y-98443D01*
X110711Y-98290D01*
X110700Y-98305D01*
X110678Y-98320D01*
X110621Y-98320D01*
X110599Y-98305D01*
X110588Y-98290D01*
X110576Y-98259D01*
X110576Y-98182D01*
X110588Y-98151D01*
X110599Y-98136D01*
X110621Y-98120D01*
X110678Y-98120D01*
X110700Y-98136D01*
X110711Y-98151D01*
X110363Y-98443D02*
X110475Y-98443D01*
X110486Y-98290D01*
X110475Y-98305D01*
X110453Y-98320D01*
X110396Y-98320D01*
X110374Y-98305D01*
X110363Y-98290D01*
X110351Y-98259D01*
X110351Y-98182D01*
X110363Y-98151D01*
X110374Y-98136D01*
X110396Y-98120D01*
X110453Y-98120D01*
X110475Y-98136D01*
X110486Y-98151D01*
X110936Y-97122D02*
X110936Y-97445D01*
X110846Y-97445D01*
X110824Y-97429D01*
X110813Y-97414D01*
X110801Y-97383D01*
X110801Y-97337D01*
X110813Y-97306D01*
X110824Y-97291D01*
X110846Y-97276D01*
X110936Y-97276D01*
X110588Y-97445D02*
X110700Y-97445D01*
X110711Y-97291D01*
X110700Y-97306D01*
X110678Y-97322D01*
X110621Y-97322D01*
X110599Y-97306D01*
X110588Y-97291D01*
X110576Y-97260D01*
X110576Y-97183D01*
X110588Y-97153D01*
X110599Y-97137D01*
X110621Y-97122D01*
X110678Y-97122D01*
X110700Y-97137D01*
X110711Y-97153D01*
X110351Y-97122D02*
X110486Y-97122D01*
X110419Y-97122D02*
X110419Y-97445D01*
X110441Y-97399D01*
X110464Y-97368D01*
X110486Y-97353D01*
X110936Y-96124D02*
X110936Y-96446D01*
X110846Y-96446D01*
X110824Y-96431D01*
X110813Y-96416D01*
X110801Y-96385D01*
X110801Y-96339D01*
X110813Y-96308D01*
X110824Y-96293D01*
X110846Y-96277D01*
X110936Y-96277D01*
X110588Y-96446D02*
X110700Y-96446D01*
X110711Y-96293D01*
X110700Y-96308D01*
X110678Y-96323D01*
X110621Y-96323D01*
X110599Y-96308D01*
X110588Y-96293D01*
X110576Y-96262D01*
X110576Y-96185D01*
X110588Y-96154D01*
X110599Y-96139D01*
X110621Y-96124D01*
X110678Y-96124D01*
X110700Y-96139D01*
X110711Y-96154D01*
X110430Y-96446D02*
X110408Y-96446D01*
X110385Y-96431D01*
X110374Y-96416D01*
X110363Y-96385D01*
X110351Y-96323D01*
X110351Y-96247D01*
X110363Y-96185D01*
X110374Y-96154D01*
X110385Y-96139D01*
X110408Y-96124D01*
X110430Y-96124D01*
X110453Y-96139D01*
X110464Y-96154D01*
X110475Y-96185D01*
X110486Y-96247D01*
X110486Y-96323D01*
X110475Y-96385D01*
X110464Y-96416D01*
X110453Y-96431D01*
X110430Y-96446D01*
X110936Y-95125D02*
X110936Y-95448D01*
X110846Y-95448D01*
X110824Y-95433D01*
X110813Y-95417D01*
X110801Y-95386D01*
X110801Y-95340D01*
X110813Y-95310D01*
X110824Y-95294D01*
X110846Y-95279D01*
X110936Y-95279D01*
X110599Y-95340D02*
X110599Y-95125D01*
X110655Y-95463D02*
X110711Y-95233D01*
X110565Y-95233D01*
X110441Y-95310D02*
X110464Y-95325D01*
X110475Y-95340D01*
X110486Y-95371D01*
X110486Y-95386D01*
X110475Y-95417D01*
X110464Y-95433D01*
X110441Y-95448D01*
X110396Y-95448D01*
X110374Y-95433D01*
X110363Y-95417D01*
X110351Y-95386D01*
X110351Y-95371D01*
X110363Y-95340D01*
X110374Y-95325D01*
X110396Y-95310D01*
X110441Y-95310D01*
X110464Y-95294D01*
X110475Y-95279D01*
X110486Y-95248D01*
X110486Y-95187D01*
X110475Y-95156D01*
X110464Y-95141D01*
X110441Y-95125D01*
X110396Y-95125D01*
X110374Y-95141D01*
X110363Y-95156D01*
X110351Y-95187D01*
X110351Y-95248D01*
X110363Y-95279D01*
X110374Y-95294D01*
X110396Y-95310D01*
X110829Y-94434D02*
X110852Y-94450D01*
X110886Y-94450D01*
X110919Y-94434D01*
X110942Y-94403D01*
X110953Y-94373D01*
X110964Y-94311D01*
X110964Y-94265D01*
X110953Y-94204D01*
X110942Y-94173D01*
X110919Y-94142D01*
X110886Y-94127D01*
X110863Y-94127D01*
X110829Y-94142D01*
X110818Y-94157D01*
X110818Y-94265D01*
X110863Y-94265D01*
X110717Y-94127D02*
X110717Y-94450D01*
X110582Y-94127D01*
X110582Y-94450D01*
X110470Y-94127D02*
X110470Y-94450D01*
X110413Y-94450D01*
X110380Y-94434D01*
X110357Y-94403D01*
X110346Y-94373D01*
X110335Y-94311D01*
X110335Y-94265D01*
X110346Y-94204D01*
X110357Y-94173D01*
X110380Y-94142D01*
X110413Y-94127D01*
X110470Y-94127D01*
G54D16*
X126100Y-100400D02*
X129000Y-100400D01*
X129000Y-100400D02*
X129000Y-100800D01*
X129000Y-100800D02*
X129000Y-102050D01*
X129000Y-102050D02*
X129000Y-102200D01*
X129000Y-102200D02*
X126200Y-102200D01*
X125550Y-102200D02*
X126200Y-102200D01*
G54D17*
X126100Y-102200D02*
X119200Y-102200D01*
X119200Y-100400D02*
X126100Y-100400D01*
G54D18*
X119200Y-102200D02*
X119200Y-100400D01*
X138140Y-106480D02*
X138540Y-106480D01*
X138540Y-106480D02*
X138540Y-106080D01*
X138540Y-106080D02*
X141740Y-106080D01*
X141740Y-106080D02*
X141740Y-106880D01*
X141740Y-106880D02*
X138540Y-106880D01*
X138540Y-106880D02*
X138540Y-106480D01*
X138540Y-106280D02*
X138740Y-106080D01*
X142140Y-106480D02*
X141740Y-106480D01*
X130550Y-106750D02*
X130550Y-107150D01*
X130550Y-107150D02*
X130950Y-107150D01*
X130950Y-107150D02*
X130950Y-110350D01*
X130950Y-110350D02*
X130150Y-110350D01*
X130150Y-110350D02*
X130150Y-107150D01*
X130150Y-107150D02*
X130550Y-107150D01*
X130750Y-107150D02*
X130950Y-107350D01*
X130550Y-110750D02*
X130550Y-110350D01*
X136100Y-110970D02*
X136100Y-110570D01*
X136100Y-110570D02*
X135700Y-110570D01*
X135700Y-110570D02*
X135700Y-107370D01*
X135700Y-107370D02*
X136500Y-107370D01*
X136500Y-107370D02*
X136500Y-110570D01*
X136500Y-110570D02*
X136100Y-110570D01*
X135900Y-110570D02*
X135700Y-110370D01*
X136100Y-106970D02*
X136100Y-107370D01*
X137040Y-106975D02*
X137040Y-107375D01*
X137040Y-107375D02*
X137440Y-107375D01*
X137440Y-107375D02*
X137440Y-110575D01*
X137440Y-110575D02*
X136640Y-110575D01*
X136640Y-110575D02*
X136640Y-107375D01*
X136640Y-107375D02*
X137040Y-107375D01*
X137240Y-107375D02*
X137440Y-107575D01*
X137040Y-110975D02*
X137040Y-110575D01*
X138020Y-110960D02*
X138420Y-110960D01*
X138420Y-110960D02*
X138420Y-110560D01*
X138420Y-110560D02*
X141620Y-110560D01*
X141620Y-110560D02*
X141620Y-111360D01*
X141620Y-111360D02*
X138420Y-111360D01*
X138420Y-111360D02*
X138420Y-110960D01*
X138420Y-110760D02*
X138620Y-110560D01*
X142020Y-110960D02*
X141620Y-110960D01*
X142120Y-105320D02*
X141720Y-105320D01*
X141720Y-105320D02*
X141720Y-105720D01*
X141720Y-105720D02*
X138520Y-105720D01*
X138520Y-105720D02*
X138520Y-104920D01*
X138520Y-104920D02*
X141720Y-104920D01*
X141720Y-104920D02*
X141720Y-105320D01*
X141720Y-105520D02*
X141520Y-105720D01*
X138120Y-105320D02*
X138520Y-105320D01*
G54D19*
X118750Y-110750D02*
X118750Y-110800D01*
X118750Y-110800D02*
X120850Y-110800D01*
X120850Y-109300D02*
X118750Y-109300D01*
X118750Y-109300D02*
X118750Y-110750D01*
X118750Y-109850D02*
X118950Y-109850D01*
X118950Y-109850D02*
X118950Y-110250D01*
X118950Y-110250D02*
X118750Y-110250D01*
X120850Y-109300D02*
X120850Y-110800D01*
G54D20*
X134150Y-106950D02*
X134150Y-110450D01*
X134150Y-110450D02*
X132150Y-110450D01*
X132150Y-110450D02*
X132150Y-106950D01*
X132150Y-106950D02*
X134150Y-106950D01*
X133400Y-106950D02*
X133400Y-107450D01*
X133400Y-107450D02*
X132900Y-107450D01*
X132900Y-107450D02*
X132900Y-106950D01*
G54D18*
X139520Y-104030D02*
X137520Y-104030D01*
X139520Y-103030D02*
X137520Y-103030D01*
X139520Y-102030D02*
X137520Y-102030D01*
X137520Y-101030D02*
X131520Y-101030D01*
X131520Y-101030D02*
X131520Y-105030D01*
X131520Y-105030D02*
X137520Y-105030D01*
X137520Y-105030D02*
X137520Y-101030D01*
X134520Y-101530D02*
X134520Y-105030D01*
X134520Y-101530D02*
X134520Y-101030D01*
X142280Y-109180D02*
X139480Y-109180D01*
X139480Y-109180D02*
X139480Y-108380D01*
X139480Y-108380D02*
X142280Y-108380D01*
X142280Y-108380D02*
X142280Y-109180D01*
X142280Y-108980D02*
X142080Y-109180D01*
X142280Y-110140D02*
X139480Y-110140D01*
X139480Y-110140D02*
X139480Y-109340D01*
X139480Y-109340D02*
X142280Y-109340D01*
X142280Y-109340D02*
X142280Y-110140D01*
X142280Y-109940D02*
X142080Y-110140D01*
X142280Y-108040D02*
X139480Y-108040D01*
X139480Y-108040D02*
X139480Y-107240D01*
X139480Y-107240D02*
X142280Y-107240D01*
X142280Y-107240D02*
X142280Y-108040D01*
X142280Y-107840D02*
X142080Y-108040D01*
G54D21*
X127790Y-112570D02*
G75*
G03X127790Y-112570I-70J0D01*
G74*
G01*
G54D19*
X127820Y-111620D02*
X127720Y-111620D01*
X127720Y-111620D02*
X127720Y-112520D01*
X127720Y-112520D02*
X127820Y-112520D01*
X127820Y-111620D02*
X127820Y-112520D01*
X127820Y-112520D02*
X128470Y-112520D01*
X129170Y-111620D02*
X129820Y-111620D01*
X129820Y-111620D02*
X129820Y-112520D01*
X129820Y-112520D02*
X129170Y-112520D01*
X128470Y-111620D02*
X127820Y-111620D01*
G54D21*
X127820Y-110500D02*
G75*
G03X127820Y-110500I-70J0D01*
G74*
G01*
G54D19*
X127850Y-109550D02*
X127750Y-109550D01*
X127750Y-109550D02*
X127750Y-110450D01*
X127750Y-110450D02*
X127850Y-110450D01*
X127850Y-109550D02*
X127850Y-110450D01*
X127850Y-110450D02*
X128500Y-110450D01*
X129200Y-109550D02*
X129850Y-109550D01*
X129850Y-109550D02*
X129850Y-110450D01*
X129850Y-110450D02*
X129200Y-110450D01*
X128500Y-109550D02*
X127850Y-109550D01*
G54D22*
X125100Y-111124D02*
X125179Y-111124D01*
X125179Y-111124D02*
X125179Y-110731D01*
X125100Y-110731D02*
X125179Y-110731D01*
X125100Y-111124D02*
X125100Y-110731D01*
X125356Y-111124D02*
X125435Y-111124D01*
X125435Y-111124D02*
X125435Y-110731D01*
X125356Y-110731D02*
X125435Y-110731D01*
X125356Y-111124D02*
X125356Y-110731D01*
X125612Y-111124D02*
X125691Y-111124D01*
X125691Y-111124D02*
X125691Y-110731D01*
X125612Y-110731D02*
X125691Y-110731D01*
X125612Y-111124D02*
X125612Y-110731D01*
X125868Y-111124D02*
X125947Y-111124D01*
X125947Y-111124D02*
X125947Y-110731D01*
X125868Y-110731D02*
X125947Y-110731D01*
X125868Y-111124D02*
X125868Y-110731D01*
X126123Y-111124D02*
X126202Y-111124D01*
X126202Y-111124D02*
X126202Y-110731D01*
X126123Y-110731D02*
X126202Y-110731D01*
X126123Y-111124D02*
X126123Y-110731D01*
X126379Y-111124D02*
X126458Y-111124D01*
X126458Y-111124D02*
X126458Y-110731D01*
X126379Y-110731D02*
X126458Y-110731D01*
X126379Y-111124D02*
X126379Y-110731D01*
X126635Y-111124D02*
X126714Y-111124D01*
X126714Y-111124D02*
X126714Y-110731D01*
X126635Y-110731D02*
X126714Y-110731D01*
X126635Y-111124D02*
X126635Y-110731D01*
X126891Y-111124D02*
X126970Y-111124D01*
X126970Y-111124D02*
X126970Y-110731D01*
X126891Y-110731D02*
X126970Y-110731D01*
X126891Y-111124D02*
X126891Y-110731D01*
X126891Y-108999D02*
X126970Y-108999D01*
X126970Y-108999D02*
X126970Y-108606D01*
X126891Y-108606D02*
X126970Y-108606D01*
X126891Y-108999D02*
X126891Y-108606D01*
X126635Y-108999D02*
X126714Y-108999D01*
X126714Y-108999D02*
X126714Y-108606D01*
X126635Y-108606D02*
X126714Y-108606D01*
X126635Y-108999D02*
X126635Y-108606D01*
X126379Y-108999D02*
X126458Y-108999D01*
X126458Y-108999D02*
X126458Y-108606D01*
X126379Y-108606D02*
X126458Y-108606D01*
X126379Y-108999D02*
X126379Y-108606D01*
X126123Y-108999D02*
X126202Y-108999D01*
X126202Y-108999D02*
X126202Y-108606D01*
X126123Y-108606D02*
X126202Y-108606D01*
X126123Y-108999D02*
X126123Y-108606D01*
X125868Y-108999D02*
X125947Y-108999D01*
X125947Y-108999D02*
X125947Y-108606D01*
X125868Y-108606D02*
X125947Y-108606D01*
X125868Y-108999D02*
X125868Y-108606D01*
X125612Y-108999D02*
X125691Y-108999D01*
X125691Y-108999D02*
X125691Y-108606D01*
X125612Y-108606D02*
X125691Y-108606D01*
X125612Y-108999D02*
X125612Y-108606D01*
X125356Y-108999D02*
X125435Y-108999D01*
X125435Y-108999D02*
X125435Y-108606D01*
X125356Y-108606D02*
X125435Y-108606D01*
X125356Y-108999D02*
X125356Y-108606D01*
X125100Y-108999D02*
X125179Y-108999D01*
X125179Y-108999D02*
X125179Y-108606D01*
X125100Y-108606D02*
X125179Y-108606D01*
X125100Y-108999D02*
X125100Y-108606D01*
G54D23*
X125045Y-110625D02*
X125045Y-109105D01*
X125124Y-109026D02*
X126946Y-109026D01*
X127025Y-109105D02*
X127025Y-110625D01*
X126946Y-110704D02*
X125124Y-110704D01*
G54D24*
X125522Y-110345D02*
G75*
G03X125522Y-110345I-127J0D01*
G74*
G01*
G54D23*
X125045Y-110625D02*
G75*
G03X125124Y-110704I79J0D01*
G74*
G01*
X125124Y-109026D02*
G75*
G03X125045Y-109105I0J-79D01*
G74*
G01*
X127025Y-109105D02*
G75*
G03X126946Y-109026I-79J0D01*
G74*
G01*
X126946Y-110704D02*
G75*
G03X127025Y-110625I0J79D01*
G74*
G01*
G54D25*
X127076Y-112662D02*
X125524Y-112662D01*
X125524Y-112662D02*
X125524Y-111888D01*
X125524Y-111888D02*
X127076Y-111888D01*
X127076Y-111888D02*
X127076Y-112662D01*
X128213Y-108376D02*
X128213Y-106824D01*
X128213Y-106824D02*
X128987Y-106824D01*
X128987Y-106824D02*
X128987Y-108376D01*
X128987Y-108376D02*
X128213Y-108376D01*
X124737Y-109999D02*
X124737Y-111551D01*
X124737Y-111551D02*
X123963Y-111551D01*
X123963Y-111551D02*
X123963Y-109999D01*
X123963Y-109999D02*
X124737Y-109999D01*
X127313Y-108126D02*
X127313Y-106574D01*
X127313Y-106574D02*
X128087Y-106574D01*
X128087Y-106574D02*
X128087Y-108126D01*
X128087Y-108126D02*
X127313Y-108126D01*
X126513Y-107876D02*
X126513Y-106324D01*
X126513Y-106324D02*
X127287Y-106324D01*
X127287Y-106324D02*
X127287Y-107876D01*
X127287Y-107876D02*
X126513Y-107876D01*
G54D26*
X126211Y-95600D02*
G75*
G03X126211Y-95600I-111J0D01*
G74*
G01*
X126850Y-95400D02*
X126850Y-95600D01*
X126850Y-95600D02*
X126350Y-95600D01*
X126350Y-95600D02*
X126350Y-95400D01*
X127500Y-98000D02*
X127500Y-98100D01*
X127500Y-98100D02*
X125700Y-98100D01*
X125700Y-98100D02*
X125700Y-98000D01*
X127500Y-95500D02*
X127500Y-95400D01*
X127500Y-95400D02*
X125700Y-95400D01*
X125700Y-95400D02*
X125700Y-95500D01*
G54D21*
X120270Y-94600D02*
G75*
G03X120270Y-94600I-70J0D01*
G74*
G01*
G54D19*
X120300Y-93650D02*
X120200Y-93650D01*
X120200Y-93650D02*
X120200Y-94550D01*
X120200Y-94550D02*
X120300Y-94550D01*
X120300Y-93650D02*
X120300Y-94550D01*
X120300Y-94550D02*
X120950Y-94550D01*
X121650Y-93650D02*
X122300Y-93650D01*
X122300Y-93650D02*
X122300Y-94550D01*
X122300Y-94550D02*
X121650Y-94550D01*
X120950Y-93650D02*
X120300Y-93650D01*
G54D21*
X122470Y-92600D02*
G75*
G03X122470Y-92600I-70J0D01*
G74*
G01*
G54D19*
X123350Y-92700D02*
X123350Y-92600D01*
X123350Y-92600D02*
X122450Y-92600D01*
X122450Y-92600D02*
X122450Y-92700D01*
X123350Y-92700D02*
X122450Y-92700D01*
X122450Y-92700D02*
X122450Y-93350D01*
X123350Y-94050D02*
X123350Y-94700D01*
X123350Y-94700D02*
X122450Y-94700D01*
X122450Y-94700D02*
X122450Y-94050D01*
X123350Y-93350D02*
X123350Y-92700D01*
G54D21*
X122470Y-89950D02*
G75*
G03X122470Y-89950I-70J0D01*
G74*
G01*
G54D19*
X123350Y-90050D02*
X123350Y-89950D01*
X123350Y-89950D02*
X122450Y-89950D01*
X122450Y-89950D02*
X122450Y-90050D01*
X123350Y-90050D02*
X122450Y-90050D01*
X122450Y-90050D02*
X122450Y-90700D01*
X123350Y-91400D02*
X123350Y-92050D01*
X123350Y-92050D02*
X122450Y-92050D01*
X122450Y-92050D02*
X122450Y-91400D01*
X123350Y-90700D02*
X123350Y-90050D01*
G54D21*
X120270Y-93300D02*
G75*
G03X120270Y-93300I-70J0D01*
G74*
G01*
G54D19*
X120300Y-92350D02*
X120200Y-92350D01*
X120200Y-92350D02*
X120200Y-93250D01*
X120200Y-93250D02*
X120300Y-93250D01*
X120300Y-92350D02*
X120300Y-93250D01*
X120300Y-93250D02*
X120950Y-93250D01*
X121650Y-92350D02*
X122300Y-92350D01*
X122300Y-92350D02*
X122300Y-93250D01*
X122300Y-93250D02*
X121650Y-93250D01*
X120950Y-92350D02*
X120300Y-92350D01*
G54D21*
X121220Y-89950D02*
G75*
G03X121220Y-89950I-70J0D01*
G74*
G01*
G54D19*
X122100Y-90050D02*
X122100Y-89950D01*
X122100Y-89950D02*
X121200Y-89950D01*
X121200Y-89950D02*
X121200Y-90050D01*
X122100Y-90050D02*
X121200Y-90050D01*
X121200Y-90050D02*
X121200Y-90700D01*
X122100Y-91400D02*
X122100Y-92050D01*
X122100Y-92050D02*
X121200Y-92050D01*
X121200Y-92050D02*
X121200Y-91400D01*
X122100Y-90700D02*
X122100Y-90050D01*
G54D27*
X125905Y-91406D02*
G75*
G03X125905Y-91406I-50J0D01*
G74*
G01*
X125855Y-90956D02*
X125855Y-91356D01*
X125855Y-91356D02*
X125255Y-91356D01*
X125255Y-91356D02*
X125255Y-90956D01*
X125255Y-90556D02*
X125255Y-90156D01*
X125255Y-90156D02*
X125855Y-90156D01*
X125855Y-90156D02*
X125855Y-90556D01*
X128015Y-92476D02*
G75*
G03X128015Y-92476I-50J0D01*
G74*
G01*
X127965Y-92026D02*
X127965Y-92426D01*
X127965Y-92426D02*
X127365Y-92426D01*
X127365Y-92426D02*
X127365Y-92026D01*
X127365Y-91626D02*
X127365Y-91226D01*
X127365Y-91226D02*
X127965Y-91226D01*
X127965Y-91226D02*
X127965Y-91626D01*
X123580Y-90721D02*
G75*
G03X123580Y-90721I-50J0D01*
G74*
G01*
X123530Y-91171D02*
X123530Y-90771D01*
X123530Y-90771D02*
X124130Y-90771D01*
X124130Y-90771D02*
X124130Y-91171D01*
X124130Y-91571D02*
X124130Y-91971D01*
X124130Y-91971D02*
X123530Y-91971D01*
X123530Y-91971D02*
X123530Y-91571D01*
X126260Y-90121D02*
G75*
G03X126260Y-90121I-50J0D01*
G74*
G01*
X126210Y-90571D02*
X126210Y-90171D01*
X126210Y-90171D02*
X126810Y-90171D01*
X126810Y-90171D02*
X126810Y-90571D01*
X126810Y-90971D02*
X126810Y-91371D01*
X126810Y-91371D02*
X126210Y-91371D01*
X126210Y-91371D02*
X126210Y-90971D01*
X123550Y-92950D02*
G75*
G03X123550Y-92950I-50J0D01*
G74*
G01*
X123500Y-93400D02*
X123500Y-93000D01*
X123500Y-93000D02*
X124100Y-93000D01*
X124100Y-93000D02*
X124100Y-93400D01*
X124100Y-93800D02*
X124100Y-94200D01*
X124100Y-94200D02*
X123500Y-94200D01*
X123500Y-94200D02*
X123500Y-93800D01*
X128020Y-93911D02*
G75*
G03X128020Y-93911I-50J0D01*
G74*
G01*
X127970Y-93461D02*
X127970Y-93861D01*
X127970Y-93861D02*
X127370Y-93861D01*
X127370Y-93861D02*
X127370Y-93461D01*
X127370Y-93061D02*
X127370Y-92661D01*
X127370Y-92661D02*
X127970Y-92661D01*
X127970Y-92661D02*
X127970Y-93061D01*
G54D28*
X139684Y-108660D02*
G75*
G03X139684Y-108660I-984J0D01*
G74*
G01*
G54D22*
X126975Y-93570D02*
X126975Y-93451D01*
X126975Y-93451D02*
X126463Y-93451D01*
X126463Y-93570D02*
X126463Y-93451D01*
X126975Y-93570D02*
X126463Y-93570D01*
X126975Y-93320D02*
X126975Y-93201D01*
X126975Y-93201D02*
X126463Y-93201D01*
X126463Y-93320D02*
X126463Y-93201D01*
X126975Y-93320D02*
X126463Y-93320D01*
X126975Y-93070D02*
X126975Y-92951D01*
X126975Y-92951D02*
X126463Y-92951D01*
X126463Y-93070D02*
X126463Y-92951D01*
X126975Y-93070D02*
X126463Y-93070D01*
X126975Y-92820D02*
X126975Y-92701D01*
X126975Y-92701D02*
X126463Y-92701D01*
X126463Y-92820D02*
X126463Y-92701D01*
X126975Y-92820D02*
X126463Y-92820D01*
X126975Y-92571D02*
X126975Y-92452D01*
X126975Y-92452D02*
X126463Y-92452D01*
X126463Y-92571D02*
X126463Y-92452D01*
X126975Y-92571D02*
X126463Y-92571D01*
X126975Y-92321D02*
X126975Y-92202D01*
X126975Y-92202D02*
X126463Y-92202D01*
X126463Y-92321D02*
X126463Y-92202D01*
X126975Y-92321D02*
X126463Y-92321D01*
X126975Y-92071D02*
X126975Y-91952D01*
X126975Y-91952D02*
X126463Y-91952D01*
X126463Y-92071D02*
X126463Y-91952D01*
X126975Y-92071D02*
X126463Y-92071D01*
X126975Y-91821D02*
X126975Y-91702D01*
X126975Y-91702D02*
X126463Y-91702D01*
X126463Y-91821D02*
X126463Y-91702D01*
X126975Y-91821D02*
X126463Y-91821D01*
X125047Y-91821D02*
X125047Y-91702D01*
X125047Y-91702D02*
X124535Y-91702D01*
X124535Y-91821D02*
X124535Y-91702D01*
X125047Y-91821D02*
X124535Y-91821D01*
X125047Y-92071D02*
X125047Y-91952D01*
X125047Y-91952D02*
X124535Y-91952D01*
X124535Y-92071D02*
X124535Y-91952D01*
X125047Y-92071D02*
X124535Y-92071D01*
X125047Y-92321D02*
X125047Y-92202D01*
X125047Y-92202D02*
X124535Y-92202D01*
X124535Y-92321D02*
X124535Y-92202D01*
X125047Y-92321D02*
X124535Y-92321D01*
X125047Y-92571D02*
X125047Y-92452D01*
X125047Y-92452D02*
X124535Y-92452D01*
X124535Y-92571D02*
X124535Y-92452D01*
X125047Y-92571D02*
X124535Y-92571D01*
X125047Y-92820D02*
X125047Y-92701D01*
X125047Y-92701D02*
X124535Y-92701D01*
X124535Y-92820D02*
X124535Y-92701D01*
X125047Y-92820D02*
X124535Y-92820D01*
X125047Y-93070D02*
X125047Y-92951D01*
X125047Y-92951D02*
X124535Y-92951D01*
X124535Y-93070D02*
X124535Y-92951D01*
X125047Y-93070D02*
X124535Y-93070D01*
X125047Y-93320D02*
X125047Y-93201D01*
X125047Y-93201D02*
X124535Y-93201D01*
X124535Y-93320D02*
X124535Y-93201D01*
X125047Y-93320D02*
X124535Y-93320D01*
X125047Y-93570D02*
X125047Y-93451D01*
X125047Y-93451D02*
X124535Y-93451D01*
X124535Y-93570D02*
X124535Y-93451D01*
X125047Y-93570D02*
X124535Y-93570D01*
G54D21*
X126483Y-93608D02*
X125027Y-93608D01*
X125027Y-91664D02*
X126483Y-91664D01*
X126483Y-93608D02*
X126483Y-91664D01*
X125027Y-91664D02*
X125027Y-93608D01*
G54D29*
X126251Y-93285D02*
G75*
G03X126251Y-93285I-83J0D01*
G74*
G01*
G54D21*
X122920Y-87500D02*
G75*
G03X122920Y-87500I-70J0D01*
G74*
G01*
G54D19*
X123800Y-87600D02*
X123800Y-87500D01*
X123800Y-87500D02*
X122900Y-87500D01*
X122900Y-87500D02*
X122900Y-87600D01*
X123800Y-87600D02*
X122900Y-87600D01*
X122900Y-87600D02*
X122900Y-88250D01*
X123800Y-88950D02*
X123800Y-89600D01*
X123800Y-89600D02*
X122900Y-89600D01*
X122900Y-89600D02*
X122900Y-88950D01*
X123800Y-88250D02*
X123800Y-87600D01*
G54D30*
X139520Y-112540D02*
X139345Y-112540D01*
X139520Y-111540D02*
X139695Y-111540D01*
G54D28*
X139520Y-112040D02*
X140520Y-111540D01*
X140520Y-111540D02*
X140520Y-112040D01*
X140520Y-112540D02*
X139520Y-112040D01*
X139520Y-111540D02*
X139520Y-112040D01*
X138620Y-112040D02*
X139520Y-112040D01*
X139520Y-112040D02*
X139520Y-112540D01*
X140520Y-112040D02*
X141420Y-112040D01*
X140520Y-112040D02*
X140520Y-112540D01*
G54D31*
X142910Y-107490D02*
X142910Y-103840D01*
X142910Y-103840D02*
X149460Y-103840D01*
X149460Y-103840D02*
X149460Y-107290D01*
X149460Y-107290D02*
X149460Y-107340D01*
X149460Y-107340D02*
X149460Y-107390D01*
X149460Y-107390D02*
X149460Y-107490D01*
X149460Y-107490D02*
X142910Y-107490D01*
G54D23*
X145710Y-105690D02*
X147260Y-105690D01*
X145160Y-105690D02*
X145360Y-105690D01*
G54D32*
X145360Y-105190D02*
X145360Y-105690D01*
X145360Y-105690D02*
X145360Y-106190D01*
X145710Y-105190D02*
X145710Y-105690D01*
X145710Y-105690D02*
X145710Y-106190D01*
G54D31*
X142910Y-111320D02*
X142910Y-107670D01*
X142910Y-107670D02*
X149460Y-107670D01*
X149460Y-107670D02*
X149460Y-111120D01*
X149460Y-111120D02*
X149460Y-111170D01*
X149460Y-111170D02*
X149460Y-111220D01*
X149460Y-111220D02*
X149460Y-111320D01*
X149460Y-111320D02*
X142910Y-111320D01*
G54D23*
X145710Y-109520D02*
X147260Y-109520D01*
X145160Y-109520D02*
X145360Y-109520D01*
G54D32*
X145360Y-109020D02*
X145360Y-109520D01*
X145360Y-109520D02*
X145360Y-110020D01*
X145710Y-109020D02*
X145710Y-109520D01*
X145710Y-109520D02*
X145710Y-110020D01*
G54D33*
X142787Y-93955D02*
X141133Y-93955D01*
X142787Y-93837D02*
X141133Y-93837D01*
X142787Y-97223D02*
X141133Y-97223D01*
X141131Y-96316D02*
X141131Y-97216D01*
X142789Y-97216D02*
X142789Y-96316D01*
X142789Y-94743D02*
X142789Y-93843D01*
X141131Y-93844D02*
X141131Y-94744D01*
X141075Y-98493D02*
X141075Y-100147D01*
X140957Y-98493D02*
X140957Y-100147D01*
X144343Y-98493D02*
X144343Y-100147D01*
X143436Y-100149D02*
X144336Y-100149D01*
X144336Y-98491D02*
X143436Y-98491D01*
X141863Y-98491D02*
X140963Y-98491D01*
X140964Y-100149D02*
X141864Y-100149D01*
G54D27*
X136880Y-99100D02*
G75*
G03X136880Y-99100I-50J0D01*
G74*
G01*
X136830Y-99550D02*
X136830Y-99150D01*
X136830Y-99150D02*
X137430Y-99150D01*
X137430Y-99150D02*
X137430Y-99550D01*
X137430Y-99950D02*
X137430Y-100350D01*
X137430Y-100350D02*
X136830Y-100350D01*
X136830Y-100350D02*
X136830Y-99950D01*
X141115Y-98305D02*
G75*
G03X141115Y-98305I-50J0D01*
G74*
G01*
X141515Y-98305D02*
X141115Y-98305D01*
X141115Y-98305D02*
X141115Y-97705D01*
X141115Y-97705D02*
X141515Y-97705D01*
X141915Y-97705D02*
X142315Y-97705D01*
X142315Y-97705D02*
X142315Y-98305D01*
X142315Y-98305D02*
X141915Y-98305D01*
X136010Y-97105D02*
G75*
G03X136010Y-97105I-50J0D01*
G74*
G01*
X135960Y-97555D02*
X135960Y-97155D01*
X135960Y-97155D02*
X136560Y-97155D01*
X136560Y-97155D02*
X136560Y-97555D01*
X136560Y-97955D02*
X136560Y-98355D01*
X136560Y-98355D02*
X135960Y-98355D01*
X135960Y-98355D02*
X135960Y-97955D01*
G54D20*
X136720Y-94850D02*
X136720Y-94600D01*
X136720Y-94600D02*
X140720Y-94600D01*
X140720Y-94600D02*
X140720Y-94850D01*
X136720Y-96350D02*
X136720Y-94850D01*
X136720Y-94850D02*
X140720Y-94850D01*
X140720Y-94850D02*
X140720Y-96350D01*
X140720Y-96350D02*
X136720Y-96350D01*
G54D22*
X137510Y-96714D02*
X137510Y-96907D01*
X137510Y-96907D02*
X137943Y-96907D01*
X137943Y-96714D02*
X137943Y-96907D01*
X137510Y-96714D02*
X137943Y-96714D01*
X137510Y-97214D02*
X137510Y-97407D01*
X137510Y-97407D02*
X137943Y-97407D01*
X137943Y-97214D02*
X137943Y-97407D01*
X137510Y-97214D02*
X137943Y-97214D01*
X137510Y-97713D02*
X137510Y-97906D01*
X137510Y-97906D02*
X137943Y-97906D01*
X137943Y-97713D02*
X137943Y-97906D01*
X137510Y-97713D02*
X137943Y-97713D01*
X137510Y-98213D02*
X137510Y-98406D01*
X137510Y-98406D02*
X137943Y-98406D01*
X137943Y-98213D02*
X137943Y-98406D01*
X137510Y-98213D02*
X137943Y-98213D01*
X139517Y-98213D02*
X139517Y-98406D01*
X139517Y-98406D02*
X139950Y-98406D01*
X139950Y-98213D02*
X139950Y-98406D01*
X139517Y-98213D02*
X139950Y-98213D01*
X139517Y-97713D02*
X139517Y-97906D01*
X139517Y-97906D02*
X139950Y-97906D01*
X139950Y-97713D02*
X139950Y-97906D01*
X139517Y-97713D02*
X139950Y-97713D01*
X139517Y-97214D02*
X139517Y-97407D01*
X139517Y-97407D02*
X139950Y-97407D01*
X139950Y-97214D02*
X139950Y-97407D01*
X139517Y-97214D02*
X139950Y-97214D01*
X139517Y-96714D02*
X139517Y-96907D01*
X139517Y-96907D02*
X139950Y-96907D01*
X139950Y-96714D02*
X139950Y-96907D01*
X139517Y-96714D02*
X139950Y-96714D01*
G54D21*
X139478Y-98504D02*
X138179Y-98504D01*
X138179Y-98504D02*
X137982Y-98504D01*
X137982Y-98504D02*
X137982Y-96616D01*
X137982Y-96616D02*
X138179Y-96616D01*
X138179Y-96616D02*
X139478Y-96616D01*
X139478Y-96616D02*
X139478Y-98504D01*
X138179Y-98504D02*
X138179Y-96616D01*
G54D19*
X134475Y-98165D02*
X135725Y-98165D01*
X134475Y-100190D02*
X135725Y-100190D01*
X135725Y-100190D02*
X135725Y-97790D01*
X135725Y-97790D02*
X134475Y-97790D01*
X134475Y-97790D02*
X134475Y-100190D01*
G54D12*
X143364Y-92813D02*
X143364Y-95213D01*
X143564Y-92813D02*
X145764Y-92813D01*
X145764Y-92813D02*
X145764Y-95213D01*
X145764Y-95213D02*
X143364Y-95213D01*
X143364Y-92813D02*
X143564Y-92813D01*
G54D31*
X145764Y-94638D02*
X145764Y-93388D01*
G54D12*
X137975Y-98870D02*
X140175Y-98870D01*
X140175Y-98870D02*
X140175Y-100870D01*
X140175Y-100870D02*
X137975Y-100870D01*
X137975Y-100870D02*
X137975Y-98870D01*
G54D27*
X128214Y-91176D02*
G75*
G03X128214Y-91176I-50J0D01*
G74*
G01*
X128164Y-91626D02*
X128164Y-91226D01*
X128164Y-91226D02*
X128764Y-91226D01*
X128764Y-91226D02*
X128764Y-91626D01*
X128764Y-92026D02*
X128764Y-92426D01*
X128764Y-92426D02*
X128164Y-92426D01*
X128164Y-92426D02*
X128164Y-92026D01*
X128808Y-93900D02*
G75*
G03X128808Y-93900I-50J0D01*
G74*
G01*
X128758Y-93450D02*
X128758Y-93850D01*
X128758Y-93850D02*
X128158Y-93850D01*
X128158Y-93850D02*
X128158Y-93450D01*
X128158Y-93050D02*
X128158Y-92650D01*
X128158Y-92650D02*
X128758Y-92650D01*
X128758Y-92650D02*
X128758Y-93050D01*
G54D19*
X132365Y-95375D02*
X134065Y-95375D01*
X132365Y-97825D02*
X134065Y-97825D01*
X134065Y-97825D02*
X134065Y-94925D01*
X134065Y-94925D02*
X132365Y-94925D01*
X132365Y-94925D02*
X132365Y-97825D01*
G54D12*
X145210Y-98630D02*
X145210Y-100230D01*
X145210Y-98630D02*
X145810Y-98630D01*
X145210Y-98630D02*
X144610Y-98630D01*
X145210Y-98630D02*
X145810Y-97630D01*
X145810Y-97630D02*
X145210Y-97630D01*
X145210Y-97630D02*
X144610Y-97630D01*
X144610Y-97630D02*
X145210Y-98630D01*
X145210Y-96230D02*
X145210Y-97630D01*
X142300Y-101700D02*
X140700Y-101700D01*
X142300Y-101700D02*
X142300Y-102300D01*
X142300Y-101700D02*
X142300Y-101100D01*
X142300Y-101700D02*
X143300Y-102300D01*
X143300Y-102300D02*
X143300Y-101700D01*
X143300Y-101700D02*
X143300Y-101100D01*
X143300Y-101100D02*
X142300Y-101700D01*
X144700Y-101700D02*
X143300Y-101700D01*
X142300Y-103100D02*
X140700Y-103100D01*
X142300Y-103100D02*
X142300Y-103700D01*
X142300Y-103100D02*
X142300Y-102500D01*
X142300Y-103100D02*
X143300Y-103700D01*
X143300Y-103700D02*
X143300Y-103100D01*
X143300Y-103100D02*
X143300Y-102500D01*
X143300Y-102500D02*
X142300Y-103100D01*
X144700Y-103100D02*
X143300Y-103100D01*
G54D27*
X130250Y-97700D02*
G75*
G03X130250Y-97700I-50J0D01*
G74*
G01*
X129750Y-97700D02*
X130150Y-97700D01*
X130150Y-97700D02*
X130150Y-98300D01*
X130150Y-98300D02*
X129750Y-98300D01*
X129350Y-98300D02*
X128950Y-98300D01*
X128950Y-98300D02*
X128950Y-97700D01*
X128950Y-97700D02*
X129350Y-97700D01*
G54D23*
X122000Y-102800D02*
X123000Y-102800D01*
X123000Y-102800D02*
X123000Y-105800D01*
X123000Y-105800D02*
X122000Y-105800D01*
X122000Y-105800D02*
X122000Y-102800D01*
X123000Y-103800D02*
X122000Y-103800D01*
G54D22*
X146900Y-88650D02*
X146600Y-88650D01*
X146600Y-88650D02*
X146600Y-90850D01*
X146900Y-90850D02*
X146600Y-90850D01*
X146900Y-88650D02*
X146900Y-90850D01*
X147600Y-89500D02*
X147250Y-89500D01*
X147250Y-89500D02*
X147250Y-90000D01*
X147600Y-90000D02*
X147250Y-90000D01*
X147600Y-89500D02*
X147600Y-90000D01*
X143250Y-89500D02*
X142900Y-89500D01*
X142900Y-89500D02*
X142900Y-90000D01*
X143250Y-90000D02*
X142900Y-90000D01*
X143250Y-89500D02*
X143250Y-90000D01*
G54D23*
X147250Y-88650D02*
X147250Y-90850D01*
X143250Y-90850D02*
X143250Y-88650D01*
X147250Y-90850D02*
X143250Y-90850D01*
X143250Y-88650D02*
X147250Y-88650D01*
G54D34*
X142250Y-89750D02*
X142800Y-89750D01*
X148250Y-89750D02*
X147700Y-89750D01*
G54D25*
X127016Y-103387D02*
X125464Y-103387D01*
X125464Y-103387D02*
X125464Y-102613D01*
X125464Y-102613D02*
X127016Y-102613D01*
X127016Y-102613D02*
X127016Y-103387D01*
X127026Y-104587D02*
X125474Y-104587D01*
X125474Y-104587D02*
X125474Y-103813D01*
X125474Y-103813D02*
X127026Y-103813D01*
X127026Y-103813D02*
X127026Y-104587D01*
G54D27*
X125310Y-103340D02*
X123780Y-103340D01*
X123780Y-103340D02*
X123780Y-102660D01*
X123780Y-102660D02*
X125330Y-102660D01*
X125330Y-102660D02*
X125330Y-103340D01*
X125310Y-104540D02*
X123780Y-104540D01*
X123780Y-104540D02*
X123780Y-103860D01*
X123780Y-103860D02*
X125330Y-103860D01*
X125330Y-103860D02*
X125330Y-104540D01*
G54D12*
X147900Y-98000D02*
X147900Y-97000D01*
X147900Y-98600D02*
X147900Y-98400D01*
X147900Y-98600D02*
X147900Y-99000D01*
G54D23*
X148150Y-98400D02*
X147650Y-98400D01*
X147650Y-98400D02*
X147900Y-98000D01*
X147900Y-98000D02*
X148150Y-98400D01*
X148150Y-98000D02*
X147900Y-98000D01*
X147900Y-98000D02*
X147650Y-98000D01*
G54D12*
X148900Y-98000D02*
X148900Y-97000D01*
X148900Y-98600D02*
X148900Y-98400D01*
X148900Y-98600D02*
X148900Y-99000D01*
G54D23*
X149150Y-98400D02*
X148650Y-98400D01*
X148650Y-98400D02*
X148900Y-98000D01*
X148900Y-98000D02*
X149150Y-98400D01*
X149150Y-98000D02*
X148900Y-98000D01*
X148900Y-98000D02*
X148650Y-98000D01*
G54D12*
X147600Y-103300D02*
X148600Y-103300D01*
X147000Y-103300D02*
X147200Y-103300D01*
X147000Y-103300D02*
X146600Y-103300D01*
G54D23*
X147200Y-103550D02*
X147200Y-103050D01*
X147200Y-103050D02*
X147600Y-103300D01*
X147600Y-103300D02*
X147200Y-103550D01*
X147600Y-103550D02*
X147600Y-103300D01*
X147600Y-103300D02*
X147600Y-103050D01*
G54D12*
X147600Y-102400D02*
X148600Y-102400D01*
X147000Y-102400D02*
X147200Y-102400D01*
X147000Y-102400D02*
X146600Y-102400D01*
G54D23*
X147200Y-102650D02*
X147200Y-102150D01*
X147200Y-102150D02*
X147600Y-102400D01*
X147600Y-102400D02*
X147200Y-102650D01*
X147600Y-102650D02*
X147600Y-102400D01*
X147600Y-102400D02*
X147600Y-102150D01*
G54D28*
X121234Y-95750D02*
G75*
G03X121234Y-95750I-984J0D01*
G74*
G01*
X120234Y-97700D02*
G75*
G03X120234Y-97700I-984J0D01*
G74*
G01*
G54D12*
X136450Y-93300D02*
G75*
G03X138450Y-93300I1000J1000D01*
G74*
G01*
X138450Y-89300D02*
G75*
G03X136450Y-89300I-1000J-1000D01*
G74*
G01*
G54D21*
X112034Y-96311D02*
X112034Y-95911D01*
X112187Y-95911D01*
X112225Y-95930D01*
X112244Y-95950D01*
X112263Y-95988D01*
X112263Y-96045D01*
X112244Y-96083D01*
X112225Y-96102D01*
X112187Y-96121D01*
X112034Y-96121D01*
X112491Y-96083D02*
X112453Y-96064D01*
X112434Y-96045D01*
X112415Y-96007D01*
X112415Y-95988D01*
X112434Y-95950D01*
X112453Y-95930D01*
X112491Y-95911D01*
X112568Y-95911D01*
X112606Y-95930D01*
X112625Y-95950D01*
X112644Y-95988D01*
X112644Y-96007D01*
X112625Y-96045D01*
X112606Y-96064D01*
X112568Y-96083D01*
X112491Y-96083D01*
X112453Y-96102D01*
X112434Y-96121D01*
X112415Y-96159D01*
X112415Y-96235D01*
X112434Y-96273D01*
X112453Y-96292D01*
X112491Y-96311D01*
X112568Y-96311D01*
X112606Y-96292D01*
X112625Y-96273D01*
X112644Y-96235D01*
X112644Y-96159D01*
X112625Y-96121D01*
X112606Y-96102D01*
X112568Y-96083D01*
X105170Y-101698D02*
X105151Y-101717D01*
X105094Y-101736D01*
X105056Y-101736D01*
X104999Y-101717D01*
X104961Y-101679D01*
X104942Y-101641D01*
X104923Y-101565D01*
X104923Y-101508D01*
X104942Y-101432D01*
X104961Y-101394D01*
X104999Y-101355D01*
X105056Y-101336D01*
X105094Y-101336D01*
X105151Y-101355D01*
X105170Y-101375D01*
X105418Y-101336D02*
X105494Y-101336D01*
X105532Y-101355D01*
X105570Y-101394D01*
X105590Y-101470D01*
X105590Y-101603D01*
X105570Y-101679D01*
X105532Y-101717D01*
X105494Y-101736D01*
X105418Y-101736D01*
X105380Y-101717D01*
X105342Y-101679D01*
X105323Y-101603D01*
X105323Y-101470D01*
X105342Y-101394D01*
X105380Y-101355D01*
X105418Y-101336D01*
X105761Y-101736D02*
X105761Y-101336D01*
X105990Y-101736D01*
X105990Y-101336D01*
X106180Y-101736D02*
X106180Y-101336D01*
X106409Y-101736D01*
X106409Y-101336D01*
X106504Y-101775D02*
X106809Y-101775D01*
X107113Y-101736D02*
X106885Y-101736D01*
X106999Y-101736D02*
X106999Y-101336D01*
X106961Y-101394D01*
X106923Y-101432D01*
X106885Y-101451D01*
X107361Y-101336D02*
X107399Y-101336D01*
X107437Y-101355D01*
X107456Y-101375D01*
X107475Y-101413D01*
X107494Y-101489D01*
X107494Y-101584D01*
X107475Y-101660D01*
X107456Y-101698D01*
X107437Y-101717D01*
X107399Y-101736D01*
X107361Y-101736D01*
X107323Y-101717D01*
X107304Y-101698D01*
X107285Y-101660D01*
X107266Y-101584D01*
X107266Y-101489D01*
X107285Y-101413D01*
X107304Y-101375D01*
X107323Y-101355D01*
X107361Y-101336D01*
X107628Y-101336D02*
X107894Y-101736D01*
X107894Y-101336D02*
X107628Y-101736D01*
X108028Y-101375D02*
X108047Y-101355D01*
X108085Y-101336D01*
X108180Y-101336D01*
X108218Y-101355D01*
X108237Y-101375D01*
X108256Y-101413D01*
X108256Y-101451D01*
X108237Y-101508D01*
X108009Y-101736D01*
X108256Y-101736D01*
X140056Y-106702D02*
X139890Y-106440D01*
X139770Y-106702D02*
X139770Y-106152D01*
X139961Y-106152D01*
X140009Y-106178D01*
X140032Y-106205D01*
X140056Y-106257D01*
X140056Y-106335D01*
X140032Y-106388D01*
X140009Y-106414D01*
X139961Y-106440D01*
X139770Y-106440D01*
X140485Y-106152D02*
X140390Y-106152D01*
X140342Y-106178D01*
X140318Y-106205D01*
X140270Y-106283D01*
X140247Y-106388D01*
X140247Y-106597D01*
X140270Y-106650D01*
X140294Y-106676D01*
X140342Y-106702D01*
X140437Y-106702D01*
X140485Y-106676D01*
X140509Y-106650D01*
X140532Y-106597D01*
X140532Y-106466D01*
X140509Y-106414D01*
X140485Y-106388D01*
X140437Y-106362D01*
X140342Y-106362D01*
X140294Y-106388D01*
X140270Y-106414D01*
X140247Y-106466D01*
X130772Y-108833D02*
X130510Y-109000D01*
X130772Y-109119D02*
X130222Y-109119D01*
X130222Y-108928D01*
X130248Y-108880D01*
X130275Y-108857D01*
X130327Y-108833D01*
X130405Y-108833D01*
X130458Y-108857D01*
X130484Y-108880D01*
X130510Y-108928D01*
X130510Y-109119D01*
X130772Y-108357D02*
X130772Y-108642D01*
X130772Y-108500D02*
X130222Y-108500D01*
X130301Y-108547D01*
X130353Y-108595D01*
X130379Y-108642D01*
X136322Y-109053D02*
X136060Y-109220D01*
X136322Y-109339D02*
X135772Y-109339D01*
X135772Y-109148D01*
X135798Y-109100D01*
X135825Y-109077D01*
X135877Y-109053D01*
X135955Y-109053D01*
X136008Y-109077D01*
X136034Y-109100D01*
X136060Y-109148D01*
X136060Y-109339D01*
X135825Y-108862D02*
X135798Y-108839D01*
X135772Y-108791D01*
X135772Y-108672D01*
X135798Y-108624D01*
X135825Y-108600D01*
X135877Y-108577D01*
X135929Y-108577D01*
X136008Y-108600D01*
X136322Y-108886D01*
X136322Y-108577D01*
X137262Y-109058D02*
X137000Y-109225D01*
X137262Y-109344D02*
X136712Y-109344D01*
X136712Y-109153D01*
X136738Y-109105D01*
X136765Y-109082D01*
X136817Y-109058D01*
X136895Y-109058D01*
X136948Y-109082D01*
X136974Y-109105D01*
X137000Y-109153D01*
X137000Y-109344D01*
X136712Y-108891D02*
X136712Y-108582D01*
X136922Y-108748D01*
X136922Y-108677D01*
X136948Y-108629D01*
X136974Y-108605D01*
X137026Y-108582D01*
X137157Y-108582D01*
X137210Y-108605D01*
X137236Y-108629D01*
X137262Y-108677D01*
X137262Y-108820D01*
X137236Y-108867D01*
X137210Y-108891D01*
X139936Y-111182D02*
X139770Y-110920D01*
X139650Y-111182D02*
X139650Y-110632D01*
X139841Y-110632D01*
X139889Y-110658D01*
X139912Y-110685D01*
X139936Y-110737D01*
X139936Y-110815D01*
X139912Y-110868D01*
X139889Y-110894D01*
X139841Y-110920D01*
X139650Y-110920D01*
X140365Y-110815D02*
X140365Y-111182D01*
X140246Y-110606D02*
X140127Y-110999D01*
X140436Y-110999D01*
X140036Y-105542D02*
X139870Y-105280D01*
X139750Y-105542D02*
X139750Y-104992D01*
X139941Y-104992D01*
X139989Y-105018D01*
X140012Y-105045D01*
X140036Y-105097D01*
X140036Y-105175D01*
X140012Y-105228D01*
X139989Y-105254D01*
X139941Y-105280D01*
X139750Y-105280D01*
X140489Y-104992D02*
X140250Y-104992D01*
X140227Y-105254D01*
X140250Y-105228D01*
X140298Y-105202D01*
X140417Y-105202D01*
X140465Y-105228D01*
X140489Y-105254D01*
X140512Y-105306D01*
X140512Y-105437D01*
X140489Y-105490D01*
X140465Y-105516D01*
X140417Y-105542D01*
X140298Y-105542D01*
X140250Y-105516D01*
X140227Y-105490D01*
G54D23*
X120932Y-110392D02*
X121296Y-110392D01*
X121339Y-110371D01*
X121360Y-110350D01*
X121382Y-110307D01*
X121382Y-110221D01*
X121360Y-110178D01*
X121339Y-110157D01*
X121296Y-110135D01*
X120932Y-110135D01*
X121082Y-109728D02*
X121382Y-109728D01*
X120910Y-109835D02*
X121232Y-109942D01*
X121232Y-109664D01*
X124533Y-121291D02*
X124533Y-120941D01*
X124649Y-121191D01*
X124766Y-120941D01*
X124766Y-121291D01*
X124916Y-121191D02*
X125083Y-121191D01*
X124883Y-121291D02*
X124999Y-120941D01*
X125116Y-121291D01*
X125199Y-120941D02*
X125433Y-121291D01*
X125433Y-120941D02*
X125199Y-121291D01*
X125533Y-120941D02*
X125749Y-120941D01*
X125633Y-121075D01*
X125683Y-121075D01*
X125716Y-121091D01*
X125733Y-121108D01*
X125749Y-121141D01*
X125749Y-121225D01*
X125733Y-121258D01*
X125716Y-121275D01*
X125683Y-121291D01*
X125583Y-121291D01*
X125549Y-121275D01*
X125533Y-121258D01*
X126083Y-121291D02*
X125883Y-121291D01*
X125983Y-121291D02*
X125983Y-120941D01*
X125950Y-120991D01*
X125916Y-121025D01*
X125883Y-121041D01*
X126283Y-121091D02*
X126250Y-121075D01*
X126233Y-121058D01*
X126216Y-121025D01*
X126216Y-121008D01*
X126233Y-120975D01*
X126250Y-120958D01*
X126283Y-120941D01*
X126350Y-120941D01*
X126383Y-120958D01*
X126400Y-120975D01*
X126416Y-121008D01*
X126416Y-121025D01*
X126400Y-121058D01*
X126383Y-121075D01*
X126350Y-121091D01*
X126283Y-121091D01*
X126250Y-121108D01*
X126233Y-121125D01*
X126216Y-121158D01*
X126216Y-121225D01*
X126233Y-121258D01*
X126250Y-121275D01*
X126283Y-121291D01*
X126350Y-121291D01*
X126383Y-121275D01*
X126400Y-121258D01*
X126416Y-121225D01*
X126416Y-121158D01*
X126400Y-121125D01*
X126383Y-121108D01*
X126350Y-121091D01*
X126733Y-120941D02*
X126566Y-120941D01*
X126550Y-121108D01*
X126566Y-121091D01*
X126600Y-121075D01*
X126683Y-121075D01*
X126716Y-121091D01*
X126733Y-121108D01*
X126750Y-121141D01*
X126750Y-121225D01*
X126733Y-121258D01*
X126716Y-121275D01*
X126683Y-121291D01*
X126600Y-121291D01*
X126566Y-121275D01*
X126550Y-121258D01*
X127066Y-120941D02*
X126900Y-120941D01*
X126883Y-121108D01*
X126900Y-121091D01*
X126933Y-121075D01*
X127016Y-121075D01*
X127050Y-121091D01*
X127066Y-121108D01*
X127083Y-121141D01*
X127083Y-121225D01*
X127066Y-121258D01*
X127050Y-121275D01*
X127016Y-121291D01*
X126933Y-121291D01*
X126900Y-121275D01*
X126883Y-121258D01*
G54D21*
X132795Y-106048D02*
X132795Y-106526D01*
X132814Y-106582D01*
X132833Y-106610D01*
X132871Y-106639D01*
X132947Y-106639D01*
X132985Y-106610D01*
X133004Y-106582D01*
X133023Y-106526D01*
X133023Y-106048D01*
X133423Y-106639D02*
X133195Y-106639D01*
X133309Y-106639D02*
X133309Y-106048D01*
X133271Y-106132D01*
X133233Y-106189D01*
X133195Y-106217D01*
X132992Y-109150D02*
X133392Y-109150D01*
X132764Y-109233D02*
X133192Y-109316D01*
X133192Y-109100D01*
X133392Y-108966D02*
X132792Y-108966D01*
X133392Y-108766D01*
X132792Y-108766D01*
X132850Y-108616D02*
X132821Y-108600D01*
X132792Y-108566D01*
X132792Y-108483D01*
X132821Y-108450D01*
X132850Y-108433D01*
X132907Y-108416D01*
X132964Y-108416D01*
X133050Y-108433D01*
X133392Y-108633D01*
X133392Y-108416D01*
X132792Y-108100D02*
X132792Y-108266D01*
X133078Y-108283D01*
X133050Y-108266D01*
X133021Y-108233D01*
X133021Y-108150D01*
X133050Y-108116D01*
X133078Y-108100D01*
X133135Y-108083D01*
X133278Y-108083D01*
X133335Y-108100D01*
X133364Y-108116D01*
X133392Y-108150D01*
X133392Y-108233D01*
X133364Y-108266D01*
X133335Y-108283D01*
X136017Y-103729D02*
X136036Y-103672D01*
X136036Y-103577D01*
X136017Y-103539D01*
X135998Y-103520D01*
X135960Y-103501D01*
X135922Y-103501D01*
X135884Y-103520D01*
X135865Y-103539D01*
X135846Y-103577D01*
X135827Y-103653D01*
X135808Y-103691D01*
X135789Y-103710D01*
X135751Y-103729D01*
X135713Y-103729D01*
X135675Y-103710D01*
X135655Y-103691D01*
X135636Y-103653D01*
X135636Y-103558D01*
X135655Y-103501D01*
X135998Y-103101D02*
X136017Y-103120D01*
X136036Y-103177D01*
X136036Y-103215D01*
X136017Y-103272D01*
X135979Y-103310D01*
X135941Y-103329D01*
X135865Y-103348D01*
X135808Y-103348D01*
X135732Y-103329D01*
X135694Y-103310D01*
X135655Y-103272D01*
X135636Y-103215D01*
X135636Y-103177D01*
X135655Y-103120D01*
X135675Y-103101D01*
X136036Y-102701D02*
X135846Y-102834D01*
X136036Y-102929D02*
X135636Y-102929D01*
X135636Y-102777D01*
X135655Y-102739D01*
X135675Y-102720D01*
X135713Y-102701D01*
X135770Y-102701D01*
X135808Y-102720D01*
X135827Y-102739D01*
X135846Y-102777D01*
X135846Y-102929D01*
X136036Y-102320D02*
X136036Y-102548D01*
X136036Y-102434D02*
X135636Y-102434D01*
X135694Y-102472D01*
X135732Y-102510D01*
X135751Y-102548D01*
X135222Y-103725D02*
X135241Y-103668D01*
X135260Y-103649D01*
X135298Y-103630D01*
X135355Y-103630D01*
X135393Y-103649D01*
X135412Y-103668D01*
X135431Y-103706D01*
X135431Y-103858D01*
X135031Y-103858D01*
X135031Y-103725D01*
X135050Y-103687D01*
X135070Y-103668D01*
X135108Y-103649D01*
X135146Y-103649D01*
X135184Y-103668D01*
X135203Y-103687D01*
X135222Y-103725D01*
X135222Y-103858D01*
X135031Y-103515D02*
X135031Y-103287D01*
X135431Y-103401D02*
X135031Y-103401D01*
X135431Y-102944D02*
X135431Y-103172D01*
X135431Y-103058D02*
X135031Y-103058D01*
X135089Y-103096D01*
X135127Y-103134D01*
X135146Y-103172D01*
X135031Y-102582D02*
X135031Y-102772D01*
X135222Y-102791D01*
X135203Y-102772D01*
X135184Y-102734D01*
X135184Y-102639D01*
X135203Y-102601D01*
X135222Y-102582D01*
X135260Y-102563D01*
X135355Y-102563D01*
X135393Y-102582D01*
X135412Y-102601D01*
X135431Y-102639D01*
X135431Y-102734D01*
X135412Y-102772D01*
X135393Y-102791D01*
X135431Y-102182D02*
X135431Y-102410D01*
X135431Y-102296D02*
X135031Y-102296D01*
X135089Y-102334D01*
X135127Y-102372D01*
X135146Y-102410D01*
X140813Y-108903D02*
X140794Y-108922D01*
X140737Y-108941D01*
X140699Y-108941D01*
X140641Y-108922D01*
X140603Y-108884D01*
X140584Y-108846D01*
X140565Y-108770D01*
X140565Y-108713D01*
X140584Y-108637D01*
X140603Y-108599D01*
X140641Y-108560D01*
X140699Y-108541D01*
X140737Y-108541D01*
X140794Y-108560D01*
X140813Y-108580D01*
X140946Y-108541D02*
X141194Y-108541D01*
X141060Y-108694D01*
X141118Y-108694D01*
X141156Y-108713D01*
X141175Y-108732D01*
X141194Y-108770D01*
X141194Y-108865D01*
X141175Y-108903D01*
X141156Y-108922D01*
X141118Y-108941D01*
X141003Y-108941D01*
X140965Y-108922D01*
X140946Y-108903D01*
G54D18*
X142351Y-108794D02*
X142808Y-108794D01*
X142580Y-109022D02*
X142580Y-108565D01*
G54D21*
X140813Y-109863D02*
X140794Y-109882D01*
X140737Y-109901D01*
X140699Y-109901D01*
X140641Y-109882D01*
X140603Y-109844D01*
X140584Y-109806D01*
X140565Y-109730D01*
X140565Y-109673D01*
X140584Y-109597D01*
X140603Y-109559D01*
X140641Y-109520D01*
X140699Y-109501D01*
X140737Y-109501D01*
X140794Y-109520D01*
X140813Y-109540D01*
X140965Y-109540D02*
X140984Y-109520D01*
X141022Y-109501D01*
X141118Y-109501D01*
X141156Y-109520D01*
X141175Y-109540D01*
X141194Y-109578D01*
X141194Y-109616D01*
X141175Y-109673D01*
X140946Y-109901D01*
X141194Y-109901D01*
G54D18*
X142351Y-109754D02*
X142808Y-109754D01*
X142580Y-109982D02*
X142580Y-109525D01*
G54D21*
X140365Y-107401D02*
X140594Y-107401D01*
X140480Y-107801D02*
X140480Y-107401D01*
X140727Y-107801D02*
X140727Y-107401D01*
X140727Y-107592D02*
X140956Y-107592D01*
X140956Y-107801D02*
X140956Y-107401D01*
X141356Y-107801D02*
X141127Y-107801D01*
X141241Y-107801D02*
X141241Y-107401D01*
X141203Y-107459D01*
X141165Y-107497D01*
X141127Y-107516D01*
G54D18*
X142351Y-107654D02*
X142808Y-107654D01*
X142580Y-107882D02*
X142580Y-107425D01*
G54D26*
X128919Y-112116D02*
X128934Y-112129D01*
X128949Y-112169D01*
X128949Y-112196D01*
X128934Y-112236D01*
X128903Y-112263D01*
X128873Y-112276D01*
X128812Y-112289D01*
X128766Y-112289D01*
X128705Y-112276D01*
X128675Y-112263D01*
X128644Y-112236D01*
X128629Y-112196D01*
X128629Y-112169D01*
X128644Y-112129D01*
X128660Y-112116D01*
X128629Y-111876D02*
X128629Y-111929D01*
X128644Y-111956D01*
X128660Y-111969D01*
X128705Y-111996D01*
X128766Y-112009D01*
X128888Y-112009D01*
X128919Y-111996D01*
X128934Y-111983D01*
X128949Y-111956D01*
X128949Y-111903D01*
X128934Y-111876D01*
X128919Y-111863D01*
X128888Y-111849D01*
X128812Y-111849D01*
X128781Y-111863D01*
X128766Y-111876D01*
X128751Y-111903D01*
X128751Y-111956D01*
X128766Y-111983D01*
X128781Y-111996D01*
X128812Y-112009D01*
G54D21*
G54D26*
X128949Y-110046D02*
X128964Y-110059D01*
X128979Y-110099D01*
X128979Y-110126D01*
X128964Y-110166D01*
X128933Y-110193D01*
X128903Y-110206D01*
X128842Y-110219D01*
X128796Y-110219D01*
X128735Y-110206D01*
X128705Y-110193D01*
X128674Y-110166D01*
X128659Y-110126D01*
X128659Y-110099D01*
X128674Y-110059D01*
X128690Y-110046D01*
X128796Y-109886D02*
X128781Y-109913D01*
X128766Y-109926D01*
X128735Y-109939D01*
X128720Y-109939D01*
X128690Y-109926D01*
X128674Y-109913D01*
X128659Y-109886D01*
X128659Y-109833D01*
X128674Y-109806D01*
X128690Y-109793D01*
X128720Y-109779D01*
X128735Y-109779D01*
X128766Y-109793D01*
X128781Y-109806D01*
X128796Y-109833D01*
X128796Y-109886D01*
X128811Y-109913D01*
X128827Y-109926D01*
X128857Y-109939D01*
X128918Y-109939D01*
X128949Y-109926D01*
X128964Y-109913D01*
X128979Y-109886D01*
X128979Y-109833D01*
X128964Y-109806D01*
X128949Y-109793D01*
X128918Y-109779D01*
X128857Y-109779D01*
X128827Y-109793D01*
X128811Y-109806D01*
X128796Y-109833D01*
G54D21*
G54D14*
X126461Y-113182D02*
X126295Y-112944D01*
X126175Y-113182D02*
X126175Y-112682D01*
X126366Y-112682D01*
X126414Y-112706D01*
X126437Y-112730D01*
X126461Y-112777D01*
X126461Y-112849D01*
X126437Y-112896D01*
X126414Y-112920D01*
X126366Y-112944D01*
X126175Y-112944D01*
X126699Y-113182D02*
X126795Y-113182D01*
X126842Y-113158D01*
X126866Y-113134D01*
X126914Y-113063D01*
X126937Y-112968D01*
X126937Y-112777D01*
X126914Y-112730D01*
X126890Y-112706D01*
X126842Y-112682D01*
X126747Y-112682D01*
X126699Y-112706D01*
X126675Y-112730D01*
X126652Y-112777D01*
X126652Y-112896D01*
X126675Y-112944D01*
X126699Y-112968D01*
X126747Y-112991D01*
X126842Y-112991D01*
X126890Y-112968D01*
X126914Y-112944D01*
X126937Y-112896D01*
X125066Y-120902D02*
X124780Y-120902D01*
X124923Y-120902D02*
X124923Y-120402D01*
X124876Y-120473D01*
X124828Y-120521D01*
X124780Y-120545D01*
X125376Y-120402D02*
X125423Y-120402D01*
X125471Y-120426D01*
X125495Y-120450D01*
X125519Y-120497D01*
X125542Y-120592D01*
X125542Y-120711D01*
X125519Y-120807D01*
X125495Y-120854D01*
X125471Y-120878D01*
X125423Y-120902D01*
X125376Y-120902D01*
X125328Y-120878D01*
X125304Y-120854D01*
X125280Y-120807D01*
X125257Y-120711D01*
X125257Y-120592D01*
X125280Y-120497D01*
X125304Y-120450D01*
X125328Y-120426D01*
X125376Y-120402D01*
X125852Y-120402D02*
X125900Y-120402D01*
X125947Y-120426D01*
X125971Y-120450D01*
X125995Y-120497D01*
X126019Y-120592D01*
X126019Y-120711D01*
X125995Y-120807D01*
X125971Y-120854D01*
X125947Y-120878D01*
X125900Y-120902D01*
X125852Y-120902D01*
X125804Y-120878D01*
X125780Y-120854D01*
X125757Y-120807D01*
X125733Y-120711D01*
X125733Y-120592D01*
X125757Y-120497D01*
X125780Y-120450D01*
X125804Y-120426D01*
X125852Y-120402D01*
X126233Y-120902D02*
X126233Y-120402D01*
X126519Y-120902D02*
X126304Y-120616D01*
X126519Y-120402D02*
X126233Y-120688D01*
X128117Y-107831D02*
X127879Y-107998D01*
X128117Y-108117D02*
X127617Y-108117D01*
X127617Y-107926D01*
X127641Y-107879D01*
X127665Y-107855D01*
X127712Y-107831D01*
X127784Y-107831D01*
X127831Y-107855D01*
X127855Y-107879D01*
X127879Y-107926D01*
X127879Y-108117D01*
X128117Y-107355D02*
X128117Y-107640D01*
X128117Y-107498D02*
X127617Y-107498D01*
X127688Y-107545D01*
X127736Y-107593D01*
X127760Y-107640D01*
X128117Y-106879D02*
X128117Y-107164D01*
X128117Y-107021D02*
X127617Y-107021D01*
X127688Y-107069D01*
X127736Y-107117D01*
X127760Y-107164D01*
X138652Y-109342D02*
X138652Y-109033D01*
X138842Y-109200D01*
X138842Y-109128D01*
X138866Y-109080D01*
X138890Y-109057D01*
X138938Y-109033D01*
X139057Y-109033D01*
X139104Y-109057D01*
X139128Y-109080D01*
X139152Y-109128D01*
X139152Y-109271D01*
X139128Y-109319D01*
X139104Y-109342D01*
X138652Y-108723D02*
X138652Y-108676D01*
X138676Y-108628D01*
X138700Y-108604D01*
X138747Y-108580D01*
X138842Y-108557D01*
X138961Y-108557D01*
X139057Y-108580D01*
X139104Y-108604D01*
X139128Y-108628D01*
X139152Y-108676D01*
X139152Y-108723D01*
X139128Y-108771D01*
X139104Y-108795D01*
X139057Y-108819D01*
X138961Y-108842D01*
X138842Y-108842D01*
X138747Y-108819D01*
X138700Y-108795D01*
X138676Y-108771D01*
X138652Y-108723D01*
X138652Y-108247D02*
X138652Y-108200D01*
X138676Y-108152D01*
X138700Y-108128D01*
X138747Y-108104D01*
X138842Y-108080D01*
X138961Y-108080D01*
X139057Y-108104D01*
X139104Y-108128D01*
X139128Y-108152D01*
X139152Y-108200D01*
X139152Y-108247D01*
X139128Y-108295D01*
X139104Y-108319D01*
X139057Y-108342D01*
X138961Y-108366D01*
X138842Y-108366D01*
X138747Y-108342D01*
X138700Y-108319D01*
X138676Y-108295D01*
X138652Y-108247D01*
X123817Y-110858D02*
X123579Y-111025D01*
X123817Y-111144D02*
X123317Y-111144D01*
X123317Y-110953D01*
X123341Y-110905D01*
X123365Y-110882D01*
X123412Y-110858D01*
X123484Y-110858D01*
X123531Y-110882D01*
X123555Y-110905D01*
X123579Y-110953D01*
X123579Y-111144D01*
X123317Y-110691D02*
X123317Y-110358D01*
X123817Y-110572D01*
X124269Y-122802D02*
X124602Y-122802D01*
X124078Y-122921D02*
X124435Y-123040D01*
X124435Y-122730D01*
X124554Y-122540D02*
X124578Y-122516D01*
X124602Y-122540D01*
X124578Y-122564D01*
X124554Y-122540D01*
X124602Y-122540D01*
X124102Y-122064D02*
X124102Y-122302D01*
X124340Y-122326D01*
X124316Y-122302D01*
X124292Y-122254D01*
X124292Y-122135D01*
X124316Y-122088D01*
X124340Y-122064D01*
X124388Y-122040D01*
X124507Y-122040D01*
X124554Y-122064D01*
X124578Y-122088D01*
X124602Y-122135D01*
X124602Y-122254D01*
X124578Y-122302D01*
X124554Y-122326D01*
X124102Y-121873D02*
X124102Y-121564D01*
X124292Y-121730D01*
X124292Y-121659D01*
X124316Y-121611D01*
X124340Y-121588D01*
X124388Y-121564D01*
X124507Y-121564D01*
X124554Y-121588D01*
X124578Y-121611D01*
X124602Y-121659D01*
X124602Y-121802D01*
X124578Y-121849D01*
X124554Y-121873D01*
X124602Y-121349D02*
X124102Y-121349D01*
X124411Y-121302D02*
X124602Y-121159D01*
X124269Y-121159D02*
X124459Y-121349D01*
X128702Y-107371D02*
X128464Y-107538D01*
X128702Y-107657D02*
X128202Y-107657D01*
X128202Y-107466D01*
X128226Y-107419D01*
X128250Y-107395D01*
X128297Y-107371D01*
X128369Y-107371D01*
X128416Y-107395D01*
X128440Y-107419D01*
X128464Y-107466D01*
X128464Y-107657D01*
X128702Y-106895D02*
X128702Y-107180D01*
X128702Y-107038D02*
X128202Y-107038D01*
X128273Y-107085D01*
X128321Y-107133D01*
X128345Y-107180D01*
X128202Y-106728D02*
X128202Y-106419D01*
X128392Y-106585D01*
X128392Y-106514D01*
X128416Y-106466D01*
X128440Y-106442D01*
X128488Y-106419D01*
X128607Y-106419D01*
X128654Y-106442D01*
X128678Y-106466D01*
X128702Y-106514D01*
X128702Y-106657D01*
X128678Y-106704D01*
X128654Y-106728D01*
X126602Y-120907D02*
X126602Y-121145D01*
X126840Y-121169D01*
X126816Y-121145D01*
X126792Y-121097D01*
X126792Y-120978D01*
X126816Y-120930D01*
X126840Y-120907D01*
X126888Y-120883D01*
X127007Y-120883D01*
X127054Y-120907D01*
X127078Y-120930D01*
X127102Y-120978D01*
X127102Y-121097D01*
X127078Y-121145D01*
X127054Y-121169D01*
X126602Y-120573D02*
X126602Y-120526D01*
X126626Y-120478D01*
X126650Y-120454D01*
X126697Y-120430D01*
X126792Y-120407D01*
X126911Y-120407D01*
X127007Y-120430D01*
X127054Y-120454D01*
X127078Y-120478D01*
X127102Y-120526D01*
X127102Y-120573D01*
X127078Y-120621D01*
X127054Y-120645D01*
X127007Y-120669D01*
X126911Y-120692D01*
X126792Y-120692D01*
X126697Y-120669D01*
X126650Y-120645D01*
X126626Y-120621D01*
X126602Y-120573D01*
X126602Y-120097D02*
X126602Y-120050D01*
X126626Y-120002D01*
X126650Y-119978D01*
X126697Y-119954D01*
X126792Y-119930D01*
X126911Y-119930D01*
X127007Y-119954D01*
X127054Y-119978D01*
X127078Y-120002D01*
X127102Y-120050D01*
X127102Y-120097D01*
X127078Y-120145D01*
X127054Y-120169D01*
X127007Y-120192D01*
X126911Y-120216D01*
X126792Y-120216D01*
X126697Y-120192D01*
X126650Y-120169D01*
X126626Y-120145D01*
X126602Y-120097D01*
X126452Y-107271D02*
X126214Y-107438D01*
X126452Y-107557D02*
X125952Y-107557D01*
X125952Y-107366D01*
X125976Y-107319D01*
X126000Y-107295D01*
X126047Y-107271D01*
X126119Y-107271D01*
X126166Y-107295D01*
X126190Y-107319D01*
X126214Y-107366D01*
X126214Y-107557D01*
X126452Y-106795D02*
X126452Y-107080D01*
X126452Y-106938D02*
X125952Y-106938D01*
X126023Y-106985D01*
X126071Y-107033D01*
X126095Y-107080D01*
X125952Y-106342D02*
X125952Y-106580D01*
X126190Y-106604D01*
X126166Y-106580D01*
X126142Y-106533D01*
X126142Y-106414D01*
X126166Y-106366D01*
X126190Y-106342D01*
X126238Y-106319D01*
X126357Y-106319D01*
X126404Y-106342D01*
X126428Y-106366D01*
X126452Y-106414D01*
X126452Y-106533D01*
X126428Y-106580D01*
X126404Y-106604D01*
X127102Y-120457D02*
X127102Y-120742D01*
X127102Y-120600D02*
X126602Y-120600D01*
X126673Y-120647D01*
X126721Y-120695D01*
X126745Y-120742D01*
X127102Y-120242D02*
X126602Y-120242D01*
X127102Y-119957D02*
X126816Y-120171D01*
X126602Y-119957D02*
X126888Y-120242D01*
G54D18*
X152652Y-96837D02*
X153138Y-96837D01*
X153195Y-96808D01*
X153224Y-96780D01*
X153252Y-96722D01*
X153252Y-96608D01*
X153224Y-96551D01*
X153195Y-96522D01*
X153138Y-96494D01*
X152652Y-96494D01*
X152910Y-96122D02*
X152881Y-96180D01*
X152852Y-96208D01*
X152795Y-96237D01*
X152767Y-96237D01*
X152710Y-96208D01*
X152681Y-96180D01*
X152652Y-96122D01*
X152652Y-96008D01*
X152681Y-95951D01*
X152710Y-95922D01*
X152767Y-95894D01*
X152795Y-95894D01*
X152852Y-95922D01*
X152881Y-95951D01*
X152910Y-96008D01*
X152910Y-96122D01*
X152938Y-96180D01*
X152967Y-96208D01*
X153024Y-96237D01*
X153138Y-96237D01*
X153195Y-96208D01*
X153224Y-96180D01*
X153252Y-96122D01*
X153252Y-96008D01*
X153224Y-95951D01*
X153195Y-95922D01*
X153138Y-95894D01*
X153024Y-95894D01*
X152967Y-95922D01*
X152938Y-95951D01*
X152910Y-96008D01*
X154152Y-97947D02*
X153552Y-97947D01*
X153838Y-97947D02*
X153838Y-97604D01*
X154152Y-97604D02*
X153552Y-97604D01*
X153552Y-97404D02*
X154152Y-97204D01*
X153552Y-97004D01*
X154124Y-96375D02*
X154152Y-96290D01*
X154152Y-96147D01*
X154124Y-96090D01*
X154095Y-96061D01*
X154038Y-96032D01*
X153981Y-96032D01*
X153924Y-96061D01*
X153895Y-96090D01*
X153867Y-96147D01*
X153838Y-96261D01*
X153810Y-96318D01*
X153781Y-96347D01*
X153724Y-96375D01*
X153667Y-96375D01*
X153610Y-96347D01*
X153581Y-96318D01*
X153552Y-96261D01*
X153552Y-96118D01*
X153581Y-96032D01*
X153838Y-95775D02*
X153838Y-95575D01*
X154152Y-95490D02*
X154152Y-95775D01*
X153552Y-95775D01*
X153552Y-95490D01*
X154152Y-94947D02*
X154152Y-95232D01*
X153552Y-95232D01*
G54D35*
X126298Y-94921D02*
X126298Y-95164D01*
X126310Y-95192D01*
X126322Y-95207D01*
X126347Y-95221D01*
X126397Y-95221D01*
X126421Y-95207D01*
X126434Y-95192D01*
X126446Y-95164D01*
X126446Y-94921D01*
X126706Y-95221D02*
X126558Y-95221D01*
X126632Y-95221D02*
X126632Y-94921D01*
X126607Y-94964D01*
X126582Y-94992D01*
X126558Y-95007D01*
X126867Y-94921D02*
X126892Y-94921D01*
X126917Y-94935D01*
X126929Y-94950D01*
X126941Y-94978D01*
X126954Y-95035D01*
X126954Y-95107D01*
X126941Y-95164D01*
X126929Y-95192D01*
X126917Y-95207D01*
X126892Y-95221D01*
X126867Y-95221D01*
X126842Y-95207D01*
X126830Y-95192D01*
X126818Y-95164D01*
X126805Y-95107D01*
X126805Y-95035D01*
X126818Y-94978D01*
X126830Y-94950D01*
X126842Y-94935D01*
X126867Y-94921D01*
G54D26*
G54D23*
X126171Y-97647D02*
X126171Y-97487D01*
X126471Y-97589D01*
X126271Y-97292D02*
X126471Y-97292D01*
X126157Y-97349D02*
X126371Y-97407D01*
X126371Y-97258D01*
X126471Y-97052D02*
X126471Y-97167D01*
X126171Y-97167D01*
X126171Y-97007D02*
X126471Y-96927D01*
X126171Y-96847D01*
X126442Y-96629D02*
X126457Y-96641D01*
X126471Y-96675D01*
X126471Y-96698D01*
X126457Y-96732D01*
X126428Y-96755D01*
X126400Y-96767D01*
X126342Y-96778D01*
X126300Y-96778D01*
X126242Y-96767D01*
X126214Y-96755D01*
X126185Y-96732D01*
X126171Y-96698D01*
X126171Y-96675D01*
X126185Y-96641D01*
X126200Y-96629D01*
X126200Y-96538D02*
X126185Y-96527D01*
X126171Y-96504D01*
X126171Y-96447D01*
X126185Y-96424D01*
X126200Y-96412D01*
X126228Y-96401D01*
X126257Y-96401D01*
X126300Y-96412D01*
X126471Y-96549D01*
X126471Y-96401D01*
X126271Y-96195D02*
X126471Y-96195D01*
X126157Y-96252D02*
X126371Y-96310D01*
X126371Y-96161D01*
X126171Y-95955D02*
X126171Y-96070D01*
X126314Y-96081D01*
X126300Y-96070D01*
X126285Y-96047D01*
X126285Y-95990D01*
X126300Y-95967D01*
X126314Y-95955D01*
X126342Y-95944D01*
X126414Y-95944D01*
X126442Y-95955D01*
X126457Y-95967D01*
X126471Y-95990D01*
X126471Y-96047D01*
X126457Y-96070D01*
X126442Y-96081D01*
G54D26*
X121429Y-94280D02*
X121277Y-94373D01*
X121429Y-94440D02*
X121109Y-94440D01*
X121109Y-94333D01*
X121124Y-94306D01*
X121140Y-94293D01*
X121170Y-94280D01*
X121216Y-94280D01*
X121246Y-94293D01*
X121261Y-94306D01*
X121277Y-94333D01*
X121277Y-94440D01*
X121140Y-94173D02*
X121124Y-94160D01*
X121109Y-94133D01*
X121109Y-94066D01*
X121124Y-94040D01*
X121140Y-94026D01*
X121170Y-94013D01*
X121200Y-94013D01*
X121246Y-94026D01*
X121429Y-94186D01*
X121429Y-94013D01*
X121429Y-93746D02*
X121429Y-93906D01*
X121429Y-93826D02*
X121109Y-93826D01*
X121155Y-93853D01*
X121185Y-93880D01*
X121200Y-93906D01*
G54D21*
G54D26*
X122720Y-93829D02*
X122626Y-93677D01*
X122560Y-93829D02*
X122560Y-93509D01*
X122666Y-93509D01*
X122693Y-93524D01*
X122706Y-93540D01*
X122720Y-93570D01*
X122720Y-93616D01*
X122706Y-93646D01*
X122693Y-93661D01*
X122666Y-93677D01*
X122560Y-93677D01*
X122826Y-93540D02*
X122840Y-93524D01*
X122866Y-93509D01*
X122933Y-93509D01*
X122960Y-93524D01*
X122973Y-93540D01*
X122986Y-93570D01*
X122986Y-93600D01*
X122973Y-93646D01*
X122813Y-93829D01*
X122986Y-93829D01*
X123240Y-93509D02*
X123106Y-93509D01*
X123093Y-93661D01*
X123106Y-93646D01*
X123133Y-93631D01*
X123200Y-93631D01*
X123226Y-93646D01*
X123240Y-93661D01*
X123253Y-93692D01*
X123253Y-93768D01*
X123240Y-93799D01*
X123226Y-93814D01*
X123200Y-93829D01*
X123133Y-93829D01*
X123106Y-93814D01*
X123093Y-93799D01*
G54D21*
G54D26*
X122720Y-91179D02*
X122626Y-91027D01*
X122560Y-91179D02*
X122560Y-90859D01*
X122666Y-90859D01*
X122693Y-90874D01*
X122706Y-90890D01*
X122720Y-90920D01*
X122720Y-90966D01*
X122706Y-90996D01*
X122693Y-91011D01*
X122666Y-91027D01*
X122560Y-91027D01*
X122826Y-90890D02*
X122840Y-90874D01*
X122866Y-90859D01*
X122933Y-90859D01*
X122960Y-90874D01*
X122973Y-90890D01*
X122986Y-90920D01*
X122986Y-90950D01*
X122973Y-90996D01*
X122813Y-91179D01*
X122986Y-91179D01*
X123226Y-90859D02*
X123173Y-90859D01*
X123146Y-90874D01*
X123133Y-90890D01*
X123106Y-90935D01*
X123093Y-90996D01*
X123093Y-91118D01*
X123106Y-91149D01*
X123120Y-91164D01*
X123146Y-91179D01*
X123200Y-91179D01*
X123226Y-91164D01*
X123240Y-91149D01*
X123253Y-91118D01*
X123253Y-91042D01*
X123240Y-91011D01*
X123226Y-90996D01*
X123200Y-90981D01*
X123146Y-90981D01*
X123120Y-90996D01*
X123106Y-91011D01*
X123093Y-91042D01*
G54D21*
G54D26*
X121429Y-92980D02*
X121277Y-93073D01*
X121429Y-93140D02*
X121109Y-93140D01*
X121109Y-93033D01*
X121124Y-93006D01*
X121140Y-92993D01*
X121170Y-92980D01*
X121216Y-92980D01*
X121246Y-92993D01*
X121261Y-93006D01*
X121277Y-93033D01*
X121277Y-93140D01*
X121429Y-92713D02*
X121429Y-92873D01*
X121429Y-92793D02*
X121109Y-92793D01*
X121155Y-92820D01*
X121185Y-92846D01*
X121200Y-92873D01*
X121109Y-92540D02*
X121109Y-92513D01*
X121124Y-92486D01*
X121140Y-92473D01*
X121170Y-92460D01*
X121231Y-92446D01*
X121307Y-92446D01*
X121368Y-92460D01*
X121399Y-92473D01*
X121414Y-92486D01*
X121429Y-92513D01*
X121429Y-92540D01*
X121414Y-92566D01*
X121399Y-92580D01*
X121368Y-92593D01*
X121307Y-92606D01*
X121231Y-92606D01*
X121170Y-92593D01*
X121140Y-92580D01*
X121124Y-92566D01*
X121109Y-92540D01*
G54D21*
G54D26*
X121470Y-91179D02*
X121376Y-91027D01*
X121310Y-91179D02*
X121310Y-90859D01*
X121416Y-90859D01*
X121443Y-90874D01*
X121456Y-90890D01*
X121470Y-90920D01*
X121470Y-90966D01*
X121456Y-90996D01*
X121443Y-91011D01*
X121416Y-91027D01*
X121310Y-91027D01*
X121736Y-91179D02*
X121576Y-91179D01*
X121656Y-91179D02*
X121656Y-90859D01*
X121630Y-90905D01*
X121603Y-90935D01*
X121576Y-90950D01*
X121843Y-90890D02*
X121856Y-90874D01*
X121883Y-90859D01*
X121950Y-90859D01*
X121976Y-90874D01*
X121990Y-90890D01*
X122003Y-90920D01*
X122003Y-90950D01*
X121990Y-90996D01*
X121830Y-91179D01*
X122003Y-91179D01*
G54D21*
G54D36*
X125045Y-90867D02*
X125055Y-90877D01*
X125064Y-90905D01*
X125064Y-90923D01*
X125055Y-90952D01*
X125036Y-90970D01*
X125017Y-90980D01*
X124980Y-90989D01*
X124952Y-90989D01*
X124914Y-90980D01*
X124895Y-90970D01*
X124877Y-90952D01*
X124867Y-90923D01*
X124867Y-90905D01*
X124877Y-90877D01*
X124886Y-90867D01*
X125064Y-90680D02*
X125064Y-90792D01*
X125064Y-90736D02*
X124867Y-90736D01*
X124895Y-90755D01*
X124914Y-90773D01*
X124924Y-90792D01*
X124867Y-90614D02*
X124867Y-90483D01*
X125064Y-90567D01*
X124382Y-75173D02*
X124382Y-75154D01*
X124392Y-75136D01*
X124401Y-75126D01*
X124420Y-75117D01*
X124457Y-75107D01*
X124504Y-75107D01*
X124542Y-75117D01*
X124560Y-75126D01*
X124570Y-75136D01*
X124579Y-75154D01*
X124579Y-75173D01*
X124570Y-75192D01*
X124560Y-75201D01*
X124542Y-75211D01*
X124504Y-75220D01*
X124457Y-75220D01*
X124420Y-75211D01*
X124401Y-75201D01*
X124392Y-75192D01*
X124382Y-75173D01*
X124560Y-75023D02*
X124570Y-75014D01*
X124579Y-75023D01*
X124570Y-75032D01*
X124560Y-75023D01*
X124579Y-75023D01*
X124579Y-74826D02*
X124579Y-74939D01*
X124579Y-74882D02*
X124382Y-74882D01*
X124410Y-74901D01*
X124429Y-74920D01*
X124439Y-74939D01*
X124448Y-74657D02*
X124579Y-74657D01*
X124448Y-74742D02*
X124551Y-74742D01*
X124570Y-74732D01*
X124579Y-74713D01*
X124579Y-74685D01*
X124570Y-74667D01*
X124560Y-74657D01*
X124476Y-74498D02*
X124476Y-74563D01*
X124579Y-74563D02*
X124382Y-74563D01*
X124382Y-74470D01*
X127549Y-91127D02*
X127483Y-91033D01*
X127436Y-91127D02*
X127436Y-90930D01*
X127511Y-90930D01*
X127530Y-90940D01*
X127539Y-90949D01*
X127549Y-90968D01*
X127549Y-90996D01*
X127539Y-91015D01*
X127530Y-91024D01*
X127511Y-91033D01*
X127436Y-91033D01*
X127624Y-90949D02*
X127633Y-90940D01*
X127652Y-90930D01*
X127699Y-90930D01*
X127718Y-90940D01*
X127727Y-90949D01*
X127736Y-90968D01*
X127736Y-90987D01*
X127727Y-91015D01*
X127615Y-91127D01*
X127736Y-91127D01*
X127849Y-91015D02*
X127830Y-91005D01*
X127821Y-90996D01*
X127812Y-90977D01*
X127812Y-90968D01*
X127821Y-90949D01*
X127830Y-90940D01*
X127849Y-90930D01*
X127887Y-90930D01*
X127905Y-90940D01*
X127915Y-90949D01*
X127924Y-90968D01*
X127924Y-90977D01*
X127915Y-90996D01*
X127905Y-91005D01*
X127887Y-91015D01*
X127849Y-91015D01*
X127830Y-91024D01*
X127821Y-91033D01*
X127812Y-91052D01*
X127812Y-91090D01*
X127821Y-91108D01*
X127830Y-91118D01*
X127849Y-91127D01*
X127887Y-91127D01*
X127905Y-91118D01*
X127915Y-91108D01*
X127924Y-91090D01*
X127924Y-91052D01*
X127915Y-91033D01*
X127905Y-91024D01*
X127887Y-91015D01*
X125029Y-75717D02*
X125029Y-75829D01*
X125029Y-75773D02*
X124832Y-75773D01*
X124860Y-75792D01*
X124879Y-75811D01*
X124889Y-75829D01*
X124832Y-75595D02*
X124832Y-75576D01*
X124842Y-75557D01*
X124851Y-75548D01*
X124870Y-75539D01*
X124907Y-75529D01*
X124954Y-75529D01*
X124992Y-75539D01*
X125010Y-75548D01*
X125020Y-75557D01*
X125029Y-75576D01*
X125029Y-75595D01*
X125020Y-75614D01*
X125010Y-75623D01*
X124992Y-75632D01*
X124954Y-75642D01*
X124907Y-75642D01*
X124870Y-75632D01*
X124851Y-75623D01*
X124842Y-75614D01*
X124832Y-75595D01*
X125029Y-75445D02*
X124832Y-75445D01*
X124954Y-75426D02*
X125029Y-75370D01*
X124898Y-75370D02*
X124973Y-75445D01*
X123725Y-91448D02*
X123715Y-91458D01*
X123687Y-91467D01*
X123669Y-91467D01*
X123640Y-91458D01*
X123622Y-91439D01*
X123612Y-91420D01*
X123603Y-91383D01*
X123603Y-91355D01*
X123612Y-91317D01*
X123622Y-91298D01*
X123640Y-91280D01*
X123669Y-91270D01*
X123687Y-91270D01*
X123715Y-91280D01*
X123725Y-91289D01*
X123912Y-91467D02*
X123800Y-91467D01*
X123856Y-91467D02*
X123856Y-91270D01*
X123837Y-91298D01*
X123819Y-91317D01*
X123800Y-91327D01*
X124091Y-91270D02*
X123997Y-91270D01*
X123988Y-91364D01*
X123997Y-91355D01*
X124016Y-91345D01*
X124063Y-91345D01*
X124081Y-91355D01*
X124091Y-91364D01*
X124100Y-91383D01*
X124100Y-91430D01*
X124091Y-91448D01*
X124081Y-91458D01*
X124063Y-91467D01*
X124016Y-91467D01*
X123997Y-91458D01*
X123988Y-91448D01*
X129929Y-75198D02*
X129929Y-75311D01*
X129929Y-75254D02*
X129732Y-75254D01*
X129760Y-75273D01*
X129779Y-75292D01*
X129789Y-75311D01*
X129732Y-75076D02*
X129732Y-75057D01*
X129742Y-75039D01*
X129751Y-75029D01*
X129770Y-75020D01*
X129807Y-75011D01*
X129854Y-75011D01*
X129892Y-75020D01*
X129910Y-75029D01*
X129920Y-75039D01*
X129929Y-75057D01*
X129929Y-75076D01*
X129920Y-75095D01*
X129910Y-75104D01*
X129892Y-75114D01*
X129854Y-75123D01*
X129807Y-75123D01*
X129770Y-75114D01*
X129751Y-75104D01*
X129742Y-75095D01*
X129732Y-75076D01*
X129732Y-74889D02*
X129732Y-74870D01*
X129742Y-74851D01*
X129751Y-74842D01*
X129770Y-74832D01*
X129807Y-74823D01*
X129854Y-74823D01*
X129892Y-74832D01*
X129910Y-74842D01*
X129920Y-74851D01*
X129929Y-74870D01*
X129929Y-74889D01*
X129920Y-74907D01*
X129910Y-74917D01*
X129892Y-74926D01*
X129854Y-74936D01*
X129807Y-74936D01*
X129770Y-74926D01*
X129751Y-74917D01*
X129742Y-74907D01*
X129732Y-74889D01*
X129732Y-74701D02*
X129732Y-74682D01*
X129742Y-74663D01*
X129751Y-74654D01*
X129770Y-74645D01*
X129807Y-74635D01*
X129854Y-74635D01*
X129892Y-74645D01*
X129910Y-74654D01*
X129920Y-74663D01*
X129929Y-74682D01*
X129929Y-74701D01*
X129920Y-74720D01*
X129910Y-74729D01*
X129892Y-74739D01*
X129854Y-74748D01*
X129807Y-74748D01*
X129770Y-74739D01*
X129751Y-74729D01*
X129742Y-74720D01*
X129732Y-74701D01*
X129798Y-74551D02*
X129995Y-74551D01*
X129807Y-74551D02*
X129798Y-74532D01*
X129798Y-74495D01*
X129807Y-74476D01*
X129817Y-74466D01*
X129835Y-74457D01*
X129892Y-74457D01*
X129910Y-74466D01*
X129920Y-74476D01*
X129929Y-74495D01*
X129929Y-74532D01*
X129920Y-74551D01*
X129826Y-74307D02*
X129826Y-74373D01*
X129929Y-74373D02*
X129732Y-74373D01*
X129732Y-74279D01*
X127070Y-90902D02*
X127080Y-90912D01*
X127089Y-90940D01*
X127089Y-90958D01*
X127080Y-90987D01*
X127061Y-91005D01*
X127042Y-91015D01*
X127005Y-91024D01*
X126977Y-91024D01*
X126939Y-91015D01*
X126920Y-91005D01*
X126902Y-90987D01*
X126892Y-90958D01*
X126892Y-90940D01*
X126902Y-90912D01*
X126911Y-90902D01*
X127089Y-90715D02*
X127089Y-90827D01*
X127089Y-90771D02*
X126892Y-90771D01*
X126920Y-90790D01*
X126939Y-90808D01*
X126949Y-90827D01*
X126892Y-90546D02*
X126892Y-90583D01*
X126902Y-90602D01*
X126911Y-90611D01*
X126939Y-90630D01*
X126977Y-90639D01*
X127052Y-90639D01*
X127070Y-90630D01*
X127080Y-90621D01*
X127089Y-90602D01*
X127089Y-90564D01*
X127080Y-90546D01*
X127070Y-90536D01*
X127052Y-90527D01*
X127005Y-90527D01*
X126986Y-90536D01*
X126977Y-90546D01*
X126967Y-90564D01*
X126967Y-90602D01*
X126977Y-90621D01*
X126986Y-90630D01*
X127005Y-90639D01*
X125329Y-74511D02*
X125329Y-74623D01*
X125329Y-74567D02*
X125132Y-74567D01*
X125160Y-74586D01*
X125179Y-74604D01*
X125189Y-74623D01*
X125132Y-74389D02*
X125132Y-74370D01*
X125142Y-74351D01*
X125151Y-74342D01*
X125170Y-74332D01*
X125207Y-74323D01*
X125254Y-74323D01*
X125292Y-74332D01*
X125310Y-74342D01*
X125320Y-74351D01*
X125329Y-74370D01*
X125329Y-74389D01*
X125320Y-74407D01*
X125310Y-74417D01*
X125292Y-74426D01*
X125254Y-74436D01*
X125207Y-74436D01*
X125170Y-74426D01*
X125151Y-74417D01*
X125142Y-74407D01*
X125132Y-74389D01*
X125198Y-74154D02*
X125329Y-74154D01*
X125198Y-74239D02*
X125301Y-74239D01*
X125320Y-74229D01*
X125329Y-74210D01*
X125329Y-74182D01*
X125320Y-74163D01*
X125310Y-74154D01*
X125226Y-73995D02*
X125226Y-74060D01*
X125329Y-74060D02*
X125132Y-74060D01*
X125132Y-73966D01*
X123789Y-93681D02*
X123779Y-93691D01*
X123751Y-93700D01*
X123732Y-93700D01*
X123704Y-93691D01*
X123685Y-93672D01*
X123676Y-93653D01*
X123667Y-93616D01*
X123667Y-93588D01*
X123676Y-93550D01*
X123685Y-93531D01*
X123704Y-93513D01*
X123732Y-93503D01*
X123751Y-93503D01*
X123779Y-93513D01*
X123789Y-93522D01*
X123882Y-93700D02*
X123920Y-93700D01*
X123939Y-93691D01*
X123948Y-93681D01*
X123967Y-93653D01*
X123976Y-93616D01*
X123976Y-93541D01*
X123967Y-93522D01*
X123958Y-93513D01*
X123939Y-93503D01*
X123901Y-93503D01*
X123882Y-93513D01*
X123873Y-93522D01*
X123864Y-93541D01*
X123864Y-93588D01*
X123873Y-93606D01*
X123882Y-93616D01*
X123901Y-93625D01*
X123939Y-93625D01*
X123958Y-93616D01*
X123967Y-93606D01*
X123976Y-93588D01*
X125679Y-74998D02*
X125679Y-75111D01*
X125679Y-75054D02*
X125482Y-75054D01*
X125510Y-75073D01*
X125529Y-75092D01*
X125539Y-75111D01*
X125482Y-74876D02*
X125482Y-74857D01*
X125492Y-74839D01*
X125501Y-74829D01*
X125520Y-74820D01*
X125557Y-74811D01*
X125604Y-74811D01*
X125642Y-74820D01*
X125660Y-74829D01*
X125670Y-74839D01*
X125679Y-74857D01*
X125679Y-74876D01*
X125670Y-74895D01*
X125660Y-74904D01*
X125642Y-74914D01*
X125604Y-74923D01*
X125557Y-74923D01*
X125520Y-74914D01*
X125501Y-74904D01*
X125492Y-74895D01*
X125482Y-74876D01*
X125482Y-74689D02*
X125482Y-74670D01*
X125492Y-74651D01*
X125501Y-74642D01*
X125520Y-74632D01*
X125557Y-74623D01*
X125604Y-74623D01*
X125642Y-74632D01*
X125660Y-74642D01*
X125670Y-74651D01*
X125679Y-74670D01*
X125679Y-74689D01*
X125670Y-74707D01*
X125660Y-74717D01*
X125642Y-74726D01*
X125604Y-74736D01*
X125557Y-74736D01*
X125520Y-74726D01*
X125501Y-74717D01*
X125492Y-74707D01*
X125482Y-74689D01*
X125482Y-74501D02*
X125482Y-74482D01*
X125492Y-74463D01*
X125501Y-74454D01*
X125520Y-74445D01*
X125557Y-74435D01*
X125604Y-74435D01*
X125642Y-74445D01*
X125660Y-74454D01*
X125670Y-74463D01*
X125679Y-74482D01*
X125679Y-74501D01*
X125670Y-74520D01*
X125660Y-74529D01*
X125642Y-74539D01*
X125604Y-74548D01*
X125557Y-74548D01*
X125520Y-74539D01*
X125501Y-74529D01*
X125492Y-74520D01*
X125482Y-74501D01*
X125548Y-74351D02*
X125745Y-74351D01*
X125557Y-74351D02*
X125548Y-74332D01*
X125548Y-74295D01*
X125557Y-74276D01*
X125567Y-74266D01*
X125585Y-74257D01*
X125642Y-74257D01*
X125660Y-74266D01*
X125670Y-74276D01*
X125679Y-74295D01*
X125679Y-74332D01*
X125670Y-74351D01*
X125576Y-74107D02*
X125576Y-74173D01*
X125679Y-74173D02*
X125482Y-74173D01*
X125482Y-74079D01*
X127527Y-94165D02*
X127461Y-94071D01*
X127414Y-94165D02*
X127414Y-93968D01*
X127489Y-93968D01*
X127508Y-93978D01*
X127517Y-93987D01*
X127527Y-94006D01*
X127527Y-94034D01*
X127517Y-94053D01*
X127508Y-94062D01*
X127489Y-94071D01*
X127414Y-94071D01*
X127602Y-93987D02*
X127611Y-93978D01*
X127630Y-93968D01*
X127677Y-93968D01*
X127696Y-93978D01*
X127705Y-93987D01*
X127714Y-94006D01*
X127714Y-94025D01*
X127705Y-94053D01*
X127593Y-94165D01*
X127714Y-94165D01*
X127780Y-93968D02*
X127911Y-93968D01*
X127827Y-94165D01*
X126479Y-76667D02*
X126479Y-76779D01*
X126479Y-76723D02*
X126282Y-76723D01*
X126310Y-76742D01*
X126329Y-76761D01*
X126339Y-76779D01*
X126282Y-76545D02*
X126282Y-76526D01*
X126292Y-76507D01*
X126301Y-76498D01*
X126320Y-76489D01*
X126357Y-76479D01*
X126404Y-76479D01*
X126442Y-76489D01*
X126460Y-76498D01*
X126470Y-76507D01*
X126479Y-76526D01*
X126479Y-76545D01*
X126470Y-76564D01*
X126460Y-76573D01*
X126442Y-76582D01*
X126404Y-76592D01*
X126357Y-76592D01*
X126320Y-76582D01*
X126301Y-76573D01*
X126292Y-76564D01*
X126282Y-76545D01*
X126479Y-76395D02*
X126282Y-76395D01*
X126404Y-76376D02*
X126479Y-76320D01*
X126348Y-76320D02*
X126423Y-76395D01*
G54D28*
X138214Y-110118D02*
X138238Y-110142D01*
X138262Y-110213D01*
X138262Y-110261D01*
X138238Y-110332D01*
X138190Y-110380D01*
X138143Y-110404D01*
X138048Y-110427D01*
X137976Y-110427D01*
X137881Y-110404D01*
X137833Y-110380D01*
X137786Y-110332D01*
X137762Y-110261D01*
X137762Y-110213D01*
X137786Y-110142D01*
X137810Y-110118D01*
X138262Y-109642D02*
X138262Y-109927D01*
X138262Y-109785D02*
X137762Y-109785D01*
X137833Y-109832D01*
X137881Y-109880D01*
X137905Y-109927D01*
G54D21*
X156502Y-103788D02*
X156502Y-104016D01*
X156502Y-103902D02*
X156002Y-103839D01*
X156073Y-103886D01*
X156121Y-103930D01*
X156145Y-103972D01*
X156002Y-103477D02*
X156002Y-103439D01*
X156026Y-103404D01*
X156050Y-103388D01*
X156097Y-103375D01*
X156192Y-103368D01*
X156311Y-103383D01*
X156407Y-103414D01*
X156454Y-103439D01*
X156478Y-103461D01*
X156502Y-103502D01*
X156502Y-103540D01*
X156478Y-103575D01*
X156454Y-103591D01*
X156407Y-103604D01*
X156311Y-103611D01*
X156192Y-103597D01*
X156097Y-103566D01*
X156050Y-103541D01*
X156026Y-103519D01*
X156002Y-103477D01*
X156002Y-103097D02*
X156002Y-103058D01*
X156026Y-103023D01*
X156050Y-103007D01*
X156097Y-102994D01*
X156192Y-102987D01*
X156311Y-103002D01*
X156407Y-103033D01*
X156454Y-103058D01*
X156478Y-103080D01*
X156502Y-103121D01*
X156502Y-103159D01*
X156478Y-103194D01*
X156454Y-103210D01*
X156407Y-103223D01*
X156311Y-103230D01*
X156192Y-103216D01*
X156097Y-103185D01*
X156050Y-103160D01*
X156026Y-103138D01*
X156002Y-103097D01*
X156169Y-102813D02*
X156502Y-102854D01*
X156216Y-102819D02*
X156192Y-102797D01*
X156169Y-102755D01*
X156169Y-102698D01*
X156192Y-102663D01*
X156240Y-102650D01*
X156502Y-102683D01*
X156240Y-102326D02*
X156240Y-102460D01*
X156502Y-102492D02*
X156002Y-102430D01*
X156002Y-102239D01*
G54D28*
X138711Y-110228D02*
X138711Y-109847D01*
X138902Y-110038D02*
X138521Y-110038D01*
G54D14*
X125439Y-92358D02*
X125439Y-92763D01*
X125462Y-92810D01*
X125486Y-92834D01*
X125534Y-92858D01*
X125629Y-92858D01*
X125677Y-92834D01*
X125700Y-92810D01*
X125724Y-92763D01*
X125724Y-92358D01*
X126177Y-92358D02*
X126081Y-92358D01*
X126034Y-92382D01*
X126010Y-92406D01*
X125962Y-92477D01*
X125939Y-92572D01*
X125939Y-92763D01*
X125962Y-92810D01*
X125986Y-92834D01*
X126034Y-92858D01*
X126129Y-92858D01*
X126177Y-92834D01*
X126200Y-92810D01*
X126224Y-92763D01*
X126224Y-92644D01*
X126200Y-92596D01*
X126177Y-92572D01*
X126129Y-92548D01*
X126034Y-92548D01*
X125986Y-92572D01*
X125962Y-92596D01*
X125939Y-92644D01*
G54D26*
X123170Y-88729D02*
X123076Y-88577D01*
X123010Y-88729D02*
X123010Y-88409D01*
X123116Y-88409D01*
X123143Y-88424D01*
X123156Y-88440D01*
X123170Y-88470D01*
X123170Y-88516D01*
X123156Y-88546D01*
X123143Y-88561D01*
X123116Y-88577D01*
X123010Y-88577D01*
X123436Y-88729D02*
X123276Y-88729D01*
X123356Y-88729D02*
X123356Y-88409D01*
X123330Y-88455D01*
X123303Y-88485D01*
X123276Y-88500D01*
X123676Y-88516D02*
X123676Y-88729D01*
X123610Y-88394D02*
X123543Y-88622D01*
X123716Y-88622D01*
G54D21*
G54D14*
X140630Y-112677D02*
X140630Y-112177D01*
X140750Y-112177D01*
X140821Y-112201D01*
X140869Y-112248D01*
X140892Y-112296D01*
X140916Y-112391D01*
X140916Y-112463D01*
X140892Y-112558D01*
X140869Y-112605D01*
X140821Y-112653D01*
X140750Y-112677D01*
X140630Y-112677D01*
X141083Y-112177D02*
X141392Y-112177D01*
X141226Y-112367D01*
X141297Y-112367D01*
X141345Y-112391D01*
X141369Y-112415D01*
X141392Y-112463D01*
X141392Y-112582D01*
X141369Y-112629D01*
X141345Y-112653D01*
X141297Y-112677D01*
X141154Y-112677D01*
X141107Y-112653D01*
X141083Y-112629D01*
X126578Y-121702D02*
X126292Y-121702D01*
X126435Y-121702D02*
X126435Y-121202D01*
X126388Y-121273D01*
X126340Y-121321D01*
X126292Y-121345D01*
X126792Y-121702D02*
X126792Y-121202D01*
X127078Y-121702D01*
X127078Y-121202D01*
X127530Y-121369D02*
X127530Y-121702D01*
X127411Y-121178D02*
X127292Y-121535D01*
X127602Y-121535D01*
X127888Y-121202D02*
X127935Y-121202D01*
X127983Y-121226D01*
X128007Y-121250D01*
X128030Y-121297D01*
X128054Y-121392D01*
X128054Y-121511D01*
X128030Y-121607D01*
X128007Y-121654D01*
X127983Y-121678D01*
X127935Y-121702D01*
X127888Y-121702D01*
X127840Y-121678D01*
X127816Y-121654D01*
X127792Y-121607D01*
X127769Y-121511D01*
X127769Y-121392D01*
X127792Y-121297D01*
X127816Y-121250D01*
X127840Y-121226D01*
X127888Y-121202D01*
X128364Y-121202D02*
X128411Y-121202D01*
X128459Y-121226D01*
X128483Y-121250D01*
X128507Y-121297D01*
X128530Y-121392D01*
X128530Y-121511D01*
X128507Y-121607D01*
X128483Y-121654D01*
X128459Y-121678D01*
X128411Y-121702D01*
X128364Y-121702D01*
X128316Y-121678D01*
X128292Y-121654D01*
X128269Y-121607D01*
X128245Y-121511D01*
X128245Y-121392D01*
X128269Y-121297D01*
X128292Y-121250D01*
X128316Y-121226D01*
X128364Y-121202D01*
X128959Y-121369D02*
X128959Y-121702D01*
X128840Y-121178D02*
X128721Y-121535D01*
X129030Y-121535D01*
G54D19*
X143107Y-96941D02*
X143007Y-96775D01*
X142935Y-96941D02*
X142935Y-96591D01*
X143050Y-96591D01*
X143078Y-96608D01*
X143092Y-96625D01*
X143107Y-96658D01*
X143107Y-96708D01*
X143092Y-96741D01*
X143078Y-96758D01*
X143050Y-96775D01*
X142935Y-96775D01*
X143392Y-96941D02*
X143221Y-96941D01*
X143307Y-96941D02*
X143307Y-96591D01*
X143278Y-96641D01*
X143250Y-96675D01*
X143221Y-96691D01*
X143650Y-96591D02*
X143592Y-96591D01*
X143564Y-96608D01*
X143550Y-96625D01*
X143521Y-96675D01*
X143507Y-96741D01*
X143507Y-96875D01*
X143521Y-96908D01*
X143535Y-96925D01*
X143564Y-96941D01*
X143621Y-96941D01*
X143650Y-96925D01*
X143664Y-96908D01*
X143678Y-96875D01*
X143678Y-96791D01*
X143664Y-96758D01*
X143650Y-96741D01*
X143621Y-96725D01*
X143564Y-96725D01*
X143535Y-96741D01*
X143521Y-96758D01*
X143507Y-96791D01*
X155092Y-94851D02*
X154992Y-94685D01*
X154921Y-94851D02*
X154921Y-94501D01*
X155035Y-94501D01*
X155064Y-94518D01*
X155078Y-94535D01*
X155092Y-94568D01*
X155092Y-94618D01*
X155078Y-94651D01*
X155064Y-94668D01*
X155035Y-94685D01*
X154921Y-94685D01*
X155207Y-94835D02*
X155250Y-94851D01*
X155321Y-94851D01*
X155350Y-94835D01*
X155364Y-94818D01*
X155378Y-94785D01*
X155378Y-94751D01*
X155364Y-94718D01*
X155350Y-94701D01*
X155321Y-94685D01*
X155264Y-94668D01*
X155235Y-94651D01*
X155221Y-94635D01*
X155207Y-94601D01*
X155207Y-94568D01*
X155221Y-94535D01*
X155235Y-94518D01*
X155264Y-94501D01*
X155335Y-94501D01*
X155378Y-94518D01*
X155507Y-94668D02*
X155607Y-94668D01*
X155650Y-94851D02*
X155507Y-94851D01*
X155507Y-94501D01*
X155650Y-94501D01*
X155778Y-94851D02*
X155778Y-94501D01*
X155950Y-94851D01*
X155950Y-94501D01*
X156078Y-94835D02*
X156121Y-94851D01*
X156192Y-94851D01*
X156221Y-94835D01*
X156235Y-94818D01*
X156250Y-94785D01*
X156250Y-94751D01*
X156235Y-94718D01*
X156221Y-94701D01*
X156192Y-94685D01*
X156135Y-94668D01*
X156107Y-94651D01*
X156092Y-94635D01*
X156078Y-94601D01*
X156078Y-94568D01*
X156092Y-94535D01*
X156107Y-94518D01*
X156135Y-94501D01*
X156207Y-94501D01*
X156250Y-94518D01*
X156378Y-94668D02*
X156478Y-94668D01*
X156521Y-94851D02*
X156378Y-94851D01*
X156378Y-94501D01*
X156521Y-94501D01*
X156935Y-94501D02*
X156964Y-94501D01*
X156992Y-94518D01*
X157007Y-94535D01*
X157021Y-94568D01*
X157035Y-94635D01*
X157035Y-94718D01*
X157021Y-94785D01*
X157007Y-94818D01*
X156992Y-94835D01*
X156964Y-94851D01*
X156935Y-94851D01*
X156907Y-94835D01*
X156892Y-94818D01*
X156878Y-94785D01*
X156864Y-94718D01*
X156864Y-94635D01*
X156878Y-94568D01*
X156892Y-94535D01*
X156907Y-94518D01*
X156935Y-94501D01*
X157164Y-94818D02*
X157178Y-94835D01*
X157164Y-94851D01*
X157150Y-94835D01*
X157164Y-94818D01*
X157164Y-94851D01*
X157364Y-94501D02*
X157392Y-94501D01*
X157421Y-94518D01*
X157435Y-94535D01*
X157450Y-94568D01*
X157464Y-94635D01*
X157464Y-94718D01*
X157450Y-94785D01*
X157435Y-94818D01*
X157421Y-94835D01*
X157392Y-94851D01*
X157364Y-94851D01*
X157335Y-94835D01*
X157321Y-94818D01*
X157307Y-94785D01*
X157292Y-94718D01*
X157292Y-94635D01*
X157307Y-94568D01*
X157321Y-94535D01*
X157335Y-94518D01*
X157364Y-94501D01*
X157735Y-94501D02*
X157592Y-94501D01*
X157578Y-94668D01*
X157592Y-94651D01*
X157621Y-94635D01*
X157692Y-94635D01*
X157721Y-94651D01*
X157735Y-94668D01*
X157749Y-94701D01*
X157749Y-94785D01*
X157735Y-94818D01*
X157721Y-94835D01*
X157692Y-94851D01*
X157621Y-94851D01*
X157592Y-94835D01*
X157578Y-94818D01*
X157921Y-94851D02*
X157892Y-94835D01*
X157878Y-94818D01*
X157864Y-94785D01*
X157864Y-94685D01*
X157878Y-94651D01*
X157892Y-94635D01*
X157921Y-94618D01*
X157964Y-94618D01*
X157992Y-94635D01*
X158007Y-94651D01*
X158021Y-94685D01*
X158021Y-94785D01*
X158007Y-94818D01*
X157992Y-94835D01*
X157964Y-94851D01*
X157921Y-94851D01*
X158150Y-94851D02*
X158150Y-94501D01*
X158278Y-94851D02*
X158278Y-94668D01*
X158264Y-94635D01*
X158235Y-94618D01*
X158192Y-94618D01*
X158164Y-94635D01*
X158150Y-94651D01*
X158421Y-94851D02*
X158421Y-94618D01*
X158421Y-94651D02*
X158435Y-94635D01*
X158464Y-94618D01*
X158507Y-94618D01*
X158535Y-94635D01*
X158550Y-94668D01*
X158550Y-94851D01*
X158550Y-94668D02*
X158564Y-94635D01*
X158592Y-94618D01*
X158635Y-94618D01*
X158664Y-94635D01*
X158678Y-94668D01*
X158678Y-94851D01*
G54D10*
X141060Y-93823D02*
X141060Y-93614D01*
X141165Y-93719D02*
X140955Y-93719D01*
G54D19*
X142537Y-100651D02*
X142437Y-100485D01*
X142365Y-100651D02*
X142365Y-100301D01*
X142480Y-100301D01*
X142508Y-100318D01*
X142522Y-100335D01*
X142537Y-100368D01*
X142537Y-100418D01*
X142522Y-100451D01*
X142508Y-100468D01*
X142480Y-100485D01*
X142365Y-100485D01*
X142822Y-100651D02*
X142651Y-100651D01*
X142737Y-100651D02*
X142737Y-100301D01*
X142708Y-100351D01*
X142680Y-100385D01*
X142651Y-100401D01*
X142922Y-100301D02*
X143122Y-100301D01*
X142994Y-100651D01*
X142431Y-99461D02*
X142260Y-99461D01*
X142345Y-99461D02*
X142345Y-99111D01*
X142317Y-99161D01*
X142288Y-99195D01*
X142260Y-99211D01*
X142560Y-99461D02*
X142560Y-99111D01*
X142660Y-99361D01*
X142760Y-99111D01*
X142760Y-99461D01*
X143045Y-99111D02*
X142902Y-99111D01*
X142888Y-99278D01*
X142902Y-99261D01*
X142931Y-99245D01*
X143002Y-99245D01*
X143031Y-99261D01*
X143045Y-99278D01*
X143060Y-99311D01*
X143060Y-99395D01*
X143045Y-99428D01*
X143031Y-99445D01*
X143002Y-99461D01*
X142931Y-99461D01*
X142902Y-99445D01*
X142888Y-99428D01*
G54D10*
X140734Y-100232D02*
X140943Y-100232D01*
X140839Y-100337D02*
X140839Y-100127D01*
G54D36*
X137749Y-99891D02*
X137655Y-99957D01*
X137749Y-100004D02*
X137552Y-100004D01*
X137552Y-99929D01*
X137562Y-99910D01*
X137571Y-99901D01*
X137590Y-99891D01*
X137618Y-99891D01*
X137637Y-99901D01*
X137646Y-99910D01*
X137655Y-99929D01*
X137655Y-100004D01*
X137749Y-99704D02*
X137749Y-99816D01*
X137749Y-99760D02*
X137552Y-99760D01*
X137580Y-99779D01*
X137599Y-99797D01*
X137609Y-99816D01*
X137637Y-99591D02*
X137627Y-99610D01*
X137618Y-99619D01*
X137599Y-99628D01*
X137590Y-99628D01*
X137571Y-99619D01*
X137562Y-99610D01*
X137552Y-99591D01*
X137552Y-99553D01*
X137562Y-99535D01*
X137571Y-99525D01*
X137590Y-99516D01*
X137599Y-99516D01*
X137618Y-99525D01*
X137627Y-99535D01*
X137637Y-99553D01*
X137637Y-99591D01*
X137646Y-99610D01*
X137655Y-99619D01*
X137674Y-99628D01*
X137712Y-99628D01*
X137730Y-99619D01*
X137740Y-99610D01*
X137749Y-99591D01*
X137749Y-99553D01*
X137740Y-99535D01*
X137730Y-99525D01*
X137712Y-99516D01*
X137674Y-99516D01*
X137655Y-99525D01*
X137646Y-99535D01*
X137637Y-99553D01*
X154189Y-99906D02*
X154189Y-100018D01*
X154189Y-99962D02*
X153992Y-99962D01*
X154020Y-99981D01*
X154039Y-99999D01*
X154049Y-100018D01*
X153992Y-99784D02*
X153992Y-99765D01*
X154002Y-99746D01*
X154011Y-99737D01*
X154030Y-99727D01*
X154067Y-99718D01*
X154114Y-99718D01*
X154152Y-99727D01*
X154170Y-99737D01*
X154180Y-99746D01*
X154189Y-99765D01*
X154189Y-99784D01*
X154180Y-99802D01*
X154170Y-99812D01*
X154152Y-99821D01*
X154114Y-99830D01*
X154067Y-99830D01*
X154030Y-99821D01*
X154011Y-99812D01*
X154002Y-99802D01*
X153992Y-99784D01*
X154189Y-99633D02*
X153992Y-99633D01*
X154189Y-99521D02*
X154077Y-99605D01*
X153992Y-99521D02*
X154105Y-99633D01*
X141588Y-97590D02*
X141578Y-97600D01*
X141550Y-97609D01*
X141532Y-97609D01*
X141503Y-97600D01*
X141485Y-97581D01*
X141475Y-97562D01*
X141466Y-97525D01*
X141466Y-97497D01*
X141475Y-97459D01*
X141485Y-97440D01*
X141503Y-97422D01*
X141532Y-97412D01*
X141550Y-97412D01*
X141578Y-97422D01*
X141588Y-97431D01*
X141775Y-97609D02*
X141663Y-97609D01*
X141719Y-97609D02*
X141719Y-97412D01*
X141700Y-97440D01*
X141682Y-97459D01*
X141663Y-97469D01*
X141963Y-97609D02*
X141851Y-97609D01*
X141907Y-97609D02*
X141907Y-97412D01*
X141888Y-97440D01*
X141869Y-97459D01*
X141851Y-97469D01*
X154885Y-97974D02*
X154772Y-97974D01*
X154828Y-97974D02*
X154828Y-97777D01*
X154810Y-97805D01*
X154791Y-97824D01*
X154772Y-97834D01*
X155007Y-97777D02*
X155025Y-97777D01*
X155044Y-97787D01*
X155053Y-97796D01*
X155063Y-97815D01*
X155072Y-97852D01*
X155072Y-97899D01*
X155063Y-97937D01*
X155053Y-97955D01*
X155044Y-97965D01*
X155025Y-97974D01*
X155007Y-97974D01*
X154988Y-97965D01*
X154978Y-97955D01*
X154969Y-97937D01*
X154960Y-97899D01*
X154960Y-97852D01*
X154969Y-97815D01*
X154978Y-97796D01*
X154988Y-97787D01*
X155007Y-97777D01*
X155194Y-97777D02*
X155213Y-97777D01*
X155232Y-97787D01*
X155241Y-97796D01*
X155250Y-97815D01*
X155260Y-97852D01*
X155260Y-97899D01*
X155250Y-97937D01*
X155241Y-97955D01*
X155232Y-97965D01*
X155213Y-97974D01*
X155194Y-97974D01*
X155175Y-97965D01*
X155166Y-97955D01*
X155157Y-97937D01*
X155147Y-97899D01*
X155147Y-97852D01*
X155157Y-97815D01*
X155166Y-97796D01*
X155175Y-97787D01*
X155194Y-97777D01*
X155344Y-97843D02*
X155344Y-97974D01*
X155344Y-97862D02*
X155354Y-97852D01*
X155372Y-97843D01*
X155401Y-97843D01*
X155419Y-97852D01*
X155429Y-97871D01*
X155429Y-97974D01*
X155588Y-97871D02*
X155523Y-97871D01*
X155523Y-97974D02*
X155523Y-97777D01*
X155616Y-97777D01*
X136830Y-97906D02*
X136840Y-97916D01*
X136849Y-97944D01*
X136849Y-97962D01*
X136840Y-97991D01*
X136821Y-98009D01*
X136802Y-98019D01*
X136765Y-98028D01*
X136737Y-98028D01*
X136699Y-98019D01*
X136680Y-98009D01*
X136662Y-97991D01*
X136652Y-97962D01*
X136652Y-97944D01*
X136662Y-97916D01*
X136671Y-97906D01*
X136849Y-97719D02*
X136849Y-97831D01*
X136849Y-97775D02*
X136652Y-97775D01*
X136680Y-97794D01*
X136699Y-97812D01*
X136709Y-97831D01*
X136652Y-97597D02*
X136652Y-97578D01*
X136662Y-97559D01*
X136671Y-97550D01*
X136690Y-97540D01*
X136727Y-97531D01*
X136774Y-97531D01*
X136812Y-97540D01*
X136830Y-97550D01*
X136840Y-97559D01*
X136849Y-97578D01*
X136849Y-97597D01*
X136840Y-97615D01*
X136830Y-97625D01*
X136812Y-97634D01*
X136774Y-97643D01*
X136727Y-97643D01*
X136690Y-97634D01*
X136671Y-97625D01*
X136662Y-97615D01*
X136652Y-97597D01*
X155864Y-98374D02*
X155864Y-98487D01*
X155864Y-98431D02*
X155667Y-98431D01*
X155695Y-98449D01*
X155714Y-98468D01*
X155724Y-98487D01*
X155667Y-98252D02*
X155667Y-98234D01*
X155677Y-98215D01*
X155686Y-98206D01*
X155705Y-98196D01*
X155742Y-98187D01*
X155789Y-98187D01*
X155827Y-98196D01*
X155845Y-98206D01*
X155855Y-98215D01*
X155864Y-98234D01*
X155864Y-98252D01*
X155855Y-98271D01*
X155845Y-98281D01*
X155827Y-98290D01*
X155789Y-98299D01*
X155742Y-98299D01*
X155705Y-98290D01*
X155686Y-98281D01*
X155677Y-98271D01*
X155667Y-98252D01*
X155667Y-98065D02*
X155667Y-98046D01*
X155677Y-98027D01*
X155686Y-98018D01*
X155705Y-98009D01*
X155742Y-97999D01*
X155789Y-97999D01*
X155827Y-98009D01*
X155845Y-98018D01*
X155855Y-98027D01*
X155864Y-98046D01*
X155864Y-98065D01*
X155855Y-98084D01*
X155845Y-98093D01*
X155827Y-98102D01*
X155789Y-98112D01*
X155742Y-98112D01*
X155705Y-98102D01*
X155686Y-98093D01*
X155677Y-98084D01*
X155667Y-98065D01*
X155733Y-97915D02*
X155864Y-97915D01*
X155752Y-97915D02*
X155742Y-97905D01*
X155733Y-97887D01*
X155733Y-97858D01*
X155742Y-97840D01*
X155761Y-97830D01*
X155864Y-97830D01*
X155761Y-97671D02*
X155761Y-97736D01*
X155864Y-97736D02*
X155667Y-97736D01*
X155667Y-97643D01*
G54D21*
X138400Y-93767D02*
X138628Y-93767D01*
X138514Y-94367D02*
X138514Y-93767D01*
X138971Y-94367D02*
X138743Y-94367D01*
X138857Y-94367D02*
X138857Y-93767D01*
X138819Y-93853D01*
X138781Y-93910D01*
X138743Y-93939D01*
X142042Y-75342D02*
X141442Y-75342D01*
X142042Y-74923D02*
X141757Y-75057D01*
X142042Y-75152D02*
X141442Y-75152D01*
X141442Y-75000D01*
X141471Y-74961D01*
X141500Y-74942D01*
X141557Y-74923D01*
X141642Y-74923D01*
X141700Y-74942D01*
X141728Y-74961D01*
X141757Y-75000D01*
X141757Y-75152D01*
X141728Y-74619D02*
X141728Y-74752D01*
X142042Y-74752D02*
X141442Y-74752D01*
X141442Y-74561D01*
X141442Y-74238D02*
X141442Y-74314D01*
X141471Y-74352D01*
X141500Y-74371D01*
X141585Y-74409D01*
X141700Y-74428D01*
X141928Y-74428D01*
X141985Y-74409D01*
X142014Y-74390D01*
X142042Y-74352D01*
X142042Y-74276D01*
X142014Y-74238D01*
X141985Y-74219D01*
X141928Y-74200D01*
X141785Y-74200D01*
X141728Y-74219D01*
X141700Y-74238D01*
X141671Y-74276D01*
X141671Y-74352D01*
X141700Y-74390D01*
X141728Y-74409D01*
X141785Y-74428D01*
X141642Y-73857D02*
X142042Y-73857D01*
X141414Y-73952D02*
X141842Y-74047D01*
X141842Y-73800D01*
X141642Y-73476D02*
X142042Y-73476D01*
X141414Y-73571D02*
X141842Y-73666D01*
X141842Y-73419D01*
G54D37*
X134310Y-99022D02*
X134320Y-99032D01*
X134329Y-99060D01*
X134329Y-99079D01*
X134320Y-99107D01*
X134301Y-99126D01*
X134282Y-99135D01*
X134245Y-99144D01*
X134217Y-99144D01*
X134179Y-99135D01*
X134160Y-99126D01*
X134142Y-99107D01*
X134132Y-99079D01*
X134132Y-99060D01*
X134142Y-99032D01*
X134151Y-99022D01*
X134132Y-98957D02*
X134132Y-98825D01*
X134329Y-98910D01*
X144432Y-95538D02*
X144422Y-95548D01*
X144394Y-95557D01*
X144376Y-95557D01*
X144347Y-95548D01*
X144329Y-95529D01*
X144319Y-95510D01*
X144310Y-95473D01*
X144310Y-95445D01*
X144319Y-95407D01*
X144329Y-95388D01*
X144347Y-95370D01*
X144376Y-95360D01*
X144394Y-95360D01*
X144422Y-95370D01*
X144432Y-95379D01*
X144619Y-95557D02*
X144507Y-95557D01*
X144563Y-95557D02*
X144563Y-95360D01*
X144544Y-95388D01*
X144526Y-95407D01*
X144507Y-95417D01*
X144685Y-95360D02*
X144807Y-95360D01*
X144741Y-95435D01*
X144770Y-95435D01*
X144788Y-95445D01*
X144798Y-95454D01*
X144807Y-95473D01*
X144807Y-95520D01*
X144798Y-95538D01*
X144788Y-95548D01*
X144770Y-95557D01*
X144713Y-95557D01*
X144695Y-95548D01*
X144685Y-95538D01*
G54D38*
X138049Y-98950D02*
X138180Y-99344D01*
X138311Y-98950D01*
X138668Y-99344D02*
X138536Y-99156D01*
X138443Y-99344D02*
X138443Y-98950D01*
X138593Y-98950D01*
X138630Y-98969D01*
X138649Y-98988D01*
X138668Y-99025D01*
X138668Y-99081D01*
X138649Y-99119D01*
X138630Y-99138D01*
X138593Y-99156D01*
X138443Y-99156D01*
X139043Y-99344D02*
X138818Y-99344D01*
X138930Y-99344D02*
X138930Y-98950D01*
X138893Y-99006D01*
X138855Y-99044D01*
X138818Y-99063D01*
G54D39*
X155041Y-99205D02*
X154854Y-99205D01*
X154835Y-99393D01*
X154854Y-99374D01*
X154891Y-99355D01*
X154985Y-99355D01*
X155023Y-99374D01*
X155041Y-99393D01*
X155060Y-99430D01*
X155060Y-99524D01*
X155041Y-99561D01*
X155023Y-99580D01*
X154985Y-99599D01*
X154891Y-99599D01*
X154854Y-99580D01*
X154835Y-99561D01*
X155229Y-99599D02*
X155229Y-99205D01*
X155454Y-99599D02*
X155285Y-99374D01*
X155454Y-99205D02*
X155229Y-99430D01*
G54D36*
X128355Y-91095D02*
X128289Y-91001D01*
X128242Y-91095D02*
X128242Y-90898D01*
X128317Y-90898D01*
X128336Y-90908D01*
X128345Y-90917D01*
X128355Y-90936D01*
X128355Y-90964D01*
X128345Y-90983D01*
X128336Y-90992D01*
X128317Y-91001D01*
X128242Y-91001D01*
X128542Y-91095D02*
X128430Y-91095D01*
X128486Y-91095D02*
X128486Y-90898D01*
X128467Y-90926D01*
X128449Y-90945D01*
X128430Y-90955D01*
X128636Y-91095D02*
X128674Y-91095D01*
X128693Y-91086D01*
X128702Y-91076D01*
X128721Y-91048D01*
X128730Y-91011D01*
X128730Y-90936D01*
X128721Y-90917D01*
X128711Y-90908D01*
X128693Y-90898D01*
X128655Y-90898D01*
X128636Y-90908D01*
X128627Y-90917D01*
X128618Y-90936D01*
X128618Y-90983D01*
X128627Y-91001D01*
X128636Y-91011D01*
X128655Y-91020D01*
X128693Y-91020D01*
X128711Y-91011D01*
X128721Y-91001D01*
X128730Y-90983D01*
X128196Y-91835D02*
X128196Y-91816D01*
X128206Y-91797D01*
X128215Y-91788D01*
X128234Y-91779D01*
X128271Y-91769D01*
X128318Y-91769D01*
X128356Y-91779D01*
X128374Y-91788D01*
X128384Y-91797D01*
X128393Y-91816D01*
X128393Y-91835D01*
X128384Y-91854D01*
X128374Y-91863D01*
X128356Y-91872D01*
X128318Y-91882D01*
X128271Y-91882D01*
X128234Y-91872D01*
X128215Y-91863D01*
X128206Y-91854D01*
X128196Y-91835D01*
X128433Y-94123D02*
X128367Y-94029D01*
X128320Y-94123D02*
X128320Y-93926D01*
X128395Y-93926D01*
X128414Y-93936D01*
X128423Y-93945D01*
X128433Y-93964D01*
X128433Y-93992D01*
X128423Y-94011D01*
X128414Y-94020D01*
X128395Y-94029D01*
X128320Y-94029D01*
X128545Y-94011D02*
X128526Y-94001D01*
X128517Y-93992D01*
X128508Y-93973D01*
X128508Y-93964D01*
X128517Y-93945D01*
X128526Y-93936D01*
X128545Y-93926D01*
X128583Y-93926D01*
X128602Y-93936D01*
X128611Y-93945D01*
X128620Y-93964D01*
X128620Y-93973D01*
X128611Y-93992D01*
X128602Y-94001D01*
X128583Y-94011D01*
X128545Y-94011D01*
X128526Y-94020D01*
X128517Y-94029D01*
X128508Y-94048D01*
X128508Y-94086D01*
X128517Y-94104D01*
X128526Y-94114D01*
X128545Y-94123D01*
X128583Y-94123D01*
X128602Y-94114D01*
X128611Y-94104D01*
X128620Y-94086D01*
X128620Y-94048D01*
X128611Y-94029D01*
X128602Y-94020D01*
X128583Y-94011D01*
X128490Y-93259D02*
X128490Y-93240D01*
X128500Y-93221D01*
X128509Y-93212D01*
X128528Y-93203D01*
X128565Y-93193D01*
X128612Y-93193D01*
X128650Y-93203D01*
X128668Y-93212D01*
X128678Y-93221D01*
X128687Y-93240D01*
X128687Y-93259D01*
X128678Y-93278D01*
X128668Y-93287D01*
X128650Y-93296D01*
X128612Y-93306D01*
X128565Y-93306D01*
X128528Y-93296D01*
X128509Y-93287D01*
X128500Y-93278D01*
X128490Y-93259D01*
G54D37*
X132200Y-96501D02*
X132210Y-96511D01*
X132219Y-96539D01*
X132219Y-96557D01*
X132210Y-96586D01*
X132191Y-96604D01*
X132172Y-96614D01*
X132135Y-96623D01*
X132107Y-96623D01*
X132069Y-96614D01*
X132050Y-96604D01*
X132032Y-96586D01*
X132022Y-96557D01*
X132022Y-96539D01*
X132032Y-96511D01*
X132041Y-96501D01*
X132219Y-96314D02*
X132219Y-96426D01*
X132219Y-96370D02*
X132022Y-96370D01*
X132050Y-96389D01*
X132069Y-96407D01*
X132079Y-96426D01*
X132107Y-96201D02*
X132097Y-96220D01*
X132088Y-96229D01*
X132069Y-96238D01*
X132060Y-96238D01*
X132041Y-96229D01*
X132032Y-96220D01*
X132022Y-96201D01*
X132022Y-96163D01*
X132032Y-96145D01*
X132041Y-96135D01*
X132060Y-96126D01*
X132069Y-96126D01*
X132088Y-96135D01*
X132097Y-96145D01*
X132107Y-96163D01*
X132107Y-96201D01*
X132116Y-96220D01*
X132125Y-96229D01*
X132144Y-96238D01*
X132182Y-96238D01*
X132200Y-96229D01*
X132210Y-96220D01*
X132219Y-96201D01*
X132219Y-96163D01*
X132210Y-96145D01*
X132200Y-96135D01*
X132182Y-96126D01*
X132144Y-96126D01*
X132125Y-96135D01*
X132116Y-96145D01*
X132107Y-96163D01*
G54D18*
X126921Y-120792D02*
X126921Y-120192D01*
X127150Y-120192D01*
X127207Y-120221D01*
X127235Y-120250D01*
X127264Y-120307D01*
X127264Y-120392D01*
X127235Y-120450D01*
X127207Y-120478D01*
X127150Y-120507D01*
X126921Y-120507D01*
X127492Y-120250D02*
X127521Y-120221D01*
X127578Y-120192D01*
X127721Y-120192D01*
X127778Y-120221D01*
X127807Y-120250D01*
X127835Y-120307D01*
X127835Y-120364D01*
X127807Y-120450D01*
X127464Y-120792D01*
X127835Y-120792D01*
X128207Y-120192D02*
X128264Y-120192D01*
X128321Y-120221D01*
X128350Y-120250D01*
X128378Y-120307D01*
X128407Y-120421D01*
X128407Y-120564D01*
X128378Y-120678D01*
X128350Y-120735D01*
X128321Y-120764D01*
X128264Y-120792D01*
X128207Y-120792D01*
X128150Y-120764D01*
X128121Y-120735D01*
X128092Y-120678D01*
X128064Y-120564D01*
X128064Y-120421D01*
X128092Y-120307D01*
X128121Y-120250D01*
X128150Y-120221D01*
X128207Y-120192D01*
X157535Y-102471D02*
X157564Y-102499D01*
X157592Y-102585D01*
X157592Y-102642D01*
X157564Y-102728D01*
X157507Y-102785D01*
X157450Y-102814D01*
X157335Y-102842D01*
X157250Y-102842D01*
X157135Y-102814D01*
X157078Y-102785D01*
X157021Y-102728D01*
X156992Y-102642D01*
X156992Y-102585D01*
X157021Y-102499D01*
X157050Y-102471D01*
X156992Y-102099D02*
X156992Y-101985D01*
X157021Y-101928D01*
X157078Y-101871D01*
X157192Y-101842D01*
X157392Y-101842D01*
X157507Y-101871D01*
X157564Y-101928D01*
X157592Y-101985D01*
X157592Y-102099D01*
X157564Y-102157D01*
X157507Y-102214D01*
X157392Y-102242D01*
X157192Y-102242D01*
X157078Y-102214D01*
X157021Y-102157D01*
X156992Y-102099D01*
X157592Y-101585D02*
X156992Y-101585D01*
X157592Y-101242D01*
X156992Y-101242D01*
X157592Y-100957D02*
X156992Y-100957D01*
X157592Y-100614D01*
X156992Y-100614D01*
X157650Y-100471D02*
X157650Y-100014D01*
X157592Y-99557D02*
X157592Y-99900D01*
X157592Y-99728D02*
X156992Y-99728D01*
X157078Y-99785D01*
X157135Y-99842D01*
X157164Y-99900D01*
X126471Y-121892D02*
X126471Y-121292D01*
X126700Y-121292D01*
X126757Y-121321D01*
X126785Y-121350D01*
X126814Y-121407D01*
X126814Y-121492D01*
X126785Y-121550D01*
X126757Y-121578D01*
X126700Y-121607D01*
X126471Y-121607D01*
X127042Y-121350D02*
X127071Y-121321D01*
X127128Y-121292D01*
X127271Y-121292D01*
X127328Y-121321D01*
X127357Y-121350D01*
X127385Y-121407D01*
X127385Y-121464D01*
X127357Y-121550D01*
X127014Y-121892D01*
X127385Y-121892D01*
X127957Y-121892D02*
X127614Y-121892D01*
X127785Y-121892D02*
X127785Y-121292D01*
X127728Y-121378D01*
X127671Y-121435D01*
X127614Y-121464D01*
X157235Y-103421D02*
X157264Y-103449D01*
X157292Y-103535D01*
X157292Y-103592D01*
X157264Y-103678D01*
X157207Y-103735D01*
X157150Y-103764D01*
X157035Y-103792D01*
X156950Y-103792D01*
X156835Y-103764D01*
X156778Y-103735D01*
X156721Y-103678D01*
X156692Y-103592D01*
X156692Y-103535D01*
X156721Y-103449D01*
X156750Y-103421D01*
X156692Y-103049D02*
X156692Y-102935D01*
X156721Y-102878D01*
X156778Y-102821D01*
X156892Y-102792D01*
X157092Y-102792D01*
X157207Y-102821D01*
X157264Y-102878D01*
X157292Y-102935D01*
X157292Y-103049D01*
X157264Y-103107D01*
X157207Y-103164D01*
X157092Y-103192D01*
X156892Y-103192D01*
X156778Y-103164D01*
X156721Y-103107D01*
X156692Y-103049D01*
X157292Y-102535D02*
X156692Y-102535D01*
X157292Y-102192D01*
X156692Y-102192D01*
X157292Y-101907D02*
X156692Y-101907D01*
X157292Y-101564D01*
X156692Y-101564D01*
X157350Y-101421D02*
X157350Y-100964D01*
X157292Y-100507D02*
X157292Y-100850D01*
X157292Y-100678D02*
X156692Y-100678D01*
X156778Y-100735D01*
X156835Y-100792D01*
X156864Y-100850D01*
X154046Y-100792D02*
X154046Y-100192D01*
X154275Y-100192D01*
X154332Y-100221D01*
X154360Y-100250D01*
X154389Y-100307D01*
X154389Y-100392D01*
X154360Y-100450D01*
X154332Y-100478D01*
X154275Y-100507D01*
X154046Y-100507D01*
X154617Y-100250D02*
X154646Y-100221D01*
X154703Y-100192D01*
X154846Y-100192D01*
X154903Y-100221D01*
X154932Y-100250D01*
X154960Y-100307D01*
X154960Y-100364D01*
X154932Y-100450D01*
X154589Y-100792D01*
X154960Y-100792D01*
X155189Y-100250D02*
X155217Y-100221D01*
X155275Y-100192D01*
X155417Y-100192D01*
X155475Y-100221D01*
X155503Y-100250D01*
X155532Y-100307D01*
X155532Y-100364D01*
X155503Y-100450D01*
X155160Y-100792D01*
X155532Y-100792D01*
X157655Y-99887D02*
X157684Y-99915D01*
X157712Y-100001D01*
X157712Y-100058D01*
X157684Y-100144D01*
X157627Y-100201D01*
X157570Y-100230D01*
X157455Y-100258D01*
X157370Y-100258D01*
X157255Y-100230D01*
X157198Y-100201D01*
X157141Y-100144D01*
X157112Y-100058D01*
X157112Y-100001D01*
X157141Y-99915D01*
X157170Y-99887D01*
X157112Y-99515D02*
X157112Y-99401D01*
X157141Y-99344D01*
X157198Y-99287D01*
X157312Y-99258D01*
X157512Y-99258D01*
X157627Y-99287D01*
X157684Y-99344D01*
X157712Y-99401D01*
X157712Y-99515D01*
X157684Y-99573D01*
X157627Y-99630D01*
X157512Y-99658D01*
X157312Y-99658D01*
X157198Y-99630D01*
X157141Y-99573D01*
X157112Y-99515D01*
X157712Y-99001D02*
X157112Y-99001D01*
X157712Y-98658D01*
X157112Y-98658D01*
X157712Y-98373D02*
X157112Y-98373D01*
X157712Y-98030D01*
X157112Y-98030D01*
X157770Y-97887D02*
X157770Y-97430D01*
X157712Y-96973D02*
X157712Y-97316D01*
X157712Y-97144D02*
X157112Y-97144D01*
X157198Y-97201D01*
X157255Y-97258D01*
X157284Y-97316D01*
X153446Y-99667D02*
X153446Y-99067D01*
X153675Y-99067D01*
X153732Y-99096D01*
X153760Y-99125D01*
X153789Y-99182D01*
X153789Y-99267D01*
X153760Y-99325D01*
X153732Y-99353D01*
X153675Y-99382D01*
X153446Y-99382D01*
X154017Y-99125D02*
X154046Y-99096D01*
X154103Y-99067D01*
X154246Y-99067D01*
X154303Y-99096D01*
X154332Y-99125D01*
X154360Y-99182D01*
X154360Y-99239D01*
X154332Y-99325D01*
X153989Y-99667D01*
X154360Y-99667D01*
X154560Y-99067D02*
X154932Y-99067D01*
X154732Y-99296D01*
X154817Y-99296D01*
X154875Y-99325D01*
X154903Y-99353D01*
X154932Y-99410D01*
X154932Y-99553D01*
X154903Y-99610D01*
X154875Y-99639D01*
X154817Y-99667D01*
X154646Y-99667D01*
X154589Y-99639D01*
X154560Y-99610D01*
X154085Y-101021D02*
X154114Y-101049D01*
X154142Y-101135D01*
X154142Y-101192D01*
X154114Y-101278D01*
X154057Y-101335D01*
X154000Y-101364D01*
X153885Y-101392D01*
X153800Y-101392D01*
X153685Y-101364D01*
X153628Y-101335D01*
X153571Y-101278D01*
X153542Y-101192D01*
X153542Y-101135D01*
X153571Y-101049D01*
X153600Y-101021D01*
X153542Y-100649D02*
X153542Y-100535D01*
X153571Y-100478D01*
X153628Y-100421D01*
X153742Y-100392D01*
X153942Y-100392D01*
X154057Y-100421D01*
X154114Y-100478D01*
X154142Y-100535D01*
X154142Y-100649D01*
X154114Y-100707D01*
X154057Y-100764D01*
X153942Y-100792D01*
X153742Y-100792D01*
X153628Y-100764D01*
X153571Y-100707D01*
X153542Y-100649D01*
X154142Y-100135D02*
X153542Y-100135D01*
X154142Y-99792D01*
X153542Y-99792D01*
X154142Y-99507D02*
X153542Y-99507D01*
X154142Y-99164D01*
X153542Y-99164D01*
X154200Y-99021D02*
X154200Y-98564D01*
X154142Y-98107D02*
X154142Y-98450D01*
X154142Y-98278D02*
X153542Y-98278D01*
X153628Y-98335D01*
X153685Y-98392D01*
X153714Y-98450D01*
X156321Y-95442D02*
X156321Y-94842D01*
X156550Y-94842D01*
X156607Y-94871D01*
X156635Y-94900D01*
X156664Y-94957D01*
X156664Y-95042D01*
X156635Y-95100D01*
X156607Y-95128D01*
X156550Y-95157D01*
X156321Y-95157D01*
X156892Y-94900D02*
X156921Y-94871D01*
X156978Y-94842D01*
X157121Y-94842D01*
X157178Y-94871D01*
X157207Y-94900D01*
X157235Y-94957D01*
X157235Y-95014D01*
X157207Y-95100D01*
X156864Y-95442D01*
X157235Y-95442D01*
X157750Y-95042D02*
X157750Y-95442D01*
X157607Y-94814D02*
X157464Y-95242D01*
X157835Y-95242D01*
X156495Y-95877D02*
X156524Y-95905D01*
X156552Y-95991D01*
X156552Y-96048D01*
X156524Y-96134D01*
X156467Y-96191D01*
X156410Y-96220D01*
X156295Y-96248D01*
X156210Y-96248D01*
X156095Y-96220D01*
X156038Y-96191D01*
X155981Y-96134D01*
X155952Y-96048D01*
X155952Y-95991D01*
X155981Y-95905D01*
X156010Y-95877D01*
X155952Y-95505D02*
X155952Y-95391D01*
X155981Y-95334D01*
X156038Y-95277D01*
X156152Y-95248D01*
X156352Y-95248D01*
X156467Y-95277D01*
X156524Y-95334D01*
X156552Y-95391D01*
X156552Y-95505D01*
X156524Y-95563D01*
X156467Y-95620D01*
X156352Y-95648D01*
X156152Y-95648D01*
X156038Y-95620D01*
X155981Y-95563D01*
X155952Y-95505D01*
X156552Y-94991D02*
X155952Y-94991D01*
X156552Y-94648D01*
X155952Y-94648D01*
X156552Y-94363D02*
X155952Y-94363D01*
X156552Y-94020D01*
X155952Y-94020D01*
X156610Y-93877D02*
X156610Y-93420D01*
X156552Y-92963D02*
X156552Y-93306D01*
X156552Y-93134D02*
X155952Y-93134D01*
X156038Y-93191D01*
X156095Y-93248D01*
X156124Y-93306D01*
X103761Y-92342D02*
X103761Y-91742D01*
X103990Y-91742D01*
X104047Y-91771D01*
X104075Y-91800D01*
X104104Y-91857D01*
X104104Y-91942D01*
X104075Y-92000D01*
X104047Y-92028D01*
X103990Y-92057D01*
X103761Y-92057D01*
X104332Y-91800D02*
X104361Y-91771D01*
X104418Y-91742D01*
X104561Y-91742D01*
X104618Y-91771D01*
X104647Y-91800D01*
X104675Y-91857D01*
X104675Y-91914D01*
X104647Y-92000D01*
X104304Y-92342D01*
X104675Y-92342D01*
X105190Y-91742D02*
X105075Y-91742D01*
X105018Y-91771D01*
X104990Y-91800D01*
X104932Y-91885D01*
X104904Y-92000D01*
X104904Y-92228D01*
X104932Y-92285D01*
X104961Y-92314D01*
X105018Y-92342D01*
X105132Y-92342D01*
X105190Y-92314D01*
X105218Y-92285D01*
X105247Y-92228D01*
X105247Y-92085D01*
X105218Y-92028D01*
X105190Y-92000D01*
X105132Y-91971D01*
X105018Y-91971D01*
X104961Y-92000D01*
X104932Y-92028D01*
X104904Y-92085D01*
X111637Y-90695D02*
X111666Y-90723D01*
X111694Y-90809D01*
X111694Y-90866D01*
X111666Y-90952D01*
X111609Y-91009D01*
X111552Y-91038D01*
X111437Y-91066D01*
X111352Y-91066D01*
X111237Y-91038D01*
X111180Y-91009D01*
X111123Y-90952D01*
X111094Y-90866D01*
X111094Y-90809D01*
X111123Y-90723D01*
X111152Y-90695D01*
X111094Y-90323D02*
X111094Y-90209D01*
X111123Y-90152D01*
X111180Y-90095D01*
X111294Y-90066D01*
X111494Y-90066D01*
X111609Y-90095D01*
X111666Y-90152D01*
X111694Y-90209D01*
X111694Y-90323D01*
X111666Y-90381D01*
X111609Y-90438D01*
X111494Y-90466D01*
X111294Y-90466D01*
X111180Y-90438D01*
X111123Y-90381D01*
X111094Y-90323D01*
X111694Y-89809D02*
X111094Y-89809D01*
X111694Y-89466D01*
X111094Y-89466D01*
X111694Y-89181D02*
X111094Y-89181D01*
X111694Y-88838D01*
X111094Y-88838D01*
X111752Y-88695D02*
X111752Y-88238D01*
X111694Y-87781D02*
X111694Y-88124D01*
X111694Y-87952D02*
X111094Y-87952D01*
X111180Y-88009D01*
X111237Y-88066D01*
X111266Y-88124D01*
X104111Y-89042D02*
X104111Y-88442D01*
X104340Y-88442D01*
X104397Y-88471D01*
X104425Y-88500D01*
X104454Y-88557D01*
X104454Y-88642D01*
X104425Y-88700D01*
X104397Y-88728D01*
X104340Y-88757D01*
X104111Y-88757D01*
X104682Y-88500D02*
X104711Y-88471D01*
X104768Y-88442D01*
X104911Y-88442D01*
X104968Y-88471D01*
X104997Y-88500D01*
X105025Y-88557D01*
X105025Y-88614D01*
X104997Y-88700D01*
X104654Y-89042D01*
X105025Y-89042D01*
X105225Y-88442D02*
X105625Y-88442D01*
X105368Y-89042D01*
X112039Y-87457D02*
X112068Y-87485D01*
X112096Y-87571D01*
X112096Y-87628D01*
X112068Y-87714D01*
X112011Y-87771D01*
X111954Y-87800D01*
X111839Y-87828D01*
X111754Y-87828D01*
X111639Y-87800D01*
X111582Y-87771D01*
X111525Y-87714D01*
X111496Y-87628D01*
X111496Y-87571D01*
X111525Y-87485D01*
X111554Y-87457D01*
X111496Y-87085D02*
X111496Y-86971D01*
X111525Y-86914D01*
X111582Y-86857D01*
X111696Y-86828D01*
X111896Y-86828D01*
X112011Y-86857D01*
X112068Y-86914D01*
X112096Y-86971D01*
X112096Y-87085D01*
X112068Y-87143D01*
X112011Y-87200D01*
X111896Y-87228D01*
X111696Y-87228D01*
X111582Y-87200D01*
X111525Y-87143D01*
X111496Y-87085D01*
X112096Y-86571D02*
X111496Y-86571D01*
X112096Y-86228D01*
X111496Y-86228D01*
X112096Y-85943D02*
X111496Y-85943D01*
X112096Y-85600D01*
X111496Y-85600D01*
X112154Y-85457D02*
X112154Y-85000D01*
X112096Y-84543D02*
X112096Y-84886D01*
X112096Y-84714D02*
X111496Y-84714D01*
X111582Y-84771D01*
X111639Y-84828D01*
X111668Y-84886D01*
X107861Y-84692D02*
X107861Y-84092D01*
X108090Y-84092D01*
X108147Y-84121D01*
X108175Y-84150D01*
X108204Y-84207D01*
X108204Y-84292D01*
X108175Y-84350D01*
X108147Y-84378D01*
X108090Y-84407D01*
X107861Y-84407D01*
X108432Y-84150D02*
X108461Y-84121D01*
X108518Y-84092D01*
X108661Y-84092D01*
X108718Y-84121D01*
X108747Y-84150D01*
X108775Y-84207D01*
X108775Y-84264D01*
X108747Y-84350D01*
X108404Y-84692D01*
X108775Y-84692D01*
X109118Y-84350D02*
X109061Y-84321D01*
X109032Y-84292D01*
X109004Y-84235D01*
X109004Y-84207D01*
X109032Y-84150D01*
X109061Y-84121D01*
X109118Y-84092D01*
X109232Y-84092D01*
X109290Y-84121D01*
X109318Y-84150D01*
X109347Y-84207D01*
X109347Y-84235D01*
X109318Y-84292D01*
X109290Y-84321D01*
X109232Y-84350D01*
X109118Y-84350D01*
X109061Y-84378D01*
X109032Y-84407D01*
X109004Y-84464D01*
X109004Y-84578D01*
X109032Y-84635D01*
X109061Y-84664D01*
X109118Y-84692D01*
X109232Y-84692D01*
X109290Y-84664D01*
X109318Y-84635D01*
X109347Y-84578D01*
X109347Y-84464D01*
X109318Y-84407D01*
X109290Y-84378D01*
X109232Y-84350D01*
X116929Y-85741D02*
X116958Y-85769D01*
X116986Y-85855D01*
X116986Y-85912D01*
X116958Y-85998D01*
X116901Y-86055D01*
X116844Y-86084D01*
X116729Y-86112D01*
X116644Y-86112D01*
X116529Y-86084D01*
X116472Y-86055D01*
X116415Y-85998D01*
X116386Y-85912D01*
X116386Y-85855D01*
X116415Y-85769D01*
X116444Y-85741D01*
X116386Y-85369D02*
X116386Y-85255D01*
X116415Y-85198D01*
X116472Y-85141D01*
X116586Y-85112D01*
X116786Y-85112D01*
X116901Y-85141D01*
X116958Y-85198D01*
X116986Y-85255D01*
X116986Y-85369D01*
X116958Y-85427D01*
X116901Y-85484D01*
X116786Y-85512D01*
X116586Y-85512D01*
X116472Y-85484D01*
X116415Y-85427D01*
X116386Y-85369D01*
X116986Y-84855D02*
X116386Y-84855D01*
X116986Y-84512D01*
X116386Y-84512D01*
X116986Y-84227D02*
X116386Y-84227D01*
X116986Y-83884D01*
X116386Y-83884D01*
X117044Y-83741D02*
X117044Y-83284D01*
X116986Y-82827D02*
X116986Y-83170D01*
X116986Y-82998D02*
X116386Y-82998D01*
X116472Y-83055D01*
X116529Y-83112D01*
X116558Y-83170D01*
X105361Y-85992D02*
X105361Y-85392D01*
X105590Y-85392D01*
X105647Y-85421D01*
X105675Y-85450D01*
X105704Y-85507D01*
X105704Y-85592D01*
X105675Y-85650D01*
X105647Y-85678D01*
X105590Y-85707D01*
X105361Y-85707D01*
X105932Y-85450D02*
X105961Y-85421D01*
X106018Y-85392D01*
X106161Y-85392D01*
X106218Y-85421D01*
X106247Y-85450D01*
X106275Y-85507D01*
X106275Y-85564D01*
X106247Y-85650D01*
X105904Y-85992D01*
X106275Y-85992D01*
X106561Y-85992D02*
X106675Y-85992D01*
X106732Y-85964D01*
X106761Y-85935D01*
X106818Y-85850D01*
X106847Y-85735D01*
X106847Y-85507D01*
X106818Y-85450D01*
X106790Y-85421D01*
X106732Y-85392D01*
X106618Y-85392D01*
X106561Y-85421D01*
X106532Y-85450D01*
X106504Y-85507D01*
X106504Y-85650D01*
X106532Y-85707D01*
X106561Y-85735D01*
X106618Y-85764D01*
X106732Y-85764D01*
X106790Y-85735D01*
X106818Y-85707D01*
X106847Y-85650D01*
X113621Y-85119D02*
X113650Y-85147D01*
X113678Y-85233D01*
X113678Y-85290D01*
X113650Y-85376D01*
X113593Y-85433D01*
X113536Y-85462D01*
X113421Y-85490D01*
X113336Y-85490D01*
X113221Y-85462D01*
X113164Y-85433D01*
X113107Y-85376D01*
X113078Y-85290D01*
X113078Y-85233D01*
X113107Y-85147D01*
X113136Y-85119D01*
X113078Y-84747D02*
X113078Y-84633D01*
X113107Y-84576D01*
X113164Y-84519D01*
X113278Y-84490D01*
X113478Y-84490D01*
X113593Y-84519D01*
X113650Y-84576D01*
X113678Y-84633D01*
X113678Y-84747D01*
X113650Y-84805D01*
X113593Y-84862D01*
X113478Y-84890D01*
X113278Y-84890D01*
X113164Y-84862D01*
X113107Y-84805D01*
X113078Y-84747D01*
X113678Y-84233D02*
X113078Y-84233D01*
X113678Y-83890D01*
X113078Y-83890D01*
X113678Y-83605D02*
X113078Y-83605D01*
X113678Y-83262D01*
X113078Y-83262D01*
X113736Y-83119D02*
X113736Y-82662D01*
X113678Y-82205D02*
X113678Y-82548D01*
X113678Y-82376D02*
X113078Y-82376D01*
X113164Y-82433D01*
X113221Y-82490D01*
X113250Y-82548D01*
X109987Y-87532D02*
X109987Y-86932D01*
X110216Y-86932D01*
X110273Y-86961D01*
X110301Y-86990D01*
X110330Y-87047D01*
X110330Y-87132D01*
X110301Y-87190D01*
X110273Y-87218D01*
X110216Y-87247D01*
X109987Y-87247D01*
X110530Y-86932D02*
X110901Y-86932D01*
X110701Y-87161D01*
X110787Y-87161D01*
X110844Y-87190D01*
X110873Y-87218D01*
X110901Y-87275D01*
X110901Y-87418D01*
X110873Y-87475D01*
X110844Y-87504D01*
X110787Y-87532D01*
X110616Y-87532D01*
X110558Y-87504D01*
X110530Y-87475D01*
X111273Y-86932D02*
X111330Y-86932D01*
X111387Y-86961D01*
X111416Y-86990D01*
X111444Y-87047D01*
X111473Y-87161D01*
X111473Y-87304D01*
X111444Y-87418D01*
X111416Y-87475D01*
X111387Y-87504D01*
X111330Y-87532D01*
X111273Y-87532D01*
X111216Y-87504D01*
X111187Y-87475D01*
X111158Y-87418D01*
X111130Y-87304D01*
X111130Y-87161D01*
X111158Y-87047D01*
X111187Y-86990D01*
X111216Y-86961D01*
X111273Y-86932D01*
X134245Y-75601D02*
X134274Y-75629D01*
X134302Y-75715D01*
X134302Y-75772D01*
X134274Y-75858D01*
X134217Y-75915D01*
X134160Y-75944D01*
X134045Y-75972D01*
X133960Y-75972D01*
X133845Y-75944D01*
X133788Y-75915D01*
X133731Y-75858D01*
X133702Y-75772D01*
X133702Y-75715D01*
X133731Y-75629D01*
X133760Y-75601D01*
X133702Y-75229D02*
X133702Y-75115D01*
X133731Y-75058D01*
X133788Y-75001D01*
X133902Y-74972D01*
X134102Y-74972D01*
X134217Y-75001D01*
X134274Y-75058D01*
X134302Y-75115D01*
X134302Y-75229D01*
X134274Y-75287D01*
X134217Y-75344D01*
X134102Y-75372D01*
X133902Y-75372D01*
X133788Y-75344D01*
X133731Y-75287D01*
X133702Y-75229D01*
X134302Y-74715D02*
X133702Y-74715D01*
X134302Y-74372D01*
X133702Y-74372D01*
X134302Y-74087D02*
X133702Y-74087D01*
X134302Y-73744D01*
X133702Y-73744D01*
X134360Y-73601D02*
X134360Y-73144D01*
X134302Y-72687D02*
X134302Y-73030D01*
X134302Y-72858D02*
X133702Y-72858D01*
X133788Y-72915D01*
X133845Y-72972D01*
X133874Y-73030D01*
X104571Y-83442D02*
X104571Y-82842D01*
X104800Y-82842D01*
X104857Y-82871D01*
X104885Y-82900D01*
X104914Y-82957D01*
X104914Y-83042D01*
X104885Y-83100D01*
X104857Y-83128D01*
X104800Y-83157D01*
X104571Y-83157D01*
X105114Y-82842D02*
X105485Y-82842D01*
X105285Y-83071D01*
X105371Y-83071D01*
X105428Y-83100D01*
X105457Y-83128D01*
X105485Y-83185D01*
X105485Y-83328D01*
X105457Y-83385D01*
X105428Y-83414D01*
X105371Y-83442D01*
X105200Y-83442D01*
X105142Y-83414D01*
X105114Y-83385D01*
X106057Y-83442D02*
X105714Y-83442D01*
X105885Y-83442D02*
X105885Y-82842D01*
X105828Y-82928D01*
X105771Y-82985D01*
X105714Y-83014D01*
X128585Y-75371D02*
X128614Y-75399D01*
X128642Y-75485D01*
X128642Y-75542D01*
X128614Y-75628D01*
X128557Y-75685D01*
X128500Y-75714D01*
X128385Y-75742D01*
X128300Y-75742D01*
X128185Y-75714D01*
X128128Y-75685D01*
X128071Y-75628D01*
X128042Y-75542D01*
X128042Y-75485D01*
X128071Y-75399D01*
X128100Y-75371D01*
X128042Y-74999D02*
X128042Y-74885D01*
X128071Y-74828D01*
X128128Y-74771D01*
X128242Y-74742D01*
X128442Y-74742D01*
X128557Y-74771D01*
X128614Y-74828D01*
X128642Y-74885D01*
X128642Y-74999D01*
X128614Y-75057D01*
X128557Y-75114D01*
X128442Y-75142D01*
X128242Y-75142D01*
X128128Y-75114D01*
X128071Y-75057D01*
X128042Y-74999D01*
X128642Y-74485D02*
X128042Y-74485D01*
X128642Y-74142D01*
X128042Y-74142D01*
X128642Y-73857D02*
X128042Y-73857D01*
X128642Y-73514D01*
X128042Y-73514D01*
X128700Y-73371D02*
X128700Y-72914D01*
X128642Y-72457D02*
X128642Y-72800D01*
X128642Y-72628D02*
X128042Y-72628D01*
X128128Y-72685D01*
X128185Y-72742D01*
X128214Y-72800D01*
G54D14*
X155302Y-97669D02*
X154802Y-97669D01*
X154802Y-97550D01*
X154826Y-97478D01*
X154873Y-97430D01*
X154921Y-97407D01*
X155016Y-97383D01*
X155088Y-97383D01*
X155183Y-97407D01*
X155230Y-97430D01*
X155278Y-97478D01*
X155302Y-97550D01*
X155302Y-97669D01*
X155302Y-96907D02*
X155302Y-97192D01*
X155302Y-97050D02*
X154802Y-97050D01*
X154873Y-97097D01*
X154921Y-97145D01*
X154945Y-97192D01*
X156082Y-99126D02*
X156082Y-99412D01*
X156082Y-99269D02*
X155582Y-99269D01*
X155653Y-99316D01*
X155701Y-99364D01*
X155725Y-99412D01*
X156082Y-98912D02*
X155582Y-98912D01*
X156082Y-98626D01*
X155582Y-98626D01*
X155582Y-98150D02*
X155582Y-98388D01*
X155820Y-98412D01*
X155796Y-98388D01*
X155772Y-98340D01*
X155772Y-98221D01*
X155796Y-98174D01*
X155820Y-98150D01*
X155868Y-98126D01*
X155987Y-98126D01*
X156034Y-98150D01*
X156058Y-98174D01*
X156082Y-98221D01*
X156082Y-98340D01*
X156058Y-98388D01*
X156034Y-98412D01*
X155749Y-97697D02*
X156082Y-97697D01*
X155558Y-97816D02*
X155915Y-97935D01*
X155915Y-97626D01*
X155582Y-97340D02*
X155582Y-97293D01*
X155606Y-97245D01*
X155630Y-97221D01*
X155677Y-97197D01*
X155772Y-97174D01*
X155891Y-97174D01*
X155987Y-97197D01*
X156034Y-97221D01*
X156058Y-97245D01*
X156082Y-97293D01*
X156082Y-97340D01*
X156058Y-97388D01*
X156034Y-97412D01*
X155987Y-97435D01*
X155891Y-97459D01*
X155772Y-97459D01*
X155677Y-97435D01*
X155630Y-97412D01*
X155606Y-97388D01*
X155582Y-97340D01*
X155796Y-96888D02*
X155772Y-96935D01*
X155749Y-96959D01*
X155701Y-96983D01*
X155677Y-96983D01*
X155630Y-96959D01*
X155606Y-96935D01*
X155582Y-96888D01*
X155582Y-96793D01*
X155606Y-96745D01*
X155630Y-96721D01*
X155677Y-96697D01*
X155701Y-96697D01*
X155749Y-96721D01*
X155772Y-96745D01*
X155796Y-96793D01*
X155796Y-96888D01*
X155820Y-96935D01*
X155844Y-96959D01*
X155891Y-96983D01*
X155987Y-96983D01*
X156034Y-96959D01*
X156058Y-96935D01*
X156082Y-96888D01*
X156082Y-96793D01*
X156058Y-96745D01*
X156034Y-96721D01*
X155987Y-96697D01*
X155891Y-96697D01*
X155844Y-96721D01*
X155820Y-96745D01*
X155796Y-96793D01*
X153980Y-103477D02*
X153980Y-102977D01*
X154100Y-102977D01*
X154171Y-103001D01*
X154219Y-103048D01*
X154242Y-103096D01*
X154266Y-103191D01*
X154266Y-103263D01*
X154242Y-103358D01*
X154219Y-103405D01*
X154171Y-103453D01*
X154100Y-103477D01*
X153980Y-103477D01*
X154695Y-103144D02*
X154695Y-103477D01*
X154576Y-102953D02*
X154457Y-103310D01*
X154766Y-103310D01*
X154128Y-101502D02*
X153842Y-101502D01*
X153985Y-101502D02*
X153985Y-101002D01*
X153938Y-101073D01*
X153890Y-101121D01*
X153842Y-101145D01*
X154342Y-101502D02*
X154342Y-101002D01*
X154628Y-101502D01*
X154628Y-101002D01*
X155104Y-101002D02*
X154866Y-101002D01*
X154842Y-101240D01*
X154866Y-101216D01*
X154914Y-101192D01*
X155033Y-101192D01*
X155080Y-101216D01*
X155104Y-101240D01*
X155128Y-101288D01*
X155128Y-101407D01*
X155104Y-101454D01*
X155080Y-101478D01*
X155033Y-101502D01*
X154914Y-101502D01*
X154866Y-101478D01*
X154842Y-101454D01*
X155557Y-101169D02*
X155557Y-101502D01*
X155438Y-100978D02*
X155319Y-101335D01*
X155628Y-101335D01*
X155914Y-101002D02*
X155961Y-101002D01*
X156009Y-101026D01*
X156033Y-101050D01*
X156057Y-101097D01*
X156080Y-101192D01*
X156080Y-101311D01*
X156057Y-101407D01*
X156033Y-101454D01*
X156009Y-101478D01*
X155961Y-101502D01*
X155914Y-101502D01*
X155866Y-101478D01*
X155842Y-101454D01*
X155819Y-101407D01*
X155795Y-101311D01*
X155795Y-101192D01*
X155819Y-101097D01*
X155842Y-101050D01*
X155866Y-101026D01*
X155914Y-101002D01*
X156366Y-101216D02*
X156319Y-101192D01*
X156295Y-101169D01*
X156271Y-101121D01*
X156271Y-101097D01*
X156295Y-101050D01*
X156319Y-101026D01*
X156366Y-101002D01*
X156461Y-101002D01*
X156509Y-101026D01*
X156533Y-101050D01*
X156557Y-101097D01*
X156557Y-101121D01*
X156533Y-101169D01*
X156509Y-101192D01*
X156461Y-101216D01*
X156366Y-101216D01*
X156319Y-101240D01*
X156295Y-101264D01*
X156271Y-101311D01*
X156271Y-101407D01*
X156295Y-101454D01*
X156319Y-101478D01*
X156366Y-101502D01*
X156461Y-101502D01*
X156509Y-101478D01*
X156533Y-101454D01*
X156557Y-101407D01*
X156557Y-101311D01*
X156533Y-101264D01*
X156509Y-101240D01*
X156461Y-101216D01*
X154205Y-102052D02*
X154205Y-101552D01*
X154325Y-101552D01*
X154396Y-101576D01*
X154444Y-101623D01*
X154467Y-101671D01*
X154491Y-101766D01*
X154491Y-101838D01*
X154467Y-101933D01*
X154444Y-101980D01*
X154396Y-102028D01*
X154325Y-102052D01*
X154205Y-102052D01*
X154682Y-101600D02*
X154705Y-101576D01*
X154753Y-101552D01*
X154872Y-101552D01*
X154920Y-101576D01*
X154944Y-101600D01*
X154967Y-101647D01*
X154967Y-101695D01*
X154944Y-101766D01*
X154658Y-102052D01*
X154967Y-102052D01*
X152328Y-103302D02*
X152042Y-103302D01*
X152185Y-103302D02*
X152185Y-102802D01*
X152138Y-102873D01*
X152090Y-102921D01*
X152042Y-102945D01*
X152542Y-103302D02*
X152542Y-102802D01*
X152828Y-103302D01*
X152828Y-102802D01*
X153304Y-102802D02*
X153066Y-102802D01*
X153042Y-103040D01*
X153066Y-103016D01*
X153114Y-102992D01*
X153233Y-102992D01*
X153280Y-103016D01*
X153304Y-103040D01*
X153328Y-103088D01*
X153328Y-103207D01*
X153304Y-103254D01*
X153280Y-103278D01*
X153233Y-103302D01*
X153114Y-103302D01*
X153066Y-103278D01*
X153042Y-103254D01*
X153757Y-102969D02*
X153757Y-103302D01*
X153638Y-102778D02*
X153519Y-103135D01*
X153828Y-103135D01*
X154114Y-102802D02*
X154161Y-102802D01*
X154209Y-102826D01*
X154233Y-102850D01*
X154257Y-102897D01*
X154280Y-102992D01*
X154280Y-103111D01*
X154257Y-103207D01*
X154233Y-103254D01*
X154209Y-103278D01*
X154161Y-103302D01*
X154114Y-103302D01*
X154066Y-103278D01*
X154042Y-103254D01*
X154019Y-103207D01*
X153995Y-103111D01*
X153995Y-102992D01*
X154019Y-102897D01*
X154042Y-102850D01*
X154066Y-102826D01*
X154114Y-102802D01*
X154566Y-103016D02*
X154519Y-102992D01*
X154495Y-102969D01*
X154471Y-102921D01*
X154471Y-102897D01*
X154495Y-102850D01*
X154519Y-102826D01*
X154566Y-102802D01*
X154661Y-102802D01*
X154709Y-102826D01*
X154733Y-102850D01*
X154757Y-102897D01*
X154757Y-102921D01*
X154733Y-102969D01*
X154709Y-102992D01*
X154661Y-103016D01*
X154566Y-103016D01*
X154519Y-103040D01*
X154495Y-103064D01*
X154471Y-103111D01*
X154471Y-103207D01*
X154495Y-103254D01*
X154519Y-103278D01*
X154566Y-103302D01*
X154661Y-103302D01*
X154709Y-103278D01*
X154733Y-103254D01*
X154757Y-103207D01*
X154757Y-103111D01*
X154733Y-103064D01*
X154709Y-103040D01*
X154661Y-103016D01*
G54D36*
X129468Y-98639D02*
X129402Y-98545D01*
X129355Y-98639D02*
X129355Y-98442D01*
X129430Y-98442D01*
X129449Y-98452D01*
X129458Y-98461D01*
X129468Y-98480D01*
X129468Y-98508D01*
X129458Y-98527D01*
X129449Y-98536D01*
X129430Y-98545D01*
X129355Y-98545D01*
X129543Y-98461D02*
X129552Y-98452D01*
X129571Y-98442D01*
X129618Y-98442D01*
X129637Y-98452D01*
X129646Y-98461D01*
X129655Y-98480D01*
X129655Y-98499D01*
X129646Y-98527D01*
X129534Y-98639D01*
X129655Y-98639D01*
X129777Y-98442D02*
X129796Y-98442D01*
X129815Y-98452D01*
X129824Y-98461D01*
X129834Y-98480D01*
X129843Y-98517D01*
X129843Y-98564D01*
X129834Y-98602D01*
X129824Y-98620D01*
X129815Y-98630D01*
X129796Y-98639D01*
X129777Y-98639D01*
X129759Y-98630D01*
X129749Y-98620D01*
X129740Y-98602D01*
X129731Y-98564D01*
X129731Y-98517D01*
X129740Y-98480D01*
X129749Y-98461D01*
X129759Y-98452D01*
X129777Y-98442D01*
X110913Y-98179D02*
X110801Y-98179D01*
X110857Y-98179D02*
X110857Y-97982D01*
X110838Y-98010D01*
X110820Y-98029D01*
X110801Y-98039D01*
X111035Y-97982D02*
X111054Y-97982D01*
X111073Y-97992D01*
X111082Y-98001D01*
X111092Y-98020D01*
X111101Y-98057D01*
X111101Y-98104D01*
X111092Y-98142D01*
X111082Y-98160D01*
X111073Y-98170D01*
X111054Y-98179D01*
X111035Y-98179D01*
X111017Y-98170D01*
X111007Y-98160D01*
X110998Y-98142D01*
X110989Y-98104D01*
X110989Y-98057D01*
X110998Y-98020D01*
X111007Y-98001D01*
X111017Y-97992D01*
X111035Y-97982D01*
X111186Y-98179D02*
X111186Y-97982D01*
X111298Y-98179D02*
X111214Y-98067D01*
X111298Y-97982D02*
X111186Y-98095D01*
G54D18*
X109007Y-97392D02*
X109007Y-96792D01*
X109235Y-96792D01*
X109292Y-96821D01*
X109321Y-96850D01*
X109350Y-96907D01*
X109350Y-96992D01*
X109321Y-97050D01*
X109292Y-97078D01*
X109235Y-97107D01*
X109007Y-97107D01*
X109578Y-96850D02*
X109607Y-96821D01*
X109664Y-96792D01*
X109807Y-96792D01*
X109864Y-96821D01*
X109892Y-96850D01*
X109921Y-96907D01*
X109921Y-96964D01*
X109892Y-97050D01*
X109550Y-97392D01*
X109921Y-97392D01*
X159285Y-97871D02*
X159314Y-97899D01*
X159342Y-97985D01*
X159342Y-98042D01*
X159314Y-98128D01*
X159257Y-98185D01*
X159200Y-98214D01*
X159085Y-98242D01*
X159000Y-98242D01*
X158885Y-98214D01*
X158828Y-98185D01*
X158771Y-98128D01*
X158742Y-98042D01*
X158742Y-97985D01*
X158771Y-97899D01*
X158800Y-97871D01*
X158742Y-97499D02*
X158742Y-97385D01*
X158771Y-97328D01*
X158828Y-97271D01*
X158942Y-97242D01*
X159142Y-97242D01*
X159257Y-97271D01*
X159314Y-97328D01*
X159342Y-97385D01*
X159342Y-97499D01*
X159314Y-97557D01*
X159257Y-97614D01*
X159142Y-97642D01*
X158942Y-97642D01*
X158828Y-97614D01*
X158771Y-97557D01*
X158742Y-97499D01*
X159342Y-96985D02*
X158742Y-96985D01*
X159342Y-96642D01*
X158742Y-96642D01*
X159342Y-96357D02*
X158742Y-96357D01*
X159342Y-96014D01*
X158742Y-96014D01*
X159400Y-95871D02*
X159400Y-95414D01*
X159342Y-94957D02*
X159342Y-95300D01*
X159342Y-95128D02*
X158742Y-95128D01*
X158828Y-95185D01*
X158885Y-95242D01*
X158914Y-95300D01*
X109207Y-95292D02*
X109207Y-94692D01*
X109435Y-94692D01*
X109492Y-94721D01*
X109521Y-94750D01*
X109550Y-94807D01*
X109550Y-94892D01*
X109521Y-94950D01*
X109492Y-94978D01*
X109435Y-95007D01*
X109207Y-95007D01*
X110121Y-95292D02*
X109778Y-95292D01*
X109950Y-95292D02*
X109950Y-94692D01*
X109892Y-94778D01*
X109835Y-94835D01*
X109778Y-94864D01*
X160285Y-96071D02*
X160314Y-96099D01*
X160342Y-96185D01*
X160342Y-96242D01*
X160314Y-96328D01*
X160257Y-96385D01*
X160200Y-96414D01*
X160085Y-96442D01*
X160000Y-96442D01*
X159885Y-96414D01*
X159828Y-96385D01*
X159771Y-96328D01*
X159742Y-96242D01*
X159742Y-96185D01*
X159771Y-96099D01*
X159800Y-96071D01*
X159742Y-95699D02*
X159742Y-95585D01*
X159771Y-95528D01*
X159828Y-95471D01*
X159942Y-95442D01*
X160142Y-95442D01*
X160257Y-95471D01*
X160314Y-95528D01*
X160342Y-95585D01*
X160342Y-95699D01*
X160314Y-95757D01*
X160257Y-95814D01*
X160142Y-95842D01*
X159942Y-95842D01*
X159828Y-95814D01*
X159771Y-95757D01*
X159742Y-95699D01*
X160342Y-95185D02*
X159742Y-95185D01*
X160342Y-94842D01*
X159742Y-94842D01*
X160342Y-94557D02*
X159742Y-94557D01*
X160342Y-94214D01*
X159742Y-94214D01*
X160400Y-94071D02*
X160400Y-93614D01*
X160342Y-93157D02*
X160342Y-93500D01*
X160342Y-93328D02*
X159742Y-93328D01*
X159828Y-93385D01*
X159885Y-93442D01*
X159914Y-93500D01*
G54D23*
X122741Y-102660D02*
X122341Y-102660D01*
X122341Y-102507D01*
X122360Y-102469D01*
X122380Y-102450D01*
X122418Y-102431D01*
X122475Y-102431D01*
X122513Y-102450D01*
X122532Y-102469D01*
X122551Y-102507D01*
X122551Y-102660D01*
X122341Y-102298D02*
X122341Y-102031D01*
X122741Y-102203D01*
G54D14*
X123578Y-118152D02*
X123411Y-117914D01*
X123292Y-118152D02*
X123292Y-117652D01*
X123483Y-117652D01*
X123530Y-117676D01*
X123554Y-117700D01*
X123578Y-117747D01*
X123578Y-117819D01*
X123554Y-117866D01*
X123530Y-117890D01*
X123483Y-117914D01*
X123292Y-117914D01*
X123769Y-117700D02*
X123792Y-117676D01*
X123840Y-117652D01*
X123959Y-117652D01*
X124007Y-117676D01*
X124030Y-117700D01*
X124054Y-117747D01*
X124054Y-117795D01*
X124030Y-117866D01*
X123745Y-118152D01*
X124054Y-118152D01*
X124245Y-117700D02*
X124269Y-117676D01*
X124316Y-117652D01*
X124435Y-117652D01*
X124483Y-117676D01*
X124507Y-117700D01*
X124530Y-117747D01*
X124530Y-117795D01*
X124507Y-117866D01*
X124221Y-118152D01*
X124530Y-118152D01*
X125997Y-114567D02*
X126306Y-114567D01*
X126140Y-114757D01*
X126211Y-114757D01*
X126259Y-114781D01*
X126282Y-114805D01*
X126306Y-114853D01*
X126306Y-114972D01*
X126282Y-115019D01*
X126259Y-115043D01*
X126211Y-115067D01*
X126068Y-115067D01*
X126020Y-115043D01*
X125997Y-115019D01*
X126473Y-114567D02*
X126782Y-114567D01*
X126616Y-114757D01*
X126687Y-114757D01*
X126735Y-114781D01*
X126759Y-114805D01*
X126782Y-114853D01*
X126782Y-114972D01*
X126759Y-115019D01*
X126735Y-115043D01*
X126687Y-115067D01*
X126544Y-115067D01*
X126497Y-115043D01*
X126473Y-115019D01*
X127092Y-114567D02*
X127140Y-114567D01*
X127187Y-114591D01*
X127211Y-114615D01*
X127235Y-114662D01*
X127259Y-114757D01*
X127259Y-114876D01*
X127235Y-114972D01*
X127211Y-115019D01*
X127187Y-115043D01*
X127140Y-115067D01*
X127092Y-115067D01*
X127044Y-115043D01*
X127020Y-115019D01*
X126997Y-114972D01*
X126973Y-114876D01*
X126973Y-114757D01*
X126997Y-114662D01*
X127020Y-114615D01*
X127044Y-114591D01*
X127092Y-114567D01*
X124078Y-118152D02*
X123911Y-117914D01*
X123792Y-118152D02*
X123792Y-117652D01*
X123983Y-117652D01*
X124030Y-117676D01*
X124054Y-117700D01*
X124078Y-117747D01*
X124078Y-117819D01*
X124054Y-117866D01*
X124030Y-117890D01*
X123983Y-117914D01*
X123792Y-117914D01*
X124269Y-117700D02*
X124292Y-117676D01*
X124340Y-117652D01*
X124459Y-117652D01*
X124507Y-117676D01*
X124530Y-117700D01*
X124554Y-117747D01*
X124554Y-117795D01*
X124530Y-117866D01*
X124245Y-118152D01*
X124554Y-118152D01*
X124721Y-117652D02*
X125030Y-117652D01*
X124864Y-117842D01*
X124935Y-117842D01*
X124983Y-117866D01*
X125007Y-117890D01*
X125030Y-117938D01*
X125030Y-118057D01*
X125007Y-118104D01*
X124983Y-118128D01*
X124935Y-118152D01*
X124792Y-118152D01*
X124745Y-118128D01*
X124721Y-118104D01*
X126467Y-114932D02*
X126776Y-114932D01*
X126610Y-115122D01*
X126681Y-115122D01*
X126729Y-115146D01*
X126752Y-115170D01*
X126776Y-115218D01*
X126776Y-115337D01*
X126752Y-115384D01*
X126729Y-115408D01*
X126681Y-115432D01*
X126538Y-115432D01*
X126490Y-115408D01*
X126467Y-115384D01*
X126943Y-114932D02*
X127252Y-114932D01*
X127086Y-115122D01*
X127157Y-115122D01*
X127205Y-115146D01*
X127229Y-115170D01*
X127252Y-115218D01*
X127252Y-115337D01*
X127229Y-115384D01*
X127205Y-115408D01*
X127157Y-115432D01*
X127014Y-115432D01*
X126967Y-115408D01*
X126943Y-115384D01*
X127562Y-114932D02*
X127610Y-114932D01*
X127657Y-114956D01*
X127681Y-114980D01*
X127705Y-115027D01*
X127729Y-115122D01*
X127729Y-115241D01*
X127705Y-115337D01*
X127681Y-115384D01*
X127657Y-115408D01*
X127610Y-115432D01*
X127562Y-115432D01*
X127514Y-115408D01*
X127490Y-115384D01*
X127467Y-115337D01*
X127443Y-115241D01*
X127443Y-115122D01*
X127467Y-115027D01*
X127490Y-114980D01*
X127514Y-114956D01*
X127562Y-114932D01*
G54D19*
X124170Y-102521D02*
X124170Y-102221D01*
X124242Y-102221D01*
X124285Y-102235D01*
X124313Y-102264D01*
X124327Y-102292D01*
X124342Y-102350D01*
X124342Y-102392D01*
X124327Y-102450D01*
X124313Y-102478D01*
X124285Y-102507D01*
X124242Y-102521D01*
X124170Y-102521D01*
X124627Y-102521D02*
X124456Y-102521D01*
X124542Y-102521D02*
X124542Y-102221D01*
X124513Y-102264D01*
X124485Y-102292D01*
X124456Y-102307D01*
X124813Y-102221D02*
X124842Y-102221D01*
X124870Y-102235D01*
X124885Y-102250D01*
X124899Y-102278D01*
X124913Y-102335D01*
X124913Y-102407D01*
X124899Y-102464D01*
X124885Y-102492D01*
X124870Y-102507D01*
X124842Y-102521D01*
X124813Y-102521D01*
X124785Y-102507D01*
X124770Y-102492D01*
X124756Y-102464D01*
X124742Y-102407D01*
X124742Y-102335D01*
X124756Y-102278D01*
X124770Y-102250D01*
X124785Y-102235D01*
X124813Y-102221D01*
X124334Y-116586D02*
X124191Y-116586D01*
X124191Y-116286D01*
X124434Y-116429D02*
X124534Y-116429D01*
X124577Y-116586D02*
X124434Y-116586D01*
X124434Y-116286D01*
X124577Y-116286D01*
X124705Y-116586D02*
X124705Y-116286D01*
X124777Y-116286D01*
X124820Y-116300D01*
X124848Y-116329D01*
X124862Y-116357D01*
X124877Y-116415D01*
X124877Y-116457D01*
X124862Y-116515D01*
X124848Y-116543D01*
X124820Y-116572D01*
X124777Y-116586D01*
X124705Y-116586D01*
X124977Y-116286D02*
X125162Y-116286D01*
X125062Y-116400D01*
X125105Y-116400D01*
X125134Y-116415D01*
X125148Y-116429D01*
X125162Y-116457D01*
X125162Y-116529D01*
X125148Y-116557D01*
X125134Y-116572D01*
X125105Y-116586D01*
X125020Y-116586D01*
X124991Y-116572D01*
X124977Y-116557D01*
G54D25*
X123598Y-103029D02*
X123598Y-102832D01*
X123710Y-103029D02*
X123626Y-102917D01*
X123710Y-102832D02*
X123598Y-102945D01*
G54D19*
X124170Y-104906D02*
X124170Y-104606D01*
X124242Y-104606D01*
X124285Y-104620D01*
X124313Y-104649D01*
X124327Y-104677D01*
X124342Y-104735D01*
X124342Y-104777D01*
X124327Y-104835D01*
X124313Y-104863D01*
X124285Y-104892D01*
X124242Y-104906D01*
X124170Y-104906D01*
X124627Y-104906D02*
X124456Y-104906D01*
X124542Y-104906D02*
X124542Y-104606D01*
X124513Y-104649D01*
X124485Y-104677D01*
X124456Y-104692D01*
X124913Y-104906D02*
X124742Y-104906D01*
X124827Y-104906D02*
X124827Y-104606D01*
X124799Y-104649D01*
X124770Y-104677D01*
X124742Y-104692D01*
X124494Y-116096D02*
X124351Y-116096D01*
X124351Y-115796D01*
X124594Y-115939D02*
X124694Y-115939D01*
X124737Y-116096D02*
X124594Y-116096D01*
X124594Y-115796D01*
X124737Y-115796D01*
X124865Y-116096D02*
X124865Y-115796D01*
X124937Y-115796D01*
X124980Y-115810D01*
X125008Y-115839D01*
X125022Y-115867D01*
X125037Y-115925D01*
X125037Y-115967D01*
X125022Y-116025D01*
X125008Y-116053D01*
X124980Y-116082D01*
X124937Y-116096D01*
X124865Y-116096D01*
X125151Y-115825D02*
X125165Y-115810D01*
X125194Y-115796D01*
X125265Y-115796D01*
X125294Y-115810D01*
X125308Y-115825D01*
X125322Y-115853D01*
X125322Y-115882D01*
X125308Y-115925D01*
X125137Y-116096D01*
X125322Y-116096D01*
G54D25*
X123598Y-104229D02*
X123598Y-104032D01*
X123710Y-104229D02*
X123626Y-104117D01*
X123710Y-104032D02*
X123598Y-104145D01*
G54D28*
X111978Y-94254D02*
X111954Y-94278D01*
X111883Y-94302D01*
X111835Y-94302D01*
X111764Y-94278D01*
X111716Y-94230D01*
X111692Y-94183D01*
X111669Y-94088D01*
X111669Y-94016D01*
X111692Y-93921D01*
X111716Y-93873D01*
X111764Y-93826D01*
X111835Y-93802D01*
X111883Y-93802D01*
X111954Y-93826D01*
X111978Y-93850D01*
X112454Y-94302D02*
X112169Y-94302D01*
X112311Y-94302D02*
X112311Y-93802D01*
X112264Y-93873D01*
X112216Y-93921D01*
X112169Y-93945D01*
X112645Y-93850D02*
X112669Y-93826D01*
X112716Y-93802D01*
X112835Y-93802D01*
X112883Y-93826D01*
X112907Y-93850D01*
X112930Y-93897D01*
X112930Y-93945D01*
X112907Y-94016D01*
X112621Y-94302D01*
X112930Y-94302D01*
G54D21*
X111850Y-94302D02*
X111621Y-94302D01*
X111735Y-94302D02*
X111798Y-93802D01*
X111751Y-93873D01*
X111707Y-93921D01*
X111666Y-93945D01*
X112160Y-93802D02*
X112198Y-93802D01*
X112233Y-93826D01*
X112249Y-93850D01*
X112262Y-93897D01*
X112269Y-93992D01*
X112254Y-94111D01*
X112223Y-94207D01*
X112198Y-94254D01*
X112176Y-94278D01*
X112135Y-94302D01*
X112097Y-94302D01*
X112062Y-94278D01*
X112046Y-94254D01*
X112033Y-94207D01*
X112026Y-94111D01*
X112041Y-93992D01*
X112072Y-93897D01*
X112097Y-93850D01*
X112119Y-93826D01*
X112160Y-93802D01*
X112920Y-93969D02*
X112878Y-94302D01*
X112748Y-93969D02*
X112716Y-94230D01*
X112729Y-94278D01*
X112764Y-94302D01*
X112821Y-94302D01*
X112862Y-94278D01*
X112884Y-94254D01*
X113235Y-94040D02*
X113101Y-94040D01*
X113069Y-94302D02*
X113131Y-93802D01*
X113322Y-93802D01*
G54D28*
X120459Y-95161D02*
X120840Y-95161D01*
X120650Y-95352D02*
X120650Y-94971D01*
X115928Y-97604D02*
X115904Y-97628D01*
X115833Y-97652D01*
X115785Y-97652D01*
X115714Y-97628D01*
X115666Y-97580D01*
X115642Y-97533D01*
X115619Y-97438D01*
X115619Y-97366D01*
X115642Y-97271D01*
X115666Y-97223D01*
X115714Y-97176D01*
X115785Y-97152D01*
X115833Y-97152D01*
X115904Y-97176D01*
X115928Y-97200D01*
X116404Y-97652D02*
X116119Y-97652D01*
X116261Y-97652D02*
X116261Y-97152D01*
X116214Y-97223D01*
X116166Y-97271D01*
X116119Y-97295D01*
X116833Y-97319D02*
X116833Y-97652D01*
X116714Y-97128D02*
X116595Y-97485D01*
X116904Y-97485D01*
G54D21*
X111000Y-93902D02*
X110771Y-93902D01*
X110885Y-93902D02*
X110948Y-93402D01*
X110901Y-93473D01*
X110857Y-93521D01*
X110816Y-93545D01*
X111310Y-93402D02*
X111348Y-93402D01*
X111383Y-93426D01*
X111399Y-93450D01*
X111412Y-93497D01*
X111419Y-93592D01*
X111404Y-93711D01*
X111373Y-93807D01*
X111348Y-93854D01*
X111326Y-93878D01*
X111285Y-93902D01*
X111247Y-93902D01*
X111212Y-93878D01*
X111196Y-93854D01*
X111183Y-93807D01*
X111176Y-93711D01*
X111191Y-93592D01*
X111222Y-93497D01*
X111247Y-93450D01*
X111269Y-93426D01*
X111310Y-93402D01*
X112070Y-93569D02*
X112028Y-93902D01*
X111898Y-93569D02*
X111866Y-93830D01*
X111879Y-93878D01*
X111914Y-93902D01*
X111971Y-93902D01*
X112012Y-93878D01*
X112034Y-93854D01*
X112385Y-93640D02*
X112251Y-93640D01*
X112219Y-93902D02*
X112281Y-93402D01*
X112472Y-93402D01*
G54D28*
X119459Y-97061D02*
X119840Y-97061D01*
X119650Y-97252D02*
X119650Y-96871D01*
G54D18*
X137320Y-91547D02*
X137034Y-91547D01*
X137034Y-90947D01*
X137834Y-91547D02*
X137491Y-91547D01*
X137662Y-91547D02*
X137662Y-90947D01*
X137605Y-91033D01*
X137548Y-91090D01*
X137491Y-91119D01*
X139378Y-74042D02*
X139378Y-73442D01*
X139664Y-74042D02*
X139664Y-73442D01*
X140007Y-74042D01*
X140007Y-73442D01*
X140292Y-74042D02*
X140292Y-73442D01*
X140435Y-73442D01*
X140521Y-73471D01*
X140578Y-73528D01*
X140607Y-73585D01*
X140635Y-73700D01*
X140635Y-73785D01*
X140607Y-73900D01*
X140578Y-73957D01*
X140521Y-74014D01*
X140435Y-74042D01*
X140292Y-74042D01*
X140892Y-73442D02*
X140892Y-73928D01*
X140921Y-73985D01*
X140950Y-74014D01*
X141007Y-74042D01*
X141121Y-74042D01*
X141178Y-74014D01*
X141207Y-73985D01*
X141235Y-73928D01*
X141235Y-73442D01*
X141864Y-73985D02*
X141835Y-74014D01*
X141750Y-74042D01*
X141692Y-74042D01*
X141607Y-74014D01*
X141550Y-73957D01*
X141521Y-73900D01*
X141492Y-73785D01*
X141492Y-73700D01*
X141521Y-73585D01*
X141550Y-73528D01*
X141607Y-73471D01*
X141692Y-73442D01*
X141750Y-73442D01*
X141835Y-73471D01*
X141864Y-73500D01*
X142035Y-73442D02*
X142378Y-73442D01*
X142207Y-74042D02*
X142207Y-73442D01*
X142692Y-73442D02*
X142807Y-73442D01*
X142864Y-73471D01*
X142921Y-73528D01*
X142950Y-73642D01*
X142950Y-73842D01*
X142921Y-73957D01*
X142864Y-74014D01*
X142807Y-74042D01*
X142692Y-74042D01*
X142635Y-74014D01*
X142578Y-73957D01*
X142550Y-73842D01*
X142550Y-73642D01*
X142578Y-73528D01*
X142635Y-73471D01*
X142692Y-73442D01*
X143549Y-74042D02*
X143349Y-73757D01*
X143207Y-74042D02*
X143207Y-73442D01*
X143435Y-73442D01*
X143492Y-73471D01*
X143521Y-73500D01*
X143549Y-73557D01*
X143549Y-73642D01*
X143521Y-73700D01*
X143492Y-73728D01*
X143435Y-73757D01*
X143207Y-73757D01*
X127707Y-121192D02*
X127707Y-120592D01*
X127935Y-120592D01*
X127992Y-120621D01*
X128021Y-120650D01*
X128050Y-120707D01*
X128050Y-120792D01*
X128021Y-120850D01*
X127992Y-120878D01*
X127935Y-120907D01*
X127707Y-120907D01*
X128250Y-120592D02*
X128621Y-120592D01*
X128421Y-120821D01*
X128507Y-120821D01*
X128564Y-120850D01*
X128592Y-120878D01*
X128621Y-120935D01*
X128621Y-121078D01*
X128592Y-121135D01*
X128564Y-121164D01*
X128507Y-121192D01*
X128335Y-121192D01*
X128278Y-121164D01*
X128250Y-121135D01*
X123128Y-120535D02*
X123100Y-120564D01*
X123014Y-120592D01*
X122957Y-120592D01*
X122871Y-120564D01*
X122814Y-120507D01*
X122785Y-120450D01*
X122757Y-120335D01*
X122757Y-120250D01*
X122785Y-120135D01*
X122814Y-120078D01*
X122871Y-120021D01*
X122957Y-119992D01*
X123014Y-119992D01*
X123100Y-120021D01*
X123128Y-120050D01*
X123500Y-119992D02*
X123614Y-119992D01*
X123671Y-120021D01*
X123728Y-120078D01*
X123757Y-120192D01*
X123757Y-120392D01*
X123728Y-120507D01*
X123671Y-120564D01*
X123614Y-120592D01*
X123500Y-120592D01*
X123442Y-120564D01*
X123385Y-120507D01*
X123357Y-120392D01*
X123357Y-120192D01*
X123385Y-120078D01*
X123442Y-120021D01*
X123500Y-119992D01*
X124014Y-120592D02*
X124014Y-119992D01*
X124357Y-120592D01*
X124357Y-119992D01*
X124642Y-120592D02*
X124642Y-119992D01*
X124985Y-120592D01*
X124985Y-119992D01*
X125128Y-120650D02*
X125585Y-120650D01*
X126042Y-120592D02*
X125700Y-120592D01*
X125871Y-120592D02*
X125871Y-119992D01*
X125814Y-120078D01*
X125757Y-120135D01*
X125700Y-120164D01*
X141307Y-74942D02*
X141307Y-74342D01*
X141535Y-74342D01*
X141592Y-74371D01*
X141621Y-74400D01*
X141650Y-74457D01*
X141650Y-74542D01*
X141621Y-74600D01*
X141592Y-74628D01*
X141535Y-74657D01*
X141307Y-74657D01*
X142164Y-74542D02*
X142164Y-74942D01*
X142021Y-74314D02*
X141878Y-74742D01*
X142250Y-74742D01*
X141228Y-75685D02*
X141200Y-75714D01*
X141114Y-75742D01*
X141057Y-75742D01*
X140971Y-75714D01*
X140914Y-75657D01*
X140885Y-75600D01*
X140857Y-75485D01*
X140857Y-75400D01*
X140885Y-75285D01*
X140914Y-75228D01*
X140971Y-75171D01*
X141057Y-75142D01*
X141114Y-75142D01*
X141200Y-75171D01*
X141228Y-75200D01*
X141600Y-75142D02*
X141714Y-75142D01*
X141771Y-75171D01*
X141828Y-75228D01*
X141857Y-75342D01*
X141857Y-75542D01*
X141828Y-75657D01*
X141771Y-75714D01*
X141714Y-75742D01*
X141600Y-75742D01*
X141542Y-75714D01*
X141485Y-75657D01*
X141457Y-75542D01*
X141457Y-75342D01*
X141485Y-75228D01*
X141542Y-75171D01*
X141600Y-75142D01*
X142114Y-75742D02*
X142114Y-75142D01*
X142457Y-75742D01*
X142457Y-75142D01*
X142742Y-75742D02*
X142742Y-75142D01*
X143085Y-75742D01*
X143085Y-75142D01*
X143228Y-75800D02*
X143685Y-75800D01*
X144142Y-75742D02*
X143800Y-75742D01*
X143971Y-75742D02*
X143971Y-75142D01*
X143914Y-75228D01*
X143857Y-75285D01*
X143800Y-75314D01*
M02*
