G04 (created by PCBNEW (2013-07-07 BZR 4022)-stable) date 10/24/2016 7:07:03 PM*
%MOIN*%
G04 Gerber Fmt 3.4, Leading zero omitted, Abs format*
%FSLAX34Y34*%
G01*
G70*
G90*
G04 APERTURE LIST*
%ADD10C,0.00590551*%
%ADD11R,0.06X0.06*%
%ADD12C,0.06*%
%ADD13R,0.055X0.055*%
%ADD14C,0.055*%
%ADD15C,0.07*%
%ADD16R,0.07X0.07*%
%ADD17R,0.35X0.35*%
%ADD18C,0.0984*%
%ADD19C,0.0984252*%
%ADD20R,0.0587X0.0587*%
%ADD21C,0.0587*%
%ADD22C,0.063*%
%ADD23C,0.056*%
%ADD24C,0.15748*%
%ADD25C,0.0787402*%
%ADD26O,0.0885X0.177*%
%ADD27R,0.0566X0.0472*%
%ADD28R,0.0566X0.0393*%
%ADD29R,0.0511X0.059*%
%ADD30C,0.066*%
%ADD31R,0.059X0.0511*%
%ADD32R,0.0551X0.0393*%
%ADD33C,0.472441*%
%ADD34C,0.035*%
%ADD35C,0.019685*%
%ADD36C,0.00984252*%
%ADD37C,0.0255906*%
%ADD38C,0.0551181*%
%ADD39C,0.0492126*%
%ADD40C,0.0149606*%
%ADD41C,0.017*%
%ADD42C,0.01*%
%ADD43C,0.00866142*%
G04 APERTURE END LIST*
G54D10*
G54D11*
X119600Y-105750D03*
G54D12*
X119600Y-104750D03*
X120600Y-105750D03*
X120600Y-104750D03*
X121600Y-105750D03*
X121600Y-104750D03*
X122600Y-105750D03*
X122600Y-104750D03*
X123600Y-105750D03*
X123600Y-104750D03*
X124600Y-105750D03*
X124600Y-104750D03*
X125600Y-105750D03*
X125600Y-104750D03*
X126600Y-105750D03*
X126600Y-104750D03*
X127600Y-105750D03*
X127600Y-104750D03*
X128600Y-105750D03*
X128600Y-104750D03*
X138140Y-106480D03*
X142140Y-106480D03*
X130550Y-106750D03*
X130550Y-110750D03*
X136100Y-110970D03*
X136100Y-106970D03*
X137040Y-106975D03*
X137040Y-110975D03*
X138020Y-110960D03*
X142020Y-110960D03*
X142120Y-105320D03*
X138120Y-105320D03*
G54D13*
X131650Y-107700D03*
G54D14*
X131650Y-108700D03*
X131650Y-109700D03*
X134650Y-109700D03*
X134650Y-108700D03*
X134650Y-107700D03*
G54D15*
X139520Y-102030D03*
G54D16*
X139520Y-104030D03*
G54D15*
X139520Y-103030D03*
G54D17*
X133020Y-103030D03*
G54D14*
X141880Y-108780D03*
X139880Y-108780D03*
G54D18*
X124250Y-107300D03*
X118856Y-107300D03*
X124644Y-112615D03*
X118463Y-112615D03*
G54D14*
X141880Y-109740D03*
X139880Y-109740D03*
X141880Y-107640D03*
X139880Y-107640D03*
G54D19*
X146670Y-97740D03*
X147220Y-95390D03*
X146370Y-96390D03*
G54D20*
X138700Y-109054D03*
G54D21*
X138700Y-108266D03*
G54D22*
X142020Y-112040D03*
X138020Y-112040D03*
G54D23*
X143355Y-105690D03*
X149064Y-105690D03*
X143355Y-109520D03*
X149064Y-109520D03*
G54D15*
X137720Y-95600D03*
X138720Y-95600D03*
G54D16*
X139720Y-95600D03*
G54D24*
X147070Y-112276D03*
X143880Y-112246D03*
X148700Y-101056D03*
X146700Y-100006D03*
X148560Y-94682D03*
X119250Y-93856D03*
X119600Y-90556D03*
X123350Y-86206D03*
X120850Y-87506D03*
X132290Y-93166D03*
X129400Y-89056D03*
G54D25*
X145210Y-96230D03*
X145210Y-100230D03*
X144700Y-101700D03*
X140700Y-101700D03*
X144700Y-103100D03*
X140700Y-103100D03*
G54D24*
X131280Y-98876D03*
X131280Y-97006D03*
G54D11*
X122320Y-99790D03*
G54D12*
X122320Y-100790D03*
X122320Y-101790D03*
G54D26*
X142250Y-89750D03*
X148250Y-89750D03*
G54D27*
X132617Y-98895D03*
G54D28*
X132617Y-98226D03*
X133483Y-98226D03*
X133483Y-98974D03*
G54D29*
X132226Y-99850D03*
X132974Y-99850D03*
G54D30*
X147900Y-99500D03*
X147900Y-96500D03*
X148900Y-99500D03*
X148900Y-96500D03*
X146100Y-103300D03*
X149100Y-103300D03*
X146100Y-102400D03*
X149100Y-102400D03*
G54D31*
X132700Y-106926D03*
X132700Y-107674D03*
G54D32*
X133717Y-106924D03*
X133717Y-106176D03*
X134583Y-106550D03*
G54D20*
X119394Y-100350D03*
G54D21*
X118606Y-100350D03*
G54D20*
X119444Y-102400D03*
G54D21*
X118656Y-102400D03*
G54D33*
X133850Y-113300D03*
X133850Y-84950D03*
G54D34*
X132850Y-91750D03*
X132850Y-91250D03*
X133800Y-91250D03*
X133350Y-91250D03*
X125800Y-106800D03*
X126150Y-107200D03*
X125450Y-107200D03*
X125800Y-107600D03*
X126150Y-107600D03*
X125450Y-107600D03*
X125800Y-107200D03*
X126150Y-106800D03*
X125450Y-106800D03*
X133800Y-91750D03*
X133350Y-91750D03*
X133350Y-92250D03*
X134250Y-92250D03*
X134700Y-92750D03*
X133800Y-92750D03*
X134250Y-93250D03*
X134700Y-93750D03*
X133800Y-93750D03*
X133300Y-94200D03*
X134250Y-94200D03*
X134700Y-94200D03*
X133800Y-94200D03*
X133300Y-93750D03*
X134250Y-93750D03*
X134700Y-93250D03*
X133800Y-93250D03*
X134250Y-92750D03*
X134700Y-92250D03*
X133800Y-92250D03*
G54D35*
X126750Y-100275D03*
X126445Y-103775D03*
X125440Y-102470D03*
X126495Y-99635D03*
X127650Y-98285D03*
X124400Y-103450D03*
X127125Y-97885D03*
X128305Y-97115D03*
X122400Y-103600D03*
X128295Y-97650D03*
X125155Y-102745D03*
X123135Y-107200D03*
X125000Y-97400D03*
X124405Y-96875D03*
X127335Y-99345D03*
X123280Y-106520D03*
X127115Y-96920D03*
G54D34*
X128175Y-99300D03*
X120560Y-111780D03*
X126835Y-95810D03*
X133480Y-99775D03*
X118700Y-88450D03*
X118700Y-88950D03*
X118700Y-87950D03*
X148450Y-87250D03*
X148900Y-86750D03*
X148900Y-87750D03*
X148900Y-87250D03*
X148450Y-86750D03*
X148450Y-87750D03*
X123550Y-112500D03*
X123050Y-112500D03*
X122600Y-112500D03*
X126110Y-91650D03*
X124650Y-89050D03*
X124650Y-89500D03*
X125100Y-89050D03*
X125550Y-89500D03*
X126000Y-89500D03*
X125550Y-89050D03*
X125100Y-89500D03*
X119050Y-110050D03*
X126000Y-89050D03*
X126450Y-89050D03*
X126450Y-89500D03*
X123150Y-96650D03*
X123550Y-96650D03*
X123950Y-96250D03*
X123950Y-95850D03*
X123550Y-96250D03*
X119050Y-110500D03*
X122000Y-110400D03*
X122450Y-110850D03*
X121550Y-110850D03*
X122000Y-110850D03*
X122450Y-110400D03*
X121550Y-110400D03*
X128800Y-100600D03*
X128800Y-101500D03*
X128800Y-101950D03*
X128800Y-101050D03*
X128800Y-100150D03*
X142500Y-95100D03*
X136300Y-99700D03*
X136300Y-99300D03*
X136700Y-98500D03*
X136700Y-98900D03*
X136300Y-98900D03*
X136300Y-98500D03*
X142100Y-95100D03*
X141700Y-95100D03*
X141700Y-93200D03*
X141700Y-93600D03*
X142500Y-93600D03*
X142500Y-93200D03*
X142100Y-93200D03*
X126110Y-92021D03*
X129500Y-99950D03*
G54D36*
X132850Y-91750D02*
X133350Y-91750D01*
X133800Y-91250D02*
X133800Y-91750D01*
X119444Y-102400D02*
X119444Y-102056D01*
X119444Y-102056D02*
X119600Y-101900D01*
X119394Y-100350D02*
X119394Y-100156D01*
X119394Y-100156D02*
X119600Y-99950D01*
X125450Y-107600D02*
X125450Y-108300D01*
X120600Y-106750D02*
X120600Y-105750D01*
X122900Y-109050D02*
X120600Y-106750D01*
X124700Y-109050D02*
X122900Y-109050D01*
X125450Y-108300D02*
X124700Y-109050D01*
X125800Y-107600D02*
X126150Y-107600D01*
X125450Y-107200D02*
X125450Y-107600D01*
X126150Y-107200D02*
X125800Y-107200D01*
X125800Y-106800D02*
X126150Y-106800D01*
X119600Y-104750D02*
X119600Y-101900D01*
X119600Y-101900D02*
X119600Y-99950D01*
X119600Y-99950D02*
X119600Y-97750D01*
X131456Y-94000D02*
X132290Y-93166D01*
X123350Y-94000D02*
X131456Y-94000D01*
X119600Y-97750D02*
X123350Y-94000D01*
X119600Y-105750D02*
X119600Y-104750D01*
X120600Y-105750D02*
X119600Y-105750D01*
X120600Y-104750D02*
X120600Y-105750D01*
X133800Y-91750D02*
X133350Y-91750D01*
X134250Y-94200D02*
X134700Y-94200D01*
X133300Y-94200D02*
X133800Y-94200D01*
X133800Y-93750D02*
X133300Y-93750D01*
X134700Y-93750D02*
X134250Y-93750D01*
X134250Y-93250D02*
X134700Y-93250D01*
X133800Y-92750D02*
X133800Y-93250D01*
X134700Y-92750D02*
X134250Y-92750D01*
X134250Y-92250D02*
X134700Y-92250D01*
X133350Y-92250D02*
X133800Y-92250D01*
X126840Y-100890D02*
X126840Y-100365D01*
X126840Y-100365D02*
X126750Y-100275D01*
X131650Y-107700D02*
X131650Y-106700D01*
X129800Y-103850D02*
X129550Y-103600D01*
X129800Y-105750D02*
X129800Y-103850D01*
X130150Y-106100D02*
X129800Y-105750D01*
X131050Y-106100D02*
X130150Y-106100D01*
X131650Y-106700D02*
X131050Y-106100D01*
G54D37*
X132700Y-107674D02*
X131676Y-107674D01*
X131676Y-107674D02*
X131650Y-107700D01*
G54D36*
X129550Y-103600D02*
X126840Y-100890D01*
X126445Y-103775D02*
X126445Y-103475D01*
X126445Y-103475D02*
X125440Y-102470D01*
X126100Y-104805D02*
X126100Y-104365D01*
X126860Y-103170D02*
X126100Y-102410D01*
X126860Y-103770D02*
X126860Y-103170D01*
X126470Y-104160D02*
X126860Y-103770D01*
X126305Y-104160D02*
X126470Y-104160D01*
X126100Y-104365D02*
X126305Y-104160D01*
X126100Y-102410D02*
X126100Y-100030D01*
X125600Y-105700D02*
X126100Y-105200D01*
X126100Y-105200D02*
X126100Y-104805D01*
X125600Y-105750D02*
X125600Y-105700D01*
X126100Y-100030D02*
X126495Y-99635D01*
X125100Y-104550D02*
X125100Y-104400D01*
X124705Y-100805D02*
X125100Y-100410D01*
X124705Y-104005D02*
X124705Y-100805D01*
X125100Y-104400D02*
X124705Y-104005D01*
X124600Y-105750D02*
X124600Y-105450D01*
X125100Y-100410D02*
X126045Y-99465D01*
X127650Y-98285D02*
X127225Y-98285D01*
X127225Y-98285D02*
X126045Y-99465D01*
X125100Y-104950D02*
X125100Y-104550D01*
X124600Y-105450D02*
X125100Y-104950D01*
X124400Y-100580D02*
X125955Y-99025D01*
X126890Y-98090D02*
X125955Y-99025D01*
X124400Y-103450D02*
X124400Y-100580D01*
X127095Y-97885D02*
X126890Y-98090D01*
X127125Y-97885D02*
X127095Y-97885D01*
X122100Y-104845D02*
X122100Y-104485D01*
X123645Y-98310D02*
X125275Y-96680D01*
X123645Y-102940D02*
X123645Y-98310D01*
X122100Y-104485D02*
X123645Y-102940D01*
X122600Y-105750D02*
X122550Y-105750D01*
X127170Y-96680D02*
X125275Y-96680D01*
X128305Y-97115D02*
X128305Y-97105D01*
X127880Y-96680D02*
X127170Y-96680D01*
X128305Y-97105D02*
X127880Y-96680D01*
X122100Y-105300D02*
X122100Y-104845D01*
X122550Y-105750D02*
X122100Y-105300D01*
X123440Y-102180D02*
X123440Y-102560D01*
X123440Y-102560D02*
X122400Y-103600D01*
X123440Y-98260D02*
X125245Y-96455D01*
X123440Y-102180D02*
X123440Y-98260D01*
X128607Y-96877D02*
X128607Y-97337D01*
X128185Y-96455D02*
X125245Y-96455D01*
X128607Y-96877D02*
X128185Y-96455D01*
X128607Y-97337D02*
X128295Y-97650D01*
X125600Y-103190D02*
X125155Y-102745D01*
X125600Y-103190D02*
X125600Y-104750D01*
G54D38*
X148900Y-99500D02*
X148900Y-99900D01*
X148700Y-100100D02*
X148700Y-101056D01*
X148900Y-99900D02*
X148700Y-100100D01*
X148900Y-100856D02*
X148700Y-101056D01*
X149100Y-102400D02*
X149100Y-102350D01*
X148700Y-101950D02*
X148700Y-101056D01*
X149100Y-102350D02*
X148700Y-101950D01*
G54D39*
X148900Y-100856D02*
X148700Y-101056D01*
G54D37*
X148900Y-100856D02*
X148700Y-101056D01*
G54D38*
X147900Y-99500D02*
X147206Y-99500D01*
X147206Y-99500D02*
X146700Y-100006D01*
X149100Y-103300D02*
X148700Y-103300D01*
X148700Y-103300D02*
X146700Y-101300D01*
X146700Y-101300D02*
X146700Y-100006D01*
G54D39*
X147900Y-99500D02*
X147856Y-99500D01*
G54D37*
X145210Y-96230D02*
X145210Y-98090D01*
X143900Y-103100D02*
X144700Y-103100D01*
X143500Y-102700D02*
X143900Y-103100D01*
X143500Y-99800D02*
X143500Y-102700D01*
X145210Y-98090D02*
X143500Y-99800D01*
G54D40*
X146370Y-96390D02*
X145370Y-96390D01*
X145370Y-96390D02*
X145210Y-96230D01*
G54D36*
X122850Y-106630D02*
X122850Y-106735D01*
X123135Y-107020D02*
X123135Y-107200D01*
X122850Y-106735D02*
X123135Y-107020D01*
X123100Y-104920D02*
X123100Y-104410D01*
X125000Y-98385D02*
X125000Y-97400D01*
X123870Y-99515D02*
X125000Y-98385D01*
X123870Y-103640D02*
X123870Y-99515D01*
X123100Y-104410D02*
X123870Y-103640D01*
X122850Y-106630D02*
X122850Y-106450D01*
X123100Y-106200D02*
X123100Y-104920D01*
X122850Y-106450D02*
X123100Y-106200D01*
X128870Y-97650D02*
X128870Y-97685D01*
X125030Y-96250D02*
X124405Y-96875D01*
X128390Y-96250D02*
X125030Y-96250D01*
X128870Y-96730D02*
X128390Y-96250D01*
X128870Y-97650D02*
X128870Y-96730D01*
X127335Y-99220D02*
X127335Y-99345D01*
X128870Y-97685D02*
X127335Y-99220D01*
X123282Y-106517D02*
X123732Y-106517D01*
X123280Y-106520D02*
X123282Y-106517D01*
X127115Y-96920D02*
X126060Y-96920D01*
X125410Y-97570D02*
X125410Y-98375D01*
X126060Y-96920D02*
X125410Y-97570D01*
X124095Y-106155D02*
X124095Y-103545D01*
X124095Y-106155D02*
X123732Y-106517D01*
X124090Y-103545D02*
X124095Y-103545D01*
X124095Y-99690D02*
X124095Y-103545D01*
X125410Y-98375D02*
X124095Y-99690D01*
G54D37*
X128175Y-99300D02*
X128175Y-99155D01*
X128175Y-99155D02*
X129400Y-97930D01*
X127600Y-104615D02*
X128250Y-103965D01*
X128250Y-103965D02*
X128790Y-103965D01*
X128790Y-103965D02*
X129240Y-104415D01*
X129240Y-104415D02*
X129240Y-110195D01*
X129240Y-110195D02*
X127885Y-111550D01*
X127885Y-111550D02*
X120790Y-111550D01*
X120790Y-111550D02*
X120560Y-111780D01*
X127600Y-104615D02*
X127600Y-104750D01*
X126835Y-95810D02*
X128670Y-95810D01*
X129400Y-96540D02*
X129400Y-97930D01*
X128670Y-95810D02*
X129400Y-96540D01*
X134583Y-106550D02*
X134583Y-107017D01*
X134583Y-107017D02*
X133900Y-107700D01*
X133900Y-107700D02*
X133900Y-108250D01*
X133900Y-108250D02*
X134350Y-108700D01*
X134350Y-108700D02*
X134650Y-108700D01*
X132974Y-99850D02*
X133405Y-99850D01*
X133405Y-99850D02*
X133480Y-99775D01*
X133483Y-99517D02*
X133483Y-99772D01*
X133483Y-98974D02*
X133483Y-99517D01*
X133483Y-99772D02*
X133480Y-99775D01*
G54D36*
X118700Y-88450D02*
X119250Y-88450D01*
X119800Y-89000D02*
X122200Y-89000D01*
X119250Y-88450D02*
X119800Y-89000D01*
X118700Y-87950D02*
X118700Y-88450D01*
X118700Y-88450D02*
X118700Y-88950D01*
X123350Y-87950D02*
X122750Y-87950D01*
X122750Y-87950D02*
X122200Y-88500D01*
X122200Y-88500D02*
X122200Y-89000D01*
X125250Y-87950D02*
X123350Y-87950D01*
X126000Y-89050D02*
X126000Y-88700D01*
X125250Y-87950D02*
X126000Y-88700D01*
X119350Y-95350D02*
X118150Y-95350D01*
X118606Y-100350D02*
X118606Y-100156D01*
X118606Y-100156D02*
X118150Y-99700D01*
X118150Y-99700D02*
X118150Y-96750D01*
X118150Y-96750D02*
X118150Y-95350D01*
X122200Y-89000D02*
X122200Y-92500D01*
X122200Y-92500D02*
X119350Y-95350D01*
X148450Y-87250D02*
X148450Y-87750D01*
X148450Y-86750D02*
X148900Y-86750D01*
X148900Y-87250D02*
X148900Y-87750D01*
X122600Y-112500D02*
X123050Y-112500D01*
X118150Y-102750D02*
X118150Y-106850D01*
X118100Y-106900D02*
X118100Y-109100D01*
X118150Y-106850D02*
X118100Y-106900D01*
X124650Y-89050D02*
X124650Y-89500D01*
X125100Y-89500D02*
X125100Y-89050D01*
X125550Y-89050D02*
X125550Y-89500D01*
X126000Y-89500D02*
X126000Y-89050D01*
X130550Y-110750D02*
X135880Y-110750D01*
X135880Y-110750D02*
X136100Y-110970D01*
X118656Y-102400D02*
X118500Y-102400D01*
X118500Y-102400D02*
X118150Y-102750D01*
X118100Y-109100D02*
X119050Y-110050D01*
X118200Y-100756D02*
X118606Y-100350D01*
X118200Y-102100D02*
X118200Y-100756D01*
X118500Y-102400D02*
X118200Y-102100D01*
X126110Y-92021D02*
X126110Y-91650D01*
X126110Y-91650D02*
X126110Y-89840D01*
X126110Y-89840D02*
X126450Y-89500D01*
X126450Y-89050D02*
X126450Y-89500D01*
X123150Y-96650D02*
X123550Y-96650D01*
X123550Y-96250D02*
X123950Y-96250D01*
X130000Y-96350D02*
X130000Y-98876D01*
X124350Y-95450D02*
X123950Y-95850D01*
X129100Y-95450D02*
X124350Y-95450D01*
X130000Y-96350D02*
X129100Y-95450D01*
X122000Y-110150D02*
X121950Y-110100D01*
X121950Y-110100D02*
X119450Y-110100D01*
X119450Y-110100D02*
X119050Y-110500D01*
X122000Y-110150D02*
X122000Y-110400D01*
X121550Y-110400D02*
X122000Y-110400D01*
X122450Y-110400D02*
X122450Y-110850D01*
X122000Y-110850D02*
X121550Y-110850D01*
X128800Y-100150D02*
X128800Y-99600D01*
G54D41*
X130000Y-98876D02*
X129523Y-98876D01*
G54D36*
X128800Y-99600D02*
X129523Y-98876D01*
X128800Y-101500D02*
X128800Y-101950D01*
X128800Y-100600D02*
X128800Y-101050D01*
X142500Y-95100D02*
X142500Y-98400D01*
X137100Y-98500D02*
X136700Y-98900D01*
X142400Y-98500D02*
X137100Y-98500D01*
X142500Y-98400D02*
X142400Y-98500D01*
G54D37*
X140120Y-104030D02*
X142130Y-104030D01*
G54D40*
X139520Y-104030D02*
X140120Y-104030D01*
G54D37*
X146100Y-104200D02*
X146100Y-103300D01*
X145800Y-104500D02*
X146100Y-104200D01*
X145300Y-104500D02*
X145800Y-104500D01*
X142600Y-104500D02*
X145300Y-104500D01*
X142130Y-104030D02*
X142600Y-104500D01*
X132617Y-98895D02*
X131298Y-98895D01*
X131298Y-98895D02*
X131280Y-98876D01*
X132226Y-99850D02*
X132226Y-99822D01*
X132226Y-99822D02*
X131280Y-98876D01*
G54D41*
X131280Y-98876D02*
X130000Y-98876D01*
X131298Y-98895D02*
X131280Y-98876D01*
G54D36*
X131298Y-98895D02*
X131280Y-98876D01*
X131280Y-98876D02*
X131176Y-98876D01*
X136700Y-98900D02*
X136700Y-102400D01*
X136700Y-102400D02*
X138330Y-104030D01*
X138330Y-104030D02*
X139520Y-104030D01*
X136300Y-99700D02*
X136300Y-99300D01*
X136700Y-98500D02*
X136700Y-98900D01*
X136300Y-98900D02*
X136300Y-98500D01*
X141700Y-95100D02*
X142100Y-95100D01*
X141700Y-93600D02*
X141700Y-93200D01*
X142500Y-93200D02*
X142100Y-93200D01*
G54D40*
X143880Y-112246D02*
X142226Y-112246D01*
X142226Y-112246D02*
X142020Y-112040D01*
G54D36*
X126110Y-92021D02*
X126110Y-92130D01*
X126109Y-92022D02*
X126108Y-92022D01*
X126110Y-92021D02*
X126109Y-92022D01*
X139520Y-104030D02*
X139520Y-107280D01*
X139520Y-107280D02*
X139880Y-107640D01*
X138700Y-108266D02*
X137869Y-108266D01*
X137869Y-108266D02*
X136100Y-110035D01*
X136100Y-110035D02*
X136100Y-110970D01*
X138700Y-108266D02*
X139366Y-108266D01*
X139366Y-108266D02*
X139880Y-108780D01*
X139860Y-107660D02*
X139880Y-107640D01*
X139880Y-108780D02*
X140430Y-108780D01*
X140430Y-108780D02*
X140930Y-109280D01*
X140930Y-109280D02*
X140930Y-110950D01*
X140930Y-110950D02*
X142020Y-112040D01*
X139880Y-107640D02*
X139880Y-108780D01*
G54D40*
X129500Y-99950D02*
X130350Y-99950D01*
X130350Y-99950D02*
X130575Y-100175D01*
X133876Y-98226D02*
X133483Y-98226D01*
X133876Y-98226D02*
X134150Y-98500D01*
X134150Y-98500D02*
X134150Y-99950D01*
X134150Y-99950D02*
X133700Y-100400D01*
X133700Y-100400D02*
X130800Y-100400D01*
X130800Y-100400D02*
X130575Y-100175D01*
G54D37*
X131280Y-97006D02*
X131906Y-97006D01*
X132617Y-97717D02*
X132617Y-98226D01*
X131906Y-97006D02*
X132617Y-97717D01*
X133717Y-106924D02*
X132702Y-106924D01*
X132702Y-106924D02*
X132700Y-106926D01*
X130550Y-106750D02*
X130550Y-108100D01*
X131150Y-108700D02*
X131650Y-108700D01*
X130550Y-108100D02*
X131150Y-108700D01*
X133717Y-106176D02*
X133717Y-105983D01*
X136100Y-106500D02*
X136100Y-106970D01*
X135350Y-105750D02*
X136100Y-106500D01*
X133950Y-105750D02*
X135350Y-105750D01*
X133717Y-105983D02*
X133950Y-105750D01*
G54D10*
G36*
X135200Y-95450D02*
X130620Y-95450D01*
X130020Y-94850D01*
X123779Y-94850D01*
X120950Y-97679D01*
X120950Y-106170D01*
X123079Y-108300D01*
X125100Y-108300D01*
X125100Y-106550D01*
X126400Y-106550D01*
X126400Y-109900D01*
X123070Y-109900D01*
X119300Y-106129D01*
X119300Y-97121D01*
X123419Y-93200D01*
X130370Y-93200D01*
X132970Y-90600D01*
X135200Y-90600D01*
X135200Y-95450D01*
X135200Y-95450D01*
G37*
G54D42*
X135200Y-95450D02*
X130620Y-95450D01*
X130020Y-94850D01*
X123779Y-94850D01*
X120950Y-97679D01*
X120950Y-106170D01*
X123079Y-108300D01*
X125100Y-108300D01*
X125100Y-106550D01*
X126400Y-106550D01*
X126400Y-109900D01*
X123070Y-109900D01*
X119300Y-106129D01*
X119300Y-97121D01*
X123419Y-93200D01*
X130370Y-93200D01*
X132970Y-90600D01*
X135200Y-90600D01*
X135200Y-95450D01*
G54D10*
G36*
X132674Y-98945D02*
X132667Y-98945D01*
X132667Y-98952D01*
X132567Y-98952D01*
X132567Y-98945D01*
X132559Y-98945D01*
X132559Y-98845D01*
X132567Y-98845D01*
X132567Y-98837D01*
X132667Y-98837D01*
X132667Y-98845D01*
X132674Y-98845D01*
X132674Y-98945D01*
X132674Y-98945D01*
G37*
G54D42*
X132674Y-98945D02*
X132667Y-98945D01*
X132667Y-98952D01*
X132567Y-98952D01*
X132567Y-98945D01*
X132559Y-98945D01*
X132559Y-98845D01*
X132567Y-98845D01*
X132567Y-98837D01*
X132667Y-98837D01*
X132667Y-98845D01*
X132674Y-98845D01*
X132674Y-98945D01*
G54D10*
G36*
X134650Y-100850D02*
X130150Y-100850D01*
X130150Y-105470D01*
X130229Y-105550D01*
X130850Y-105550D01*
X132100Y-105550D01*
X133675Y-105550D01*
X133479Y-105745D01*
X133462Y-105771D01*
X133400Y-105771D01*
X133324Y-105803D01*
X133265Y-105861D01*
X133234Y-105938D01*
X133233Y-106020D01*
X133233Y-106413D01*
X133265Y-106489D01*
X133323Y-106548D01*
X133327Y-106549D01*
X133324Y-106551D01*
X133286Y-106588D01*
X133185Y-106588D01*
X133170Y-106553D01*
X133112Y-106494D01*
X133036Y-106463D01*
X132953Y-106462D01*
X132363Y-106462D01*
X132287Y-106494D01*
X132229Y-106552D01*
X132197Y-106629D01*
X132197Y-106711D01*
X132197Y-107222D01*
X132229Y-107298D01*
X132230Y-107299D01*
X132229Y-107300D01*
X132213Y-107338D01*
X132113Y-107338D01*
X132100Y-107307D01*
X132042Y-107249D01*
X131966Y-107217D01*
X131906Y-107217D01*
X131906Y-106700D01*
X131887Y-106601D01*
X131887Y-106601D01*
X131831Y-106518D01*
X131831Y-106518D01*
X131231Y-105918D01*
X131148Y-105862D01*
X131131Y-105859D01*
X131050Y-105843D01*
X131049Y-105843D01*
X130256Y-105843D01*
X130056Y-105643D01*
X130056Y-103850D01*
X130037Y-103751D01*
X130037Y-103751D01*
X129981Y-103668D01*
X129981Y-103668D01*
X129731Y-103418D01*
X129731Y-103418D01*
X127096Y-100783D01*
X127096Y-100365D01*
X127077Y-100266D01*
X127077Y-100266D01*
X127055Y-100235D01*
X127055Y-100235D01*
X127055Y-100214D01*
X127009Y-100101D01*
X126923Y-100015D01*
X126811Y-99969D01*
X126689Y-99969D01*
X126576Y-100015D01*
X126490Y-100101D01*
X126444Y-100213D01*
X126444Y-100335D01*
X126490Y-100448D01*
X126576Y-100534D01*
X126583Y-100537D01*
X126583Y-100889D01*
X126583Y-100890D01*
X126599Y-100971D01*
X126602Y-100988D01*
X126658Y-101071D01*
X129368Y-103781D01*
X129368Y-103781D01*
X129543Y-103956D01*
X129543Y-104276D01*
X129477Y-104177D01*
X129027Y-103727D01*
X128918Y-103655D01*
X128790Y-103629D01*
X128250Y-103629D01*
X128121Y-103655D01*
X128012Y-103727D01*
X127497Y-104243D01*
X127312Y-104319D01*
X127170Y-104462D01*
X127099Y-104630D01*
X127030Y-104462D01*
X126887Y-104320D01*
X126736Y-104256D01*
X127041Y-103951D01*
X127041Y-103951D01*
X127041Y-103951D01*
X127097Y-103868D01*
X127116Y-103770D01*
X127116Y-103770D01*
X127116Y-103770D01*
X127116Y-103170D01*
X127116Y-103169D01*
X127116Y-103169D01*
X127097Y-103071D01*
X127041Y-102988D01*
X127041Y-102988D01*
X126356Y-102303D01*
X126356Y-100136D01*
X126552Y-99940D01*
X126555Y-99940D01*
X126668Y-99894D01*
X126754Y-99808D01*
X126800Y-99696D01*
X126800Y-99574D01*
X126754Y-99461D01*
X126668Y-99375D01*
X126556Y-99329D01*
X126543Y-99329D01*
X127331Y-98541D01*
X127474Y-98541D01*
X127476Y-98544D01*
X127588Y-98590D01*
X127601Y-98590D01*
X127153Y-99038D01*
X127097Y-99121D01*
X127094Y-99138D01*
X127090Y-99156D01*
X127090Y-99156D01*
X127075Y-99171D01*
X127029Y-99283D01*
X127029Y-99405D01*
X127075Y-99518D01*
X127161Y-99604D01*
X127273Y-99650D01*
X127395Y-99650D01*
X127508Y-99604D01*
X127594Y-99518D01*
X127640Y-99406D01*
X127640Y-99284D01*
X127638Y-99279D01*
X127858Y-99059D01*
X127854Y-99079D01*
X127850Y-99083D01*
X127792Y-99223D01*
X127792Y-99375D01*
X127850Y-99516D01*
X127958Y-99624D01*
X128098Y-99682D01*
X128250Y-99682D01*
X128391Y-99624D01*
X128499Y-99516D01*
X128557Y-99376D01*
X128557Y-99246D01*
X129637Y-98167D01*
X129709Y-98058D01*
X129709Y-98058D01*
X129735Y-97930D01*
X129735Y-96540D01*
X129735Y-96539D01*
X129709Y-96411D01*
X129709Y-96411D01*
X129637Y-96302D01*
X129637Y-96302D01*
X128907Y-95572D01*
X128798Y-95500D01*
X128670Y-95474D01*
X127024Y-95474D01*
X126911Y-95427D01*
X126759Y-95427D01*
X126618Y-95485D01*
X126510Y-95593D01*
X126452Y-95733D01*
X126452Y-95885D01*
X126496Y-95993D01*
X125030Y-95993D01*
X125030Y-95993D01*
X124948Y-96009D01*
X124931Y-96012D01*
X124848Y-96068D01*
X124347Y-96569D01*
X124344Y-96569D01*
X124231Y-96615D01*
X124145Y-96701D01*
X124099Y-96813D01*
X124099Y-96935D01*
X124145Y-97048D01*
X124217Y-97119D01*
X123258Y-98078D01*
X123202Y-98161D01*
X123199Y-98178D01*
X123183Y-98260D01*
X123183Y-98260D01*
X123183Y-102180D01*
X123183Y-102453D01*
X122827Y-102809D01*
X122827Y-101689D01*
X122750Y-101502D01*
X122607Y-101360D01*
X122439Y-101289D01*
X122607Y-101220D01*
X122749Y-101077D01*
X122827Y-100891D01*
X122827Y-100689D01*
X122750Y-100502D01*
X122607Y-100360D01*
X122457Y-100297D01*
X122661Y-100297D01*
X122737Y-100265D01*
X122795Y-100207D01*
X122827Y-100131D01*
X122827Y-100048D01*
X122827Y-99448D01*
X122795Y-99372D01*
X122737Y-99314D01*
X122661Y-99282D01*
X122578Y-99282D01*
X121978Y-99282D01*
X121902Y-99314D01*
X121844Y-99372D01*
X121812Y-99448D01*
X121812Y-99531D01*
X121812Y-100131D01*
X121844Y-100207D01*
X121902Y-100265D01*
X121978Y-100297D01*
X122061Y-100297D01*
X122182Y-100297D01*
X122032Y-100359D01*
X121890Y-100502D01*
X121812Y-100688D01*
X121812Y-100890D01*
X121889Y-101077D01*
X122032Y-101219D01*
X122200Y-101290D01*
X122032Y-101359D01*
X121890Y-101502D01*
X121812Y-101688D01*
X121812Y-101890D01*
X121889Y-102077D01*
X122032Y-102219D01*
X122218Y-102297D01*
X122420Y-102297D01*
X122607Y-102220D01*
X122749Y-102077D01*
X122827Y-101891D01*
X122827Y-101689D01*
X122827Y-102809D01*
X122342Y-103294D01*
X122339Y-103294D01*
X122226Y-103340D01*
X122140Y-103426D01*
X122094Y-103538D01*
X122094Y-103660D01*
X122140Y-103773D01*
X122226Y-103859D01*
X122322Y-103899D01*
X121918Y-104303D01*
X121899Y-104331D01*
X121887Y-104320D01*
X121750Y-104262D01*
X121750Y-97520D01*
X123970Y-95300D01*
X129529Y-95300D01*
X130279Y-96050D01*
X130989Y-96050D01*
X130717Y-96162D01*
X130437Y-96442D01*
X130285Y-96807D01*
X130284Y-97203D01*
X130436Y-97569D01*
X130715Y-97849D01*
X130879Y-97917D01*
X130699Y-97992D01*
X130612Y-98138D01*
X131280Y-98805D01*
X131947Y-98138D01*
X131860Y-97992D01*
X131678Y-97918D01*
X131842Y-97850D01*
X132059Y-97633D01*
X132260Y-97835D01*
X132216Y-97853D01*
X132158Y-97911D01*
X132126Y-97988D01*
X132126Y-98070D01*
X132126Y-98273D01*
X132018Y-98208D01*
X131350Y-98876D01*
X131356Y-98881D01*
X131285Y-98952D01*
X131280Y-98947D01*
X131209Y-99017D01*
X131209Y-98876D01*
X130541Y-98208D01*
X130395Y-98295D01*
X130240Y-98678D01*
X130244Y-99090D01*
X130395Y-99456D01*
X130541Y-99543D01*
X131209Y-98876D01*
X131209Y-99017D01*
X130612Y-99614D01*
X130699Y-99760D01*
X131081Y-99915D01*
X131494Y-99912D01*
X131777Y-99794D01*
X131783Y-99800D01*
X132176Y-99800D01*
X132176Y-99792D01*
X132276Y-99792D01*
X132276Y-99800D01*
X132283Y-99800D01*
X132283Y-99900D01*
X132276Y-99900D01*
X132276Y-99907D01*
X132176Y-99907D01*
X132176Y-99900D01*
X131783Y-99900D01*
X131720Y-99962D01*
X131720Y-100095D01*
X131720Y-100117D01*
X130916Y-100117D01*
X130774Y-99975D01*
X130549Y-99750D01*
X130458Y-99689D01*
X130350Y-99667D01*
X130349Y-99667D01*
X129758Y-99667D01*
X129716Y-99625D01*
X129576Y-99567D01*
X129424Y-99567D01*
X129283Y-99625D01*
X129175Y-99733D01*
X129117Y-99873D01*
X129117Y-100025D01*
X129175Y-100166D01*
X129283Y-100274D01*
X129423Y-100332D01*
X129575Y-100332D01*
X129716Y-100274D01*
X129758Y-100232D01*
X130233Y-100232D01*
X130375Y-100374D01*
X130600Y-100599D01*
X130691Y-100660D01*
X130800Y-100682D01*
X130800Y-100682D01*
X130800Y-100682D01*
X133699Y-100682D01*
X133700Y-100682D01*
X133700Y-100682D01*
X133808Y-100660D01*
X133899Y-100599D01*
X134349Y-100149D01*
X134349Y-100149D01*
X134349Y-100149D01*
X134410Y-100058D01*
X134432Y-99950D01*
X134432Y-99950D01*
X134432Y-99949D01*
X134432Y-98500D01*
X134432Y-98500D01*
X134432Y-98500D01*
X134410Y-98391D01*
X134349Y-98300D01*
X134075Y-98026D01*
X133984Y-97965D01*
X133962Y-97960D01*
X133941Y-97912D01*
X133883Y-97853D01*
X133807Y-97822D01*
X133724Y-97821D01*
X133158Y-97821D01*
X133082Y-97853D01*
X133049Y-97886D01*
X133017Y-97853D01*
X132952Y-97826D01*
X132952Y-97717D01*
X132926Y-97588D01*
X132854Y-97479D01*
X132274Y-96900D01*
X132275Y-96809D01*
X132123Y-96443D01*
X131844Y-96163D01*
X131571Y-96050D01*
X134650Y-96050D01*
X134650Y-100850D01*
X134650Y-100850D01*
G37*
G54D42*
X134650Y-100850D02*
X130150Y-100850D01*
X130150Y-105470D01*
X130229Y-105550D01*
X130850Y-105550D01*
X132100Y-105550D01*
X133675Y-105550D01*
X133479Y-105745D01*
X133462Y-105771D01*
X133400Y-105771D01*
X133324Y-105803D01*
X133265Y-105861D01*
X133234Y-105938D01*
X133233Y-106020D01*
X133233Y-106413D01*
X133265Y-106489D01*
X133323Y-106548D01*
X133327Y-106549D01*
X133324Y-106551D01*
X133286Y-106588D01*
X133185Y-106588D01*
X133170Y-106553D01*
X133112Y-106494D01*
X133036Y-106463D01*
X132953Y-106462D01*
X132363Y-106462D01*
X132287Y-106494D01*
X132229Y-106552D01*
X132197Y-106629D01*
X132197Y-106711D01*
X132197Y-107222D01*
X132229Y-107298D01*
X132230Y-107299D01*
X132229Y-107300D01*
X132213Y-107338D01*
X132113Y-107338D01*
X132100Y-107307D01*
X132042Y-107249D01*
X131966Y-107217D01*
X131906Y-107217D01*
X131906Y-106700D01*
X131887Y-106601D01*
X131887Y-106601D01*
X131831Y-106518D01*
X131831Y-106518D01*
X131231Y-105918D01*
X131148Y-105862D01*
X131131Y-105859D01*
X131050Y-105843D01*
X131049Y-105843D01*
X130256Y-105843D01*
X130056Y-105643D01*
X130056Y-103850D01*
X130037Y-103751D01*
X130037Y-103751D01*
X129981Y-103668D01*
X129981Y-103668D01*
X129731Y-103418D01*
X129731Y-103418D01*
X127096Y-100783D01*
X127096Y-100365D01*
X127077Y-100266D01*
X127077Y-100266D01*
X127055Y-100235D01*
X127055Y-100235D01*
X127055Y-100214D01*
X127009Y-100101D01*
X126923Y-100015D01*
X126811Y-99969D01*
X126689Y-99969D01*
X126576Y-100015D01*
X126490Y-100101D01*
X126444Y-100213D01*
X126444Y-100335D01*
X126490Y-100448D01*
X126576Y-100534D01*
X126583Y-100537D01*
X126583Y-100889D01*
X126583Y-100890D01*
X126599Y-100971D01*
X126602Y-100988D01*
X126658Y-101071D01*
X129368Y-103781D01*
X129368Y-103781D01*
X129543Y-103956D01*
X129543Y-104276D01*
X129477Y-104177D01*
X129027Y-103727D01*
X128918Y-103655D01*
X128790Y-103629D01*
X128250Y-103629D01*
X128121Y-103655D01*
X128012Y-103727D01*
X127497Y-104243D01*
X127312Y-104319D01*
X127170Y-104462D01*
X127099Y-104630D01*
X127030Y-104462D01*
X126887Y-104320D01*
X126736Y-104256D01*
X127041Y-103951D01*
X127041Y-103951D01*
X127041Y-103951D01*
X127097Y-103868D01*
X127116Y-103770D01*
X127116Y-103770D01*
X127116Y-103770D01*
X127116Y-103170D01*
X127116Y-103169D01*
X127116Y-103169D01*
X127097Y-103071D01*
X127041Y-102988D01*
X127041Y-102988D01*
X126356Y-102303D01*
X126356Y-100136D01*
X126552Y-99940D01*
X126555Y-99940D01*
X126668Y-99894D01*
X126754Y-99808D01*
X126800Y-99696D01*
X126800Y-99574D01*
X126754Y-99461D01*
X126668Y-99375D01*
X126556Y-99329D01*
X126543Y-99329D01*
X127331Y-98541D01*
X127474Y-98541D01*
X127476Y-98544D01*
X127588Y-98590D01*
X127601Y-98590D01*
X127153Y-99038D01*
X127097Y-99121D01*
X127094Y-99138D01*
X127090Y-99156D01*
X127090Y-99156D01*
X127075Y-99171D01*
X127029Y-99283D01*
X127029Y-99405D01*
X127075Y-99518D01*
X127161Y-99604D01*
X127273Y-99650D01*
X127395Y-99650D01*
X127508Y-99604D01*
X127594Y-99518D01*
X127640Y-99406D01*
X127640Y-99284D01*
X127638Y-99279D01*
X127858Y-99059D01*
X127854Y-99079D01*
X127850Y-99083D01*
X127792Y-99223D01*
X127792Y-99375D01*
X127850Y-99516D01*
X127958Y-99624D01*
X128098Y-99682D01*
X128250Y-99682D01*
X128391Y-99624D01*
X128499Y-99516D01*
X128557Y-99376D01*
X128557Y-99246D01*
X129637Y-98167D01*
X129709Y-98058D01*
X129709Y-98058D01*
X129735Y-97930D01*
X129735Y-96540D01*
X129735Y-96539D01*
X129709Y-96411D01*
X129709Y-96411D01*
X129637Y-96302D01*
X129637Y-96302D01*
X128907Y-95572D01*
X128798Y-95500D01*
X128670Y-95474D01*
X127024Y-95474D01*
X126911Y-95427D01*
X126759Y-95427D01*
X126618Y-95485D01*
X126510Y-95593D01*
X126452Y-95733D01*
X126452Y-95885D01*
X126496Y-95993D01*
X125030Y-95993D01*
X125030Y-95993D01*
X124948Y-96009D01*
X124931Y-96012D01*
X124848Y-96068D01*
X124347Y-96569D01*
X124344Y-96569D01*
X124231Y-96615D01*
X124145Y-96701D01*
X124099Y-96813D01*
X124099Y-96935D01*
X124145Y-97048D01*
X124217Y-97119D01*
X123258Y-98078D01*
X123202Y-98161D01*
X123199Y-98178D01*
X123183Y-98260D01*
X123183Y-98260D01*
X123183Y-102180D01*
X123183Y-102453D01*
X122827Y-102809D01*
X122827Y-101689D01*
X122750Y-101502D01*
X122607Y-101360D01*
X122439Y-101289D01*
X122607Y-101220D01*
X122749Y-101077D01*
X122827Y-100891D01*
X122827Y-100689D01*
X122750Y-100502D01*
X122607Y-100360D01*
X122457Y-100297D01*
X122661Y-100297D01*
X122737Y-100265D01*
X122795Y-100207D01*
X122827Y-100131D01*
X122827Y-100048D01*
X122827Y-99448D01*
X122795Y-99372D01*
X122737Y-99314D01*
X122661Y-99282D01*
X122578Y-99282D01*
X121978Y-99282D01*
X121902Y-99314D01*
X121844Y-99372D01*
X121812Y-99448D01*
X121812Y-99531D01*
X121812Y-100131D01*
X121844Y-100207D01*
X121902Y-100265D01*
X121978Y-100297D01*
X122061Y-100297D01*
X122182Y-100297D01*
X122032Y-100359D01*
X121890Y-100502D01*
X121812Y-100688D01*
X121812Y-100890D01*
X121889Y-101077D01*
X122032Y-101219D01*
X122200Y-101290D01*
X122032Y-101359D01*
X121890Y-101502D01*
X121812Y-101688D01*
X121812Y-101890D01*
X121889Y-102077D01*
X122032Y-102219D01*
X122218Y-102297D01*
X122420Y-102297D01*
X122607Y-102220D01*
X122749Y-102077D01*
X122827Y-101891D01*
X122827Y-101689D01*
X122827Y-102809D01*
X122342Y-103294D01*
X122339Y-103294D01*
X122226Y-103340D01*
X122140Y-103426D01*
X122094Y-103538D01*
X122094Y-103660D01*
X122140Y-103773D01*
X122226Y-103859D01*
X122322Y-103899D01*
X121918Y-104303D01*
X121899Y-104331D01*
X121887Y-104320D01*
X121750Y-104262D01*
X121750Y-97520D01*
X123970Y-95300D01*
X129529Y-95300D01*
X130279Y-96050D01*
X130989Y-96050D01*
X130717Y-96162D01*
X130437Y-96442D01*
X130285Y-96807D01*
X130284Y-97203D01*
X130436Y-97569D01*
X130715Y-97849D01*
X130879Y-97917D01*
X130699Y-97992D01*
X130612Y-98138D01*
X131280Y-98805D01*
X131947Y-98138D01*
X131860Y-97992D01*
X131678Y-97918D01*
X131842Y-97850D01*
X132059Y-97633D01*
X132260Y-97835D01*
X132216Y-97853D01*
X132158Y-97911D01*
X132126Y-97988D01*
X132126Y-98070D01*
X132126Y-98273D01*
X132018Y-98208D01*
X131350Y-98876D01*
X131356Y-98881D01*
X131285Y-98952D01*
X131280Y-98947D01*
X131209Y-99017D01*
X131209Y-98876D01*
X130541Y-98208D01*
X130395Y-98295D01*
X130240Y-98678D01*
X130244Y-99090D01*
X130395Y-99456D01*
X130541Y-99543D01*
X131209Y-98876D01*
X131209Y-99017D01*
X130612Y-99614D01*
X130699Y-99760D01*
X131081Y-99915D01*
X131494Y-99912D01*
X131777Y-99794D01*
X131783Y-99800D01*
X132176Y-99800D01*
X132176Y-99792D01*
X132276Y-99792D01*
X132276Y-99800D01*
X132283Y-99800D01*
X132283Y-99900D01*
X132276Y-99900D01*
X132276Y-99907D01*
X132176Y-99907D01*
X132176Y-99900D01*
X131783Y-99900D01*
X131720Y-99962D01*
X131720Y-100095D01*
X131720Y-100117D01*
X130916Y-100117D01*
X130774Y-99975D01*
X130549Y-99750D01*
X130458Y-99689D01*
X130350Y-99667D01*
X130349Y-99667D01*
X129758Y-99667D01*
X129716Y-99625D01*
X129576Y-99567D01*
X129424Y-99567D01*
X129283Y-99625D01*
X129175Y-99733D01*
X129117Y-99873D01*
X129117Y-100025D01*
X129175Y-100166D01*
X129283Y-100274D01*
X129423Y-100332D01*
X129575Y-100332D01*
X129716Y-100274D01*
X129758Y-100232D01*
X130233Y-100232D01*
X130375Y-100374D01*
X130600Y-100599D01*
X130691Y-100660D01*
X130800Y-100682D01*
X130800Y-100682D01*
X130800Y-100682D01*
X133699Y-100682D01*
X133700Y-100682D01*
X133700Y-100682D01*
X133808Y-100660D01*
X133899Y-100599D01*
X134349Y-100149D01*
X134349Y-100149D01*
X134349Y-100149D01*
X134410Y-100058D01*
X134432Y-99950D01*
X134432Y-99950D01*
X134432Y-99949D01*
X134432Y-98500D01*
X134432Y-98500D01*
X134432Y-98500D01*
X134410Y-98391D01*
X134349Y-98300D01*
X134075Y-98026D01*
X133984Y-97965D01*
X133962Y-97960D01*
X133941Y-97912D01*
X133883Y-97853D01*
X133807Y-97822D01*
X133724Y-97821D01*
X133158Y-97821D01*
X133082Y-97853D01*
X133049Y-97886D01*
X133017Y-97853D01*
X132952Y-97826D01*
X132952Y-97717D01*
X132926Y-97588D01*
X132854Y-97479D01*
X132274Y-96900D01*
X132275Y-96809D01*
X132123Y-96443D01*
X131844Y-96163D01*
X131571Y-96050D01*
X134650Y-96050D01*
X134650Y-100850D01*
G54D10*
G36*
X149367Y-88250D02*
X133179Y-88250D01*
X130439Y-90990D01*
X130439Y-89254D01*
X130435Y-88841D01*
X130284Y-88475D01*
X130138Y-88388D01*
X130067Y-88459D01*
X130067Y-88318D01*
X129980Y-88172D01*
X129598Y-88017D01*
X129185Y-88020D01*
X128819Y-88172D01*
X128732Y-88318D01*
X129400Y-88985D01*
X130067Y-88318D01*
X130067Y-88459D01*
X129470Y-89056D01*
X130138Y-89723D01*
X130284Y-89636D01*
X130439Y-89254D01*
X130439Y-90990D01*
X130067Y-91361D01*
X130067Y-89794D01*
X129400Y-89127D01*
X129329Y-89197D01*
X129329Y-89056D01*
X128661Y-88388D01*
X128515Y-88475D01*
X128360Y-88858D01*
X128364Y-89270D01*
X128515Y-89636D01*
X128661Y-89723D01*
X129329Y-89056D01*
X129329Y-89197D01*
X128732Y-89794D01*
X128819Y-89940D01*
X129201Y-90095D01*
X129614Y-90092D01*
X129980Y-89940D01*
X130067Y-89794D01*
X130067Y-91361D01*
X129964Y-91464D01*
X129179Y-92250D01*
X123329Y-92250D01*
X121845Y-93718D01*
X121845Y-87309D01*
X121693Y-86943D01*
X121414Y-86663D01*
X121048Y-86511D01*
X120652Y-86511D01*
X120287Y-86662D01*
X120007Y-86942D01*
X119855Y-87307D01*
X119854Y-87703D01*
X120006Y-88069D01*
X120285Y-88349D01*
X120651Y-88501D01*
X121047Y-88501D01*
X121412Y-88350D01*
X121692Y-88070D01*
X121844Y-87705D01*
X121845Y-87309D01*
X121845Y-93718D01*
X120595Y-94954D01*
X120595Y-90359D01*
X120443Y-89993D01*
X120164Y-89713D01*
X119798Y-89561D01*
X119402Y-89561D01*
X119037Y-89712D01*
X118757Y-89992D01*
X118605Y-90357D01*
X118604Y-90753D01*
X118756Y-91119D01*
X119035Y-91399D01*
X119401Y-91551D01*
X119797Y-91551D01*
X120162Y-91400D01*
X120442Y-91120D01*
X120594Y-90755D01*
X120595Y-90359D01*
X120595Y-94954D01*
X120245Y-95300D01*
X120245Y-93659D01*
X120093Y-93293D01*
X119814Y-93013D01*
X119448Y-92861D01*
X119052Y-92861D01*
X118687Y-93012D01*
X118407Y-93292D01*
X118255Y-93657D01*
X118254Y-94053D01*
X118406Y-94419D01*
X118685Y-94699D01*
X119051Y-94851D01*
X119447Y-94851D01*
X119812Y-94700D01*
X120092Y-94420D01*
X120244Y-94055D01*
X120245Y-93659D01*
X120245Y-95300D01*
X118700Y-96829D01*
X118700Y-99806D01*
X118686Y-99801D01*
X118470Y-99812D01*
X118322Y-99874D01*
X118295Y-99968D01*
X118606Y-100279D01*
X118611Y-100273D01*
X118682Y-100344D01*
X118676Y-100350D01*
X118682Y-100355D01*
X118611Y-100426D01*
X118606Y-100420D01*
X118535Y-100491D01*
X118535Y-100350D01*
X118224Y-100039D01*
X118130Y-100066D01*
X118057Y-100269D01*
X118068Y-100485D01*
X118130Y-100633D01*
X118224Y-100660D01*
X118535Y-100350D01*
X118535Y-100491D01*
X118295Y-100731D01*
X118322Y-100825D01*
X118525Y-100898D01*
X118700Y-100889D01*
X118700Y-101853D01*
X118520Y-101862D01*
X118372Y-101924D01*
X118345Y-102018D01*
X118656Y-102329D01*
X118661Y-102323D01*
X118700Y-102362D01*
X118700Y-102437D01*
X118661Y-102476D01*
X118656Y-102470D01*
X118585Y-102541D01*
X118585Y-102400D01*
X118274Y-102089D01*
X118180Y-102116D01*
X118107Y-102319D01*
X118118Y-102535D01*
X118180Y-102683D01*
X118274Y-102710D01*
X118585Y-102400D01*
X118585Y-102541D01*
X118345Y-102781D01*
X118372Y-102875D01*
X118575Y-102948D01*
X118700Y-102941D01*
X118700Y-106220D01*
X119131Y-106657D01*
X118995Y-106600D01*
X118717Y-106600D01*
X118460Y-106706D01*
X118263Y-106903D01*
X118156Y-107160D01*
X118156Y-107438D01*
X118262Y-107695D01*
X118459Y-107892D01*
X118716Y-107999D01*
X118994Y-107999D01*
X119251Y-107893D01*
X119448Y-107696D01*
X119555Y-107439D01*
X119555Y-107161D01*
X119501Y-107031D01*
X123129Y-110700D01*
X127150Y-110700D01*
X127150Y-106200D01*
X126839Y-106200D01*
X126887Y-106180D01*
X127029Y-106037D01*
X127100Y-105869D01*
X127169Y-106037D01*
X127312Y-106179D01*
X127498Y-106257D01*
X127700Y-106257D01*
X127887Y-106180D01*
X128029Y-106037D01*
X128074Y-105930D01*
X128118Y-106037D01*
X128214Y-106065D01*
X128529Y-105750D01*
X128214Y-105434D01*
X128118Y-105462D01*
X128077Y-105577D01*
X128030Y-105462D01*
X127887Y-105320D01*
X127719Y-105249D01*
X127887Y-105180D01*
X128029Y-105037D01*
X128074Y-104930D01*
X128118Y-105037D01*
X128214Y-105065D01*
X128529Y-104750D01*
X128523Y-104744D01*
X128594Y-104673D01*
X128600Y-104679D01*
X128605Y-104673D01*
X128676Y-104744D01*
X128670Y-104750D01*
X128676Y-104755D01*
X128605Y-104826D01*
X128600Y-104820D01*
X128284Y-105135D01*
X128312Y-105231D01*
X128360Y-105248D01*
X128312Y-105268D01*
X128284Y-105364D01*
X128600Y-105679D01*
X128605Y-105673D01*
X128676Y-105744D01*
X128670Y-105750D01*
X128676Y-105755D01*
X128605Y-105826D01*
X128600Y-105820D01*
X128284Y-106135D01*
X128312Y-106231D01*
X128518Y-106304D01*
X128736Y-106293D01*
X128887Y-106231D01*
X128904Y-106172D01*
X128904Y-110056D01*
X127746Y-111214D01*
X120790Y-111214D01*
X120661Y-111240D01*
X120552Y-111312D01*
X120456Y-111408D01*
X120343Y-111455D01*
X120235Y-111563D01*
X120177Y-111703D01*
X120177Y-111855D01*
X120235Y-111996D01*
X120343Y-112104D01*
X120483Y-112162D01*
X120635Y-112162D01*
X120776Y-112104D01*
X120884Y-111996D01*
X120930Y-111885D01*
X127885Y-111885D01*
X128013Y-111859D01*
X128122Y-111787D01*
X129477Y-110432D01*
X129477Y-110432D01*
X129477Y-110432D01*
X129549Y-110323D01*
X129549Y-110323D01*
X129575Y-110195D01*
X129575Y-110195D01*
X129575Y-105867D01*
X129618Y-105931D01*
X129968Y-106281D01*
X129968Y-106281D01*
X130051Y-106337D01*
X130149Y-106356D01*
X130149Y-106356D01*
X130150Y-106356D01*
X130225Y-106356D01*
X130120Y-106462D01*
X130042Y-106648D01*
X130042Y-106850D01*
X130119Y-107037D01*
X130214Y-107132D01*
X130214Y-108100D01*
X130240Y-108228D01*
X130312Y-108337D01*
X130912Y-108937D01*
X131021Y-109009D01*
X131021Y-109009D01*
X131150Y-109035D01*
X131303Y-109035D01*
X131376Y-109108D01*
X131553Y-109182D01*
X131745Y-109182D01*
X131922Y-109109D01*
X132058Y-108973D01*
X132132Y-108796D01*
X132132Y-108604D01*
X132059Y-108427D01*
X131923Y-108291D01*
X131746Y-108217D01*
X131554Y-108217D01*
X131377Y-108290D01*
X131303Y-108364D01*
X131288Y-108364D01*
X130885Y-107961D01*
X130885Y-107132D01*
X130979Y-107037D01*
X131057Y-106851D01*
X131057Y-106649D01*
X130980Y-106462D01*
X130874Y-106356D01*
X130943Y-106356D01*
X131393Y-106806D01*
X131393Y-107217D01*
X131333Y-107217D01*
X131257Y-107249D01*
X131199Y-107307D01*
X131167Y-107383D01*
X131167Y-107466D01*
X131167Y-108016D01*
X131199Y-108092D01*
X131257Y-108150D01*
X131333Y-108182D01*
X131416Y-108182D01*
X131966Y-108182D01*
X132042Y-108150D01*
X132100Y-108092D01*
X132132Y-108016D01*
X132132Y-108009D01*
X132213Y-108009D01*
X132229Y-108046D01*
X132287Y-108105D01*
X132363Y-108136D01*
X132446Y-108137D01*
X133036Y-108137D01*
X133112Y-108105D01*
X133170Y-108047D01*
X133202Y-107970D01*
X133202Y-107888D01*
X133202Y-107377D01*
X133170Y-107301D01*
X133169Y-107300D01*
X133170Y-107299D01*
X133187Y-107259D01*
X133287Y-107259D01*
X133323Y-107296D01*
X133400Y-107327D01*
X133482Y-107328D01*
X133797Y-107328D01*
X133662Y-107462D01*
X133590Y-107571D01*
X133564Y-107700D01*
X133564Y-108250D01*
X133590Y-108378D01*
X133662Y-108487D01*
X134025Y-108850D01*
X133950Y-108850D01*
X133950Y-110730D01*
X133341Y-110729D01*
X132396Y-111120D01*
X132132Y-111383D01*
X132132Y-109604D01*
X132059Y-109427D01*
X131923Y-109291D01*
X131746Y-109217D01*
X131554Y-109217D01*
X131377Y-109290D01*
X131241Y-109426D01*
X131167Y-109603D01*
X131167Y-109795D01*
X131240Y-109972D01*
X131376Y-110108D01*
X131553Y-110182D01*
X131745Y-110182D01*
X131922Y-110109D01*
X132058Y-109973D01*
X132132Y-109796D01*
X132132Y-109604D01*
X132132Y-111383D01*
X131672Y-111842D01*
X131280Y-112786D01*
X131280Y-113087D01*
X131276Y-113084D01*
X131257Y-113065D01*
X131231Y-113054D01*
X131208Y-113039D01*
X131180Y-113033D01*
X131155Y-113022D01*
X131127Y-113022D01*
X131104Y-113018D01*
X131104Y-110831D01*
X131093Y-110613D01*
X131031Y-110462D01*
X130935Y-110434D01*
X130865Y-110505D01*
X130865Y-110364D01*
X130837Y-110268D01*
X130631Y-110195D01*
X130413Y-110206D01*
X130262Y-110268D01*
X130234Y-110364D01*
X130550Y-110679D01*
X130865Y-110364D01*
X130865Y-110505D01*
X130620Y-110750D01*
X130935Y-111065D01*
X131031Y-111037D01*
X131104Y-110831D01*
X131104Y-113018D01*
X131100Y-113017D01*
X130865Y-113017D01*
X130865Y-111135D01*
X130550Y-110820D01*
X130479Y-110891D01*
X130479Y-110750D01*
X130164Y-110434D01*
X130068Y-110462D01*
X129995Y-110668D01*
X130006Y-110886D01*
X130068Y-111037D01*
X130164Y-111065D01*
X130479Y-110750D01*
X130479Y-110891D01*
X130234Y-111135D01*
X130262Y-111231D01*
X130468Y-111304D01*
X130686Y-111293D01*
X130837Y-111231D01*
X130865Y-111135D01*
X130865Y-113017D01*
X125230Y-113017D01*
X125236Y-113011D01*
X125343Y-112754D01*
X125343Y-112476D01*
X125237Y-112219D01*
X125040Y-112022D01*
X124783Y-111915D01*
X124505Y-111915D01*
X124248Y-112021D01*
X124051Y-112218D01*
X123944Y-112475D01*
X123944Y-112753D01*
X124050Y-113010D01*
X124057Y-113017D01*
X119049Y-113017D01*
X119055Y-113011D01*
X119162Y-112754D01*
X119162Y-112476D01*
X119056Y-112219D01*
X118859Y-112022D01*
X118602Y-111915D01*
X118324Y-111915D01*
X118067Y-112021D01*
X118032Y-112056D01*
X118032Y-89750D01*
X118032Y-89450D01*
X118032Y-87650D01*
X118032Y-85232D01*
X123101Y-85232D01*
X122787Y-85362D01*
X122507Y-85642D01*
X122355Y-86007D01*
X122354Y-86403D01*
X122506Y-86769D01*
X122785Y-87049D01*
X123151Y-87201D01*
X123547Y-87201D01*
X123912Y-87050D01*
X124192Y-86770D01*
X124344Y-86405D01*
X124345Y-86009D01*
X124193Y-85643D01*
X123914Y-85363D01*
X123599Y-85232D01*
X131050Y-85232D01*
X131077Y-85227D01*
X131104Y-85227D01*
X131130Y-85216D01*
X131158Y-85210D01*
X131181Y-85195D01*
X131206Y-85185D01*
X131226Y-85165D01*
X131249Y-85149D01*
X131265Y-85126D01*
X131280Y-85111D01*
X131279Y-85458D01*
X131670Y-86403D01*
X132392Y-87127D01*
X133336Y-87519D01*
X134358Y-87520D01*
X135303Y-87129D01*
X136027Y-86407D01*
X136419Y-85463D01*
X136419Y-85110D01*
X136432Y-85123D01*
X136450Y-85149D01*
X136476Y-85167D01*
X136494Y-85184D01*
X136516Y-85194D01*
X136541Y-85210D01*
X136571Y-85216D01*
X136596Y-85226D01*
X136621Y-85226D01*
X136650Y-85232D01*
X147732Y-85232D01*
X149367Y-86867D01*
X149367Y-88250D01*
X149367Y-88250D01*
G37*
G54D42*
X149367Y-88250D02*
X133179Y-88250D01*
X130439Y-90990D01*
X130439Y-89254D01*
X130435Y-88841D01*
X130284Y-88475D01*
X130138Y-88388D01*
X130067Y-88459D01*
X130067Y-88318D01*
X129980Y-88172D01*
X129598Y-88017D01*
X129185Y-88020D01*
X128819Y-88172D01*
X128732Y-88318D01*
X129400Y-88985D01*
X130067Y-88318D01*
X130067Y-88459D01*
X129470Y-89056D01*
X130138Y-89723D01*
X130284Y-89636D01*
X130439Y-89254D01*
X130439Y-90990D01*
X130067Y-91361D01*
X130067Y-89794D01*
X129400Y-89127D01*
X129329Y-89197D01*
X129329Y-89056D01*
X128661Y-88388D01*
X128515Y-88475D01*
X128360Y-88858D01*
X128364Y-89270D01*
X128515Y-89636D01*
X128661Y-89723D01*
X129329Y-89056D01*
X129329Y-89197D01*
X128732Y-89794D01*
X128819Y-89940D01*
X129201Y-90095D01*
X129614Y-90092D01*
X129980Y-89940D01*
X130067Y-89794D01*
X130067Y-91361D01*
X129964Y-91464D01*
X129179Y-92250D01*
X123329Y-92250D01*
X121845Y-93718D01*
X121845Y-87309D01*
X121693Y-86943D01*
X121414Y-86663D01*
X121048Y-86511D01*
X120652Y-86511D01*
X120287Y-86662D01*
X120007Y-86942D01*
X119855Y-87307D01*
X119854Y-87703D01*
X120006Y-88069D01*
X120285Y-88349D01*
X120651Y-88501D01*
X121047Y-88501D01*
X121412Y-88350D01*
X121692Y-88070D01*
X121844Y-87705D01*
X121845Y-87309D01*
X121845Y-93718D01*
X120595Y-94954D01*
X120595Y-90359D01*
X120443Y-89993D01*
X120164Y-89713D01*
X119798Y-89561D01*
X119402Y-89561D01*
X119037Y-89712D01*
X118757Y-89992D01*
X118605Y-90357D01*
X118604Y-90753D01*
X118756Y-91119D01*
X119035Y-91399D01*
X119401Y-91551D01*
X119797Y-91551D01*
X120162Y-91400D01*
X120442Y-91120D01*
X120594Y-90755D01*
X120595Y-90359D01*
X120595Y-94954D01*
X120245Y-95300D01*
X120245Y-93659D01*
X120093Y-93293D01*
X119814Y-93013D01*
X119448Y-92861D01*
X119052Y-92861D01*
X118687Y-93012D01*
X118407Y-93292D01*
X118255Y-93657D01*
X118254Y-94053D01*
X118406Y-94419D01*
X118685Y-94699D01*
X119051Y-94851D01*
X119447Y-94851D01*
X119812Y-94700D01*
X120092Y-94420D01*
X120244Y-94055D01*
X120245Y-93659D01*
X120245Y-95300D01*
X118700Y-96829D01*
X118700Y-99806D01*
X118686Y-99801D01*
X118470Y-99812D01*
X118322Y-99874D01*
X118295Y-99968D01*
X118606Y-100279D01*
X118611Y-100273D01*
X118682Y-100344D01*
X118676Y-100350D01*
X118682Y-100355D01*
X118611Y-100426D01*
X118606Y-100420D01*
X118535Y-100491D01*
X118535Y-100350D01*
X118224Y-100039D01*
X118130Y-100066D01*
X118057Y-100269D01*
X118068Y-100485D01*
X118130Y-100633D01*
X118224Y-100660D01*
X118535Y-100350D01*
X118535Y-100491D01*
X118295Y-100731D01*
X118322Y-100825D01*
X118525Y-100898D01*
X118700Y-100889D01*
X118700Y-101853D01*
X118520Y-101862D01*
X118372Y-101924D01*
X118345Y-102018D01*
X118656Y-102329D01*
X118661Y-102323D01*
X118700Y-102362D01*
X118700Y-102437D01*
X118661Y-102476D01*
X118656Y-102470D01*
X118585Y-102541D01*
X118585Y-102400D01*
X118274Y-102089D01*
X118180Y-102116D01*
X118107Y-102319D01*
X118118Y-102535D01*
X118180Y-102683D01*
X118274Y-102710D01*
X118585Y-102400D01*
X118585Y-102541D01*
X118345Y-102781D01*
X118372Y-102875D01*
X118575Y-102948D01*
X118700Y-102941D01*
X118700Y-106220D01*
X119131Y-106657D01*
X118995Y-106600D01*
X118717Y-106600D01*
X118460Y-106706D01*
X118263Y-106903D01*
X118156Y-107160D01*
X118156Y-107438D01*
X118262Y-107695D01*
X118459Y-107892D01*
X118716Y-107999D01*
X118994Y-107999D01*
X119251Y-107893D01*
X119448Y-107696D01*
X119555Y-107439D01*
X119555Y-107161D01*
X119501Y-107031D01*
X123129Y-110700D01*
X127150Y-110700D01*
X127150Y-106200D01*
X126839Y-106200D01*
X126887Y-106180D01*
X127029Y-106037D01*
X127100Y-105869D01*
X127169Y-106037D01*
X127312Y-106179D01*
X127498Y-106257D01*
X127700Y-106257D01*
X127887Y-106180D01*
X128029Y-106037D01*
X128074Y-105930D01*
X128118Y-106037D01*
X128214Y-106065D01*
X128529Y-105750D01*
X128214Y-105434D01*
X128118Y-105462D01*
X128077Y-105577D01*
X128030Y-105462D01*
X127887Y-105320D01*
X127719Y-105249D01*
X127887Y-105180D01*
X128029Y-105037D01*
X128074Y-104930D01*
X128118Y-105037D01*
X128214Y-105065D01*
X128529Y-104750D01*
X128523Y-104744D01*
X128594Y-104673D01*
X128600Y-104679D01*
X128605Y-104673D01*
X128676Y-104744D01*
X128670Y-104750D01*
X128676Y-104755D01*
X128605Y-104826D01*
X128600Y-104820D01*
X128284Y-105135D01*
X128312Y-105231D01*
X128360Y-105248D01*
X128312Y-105268D01*
X128284Y-105364D01*
X128600Y-105679D01*
X128605Y-105673D01*
X128676Y-105744D01*
X128670Y-105750D01*
X128676Y-105755D01*
X128605Y-105826D01*
X128600Y-105820D01*
X128284Y-106135D01*
X128312Y-106231D01*
X128518Y-106304D01*
X128736Y-106293D01*
X128887Y-106231D01*
X128904Y-106172D01*
X128904Y-110056D01*
X127746Y-111214D01*
X120790Y-111214D01*
X120661Y-111240D01*
X120552Y-111312D01*
X120456Y-111408D01*
X120343Y-111455D01*
X120235Y-111563D01*
X120177Y-111703D01*
X120177Y-111855D01*
X120235Y-111996D01*
X120343Y-112104D01*
X120483Y-112162D01*
X120635Y-112162D01*
X120776Y-112104D01*
X120884Y-111996D01*
X120930Y-111885D01*
X127885Y-111885D01*
X128013Y-111859D01*
X128122Y-111787D01*
X129477Y-110432D01*
X129477Y-110432D01*
X129477Y-110432D01*
X129549Y-110323D01*
X129549Y-110323D01*
X129575Y-110195D01*
X129575Y-110195D01*
X129575Y-105867D01*
X129618Y-105931D01*
X129968Y-106281D01*
X129968Y-106281D01*
X130051Y-106337D01*
X130149Y-106356D01*
X130149Y-106356D01*
X130150Y-106356D01*
X130225Y-106356D01*
X130120Y-106462D01*
X130042Y-106648D01*
X130042Y-106850D01*
X130119Y-107037D01*
X130214Y-107132D01*
X130214Y-108100D01*
X130240Y-108228D01*
X130312Y-108337D01*
X130912Y-108937D01*
X131021Y-109009D01*
X131021Y-109009D01*
X131150Y-109035D01*
X131303Y-109035D01*
X131376Y-109108D01*
X131553Y-109182D01*
X131745Y-109182D01*
X131922Y-109109D01*
X132058Y-108973D01*
X132132Y-108796D01*
X132132Y-108604D01*
X132059Y-108427D01*
X131923Y-108291D01*
X131746Y-108217D01*
X131554Y-108217D01*
X131377Y-108290D01*
X131303Y-108364D01*
X131288Y-108364D01*
X130885Y-107961D01*
X130885Y-107132D01*
X130979Y-107037D01*
X131057Y-106851D01*
X131057Y-106649D01*
X130980Y-106462D01*
X130874Y-106356D01*
X130943Y-106356D01*
X131393Y-106806D01*
X131393Y-107217D01*
X131333Y-107217D01*
X131257Y-107249D01*
X131199Y-107307D01*
X131167Y-107383D01*
X131167Y-107466D01*
X131167Y-108016D01*
X131199Y-108092D01*
X131257Y-108150D01*
X131333Y-108182D01*
X131416Y-108182D01*
X131966Y-108182D01*
X132042Y-108150D01*
X132100Y-108092D01*
X132132Y-108016D01*
X132132Y-108009D01*
X132213Y-108009D01*
X132229Y-108046D01*
X132287Y-108105D01*
X132363Y-108136D01*
X132446Y-108137D01*
X133036Y-108137D01*
X133112Y-108105D01*
X133170Y-108047D01*
X133202Y-107970D01*
X133202Y-107888D01*
X133202Y-107377D01*
X133170Y-107301D01*
X133169Y-107300D01*
X133170Y-107299D01*
X133187Y-107259D01*
X133287Y-107259D01*
X133323Y-107296D01*
X133400Y-107327D01*
X133482Y-107328D01*
X133797Y-107328D01*
X133662Y-107462D01*
X133590Y-107571D01*
X133564Y-107700D01*
X133564Y-108250D01*
X133590Y-108378D01*
X133662Y-108487D01*
X134025Y-108850D01*
X133950Y-108850D01*
X133950Y-110730D01*
X133341Y-110729D01*
X132396Y-111120D01*
X132132Y-111383D01*
X132132Y-109604D01*
X132059Y-109427D01*
X131923Y-109291D01*
X131746Y-109217D01*
X131554Y-109217D01*
X131377Y-109290D01*
X131241Y-109426D01*
X131167Y-109603D01*
X131167Y-109795D01*
X131240Y-109972D01*
X131376Y-110108D01*
X131553Y-110182D01*
X131745Y-110182D01*
X131922Y-110109D01*
X132058Y-109973D01*
X132132Y-109796D01*
X132132Y-109604D01*
X132132Y-111383D01*
X131672Y-111842D01*
X131280Y-112786D01*
X131280Y-113087D01*
X131276Y-113084D01*
X131257Y-113065D01*
X131231Y-113054D01*
X131208Y-113039D01*
X131180Y-113033D01*
X131155Y-113022D01*
X131127Y-113022D01*
X131104Y-113018D01*
X131104Y-110831D01*
X131093Y-110613D01*
X131031Y-110462D01*
X130935Y-110434D01*
X130865Y-110505D01*
X130865Y-110364D01*
X130837Y-110268D01*
X130631Y-110195D01*
X130413Y-110206D01*
X130262Y-110268D01*
X130234Y-110364D01*
X130550Y-110679D01*
X130865Y-110364D01*
X130865Y-110505D01*
X130620Y-110750D01*
X130935Y-111065D01*
X131031Y-111037D01*
X131104Y-110831D01*
X131104Y-113018D01*
X131100Y-113017D01*
X130865Y-113017D01*
X130865Y-111135D01*
X130550Y-110820D01*
X130479Y-110891D01*
X130479Y-110750D01*
X130164Y-110434D01*
X130068Y-110462D01*
X129995Y-110668D01*
X130006Y-110886D01*
X130068Y-111037D01*
X130164Y-111065D01*
X130479Y-110750D01*
X130479Y-110891D01*
X130234Y-111135D01*
X130262Y-111231D01*
X130468Y-111304D01*
X130686Y-111293D01*
X130837Y-111231D01*
X130865Y-111135D01*
X130865Y-113017D01*
X125230Y-113017D01*
X125236Y-113011D01*
X125343Y-112754D01*
X125343Y-112476D01*
X125237Y-112219D01*
X125040Y-112022D01*
X124783Y-111915D01*
X124505Y-111915D01*
X124248Y-112021D01*
X124051Y-112218D01*
X123944Y-112475D01*
X123944Y-112753D01*
X124050Y-113010D01*
X124057Y-113017D01*
X119049Y-113017D01*
X119055Y-113011D01*
X119162Y-112754D01*
X119162Y-112476D01*
X119056Y-112219D01*
X118859Y-112022D01*
X118602Y-111915D01*
X118324Y-111915D01*
X118067Y-112021D01*
X118032Y-112056D01*
X118032Y-89750D01*
X118032Y-89450D01*
X118032Y-87650D01*
X118032Y-85232D01*
X123101Y-85232D01*
X122787Y-85362D01*
X122507Y-85642D01*
X122355Y-86007D01*
X122354Y-86403D01*
X122506Y-86769D01*
X122785Y-87049D01*
X123151Y-87201D01*
X123547Y-87201D01*
X123912Y-87050D01*
X124192Y-86770D01*
X124344Y-86405D01*
X124345Y-86009D01*
X124193Y-85643D01*
X123914Y-85363D01*
X123599Y-85232D01*
X131050Y-85232D01*
X131077Y-85227D01*
X131104Y-85227D01*
X131130Y-85216D01*
X131158Y-85210D01*
X131181Y-85195D01*
X131206Y-85185D01*
X131226Y-85165D01*
X131249Y-85149D01*
X131265Y-85126D01*
X131280Y-85111D01*
X131279Y-85458D01*
X131670Y-86403D01*
X132392Y-87127D01*
X133336Y-87519D01*
X134358Y-87520D01*
X135303Y-87129D01*
X136027Y-86407D01*
X136419Y-85463D01*
X136419Y-85110D01*
X136432Y-85123D01*
X136450Y-85149D01*
X136476Y-85167D01*
X136494Y-85184D01*
X136516Y-85194D01*
X136541Y-85210D01*
X136571Y-85216D01*
X136596Y-85226D01*
X136621Y-85226D01*
X136650Y-85232D01*
X147732Y-85232D01*
X149367Y-86867D01*
X149367Y-88250D01*
G54D10*
G36*
X146856Y-104482D02*
X146682Y-104656D01*
X146678Y-104656D01*
X146678Y-103380D01*
X146665Y-103152D01*
X146603Y-103003D01*
X146508Y-102971D01*
X146428Y-103052D01*
X146428Y-102891D01*
X146414Y-102850D01*
X146428Y-102808D01*
X146100Y-102480D01*
X145771Y-102808D01*
X145785Y-102850D01*
X145771Y-102891D01*
X146100Y-103219D01*
X146428Y-102891D01*
X146428Y-103052D01*
X146180Y-103300D01*
X146508Y-103628D01*
X146603Y-103596D01*
X146678Y-103380D01*
X146678Y-104656D01*
X146428Y-104656D01*
X146428Y-103708D01*
X146100Y-103380D01*
X145771Y-103708D01*
X145803Y-103803D01*
X146019Y-103878D01*
X146247Y-103865D01*
X146396Y-103803D01*
X146428Y-103708D01*
X146428Y-104656D01*
X141406Y-104656D01*
X141406Y-107243D01*
X141603Y-107243D01*
X141476Y-107370D01*
X141404Y-107544D01*
X141404Y-107734D01*
X141476Y-107909D01*
X141610Y-108043D01*
X141784Y-108115D01*
X141974Y-108115D01*
X142149Y-108043D01*
X142283Y-107909D01*
X142355Y-107735D01*
X142355Y-107545D01*
X142283Y-107370D01*
X142156Y-107243D01*
X142556Y-107243D01*
X142556Y-111043D01*
X144382Y-111043D01*
X144756Y-111417D01*
X144756Y-111671D01*
X144619Y-111587D01*
X144538Y-111667D01*
X144538Y-111507D01*
X144450Y-111364D01*
X144069Y-111212D01*
X143659Y-111218D01*
X143309Y-111364D01*
X143221Y-111507D01*
X143880Y-112166D01*
X144538Y-111507D01*
X144538Y-111667D01*
X143960Y-112246D01*
X144619Y-112905D01*
X144756Y-112820D01*
X144756Y-113024D01*
X144514Y-113024D01*
X144538Y-112985D01*
X143880Y-112326D01*
X143799Y-112406D01*
X143799Y-112246D01*
X143140Y-111587D01*
X142997Y-111675D01*
X142846Y-112056D01*
X142852Y-112466D01*
X142997Y-112817D01*
X143140Y-112905D01*
X143799Y-112246D01*
X143799Y-112406D01*
X143221Y-112985D01*
X143245Y-113024D01*
X142583Y-113024D01*
X142583Y-112117D01*
X142570Y-111895D01*
X142520Y-111775D01*
X142520Y-110860D01*
X142444Y-110676D01*
X142355Y-110587D01*
X142355Y-109645D01*
X142355Y-108685D01*
X142283Y-108510D01*
X142149Y-108376D01*
X141975Y-108304D01*
X141785Y-108304D01*
X141610Y-108376D01*
X141476Y-108510D01*
X141404Y-108684D01*
X141404Y-108874D01*
X141476Y-109049D01*
X141610Y-109183D01*
X141784Y-109255D01*
X141974Y-109255D01*
X142149Y-109183D01*
X142283Y-109049D01*
X142355Y-108875D01*
X142355Y-108685D01*
X142355Y-109645D01*
X142283Y-109470D01*
X142149Y-109336D01*
X141975Y-109264D01*
X141785Y-109264D01*
X141610Y-109336D01*
X141476Y-109470D01*
X141404Y-109644D01*
X141404Y-109834D01*
X141476Y-110009D01*
X141610Y-110143D01*
X141784Y-110215D01*
X141974Y-110215D01*
X142149Y-110143D01*
X142283Y-110009D01*
X142355Y-109835D01*
X142355Y-109645D01*
X142355Y-110587D01*
X142304Y-110535D01*
X142120Y-110459D01*
X141920Y-110459D01*
X141736Y-110535D01*
X141595Y-110675D01*
X141519Y-110859D01*
X141519Y-111059D01*
X141595Y-111243D01*
X141735Y-111384D01*
X141919Y-111460D01*
X142119Y-111460D01*
X142303Y-111384D01*
X142444Y-111244D01*
X142520Y-111060D01*
X142520Y-110860D01*
X142520Y-111775D01*
X142511Y-111752D01*
X142417Y-111722D01*
X142337Y-111802D01*
X142337Y-111642D01*
X142307Y-111548D01*
X142097Y-111476D01*
X141875Y-111489D01*
X141732Y-111548D01*
X141702Y-111642D01*
X142020Y-111959D01*
X142337Y-111642D01*
X142337Y-111802D01*
X142100Y-112040D01*
X142417Y-112357D01*
X142511Y-112327D01*
X142583Y-112117D01*
X142583Y-113024D01*
X142337Y-113024D01*
X142337Y-112437D01*
X142020Y-112120D01*
X141939Y-112200D01*
X141939Y-112040D01*
X141622Y-111722D01*
X141528Y-111752D01*
X141456Y-111962D01*
X141469Y-112184D01*
X141528Y-112327D01*
X141622Y-112357D01*
X141939Y-112040D01*
X141939Y-112200D01*
X141702Y-112437D01*
X141732Y-112531D01*
X141942Y-112603D01*
X142164Y-112590D01*
X142307Y-112531D01*
X142337Y-112437D01*
X142337Y-113024D01*
X141294Y-113024D01*
X141294Y-102982D01*
X141294Y-101582D01*
X141204Y-101363D01*
X141037Y-101196D01*
X140818Y-101105D01*
X140582Y-101105D01*
X140363Y-101195D01*
X140196Y-101362D01*
X140105Y-101581D01*
X140105Y-101817D01*
X140195Y-102036D01*
X140362Y-102203D01*
X140581Y-102294D01*
X140817Y-102294D01*
X141036Y-102204D01*
X141203Y-102037D01*
X141294Y-101818D01*
X141294Y-101582D01*
X141294Y-102982D01*
X141204Y-102763D01*
X141037Y-102596D01*
X140818Y-102505D01*
X140582Y-102505D01*
X140363Y-102595D01*
X140196Y-102762D01*
X140105Y-102981D01*
X140105Y-103217D01*
X140195Y-103436D01*
X140362Y-103603D01*
X140581Y-103694D01*
X140817Y-103694D01*
X141036Y-103604D01*
X141203Y-103437D01*
X141294Y-103218D01*
X141294Y-102982D01*
X141294Y-113024D01*
X140404Y-113024D01*
X140404Y-108847D01*
X140404Y-107707D01*
X140390Y-107501D01*
X140338Y-107377D01*
X140248Y-107351D01*
X140168Y-107432D01*
X140168Y-107271D01*
X140142Y-107181D01*
X140113Y-107171D01*
X140113Y-104331D01*
X140113Y-103728D01*
X140113Y-103631D01*
X140076Y-103541D01*
X140007Y-103473D01*
X139918Y-103436D01*
X139892Y-103436D01*
X139986Y-103342D01*
X140070Y-103140D01*
X140070Y-102920D01*
X139987Y-102718D01*
X139832Y-102563D01*
X139752Y-102530D01*
X139831Y-102497D01*
X139986Y-102342D01*
X140070Y-102140D01*
X140070Y-101920D01*
X139987Y-101718D01*
X139832Y-101563D01*
X139630Y-101479D01*
X139410Y-101479D01*
X139208Y-101562D01*
X139053Y-101717D01*
X138969Y-101919D01*
X138969Y-102139D01*
X139052Y-102341D01*
X139207Y-102496D01*
X139287Y-102529D01*
X139208Y-102562D01*
X139053Y-102717D01*
X138969Y-102919D01*
X138969Y-103139D01*
X139052Y-103341D01*
X139147Y-103436D01*
X139121Y-103436D01*
X139032Y-103473D01*
X138963Y-103541D01*
X138926Y-103631D01*
X138926Y-103728D01*
X138926Y-103912D01*
X138987Y-103973D01*
X139463Y-103973D01*
X139463Y-103965D01*
X139576Y-103965D01*
X139576Y-103973D01*
X140052Y-103973D01*
X140113Y-103912D01*
X140113Y-103728D01*
X140113Y-104331D01*
X140113Y-104147D01*
X140052Y-104086D01*
X139576Y-104086D01*
X139576Y-104562D01*
X139637Y-104623D01*
X139918Y-104623D01*
X140007Y-104586D01*
X140076Y-104518D01*
X140113Y-104428D01*
X140113Y-104331D01*
X140113Y-107171D01*
X139947Y-107115D01*
X139741Y-107129D01*
X139617Y-107181D01*
X139591Y-107271D01*
X139880Y-107559D01*
X140168Y-107271D01*
X140168Y-107432D01*
X139960Y-107640D01*
X140248Y-107928D01*
X140338Y-107902D01*
X140404Y-107707D01*
X140404Y-108847D01*
X140390Y-108641D01*
X140338Y-108517D01*
X140248Y-108491D01*
X140168Y-108572D01*
X140168Y-108411D01*
X140168Y-108008D01*
X139880Y-107720D01*
X139799Y-107800D01*
X139799Y-107640D01*
X139511Y-107351D01*
X139463Y-107365D01*
X139463Y-104562D01*
X139463Y-104086D01*
X138987Y-104086D01*
X138926Y-104147D01*
X138926Y-104331D01*
X138926Y-104428D01*
X138963Y-104518D01*
X139032Y-104586D01*
X139121Y-104623D01*
X139402Y-104623D01*
X139463Y-104562D01*
X139463Y-107365D01*
X139421Y-107377D01*
X139355Y-107572D01*
X139369Y-107778D01*
X139421Y-107902D01*
X139511Y-107928D01*
X139799Y-107640D01*
X139799Y-107800D01*
X139591Y-108008D01*
X139617Y-108098D01*
X139812Y-108164D01*
X140018Y-108150D01*
X140142Y-108098D01*
X140168Y-108008D01*
X140168Y-108411D01*
X140142Y-108321D01*
X139947Y-108255D01*
X139741Y-108269D01*
X139617Y-108321D01*
X139591Y-108411D01*
X139880Y-108699D01*
X140168Y-108411D01*
X140168Y-108572D01*
X139960Y-108780D01*
X140248Y-109068D01*
X140338Y-109042D01*
X140404Y-108847D01*
X140404Y-113024D01*
X140355Y-113024D01*
X140355Y-109645D01*
X140283Y-109470D01*
X140149Y-109336D01*
X140027Y-109286D01*
X140142Y-109238D01*
X140168Y-109148D01*
X139880Y-108860D01*
X139799Y-108940D01*
X139799Y-108780D01*
X139511Y-108491D01*
X139421Y-108517D01*
X139355Y-108712D01*
X139369Y-108918D01*
X139421Y-109042D01*
X139511Y-109068D01*
X139799Y-108780D01*
X139799Y-108940D01*
X139591Y-109148D01*
X139617Y-109238D01*
X139744Y-109281D01*
X139610Y-109336D01*
X139476Y-109470D01*
X139404Y-109644D01*
X139404Y-109834D01*
X139476Y-110009D01*
X139610Y-110143D01*
X139784Y-110215D01*
X139974Y-110215D01*
X140149Y-110143D01*
X140283Y-110009D01*
X140355Y-109835D01*
X140355Y-109645D01*
X140355Y-113024D01*
X139242Y-113024D01*
X139242Y-108337D01*
X139228Y-108124D01*
X139173Y-107991D01*
X139081Y-107964D01*
X139001Y-108044D01*
X139001Y-107884D01*
X138974Y-107792D01*
X138771Y-107723D01*
X138640Y-107731D01*
X138640Y-106380D01*
X138620Y-106332D01*
X138620Y-105220D01*
X138544Y-105036D01*
X138404Y-104895D01*
X138220Y-104819D01*
X138020Y-104819D01*
X137836Y-104895D01*
X137695Y-105035D01*
X137619Y-105219D01*
X137619Y-105419D01*
X137695Y-105603D01*
X137835Y-105744D01*
X138019Y-105820D01*
X138219Y-105820D01*
X138403Y-105744D01*
X138544Y-105604D01*
X138620Y-105420D01*
X138620Y-105220D01*
X138620Y-106332D01*
X138564Y-106196D01*
X138424Y-106055D01*
X138240Y-105979D01*
X138040Y-105979D01*
X137856Y-106055D01*
X137715Y-106195D01*
X137639Y-106379D01*
X137639Y-106579D01*
X137715Y-106763D01*
X137855Y-106904D01*
X138039Y-106980D01*
X138239Y-106980D01*
X138423Y-106904D01*
X138564Y-106764D01*
X138640Y-106580D01*
X138640Y-106380D01*
X138640Y-107731D01*
X138558Y-107737D01*
X138425Y-107792D01*
X138398Y-107884D01*
X138700Y-108185D01*
X139001Y-107884D01*
X139001Y-108044D01*
X138780Y-108266D01*
X138785Y-108271D01*
X138705Y-108351D01*
X138700Y-108346D01*
X138694Y-108351D01*
X138619Y-108277D01*
X138614Y-108271D01*
X138619Y-108266D01*
X138318Y-107964D01*
X138226Y-107991D01*
X138157Y-108194D01*
X138171Y-108407D01*
X138226Y-108540D01*
X138318Y-108567D01*
X138297Y-108588D01*
X138292Y-108590D01*
X138236Y-108646D01*
X138205Y-108720D01*
X138205Y-108800D01*
X138205Y-109387D01*
X138236Y-109461D01*
X138292Y-109517D01*
X138366Y-109548D01*
X138446Y-109548D01*
X139033Y-109548D01*
X139107Y-109517D01*
X139163Y-109461D01*
X139194Y-109387D01*
X139194Y-109307D01*
X139194Y-108720D01*
X139163Y-108646D01*
X139107Y-108590D01*
X139102Y-108588D01*
X139081Y-108567D01*
X139173Y-108540D01*
X139242Y-108337D01*
X139242Y-113024D01*
X139194Y-113024D01*
X138535Y-113024D01*
X138535Y-111937D01*
X138520Y-111901D01*
X138520Y-110860D01*
X138444Y-110676D01*
X138304Y-110535D01*
X138120Y-110459D01*
X137920Y-110459D01*
X137736Y-110535D01*
X137595Y-110675D01*
X137526Y-110841D01*
X137464Y-110691D01*
X137324Y-110550D01*
X137140Y-110474D01*
X136940Y-110474D01*
X136756Y-110550D01*
X136615Y-110690D01*
X136597Y-110735D01*
X136579Y-110691D01*
X136486Y-110663D01*
X136406Y-110743D01*
X136406Y-110583D01*
X136378Y-110490D01*
X136173Y-110420D01*
X135957Y-110434D01*
X135821Y-110490D01*
X135793Y-110583D01*
X136100Y-110889D01*
X136406Y-110583D01*
X136406Y-110743D01*
X136180Y-110970D01*
X136486Y-111276D01*
X136579Y-111248D01*
X136593Y-111205D01*
X136615Y-111258D01*
X136755Y-111399D01*
X136939Y-111475D01*
X137139Y-111475D01*
X137323Y-111399D01*
X137464Y-111259D01*
X137533Y-111093D01*
X137595Y-111243D01*
X137735Y-111384D01*
X137919Y-111460D01*
X138119Y-111460D01*
X138303Y-111384D01*
X138444Y-111244D01*
X138520Y-111060D01*
X138520Y-110860D01*
X138520Y-111901D01*
X138457Y-111748D01*
X138312Y-111602D01*
X138123Y-111524D01*
X137917Y-111524D01*
X137728Y-111602D01*
X137582Y-111747D01*
X137504Y-111936D01*
X137504Y-112142D01*
X137582Y-112331D01*
X137727Y-112477D01*
X137916Y-112555D01*
X138122Y-112555D01*
X138311Y-112477D01*
X138457Y-112332D01*
X138535Y-112143D01*
X138535Y-111937D01*
X138535Y-113024D01*
X136600Y-113024D01*
X136574Y-113029D01*
X136545Y-113029D01*
X136518Y-113040D01*
X136494Y-113045D01*
X136474Y-113058D01*
X136445Y-113070D01*
X136424Y-113092D01*
X136413Y-113099D01*
X136413Y-112792D01*
X136406Y-112775D01*
X136406Y-111356D01*
X136100Y-111050D01*
X136019Y-111130D01*
X136019Y-110970D01*
X135713Y-110663D01*
X135620Y-110691D01*
X135550Y-110896D01*
X135564Y-111112D01*
X135620Y-111248D01*
X135713Y-111276D01*
X136019Y-110970D01*
X136019Y-111130D01*
X135793Y-111356D01*
X135821Y-111449D01*
X136026Y-111519D01*
X136242Y-111505D01*
X136378Y-111449D01*
X136406Y-111356D01*
X136406Y-112775D01*
X136024Y-111850D01*
X135303Y-111128D01*
X135193Y-111082D01*
X135193Y-106267D01*
X135298Y-106163D01*
X135748Y-106613D01*
X135675Y-106685D01*
X135599Y-106869D01*
X135599Y-107069D01*
X135675Y-107253D01*
X135815Y-107394D01*
X135999Y-107470D01*
X136199Y-107470D01*
X136383Y-107394D01*
X136524Y-107254D01*
X136568Y-107146D01*
X136615Y-107258D01*
X136755Y-107399D01*
X136939Y-107475D01*
X137139Y-107475D01*
X137323Y-107399D01*
X137464Y-107259D01*
X137540Y-107075D01*
X137540Y-106875D01*
X137464Y-106691D01*
X137324Y-106550D01*
X137140Y-106474D01*
X136940Y-106474D01*
X136756Y-106550D01*
X136615Y-106690D01*
X136571Y-106798D01*
X136524Y-106686D01*
X136428Y-106590D01*
X136428Y-106500D01*
X136428Y-106499D01*
X136403Y-106374D01*
X136332Y-106267D01*
X136332Y-106267D01*
X135763Y-105698D01*
X136143Y-105317D01*
X136143Y-100882D01*
X135943Y-100682D01*
X135943Y-98243D01*
X140717Y-98243D01*
X141443Y-97517D01*
X141443Y-96800D01*
X141443Y-92943D01*
X143906Y-92943D01*
X143906Y-97482D01*
X142556Y-98832D01*
X142556Y-102800D01*
X142556Y-103717D01*
X142882Y-104043D01*
X145267Y-104043D01*
X145643Y-103667D01*
X145643Y-103611D01*
X145691Y-103628D01*
X146019Y-103300D01*
X145691Y-102971D01*
X145643Y-102988D01*
X145643Y-102711D01*
X145691Y-102728D01*
X146019Y-102400D01*
X145691Y-102071D01*
X145643Y-102088D01*
X145643Y-101893D01*
X145810Y-101893D01*
X145803Y-101896D01*
X145771Y-101991D01*
X146100Y-102319D01*
X146105Y-102314D01*
X146185Y-102394D01*
X146180Y-102400D01*
X146508Y-102728D01*
X146603Y-102696D01*
X146678Y-102480D01*
X146667Y-102278D01*
X146856Y-102467D01*
X146856Y-104482D01*
X146856Y-104482D01*
G37*
G54D43*
X146856Y-104482D02*
X146682Y-104656D01*
X146678Y-104656D01*
X146678Y-103380D01*
X146665Y-103152D01*
X146603Y-103003D01*
X146508Y-102971D01*
X146428Y-103052D01*
X146428Y-102891D01*
X146414Y-102850D01*
X146428Y-102808D01*
X146100Y-102480D01*
X145771Y-102808D01*
X145785Y-102850D01*
X145771Y-102891D01*
X146100Y-103219D01*
X146428Y-102891D01*
X146428Y-103052D01*
X146180Y-103300D01*
X146508Y-103628D01*
X146603Y-103596D01*
X146678Y-103380D01*
X146678Y-104656D01*
X146428Y-104656D01*
X146428Y-103708D01*
X146100Y-103380D01*
X145771Y-103708D01*
X145803Y-103803D01*
X146019Y-103878D01*
X146247Y-103865D01*
X146396Y-103803D01*
X146428Y-103708D01*
X146428Y-104656D01*
X141406Y-104656D01*
X141406Y-107243D01*
X141603Y-107243D01*
X141476Y-107370D01*
X141404Y-107544D01*
X141404Y-107734D01*
X141476Y-107909D01*
X141610Y-108043D01*
X141784Y-108115D01*
X141974Y-108115D01*
X142149Y-108043D01*
X142283Y-107909D01*
X142355Y-107735D01*
X142355Y-107545D01*
X142283Y-107370D01*
X142156Y-107243D01*
X142556Y-107243D01*
X142556Y-111043D01*
X144382Y-111043D01*
X144756Y-111417D01*
X144756Y-111671D01*
X144619Y-111587D01*
X144538Y-111667D01*
X144538Y-111507D01*
X144450Y-111364D01*
X144069Y-111212D01*
X143659Y-111218D01*
X143309Y-111364D01*
X143221Y-111507D01*
X143880Y-112166D01*
X144538Y-111507D01*
X144538Y-111667D01*
X143960Y-112246D01*
X144619Y-112905D01*
X144756Y-112820D01*
X144756Y-113024D01*
X144514Y-113024D01*
X144538Y-112985D01*
X143880Y-112326D01*
X143799Y-112406D01*
X143799Y-112246D01*
X143140Y-111587D01*
X142997Y-111675D01*
X142846Y-112056D01*
X142852Y-112466D01*
X142997Y-112817D01*
X143140Y-112905D01*
X143799Y-112246D01*
X143799Y-112406D01*
X143221Y-112985D01*
X143245Y-113024D01*
X142583Y-113024D01*
X142583Y-112117D01*
X142570Y-111895D01*
X142520Y-111775D01*
X142520Y-110860D01*
X142444Y-110676D01*
X142355Y-110587D01*
X142355Y-109645D01*
X142355Y-108685D01*
X142283Y-108510D01*
X142149Y-108376D01*
X141975Y-108304D01*
X141785Y-108304D01*
X141610Y-108376D01*
X141476Y-108510D01*
X141404Y-108684D01*
X141404Y-108874D01*
X141476Y-109049D01*
X141610Y-109183D01*
X141784Y-109255D01*
X141974Y-109255D01*
X142149Y-109183D01*
X142283Y-109049D01*
X142355Y-108875D01*
X142355Y-108685D01*
X142355Y-109645D01*
X142283Y-109470D01*
X142149Y-109336D01*
X141975Y-109264D01*
X141785Y-109264D01*
X141610Y-109336D01*
X141476Y-109470D01*
X141404Y-109644D01*
X141404Y-109834D01*
X141476Y-110009D01*
X141610Y-110143D01*
X141784Y-110215D01*
X141974Y-110215D01*
X142149Y-110143D01*
X142283Y-110009D01*
X142355Y-109835D01*
X142355Y-109645D01*
X142355Y-110587D01*
X142304Y-110535D01*
X142120Y-110459D01*
X141920Y-110459D01*
X141736Y-110535D01*
X141595Y-110675D01*
X141519Y-110859D01*
X141519Y-111059D01*
X141595Y-111243D01*
X141735Y-111384D01*
X141919Y-111460D01*
X142119Y-111460D01*
X142303Y-111384D01*
X142444Y-111244D01*
X142520Y-111060D01*
X142520Y-110860D01*
X142520Y-111775D01*
X142511Y-111752D01*
X142417Y-111722D01*
X142337Y-111802D01*
X142337Y-111642D01*
X142307Y-111548D01*
X142097Y-111476D01*
X141875Y-111489D01*
X141732Y-111548D01*
X141702Y-111642D01*
X142020Y-111959D01*
X142337Y-111642D01*
X142337Y-111802D01*
X142100Y-112040D01*
X142417Y-112357D01*
X142511Y-112327D01*
X142583Y-112117D01*
X142583Y-113024D01*
X142337Y-113024D01*
X142337Y-112437D01*
X142020Y-112120D01*
X141939Y-112200D01*
X141939Y-112040D01*
X141622Y-111722D01*
X141528Y-111752D01*
X141456Y-111962D01*
X141469Y-112184D01*
X141528Y-112327D01*
X141622Y-112357D01*
X141939Y-112040D01*
X141939Y-112200D01*
X141702Y-112437D01*
X141732Y-112531D01*
X141942Y-112603D01*
X142164Y-112590D01*
X142307Y-112531D01*
X142337Y-112437D01*
X142337Y-113024D01*
X141294Y-113024D01*
X141294Y-102982D01*
X141294Y-101582D01*
X141204Y-101363D01*
X141037Y-101196D01*
X140818Y-101105D01*
X140582Y-101105D01*
X140363Y-101195D01*
X140196Y-101362D01*
X140105Y-101581D01*
X140105Y-101817D01*
X140195Y-102036D01*
X140362Y-102203D01*
X140581Y-102294D01*
X140817Y-102294D01*
X141036Y-102204D01*
X141203Y-102037D01*
X141294Y-101818D01*
X141294Y-101582D01*
X141294Y-102982D01*
X141204Y-102763D01*
X141037Y-102596D01*
X140818Y-102505D01*
X140582Y-102505D01*
X140363Y-102595D01*
X140196Y-102762D01*
X140105Y-102981D01*
X140105Y-103217D01*
X140195Y-103436D01*
X140362Y-103603D01*
X140581Y-103694D01*
X140817Y-103694D01*
X141036Y-103604D01*
X141203Y-103437D01*
X141294Y-103218D01*
X141294Y-102982D01*
X141294Y-113024D01*
X140404Y-113024D01*
X140404Y-108847D01*
X140404Y-107707D01*
X140390Y-107501D01*
X140338Y-107377D01*
X140248Y-107351D01*
X140168Y-107432D01*
X140168Y-107271D01*
X140142Y-107181D01*
X140113Y-107171D01*
X140113Y-104331D01*
X140113Y-103728D01*
X140113Y-103631D01*
X140076Y-103541D01*
X140007Y-103473D01*
X139918Y-103436D01*
X139892Y-103436D01*
X139986Y-103342D01*
X140070Y-103140D01*
X140070Y-102920D01*
X139987Y-102718D01*
X139832Y-102563D01*
X139752Y-102530D01*
X139831Y-102497D01*
X139986Y-102342D01*
X140070Y-102140D01*
X140070Y-101920D01*
X139987Y-101718D01*
X139832Y-101563D01*
X139630Y-101479D01*
X139410Y-101479D01*
X139208Y-101562D01*
X139053Y-101717D01*
X138969Y-101919D01*
X138969Y-102139D01*
X139052Y-102341D01*
X139207Y-102496D01*
X139287Y-102529D01*
X139208Y-102562D01*
X139053Y-102717D01*
X138969Y-102919D01*
X138969Y-103139D01*
X139052Y-103341D01*
X139147Y-103436D01*
X139121Y-103436D01*
X139032Y-103473D01*
X138963Y-103541D01*
X138926Y-103631D01*
X138926Y-103728D01*
X138926Y-103912D01*
X138987Y-103973D01*
X139463Y-103973D01*
X139463Y-103965D01*
X139576Y-103965D01*
X139576Y-103973D01*
X140052Y-103973D01*
X140113Y-103912D01*
X140113Y-103728D01*
X140113Y-104331D01*
X140113Y-104147D01*
X140052Y-104086D01*
X139576Y-104086D01*
X139576Y-104562D01*
X139637Y-104623D01*
X139918Y-104623D01*
X140007Y-104586D01*
X140076Y-104518D01*
X140113Y-104428D01*
X140113Y-104331D01*
X140113Y-107171D01*
X139947Y-107115D01*
X139741Y-107129D01*
X139617Y-107181D01*
X139591Y-107271D01*
X139880Y-107559D01*
X140168Y-107271D01*
X140168Y-107432D01*
X139960Y-107640D01*
X140248Y-107928D01*
X140338Y-107902D01*
X140404Y-107707D01*
X140404Y-108847D01*
X140390Y-108641D01*
X140338Y-108517D01*
X140248Y-108491D01*
X140168Y-108572D01*
X140168Y-108411D01*
X140168Y-108008D01*
X139880Y-107720D01*
X139799Y-107800D01*
X139799Y-107640D01*
X139511Y-107351D01*
X139463Y-107365D01*
X139463Y-104562D01*
X139463Y-104086D01*
X138987Y-104086D01*
X138926Y-104147D01*
X138926Y-104331D01*
X138926Y-104428D01*
X138963Y-104518D01*
X139032Y-104586D01*
X139121Y-104623D01*
X139402Y-104623D01*
X139463Y-104562D01*
X139463Y-107365D01*
X139421Y-107377D01*
X139355Y-107572D01*
X139369Y-107778D01*
X139421Y-107902D01*
X139511Y-107928D01*
X139799Y-107640D01*
X139799Y-107800D01*
X139591Y-108008D01*
X139617Y-108098D01*
X139812Y-108164D01*
X140018Y-108150D01*
X140142Y-108098D01*
X140168Y-108008D01*
X140168Y-108411D01*
X140142Y-108321D01*
X139947Y-108255D01*
X139741Y-108269D01*
X139617Y-108321D01*
X139591Y-108411D01*
X139880Y-108699D01*
X140168Y-108411D01*
X140168Y-108572D01*
X139960Y-108780D01*
X140248Y-109068D01*
X140338Y-109042D01*
X140404Y-108847D01*
X140404Y-113024D01*
X140355Y-113024D01*
X140355Y-109645D01*
X140283Y-109470D01*
X140149Y-109336D01*
X140027Y-109286D01*
X140142Y-109238D01*
X140168Y-109148D01*
X139880Y-108860D01*
X139799Y-108940D01*
X139799Y-108780D01*
X139511Y-108491D01*
X139421Y-108517D01*
X139355Y-108712D01*
X139369Y-108918D01*
X139421Y-109042D01*
X139511Y-109068D01*
X139799Y-108780D01*
X139799Y-108940D01*
X139591Y-109148D01*
X139617Y-109238D01*
X139744Y-109281D01*
X139610Y-109336D01*
X139476Y-109470D01*
X139404Y-109644D01*
X139404Y-109834D01*
X139476Y-110009D01*
X139610Y-110143D01*
X139784Y-110215D01*
X139974Y-110215D01*
X140149Y-110143D01*
X140283Y-110009D01*
X140355Y-109835D01*
X140355Y-109645D01*
X140355Y-113024D01*
X139242Y-113024D01*
X139242Y-108337D01*
X139228Y-108124D01*
X139173Y-107991D01*
X139081Y-107964D01*
X139001Y-108044D01*
X139001Y-107884D01*
X138974Y-107792D01*
X138771Y-107723D01*
X138640Y-107731D01*
X138640Y-106380D01*
X138620Y-106332D01*
X138620Y-105220D01*
X138544Y-105036D01*
X138404Y-104895D01*
X138220Y-104819D01*
X138020Y-104819D01*
X137836Y-104895D01*
X137695Y-105035D01*
X137619Y-105219D01*
X137619Y-105419D01*
X137695Y-105603D01*
X137835Y-105744D01*
X138019Y-105820D01*
X138219Y-105820D01*
X138403Y-105744D01*
X138544Y-105604D01*
X138620Y-105420D01*
X138620Y-105220D01*
X138620Y-106332D01*
X138564Y-106196D01*
X138424Y-106055D01*
X138240Y-105979D01*
X138040Y-105979D01*
X137856Y-106055D01*
X137715Y-106195D01*
X137639Y-106379D01*
X137639Y-106579D01*
X137715Y-106763D01*
X137855Y-106904D01*
X138039Y-106980D01*
X138239Y-106980D01*
X138423Y-106904D01*
X138564Y-106764D01*
X138640Y-106580D01*
X138640Y-106380D01*
X138640Y-107731D01*
X138558Y-107737D01*
X138425Y-107792D01*
X138398Y-107884D01*
X138700Y-108185D01*
X139001Y-107884D01*
X139001Y-108044D01*
X138780Y-108266D01*
X138785Y-108271D01*
X138705Y-108351D01*
X138700Y-108346D01*
X138694Y-108351D01*
X138619Y-108277D01*
X138614Y-108271D01*
X138619Y-108266D01*
X138318Y-107964D01*
X138226Y-107991D01*
X138157Y-108194D01*
X138171Y-108407D01*
X138226Y-108540D01*
X138318Y-108567D01*
X138297Y-108588D01*
X138292Y-108590D01*
X138236Y-108646D01*
X138205Y-108720D01*
X138205Y-108800D01*
X138205Y-109387D01*
X138236Y-109461D01*
X138292Y-109517D01*
X138366Y-109548D01*
X138446Y-109548D01*
X139033Y-109548D01*
X139107Y-109517D01*
X139163Y-109461D01*
X139194Y-109387D01*
X139194Y-109307D01*
X139194Y-108720D01*
X139163Y-108646D01*
X139107Y-108590D01*
X139102Y-108588D01*
X139081Y-108567D01*
X139173Y-108540D01*
X139242Y-108337D01*
X139242Y-113024D01*
X139194Y-113024D01*
X138535Y-113024D01*
X138535Y-111937D01*
X138520Y-111901D01*
X138520Y-110860D01*
X138444Y-110676D01*
X138304Y-110535D01*
X138120Y-110459D01*
X137920Y-110459D01*
X137736Y-110535D01*
X137595Y-110675D01*
X137526Y-110841D01*
X137464Y-110691D01*
X137324Y-110550D01*
X137140Y-110474D01*
X136940Y-110474D01*
X136756Y-110550D01*
X136615Y-110690D01*
X136597Y-110735D01*
X136579Y-110691D01*
X136486Y-110663D01*
X136406Y-110743D01*
X136406Y-110583D01*
X136378Y-110490D01*
X136173Y-110420D01*
X135957Y-110434D01*
X135821Y-110490D01*
X135793Y-110583D01*
X136100Y-110889D01*
X136406Y-110583D01*
X136406Y-110743D01*
X136180Y-110970D01*
X136486Y-111276D01*
X136579Y-111248D01*
X136593Y-111205D01*
X136615Y-111258D01*
X136755Y-111399D01*
X136939Y-111475D01*
X137139Y-111475D01*
X137323Y-111399D01*
X137464Y-111259D01*
X137533Y-111093D01*
X137595Y-111243D01*
X137735Y-111384D01*
X137919Y-111460D01*
X138119Y-111460D01*
X138303Y-111384D01*
X138444Y-111244D01*
X138520Y-111060D01*
X138520Y-110860D01*
X138520Y-111901D01*
X138457Y-111748D01*
X138312Y-111602D01*
X138123Y-111524D01*
X137917Y-111524D01*
X137728Y-111602D01*
X137582Y-111747D01*
X137504Y-111936D01*
X137504Y-112142D01*
X137582Y-112331D01*
X137727Y-112477D01*
X137916Y-112555D01*
X138122Y-112555D01*
X138311Y-112477D01*
X138457Y-112332D01*
X138535Y-112143D01*
X138535Y-111937D01*
X138535Y-113024D01*
X136600Y-113024D01*
X136574Y-113029D01*
X136545Y-113029D01*
X136518Y-113040D01*
X136494Y-113045D01*
X136474Y-113058D01*
X136445Y-113070D01*
X136424Y-113092D01*
X136413Y-113099D01*
X136413Y-112792D01*
X136406Y-112775D01*
X136406Y-111356D01*
X136100Y-111050D01*
X136019Y-111130D01*
X136019Y-110970D01*
X135713Y-110663D01*
X135620Y-110691D01*
X135550Y-110896D01*
X135564Y-111112D01*
X135620Y-111248D01*
X135713Y-111276D01*
X136019Y-110970D01*
X136019Y-111130D01*
X135793Y-111356D01*
X135821Y-111449D01*
X136026Y-111519D01*
X136242Y-111505D01*
X136378Y-111449D01*
X136406Y-111356D01*
X136406Y-112775D01*
X136024Y-111850D01*
X135303Y-111128D01*
X135193Y-111082D01*
X135193Y-106267D01*
X135298Y-106163D01*
X135748Y-106613D01*
X135675Y-106685D01*
X135599Y-106869D01*
X135599Y-107069D01*
X135675Y-107253D01*
X135815Y-107394D01*
X135999Y-107470D01*
X136199Y-107470D01*
X136383Y-107394D01*
X136524Y-107254D01*
X136568Y-107146D01*
X136615Y-107258D01*
X136755Y-107399D01*
X136939Y-107475D01*
X137139Y-107475D01*
X137323Y-107399D01*
X137464Y-107259D01*
X137540Y-107075D01*
X137540Y-106875D01*
X137464Y-106691D01*
X137324Y-106550D01*
X137140Y-106474D01*
X136940Y-106474D01*
X136756Y-106550D01*
X136615Y-106690D01*
X136571Y-106798D01*
X136524Y-106686D01*
X136428Y-106590D01*
X136428Y-106500D01*
X136428Y-106499D01*
X136403Y-106374D01*
X136332Y-106267D01*
X136332Y-106267D01*
X135763Y-105698D01*
X136143Y-105317D01*
X136143Y-100882D01*
X135943Y-100682D01*
X135943Y-98243D01*
X140717Y-98243D01*
X141443Y-97517D01*
X141443Y-96800D01*
X141443Y-92943D01*
X143906Y-92943D01*
X143906Y-97482D01*
X142556Y-98832D01*
X142556Y-102800D01*
X142556Y-103717D01*
X142882Y-104043D01*
X145267Y-104043D01*
X145643Y-103667D01*
X145643Y-103611D01*
X145691Y-103628D01*
X146019Y-103300D01*
X145691Y-102971D01*
X145643Y-102988D01*
X145643Y-102711D01*
X145691Y-102728D01*
X146019Y-102400D01*
X145691Y-102071D01*
X145643Y-102088D01*
X145643Y-101893D01*
X145810Y-101893D01*
X145803Y-101896D01*
X145771Y-101991D01*
X146100Y-102319D01*
X146105Y-102314D01*
X146185Y-102394D01*
X146180Y-102400D01*
X146508Y-102728D01*
X146603Y-102696D01*
X146678Y-102480D01*
X146667Y-102278D01*
X146856Y-102467D01*
X146856Y-104482D01*
G54D10*
G36*
X146650Y-96675D02*
X146283Y-96950D01*
X145979Y-96950D01*
X145550Y-97379D01*
X145550Y-98279D01*
X143850Y-99979D01*
X143850Y-102620D01*
X143979Y-102750D01*
X144750Y-102750D01*
X144750Y-103450D01*
X143520Y-103450D01*
X143050Y-102979D01*
X143050Y-99570D01*
X144850Y-97770D01*
X144850Y-95750D01*
X145100Y-95750D01*
X146279Y-95750D01*
X146650Y-96120D01*
X146650Y-96675D01*
X146650Y-96675D01*
G37*
G54D42*
X146650Y-96675D02*
X146283Y-96950D01*
X145979Y-96950D01*
X145550Y-97379D01*
X145550Y-98279D01*
X143850Y-99979D01*
X143850Y-102620D01*
X143979Y-102750D01*
X144750Y-102750D01*
X144750Y-103450D01*
X143520Y-103450D01*
X143050Y-102979D01*
X143050Y-99570D01*
X144850Y-97770D01*
X144850Y-95750D01*
X145100Y-95750D01*
X146279Y-95750D01*
X146650Y-96120D01*
X146650Y-96675D01*
M02*
