G04 (created by PCBNEW (2013-07-07 BZR 4022)-stable) date 1/23/2016 5:45:45 PM*
%MOIN*%
G04 Gerber Fmt 3.4, Leading zero omitted, Abs format*
%FSLAX34Y34*%
G01*
G70*
G90*
G04 APERTURE LIST*
%ADD10C,0.00590551*%
%ADD11R,0.08X0.08*%
%ADD12C,0.08*%
%ADD13R,0.075X0.075*%
%ADD14C,0.075*%
%ADD15C,0.1184*%
%ADD16R,0.0787X0.0787*%
%ADD17C,0.0787*%
%ADD18C,0.118425*%
G04 APERTURE END LIST*
G54D10*
G54D11*
X119600Y-101800D03*
G54D12*
X119600Y-100800D03*
X120600Y-101800D03*
X120600Y-100800D03*
X121600Y-101800D03*
X121600Y-100800D03*
X122600Y-101800D03*
X122600Y-100800D03*
X123600Y-101800D03*
X123600Y-100800D03*
X124600Y-101800D03*
X124600Y-100800D03*
X125600Y-101800D03*
X125600Y-100800D03*
X126600Y-101800D03*
X126600Y-100800D03*
X127600Y-101800D03*
X127600Y-100800D03*
X128600Y-101800D03*
X128600Y-100800D03*
X129950Y-86050D03*
X125950Y-86050D03*
X123900Y-88850D03*
X123900Y-84850D03*
X125950Y-87000D03*
X129950Y-87000D03*
X119000Y-85850D03*
X123000Y-85850D03*
X123000Y-84900D03*
X119000Y-84900D03*
X119700Y-95050D03*
X123700Y-95050D03*
X119700Y-94100D03*
X123700Y-94100D03*
X129900Y-88850D03*
X125900Y-88850D03*
X118900Y-91050D03*
X122900Y-91050D03*
X122900Y-91950D03*
X118900Y-91950D03*
X125900Y-89750D03*
X129900Y-89750D03*
G54D11*
X121550Y-96100D03*
G54D12*
X121550Y-97100D03*
X120550Y-96100D03*
X120550Y-97100D03*
X131360Y-106945D03*
X131360Y-110945D03*
X136100Y-110970D03*
X136100Y-106970D03*
X133555Y-96305D03*
X133555Y-92305D03*
X137225Y-91420D03*
X141225Y-91420D03*
X134575Y-96305D03*
X134575Y-92305D03*
G54D13*
X132215Y-107790D03*
G54D14*
X132215Y-108790D03*
X132215Y-109790D03*
X135215Y-109790D03*
X135215Y-108790D03*
X135215Y-107790D03*
G54D13*
X120300Y-93000D03*
G54D14*
X121300Y-93000D03*
X122300Y-93000D03*
G54D13*
X125950Y-92950D03*
G54D14*
X125950Y-91950D03*
X125950Y-90950D03*
X127000Y-90700D03*
X129000Y-90700D03*
X126950Y-87950D03*
X128950Y-87950D03*
G54D15*
X124500Y-107300D03*
X119106Y-107300D03*
X124894Y-112615D03*
X118713Y-112615D03*
G54D13*
X122800Y-89930D03*
G54D14*
X122800Y-88930D03*
X122800Y-87930D03*
X122800Y-86930D03*
X119800Y-86930D03*
X119800Y-87930D03*
X119800Y-88930D03*
X119800Y-89930D03*
G54D12*
X135595Y-96305D03*
X135595Y-92305D03*
G54D13*
X137680Y-95740D03*
G54D14*
X138680Y-95740D03*
X139680Y-95740D03*
X140680Y-95740D03*
X140680Y-92740D03*
X139680Y-92740D03*
X138680Y-92740D03*
X137680Y-92740D03*
G54D13*
X145670Y-90830D03*
G54D14*
X144670Y-90830D03*
X143670Y-90830D03*
G54D16*
X138599Y-98035D03*
G54D17*
X137811Y-98035D03*
G54D18*
X128643Y-84700D03*
X126950Y-84700D03*
G54D11*
X132380Y-89775D03*
G54D12*
X131380Y-89775D03*
G54D13*
X143690Y-88245D03*
G54D14*
X144690Y-88245D03*
X145690Y-88245D03*
G54D16*
X143750Y-93926D03*
G54D17*
X143750Y-94714D03*
G54D14*
X142065Y-95200D03*
X142065Y-93200D03*
G54D11*
X141450Y-101050D03*
G54D12*
X142450Y-101050D03*
G54D11*
X141500Y-110400D03*
G54D12*
X142500Y-110400D03*
G54D11*
X141500Y-108150D03*
G54D12*
X142500Y-108150D03*
G54D11*
X141450Y-102600D03*
G54D12*
X142450Y-102600D03*
G54D11*
X141500Y-105200D03*
G54D12*
X142500Y-105200D03*
M02*
