M48
;DRILL file {Pcbnew (2013-07-07 BZR 4022)-stable} date 1/23/2016 5:45:46 PM
;FORMAT={-:-/ absolute / metric / decimal}
FMAT,2
METRIC,TZ
T1C0.300
T2C0.584
T3C0.800
T4C0.813
T5C1.001
T6C1.016
T7C1.500
T8C1.801
%
G90
G05
M71
T1
X307.048Y271.501
X308.077Y265.125
X310.147Y261.341
X310.705Y272.733
X311.988Y262.077
X313.55Y275.069
T2
X301.498Y250.571
X301.549Y251.943
X302.895Y250.571
X302.958Y267.614
X303.022Y251.968
X303.022Y282.956
X305.829Y283.896
X305.892Y270.383
X307.035Y260.731
X313.83Y269.735
X314.249Y284.912
X319.278Y270.637
X319.786Y286.639
X325.018Y267.221
X329.311Y273.05
X344.932Y249.009
X344.932Y250.19
X346.202Y249.009
X346.202Y250.19
T3
X350.04Y249.009
X352.041Y249.009
X365.125Y238.572
X365.125Y240.574
T4
X302.006Y231.267
X302.006Y233.553
X302.26Y215.646
X302.26Y218.059
X304.038Y239.014
X304.038Y241.427
X304.292Y220.802
X304.292Y223.342
X304.292Y225.882
X304.292Y228.422
X305.562Y236.22
X308.102Y236.22
X310.642Y236.22
X311.912Y220.802
X311.912Y223.342
X311.912Y225.882
X311.912Y228.422
X312.166Y231.267
X312.166Y233.553
X312.42Y215.646
X312.42Y218.059
X314.198Y239.014
X314.198Y241.427
X314.706Y215.519
X314.706Y225.679
X314.706Y234.95
X315.874Y228.168
X315.874Y230.708
X316.611Y233.68
X316.611Y236.22
X317.779Y229.438
X319.786Y225.679
X319.786Y227.965
X319.913Y218.567
X319.913Y220.98
X319.913Y231.013
X319.913Y233.553
X319.913Y236.093
X322.453Y223.393
X322.58Y230.378
X327.533Y223.393
X327.66Y230.378
X329.946Y225.679
X329.946Y227.965
X330.073Y218.567
X330.073Y220.98
X333.654Y271.64
X333.654Y281.8
X334.582Y238.417
X334.582Y240.957
X335.826Y273.787
X335.826Y276.327
X335.826Y278.867
X336.486Y239.687
X339.23Y234.455
X339.23Y244.615
X341.82Y234.455
X341.82Y244.615
X343.446Y273.787
X343.446Y276.327
X343.446Y278.867
X344.411Y234.455
X344.411Y244.615
X345.694Y271.704
X345.694Y281.864
X348.551Y232.207
X349.707Y235.56
X349.707Y243.18
X352.247Y235.56
X352.247Y243.18
X354.787Y235.56
X354.787Y243.18
X357.327Y235.56
X357.327Y243.18
X358.712Y232.207
X360.845Y236.728
X360.845Y241.808
X364.922Y230.708
X364.973Y224.142
X367.462Y230.708
X367.513Y224.142
X370.002Y230.708
X370.053Y224.142
T5
X317.5Y215.519
X317.5Y225.679
T6
X303.784Y256.032
X303.784Y258.572
X306.197Y244.094
X306.197Y246.634
X306.324Y256.032
X306.324Y258.572
X308.737Y244.094
X308.737Y246.634
X308.864Y256.032
X308.864Y258.572
X311.404Y256.032
X311.404Y258.572
X313.944Y256.032
X313.944Y258.572
X316.484Y256.032
X316.484Y258.572
X319.024Y256.032
X319.024Y258.572
X321.564Y256.032
X321.564Y258.572
X324.104Y256.032
X324.104Y258.572
X326.644Y256.032
X326.644Y258.572
X333.705Y228.028
X336.245Y228.028
X359.283Y256.667
X359.283Y260.604
X359.41Y267.208
X359.41Y274.701
X359.41Y280.416
X361.823Y256.667
X361.823Y260.604
X361.95Y267.208
X361.95Y274.701
X361.95Y280.416
T7
X322.453Y215.138
X326.755Y215.138
T8
X301.531Y286.042
X302.529Y272.542
X316.23Y272.542
X317.231Y286.042
T0
M30
