G04 (created by PCBNEW (2013-07-07 BZR 4022)-stable) date 2/20/2016 1:11:30 PM*
%MOIN*%
G04 Gerber Fmt 3.4, Leading zero omitted, Abs format*
%FSLAX34Y34*%
G01*
G70*
G90*
G04 APERTURE LIST*
%ADD10C,0.00590551*%
%ADD11C,0.075*%
%ADD12R,0.07X0.036*%
%ADD13R,0.08X0.08*%
%ADD14C,0.08*%
%ADD15R,0.0711X0.079*%
%ADD16R,0.079X0.0711*%
%ADD17R,0.0909X0.0987*%
%ADD18R,0.075X0.075*%
%ADD19R,0.0593X0.0751*%
%ADD20R,0.0751X0.0593*%
%ADD21R,0.079X0.0357*%
%ADD22R,0.08X0.05*%
%ADD23R,0.0455906X0.1066*%
%ADD24R,0.12X0.12*%
%ADD25C,0.12*%
%ADD26R,0.1066X0.0455906*%
G04 APERTURE END LIST*
G54D10*
G54D11*
X122620Y-109064D03*
X122620Y-107064D03*
X125620Y-109064D03*
X125620Y-107064D03*
G54D12*
X143459Y-111590D03*
X143459Y-111340D03*
X143459Y-111080D03*
X143459Y-110820D03*
X143459Y-110570D03*
X143459Y-110310D03*
X143459Y-110050D03*
X143459Y-109800D03*
X143459Y-109540D03*
X143459Y-109290D03*
X145559Y-109290D03*
X145559Y-109540D03*
X145559Y-109800D03*
X145559Y-110050D03*
X145559Y-110310D03*
X145559Y-110570D03*
X145559Y-110820D03*
X145559Y-111080D03*
X145559Y-111340D03*
X145559Y-111590D03*
G54D13*
X126050Y-112660D03*
G54D14*
X126050Y-111660D03*
X127050Y-112660D03*
X127050Y-111660D03*
X128050Y-112660D03*
X128050Y-111660D03*
X129050Y-112660D03*
X129050Y-111660D03*
X130050Y-112660D03*
X130050Y-111660D03*
G54D15*
X130789Y-110770D03*
X130041Y-110770D03*
G54D16*
X128050Y-110071D03*
X128050Y-110819D03*
X127050Y-110066D03*
X127050Y-110814D03*
G54D15*
X139731Y-97429D03*
X140479Y-97429D03*
G54D16*
X120600Y-108356D03*
X120600Y-109104D03*
X133920Y-105344D03*
X133920Y-104596D03*
G54D15*
X133946Y-102264D03*
X134694Y-102264D03*
G54D16*
X138470Y-104596D03*
X138470Y-105344D03*
X119750Y-107596D03*
X119750Y-108344D03*
G54D15*
X123446Y-86700D03*
X124194Y-86700D03*
G54D16*
X138020Y-100496D03*
X138020Y-101244D03*
X136770Y-105244D03*
X136770Y-104496D03*
G54D17*
X138494Y-108494D03*
X140494Y-108494D03*
X138494Y-110148D03*
X140494Y-110148D03*
G54D15*
X121111Y-95474D03*
X121859Y-95474D03*
G54D16*
X144255Y-107481D03*
X144255Y-108229D03*
X143425Y-107490D03*
X143425Y-108238D03*
X145070Y-107485D03*
X145070Y-108233D03*
X131920Y-105611D03*
X131920Y-106359D03*
X123470Y-107716D03*
X123470Y-108464D03*
X124330Y-108476D03*
X124330Y-109224D03*
G54D11*
X122925Y-94294D03*
X122925Y-96294D03*
X119925Y-94294D03*
X119925Y-96294D03*
X121825Y-107044D03*
X121825Y-109044D03*
X118825Y-107044D03*
X118825Y-109044D03*
G54D18*
X118955Y-93400D03*
G54D11*
X118955Y-94400D03*
X118955Y-95400D03*
X118955Y-96400D03*
X118955Y-97400D03*
X118955Y-98400D03*
X145509Y-97098D03*
X145509Y-99020D03*
G54D15*
X121126Y-98535D03*
X121874Y-98535D03*
G54D16*
X124965Y-93911D03*
X124965Y-94659D03*
X143250Y-93976D03*
X143250Y-94724D03*
X129910Y-98189D03*
X129910Y-97441D03*
G54D15*
X131771Y-92870D03*
X132519Y-92870D03*
X144639Y-97960D03*
X143891Y-97960D03*
G54D16*
X146770Y-111353D03*
X146770Y-110605D03*
G54D15*
X144649Y-97095D03*
X143901Y-97095D03*
G54D16*
X136900Y-94074D03*
X136900Y-93326D03*
X135950Y-94074D03*
X135950Y-93326D03*
X124140Y-93911D03*
X124140Y-94659D03*
X130755Y-98196D03*
X130755Y-98944D03*
G54D19*
X125811Y-93877D03*
X126559Y-93877D03*
X126185Y-94743D03*
G54D20*
X131707Y-98169D03*
X131707Y-97421D03*
X132573Y-97795D03*
G54D21*
X142717Y-106077D03*
X142717Y-105821D03*
X142717Y-105565D03*
X142717Y-105309D03*
X142717Y-105053D03*
X142717Y-104797D03*
X142717Y-104541D03*
X142717Y-104287D03*
X142717Y-104031D03*
X142717Y-103775D03*
X142717Y-103519D03*
X142717Y-103263D03*
X142717Y-103007D03*
X142717Y-102751D03*
X145571Y-102751D03*
X145571Y-103007D03*
X145571Y-103263D03*
X145571Y-103519D03*
X145571Y-103775D03*
X145571Y-104031D03*
X145571Y-104287D03*
X145571Y-104541D03*
X145571Y-104797D03*
X145571Y-105053D03*
X145571Y-105309D03*
X145571Y-105565D03*
X145571Y-105821D03*
X145571Y-106077D03*
G54D22*
X124114Y-99635D03*
X124114Y-99135D03*
X124114Y-98635D03*
X124114Y-98135D03*
X124114Y-97635D03*
X124114Y-97135D03*
X124114Y-96635D03*
X124114Y-96135D03*
X124114Y-95635D03*
X127874Y-95635D03*
X127874Y-96135D03*
X127874Y-96635D03*
X127874Y-97135D03*
X127874Y-97635D03*
X127874Y-98135D03*
X127874Y-98635D03*
X127874Y-99135D03*
X127874Y-99635D03*
G54D23*
X140200Y-91911D03*
X139700Y-91911D03*
X139200Y-91911D03*
X138700Y-91911D03*
X138200Y-91911D03*
X137700Y-91911D03*
X137200Y-91911D03*
X136700Y-91911D03*
X136200Y-91911D03*
X135700Y-91911D03*
X135700Y-88289D03*
X136200Y-88289D03*
X136700Y-88289D03*
X137200Y-88289D03*
X137700Y-88289D03*
X138200Y-88289D03*
X138700Y-88289D03*
X139200Y-88289D03*
X139700Y-88289D03*
X140200Y-88289D03*
X132200Y-95953D03*
X131700Y-95953D03*
X131200Y-95953D03*
X130700Y-95953D03*
X130700Y-93907D03*
X131200Y-93907D03*
X131700Y-93907D03*
X132200Y-93907D03*
G54D15*
X139385Y-100985D03*
X140133Y-100985D03*
G54D16*
X141114Y-88905D03*
X141114Y-89653D03*
G54D15*
X136744Y-106020D03*
X135996Y-106020D03*
X137344Y-100470D03*
X136596Y-100470D03*
X138496Y-103920D03*
X139244Y-103920D03*
X139668Y-98244D03*
X138920Y-98244D03*
X133894Y-106120D03*
X133146Y-106120D03*
X133894Y-101470D03*
X133146Y-101470D03*
G54D24*
X119150Y-89750D03*
G54D25*
X119150Y-91750D03*
G54D15*
X120804Y-97640D03*
X120056Y-97640D03*
G54D26*
X144359Y-95440D03*
X144359Y-94940D03*
X144359Y-94440D03*
X144359Y-93940D03*
X144359Y-93440D03*
X144359Y-92940D03*
X144359Y-92440D03*
X144359Y-91940D03*
X144359Y-91440D03*
X144359Y-90940D03*
X144359Y-90440D03*
X144359Y-89940D03*
X144359Y-89440D03*
X144359Y-88940D03*
X147981Y-88940D03*
X147981Y-89440D03*
X147981Y-89940D03*
X147981Y-90440D03*
X147981Y-90940D03*
X147981Y-91440D03*
X147981Y-91940D03*
X147981Y-92440D03*
X147981Y-92940D03*
X147981Y-93440D03*
X147981Y-93940D03*
X147981Y-94440D03*
X147981Y-94940D03*
X147981Y-95440D03*
G54D13*
X119600Y-101800D03*
G54D14*
X119600Y-100800D03*
X120600Y-101800D03*
X120600Y-100800D03*
X121600Y-101800D03*
X121600Y-100800D03*
X122600Y-101800D03*
X122600Y-100800D03*
X123600Y-101800D03*
X123600Y-100800D03*
X124600Y-101800D03*
X124600Y-100800D03*
X125600Y-101800D03*
X125600Y-100800D03*
X126600Y-101800D03*
X126600Y-100800D03*
X127600Y-101800D03*
X127600Y-100800D03*
X128600Y-101800D03*
X128600Y-100800D03*
G54D13*
X119600Y-105750D03*
G54D14*
X119600Y-104750D03*
X120600Y-105750D03*
X120600Y-104750D03*
X121600Y-105750D03*
X121600Y-104750D03*
X122600Y-105750D03*
X122600Y-104750D03*
X123600Y-105750D03*
X123600Y-104750D03*
X124600Y-105750D03*
X124600Y-104750D03*
X125600Y-105750D03*
X125600Y-104750D03*
X126600Y-105750D03*
X126600Y-104750D03*
X127600Y-105750D03*
X127600Y-104750D03*
X128600Y-105750D03*
X128600Y-104750D03*
G54D13*
X142500Y-112670D03*
G54D14*
X143500Y-112670D03*
X144500Y-112670D03*
X145500Y-112670D03*
X146500Y-112670D03*
G54D15*
X134521Y-97515D03*
X135269Y-97515D03*
G54D20*
X135308Y-98216D03*
X135308Y-98964D03*
X134442Y-98590D03*
G54D13*
X148540Y-105715D03*
G54D14*
X147540Y-105715D03*
X148540Y-104715D03*
X147540Y-104715D03*
X148540Y-103715D03*
X147540Y-103715D03*
X148540Y-102715D03*
X147540Y-102715D03*
M02*
