G04 This is an RS-274x file exported by *
G04 gerbv version 2.6.1 *
G04 More information is available about gerbv at *
G04 http://gerbv.geda-project.org/ *
G04 --End of header info--*
%MOIN*%
%FSLAX34Y34*%
%IPPOS*%
G04 --Define apertures--*
%ADD10C,0.0059*%
%ADD11C,0.0047*%
%ADD12C,0.0039*%
%ADD13C,0.0035*%
%ADD14C,0.0063*%
%ADD15C,0.0067*%
%ADD16C,0.0041*%
%ADD17C,0.0026*%
%ADD18C,0.0100*%
%ADD19C,0.0050*%
%ADD20C,0.0120*%
%ADD21C,0.0020*%
%ADD22C,0.0039*%
%ADD23C,0.0060*%
%ADD24C,0.0080*%
%ADD25C,0.0078*%
%ADD26C,0.0118*%
%ADD27C,0.0118*%
%ADD28C,0.0030*%
%ADD29C,0.0107*%
%ADD30C,0.0070*%
G04 --Start main section--*
G54D11*
G01X0127364Y-091112D02*
G01X0127364Y-091367D01*
G01X0127364Y-091367D02*
G01X0127379Y-091397D01*
G01X0127379Y-091397D02*
G01X0127394Y-091412D01*
G01X0127394Y-091412D02*
G01X0127424Y-091427D01*
G01X0127424Y-091427D02*
G01X0127484Y-091427D01*
G01X0127484Y-091427D02*
G01X0127514Y-091412D01*
G01X0127514Y-091412D02*
G01X0127529Y-091397D01*
G01X0127529Y-091397D02*
G01X0127544Y-091367D01*
G01X0127544Y-091367D02*
G01X0127544Y-091112D01*
G01X0127829Y-091217D02*
G01X0127829Y-091427D01*
G01X0127754Y-091097D02*
G01X0127679Y-091322D01*
G01X0127679Y-091322D02*
G01X0127874Y-091322D01*
G01X0124934Y-088822D02*
G01X0124934Y-089077D01*
G01X0124934Y-089077D02*
G01X0124949Y-089107D01*
G01X0124949Y-089107D02*
G01X0124964Y-089122D01*
G01X0124964Y-089122D02*
G01X0124994Y-089137D01*
G01X0124994Y-089137D02*
G01X0125054Y-089137D01*
G01X0125054Y-089137D02*
G01X0125084Y-089122D01*
G01X0125084Y-089122D02*
G01X0125099Y-089107D01*
G01X0125099Y-089107D02*
G01X0125114Y-089077D01*
G01X0125114Y-089077D02*
G01X0125114Y-088822D01*
G01X0125429Y-089137D02*
G01X0125249Y-089137D01*
G01X0125339Y-089137D02*
G01X0125339Y-088822D01*
G01X0125339Y-088822D02*
G01X0125309Y-088867D01*
G01X0125309Y-088867D02*
G01X0125279Y-088897D01*
G01X0125279Y-088897D02*
G01X0125249Y-088912D01*
G01X0143583Y-102665D02*
G01X0143583Y-102984D01*
G01X0143583Y-102984D02*
G01X0143602Y-103021D01*
G01X0143602Y-103021D02*
G01X0143621Y-103040D01*
G01X0143621Y-103040D02*
G01X0143658Y-103059D01*
G01X0143658Y-103059D02*
G01X0143733Y-103059D01*
G01X0143733Y-103059D02*
G01X0143771Y-103040D01*
G01X0143771Y-103040D02*
G01X0143789Y-103021D01*
G01X0143789Y-103021D02*
G01X0143808Y-102984D01*
G01X0143808Y-102984D02*
G01X0143808Y-102665D01*
G01X0143958Y-102665D02*
G01X0144221Y-102665D01*
G01X0144221Y-102665D02*
G01X0144052Y-103059D01*
G54D12*
G01X0119700Y-089850D02*
G01X0119500Y-089850D01*
G01X0119500Y-089650D02*
G01X0119700Y-089850D01*
G01X0119500Y-089850D02*
G01X0119500Y-089650D01*
G01X0119800Y-092800D02*
G01X0119600Y-092800D01*
G01X0119600Y-092600D02*
G01X0119800Y-092800D01*
G01X0119600Y-092800D02*
G01X0119600Y-092600D01*
G01X0119100Y-106500D02*
G01X0119100Y-106300D01*
G01X0118900Y-106300D02*
G01X0119100Y-106500D01*
G01X0119100Y-106300D02*
G01X0118900Y-106300D01*
G01X0119100Y-102500D02*
G01X0119100Y-102300D01*
G01X0118900Y-102300D02*
G01X0119100Y-102500D01*
G01X0119100Y-102300D02*
G01X0118900Y-102300D01*
G01X0149300Y-106300D02*
G01X0149100Y-106300D01*
G01X0149100Y-106500D02*
G01X0149300Y-106300D01*
G01X0149100Y-106300D02*
G01X0149100Y-106500D01*
G54D11*
G01X0143540Y-104085D02*
G01X0143697Y-104085D01*
G01X0143618Y-104361D02*
G01X0143618Y-104085D01*
G01X0143763Y-104085D02*
G01X0143946Y-104361D01*
G01X0143946Y-104085D02*
G01X0143763Y-104361D01*
G01X0143704Y-106111D02*
G01X0143612Y-105980D01*
G01X0143546Y-106111D02*
G01X0143546Y-105835D01*
G01X0143546Y-105835D02*
G01X0143651Y-105835D01*
G01X0143651Y-105835D02*
G01X0143677Y-105849D01*
G01X0143677Y-105849D02*
G01X0143690Y-105862D01*
G01X0143690Y-105862D02*
G01X0143704Y-105888D01*
G01X0143704Y-105888D02*
G01X0143704Y-105927D01*
G01X0143704Y-105927D02*
G01X0143690Y-105954D01*
G01X0143690Y-105954D02*
G01X0143677Y-105967D01*
G01X0143677Y-105967D02*
G01X0143651Y-105980D01*
G01X0143651Y-105980D02*
G01X0143546Y-105980D01*
G01X0143795Y-105835D02*
G01X0143979Y-106111D01*
G01X0143979Y-105835D02*
G01X0143795Y-106111D01*
G54D10*
G01X0119885Y-110225D02*
G01X0119767Y-110019D01*
G01X0119682Y-110225D02*
G01X0119682Y-109792D01*
G01X0119682Y-109792D02*
G01X0119817Y-109792D01*
G01X0119817Y-109792D02*
G01X0119851Y-109812D01*
G01X0119851Y-109812D02*
G01X0119868Y-109833D01*
G01X0119868Y-109833D02*
G01X0119885Y-109874D01*
G01X0119885Y-109874D02*
G01X0119885Y-109936D01*
G01X0119885Y-109936D02*
G01X0119868Y-109977D01*
G01X0119868Y-109977D02*
G01X0119851Y-109998D01*
G01X0119851Y-109998D02*
G01X0119817Y-110019D01*
G01X0119817Y-110019D02*
G01X0119682Y-110019D01*
G01X0120037Y-109998D02*
G01X0120155Y-109998D01*
G01X0120205Y-110225D02*
G01X0120037Y-110225D01*
G01X0120037Y-110225D02*
G01X0120037Y-109792D01*
G01X0120037Y-109792D02*
G01X0120205Y-109792D01*
G01X0120340Y-110204D02*
G01X0120391Y-110225D01*
G01X0120391Y-110225D02*
G01X0120475Y-110225D01*
G01X0120475Y-110225D02*
G01X0120509Y-110204D01*
G01X0120509Y-110204D02*
G01X0120526Y-110184D01*
G01X0120526Y-110184D02*
G01X0120543Y-110142D01*
G01X0120543Y-110142D02*
G01X0120543Y-110101D01*
G01X0120543Y-110101D02*
G01X0120526Y-110060D01*
G01X0120526Y-110060D02*
G01X0120509Y-110039D01*
G01X0120509Y-110039D02*
G01X0120475Y-110019D01*
G01X0120475Y-110019D02*
G01X0120408Y-109998D01*
G01X0120408Y-109998D02*
G01X0120374Y-109977D01*
G01X0120374Y-109977D02*
G01X0120357Y-109957D01*
G01X0120357Y-109957D02*
G01X0120340Y-109915D01*
G01X0120340Y-109915D02*
G01X0120340Y-109874D01*
G01X0120340Y-109874D02*
G01X0120357Y-109833D01*
G01X0120357Y-109833D02*
G01X0120374Y-109812D01*
G01X0120374Y-109812D02*
G01X0120408Y-109792D01*
G01X0120408Y-109792D02*
G01X0120492Y-109792D01*
G01X0120492Y-109792D02*
G01X0120543Y-109812D01*
G01X0120695Y-109998D02*
G01X0120813Y-109998D01*
G01X0120864Y-110225D02*
G01X0120695Y-110225D01*
G01X0120695Y-110225D02*
G01X0120695Y-109792D01*
G01X0120695Y-109792D02*
G01X0120864Y-109792D01*
G01X0120965Y-109792D02*
G01X0121167Y-109792D01*
G01X0121066Y-110225D02*
G01X0121066Y-109792D01*
G54D13*
G01X0135580Y-103152D02*
G01X0135580Y-103557D01*
G01X0135580Y-103557D02*
G01X0135604Y-103604D01*
G01X0135604Y-103604D02*
G01X0135628Y-103628D01*
G01X0135628Y-103628D02*
G01X0135676Y-103652D01*
G01X0135676Y-103652D02*
G01X0135771Y-103652D01*
G01X0135771Y-103652D02*
G01X0135819Y-103628D01*
G01X0135819Y-103628D02*
G01X0135842Y-103604D01*
G01X0135842Y-103604D02*
G01X0135866Y-103557D01*
G01X0135866Y-103557D02*
G01X0135866Y-103152D01*
G01X0136057Y-103152D02*
G01X0136366Y-103152D01*
G01X0136366Y-103152D02*
G01X0136200Y-103342D01*
G01X0136200Y-103342D02*
G01X0136271Y-103342D01*
G01X0136271Y-103342D02*
G01X0136319Y-103366D01*
G01X0136319Y-103366D02*
G01X0136342Y-103390D01*
G01X0136342Y-103390D02*
G01X0136366Y-103438D01*
G01X0136366Y-103438D02*
G01X0136366Y-103557D01*
G01X0136366Y-103557D02*
G01X0136342Y-103604D01*
G01X0136342Y-103604D02*
G01X0136319Y-103628D01*
G01X0136319Y-103628D02*
G01X0136271Y-103652D01*
G01X0136271Y-103652D02*
G01X0136128Y-103652D01*
G01X0136128Y-103652D02*
G01X0136080Y-103628D01*
G01X0136080Y-103628D02*
G01X0136057Y-103604D01*
G01X0136676Y-103152D02*
G01X0136723Y-103152D01*
G01X0136723Y-103152D02*
G01X0136771Y-103176D01*
G01X0136771Y-103176D02*
G01X0136795Y-103200D01*
G01X0136795Y-103200D02*
G01X0136819Y-103247D01*
G01X0136819Y-103247D02*
G01X0136842Y-103342D01*
G01X0136842Y-103342D02*
G01X0136842Y-103461D01*
G01X0136842Y-103461D02*
G01X0136819Y-103557D01*
G01X0136819Y-103557D02*
G01X0136795Y-103604D01*
G01X0136795Y-103604D02*
G01X0136771Y-103628D01*
G01X0136771Y-103628D02*
G01X0136723Y-103652D01*
G01X0136723Y-103652D02*
G01X0136676Y-103652D01*
G01X0136676Y-103652D02*
G01X0136628Y-103628D01*
G01X0136628Y-103628D02*
G01X0136604Y-103604D01*
G01X0136604Y-103604D02*
G01X0136580Y-103557D01*
G01X0136580Y-103557D02*
G01X0136557Y-103461D01*
G01X0136557Y-103461D02*
G01X0136557Y-103342D01*
G01X0136557Y-103342D02*
G01X0136580Y-103247D01*
G01X0136580Y-103247D02*
G01X0136604Y-103200D01*
G01X0136604Y-103200D02*
G01X0136628Y-103176D01*
G01X0136628Y-103176D02*
G01X0136676Y-103152D01*
G54D10*
G01X0120515Y-097153D02*
G01X0120410Y-097153D01*
G01X0120410Y-097359D02*
G01X0120410Y-096965D01*
G01X0120410Y-096965D02*
G01X0120560Y-096965D01*
G01X0120830Y-097359D02*
G01X0120680Y-097359D01*
G01X0120680Y-097359D02*
G01X0120680Y-096965D01*
G01X0120920Y-097246D02*
G01X0121070Y-097246D01*
G01X0120890Y-097359D02*
G01X0120995Y-096965D01*
G01X0120995Y-096965D02*
G01X0121100Y-097359D01*
G01X0121205Y-097359D02*
G01X0121205Y-096965D01*
G01X0121205Y-097153D02*
G01X0121385Y-097153D01*
G01X0121385Y-097359D02*
G01X0121385Y-096965D01*
G01X0121759Y-096946D02*
G01X0121490Y-097453D01*
G01X0122044Y-097359D02*
G01X0121939Y-097171D01*
G01X0121864Y-097359D02*
G01X0121864Y-096965D01*
G01X0121864Y-096965D02*
G01X0121984Y-096965D01*
G01X0121984Y-096965D02*
G01X0122014Y-096984D01*
G01X0122014Y-096984D02*
G01X0122029Y-097003D01*
G01X0122029Y-097003D02*
G01X0122044Y-097040D01*
G01X0122044Y-097040D02*
G01X0122044Y-097096D01*
G01X0122044Y-097096D02*
G01X0122029Y-097134D01*
G01X0122029Y-097134D02*
G01X0122014Y-097153D01*
G01X0122014Y-097153D02*
G01X0121984Y-097171D01*
G01X0121984Y-097171D02*
G01X0121864Y-097171D01*
G01X0122179Y-096965D02*
G01X0122179Y-097284D01*
G01X0122179Y-097284D02*
G01X0122194Y-097321D01*
G01X0122194Y-097321D02*
G01X0122209Y-097340D01*
G01X0122209Y-097340D02*
G01X0122239Y-097359D01*
G01X0122239Y-097359D02*
G01X0122299Y-097359D01*
G01X0122299Y-097359D02*
G01X0122329Y-097340D01*
G01X0122329Y-097340D02*
G01X0122344Y-097321D01*
G01X0122344Y-097321D02*
G01X0122359Y-097284D01*
G01X0122359Y-097284D02*
G01X0122359Y-096965D01*
G01X0122509Y-097359D02*
G01X0122509Y-096965D01*
G01X0122509Y-096965D02*
G01X0122689Y-097359D01*
G01X0122689Y-097359D02*
G01X0122689Y-096965D01*
G54D11*
G01X0123254Y-085311D02*
G01X0123254Y-085035D01*
G01X0123254Y-085035D02*
G01X0123344Y-085035D01*
G01X0123344Y-085035D02*
G01X0123366Y-085049D01*
G01X0123366Y-085049D02*
G01X0123378Y-085062D01*
G01X0123378Y-085062D02*
G01X0123389Y-085088D01*
G01X0123389Y-085088D02*
G01X0123389Y-085127D01*
G01X0123389Y-085127D02*
G01X0123378Y-085154D01*
G01X0123378Y-085154D02*
G01X0123366Y-085167D01*
G01X0123366Y-085167D02*
G01X0123344Y-085180D01*
G01X0123344Y-085180D02*
G01X0123254Y-085180D01*
G01X0123535Y-085035D02*
G01X0123580Y-085035D01*
G01X0123580Y-085035D02*
G01X0123603Y-085049D01*
G01X0123603Y-085049D02*
G01X0123625Y-085075D01*
G01X0123625Y-085075D02*
G01X0123636Y-085127D01*
G01X0123636Y-085127D02*
G01X0123636Y-085219D01*
G01X0123636Y-085219D02*
G01X0123625Y-085272D01*
G01X0123625Y-085272D02*
G01X0123603Y-085298D01*
G01X0123603Y-085298D02*
G01X0123580Y-085311D01*
G01X0123580Y-085311D02*
G01X0123535Y-085311D01*
G01X0123535Y-085311D02*
G01X0123513Y-085298D01*
G01X0123513Y-085298D02*
G01X0123490Y-085272D01*
G01X0123490Y-085272D02*
G01X0123479Y-085219D01*
G01X0123479Y-085219D02*
G01X0123479Y-085127D01*
G01X0123479Y-085127D02*
G01X0123490Y-085075D01*
G01X0123490Y-085075D02*
G01X0123513Y-085049D01*
G01X0123513Y-085049D02*
G01X0123535Y-085035D01*
G01X0123715Y-085035D02*
G01X0123771Y-085311D01*
G01X0123771Y-085311D02*
G01X0123816Y-085114D01*
G01X0123816Y-085114D02*
G01X0123861Y-085311D01*
G01X0123861Y-085311D02*
G01X0123918Y-085035D01*
G01X0124008Y-085167D02*
G01X0124086Y-085167D01*
G01X0124120Y-085311D02*
G01X0124008Y-085311D01*
G01X0124008Y-085311D02*
G01X0124008Y-085035D01*
G01X0124008Y-085035D02*
G01X0124120Y-085035D01*
G01X0124356Y-085311D02*
G01X0124278Y-085180D01*
G01X0124221Y-085311D02*
G01X0124221Y-085035D01*
G01X0124221Y-085035D02*
G01X0124311Y-085035D01*
G01X0124311Y-085035D02*
G01X0124334Y-085049D01*
G01X0124334Y-085049D02*
G01X0124345Y-085062D01*
G01X0124345Y-085062D02*
G01X0124356Y-085088D01*
G01X0124356Y-085088D02*
G01X0124356Y-085127D01*
G01X0124356Y-085127D02*
G01X0124345Y-085154D01*
G01X0124345Y-085154D02*
G01X0124334Y-085167D01*
G01X0124334Y-085167D02*
G01X0124311Y-085180D01*
G01X0124311Y-085180D02*
G01X0124221Y-085180D01*
G54D10*
G01X0123205Y-110225D02*
G01X0123205Y-109792D01*
G01X0123205Y-109792D02*
G01X0123340Y-109792D01*
G01X0123340Y-109792D02*
G01X0123373Y-109812D01*
G01X0123373Y-109812D02*
G01X0123390Y-109833D01*
G01X0123390Y-109833D02*
G01X0123407Y-109874D01*
G01X0123407Y-109874D02*
G01X0123407Y-109936D01*
G01X0123407Y-109936D02*
G01X0123390Y-109977D01*
G01X0123390Y-109977D02*
G01X0123373Y-109998D01*
G01X0123373Y-109998D02*
G01X0123340Y-110019D01*
G01X0123340Y-110019D02*
G01X0123205Y-110019D01*
G01X0123761Y-110225D02*
G01X0123643Y-110019D01*
G01X0123559Y-110225D02*
G01X0123559Y-109792D01*
G01X0123559Y-109792D02*
G01X0123694Y-109792D01*
G01X0123694Y-109792D02*
G01X0123728Y-109812D01*
G01X0123728Y-109812D02*
G01X0123745Y-109833D01*
G01X0123745Y-109833D02*
G01X0123761Y-109874D01*
G01X0123761Y-109874D02*
G01X0123761Y-109936D01*
G01X0123761Y-109936D02*
G01X0123745Y-109977D01*
G01X0123745Y-109977D02*
G01X0123728Y-109998D01*
G01X0123728Y-109998D02*
G01X0123694Y-110019D01*
G01X0123694Y-110019D02*
G01X0123559Y-110019D01*
G01X0123981Y-109792D02*
G01X0124048Y-109792D01*
G01X0124048Y-109792D02*
G01X0124082Y-109812D01*
G01X0124082Y-109812D02*
G01X0124116Y-109854D01*
G01X0124116Y-109854D02*
G01X0124133Y-109936D01*
G01X0124133Y-109936D02*
G01X0124133Y-110080D01*
G01X0124133Y-110080D02*
G01X0124116Y-110163D01*
G01X0124116Y-110163D02*
G01X0124082Y-110204D01*
G01X0124082Y-110204D02*
G01X0124048Y-110225D01*
G01X0124048Y-110225D02*
G01X0123981Y-110225D01*
G01X0123981Y-110225D02*
G01X0123947Y-110204D01*
G01X0123947Y-110204D02*
G01X0123913Y-110163D01*
G01X0123913Y-110163D02*
G01X0123896Y-110080D01*
G01X0123896Y-110080D02*
G01X0123896Y-109936D01*
G01X0123896Y-109936D02*
G01X0123913Y-109854D01*
G01X0123913Y-109854D02*
G01X0123947Y-109812D01*
G01X0123947Y-109812D02*
G01X0123981Y-109792D01*
G01X0124470Y-109812D02*
G01X0124436Y-109792D01*
G01X0124436Y-109792D02*
G01X0124386Y-109792D01*
G01X0124386Y-109792D02*
G01X0124335Y-109812D01*
G01X0124335Y-109812D02*
G01X0124301Y-109854D01*
G01X0124301Y-109854D02*
G01X0124284Y-109895D01*
G01X0124284Y-109895D02*
G01X0124268Y-109977D01*
G01X0124268Y-109977D02*
G01X0124268Y-110039D01*
G01X0124268Y-110039D02*
G01X0124284Y-110122D01*
G01X0124284Y-110122D02*
G01X0124301Y-110163D01*
G01X0124301Y-110163D02*
G01X0124335Y-110204D01*
G01X0124335Y-110204D02*
G01X0124386Y-110225D01*
G01X0124386Y-110225D02*
G01X0124419Y-110225D01*
G01X0124419Y-110225D02*
G01X0124470Y-110204D01*
G01X0124470Y-110204D02*
G01X0124487Y-110184D01*
G01X0124487Y-110184D02*
G01X0124487Y-110039D01*
G01X0124487Y-110039D02*
G01X0124419Y-110039D01*
G01X0124554Y-110266D02*
G01X0124824Y-110266D01*
G01X0125027Y-109998D02*
G01X0125078Y-110019D01*
G01X0125078Y-110019D02*
G01X0125094Y-110039D01*
G01X0125094Y-110039D02*
G01X0125111Y-110080D01*
G01X0125111Y-110080D02*
G01X0125111Y-110142D01*
G01X0125111Y-110142D02*
G01X0125094Y-110184D01*
G01X0125094Y-110184D02*
G01X0125078Y-110204D01*
G01X0125078Y-110204D02*
G01X0125044Y-110225D01*
G01X0125044Y-110225D02*
G01X0124909Y-110225D01*
G01X0124909Y-110225D02*
G01X0124909Y-109792D01*
G01X0124909Y-109792D02*
G01X0125027Y-109792D01*
G01X0125027Y-109792D02*
G01X0125061Y-109812D01*
G01X0125061Y-109812D02*
G01X0125078Y-109833D01*
G01X0125078Y-109833D02*
G01X0125094Y-109874D01*
G01X0125094Y-109874D02*
G01X0125094Y-109915D01*
G01X0125094Y-109915D02*
G01X0125078Y-109957D01*
G01X0125078Y-109957D02*
G01X0125061Y-109977D01*
G01X0125061Y-109977D02*
G01X0125027Y-109998D01*
G01X0125027Y-109998D02*
G01X0124909Y-109998D01*
G54D16*
G01X0140933Y-112537D02*
G01X0140933Y-112321D01*
G01X0140933Y-112321D02*
G01X0140990Y-112321D01*
G01X0140990Y-112321D02*
G01X0141023Y-112331D01*
G01X0141023Y-112331D02*
G01X0141046Y-112352D01*
G01X0141046Y-112352D02*
G01X0141057Y-112372D01*
G01X0141057Y-112372D02*
G01X0141068Y-112413D01*
G01X0141068Y-112413D02*
G01X0141068Y-112444D01*
G01X0141068Y-112444D02*
G01X0141057Y-112486D01*
G01X0141057Y-112486D02*
G01X0141046Y-112506D01*
G01X0141046Y-112506D02*
G01X0141023Y-112527D01*
G01X0141023Y-112527D02*
G01X0140990Y-112537D01*
G01X0140990Y-112537D02*
G01X0140933Y-112537D01*
G01X0141215Y-112321D02*
G01X0141260Y-112321D01*
G01X0141260Y-112321D02*
G01X0141282Y-112331D01*
G01X0141282Y-112331D02*
G01X0141305Y-112352D01*
G01X0141305Y-112352D02*
G01X0141316Y-112393D01*
G01X0141316Y-112393D02*
G01X0141316Y-112465D01*
G01X0141316Y-112465D02*
G01X0141305Y-112506D01*
G01X0141305Y-112506D02*
G01X0141282Y-112527D01*
G01X0141282Y-112527D02*
G01X0141260Y-112537D01*
G01X0141260Y-112537D02*
G01X0141215Y-112537D01*
G01X0141215Y-112537D02*
G01X0141192Y-112527D01*
G01X0141192Y-112527D02*
G01X0141170Y-112506D01*
G01X0141170Y-112506D02*
G01X0141158Y-112465D01*
G01X0141158Y-112465D02*
G01X0141158Y-112393D01*
G01X0141158Y-112393D02*
G01X0141170Y-112352D01*
G01X0141170Y-112352D02*
G01X0141192Y-112331D01*
G01X0141192Y-112331D02*
G01X0141215Y-112321D01*
G01X0141417Y-112537D02*
G01X0141417Y-112321D01*
G01X0141417Y-112321D02*
G01X0141552Y-112537D01*
G01X0141552Y-112537D02*
G01X0141552Y-112321D01*
G01X0141664Y-112424D02*
G01X0141743Y-112424D01*
G01X0141777Y-112537D02*
G01X0141664Y-112537D01*
G01X0141664Y-112537D02*
G01X0141664Y-112321D01*
G01X0141664Y-112321D02*
G01X0141777Y-112321D01*
G54D17*
G01X0139455Y-099060D02*
G01X0139455Y-099473D01*
G01X0139455Y-099473D02*
G01X0139573Y-099473D01*
G01X0139573Y-099060D02*
G01X0139573Y-099473D01*
G01X0139455Y-099060D02*
G01X0139573Y-099060D01*
G01X0139259Y-099060D02*
G01X0139259Y-099473D01*
G01X0139259Y-099473D02*
G01X0139377Y-099473D01*
G01X0139377Y-099060D02*
G01X0139377Y-099473D01*
G01X0139259Y-099060D02*
G01X0139377Y-099060D01*
G01X0139062Y-099060D02*
G01X0139062Y-099473D01*
G01X0139062Y-099473D02*
G01X0139180Y-099473D01*
G01X0139180Y-099060D02*
G01X0139180Y-099473D01*
G01X0139062Y-099060D02*
G01X0139180Y-099060D01*
G01X0138865Y-099060D02*
G01X0138865Y-099473D01*
G01X0138865Y-099473D02*
G01X0138983Y-099473D01*
G01X0138983Y-099060D02*
G01X0138983Y-099473D01*
G01X0138865Y-099060D02*
G01X0138983Y-099060D01*
G01X0138668Y-099060D02*
G01X0138668Y-099473D01*
G01X0138668Y-099473D02*
G01X0138786Y-099473D01*
G01X0138786Y-099060D02*
G01X0138786Y-099473D01*
G01X0138668Y-099060D02*
G01X0138786Y-099060D01*
G01X0138471Y-099060D02*
G01X0138471Y-099473D01*
G01X0138471Y-099473D02*
G01X0138589Y-099473D01*
G01X0138589Y-099060D02*
G01X0138589Y-099473D01*
G01X0138471Y-099060D02*
G01X0138589Y-099060D01*
G01X0138274Y-099060D02*
G01X0138274Y-099473D01*
G01X0138274Y-099473D02*
G01X0138392Y-099473D01*
G01X0138392Y-099060D02*
G01X0138392Y-099473D01*
G01X0138274Y-099060D02*
G01X0138392Y-099060D01*
G01X0138077Y-099060D02*
G01X0138077Y-099473D01*
G01X0138077Y-099473D02*
G01X0138195Y-099473D01*
G01X0138195Y-099060D02*
G01X0138195Y-099473D01*
G01X0138077Y-099060D02*
G01X0138195Y-099060D01*
G01X0137880Y-099060D02*
G01X0137880Y-099473D01*
G01X0137880Y-099473D02*
G01X0137999Y-099473D01*
G01X0137999Y-099060D02*
G01X0137999Y-099473D01*
G01X0137880Y-099060D02*
G01X0137999Y-099060D01*
G01X0137684Y-099060D02*
G01X0137684Y-099473D01*
G01X0137684Y-099473D02*
G01X0137802Y-099473D01*
G01X0137802Y-099060D02*
G01X0137802Y-099473D01*
G01X0137684Y-099060D02*
G01X0137802Y-099060D01*
G01X0137487Y-099060D02*
G01X0137487Y-099473D01*
G01X0137487Y-099473D02*
G01X0137605Y-099473D01*
G01X0137605Y-099060D02*
G01X0137605Y-099473D01*
G01X0137487Y-099060D02*
G01X0137605Y-099060D01*
G01X0137290Y-099060D02*
G01X0137290Y-099473D01*
G01X0137290Y-099473D02*
G01X0137408Y-099473D01*
G01X0137408Y-099060D02*
G01X0137408Y-099473D01*
G01X0137290Y-099060D02*
G01X0137408Y-099060D01*
G01X0137093Y-099060D02*
G01X0137093Y-099473D01*
G01X0137093Y-099473D02*
G01X0137211Y-099473D01*
G01X0137211Y-099060D02*
G01X0137211Y-099473D01*
G01X0137093Y-099060D02*
G01X0137211Y-099060D01*
G01X0136896Y-099060D02*
G01X0136896Y-099473D01*
G01X0136896Y-099473D02*
G01X0137014Y-099473D01*
G01X0137014Y-099060D02*
G01X0137014Y-099473D01*
G01X0136896Y-099060D02*
G01X0137014Y-099060D01*
G01X0136699Y-099060D02*
G01X0136699Y-099473D01*
G01X0136699Y-099473D02*
G01X0136817Y-099473D01*
G01X0136817Y-099060D02*
G01X0136817Y-099473D01*
G01X0136699Y-099060D02*
G01X0136817Y-099060D01*
G01X0136503Y-099060D02*
G01X0136503Y-099473D01*
G01X0136503Y-099473D02*
G01X0136621Y-099473D01*
G01X0136621Y-099060D02*
G01X0136621Y-099473D01*
G01X0136503Y-099060D02*
G01X0136621Y-099060D01*
G01X0136306Y-099060D02*
G01X0136306Y-099473D01*
G01X0136306Y-099473D02*
G01X0136424Y-099473D01*
G01X0136424Y-099060D02*
G01X0136424Y-099473D01*
G01X0136306Y-099060D02*
G01X0136424Y-099060D01*
G01X0136109Y-099060D02*
G01X0136109Y-099473D01*
G01X0136109Y-099473D02*
G01X0136227Y-099473D01*
G01X0136227Y-099060D02*
G01X0136227Y-099473D01*
G01X0136109Y-099060D02*
G01X0136227Y-099060D01*
G01X0135913Y-099060D02*
G01X0135913Y-099473D01*
G01X0135913Y-099473D02*
G01X0136031Y-099473D01*
G01X0136031Y-099060D02*
G01X0136031Y-099473D01*
G01X0135913Y-099060D02*
G01X0136031Y-099060D01*
G01X0135716Y-099060D02*
G01X0135716Y-099473D01*
G01X0135716Y-099473D02*
G01X0135834Y-099473D01*
G01X0135834Y-099060D02*
G01X0135834Y-099473D01*
G01X0135716Y-099060D02*
G01X0135834Y-099060D01*
G01X0135519Y-099060D02*
G01X0135519Y-099473D01*
G01X0135519Y-099473D02*
G01X0135637Y-099473D01*
G01X0135637Y-099060D02*
G01X0135637Y-099473D01*
G01X0135519Y-099060D02*
G01X0135637Y-099060D01*
G01X0135323Y-099060D02*
G01X0135323Y-099473D01*
G01X0135323Y-099473D02*
G01X0135441Y-099473D01*
G01X0135441Y-099060D02*
G01X0135441Y-099473D01*
G01X0135323Y-099060D02*
G01X0135441Y-099060D01*
G01X0135126Y-099060D02*
G01X0135126Y-099473D01*
G01X0135126Y-099473D02*
G01X0135244Y-099473D01*
G01X0135244Y-099060D02*
G01X0135244Y-099473D01*
G01X0135126Y-099060D02*
G01X0135244Y-099060D01*
G01X0134929Y-099060D02*
G01X0134929Y-099473D01*
G01X0134929Y-099473D02*
G01X0135047Y-099473D01*
G01X0135047Y-099060D02*
G01X0135047Y-099473D01*
G01X0134929Y-099060D02*
G01X0135047Y-099060D01*
G01X0134732Y-099060D02*
G01X0134732Y-099473D01*
G01X0134732Y-099473D02*
G01X0134850Y-099473D01*
G01X0134850Y-099060D02*
G01X0134850Y-099473D01*
G01X0134732Y-099060D02*
G01X0134850Y-099060D01*
G01X0134535Y-099060D02*
G01X0134535Y-099473D01*
G01X0134535Y-099473D02*
G01X0134653Y-099473D01*
G01X0134653Y-099060D02*
G01X0134653Y-099473D01*
G01X0134535Y-099060D02*
G01X0134653Y-099060D01*
G01X0134338Y-099060D02*
G01X0134338Y-099473D01*
G01X0134338Y-099473D02*
G01X0134456Y-099473D01*
G01X0134456Y-099060D02*
G01X0134456Y-099473D01*
G01X0134338Y-099060D02*
G01X0134456Y-099060D01*
G01X0134141Y-099060D02*
G01X0134141Y-099473D01*
G01X0134141Y-099473D02*
G01X0134260Y-099473D01*
G01X0134260Y-099060D02*
G01X0134260Y-099473D01*
G01X0134141Y-099060D02*
G01X0134260Y-099060D01*
G01X0133945Y-099060D02*
G01X0133945Y-099473D01*
G01X0133945Y-099473D02*
G01X0134063Y-099473D01*
G01X0134063Y-099060D02*
G01X0134063Y-099473D01*
G01X0133945Y-099060D02*
G01X0134063Y-099060D01*
G01X0133748Y-099060D02*
G01X0133748Y-099473D01*
G01X0133748Y-099473D02*
G01X0133866Y-099473D01*
G01X0133866Y-099060D02*
G01X0133866Y-099473D01*
G01X0133748Y-099060D02*
G01X0133866Y-099060D01*
G01X0133551Y-099060D02*
G01X0133551Y-099473D01*
G01X0133551Y-099473D02*
G01X0133669Y-099473D01*
G01X0133669Y-099060D02*
G01X0133669Y-099473D01*
G01X0133551Y-099060D02*
G01X0133669Y-099060D01*
G01X0133354Y-099060D02*
G01X0133354Y-099473D01*
G01X0133354Y-099473D02*
G01X0133472Y-099473D01*
G01X0133472Y-099060D02*
G01X0133472Y-099473D01*
G01X0133354Y-099060D02*
G01X0133472Y-099060D01*
G01X0133157Y-099060D02*
G01X0133157Y-099473D01*
G01X0133157Y-099473D02*
G01X0133275Y-099473D01*
G01X0133275Y-099060D02*
G01X0133275Y-099473D01*
G01X0133157Y-099060D02*
G01X0133275Y-099060D01*
G01X0132960Y-099060D02*
G01X0132960Y-099473D01*
G01X0132960Y-099473D02*
G01X0133078Y-099473D01*
G01X0133078Y-099060D02*
G01X0133078Y-099473D01*
G01X0132960Y-099060D02*
G01X0133078Y-099060D01*
G01X0132763Y-099060D02*
G01X0132763Y-099473D01*
G01X0132763Y-099473D02*
G01X0132881Y-099473D01*
G01X0132881Y-099060D02*
G01X0132881Y-099473D01*
G01X0132763Y-099060D02*
G01X0132881Y-099060D01*
G01X0132567Y-099060D02*
G01X0132567Y-099473D01*
G01X0132567Y-099473D02*
G01X0132685Y-099473D01*
G01X0132685Y-099060D02*
G01X0132685Y-099473D01*
G01X0132567Y-099060D02*
G01X0132685Y-099060D01*
G01X0131760Y-099867D02*
G01X0131760Y-099985D01*
G01X0131760Y-099985D02*
G01X0132173Y-099985D01*
G01X0132173Y-099867D02*
G01X0132173Y-099985D01*
G01X0131760Y-099867D02*
G01X0132173Y-099867D01*
G01X0131760Y-100063D02*
G01X0131760Y-100181D01*
G01X0131760Y-100181D02*
G01X0132173Y-100181D01*
G01X0132173Y-100063D02*
G01X0132173Y-100181D01*
G01X0131760Y-100063D02*
G01X0132173Y-100063D01*
G01X0131760Y-100260D02*
G01X0131760Y-100378D01*
G01X0131760Y-100378D02*
G01X0132173Y-100378D01*
G01X0132173Y-100260D02*
G01X0132173Y-100378D01*
G01X0131760Y-100260D02*
G01X0132173Y-100260D01*
G01X0131760Y-100457D02*
G01X0131760Y-100575D01*
G01X0131760Y-100575D02*
G01X0132173Y-100575D01*
G01X0132173Y-100457D02*
G01X0132173Y-100575D01*
G01X0131760Y-100457D02*
G01X0132173Y-100457D01*
G01X0131760Y-100654D02*
G01X0131760Y-100772D01*
G01X0131760Y-100772D02*
G01X0132173Y-100772D01*
G01X0132173Y-100654D02*
G01X0132173Y-100772D01*
G01X0131760Y-100654D02*
G01X0132173Y-100654D01*
G01X0131760Y-100851D02*
G01X0131760Y-100969D01*
G01X0131760Y-100969D02*
G01X0132173Y-100969D01*
G01X0132173Y-100851D02*
G01X0132173Y-100969D01*
G01X0131760Y-100851D02*
G01X0132173Y-100851D01*
G01X0131760Y-101048D02*
G01X0131760Y-101166D01*
G01X0131760Y-101166D02*
G01X0132173Y-101166D01*
G01X0132173Y-101048D02*
G01X0132173Y-101166D01*
G01X0131760Y-101048D02*
G01X0132173Y-101048D01*
G01X0131760Y-101245D02*
G01X0131760Y-101363D01*
G01X0131760Y-101363D02*
G01X0132173Y-101363D01*
G01X0132173Y-101245D02*
G01X0132173Y-101363D01*
G01X0131760Y-101245D02*
G01X0132173Y-101245D01*
G01X0131760Y-101441D02*
G01X0131760Y-101560D01*
G01X0131760Y-101560D02*
G01X0132173Y-101560D01*
G01X0132173Y-101441D02*
G01X0132173Y-101560D01*
G01X0131760Y-101441D02*
G01X0132173Y-101441D01*
G01X0131760Y-101638D02*
G01X0131760Y-101756D01*
G01X0131760Y-101756D02*
G01X0132173Y-101756D01*
G01X0132173Y-101638D02*
G01X0132173Y-101756D01*
G01X0131760Y-101638D02*
G01X0132173Y-101638D01*
G01X0131760Y-101835D02*
G01X0131760Y-101953D01*
G01X0131760Y-101953D02*
G01X0132173Y-101953D01*
G01X0132173Y-101835D02*
G01X0132173Y-101953D01*
G01X0131760Y-101835D02*
G01X0132173Y-101835D01*
G01X0131760Y-102032D02*
G01X0131760Y-102150D01*
G01X0131760Y-102150D02*
G01X0132173Y-102150D01*
G01X0132173Y-102032D02*
G01X0132173Y-102150D01*
G01X0131760Y-102032D02*
G01X0132173Y-102032D01*
G01X0131760Y-102229D02*
G01X0131760Y-102347D01*
G01X0131760Y-102347D02*
G01X0132173Y-102347D01*
G01X0132173Y-102229D02*
G01X0132173Y-102347D01*
G01X0131760Y-102229D02*
G01X0132173Y-102229D01*
G01X0131760Y-102426D02*
G01X0131760Y-102544D01*
G01X0131760Y-102544D02*
G01X0132173Y-102544D01*
G01X0132173Y-102426D02*
G01X0132173Y-102544D01*
G01X0131760Y-102426D02*
G01X0132173Y-102426D01*
G01X0131760Y-102623D02*
G01X0131760Y-102741D01*
G01X0131760Y-102741D02*
G01X0132173Y-102741D01*
G01X0132173Y-102623D02*
G01X0132173Y-102741D01*
G01X0131760Y-102623D02*
G01X0132173Y-102623D01*
G01X0131760Y-102819D02*
G01X0131760Y-102937D01*
G01X0131760Y-102937D02*
G01X0132173Y-102937D01*
G01X0132173Y-102819D02*
G01X0132173Y-102937D01*
G01X0131760Y-102819D02*
G01X0132173Y-102819D01*
G01X0131760Y-103016D02*
G01X0131760Y-103134D01*
G01X0131760Y-103134D02*
G01X0132173Y-103134D01*
G01X0132173Y-103016D02*
G01X0132173Y-103134D01*
G01X0131760Y-103016D02*
G01X0132173Y-103016D01*
G01X0131760Y-103213D02*
G01X0131760Y-103331D01*
G01X0131760Y-103331D02*
G01X0132173Y-103331D01*
G01X0132173Y-103213D02*
G01X0132173Y-103331D01*
G01X0131760Y-103213D02*
G01X0132173Y-103213D01*
G01X0131760Y-103409D02*
G01X0131760Y-103527D01*
G01X0131760Y-103527D02*
G01X0132173Y-103527D01*
G01X0132173Y-103409D02*
G01X0132173Y-103527D01*
G01X0131760Y-103409D02*
G01X0132173Y-103409D01*
G01X0131760Y-103606D02*
G01X0131760Y-103724D01*
G01X0131760Y-103724D02*
G01X0132173Y-103724D01*
G01X0132173Y-103606D02*
G01X0132173Y-103724D01*
G01X0131760Y-103606D02*
G01X0132173Y-103606D01*
G01X0131760Y-103803D02*
G01X0131760Y-103921D01*
G01X0131760Y-103921D02*
G01X0132173Y-103921D01*
G01X0132173Y-103803D02*
G01X0132173Y-103921D01*
G01X0131760Y-103803D02*
G01X0132173Y-103803D01*
G01X0131760Y-103999D02*
G01X0131760Y-104117D01*
G01X0131760Y-104117D02*
G01X0132173Y-104117D01*
G01X0132173Y-103999D02*
G01X0132173Y-104117D01*
G01X0131760Y-103999D02*
G01X0132173Y-103999D01*
G01X0131760Y-104196D02*
G01X0131760Y-104314D01*
G01X0131760Y-104314D02*
G01X0132173Y-104314D01*
G01X0132173Y-104196D02*
G01X0132173Y-104314D01*
G01X0131760Y-104196D02*
G01X0132173Y-104196D01*
G01X0131760Y-104393D02*
G01X0131760Y-104511D01*
G01X0131760Y-104511D02*
G01X0132173Y-104511D01*
G01X0132173Y-104393D02*
G01X0132173Y-104511D01*
G01X0131760Y-104393D02*
G01X0132173Y-104393D01*
G01X0131760Y-104590D02*
G01X0131760Y-104708D01*
G01X0131760Y-104708D02*
G01X0132173Y-104708D01*
G01X0132173Y-104590D02*
G01X0132173Y-104708D01*
G01X0131760Y-104590D02*
G01X0132173Y-104590D01*
G01X0131760Y-104787D02*
G01X0131760Y-104905D01*
G01X0131760Y-104905D02*
G01X0132173Y-104905D01*
G01X0132173Y-104787D02*
G01X0132173Y-104905D01*
G01X0131760Y-104787D02*
G01X0132173Y-104787D01*
G01X0131760Y-104984D02*
G01X0131760Y-105102D01*
G01X0131760Y-105102D02*
G01X0132173Y-105102D01*
G01X0132173Y-104984D02*
G01X0132173Y-105102D01*
G01X0131760Y-104984D02*
G01X0132173Y-104984D01*
G01X0131760Y-105180D02*
G01X0131760Y-105299D01*
G01X0131760Y-105299D02*
G01X0132173Y-105299D01*
G01X0132173Y-105180D02*
G01X0132173Y-105299D01*
G01X0131760Y-105180D02*
G01X0132173Y-105180D01*
G01X0131760Y-105377D02*
G01X0131760Y-105495D01*
G01X0131760Y-105495D02*
G01X0132173Y-105495D01*
G01X0132173Y-105377D02*
G01X0132173Y-105495D01*
G01X0131760Y-105377D02*
G01X0132173Y-105377D01*
G01X0131760Y-105574D02*
G01X0131760Y-105692D01*
G01X0131760Y-105692D02*
G01X0132173Y-105692D01*
G01X0132173Y-105574D02*
G01X0132173Y-105692D01*
G01X0131760Y-105574D02*
G01X0132173Y-105574D01*
G01X0131760Y-105771D02*
G01X0131760Y-105889D01*
G01X0131760Y-105889D02*
G01X0132173Y-105889D01*
G01X0132173Y-105771D02*
G01X0132173Y-105889D01*
G01X0131760Y-105771D02*
G01X0132173Y-105771D01*
G01X0131760Y-105968D02*
G01X0131760Y-106086D01*
G01X0131760Y-106086D02*
G01X0132173Y-106086D01*
G01X0132173Y-105968D02*
G01X0132173Y-106086D01*
G01X0131760Y-105968D02*
G01X0132173Y-105968D01*
G01X0131760Y-106165D02*
G01X0131760Y-106283D01*
G01X0131760Y-106283D02*
G01X0132173Y-106283D01*
G01X0132173Y-106165D02*
G01X0132173Y-106283D01*
G01X0131760Y-106165D02*
G01X0132173Y-106165D01*
G01X0131760Y-106362D02*
G01X0131760Y-106480D01*
G01X0131760Y-106480D02*
G01X0132173Y-106480D01*
G01X0132173Y-106362D02*
G01X0132173Y-106480D01*
G01X0131760Y-106362D02*
G01X0132173Y-106362D01*
G01X0131760Y-106559D02*
G01X0131760Y-106677D01*
G01X0131760Y-106677D02*
G01X0132173Y-106677D01*
G01X0132173Y-106559D02*
G01X0132173Y-106677D01*
G01X0131760Y-106559D02*
G01X0132173Y-106559D01*
G01X0131760Y-106755D02*
G01X0131760Y-106873D01*
G01X0131760Y-106873D02*
G01X0132173Y-106873D01*
G01X0132173Y-106755D02*
G01X0132173Y-106873D01*
G01X0131760Y-106755D02*
G01X0132173Y-106755D01*
G01X0132567Y-107267D02*
G01X0132567Y-107680D01*
G01X0132567Y-107680D02*
G01X0132685Y-107680D01*
G01X0132685Y-107267D02*
G01X0132685Y-107680D01*
G01X0132567Y-107267D02*
G01X0132685Y-107267D01*
G01X0132763Y-107267D02*
G01X0132763Y-107680D01*
G01X0132763Y-107680D02*
G01X0132881Y-107680D01*
G01X0132881Y-107267D02*
G01X0132881Y-107680D01*
G01X0132763Y-107267D02*
G01X0132881Y-107267D01*
G01X0132960Y-107267D02*
G01X0132960Y-107680D01*
G01X0132960Y-107680D02*
G01X0133078Y-107680D01*
G01X0133078Y-107267D02*
G01X0133078Y-107680D01*
G01X0132960Y-107267D02*
G01X0133078Y-107267D01*
G01X0133157Y-107267D02*
G01X0133157Y-107680D01*
G01X0133157Y-107680D02*
G01X0133275Y-107680D01*
G01X0133275Y-107267D02*
G01X0133275Y-107680D01*
G01X0133157Y-107267D02*
G01X0133275Y-107267D01*
G01X0133354Y-107267D02*
G01X0133354Y-107680D01*
G01X0133354Y-107680D02*
G01X0133472Y-107680D01*
G01X0133472Y-107267D02*
G01X0133472Y-107680D01*
G01X0133354Y-107267D02*
G01X0133472Y-107267D01*
G01X0133551Y-107267D02*
G01X0133551Y-107680D01*
G01X0133551Y-107680D02*
G01X0133669Y-107680D01*
G01X0133669Y-107267D02*
G01X0133669Y-107680D01*
G01X0133551Y-107267D02*
G01X0133669Y-107267D01*
G01X0133748Y-107267D02*
G01X0133748Y-107680D01*
G01X0133748Y-107680D02*
G01X0133866Y-107680D01*
G01X0133866Y-107267D02*
G01X0133866Y-107680D01*
G01X0133748Y-107267D02*
G01X0133866Y-107267D01*
G01X0133945Y-107267D02*
G01X0133945Y-107680D01*
G01X0133945Y-107680D02*
G01X0134063Y-107680D01*
G01X0134063Y-107267D02*
G01X0134063Y-107680D01*
G01X0133945Y-107267D02*
G01X0134063Y-107267D01*
G01X0134141Y-107267D02*
G01X0134141Y-107680D01*
G01X0134141Y-107680D02*
G01X0134260Y-107680D01*
G01X0134260Y-107267D02*
G01X0134260Y-107680D01*
G01X0134141Y-107267D02*
G01X0134260Y-107267D01*
G01X0134338Y-107267D02*
G01X0134338Y-107680D01*
G01X0134338Y-107680D02*
G01X0134456Y-107680D01*
G01X0134456Y-107267D02*
G01X0134456Y-107680D01*
G01X0134338Y-107267D02*
G01X0134456Y-107267D01*
G01X0134535Y-107267D02*
G01X0134535Y-107680D01*
G01X0134535Y-107680D02*
G01X0134653Y-107680D01*
G01X0134653Y-107267D02*
G01X0134653Y-107680D01*
G01X0134535Y-107267D02*
G01X0134653Y-107267D01*
G01X0134732Y-107267D02*
G01X0134732Y-107680D01*
G01X0134732Y-107680D02*
G01X0134850Y-107680D01*
G01X0134850Y-107267D02*
G01X0134850Y-107680D01*
G01X0134732Y-107267D02*
G01X0134850Y-107267D01*
G01X0134929Y-107267D02*
G01X0134929Y-107680D01*
G01X0134929Y-107680D02*
G01X0135047Y-107680D01*
G01X0135047Y-107267D02*
G01X0135047Y-107680D01*
G01X0134929Y-107267D02*
G01X0135047Y-107267D01*
G01X0135126Y-107267D02*
G01X0135126Y-107680D01*
G01X0135126Y-107680D02*
G01X0135244Y-107680D01*
G01X0135244Y-107267D02*
G01X0135244Y-107680D01*
G01X0135126Y-107267D02*
G01X0135244Y-107267D01*
G01X0135323Y-107267D02*
G01X0135323Y-107680D01*
G01X0135323Y-107680D02*
G01X0135441Y-107680D01*
G01X0135441Y-107267D02*
G01X0135441Y-107680D01*
G01X0135323Y-107267D02*
G01X0135441Y-107267D01*
G01X0135519Y-107267D02*
G01X0135519Y-107680D01*
G01X0135519Y-107680D02*
G01X0135637Y-107680D01*
G01X0135637Y-107267D02*
G01X0135637Y-107680D01*
G01X0135519Y-107267D02*
G01X0135637Y-107267D01*
G01X0135716Y-107267D02*
G01X0135716Y-107680D01*
G01X0135716Y-107680D02*
G01X0135834Y-107680D01*
G01X0135834Y-107267D02*
G01X0135834Y-107680D01*
G01X0135716Y-107267D02*
G01X0135834Y-107267D01*
G01X0135913Y-107267D02*
G01X0135913Y-107680D01*
G01X0135913Y-107680D02*
G01X0136031Y-107680D01*
G01X0136031Y-107267D02*
G01X0136031Y-107680D01*
G01X0135913Y-107267D02*
G01X0136031Y-107267D01*
G01X0136109Y-107267D02*
G01X0136109Y-107680D01*
G01X0136109Y-107680D02*
G01X0136227Y-107680D01*
G01X0136227Y-107267D02*
G01X0136227Y-107680D01*
G01X0136109Y-107267D02*
G01X0136227Y-107267D01*
G01X0136306Y-107267D02*
G01X0136306Y-107680D01*
G01X0136306Y-107680D02*
G01X0136424Y-107680D01*
G01X0136424Y-107267D02*
G01X0136424Y-107680D01*
G01X0136306Y-107267D02*
G01X0136424Y-107267D01*
G01X0136503Y-107267D02*
G01X0136503Y-107680D01*
G01X0136503Y-107680D02*
G01X0136621Y-107680D01*
G01X0136621Y-107267D02*
G01X0136621Y-107680D01*
G01X0136503Y-107267D02*
G01X0136621Y-107267D01*
G01X0136699Y-107267D02*
G01X0136699Y-107680D01*
G01X0136699Y-107680D02*
G01X0136817Y-107680D01*
G01X0136817Y-107267D02*
G01X0136817Y-107680D01*
G01X0136699Y-107267D02*
G01X0136817Y-107267D01*
G01X0136896Y-107267D02*
G01X0136896Y-107680D01*
G01X0136896Y-107680D02*
G01X0137014Y-107680D01*
G01X0137014Y-107267D02*
G01X0137014Y-107680D01*
G01X0136896Y-107267D02*
G01X0137014Y-107267D01*
G01X0137093Y-107267D02*
G01X0137093Y-107680D01*
G01X0137093Y-107680D02*
G01X0137211Y-107680D01*
G01X0137211Y-107267D02*
G01X0137211Y-107680D01*
G01X0137093Y-107267D02*
G01X0137211Y-107267D01*
G01X0137290Y-107267D02*
G01X0137290Y-107680D01*
G01X0137290Y-107680D02*
G01X0137408Y-107680D01*
G01X0137408Y-107267D02*
G01X0137408Y-107680D01*
G01X0137290Y-107267D02*
G01X0137408Y-107267D01*
G01X0137487Y-107267D02*
G01X0137487Y-107680D01*
G01X0137487Y-107680D02*
G01X0137605Y-107680D01*
G01X0137605Y-107267D02*
G01X0137605Y-107680D01*
G01X0137487Y-107267D02*
G01X0137605Y-107267D01*
G01X0137684Y-107267D02*
G01X0137684Y-107680D01*
G01X0137684Y-107680D02*
G01X0137802Y-107680D01*
G01X0137802Y-107267D02*
G01X0137802Y-107680D01*
G01X0137684Y-107267D02*
G01X0137802Y-107267D01*
G01X0137880Y-107267D02*
G01X0137880Y-107680D01*
G01X0137880Y-107680D02*
G01X0137999Y-107680D01*
G01X0137999Y-107267D02*
G01X0137999Y-107680D01*
G01X0137880Y-107267D02*
G01X0137999Y-107267D01*
G01X0138077Y-107267D02*
G01X0138077Y-107680D01*
G01X0138077Y-107680D02*
G01X0138195Y-107680D01*
G01X0138195Y-107267D02*
G01X0138195Y-107680D01*
G01X0138077Y-107267D02*
G01X0138195Y-107267D01*
G01X0138274Y-107267D02*
G01X0138274Y-107680D01*
G01X0138274Y-107680D02*
G01X0138392Y-107680D01*
G01X0138392Y-107267D02*
G01X0138392Y-107680D01*
G01X0138274Y-107267D02*
G01X0138392Y-107267D01*
G01X0138471Y-107267D02*
G01X0138471Y-107680D01*
G01X0138471Y-107680D02*
G01X0138589Y-107680D01*
G01X0138589Y-107267D02*
G01X0138589Y-107680D01*
G01X0138471Y-107267D02*
G01X0138589Y-107267D01*
G01X0138668Y-107267D02*
G01X0138668Y-107680D01*
G01X0138668Y-107680D02*
G01X0138786Y-107680D01*
G01X0138786Y-107267D02*
G01X0138786Y-107680D01*
G01X0138668Y-107267D02*
G01X0138786Y-107267D01*
G01X0138865Y-107267D02*
G01X0138865Y-107680D01*
G01X0138865Y-107680D02*
G01X0138983Y-107680D01*
G01X0138983Y-107267D02*
G01X0138983Y-107680D01*
G01X0138865Y-107267D02*
G01X0138983Y-107267D01*
G01X0139062Y-107267D02*
G01X0139062Y-107680D01*
G01X0139062Y-107680D02*
G01X0139180Y-107680D01*
G01X0139180Y-107267D02*
G01X0139180Y-107680D01*
G01X0139062Y-107267D02*
G01X0139180Y-107267D01*
G01X0139259Y-107267D02*
G01X0139259Y-107680D01*
G01X0139259Y-107680D02*
G01X0139377Y-107680D01*
G01X0139377Y-107267D02*
G01X0139377Y-107680D01*
G01X0139259Y-107267D02*
G01X0139377Y-107267D01*
G01X0139455Y-107267D02*
G01X0139455Y-107680D01*
G01X0139455Y-107680D02*
G01X0139573Y-107680D01*
G01X0139573Y-107267D02*
G01X0139573Y-107680D01*
G01X0139455Y-107267D02*
G01X0139573Y-107267D01*
G01X0139967Y-106755D02*
G01X0139967Y-106873D01*
G01X0139967Y-106873D02*
G01X0140380Y-106873D01*
G01X0140380Y-106755D02*
G01X0140380Y-106873D01*
G01X0139967Y-106755D02*
G01X0140380Y-106755D01*
G01X0139967Y-106559D02*
G01X0139967Y-106677D01*
G01X0139967Y-106677D02*
G01X0140380Y-106677D01*
G01X0140380Y-106559D02*
G01X0140380Y-106677D01*
G01X0139967Y-106559D02*
G01X0140380Y-106559D01*
G01X0139967Y-106362D02*
G01X0139967Y-106480D01*
G01X0139967Y-106480D02*
G01X0140380Y-106480D01*
G01X0140380Y-106362D02*
G01X0140380Y-106480D01*
G01X0139967Y-106362D02*
G01X0140380Y-106362D01*
G01X0139967Y-106165D02*
G01X0139967Y-106283D01*
G01X0139967Y-106283D02*
G01X0140380Y-106283D01*
G01X0140380Y-106165D02*
G01X0140380Y-106283D01*
G01X0139967Y-106165D02*
G01X0140380Y-106165D01*
G01X0139967Y-105968D02*
G01X0139967Y-106086D01*
G01X0139967Y-106086D02*
G01X0140380Y-106086D01*
G01X0140380Y-105968D02*
G01X0140380Y-106086D01*
G01X0139967Y-105968D02*
G01X0140380Y-105968D01*
G01X0139967Y-105771D02*
G01X0139967Y-105889D01*
G01X0139967Y-105889D02*
G01X0140380Y-105889D01*
G01X0140380Y-105771D02*
G01X0140380Y-105889D01*
G01X0139967Y-105771D02*
G01X0140380Y-105771D01*
G01X0139967Y-105574D02*
G01X0139967Y-105692D01*
G01X0139967Y-105692D02*
G01X0140380Y-105692D01*
G01X0140380Y-105574D02*
G01X0140380Y-105692D01*
G01X0139967Y-105574D02*
G01X0140380Y-105574D01*
G01X0139967Y-105377D02*
G01X0139967Y-105495D01*
G01X0139967Y-105495D02*
G01X0140380Y-105495D01*
G01X0140380Y-105377D02*
G01X0140380Y-105495D01*
G01X0139967Y-105377D02*
G01X0140380Y-105377D01*
G01X0139967Y-105180D02*
G01X0139967Y-105299D01*
G01X0139967Y-105299D02*
G01X0140380Y-105299D01*
G01X0140380Y-105180D02*
G01X0140380Y-105299D01*
G01X0139967Y-105180D02*
G01X0140380Y-105180D01*
G01X0139967Y-104984D02*
G01X0139967Y-105102D01*
G01X0139967Y-105102D02*
G01X0140380Y-105102D01*
G01X0140380Y-104984D02*
G01X0140380Y-105102D01*
G01X0139967Y-104984D02*
G01X0140380Y-104984D01*
G01X0139967Y-104787D02*
G01X0139967Y-104905D01*
G01X0139967Y-104905D02*
G01X0140380Y-104905D01*
G01X0140380Y-104787D02*
G01X0140380Y-104905D01*
G01X0139967Y-104787D02*
G01X0140380Y-104787D01*
G01X0139967Y-104590D02*
G01X0139967Y-104708D01*
G01X0139967Y-104708D02*
G01X0140380Y-104708D01*
G01X0140380Y-104590D02*
G01X0140380Y-104708D01*
G01X0139967Y-104590D02*
G01X0140380Y-104590D01*
G01X0139967Y-104393D02*
G01X0139967Y-104511D01*
G01X0139967Y-104511D02*
G01X0140380Y-104511D01*
G01X0140380Y-104393D02*
G01X0140380Y-104511D01*
G01X0139967Y-104393D02*
G01X0140380Y-104393D01*
G01X0139967Y-104196D02*
G01X0139967Y-104314D01*
G01X0139967Y-104314D02*
G01X0140380Y-104314D01*
G01X0140380Y-104196D02*
G01X0140380Y-104314D01*
G01X0139967Y-104196D02*
G01X0140380Y-104196D01*
G01X0139967Y-103999D02*
G01X0139967Y-104117D01*
G01X0139967Y-104117D02*
G01X0140380Y-104117D01*
G01X0140380Y-103999D02*
G01X0140380Y-104117D01*
G01X0139967Y-103999D02*
G01X0140380Y-103999D01*
G01X0139967Y-103803D02*
G01X0139967Y-103921D01*
G01X0139967Y-103921D02*
G01X0140380Y-103921D01*
G01X0140380Y-103803D02*
G01X0140380Y-103921D01*
G01X0139967Y-103803D02*
G01X0140380Y-103803D01*
G01X0139967Y-103606D02*
G01X0139967Y-103724D01*
G01X0139967Y-103724D02*
G01X0140380Y-103724D01*
G01X0140380Y-103606D02*
G01X0140380Y-103724D01*
G01X0139967Y-103606D02*
G01X0140380Y-103606D01*
G01X0139967Y-103409D02*
G01X0139967Y-103527D01*
G01X0139967Y-103527D02*
G01X0140380Y-103527D01*
G01X0140380Y-103409D02*
G01X0140380Y-103527D01*
G01X0139967Y-103409D02*
G01X0140380Y-103409D01*
G01X0139967Y-103213D02*
G01X0139967Y-103331D01*
G01X0139967Y-103331D02*
G01X0140380Y-103331D01*
G01X0140380Y-103213D02*
G01X0140380Y-103331D01*
G01X0139967Y-103213D02*
G01X0140380Y-103213D01*
G01X0139967Y-103016D02*
G01X0139967Y-103134D01*
G01X0139967Y-103134D02*
G01X0140380Y-103134D01*
G01X0140380Y-103016D02*
G01X0140380Y-103134D01*
G01X0139967Y-103016D02*
G01X0140380Y-103016D01*
G01X0139967Y-102819D02*
G01X0139967Y-102937D01*
G01X0139967Y-102937D02*
G01X0140380Y-102937D01*
G01X0140380Y-102819D02*
G01X0140380Y-102937D01*
G01X0139967Y-102819D02*
G01X0140380Y-102819D01*
G01X0139967Y-102623D02*
G01X0139967Y-102741D01*
G01X0139967Y-102741D02*
G01X0140380Y-102741D01*
G01X0140380Y-102623D02*
G01X0140380Y-102741D01*
G01X0139967Y-102623D02*
G01X0140380Y-102623D01*
G01X0139967Y-102426D02*
G01X0139967Y-102544D01*
G01X0139967Y-102544D02*
G01X0140380Y-102544D01*
G01X0140380Y-102426D02*
G01X0140380Y-102544D01*
G01X0139967Y-102426D02*
G01X0140380Y-102426D01*
G01X0139967Y-102229D02*
G01X0139967Y-102347D01*
G01X0139967Y-102347D02*
G01X0140380Y-102347D01*
G01X0140380Y-102229D02*
G01X0140380Y-102347D01*
G01X0139967Y-102229D02*
G01X0140380Y-102229D01*
G01X0139967Y-102032D02*
G01X0139967Y-102150D01*
G01X0139967Y-102150D02*
G01X0140380Y-102150D01*
G01X0140380Y-102032D02*
G01X0140380Y-102150D01*
G01X0139967Y-102032D02*
G01X0140380Y-102032D01*
G01X0139967Y-101835D02*
G01X0139967Y-101953D01*
G01X0139967Y-101953D02*
G01X0140380Y-101953D01*
G01X0140380Y-101835D02*
G01X0140380Y-101953D01*
G01X0139967Y-101835D02*
G01X0140380Y-101835D01*
G01X0139967Y-101638D02*
G01X0139967Y-101756D01*
G01X0139967Y-101756D02*
G01X0140380Y-101756D01*
G01X0140380Y-101638D02*
G01X0140380Y-101756D01*
G01X0139967Y-101638D02*
G01X0140380Y-101638D01*
G01X0139967Y-101441D02*
G01X0139967Y-101560D01*
G01X0139967Y-101560D02*
G01X0140380Y-101560D01*
G01X0140380Y-101441D02*
G01X0140380Y-101560D01*
G01X0139967Y-101441D02*
G01X0140380Y-101441D01*
G01X0139967Y-101245D02*
G01X0139967Y-101363D01*
G01X0139967Y-101363D02*
G01X0140380Y-101363D01*
G01X0140380Y-101245D02*
G01X0140380Y-101363D01*
G01X0139967Y-101245D02*
G01X0140380Y-101245D01*
G01X0139967Y-101048D02*
G01X0139967Y-101166D01*
G01X0139967Y-101166D02*
G01X0140380Y-101166D01*
G01X0140380Y-101048D02*
G01X0140380Y-101166D01*
G01X0139967Y-101048D02*
G01X0140380Y-101048D01*
G01X0139967Y-100851D02*
G01X0139967Y-100969D01*
G01X0139967Y-100969D02*
G01X0140380Y-100969D01*
G01X0140380Y-100851D02*
G01X0140380Y-100969D01*
G01X0139967Y-100851D02*
G01X0140380Y-100851D01*
G01X0139967Y-100654D02*
G01X0139967Y-100772D01*
G01X0139967Y-100772D02*
G01X0140380Y-100772D01*
G01X0140380Y-100654D02*
G01X0140380Y-100772D01*
G01X0139967Y-100654D02*
G01X0140380Y-100654D01*
G01X0139967Y-100457D02*
G01X0139967Y-100575D01*
G01X0139967Y-100575D02*
G01X0140380Y-100575D01*
G01X0140380Y-100457D02*
G01X0140380Y-100575D01*
G01X0139967Y-100457D02*
G01X0140380Y-100457D01*
G01X0139967Y-100260D02*
G01X0139967Y-100378D01*
G01X0139967Y-100378D02*
G01X0140380Y-100378D01*
G01X0140380Y-100260D02*
G01X0140380Y-100378D01*
G01X0139967Y-100260D02*
G01X0140380Y-100260D01*
G01X0139967Y-100063D02*
G01X0139967Y-100181D01*
G01X0139967Y-100181D02*
G01X0140380Y-100181D01*
G01X0140380Y-100063D02*
G01X0140380Y-100181D01*
G01X0139967Y-100063D02*
G01X0140380Y-100063D01*
G01X0139967Y-099867D02*
G01X0139967Y-099985D01*
G01X0139967Y-099985D02*
G01X0140380Y-099985D01*
G01X0140380Y-099867D02*
G01X0140380Y-099985D01*
G01X0139967Y-099867D02*
G01X0140380Y-099867D01*
G54D18*
G01X0139613Y-099532D02*
G01X0139908Y-099827D01*
G01X0139908Y-099827D02*
G01X0139908Y-107110D01*
G01X0139908Y-107110D02*
G01X0139810Y-107208D01*
G01X0139810Y-107208D02*
G01X0132330Y-107208D01*
G01X0132330Y-107208D02*
G01X0132232Y-107110D01*
G01X0132232Y-107110D02*
G01X0132232Y-099630D01*
G01X0132232Y-099630D02*
G01X0132330Y-099532D01*
G01X0132330Y-099532D02*
G01X0139613Y-099532D01*
G54D19*
G01X0139583Y-099926D02*
G75*
G03X0139583Y-099926I-000069J0000000D01*
G01X0125120Y-108064D02*
G75*
G03X0125120Y-108064I-001000J0000000D01*
G01X0125620Y-109564D02*
G01X0122620Y-109564D01*
G01X0122620Y-109564D02*
G01X0122620Y-106564D01*
G01X0122620Y-106564D02*
G01X0125620Y-106564D01*
G01X0125620Y-109564D02*
G01X0125620Y-106564D01*
G54D20*
G01X0125550Y-111160D02*
G01X0130550Y-111160D01*
G01X0130550Y-111160D02*
G01X0130550Y-113160D01*
G01X0130550Y-113160D02*
G01X0125550Y-113160D01*
G01X0125550Y-113160D02*
G01X0125550Y-111160D01*
G54D21*
G01X0142687Y-110374D02*
G01X0142687Y-111926D01*
G01X0142687Y-111926D02*
G01X0141913Y-111926D01*
G01X0141913Y-111926D02*
G01X0141913Y-110374D01*
G01X0141913Y-110374D02*
G01X0142687Y-110374D01*
G01X0139318Y-110413D02*
G01X0140870Y-110413D01*
G01X0140870Y-110413D02*
G01X0140870Y-111187D01*
G01X0140870Y-111187D02*
G01X0139318Y-111187D01*
G01X0139318Y-111187D02*
G01X0139318Y-110413D01*
G54D22*
G01X0124580Y-086090D02*
G01X0123050Y-086090D01*
G01X0123050Y-086090D02*
G01X0123050Y-085410D01*
G01X0123050Y-085410D02*
G01X0124600Y-085410D01*
G01X0124600Y-085410D02*
G01X0124600Y-086090D01*
G01X0121840Y-110690D02*
G01X0121840Y-112220D01*
G01X0121840Y-112220D02*
G01X0121160Y-112220D01*
G01X0121160Y-112220D02*
G01X0121160Y-110670D01*
G01X0121160Y-110670D02*
G01X0121840Y-110670D01*
G01X0120790Y-110690D02*
G01X0120790Y-112220D01*
G01X0120790Y-112220D02*
G01X0120110Y-112220D01*
G01X0120110Y-112220D02*
G01X0120110Y-110670D01*
G01X0120110Y-110670D02*
G01X0120790Y-110670D01*
G01X0141104Y-112119D02*
G01X0141104Y-110589D01*
G01X0141104Y-110589D02*
G01X0141784Y-110589D01*
G01X0141784Y-110589D02*
G01X0141784Y-112139D01*
G01X0141784Y-112139D02*
G01X0141104Y-112139D01*
G01X0122940Y-110690D02*
G01X0122940Y-112220D01*
G01X0122940Y-112220D02*
G01X0122260Y-112220D01*
G01X0122260Y-112220D02*
G01X0122260Y-110670D01*
G01X0122260Y-110670D02*
G01X0122940Y-110670D01*
G01X0124040Y-110690D02*
G01X0124040Y-112220D01*
G01X0124040Y-112220D02*
G01X0123360Y-112220D01*
G01X0123360Y-112220D02*
G01X0123360Y-110670D01*
G01X0123360Y-110670D02*
G01X0124040Y-110670D01*
G54D17*
G01X0140415Y-111869D02*
G01X0140415Y-112049D01*
G01X0140415Y-112049D02*
G01X0140644Y-112049D01*
G01X0140644Y-111869D02*
G01X0140644Y-112049D01*
G01X0140415Y-111869D02*
G01X0140644Y-111869D01*
G01X0139626Y-112239D02*
G01X0139626Y-112419D01*
G01X0139626Y-112419D02*
G01X0139855Y-112419D01*
G01X0139855Y-112239D02*
G01X0139855Y-112419D01*
G01X0139626Y-112239D02*
G01X0139855Y-112239D01*
G01X0139626Y-111499D02*
G01X0139626Y-111679D01*
G01X0139626Y-111679D02*
G01X0139855Y-111679D01*
G01X0139855Y-111499D02*
G01X0139855Y-111679D01*
G01X0139626Y-111499D02*
G01X0139855Y-111499D01*
G54D23*
G01X0140394Y-112518D02*
G01X0139876Y-112518D01*
G01X0139876Y-112518D02*
G01X0139876Y-111400D01*
G01X0139876Y-111400D02*
G01X0140394Y-111400D01*
G01X0140394Y-111400D02*
G01X0140394Y-112518D01*
G54D21*
G01X0128772Y-093646D02*
G01X0128772Y-092094D01*
G01X0128772Y-092094D02*
G01X0129546Y-092094D01*
G01X0129546Y-092094D02*
G01X0129546Y-093646D01*
G01X0129546Y-093646D02*
G01X0128772Y-093646D01*
G01X0129161Y-094849D02*
G01X0129161Y-096401D01*
G01X0129161Y-096401D02*
G01X0128387Y-096401D01*
G01X0128387Y-096401D02*
G01X0128387Y-094849D01*
G01X0128387Y-094849D02*
G01X0129161Y-094849D01*
G01X0125383Y-091111D02*
G01X0125383Y-089559D01*
G01X0125383Y-089559D02*
G01X0126157Y-089559D01*
G01X0126157Y-089559D02*
G01X0126157Y-091111D01*
G01X0126157Y-091111D02*
G01X0125383Y-091111D01*
G01X0128763Y-092005D02*
G01X0128763Y-090453D01*
G01X0128763Y-090453D02*
G01X0129537Y-090453D01*
G01X0129537Y-090453D02*
G01X0129537Y-092005D01*
G01X0129537Y-092005D02*
G01X0128763Y-092005D01*
G54D19*
G01X0122425Y-095294D02*
G75*
G03X0122425Y-095294I-001000J0000000D01*
G01X0119925Y-093794D02*
G01X0122925Y-093794D01*
G01X0122925Y-093794D02*
G01X0122925Y-096794D01*
G01X0122925Y-096794D02*
G01X0119925Y-096794D01*
G01X0119925Y-093794D02*
G01X0119925Y-096794D01*
G01X0121325Y-108044D02*
G75*
G03X0121325Y-108044I-001000J0000000D01*
G01X0118825Y-106544D02*
G01X0121825Y-106544D01*
G01X0121825Y-106544D02*
G01X0121825Y-109544D01*
G01X0121825Y-109544D02*
G01X0118825Y-109544D01*
G01X0118825Y-106544D02*
G01X0118825Y-109544D01*
G54D20*
G01X0118455Y-092900D02*
G01X0119455Y-092900D01*
G01X0119455Y-092900D02*
G01X0119455Y-098900D01*
G01X0119455Y-098900D02*
G01X0118455Y-098900D01*
G01X0118455Y-098900D02*
G01X0118455Y-092900D01*
G01X0118455Y-093900D02*
G01X0119455Y-093900D01*
G54D18*
G01X0144559Y-096709D02*
G01X0144559Y-099409D01*
G01X0146459Y-099409D02*
G01X0146459Y-096709D01*
G01X0144559Y-099409D02*
G75*
G03X0145509Y-100359I0000950J0000000D01*
G01X0145509Y-100359D02*
G75*
G03X0146459Y-099409I0000000J0000950D01*
G01X0146459Y-096709D02*
G75*
G03X0145509Y-095759I-000950J0000000D01*
G01X0145509Y-095759D02*
G75*
G03X0144559Y-096709I0000000J-000950D01*
G54D21*
G01X0127679Y-098218D02*
G01X0129231Y-098218D01*
G01X0129231Y-098218D02*
G01X0129231Y-098992D01*
G01X0129231Y-098992D02*
G01X0127679Y-098992D01*
G01X0127679Y-098992D02*
G01X0127679Y-098218D01*
G01X0145292Y-092585D02*
G01X0145292Y-091033D01*
G01X0145292Y-091033D02*
G01X0146066Y-091033D01*
G01X0146066Y-091033D02*
G01X0146066Y-092585D01*
G01X0146066Y-092585D02*
G01X0145292Y-092585D01*
G01X0122826Y-087887D02*
G01X0121274Y-087887D01*
G01X0121274Y-087887D02*
G01X0121274Y-087113D01*
G01X0121274Y-087113D02*
G01X0122826Y-087113D01*
G01X0122826Y-087113D02*
G01X0122826Y-087887D01*
G01X0124533Y-090836D02*
G01X0124533Y-089284D01*
G01X0124533Y-089284D02*
G01X0125307Y-089284D01*
G01X0125307Y-089284D02*
G01X0125307Y-090836D01*
G01X0125307Y-090836D02*
G01X0124533Y-090836D01*
G01X0127787Y-087161D02*
G01X0127787Y-085609D01*
G01X0127787Y-085609D02*
G01X0128561Y-085609D01*
G01X0128561Y-085609D02*
G01X0128561Y-087161D01*
G01X0128561Y-087161D02*
G01X0127787Y-087161D01*
G01X0127679Y-099128D02*
G01X0129231Y-099128D01*
G01X0129231Y-099128D02*
G01X0129231Y-099902D01*
G01X0129231Y-099902D02*
G01X0127679Y-099902D01*
G01X0127679Y-099902D02*
G01X0127679Y-099128D01*
G01X0145937Y-094064D02*
G01X0145937Y-095616D01*
G01X0145937Y-095616D02*
G01X0145163Y-095616D01*
G01X0145163Y-095616D02*
G01X0145163Y-094064D01*
G01X0145163Y-094064D02*
G01X0145937Y-094064D01*
G01X0144068Y-104777D02*
G01X0145620Y-104777D01*
G01X0145620Y-104777D02*
G01X0145620Y-105551D01*
G01X0145620Y-105551D02*
G01X0144068Y-105551D01*
G01X0144068Y-105551D02*
G01X0144068Y-104777D01*
G01X0144024Y-103103D02*
G01X0145576Y-103103D01*
G01X0145576Y-103103D02*
G01X0145576Y-103877D01*
G01X0145576Y-103877D02*
G01X0144024Y-103877D01*
G01X0144024Y-103877D02*
G01X0144024Y-103103D01*
G54D22*
G01X0145595Y-106349D02*
G01X0144065Y-106349D01*
G01X0144065Y-106349D02*
G01X0144065Y-105669D01*
G01X0144065Y-105669D02*
G01X0145615Y-105669D01*
G01X0145615Y-105669D02*
G01X0145615Y-106349D01*
G01X0126935Y-097430D02*
G01X0126935Y-098960D01*
G01X0126935Y-098960D02*
G01X0126255Y-098960D01*
G01X0126255Y-098960D02*
G01X0126255Y-097410D01*
G01X0126255Y-097410D02*
G01X0126935Y-097410D01*
G01X0145574Y-104554D02*
G01X0144044Y-104554D01*
G01X0144044Y-104554D02*
G01X0144044Y-103874D01*
G01X0144044Y-103874D02*
G01X0145594Y-103874D01*
G01X0145594Y-103874D02*
G01X0145594Y-104554D01*
G01X0126060Y-097425D02*
G01X0126060Y-098955D01*
G01X0126060Y-098955D02*
G01X0125380Y-098955D01*
G01X0125380Y-098955D02*
G01X0125380Y-097405D01*
G01X0125380Y-097405D02*
G01X0126060Y-097405D01*
G54D17*
G01X0142391Y-087380D02*
G01X0142391Y-086120D01*
G01X0142391Y-086120D02*
G01X0141660Y-086120D01*
G01X0141660Y-087380D02*
G01X0141660Y-086120D01*
G01X0142391Y-087380D02*
G01X0141660Y-087380D01*
G01X0144540Y-086920D02*
G01X0144540Y-086580D01*
G01X0144540Y-086580D02*
G01X0143809Y-086580D01*
G01X0143809Y-086920D02*
G01X0143809Y-086580D01*
G01X0144540Y-086920D02*
G01X0143809Y-086920D01*
G01X0144540Y-087830D02*
G01X0144540Y-087490D01*
G01X0144540Y-087490D02*
G01X0143809Y-087490D01*
G01X0143809Y-087830D02*
G01X0143809Y-087490D01*
G01X0144540Y-087830D02*
G01X0143809Y-087830D01*
G01X0144540Y-086010D02*
G01X0144540Y-085670D01*
G01X0144540Y-085670D02*
G01X0143809Y-085670D01*
G01X0143809Y-086010D02*
G01X0143809Y-085670D01*
G01X0144540Y-086010D02*
G01X0143809Y-086010D01*
G01X0142391Y-087380D02*
G01X0142391Y-086120D01*
G01X0142391Y-086120D02*
G01X0141660Y-086120D01*
G01X0141660Y-087380D02*
G01X0141660Y-086120D01*
G01X0142391Y-087380D02*
G01X0141660Y-087380D01*
G01X0144540Y-086920D02*
G01X0144540Y-086580D01*
G01X0144540Y-086580D02*
G01X0143809Y-086580D01*
G01X0143809Y-086920D02*
G01X0143809Y-086580D01*
G01X0144540Y-086920D02*
G01X0143809Y-086920D01*
G01X0144540Y-087830D02*
G01X0144540Y-087490D01*
G01X0144540Y-087490D02*
G01X0143809Y-087490D01*
G01X0143809Y-087830D02*
G01X0143809Y-087490D01*
G01X0144540Y-087830D02*
G01X0143809Y-087830D01*
G01X0144540Y-086010D02*
G01X0144540Y-085670D01*
G01X0144540Y-085670D02*
G01X0143809Y-085670D01*
G01X0143809Y-086010D02*
G01X0143809Y-085670D01*
G01X0144540Y-086010D02*
G01X0143809Y-086010D01*
G54D24*
G01X0142400Y-085460D02*
G01X0143800Y-085460D01*
G01X0143800Y-085460D02*
G01X0143800Y-088040D01*
G01X0143800Y-088040D02*
G01X0142400Y-088040D01*
G01X0142400Y-088040D02*
G01X0142400Y-085460D01*
G54D25*
G01X0135857Y-092450D02*
G01X0136644Y-092450D01*
G01X0136250Y-092843D02*
G01X0136250Y-092056D01*
G01X0134282Y-088041D02*
G01X0135384Y-088041D01*
G01X0135778Y-088041D02*
G01X0138218Y-088041D01*
G01X0138218Y-088041D02*
G01X0138218Y-096859D01*
G01X0138218Y-096859D02*
G01X0135778Y-096859D01*
G01X0135384Y-096859D02*
G01X0134282Y-096859D01*
G01X0134282Y-096859D02*
G01X0134282Y-088041D01*
G54D22*
G01X0137990Y-096387D02*
G75*
G03X0137990Y-096387I-000166J0000000D01*
G54D25*
G01X0135778Y-096859D02*
G75*
G03X0135384Y-096859I-000197J0000000D01*
G01X0135384Y-088041D02*
G75*
G03X0135778Y-088041I0000197J0000000D01*
G54D21*
G01X0146072Y-095605D02*
G01X0146072Y-094053D01*
G01X0146072Y-094053D02*
G01X0146846Y-094053D01*
G01X0146846Y-094053D02*
G01X0146846Y-095605D01*
G01X0146846Y-095605D02*
G01X0146072Y-095605D01*
G01X0123296Y-087011D02*
G01X0121744Y-087011D01*
G01X0121744Y-087011D02*
G01X0121744Y-086237D01*
G01X0121744Y-086237D02*
G01X0123296Y-086237D01*
G01X0123296Y-086237D02*
G01X0123296Y-087011D01*
G54D24*
G01X0124110Y-092474D02*
G75*
G03X0124110Y-092474I-000070J0000000D01*
G54D19*
G01X0123940Y-093424D02*
G01X0124040Y-093424D01*
G01X0124040Y-093424D02*
G01X0124040Y-092524D01*
G01X0124040Y-092524D02*
G01X0123940Y-092524D01*
G01X0123940Y-093424D02*
G01X0123940Y-092524D01*
G01X0123940Y-092524D02*
G01X0123290Y-092524D01*
G01X0122590Y-093424D02*
G01X0121940Y-093424D01*
G01X0121940Y-093424D02*
G01X0121940Y-092524D01*
G01X0121940Y-092524D02*
G01X0122590Y-092524D01*
G01X0123290Y-093424D02*
G01X0123940Y-093424D01*
G54D24*
G01X0120420Y-089750D02*
G75*
G03X0120420Y-089750I-000070J0000000D01*
G54D19*
G01X0121300Y-089850D02*
G01X0121300Y-089750D01*
G01X0121300Y-089750D02*
G01X0120400Y-089750D01*
G01X0120400Y-089750D02*
G01X0120400Y-089850D01*
G01X0121300Y-089850D02*
G01X0120400Y-089850D01*
G01X0120400Y-089850D02*
G01X0120400Y-090500D01*
G01X0121300Y-091200D02*
G01X0121300Y-091850D01*
G01X0121300Y-091850D02*
G01X0120400Y-091850D01*
G01X0120400Y-091850D02*
G01X0120400Y-091200D01*
G01X0121300Y-090500D02*
G01X0121300Y-089850D01*
G54D24*
G01X0124095Y-094625D02*
G75*
G03X0124095Y-094625I-000070J0000000D01*
G54D19*
G01X0124975Y-094725D02*
G01X0124975Y-094625D01*
G01X0124975Y-094625D02*
G01X0124075Y-094625D01*
G01X0124075Y-094625D02*
G01X0124075Y-094725D01*
G01X0124975Y-094725D02*
G01X0124075Y-094725D01*
G01X0124075Y-094725D02*
G01X0124075Y-095375D01*
G01X0124975Y-096075D02*
G01X0124975Y-096725D01*
G01X0124975Y-096725D02*
G01X0124075Y-096725D01*
G01X0124075Y-096725D02*
G01X0124075Y-096075D01*
G01X0124975Y-095375D02*
G01X0124975Y-094725D01*
G54D24*
G01X0125515Y-094614D02*
G75*
G03X0125515Y-094614I-000070J0000000D01*
G54D19*
G01X0126394Y-094714D02*
G01X0126394Y-094614D01*
G01X0126394Y-094614D02*
G01X0125494Y-094614D01*
G01X0125494Y-094614D02*
G01X0125494Y-094714D01*
G01X0126394Y-094714D02*
G01X0125494Y-094714D01*
G01X0125494Y-094714D02*
G01X0125494Y-095364D01*
G01X0126394Y-096064D02*
G01X0126394Y-096714D01*
G01X0126394Y-096714D02*
G01X0125494Y-096714D01*
G01X0125494Y-096714D02*
G01X0125494Y-096064D01*
G01X0126394Y-095364D02*
G01X0126394Y-094714D01*
G54D24*
G01X0126985Y-094625D02*
G75*
G03X0126985Y-094625I-000070J0000000D01*
G54D19*
G01X0127864Y-094725D02*
G01X0127864Y-094625D01*
G01X0127864Y-094625D02*
G01X0126964Y-094625D01*
G01X0126964Y-094625D02*
G01X0126964Y-094725D01*
G01X0127864Y-094725D02*
G01X0126964Y-094725D01*
G01X0126964Y-094725D02*
G01X0126964Y-095375D01*
G01X0127864Y-096075D02*
G01X0127864Y-096725D01*
G01X0127864Y-096725D02*
G01X0126964Y-096725D01*
G01X0126964Y-096725D02*
G01X0126964Y-096075D01*
G01X0127864Y-095375D02*
G01X0127864Y-094725D01*
G54D26*
G01X0126100Y-100400D02*
G01X0129000Y-100400D01*
G01X0129000Y-100400D02*
G01X0129000Y-100800D01*
G01X0129000Y-100800D02*
G01X0129000Y-102050D01*
G01X0129000Y-102050D02*
G01X0129000Y-102200D01*
G01X0129000Y-102200D02*
G01X0126200Y-102200D01*
G01X0125550Y-102200D02*
G01X0126200Y-102200D01*
G54D27*
G01X0126100Y-102200D02*
G01X0119200Y-102200D01*
G01X0119200Y-100400D02*
G01X0126100Y-100400D01*
G54D20*
G01X0119200Y-102200D02*
G01X0119200Y-100400D01*
G54D26*
G01X0126100Y-104350D02*
G01X0129000Y-104350D01*
G01X0129000Y-104350D02*
G01X0129000Y-104750D01*
G01X0129000Y-104750D02*
G01X0129000Y-106000D01*
G01X0129000Y-106000D02*
G01X0129000Y-106150D01*
G01X0129000Y-106150D02*
G01X0126200Y-106150D01*
G01X0125550Y-106150D02*
G01X0126200Y-106150D01*
G54D27*
G01X0126100Y-106150D02*
G01X0119200Y-106150D01*
G01X0119200Y-104350D02*
G01X0126100Y-104350D01*
G54D20*
G01X0119200Y-106150D02*
G01X0119200Y-104350D01*
G54D17*
G01X0127859Y-093535D02*
G01X0127859Y-093456D01*
G01X0127859Y-093456D02*
G01X0127466Y-093456D01*
G01X0127466Y-093535D02*
G01X0127466Y-093456D01*
G01X0127859Y-093535D02*
G01X0127466Y-093535D01*
G01X0127859Y-093279D02*
G01X0127859Y-093200D01*
G01X0127859Y-093200D02*
G01X0127466Y-093200D01*
G01X0127466Y-093279D02*
G01X0127466Y-093200D01*
G01X0127859Y-093279D02*
G01X0127466Y-093279D01*
G01X0127859Y-093023D02*
G01X0127859Y-092944D01*
G01X0127859Y-092944D02*
G01X0127466Y-092944D01*
G01X0127466Y-093023D02*
G01X0127466Y-092944D01*
G01X0127859Y-093023D02*
G01X0127466Y-093023D01*
G01X0127859Y-092767D02*
G01X0127859Y-092688D01*
G01X0127859Y-092688D02*
G01X0127466Y-092688D01*
G01X0127466Y-092767D02*
G01X0127466Y-092688D01*
G01X0127859Y-092767D02*
G01X0127466Y-092767D01*
G01X0127859Y-092512D02*
G01X0127859Y-092433D01*
G01X0127859Y-092433D02*
G01X0127466Y-092433D01*
G01X0127466Y-092512D02*
G01X0127466Y-092433D01*
G01X0127859Y-092512D02*
G01X0127466Y-092512D01*
G01X0127859Y-092256D02*
G01X0127859Y-092177D01*
G01X0127859Y-092177D02*
G01X0127466Y-092177D01*
G01X0127466Y-092256D02*
G01X0127466Y-092177D01*
G01X0127859Y-092256D02*
G01X0127466Y-092256D01*
G01X0127859Y-092000D02*
G01X0127859Y-091921D01*
G01X0127859Y-091921D02*
G01X0127466Y-091921D01*
G01X0127466Y-092000D02*
G01X0127466Y-091921D01*
G01X0127859Y-092000D02*
G01X0127466Y-092000D01*
G01X0127859Y-091744D02*
G01X0127859Y-091665D01*
G01X0127859Y-091665D02*
G01X0127466Y-091665D01*
G01X0127466Y-091744D02*
G01X0127466Y-091665D01*
G01X0127859Y-091744D02*
G01X0127466Y-091744D01*
G01X0125734Y-091744D02*
G01X0125734Y-091665D01*
G01X0125734Y-091665D02*
G01X0125341Y-091665D01*
G01X0125341Y-091744D02*
G01X0125341Y-091665D01*
G01X0125734Y-091744D02*
G01X0125341Y-091744D01*
G01X0125734Y-092000D02*
G01X0125734Y-091921D01*
G01X0125734Y-091921D02*
G01X0125341Y-091921D01*
G01X0125341Y-092000D02*
G01X0125341Y-091921D01*
G01X0125734Y-092000D02*
G01X0125341Y-092000D01*
G01X0125734Y-092256D02*
G01X0125734Y-092177D01*
G01X0125734Y-092177D02*
G01X0125341Y-092177D01*
G01X0125341Y-092256D02*
G01X0125341Y-092177D01*
G01X0125734Y-092256D02*
G01X0125341Y-092256D01*
G01X0125734Y-092512D02*
G01X0125734Y-092433D01*
G01X0125734Y-092433D02*
G01X0125341Y-092433D01*
G01X0125341Y-092512D02*
G01X0125341Y-092433D01*
G01X0125734Y-092512D02*
G01X0125341Y-092512D01*
G01X0125734Y-092767D02*
G01X0125734Y-092688D01*
G01X0125734Y-092688D02*
G01X0125341Y-092688D01*
G01X0125341Y-092767D02*
G01X0125341Y-092688D01*
G01X0125734Y-092767D02*
G01X0125341Y-092767D01*
G01X0125734Y-093023D02*
G01X0125734Y-092944D01*
G01X0125734Y-092944D02*
G01X0125341Y-092944D01*
G01X0125341Y-093023D02*
G01X0125341Y-092944D01*
G01X0125734Y-093023D02*
G01X0125341Y-093023D01*
G01X0125734Y-093279D02*
G01X0125734Y-093200D01*
G01X0125734Y-093200D02*
G01X0125341Y-093200D01*
G01X0125341Y-093279D02*
G01X0125341Y-093200D01*
G01X0125734Y-093279D02*
G01X0125341Y-093279D01*
G01X0125734Y-093535D02*
G01X0125734Y-093456D01*
G01X0125734Y-093456D02*
G01X0125341Y-093456D01*
G01X0125341Y-093535D02*
G01X0125341Y-093456D01*
G01X0125734Y-093535D02*
G01X0125341Y-093535D01*
G54D23*
G01X0127360Y-093590D02*
G01X0125840Y-093590D01*
G01X0125761Y-093511D02*
G01X0125761Y-091689D01*
G01X0125840Y-091610D02*
G01X0127360Y-091610D01*
G01X0127439Y-091689D02*
G01X0127439Y-093511D01*
G54D28*
G01X0127207Y-093240D02*
G75*
G03X0127207Y-093240I-000127J0000000D01*
G54D23*
G01X0127360Y-093590D02*
G75*
G03X0127439Y-093511I0000000J0000079D01*
G01X0125761Y-093511D02*
G75*
G03X0125840Y-093590I0000079J0000000D01*
G01X0125840Y-091610D02*
G75*
G03X0125761Y-091689I0000000J-000079D01*
G01X0127439Y-091689D02*
G75*
G03X0127360Y-091610I-000079J0000000D01*
G54D24*
G01X0127070Y-088800D02*
G75*
G03X0127070Y-088800I-000070J0000000D01*
G54D19*
G01X0127950Y-088900D02*
G01X0127950Y-088800D01*
G01X0127950Y-088800D02*
G01X0127050Y-088800D01*
G01X0127050Y-088800D02*
G01X0127050Y-088900D01*
G01X0127950Y-088900D02*
G01X0127050Y-088900D01*
G01X0127050Y-088900D02*
G01X0127050Y-089550D01*
G01X0127950Y-090250D02*
G01X0127950Y-090900D01*
G01X0127950Y-090900D02*
G01X0127050Y-090900D01*
G01X0127050Y-090900D02*
G01X0127050Y-090250D01*
G01X0127950Y-089550D02*
G01X0127950Y-088900D01*
G54D21*
G01X0127787Y-088750D02*
G01X0127787Y-087198D01*
G01X0127787Y-087198D02*
G01X0128561Y-087198D01*
G01X0128561Y-087198D02*
G01X0128561Y-088750D01*
G01X0128561Y-088750D02*
G01X0127787Y-088750D01*
G01X0128913Y-088376D02*
G01X0128913Y-086824D01*
G01X0128913Y-086824D02*
G01X0129687Y-086824D01*
G01X0129687Y-086824D02*
G01X0129687Y-088376D01*
G01X0129687Y-088376D02*
G01X0128913Y-088376D01*
G54D17*
G01X0126923Y-088620D02*
G01X0126923Y-088541D01*
G01X0126923Y-088541D02*
G01X0126530Y-088541D01*
G01X0126530Y-088620D02*
G01X0126530Y-088541D01*
G01X0126923Y-088620D02*
G01X0126530Y-088620D01*
G01X0126923Y-088364D02*
G01X0126923Y-088285D01*
G01X0126923Y-088285D02*
G01X0126530Y-088285D01*
G01X0126530Y-088364D02*
G01X0126530Y-088285D01*
G01X0126923Y-088364D02*
G01X0126530Y-088364D01*
G01X0126923Y-088108D02*
G01X0126923Y-088029D01*
G01X0126923Y-088029D02*
G01X0126530Y-088029D01*
G01X0126530Y-088108D02*
G01X0126530Y-088029D01*
G01X0126923Y-088108D02*
G01X0126530Y-088108D01*
G01X0126923Y-087852D02*
G01X0126923Y-087773D01*
G01X0126923Y-087773D02*
G01X0126530Y-087773D01*
G01X0126530Y-087852D02*
G01X0126530Y-087773D01*
G01X0126923Y-087852D02*
G01X0126530Y-087852D01*
G01X0126923Y-087597D02*
G01X0126923Y-087518D01*
G01X0126923Y-087518D02*
G01X0126530Y-087518D01*
G01X0126530Y-087597D02*
G01X0126530Y-087518D01*
G01X0126923Y-087597D02*
G01X0126530Y-087597D01*
G01X0126923Y-087341D02*
G01X0126923Y-087262D01*
G01X0126923Y-087262D02*
G01X0126530Y-087262D01*
G01X0126530Y-087341D02*
G01X0126530Y-087262D01*
G01X0126923Y-087341D02*
G01X0126530Y-087341D01*
G01X0126923Y-087085D02*
G01X0126923Y-087006D01*
G01X0126923Y-087006D02*
G01X0126530Y-087006D01*
G01X0126530Y-087085D02*
G01X0126530Y-087006D01*
G01X0126923Y-087085D02*
G01X0126530Y-087085D01*
G01X0126923Y-086829D02*
G01X0126923Y-086750D01*
G01X0126923Y-086750D02*
G01X0126530Y-086750D01*
G01X0126530Y-086829D02*
G01X0126530Y-086750D01*
G01X0126923Y-086829D02*
G01X0126530Y-086829D01*
G01X0124798Y-086829D02*
G01X0124798Y-086750D01*
G01X0124798Y-086750D02*
G01X0124405Y-086750D01*
G01X0124405Y-086829D02*
G01X0124405Y-086750D01*
G01X0124798Y-086829D02*
G01X0124405Y-086829D01*
G01X0124798Y-087085D02*
G01X0124798Y-087006D01*
G01X0124798Y-087006D02*
G01X0124405Y-087006D01*
G01X0124405Y-087085D02*
G01X0124405Y-087006D01*
G01X0124798Y-087085D02*
G01X0124405Y-087085D01*
G01X0124798Y-087341D02*
G01X0124798Y-087262D01*
G01X0124798Y-087262D02*
G01X0124405Y-087262D01*
G01X0124405Y-087341D02*
G01X0124405Y-087262D01*
G01X0124798Y-087341D02*
G01X0124405Y-087341D01*
G01X0124798Y-087597D02*
G01X0124798Y-087518D01*
G01X0124798Y-087518D02*
G01X0124405Y-087518D01*
G01X0124405Y-087597D02*
G01X0124405Y-087518D01*
G01X0124798Y-087597D02*
G01X0124405Y-087597D01*
G01X0124798Y-087852D02*
G01X0124798Y-087773D01*
G01X0124798Y-087773D02*
G01X0124405Y-087773D01*
G01X0124405Y-087852D02*
G01X0124405Y-087773D01*
G01X0124798Y-087852D02*
G01X0124405Y-087852D01*
G01X0124798Y-088108D02*
G01X0124798Y-088029D01*
G01X0124798Y-088029D02*
G01X0124405Y-088029D01*
G01X0124405Y-088108D02*
G01X0124405Y-088029D01*
G01X0124798Y-088108D02*
G01X0124405Y-088108D01*
G01X0124798Y-088364D02*
G01X0124798Y-088285D01*
G01X0124798Y-088285D02*
G01X0124405Y-088285D01*
G01X0124405Y-088364D02*
G01X0124405Y-088285D01*
G01X0124798Y-088364D02*
G01X0124405Y-088364D01*
G01X0124798Y-088620D02*
G01X0124798Y-088541D01*
G01X0124798Y-088541D02*
G01X0124405Y-088541D01*
G01X0124405Y-088620D02*
G01X0124405Y-088541D01*
G01X0124798Y-088620D02*
G01X0124405Y-088620D01*
G54D23*
G01X0126424Y-088675D02*
G01X0124904Y-088675D01*
G01X0124825Y-088596D02*
G01X0124825Y-086774D01*
G01X0124904Y-086695D02*
G01X0126424Y-086695D01*
G01X0126503Y-086774D02*
G01X0126503Y-088596D01*
G54D28*
G01X0126272Y-088325D02*
G75*
G03X0126272Y-088325I-000127J0000000D01*
G54D23*
G01X0126424Y-088675D02*
G75*
G03X0126503Y-088596I0000000J0000079D01*
G01X0124825Y-088596D02*
G75*
G03X0124904Y-088675I0000079J0000000D01*
G01X0124904Y-086695D02*
G75*
G03X0124825Y-086774I0000000J-000079D01*
G01X0126503Y-086774D02*
G75*
G03X0126424Y-086695I-000079J0000000D01*
G54D24*
G01X0125270Y-086400D02*
G75*
G03X0125270Y-086400I-000070J0000000D01*
G54D19*
G01X0125300Y-085450D02*
G01X0125200Y-085450D01*
G01X0125200Y-085450D02*
G01X0125200Y-086350D01*
G01X0125200Y-086350D02*
G01X0125300Y-086350D01*
G01X0125300Y-085450D02*
G01X0125300Y-086350D01*
G01X0125300Y-086350D02*
G01X0125950Y-086350D01*
G01X0126650Y-085450D02*
G01X0127300Y-085450D01*
G01X0127300Y-085450D02*
G01X0127300Y-086350D01*
G01X0127300Y-086350D02*
G01X0126650Y-086350D01*
G01X0125950Y-085450D02*
G01X0125300Y-085450D01*
G54D24*
G01X0128670Y-090200D02*
G75*
G03X0128670Y-090200I-000070J0000000D01*
G54D19*
G01X0128700Y-089250D02*
G01X0128600Y-089250D01*
G01X0128600Y-089250D02*
G01X0128600Y-090150D01*
G01X0128600Y-090150D02*
G01X0128700Y-090150D01*
G01X0128700Y-089250D02*
G01X0128700Y-090150D01*
G01X0128700Y-090150D02*
G01X0129350Y-090150D01*
G01X0130050Y-089250D02*
G01X0130700Y-089250D01*
G01X0130700Y-089250D02*
G01X0130700Y-090150D01*
G01X0130700Y-090150D02*
G01X0130050Y-090150D01*
G01X0129350Y-089250D02*
G01X0128700Y-089250D01*
G54D24*
G01X0147190Y-092730D02*
G75*
G03X0147190Y-092730I-000070J0000000D01*
G54D19*
G01X0147020Y-093680D02*
G01X0147120Y-093680D01*
G01X0147120Y-093680D02*
G01X0147120Y-092780D01*
G01X0147120Y-092780D02*
G01X0147020Y-092780D01*
G01X0147020Y-093680D02*
G01X0147020Y-092780D01*
G01X0147020Y-092780D02*
G01X0146370Y-092780D01*
G01X0145670Y-093680D02*
G01X0145020Y-093680D01*
G01X0145020Y-093680D02*
G01X0145020Y-092780D01*
G01X0145020Y-092780D02*
G01X0145670Y-092780D01*
G01X0146370Y-093680D02*
G01X0147020Y-093680D01*
G54D24*
G01X0146510Y-087950D02*
G75*
G03X0146510Y-087950I-000070J0000000D01*
G54D19*
G01X0146540Y-087000D02*
G01X0146440Y-087000D01*
G01X0146440Y-087000D02*
G01X0146440Y-087900D01*
G01X0146440Y-087900D02*
G01X0146540Y-087900D01*
G01X0146540Y-087000D02*
G01X0146540Y-087900D01*
G01X0146540Y-087900D02*
G01X0147190Y-087900D01*
G01X0147890Y-087000D02*
G01X0148540Y-087000D01*
G01X0148540Y-087000D02*
G01X0148540Y-087900D01*
G01X0148540Y-087900D02*
G01X0147890Y-087900D01*
G01X0147190Y-087000D02*
G01X0146540Y-087000D01*
G54D21*
G01X0142654Y-099493D02*
G01X0144206Y-099493D01*
G01X0144206Y-099493D02*
G01X0144206Y-100267D01*
G01X0144206Y-100267D02*
G01X0142654Y-100267D01*
G01X0142654Y-100267D02*
G01X0142654Y-099493D01*
G54D17*
G01X0145060Y-102366D02*
G01X0145060Y-102173D01*
G01X0145060Y-102173D02*
G01X0144627Y-102173D01*
G01X0144627Y-102366D02*
G01X0144627Y-102173D01*
G01X0145060Y-102366D02*
G01X0144627Y-102366D01*
G01X0145060Y-101866D02*
G01X0145060Y-101673D01*
G01X0145060Y-101673D02*
G01X0144627Y-101673D01*
G01X0144627Y-101866D02*
G01X0144627Y-101673D01*
G01X0145060Y-101866D02*
G01X0144627Y-101866D01*
G01X0145060Y-101367D02*
G01X0145060Y-101174D01*
G01X0145060Y-101174D02*
G01X0144627Y-101174D01*
G01X0144627Y-101367D02*
G01X0144627Y-101174D01*
G01X0145060Y-101367D02*
G01X0144627Y-101367D01*
G01X0145060Y-100867D02*
G01X0145060Y-100674D01*
G01X0145060Y-100674D02*
G01X0144627Y-100674D01*
G01X0144627Y-100867D02*
G01X0144627Y-100674D01*
G01X0145060Y-100867D02*
G01X0144627Y-100867D01*
G01X0143053Y-100867D02*
G01X0143053Y-100674D01*
G01X0143053Y-100674D02*
G01X0142620Y-100674D01*
G01X0142620Y-100867D02*
G01X0142620Y-100674D01*
G01X0143053Y-100867D02*
G01X0142620Y-100867D01*
G01X0143053Y-101367D02*
G01X0143053Y-101174D01*
G01X0143053Y-101174D02*
G01X0142620Y-101174D01*
G01X0142620Y-101367D02*
G01X0142620Y-101174D01*
G01X0143053Y-101367D02*
G01X0142620Y-101367D01*
G01X0143053Y-101866D02*
G01X0143053Y-101673D01*
G01X0143053Y-101673D02*
G01X0142620Y-101673D01*
G01X0142620Y-101866D02*
G01X0142620Y-101673D01*
G01X0143053Y-101866D02*
G01X0142620Y-101866D01*
G01X0143053Y-102366D02*
G01X0143053Y-102173D01*
G01X0143053Y-102173D02*
G01X0142620Y-102173D01*
G01X0142620Y-102366D02*
G01X0142620Y-102173D01*
G01X0143053Y-102366D02*
G01X0142620Y-102366D01*
G54D24*
G01X0143092Y-100576D02*
G01X0144391Y-100576D01*
G01X0144391Y-100576D02*
G01X0144588Y-100576D01*
G01X0144588Y-100576D02*
G01X0144588Y-102464D01*
G01X0144588Y-102464D02*
G01X0144391Y-102464D01*
G01X0144391Y-102464D02*
G01X0143092Y-102464D01*
G01X0143092Y-102464D02*
G01X0143092Y-100576D01*
G01X0144391Y-100576D02*
G01X0144391Y-102464D01*
G54D20*
G01X0142000Y-112170D02*
G01X0142000Y-113170D01*
G01X0147000Y-113170D02*
G01X0147000Y-112170D01*
G01X0142000Y-112170D02*
G01X0147000Y-112170D01*
G01X0147000Y-113170D02*
G01X0142000Y-113170D01*
G54D19*
G01X0121550Y-088550D02*
G01X0121750Y-088350D01*
G01X0121750Y-088350D02*
G01X0121750Y-088550D01*
G01X0123150Y-089750D02*
G01X0123150Y-088550D01*
G01X0123150Y-088550D02*
G01X0121550Y-088550D01*
G01X0121550Y-088550D02*
G01X0121550Y-089750D01*
G01X0123150Y-090950D02*
G01X0123150Y-092150D01*
G01X0123150Y-092150D02*
G01X0121550Y-092150D01*
G01X0121550Y-092150D02*
G01X0121550Y-090950D01*
G54D20*
G01X0147040Y-106215D02*
G01X0147040Y-102215D01*
G01X0147040Y-102215D02*
G01X0149040Y-102215D01*
G01X0149040Y-102215D02*
G01X0149040Y-106215D01*
G01X0149040Y-106215D02*
G01X0147040Y-106215D01*
G54D19*
G01X0120850Y-088750D02*
G01X0120650Y-088950D01*
G01X0120650Y-088950D02*
G01X0120650Y-088750D01*
G01X0119250Y-087550D02*
G01X0119250Y-088750D01*
G01X0119250Y-088750D02*
G01X0120850Y-088750D01*
G01X0120850Y-088750D02*
G01X0120850Y-087550D01*
G01X0119250Y-086350D02*
G01X0119250Y-085150D01*
G01X0119250Y-085150D02*
G01X0120850Y-085150D01*
G01X0120850Y-085150D02*
G01X0120850Y-086350D01*
G54D23*
G01X0118450Y-089900D02*
G01X0119450Y-089900D01*
G01X0119450Y-089900D02*
G01X0119450Y-092900D01*
G01X0119450Y-092900D02*
G01X0118450Y-092900D01*
G01X0118450Y-092900D02*
G01X0118450Y-089900D01*
G01X0119450Y-090900D02*
G01X0118450Y-090900D01*
G54D24*
G01X0123586Y-108507D02*
G01X0123643Y-108526D01*
G01X0123643Y-108526D02*
G01X0123739Y-108526D01*
G01X0123739Y-108526D02*
G01X0123777Y-108507D01*
G01X0123777Y-108507D02*
G01X0123796Y-108488D01*
G01X0123796Y-108488D02*
G01X0123815Y-108450D01*
G01X0123815Y-108450D02*
G01X0123815Y-108412D01*
G01X0123815Y-108412D02*
G01X0123796Y-108374D01*
G01X0123796Y-108374D02*
G01X0123777Y-108355D01*
G01X0123777Y-108355D02*
G01X0123739Y-108336D01*
G01X0123739Y-108336D02*
G01X0123662Y-108317D01*
G01X0123662Y-108317D02*
G01X0123624Y-108298D01*
G01X0123624Y-108298D02*
G01X0123605Y-108279D01*
G01X0123605Y-108279D02*
G01X0123586Y-108241D01*
G01X0123586Y-108241D02*
G01X0123586Y-108203D01*
G01X0123586Y-108203D02*
G01X0123605Y-108164D01*
G01X0123605Y-108164D02*
G01X0123624Y-108145D01*
G01X0123624Y-108145D02*
G01X0123662Y-108126D01*
G01X0123662Y-108126D02*
G01X0123758Y-108126D01*
G01X0123758Y-108126D02*
G01X0123815Y-108145D01*
G01X0123948Y-108126D02*
G01X0124043Y-108526D01*
G01X0124043Y-108526D02*
G01X0124120Y-108241D01*
G01X0124120Y-108241D02*
G01X0124196Y-108526D01*
G01X0124196Y-108526D02*
G01X0124291Y-108126D01*
G01X0124424Y-108164D02*
G01X0124443Y-108145D01*
G01X0124443Y-108145D02*
G01X0124481Y-108126D01*
G01X0124481Y-108126D02*
G01X0124577Y-108126D01*
G01X0124577Y-108126D02*
G01X0124615Y-108145D01*
G01X0124615Y-108145D02*
G01X0124634Y-108164D01*
G01X0124634Y-108164D02*
G01X0124653Y-108203D01*
G01X0124653Y-108203D02*
G01X0124653Y-108241D01*
G01X0124653Y-108241D02*
G01X0124634Y-108298D01*
G01X0124634Y-108298D02*
G01X0124405Y-108526D01*
G01X0124405Y-108526D02*
G01X0124653Y-108526D01*
G01X0123053Y-107826D02*
G01X0123053Y-107426D01*
G01X0123053Y-107426D02*
G01X0123205Y-107426D01*
G01X0123205Y-107426D02*
G01X0123243Y-107445D01*
G01X0123243Y-107445D02*
G01X0123262Y-107464D01*
G01X0123262Y-107464D02*
G01X0123281Y-107503D01*
G01X0123281Y-107503D02*
G01X0123281Y-107560D01*
G01X0123281Y-107560D02*
G01X0123262Y-107598D01*
G01X0123262Y-107598D02*
G01X0123243Y-107617D01*
G01X0123243Y-107617D02*
G01X0123205Y-107636D01*
G01X0123205Y-107636D02*
G01X0123053Y-107636D01*
G01X0123681Y-107826D02*
G01X0123548Y-107636D01*
G01X0123453Y-107826D02*
G01X0123453Y-107426D01*
G01X0123453Y-107426D02*
G01X0123605Y-107426D01*
G01X0123605Y-107426D02*
G01X0123643Y-107445D01*
G01X0123643Y-107445D02*
G01X0123662Y-107464D01*
G01X0123662Y-107464D02*
G01X0123681Y-107503D01*
G01X0123681Y-107503D02*
G01X0123681Y-107560D01*
G01X0123681Y-107560D02*
G01X0123662Y-107598D01*
G01X0123662Y-107598D02*
G01X0123643Y-107617D01*
G01X0123643Y-107617D02*
G01X0123605Y-107636D01*
G01X0123605Y-107636D02*
G01X0123453Y-107636D01*
G01X0123929Y-107426D02*
G01X0124005Y-107426D01*
G01X0124005Y-107426D02*
G01X0124043Y-107445D01*
G01X0124043Y-107445D02*
G01X0124081Y-107484D01*
G01X0124081Y-107484D02*
G01X0124101Y-107560D01*
G01X0124101Y-107560D02*
G01X0124101Y-107693D01*
G01X0124101Y-107693D02*
G01X0124081Y-107769D01*
G01X0124081Y-107769D02*
G01X0124043Y-107807D01*
G01X0124043Y-107807D02*
G01X0124005Y-107826D01*
G01X0124005Y-107826D02*
G01X0123929Y-107826D01*
G01X0123929Y-107826D02*
G01X0123891Y-107807D01*
G01X0123891Y-107807D02*
G01X0123853Y-107769D01*
G01X0123853Y-107769D02*
G01X0123834Y-107693D01*
G01X0123834Y-107693D02*
G01X0123834Y-107560D01*
G01X0123834Y-107560D02*
G01X0123853Y-107484D01*
G01X0123853Y-107484D02*
G01X0123891Y-107445D01*
G01X0123891Y-107445D02*
G01X0123929Y-107426D01*
G01X0124481Y-107445D02*
G01X0124443Y-107426D01*
G01X0124443Y-107426D02*
G01X0124386Y-107426D01*
G01X0124386Y-107426D02*
G01X0124329Y-107445D01*
G01X0124329Y-107445D02*
G01X0124291Y-107484D01*
G01X0124291Y-107484D02*
G01X0124272Y-107522D01*
G01X0124272Y-107522D02*
G01X0124253Y-107598D01*
G01X0124253Y-107598D02*
G01X0124253Y-107655D01*
G01X0124253Y-107655D02*
G01X0124272Y-107731D01*
G01X0124272Y-107731D02*
G01X0124291Y-107769D01*
G01X0124291Y-107769D02*
G01X0124329Y-107807D01*
G01X0124329Y-107807D02*
G01X0124386Y-107826D01*
G01X0124386Y-107826D02*
G01X0124424Y-107826D01*
G01X0124424Y-107826D02*
G01X0124481Y-107807D01*
G01X0124481Y-107807D02*
G01X0124501Y-107788D01*
G01X0124501Y-107788D02*
G01X0124501Y-107655D01*
G01X0124501Y-107655D02*
G01X0124424Y-107655D01*
G01X0124577Y-107864D02*
G01X0124881Y-107864D01*
G01X0125110Y-107617D02*
G01X0125167Y-107636D01*
G01X0125167Y-107636D02*
G01X0125186Y-107655D01*
G01X0125186Y-107655D02*
G01X0125205Y-107693D01*
G01X0125205Y-107693D02*
G01X0125205Y-107750D01*
G01X0125205Y-107750D02*
G01X0125186Y-107788D01*
G01X0125186Y-107788D02*
G01X0125167Y-107807D01*
G01X0125167Y-107807D02*
G01X0125129Y-107826D01*
G01X0125129Y-107826D02*
G01X0124977Y-107826D01*
G01X0124977Y-107826D02*
G01X0124977Y-107426D01*
G01X0124977Y-107426D02*
G01X0125110Y-107426D01*
G01X0125110Y-107426D02*
G01X0125148Y-107445D01*
G01X0125148Y-107445D02*
G01X0125167Y-107464D01*
G01X0125167Y-107464D02*
G01X0125186Y-107503D01*
G01X0125186Y-107503D02*
G01X0125186Y-107541D01*
G01X0125186Y-107541D02*
G01X0125167Y-107579D01*
G01X0125167Y-107579D02*
G01X0125148Y-107598D01*
G01X0125148Y-107598D02*
G01X0125110Y-107617D01*
G01X0125110Y-107617D02*
G01X0124977Y-107617D01*
G54D13*
G01X0143302Y-111471D02*
G01X0143064Y-111638D01*
G01X0143302Y-111757D02*
G01X0142802Y-111757D01*
G01X0142802Y-111757D02*
G01X0142802Y-111566D01*
G01X0142802Y-111566D02*
G01X0142826Y-111519D01*
G01X0142826Y-111519D02*
G01X0142850Y-111495D01*
G01X0142850Y-111495D02*
G01X0142897Y-111471D01*
G01X0142897Y-111471D02*
G01X0142969Y-111471D01*
G01X0142969Y-111471D02*
G01X0143016Y-111495D01*
G01X0143016Y-111495D02*
G01X0143040Y-111519D01*
G01X0143040Y-111519D02*
G01X0143064Y-111566D01*
G01X0143064Y-111566D02*
G01X0143064Y-111757D01*
G01X0143302Y-110995D02*
G01X0143302Y-111280D01*
G01X0143302Y-111138D02*
G01X0142802Y-111138D01*
G01X0142802Y-111138D02*
G01X0142873Y-111185D01*
G01X0142873Y-111185D02*
G01X0142921Y-111233D01*
G01X0142921Y-111233D02*
G01X0142945Y-111280D01*
G01X0143302Y-110757D02*
G01X0143302Y-110661D01*
G01X0143302Y-110661D02*
G01X0143278Y-110614D01*
G01X0143278Y-110614D02*
G01X0143254Y-110590D01*
G01X0143254Y-110590D02*
G01X0143183Y-110542D01*
G01X0143183Y-110542D02*
G01X0143088Y-110519D01*
G01X0143088Y-110519D02*
G01X0142897Y-110519D01*
G01X0142897Y-110519D02*
G01X0142850Y-110542D01*
G01X0142850Y-110542D02*
G01X0142826Y-110566D01*
G01X0142826Y-110566D02*
G01X0142802Y-110614D01*
G01X0142802Y-110614D02*
G01X0142802Y-110709D01*
G01X0142802Y-110709D02*
G01X0142826Y-110757D01*
G01X0142826Y-110757D02*
G01X0142850Y-110780D01*
G01X0142850Y-110780D02*
G01X0142897Y-110804D01*
G01X0142897Y-110804D02*
G01X0143016Y-110804D01*
G01X0143016Y-110804D02*
G01X0143064Y-110780D01*
G01X0143064Y-110780D02*
G01X0143088Y-110757D01*
G01X0143088Y-110757D02*
G01X0143111Y-110709D01*
G01X0143111Y-110709D02*
G01X0143111Y-110614D01*
G01X0143111Y-110614D02*
G01X0143088Y-110566D01*
G01X0143088Y-110566D02*
G01X0143064Y-110542D01*
G01X0143064Y-110542D02*
G01X0143016Y-110519D01*
G01X0138328Y-111052D02*
G01X0138161Y-110814D01*
G01X0138042Y-111052D02*
G01X0138042Y-110552D01*
G01X0138042Y-110552D02*
G01X0138233Y-110552D01*
G01X0138233Y-110552D02*
G01X0138280Y-110576D01*
G01X0138280Y-110576D02*
G01X0138304Y-110600D01*
G01X0138304Y-110600D02*
G01X0138328Y-110647D01*
G01X0138328Y-110647D02*
G01X0138328Y-110719D01*
G01X0138328Y-110719D02*
G01X0138304Y-110766D01*
G01X0138304Y-110766D02*
G01X0138280Y-110790D01*
G01X0138280Y-110790D02*
G01X0138233Y-110814D01*
G01X0138233Y-110814D02*
G01X0138042Y-110814D01*
G01X0138519Y-110600D02*
G01X0138542Y-110576D01*
G01X0138542Y-110576D02*
G01X0138590Y-110552D01*
G01X0138590Y-110552D02*
G01X0138709Y-110552D01*
G01X0138709Y-110552D02*
G01X0138757Y-110576D01*
G01X0138757Y-110576D02*
G01X0138780Y-110600D01*
G01X0138780Y-110600D02*
G01X0138804Y-110647D01*
G01X0138804Y-110647D02*
G01X0138804Y-110695D01*
G01X0138804Y-110695D02*
G01X0138780Y-110766D01*
G01X0138780Y-110766D02*
G01X0138495Y-111052D01*
G01X0138495Y-111052D02*
G01X0138804Y-111052D01*
G01X0139114Y-110552D02*
G01X0139161Y-110552D01*
G01X0139161Y-110552D02*
G01X0139209Y-110576D01*
G01X0139209Y-110576D02*
G01X0139233Y-110600D01*
G01X0139233Y-110600D02*
G01X0139257Y-110647D01*
G01X0139257Y-110647D02*
G01X0139280Y-110742D01*
G01X0139280Y-110742D02*
G01X0139280Y-110861D01*
G01X0139280Y-110861D02*
G01X0139257Y-110957D01*
G01X0139257Y-110957D02*
G01X0139233Y-111004D01*
G01X0139233Y-111004D02*
G01X0139209Y-111028D01*
G01X0139209Y-111028D02*
G01X0139161Y-111052D01*
G01X0139161Y-111052D02*
G01X0139114Y-111052D01*
G01X0139114Y-111052D02*
G01X0139066Y-111028D01*
G01X0139066Y-111028D02*
G01X0139042Y-111004D01*
G01X0139042Y-111004D02*
G01X0139019Y-110957D01*
G01X0139019Y-110957D02*
G01X0138995Y-110861D01*
G01X0138995Y-110861D02*
G01X0138995Y-110742D01*
G01X0138995Y-110742D02*
G01X0139019Y-110647D01*
G01X0139019Y-110647D02*
G01X0139042Y-110600D01*
G01X0139042Y-110600D02*
G01X0139066Y-110576D01*
G01X0139066Y-110576D02*
G01X0139114Y-110552D01*
G54D21*
G01X0123348Y-086229D02*
G01X0123348Y-086032D01*
G01X0123460Y-086229D02*
G01X0123376Y-086117D01*
G01X0123460Y-086032D02*
G01X0123348Y-086145D01*
G54D19*
G01X0121621Y-112971D02*
G01X0121321Y-112971D01*
G01X0121321Y-112971D02*
G01X0121321Y-112900D01*
G01X0121321Y-112900D02*
G01X0121335Y-112857D01*
G01X0121335Y-112857D02*
G01X0121364Y-112828D01*
G01X0121364Y-112828D02*
G01X0121392Y-112814D01*
G01X0121392Y-112814D02*
G01X0121450Y-112800D01*
G01X0121450Y-112800D02*
G01X0121492Y-112800D01*
G01X0121492Y-112800D02*
G01X0121550Y-112814D01*
G01X0121550Y-112814D02*
G01X0121578Y-112828D01*
G01X0121578Y-112828D02*
G01X0121607Y-112857D01*
G01X0121607Y-112857D02*
G01X0121621Y-112900D01*
G01X0121621Y-112900D02*
G01X0121621Y-112971D01*
G01X0121321Y-112542D02*
G01X0121321Y-112600D01*
G01X0121321Y-112600D02*
G01X0121335Y-112628D01*
G01X0121335Y-112628D02*
G01X0121350Y-112642D01*
G01X0121350Y-112642D02*
G01X0121392Y-112671D01*
G01X0121392Y-112671D02*
G01X0121450Y-112685D01*
G01X0121450Y-112685D02*
G01X0121564Y-112685D01*
G01X0121564Y-112685D02*
G01X0121592Y-112671D01*
G01X0121592Y-112671D02*
G01X0121607Y-112657D01*
G01X0121607Y-112657D02*
G01X0121621Y-112628D01*
G01X0121621Y-112628D02*
G01X0121621Y-112571D01*
G01X0121621Y-112571D02*
G01X0121607Y-112542D01*
G01X0121607Y-112542D02*
G01X0121592Y-112528D01*
G01X0121592Y-112528D02*
G01X0121564Y-112514D01*
G01X0121564Y-112514D02*
G01X0121492Y-112514D01*
G01X0121492Y-112514D02*
G01X0121464Y-112528D01*
G01X0121464Y-112528D02*
G01X0121450Y-112542D01*
G01X0121450Y-112542D02*
G01X0121435Y-112571D01*
G01X0121435Y-112571D02*
G01X0121435Y-112628D01*
G01X0121435Y-112628D02*
G01X0121450Y-112657D01*
G01X0121450Y-112657D02*
G01X0121464Y-112671D01*
G01X0121464Y-112671D02*
G01X0121492Y-112685D01*
G54D21*
G01X0121529Y-112401D02*
G01X0121332Y-112401D01*
G01X0121529Y-112289D02*
G01X0121417Y-112373D01*
G01X0121332Y-112289D02*
G01X0121445Y-112401D01*
G54D19*
G01X0120571Y-112971D02*
G01X0120271Y-112971D01*
G01X0120271Y-112971D02*
G01X0120271Y-112900D01*
G01X0120271Y-112900D02*
G01X0120285Y-112857D01*
G01X0120285Y-112857D02*
G01X0120314Y-112828D01*
G01X0120314Y-112828D02*
G01X0120342Y-112814D01*
G01X0120342Y-112814D02*
G01X0120400Y-112800D01*
G01X0120400Y-112800D02*
G01X0120442Y-112800D01*
G01X0120442Y-112800D02*
G01X0120500Y-112814D01*
G01X0120500Y-112814D02*
G01X0120528Y-112828D01*
G01X0120528Y-112828D02*
G01X0120557Y-112857D01*
G01X0120557Y-112857D02*
G01X0120571Y-112900D01*
G01X0120571Y-112900D02*
G01X0120571Y-112971D01*
G01X0120271Y-112528D02*
G01X0120271Y-112671D01*
G01X0120271Y-112671D02*
G01X0120414Y-112685D01*
G01X0120414Y-112685D02*
G01X0120400Y-112671D01*
G01X0120400Y-112671D02*
G01X0120385Y-112642D01*
G01X0120385Y-112642D02*
G01X0120385Y-112571D01*
G01X0120385Y-112571D02*
G01X0120400Y-112542D01*
G01X0120400Y-112542D02*
G01X0120414Y-112528D01*
G01X0120414Y-112528D02*
G01X0120442Y-112514D01*
G01X0120442Y-112514D02*
G01X0120514Y-112514D01*
G01X0120514Y-112514D02*
G01X0120542Y-112528D01*
G01X0120542Y-112528D02*
G01X0120557Y-112542D01*
G01X0120557Y-112542D02*
G01X0120571Y-112571D01*
G01X0120571Y-112571D02*
G01X0120571Y-112642D01*
G01X0120571Y-112642D02*
G01X0120557Y-112671D01*
G01X0120557Y-112671D02*
G01X0120542Y-112685D01*
G54D21*
G01X0120479Y-112401D02*
G01X0120282Y-112401D01*
G01X0120479Y-112289D02*
G01X0120367Y-112373D01*
G01X0120282Y-112289D02*
G01X0120395Y-112401D01*
G01X0141574Y-110511D02*
G01X0141377Y-110511D01*
G01X0141574Y-110398D02*
G01X0141462Y-110483D01*
G01X0141377Y-110398D02*
G01X0141490Y-110511D01*
G54D19*
G01X0122771Y-112971D02*
G01X0122471Y-112971D01*
G01X0122471Y-112971D02*
G01X0122471Y-112900D01*
G01X0122471Y-112900D02*
G01X0122485Y-112857D01*
G01X0122485Y-112857D02*
G01X0122514Y-112828D01*
G01X0122514Y-112828D02*
G01X0122542Y-112814D01*
G01X0122542Y-112814D02*
G01X0122600Y-112800D01*
G01X0122600Y-112800D02*
G01X0122642Y-112800D01*
G01X0122642Y-112800D02*
G01X0122700Y-112814D01*
G01X0122700Y-112814D02*
G01X0122728Y-112828D01*
G01X0122728Y-112828D02*
G01X0122757Y-112857D01*
G01X0122757Y-112857D02*
G01X0122771Y-112900D01*
G01X0122771Y-112900D02*
G01X0122771Y-112971D01*
G01X0122771Y-112514D02*
G01X0122771Y-112685D01*
G01X0122771Y-112600D02*
G01X0122471Y-112600D01*
G01X0122471Y-112600D02*
G01X0122514Y-112628D01*
G01X0122514Y-112628D02*
G01X0122542Y-112657D01*
G01X0122542Y-112657D02*
G01X0122557Y-112685D01*
G54D21*
G01X0122629Y-112401D02*
G01X0122432Y-112401D01*
G01X0122629Y-112289D02*
G01X0122517Y-112373D01*
G01X0122432Y-112289D02*
G01X0122545Y-112401D01*
G54D19*
G01X0123871Y-112971D02*
G01X0123571Y-112971D01*
G01X0123571Y-112971D02*
G01X0123571Y-112900D01*
G01X0123571Y-112900D02*
G01X0123585Y-112857D01*
G01X0123585Y-112857D02*
G01X0123614Y-112828D01*
G01X0123614Y-112828D02*
G01X0123642Y-112814D01*
G01X0123642Y-112814D02*
G01X0123700Y-112800D01*
G01X0123700Y-112800D02*
G01X0123742Y-112800D01*
G01X0123742Y-112800D02*
G01X0123800Y-112814D01*
G01X0123800Y-112814D02*
G01X0123828Y-112828D01*
G01X0123828Y-112828D02*
G01X0123857Y-112857D01*
G01X0123857Y-112857D02*
G01X0123871Y-112900D01*
G01X0123871Y-112900D02*
G01X0123871Y-112971D01*
G01X0123571Y-112700D02*
G01X0123571Y-112500D01*
G01X0123571Y-112500D02*
G01X0123871Y-112628D01*
G54D21*
G01X0123729Y-112401D02*
G01X0123532Y-112401D01*
G01X0123729Y-112289D02*
G01X0123617Y-112373D01*
G01X0123532Y-112289D02*
G01X0123645Y-112401D01*
G54D13*
G01X0139250Y-111997D02*
G01X0139226Y-112045D01*
G01X0139226Y-112045D02*
G01X0139178Y-112092D01*
G01X0139178Y-112092D02*
G01X0139107Y-112164D01*
G01X0139107Y-112164D02*
G01X0139083Y-112211D01*
G01X0139083Y-112211D02*
G01X0139083Y-112259D01*
G01X0139202Y-112235D02*
G01X0139178Y-112283D01*
G01X0139178Y-112283D02*
G01X0139130Y-112330D01*
G01X0139130Y-112330D02*
G01X0139035Y-112354D01*
G01X0139035Y-112354D02*
G01X0138869Y-112354D01*
G01X0138869Y-112354D02*
G01X0138773Y-112330D01*
G01X0138773Y-112330D02*
G01X0138726Y-112283D01*
G01X0138726Y-112283D02*
G01X0138702Y-112235D01*
G01X0138702Y-112235D02*
G01X0138702Y-112140D01*
G01X0138702Y-112140D02*
G01X0138726Y-112092D01*
G01X0138726Y-112092D02*
G01X0138773Y-112045D01*
G01X0138773Y-112045D02*
G01X0138869Y-112021D01*
G01X0138869Y-112021D02*
G01X0139035Y-112021D01*
G01X0139035Y-112021D02*
G01X0139130Y-112045D01*
G01X0139130Y-112045D02*
G01X0139178Y-112092D01*
G01X0139178Y-112092D02*
G01X0139202Y-112140D01*
G01X0139202Y-112140D02*
G01X0139202Y-112235D01*
G01X0138702Y-111569D02*
G01X0138702Y-111807D01*
G01X0138702Y-111807D02*
G01X0138940Y-111830D01*
G01X0138940Y-111830D02*
G01X0138916Y-111807D01*
G01X0138916Y-111807D02*
G01X0138892Y-111759D01*
G01X0138892Y-111759D02*
G01X0138892Y-111640D01*
G01X0138892Y-111640D02*
G01X0138916Y-111592D01*
G01X0138916Y-111592D02*
G01X0138940Y-111569D01*
G01X0138940Y-111569D02*
G01X0138988Y-111545D01*
G01X0138988Y-111545D02*
G01X0139107Y-111545D01*
G01X0139107Y-111545D02*
G01X0139154Y-111569D01*
G01X0139154Y-111569D02*
G01X0139178Y-111592D01*
G01X0139178Y-111592D02*
G01X0139202Y-111640D01*
G01X0139202Y-111640D02*
G01X0139202Y-111759D01*
G01X0139202Y-111759D02*
G01X0139178Y-111807D01*
G01X0139178Y-111807D02*
G01X0139154Y-111830D01*
G01X0130102Y-092933D02*
G01X0129864Y-093100D01*
G01X0130102Y-093219D02*
G01X0129602Y-093219D01*
G01X0129602Y-093219D02*
G01X0129602Y-093028D01*
G01X0129602Y-093028D02*
G01X0129626Y-092980D01*
G01X0129626Y-092980D02*
G01X0129650Y-092957D01*
G01X0129650Y-092957D02*
G01X0129697Y-092933D01*
G01X0129697Y-092933D02*
G01X0129769Y-092933D01*
G01X0129769Y-092933D02*
G01X0129816Y-092957D01*
G01X0129816Y-092957D02*
G01X0129840Y-092980D01*
G01X0129840Y-092980D02*
G01X0129864Y-093028D01*
G01X0129864Y-093028D02*
G01X0129864Y-093219D01*
G01X0130102Y-092457D02*
G01X0130102Y-092742D01*
G01X0130102Y-092600D02*
G01X0129602Y-092600D01*
G01X0129602Y-092600D02*
G01X0129673Y-092647D01*
G01X0129673Y-092647D02*
G01X0129721Y-092695D01*
G01X0129721Y-092695D02*
G01X0129745Y-092742D01*
G01X0129652Y-095733D02*
G01X0129414Y-095900D01*
G01X0129652Y-096019D02*
G01X0129152Y-096019D01*
G01X0129152Y-096019D02*
G01X0129152Y-095828D01*
G01X0129152Y-095828D02*
G01X0129176Y-095780D01*
G01X0129176Y-095780D02*
G01X0129200Y-095757D01*
G01X0129200Y-095757D02*
G01X0129247Y-095733D01*
G01X0129247Y-095733D02*
G01X0129319Y-095733D01*
G01X0129319Y-095733D02*
G01X0129366Y-095757D01*
G01X0129366Y-095757D02*
G01X0129390Y-095780D01*
G01X0129390Y-095780D02*
G01X0129414Y-095828D01*
G01X0129414Y-095828D02*
G01X0129414Y-096019D01*
G01X0129200Y-095542D02*
G01X0129176Y-095519D01*
G01X0129176Y-095519D02*
G01X0129152Y-095471D01*
G01X0129152Y-095471D02*
G01X0129152Y-095352D01*
G01X0129152Y-095352D02*
G01X0129176Y-095304D01*
G01X0129176Y-095304D02*
G01X0129200Y-095280D01*
G01X0129200Y-095280D02*
G01X0129247Y-095257D01*
G01X0129247Y-095257D02*
G01X0129295Y-095257D01*
G01X0129295Y-095257D02*
G01X0129366Y-095280D01*
G01X0129366Y-095280D02*
G01X0129652Y-095566D01*
G01X0129652Y-095566D02*
G01X0129652Y-095257D01*
G01X0126752Y-090383D02*
G01X0126514Y-090550D01*
G01X0126752Y-090669D02*
G01X0126252Y-090669D01*
G01X0126252Y-090669D02*
G01X0126252Y-090478D01*
G01X0126252Y-090478D02*
G01X0126276Y-090430D01*
G01X0126276Y-090430D02*
G01X0126300Y-090407D01*
G01X0126300Y-090407D02*
G01X0126347Y-090383D01*
G01X0126347Y-090383D02*
G01X0126419Y-090383D01*
G01X0126419Y-090383D02*
G01X0126466Y-090407D01*
G01X0126466Y-090407D02*
G01X0126490Y-090430D01*
G01X0126490Y-090430D02*
G01X0126514Y-090478D01*
G01X0126514Y-090478D02*
G01X0126514Y-090669D01*
G01X0126252Y-090216D02*
G01X0126252Y-089907D01*
G01X0126252Y-089907D02*
G01X0126442Y-090073D01*
G01X0126442Y-090073D02*
G01X0126442Y-090002D01*
G01X0126442Y-090002D02*
G01X0126466Y-089954D01*
G01X0126466Y-089954D02*
G01X0126490Y-089930D01*
G01X0126490Y-089930D02*
G01X0126538Y-089907D01*
G01X0126538Y-089907D02*
G01X0126657Y-089907D01*
G01X0126657Y-089907D02*
G01X0126704Y-089930D01*
G01X0126704Y-089930D02*
G01X0126728Y-089954D01*
G01X0126728Y-089954D02*
G01X0126752Y-090002D01*
G01X0126752Y-090002D02*
G01X0126752Y-090145D01*
G01X0126752Y-090145D02*
G01X0126728Y-090192D01*
G01X0126728Y-090192D02*
G01X0126704Y-090216D01*
G01X0130102Y-091283D02*
G01X0129864Y-091450D01*
G01X0130102Y-091569D02*
G01X0129602Y-091569D01*
G01X0129602Y-091569D02*
G01X0129602Y-091378D01*
G01X0129602Y-091378D02*
G01X0129626Y-091330D01*
G01X0129626Y-091330D02*
G01X0129650Y-091307D01*
G01X0129650Y-091307D02*
G01X0129697Y-091283D01*
G01X0129697Y-091283D02*
G01X0129769Y-091283D01*
G01X0129769Y-091283D02*
G01X0129816Y-091307D01*
G01X0129816Y-091307D02*
G01X0129840Y-091330D01*
G01X0129840Y-091330D02*
G01X0129864Y-091378D01*
G01X0129864Y-091378D02*
G01X0129864Y-091569D01*
G01X0129769Y-090854D02*
G01X0130102Y-090854D01*
G01X0129578Y-090973D02*
G01X0129935Y-091092D01*
G01X0129935Y-091092D02*
G01X0129935Y-090783D01*
G54D24*
G01X0120966Y-096442D02*
G01X0121023Y-096461D01*
G01X0121023Y-096461D02*
G01X0121119Y-096461D01*
G01X0121119Y-096461D02*
G01X0121157Y-096442D01*
G01X0121157Y-096442D02*
G01X0121176Y-096423D01*
G01X0121176Y-096423D02*
G01X0121195Y-096385D01*
G01X0121195Y-096385D02*
G01X0121195Y-096347D01*
G01X0121195Y-096347D02*
G01X0121176Y-096309D01*
G01X0121176Y-096309D02*
G01X0121157Y-096290D01*
G01X0121157Y-096290D02*
G01X0121119Y-096271D01*
G01X0121119Y-096271D02*
G01X0121042Y-096252D01*
G01X0121042Y-096252D02*
G01X0121004Y-096233D01*
G01X0121004Y-096233D02*
G01X0120985Y-096214D01*
G01X0120985Y-096214D02*
G01X0120966Y-096176D01*
G01X0120966Y-096176D02*
G01X0120966Y-096138D01*
G01X0120966Y-096138D02*
G01X0120985Y-096100D01*
G01X0120985Y-096100D02*
G01X0121004Y-096080D01*
G01X0121004Y-096080D02*
G01X0121042Y-096061D01*
G01X0121042Y-096061D02*
G01X0121138Y-096061D01*
G01X0121138Y-096061D02*
G01X0121195Y-096080D01*
G01X0121328Y-096061D02*
G01X0121423Y-096461D01*
G01X0121423Y-096461D02*
G01X0121500Y-096176D01*
G01X0121500Y-096176D02*
G01X0121576Y-096461D01*
G01X0121576Y-096461D02*
G01X0121671Y-096061D01*
G01X0121995Y-096195D02*
G01X0121995Y-096461D01*
G01X0121900Y-096042D02*
G01X0121804Y-096328D01*
G01X0121804Y-096328D02*
G01X0122052Y-096328D01*
G01X0119791Y-107887D02*
G01X0119849Y-107906D01*
G01X0119849Y-107906D02*
G01X0119944Y-107906D01*
G01X0119944Y-107906D02*
G01X0119982Y-107887D01*
G01X0119982Y-107887D02*
G01X0120001Y-107868D01*
G01X0120001Y-107868D02*
G01X0120020Y-107830D01*
G01X0120020Y-107830D02*
G01X0120020Y-107792D01*
G01X0120020Y-107792D02*
G01X0120001Y-107754D01*
G01X0120001Y-107754D02*
G01X0119982Y-107735D01*
G01X0119982Y-107735D02*
G01X0119944Y-107716D01*
G01X0119944Y-107716D02*
G01X0119868Y-107697D01*
G01X0119868Y-107697D02*
G01X0119829Y-107678D01*
G01X0119829Y-107678D02*
G01X0119810Y-107659D01*
G01X0119810Y-107659D02*
G01X0119791Y-107621D01*
G01X0119791Y-107621D02*
G01X0119791Y-107582D01*
G01X0119791Y-107582D02*
G01X0119810Y-107544D01*
G01X0119810Y-107544D02*
G01X0119829Y-107525D01*
G01X0119829Y-107525D02*
G01X0119868Y-107506D01*
G01X0119868Y-107506D02*
G01X0119963Y-107506D01*
G01X0119963Y-107506D02*
G01X0120020Y-107525D01*
G01X0120153Y-107506D02*
G01X0120249Y-107906D01*
G01X0120249Y-107906D02*
G01X0120325Y-107621D01*
G01X0120325Y-107621D02*
G01X0120401Y-107906D01*
G01X0120401Y-107906D02*
G01X0120496Y-107506D01*
G01X0120839Y-107506D02*
G01X0120649Y-107506D01*
G01X0120649Y-107506D02*
G01X0120629Y-107697D01*
G01X0120629Y-107697D02*
G01X0120649Y-107678D01*
G01X0120649Y-107678D02*
G01X0120687Y-107659D01*
G01X0120687Y-107659D02*
G01X0120782Y-107659D01*
G01X0120782Y-107659D02*
G01X0120820Y-107678D01*
G01X0120820Y-107678D02*
G01X0120839Y-107697D01*
G01X0120839Y-107697D02*
G01X0120858Y-107735D01*
G01X0120858Y-107735D02*
G01X0120858Y-107830D01*
G01X0120858Y-107830D02*
G01X0120839Y-107868D01*
G01X0120839Y-107868D02*
G01X0120820Y-107887D01*
G01X0120820Y-107887D02*
G01X0120782Y-107906D01*
G01X0120782Y-107906D02*
G01X0120687Y-107906D01*
G01X0120687Y-107906D02*
G01X0120649Y-107887D01*
G01X0120649Y-107887D02*
G01X0120629Y-107868D01*
G01X0144921Y-098383D02*
G01X0145321Y-098116D01*
G01X0144921Y-098116D02*
G01X0145321Y-098383D01*
G01X0144959Y-097983D02*
G01X0144940Y-097964D01*
G01X0144940Y-097964D02*
G01X0144921Y-097926D01*
G01X0144921Y-097926D02*
G01X0144921Y-097831D01*
G01X0144921Y-097831D02*
G01X0144940Y-097793D01*
G01X0144940Y-097793D02*
G01X0144959Y-097774D01*
G01X0144959Y-097774D02*
G01X0144997Y-097755D01*
G01X0144997Y-097755D02*
G01X0145036Y-097755D01*
G01X0145036Y-097755D02*
G01X0145093Y-097774D01*
G01X0145093Y-097774D02*
G01X0145321Y-098002D01*
G01X0145321Y-098002D02*
G01X0145321Y-097755D01*
G54D23*
G01X0146221Y-098530D02*
G01X0146221Y-098702D01*
G01X0146221Y-098616D02*
G01X0145821Y-098566D01*
G01X0145821Y-098566D02*
G01X0145878Y-098602D01*
G01X0145878Y-098602D02*
G01X0145916Y-098635D01*
G01X0145916Y-098635D02*
G01X0145936Y-098666D01*
G01X0145859Y-098371D02*
G01X0145840Y-098354D01*
G01X0145840Y-098354D02*
G01X0145821Y-098323D01*
G01X0145821Y-098323D02*
G01X0145821Y-098252D01*
G01X0145821Y-098252D02*
G01X0145840Y-098226D01*
G01X0145840Y-098226D02*
G01X0145859Y-098214D01*
G01X0145859Y-098214D02*
G01X0145897Y-098204D01*
G01X0145897Y-098204D02*
G01X0145936Y-098209D01*
G01X0145936Y-098209D02*
G01X0145993Y-098230D01*
G01X0145993Y-098230D02*
G01X0146221Y-098430D01*
G01X0146221Y-098430D02*
G01X0146221Y-098245D01*
G01X0146221Y-098116D02*
G01X0145821Y-098066D01*
G01X0145821Y-098066D02*
G01X0146107Y-098002D01*
G01X0146107Y-098002D02*
G01X0145821Y-097866D01*
G01X0145821Y-097866D02*
G01X0146221Y-097916D01*
G01X0146221Y-097773D02*
G01X0145821Y-097723D01*
G01X0146012Y-097747D02*
G01X0146012Y-097576D01*
G01X0146221Y-097602D02*
G01X0145821Y-097552D01*
G01X0145955Y-097454D02*
G01X0145955Y-097297D01*
G01X0145955Y-097297D02*
G01X0146221Y-097488D01*
G01X0146221Y-097488D02*
G01X0146221Y-097330D01*
G54D13*
G01X0129578Y-099752D02*
G01X0129411Y-099514D01*
G01X0129292Y-099752D02*
G01X0129292Y-099252D01*
G01X0129292Y-099252D02*
G01X0129483Y-099252D01*
G01X0129483Y-099252D02*
G01X0129530Y-099276D01*
G01X0129530Y-099276D02*
G01X0129554Y-099300D01*
G01X0129554Y-099300D02*
G01X0129578Y-099347D01*
G01X0129578Y-099347D02*
G01X0129578Y-099419D01*
G01X0129578Y-099419D02*
G01X0129554Y-099466D01*
G01X0129554Y-099466D02*
G01X0129530Y-099490D01*
G01X0129530Y-099490D02*
G01X0129483Y-099514D01*
G01X0129483Y-099514D02*
G01X0129292Y-099514D01*
G01X0130054Y-099752D02*
G01X0129769Y-099752D01*
G01X0129911Y-099752D02*
G01X0129911Y-099252D01*
G01X0129911Y-099252D02*
G01X0129864Y-099323D01*
G01X0129864Y-099323D02*
G01X0129816Y-099371D01*
G01X0129816Y-099371D02*
G01X0129769Y-099395D01*
G01X0130530Y-099752D02*
G01X0130245Y-099752D01*
G01X0130388Y-099752D02*
G01X0130388Y-099252D01*
G01X0130388Y-099252D02*
G01X0130340Y-099323D01*
G01X0130340Y-099323D02*
G01X0130292Y-099371D01*
G01X0130292Y-099371D02*
G01X0130245Y-099395D01*
G01X0146604Y-092021D02*
G01X0146628Y-092045D01*
G01X0146628Y-092045D02*
G01X0146652Y-092116D01*
G01X0146652Y-092116D02*
G01X0146652Y-092164D01*
G01X0146652Y-092164D02*
G01X0146628Y-092235D01*
G01X0146628Y-092235D02*
G01X0146580Y-092283D01*
G01X0146580Y-092283D02*
G01X0146533Y-092307D01*
G01X0146533Y-092307D02*
G01X0146438Y-092330D01*
G01X0146438Y-092330D02*
G01X0146366Y-092330D01*
G01X0146366Y-092330D02*
G01X0146271Y-092307D01*
G01X0146271Y-092307D02*
G01X0146223Y-092283D01*
G01X0146223Y-092283D02*
G01X0146176Y-092235D01*
G01X0146176Y-092235D02*
G01X0146152Y-092164D01*
G01X0146152Y-092164D02*
G01X0146152Y-092116D01*
G01X0146152Y-092116D02*
G01X0146176Y-092045D01*
G01X0146176Y-092045D02*
G01X0146200Y-092021D01*
G01X0146652Y-091545D02*
G01X0146652Y-091830D01*
G01X0146652Y-091688D02*
G01X0146152Y-091688D01*
G01X0146152Y-091688D02*
G01X0146223Y-091735D01*
G01X0146223Y-091735D02*
G01X0146271Y-091783D01*
G01X0146271Y-091783D02*
G01X0146295Y-091830D01*
G01X0146152Y-091235D02*
G01X0146152Y-091188D01*
G01X0146152Y-091188D02*
G01X0146176Y-091140D01*
G01X0146176Y-091140D02*
G01X0146200Y-091116D01*
G01X0146200Y-091116D02*
G01X0146247Y-091092D01*
G01X0146247Y-091092D02*
G01X0146342Y-091069D01*
G01X0146342Y-091069D02*
G01X0146461Y-091069D01*
G01X0146461Y-091069D02*
G01X0146557Y-091092D01*
G01X0146557Y-091092D02*
G01X0146604Y-091116D01*
G01X0146604Y-091116D02*
G01X0146628Y-091140D01*
G01X0146628Y-091140D02*
G01X0146652Y-091188D01*
G01X0146652Y-091188D02*
G01X0146652Y-091235D01*
G01X0146652Y-091235D02*
G01X0146628Y-091283D01*
G01X0146628Y-091283D02*
G01X0146604Y-091307D01*
G01X0146604Y-091307D02*
G01X0146557Y-091330D01*
G01X0146557Y-091330D02*
G01X0146461Y-091354D01*
G01X0146461Y-091354D02*
G01X0146342Y-091354D01*
G01X0146342Y-091354D02*
G01X0146247Y-091330D01*
G01X0146247Y-091330D02*
G01X0146200Y-091307D01*
G01X0146200Y-091307D02*
G01X0146176Y-091283D01*
G01X0146176Y-091283D02*
G01X0146152Y-091235D01*
G01X0121698Y-088457D02*
G01X0121531Y-088219D01*
G01X0121412Y-088457D02*
G01X0121412Y-087957D01*
G01X0121412Y-087957D02*
G01X0121603Y-087957D01*
G01X0121603Y-087957D02*
G01X0121650Y-087981D01*
G01X0121650Y-087981D02*
G01X0121674Y-088005D01*
G01X0121674Y-088005D02*
G01X0121698Y-088052D01*
G01X0121698Y-088052D02*
G01X0121698Y-088124D01*
G01X0121698Y-088124D02*
G01X0121674Y-088171D01*
G01X0121674Y-088171D02*
G01X0121650Y-088195D01*
G01X0121650Y-088195D02*
G01X0121603Y-088219D01*
G01X0121603Y-088219D02*
G01X0121412Y-088219D01*
G01X0121865Y-087957D02*
G01X0122174Y-087957D01*
G01X0122174Y-087957D02*
G01X0122008Y-088147D01*
G01X0122008Y-088147D02*
G01X0122079Y-088147D01*
G01X0122079Y-088147D02*
G01X0122127Y-088171D01*
G01X0122127Y-088171D02*
G01X0122150Y-088195D01*
G01X0122150Y-088195D02*
G01X0122174Y-088243D01*
G01X0122174Y-088243D02*
G01X0122174Y-088362D01*
G01X0122174Y-088362D02*
G01X0122150Y-088409D01*
G01X0122150Y-088409D02*
G01X0122127Y-088433D01*
G01X0122127Y-088433D02*
G01X0122079Y-088457D01*
G01X0122079Y-088457D02*
G01X0121936Y-088457D01*
G01X0121936Y-088457D02*
G01X0121889Y-088433D01*
G01X0121889Y-088433D02*
G01X0121865Y-088409D01*
G01X0122603Y-087957D02*
G01X0122508Y-087957D01*
G01X0122508Y-087957D02*
G01X0122460Y-087981D01*
G01X0122460Y-087981D02*
G01X0122436Y-088005D01*
G01X0122436Y-088005D02*
G01X0122389Y-088076D01*
G01X0122389Y-088076D02*
G01X0122365Y-088171D01*
G01X0122365Y-088171D02*
G01X0122365Y-088362D01*
G01X0122365Y-088362D02*
G01X0122389Y-088409D01*
G01X0122389Y-088409D02*
G01X0122412Y-088433D01*
G01X0122412Y-088433D02*
G01X0122460Y-088457D01*
G01X0122460Y-088457D02*
G01X0122555Y-088457D01*
G01X0122555Y-088457D02*
G01X0122603Y-088433D01*
G01X0122603Y-088433D02*
G01X0122627Y-088409D01*
G01X0122627Y-088409D02*
G01X0122650Y-088362D01*
G01X0122650Y-088362D02*
G01X0122650Y-088243D01*
G01X0122650Y-088243D02*
G01X0122627Y-088195D01*
G01X0122627Y-088195D02*
G01X0122603Y-088171D01*
G01X0122603Y-088171D02*
G01X0122555Y-088147D01*
G01X0122555Y-088147D02*
G01X0122460Y-088147D01*
G01X0122460Y-088147D02*
G01X0122412Y-088171D01*
G01X0122412Y-088171D02*
G01X0122389Y-088195D01*
G01X0122389Y-088195D02*
G01X0122365Y-088243D01*
G01X0124552Y-090371D02*
G01X0124314Y-090538D01*
G01X0124552Y-090657D02*
G01X0124052Y-090657D01*
G01X0124052Y-090657D02*
G01X0124052Y-090466D01*
G01X0124052Y-090466D02*
G01X0124076Y-090419D01*
G01X0124076Y-090419D02*
G01X0124100Y-090395D01*
G01X0124100Y-090395D02*
G01X0124147Y-090371D01*
G01X0124147Y-090371D02*
G01X0124219Y-090371D01*
G01X0124219Y-090371D02*
G01X0124266Y-090395D01*
G01X0124266Y-090395D02*
G01X0124290Y-090419D01*
G01X0124290Y-090419D02*
G01X0124314Y-090466D01*
G01X0124314Y-090466D02*
G01X0124314Y-090657D01*
G01X0124052Y-090204D02*
G01X0124052Y-089895D01*
G01X0124052Y-089895D02*
G01X0124242Y-090061D01*
G01X0124242Y-090061D02*
G01X0124242Y-089990D01*
G01X0124242Y-089990D02*
G01X0124266Y-089942D01*
G01X0124266Y-089942D02*
G01X0124290Y-089919D01*
G01X0124290Y-089919D02*
G01X0124338Y-089895D01*
G01X0124338Y-089895D02*
G01X0124457Y-089895D01*
G01X0124457Y-089895D02*
G01X0124504Y-089919D01*
G01X0124504Y-089919D02*
G01X0124528Y-089942D01*
G01X0124528Y-089942D02*
G01X0124552Y-089990D01*
G01X0124552Y-089990D02*
G01X0124552Y-090133D01*
G01X0124552Y-090133D02*
G01X0124528Y-090180D01*
G01X0124528Y-090180D02*
G01X0124504Y-090204D01*
G01X0124052Y-089442D02*
G01X0124052Y-089680D01*
G01X0124052Y-089680D02*
G01X0124290Y-089704D01*
G01X0124290Y-089704D02*
G01X0124266Y-089680D01*
G01X0124266Y-089680D02*
G01X0124242Y-089633D01*
G01X0124242Y-089633D02*
G01X0124242Y-089514D01*
G01X0124242Y-089514D02*
G01X0124266Y-089466D01*
G01X0124266Y-089466D02*
G01X0124290Y-089442D01*
G01X0124290Y-089442D02*
G01X0124338Y-089419D01*
G01X0124338Y-089419D02*
G01X0124457Y-089419D01*
G01X0124457Y-089419D02*
G01X0124504Y-089442D01*
G01X0124504Y-089442D02*
G01X0124528Y-089466D01*
G01X0124528Y-089466D02*
G01X0124552Y-089514D01*
G01X0124552Y-089514D02*
G01X0124552Y-089633D01*
G01X0124552Y-089633D02*
G01X0124528Y-089680D01*
G01X0124528Y-089680D02*
G01X0124504Y-089704D01*
G01X0127802Y-086721D02*
G01X0127564Y-086888D01*
G01X0127802Y-087007D02*
G01X0127302Y-087007D01*
G01X0127302Y-087007D02*
G01X0127302Y-086816D01*
G01X0127302Y-086816D02*
G01X0127326Y-086769D01*
G01X0127326Y-086769D02*
G01X0127350Y-086745D01*
G01X0127350Y-086745D02*
G01X0127397Y-086721D01*
G01X0127397Y-086721D02*
G01X0127469Y-086721D01*
G01X0127469Y-086721D02*
G01X0127516Y-086745D01*
G01X0127516Y-086745D02*
G01X0127540Y-086769D01*
G01X0127540Y-086769D02*
G01X0127564Y-086816D01*
G01X0127564Y-086816D02*
G01X0127564Y-087007D01*
G01X0127302Y-086554D02*
G01X0127302Y-086245D01*
G01X0127302Y-086245D02*
G01X0127492Y-086411D01*
G01X0127492Y-086411D02*
G01X0127492Y-086340D01*
G01X0127492Y-086340D02*
G01X0127516Y-086292D01*
G01X0127516Y-086292D02*
G01X0127540Y-086269D01*
G01X0127540Y-086269D02*
G01X0127588Y-086245D01*
G01X0127588Y-086245D02*
G01X0127707Y-086245D01*
G01X0127707Y-086245D02*
G01X0127754Y-086269D01*
G01X0127754Y-086269D02*
G01X0127778Y-086292D01*
G01X0127778Y-086292D02*
G01X0127802Y-086340D01*
G01X0127802Y-086340D02*
G01X0127802Y-086483D01*
G01X0127802Y-086483D02*
G01X0127778Y-086530D01*
G01X0127778Y-086530D02*
G01X0127754Y-086554D01*
G01X0127469Y-085816D02*
G01X0127802Y-085816D01*
G01X0127278Y-085935D02*
G01X0127635Y-086054D01*
G01X0127635Y-086054D02*
G01X0127635Y-085745D01*
G01X0129578Y-098902D02*
G01X0129411Y-098664D01*
G01X0129292Y-098902D02*
G01X0129292Y-098402D01*
G01X0129292Y-098402D02*
G01X0129483Y-098402D01*
G01X0129483Y-098402D02*
G01X0129530Y-098426D01*
G01X0129530Y-098426D02*
G01X0129554Y-098450D01*
G01X0129554Y-098450D02*
G01X0129578Y-098497D01*
G01X0129578Y-098497D02*
G01X0129578Y-098569D01*
G01X0129578Y-098569D02*
G01X0129554Y-098616D01*
G01X0129554Y-098616D02*
G01X0129530Y-098640D01*
G01X0129530Y-098640D02*
G01X0129483Y-098664D01*
G01X0129483Y-098664D02*
G01X0129292Y-098664D01*
G01X0130054Y-098902D02*
G01X0129769Y-098902D01*
G01X0129911Y-098902D02*
G01X0129911Y-098402D01*
G01X0129911Y-098402D02*
G01X0129864Y-098473D01*
G01X0129864Y-098473D02*
G01X0129816Y-098521D01*
G01X0129816Y-098521D02*
G01X0129769Y-098545D01*
G01X0130507Y-098402D02*
G01X0130269Y-098402D01*
G01X0130269Y-098402D02*
G01X0130245Y-098640D01*
G01X0130245Y-098640D02*
G01X0130269Y-098616D01*
G01X0130269Y-098616D02*
G01X0130316Y-098592D01*
G01X0130316Y-098592D02*
G01X0130435Y-098592D01*
G01X0130435Y-098592D02*
G01X0130483Y-098616D01*
G01X0130483Y-098616D02*
G01X0130507Y-098640D01*
G01X0130507Y-098640D02*
G01X0130530Y-098688D01*
G01X0130530Y-098688D02*
G01X0130530Y-098807D01*
G01X0130530Y-098807D02*
G01X0130507Y-098854D01*
G01X0130507Y-098854D02*
G01X0130483Y-098878D01*
G01X0130483Y-098878D02*
G01X0130435Y-098902D01*
G01X0130435Y-098902D02*
G01X0130316Y-098902D01*
G01X0130316Y-098902D02*
G01X0130269Y-098878D01*
G01X0130269Y-098878D02*
G01X0130245Y-098854D01*
G01X0145052Y-095221D02*
G01X0144814Y-095388D01*
G01X0145052Y-095507D02*
G01X0144552Y-095507D01*
G01X0144552Y-095507D02*
G01X0144552Y-095316D01*
G01X0144552Y-095316D02*
G01X0144576Y-095269D01*
G01X0144576Y-095269D02*
G01X0144600Y-095245D01*
G01X0144600Y-095245D02*
G01X0144647Y-095221D01*
G01X0144647Y-095221D02*
G01X0144719Y-095221D01*
G01X0144719Y-095221D02*
G01X0144766Y-095245D01*
G01X0144766Y-095245D02*
G01X0144790Y-095269D01*
G01X0144790Y-095269D02*
G01X0144814Y-095316D01*
G01X0144814Y-095316D02*
G01X0144814Y-095507D01*
G01X0144719Y-094792D02*
G01X0145052Y-094792D01*
G01X0144528Y-094911D02*
G01X0144885Y-095030D01*
G01X0144885Y-095030D02*
G01X0144885Y-094721D01*
G01X0145052Y-094269D02*
G01X0145052Y-094554D01*
G01X0145052Y-094411D02*
G01X0144552Y-094411D01*
G01X0144552Y-094411D02*
G01X0144623Y-094459D01*
G01X0144623Y-094459D02*
G01X0144671Y-094507D01*
G01X0144671Y-094507D02*
G01X0144695Y-094554D01*
G54D21*
G01X0144348Y-106479D02*
G01X0144348Y-106282D01*
G01X0144460Y-106479D02*
G01X0144376Y-106367D01*
G01X0144460Y-106282D02*
G01X0144348Y-106395D01*
G54D19*
G01X0125321Y-098021D02*
G01X0125021Y-098021D01*
G01X0125021Y-098021D02*
G01X0125021Y-097950D01*
G01X0125021Y-097950D02*
G01X0125035Y-097907D01*
G01X0125035Y-097907D02*
G01X0125064Y-097878D01*
G01X0125064Y-097878D02*
G01X0125092Y-097864D01*
G01X0125092Y-097864D02*
G01X0125150Y-097850D01*
G01X0125150Y-097850D02*
G01X0125192Y-097850D01*
G01X0125192Y-097850D02*
G01X0125250Y-097864D01*
G01X0125250Y-097864D02*
G01X0125278Y-097878D01*
G01X0125278Y-097878D02*
G01X0125307Y-097907D01*
G01X0125307Y-097907D02*
G01X0125321Y-097950D01*
G01X0125321Y-097950D02*
G01X0125321Y-098021D01*
G01X0125321Y-097707D02*
G01X0125321Y-097650D01*
G01X0125321Y-097650D02*
G01X0125307Y-097621D01*
G01X0125307Y-097621D02*
G01X0125292Y-097607D01*
G01X0125292Y-097607D02*
G01X0125250Y-097578D01*
G01X0125250Y-097578D02*
G01X0125192Y-097564D01*
G01X0125192Y-097564D02*
G01X0125078Y-097564D01*
G01X0125078Y-097564D02*
G01X0125050Y-097578D01*
G01X0125050Y-097578D02*
G01X0125035Y-097592D01*
G01X0125035Y-097592D02*
G01X0125021Y-097621D01*
G01X0125021Y-097621D02*
G01X0125021Y-097678D01*
G01X0125021Y-097678D02*
G01X0125035Y-097707D01*
G01X0125035Y-097707D02*
G01X0125050Y-097721D01*
G01X0125050Y-097721D02*
G01X0125078Y-097735D01*
G01X0125078Y-097735D02*
G01X0125150Y-097735D01*
G01X0125150Y-097735D02*
G01X0125178Y-097721D01*
G01X0125178Y-097721D02*
G01X0125192Y-097707D01*
G01X0125192Y-097707D02*
G01X0125207Y-097678D01*
G01X0125207Y-097678D02*
G01X0125207Y-097621D01*
G01X0125207Y-097621D02*
G01X0125192Y-097592D01*
G01X0125192Y-097592D02*
G01X0125178Y-097578D01*
G01X0125178Y-097578D02*
G01X0125150Y-097564D01*
G01X0126721Y-099821D02*
G01X0126578Y-099921D01*
G01X0126721Y-099992D02*
G01X0126421Y-099992D01*
G01X0126421Y-099992D02*
G01X0126421Y-099878D01*
G01X0126421Y-099878D02*
G01X0126435Y-099850D01*
G01X0126435Y-099850D02*
G01X0126450Y-099835D01*
G01X0126450Y-099835D02*
G01X0126478Y-099821D01*
G01X0126478Y-099821D02*
G01X0126521Y-099821D01*
G01X0126521Y-099821D02*
G01X0126550Y-099835D01*
G01X0126550Y-099835D02*
G01X0126564Y-099850D01*
G01X0126564Y-099850D02*
G01X0126578Y-099878D01*
G01X0126578Y-099878D02*
G01X0126578Y-099992D01*
G01X0126421Y-099692D02*
G01X0126664Y-099692D01*
G01X0126664Y-099692D02*
G01X0126692Y-099678D01*
G01X0126692Y-099678D02*
G01X0126707Y-099664D01*
G01X0126707Y-099664D02*
G01X0126721Y-099635D01*
G01X0126721Y-099635D02*
G01X0126721Y-099578D01*
G01X0126721Y-099578D02*
G01X0126707Y-099550D01*
G01X0126707Y-099550D02*
G01X0126692Y-099535D01*
G01X0126692Y-099535D02*
G01X0126664Y-099521D01*
G01X0126664Y-099521D02*
G01X0126421Y-099521D01*
G01X0126721Y-099378D02*
G01X0126421Y-099378D01*
G01X0126421Y-099378D02*
G01X0126721Y-099207D01*
G01X0126721Y-099207D02*
G01X0126421Y-099207D01*
G54D21*
G01X0127079Y-098651D02*
G01X0126882Y-098651D01*
G01X0127079Y-098539D02*
G01X0126967Y-098623D01*
G01X0126882Y-098539D02*
G01X0126995Y-098651D01*
G01X0144348Y-104679D02*
G01X0144348Y-104482D01*
G01X0144460Y-104679D02*
G01X0144376Y-104567D01*
G01X0144460Y-104482D02*
G01X0144348Y-104595D01*
G54D19*
G01X0127271Y-098164D02*
G01X0126971Y-098164D01*
G01X0126971Y-098164D02*
G01X0126971Y-098092D01*
G01X0126971Y-098092D02*
G01X0126985Y-098050D01*
G01X0126985Y-098050D02*
G01X0127014Y-098021D01*
G01X0127014Y-098021D02*
G01X0127042Y-098007D01*
G01X0127042Y-098007D02*
G01X0127100Y-097992D01*
G01X0127100Y-097992D02*
G01X0127142Y-097992D01*
G01X0127142Y-097992D02*
G01X0127200Y-098007D01*
G01X0127200Y-098007D02*
G01X0127228Y-098021D01*
G01X0127228Y-098021D02*
G01X0127257Y-098050D01*
G01X0127257Y-098050D02*
G01X0127271Y-098092D01*
G01X0127271Y-098092D02*
G01X0127271Y-098164D01*
G01X0127271Y-097707D02*
G01X0127271Y-097878D01*
G01X0127271Y-097792D02*
G01X0126971Y-097792D01*
G01X0126971Y-097792D02*
G01X0127014Y-097821D01*
G01X0127014Y-097821D02*
G01X0127042Y-097850D01*
G01X0127042Y-097850D02*
G01X0127057Y-097878D01*
G01X0126971Y-097521D02*
G01X0126971Y-097492D01*
G01X0126971Y-097492D02*
G01X0126985Y-097464D01*
G01X0126985Y-097464D02*
G01X0127000Y-097450D01*
G01X0127000Y-097450D02*
G01X0127028Y-097435D01*
G01X0127028Y-097435D02*
G01X0127085Y-097421D01*
G01X0127085Y-097421D02*
G01X0127157Y-097421D01*
G01X0127157Y-097421D02*
G01X0127214Y-097435D01*
G01X0127214Y-097435D02*
G01X0127242Y-097450D01*
G01X0127242Y-097450D02*
G01X0127257Y-097464D01*
G01X0127257Y-097464D02*
G01X0127271Y-097492D01*
G01X0127271Y-097492D02*
G01X0127271Y-097521D01*
G01X0127271Y-097521D02*
G01X0127257Y-097550D01*
G01X0127257Y-097550D02*
G01X0127242Y-097564D01*
G01X0127242Y-097564D02*
G01X0127214Y-097578D01*
G01X0127214Y-097578D02*
G01X0127157Y-097592D01*
G01X0127157Y-097592D02*
G01X0127085Y-097592D01*
G01X0127085Y-097592D02*
G01X0127028Y-097578D01*
G01X0127028Y-097578D02*
G01X0127000Y-097564D01*
G01X0127000Y-097564D02*
G01X0126985Y-097550D01*
G01X0126985Y-097550D02*
G01X0126971Y-097521D01*
G01X0125871Y-100135D02*
G01X0125571Y-100135D01*
G01X0125571Y-100135D02*
G01X0125571Y-100021D01*
G01X0125571Y-100021D02*
G01X0125585Y-099992D01*
G01X0125585Y-099992D02*
G01X0125600Y-099978D01*
G01X0125600Y-099978D02*
G01X0125628Y-099964D01*
G01X0125628Y-099964D02*
G01X0125671Y-099964D01*
G01X0125671Y-099964D02*
G01X0125700Y-099978D01*
G01X0125700Y-099978D02*
G01X0125714Y-099992D01*
G01X0125714Y-099992D02*
G01X0125728Y-100021D01*
G01X0125728Y-100021D02*
G01X0125728Y-100135D01*
G01X0125871Y-099664D02*
G01X0125728Y-099764D01*
G01X0125871Y-099835D02*
G01X0125571Y-099835D01*
G01X0125571Y-099835D02*
G01X0125571Y-099721D01*
G01X0125571Y-099721D02*
G01X0125585Y-099692D01*
G01X0125585Y-099692D02*
G01X0125600Y-099678D01*
G01X0125600Y-099678D02*
G01X0125628Y-099664D01*
G01X0125628Y-099664D02*
G01X0125671Y-099664D01*
G01X0125671Y-099664D02*
G01X0125700Y-099678D01*
G01X0125700Y-099678D02*
G01X0125714Y-099692D01*
G01X0125714Y-099692D02*
G01X0125728Y-099721D01*
G01X0125728Y-099721D02*
G01X0125728Y-099835D01*
G01X0125571Y-099478D02*
G01X0125571Y-099421D01*
G01X0125571Y-099421D02*
G01X0125585Y-099392D01*
G01X0125585Y-099392D02*
G01X0125614Y-099364D01*
G01X0125614Y-099364D02*
G01X0125671Y-099350D01*
G01X0125671Y-099350D02*
G01X0125771Y-099350D01*
G01X0125771Y-099350D02*
G01X0125828Y-099364D01*
G01X0125828Y-099364D02*
G01X0125857Y-099392D01*
G01X0125857Y-099392D02*
G01X0125871Y-099421D01*
G01X0125871Y-099421D02*
G01X0125871Y-099478D01*
G01X0125871Y-099478D02*
G01X0125857Y-099507D01*
G01X0125857Y-099507D02*
G01X0125828Y-099535D01*
G01X0125828Y-099535D02*
G01X0125771Y-099550D01*
G01X0125771Y-099550D02*
G01X0125671Y-099550D01*
G01X0125671Y-099550D02*
G01X0125614Y-099535D01*
G01X0125614Y-099535D02*
G01X0125585Y-099507D01*
G01X0125585Y-099507D02*
G01X0125571Y-099478D01*
G01X0125585Y-099064D02*
G01X0125571Y-099092D01*
G01X0125571Y-099092D02*
G01X0125571Y-099135D01*
G01X0125571Y-099135D02*
G01X0125585Y-099178D01*
G01X0125585Y-099178D02*
G01X0125614Y-099207D01*
G01X0125614Y-099207D02*
G01X0125642Y-099221D01*
G01X0125642Y-099221D02*
G01X0125700Y-099235D01*
G01X0125700Y-099235D02*
G01X0125742Y-099235D01*
G01X0125742Y-099235D02*
G01X0125800Y-099221D01*
G01X0125800Y-099221D02*
G01X0125828Y-099207D01*
G01X0125828Y-099207D02*
G01X0125857Y-099178D01*
G01X0125857Y-099178D02*
G01X0125871Y-099135D01*
G01X0125871Y-099135D02*
G01X0125871Y-099107D01*
G01X0125871Y-099107D02*
G01X0125857Y-099064D01*
G01X0125857Y-099064D02*
G01X0125842Y-099050D01*
G01X0125842Y-099050D02*
G01X0125742Y-099050D01*
G01X0125742Y-099050D02*
G01X0125742Y-099107D01*
G54D21*
G01X0125429Y-098651D02*
G01X0125232Y-098651D01*
G01X0125429Y-098539D02*
G01X0125317Y-098623D01*
G01X0125232Y-098539D02*
G01X0125345Y-098651D01*
G54D13*
G01X0142852Y-087183D02*
G01X0143257Y-087183D01*
G01X0143257Y-087183D02*
G01X0143304Y-087159D01*
G01X0143304Y-087159D02*
G01X0143328Y-087135D01*
G01X0143328Y-087135D02*
G01X0143352Y-087088D01*
G01X0143352Y-087088D02*
G01X0143352Y-086992D01*
G01X0143352Y-086992D02*
G01X0143328Y-086945D01*
G01X0143328Y-086945D02*
G01X0143304Y-086921D01*
G01X0143304Y-086921D02*
G01X0143257Y-086897D01*
G01X0143257Y-086897D02*
G01X0142852Y-086897D01*
G01X0143352Y-086707D02*
G01X0143019Y-086445D01*
G01X0143019Y-086707D02*
G01X0143352Y-086445D01*
G01X0143352Y-085992D02*
G01X0143352Y-086278D01*
G01X0143352Y-086135D02*
G01X0142852Y-086135D01*
G01X0142852Y-086135D02*
G01X0142923Y-086183D01*
G01X0142923Y-086183D02*
G01X0142971Y-086230D01*
G01X0142971Y-086230D02*
G01X0142995Y-086278D01*
G01X0147452Y-094833D02*
G01X0147214Y-095000D01*
G01X0147452Y-095119D02*
G01X0146952Y-095119D01*
G01X0146952Y-095119D02*
G01X0146952Y-094928D01*
G01X0146952Y-094928D02*
G01X0146976Y-094880D01*
G01X0146976Y-094880D02*
G01X0147000Y-094857D01*
G01X0147000Y-094857D02*
G01X0147047Y-094833D01*
G01X0147047Y-094833D02*
G01X0147119Y-094833D01*
G01X0147119Y-094833D02*
G01X0147166Y-094857D01*
G01X0147166Y-094857D02*
G01X0147190Y-094880D01*
G01X0147190Y-094880D02*
G01X0147214Y-094928D01*
G01X0147214Y-094928D02*
G01X0147214Y-095119D01*
G01X0146952Y-094380D02*
G01X0146952Y-094619D01*
G01X0146952Y-094619D02*
G01X0147190Y-094642D01*
G01X0147190Y-094642D02*
G01X0147166Y-094619D01*
G01X0147166Y-094619D02*
G01X0147142Y-094571D01*
G01X0147142Y-094571D02*
G01X0147142Y-094452D01*
G01X0147142Y-094452D02*
G01X0147166Y-094404D01*
G01X0147166Y-094404D02*
G01X0147190Y-094380D01*
G01X0147190Y-094380D02*
G01X0147238Y-094357D01*
G01X0147238Y-094357D02*
G01X0147357Y-094357D01*
G01X0147357Y-094357D02*
G01X0147404Y-094380D01*
G01X0147404Y-094380D02*
G01X0147428Y-094404D01*
G01X0147428Y-094404D02*
G01X0147452Y-094452D01*
G01X0147452Y-094452D02*
G01X0147452Y-094571D01*
G01X0147452Y-094571D02*
G01X0147428Y-094619D01*
G01X0147428Y-094619D02*
G01X0147404Y-094642D01*
G01X0121928Y-086152D02*
G01X0121761Y-085914D01*
G01X0121642Y-086152D02*
G01X0121642Y-085652D01*
G01X0121642Y-085652D02*
G01X0121833Y-085652D01*
G01X0121833Y-085652D02*
G01X0121880Y-085676D01*
G01X0121880Y-085676D02*
G01X0121904Y-085700D01*
G01X0121904Y-085700D02*
G01X0121928Y-085747D01*
G01X0121928Y-085747D02*
G01X0121928Y-085819D01*
G01X0121928Y-085819D02*
G01X0121904Y-085866D01*
G01X0121904Y-085866D02*
G01X0121880Y-085890D01*
G01X0121880Y-085890D02*
G01X0121833Y-085914D01*
G01X0121833Y-085914D02*
G01X0121642Y-085914D01*
G01X0122095Y-085652D02*
G01X0122404Y-085652D01*
G01X0122404Y-085652D02*
G01X0122238Y-085842D01*
G01X0122238Y-085842D02*
G01X0122309Y-085842D01*
G01X0122309Y-085842D02*
G01X0122357Y-085866D01*
G01X0122357Y-085866D02*
G01X0122380Y-085890D01*
G01X0122380Y-085890D02*
G01X0122404Y-085938D01*
G01X0122404Y-085938D02*
G01X0122404Y-086057D01*
G01X0122404Y-086057D02*
G01X0122380Y-086104D01*
G01X0122380Y-086104D02*
G01X0122357Y-086128D01*
G01X0122357Y-086128D02*
G01X0122309Y-086152D01*
G01X0122309Y-086152D02*
G01X0122166Y-086152D01*
G01X0122166Y-086152D02*
G01X0122119Y-086128D01*
G01X0122119Y-086128D02*
G01X0122095Y-086104D01*
G01X0122880Y-086152D02*
G01X0122595Y-086152D01*
G01X0122738Y-086152D02*
G01X0122738Y-085652D01*
G01X0122738Y-085652D02*
G01X0122690Y-085723D01*
G01X0122690Y-085723D02*
G01X0122642Y-085771D01*
G01X0122642Y-085771D02*
G01X0122595Y-085795D01*
G54D30*
G01X0123039Y-093154D02*
G01X0123054Y-093168D01*
G01X0123054Y-093168D02*
G01X0123069Y-093208D01*
G01X0123069Y-093208D02*
G01X0123069Y-093234D01*
G01X0123069Y-093234D02*
G01X0123054Y-093274D01*
G01X0123054Y-093274D02*
G01X0123023Y-093301D01*
G01X0123023Y-093301D02*
G01X0122993Y-093314D01*
G01X0122993Y-093314D02*
G01X0122932Y-093328D01*
G01X0122932Y-093328D02*
G01X0122886Y-093328D01*
G01X0122886Y-093328D02*
G01X0122825Y-093314D01*
G01X0122825Y-093314D02*
G01X0122795Y-093301D01*
G01X0122795Y-093301D02*
G01X0122764Y-093274D01*
G01X0122764Y-093274D02*
G01X0122749Y-093234D01*
G01X0122749Y-093234D02*
G01X0122749Y-093208D01*
G01X0122749Y-093208D02*
G01X0122764Y-093168D01*
G01X0122764Y-093168D02*
G01X0122780Y-093154D01*
G01X0123069Y-092888D02*
G01X0123069Y-093048D01*
G01X0123069Y-092968D02*
G01X0122749Y-092968D01*
G01X0122749Y-092968D02*
G01X0122795Y-092994D01*
G01X0122795Y-092994D02*
G01X0122825Y-093021D01*
G01X0122825Y-093021D02*
G01X0122841Y-093048D01*
G01X0122749Y-092794D02*
G01X0122749Y-092621D01*
G01X0122749Y-092621D02*
G01X0122871Y-092714D01*
G01X0122871Y-092714D02*
G01X0122871Y-092674D01*
G01X0122871Y-092674D02*
G01X0122886Y-092648D01*
G01X0122886Y-092648D02*
G01X0122902Y-092634D01*
G01X0122902Y-092634D02*
G01X0122932Y-092621D01*
G01X0122932Y-092621D02*
G01X0123008Y-092621D01*
G01X0123008Y-092621D02*
G01X0123039Y-092634D01*
G01X0123039Y-092634D02*
G01X0123054Y-092648D01*
G01X0123054Y-092648D02*
G01X0123069Y-092674D01*
G01X0123069Y-092674D02*
G01X0123069Y-092754D01*
G01X0123069Y-092754D02*
G01X0123054Y-092781D01*
G01X0123054Y-092781D02*
G01X0123039Y-092794D01*
G01X0120670Y-090949D02*
G01X0120656Y-090964D01*
G01X0120656Y-090964D02*
G01X0120616Y-090979D01*
G01X0120616Y-090979D02*
G01X0120590Y-090979D01*
G01X0120590Y-090979D02*
G01X0120550Y-090964D01*
G01X0120550Y-090964D02*
G01X0120523Y-090933D01*
G01X0120523Y-090933D02*
G01X0120510Y-090903D01*
G01X0120510Y-090903D02*
G01X0120496Y-090842D01*
G01X0120496Y-090842D02*
G01X0120496Y-090796D01*
G01X0120496Y-090796D02*
G01X0120510Y-090735D01*
G01X0120510Y-090735D02*
G01X0120523Y-090705D01*
G01X0120523Y-090705D02*
G01X0120550Y-090674D01*
G01X0120550Y-090674D02*
G01X0120590Y-090659D01*
G01X0120590Y-090659D02*
G01X0120616Y-090659D01*
G01X0120616Y-090659D02*
G01X0120656Y-090674D01*
G01X0120656Y-090674D02*
G01X0120670Y-090690D01*
G01X0120936Y-090979D02*
G01X0120776Y-090979D01*
G01X0120856Y-090979D02*
G01X0120856Y-090659D01*
G01X0120856Y-090659D02*
G01X0120830Y-090705D01*
G01X0120830Y-090705D02*
G01X0120803Y-090735D01*
G01X0120803Y-090735D02*
G01X0120776Y-090750D01*
G01X0121176Y-090659D02*
G01X0121123Y-090659D01*
G01X0121123Y-090659D02*
G01X0121096Y-090674D01*
G01X0121096Y-090674D02*
G01X0121083Y-090690D01*
G01X0121083Y-090690D02*
G01X0121056Y-090735D01*
G01X0121056Y-090735D02*
G01X0121043Y-090796D01*
G01X0121043Y-090796D02*
G01X0121043Y-090918D01*
G01X0121043Y-090918D02*
G01X0121056Y-090949D01*
G01X0121056Y-090949D02*
G01X0121070Y-090964D01*
G01X0121070Y-090964D02*
G01X0121096Y-090979D01*
G01X0121096Y-090979D02*
G01X0121150Y-090979D01*
G01X0121150Y-090979D02*
G01X0121176Y-090964D01*
G01X0121176Y-090964D02*
G01X0121190Y-090949D01*
G01X0121190Y-090949D02*
G01X0121203Y-090918D01*
G01X0121203Y-090918D02*
G01X0121203Y-090842D01*
G01X0121203Y-090842D02*
G01X0121190Y-090811D01*
G01X0121190Y-090811D02*
G01X0121176Y-090796D01*
G01X0121176Y-090796D02*
G01X0121150Y-090781D01*
G01X0121150Y-090781D02*
G01X0121096Y-090781D01*
G01X0121096Y-090781D02*
G01X0121070Y-090796D01*
G01X0121070Y-090796D02*
G01X0121056Y-090811D01*
G01X0121056Y-090811D02*
G01X0121043Y-090842D01*
G01X0124478Y-095824D02*
G01X0124465Y-095839D01*
G01X0124465Y-095839D02*
G01X0124425Y-095854D01*
G01X0124425Y-095854D02*
G01X0124398Y-095854D01*
G01X0124398Y-095854D02*
G01X0124358Y-095839D01*
G01X0124358Y-095839D02*
G01X0124331Y-095809D01*
G01X0124331Y-095809D02*
G01X0124318Y-095778D01*
G01X0124318Y-095778D02*
G01X0124305Y-095717D01*
G01X0124305Y-095717D02*
G01X0124305Y-095671D01*
G01X0124305Y-095671D02*
G01X0124318Y-095610D01*
G01X0124318Y-095610D02*
G01X0124331Y-095580D01*
G01X0124331Y-095580D02*
G01X0124358Y-095549D01*
G01X0124358Y-095549D02*
G01X0124398Y-095534D01*
G01X0124398Y-095534D02*
G01X0124425Y-095534D01*
G01X0124425Y-095534D02*
G01X0124465Y-095549D01*
G01X0124465Y-095549D02*
G01X0124478Y-095565D01*
G01X0124718Y-095534D02*
G01X0124665Y-095534D01*
G01X0124665Y-095534D02*
G01X0124638Y-095549D01*
G01X0124638Y-095549D02*
G01X0124625Y-095565D01*
G01X0124625Y-095565D02*
G01X0124598Y-095610D01*
G01X0124598Y-095610D02*
G01X0124585Y-095671D01*
G01X0124585Y-095671D02*
G01X0124585Y-095793D01*
G01X0124585Y-095793D02*
G01X0124598Y-095824D01*
G01X0124598Y-095824D02*
G01X0124611Y-095839D01*
G01X0124611Y-095839D02*
G01X0124638Y-095854D01*
G01X0124638Y-095854D02*
G01X0124691Y-095854D01*
G01X0124691Y-095854D02*
G01X0124718Y-095839D01*
G01X0124718Y-095839D02*
G01X0124731Y-095824D01*
G01X0124731Y-095824D02*
G01X0124745Y-095793D01*
G01X0124745Y-095793D02*
G01X0124745Y-095717D01*
G01X0124745Y-095717D02*
G01X0124731Y-095687D01*
G01X0124731Y-095687D02*
G01X0124718Y-095671D01*
G01X0124718Y-095671D02*
G01X0124691Y-095656D01*
G01X0124691Y-095656D02*
G01X0124638Y-095656D01*
G01X0124638Y-095656D02*
G01X0124611Y-095671D01*
G01X0124611Y-095671D02*
G01X0124598Y-095687D01*
G01X0124598Y-095687D02*
G01X0124585Y-095717D01*
G01X0125898Y-095814D02*
G01X0125884Y-095829D01*
G01X0125884Y-095829D02*
G01X0125844Y-095844D01*
G01X0125844Y-095844D02*
G01X0125818Y-095844D01*
G01X0125818Y-095844D02*
G01X0125778Y-095829D01*
G01X0125778Y-095829D02*
G01X0125751Y-095798D01*
G01X0125751Y-095798D02*
G01X0125738Y-095768D01*
G01X0125738Y-095768D02*
G01X0125724Y-095707D01*
G01X0125724Y-095707D02*
G01X0125724Y-095661D01*
G01X0125724Y-095661D02*
G01X0125738Y-095600D01*
G01X0125738Y-095600D02*
G01X0125751Y-095570D01*
G01X0125751Y-095570D02*
G01X0125778Y-095539D01*
G01X0125778Y-095539D02*
G01X0125818Y-095524D01*
G01X0125818Y-095524D02*
G01X0125844Y-095524D01*
G01X0125844Y-095524D02*
G01X0125884Y-095539D01*
G01X0125884Y-095539D02*
G01X0125898Y-095554D01*
G01X0125991Y-095524D02*
G01X0126178Y-095524D01*
G01X0126178Y-095524D02*
G01X0126058Y-095844D01*
G01X0127368Y-095824D02*
G01X0127354Y-095839D01*
G01X0127354Y-095839D02*
G01X0127314Y-095854D01*
G01X0127314Y-095854D02*
G01X0127288Y-095854D01*
G01X0127288Y-095854D02*
G01X0127248Y-095839D01*
G01X0127248Y-095839D02*
G01X0127221Y-095809D01*
G01X0127221Y-095809D02*
G01X0127208Y-095778D01*
G01X0127208Y-095778D02*
G01X0127194Y-095717D01*
G01X0127194Y-095717D02*
G01X0127194Y-095671D01*
G01X0127194Y-095671D02*
G01X0127208Y-095610D01*
G01X0127208Y-095610D02*
G01X0127221Y-095580D01*
G01X0127221Y-095580D02*
G01X0127248Y-095549D01*
G01X0127248Y-095549D02*
G01X0127288Y-095534D01*
G01X0127288Y-095534D02*
G01X0127314Y-095534D01*
G01X0127314Y-095534D02*
G01X0127354Y-095549D01*
G01X0127354Y-095549D02*
G01X0127368Y-095565D01*
G01X0127501Y-095854D02*
G01X0127554Y-095854D01*
G01X0127554Y-095854D02*
G01X0127581Y-095839D01*
G01X0127581Y-095839D02*
G01X0127594Y-095824D01*
G01X0127594Y-095824D02*
G01X0127621Y-095778D01*
G01X0127621Y-095778D02*
G01X0127634Y-095717D01*
G01X0127634Y-095717D02*
G01X0127634Y-095595D01*
G01X0127634Y-095595D02*
G01X0127621Y-095565D01*
G01X0127621Y-095565D02*
G01X0127608Y-095549D01*
G01X0127608Y-095549D02*
G01X0127581Y-095534D01*
G01X0127581Y-095534D02*
G01X0127528Y-095534D01*
G01X0127528Y-095534D02*
G01X0127501Y-095549D01*
G01X0127501Y-095549D02*
G01X0127488Y-095565D01*
G01X0127488Y-095565D02*
G01X0127474Y-095595D01*
G01X0127474Y-095595D02*
G01X0127474Y-095671D01*
G01X0127474Y-095671D02*
G01X0127488Y-095702D01*
G01X0127488Y-095702D02*
G01X0127501Y-095717D01*
G01X0127501Y-095717D02*
G01X0127528Y-095732D01*
G01X0127528Y-095732D02*
G01X0127581Y-095732D01*
G01X0127581Y-095732D02*
G01X0127608Y-095717D01*
G01X0127608Y-095717D02*
G01X0127621Y-095702D01*
G01X0127621Y-095702D02*
G01X0127634Y-095671D01*
G54D24*
G01X0123904Y-100161D02*
G01X0123904Y-099761D01*
G01X0123904Y-099761D02*
G01X0124057Y-099761D01*
G01X0124057Y-099761D02*
G01X0124095Y-099780D01*
G01X0124095Y-099780D02*
G01X0124114Y-099800D01*
G01X0124114Y-099800D02*
G01X0124133Y-099838D01*
G01X0124133Y-099838D02*
G01X0124133Y-099895D01*
G01X0124133Y-099895D02*
G01X0124114Y-099933D01*
G01X0124114Y-099933D02*
G01X0124095Y-099952D01*
G01X0124095Y-099952D02*
G01X0124057Y-099971D01*
G01X0124057Y-099971D02*
G01X0123904Y-099971D01*
G01X0124361Y-099933D02*
G01X0124323Y-099914D01*
G01X0124323Y-099914D02*
G01X0124304Y-099895D01*
G01X0124304Y-099895D02*
G01X0124285Y-099857D01*
G01X0124285Y-099857D02*
G01X0124285Y-099838D01*
G01X0124285Y-099838D02*
G01X0124304Y-099800D01*
G01X0124304Y-099800D02*
G01X0124323Y-099780D01*
G01X0124323Y-099780D02*
G01X0124361Y-099761D01*
G01X0124361Y-099761D02*
G01X0124438Y-099761D01*
G01X0124438Y-099761D02*
G01X0124476Y-099780D01*
G01X0124476Y-099780D02*
G01X0124495Y-099800D01*
G01X0124495Y-099800D02*
G01X0124514Y-099838D01*
G01X0124514Y-099838D02*
G01X0124514Y-099857D01*
G01X0124514Y-099857D02*
G01X0124495Y-099895D01*
G01X0124495Y-099895D02*
G01X0124476Y-099914D01*
G01X0124476Y-099914D02*
G01X0124438Y-099933D01*
G01X0124438Y-099933D02*
G01X0124361Y-099933D01*
G01X0124361Y-099933D02*
G01X0124323Y-099952D01*
G01X0124323Y-099952D02*
G01X0124304Y-099971D01*
G01X0124304Y-099971D02*
G01X0124285Y-100009D01*
G01X0124285Y-100009D02*
G01X0124285Y-100085D01*
G01X0124285Y-100085D02*
G01X0124304Y-100123D01*
G01X0124304Y-100123D02*
G01X0124323Y-100142D01*
G01X0124323Y-100142D02*
G01X0124361Y-100161D01*
G01X0124361Y-100161D02*
G01X0124438Y-100161D01*
G01X0124438Y-100161D02*
G01X0124476Y-100142D01*
G01X0124476Y-100142D02*
G01X0124495Y-100123D01*
G01X0124495Y-100123D02*
G01X0124514Y-100085D01*
G01X0124514Y-100085D02*
G01X0124514Y-100009D01*
G01X0124514Y-100009D02*
G01X0124495Y-099971D01*
G01X0124495Y-099971D02*
G01X0124476Y-099952D01*
G01X0124476Y-099952D02*
G01X0124438Y-099933D01*
G01X0123904Y-104111D02*
G01X0123904Y-103711D01*
G01X0123904Y-103711D02*
G01X0124057Y-103711D01*
G01X0124057Y-103711D02*
G01X0124095Y-103730D01*
G01X0124095Y-103730D02*
G01X0124114Y-103750D01*
G01X0124114Y-103750D02*
G01X0124133Y-103788D01*
G01X0124133Y-103788D02*
G01X0124133Y-103845D01*
G01X0124133Y-103845D02*
G01X0124114Y-103883D01*
G01X0124114Y-103883D02*
G01X0124095Y-103902D01*
G01X0124095Y-103902D02*
G01X0124057Y-103921D01*
G01X0124057Y-103921D02*
G01X0123904Y-103921D01*
G01X0124285Y-103750D02*
G01X0124304Y-103730D01*
G01X0124304Y-103730D02*
G01X0124342Y-103711D01*
G01X0124342Y-103711D02*
G01X0124438Y-103711D01*
G01X0124438Y-103711D02*
G01X0124476Y-103730D01*
G01X0124476Y-103730D02*
G01X0124495Y-103750D01*
G01X0124495Y-103750D02*
G01X0124514Y-103788D01*
G01X0124514Y-103788D02*
G01X0124514Y-103826D01*
G01X0124514Y-103826D02*
G01X0124495Y-103883D01*
G01X0124495Y-103883D02*
G01X0124266Y-104111D01*
G01X0124266Y-104111D02*
G01X0124514Y-104111D01*
G54D30*
G01X0127320Y-089999D02*
G01X0127306Y-090014D01*
G01X0127306Y-090014D02*
G01X0127266Y-090029D01*
G01X0127266Y-090029D02*
G01X0127240Y-090029D01*
G01X0127240Y-090029D02*
G01X0127200Y-090014D01*
G01X0127200Y-090014D02*
G01X0127173Y-089983D01*
G01X0127173Y-089983D02*
G01X0127160Y-089953D01*
G01X0127160Y-089953D02*
G01X0127146Y-089892D01*
G01X0127146Y-089892D02*
G01X0127146Y-089846D01*
G01X0127146Y-089846D02*
G01X0127160Y-089785D01*
G01X0127160Y-089785D02*
G01X0127173Y-089755D01*
G01X0127173Y-089755D02*
G01X0127200Y-089724D01*
G01X0127200Y-089724D02*
G01X0127240Y-089709D01*
G01X0127240Y-089709D02*
G01X0127266Y-089709D01*
G01X0127266Y-089709D02*
G01X0127306Y-089724D01*
G01X0127306Y-089724D02*
G01X0127320Y-089740D01*
G01X0127586Y-090029D02*
G01X0127426Y-090029D01*
G01X0127506Y-090029D02*
G01X0127506Y-089709D01*
G01X0127506Y-089709D02*
G01X0127480Y-089755D01*
G01X0127480Y-089755D02*
G01X0127453Y-089785D01*
G01X0127453Y-089785D02*
G01X0127426Y-089800D01*
G01X0127746Y-089846D02*
G01X0127720Y-089831D01*
G01X0127720Y-089831D02*
G01X0127706Y-089816D01*
G01X0127706Y-089816D02*
G01X0127693Y-089785D01*
G01X0127693Y-089785D02*
G01X0127693Y-089770D01*
G01X0127693Y-089770D02*
G01X0127706Y-089740D01*
G01X0127706Y-089740D02*
G01X0127720Y-089724D01*
G01X0127720Y-089724D02*
G01X0127746Y-089709D01*
G01X0127746Y-089709D02*
G01X0127800Y-089709D01*
G01X0127800Y-089709D02*
G01X0127826Y-089724D01*
G01X0127826Y-089724D02*
G01X0127840Y-089740D01*
G01X0127840Y-089740D02*
G01X0127853Y-089770D01*
G01X0127853Y-089770D02*
G01X0127853Y-089785D01*
G01X0127853Y-089785D02*
G01X0127840Y-089816D01*
G01X0127840Y-089816D02*
G01X0127826Y-089831D01*
G01X0127826Y-089831D02*
G01X0127800Y-089846D01*
G01X0127800Y-089846D02*
G01X0127746Y-089846D01*
G01X0127746Y-089846D02*
G01X0127720Y-089861D01*
G01X0127720Y-089861D02*
G01X0127706Y-089877D01*
G01X0127706Y-089877D02*
G01X0127693Y-089907D01*
G01X0127693Y-089907D02*
G01X0127693Y-089968D01*
G01X0127693Y-089968D02*
G01X0127706Y-089999D01*
G01X0127706Y-089999D02*
G01X0127720Y-090014D01*
G01X0127720Y-090014D02*
G01X0127746Y-090029D01*
G01X0127746Y-090029D02*
G01X0127800Y-090029D01*
G01X0127800Y-090029D02*
G01X0127826Y-090014D01*
G01X0127826Y-090014D02*
G01X0127840Y-089999D01*
G01X0127840Y-089999D02*
G01X0127853Y-089968D01*
G01X0127853Y-089968D02*
G01X0127853Y-089907D01*
G01X0127853Y-089907D02*
G01X0127840Y-089877D01*
G01X0127840Y-089877D02*
G01X0127826Y-089861D01*
G01X0127826Y-089861D02*
G01X0127800Y-089846D01*
G54D13*
G01X0127802Y-087983D02*
G01X0127564Y-088150D01*
G01X0127802Y-088269D02*
G01X0127302Y-088269D01*
G01X0127302Y-088269D02*
G01X0127302Y-088078D01*
G01X0127302Y-088078D02*
G01X0127326Y-088030D01*
G01X0127326Y-088030D02*
G01X0127350Y-088007D01*
G01X0127350Y-088007D02*
G01X0127397Y-087983D01*
G01X0127397Y-087983D02*
G01X0127469Y-087983D01*
G01X0127469Y-087983D02*
G01X0127516Y-088007D01*
G01X0127516Y-088007D02*
G01X0127540Y-088030D01*
G01X0127540Y-088030D02*
G01X0127564Y-088078D01*
G01X0127564Y-088078D02*
G01X0127564Y-088269D01*
G01X0127802Y-087745D02*
G01X0127802Y-087650D01*
G01X0127802Y-087650D02*
G01X0127778Y-087602D01*
G01X0127778Y-087602D02*
G01X0127754Y-087578D01*
G01X0127754Y-087578D02*
G01X0127683Y-087530D01*
G01X0127683Y-087530D02*
G01X0127588Y-087507D01*
G01X0127588Y-087507D02*
G01X0127397Y-087507D01*
G01X0127397Y-087507D02*
G01X0127350Y-087530D01*
G01X0127350Y-087530D02*
G01X0127326Y-087554D01*
G01X0127326Y-087554D02*
G01X0127302Y-087602D01*
G01X0127302Y-087602D02*
G01X0127302Y-087697D01*
G01X0127302Y-087697D02*
G01X0127326Y-087745D01*
G01X0127326Y-087745D02*
G01X0127350Y-087769D01*
G01X0127350Y-087769D02*
G01X0127397Y-087792D01*
G01X0127397Y-087792D02*
G01X0127516Y-087792D01*
G01X0127516Y-087792D02*
G01X0127564Y-087769D01*
G01X0127564Y-087769D02*
G01X0127588Y-087745D01*
G01X0127588Y-087745D02*
G01X0127611Y-087697D01*
G01X0127611Y-087697D02*
G01X0127611Y-087602D01*
G01X0127611Y-087602D02*
G01X0127588Y-087554D01*
G01X0127588Y-087554D02*
G01X0127564Y-087530D01*
G01X0127564Y-087530D02*
G01X0127516Y-087507D01*
G01X0130352Y-087921D02*
G01X0130114Y-088088D01*
G01X0130352Y-088207D02*
G01X0129852Y-088207D01*
G01X0129852Y-088207D02*
G01X0129852Y-088016D01*
G01X0129852Y-088016D02*
G01X0129876Y-087969D01*
G01X0129876Y-087969D02*
G01X0129900Y-087945D01*
G01X0129900Y-087945D02*
G01X0129947Y-087921D01*
G01X0129947Y-087921D02*
G01X0130019Y-087921D01*
G01X0130019Y-087921D02*
G01X0130066Y-087945D01*
G01X0130066Y-087945D02*
G01X0130090Y-087969D01*
G01X0130090Y-087969D02*
G01X0130114Y-088016D01*
G01X0130114Y-088016D02*
G01X0130114Y-088207D01*
G01X0129900Y-087730D02*
G01X0129876Y-087707D01*
G01X0129876Y-087707D02*
G01X0129852Y-087659D01*
G01X0129852Y-087659D02*
G01X0129852Y-087540D01*
G01X0129852Y-087540D02*
G01X0129876Y-087492D01*
G01X0129876Y-087492D02*
G01X0129900Y-087469D01*
G01X0129900Y-087469D02*
G01X0129947Y-087445D01*
G01X0129947Y-087445D02*
G01X0129995Y-087445D01*
G01X0129995Y-087445D02*
G01X0130066Y-087469D01*
G01X0130066Y-087469D02*
G01X0130352Y-087754D01*
G01X0130352Y-087754D02*
G01X0130352Y-087445D01*
G01X0130019Y-087016D02*
G01X0130352Y-087016D01*
G01X0129828Y-087135D02*
G01X0130185Y-087254D01*
G01X0130185Y-087254D02*
G01X0130185Y-086945D01*
G54D30*
G01X0126399Y-085946D02*
G01X0126414Y-085959D01*
G01X0126414Y-085959D02*
G01X0126429Y-085999D01*
G01X0126429Y-085999D02*
G01X0126429Y-086026D01*
G01X0126429Y-086026D02*
G01X0126414Y-086066D01*
G01X0126414Y-086066D02*
G01X0126383Y-086093D01*
G01X0126383Y-086093D02*
G01X0126353Y-086106D01*
G01X0126353Y-086106D02*
G01X0126292Y-086119D01*
G01X0126292Y-086119D02*
G01X0126246Y-086119D01*
G01X0126246Y-086119D02*
G01X0126185Y-086106D01*
G01X0126185Y-086106D02*
G01X0126155Y-086093D01*
G01X0126155Y-086093D02*
G01X0126124Y-086066D01*
G01X0126124Y-086066D02*
G01X0126109Y-086026D01*
G01X0126109Y-086026D02*
G01X0126109Y-085999D01*
G01X0126109Y-085999D02*
G01X0126124Y-085959D01*
G01X0126124Y-085959D02*
G01X0126140Y-085946D01*
G01X0126429Y-085679D02*
G01X0126429Y-085839D01*
G01X0126429Y-085759D02*
G01X0126109Y-085759D01*
G01X0126109Y-085759D02*
G01X0126155Y-085786D01*
G01X0126155Y-085786D02*
G01X0126185Y-085813D01*
G01X0126185Y-085813D02*
G01X0126200Y-085839D01*
G01X0129799Y-089746D02*
G01X0129814Y-089759D01*
G01X0129814Y-089759D02*
G01X0129829Y-089799D01*
G01X0129829Y-089799D02*
G01X0129829Y-089826D01*
G01X0129829Y-089826D02*
G01X0129814Y-089866D01*
G01X0129814Y-089866D02*
G01X0129783Y-089893D01*
G01X0129783Y-089893D02*
G01X0129753Y-089906D01*
G01X0129753Y-089906D02*
G01X0129692Y-089919D01*
G01X0129692Y-089919D02*
G01X0129646Y-089919D01*
G01X0129646Y-089919D02*
G01X0129585Y-089906D01*
G01X0129585Y-089906D02*
G01X0129555Y-089893D01*
G01X0129555Y-089893D02*
G01X0129524Y-089866D01*
G01X0129524Y-089866D02*
G01X0129509Y-089826D01*
G01X0129509Y-089826D02*
G01X0129509Y-089799D01*
G01X0129509Y-089799D02*
G01X0129524Y-089759D01*
G01X0129524Y-089759D02*
G01X0129540Y-089746D01*
G01X0129540Y-089639D02*
G01X0129524Y-089626D01*
G01X0129524Y-089626D02*
G01X0129509Y-089599D01*
G01X0129509Y-089599D02*
G01X0129509Y-089533D01*
G01X0129509Y-089533D02*
G01X0129524Y-089506D01*
G01X0129524Y-089506D02*
G01X0129540Y-089493D01*
G01X0129540Y-089493D02*
G01X0129570Y-089479D01*
G01X0129570Y-089479D02*
G01X0129600Y-089479D01*
G01X0129600Y-089479D02*
G01X0129646Y-089493D01*
G01X0129646Y-089493D02*
G01X0129829Y-089653D01*
G01X0129829Y-089653D02*
G01X0129829Y-089479D01*
G01X0146119Y-093276D02*
G01X0146134Y-093289D01*
G01X0146134Y-093289D02*
G01X0146149Y-093329D01*
G01X0146149Y-093329D02*
G01X0146149Y-093356D01*
G01X0146149Y-093356D02*
G01X0146134Y-093396D01*
G01X0146134Y-093396D02*
G01X0146103Y-093423D01*
G01X0146103Y-093423D02*
G01X0146073Y-093436D01*
G01X0146073Y-093436D02*
G01X0146012Y-093449D01*
G01X0146012Y-093449D02*
G01X0145966Y-093449D01*
G01X0145966Y-093449D02*
G01X0145905Y-093436D01*
G01X0145905Y-093436D02*
G01X0145875Y-093423D01*
G01X0145875Y-093423D02*
G01X0145844Y-093396D01*
G01X0145844Y-093396D02*
G01X0145829Y-093356D01*
G01X0145829Y-093356D02*
G01X0145829Y-093329D01*
G01X0145829Y-093329D02*
G01X0145844Y-093289D01*
G01X0145844Y-093289D02*
G01X0145860Y-093276D01*
G01X0145829Y-093023D02*
G01X0145829Y-093156D01*
G01X0145829Y-093156D02*
G01X0145981Y-093169D01*
G01X0145981Y-093169D02*
G01X0145966Y-093156D01*
G01X0145966Y-093156D02*
G01X0145951Y-093129D01*
G01X0145951Y-093129D02*
G01X0145951Y-093063D01*
G01X0145951Y-093063D02*
G01X0145966Y-093036D01*
G01X0145966Y-093036D02*
G01X0145981Y-093023D01*
G01X0145981Y-093023D02*
G01X0146012Y-093009D01*
G01X0146012Y-093009D02*
G01X0146088Y-093009D01*
G01X0146088Y-093009D02*
G01X0146119Y-093023D01*
G01X0146119Y-093023D02*
G01X0146134Y-093036D01*
G01X0146134Y-093036D02*
G01X0146149Y-093063D01*
G01X0146149Y-093063D02*
G01X0146149Y-093129D01*
G01X0146149Y-093129D02*
G01X0146134Y-093156D01*
G01X0146134Y-093156D02*
G01X0146119Y-093169D01*
G01X0147639Y-087496D02*
G01X0147654Y-087509D01*
G01X0147654Y-087509D02*
G01X0147669Y-087549D01*
G01X0147669Y-087549D02*
G01X0147669Y-087576D01*
G01X0147669Y-087576D02*
G01X0147654Y-087616D01*
G01X0147654Y-087616D02*
G01X0147623Y-087643D01*
G01X0147623Y-087643D02*
G01X0147593Y-087656D01*
G01X0147593Y-087656D02*
G01X0147532Y-087669D01*
G01X0147532Y-087669D02*
G01X0147486Y-087669D01*
G01X0147486Y-087669D02*
G01X0147425Y-087656D01*
G01X0147425Y-087656D02*
G01X0147395Y-087643D01*
G01X0147395Y-087643D02*
G01X0147364Y-087616D01*
G01X0147364Y-087616D02*
G01X0147349Y-087576D01*
G01X0147349Y-087576D02*
G01X0147349Y-087549D01*
G01X0147349Y-087549D02*
G01X0147364Y-087509D01*
G01X0147364Y-087509D02*
G01X0147380Y-087496D01*
G01X0147456Y-087256D02*
G01X0147669Y-087256D01*
G01X0147334Y-087323D02*
G01X0147562Y-087389D01*
G01X0147562Y-087389D02*
G01X0147562Y-087216D01*
G54D13*
G01X0142883Y-099332D02*
G01X0142716Y-099094D01*
G01X0142597Y-099332D02*
G01X0142597Y-098832D01*
G01X0142597Y-098832D02*
G01X0142788Y-098832D01*
G01X0142788Y-098832D02*
G01X0142835Y-098856D01*
G01X0142835Y-098856D02*
G01X0142859Y-098880D01*
G01X0142859Y-098880D02*
G01X0142883Y-098927D01*
G01X0142883Y-098927D02*
G01X0142883Y-098999D01*
G01X0142883Y-098999D02*
G01X0142859Y-099046D01*
G01X0142859Y-099046D02*
G01X0142835Y-099070D01*
G01X0142835Y-099070D02*
G01X0142788Y-099094D01*
G01X0142788Y-099094D02*
G01X0142597Y-099094D01*
G01X0143359Y-099332D02*
G01X0143074Y-099332D01*
G01X0143216Y-099332D02*
G01X0143216Y-098832D01*
G01X0143216Y-098832D02*
G01X0143169Y-098903D01*
G01X0143169Y-098903D02*
G01X0143121Y-098951D01*
G01X0143121Y-098951D02*
G01X0143074Y-098975D01*
G01X0143788Y-098999D02*
G01X0143788Y-099332D01*
G01X0143669Y-098808D02*
G01X0143550Y-099165D01*
G01X0143550Y-099165D02*
G01X0143859Y-099165D01*
G54D19*
G01X0122157Y-090558D02*
G01X0122142Y-090575D01*
G01X0122142Y-090575D02*
G01X0122100Y-090591D01*
G01X0122100Y-090591D02*
G01X0122071Y-090591D01*
G01X0122071Y-090591D02*
G01X0122028Y-090575D01*
G01X0122028Y-090575D02*
G01X0122000Y-090541D01*
G01X0122000Y-090541D02*
G01X0121985Y-090508D01*
G01X0121985Y-090508D02*
G01X0121971Y-090441D01*
G01X0121971Y-090441D02*
G01X0121971Y-090391D01*
G01X0121971Y-090391D02*
G01X0121985Y-090325D01*
G01X0121985Y-090325D02*
G01X0122000Y-090291D01*
G01X0122000Y-090291D02*
G01X0122028Y-090258D01*
G01X0122028Y-090258D02*
G01X0122071Y-090241D01*
G01X0122071Y-090241D02*
G01X0122100Y-090241D01*
G01X0122100Y-090241D02*
G01X0122142Y-090258D01*
G01X0122142Y-090258D02*
G01X0122157Y-090275D01*
G01X0122271Y-090275D02*
G01X0122285Y-090258D01*
G01X0122285Y-090258D02*
G01X0122314Y-090241D01*
G01X0122314Y-090241D02*
G01X0122385Y-090241D01*
G01X0122385Y-090241D02*
G01X0122414Y-090258D01*
G01X0122414Y-090258D02*
G01X0122428Y-090275D01*
G01X0122428Y-090275D02*
G01X0122442Y-090308D01*
G01X0122442Y-090308D02*
G01X0122442Y-090341D01*
G01X0122442Y-090341D02*
G01X0122428Y-090391D01*
G01X0122428Y-090391D02*
G01X0122257Y-090591D01*
G01X0122257Y-090591D02*
G01X0122442Y-090591D01*
G01X0122557Y-090275D02*
G01X0122571Y-090258D01*
G01X0122571Y-090258D02*
G01X0122600Y-090241D01*
G01X0122600Y-090241D02*
G01X0122671Y-090241D01*
G01X0122671Y-090241D02*
G01X0122700Y-090258D01*
G01X0122700Y-090258D02*
G01X0122714Y-090275D01*
G01X0122714Y-090275D02*
G01X0122728Y-090308D01*
G01X0122728Y-090308D02*
G01X0122728Y-090341D01*
G01X0122728Y-090341D02*
G01X0122714Y-090391D01*
G01X0122714Y-090391D02*
G01X0122542Y-090591D01*
G01X0122542Y-090591D02*
G01X0122728Y-090591D01*
G54D24*
G01X0146911Y-104495D02*
G01X0146511Y-104495D01*
G01X0146511Y-104495D02*
G01X0146511Y-104342D01*
G01X0146511Y-104342D02*
G01X0146530Y-104304D01*
G01X0146530Y-104304D02*
G01X0146550Y-104285D01*
G01X0146550Y-104285D02*
G01X0146588Y-104266D01*
G01X0146588Y-104266D02*
G01X0146645Y-104266D01*
G01X0146645Y-104266D02*
G01X0146683Y-104285D01*
G01X0146683Y-104285D02*
G01X0146702Y-104304D01*
G01X0146702Y-104304D02*
G01X0146721Y-104342D01*
G01X0146721Y-104342D02*
G01X0146721Y-104495D01*
G01X0146511Y-104133D02*
G01X0146511Y-103885D01*
G01X0146511Y-103885D02*
G01X0146664Y-104019D01*
G01X0146664Y-104019D02*
G01X0146664Y-103961D01*
G01X0146664Y-103961D02*
G01X0146683Y-103923D01*
G01X0146683Y-103923D02*
G01X0146702Y-103904D01*
G01X0146702Y-103904D02*
G01X0146740Y-103885D01*
G01X0146740Y-103885D02*
G01X0146835Y-103885D01*
G01X0146835Y-103885D02*
G01X0146873Y-103904D01*
G01X0146873Y-103904D02*
G01X0146892Y-103923D01*
G01X0146892Y-103923D02*
G01X0146911Y-103961D01*
G01X0146911Y-103961D02*
G01X0146911Y-104076D01*
G01X0146911Y-104076D02*
G01X0146892Y-104114D01*
G01X0146892Y-104114D02*
G01X0146873Y-104133D01*
G54D19*
G01X0119857Y-087158D02*
G01X0119842Y-087175D01*
G01X0119842Y-087175D02*
G01X0119800Y-087191D01*
G01X0119800Y-087191D02*
G01X0119771Y-087191D01*
G01X0119771Y-087191D02*
G01X0119728Y-087175D01*
G01X0119728Y-087175D02*
G01X0119700Y-087141D01*
G01X0119700Y-087141D02*
G01X0119685Y-087108D01*
G01X0119685Y-087108D02*
G01X0119671Y-087041D01*
G01X0119671Y-087041D02*
G01X0119671Y-086991D01*
G01X0119671Y-086991D02*
G01X0119685Y-086925D01*
G01X0119685Y-086925D02*
G01X0119700Y-086891D01*
G01X0119700Y-086891D02*
G01X0119728Y-086858D01*
G01X0119728Y-086858D02*
G01X0119771Y-086841D01*
G01X0119771Y-086841D02*
G01X0119800Y-086841D01*
G01X0119800Y-086841D02*
G01X0119842Y-086858D01*
G01X0119842Y-086858D02*
G01X0119857Y-086875D01*
G01X0119971Y-086875D02*
G01X0119985Y-086858D01*
G01X0119985Y-086858D02*
G01X0120014Y-086841D01*
G01X0120014Y-086841D02*
G01X0120085Y-086841D01*
G01X0120085Y-086841D02*
G01X0120114Y-086858D01*
G01X0120114Y-086858D02*
G01X0120128Y-086875D01*
G01X0120128Y-086875D02*
G01X0120142Y-086908D01*
G01X0120142Y-086908D02*
G01X0120142Y-086941D01*
G01X0120142Y-086941D02*
G01X0120128Y-086991D01*
G01X0120128Y-086991D02*
G01X0119957Y-087191D01*
G01X0119957Y-087191D02*
G01X0120142Y-087191D01*
G01X0120328Y-086841D02*
G01X0120357Y-086841D01*
G01X0120357Y-086841D02*
G01X0120385Y-086858D01*
G01X0120385Y-086858D02*
G01X0120400Y-086875D01*
G01X0120400Y-086875D02*
G01X0120414Y-086908D01*
G01X0120414Y-086908D02*
G01X0120428Y-086975D01*
G01X0120428Y-086975D02*
G01X0120428Y-087058D01*
G01X0120428Y-087058D02*
G01X0120414Y-087125D01*
G01X0120414Y-087125D02*
G01X0120400Y-087158D01*
G01X0120400Y-087158D02*
G01X0120385Y-087175D01*
G01X0120385Y-087175D02*
G01X0120357Y-087191D01*
G01X0120357Y-087191D02*
G01X0120328Y-087191D01*
G01X0120328Y-087191D02*
G01X0120300Y-087175D01*
G01X0120300Y-087175D02*
G01X0120285Y-087158D01*
G01X0120285Y-087158D02*
G01X0120271Y-087125D01*
G01X0120271Y-087125D02*
G01X0120257Y-087058D01*
G01X0120257Y-087058D02*
G01X0120257Y-086975D01*
G01X0120257Y-086975D02*
G01X0120271Y-086908D01*
G01X0120271Y-086908D02*
G01X0120285Y-086875D01*
G01X0120285Y-086875D02*
G01X0120300Y-086858D01*
G01X0120300Y-086858D02*
G01X0120328Y-086841D01*
M02*
