G04 (created by PCBNEW (2013-07-07 BZR 4022)-stable) date 10/24/2016 8:05:54 PM*
%MOIN*%
G04 Gerber Fmt 3.4, Leading zero omitted, Abs format*
%FSLAX34Y34*%
G01*
G70*
G90*
G04 APERTURE LIST*
%ADD10C,0.00590551*%
%ADD11C,0.055*%
%ADD12R,0.06X0.06*%
%ADD13C,0.06*%
%ADD14R,0.055X0.055*%
%ADD15C,0.035*%
%ADD16C,0.019685*%
%ADD17C,0.023622*%
%ADD18C,0.00984252*%
%ADD19C,0.017*%
%ADD20C,0.0393701*%
%ADD21C,0.0295276*%
%ADD22C,0.0255906*%
%ADD23C,0.0149606*%
%ADD24C,0.0629921*%
%ADD25C,0.0492126*%
%ADD26C,0.00866142*%
%ADD27C,0.01*%
G04 APERTURE END LIST*
G54D10*
G54D11*
X122620Y-109064D03*
X122620Y-107064D03*
X125620Y-109064D03*
X125620Y-107064D03*
G54D12*
X126050Y-112660D03*
G54D13*
X126050Y-111660D03*
X127050Y-112660D03*
X127050Y-111660D03*
X128050Y-112660D03*
X128050Y-111660D03*
X129050Y-112660D03*
X129050Y-111660D03*
X130050Y-112660D03*
X130050Y-111660D03*
G54D11*
X122925Y-94294D03*
X122925Y-96294D03*
X119925Y-94294D03*
X119925Y-96294D03*
X121825Y-107044D03*
X121825Y-109044D03*
X118825Y-107044D03*
X118825Y-109044D03*
G54D14*
X118955Y-93400D03*
G54D11*
X118955Y-94400D03*
X118955Y-95400D03*
X118955Y-96400D03*
X118955Y-97400D03*
X118955Y-98400D03*
X145509Y-97098D03*
X145509Y-99020D03*
G54D12*
X119600Y-101800D03*
G54D13*
X119600Y-100800D03*
X120600Y-101800D03*
X120600Y-100800D03*
X121600Y-101800D03*
X121600Y-100800D03*
X122600Y-101800D03*
X122600Y-100800D03*
X123600Y-101800D03*
X123600Y-100800D03*
X124600Y-101800D03*
X124600Y-100800D03*
X125600Y-101800D03*
X125600Y-100800D03*
X126600Y-101800D03*
X126600Y-100800D03*
X127600Y-101800D03*
X127600Y-100800D03*
X128600Y-101800D03*
X128600Y-100800D03*
G54D12*
X119600Y-105750D03*
G54D13*
X119600Y-104750D03*
X120600Y-105750D03*
X120600Y-104750D03*
X121600Y-105750D03*
X121600Y-104750D03*
X122600Y-105750D03*
X122600Y-104750D03*
X123600Y-105750D03*
X123600Y-104750D03*
X124600Y-105750D03*
X124600Y-104750D03*
X125600Y-105750D03*
X125600Y-104750D03*
X126600Y-105750D03*
X126600Y-104750D03*
X127600Y-105750D03*
X127600Y-104750D03*
X128600Y-105750D03*
X128600Y-104750D03*
G54D12*
X142500Y-112670D03*
G54D13*
X143500Y-112670D03*
X144500Y-112670D03*
X145500Y-112670D03*
X146500Y-112670D03*
G54D12*
X148540Y-105715D03*
G54D13*
X147540Y-105715D03*
X148540Y-104715D03*
X147540Y-104715D03*
X148540Y-103715D03*
X147540Y-103715D03*
X148540Y-102715D03*
X147540Y-102715D03*
G54D12*
X118950Y-90400D03*
G54D13*
X118950Y-91400D03*
X118950Y-92400D03*
G54D15*
X123800Y-89350D03*
X123800Y-89800D03*
X123300Y-89350D03*
X121100Y-89400D03*
X120700Y-89400D03*
X120300Y-89400D03*
X120300Y-89800D03*
X123300Y-89800D03*
X123800Y-90250D03*
X123800Y-91600D03*
X123800Y-92050D03*
X123800Y-90700D03*
X123800Y-91150D03*
X122800Y-90250D03*
X123300Y-90250D03*
X124494Y-92970D03*
G54D16*
X141450Y-102425D03*
X142120Y-97930D03*
X138214Y-97252D03*
G54D17*
X137751Y-105285D03*
G54D16*
X141080Y-102505D03*
X142215Y-106985D03*
G54D17*
X136168Y-88912D03*
G54D16*
X142000Y-103520D03*
X127307Y-98532D03*
G54D17*
X137974Y-107114D03*
X138774Y-107170D03*
G54D16*
X141380Y-104595D03*
X139710Y-105050D03*
X141005Y-104225D03*
X126960Y-109160D03*
G54D17*
X139822Y-104002D03*
G54D16*
X120590Y-107830D03*
X141125Y-103710D03*
X140940Y-103400D03*
X120410Y-107420D03*
X138978Y-105760D03*
X127550Y-109020D03*
X135700Y-102040D03*
X141315Y-101890D03*
X132440Y-99820D03*
X133780Y-97520D03*
X130450Y-101290D03*
X129532Y-102400D03*
X130970Y-105325D03*
X130500Y-105400D03*
X130150Y-105635D03*
X130770Y-106510D03*
X132360Y-107090D03*
X128950Y-106485D03*
X132560Y-106820D03*
G54D17*
X126440Y-107303D03*
X134048Y-108027D03*
G54D16*
X132560Y-106530D03*
X132560Y-106220D03*
X132858Y-104352D03*
G54D17*
X134596Y-108083D03*
G54D16*
X133290Y-104010D03*
X137840Y-106155D03*
X136835Y-108270D03*
G54D15*
X146290Y-103870D03*
X143620Y-105305D03*
G54D16*
X123195Y-97055D03*
X125330Y-99865D03*
X124985Y-99845D03*
G54D15*
X129000Y-88450D03*
X128600Y-88450D03*
X128200Y-89650D03*
X128600Y-89650D03*
X126300Y-88900D03*
X126700Y-88900D03*
X126700Y-89350D03*
X128200Y-89300D03*
X128600Y-88900D03*
X128200Y-88900D03*
X128600Y-89300D03*
X131110Y-103075D03*
X120380Y-95475D03*
X128235Y-97705D03*
X135975Y-106575D03*
X133514Y-99832D03*
X125900Y-88900D03*
X129000Y-88900D03*
X127550Y-88650D03*
X141290Y-110230D03*
X134715Y-94930D03*
X137614Y-92774D03*
X137770Y-96544D03*
X142390Y-99880D03*
X143530Y-102410D03*
X139094Y-104506D03*
X138400Y-106735D03*
X135164Y-106825D03*
X136525Y-99814D03*
X132844Y-101016D03*
X134384Y-101466D03*
X142115Y-89755D03*
X134535Y-105864D03*
X146150Y-111625D03*
X143455Y-106914D03*
X138905Y-100925D03*
X140420Y-98244D03*
X134874Y-93074D03*
X135390Y-94070D03*
X137559Y-94025D03*
X139409Y-101700D03*
X133229Y-106779D03*
X132650Y-105029D03*
X138974Y-99950D03*
X135564Y-100385D03*
X139470Y-102714D03*
G54D16*
X141540Y-108950D03*
X144740Y-111370D03*
X131940Y-99565D03*
X121390Y-108280D03*
X139230Y-109020D03*
X138040Y-86155D03*
X137700Y-87365D03*
X139700Y-87360D03*
X129210Y-97445D03*
X128900Y-96870D03*
X142125Y-95940D03*
X130015Y-98935D03*
X137670Y-109980D03*
X140560Y-107695D03*
X130810Y-111705D03*
X128765Y-110560D03*
X144625Y-110560D03*
G54D17*
X140314Y-107317D03*
G54D16*
X129120Y-110755D03*
X144405Y-110840D03*
X141760Y-108580D03*
G54D15*
X127250Y-94200D03*
X127700Y-94200D03*
X127250Y-93750D03*
X127700Y-93750D03*
X129550Y-93750D03*
X129550Y-94200D03*
X129150Y-93750D03*
X126650Y-91550D03*
X126250Y-91550D03*
X127100Y-91550D03*
X135500Y-105200D03*
X136800Y-101350D03*
X136800Y-100900D03*
X132525Y-102630D03*
X128150Y-94200D03*
X128600Y-93750D03*
X128150Y-93750D03*
X128600Y-94200D03*
X129154Y-94198D03*
X137259Y-101335D03*
X137920Y-103074D03*
X134200Y-99935D03*
X135994Y-99959D03*
X145415Y-86950D03*
X143240Y-93220D03*
X146660Y-92355D03*
X147200Y-95440D03*
X123150Y-99950D03*
X123150Y-99550D03*
X138050Y-85500D03*
X137600Y-85500D03*
X130350Y-90850D03*
X130350Y-90450D03*
X119050Y-86150D03*
X118650Y-85750D03*
X118650Y-85350D03*
X119050Y-85350D03*
X119050Y-85750D03*
X118650Y-86150D03*
X140000Y-107750D03*
X147150Y-97100D03*
X147550Y-96650D03*
X147550Y-96200D03*
X147150Y-96650D03*
X147550Y-97100D03*
X147142Y-96192D03*
X141300Y-88200D03*
X129450Y-85350D03*
X129850Y-85350D03*
X129050Y-85350D03*
X129850Y-86300D03*
X129850Y-85850D03*
X142200Y-88200D03*
X141750Y-88200D03*
X148950Y-88250D03*
X148950Y-87450D03*
X148950Y-87850D03*
X148950Y-88650D03*
X146600Y-85500D03*
X147200Y-86100D03*
X146900Y-85800D03*
X147500Y-86400D03*
X127160Y-96935D03*
X148800Y-111200D03*
X148450Y-111550D03*
X148500Y-110850D03*
X148100Y-111900D03*
X148100Y-111200D03*
X118825Y-110900D03*
X118825Y-110445D03*
X119300Y-110450D03*
X119300Y-110900D03*
X129040Y-86290D03*
X129450Y-85850D03*
X129050Y-85850D03*
X129450Y-86300D03*
X127555Y-106820D03*
X127250Y-106510D03*
X125225Y-96140D03*
X126680Y-96230D03*
X135335Y-102530D03*
X136156Y-104496D03*
X144935Y-112035D03*
X140317Y-99217D03*
X138225Y-99760D03*
X143120Y-98250D03*
X141860Y-104350D03*
X146299Y-109760D03*
X141980Y-90550D03*
X129945Y-95965D03*
X123125Y-97635D03*
X133925Y-96990D03*
X141460Y-103370D03*
X143464Y-91688D03*
X146630Y-102215D03*
X137930Y-105762D03*
G54D17*
X135719Y-92566D03*
X134397Y-92450D03*
X133776Y-104080D03*
G54D16*
X120965Y-110935D03*
X122040Y-110935D03*
G54D15*
X124752Y-86216D03*
X130195Y-106630D03*
G54D17*
X133377Y-103342D03*
X139773Y-110106D03*
X143939Y-109269D03*
G54D16*
X131020Y-106810D03*
X132370Y-98330D03*
X126170Y-99510D03*
X139200Y-87360D03*
X136200Y-91290D03*
X123140Y-110945D03*
X124330Y-110940D03*
X132200Y-95260D03*
X136810Y-89080D03*
X138200Y-87360D03*
X136765Y-90810D03*
X127080Y-99180D03*
X129630Y-96550D03*
X138700Y-87360D03*
X136110Y-90665D03*
X131700Y-96730D03*
X134720Y-90665D03*
G54D17*
X145186Y-91514D03*
G54D16*
X120050Y-98210D03*
G54D17*
X146323Y-105151D03*
X145051Y-95297D03*
X146100Y-104780D03*
G54D16*
X145035Y-88940D03*
X145050Y-89440D03*
G54D18*
X120700Y-89400D02*
X120300Y-89400D01*
X124300Y-92450D02*
X124000Y-92450D01*
X124494Y-92970D02*
X124494Y-92455D01*
X124494Y-92455D02*
X124500Y-92450D01*
X124500Y-92450D02*
X124300Y-92450D01*
X123800Y-92250D02*
X123800Y-92050D01*
X124000Y-92450D02*
X123800Y-92250D01*
G54D19*
X122359Y-92970D02*
X122359Y-92990D01*
X122044Y-93305D02*
X122044Y-94055D01*
X122359Y-92990D02*
X122044Y-93305D01*
G54D20*
X122044Y-94055D02*
X122044Y-99779D01*
X122044Y-99779D02*
X121974Y-99850D01*
X121974Y-99850D02*
X121164Y-99850D01*
X121164Y-99850D02*
X120909Y-100105D01*
X120909Y-100105D02*
X120909Y-100490D01*
X120909Y-100490D02*
X120600Y-100800D01*
X123690Y-92970D02*
X122359Y-92970D01*
G54D21*
X119600Y-100800D02*
X119600Y-101800D01*
G54D20*
X123690Y-92970D02*
X124494Y-92970D01*
G54D21*
X120600Y-100800D02*
X120600Y-101800D01*
X120600Y-101800D02*
X119600Y-101800D01*
G54D18*
X118950Y-92400D02*
X118850Y-92400D01*
X118400Y-106619D02*
X118825Y-107044D01*
X118400Y-92850D02*
X118400Y-106619D01*
X118850Y-92400D02*
X118400Y-92850D01*
X130150Y-105635D02*
X130150Y-105650D01*
X129230Y-108295D02*
X127215Y-108295D01*
X132360Y-107095D02*
X131160Y-108295D01*
X132360Y-107090D02*
X132360Y-107095D01*
X131160Y-108295D02*
X129230Y-108295D01*
X125095Y-101305D02*
X125600Y-100800D01*
X125095Y-102375D02*
X125095Y-101305D01*
X124100Y-103370D02*
X125095Y-102375D01*
X124100Y-108590D02*
X124100Y-103370D01*
X125055Y-109545D02*
X124100Y-108590D01*
X125965Y-109545D02*
X125055Y-109545D01*
X127215Y-108295D02*
X125965Y-109545D01*
X131735Y-106820D02*
X131035Y-106120D01*
X131035Y-106120D02*
X129315Y-106120D01*
X129315Y-106120D02*
X128950Y-106485D01*
X132560Y-106820D02*
X131735Y-106820D01*
G54D22*
X146290Y-103870D02*
X146290Y-103910D01*
X147275Y-105715D02*
X147540Y-105715D01*
X146785Y-105225D02*
X147275Y-105715D01*
X146785Y-104405D02*
X146785Y-105225D01*
X146290Y-103910D02*
X146785Y-104405D01*
G54D21*
X146290Y-103870D02*
X145055Y-103870D01*
X145055Y-103870D02*
X143620Y-105305D01*
G54D22*
X132550Y-103279D02*
X131314Y-103279D01*
X131314Y-103279D02*
X131110Y-103075D01*
G54D18*
X132600Y-103279D02*
X132550Y-103279D01*
G54D21*
X133614Y-102584D02*
X133614Y-102614D01*
X132950Y-103279D02*
X133614Y-102614D01*
X132600Y-103279D02*
X132950Y-103279D01*
G54D18*
X131314Y-103279D02*
X131110Y-103075D01*
G54D19*
X120380Y-95475D02*
X120030Y-95475D01*
X120030Y-95475D02*
X118955Y-94400D01*
X128027Y-98377D02*
X128027Y-97912D01*
G54D21*
X128027Y-99922D02*
X128027Y-98377D01*
G54D19*
X128027Y-97912D02*
X128235Y-97705D01*
G54D22*
X127850Y-109500D02*
X131800Y-109500D01*
X133229Y-106779D02*
X133229Y-108070D01*
X133229Y-108070D02*
X131800Y-109500D01*
X127850Y-109500D02*
X126050Y-111300D01*
X126050Y-111300D02*
X126050Y-111660D01*
G54D19*
X132844Y-101016D02*
X133419Y-101016D01*
X133419Y-101016D02*
X133614Y-100820D01*
G54D18*
X135975Y-106575D02*
X135690Y-106575D01*
X135680Y-106565D02*
X135680Y-106565D01*
X135690Y-106575D02*
X135680Y-106565D01*
G54D21*
X133514Y-99832D02*
X133514Y-100719D01*
X133514Y-100719D02*
X133614Y-100820D01*
G54D18*
X129000Y-88900D02*
X127945Y-88900D01*
X126385Y-89385D02*
X125900Y-88900D01*
X127460Y-89385D02*
X126385Y-89385D01*
X127945Y-88900D02*
X127460Y-89385D01*
G54D20*
X132494Y-87885D02*
X130014Y-87885D01*
X133635Y-87885D02*
X135585Y-89835D01*
X135585Y-89835D02*
X137175Y-89835D01*
X138864Y-91524D02*
X137175Y-89835D01*
X132494Y-87885D02*
X133635Y-87885D01*
X130014Y-87885D02*
X129000Y-88900D01*
G54D19*
X126050Y-111660D02*
X126050Y-111300D01*
X131800Y-109500D02*
X133229Y-108070D01*
X126050Y-111300D02*
X127850Y-109500D01*
G54D21*
X137479Y-106735D02*
X136508Y-106735D01*
X136508Y-106735D02*
X136524Y-106720D01*
X141640Y-109879D02*
X141290Y-110230D01*
X141640Y-109879D02*
X142264Y-109879D01*
X143455Y-106914D02*
X143455Y-108689D01*
X143455Y-108689D02*
X142264Y-109879D01*
X138400Y-106735D02*
X138400Y-106700D01*
X141750Y-107490D02*
X142880Y-107490D01*
X140620Y-106360D02*
X141750Y-107490D01*
X138740Y-106360D02*
X140620Y-106360D01*
X138400Y-106700D02*
X138740Y-106360D01*
X130322Y-99922D02*
X128027Y-99922D01*
X128027Y-99922D02*
X128025Y-99925D01*
X132844Y-101016D02*
X131416Y-101016D01*
X131416Y-101016D02*
X130322Y-99922D01*
G54D23*
X134715Y-94930D02*
X134715Y-94745D01*
X134715Y-94745D02*
X135390Y-94070D01*
G54D24*
X137555Y-96109D02*
X137555Y-96329D01*
X137555Y-96329D02*
X137770Y-96544D01*
G54D21*
X142359Y-109879D02*
X144899Y-109879D01*
X146150Y-111130D02*
X146150Y-111625D01*
X144899Y-109879D02*
X146150Y-111130D01*
X142264Y-109879D02*
X142359Y-109879D01*
X127600Y-100350D02*
X127600Y-100800D01*
X128025Y-99925D02*
X127600Y-100350D01*
G54D25*
X135164Y-106825D02*
X135940Y-106825D01*
X135940Y-106825D02*
X135964Y-106850D01*
X140472Y-99967D02*
X142302Y-99967D01*
X142302Y-99967D02*
X142390Y-99880D01*
X139902Y-99967D02*
X140472Y-99967D01*
X140895Y-98719D02*
X140420Y-98244D01*
X140895Y-99545D02*
X140895Y-98719D01*
X140472Y-99967D02*
X140895Y-99545D01*
X137555Y-96109D02*
X138679Y-96109D01*
X138679Y-96109D02*
X140420Y-97850D01*
X140420Y-97850D02*
X140420Y-98244D01*
X137614Y-92774D02*
X138864Y-91524D01*
X138864Y-91524D02*
X140132Y-90257D01*
X137614Y-92774D02*
X137614Y-93970D01*
X137614Y-93970D02*
X137559Y-94025D01*
X137555Y-96109D02*
X137555Y-94029D01*
X137555Y-94029D02*
X137559Y-94025D01*
X142115Y-89755D02*
X140634Y-89755D01*
X140634Y-89755D02*
X140132Y-90257D01*
G54D22*
X142390Y-99880D02*
X142390Y-101270D01*
X142390Y-101270D02*
X143530Y-102410D01*
X139409Y-101700D02*
X139550Y-101700D01*
X141370Y-99880D02*
X142390Y-99880D01*
G54D23*
X142390Y-101270D02*
X143530Y-102410D01*
G54D25*
X134535Y-105864D02*
X134535Y-105904D01*
X133660Y-106779D02*
X133229Y-106779D01*
X134535Y-105904D02*
X133660Y-106779D01*
G54D22*
X135964Y-106850D02*
X136394Y-106850D01*
X136394Y-106850D02*
X136524Y-106720D01*
X137479Y-106735D02*
X138400Y-106735D01*
X133229Y-106779D02*
X133505Y-106779D01*
X135940Y-106825D02*
X135964Y-106850D01*
X138974Y-99950D02*
X138974Y-100855D01*
X138974Y-100855D02*
X138905Y-100925D01*
X136525Y-99814D02*
X136525Y-99741D01*
X135406Y-100226D02*
X135564Y-100385D01*
X135406Y-99634D02*
X135406Y-100226D01*
X135616Y-99424D02*
X135406Y-99634D01*
X136208Y-99424D02*
X135616Y-99424D01*
X136525Y-99741D02*
X136208Y-99424D01*
X138905Y-100925D02*
X138905Y-101195D01*
X138905Y-101195D02*
X139409Y-101700D01*
G54D21*
X134392Y-100820D02*
X134392Y-101458D01*
X134392Y-101458D02*
X134384Y-101466D01*
X133946Y-104814D02*
X134080Y-104814D01*
X134410Y-103380D02*
X133614Y-102584D01*
X134410Y-104484D02*
X134410Y-103380D01*
X134080Y-104814D02*
X134410Y-104484D01*
X134535Y-105864D02*
X134535Y-105403D01*
X132865Y-104814D02*
X132650Y-105029D01*
X133946Y-104814D02*
X132865Y-104814D01*
X134535Y-105403D02*
X133946Y-104814D01*
X134535Y-105864D02*
X134979Y-105864D01*
X134979Y-105864D02*
X135680Y-106565D01*
X135680Y-106565D02*
X135964Y-106850D01*
X139470Y-102714D02*
X139470Y-102440D01*
X139470Y-102440D02*
X139409Y-102379D01*
X139409Y-102379D02*
X139409Y-101700D01*
X140132Y-90257D02*
X140285Y-90104D01*
X140634Y-89755D02*
X140285Y-90104D01*
G54D22*
X135390Y-94070D02*
X135324Y-94070D01*
G54D21*
X142880Y-107490D02*
X143455Y-106914D01*
G54D22*
X134874Y-93074D02*
X134874Y-93555D01*
X134874Y-93555D02*
X135390Y-94070D01*
G54D21*
X138944Y-100925D02*
X139902Y-99967D01*
X138905Y-100925D02*
X138944Y-100925D01*
G54D22*
X137614Y-93970D02*
X137559Y-94025D01*
G54D21*
X133614Y-100820D02*
X134392Y-100820D01*
X134392Y-100820D02*
X135129Y-100820D01*
X135129Y-100820D02*
X135564Y-100385D01*
X133614Y-102584D02*
X133614Y-100820D01*
X139470Y-102714D02*
X139409Y-102714D01*
X139470Y-102714D02*
X139409Y-102714D01*
X136855Y-102544D02*
X135129Y-100820D01*
X138364Y-102544D02*
X136855Y-102544D01*
X138535Y-102714D02*
X138364Y-102544D01*
X139409Y-102714D02*
X138535Y-102714D01*
G54D18*
X144740Y-111370D02*
X144740Y-111450D01*
X130140Y-110570D02*
X129050Y-111660D01*
X135530Y-110570D02*
X130140Y-110570D01*
X136475Y-111515D02*
X135530Y-110570D01*
X143315Y-111515D02*
X136475Y-111515D01*
X143660Y-111860D02*
X143315Y-111515D01*
X144330Y-111860D02*
X143660Y-111860D01*
X144740Y-111450D02*
X144330Y-111860D01*
X135835Y-109985D02*
X128795Y-109985D01*
X128795Y-109985D02*
X128345Y-110435D01*
X128345Y-110435D02*
X128345Y-111140D01*
X128345Y-111140D02*
X128545Y-111340D01*
X128545Y-111340D02*
X128545Y-111905D01*
X128545Y-111905D02*
X128780Y-112140D01*
X128780Y-112140D02*
X130375Y-112140D01*
X130810Y-111705D02*
X130375Y-112140D01*
X137665Y-109985D02*
X137670Y-109980D01*
X135835Y-109985D02*
X137665Y-109985D01*
X143860Y-110560D02*
X143370Y-111050D01*
X143370Y-111050D02*
X136625Y-111050D01*
X136625Y-111050D02*
X135790Y-110215D01*
X135790Y-110215D02*
X129110Y-110215D01*
X129110Y-110215D02*
X128765Y-110560D01*
X144625Y-110560D02*
X143860Y-110560D01*
X144405Y-110840D02*
X144030Y-110840D01*
X129490Y-110385D02*
X129120Y-110755D01*
X135665Y-110385D02*
X129490Y-110385D01*
X136585Y-111305D02*
X135665Y-110385D01*
X143565Y-111305D02*
X136585Y-111305D01*
X144030Y-110840D02*
X143565Y-111305D01*
X128150Y-94200D02*
X128600Y-94200D01*
X128600Y-93750D02*
X128600Y-94200D01*
G54D24*
X129154Y-94198D02*
X132700Y-94198D01*
X137259Y-98757D02*
X137259Y-98840D01*
X132700Y-94198D02*
X137259Y-98757D01*
X137259Y-98840D02*
X137259Y-101335D01*
G54D21*
X146660Y-89520D02*
X145415Y-88275D01*
X145415Y-88275D02*
X145415Y-86950D01*
X145415Y-86950D02*
X145415Y-86920D01*
X146660Y-92355D02*
X146660Y-89520D01*
X143240Y-93220D02*
X145795Y-93220D01*
X145795Y-93220D02*
X146660Y-92355D01*
X147200Y-95440D02*
X147200Y-92895D01*
X147200Y-92895D02*
X146660Y-92355D01*
G54D18*
X123150Y-99950D02*
X123150Y-99550D01*
X125620Y-109064D02*
X125620Y-108479D01*
X126300Y-107800D02*
X127750Y-107800D01*
X125620Y-108479D02*
X126300Y-107800D01*
X122620Y-109064D02*
X122620Y-109559D01*
X121735Y-110445D02*
X118825Y-110445D01*
X122620Y-109559D02*
X121735Y-110445D01*
X147540Y-102715D02*
X148540Y-102715D01*
X146630Y-102215D02*
X148040Y-102215D01*
X148040Y-102215D02*
X148540Y-102715D01*
X141460Y-103370D02*
X141460Y-103950D01*
X141460Y-103950D02*
X141860Y-104350D01*
X123125Y-97635D02*
X123125Y-99465D01*
X123125Y-99465D02*
X123090Y-99500D01*
X141850Y-102980D02*
X141460Y-103370D01*
X143285Y-103225D02*
X143040Y-102980D01*
X143040Y-102980D02*
X142400Y-102980D01*
X141850Y-102980D02*
X142400Y-102980D01*
X143285Y-103225D02*
X144375Y-103225D01*
X144375Y-103225D02*
X144380Y-103220D01*
X142275Y-105325D02*
X142275Y-104235D01*
X142275Y-104235D02*
X143285Y-103225D01*
X145690Y-101910D02*
X146325Y-101910D01*
X140696Y-105612D02*
X139560Y-105612D01*
X139560Y-105612D02*
X139258Y-105310D01*
X139258Y-105310D02*
X138382Y-105310D01*
X138382Y-105310D02*
X137930Y-105762D01*
X141988Y-105612D02*
X140696Y-105612D01*
X141988Y-105612D02*
X142275Y-105325D01*
X144380Y-103220D02*
X145690Y-101910D01*
X146630Y-102215D02*
X146325Y-101910D01*
X128600Y-105750D02*
X128600Y-106950D01*
X128600Y-106950D02*
X127750Y-107800D01*
X128600Y-104750D02*
X128600Y-105750D01*
X128600Y-100800D02*
X128600Y-101300D01*
X128600Y-101800D02*
X128600Y-104750D01*
X121825Y-109044D02*
X118825Y-109044D01*
X118825Y-109044D02*
X118825Y-108214D01*
X118620Y-99640D02*
X120050Y-98210D01*
X118620Y-105950D02*
X118620Y-99640D01*
X119460Y-106790D02*
X118620Y-105950D01*
X119460Y-107580D02*
X119460Y-106790D01*
X118825Y-108214D02*
X119460Y-107580D01*
G54D10*
G36*
X137756Y-101756D02*
X136867Y-101756D01*
X136343Y-101232D01*
X136343Y-100867D01*
X136830Y-100380D01*
X136943Y-100267D01*
X136943Y-100100D01*
X136943Y-99632D01*
X136843Y-99532D01*
X136843Y-98981D01*
X132617Y-94956D01*
X129956Y-94956D01*
X129956Y-95356D01*
X123843Y-95356D01*
X123843Y-94243D01*
X124843Y-94243D01*
X124843Y-93817D01*
X125243Y-93417D01*
X125243Y-93000D01*
X125243Y-91800D01*
X125243Y-91600D01*
X125243Y-91343D01*
X126200Y-91343D01*
X127200Y-91343D01*
X128356Y-91343D01*
X128356Y-92400D01*
X128356Y-93043D01*
X132756Y-93043D01*
X132756Y-93817D01*
X134169Y-95230D01*
X137756Y-98817D01*
X137756Y-101756D01*
X137756Y-101756D01*
G37*
G54D26*
X137756Y-101756D02*
X136867Y-101756D01*
X136343Y-101232D01*
X136343Y-100867D01*
X136830Y-100380D01*
X136943Y-100267D01*
X136943Y-100100D01*
X136943Y-99632D01*
X136843Y-99532D01*
X136843Y-98981D01*
X132617Y-94956D01*
X129956Y-94956D01*
X129956Y-95356D01*
X123843Y-95356D01*
X123843Y-94243D01*
X124843Y-94243D01*
X124843Y-93817D01*
X125243Y-93417D01*
X125243Y-93000D01*
X125243Y-91800D01*
X125243Y-91600D01*
X125243Y-91343D01*
X126200Y-91343D01*
X127200Y-91343D01*
X128356Y-91343D01*
X128356Y-92400D01*
X128356Y-93043D01*
X132756Y-93043D01*
X132756Y-93817D01*
X134169Y-95230D01*
X137756Y-98817D01*
X137756Y-101756D01*
G54D10*
G36*
X124750Y-93250D02*
X124481Y-93250D01*
X124131Y-93550D01*
X122626Y-93550D01*
X122350Y-93881D01*
X122350Y-99779D01*
X121979Y-100150D01*
X121322Y-100150D01*
X120950Y-100735D01*
X120950Y-102250D01*
X119150Y-102250D01*
X119150Y-100220D01*
X119570Y-99800D01*
X120520Y-99800D01*
X121550Y-98770D01*
X121550Y-92820D01*
X121950Y-92420D01*
X121950Y-91900D01*
X121950Y-90650D01*
X120050Y-90650D01*
X120050Y-89050D01*
X124300Y-89050D01*
X124750Y-89050D01*
X124750Y-91950D01*
X124750Y-93250D01*
X124750Y-93250D01*
G37*
G54D27*
X124750Y-93250D02*
X124481Y-93250D01*
X124131Y-93550D01*
X122626Y-93550D01*
X122350Y-93881D01*
X122350Y-99779D01*
X121979Y-100150D01*
X121322Y-100150D01*
X120950Y-100735D01*
X120950Y-102250D01*
X119150Y-102250D01*
X119150Y-100220D01*
X119570Y-99800D01*
X120520Y-99800D01*
X121550Y-98770D01*
X121550Y-92820D01*
X121950Y-92420D01*
X121950Y-91900D01*
X121950Y-90650D01*
X120050Y-90650D01*
X120050Y-89050D01*
X124300Y-89050D01*
X124750Y-89050D01*
X124750Y-91950D01*
X124750Y-93250D01*
G54D10*
G36*
X146556Y-111756D02*
X145543Y-111756D01*
X145543Y-110882D01*
X144817Y-110156D01*
X144180Y-110156D01*
X144180Y-109221D01*
X144143Y-109133D01*
X144076Y-109065D01*
X143987Y-109029D01*
X143892Y-109028D01*
X143803Y-109065D01*
X143736Y-109132D01*
X143699Y-109221D01*
X143699Y-109316D01*
X143736Y-109404D01*
X143803Y-109472D01*
X143891Y-109509D01*
X143987Y-109509D01*
X144075Y-109472D01*
X144143Y-109405D01*
X144179Y-109317D01*
X144180Y-109221D01*
X144180Y-110156D01*
X143232Y-110156D01*
X142982Y-110406D01*
X141093Y-110406D01*
X141093Y-109643D01*
X142116Y-109643D01*
X142493Y-109319D01*
X142493Y-107706D01*
X141617Y-107706D01*
X140567Y-106656D01*
X138832Y-106656D01*
X138632Y-106856D01*
X137432Y-106856D01*
X137356Y-106932D01*
X137356Y-106956D01*
X136756Y-106956D01*
X136756Y-107156D01*
X134016Y-107156D01*
X134016Y-104033D01*
X133979Y-103944D01*
X133912Y-103877D01*
X133824Y-103840D01*
X133728Y-103840D01*
X133640Y-103877D01*
X133617Y-103900D01*
X133617Y-103294D01*
X133580Y-103206D01*
X133513Y-103138D01*
X133425Y-103101D01*
X133329Y-103101D01*
X133241Y-103138D01*
X133173Y-103205D01*
X133136Y-103294D01*
X133136Y-103389D01*
X133173Y-103477D01*
X133240Y-103545D01*
X133329Y-103582D01*
X133424Y-103582D01*
X133512Y-103545D01*
X133580Y-103478D01*
X133617Y-103389D01*
X133617Y-103294D01*
X133617Y-103900D01*
X133572Y-103944D01*
X133536Y-104032D01*
X133535Y-104128D01*
X133572Y-104216D01*
X133639Y-104284D01*
X133728Y-104320D01*
X133823Y-104321D01*
X133912Y-104284D01*
X133979Y-104217D01*
X134016Y-104128D01*
X134016Y-104033D01*
X134016Y-107156D01*
X133510Y-107156D01*
X133510Y-103966D01*
X133477Y-103885D01*
X133415Y-103823D01*
X133334Y-103789D01*
X133246Y-103789D01*
X133165Y-103822D01*
X133103Y-103884D01*
X133069Y-103965D01*
X133069Y-104053D01*
X133102Y-104134D01*
X133164Y-104196D01*
X133245Y-104230D01*
X133333Y-104230D01*
X133414Y-104197D01*
X133476Y-104135D01*
X133510Y-104054D01*
X133510Y-103966D01*
X133510Y-107156D01*
X133078Y-107156D01*
X133078Y-104308D01*
X133045Y-104227D01*
X132983Y-104165D01*
X132902Y-104131D01*
X132814Y-104131D01*
X132733Y-104164D01*
X132671Y-104226D01*
X132637Y-104307D01*
X132637Y-104395D01*
X132670Y-104476D01*
X132732Y-104538D01*
X132813Y-104572D01*
X132901Y-104572D01*
X132982Y-104539D01*
X133044Y-104477D01*
X133078Y-104396D01*
X133078Y-104308D01*
X133078Y-107156D01*
X133043Y-107156D01*
X133043Y-105856D01*
X132343Y-105856D01*
X132343Y-103732D01*
X132167Y-103556D01*
X130893Y-103556D01*
X130893Y-102843D01*
X131456Y-102843D01*
X131456Y-103143D01*
X132817Y-103143D01*
X133243Y-102717D01*
X133243Y-101456D01*
X131417Y-101456D01*
X130117Y-100156D01*
X128056Y-100156D01*
X128056Y-100515D01*
X127986Y-100493D01*
X127906Y-100573D01*
X127680Y-100800D01*
X127685Y-100805D01*
X127605Y-100885D01*
X127600Y-100880D01*
X127594Y-100885D01*
X127514Y-100805D01*
X127519Y-100800D01*
X127514Y-100794D01*
X127594Y-100714D01*
X127600Y-100719D01*
X127906Y-100413D01*
X127878Y-100320D01*
X127673Y-100250D01*
X127457Y-100264D01*
X127321Y-100320D01*
X127293Y-100413D01*
X127293Y-100413D01*
X127293Y-100217D01*
X127893Y-99617D01*
X127893Y-97517D01*
X127967Y-97443D01*
X128482Y-97443D01*
X128556Y-97517D01*
X128556Y-97843D01*
X128782Y-97843D01*
X128906Y-97967D01*
X128906Y-99643D01*
X130582Y-99643D01*
X131382Y-100443D01*
X133243Y-100443D01*
X133243Y-99643D01*
X133756Y-99643D01*
X133756Y-100443D01*
X135043Y-100443D01*
X135043Y-99243D01*
X136556Y-99243D01*
X136556Y-100182D01*
X136291Y-100446D01*
X136291Y-99901D01*
X136246Y-99791D01*
X136163Y-99708D01*
X136054Y-99662D01*
X135936Y-99662D01*
X135826Y-99707D01*
X135743Y-99791D01*
X135697Y-99900D01*
X135697Y-100018D01*
X135742Y-100127D01*
X135826Y-100211D01*
X135935Y-100256D01*
X136053Y-100256D01*
X136162Y-100211D01*
X136246Y-100128D01*
X136291Y-100019D01*
X136291Y-99901D01*
X136291Y-100446D01*
X135738Y-101000D01*
X136982Y-102243D01*
X138643Y-102243D01*
X138643Y-98582D01*
X138434Y-98362D01*
X138434Y-97208D01*
X138401Y-97127D01*
X138339Y-97065D01*
X138258Y-97031D01*
X138170Y-97031D01*
X138089Y-97064D01*
X138027Y-97126D01*
X137993Y-97207D01*
X137993Y-97295D01*
X138026Y-97376D01*
X138088Y-97438D01*
X138169Y-97472D01*
X138257Y-97472D01*
X138338Y-97439D01*
X138400Y-97377D01*
X138434Y-97296D01*
X138434Y-97208D01*
X138434Y-98362D01*
X136908Y-96756D01*
X136600Y-96756D01*
X136317Y-96756D01*
X134543Y-94982D01*
X134543Y-92843D01*
X135032Y-92843D01*
X135232Y-93043D01*
X137117Y-93043D01*
X137343Y-92817D01*
X137343Y-90732D01*
X136917Y-90306D01*
X135068Y-90306D01*
X133268Y-88456D01*
X129556Y-88456D01*
X129556Y-89856D01*
X126117Y-89856D01*
X125443Y-89182D01*
X125443Y-87443D01*
X128999Y-87493D01*
X133513Y-87493D01*
X133797Y-87549D01*
X133806Y-87553D01*
X133883Y-87553D01*
X133887Y-87552D01*
X133888Y-87552D01*
X133889Y-87552D01*
X133975Y-87535D01*
X135882Y-89393D01*
X137117Y-89393D01*
X137617Y-88893D01*
X143156Y-88893D01*
X143156Y-90056D01*
X141280Y-90056D01*
X138556Y-93083D01*
X138556Y-95318D01*
X140382Y-97093D01*
X141506Y-97093D01*
X141506Y-99293D01*
X143056Y-99293D01*
X143056Y-100769D01*
X143956Y-101569D01*
X143956Y-102556D01*
X141943Y-102556D01*
X141943Y-101556D01*
X140614Y-101556D01*
X140614Y-99158D01*
X140569Y-99049D01*
X140485Y-98965D01*
X140376Y-98920D01*
X140258Y-98920D01*
X140149Y-98965D01*
X140065Y-99049D01*
X140020Y-99158D01*
X140020Y-99276D01*
X140065Y-99385D01*
X140149Y-99469D01*
X140258Y-99514D01*
X140376Y-99514D01*
X140485Y-99469D01*
X140569Y-99385D01*
X140614Y-99276D01*
X140614Y-99158D01*
X140614Y-101556D01*
X139782Y-101556D01*
X139556Y-101782D01*
X139556Y-102417D01*
X139756Y-102617D01*
X139756Y-103356D01*
X139017Y-103356D01*
X138317Y-102656D01*
X136717Y-102656D01*
X135417Y-101356D01*
X134756Y-101356D01*
X134756Y-105417D01*
X135582Y-106243D01*
X137182Y-106243D01*
X137356Y-106417D01*
X137356Y-106493D01*
X138217Y-106493D01*
X138667Y-106043D01*
X140732Y-106043D01*
X141932Y-107243D01*
X142793Y-107243D01*
X142793Y-106643D01*
X144306Y-106643D01*
X144306Y-109593D01*
X145182Y-109593D01*
X146556Y-110967D01*
X146556Y-111756D01*
X146556Y-111756D01*
G37*
G54D26*
X146556Y-111756D02*
X145543Y-111756D01*
X145543Y-110882D01*
X144817Y-110156D01*
X144180Y-110156D01*
X144180Y-109221D01*
X144143Y-109133D01*
X144076Y-109065D01*
X143987Y-109029D01*
X143892Y-109028D01*
X143803Y-109065D01*
X143736Y-109132D01*
X143699Y-109221D01*
X143699Y-109316D01*
X143736Y-109404D01*
X143803Y-109472D01*
X143891Y-109509D01*
X143987Y-109509D01*
X144075Y-109472D01*
X144143Y-109405D01*
X144179Y-109317D01*
X144180Y-109221D01*
X144180Y-110156D01*
X143232Y-110156D01*
X142982Y-110406D01*
X141093Y-110406D01*
X141093Y-109643D01*
X142116Y-109643D01*
X142493Y-109319D01*
X142493Y-107706D01*
X141617Y-107706D01*
X140567Y-106656D01*
X138832Y-106656D01*
X138632Y-106856D01*
X137432Y-106856D01*
X137356Y-106932D01*
X137356Y-106956D01*
X136756Y-106956D01*
X136756Y-107156D01*
X134016Y-107156D01*
X134016Y-104033D01*
X133979Y-103944D01*
X133912Y-103877D01*
X133824Y-103840D01*
X133728Y-103840D01*
X133640Y-103877D01*
X133617Y-103900D01*
X133617Y-103294D01*
X133580Y-103206D01*
X133513Y-103138D01*
X133425Y-103101D01*
X133329Y-103101D01*
X133241Y-103138D01*
X133173Y-103205D01*
X133136Y-103294D01*
X133136Y-103389D01*
X133173Y-103477D01*
X133240Y-103545D01*
X133329Y-103582D01*
X133424Y-103582D01*
X133512Y-103545D01*
X133580Y-103478D01*
X133617Y-103389D01*
X133617Y-103294D01*
X133617Y-103900D01*
X133572Y-103944D01*
X133536Y-104032D01*
X133535Y-104128D01*
X133572Y-104216D01*
X133639Y-104284D01*
X133728Y-104320D01*
X133823Y-104321D01*
X133912Y-104284D01*
X133979Y-104217D01*
X134016Y-104128D01*
X134016Y-104033D01*
X134016Y-107156D01*
X133510Y-107156D01*
X133510Y-103966D01*
X133477Y-103885D01*
X133415Y-103823D01*
X133334Y-103789D01*
X133246Y-103789D01*
X133165Y-103822D01*
X133103Y-103884D01*
X133069Y-103965D01*
X133069Y-104053D01*
X133102Y-104134D01*
X133164Y-104196D01*
X133245Y-104230D01*
X133333Y-104230D01*
X133414Y-104197D01*
X133476Y-104135D01*
X133510Y-104054D01*
X133510Y-103966D01*
X133510Y-107156D01*
X133078Y-107156D01*
X133078Y-104308D01*
X133045Y-104227D01*
X132983Y-104165D01*
X132902Y-104131D01*
X132814Y-104131D01*
X132733Y-104164D01*
X132671Y-104226D01*
X132637Y-104307D01*
X132637Y-104395D01*
X132670Y-104476D01*
X132732Y-104538D01*
X132813Y-104572D01*
X132901Y-104572D01*
X132982Y-104539D01*
X133044Y-104477D01*
X133078Y-104396D01*
X133078Y-104308D01*
X133078Y-107156D01*
X133043Y-107156D01*
X133043Y-105856D01*
X132343Y-105856D01*
X132343Y-103732D01*
X132167Y-103556D01*
X130893Y-103556D01*
X130893Y-102843D01*
X131456Y-102843D01*
X131456Y-103143D01*
X132817Y-103143D01*
X133243Y-102717D01*
X133243Y-101456D01*
X131417Y-101456D01*
X130117Y-100156D01*
X128056Y-100156D01*
X128056Y-100515D01*
X127986Y-100493D01*
X127906Y-100573D01*
X127680Y-100800D01*
X127685Y-100805D01*
X127605Y-100885D01*
X127600Y-100880D01*
X127594Y-100885D01*
X127514Y-100805D01*
X127519Y-100800D01*
X127514Y-100794D01*
X127594Y-100714D01*
X127600Y-100719D01*
X127906Y-100413D01*
X127878Y-100320D01*
X127673Y-100250D01*
X127457Y-100264D01*
X127321Y-100320D01*
X127293Y-100413D01*
X127293Y-100413D01*
X127293Y-100217D01*
X127893Y-99617D01*
X127893Y-97517D01*
X127967Y-97443D01*
X128482Y-97443D01*
X128556Y-97517D01*
X128556Y-97843D01*
X128782Y-97843D01*
X128906Y-97967D01*
X128906Y-99643D01*
X130582Y-99643D01*
X131382Y-100443D01*
X133243Y-100443D01*
X133243Y-99643D01*
X133756Y-99643D01*
X133756Y-100443D01*
X135043Y-100443D01*
X135043Y-99243D01*
X136556Y-99243D01*
X136556Y-100182D01*
X136291Y-100446D01*
X136291Y-99901D01*
X136246Y-99791D01*
X136163Y-99708D01*
X136054Y-99662D01*
X135936Y-99662D01*
X135826Y-99707D01*
X135743Y-99791D01*
X135697Y-99900D01*
X135697Y-100018D01*
X135742Y-100127D01*
X135826Y-100211D01*
X135935Y-100256D01*
X136053Y-100256D01*
X136162Y-100211D01*
X136246Y-100128D01*
X136291Y-100019D01*
X136291Y-99901D01*
X136291Y-100446D01*
X135738Y-101000D01*
X136982Y-102243D01*
X138643Y-102243D01*
X138643Y-98582D01*
X138434Y-98362D01*
X138434Y-97208D01*
X138401Y-97127D01*
X138339Y-97065D01*
X138258Y-97031D01*
X138170Y-97031D01*
X138089Y-97064D01*
X138027Y-97126D01*
X137993Y-97207D01*
X137993Y-97295D01*
X138026Y-97376D01*
X138088Y-97438D01*
X138169Y-97472D01*
X138257Y-97472D01*
X138338Y-97439D01*
X138400Y-97377D01*
X138434Y-97296D01*
X138434Y-97208D01*
X138434Y-98362D01*
X136908Y-96756D01*
X136600Y-96756D01*
X136317Y-96756D01*
X134543Y-94982D01*
X134543Y-92843D01*
X135032Y-92843D01*
X135232Y-93043D01*
X137117Y-93043D01*
X137343Y-92817D01*
X137343Y-90732D01*
X136917Y-90306D01*
X135068Y-90306D01*
X133268Y-88456D01*
X129556Y-88456D01*
X129556Y-89856D01*
X126117Y-89856D01*
X125443Y-89182D01*
X125443Y-87443D01*
X128999Y-87493D01*
X133513Y-87493D01*
X133797Y-87549D01*
X133806Y-87553D01*
X133883Y-87553D01*
X133887Y-87552D01*
X133888Y-87552D01*
X133889Y-87552D01*
X133975Y-87535D01*
X135882Y-89393D01*
X137117Y-89393D01*
X137617Y-88893D01*
X143156Y-88893D01*
X143156Y-90056D01*
X141280Y-90056D01*
X138556Y-93083D01*
X138556Y-95318D01*
X140382Y-97093D01*
X141506Y-97093D01*
X141506Y-99293D01*
X143056Y-99293D01*
X143056Y-100769D01*
X143956Y-101569D01*
X143956Y-102556D01*
X141943Y-102556D01*
X141943Y-101556D01*
X140614Y-101556D01*
X140614Y-99158D01*
X140569Y-99049D01*
X140485Y-98965D01*
X140376Y-98920D01*
X140258Y-98920D01*
X140149Y-98965D01*
X140065Y-99049D01*
X140020Y-99158D01*
X140020Y-99276D01*
X140065Y-99385D01*
X140149Y-99469D01*
X140258Y-99514D01*
X140376Y-99514D01*
X140485Y-99469D01*
X140569Y-99385D01*
X140614Y-99276D01*
X140614Y-99158D01*
X140614Y-101556D01*
X139782Y-101556D01*
X139556Y-101782D01*
X139556Y-102417D01*
X139756Y-102617D01*
X139756Y-103356D01*
X139017Y-103356D01*
X138317Y-102656D01*
X136717Y-102656D01*
X135417Y-101356D01*
X134756Y-101356D01*
X134756Y-105417D01*
X135582Y-106243D01*
X137182Y-106243D01*
X137356Y-106417D01*
X137356Y-106493D01*
X138217Y-106493D01*
X138667Y-106043D01*
X140732Y-106043D01*
X141932Y-107243D01*
X142793Y-107243D01*
X142793Y-106643D01*
X144306Y-106643D01*
X144306Y-109593D01*
X145182Y-109593D01*
X146556Y-110967D01*
X146556Y-111756D01*
G54D10*
G36*
X128664Y-112344D02*
X128568Y-112372D01*
X128551Y-112420D01*
X128531Y-112372D01*
X128435Y-112344D01*
X128120Y-112660D01*
X128126Y-112665D01*
X128055Y-112736D01*
X128050Y-112730D01*
X128044Y-112736D01*
X127979Y-112671D01*
X127973Y-112665D01*
X127979Y-112660D01*
X127664Y-112344D01*
X127568Y-112372D01*
X127551Y-112420D01*
X127531Y-112372D01*
X127435Y-112344D01*
X127120Y-112660D01*
X127126Y-112665D01*
X127055Y-112736D01*
X127050Y-112730D01*
X127044Y-112736D01*
X126973Y-112665D01*
X126979Y-112660D01*
X126664Y-112344D01*
X126600Y-112363D01*
X126599Y-112310D01*
X126575Y-112250D01*
X126600Y-112250D01*
X126600Y-111817D01*
X126646Y-111929D01*
X126780Y-112063D01*
X126910Y-112117D01*
X126762Y-112178D01*
X126734Y-112274D01*
X127050Y-112589D01*
X127365Y-112274D01*
X127337Y-112178D01*
X127178Y-112121D01*
X127319Y-112063D01*
X127453Y-111929D01*
X127525Y-111755D01*
X127526Y-111565D01*
X127453Y-111390D01*
X127319Y-111256D01*
X127145Y-111184D01*
X126955Y-111183D01*
X126780Y-111256D01*
X126646Y-111390D01*
X126600Y-111502D01*
X126600Y-111421D01*
X128169Y-109950D01*
X128511Y-109950D01*
X128185Y-110275D01*
X128136Y-110348D01*
X128119Y-110435D01*
X128119Y-111140D01*
X128128Y-111184D01*
X127955Y-111183D01*
X127780Y-111256D01*
X127646Y-111390D01*
X127574Y-111564D01*
X127573Y-111754D01*
X127646Y-111929D01*
X127780Y-112063D01*
X127910Y-112117D01*
X127762Y-112178D01*
X127734Y-112274D01*
X128050Y-112589D01*
X128365Y-112274D01*
X128337Y-112178D01*
X128178Y-112121D01*
X128319Y-112063D01*
X128358Y-112024D01*
X128385Y-112064D01*
X128619Y-112298D01*
X128618Y-112299D01*
X128664Y-112344D01*
X128664Y-112344D01*
G37*
G54D27*
X128664Y-112344D02*
X128568Y-112372D01*
X128551Y-112420D01*
X128531Y-112372D01*
X128435Y-112344D01*
X128120Y-112660D01*
X128126Y-112665D01*
X128055Y-112736D01*
X128050Y-112730D01*
X128044Y-112736D01*
X127979Y-112671D01*
X127973Y-112665D01*
X127979Y-112660D01*
X127664Y-112344D01*
X127568Y-112372D01*
X127551Y-112420D01*
X127531Y-112372D01*
X127435Y-112344D01*
X127120Y-112660D01*
X127126Y-112665D01*
X127055Y-112736D01*
X127050Y-112730D01*
X127044Y-112736D01*
X126973Y-112665D01*
X126979Y-112660D01*
X126664Y-112344D01*
X126600Y-112363D01*
X126599Y-112310D01*
X126575Y-112250D01*
X126600Y-112250D01*
X126600Y-111817D01*
X126646Y-111929D01*
X126780Y-112063D01*
X126910Y-112117D01*
X126762Y-112178D01*
X126734Y-112274D01*
X127050Y-112589D01*
X127365Y-112274D01*
X127337Y-112178D01*
X127178Y-112121D01*
X127319Y-112063D01*
X127453Y-111929D01*
X127525Y-111755D01*
X127526Y-111565D01*
X127453Y-111390D01*
X127319Y-111256D01*
X127145Y-111184D01*
X126955Y-111183D01*
X126780Y-111256D01*
X126646Y-111390D01*
X126600Y-111502D01*
X126600Y-111421D01*
X128169Y-109950D01*
X128511Y-109950D01*
X128185Y-110275D01*
X128136Y-110348D01*
X128119Y-110435D01*
X128119Y-111140D01*
X128128Y-111184D01*
X127955Y-111183D01*
X127780Y-111256D01*
X127646Y-111390D01*
X127574Y-111564D01*
X127573Y-111754D01*
X127646Y-111929D01*
X127780Y-112063D01*
X127910Y-112117D01*
X127762Y-112178D01*
X127734Y-112274D01*
X128050Y-112589D01*
X128365Y-112274D01*
X128337Y-112178D01*
X128178Y-112121D01*
X128319Y-112063D01*
X128358Y-112024D01*
X128385Y-112064D01*
X128619Y-112298D01*
X128618Y-112299D01*
X128664Y-112344D01*
G54D10*
G36*
X129126Y-112665D02*
X129055Y-112736D01*
X129050Y-112730D01*
X129044Y-112736D01*
X128979Y-112671D01*
X128973Y-112665D01*
X128979Y-112660D01*
X128973Y-112654D01*
X129044Y-112583D01*
X129050Y-112589D01*
X129055Y-112583D01*
X129126Y-112654D01*
X129120Y-112660D01*
X129126Y-112665D01*
X129126Y-112665D01*
G37*
G54D27*
X129126Y-112665D02*
X129055Y-112736D01*
X129050Y-112730D01*
X129044Y-112736D01*
X128979Y-112671D01*
X128973Y-112665D01*
X128979Y-112660D01*
X128973Y-112654D01*
X129044Y-112583D01*
X129050Y-112589D01*
X129055Y-112583D01*
X129126Y-112654D01*
X129120Y-112660D01*
X129126Y-112665D01*
G54D10*
G36*
X130126Y-112665D02*
X130055Y-112736D01*
X130050Y-112730D01*
X130044Y-112736D01*
X129973Y-112665D01*
X129979Y-112660D01*
X129973Y-112654D01*
X130044Y-112583D01*
X130050Y-112589D01*
X130055Y-112583D01*
X130126Y-112654D01*
X130120Y-112660D01*
X130126Y-112665D01*
X130126Y-112665D01*
G37*
G54D27*
X130126Y-112665D02*
X130055Y-112736D01*
X130050Y-112730D01*
X130044Y-112736D01*
X129973Y-112665D01*
X129979Y-112660D01*
X129973Y-112654D01*
X130044Y-112583D01*
X130050Y-112589D01*
X130055Y-112583D01*
X130126Y-112654D01*
X130120Y-112660D01*
X130126Y-112665D01*
G54D10*
G36*
X134350Y-99200D02*
X134054Y-99200D01*
X134054Y-97465D01*
X134012Y-97364D01*
X133935Y-97287D01*
X133834Y-97245D01*
X133725Y-97245D01*
X133624Y-97287D01*
X133547Y-97364D01*
X133505Y-97465D01*
X133505Y-97574D01*
X133547Y-97675D01*
X133624Y-97752D01*
X133725Y-97794D01*
X133834Y-97794D01*
X133935Y-97752D01*
X134012Y-97675D01*
X134054Y-97574D01*
X134054Y-97465D01*
X134054Y-99200D01*
X132644Y-99200D01*
X132644Y-98275D01*
X132602Y-98174D01*
X132525Y-98097D01*
X132424Y-98055D01*
X132315Y-98055D01*
X132214Y-98097D01*
X132137Y-98174D01*
X132095Y-98275D01*
X132095Y-98384D01*
X132137Y-98485D01*
X132214Y-98562D01*
X132315Y-98604D01*
X132424Y-98604D01*
X132525Y-98562D01*
X132602Y-98485D01*
X132644Y-98384D01*
X132644Y-98275D01*
X132644Y-99200D01*
X131974Y-99200D01*
X131974Y-96675D01*
X131932Y-96574D01*
X131855Y-96497D01*
X131754Y-96455D01*
X131645Y-96455D01*
X131544Y-96497D01*
X131467Y-96574D01*
X131425Y-96675D01*
X131425Y-96784D01*
X131467Y-96885D01*
X131544Y-96962D01*
X131645Y-97004D01*
X131754Y-97004D01*
X131855Y-96962D01*
X131932Y-96885D01*
X131974Y-96784D01*
X131974Y-96675D01*
X131974Y-99200D01*
X130092Y-99200D01*
X130170Y-99167D01*
X130247Y-99090D01*
X130289Y-98989D01*
X130289Y-98880D01*
X130247Y-98779D01*
X130170Y-98702D01*
X130069Y-98660D01*
X129960Y-98660D01*
X129904Y-98683D01*
X129904Y-96495D01*
X129862Y-96394D01*
X129785Y-96317D01*
X129684Y-96275D01*
X129575Y-96275D01*
X129474Y-96317D01*
X129397Y-96394D01*
X129355Y-96495D01*
X129355Y-96604D01*
X129397Y-96705D01*
X129474Y-96782D01*
X129575Y-96824D01*
X129684Y-96824D01*
X129785Y-96782D01*
X129862Y-96705D01*
X129904Y-96604D01*
X129904Y-96495D01*
X129904Y-98683D01*
X129859Y-98702D01*
X129782Y-98779D01*
X129740Y-98880D01*
X129740Y-98989D01*
X129782Y-99090D01*
X129859Y-99167D01*
X129937Y-99200D01*
X129500Y-99200D01*
X129500Y-97000D01*
X129143Y-97000D01*
X129174Y-96924D01*
X129174Y-96815D01*
X129132Y-96714D01*
X129055Y-96637D01*
X128954Y-96595D01*
X128845Y-96595D01*
X128744Y-96637D01*
X128667Y-96714D01*
X128625Y-96815D01*
X128625Y-96924D01*
X128656Y-97000D01*
X127350Y-97000D01*
X127350Y-98258D01*
X127253Y-98258D01*
X127152Y-98299D01*
X127075Y-98376D01*
X127033Y-98477D01*
X127033Y-98586D01*
X127074Y-98687D01*
X127151Y-98764D01*
X127252Y-98806D01*
X127350Y-98806D01*
X127350Y-99114D01*
X127312Y-99024D01*
X127235Y-98947D01*
X127134Y-98905D01*
X127025Y-98905D01*
X126924Y-98947D01*
X126847Y-99024D01*
X126805Y-99125D01*
X126805Y-99234D01*
X126847Y-99335D01*
X126924Y-99412D01*
X127025Y-99454D01*
X127134Y-99454D01*
X127235Y-99412D01*
X127312Y-99335D01*
X127350Y-99245D01*
X127350Y-99529D01*
X126900Y-99979D01*
X126900Y-100426D01*
X126869Y-100396D01*
X126695Y-100324D01*
X126505Y-100323D01*
X126444Y-100349D01*
X126444Y-99455D01*
X126402Y-99354D01*
X126325Y-99277D01*
X126224Y-99235D01*
X126115Y-99235D01*
X126014Y-99277D01*
X125937Y-99354D01*
X125895Y-99455D01*
X125895Y-99564D01*
X125937Y-99665D01*
X126014Y-99742D01*
X126115Y-99784D01*
X126224Y-99784D01*
X126325Y-99742D01*
X126402Y-99665D01*
X126444Y-99564D01*
X126444Y-99455D01*
X126444Y-100349D01*
X126330Y-100396D01*
X126196Y-100530D01*
X126124Y-100704D01*
X126123Y-100894D01*
X126196Y-101069D01*
X126330Y-101203D01*
X126504Y-101275D01*
X126694Y-101276D01*
X126869Y-101203D01*
X126900Y-101173D01*
X126900Y-101351D01*
X127491Y-101329D01*
X127330Y-101396D01*
X127196Y-101530D01*
X127124Y-101704D01*
X127123Y-101894D01*
X127196Y-102069D01*
X127330Y-102203D01*
X127504Y-102275D01*
X127694Y-102276D01*
X127869Y-102203D01*
X128003Y-102069D01*
X128057Y-101939D01*
X128118Y-102087D01*
X128214Y-102115D01*
X128529Y-101800D01*
X128214Y-101484D01*
X128118Y-101512D01*
X128061Y-101671D01*
X128003Y-101530D01*
X127869Y-101396D01*
X127695Y-101324D01*
X127651Y-101324D01*
X128350Y-101298D01*
X128350Y-101294D01*
X128360Y-101298D01*
X128312Y-101318D01*
X128284Y-101414D01*
X128600Y-101729D01*
X128915Y-101414D01*
X128887Y-101318D01*
X128839Y-101301D01*
X128887Y-101281D01*
X128915Y-101185D01*
X128600Y-100870D01*
X128594Y-100876D01*
X128523Y-100805D01*
X128529Y-100800D01*
X128523Y-100794D01*
X128594Y-100723D01*
X128600Y-100729D01*
X128915Y-100414D01*
X128911Y-100400D01*
X129880Y-100400D01*
X130571Y-101043D01*
X130504Y-101015D01*
X130395Y-101015D01*
X130294Y-101057D01*
X130217Y-101134D01*
X130175Y-101235D01*
X130175Y-101344D01*
X130217Y-101445D01*
X130294Y-101522D01*
X130395Y-101564D01*
X130504Y-101564D01*
X130605Y-101522D01*
X130682Y-101445D01*
X130724Y-101344D01*
X130724Y-101235D01*
X130691Y-101154D01*
X131300Y-101721D01*
X131300Y-102200D01*
X130500Y-102200D01*
X130500Y-104000D01*
X131300Y-104000D01*
X131300Y-106046D01*
X132304Y-106120D01*
X132285Y-106165D01*
X132285Y-106274D01*
X132327Y-106375D01*
X132285Y-106475D01*
X132285Y-106584D01*
X132289Y-106594D01*
X131828Y-106594D01*
X131194Y-105960D01*
X131121Y-105911D01*
X131035Y-105894D01*
X130239Y-105894D01*
X130305Y-105867D01*
X130382Y-105790D01*
X130424Y-105689D01*
X130424Y-105665D01*
X130445Y-105674D01*
X130554Y-105674D01*
X130655Y-105632D01*
X130732Y-105555D01*
X130756Y-105499D01*
X130814Y-105557D01*
X130915Y-105599D01*
X131024Y-105599D01*
X131125Y-105557D01*
X131202Y-105480D01*
X131244Y-105379D01*
X131244Y-105270D01*
X131202Y-105169D01*
X131125Y-105092D01*
X131024Y-105050D01*
X130915Y-105050D01*
X130814Y-105092D01*
X130737Y-105169D01*
X130713Y-105225D01*
X130655Y-105167D01*
X130554Y-105125D01*
X130445Y-105125D01*
X130344Y-105167D01*
X130267Y-105244D01*
X130225Y-105345D01*
X130225Y-105369D01*
X130204Y-105360D01*
X130095Y-105360D01*
X129994Y-105402D01*
X129917Y-105479D01*
X129875Y-105580D01*
X129875Y-105689D01*
X129917Y-105790D01*
X129994Y-105867D01*
X130060Y-105894D01*
X129806Y-105894D01*
X129806Y-102345D01*
X129764Y-102244D01*
X129687Y-102167D01*
X129586Y-102125D01*
X129477Y-102125D01*
X129376Y-102167D01*
X129299Y-102244D01*
X129257Y-102345D01*
X129257Y-102454D01*
X129299Y-102555D01*
X129376Y-102632D01*
X129477Y-102674D01*
X129586Y-102674D01*
X129687Y-102632D01*
X129764Y-102555D01*
X129806Y-102454D01*
X129806Y-102345D01*
X129806Y-105894D01*
X129315Y-105894D01*
X129228Y-105911D01*
X129155Y-105960D01*
X129082Y-106033D01*
X129154Y-105831D01*
X129154Y-104831D01*
X129154Y-101881D01*
X129154Y-100881D01*
X129143Y-100663D01*
X129081Y-100512D01*
X128985Y-100484D01*
X128670Y-100800D01*
X128985Y-101115D01*
X129081Y-101087D01*
X129154Y-100881D01*
X129154Y-101881D01*
X129143Y-101663D01*
X129081Y-101512D01*
X128985Y-101484D01*
X128670Y-101800D01*
X128985Y-102115D01*
X129081Y-102087D01*
X129154Y-101881D01*
X129154Y-104831D01*
X129143Y-104613D01*
X129081Y-104462D01*
X128985Y-104434D01*
X128915Y-104505D01*
X128915Y-104364D01*
X128915Y-102185D01*
X128600Y-101870D01*
X128284Y-102185D01*
X128312Y-102281D01*
X128518Y-102354D01*
X128736Y-102343D01*
X128887Y-102281D01*
X128915Y-102185D01*
X128915Y-104364D01*
X128887Y-104268D01*
X128681Y-104195D01*
X128463Y-104206D01*
X128312Y-104268D01*
X128284Y-104364D01*
X128600Y-104679D01*
X128915Y-104364D01*
X128915Y-104505D01*
X128670Y-104750D01*
X128985Y-105065D01*
X129081Y-105037D01*
X129154Y-104831D01*
X129154Y-105831D01*
X129143Y-105613D01*
X129081Y-105462D01*
X128985Y-105434D01*
X128915Y-105505D01*
X128915Y-105364D01*
X128887Y-105268D01*
X128839Y-105251D01*
X128887Y-105231D01*
X128915Y-105135D01*
X128600Y-104820D01*
X128529Y-104891D01*
X128529Y-104750D01*
X128214Y-104434D01*
X128118Y-104462D01*
X128061Y-104621D01*
X128003Y-104480D01*
X127869Y-104346D01*
X127695Y-104274D01*
X127505Y-104273D01*
X127330Y-104346D01*
X127196Y-104480D01*
X127124Y-104654D01*
X127123Y-104844D01*
X127196Y-105019D01*
X127330Y-105153D01*
X127504Y-105225D01*
X127694Y-105226D01*
X127869Y-105153D01*
X128003Y-105019D01*
X128057Y-104889D01*
X128118Y-105037D01*
X128214Y-105065D01*
X128529Y-104750D01*
X128529Y-104891D01*
X128284Y-105135D01*
X128312Y-105231D01*
X128360Y-105248D01*
X128312Y-105268D01*
X128284Y-105364D01*
X128600Y-105679D01*
X128915Y-105364D01*
X128915Y-105505D01*
X128670Y-105750D01*
X128676Y-105755D01*
X128605Y-105826D01*
X128600Y-105820D01*
X128529Y-105891D01*
X128529Y-105750D01*
X128214Y-105434D01*
X128118Y-105462D01*
X128061Y-105621D01*
X128003Y-105480D01*
X127869Y-105346D01*
X127695Y-105274D01*
X127505Y-105273D01*
X127330Y-105346D01*
X127196Y-105480D01*
X127124Y-105654D01*
X127123Y-105844D01*
X127196Y-106019D01*
X127330Y-106153D01*
X127504Y-106225D01*
X127694Y-106226D01*
X127869Y-106153D01*
X128003Y-106019D01*
X128057Y-105889D01*
X128118Y-106037D01*
X128214Y-106065D01*
X128529Y-105750D01*
X128529Y-105891D01*
X128284Y-106135D01*
X128312Y-106231D01*
X128518Y-106304D01*
X128736Y-106293D01*
X128764Y-106282D01*
X128717Y-106329D01*
X128675Y-106430D01*
X128675Y-106539D01*
X128717Y-106640D01*
X128794Y-106717D01*
X128895Y-106759D01*
X129004Y-106759D01*
X129105Y-106717D01*
X129182Y-106640D01*
X129224Y-106539D01*
X129224Y-106529D01*
X129408Y-106345D01*
X129983Y-106345D01*
X129897Y-106430D01*
X129844Y-106559D01*
X129843Y-106699D01*
X129897Y-106828D01*
X129995Y-106927D01*
X130124Y-106980D01*
X130264Y-106981D01*
X130393Y-106927D01*
X130492Y-106829D01*
X130545Y-106700D01*
X130545Y-106673D01*
X130614Y-106742D01*
X130715Y-106784D01*
X130745Y-106784D01*
X130745Y-106864D01*
X130787Y-106965D01*
X130864Y-107042D01*
X130965Y-107084D01*
X131074Y-107084D01*
X131175Y-107042D01*
X131252Y-106965D01*
X131294Y-106864D01*
X131294Y-106755D01*
X131253Y-106657D01*
X131575Y-106979D01*
X131575Y-106979D01*
X131648Y-107028D01*
X131734Y-107045D01*
X131735Y-107045D01*
X132085Y-107045D01*
X132085Y-107050D01*
X131066Y-108069D01*
X129230Y-108069D01*
X127215Y-108069D01*
X127128Y-108086D01*
X127076Y-108122D01*
X127076Y-105655D01*
X127076Y-104655D01*
X127076Y-101705D01*
X127003Y-101530D01*
X126869Y-101396D01*
X126695Y-101324D01*
X126505Y-101323D01*
X126330Y-101396D01*
X126196Y-101530D01*
X126124Y-101704D01*
X126123Y-101894D01*
X126196Y-102069D01*
X126330Y-102203D01*
X126504Y-102275D01*
X126694Y-102276D01*
X126869Y-102203D01*
X127003Y-102069D01*
X127075Y-101895D01*
X127076Y-101705D01*
X127076Y-104655D01*
X127003Y-104480D01*
X126869Y-104346D01*
X126695Y-104274D01*
X126505Y-104273D01*
X126330Y-104346D01*
X126196Y-104480D01*
X126124Y-104654D01*
X126123Y-104844D01*
X126196Y-105019D01*
X126330Y-105153D01*
X126504Y-105225D01*
X126694Y-105226D01*
X126869Y-105153D01*
X127003Y-105019D01*
X127075Y-104845D01*
X127076Y-104655D01*
X127076Y-105655D01*
X127003Y-105480D01*
X126869Y-105346D01*
X126695Y-105274D01*
X126505Y-105273D01*
X126330Y-105346D01*
X126196Y-105480D01*
X126124Y-105654D01*
X126123Y-105844D01*
X126196Y-106019D01*
X126330Y-106153D01*
X126504Y-106225D01*
X126694Y-106226D01*
X126869Y-106153D01*
X127003Y-106019D01*
X127075Y-105845D01*
X127076Y-105655D01*
X127076Y-108122D01*
X127055Y-108135D01*
X126735Y-108456D01*
X126735Y-107245D01*
X126690Y-107136D01*
X126607Y-107054D01*
X126499Y-107009D01*
X126382Y-107009D01*
X126274Y-107053D01*
X126191Y-107136D01*
X126146Y-107244D01*
X126146Y-107361D01*
X126191Y-107469D01*
X126274Y-107552D01*
X126382Y-107597D01*
X126499Y-107597D01*
X126607Y-107552D01*
X126690Y-107470D01*
X126734Y-107362D01*
X126735Y-107245D01*
X126735Y-108456D01*
X126144Y-109046D01*
X126138Y-108932D01*
X126080Y-108792D01*
X126076Y-108790D01*
X126076Y-105655D01*
X126076Y-104655D01*
X126003Y-104480D01*
X125869Y-104346D01*
X125695Y-104274D01*
X125505Y-104273D01*
X125330Y-104346D01*
X125196Y-104480D01*
X125124Y-104654D01*
X125123Y-104844D01*
X125196Y-105019D01*
X125330Y-105153D01*
X125504Y-105225D01*
X125694Y-105226D01*
X125869Y-105153D01*
X126003Y-105019D01*
X126075Y-104845D01*
X126076Y-104655D01*
X126076Y-105655D01*
X126003Y-105480D01*
X125869Y-105346D01*
X125695Y-105274D01*
X125505Y-105273D01*
X125330Y-105346D01*
X125196Y-105480D01*
X125124Y-105654D01*
X125123Y-105844D01*
X125196Y-106019D01*
X125330Y-106153D01*
X125504Y-106225D01*
X125694Y-106226D01*
X125869Y-106153D01*
X126003Y-106019D01*
X126075Y-105845D01*
X126076Y-105655D01*
X126076Y-108790D01*
X126071Y-108789D01*
X126071Y-106975D01*
X126002Y-106809D01*
X125875Y-106682D01*
X125710Y-106614D01*
X125530Y-106613D01*
X125364Y-106682D01*
X125237Y-106809D01*
X125169Y-106974D01*
X125169Y-107154D01*
X125237Y-107320D01*
X125364Y-107447D01*
X125529Y-107515D01*
X125709Y-107516D01*
X125875Y-107447D01*
X126002Y-107320D01*
X126070Y-107155D01*
X126071Y-106975D01*
X126071Y-108789D01*
X125987Y-108767D01*
X125917Y-108838D01*
X125917Y-108697D01*
X125892Y-108604D01*
X125695Y-108535D01*
X125487Y-108546D01*
X125347Y-108604D01*
X125322Y-108697D01*
X125620Y-108994D01*
X125917Y-108697D01*
X125917Y-108838D01*
X125690Y-109064D01*
X125696Y-109070D01*
X125625Y-109141D01*
X125620Y-109135D01*
X125614Y-109141D01*
X125543Y-109070D01*
X125549Y-109064D01*
X125252Y-108767D01*
X125159Y-108792D01*
X125090Y-108989D01*
X125101Y-109197D01*
X125152Y-109319D01*
X125148Y-109319D01*
X124325Y-108496D01*
X124325Y-106148D01*
X124330Y-106153D01*
X124504Y-106225D01*
X124694Y-106226D01*
X124869Y-106153D01*
X125003Y-106019D01*
X125075Y-105845D01*
X125076Y-105655D01*
X125003Y-105480D01*
X124869Y-105346D01*
X124695Y-105274D01*
X124505Y-105273D01*
X124330Y-105346D01*
X124325Y-105351D01*
X124325Y-105148D01*
X124330Y-105153D01*
X124504Y-105225D01*
X124694Y-105226D01*
X124869Y-105153D01*
X125003Y-105019D01*
X125075Y-104845D01*
X125076Y-104655D01*
X125003Y-104480D01*
X124869Y-104346D01*
X124695Y-104274D01*
X124505Y-104273D01*
X124330Y-104346D01*
X124325Y-104351D01*
X124325Y-103463D01*
X125254Y-102534D01*
X125254Y-102534D01*
X125254Y-102534D01*
X125303Y-102461D01*
X125303Y-102461D01*
X125320Y-102375D01*
X125320Y-102375D01*
X125320Y-102193D01*
X125330Y-102203D01*
X125504Y-102275D01*
X125694Y-102276D01*
X125869Y-102203D01*
X126003Y-102069D01*
X126075Y-101895D01*
X126076Y-101705D01*
X126003Y-101530D01*
X125869Y-101396D01*
X125695Y-101324D01*
X125505Y-101323D01*
X125330Y-101396D01*
X125320Y-101406D01*
X125320Y-101398D01*
X125460Y-101257D01*
X125504Y-101275D01*
X125694Y-101276D01*
X125869Y-101203D01*
X126003Y-101069D01*
X126075Y-100895D01*
X126076Y-100705D01*
X126003Y-100530D01*
X125869Y-100396D01*
X125695Y-100324D01*
X125604Y-100324D01*
X125604Y-99810D01*
X125562Y-99709D01*
X125485Y-99632D01*
X125384Y-99590D01*
X125275Y-99590D01*
X125174Y-99632D01*
X125167Y-99639D01*
X125140Y-99612D01*
X125039Y-99570D01*
X124930Y-99570D01*
X124829Y-99612D01*
X124752Y-99689D01*
X124710Y-99790D01*
X124710Y-99899D01*
X124752Y-100000D01*
X124829Y-100077D01*
X124930Y-100119D01*
X125039Y-100119D01*
X125140Y-100077D01*
X125147Y-100070D01*
X125174Y-100097D01*
X125275Y-100139D01*
X125384Y-100139D01*
X125485Y-100097D01*
X125562Y-100020D01*
X125604Y-99919D01*
X125604Y-99810D01*
X125604Y-100324D01*
X125505Y-100323D01*
X125330Y-100396D01*
X125196Y-100530D01*
X125124Y-100704D01*
X125123Y-100894D01*
X125142Y-100939D01*
X125076Y-101005D01*
X125076Y-100705D01*
X125003Y-100530D01*
X124869Y-100396D01*
X124695Y-100324D01*
X124505Y-100323D01*
X124330Y-100396D01*
X124196Y-100530D01*
X124124Y-100704D01*
X124123Y-100894D01*
X124196Y-101069D01*
X124330Y-101203D01*
X124504Y-101275D01*
X124694Y-101276D01*
X124869Y-101203D01*
X125003Y-101069D01*
X125075Y-100895D01*
X125076Y-100705D01*
X125076Y-101005D01*
X124935Y-101145D01*
X124886Y-101218D01*
X124869Y-101305D01*
X124869Y-101396D01*
X124695Y-101324D01*
X124505Y-101323D01*
X124330Y-101396D01*
X124196Y-101530D01*
X124124Y-101704D01*
X124123Y-101894D01*
X124196Y-102069D01*
X124330Y-102203D01*
X124504Y-102275D01*
X124694Y-102276D01*
X124869Y-102203D01*
X124869Y-102203D01*
X124869Y-102281D01*
X124076Y-103075D01*
X124076Y-101705D01*
X124076Y-100705D01*
X124003Y-100530D01*
X123869Y-100396D01*
X123695Y-100324D01*
X123505Y-100323D01*
X123469Y-100338D01*
X123469Y-97000D01*
X123427Y-96899D01*
X123350Y-96822D01*
X123249Y-96780D01*
X123140Y-96780D01*
X123039Y-96822D01*
X122962Y-96899D01*
X122920Y-97000D01*
X122920Y-97109D01*
X122962Y-97210D01*
X123039Y-97287D01*
X123140Y-97329D01*
X123249Y-97329D01*
X123350Y-97287D01*
X123427Y-97210D01*
X123469Y-97109D01*
X123469Y-97000D01*
X123469Y-100338D01*
X123330Y-100396D01*
X123196Y-100530D01*
X123124Y-100704D01*
X123123Y-100894D01*
X123196Y-101069D01*
X123330Y-101203D01*
X123504Y-101275D01*
X123694Y-101276D01*
X123869Y-101203D01*
X124003Y-101069D01*
X124075Y-100895D01*
X124076Y-100705D01*
X124076Y-101705D01*
X124003Y-101530D01*
X123869Y-101396D01*
X123695Y-101324D01*
X123505Y-101323D01*
X123330Y-101396D01*
X123196Y-101530D01*
X123124Y-101704D01*
X123123Y-101894D01*
X123196Y-102069D01*
X123330Y-102203D01*
X123504Y-102275D01*
X123694Y-102276D01*
X123869Y-102203D01*
X124003Y-102069D01*
X124075Y-101895D01*
X124076Y-101705D01*
X124076Y-103075D01*
X123940Y-103210D01*
X123891Y-103283D01*
X123874Y-103370D01*
X123874Y-104351D01*
X123869Y-104346D01*
X123695Y-104274D01*
X123505Y-104273D01*
X123330Y-104346D01*
X123196Y-104480D01*
X123124Y-104654D01*
X123123Y-104844D01*
X123196Y-105019D01*
X123330Y-105153D01*
X123504Y-105225D01*
X123694Y-105226D01*
X123869Y-105153D01*
X123874Y-105148D01*
X123874Y-105351D01*
X123869Y-105346D01*
X123695Y-105274D01*
X123505Y-105273D01*
X123330Y-105346D01*
X123196Y-105480D01*
X123124Y-105654D01*
X123123Y-105844D01*
X123196Y-106019D01*
X123330Y-106153D01*
X123504Y-106225D01*
X123694Y-106226D01*
X123869Y-106153D01*
X123874Y-106148D01*
X123874Y-108590D01*
X123891Y-108676D01*
X123940Y-108749D01*
X124895Y-109704D01*
X124895Y-109704D01*
X124968Y-109753D01*
X125054Y-109770D01*
X125055Y-109770D01*
X125965Y-109770D01*
X126051Y-109753D01*
X126124Y-109704D01*
X126685Y-109142D01*
X126685Y-109214D01*
X126727Y-109315D01*
X126804Y-109392D01*
X126905Y-109434D01*
X127014Y-109434D01*
X127115Y-109392D01*
X127192Y-109315D01*
X127234Y-109214D01*
X127234Y-109105D01*
X127192Y-109004D01*
X127115Y-108927D01*
X127014Y-108885D01*
X126942Y-108885D01*
X127308Y-108520D01*
X129230Y-108520D01*
X131160Y-108520D01*
X131246Y-108503D01*
X131319Y-108454D01*
X132409Y-107364D01*
X132414Y-107364D01*
X132515Y-107322D01*
X132592Y-107245D01*
X132634Y-107144D01*
X132634Y-107086D01*
X132650Y-107079D01*
X132650Y-107979D01*
X131679Y-108950D01*
X127817Y-108950D01*
X127782Y-108864D01*
X127705Y-108787D01*
X127604Y-108745D01*
X127495Y-108745D01*
X127394Y-108787D01*
X127317Y-108864D01*
X127275Y-108965D01*
X127275Y-109074D01*
X127317Y-109175D01*
X127394Y-109252D01*
X127433Y-109268D01*
X125350Y-111178D01*
X125350Y-112250D01*
X125524Y-112250D01*
X125500Y-112310D01*
X125499Y-112409D01*
X125500Y-112547D01*
X125562Y-112610D01*
X126000Y-112610D01*
X126000Y-112602D01*
X126100Y-112602D01*
X126100Y-112610D01*
X126107Y-112610D01*
X126107Y-112710D01*
X126100Y-112710D01*
X126100Y-112717D01*
X126000Y-112717D01*
X126000Y-112710D01*
X125562Y-112710D01*
X125500Y-112772D01*
X125499Y-112910D01*
X125500Y-113009D01*
X125518Y-113054D01*
X124604Y-113054D01*
X124604Y-110885D01*
X124562Y-110784D01*
X124485Y-110707D01*
X124384Y-110665D01*
X124275Y-110665D01*
X124174Y-110707D01*
X124097Y-110784D01*
X124055Y-110885D01*
X124055Y-110994D01*
X124097Y-111095D01*
X124174Y-111172D01*
X124275Y-111214D01*
X124384Y-111214D01*
X124485Y-111172D01*
X124562Y-111095D01*
X124604Y-110994D01*
X124604Y-110885D01*
X124604Y-113054D01*
X123414Y-113054D01*
X123414Y-110890D01*
X123372Y-110789D01*
X123295Y-110712D01*
X123194Y-110670D01*
X123149Y-110670D01*
X123149Y-109140D01*
X123138Y-108932D01*
X123080Y-108792D01*
X123076Y-108790D01*
X123076Y-105655D01*
X123076Y-104655D01*
X123076Y-101705D01*
X123003Y-101530D01*
X122869Y-101396D01*
X122695Y-101324D01*
X122505Y-101323D01*
X122330Y-101396D01*
X122196Y-101530D01*
X122124Y-101704D01*
X122123Y-101894D01*
X122196Y-102069D01*
X122330Y-102203D01*
X122504Y-102275D01*
X122694Y-102276D01*
X122869Y-102203D01*
X123003Y-102069D01*
X123075Y-101895D01*
X123076Y-101705D01*
X123076Y-104655D01*
X123003Y-104480D01*
X122869Y-104346D01*
X122695Y-104274D01*
X122505Y-104273D01*
X122330Y-104346D01*
X122196Y-104480D01*
X122124Y-104654D01*
X122123Y-104844D01*
X122196Y-105019D01*
X122330Y-105153D01*
X122504Y-105225D01*
X122694Y-105226D01*
X122869Y-105153D01*
X123003Y-105019D01*
X123075Y-104845D01*
X123076Y-104655D01*
X123076Y-105655D01*
X123003Y-105480D01*
X122869Y-105346D01*
X122695Y-105274D01*
X122505Y-105273D01*
X122330Y-105346D01*
X122196Y-105480D01*
X122124Y-105654D01*
X122123Y-105844D01*
X122196Y-106019D01*
X122330Y-106153D01*
X122504Y-106225D01*
X122694Y-106226D01*
X122869Y-106153D01*
X123003Y-106019D01*
X123075Y-105845D01*
X123076Y-105655D01*
X123076Y-108790D01*
X123071Y-108789D01*
X123071Y-106975D01*
X123002Y-106809D01*
X122875Y-106682D01*
X122710Y-106614D01*
X122530Y-106613D01*
X122364Y-106682D01*
X122237Y-106809D01*
X122226Y-106835D01*
X122207Y-106789D01*
X122080Y-106662D01*
X122076Y-106660D01*
X122076Y-105655D01*
X122076Y-104655D01*
X122003Y-104480D01*
X121869Y-104346D01*
X121695Y-104274D01*
X121505Y-104273D01*
X121330Y-104346D01*
X121196Y-104480D01*
X121124Y-104654D01*
X121123Y-104844D01*
X121196Y-105019D01*
X121330Y-105153D01*
X121504Y-105225D01*
X121694Y-105226D01*
X121869Y-105153D01*
X122003Y-105019D01*
X122075Y-104845D01*
X122076Y-104655D01*
X122076Y-105655D01*
X122003Y-105480D01*
X121869Y-105346D01*
X121695Y-105274D01*
X121505Y-105273D01*
X121330Y-105346D01*
X121196Y-105480D01*
X121124Y-105654D01*
X121123Y-105844D01*
X121196Y-106019D01*
X121330Y-106153D01*
X121504Y-106225D01*
X121694Y-106226D01*
X121869Y-106153D01*
X122003Y-106019D01*
X122075Y-105845D01*
X122076Y-105655D01*
X122076Y-106660D01*
X121915Y-106593D01*
X121735Y-106593D01*
X121570Y-106662D01*
X121443Y-106789D01*
X121374Y-106954D01*
X121374Y-107134D01*
X121442Y-107300D01*
X121569Y-107426D01*
X121735Y-107495D01*
X121914Y-107495D01*
X122080Y-107427D01*
X122207Y-107300D01*
X122218Y-107273D01*
X122237Y-107320D01*
X122364Y-107447D01*
X122529Y-107515D01*
X122709Y-107516D01*
X122875Y-107447D01*
X123002Y-107320D01*
X123070Y-107155D01*
X123071Y-106975D01*
X123071Y-108789D01*
X122987Y-108767D01*
X122917Y-108838D01*
X122917Y-108697D01*
X122892Y-108604D01*
X122695Y-108535D01*
X122487Y-108546D01*
X122347Y-108604D01*
X122322Y-108697D01*
X122620Y-108994D01*
X122917Y-108697D01*
X122917Y-108838D01*
X122690Y-109064D01*
X122987Y-109362D01*
X123080Y-109337D01*
X123149Y-109140D01*
X123149Y-110670D01*
X123085Y-110670D01*
X122984Y-110712D01*
X122917Y-110779D01*
X122917Y-109432D01*
X122620Y-109135D01*
X122322Y-109432D01*
X122347Y-109525D01*
X122544Y-109594D01*
X122752Y-109583D01*
X122892Y-109525D01*
X122917Y-109432D01*
X122917Y-110779D01*
X122907Y-110789D01*
X122865Y-110890D01*
X122865Y-110999D01*
X122907Y-111100D01*
X122984Y-111177D01*
X123085Y-111219D01*
X123194Y-111219D01*
X123295Y-111177D01*
X123372Y-111100D01*
X123414Y-110999D01*
X123414Y-110890D01*
X123414Y-113054D01*
X122314Y-113054D01*
X122314Y-110880D01*
X122272Y-110779D01*
X122195Y-110702D01*
X122094Y-110660D01*
X121985Y-110660D01*
X121884Y-110702D01*
X121807Y-110779D01*
X121765Y-110880D01*
X121765Y-110989D01*
X121807Y-111090D01*
X121884Y-111167D01*
X121985Y-111209D01*
X122094Y-111209D01*
X122195Y-111167D01*
X122272Y-111090D01*
X122314Y-110989D01*
X122314Y-110880D01*
X122314Y-113054D01*
X121239Y-113054D01*
X121239Y-110880D01*
X121197Y-110779D01*
X121120Y-110702D01*
X121019Y-110660D01*
X120910Y-110660D01*
X120809Y-110702D01*
X120732Y-110779D01*
X120690Y-110880D01*
X120690Y-110989D01*
X120732Y-111090D01*
X120809Y-111167D01*
X120910Y-111209D01*
X121019Y-111209D01*
X121120Y-111167D01*
X121197Y-111090D01*
X121239Y-110989D01*
X121239Y-110880D01*
X121239Y-113054D01*
X118345Y-113054D01*
X118345Y-106884D01*
X118386Y-106924D01*
X118374Y-106954D01*
X118374Y-107134D01*
X118442Y-107300D01*
X118569Y-107426D01*
X118735Y-107495D01*
X118914Y-107495D01*
X119080Y-107427D01*
X119207Y-107300D01*
X119234Y-107234D01*
X119234Y-107486D01*
X118665Y-108055D01*
X118617Y-108128D01*
X118600Y-108214D01*
X118600Y-108649D01*
X118570Y-108662D01*
X118443Y-108789D01*
X118374Y-108954D01*
X118374Y-109134D01*
X118442Y-109300D01*
X118569Y-109426D01*
X118735Y-109495D01*
X118914Y-109495D01*
X119080Y-109427D01*
X119207Y-109300D01*
X119220Y-109270D01*
X121430Y-109270D01*
X121442Y-109300D01*
X121569Y-109426D01*
X121735Y-109495D01*
X121914Y-109495D01*
X122080Y-109427D01*
X122167Y-109339D01*
X122252Y-109362D01*
X122549Y-109064D01*
X122252Y-108767D01*
X122199Y-108781D01*
X122080Y-108662D01*
X121915Y-108593D01*
X121735Y-108593D01*
X121664Y-108623D01*
X121664Y-108225D01*
X121622Y-108124D01*
X121545Y-108047D01*
X121444Y-108005D01*
X121335Y-108005D01*
X121234Y-108047D01*
X121157Y-108124D01*
X121115Y-108225D01*
X121115Y-108334D01*
X121157Y-108435D01*
X121234Y-108512D01*
X121335Y-108554D01*
X121444Y-108554D01*
X121545Y-108512D01*
X121622Y-108435D01*
X121664Y-108334D01*
X121664Y-108225D01*
X121664Y-108623D01*
X121570Y-108662D01*
X121443Y-108789D01*
X121430Y-108819D01*
X121076Y-108819D01*
X121076Y-105655D01*
X121076Y-104655D01*
X121003Y-104480D01*
X120869Y-104346D01*
X120695Y-104274D01*
X120505Y-104273D01*
X120330Y-104346D01*
X120196Y-104480D01*
X120124Y-104654D01*
X120123Y-104844D01*
X120196Y-105019D01*
X120330Y-105153D01*
X120504Y-105225D01*
X120694Y-105226D01*
X120869Y-105153D01*
X121003Y-105019D01*
X121075Y-104845D01*
X121076Y-104655D01*
X121076Y-105655D01*
X121003Y-105480D01*
X120869Y-105346D01*
X120695Y-105274D01*
X120505Y-105273D01*
X120330Y-105346D01*
X120196Y-105480D01*
X120124Y-105654D01*
X120123Y-105844D01*
X120196Y-106019D01*
X120330Y-106153D01*
X120504Y-106225D01*
X120694Y-106226D01*
X120869Y-106153D01*
X121003Y-106019D01*
X121075Y-105845D01*
X121076Y-105655D01*
X121076Y-108819D01*
X120864Y-108819D01*
X120864Y-107775D01*
X120822Y-107674D01*
X120745Y-107597D01*
X120649Y-107557D01*
X120684Y-107474D01*
X120684Y-107365D01*
X120642Y-107264D01*
X120565Y-107187D01*
X120464Y-107145D01*
X120355Y-107145D01*
X120254Y-107187D01*
X120177Y-107264D01*
X120135Y-107365D01*
X120135Y-107474D01*
X120177Y-107575D01*
X120254Y-107652D01*
X120350Y-107692D01*
X120315Y-107775D01*
X120315Y-107884D01*
X120357Y-107985D01*
X120434Y-108062D01*
X120535Y-108104D01*
X120644Y-108104D01*
X120745Y-108062D01*
X120822Y-107985D01*
X120864Y-107884D01*
X120864Y-107775D01*
X120864Y-108819D01*
X120076Y-108819D01*
X120076Y-104655D01*
X120003Y-104480D01*
X119869Y-104346D01*
X119695Y-104274D01*
X119505Y-104273D01*
X119330Y-104346D01*
X119196Y-104480D01*
X119124Y-104654D01*
X119123Y-104844D01*
X119196Y-105019D01*
X119330Y-105153D01*
X119504Y-105225D01*
X119694Y-105226D01*
X119869Y-105153D01*
X120003Y-105019D01*
X120075Y-104845D01*
X120076Y-104655D01*
X120076Y-108819D01*
X120076Y-108819D01*
X120076Y-106015D01*
X120076Y-105415D01*
X120049Y-105350D01*
X119999Y-105300D01*
X119935Y-105274D01*
X119865Y-105273D01*
X119265Y-105273D01*
X119200Y-105300D01*
X119150Y-105350D01*
X119124Y-105414D01*
X119123Y-105484D01*
X119123Y-106084D01*
X119150Y-106149D01*
X119200Y-106199D01*
X119264Y-106225D01*
X119334Y-106226D01*
X119934Y-106226D01*
X119999Y-106199D01*
X120049Y-106149D01*
X120075Y-106085D01*
X120076Y-106015D01*
X120076Y-108819D01*
X119220Y-108819D01*
X119207Y-108789D01*
X119080Y-108662D01*
X119050Y-108650D01*
X119050Y-108308D01*
X119619Y-107739D01*
X119619Y-107739D01*
X119619Y-107739D01*
X119668Y-107666D01*
X119668Y-107666D01*
X119685Y-107580D01*
X119685Y-107580D01*
X119685Y-106790D01*
X119668Y-106703D01*
X119619Y-106630D01*
X118845Y-105856D01*
X118845Y-99733D01*
X120094Y-98484D01*
X120104Y-98484D01*
X120205Y-98442D01*
X120282Y-98365D01*
X120324Y-98264D01*
X120324Y-98155D01*
X120282Y-98054D01*
X120205Y-97977D01*
X120104Y-97935D01*
X119995Y-97935D01*
X119894Y-97977D01*
X119817Y-98054D01*
X119775Y-98155D01*
X119775Y-98165D01*
X119373Y-98567D01*
X119406Y-98490D01*
X119406Y-98310D01*
X119337Y-98144D01*
X119210Y-98017D01*
X119045Y-97949D01*
X118865Y-97948D01*
X118699Y-98017D01*
X118625Y-98092D01*
X118625Y-97707D01*
X118699Y-97782D01*
X118865Y-97850D01*
X119044Y-97851D01*
X119210Y-97782D01*
X119337Y-97655D01*
X119406Y-97490D01*
X119406Y-97310D01*
X119337Y-97144D01*
X119210Y-97017D01*
X119045Y-96949D01*
X118865Y-96948D01*
X118699Y-97017D01*
X118625Y-97092D01*
X118625Y-96707D01*
X118699Y-96782D01*
X118865Y-96850D01*
X119044Y-96851D01*
X119210Y-96782D01*
X119337Y-96655D01*
X119406Y-96490D01*
X119406Y-96310D01*
X119337Y-96144D01*
X119252Y-96059D01*
X119210Y-96017D01*
X119045Y-95949D01*
X118865Y-95948D01*
X118699Y-96017D01*
X118625Y-96092D01*
X118625Y-95800D01*
X118658Y-95767D01*
X118682Y-95860D01*
X118879Y-95929D01*
X119087Y-95918D01*
X119227Y-95860D01*
X119252Y-95767D01*
X118955Y-95470D01*
X118949Y-95476D01*
X118878Y-95405D01*
X118884Y-95400D01*
X118878Y-95394D01*
X118949Y-95323D01*
X118955Y-95329D01*
X118960Y-95323D01*
X119031Y-95394D01*
X119025Y-95400D01*
X119322Y-95697D01*
X119415Y-95672D01*
X119485Y-95475D01*
X119474Y-95288D01*
X119845Y-95659D01*
X119930Y-95716D01*
X120030Y-95735D01*
X120144Y-95735D01*
X120180Y-95772D01*
X120309Y-95825D01*
X120449Y-95826D01*
X120578Y-95772D01*
X120677Y-95674D01*
X120730Y-95545D01*
X120731Y-95405D01*
X120677Y-95276D01*
X120579Y-95177D01*
X120455Y-95126D01*
X120455Y-94370D01*
X120443Y-94162D01*
X120385Y-94022D01*
X120292Y-93997D01*
X120222Y-94068D01*
X120222Y-93927D01*
X120198Y-93834D01*
X120000Y-93764D01*
X119792Y-93776D01*
X119652Y-93834D01*
X119628Y-93927D01*
X119925Y-94224D01*
X120222Y-93927D01*
X120222Y-94068D01*
X119995Y-94294D01*
X120292Y-94591D01*
X120385Y-94567D01*
X120455Y-94370D01*
X120455Y-95126D01*
X120450Y-95124D01*
X120310Y-95123D01*
X120181Y-95177D01*
X120144Y-95214D01*
X120138Y-95214D01*
X119694Y-94770D01*
X119849Y-94824D01*
X120057Y-94813D01*
X120198Y-94755D01*
X120222Y-94662D01*
X119925Y-94365D01*
X119919Y-94371D01*
X119848Y-94300D01*
X119854Y-94294D01*
X119557Y-93997D01*
X119464Y-94022D01*
X119395Y-94219D01*
X119399Y-94294D01*
X119337Y-94144D01*
X119210Y-94017D01*
X119045Y-93949D01*
X118865Y-93948D01*
X118699Y-94017D01*
X118625Y-94092D01*
X118625Y-93842D01*
X118644Y-93850D01*
X118714Y-93851D01*
X119264Y-93851D01*
X119329Y-93824D01*
X119379Y-93774D01*
X119406Y-93710D01*
X119406Y-93640D01*
X119406Y-93090D01*
X119379Y-93025D01*
X119329Y-92975D01*
X119265Y-92949D01*
X119195Y-92948D01*
X118645Y-92948D01*
X118625Y-92957D01*
X118625Y-92943D01*
X118740Y-92828D01*
X118854Y-92875D01*
X119044Y-92876D01*
X119219Y-92803D01*
X119353Y-92669D01*
X119425Y-92495D01*
X119426Y-92305D01*
X119426Y-91305D01*
X119426Y-91305D01*
X119426Y-90665D01*
X119426Y-90065D01*
X119399Y-90000D01*
X119349Y-89950D01*
X119285Y-89924D01*
X119215Y-89923D01*
X118615Y-89923D01*
X118550Y-89950D01*
X118500Y-90000D01*
X118474Y-90064D01*
X118473Y-90134D01*
X118473Y-90734D01*
X118500Y-90799D01*
X118550Y-90849D01*
X118614Y-90875D01*
X118684Y-90876D01*
X119284Y-90876D01*
X119349Y-90849D01*
X119399Y-90799D01*
X119425Y-90735D01*
X119426Y-90665D01*
X119426Y-91305D01*
X119353Y-91130D01*
X119219Y-90996D01*
X119045Y-90924D01*
X118855Y-90923D01*
X118680Y-90996D01*
X118546Y-91130D01*
X118474Y-91304D01*
X118473Y-91494D01*
X118546Y-91669D01*
X118680Y-91803D01*
X118854Y-91875D01*
X119044Y-91876D01*
X119219Y-91803D01*
X119353Y-91669D01*
X119425Y-91495D01*
X119426Y-91305D01*
X119426Y-92305D01*
X119353Y-92130D01*
X119219Y-91996D01*
X119045Y-91924D01*
X118855Y-91923D01*
X118680Y-91996D01*
X118546Y-92130D01*
X118474Y-92304D01*
X118473Y-92457D01*
X118345Y-92585D01*
X118345Y-85095D01*
X131128Y-85095D01*
X131279Y-85856D01*
X131316Y-85946D01*
X131319Y-85949D01*
X131786Y-86650D01*
X125103Y-86650D01*
X125103Y-86146D01*
X125049Y-86017D01*
X124951Y-85918D01*
X124822Y-85865D01*
X124682Y-85864D01*
X124553Y-85918D01*
X124454Y-86016D01*
X124401Y-86145D01*
X124400Y-86285D01*
X124454Y-86414D01*
X124552Y-86513D01*
X124681Y-86566D01*
X124821Y-86567D01*
X124950Y-86513D01*
X125049Y-86415D01*
X125102Y-86286D01*
X125103Y-86146D01*
X125103Y-86650D01*
X124350Y-86650D01*
X124350Y-88500D01*
X119650Y-88500D01*
X119650Y-91150D01*
X121150Y-91150D01*
X121150Y-97728D01*
X120376Y-98468D01*
X120376Y-96205D01*
X120307Y-96039D01*
X120180Y-95912D01*
X120015Y-95843D01*
X119835Y-95843D01*
X119670Y-95912D01*
X119543Y-96039D01*
X119474Y-96204D01*
X119474Y-96384D01*
X119542Y-96550D01*
X119669Y-96676D01*
X119835Y-96745D01*
X120014Y-96745D01*
X120180Y-96677D01*
X120307Y-96550D01*
X120376Y-96384D01*
X120376Y-96205D01*
X120376Y-98468D01*
X118850Y-99928D01*
X118850Y-102650D01*
X121350Y-102650D01*
X121350Y-102211D01*
X121504Y-102275D01*
X121694Y-102276D01*
X121869Y-102203D01*
X122003Y-102069D01*
X122075Y-101895D01*
X122076Y-101705D01*
X122003Y-101530D01*
X121869Y-101396D01*
X121695Y-101324D01*
X121505Y-101323D01*
X121350Y-101388D01*
X121350Y-101211D01*
X121504Y-101275D01*
X121694Y-101276D01*
X121869Y-101203D01*
X122003Y-101069D01*
X122075Y-100895D01*
X122076Y-100705D01*
X122003Y-100530D01*
X121973Y-100500D01*
X122226Y-100500D01*
X122196Y-100530D01*
X122124Y-100704D01*
X122123Y-100894D01*
X122196Y-101069D01*
X122330Y-101203D01*
X122504Y-101275D01*
X122694Y-101276D01*
X122869Y-101203D01*
X123003Y-101069D01*
X123075Y-100895D01*
X123076Y-100705D01*
X123003Y-100530D01*
X122869Y-100396D01*
X122700Y-100326D01*
X122700Y-96689D01*
X122835Y-96745D01*
X123014Y-96745D01*
X123180Y-96677D01*
X123307Y-96550D01*
X123376Y-96384D01*
X123376Y-96205D01*
X123307Y-96039D01*
X123180Y-95912D01*
X123029Y-95850D01*
X132779Y-95850D01*
X134350Y-97420D01*
X134350Y-99200D01*
X134350Y-99200D01*
G37*
G54D27*
X134350Y-99200D02*
X134054Y-99200D01*
X134054Y-97465D01*
X134012Y-97364D01*
X133935Y-97287D01*
X133834Y-97245D01*
X133725Y-97245D01*
X133624Y-97287D01*
X133547Y-97364D01*
X133505Y-97465D01*
X133505Y-97574D01*
X133547Y-97675D01*
X133624Y-97752D01*
X133725Y-97794D01*
X133834Y-97794D01*
X133935Y-97752D01*
X134012Y-97675D01*
X134054Y-97574D01*
X134054Y-97465D01*
X134054Y-99200D01*
X132644Y-99200D01*
X132644Y-98275D01*
X132602Y-98174D01*
X132525Y-98097D01*
X132424Y-98055D01*
X132315Y-98055D01*
X132214Y-98097D01*
X132137Y-98174D01*
X132095Y-98275D01*
X132095Y-98384D01*
X132137Y-98485D01*
X132214Y-98562D01*
X132315Y-98604D01*
X132424Y-98604D01*
X132525Y-98562D01*
X132602Y-98485D01*
X132644Y-98384D01*
X132644Y-98275D01*
X132644Y-99200D01*
X131974Y-99200D01*
X131974Y-96675D01*
X131932Y-96574D01*
X131855Y-96497D01*
X131754Y-96455D01*
X131645Y-96455D01*
X131544Y-96497D01*
X131467Y-96574D01*
X131425Y-96675D01*
X131425Y-96784D01*
X131467Y-96885D01*
X131544Y-96962D01*
X131645Y-97004D01*
X131754Y-97004D01*
X131855Y-96962D01*
X131932Y-96885D01*
X131974Y-96784D01*
X131974Y-96675D01*
X131974Y-99200D01*
X130092Y-99200D01*
X130170Y-99167D01*
X130247Y-99090D01*
X130289Y-98989D01*
X130289Y-98880D01*
X130247Y-98779D01*
X130170Y-98702D01*
X130069Y-98660D01*
X129960Y-98660D01*
X129904Y-98683D01*
X129904Y-96495D01*
X129862Y-96394D01*
X129785Y-96317D01*
X129684Y-96275D01*
X129575Y-96275D01*
X129474Y-96317D01*
X129397Y-96394D01*
X129355Y-96495D01*
X129355Y-96604D01*
X129397Y-96705D01*
X129474Y-96782D01*
X129575Y-96824D01*
X129684Y-96824D01*
X129785Y-96782D01*
X129862Y-96705D01*
X129904Y-96604D01*
X129904Y-96495D01*
X129904Y-98683D01*
X129859Y-98702D01*
X129782Y-98779D01*
X129740Y-98880D01*
X129740Y-98989D01*
X129782Y-99090D01*
X129859Y-99167D01*
X129937Y-99200D01*
X129500Y-99200D01*
X129500Y-97000D01*
X129143Y-97000D01*
X129174Y-96924D01*
X129174Y-96815D01*
X129132Y-96714D01*
X129055Y-96637D01*
X128954Y-96595D01*
X128845Y-96595D01*
X128744Y-96637D01*
X128667Y-96714D01*
X128625Y-96815D01*
X128625Y-96924D01*
X128656Y-97000D01*
X127350Y-97000D01*
X127350Y-98258D01*
X127253Y-98258D01*
X127152Y-98299D01*
X127075Y-98376D01*
X127033Y-98477D01*
X127033Y-98586D01*
X127074Y-98687D01*
X127151Y-98764D01*
X127252Y-98806D01*
X127350Y-98806D01*
X127350Y-99114D01*
X127312Y-99024D01*
X127235Y-98947D01*
X127134Y-98905D01*
X127025Y-98905D01*
X126924Y-98947D01*
X126847Y-99024D01*
X126805Y-99125D01*
X126805Y-99234D01*
X126847Y-99335D01*
X126924Y-99412D01*
X127025Y-99454D01*
X127134Y-99454D01*
X127235Y-99412D01*
X127312Y-99335D01*
X127350Y-99245D01*
X127350Y-99529D01*
X126900Y-99979D01*
X126900Y-100426D01*
X126869Y-100396D01*
X126695Y-100324D01*
X126505Y-100323D01*
X126444Y-100349D01*
X126444Y-99455D01*
X126402Y-99354D01*
X126325Y-99277D01*
X126224Y-99235D01*
X126115Y-99235D01*
X126014Y-99277D01*
X125937Y-99354D01*
X125895Y-99455D01*
X125895Y-99564D01*
X125937Y-99665D01*
X126014Y-99742D01*
X126115Y-99784D01*
X126224Y-99784D01*
X126325Y-99742D01*
X126402Y-99665D01*
X126444Y-99564D01*
X126444Y-99455D01*
X126444Y-100349D01*
X126330Y-100396D01*
X126196Y-100530D01*
X126124Y-100704D01*
X126123Y-100894D01*
X126196Y-101069D01*
X126330Y-101203D01*
X126504Y-101275D01*
X126694Y-101276D01*
X126869Y-101203D01*
X126900Y-101173D01*
X126900Y-101351D01*
X127491Y-101329D01*
X127330Y-101396D01*
X127196Y-101530D01*
X127124Y-101704D01*
X127123Y-101894D01*
X127196Y-102069D01*
X127330Y-102203D01*
X127504Y-102275D01*
X127694Y-102276D01*
X127869Y-102203D01*
X128003Y-102069D01*
X128057Y-101939D01*
X128118Y-102087D01*
X128214Y-102115D01*
X128529Y-101800D01*
X128214Y-101484D01*
X128118Y-101512D01*
X128061Y-101671D01*
X128003Y-101530D01*
X127869Y-101396D01*
X127695Y-101324D01*
X127651Y-101324D01*
X128350Y-101298D01*
X128350Y-101294D01*
X128360Y-101298D01*
X128312Y-101318D01*
X128284Y-101414D01*
X128600Y-101729D01*
X128915Y-101414D01*
X128887Y-101318D01*
X128839Y-101301D01*
X128887Y-101281D01*
X128915Y-101185D01*
X128600Y-100870D01*
X128594Y-100876D01*
X128523Y-100805D01*
X128529Y-100800D01*
X128523Y-100794D01*
X128594Y-100723D01*
X128600Y-100729D01*
X128915Y-100414D01*
X128911Y-100400D01*
X129880Y-100400D01*
X130571Y-101043D01*
X130504Y-101015D01*
X130395Y-101015D01*
X130294Y-101057D01*
X130217Y-101134D01*
X130175Y-101235D01*
X130175Y-101344D01*
X130217Y-101445D01*
X130294Y-101522D01*
X130395Y-101564D01*
X130504Y-101564D01*
X130605Y-101522D01*
X130682Y-101445D01*
X130724Y-101344D01*
X130724Y-101235D01*
X130691Y-101154D01*
X131300Y-101721D01*
X131300Y-102200D01*
X130500Y-102200D01*
X130500Y-104000D01*
X131300Y-104000D01*
X131300Y-106046D01*
X132304Y-106120D01*
X132285Y-106165D01*
X132285Y-106274D01*
X132327Y-106375D01*
X132285Y-106475D01*
X132285Y-106584D01*
X132289Y-106594D01*
X131828Y-106594D01*
X131194Y-105960D01*
X131121Y-105911D01*
X131035Y-105894D01*
X130239Y-105894D01*
X130305Y-105867D01*
X130382Y-105790D01*
X130424Y-105689D01*
X130424Y-105665D01*
X130445Y-105674D01*
X130554Y-105674D01*
X130655Y-105632D01*
X130732Y-105555D01*
X130756Y-105499D01*
X130814Y-105557D01*
X130915Y-105599D01*
X131024Y-105599D01*
X131125Y-105557D01*
X131202Y-105480D01*
X131244Y-105379D01*
X131244Y-105270D01*
X131202Y-105169D01*
X131125Y-105092D01*
X131024Y-105050D01*
X130915Y-105050D01*
X130814Y-105092D01*
X130737Y-105169D01*
X130713Y-105225D01*
X130655Y-105167D01*
X130554Y-105125D01*
X130445Y-105125D01*
X130344Y-105167D01*
X130267Y-105244D01*
X130225Y-105345D01*
X130225Y-105369D01*
X130204Y-105360D01*
X130095Y-105360D01*
X129994Y-105402D01*
X129917Y-105479D01*
X129875Y-105580D01*
X129875Y-105689D01*
X129917Y-105790D01*
X129994Y-105867D01*
X130060Y-105894D01*
X129806Y-105894D01*
X129806Y-102345D01*
X129764Y-102244D01*
X129687Y-102167D01*
X129586Y-102125D01*
X129477Y-102125D01*
X129376Y-102167D01*
X129299Y-102244D01*
X129257Y-102345D01*
X129257Y-102454D01*
X129299Y-102555D01*
X129376Y-102632D01*
X129477Y-102674D01*
X129586Y-102674D01*
X129687Y-102632D01*
X129764Y-102555D01*
X129806Y-102454D01*
X129806Y-102345D01*
X129806Y-105894D01*
X129315Y-105894D01*
X129228Y-105911D01*
X129155Y-105960D01*
X129082Y-106033D01*
X129154Y-105831D01*
X129154Y-104831D01*
X129154Y-101881D01*
X129154Y-100881D01*
X129143Y-100663D01*
X129081Y-100512D01*
X128985Y-100484D01*
X128670Y-100800D01*
X128985Y-101115D01*
X129081Y-101087D01*
X129154Y-100881D01*
X129154Y-101881D01*
X129143Y-101663D01*
X129081Y-101512D01*
X128985Y-101484D01*
X128670Y-101800D01*
X128985Y-102115D01*
X129081Y-102087D01*
X129154Y-101881D01*
X129154Y-104831D01*
X129143Y-104613D01*
X129081Y-104462D01*
X128985Y-104434D01*
X128915Y-104505D01*
X128915Y-104364D01*
X128915Y-102185D01*
X128600Y-101870D01*
X128284Y-102185D01*
X128312Y-102281D01*
X128518Y-102354D01*
X128736Y-102343D01*
X128887Y-102281D01*
X128915Y-102185D01*
X128915Y-104364D01*
X128887Y-104268D01*
X128681Y-104195D01*
X128463Y-104206D01*
X128312Y-104268D01*
X128284Y-104364D01*
X128600Y-104679D01*
X128915Y-104364D01*
X128915Y-104505D01*
X128670Y-104750D01*
X128985Y-105065D01*
X129081Y-105037D01*
X129154Y-104831D01*
X129154Y-105831D01*
X129143Y-105613D01*
X129081Y-105462D01*
X128985Y-105434D01*
X128915Y-105505D01*
X128915Y-105364D01*
X128887Y-105268D01*
X128839Y-105251D01*
X128887Y-105231D01*
X128915Y-105135D01*
X128600Y-104820D01*
X128529Y-104891D01*
X128529Y-104750D01*
X128214Y-104434D01*
X128118Y-104462D01*
X128061Y-104621D01*
X128003Y-104480D01*
X127869Y-104346D01*
X127695Y-104274D01*
X127505Y-104273D01*
X127330Y-104346D01*
X127196Y-104480D01*
X127124Y-104654D01*
X127123Y-104844D01*
X127196Y-105019D01*
X127330Y-105153D01*
X127504Y-105225D01*
X127694Y-105226D01*
X127869Y-105153D01*
X128003Y-105019D01*
X128057Y-104889D01*
X128118Y-105037D01*
X128214Y-105065D01*
X128529Y-104750D01*
X128529Y-104891D01*
X128284Y-105135D01*
X128312Y-105231D01*
X128360Y-105248D01*
X128312Y-105268D01*
X128284Y-105364D01*
X128600Y-105679D01*
X128915Y-105364D01*
X128915Y-105505D01*
X128670Y-105750D01*
X128676Y-105755D01*
X128605Y-105826D01*
X128600Y-105820D01*
X128529Y-105891D01*
X128529Y-105750D01*
X128214Y-105434D01*
X128118Y-105462D01*
X128061Y-105621D01*
X128003Y-105480D01*
X127869Y-105346D01*
X127695Y-105274D01*
X127505Y-105273D01*
X127330Y-105346D01*
X127196Y-105480D01*
X127124Y-105654D01*
X127123Y-105844D01*
X127196Y-106019D01*
X127330Y-106153D01*
X127504Y-106225D01*
X127694Y-106226D01*
X127869Y-106153D01*
X128003Y-106019D01*
X128057Y-105889D01*
X128118Y-106037D01*
X128214Y-106065D01*
X128529Y-105750D01*
X128529Y-105891D01*
X128284Y-106135D01*
X128312Y-106231D01*
X128518Y-106304D01*
X128736Y-106293D01*
X128764Y-106282D01*
X128717Y-106329D01*
X128675Y-106430D01*
X128675Y-106539D01*
X128717Y-106640D01*
X128794Y-106717D01*
X128895Y-106759D01*
X129004Y-106759D01*
X129105Y-106717D01*
X129182Y-106640D01*
X129224Y-106539D01*
X129224Y-106529D01*
X129408Y-106345D01*
X129983Y-106345D01*
X129897Y-106430D01*
X129844Y-106559D01*
X129843Y-106699D01*
X129897Y-106828D01*
X129995Y-106927D01*
X130124Y-106980D01*
X130264Y-106981D01*
X130393Y-106927D01*
X130492Y-106829D01*
X130545Y-106700D01*
X130545Y-106673D01*
X130614Y-106742D01*
X130715Y-106784D01*
X130745Y-106784D01*
X130745Y-106864D01*
X130787Y-106965D01*
X130864Y-107042D01*
X130965Y-107084D01*
X131074Y-107084D01*
X131175Y-107042D01*
X131252Y-106965D01*
X131294Y-106864D01*
X131294Y-106755D01*
X131253Y-106657D01*
X131575Y-106979D01*
X131575Y-106979D01*
X131648Y-107028D01*
X131734Y-107045D01*
X131735Y-107045D01*
X132085Y-107045D01*
X132085Y-107050D01*
X131066Y-108069D01*
X129230Y-108069D01*
X127215Y-108069D01*
X127128Y-108086D01*
X127076Y-108122D01*
X127076Y-105655D01*
X127076Y-104655D01*
X127076Y-101705D01*
X127003Y-101530D01*
X126869Y-101396D01*
X126695Y-101324D01*
X126505Y-101323D01*
X126330Y-101396D01*
X126196Y-101530D01*
X126124Y-101704D01*
X126123Y-101894D01*
X126196Y-102069D01*
X126330Y-102203D01*
X126504Y-102275D01*
X126694Y-102276D01*
X126869Y-102203D01*
X127003Y-102069D01*
X127075Y-101895D01*
X127076Y-101705D01*
X127076Y-104655D01*
X127003Y-104480D01*
X126869Y-104346D01*
X126695Y-104274D01*
X126505Y-104273D01*
X126330Y-104346D01*
X126196Y-104480D01*
X126124Y-104654D01*
X126123Y-104844D01*
X126196Y-105019D01*
X126330Y-105153D01*
X126504Y-105225D01*
X126694Y-105226D01*
X126869Y-105153D01*
X127003Y-105019D01*
X127075Y-104845D01*
X127076Y-104655D01*
X127076Y-105655D01*
X127003Y-105480D01*
X126869Y-105346D01*
X126695Y-105274D01*
X126505Y-105273D01*
X126330Y-105346D01*
X126196Y-105480D01*
X126124Y-105654D01*
X126123Y-105844D01*
X126196Y-106019D01*
X126330Y-106153D01*
X126504Y-106225D01*
X126694Y-106226D01*
X126869Y-106153D01*
X127003Y-106019D01*
X127075Y-105845D01*
X127076Y-105655D01*
X127076Y-108122D01*
X127055Y-108135D01*
X126735Y-108456D01*
X126735Y-107245D01*
X126690Y-107136D01*
X126607Y-107054D01*
X126499Y-107009D01*
X126382Y-107009D01*
X126274Y-107053D01*
X126191Y-107136D01*
X126146Y-107244D01*
X126146Y-107361D01*
X126191Y-107469D01*
X126274Y-107552D01*
X126382Y-107597D01*
X126499Y-107597D01*
X126607Y-107552D01*
X126690Y-107470D01*
X126734Y-107362D01*
X126735Y-107245D01*
X126735Y-108456D01*
X126144Y-109046D01*
X126138Y-108932D01*
X126080Y-108792D01*
X126076Y-108790D01*
X126076Y-105655D01*
X126076Y-104655D01*
X126003Y-104480D01*
X125869Y-104346D01*
X125695Y-104274D01*
X125505Y-104273D01*
X125330Y-104346D01*
X125196Y-104480D01*
X125124Y-104654D01*
X125123Y-104844D01*
X125196Y-105019D01*
X125330Y-105153D01*
X125504Y-105225D01*
X125694Y-105226D01*
X125869Y-105153D01*
X126003Y-105019D01*
X126075Y-104845D01*
X126076Y-104655D01*
X126076Y-105655D01*
X126003Y-105480D01*
X125869Y-105346D01*
X125695Y-105274D01*
X125505Y-105273D01*
X125330Y-105346D01*
X125196Y-105480D01*
X125124Y-105654D01*
X125123Y-105844D01*
X125196Y-106019D01*
X125330Y-106153D01*
X125504Y-106225D01*
X125694Y-106226D01*
X125869Y-106153D01*
X126003Y-106019D01*
X126075Y-105845D01*
X126076Y-105655D01*
X126076Y-108790D01*
X126071Y-108789D01*
X126071Y-106975D01*
X126002Y-106809D01*
X125875Y-106682D01*
X125710Y-106614D01*
X125530Y-106613D01*
X125364Y-106682D01*
X125237Y-106809D01*
X125169Y-106974D01*
X125169Y-107154D01*
X125237Y-107320D01*
X125364Y-107447D01*
X125529Y-107515D01*
X125709Y-107516D01*
X125875Y-107447D01*
X126002Y-107320D01*
X126070Y-107155D01*
X126071Y-106975D01*
X126071Y-108789D01*
X125987Y-108767D01*
X125917Y-108838D01*
X125917Y-108697D01*
X125892Y-108604D01*
X125695Y-108535D01*
X125487Y-108546D01*
X125347Y-108604D01*
X125322Y-108697D01*
X125620Y-108994D01*
X125917Y-108697D01*
X125917Y-108838D01*
X125690Y-109064D01*
X125696Y-109070D01*
X125625Y-109141D01*
X125620Y-109135D01*
X125614Y-109141D01*
X125543Y-109070D01*
X125549Y-109064D01*
X125252Y-108767D01*
X125159Y-108792D01*
X125090Y-108989D01*
X125101Y-109197D01*
X125152Y-109319D01*
X125148Y-109319D01*
X124325Y-108496D01*
X124325Y-106148D01*
X124330Y-106153D01*
X124504Y-106225D01*
X124694Y-106226D01*
X124869Y-106153D01*
X125003Y-106019D01*
X125075Y-105845D01*
X125076Y-105655D01*
X125003Y-105480D01*
X124869Y-105346D01*
X124695Y-105274D01*
X124505Y-105273D01*
X124330Y-105346D01*
X124325Y-105351D01*
X124325Y-105148D01*
X124330Y-105153D01*
X124504Y-105225D01*
X124694Y-105226D01*
X124869Y-105153D01*
X125003Y-105019D01*
X125075Y-104845D01*
X125076Y-104655D01*
X125003Y-104480D01*
X124869Y-104346D01*
X124695Y-104274D01*
X124505Y-104273D01*
X124330Y-104346D01*
X124325Y-104351D01*
X124325Y-103463D01*
X125254Y-102534D01*
X125254Y-102534D01*
X125254Y-102534D01*
X125303Y-102461D01*
X125303Y-102461D01*
X125320Y-102375D01*
X125320Y-102375D01*
X125320Y-102193D01*
X125330Y-102203D01*
X125504Y-102275D01*
X125694Y-102276D01*
X125869Y-102203D01*
X126003Y-102069D01*
X126075Y-101895D01*
X126076Y-101705D01*
X126003Y-101530D01*
X125869Y-101396D01*
X125695Y-101324D01*
X125505Y-101323D01*
X125330Y-101396D01*
X125320Y-101406D01*
X125320Y-101398D01*
X125460Y-101257D01*
X125504Y-101275D01*
X125694Y-101276D01*
X125869Y-101203D01*
X126003Y-101069D01*
X126075Y-100895D01*
X126076Y-100705D01*
X126003Y-100530D01*
X125869Y-100396D01*
X125695Y-100324D01*
X125604Y-100324D01*
X125604Y-99810D01*
X125562Y-99709D01*
X125485Y-99632D01*
X125384Y-99590D01*
X125275Y-99590D01*
X125174Y-99632D01*
X125167Y-99639D01*
X125140Y-99612D01*
X125039Y-99570D01*
X124930Y-99570D01*
X124829Y-99612D01*
X124752Y-99689D01*
X124710Y-99790D01*
X124710Y-99899D01*
X124752Y-100000D01*
X124829Y-100077D01*
X124930Y-100119D01*
X125039Y-100119D01*
X125140Y-100077D01*
X125147Y-100070D01*
X125174Y-100097D01*
X125275Y-100139D01*
X125384Y-100139D01*
X125485Y-100097D01*
X125562Y-100020D01*
X125604Y-99919D01*
X125604Y-99810D01*
X125604Y-100324D01*
X125505Y-100323D01*
X125330Y-100396D01*
X125196Y-100530D01*
X125124Y-100704D01*
X125123Y-100894D01*
X125142Y-100939D01*
X125076Y-101005D01*
X125076Y-100705D01*
X125003Y-100530D01*
X124869Y-100396D01*
X124695Y-100324D01*
X124505Y-100323D01*
X124330Y-100396D01*
X124196Y-100530D01*
X124124Y-100704D01*
X124123Y-100894D01*
X124196Y-101069D01*
X124330Y-101203D01*
X124504Y-101275D01*
X124694Y-101276D01*
X124869Y-101203D01*
X125003Y-101069D01*
X125075Y-100895D01*
X125076Y-100705D01*
X125076Y-101005D01*
X124935Y-101145D01*
X124886Y-101218D01*
X124869Y-101305D01*
X124869Y-101396D01*
X124695Y-101324D01*
X124505Y-101323D01*
X124330Y-101396D01*
X124196Y-101530D01*
X124124Y-101704D01*
X124123Y-101894D01*
X124196Y-102069D01*
X124330Y-102203D01*
X124504Y-102275D01*
X124694Y-102276D01*
X124869Y-102203D01*
X124869Y-102203D01*
X124869Y-102281D01*
X124076Y-103075D01*
X124076Y-101705D01*
X124076Y-100705D01*
X124003Y-100530D01*
X123869Y-100396D01*
X123695Y-100324D01*
X123505Y-100323D01*
X123469Y-100338D01*
X123469Y-97000D01*
X123427Y-96899D01*
X123350Y-96822D01*
X123249Y-96780D01*
X123140Y-96780D01*
X123039Y-96822D01*
X122962Y-96899D01*
X122920Y-97000D01*
X122920Y-97109D01*
X122962Y-97210D01*
X123039Y-97287D01*
X123140Y-97329D01*
X123249Y-97329D01*
X123350Y-97287D01*
X123427Y-97210D01*
X123469Y-97109D01*
X123469Y-97000D01*
X123469Y-100338D01*
X123330Y-100396D01*
X123196Y-100530D01*
X123124Y-100704D01*
X123123Y-100894D01*
X123196Y-101069D01*
X123330Y-101203D01*
X123504Y-101275D01*
X123694Y-101276D01*
X123869Y-101203D01*
X124003Y-101069D01*
X124075Y-100895D01*
X124076Y-100705D01*
X124076Y-101705D01*
X124003Y-101530D01*
X123869Y-101396D01*
X123695Y-101324D01*
X123505Y-101323D01*
X123330Y-101396D01*
X123196Y-101530D01*
X123124Y-101704D01*
X123123Y-101894D01*
X123196Y-102069D01*
X123330Y-102203D01*
X123504Y-102275D01*
X123694Y-102276D01*
X123869Y-102203D01*
X124003Y-102069D01*
X124075Y-101895D01*
X124076Y-101705D01*
X124076Y-103075D01*
X123940Y-103210D01*
X123891Y-103283D01*
X123874Y-103370D01*
X123874Y-104351D01*
X123869Y-104346D01*
X123695Y-104274D01*
X123505Y-104273D01*
X123330Y-104346D01*
X123196Y-104480D01*
X123124Y-104654D01*
X123123Y-104844D01*
X123196Y-105019D01*
X123330Y-105153D01*
X123504Y-105225D01*
X123694Y-105226D01*
X123869Y-105153D01*
X123874Y-105148D01*
X123874Y-105351D01*
X123869Y-105346D01*
X123695Y-105274D01*
X123505Y-105273D01*
X123330Y-105346D01*
X123196Y-105480D01*
X123124Y-105654D01*
X123123Y-105844D01*
X123196Y-106019D01*
X123330Y-106153D01*
X123504Y-106225D01*
X123694Y-106226D01*
X123869Y-106153D01*
X123874Y-106148D01*
X123874Y-108590D01*
X123891Y-108676D01*
X123940Y-108749D01*
X124895Y-109704D01*
X124895Y-109704D01*
X124968Y-109753D01*
X125054Y-109770D01*
X125055Y-109770D01*
X125965Y-109770D01*
X126051Y-109753D01*
X126124Y-109704D01*
X126685Y-109142D01*
X126685Y-109214D01*
X126727Y-109315D01*
X126804Y-109392D01*
X126905Y-109434D01*
X127014Y-109434D01*
X127115Y-109392D01*
X127192Y-109315D01*
X127234Y-109214D01*
X127234Y-109105D01*
X127192Y-109004D01*
X127115Y-108927D01*
X127014Y-108885D01*
X126942Y-108885D01*
X127308Y-108520D01*
X129230Y-108520D01*
X131160Y-108520D01*
X131246Y-108503D01*
X131319Y-108454D01*
X132409Y-107364D01*
X132414Y-107364D01*
X132515Y-107322D01*
X132592Y-107245D01*
X132634Y-107144D01*
X132634Y-107086D01*
X132650Y-107079D01*
X132650Y-107979D01*
X131679Y-108950D01*
X127817Y-108950D01*
X127782Y-108864D01*
X127705Y-108787D01*
X127604Y-108745D01*
X127495Y-108745D01*
X127394Y-108787D01*
X127317Y-108864D01*
X127275Y-108965D01*
X127275Y-109074D01*
X127317Y-109175D01*
X127394Y-109252D01*
X127433Y-109268D01*
X125350Y-111178D01*
X125350Y-112250D01*
X125524Y-112250D01*
X125500Y-112310D01*
X125499Y-112409D01*
X125500Y-112547D01*
X125562Y-112610D01*
X126000Y-112610D01*
X126000Y-112602D01*
X126100Y-112602D01*
X126100Y-112610D01*
X126107Y-112610D01*
X126107Y-112710D01*
X126100Y-112710D01*
X126100Y-112717D01*
X126000Y-112717D01*
X126000Y-112710D01*
X125562Y-112710D01*
X125500Y-112772D01*
X125499Y-112910D01*
X125500Y-113009D01*
X125518Y-113054D01*
X124604Y-113054D01*
X124604Y-110885D01*
X124562Y-110784D01*
X124485Y-110707D01*
X124384Y-110665D01*
X124275Y-110665D01*
X124174Y-110707D01*
X124097Y-110784D01*
X124055Y-110885D01*
X124055Y-110994D01*
X124097Y-111095D01*
X124174Y-111172D01*
X124275Y-111214D01*
X124384Y-111214D01*
X124485Y-111172D01*
X124562Y-111095D01*
X124604Y-110994D01*
X124604Y-110885D01*
X124604Y-113054D01*
X123414Y-113054D01*
X123414Y-110890D01*
X123372Y-110789D01*
X123295Y-110712D01*
X123194Y-110670D01*
X123149Y-110670D01*
X123149Y-109140D01*
X123138Y-108932D01*
X123080Y-108792D01*
X123076Y-108790D01*
X123076Y-105655D01*
X123076Y-104655D01*
X123076Y-101705D01*
X123003Y-101530D01*
X122869Y-101396D01*
X122695Y-101324D01*
X122505Y-101323D01*
X122330Y-101396D01*
X122196Y-101530D01*
X122124Y-101704D01*
X122123Y-101894D01*
X122196Y-102069D01*
X122330Y-102203D01*
X122504Y-102275D01*
X122694Y-102276D01*
X122869Y-102203D01*
X123003Y-102069D01*
X123075Y-101895D01*
X123076Y-101705D01*
X123076Y-104655D01*
X123003Y-104480D01*
X122869Y-104346D01*
X122695Y-104274D01*
X122505Y-104273D01*
X122330Y-104346D01*
X122196Y-104480D01*
X122124Y-104654D01*
X122123Y-104844D01*
X122196Y-105019D01*
X122330Y-105153D01*
X122504Y-105225D01*
X122694Y-105226D01*
X122869Y-105153D01*
X123003Y-105019D01*
X123075Y-104845D01*
X123076Y-104655D01*
X123076Y-105655D01*
X123003Y-105480D01*
X122869Y-105346D01*
X122695Y-105274D01*
X122505Y-105273D01*
X122330Y-105346D01*
X122196Y-105480D01*
X122124Y-105654D01*
X122123Y-105844D01*
X122196Y-106019D01*
X122330Y-106153D01*
X122504Y-106225D01*
X122694Y-106226D01*
X122869Y-106153D01*
X123003Y-106019D01*
X123075Y-105845D01*
X123076Y-105655D01*
X123076Y-108790D01*
X123071Y-108789D01*
X123071Y-106975D01*
X123002Y-106809D01*
X122875Y-106682D01*
X122710Y-106614D01*
X122530Y-106613D01*
X122364Y-106682D01*
X122237Y-106809D01*
X122226Y-106835D01*
X122207Y-106789D01*
X122080Y-106662D01*
X122076Y-106660D01*
X122076Y-105655D01*
X122076Y-104655D01*
X122003Y-104480D01*
X121869Y-104346D01*
X121695Y-104274D01*
X121505Y-104273D01*
X121330Y-104346D01*
X121196Y-104480D01*
X121124Y-104654D01*
X121123Y-104844D01*
X121196Y-105019D01*
X121330Y-105153D01*
X121504Y-105225D01*
X121694Y-105226D01*
X121869Y-105153D01*
X122003Y-105019D01*
X122075Y-104845D01*
X122076Y-104655D01*
X122076Y-105655D01*
X122003Y-105480D01*
X121869Y-105346D01*
X121695Y-105274D01*
X121505Y-105273D01*
X121330Y-105346D01*
X121196Y-105480D01*
X121124Y-105654D01*
X121123Y-105844D01*
X121196Y-106019D01*
X121330Y-106153D01*
X121504Y-106225D01*
X121694Y-106226D01*
X121869Y-106153D01*
X122003Y-106019D01*
X122075Y-105845D01*
X122076Y-105655D01*
X122076Y-106660D01*
X121915Y-106593D01*
X121735Y-106593D01*
X121570Y-106662D01*
X121443Y-106789D01*
X121374Y-106954D01*
X121374Y-107134D01*
X121442Y-107300D01*
X121569Y-107426D01*
X121735Y-107495D01*
X121914Y-107495D01*
X122080Y-107427D01*
X122207Y-107300D01*
X122218Y-107273D01*
X122237Y-107320D01*
X122364Y-107447D01*
X122529Y-107515D01*
X122709Y-107516D01*
X122875Y-107447D01*
X123002Y-107320D01*
X123070Y-107155D01*
X123071Y-106975D01*
X123071Y-108789D01*
X122987Y-108767D01*
X122917Y-108838D01*
X122917Y-108697D01*
X122892Y-108604D01*
X122695Y-108535D01*
X122487Y-108546D01*
X122347Y-108604D01*
X122322Y-108697D01*
X122620Y-108994D01*
X122917Y-108697D01*
X122917Y-108838D01*
X122690Y-109064D01*
X122987Y-109362D01*
X123080Y-109337D01*
X123149Y-109140D01*
X123149Y-110670D01*
X123085Y-110670D01*
X122984Y-110712D01*
X122917Y-110779D01*
X122917Y-109432D01*
X122620Y-109135D01*
X122322Y-109432D01*
X122347Y-109525D01*
X122544Y-109594D01*
X122752Y-109583D01*
X122892Y-109525D01*
X122917Y-109432D01*
X122917Y-110779D01*
X122907Y-110789D01*
X122865Y-110890D01*
X122865Y-110999D01*
X122907Y-111100D01*
X122984Y-111177D01*
X123085Y-111219D01*
X123194Y-111219D01*
X123295Y-111177D01*
X123372Y-111100D01*
X123414Y-110999D01*
X123414Y-110890D01*
X123414Y-113054D01*
X122314Y-113054D01*
X122314Y-110880D01*
X122272Y-110779D01*
X122195Y-110702D01*
X122094Y-110660D01*
X121985Y-110660D01*
X121884Y-110702D01*
X121807Y-110779D01*
X121765Y-110880D01*
X121765Y-110989D01*
X121807Y-111090D01*
X121884Y-111167D01*
X121985Y-111209D01*
X122094Y-111209D01*
X122195Y-111167D01*
X122272Y-111090D01*
X122314Y-110989D01*
X122314Y-110880D01*
X122314Y-113054D01*
X121239Y-113054D01*
X121239Y-110880D01*
X121197Y-110779D01*
X121120Y-110702D01*
X121019Y-110660D01*
X120910Y-110660D01*
X120809Y-110702D01*
X120732Y-110779D01*
X120690Y-110880D01*
X120690Y-110989D01*
X120732Y-111090D01*
X120809Y-111167D01*
X120910Y-111209D01*
X121019Y-111209D01*
X121120Y-111167D01*
X121197Y-111090D01*
X121239Y-110989D01*
X121239Y-110880D01*
X121239Y-113054D01*
X118345Y-113054D01*
X118345Y-106884D01*
X118386Y-106924D01*
X118374Y-106954D01*
X118374Y-107134D01*
X118442Y-107300D01*
X118569Y-107426D01*
X118735Y-107495D01*
X118914Y-107495D01*
X119080Y-107427D01*
X119207Y-107300D01*
X119234Y-107234D01*
X119234Y-107486D01*
X118665Y-108055D01*
X118617Y-108128D01*
X118600Y-108214D01*
X118600Y-108649D01*
X118570Y-108662D01*
X118443Y-108789D01*
X118374Y-108954D01*
X118374Y-109134D01*
X118442Y-109300D01*
X118569Y-109426D01*
X118735Y-109495D01*
X118914Y-109495D01*
X119080Y-109427D01*
X119207Y-109300D01*
X119220Y-109270D01*
X121430Y-109270D01*
X121442Y-109300D01*
X121569Y-109426D01*
X121735Y-109495D01*
X121914Y-109495D01*
X122080Y-109427D01*
X122167Y-109339D01*
X122252Y-109362D01*
X122549Y-109064D01*
X122252Y-108767D01*
X122199Y-108781D01*
X122080Y-108662D01*
X121915Y-108593D01*
X121735Y-108593D01*
X121664Y-108623D01*
X121664Y-108225D01*
X121622Y-108124D01*
X121545Y-108047D01*
X121444Y-108005D01*
X121335Y-108005D01*
X121234Y-108047D01*
X121157Y-108124D01*
X121115Y-108225D01*
X121115Y-108334D01*
X121157Y-108435D01*
X121234Y-108512D01*
X121335Y-108554D01*
X121444Y-108554D01*
X121545Y-108512D01*
X121622Y-108435D01*
X121664Y-108334D01*
X121664Y-108225D01*
X121664Y-108623D01*
X121570Y-108662D01*
X121443Y-108789D01*
X121430Y-108819D01*
X121076Y-108819D01*
X121076Y-105655D01*
X121076Y-104655D01*
X121003Y-104480D01*
X120869Y-104346D01*
X120695Y-104274D01*
X120505Y-104273D01*
X120330Y-104346D01*
X120196Y-104480D01*
X120124Y-104654D01*
X120123Y-104844D01*
X120196Y-105019D01*
X120330Y-105153D01*
X120504Y-105225D01*
X120694Y-105226D01*
X120869Y-105153D01*
X121003Y-105019D01*
X121075Y-104845D01*
X121076Y-104655D01*
X121076Y-105655D01*
X121003Y-105480D01*
X120869Y-105346D01*
X120695Y-105274D01*
X120505Y-105273D01*
X120330Y-105346D01*
X120196Y-105480D01*
X120124Y-105654D01*
X120123Y-105844D01*
X120196Y-106019D01*
X120330Y-106153D01*
X120504Y-106225D01*
X120694Y-106226D01*
X120869Y-106153D01*
X121003Y-106019D01*
X121075Y-105845D01*
X121076Y-105655D01*
X121076Y-108819D01*
X120864Y-108819D01*
X120864Y-107775D01*
X120822Y-107674D01*
X120745Y-107597D01*
X120649Y-107557D01*
X120684Y-107474D01*
X120684Y-107365D01*
X120642Y-107264D01*
X120565Y-107187D01*
X120464Y-107145D01*
X120355Y-107145D01*
X120254Y-107187D01*
X120177Y-107264D01*
X120135Y-107365D01*
X120135Y-107474D01*
X120177Y-107575D01*
X120254Y-107652D01*
X120350Y-107692D01*
X120315Y-107775D01*
X120315Y-107884D01*
X120357Y-107985D01*
X120434Y-108062D01*
X120535Y-108104D01*
X120644Y-108104D01*
X120745Y-108062D01*
X120822Y-107985D01*
X120864Y-107884D01*
X120864Y-107775D01*
X120864Y-108819D01*
X120076Y-108819D01*
X120076Y-104655D01*
X120003Y-104480D01*
X119869Y-104346D01*
X119695Y-104274D01*
X119505Y-104273D01*
X119330Y-104346D01*
X119196Y-104480D01*
X119124Y-104654D01*
X119123Y-104844D01*
X119196Y-105019D01*
X119330Y-105153D01*
X119504Y-105225D01*
X119694Y-105226D01*
X119869Y-105153D01*
X120003Y-105019D01*
X120075Y-104845D01*
X120076Y-104655D01*
X120076Y-108819D01*
X120076Y-108819D01*
X120076Y-106015D01*
X120076Y-105415D01*
X120049Y-105350D01*
X119999Y-105300D01*
X119935Y-105274D01*
X119865Y-105273D01*
X119265Y-105273D01*
X119200Y-105300D01*
X119150Y-105350D01*
X119124Y-105414D01*
X119123Y-105484D01*
X119123Y-106084D01*
X119150Y-106149D01*
X119200Y-106199D01*
X119264Y-106225D01*
X119334Y-106226D01*
X119934Y-106226D01*
X119999Y-106199D01*
X120049Y-106149D01*
X120075Y-106085D01*
X120076Y-106015D01*
X120076Y-108819D01*
X119220Y-108819D01*
X119207Y-108789D01*
X119080Y-108662D01*
X119050Y-108650D01*
X119050Y-108308D01*
X119619Y-107739D01*
X119619Y-107739D01*
X119619Y-107739D01*
X119668Y-107666D01*
X119668Y-107666D01*
X119685Y-107580D01*
X119685Y-107580D01*
X119685Y-106790D01*
X119668Y-106703D01*
X119619Y-106630D01*
X118845Y-105856D01*
X118845Y-99733D01*
X120094Y-98484D01*
X120104Y-98484D01*
X120205Y-98442D01*
X120282Y-98365D01*
X120324Y-98264D01*
X120324Y-98155D01*
X120282Y-98054D01*
X120205Y-97977D01*
X120104Y-97935D01*
X119995Y-97935D01*
X119894Y-97977D01*
X119817Y-98054D01*
X119775Y-98155D01*
X119775Y-98165D01*
X119373Y-98567D01*
X119406Y-98490D01*
X119406Y-98310D01*
X119337Y-98144D01*
X119210Y-98017D01*
X119045Y-97949D01*
X118865Y-97948D01*
X118699Y-98017D01*
X118625Y-98092D01*
X118625Y-97707D01*
X118699Y-97782D01*
X118865Y-97850D01*
X119044Y-97851D01*
X119210Y-97782D01*
X119337Y-97655D01*
X119406Y-97490D01*
X119406Y-97310D01*
X119337Y-97144D01*
X119210Y-97017D01*
X119045Y-96949D01*
X118865Y-96948D01*
X118699Y-97017D01*
X118625Y-97092D01*
X118625Y-96707D01*
X118699Y-96782D01*
X118865Y-96850D01*
X119044Y-96851D01*
X119210Y-96782D01*
X119337Y-96655D01*
X119406Y-96490D01*
X119406Y-96310D01*
X119337Y-96144D01*
X119252Y-96059D01*
X119210Y-96017D01*
X119045Y-95949D01*
X118865Y-95948D01*
X118699Y-96017D01*
X118625Y-96092D01*
X118625Y-95800D01*
X118658Y-95767D01*
X118682Y-95860D01*
X118879Y-95929D01*
X119087Y-95918D01*
X119227Y-95860D01*
X119252Y-95767D01*
X118955Y-95470D01*
X118949Y-95476D01*
X118878Y-95405D01*
X118884Y-95400D01*
X118878Y-95394D01*
X118949Y-95323D01*
X118955Y-95329D01*
X118960Y-95323D01*
X119031Y-95394D01*
X119025Y-95400D01*
X119322Y-95697D01*
X119415Y-95672D01*
X119485Y-95475D01*
X119474Y-95288D01*
X119845Y-95659D01*
X119930Y-95716D01*
X120030Y-95735D01*
X120144Y-95735D01*
X120180Y-95772D01*
X120309Y-95825D01*
X120449Y-95826D01*
X120578Y-95772D01*
X120677Y-95674D01*
X120730Y-95545D01*
X120731Y-95405D01*
X120677Y-95276D01*
X120579Y-95177D01*
X120455Y-95126D01*
X120455Y-94370D01*
X120443Y-94162D01*
X120385Y-94022D01*
X120292Y-93997D01*
X120222Y-94068D01*
X120222Y-93927D01*
X120198Y-93834D01*
X120000Y-93764D01*
X119792Y-93776D01*
X119652Y-93834D01*
X119628Y-93927D01*
X119925Y-94224D01*
X120222Y-93927D01*
X120222Y-94068D01*
X119995Y-94294D01*
X120292Y-94591D01*
X120385Y-94567D01*
X120455Y-94370D01*
X120455Y-95126D01*
X120450Y-95124D01*
X120310Y-95123D01*
X120181Y-95177D01*
X120144Y-95214D01*
X120138Y-95214D01*
X119694Y-94770D01*
X119849Y-94824D01*
X120057Y-94813D01*
X120198Y-94755D01*
X120222Y-94662D01*
X119925Y-94365D01*
X119919Y-94371D01*
X119848Y-94300D01*
X119854Y-94294D01*
X119557Y-93997D01*
X119464Y-94022D01*
X119395Y-94219D01*
X119399Y-94294D01*
X119337Y-94144D01*
X119210Y-94017D01*
X119045Y-93949D01*
X118865Y-93948D01*
X118699Y-94017D01*
X118625Y-94092D01*
X118625Y-93842D01*
X118644Y-93850D01*
X118714Y-93851D01*
X119264Y-93851D01*
X119329Y-93824D01*
X119379Y-93774D01*
X119406Y-93710D01*
X119406Y-93640D01*
X119406Y-93090D01*
X119379Y-93025D01*
X119329Y-92975D01*
X119265Y-92949D01*
X119195Y-92948D01*
X118645Y-92948D01*
X118625Y-92957D01*
X118625Y-92943D01*
X118740Y-92828D01*
X118854Y-92875D01*
X119044Y-92876D01*
X119219Y-92803D01*
X119353Y-92669D01*
X119425Y-92495D01*
X119426Y-92305D01*
X119426Y-91305D01*
X119426Y-91305D01*
X119426Y-90665D01*
X119426Y-90065D01*
X119399Y-90000D01*
X119349Y-89950D01*
X119285Y-89924D01*
X119215Y-89923D01*
X118615Y-89923D01*
X118550Y-89950D01*
X118500Y-90000D01*
X118474Y-90064D01*
X118473Y-90134D01*
X118473Y-90734D01*
X118500Y-90799D01*
X118550Y-90849D01*
X118614Y-90875D01*
X118684Y-90876D01*
X119284Y-90876D01*
X119349Y-90849D01*
X119399Y-90799D01*
X119425Y-90735D01*
X119426Y-90665D01*
X119426Y-91305D01*
X119353Y-91130D01*
X119219Y-90996D01*
X119045Y-90924D01*
X118855Y-90923D01*
X118680Y-90996D01*
X118546Y-91130D01*
X118474Y-91304D01*
X118473Y-91494D01*
X118546Y-91669D01*
X118680Y-91803D01*
X118854Y-91875D01*
X119044Y-91876D01*
X119219Y-91803D01*
X119353Y-91669D01*
X119425Y-91495D01*
X119426Y-91305D01*
X119426Y-92305D01*
X119353Y-92130D01*
X119219Y-91996D01*
X119045Y-91924D01*
X118855Y-91923D01*
X118680Y-91996D01*
X118546Y-92130D01*
X118474Y-92304D01*
X118473Y-92457D01*
X118345Y-92585D01*
X118345Y-85095D01*
X131128Y-85095D01*
X131279Y-85856D01*
X131316Y-85946D01*
X131319Y-85949D01*
X131786Y-86650D01*
X125103Y-86650D01*
X125103Y-86146D01*
X125049Y-86017D01*
X124951Y-85918D01*
X124822Y-85865D01*
X124682Y-85864D01*
X124553Y-85918D01*
X124454Y-86016D01*
X124401Y-86145D01*
X124400Y-86285D01*
X124454Y-86414D01*
X124552Y-86513D01*
X124681Y-86566D01*
X124821Y-86567D01*
X124950Y-86513D01*
X125049Y-86415D01*
X125102Y-86286D01*
X125103Y-86146D01*
X125103Y-86650D01*
X124350Y-86650D01*
X124350Y-88500D01*
X119650Y-88500D01*
X119650Y-91150D01*
X121150Y-91150D01*
X121150Y-97728D01*
X120376Y-98468D01*
X120376Y-96205D01*
X120307Y-96039D01*
X120180Y-95912D01*
X120015Y-95843D01*
X119835Y-95843D01*
X119670Y-95912D01*
X119543Y-96039D01*
X119474Y-96204D01*
X119474Y-96384D01*
X119542Y-96550D01*
X119669Y-96676D01*
X119835Y-96745D01*
X120014Y-96745D01*
X120180Y-96677D01*
X120307Y-96550D01*
X120376Y-96384D01*
X120376Y-96205D01*
X120376Y-98468D01*
X118850Y-99928D01*
X118850Y-102650D01*
X121350Y-102650D01*
X121350Y-102211D01*
X121504Y-102275D01*
X121694Y-102276D01*
X121869Y-102203D01*
X122003Y-102069D01*
X122075Y-101895D01*
X122076Y-101705D01*
X122003Y-101530D01*
X121869Y-101396D01*
X121695Y-101324D01*
X121505Y-101323D01*
X121350Y-101388D01*
X121350Y-101211D01*
X121504Y-101275D01*
X121694Y-101276D01*
X121869Y-101203D01*
X122003Y-101069D01*
X122075Y-100895D01*
X122076Y-100705D01*
X122003Y-100530D01*
X121973Y-100500D01*
X122226Y-100500D01*
X122196Y-100530D01*
X122124Y-100704D01*
X122123Y-100894D01*
X122196Y-101069D01*
X122330Y-101203D01*
X122504Y-101275D01*
X122694Y-101276D01*
X122869Y-101203D01*
X123003Y-101069D01*
X123075Y-100895D01*
X123076Y-100705D01*
X123003Y-100530D01*
X122869Y-100396D01*
X122700Y-100326D01*
X122700Y-96689D01*
X122835Y-96745D01*
X123014Y-96745D01*
X123180Y-96677D01*
X123307Y-96550D01*
X123376Y-96384D01*
X123376Y-96205D01*
X123307Y-96039D01*
X123180Y-95912D01*
X123029Y-95850D01*
X132779Y-95850D01*
X134350Y-97420D01*
X134350Y-99200D01*
G54D10*
G36*
X143701Y-110400D02*
X143700Y-110400D01*
X143276Y-110824D01*
X140067Y-110824D01*
X140067Y-110048D01*
X140023Y-109940D01*
X139940Y-109857D01*
X139832Y-109812D01*
X139715Y-109812D01*
X139607Y-109856D01*
X139524Y-109939D01*
X139504Y-109987D01*
X139504Y-108965D01*
X139462Y-108864D01*
X139385Y-108787D01*
X139284Y-108745D01*
X139175Y-108745D01*
X139074Y-108787D01*
X138997Y-108864D01*
X138955Y-108965D01*
X138955Y-109074D01*
X138997Y-109175D01*
X139074Y-109252D01*
X139175Y-109294D01*
X139284Y-109294D01*
X139385Y-109252D01*
X139462Y-109175D01*
X139504Y-109074D01*
X139504Y-108965D01*
X139504Y-109987D01*
X139479Y-110047D01*
X139479Y-110164D01*
X139524Y-110272D01*
X139606Y-110355D01*
X139714Y-110400D01*
X139831Y-110400D01*
X139939Y-110355D01*
X140022Y-110273D01*
X140067Y-110165D01*
X140067Y-110048D01*
X140067Y-110824D01*
X136718Y-110824D01*
X136103Y-110210D01*
X137512Y-110210D01*
X137514Y-110212D01*
X137615Y-110254D01*
X137724Y-110254D01*
X137825Y-110212D01*
X137902Y-110135D01*
X137944Y-110034D01*
X137944Y-109925D01*
X137902Y-109824D01*
X137825Y-109747D01*
X137724Y-109705D01*
X137615Y-109705D01*
X137514Y-109747D01*
X137502Y-109759D01*
X137109Y-109759D01*
X137109Y-108215D01*
X137067Y-108114D01*
X136990Y-108037D01*
X136889Y-107995D01*
X136780Y-107995D01*
X136679Y-108037D01*
X136602Y-108114D01*
X136560Y-108215D01*
X136560Y-108324D01*
X136602Y-108425D01*
X136679Y-108502D01*
X136780Y-108544D01*
X136889Y-108544D01*
X136990Y-108502D01*
X137067Y-108425D01*
X137109Y-108324D01*
X137109Y-108215D01*
X137109Y-109759D01*
X135835Y-109759D01*
X132305Y-109759D01*
X133800Y-108220D01*
X133800Y-108194D01*
X133881Y-108276D01*
X133989Y-108321D01*
X134106Y-108321D01*
X134214Y-108276D01*
X134297Y-108194D01*
X134310Y-108162D01*
X134346Y-108249D01*
X134429Y-108332D01*
X134537Y-108377D01*
X134654Y-108377D01*
X134762Y-108332D01*
X134845Y-108250D01*
X134890Y-108142D01*
X134890Y-108025D01*
X134845Y-107917D01*
X134762Y-107834D01*
X134654Y-107789D01*
X134537Y-107789D01*
X134429Y-107833D01*
X134347Y-107916D01*
X134333Y-107948D01*
X134297Y-107860D01*
X134215Y-107778D01*
X134107Y-107733D01*
X133990Y-107733D01*
X133882Y-107777D01*
X133800Y-107859D01*
X133800Y-107600D01*
X137600Y-107600D01*
X137600Y-107100D01*
X137680Y-107100D01*
X137680Y-107172D01*
X137725Y-107280D01*
X137807Y-107363D01*
X137915Y-107408D01*
X138032Y-107408D01*
X138141Y-107363D01*
X138223Y-107281D01*
X138268Y-107173D01*
X138268Y-107100D01*
X138485Y-107100D01*
X138480Y-107111D01*
X138480Y-107228D01*
X138525Y-107336D01*
X138607Y-107419D01*
X138716Y-107464D01*
X138833Y-107464D01*
X138941Y-107419D01*
X139023Y-107337D01*
X139068Y-107229D01*
X139068Y-107112D01*
X139063Y-107100D01*
X140116Y-107100D01*
X140065Y-107150D01*
X140020Y-107258D01*
X140020Y-107375D01*
X140065Y-107483D01*
X140147Y-107566D01*
X140255Y-107611D01*
X140297Y-107611D01*
X140285Y-107640D01*
X140285Y-107749D01*
X140327Y-107850D01*
X140404Y-107927D01*
X140505Y-107969D01*
X140614Y-107969D01*
X140715Y-107927D01*
X140792Y-107850D01*
X140834Y-107749D01*
X140834Y-107640D01*
X140792Y-107539D01*
X140715Y-107462D01*
X140614Y-107420D01*
X140590Y-107420D01*
X140608Y-107376D01*
X140608Y-107259D01*
X140564Y-107151D01*
X140513Y-107100D01*
X140579Y-107100D01*
X141479Y-108000D01*
X142050Y-108000D01*
X142050Y-109200D01*
X141653Y-109200D01*
X141695Y-109182D01*
X141772Y-109105D01*
X141814Y-109004D01*
X141814Y-108895D01*
X141797Y-108854D01*
X141814Y-108854D01*
X141915Y-108812D01*
X141992Y-108735D01*
X142034Y-108634D01*
X142034Y-108525D01*
X141992Y-108424D01*
X141915Y-108347D01*
X141814Y-108305D01*
X141705Y-108305D01*
X141604Y-108347D01*
X141527Y-108424D01*
X141485Y-108525D01*
X141485Y-108634D01*
X141502Y-108675D01*
X141485Y-108675D01*
X141384Y-108717D01*
X141307Y-108794D01*
X141265Y-108895D01*
X141265Y-109004D01*
X141307Y-109105D01*
X141384Y-109182D01*
X141426Y-109200D01*
X140750Y-109200D01*
X140750Y-110750D01*
X143218Y-110750D01*
X143618Y-110400D01*
X143701Y-110400D01*
X143701Y-110400D01*
G37*
G54D27*
X143701Y-110400D02*
X143700Y-110400D01*
X143276Y-110824D01*
X140067Y-110824D01*
X140067Y-110048D01*
X140023Y-109940D01*
X139940Y-109857D01*
X139832Y-109812D01*
X139715Y-109812D01*
X139607Y-109856D01*
X139524Y-109939D01*
X139504Y-109987D01*
X139504Y-108965D01*
X139462Y-108864D01*
X139385Y-108787D01*
X139284Y-108745D01*
X139175Y-108745D01*
X139074Y-108787D01*
X138997Y-108864D01*
X138955Y-108965D01*
X138955Y-109074D01*
X138997Y-109175D01*
X139074Y-109252D01*
X139175Y-109294D01*
X139284Y-109294D01*
X139385Y-109252D01*
X139462Y-109175D01*
X139504Y-109074D01*
X139504Y-108965D01*
X139504Y-109987D01*
X139479Y-110047D01*
X139479Y-110164D01*
X139524Y-110272D01*
X139606Y-110355D01*
X139714Y-110400D01*
X139831Y-110400D01*
X139939Y-110355D01*
X140022Y-110273D01*
X140067Y-110165D01*
X140067Y-110048D01*
X140067Y-110824D01*
X136718Y-110824D01*
X136103Y-110210D01*
X137512Y-110210D01*
X137514Y-110212D01*
X137615Y-110254D01*
X137724Y-110254D01*
X137825Y-110212D01*
X137902Y-110135D01*
X137944Y-110034D01*
X137944Y-109925D01*
X137902Y-109824D01*
X137825Y-109747D01*
X137724Y-109705D01*
X137615Y-109705D01*
X137514Y-109747D01*
X137502Y-109759D01*
X137109Y-109759D01*
X137109Y-108215D01*
X137067Y-108114D01*
X136990Y-108037D01*
X136889Y-107995D01*
X136780Y-107995D01*
X136679Y-108037D01*
X136602Y-108114D01*
X136560Y-108215D01*
X136560Y-108324D01*
X136602Y-108425D01*
X136679Y-108502D01*
X136780Y-108544D01*
X136889Y-108544D01*
X136990Y-108502D01*
X137067Y-108425D01*
X137109Y-108324D01*
X137109Y-108215D01*
X137109Y-109759D01*
X135835Y-109759D01*
X132305Y-109759D01*
X133800Y-108220D01*
X133800Y-108194D01*
X133881Y-108276D01*
X133989Y-108321D01*
X134106Y-108321D01*
X134214Y-108276D01*
X134297Y-108194D01*
X134310Y-108162D01*
X134346Y-108249D01*
X134429Y-108332D01*
X134537Y-108377D01*
X134654Y-108377D01*
X134762Y-108332D01*
X134845Y-108250D01*
X134890Y-108142D01*
X134890Y-108025D01*
X134845Y-107917D01*
X134762Y-107834D01*
X134654Y-107789D01*
X134537Y-107789D01*
X134429Y-107833D01*
X134347Y-107916D01*
X134333Y-107948D01*
X134297Y-107860D01*
X134215Y-107778D01*
X134107Y-107733D01*
X133990Y-107733D01*
X133882Y-107777D01*
X133800Y-107859D01*
X133800Y-107600D01*
X137600Y-107600D01*
X137600Y-107100D01*
X137680Y-107100D01*
X137680Y-107172D01*
X137725Y-107280D01*
X137807Y-107363D01*
X137915Y-107408D01*
X138032Y-107408D01*
X138141Y-107363D01*
X138223Y-107281D01*
X138268Y-107173D01*
X138268Y-107100D01*
X138485Y-107100D01*
X138480Y-107111D01*
X138480Y-107228D01*
X138525Y-107336D01*
X138607Y-107419D01*
X138716Y-107464D01*
X138833Y-107464D01*
X138941Y-107419D01*
X139023Y-107337D01*
X139068Y-107229D01*
X139068Y-107112D01*
X139063Y-107100D01*
X140116Y-107100D01*
X140065Y-107150D01*
X140020Y-107258D01*
X140020Y-107375D01*
X140065Y-107483D01*
X140147Y-107566D01*
X140255Y-107611D01*
X140297Y-107611D01*
X140285Y-107640D01*
X140285Y-107749D01*
X140327Y-107850D01*
X140404Y-107927D01*
X140505Y-107969D01*
X140614Y-107969D01*
X140715Y-107927D01*
X140792Y-107850D01*
X140834Y-107749D01*
X140834Y-107640D01*
X140792Y-107539D01*
X140715Y-107462D01*
X140614Y-107420D01*
X140590Y-107420D01*
X140608Y-107376D01*
X140608Y-107259D01*
X140564Y-107151D01*
X140513Y-107100D01*
X140579Y-107100D01*
X141479Y-108000D01*
X142050Y-108000D01*
X142050Y-109200D01*
X141653Y-109200D01*
X141695Y-109182D01*
X141772Y-109105D01*
X141814Y-109004D01*
X141814Y-108895D01*
X141797Y-108854D01*
X141814Y-108854D01*
X141915Y-108812D01*
X141992Y-108735D01*
X142034Y-108634D01*
X142034Y-108525D01*
X141992Y-108424D01*
X141915Y-108347D01*
X141814Y-108305D01*
X141705Y-108305D01*
X141604Y-108347D01*
X141527Y-108424D01*
X141485Y-108525D01*
X141485Y-108634D01*
X141502Y-108675D01*
X141485Y-108675D01*
X141384Y-108717D01*
X141307Y-108794D01*
X141265Y-108895D01*
X141265Y-109004D01*
X141307Y-109105D01*
X141384Y-109182D01*
X141426Y-109200D01*
X140750Y-109200D01*
X140750Y-110750D01*
X143218Y-110750D01*
X143618Y-110400D01*
X143701Y-110400D01*
G54D10*
G36*
X149369Y-110836D02*
X149094Y-111110D01*
X149094Y-102796D01*
X149083Y-102578D01*
X149021Y-102427D01*
X148925Y-102399D01*
X148855Y-102470D01*
X148855Y-102329D01*
X148827Y-102233D01*
X148621Y-102160D01*
X148403Y-102171D01*
X148252Y-102233D01*
X148224Y-102329D01*
X148540Y-102644D01*
X148855Y-102329D01*
X148855Y-102470D01*
X148610Y-102715D01*
X148925Y-103030D01*
X149021Y-103002D01*
X149094Y-102796D01*
X149094Y-111110D01*
X149016Y-111188D01*
X149016Y-104620D01*
X148943Y-104445D01*
X148809Y-104311D01*
X148635Y-104239D01*
X148445Y-104238D01*
X148270Y-104311D01*
X148150Y-104431D01*
X148150Y-103998D01*
X148270Y-104118D01*
X148444Y-104190D01*
X148634Y-104191D01*
X148809Y-104118D01*
X148943Y-103984D01*
X149015Y-103810D01*
X149016Y-103620D01*
X148943Y-103445D01*
X148809Y-103311D01*
X148679Y-103257D01*
X148827Y-103196D01*
X148855Y-103100D01*
X148540Y-102785D01*
X148534Y-102791D01*
X148469Y-102726D01*
X148463Y-102720D01*
X148469Y-102715D01*
X148154Y-102399D01*
X148058Y-102427D01*
X148041Y-102475D01*
X148021Y-102427D01*
X147925Y-102399D01*
X147855Y-102470D01*
X147855Y-102329D01*
X147850Y-102311D01*
X147850Y-89330D01*
X146600Y-88029D01*
X146600Y-86250D01*
X144950Y-86250D01*
X144950Y-88670D01*
X144955Y-88676D01*
X144879Y-88707D01*
X144802Y-88784D01*
X144760Y-88885D01*
X144760Y-88994D01*
X144802Y-89095D01*
X144879Y-89172D01*
X144928Y-89193D01*
X144894Y-89207D01*
X144817Y-89284D01*
X144775Y-89385D01*
X144775Y-89494D01*
X144817Y-89595D01*
X144894Y-89672D01*
X144995Y-89714D01*
X145104Y-89714D01*
X145205Y-89672D01*
X145282Y-89595D01*
X145324Y-89494D01*
X145324Y-89385D01*
X145282Y-89284D01*
X145205Y-89207D01*
X145156Y-89186D01*
X145190Y-89172D01*
X145267Y-89095D01*
X145299Y-89019D01*
X145900Y-89620D01*
X145900Y-91530D01*
X145480Y-91980D01*
X145480Y-91456D01*
X145435Y-91348D01*
X145352Y-91265D01*
X145244Y-91220D01*
X145127Y-91220D01*
X145019Y-91265D01*
X144936Y-91347D01*
X144892Y-91455D01*
X144891Y-91572D01*
X144936Y-91680D01*
X145019Y-91763D01*
X145127Y-91808D01*
X145244Y-91808D01*
X145352Y-91763D01*
X145435Y-91681D01*
X145480Y-91573D01*
X145480Y-91456D01*
X145480Y-91980D01*
X145228Y-92250D01*
X142600Y-92250D01*
X142600Y-93900D01*
X145929Y-93900D01*
X146350Y-94320D01*
X146350Y-95950D01*
X147801Y-95950D01*
X147850Y-89330D01*
X147850Y-102311D01*
X147827Y-102233D01*
X147621Y-102160D01*
X147403Y-102171D01*
X147252Y-102233D01*
X147224Y-102329D01*
X147540Y-102644D01*
X147850Y-102334D01*
X147855Y-102329D01*
X147855Y-102470D01*
X147850Y-102475D01*
X147610Y-102715D01*
X147616Y-102720D01*
X147545Y-102791D01*
X147540Y-102785D01*
X147534Y-102791D01*
X147469Y-102726D01*
X147463Y-102720D01*
X147469Y-102715D01*
X147154Y-102399D01*
X147058Y-102427D01*
X146985Y-102633D01*
X146996Y-102851D01*
X147058Y-103002D01*
X147154Y-103030D01*
X147108Y-103075D01*
X147133Y-103100D01*
X145960Y-103100D01*
X145960Y-98931D01*
X145960Y-97009D01*
X145892Y-96843D01*
X145765Y-96716D01*
X145599Y-96647D01*
X145420Y-96647D01*
X145345Y-96678D01*
X145345Y-95239D01*
X145301Y-95130D01*
X145218Y-95048D01*
X145110Y-95003D01*
X144993Y-95003D01*
X144885Y-95047D01*
X144802Y-95130D01*
X144757Y-95238D01*
X144757Y-95355D01*
X144802Y-95463D01*
X144884Y-95546D01*
X144992Y-95591D01*
X145109Y-95591D01*
X145218Y-95546D01*
X145300Y-95464D01*
X145345Y-95355D01*
X145345Y-95239D01*
X145345Y-96678D01*
X145254Y-96716D01*
X145127Y-96843D01*
X145058Y-97008D01*
X145058Y-97188D01*
X145127Y-97353D01*
X145254Y-97480D01*
X145419Y-97549D01*
X145599Y-97549D01*
X145764Y-97481D01*
X145891Y-97354D01*
X145960Y-97188D01*
X145960Y-97009D01*
X145960Y-98931D01*
X145892Y-98765D01*
X145765Y-98638D01*
X145599Y-98569D01*
X145420Y-98569D01*
X145254Y-98638D01*
X145127Y-98765D01*
X145058Y-98930D01*
X145058Y-99110D01*
X145127Y-99275D01*
X145254Y-99402D01*
X145419Y-99471D01*
X145599Y-99471D01*
X145764Y-99403D01*
X145891Y-99276D01*
X145960Y-99110D01*
X145960Y-98931D01*
X145960Y-103100D01*
X144629Y-103100D01*
X142900Y-104829D01*
X142900Y-105850D01*
X146229Y-105850D01*
X146500Y-106120D01*
X146500Y-106500D01*
X148150Y-106500D01*
X148150Y-106168D01*
X148204Y-106190D01*
X148274Y-106191D01*
X148874Y-106191D01*
X148939Y-106164D01*
X148989Y-106114D01*
X149015Y-106050D01*
X149016Y-105980D01*
X149016Y-105380D01*
X148989Y-105315D01*
X148939Y-105265D01*
X148875Y-105239D01*
X148805Y-105238D01*
X148205Y-105238D01*
X148150Y-105261D01*
X148150Y-104998D01*
X148270Y-105118D01*
X148444Y-105190D01*
X148634Y-105191D01*
X148809Y-105118D01*
X148943Y-104984D01*
X149015Y-104810D01*
X149016Y-104620D01*
X149016Y-111188D01*
X148150Y-112055D01*
X147146Y-113059D01*
X146890Y-113059D01*
X146784Y-113059D01*
X146903Y-112939D01*
X146975Y-112765D01*
X146976Y-112575D01*
X146903Y-112400D01*
X146769Y-112266D01*
X146595Y-112194D01*
X146405Y-112193D01*
X146230Y-112266D01*
X146096Y-112400D01*
X146024Y-112574D01*
X146023Y-112764D01*
X146096Y-112939D01*
X146215Y-113059D01*
X145784Y-113059D01*
X145903Y-112939D01*
X145975Y-112765D01*
X145976Y-112575D01*
X145903Y-112400D01*
X145769Y-112266D01*
X145595Y-112194D01*
X145405Y-112193D01*
X145230Y-112266D01*
X145096Y-112400D01*
X145024Y-112574D01*
X145023Y-112764D01*
X145096Y-112939D01*
X145215Y-113059D01*
X144784Y-113059D01*
X144903Y-112939D01*
X144975Y-112765D01*
X144976Y-112575D01*
X144903Y-112400D01*
X144769Y-112266D01*
X144595Y-112194D01*
X144405Y-112193D01*
X144230Y-112266D01*
X144096Y-112400D01*
X144024Y-112574D01*
X144023Y-112764D01*
X144096Y-112939D01*
X144215Y-113059D01*
X143784Y-113059D01*
X143903Y-112939D01*
X143975Y-112765D01*
X143976Y-112575D01*
X143903Y-112400D01*
X143769Y-112266D01*
X143595Y-112194D01*
X143405Y-112193D01*
X143230Y-112266D01*
X143096Y-112400D01*
X143050Y-112512D01*
X143050Y-112419D01*
X143049Y-112320D01*
X143011Y-112228D01*
X142941Y-112157D01*
X142849Y-112119D01*
X142612Y-112120D01*
X142550Y-112182D01*
X142550Y-112620D01*
X142557Y-112620D01*
X142557Y-112720D01*
X142550Y-112720D01*
X142550Y-112727D01*
X142450Y-112727D01*
X142450Y-112720D01*
X142450Y-112620D01*
X142450Y-112182D01*
X142387Y-112120D01*
X142150Y-112119D01*
X142058Y-112157D01*
X141988Y-112228D01*
X141950Y-112320D01*
X141949Y-112419D01*
X141950Y-112557D01*
X142012Y-112620D01*
X142450Y-112620D01*
X142450Y-112720D01*
X142012Y-112720D01*
X141950Y-112782D01*
X141949Y-112920D01*
X141950Y-113019D01*
X141966Y-113059D01*
X136555Y-113059D01*
X136401Y-112301D01*
X136401Y-112299D01*
X136363Y-112209D01*
X135816Y-111399D01*
X135816Y-111397D01*
X135746Y-111328D01*
X134940Y-110795D01*
X135436Y-110795D01*
X136315Y-111674D01*
X136315Y-111674D01*
X136388Y-111723D01*
X136474Y-111740D01*
X136475Y-111740D01*
X143221Y-111740D01*
X143500Y-112019D01*
X143573Y-112068D01*
X143660Y-112085D01*
X144330Y-112085D01*
X144416Y-112068D01*
X144489Y-112019D01*
X144899Y-111609D01*
X144920Y-111577D01*
X144972Y-111525D01*
X145014Y-111424D01*
X145014Y-111315D01*
X144972Y-111214D01*
X144895Y-111137D01*
X144794Y-111095D01*
X144685Y-111095D01*
X144584Y-111137D01*
X144507Y-111214D01*
X144465Y-111315D01*
X144465Y-111405D01*
X144236Y-111634D01*
X143753Y-111634D01*
X143634Y-111516D01*
X143651Y-111513D01*
X143724Y-111464D01*
X144123Y-111065D01*
X144242Y-111065D01*
X144249Y-111072D01*
X144350Y-111114D01*
X144459Y-111114D01*
X144560Y-111072D01*
X144637Y-110995D01*
X144679Y-110894D01*
X144679Y-110834D01*
X144780Y-110792D01*
X144857Y-110715D01*
X144875Y-110672D01*
X145100Y-110920D01*
X145152Y-112050D01*
X147000Y-112050D01*
X147000Y-110778D01*
X145150Y-109078D01*
X145150Y-106400D01*
X142400Y-106400D01*
X142400Y-106781D01*
X142370Y-106752D01*
X142274Y-106712D01*
X142274Y-103465D01*
X142232Y-103364D01*
X142155Y-103287D01*
X142054Y-103245D01*
X141945Y-103245D01*
X141844Y-103287D01*
X141767Y-103364D01*
X141725Y-103465D01*
X141725Y-103574D01*
X141767Y-103675D01*
X141844Y-103752D01*
X141945Y-103794D01*
X142054Y-103794D01*
X142155Y-103752D01*
X142232Y-103675D01*
X142274Y-103574D01*
X142274Y-103465D01*
X142274Y-106712D01*
X142269Y-106710D01*
X142160Y-106710D01*
X142059Y-106752D01*
X141982Y-106829D01*
X141958Y-106887D01*
X141654Y-106583D01*
X141654Y-104540D01*
X141612Y-104439D01*
X141535Y-104362D01*
X141434Y-104320D01*
X141325Y-104320D01*
X141249Y-104352D01*
X141279Y-104279D01*
X141279Y-104170D01*
X141237Y-104069D01*
X141160Y-103992D01*
X141141Y-103984D01*
X141179Y-103984D01*
X141280Y-103942D01*
X141357Y-103865D01*
X141399Y-103764D01*
X141399Y-103655D01*
X141357Y-103554D01*
X141280Y-103477D01*
X141214Y-103449D01*
X141214Y-103345D01*
X141172Y-103244D01*
X141095Y-103167D01*
X140994Y-103125D01*
X140885Y-103125D01*
X140784Y-103167D01*
X140707Y-103244D01*
X140665Y-103345D01*
X140665Y-103454D01*
X140707Y-103555D01*
X140784Y-103632D01*
X140850Y-103660D01*
X140850Y-103764D01*
X140892Y-103865D01*
X140969Y-103942D01*
X140988Y-103950D01*
X140950Y-103950D01*
X140849Y-103992D01*
X140772Y-104069D01*
X140730Y-104170D01*
X140730Y-104279D01*
X140772Y-104380D01*
X140849Y-104457D01*
X140950Y-104499D01*
X141059Y-104499D01*
X141135Y-104467D01*
X141105Y-104540D01*
X141105Y-104649D01*
X141147Y-104750D01*
X141224Y-104827D01*
X141325Y-104869D01*
X141434Y-104869D01*
X141535Y-104827D01*
X141612Y-104750D01*
X141654Y-104649D01*
X141654Y-104540D01*
X141654Y-106583D01*
X140820Y-105750D01*
X140116Y-105750D01*
X140116Y-103944D01*
X140072Y-103836D01*
X139989Y-103753D01*
X139881Y-103708D01*
X139764Y-103708D01*
X139656Y-103753D01*
X139573Y-103835D01*
X139528Y-103944D01*
X139528Y-104061D01*
X139573Y-104169D01*
X139656Y-104251D01*
X139764Y-104296D01*
X139881Y-104296D01*
X139989Y-104252D01*
X140072Y-104169D01*
X140116Y-104061D01*
X140116Y-103944D01*
X140116Y-105750D01*
X139984Y-105750D01*
X139984Y-104995D01*
X139942Y-104894D01*
X139865Y-104817D01*
X139764Y-104775D01*
X139655Y-104775D01*
X139554Y-104817D01*
X139477Y-104894D01*
X139445Y-104972D01*
X139445Y-104436D01*
X139391Y-104307D01*
X139293Y-104208D01*
X139164Y-104155D01*
X139024Y-104154D01*
X138895Y-104208D01*
X138796Y-104306D01*
X138743Y-104435D01*
X138742Y-104575D01*
X138796Y-104704D01*
X138894Y-104803D01*
X139023Y-104856D01*
X139163Y-104857D01*
X139292Y-104803D01*
X139391Y-104705D01*
X139444Y-104576D01*
X139445Y-104436D01*
X139445Y-104972D01*
X139435Y-104995D01*
X139435Y-105104D01*
X139477Y-105205D01*
X139554Y-105282D01*
X139655Y-105324D01*
X139764Y-105324D01*
X139865Y-105282D01*
X139942Y-105205D01*
X139984Y-105104D01*
X139984Y-104995D01*
X139984Y-105750D01*
X139252Y-105750D01*
X139252Y-105705D01*
X139210Y-105604D01*
X139133Y-105527D01*
X139032Y-105485D01*
X138923Y-105485D01*
X138822Y-105527D01*
X138745Y-105604D01*
X138703Y-105705D01*
X138703Y-105750D01*
X138279Y-105750D01*
X138051Y-105978D01*
X138046Y-105973D01*
X138046Y-105227D01*
X138001Y-105119D01*
X137918Y-105036D01*
X137810Y-104991D01*
X137693Y-104991D01*
X137585Y-105036D01*
X137502Y-105118D01*
X137457Y-105226D01*
X137457Y-105343D01*
X137502Y-105452D01*
X137585Y-105534D01*
X137693Y-105579D01*
X137810Y-105579D01*
X137918Y-105535D01*
X138001Y-105452D01*
X138045Y-105344D01*
X138046Y-105227D01*
X138046Y-105973D01*
X137995Y-105922D01*
X137894Y-105880D01*
X137785Y-105880D01*
X137684Y-105922D01*
X137607Y-105999D01*
X137565Y-106100D01*
X137565Y-106194D01*
X137320Y-105950D01*
X135800Y-105950D01*
X135800Y-105750D01*
X136050Y-105750D01*
X136050Y-104850D01*
X135572Y-104850D01*
X135570Y-104849D01*
X135430Y-104848D01*
X135427Y-104850D01*
X135100Y-104850D01*
X135100Y-102000D01*
X135425Y-102000D01*
X135425Y-102094D01*
X135467Y-102195D01*
X135544Y-102272D01*
X135645Y-102314D01*
X135754Y-102314D01*
X135855Y-102272D01*
X135878Y-102249D01*
X137329Y-103700D01*
X140250Y-103700D01*
X140250Y-101900D01*
X141040Y-101900D01*
X141040Y-101944D01*
X141082Y-102045D01*
X141159Y-102122D01*
X141260Y-102164D01*
X141361Y-102164D01*
X141294Y-102192D01*
X141220Y-102266D01*
X141134Y-102230D01*
X141025Y-102230D01*
X140924Y-102272D01*
X140847Y-102349D01*
X140805Y-102450D01*
X140805Y-102559D01*
X140847Y-102660D01*
X140924Y-102737D01*
X141025Y-102779D01*
X141134Y-102779D01*
X141235Y-102737D01*
X141309Y-102663D01*
X141395Y-102699D01*
X141504Y-102699D01*
X141550Y-102680D01*
X141550Y-102900D01*
X144350Y-102900D01*
X144350Y-101177D01*
X143500Y-100427D01*
X143500Y-98750D01*
X142399Y-98750D01*
X142399Y-95885D01*
X142357Y-95784D01*
X142280Y-95707D01*
X142179Y-95665D01*
X142070Y-95665D01*
X141969Y-95707D01*
X141892Y-95784D01*
X141850Y-95885D01*
X141850Y-95994D01*
X141892Y-96095D01*
X141969Y-96172D01*
X142070Y-96214D01*
X142179Y-96214D01*
X142280Y-96172D01*
X142357Y-96095D01*
X142399Y-95994D01*
X142399Y-95885D01*
X142399Y-98750D01*
X141950Y-98750D01*
X141950Y-98148D01*
X141964Y-98162D01*
X142065Y-98204D01*
X142174Y-98204D01*
X142275Y-98162D01*
X142352Y-98085D01*
X142394Y-97984D01*
X142394Y-97875D01*
X142352Y-97774D01*
X142275Y-97697D01*
X142174Y-97655D01*
X142065Y-97655D01*
X141964Y-97697D01*
X141950Y-97711D01*
X141950Y-96600D01*
X140620Y-96600D01*
X139050Y-95029D01*
X139050Y-93369D01*
X141772Y-90350D01*
X143750Y-90350D01*
X143750Y-88500D01*
X139974Y-88470D01*
X139974Y-87305D01*
X139932Y-87204D01*
X139855Y-87127D01*
X139754Y-87085D01*
X139645Y-87085D01*
X139544Y-87127D01*
X139467Y-87204D01*
X139450Y-87246D01*
X139432Y-87204D01*
X139355Y-87127D01*
X139254Y-87085D01*
X139145Y-87085D01*
X139044Y-87127D01*
X138967Y-87204D01*
X138950Y-87246D01*
X138932Y-87204D01*
X138855Y-87127D01*
X138754Y-87085D01*
X138645Y-87085D01*
X138544Y-87127D01*
X138467Y-87204D01*
X138450Y-87246D01*
X138432Y-87204D01*
X138355Y-87127D01*
X138314Y-87110D01*
X138314Y-86100D01*
X138272Y-85999D01*
X138195Y-85922D01*
X138094Y-85880D01*
X137985Y-85880D01*
X137884Y-85922D01*
X137807Y-85999D01*
X137765Y-86100D01*
X137765Y-86209D01*
X137807Y-86310D01*
X137884Y-86387D01*
X137985Y-86429D01*
X138094Y-86429D01*
X138195Y-86387D01*
X138272Y-86310D01*
X138314Y-86209D01*
X138314Y-86100D01*
X138314Y-87110D01*
X138254Y-87085D01*
X138145Y-87085D01*
X138044Y-87127D01*
X137967Y-87204D01*
X137948Y-87248D01*
X137932Y-87209D01*
X137855Y-87132D01*
X137754Y-87090D01*
X137645Y-87090D01*
X137544Y-87132D01*
X137467Y-87209D01*
X137425Y-87310D01*
X137425Y-87419D01*
X137467Y-87520D01*
X137544Y-87597D01*
X137645Y-87639D01*
X137754Y-87639D01*
X137855Y-87597D01*
X137932Y-87520D01*
X137951Y-87476D01*
X137967Y-87515D01*
X138044Y-87592D01*
X138145Y-87634D01*
X138254Y-87634D01*
X138355Y-87592D01*
X138432Y-87515D01*
X138449Y-87473D01*
X138467Y-87515D01*
X138544Y-87592D01*
X138645Y-87634D01*
X138754Y-87634D01*
X138855Y-87592D01*
X138932Y-87515D01*
X138949Y-87473D01*
X138967Y-87515D01*
X139044Y-87592D01*
X139145Y-87634D01*
X139254Y-87634D01*
X139355Y-87592D01*
X139432Y-87515D01*
X139449Y-87473D01*
X139467Y-87515D01*
X139544Y-87592D01*
X139645Y-87634D01*
X139754Y-87634D01*
X139855Y-87592D01*
X139932Y-87515D01*
X139974Y-87414D01*
X139974Y-87305D01*
X139974Y-88470D01*
X137379Y-88449D01*
X136973Y-88855D01*
X136965Y-88847D01*
X136864Y-88805D01*
X136755Y-88805D01*
X136654Y-88847D01*
X136577Y-88924D01*
X136535Y-89025D01*
X136535Y-89134D01*
X136542Y-89150D01*
X136347Y-89150D01*
X136417Y-89079D01*
X136462Y-88971D01*
X136462Y-88854D01*
X136417Y-88746D01*
X136334Y-88663D01*
X136226Y-88618D01*
X136109Y-88618D01*
X136001Y-88663D01*
X135919Y-88746D01*
X135874Y-88854D01*
X135874Y-88971D01*
X135896Y-89025D01*
X134500Y-87629D01*
X134502Y-87485D01*
X134856Y-87415D01*
X134946Y-87378D01*
X134949Y-87375D01*
X135763Y-86832D01*
X135832Y-86763D01*
X135833Y-86759D01*
X136374Y-85949D01*
X136377Y-85946D01*
X136414Y-85856D01*
X136566Y-85090D01*
X147151Y-85090D01*
X149369Y-87308D01*
X149369Y-110836D01*
X149369Y-110836D01*
G37*
G54D27*
X149369Y-110836D02*
X149094Y-111110D01*
X149094Y-102796D01*
X149083Y-102578D01*
X149021Y-102427D01*
X148925Y-102399D01*
X148855Y-102470D01*
X148855Y-102329D01*
X148827Y-102233D01*
X148621Y-102160D01*
X148403Y-102171D01*
X148252Y-102233D01*
X148224Y-102329D01*
X148540Y-102644D01*
X148855Y-102329D01*
X148855Y-102470D01*
X148610Y-102715D01*
X148925Y-103030D01*
X149021Y-103002D01*
X149094Y-102796D01*
X149094Y-111110D01*
X149016Y-111188D01*
X149016Y-104620D01*
X148943Y-104445D01*
X148809Y-104311D01*
X148635Y-104239D01*
X148445Y-104238D01*
X148270Y-104311D01*
X148150Y-104431D01*
X148150Y-103998D01*
X148270Y-104118D01*
X148444Y-104190D01*
X148634Y-104191D01*
X148809Y-104118D01*
X148943Y-103984D01*
X149015Y-103810D01*
X149016Y-103620D01*
X148943Y-103445D01*
X148809Y-103311D01*
X148679Y-103257D01*
X148827Y-103196D01*
X148855Y-103100D01*
X148540Y-102785D01*
X148534Y-102791D01*
X148469Y-102726D01*
X148463Y-102720D01*
X148469Y-102715D01*
X148154Y-102399D01*
X148058Y-102427D01*
X148041Y-102475D01*
X148021Y-102427D01*
X147925Y-102399D01*
X147855Y-102470D01*
X147855Y-102329D01*
X147850Y-102311D01*
X147850Y-89330D01*
X146600Y-88029D01*
X146600Y-86250D01*
X144950Y-86250D01*
X144950Y-88670D01*
X144955Y-88676D01*
X144879Y-88707D01*
X144802Y-88784D01*
X144760Y-88885D01*
X144760Y-88994D01*
X144802Y-89095D01*
X144879Y-89172D01*
X144928Y-89193D01*
X144894Y-89207D01*
X144817Y-89284D01*
X144775Y-89385D01*
X144775Y-89494D01*
X144817Y-89595D01*
X144894Y-89672D01*
X144995Y-89714D01*
X145104Y-89714D01*
X145205Y-89672D01*
X145282Y-89595D01*
X145324Y-89494D01*
X145324Y-89385D01*
X145282Y-89284D01*
X145205Y-89207D01*
X145156Y-89186D01*
X145190Y-89172D01*
X145267Y-89095D01*
X145299Y-89019D01*
X145900Y-89620D01*
X145900Y-91530D01*
X145480Y-91980D01*
X145480Y-91456D01*
X145435Y-91348D01*
X145352Y-91265D01*
X145244Y-91220D01*
X145127Y-91220D01*
X145019Y-91265D01*
X144936Y-91347D01*
X144892Y-91455D01*
X144891Y-91572D01*
X144936Y-91680D01*
X145019Y-91763D01*
X145127Y-91808D01*
X145244Y-91808D01*
X145352Y-91763D01*
X145435Y-91681D01*
X145480Y-91573D01*
X145480Y-91456D01*
X145480Y-91980D01*
X145228Y-92250D01*
X142600Y-92250D01*
X142600Y-93900D01*
X145929Y-93900D01*
X146350Y-94320D01*
X146350Y-95950D01*
X147801Y-95950D01*
X147850Y-89330D01*
X147850Y-102311D01*
X147827Y-102233D01*
X147621Y-102160D01*
X147403Y-102171D01*
X147252Y-102233D01*
X147224Y-102329D01*
X147540Y-102644D01*
X147850Y-102334D01*
X147855Y-102329D01*
X147855Y-102470D01*
X147850Y-102475D01*
X147610Y-102715D01*
X147616Y-102720D01*
X147545Y-102791D01*
X147540Y-102785D01*
X147534Y-102791D01*
X147469Y-102726D01*
X147463Y-102720D01*
X147469Y-102715D01*
X147154Y-102399D01*
X147058Y-102427D01*
X146985Y-102633D01*
X146996Y-102851D01*
X147058Y-103002D01*
X147154Y-103030D01*
X147108Y-103075D01*
X147133Y-103100D01*
X145960Y-103100D01*
X145960Y-98931D01*
X145960Y-97009D01*
X145892Y-96843D01*
X145765Y-96716D01*
X145599Y-96647D01*
X145420Y-96647D01*
X145345Y-96678D01*
X145345Y-95239D01*
X145301Y-95130D01*
X145218Y-95048D01*
X145110Y-95003D01*
X144993Y-95003D01*
X144885Y-95047D01*
X144802Y-95130D01*
X144757Y-95238D01*
X144757Y-95355D01*
X144802Y-95463D01*
X144884Y-95546D01*
X144992Y-95591D01*
X145109Y-95591D01*
X145218Y-95546D01*
X145300Y-95464D01*
X145345Y-95355D01*
X145345Y-95239D01*
X145345Y-96678D01*
X145254Y-96716D01*
X145127Y-96843D01*
X145058Y-97008D01*
X145058Y-97188D01*
X145127Y-97353D01*
X145254Y-97480D01*
X145419Y-97549D01*
X145599Y-97549D01*
X145764Y-97481D01*
X145891Y-97354D01*
X145960Y-97188D01*
X145960Y-97009D01*
X145960Y-98931D01*
X145892Y-98765D01*
X145765Y-98638D01*
X145599Y-98569D01*
X145420Y-98569D01*
X145254Y-98638D01*
X145127Y-98765D01*
X145058Y-98930D01*
X145058Y-99110D01*
X145127Y-99275D01*
X145254Y-99402D01*
X145419Y-99471D01*
X145599Y-99471D01*
X145764Y-99403D01*
X145891Y-99276D01*
X145960Y-99110D01*
X145960Y-98931D01*
X145960Y-103100D01*
X144629Y-103100D01*
X142900Y-104829D01*
X142900Y-105850D01*
X146229Y-105850D01*
X146500Y-106120D01*
X146500Y-106500D01*
X148150Y-106500D01*
X148150Y-106168D01*
X148204Y-106190D01*
X148274Y-106191D01*
X148874Y-106191D01*
X148939Y-106164D01*
X148989Y-106114D01*
X149015Y-106050D01*
X149016Y-105980D01*
X149016Y-105380D01*
X148989Y-105315D01*
X148939Y-105265D01*
X148875Y-105239D01*
X148805Y-105238D01*
X148205Y-105238D01*
X148150Y-105261D01*
X148150Y-104998D01*
X148270Y-105118D01*
X148444Y-105190D01*
X148634Y-105191D01*
X148809Y-105118D01*
X148943Y-104984D01*
X149015Y-104810D01*
X149016Y-104620D01*
X149016Y-111188D01*
X148150Y-112055D01*
X147146Y-113059D01*
X146890Y-113059D01*
X146784Y-113059D01*
X146903Y-112939D01*
X146975Y-112765D01*
X146976Y-112575D01*
X146903Y-112400D01*
X146769Y-112266D01*
X146595Y-112194D01*
X146405Y-112193D01*
X146230Y-112266D01*
X146096Y-112400D01*
X146024Y-112574D01*
X146023Y-112764D01*
X146096Y-112939D01*
X146215Y-113059D01*
X145784Y-113059D01*
X145903Y-112939D01*
X145975Y-112765D01*
X145976Y-112575D01*
X145903Y-112400D01*
X145769Y-112266D01*
X145595Y-112194D01*
X145405Y-112193D01*
X145230Y-112266D01*
X145096Y-112400D01*
X145024Y-112574D01*
X145023Y-112764D01*
X145096Y-112939D01*
X145215Y-113059D01*
X144784Y-113059D01*
X144903Y-112939D01*
X144975Y-112765D01*
X144976Y-112575D01*
X144903Y-112400D01*
X144769Y-112266D01*
X144595Y-112194D01*
X144405Y-112193D01*
X144230Y-112266D01*
X144096Y-112400D01*
X144024Y-112574D01*
X144023Y-112764D01*
X144096Y-112939D01*
X144215Y-113059D01*
X143784Y-113059D01*
X143903Y-112939D01*
X143975Y-112765D01*
X143976Y-112575D01*
X143903Y-112400D01*
X143769Y-112266D01*
X143595Y-112194D01*
X143405Y-112193D01*
X143230Y-112266D01*
X143096Y-112400D01*
X143050Y-112512D01*
X143050Y-112419D01*
X143049Y-112320D01*
X143011Y-112228D01*
X142941Y-112157D01*
X142849Y-112119D01*
X142612Y-112120D01*
X142550Y-112182D01*
X142550Y-112620D01*
X142557Y-112620D01*
X142557Y-112720D01*
X142550Y-112720D01*
X142550Y-112727D01*
X142450Y-112727D01*
X142450Y-112720D01*
X142450Y-112620D01*
X142450Y-112182D01*
X142387Y-112120D01*
X142150Y-112119D01*
X142058Y-112157D01*
X141988Y-112228D01*
X141950Y-112320D01*
X141949Y-112419D01*
X141950Y-112557D01*
X142012Y-112620D01*
X142450Y-112620D01*
X142450Y-112720D01*
X142012Y-112720D01*
X141950Y-112782D01*
X141949Y-112920D01*
X141950Y-113019D01*
X141966Y-113059D01*
X136555Y-113059D01*
X136401Y-112301D01*
X136401Y-112299D01*
X136363Y-112209D01*
X135816Y-111399D01*
X135816Y-111397D01*
X135746Y-111328D01*
X134940Y-110795D01*
X135436Y-110795D01*
X136315Y-111674D01*
X136315Y-111674D01*
X136388Y-111723D01*
X136474Y-111740D01*
X136475Y-111740D01*
X143221Y-111740D01*
X143500Y-112019D01*
X143573Y-112068D01*
X143660Y-112085D01*
X144330Y-112085D01*
X144416Y-112068D01*
X144489Y-112019D01*
X144899Y-111609D01*
X144920Y-111577D01*
X144972Y-111525D01*
X145014Y-111424D01*
X145014Y-111315D01*
X144972Y-111214D01*
X144895Y-111137D01*
X144794Y-111095D01*
X144685Y-111095D01*
X144584Y-111137D01*
X144507Y-111214D01*
X144465Y-111315D01*
X144465Y-111405D01*
X144236Y-111634D01*
X143753Y-111634D01*
X143634Y-111516D01*
X143651Y-111513D01*
X143724Y-111464D01*
X144123Y-111065D01*
X144242Y-111065D01*
X144249Y-111072D01*
X144350Y-111114D01*
X144459Y-111114D01*
X144560Y-111072D01*
X144637Y-110995D01*
X144679Y-110894D01*
X144679Y-110834D01*
X144780Y-110792D01*
X144857Y-110715D01*
X144875Y-110672D01*
X145100Y-110920D01*
X145152Y-112050D01*
X147000Y-112050D01*
X147000Y-110778D01*
X145150Y-109078D01*
X145150Y-106400D01*
X142400Y-106400D01*
X142400Y-106781D01*
X142370Y-106752D01*
X142274Y-106712D01*
X142274Y-103465D01*
X142232Y-103364D01*
X142155Y-103287D01*
X142054Y-103245D01*
X141945Y-103245D01*
X141844Y-103287D01*
X141767Y-103364D01*
X141725Y-103465D01*
X141725Y-103574D01*
X141767Y-103675D01*
X141844Y-103752D01*
X141945Y-103794D01*
X142054Y-103794D01*
X142155Y-103752D01*
X142232Y-103675D01*
X142274Y-103574D01*
X142274Y-103465D01*
X142274Y-106712D01*
X142269Y-106710D01*
X142160Y-106710D01*
X142059Y-106752D01*
X141982Y-106829D01*
X141958Y-106887D01*
X141654Y-106583D01*
X141654Y-104540D01*
X141612Y-104439D01*
X141535Y-104362D01*
X141434Y-104320D01*
X141325Y-104320D01*
X141249Y-104352D01*
X141279Y-104279D01*
X141279Y-104170D01*
X141237Y-104069D01*
X141160Y-103992D01*
X141141Y-103984D01*
X141179Y-103984D01*
X141280Y-103942D01*
X141357Y-103865D01*
X141399Y-103764D01*
X141399Y-103655D01*
X141357Y-103554D01*
X141280Y-103477D01*
X141214Y-103449D01*
X141214Y-103345D01*
X141172Y-103244D01*
X141095Y-103167D01*
X140994Y-103125D01*
X140885Y-103125D01*
X140784Y-103167D01*
X140707Y-103244D01*
X140665Y-103345D01*
X140665Y-103454D01*
X140707Y-103555D01*
X140784Y-103632D01*
X140850Y-103660D01*
X140850Y-103764D01*
X140892Y-103865D01*
X140969Y-103942D01*
X140988Y-103950D01*
X140950Y-103950D01*
X140849Y-103992D01*
X140772Y-104069D01*
X140730Y-104170D01*
X140730Y-104279D01*
X140772Y-104380D01*
X140849Y-104457D01*
X140950Y-104499D01*
X141059Y-104499D01*
X141135Y-104467D01*
X141105Y-104540D01*
X141105Y-104649D01*
X141147Y-104750D01*
X141224Y-104827D01*
X141325Y-104869D01*
X141434Y-104869D01*
X141535Y-104827D01*
X141612Y-104750D01*
X141654Y-104649D01*
X141654Y-104540D01*
X141654Y-106583D01*
X140820Y-105750D01*
X140116Y-105750D01*
X140116Y-103944D01*
X140072Y-103836D01*
X139989Y-103753D01*
X139881Y-103708D01*
X139764Y-103708D01*
X139656Y-103753D01*
X139573Y-103835D01*
X139528Y-103944D01*
X139528Y-104061D01*
X139573Y-104169D01*
X139656Y-104251D01*
X139764Y-104296D01*
X139881Y-104296D01*
X139989Y-104252D01*
X140072Y-104169D01*
X140116Y-104061D01*
X140116Y-103944D01*
X140116Y-105750D01*
X139984Y-105750D01*
X139984Y-104995D01*
X139942Y-104894D01*
X139865Y-104817D01*
X139764Y-104775D01*
X139655Y-104775D01*
X139554Y-104817D01*
X139477Y-104894D01*
X139445Y-104972D01*
X139445Y-104436D01*
X139391Y-104307D01*
X139293Y-104208D01*
X139164Y-104155D01*
X139024Y-104154D01*
X138895Y-104208D01*
X138796Y-104306D01*
X138743Y-104435D01*
X138742Y-104575D01*
X138796Y-104704D01*
X138894Y-104803D01*
X139023Y-104856D01*
X139163Y-104857D01*
X139292Y-104803D01*
X139391Y-104705D01*
X139444Y-104576D01*
X139445Y-104436D01*
X139445Y-104972D01*
X139435Y-104995D01*
X139435Y-105104D01*
X139477Y-105205D01*
X139554Y-105282D01*
X139655Y-105324D01*
X139764Y-105324D01*
X139865Y-105282D01*
X139942Y-105205D01*
X139984Y-105104D01*
X139984Y-104995D01*
X139984Y-105750D01*
X139252Y-105750D01*
X139252Y-105705D01*
X139210Y-105604D01*
X139133Y-105527D01*
X139032Y-105485D01*
X138923Y-105485D01*
X138822Y-105527D01*
X138745Y-105604D01*
X138703Y-105705D01*
X138703Y-105750D01*
X138279Y-105750D01*
X138051Y-105978D01*
X138046Y-105973D01*
X138046Y-105227D01*
X138001Y-105119D01*
X137918Y-105036D01*
X137810Y-104991D01*
X137693Y-104991D01*
X137585Y-105036D01*
X137502Y-105118D01*
X137457Y-105226D01*
X137457Y-105343D01*
X137502Y-105452D01*
X137585Y-105534D01*
X137693Y-105579D01*
X137810Y-105579D01*
X137918Y-105535D01*
X138001Y-105452D01*
X138045Y-105344D01*
X138046Y-105227D01*
X138046Y-105973D01*
X137995Y-105922D01*
X137894Y-105880D01*
X137785Y-105880D01*
X137684Y-105922D01*
X137607Y-105999D01*
X137565Y-106100D01*
X137565Y-106194D01*
X137320Y-105950D01*
X135800Y-105950D01*
X135800Y-105750D01*
X136050Y-105750D01*
X136050Y-104850D01*
X135572Y-104850D01*
X135570Y-104849D01*
X135430Y-104848D01*
X135427Y-104850D01*
X135100Y-104850D01*
X135100Y-102000D01*
X135425Y-102000D01*
X135425Y-102094D01*
X135467Y-102195D01*
X135544Y-102272D01*
X135645Y-102314D01*
X135754Y-102314D01*
X135855Y-102272D01*
X135878Y-102249D01*
X137329Y-103700D01*
X140250Y-103700D01*
X140250Y-101900D01*
X141040Y-101900D01*
X141040Y-101944D01*
X141082Y-102045D01*
X141159Y-102122D01*
X141260Y-102164D01*
X141361Y-102164D01*
X141294Y-102192D01*
X141220Y-102266D01*
X141134Y-102230D01*
X141025Y-102230D01*
X140924Y-102272D01*
X140847Y-102349D01*
X140805Y-102450D01*
X140805Y-102559D01*
X140847Y-102660D01*
X140924Y-102737D01*
X141025Y-102779D01*
X141134Y-102779D01*
X141235Y-102737D01*
X141309Y-102663D01*
X141395Y-102699D01*
X141504Y-102699D01*
X141550Y-102680D01*
X141550Y-102900D01*
X144350Y-102900D01*
X144350Y-101177D01*
X143500Y-100427D01*
X143500Y-98750D01*
X142399Y-98750D01*
X142399Y-95885D01*
X142357Y-95784D01*
X142280Y-95707D01*
X142179Y-95665D01*
X142070Y-95665D01*
X141969Y-95707D01*
X141892Y-95784D01*
X141850Y-95885D01*
X141850Y-95994D01*
X141892Y-96095D01*
X141969Y-96172D01*
X142070Y-96214D01*
X142179Y-96214D01*
X142280Y-96172D01*
X142357Y-96095D01*
X142399Y-95994D01*
X142399Y-95885D01*
X142399Y-98750D01*
X141950Y-98750D01*
X141950Y-98148D01*
X141964Y-98162D01*
X142065Y-98204D01*
X142174Y-98204D01*
X142275Y-98162D01*
X142352Y-98085D01*
X142394Y-97984D01*
X142394Y-97875D01*
X142352Y-97774D01*
X142275Y-97697D01*
X142174Y-97655D01*
X142065Y-97655D01*
X141964Y-97697D01*
X141950Y-97711D01*
X141950Y-96600D01*
X140620Y-96600D01*
X139050Y-95029D01*
X139050Y-93369D01*
X141772Y-90350D01*
X143750Y-90350D01*
X143750Y-88500D01*
X139974Y-88470D01*
X139974Y-87305D01*
X139932Y-87204D01*
X139855Y-87127D01*
X139754Y-87085D01*
X139645Y-87085D01*
X139544Y-87127D01*
X139467Y-87204D01*
X139450Y-87246D01*
X139432Y-87204D01*
X139355Y-87127D01*
X139254Y-87085D01*
X139145Y-87085D01*
X139044Y-87127D01*
X138967Y-87204D01*
X138950Y-87246D01*
X138932Y-87204D01*
X138855Y-87127D01*
X138754Y-87085D01*
X138645Y-87085D01*
X138544Y-87127D01*
X138467Y-87204D01*
X138450Y-87246D01*
X138432Y-87204D01*
X138355Y-87127D01*
X138314Y-87110D01*
X138314Y-86100D01*
X138272Y-85999D01*
X138195Y-85922D01*
X138094Y-85880D01*
X137985Y-85880D01*
X137884Y-85922D01*
X137807Y-85999D01*
X137765Y-86100D01*
X137765Y-86209D01*
X137807Y-86310D01*
X137884Y-86387D01*
X137985Y-86429D01*
X138094Y-86429D01*
X138195Y-86387D01*
X138272Y-86310D01*
X138314Y-86209D01*
X138314Y-86100D01*
X138314Y-87110D01*
X138254Y-87085D01*
X138145Y-87085D01*
X138044Y-87127D01*
X137967Y-87204D01*
X137948Y-87248D01*
X137932Y-87209D01*
X137855Y-87132D01*
X137754Y-87090D01*
X137645Y-87090D01*
X137544Y-87132D01*
X137467Y-87209D01*
X137425Y-87310D01*
X137425Y-87419D01*
X137467Y-87520D01*
X137544Y-87597D01*
X137645Y-87639D01*
X137754Y-87639D01*
X137855Y-87597D01*
X137932Y-87520D01*
X137951Y-87476D01*
X137967Y-87515D01*
X138044Y-87592D01*
X138145Y-87634D01*
X138254Y-87634D01*
X138355Y-87592D01*
X138432Y-87515D01*
X138449Y-87473D01*
X138467Y-87515D01*
X138544Y-87592D01*
X138645Y-87634D01*
X138754Y-87634D01*
X138855Y-87592D01*
X138932Y-87515D01*
X138949Y-87473D01*
X138967Y-87515D01*
X139044Y-87592D01*
X139145Y-87634D01*
X139254Y-87634D01*
X139355Y-87592D01*
X139432Y-87515D01*
X139449Y-87473D01*
X139467Y-87515D01*
X139544Y-87592D01*
X139645Y-87634D01*
X139754Y-87634D01*
X139855Y-87592D01*
X139932Y-87515D01*
X139974Y-87414D01*
X139974Y-87305D01*
X139974Y-88470D01*
X137379Y-88449D01*
X136973Y-88855D01*
X136965Y-88847D01*
X136864Y-88805D01*
X136755Y-88805D01*
X136654Y-88847D01*
X136577Y-88924D01*
X136535Y-89025D01*
X136535Y-89134D01*
X136542Y-89150D01*
X136347Y-89150D01*
X136417Y-89079D01*
X136462Y-88971D01*
X136462Y-88854D01*
X136417Y-88746D01*
X136334Y-88663D01*
X136226Y-88618D01*
X136109Y-88618D01*
X136001Y-88663D01*
X135919Y-88746D01*
X135874Y-88854D01*
X135874Y-88971D01*
X135896Y-89025D01*
X134500Y-87629D01*
X134502Y-87485D01*
X134856Y-87415D01*
X134946Y-87378D01*
X134949Y-87375D01*
X135763Y-86832D01*
X135832Y-86763D01*
X135833Y-86759D01*
X136374Y-85949D01*
X136377Y-85946D01*
X136414Y-85856D01*
X136566Y-85090D01*
X147151Y-85090D01*
X149369Y-87308D01*
X149369Y-110836D01*
G54D10*
G36*
X147900Y-106150D02*
X146950Y-106150D01*
X146950Y-105929D01*
X146620Y-105600D01*
X146617Y-105600D01*
X146617Y-105093D01*
X146573Y-104985D01*
X146490Y-104902D01*
X146386Y-104859D01*
X146394Y-104839D01*
X146394Y-104722D01*
X146349Y-104614D01*
X146267Y-104531D01*
X146159Y-104486D01*
X146042Y-104486D01*
X145934Y-104531D01*
X145851Y-104613D01*
X145806Y-104721D01*
X145806Y-104838D01*
X145850Y-104947D01*
X145933Y-105029D01*
X146037Y-105073D01*
X146029Y-105092D01*
X146029Y-105209D01*
X146074Y-105317D01*
X146156Y-105400D01*
X146264Y-105445D01*
X146381Y-105445D01*
X146490Y-105401D01*
X146572Y-105318D01*
X146617Y-105210D01*
X146617Y-105093D01*
X146617Y-105600D01*
X143350Y-105600D01*
X143350Y-105120D01*
X144920Y-103550D01*
X146379Y-103550D01*
X146950Y-104120D01*
X146950Y-105070D01*
X147229Y-105350D01*
X147900Y-105350D01*
X147900Y-106150D01*
X147900Y-106150D01*
G37*
G54D27*
X147900Y-106150D02*
X146950Y-106150D01*
X146950Y-105929D01*
X146620Y-105600D01*
X146617Y-105600D01*
X146617Y-105093D01*
X146573Y-104985D01*
X146490Y-104902D01*
X146386Y-104859D01*
X146394Y-104839D01*
X146394Y-104722D01*
X146349Y-104614D01*
X146267Y-104531D01*
X146159Y-104486D01*
X146042Y-104486D01*
X145934Y-104531D01*
X145851Y-104613D01*
X145806Y-104721D01*
X145806Y-104838D01*
X145850Y-104947D01*
X145933Y-105029D01*
X146037Y-105073D01*
X146029Y-105092D01*
X146029Y-105209D01*
X146074Y-105317D01*
X146156Y-105400D01*
X146264Y-105445D01*
X146381Y-105445D01*
X146490Y-105401D01*
X146572Y-105318D01*
X146617Y-105210D01*
X146617Y-105093D01*
X146617Y-105600D01*
X143350Y-105600D01*
X143350Y-105120D01*
X144920Y-103550D01*
X146379Y-103550D01*
X146950Y-104120D01*
X146950Y-105070D01*
X147229Y-105350D01*
X147900Y-105350D01*
X147900Y-106150D01*
G54D10*
G36*
X137000Y-92479D02*
X136879Y-92600D01*
X136474Y-92600D01*
X136474Y-91235D01*
X136432Y-91134D01*
X136355Y-91057D01*
X136254Y-91015D01*
X136145Y-91015D01*
X136044Y-91057D01*
X135967Y-91134D01*
X135925Y-91235D01*
X135925Y-91344D01*
X135967Y-91445D01*
X136044Y-91522D01*
X136145Y-91564D01*
X136254Y-91564D01*
X136355Y-91522D01*
X136432Y-91445D01*
X136474Y-91344D01*
X136474Y-91235D01*
X136474Y-92600D01*
X134250Y-92600D01*
X128900Y-92600D01*
X128900Y-91229D01*
X128670Y-91000D01*
X125420Y-91000D01*
X125300Y-90879D01*
X125300Y-90420D01*
X125420Y-90300D01*
X130150Y-90300D01*
X130150Y-88900D01*
X132929Y-88900D01*
X134535Y-90461D01*
X134487Y-90509D01*
X134445Y-90610D01*
X134445Y-90719D01*
X134487Y-90820D01*
X134564Y-90897D01*
X134665Y-90939D01*
X134774Y-90939D01*
X134875Y-90897D01*
X134952Y-90820D01*
X134994Y-90719D01*
X134994Y-90650D01*
X135835Y-90650D01*
X135835Y-90719D01*
X135877Y-90820D01*
X135954Y-90897D01*
X136055Y-90939D01*
X136164Y-90939D01*
X136265Y-90897D01*
X136342Y-90820D01*
X136384Y-90719D01*
X136384Y-90650D01*
X136536Y-90650D01*
X136532Y-90654D01*
X136490Y-90755D01*
X136490Y-90864D01*
X136532Y-90965D01*
X136609Y-91042D01*
X136710Y-91084D01*
X136819Y-91084D01*
X136920Y-91042D01*
X136997Y-90965D01*
X137000Y-90959D01*
X137000Y-92479D01*
X137000Y-92479D01*
G37*
G54D27*
X137000Y-92479D02*
X136879Y-92600D01*
X136474Y-92600D01*
X136474Y-91235D01*
X136432Y-91134D01*
X136355Y-91057D01*
X136254Y-91015D01*
X136145Y-91015D01*
X136044Y-91057D01*
X135967Y-91134D01*
X135925Y-91235D01*
X135925Y-91344D01*
X135967Y-91445D01*
X136044Y-91522D01*
X136145Y-91564D01*
X136254Y-91564D01*
X136355Y-91522D01*
X136432Y-91445D01*
X136474Y-91344D01*
X136474Y-91235D01*
X136474Y-92600D01*
X134250Y-92600D01*
X128900Y-92600D01*
X128900Y-91229D01*
X128670Y-91000D01*
X125420Y-91000D01*
X125300Y-90879D01*
X125300Y-90420D01*
X125420Y-90300D01*
X130150Y-90300D01*
X130150Y-88900D01*
X132929Y-88900D01*
X134535Y-90461D01*
X134487Y-90509D01*
X134445Y-90610D01*
X134445Y-90719D01*
X134487Y-90820D01*
X134564Y-90897D01*
X134665Y-90939D01*
X134774Y-90939D01*
X134875Y-90897D01*
X134952Y-90820D01*
X134994Y-90719D01*
X134994Y-90650D01*
X135835Y-90650D01*
X135835Y-90719D01*
X135877Y-90820D01*
X135954Y-90897D01*
X136055Y-90939D01*
X136164Y-90939D01*
X136265Y-90897D01*
X136342Y-90820D01*
X136384Y-90719D01*
X136384Y-90650D01*
X136536Y-90650D01*
X136532Y-90654D01*
X136490Y-90755D01*
X136490Y-90864D01*
X136532Y-90965D01*
X136609Y-91042D01*
X136710Y-91084D01*
X136819Y-91084D01*
X136920Y-91042D01*
X136997Y-90965D01*
X137000Y-90959D01*
X137000Y-92479D01*
G54D10*
G36*
X147500Y-95650D02*
X146800Y-95650D01*
X146800Y-93776D01*
X146468Y-93500D01*
X143000Y-93500D01*
X143000Y-92800D01*
X145520Y-92800D01*
X146250Y-92070D01*
X146250Y-89429D01*
X145200Y-88379D01*
X145200Y-86600D01*
X146100Y-86600D01*
X146100Y-88319D01*
X147500Y-89819D01*
X147500Y-94800D01*
X147500Y-95650D01*
X147500Y-95650D01*
G37*
G54D27*
X147500Y-95650D02*
X146800Y-95650D01*
X146800Y-93776D01*
X146468Y-93500D01*
X143000Y-93500D01*
X143000Y-92800D01*
X145520Y-92800D01*
X146250Y-92070D01*
X146250Y-89429D01*
X145200Y-88379D01*
X145200Y-86600D01*
X146100Y-86600D01*
X146100Y-88319D01*
X147500Y-89819D01*
X147500Y-94800D01*
X147500Y-95650D01*
M02*
