M48
;DRILL file {Pcbnew (2013-07-07 BZR 4022)-stable} date 10/24/2016 8:05:57 PM
;FORMAT={-:-/ absolute / metric / decimal}
FMAT,2
METRIC,TZ
T1C0.300
T2C0.400
T3C0.584
T4C0.813
T5C1.016
%
G90
G05
M71
T1
X304.927Y249.453
X305.841Y272.847
X306.299Y273.888
X307.251Y281.775
X308.331Y275.031
X309.982Y281.775
X312.776Y281.8
X312.915Y246.52
X315.798Y281.788
X317.462Y253.606
X318.338Y253.657
X320.472Y252.755
X322.478Y277.266
X322.783Y251.917
X323.361Y250.273
X323.977Y276.911
X327.063Y280.822
X327.406Y246.05
X327.533Y270.472
X327.965Y281.318
X328.193Y247.51
X329.011Y260.096
X329.26Y245.237
X330.238Y251.295
X330.581Y268.313
X331.343Y257.277
X331.47Y267.716
X332.156Y270.535
X332.257Y283.731
X332.664Y267.525
X332.791Y271.297
X334.518Y245.694
X335.128Y252.895
X335.788Y241.96
X336.194Y272.009
X336.22Y249.758
X336.398Y253.543
X336.702Y269.799
X336.702Y270.586
X336.702Y271.323
X337.459Y265.054
X338.557Y264.185
X339.801Y247.701
X342.189Y230.289
X344.678Y259.182
X345.719Y230.289
X345.948Y231.877
X347.383Y230.657
X347.497Y226.263
X347.561Y275.006
X349.682Y279.349
X349.758Y221.907
X350.114Y269.634
X350.622Y218.834
X351.028Y221.894
X351.064Y247.02
X352.298Y221.894
X353.004Y268.63
X353.568Y221.894
X353.644Y276.911
X354.838Y221.894
X354.863Y266.827
X357.022Y273.545
X357.988Y262.636
X358.153Y264.731
X358.343Y260.363
X358.457Y263.423
X358.94Y258.801
X359.105Y265.671
X359.283Y260.159
X359.512Y276.733
X360.07Y275.793
X360.68Y262.941
X360.985Y248.742
X360.998Y243.688
X361.226Y271.742
X366.789Y281.534
X367.347Y280.822
X367.64Y282.88
X368.389Y225.908
X368.427Y227.178
T2
X321.16Y272.55
X338.778Y262.489
X339.791Y264.365
X340.483Y274.389
X341.369Y234.823
X341.874Y274.532
X344.727Y235.118
X345.867Y225.839
X349.89Y267.426
X350.456Y272.071
X352.488Y272.213
X355.025Y279.67
X355.15Y264.167
X356.399Y272.587
X364.795Y267.475
X365.607Y277.544
X368.431Y242.055
X368.773Y232.447
X371.095Y266.143
X371.662Y267.085
T3
X301.371Y216.789
X301.371Y217.805
X301.371Y218.821
X301.815Y280.53
X301.815Y281.686
X302.387Y216.789
X302.387Y217.805
X302.387Y218.821
X303.022Y280.543
X303.022Y281.686
X305.562Y227.076
X305.562Y228.092
X305.765Y242.506
X306.578Y227.076
X307.594Y227.076
X311.912Y229.235
X312.738Y247.993
X312.801Y252.857
X312.801Y253.873
X313.182Y226.949
X313.182Y228.092
X313.182Y229.235
X314.452Y226.949
X314.452Y228.092
X314.452Y229.235
X314.452Y230.378
X314.452Y231.521
X314.452Y232.664
X314.452Y233.807
X316.217Y236.144
X316.87Y218.989
X318.071Y244.196
X319.786Y225.806
X320.675Y232.537
X320.802Y225.806
X321.691Y232.537
X321.767Y244.424
X321.818Y225.806
X321.818Y226.949
X322.834Y232.537
X322.986Y246.215
X323.215Y238.125
X323.215Y239.268
X323.215Y270.535
X323.977Y225.171
X323.99Y271.323
X324.358Y238.125
X324.358Y239.268
X325.501Y238.125
X325.501Y239.268
X325.628Y225.806
X325.628Y226.822
X325.628Y227.711
X325.717Y248.171
X326.644Y224.663
X326.644Y225.806
X326.644Y226.822
X326.644Y227.711
X326.644Y238.125
X326.644Y239.268
X327.66Y224.663
X327.66Y225.806
X327.762Y219.177
X327.787Y216.789
X327.787Y218.059
X328.041Y238.125
X328.051Y239.263
X328.803Y216.789
X328.803Y218.059
X328.803Y219.202
X329.057Y238.125
X329.057Y239.268
X329.819Y216.789
X329.819Y218.059
X329.819Y219.202
X330.06Y243.751
X330.695Y270.84
X331.089Y229.743
X331.089Y230.759
X333.019Y261.81
X336.613Y260.68
X336.931Y266.776
X337.424Y256.581
X338.404Y271.221
X339.126Y253.573
X340.169Y246.355
X340.868Y253.835
X341.335Y257.724
X341.719Y268.897
X342.176Y241.122
X342.582Y236.41
X343.319Y271.336
X343.751Y260.426
X343.891Y238.938
X344.17Y267.208
X344.335Y254.978
X345.376Y270.7
X345.427Y253.898
X345.836Y265.42
X346.774Y253.53
X347.472Y256.286
X347.472Y257.429
X348.64Y257.391
X349.402Y238.824
X349.504Y217.17
X349.542Y235.648
X349.936Y245.222
X350.317Y261.81
X350.342Y268.635
X350.647Y217.17
X351.091Y253.39
X351.536Y271.107
X352.819Y256.35
X352.996Y253.873
X353.299Y265.445
X354.101Y258.318
X354.254Y260.896
X355.6Y273.685
X356.406Y252.012
X356.667Y249.542
X358.877Y279.984
X358.902Y224.028
X359.308Y262.56
X360.045Y224.028
X360.324Y265.049
X360.629Y229.997
X360.972Y227.978
X361.188Y224.028
X361.671Y253.695
X363.525Y249.555
X363.83Y236.779
X364.376Y271.564
X364.399Y232.888
X364.566Y260.121
X368.135Y284.569
X369.354Y220.853
X371.221Y283.528
X371.577Y263.83
X371.602Y278.791
X372.364Y217.17
X372.44Y259.626
X372.516Y234.582
X373.126Y217.932
X373.742Y244.329
X373.761Y245.491
X373.761Y246.634
X373.888Y218.694
X373.888Y242.418
X374.65Y219.456
X374.777Y244.348
X374.777Y245.491
X374.777Y246.634
X376.174Y282.448
X376.174Y284.226
X377.063Y283.337
X377.19Y281.559
X377.952Y282.448
X378.333Y222.123
X378.333Y223.139
X378.333Y224.155
X378.333Y225.171
T4
X301.816Y271.894
X301.816Y276.974
X302.146Y237.236
X302.146Y239.776
X302.146Y242.316
X302.146Y244.856
X302.146Y247.396
X302.146Y249.936
X304.61Y239.509
X304.61Y244.589
X309.436Y271.894
X309.436Y276.974
X311.455Y271.945
X311.455Y277.025
X312.23Y239.509
X312.23Y244.589
X319.075Y271.945
X319.075Y277.025
X369.595Y246.631
X369.595Y251.513
T5
X302.133Y229.616
X302.133Y232.156
X302.133Y234.696
X303.784Y256.032
X303.784Y258.572
X303.784Y266.065
X303.784Y268.605
X306.324Y256.032
X306.324Y258.572
X306.324Y266.065
X306.324Y268.605
X308.864Y256.032
X308.864Y258.572
X308.864Y266.065
X308.864Y268.605
X311.404Y256.032
X311.404Y258.572
X311.404Y266.065
X311.404Y268.605
X313.944Y256.032
X313.944Y258.572
X313.944Y266.065
X313.944Y268.605
X316.484Y256.032
X316.484Y258.572
X316.484Y266.065
X316.484Y268.605
X319.024Y256.032
X319.024Y258.572
X319.024Y266.065
X319.024Y268.605
X320.167Y283.616
X320.167Y286.156
X321.564Y256.032
X321.564Y258.572
X321.564Y266.065
X321.564Y268.605
X322.707Y283.616
X322.707Y286.156
X324.104Y256.032
X324.104Y258.572
X324.104Y266.065
X324.104Y268.605
X325.247Y283.616
X325.247Y286.156
X326.644Y256.032
X326.644Y258.572
X326.644Y266.065
X326.644Y268.605
X327.787Y283.616
X327.787Y286.156
X330.327Y283.616
X330.327Y286.156
X361.95Y286.182
X364.49Y286.182
X367.03Y286.182
X369.57Y286.182
X372.11Y286.182
X374.752Y260.896
X374.752Y263.436
X374.752Y265.976
X374.752Y268.516
X377.292Y260.896
X377.292Y263.436
X377.292Y265.976
X377.292Y268.516
T0
M30
