G04 This is an RS-274x file exported by *
G04 gerbv version 2.6.1 *
G04 More information is available about gerbv at *
G04 http://gerbv.geda-project.org/ *
G04 --End of header info--*
%MOIN*%
%FSLAX34Y34*%
%IPPOS*%
G04 --Define apertures--*
%ADD10C,0.0059*%
%ADD11C,0.0059*%
%ADD12C,0.0026*%
%ADD13C,0.0040*%
%ADD14C,0.0020*%
%ADD15C,0.0060*%
%ADD16C,0.0120*%
%ADD17C,0.0035*%
%ADD18C,0.0012*%
G04 --Start main section--*
G54D11*
G01X0118200Y-106575D02*
G01X0118200Y-113725D01*
G01X0118200Y-113725D02*
G01X0124850Y-113725D01*
G01X0124850Y-113725D02*
G01X0124850Y-106550D01*
G01X0124850Y-106550D02*
G01X0118200Y-106550D01*
G54D12*
G01X0132530Y-098310D02*
G01X0132530Y-098130D01*
G01X0132530Y-098130D02*
G01X0132800Y-098130D01*
G01X0132800Y-098310D02*
G01X0132800Y-098130D01*
G01X0132530Y-098310D02*
G01X0132800Y-098310D01*
G01X0133300Y-098320D02*
G01X0133300Y-098140D01*
G01X0133300Y-098140D02*
G01X0133570Y-098140D01*
G01X0133570Y-098320D02*
G01X0133570Y-098140D01*
G01X0133300Y-098320D02*
G01X0133570Y-098320D01*
G01X0133300Y-099050D02*
G01X0133300Y-098870D01*
G01X0133300Y-098870D02*
G01X0133570Y-098870D01*
G01X0133570Y-099050D02*
G01X0133570Y-098870D01*
G01X0133300Y-099050D02*
G01X0133570Y-099050D01*
G01X0132530Y-099070D02*
G01X0132530Y-098720D01*
G01X0132530Y-098720D02*
G01X0132800Y-098720D01*
G01X0132800Y-099070D02*
G01X0132800Y-098720D01*
G01X0132530Y-099070D02*
G01X0132800Y-099070D01*
G54D13*
G01X0133300Y-099170D02*
G01X0133300Y-098030D01*
G01X0132800Y-099170D02*
G01X0132800Y-098030D01*
G01X0132800Y-099170D02*
G01X0133300Y-099170D01*
G01X0132800Y-098030D02*
G01X0133300Y-098030D01*
G54D14*
G01X0131824Y-100237D02*
G01X0133376Y-100237D01*
G01X0133376Y-100237D02*
G01X0133376Y-099463D01*
G01X0133376Y-099463D02*
G01X0131824Y-099463D01*
G01X0131824Y-099463D02*
G01X0131824Y-100237D01*
G01X0132313Y-106524D02*
G01X0132313Y-108076D01*
G01X0132313Y-108076D02*
G01X0133087Y-108076D01*
G01X0133087Y-108076D02*
G01X0133087Y-106524D01*
G01X0133087Y-106524D02*
G01X0132313Y-106524D01*
G54D12*
G01X0134430Y-106640D02*
G01X0134430Y-106460D01*
G01X0134430Y-106460D02*
G01X0134659Y-106460D01*
G01X0134659Y-106640D02*
G01X0134659Y-106460D01*
G01X0134430Y-106640D02*
G01X0134659Y-106640D01*
G01X0133641Y-106270D02*
G01X0133641Y-106090D01*
G01X0133641Y-106090D02*
G01X0133870Y-106090D01*
G01X0133870Y-106270D02*
G01X0133870Y-106090D01*
G01X0133641Y-106270D02*
G01X0133870Y-106270D01*
G01X0133641Y-107010D02*
G01X0133641Y-106830D01*
G01X0133641Y-106830D02*
G01X0133870Y-106830D01*
G01X0133870Y-107010D02*
G01X0133870Y-106830D01*
G01X0133641Y-107010D02*
G01X0133870Y-107010D01*
G54D15*
G01X0134409Y-105991D02*
G01X0133891Y-105991D01*
G01X0133891Y-105991D02*
G01X0133891Y-107109D01*
G01X0133891Y-107109D02*
G01X0134409Y-107109D01*
G01X0134409Y-107109D02*
G01X0134409Y-105991D01*
G54D16*
G01X0122057Y-112442D02*
G01X0122057Y-112928D01*
G01X0122057Y-112928D02*
G01X0122028Y-112985D01*
G01X0122028Y-112985D02*
G01X0122000Y-113014D01*
G01X0122000Y-113014D02*
G01X0121942Y-113042D01*
G01X0121942Y-113042D02*
G01X0121828Y-113042D01*
G01X0121828Y-113042D02*
G01X0121771Y-113014D01*
G01X0121771Y-113014D02*
G01X0121742Y-112985D01*
G01X0121742Y-112985D02*
G01X0121714Y-112928D01*
G01X0121714Y-112928D02*
G01X0121714Y-112442D01*
G01X0121457Y-112500D02*
G01X0121428Y-112471D01*
G01X0121428Y-112471D02*
G01X0121371Y-112442D01*
G01X0121371Y-112442D02*
G01X0121228Y-112442D01*
G01X0121228Y-112442D02*
G01X0121171Y-112471D01*
G01X0121171Y-112471D02*
G01X0121142Y-112500D01*
G01X0121142Y-112500D02*
G01X0121114Y-112557D01*
G01X0121114Y-112557D02*
G01X0121114Y-112614D01*
G01X0121114Y-112614D02*
G01X0121142Y-112700D01*
G01X0121142Y-112700D02*
G01X0121485Y-113042D01*
G01X0121485Y-113042D02*
G01X0121114Y-113042D01*
G54D18*
G01X0133912Y-098365D02*
G01X0134167Y-098365D01*
G01X0134167Y-098365D02*
G01X0134197Y-098380D01*
G01X0134197Y-098380D02*
G01X0134212Y-098395D01*
G01X0134212Y-098395D02*
G01X0134227Y-098425D01*
G01X0134227Y-098425D02*
G01X0134227Y-098485D01*
G01X0134227Y-098485D02*
G01X0134212Y-098515D01*
G01X0134212Y-098515D02*
G01X0134197Y-098530D01*
G01X0134197Y-098530D02*
G01X0134167Y-098545D01*
G01X0134167Y-098545D02*
G01X0133912Y-098545D01*
G01X0133912Y-098664D02*
G01X0133912Y-098874D01*
G01X0133912Y-098874D02*
G01X0134227Y-098739D01*
G54D17*
G01X0132931Y-100764D02*
G01X0132955Y-100788D01*
G01X0132955Y-100788D02*
G01X0133026Y-100812D01*
G01X0133026Y-100812D02*
G01X0133074Y-100812D01*
G01X0133074Y-100812D02*
G01X0133145Y-100788D01*
G01X0133145Y-100788D02*
G01X0133193Y-100740D01*
G01X0133193Y-100740D02*
G01X0133217Y-100693D01*
G01X0133217Y-100693D02*
G01X0133240Y-100598D01*
G01X0133240Y-100598D02*
G01X0133240Y-100526D01*
G01X0133240Y-100526D02*
G01X0133217Y-100431D01*
G01X0133217Y-100431D02*
G01X0133193Y-100383D01*
G01X0133193Y-100383D02*
G01X0133145Y-100336D01*
G01X0133145Y-100336D02*
G01X0133074Y-100312D01*
G01X0133074Y-100312D02*
G01X0133026Y-100312D01*
G01X0133026Y-100312D02*
G01X0132955Y-100336D01*
G01X0132955Y-100336D02*
G01X0132931Y-100360D01*
G01X0132455Y-100812D02*
G01X0132740Y-100812D01*
G01X0132598Y-100812D02*
G01X0132598Y-100312D01*
G01X0132598Y-100312D02*
G01X0132645Y-100383D01*
G01X0132645Y-100383D02*
G01X0132693Y-100431D01*
G01X0132693Y-100431D02*
G01X0132740Y-100455D01*
G01X0132217Y-100812D02*
G01X0132121Y-100812D01*
G01X0132121Y-100812D02*
G01X0132074Y-100788D01*
G01X0132074Y-100788D02*
G01X0132050Y-100764D01*
G01X0132050Y-100764D02*
G01X0132002Y-100693D01*
G01X0132002Y-100693D02*
G01X0131979Y-100598D01*
G01X0131979Y-100598D02*
G01X0131979Y-100407D01*
G01X0131979Y-100407D02*
G01X0132002Y-100360D01*
G01X0132002Y-100360D02*
G01X0132026Y-100336D01*
G01X0132026Y-100336D02*
G01X0132074Y-100312D01*
G01X0132074Y-100312D02*
G01X0132169Y-100312D01*
G01X0132169Y-100312D02*
G01X0132217Y-100336D01*
G01X0132217Y-100336D02*
G01X0132240Y-100360D01*
G01X0132240Y-100360D02*
G01X0132264Y-100407D01*
G01X0132264Y-100407D02*
G01X0132264Y-100526D01*
G01X0132264Y-100526D02*
G01X0132240Y-100574D01*
G01X0132240Y-100574D02*
G01X0132217Y-100598D01*
G01X0132217Y-100598D02*
G01X0132169Y-100621D01*
G01X0132169Y-100621D02*
G01X0132074Y-100621D01*
G01X0132074Y-100621D02*
G01X0132026Y-100598D01*
G01X0132026Y-100598D02*
G01X0132002Y-100574D01*
G01X0132002Y-100574D02*
G01X0131979Y-100526D01*
G01X0132177Y-106928D02*
G01X0131939Y-106761D01*
G01X0132177Y-106642D02*
G01X0131677Y-106642D01*
G01X0131677Y-106642D02*
G01X0131677Y-106833D01*
G01X0131677Y-106833D02*
G01X0131701Y-106880D01*
G01X0131701Y-106880D02*
G01X0131725Y-106904D01*
G01X0131725Y-106904D02*
G01X0131772Y-106928D01*
G01X0131772Y-106928D02*
G01X0131844Y-106928D01*
G01X0131844Y-106928D02*
G01X0131891Y-106904D01*
G01X0131891Y-106904D02*
G01X0131915Y-106880D01*
G01X0131915Y-106880D02*
G01X0131939Y-106833D01*
G01X0131939Y-106833D02*
G01X0131939Y-106642D01*
G01X0131725Y-107119D02*
G01X0131701Y-107142D01*
G01X0131701Y-107142D02*
G01X0131677Y-107190D01*
G01X0131677Y-107190D02*
G01X0131677Y-107309D01*
G01X0131677Y-107309D02*
G01X0131701Y-107357D01*
G01X0131701Y-107357D02*
G01X0131725Y-107380D01*
G01X0131725Y-107380D02*
G01X0131772Y-107404D01*
G01X0131772Y-107404D02*
G01X0131820Y-107404D01*
G01X0131820Y-107404D02*
G01X0131891Y-107380D01*
G01X0131891Y-107380D02*
G01X0132177Y-107095D01*
G01X0132177Y-107095D02*
G01X0132177Y-107404D01*
G01X0131844Y-107833D02*
G01X0132177Y-107833D01*
G01X0131653Y-107714D02*
G01X0132010Y-107595D01*
G01X0132010Y-107595D02*
G01X0132010Y-107904D01*
G01X0134602Y-105419D02*
G01X0134602Y-105704D01*
G01X0135102Y-105561D02*
G01X0134602Y-105561D01*
G01X0134650Y-105847D02*
G01X0134626Y-105871D01*
G01X0134626Y-105871D02*
G01X0134602Y-105919D01*
G01X0134602Y-105919D02*
G01X0134602Y-106038D01*
G01X0134602Y-106038D02*
G01X0134626Y-106085D01*
G01X0134626Y-106085D02*
G01X0134650Y-106109D01*
G01X0134650Y-106109D02*
G01X0134697Y-106133D01*
G01X0134697Y-106133D02*
G01X0134745Y-106133D01*
G01X0134745Y-106133D02*
G01X0134816Y-106109D01*
G01X0134816Y-106109D02*
G01X0135102Y-105823D01*
G01X0135102Y-105823D02*
G01X0135102Y-106133D01*
M02*
