G04 This is an RS-274x file exported by *
G04 gerbv version 2.6.1 *
G04 More information is available about gerbv at *
G04 http://gerbv.geda-project.org/ *
G04 --End of header info--*
%MOIN*%
%FSLAX34Y34*%
%IPPOS*%
G04 --Define apertures--*
%ADD10C,0.0059*%
%ADD11C,0.0031*%
%ADD12C,0.0047*%
%ADD13C,0.0063*%
%ADD14C,0.0035*%
%ADD15C,0.0028*%
%ADD16C,0.0118*%
%ADD17C,0.0118*%
%ADD18C,0.0120*%
%ADD19C,0.0050*%
%ADD20C,0.0150*%
%ADD21C,0.0080*%
%ADD22C,0.0026*%
%ADD23C,0.0060*%
%ADD24C,0.0030*%
%ADD25C,0.0020*%
%ADD26C,0.0070*%
%ADD27C,0.0039*%
%ADD28C,0.0100*%
%ADD29C,0.0001*%
%ADD30C,0.0098*%
%ADD31C,0.0098*%
%ADD32C,0.0160*%
%ADD33C,0.0059*%
%ADD34C,0.0500*%
%ADD35C,0.0065*%
%ADD36C,0.0043*%
%ADD37C,0.0047*%
%ADD38C,0.0079*%
%ADD39C,0.0075*%
G04 --Start main section--*
G54D11*
G01X0118923Y-101010D02*
G01X0118914Y-101020D01*
G01X0118914Y-101020D02*
G01X0118885Y-101029D01*
G01X0118885Y-101029D02*
G01X0118867Y-101029D01*
G01X0118867Y-101029D02*
G01X0118839Y-101020D01*
G01X0118839Y-101020D02*
G01X0118820Y-101001D01*
G01X0118820Y-101001D02*
G01X0118810Y-100982D01*
G01X0118810Y-100982D02*
G01X0118801Y-100945D01*
G01X0118801Y-100945D02*
G01X0118801Y-100917D01*
G01X0118801Y-100917D02*
G01X0118810Y-100879D01*
G01X0118810Y-100879D02*
G01X0118820Y-100860D01*
G01X0118820Y-100860D02*
G01X0118839Y-100842D01*
G01X0118839Y-100842D02*
G01X0118867Y-100832D01*
G01X0118867Y-100832D02*
G01X0118885Y-100832D01*
G01X0118885Y-100832D02*
G01X0118914Y-100842D01*
G01X0118914Y-100842D02*
G01X0118923Y-100851D01*
G01X0119110Y-101029D02*
G01X0118998Y-101029D01*
G01X0119054Y-101029D02*
G01X0119054Y-100832D01*
G01X0119054Y-100832D02*
G01X0119035Y-100860D01*
G01X0119035Y-100860D02*
G01X0119017Y-100879D01*
G01X0119017Y-100879D02*
G01X0118998Y-100889D01*
G01X0119185Y-100851D02*
G01X0119195Y-100842D01*
G01X0119195Y-100842D02*
G01X0119214Y-100832D01*
G01X0119214Y-100832D02*
G01X0119260Y-100832D01*
G01X0119260Y-100832D02*
G01X0119279Y-100842D01*
G01X0119279Y-100842D02*
G01X0119289Y-100851D01*
G01X0119289Y-100851D02*
G01X0119298Y-100870D01*
G01X0119298Y-100870D02*
G01X0119298Y-100889D01*
G01X0119298Y-100889D02*
G01X0119289Y-100917D01*
G01X0119289Y-100917D02*
G01X0119176Y-101029D01*
G01X0119176Y-101029D02*
G01X0119298Y-101029D01*
G01X0118923Y-103060D02*
G01X0118914Y-103070D01*
G01X0118914Y-103070D02*
G01X0118885Y-103079D01*
G01X0118885Y-103079D02*
G01X0118867Y-103079D01*
G01X0118867Y-103079D02*
G01X0118839Y-103070D01*
G01X0118839Y-103070D02*
G01X0118820Y-103051D01*
G01X0118820Y-103051D02*
G01X0118810Y-103032D01*
G01X0118810Y-103032D02*
G01X0118801Y-102995D01*
G01X0118801Y-102995D02*
G01X0118801Y-102967D01*
G01X0118801Y-102967D02*
G01X0118810Y-102929D01*
G01X0118810Y-102929D02*
G01X0118820Y-102910D01*
G01X0118820Y-102910D02*
G01X0118839Y-102892D01*
G01X0118839Y-102892D02*
G01X0118867Y-102882D01*
G01X0118867Y-102882D02*
G01X0118885Y-102882D01*
G01X0118885Y-102882D02*
G01X0118914Y-102892D01*
G01X0118914Y-102892D02*
G01X0118923Y-102901D01*
G01X0119110Y-103079D02*
G01X0118998Y-103079D01*
G01X0119054Y-103079D02*
G01X0119054Y-102882D01*
G01X0119054Y-102882D02*
G01X0119035Y-102910D01*
G01X0119035Y-102910D02*
G01X0119017Y-102929D01*
G01X0119017Y-102929D02*
G01X0118998Y-102939D01*
G01X0119279Y-102948D02*
G01X0119279Y-103079D01*
G01X0119232Y-102873D02*
G01X0119185Y-103014D01*
G01X0119185Y-103014D02*
G01X0119307Y-103014D01*
G01X0123694Y-101486D02*
G01X0123600Y-101552D01*
G01X0123694Y-101599D02*
G01X0123497Y-101599D01*
G01X0123497Y-101599D02*
G01X0123497Y-101524D01*
G01X0123497Y-101524D02*
G01X0123507Y-101505D01*
G01X0123507Y-101505D02*
G01X0123516Y-101495D01*
G01X0123516Y-101495D02*
G01X0123535Y-101486D01*
G01X0123535Y-101486D02*
G01X0123563Y-101486D01*
G01X0123563Y-101486D02*
G01X0123582Y-101495D01*
G01X0123582Y-101495D02*
G01X0123591Y-101505D01*
G01X0123591Y-101505D02*
G01X0123600Y-101524D01*
G01X0123600Y-101524D02*
G01X0123600Y-101599D01*
G01X0123516Y-101411D02*
G01X0123507Y-101402D01*
G01X0123507Y-101402D02*
G01X0123497Y-101383D01*
G01X0123497Y-101383D02*
G01X0123497Y-101336D01*
G01X0123497Y-101336D02*
G01X0123507Y-101317D01*
G01X0123507Y-101317D02*
G01X0123516Y-101308D01*
G01X0123516Y-101308D02*
G01X0123535Y-101299D01*
G01X0123535Y-101299D02*
G01X0123554Y-101299D01*
G01X0123554Y-101299D02*
G01X0123582Y-101308D01*
G01X0123582Y-101308D02*
G01X0123694Y-101420D01*
G01X0123694Y-101420D02*
G01X0123694Y-101299D01*
G01X0123497Y-101233D02*
G01X0123497Y-101111D01*
G01X0123497Y-101111D02*
G01X0123572Y-101177D01*
G01X0123572Y-101177D02*
G01X0123572Y-101149D01*
G01X0123572Y-101149D02*
G01X0123582Y-101130D01*
G01X0123582Y-101130D02*
G01X0123591Y-101120D01*
G01X0123591Y-101120D02*
G01X0123610Y-101111D01*
G01X0123610Y-101111D02*
G01X0123657Y-101111D01*
G01X0123657Y-101111D02*
G01X0123675Y-101120D01*
G01X0123675Y-101120D02*
G01X0123685Y-101130D01*
G01X0123685Y-101130D02*
G01X0123694Y-101149D01*
G01X0123694Y-101149D02*
G01X0123694Y-101205D01*
G01X0123694Y-101205D02*
G01X0123685Y-101224D01*
G01X0123685Y-101224D02*
G01X0123675Y-101233D01*
G01X0126074Y-101511D02*
G01X0125980Y-101577D01*
G01X0126074Y-101624D02*
G01X0125877Y-101624D01*
G01X0125877Y-101624D02*
G01X0125877Y-101549D01*
G01X0125877Y-101549D02*
G01X0125887Y-101530D01*
G01X0125887Y-101530D02*
G01X0125896Y-101520D01*
G01X0125896Y-101520D02*
G01X0125915Y-101511D01*
G01X0125915Y-101511D02*
G01X0125943Y-101511D01*
G01X0125943Y-101511D02*
G01X0125962Y-101520D01*
G01X0125962Y-101520D02*
G01X0125971Y-101530D01*
G01X0125971Y-101530D02*
G01X0125980Y-101549D01*
G01X0125980Y-101549D02*
G01X0125980Y-101624D01*
G01X0125896Y-101436D02*
G01X0125887Y-101427D01*
G01X0125887Y-101427D02*
G01X0125877Y-101408D01*
G01X0125877Y-101408D02*
G01X0125877Y-101361D01*
G01X0125877Y-101361D02*
G01X0125887Y-101342D01*
G01X0125887Y-101342D02*
G01X0125896Y-101333D01*
G01X0125896Y-101333D02*
G01X0125915Y-101324D01*
G01X0125915Y-101324D02*
G01X0125934Y-101324D01*
G01X0125934Y-101324D02*
G01X0125962Y-101333D01*
G01X0125962Y-101333D02*
G01X0126074Y-101445D01*
G01X0126074Y-101445D02*
G01X0126074Y-101324D01*
G01X0125896Y-101249D02*
G01X0125887Y-101239D01*
G01X0125887Y-101239D02*
G01X0125877Y-101220D01*
G01X0125877Y-101220D02*
G01X0125877Y-101174D01*
G01X0125877Y-101174D02*
G01X0125887Y-101155D01*
G01X0125887Y-101155D02*
G01X0125896Y-101145D01*
G01X0125896Y-101145D02*
G01X0125915Y-101136D01*
G01X0125915Y-101136D02*
G01X0125934Y-101136D01*
G01X0125934Y-101136D02*
G01X0125962Y-101145D01*
G01X0125962Y-101145D02*
G01X0126074Y-101258D01*
G01X0126074Y-101258D02*
G01X0126074Y-101136D01*
G54D12*
G01X0143438Y-103018D02*
G01X0143438Y-102664D01*
G01X0143438Y-102664D02*
G01X0143522Y-102664D01*
G01X0143522Y-102664D02*
G01X0143573Y-102680D01*
G01X0143573Y-102680D02*
G01X0143607Y-102714D01*
G01X0143607Y-102714D02*
G01X0143624Y-102748D01*
G01X0143624Y-102748D02*
G01X0143640Y-102815D01*
G01X0143640Y-102815D02*
G01X0143640Y-102866D01*
G01X0143640Y-102866D02*
G01X0143624Y-102934D01*
G01X0143624Y-102934D02*
G01X0143607Y-102967D01*
G01X0143607Y-102967D02*
G01X0143573Y-103001D01*
G01X0143573Y-103001D02*
G01X0143522Y-103018D01*
G01X0143522Y-103018D02*
G01X0143438Y-103018D01*
G01X0143775Y-102697D02*
G01X0143792Y-102680D01*
G01X0143792Y-102680D02*
G01X0143826Y-102664D01*
G01X0143826Y-102664D02*
G01X0143910Y-102664D01*
G01X0143910Y-102664D02*
G01X0143944Y-102680D01*
G01X0143944Y-102680D02*
G01X0143961Y-102697D01*
G01X0143961Y-102697D02*
G01X0143978Y-102731D01*
G01X0143978Y-102731D02*
G01X0143978Y-102765D01*
G01X0143978Y-102765D02*
G01X0143961Y-102815D01*
G01X0143961Y-102815D02*
G01X0143759Y-103018D01*
G01X0143759Y-103018D02*
G01X0143978Y-103018D01*
G01X0143438Y-101568D02*
G01X0143438Y-101214D01*
G01X0143438Y-101214D02*
G01X0143522Y-101214D01*
G01X0143522Y-101214D02*
G01X0143573Y-101230D01*
G01X0143573Y-101230D02*
G01X0143607Y-101264D01*
G01X0143607Y-101264D02*
G01X0143624Y-101298D01*
G01X0143624Y-101298D02*
G01X0143640Y-101365D01*
G01X0143640Y-101365D02*
G01X0143640Y-101416D01*
G01X0143640Y-101416D02*
G01X0143624Y-101484D01*
G01X0143624Y-101484D02*
G01X0143607Y-101517D01*
G01X0143607Y-101517D02*
G01X0143573Y-101551D01*
G01X0143573Y-101551D02*
G01X0143522Y-101568D01*
G01X0143522Y-101568D02*
G01X0143438Y-101568D01*
G01X0143944Y-101332D02*
G01X0143944Y-101568D01*
G01X0143860Y-101197D02*
G01X0143775Y-101450D01*
G01X0143775Y-101450D02*
G01X0143995Y-101450D01*
G01X0145093Y-097536D02*
G01X0144739Y-097536D01*
G01X0144739Y-097536D02*
G01X0144739Y-097452D01*
G01X0144739Y-097452D02*
G01X0144755Y-097401D01*
G01X0144755Y-097401D02*
G01X0144789Y-097367D01*
G01X0144789Y-097367D02*
G01X0144823Y-097350D01*
G01X0144823Y-097350D02*
G01X0144890Y-097334D01*
G01X0144890Y-097334D02*
G01X0144941Y-097334D01*
G01X0144941Y-097334D02*
G01X0145009Y-097350D01*
G01X0145009Y-097350D02*
G01X0145042Y-097367D01*
G01X0145042Y-097367D02*
G01X0145076Y-097401D01*
G01X0145076Y-097401D02*
G01X0145093Y-097452D01*
G01X0145093Y-097452D02*
G01X0145093Y-097536D01*
G01X0145093Y-096996D02*
G01X0145093Y-097199D01*
G01X0145093Y-097097D02*
G01X0144739Y-097097D01*
G01X0144739Y-097097D02*
G01X0144789Y-097131D01*
G01X0144789Y-097131D02*
G01X0144823Y-097165D01*
G01X0144823Y-097165D02*
G01X0144840Y-097199D01*
G01X0148318Y-097911D02*
G01X0147964Y-097911D01*
G01X0147964Y-097911D02*
G01X0147964Y-097827D01*
G01X0147964Y-097827D02*
G01X0147980Y-097776D01*
G01X0147980Y-097776D02*
G01X0148014Y-097742D01*
G01X0148014Y-097742D02*
G01X0148048Y-097725D01*
G01X0148048Y-097725D02*
G01X0148115Y-097709D01*
G01X0148115Y-097709D02*
G01X0148166Y-097709D01*
G01X0148166Y-097709D02*
G01X0148234Y-097725D01*
G01X0148234Y-097725D02*
G01X0148267Y-097742D01*
G01X0148267Y-097742D02*
G01X0148301Y-097776D01*
G01X0148301Y-097776D02*
G01X0148318Y-097827D01*
G01X0148318Y-097827D02*
G01X0148318Y-097911D01*
G01X0148115Y-097506D02*
G01X0148099Y-097540D01*
G01X0148099Y-097540D02*
G01X0148082Y-097557D01*
G01X0148082Y-097557D02*
G01X0148048Y-097574D01*
G01X0148048Y-097574D02*
G01X0148031Y-097574D01*
G01X0148031Y-097574D02*
G01X0147997Y-097557D01*
G01X0147997Y-097557D02*
G01X0147980Y-097540D01*
G01X0147980Y-097540D02*
G01X0147964Y-097506D01*
G01X0147964Y-097506D02*
G01X0147964Y-097439D01*
G01X0147964Y-097439D02*
G01X0147980Y-097405D01*
G01X0147980Y-097405D02*
G01X0147997Y-097388D01*
G01X0147997Y-097388D02*
G01X0148031Y-097371D01*
G01X0148031Y-097371D02*
G01X0148048Y-097371D01*
G01X0148048Y-097371D02*
G01X0148082Y-097388D01*
G01X0148082Y-097388D02*
G01X0148099Y-097405D01*
G01X0148099Y-097405D02*
G01X0148115Y-097439D01*
G01X0148115Y-097439D02*
G01X0148115Y-097506D01*
G01X0148115Y-097506D02*
G01X0148132Y-097540D01*
G01X0148132Y-097540D02*
G01X0148149Y-097557D01*
G01X0148149Y-097557D02*
G01X0148183Y-097574D01*
G01X0148183Y-097574D02*
G01X0148250Y-097574D01*
G01X0148250Y-097574D02*
G01X0148284Y-097557D01*
G01X0148284Y-097557D02*
G01X0148301Y-097540D01*
G01X0148301Y-097540D02*
G01X0148318Y-097506D01*
G01X0148318Y-097506D02*
G01X0148318Y-097439D01*
G01X0148318Y-097439D02*
G01X0148301Y-097405D01*
G01X0148301Y-097405D02*
G01X0148284Y-097388D01*
G01X0148284Y-097388D02*
G01X0148250Y-097371D01*
G01X0148250Y-097371D02*
G01X0148183Y-097371D01*
G01X0148183Y-097371D02*
G01X0148149Y-097388D01*
G01X0148149Y-097388D02*
G01X0148132Y-097405D01*
G01X0148132Y-097405D02*
G01X0148115Y-097439D01*
G01X0149318Y-097911D02*
G01X0148964Y-097911D01*
G01X0148964Y-097911D02*
G01X0148964Y-097827D01*
G01X0148964Y-097827D02*
G01X0148980Y-097776D01*
G01X0148980Y-097776D02*
G01X0149014Y-097742D01*
G01X0149014Y-097742D02*
G01X0149048Y-097725D01*
G01X0149048Y-097725D02*
G01X0149115Y-097709D01*
G01X0149115Y-097709D02*
G01X0149166Y-097709D01*
G01X0149166Y-097709D02*
G01X0149234Y-097725D01*
G01X0149234Y-097725D02*
G01X0149267Y-097742D01*
G01X0149267Y-097742D02*
G01X0149301Y-097776D01*
G01X0149301Y-097776D02*
G01X0149318Y-097827D01*
G01X0149318Y-097827D02*
G01X0149318Y-097911D01*
G01X0149318Y-097540D02*
G01X0149318Y-097472D01*
G01X0149318Y-097472D02*
G01X0149301Y-097439D01*
G01X0149301Y-097439D02*
G01X0149284Y-097422D01*
G01X0149284Y-097422D02*
G01X0149234Y-097388D01*
G01X0149234Y-097388D02*
G01X0149166Y-097371D01*
G01X0149166Y-097371D02*
G01X0149031Y-097371D01*
G01X0149031Y-097371D02*
G01X0148997Y-097388D01*
G01X0148997Y-097388D02*
G01X0148980Y-097405D01*
G01X0148980Y-097405D02*
G01X0148964Y-097439D01*
G01X0148964Y-097439D02*
G01X0148964Y-097506D01*
G01X0148964Y-097506D02*
G01X0148980Y-097540D01*
G01X0148980Y-097540D02*
G01X0148997Y-097557D01*
G01X0148997Y-097557D02*
G01X0149031Y-097574D01*
G01X0149031Y-097574D02*
G01X0149115Y-097574D01*
G01X0149115Y-097574D02*
G01X0149149Y-097557D01*
G01X0149149Y-097557D02*
G01X0149166Y-097540D01*
G01X0149166Y-097540D02*
G01X0149183Y-097506D01*
G01X0149183Y-097506D02*
G01X0149183Y-097439D01*
G01X0149183Y-097439D02*
G01X0149166Y-097405D01*
G01X0149166Y-097405D02*
G01X0149149Y-097388D01*
G01X0149149Y-097388D02*
G01X0149115Y-097371D01*
G01X0147688Y-102818D02*
G01X0147688Y-102464D01*
G01X0147688Y-102464D02*
G01X0147772Y-102464D01*
G01X0147772Y-102464D02*
G01X0147823Y-102480D01*
G01X0147823Y-102480D02*
G01X0147857Y-102514D01*
G01X0147857Y-102514D02*
G01X0147874Y-102548D01*
G01X0147874Y-102548D02*
G01X0147890Y-102615D01*
G01X0147890Y-102615D02*
G01X0147890Y-102666D01*
G01X0147890Y-102666D02*
G01X0147874Y-102734D01*
G01X0147874Y-102734D02*
G01X0147857Y-102767D01*
G01X0147857Y-102767D02*
G01X0147823Y-102801D01*
G01X0147823Y-102801D02*
G01X0147772Y-102818D01*
G01X0147772Y-102818D02*
G01X0147688Y-102818D01*
G01X0148009Y-102464D02*
G01X0148245Y-102464D01*
G01X0148245Y-102464D02*
G01X0148093Y-102818D01*
G01X0147688Y-103718D02*
G01X0147688Y-103364D01*
G01X0147688Y-103364D02*
G01X0147772Y-103364D01*
G01X0147772Y-103364D02*
G01X0147823Y-103380D01*
G01X0147823Y-103380D02*
G01X0147857Y-103414D01*
G01X0147857Y-103414D02*
G01X0147874Y-103448D01*
G01X0147874Y-103448D02*
G01X0147890Y-103515D01*
G01X0147890Y-103515D02*
G01X0147890Y-103566D01*
G01X0147890Y-103566D02*
G01X0147874Y-103634D01*
G01X0147874Y-103634D02*
G01X0147857Y-103667D01*
G01X0147857Y-103667D02*
G01X0147823Y-103701D01*
G01X0147823Y-103701D02*
G01X0147772Y-103718D01*
G01X0147772Y-103718D02*
G01X0147688Y-103718D01*
G01X0148194Y-103364D02*
G01X0148127Y-103364D01*
G01X0148127Y-103364D02*
G01X0148093Y-103380D01*
G01X0148093Y-103380D02*
G01X0148076Y-103397D01*
G01X0148076Y-103397D02*
G01X0148042Y-103448D01*
G01X0148042Y-103448D02*
G01X0148025Y-103515D01*
G01X0148025Y-103515D02*
G01X0148025Y-103650D01*
G01X0148025Y-103650D02*
G01X0148042Y-103684D01*
G01X0148042Y-103684D02*
G01X0148059Y-103701D01*
G01X0148059Y-103701D02*
G01X0148093Y-103718D01*
G01X0148093Y-103718D02*
G01X0148160Y-103718D01*
G01X0148160Y-103718D02*
G01X0148194Y-103701D01*
G01X0148194Y-103701D02*
G01X0148211Y-103684D01*
G01X0148211Y-103684D02*
G01X0148228Y-103650D01*
G01X0148228Y-103650D02*
G01X0148228Y-103566D01*
G01X0148228Y-103566D02*
G01X0148211Y-103532D01*
G01X0148211Y-103532D02*
G01X0148194Y-103515D01*
G01X0148194Y-103515D02*
G01X0148160Y-103499D01*
G01X0148160Y-103499D02*
G01X0148093Y-103499D01*
G01X0148093Y-103499D02*
G01X0148059Y-103515D01*
G01X0148059Y-103515D02*
G01X0148042Y-103532D01*
G01X0148042Y-103532D02*
G01X0148025Y-103566D01*
G54D13*
G01X0145897Y-099075D02*
G01X0145897Y-098642D01*
G01X0145897Y-098642D02*
G01X0146041Y-098951D01*
G01X0146041Y-098951D02*
G01X0146185Y-098642D01*
G01X0146185Y-098642D02*
G01X0146185Y-099075D01*
G01X0146371Y-098951D02*
G01X0146577Y-098951D01*
G01X0146330Y-099075D02*
G01X0146474Y-098642D01*
G01X0146474Y-098642D02*
G01X0146619Y-099075D01*
G01X0146990Y-098662D02*
G01X0146949Y-098642D01*
G01X0146949Y-098642D02*
G01X0146887Y-098642D01*
G01X0146887Y-098642D02*
G01X0146825Y-098662D01*
G01X0146825Y-098662D02*
G01X0146784Y-098704D01*
G01X0146784Y-098704D02*
G01X0146763Y-098745D01*
G01X0146763Y-098745D02*
G01X0146742Y-098827D01*
G01X0146742Y-098827D02*
G01X0146742Y-098889D01*
G01X0146742Y-098889D02*
G01X0146763Y-098972D01*
G01X0146763Y-098972D02*
G01X0146784Y-099013D01*
G01X0146784Y-099013D02*
G01X0146825Y-099054D01*
G01X0146825Y-099054D02*
G01X0146887Y-099075D01*
G01X0146887Y-099075D02*
G01X0146928Y-099075D01*
G01X0146928Y-099075D02*
G01X0146990Y-099054D01*
G01X0146990Y-099054D02*
G01X0147010Y-099034D01*
G01X0147010Y-099034D02*
G01X0147010Y-098889D01*
G01X0147010Y-098889D02*
G01X0146928Y-098889D01*
G01X0147175Y-098683D02*
G01X0147196Y-098662D01*
G01X0147196Y-098662D02*
G01X0147237Y-098642D01*
G01X0147237Y-098642D02*
G01X0147340Y-098642D01*
G01X0147340Y-098642D02*
G01X0147382Y-098662D01*
G01X0147382Y-098662D02*
G01X0147402Y-098683D01*
G01X0147402Y-098683D02*
G01X0147423Y-098724D01*
G01X0147423Y-098724D02*
G01X0147423Y-098765D01*
G01X0147423Y-098765D02*
G01X0147402Y-098827D01*
G01X0147402Y-098827D02*
G01X0147155Y-099075D01*
G01X0147155Y-099075D02*
G01X0147423Y-099075D01*
G01X0130647Y-089148D02*
G01X0130709Y-089169D01*
G01X0130709Y-089169D02*
G01X0130729Y-089189D01*
G01X0130729Y-089189D02*
G01X0130750Y-089230D01*
G01X0130750Y-089230D02*
G01X0130750Y-089292D01*
G01X0130750Y-089292D02*
G01X0130729Y-089334D01*
G01X0130729Y-089334D02*
G01X0130709Y-089354D01*
G01X0130709Y-089354D02*
G01X0130667Y-089375D01*
G01X0130667Y-089375D02*
G01X0130502Y-089375D01*
G01X0130502Y-089375D02*
G01X0130502Y-088942D01*
G01X0130502Y-088942D02*
G01X0130647Y-088942D01*
G01X0130647Y-088942D02*
G01X0130688Y-088962D01*
G01X0130688Y-088962D02*
G01X0130709Y-088983D01*
G01X0130709Y-088983D02*
G01X0130729Y-089024D01*
G01X0130729Y-089024D02*
G01X0130729Y-089065D01*
G01X0130729Y-089065D02*
G01X0130709Y-089107D01*
G01X0130709Y-089107D02*
G01X0130688Y-089127D01*
G01X0130688Y-089127D02*
G01X0130647Y-089148D01*
G01X0130647Y-089148D02*
G01X0130502Y-089148D01*
G01X0130915Y-089251D02*
G01X0131121Y-089251D01*
G01X0130874Y-089375D02*
G01X0131018Y-088942D01*
G01X0131018Y-088942D02*
G01X0131162Y-089375D01*
G01X0131245Y-088942D02*
G01X0131492Y-088942D01*
G01X0131369Y-089375D02*
G01X0131369Y-088942D01*
G01X0131575Y-088942D02*
G01X0131822Y-088942D01*
G01X0131699Y-089375D02*
G01X0131699Y-088942D01*
G01X0131967Y-089210D02*
G01X0132297Y-089210D01*
G01X0129274Y-099375D02*
G01X0129274Y-098942D01*
G01X0129521Y-099375D02*
G01X0129335Y-099127D01*
G01X0129521Y-098942D02*
G01X0129274Y-099189D01*
G01X0129686Y-099354D02*
G01X0129748Y-099375D01*
G01X0129748Y-099375D02*
G01X0129851Y-099375D01*
G01X0129851Y-099375D02*
G01X0129892Y-099354D01*
G01X0129892Y-099354D02*
G01X0129913Y-099334D01*
G01X0129913Y-099334D02*
G01X0129934Y-099292D01*
G01X0129934Y-099292D02*
G01X0129934Y-099251D01*
G01X0129934Y-099251D02*
G01X0129913Y-099210D01*
G01X0129913Y-099210D02*
G01X0129892Y-099189D01*
G01X0129892Y-099189D02*
G01X0129851Y-099169D01*
G01X0129851Y-099169D02*
G01X0129769Y-099148D01*
G01X0129769Y-099148D02*
G01X0129727Y-099127D01*
G01X0129727Y-099127D02*
G01X0129707Y-099107D01*
G01X0129707Y-099107D02*
G01X0129686Y-099065D01*
G01X0129686Y-099065D02*
G01X0129686Y-099024D01*
G01X0129686Y-099024D02*
G01X0129707Y-098983D01*
G01X0129707Y-098983D02*
G01X0129727Y-098962D01*
G01X0129727Y-098962D02*
G01X0129769Y-098942D01*
G01X0129769Y-098942D02*
G01X0129872Y-098942D01*
G01X0129872Y-098942D02*
G01X0129934Y-098962D01*
G01X0130099Y-098983D02*
G01X0130119Y-098962D01*
G01X0130119Y-098962D02*
G01X0130160Y-098942D01*
G01X0130160Y-098942D02*
G01X0130264Y-098942D01*
G01X0130264Y-098942D02*
G01X0130305Y-098962D01*
G01X0130305Y-098962D02*
G01X0130325Y-098983D01*
G01X0130325Y-098983D02*
G01X0130346Y-099024D01*
G01X0130346Y-099024D02*
G01X0130346Y-099065D01*
G01X0130346Y-099065D02*
G01X0130325Y-099127D01*
G01X0130325Y-099127D02*
G01X0130078Y-099375D01*
G01X0130078Y-099375D02*
G01X0130346Y-099375D01*
G01X0129274Y-097075D02*
G01X0129274Y-096642D01*
G01X0129521Y-097075D02*
G01X0129335Y-096827D01*
G01X0129521Y-096642D02*
G01X0129274Y-096889D01*
G01X0129686Y-097054D02*
G01X0129748Y-097075D01*
G01X0129748Y-097075D02*
G01X0129851Y-097075D01*
G01X0129851Y-097075D02*
G01X0129892Y-097054D01*
G01X0129892Y-097054D02*
G01X0129913Y-097034D01*
G01X0129913Y-097034D02*
G01X0129934Y-096992D01*
G01X0129934Y-096992D02*
G01X0129934Y-096951D01*
G01X0129934Y-096951D02*
G01X0129913Y-096910D01*
G01X0129913Y-096910D02*
G01X0129892Y-096889D01*
G01X0129892Y-096889D02*
G01X0129851Y-096869D01*
G01X0129851Y-096869D02*
G01X0129769Y-096848D01*
G01X0129769Y-096848D02*
G01X0129727Y-096827D01*
G01X0129727Y-096827D02*
G01X0129707Y-096807D01*
G01X0129707Y-096807D02*
G01X0129686Y-096765D01*
G01X0129686Y-096765D02*
G01X0129686Y-096724D01*
G01X0129686Y-096724D02*
G01X0129707Y-096683D01*
G01X0129707Y-096683D02*
G01X0129727Y-096662D01*
G01X0129727Y-096662D02*
G01X0129769Y-096642D01*
G01X0129769Y-096642D02*
G01X0129872Y-096642D01*
G01X0129872Y-096642D02*
G01X0129934Y-096662D01*
G01X0130346Y-097075D02*
G01X0130099Y-097075D01*
G01X0130222Y-097075D02*
G01X0130222Y-096642D01*
G01X0130222Y-096642D02*
G01X0130181Y-096704D01*
G01X0130181Y-096704D02*
G01X0130140Y-096745D01*
G01X0130140Y-096745D02*
G01X0130099Y-096765D01*
G01X0147974Y-093675D02*
G01X0147974Y-093242D01*
G01X0147974Y-093448D02*
G01X0148221Y-093448D01*
G01X0148221Y-093675D02*
G01X0148221Y-093242D01*
G01X0148365Y-093242D02*
G01X0148510Y-093675D01*
G01X0148510Y-093675D02*
G01X0148654Y-093242D01*
G01X0148943Y-093448D02*
G01X0149005Y-093469D01*
G01X0149005Y-093469D02*
G01X0149025Y-093489D01*
G01X0149025Y-093489D02*
G01X0149046Y-093530D01*
G01X0149046Y-093530D02*
G01X0149046Y-093592D01*
G01X0149046Y-093592D02*
G01X0149025Y-093634D01*
G01X0149025Y-093634D02*
G01X0149005Y-093654D01*
G01X0149005Y-093654D02*
G01X0148964Y-093675D01*
G01X0148964Y-093675D02*
G01X0148799Y-093675D01*
G01X0148799Y-093675D02*
G01X0148799Y-093242D01*
G01X0148799Y-093242D02*
G01X0148943Y-093242D01*
G01X0148943Y-093242D02*
G01X0148984Y-093262D01*
G01X0148984Y-093262D02*
G01X0149005Y-093283D01*
G01X0149005Y-093283D02*
G01X0149025Y-093324D01*
G01X0149025Y-093324D02*
G01X0149025Y-093365D01*
G01X0149025Y-093365D02*
G01X0149005Y-093407D01*
G01X0149005Y-093407D02*
G01X0148984Y-093427D01*
G01X0148984Y-093427D02*
G01X0148943Y-093448D01*
G01X0148943Y-093448D02*
G01X0148799Y-093448D01*
G01X0146447Y-101875D02*
G01X0146447Y-101442D01*
G01X0146447Y-101442D02*
G01X0146591Y-101751D01*
G01X0146591Y-101751D02*
G01X0146735Y-101442D01*
G01X0146735Y-101442D02*
G01X0146735Y-101875D01*
G01X0146921Y-101751D02*
G01X0147127Y-101751D01*
G01X0146880Y-101875D02*
G01X0147024Y-101442D01*
G01X0147024Y-101442D02*
G01X0147169Y-101875D01*
G01X0147540Y-101462D02*
G01X0147499Y-101442D01*
G01X0147499Y-101442D02*
G01X0147437Y-101442D01*
G01X0147437Y-101442D02*
G01X0147375Y-101462D01*
G01X0147375Y-101462D02*
G01X0147334Y-101504D01*
G01X0147334Y-101504D02*
G01X0147313Y-101545D01*
G01X0147313Y-101545D02*
G01X0147292Y-101627D01*
G01X0147292Y-101627D02*
G01X0147292Y-101689D01*
G01X0147292Y-101689D02*
G01X0147313Y-101772D01*
G01X0147313Y-101772D02*
G01X0147334Y-101813D01*
G01X0147334Y-101813D02*
G01X0147375Y-101854D01*
G01X0147375Y-101854D02*
G01X0147437Y-101875D01*
G01X0147437Y-101875D02*
G01X0147478Y-101875D01*
G01X0147478Y-101875D02*
G01X0147540Y-101854D01*
G01X0147540Y-101854D02*
G01X0147560Y-101834D01*
G01X0147560Y-101834D02*
G01X0147560Y-101689D01*
G01X0147560Y-101689D02*
G01X0147478Y-101689D01*
G01X0147973Y-101875D02*
G01X0147725Y-101875D01*
G01X0147849Y-101875D02*
G01X0147849Y-101442D01*
G01X0147849Y-101442D02*
G01X0147808Y-101504D01*
G01X0147808Y-101504D02*
G01X0147767Y-101545D01*
G01X0147767Y-101545D02*
G01X0147725Y-101565D01*
G01X0145234Y-112939D02*
G01X0145254Y-112959D01*
G01X0145254Y-112959D02*
G01X0145275Y-113021D01*
G01X0145275Y-113021D02*
G01X0145275Y-113063D01*
G01X0145275Y-113063D02*
G01X0145254Y-113124D01*
G01X0145254Y-113124D02*
G01X0145213Y-113166D01*
G01X0145213Y-113166D02*
G01X0145172Y-113186D01*
G01X0145172Y-113186D02*
G01X0145089Y-113207D01*
G01X0145089Y-113207D02*
G01X0145027Y-113207D01*
G01X0145027Y-113207D02*
G01X0144945Y-113186D01*
G01X0144945Y-113186D02*
G01X0144904Y-113166D01*
G01X0144904Y-113166D02*
G01X0144862Y-113124D01*
G01X0144862Y-113124D02*
G01X0144842Y-113063D01*
G01X0144842Y-113063D02*
G01X0144842Y-113021D01*
G01X0144842Y-113021D02*
G01X0144862Y-112959D01*
G01X0144862Y-112959D02*
G01X0144883Y-112939D01*
G01X0144842Y-112671D02*
G01X0144842Y-112588D01*
G01X0144842Y-112588D02*
G01X0144862Y-112547D01*
G01X0144862Y-112547D02*
G01X0144904Y-112506D01*
G01X0144904Y-112506D02*
G01X0144986Y-112485D01*
G01X0144986Y-112485D02*
G01X0145130Y-112485D01*
G01X0145130Y-112485D02*
G01X0145213Y-112506D01*
G01X0145213Y-112506D02*
G01X0145254Y-112547D01*
G01X0145254Y-112547D02*
G01X0145275Y-112588D01*
G01X0145275Y-112588D02*
G01X0145275Y-112671D01*
G01X0145275Y-112671D02*
G01X0145254Y-112712D01*
G01X0145254Y-112712D02*
G01X0145213Y-112753D01*
G01X0145213Y-112753D02*
G01X0145130Y-112774D01*
G01X0145130Y-112774D02*
G01X0144986Y-112774D01*
G01X0144986Y-112774D02*
G01X0144904Y-112753D01*
G01X0144904Y-112753D02*
G01X0144862Y-112712D01*
G01X0144862Y-112712D02*
G01X0144842Y-112671D01*
G01X0145275Y-112300D02*
G01X0144842Y-112300D01*
G01X0145275Y-111887D02*
G01X0145275Y-112093D01*
G01X0145275Y-112093D02*
G01X0144842Y-112093D01*
G01X0145110Y-111743D02*
G01X0145110Y-111413D01*
G01X0146034Y-112939D02*
G01X0146054Y-112959D01*
G01X0146054Y-112959D02*
G01X0146075Y-113021D01*
G01X0146075Y-113021D02*
G01X0146075Y-113063D01*
G01X0146075Y-113063D02*
G01X0146054Y-113124D01*
G01X0146054Y-113124D02*
G01X0146013Y-113166D01*
G01X0146013Y-113166D02*
G01X0145972Y-113186D01*
G01X0145972Y-113186D02*
G01X0145889Y-113207D01*
G01X0145889Y-113207D02*
G01X0145827Y-113207D01*
G01X0145827Y-113207D02*
G01X0145745Y-113186D01*
G01X0145745Y-113186D02*
G01X0145704Y-113166D01*
G01X0145704Y-113166D02*
G01X0145662Y-113124D01*
G01X0145662Y-113124D02*
G01X0145642Y-113063D01*
G01X0145642Y-113063D02*
G01X0145642Y-113021D01*
G01X0145642Y-113021D02*
G01X0145662Y-112959D01*
G01X0145662Y-112959D02*
G01X0145683Y-112939D01*
G01X0145642Y-112671D02*
G01X0145642Y-112588D01*
G01X0145642Y-112588D02*
G01X0145662Y-112547D01*
G01X0145662Y-112547D02*
G01X0145704Y-112506D01*
G01X0145704Y-112506D02*
G01X0145786Y-112485D01*
G01X0145786Y-112485D02*
G01X0145930Y-112485D01*
G01X0145930Y-112485D02*
G01X0146013Y-112506D01*
G01X0146013Y-112506D02*
G01X0146054Y-112547D01*
G01X0146054Y-112547D02*
G01X0146075Y-112588D01*
G01X0146075Y-112588D02*
G01X0146075Y-112671D01*
G01X0146075Y-112671D02*
G01X0146054Y-112712D01*
G01X0146054Y-112712D02*
G01X0146013Y-112753D01*
G01X0146013Y-112753D02*
G01X0145930Y-112774D01*
G01X0145930Y-112774D02*
G01X0145786Y-112774D01*
G01X0145786Y-112774D02*
G01X0145704Y-112753D01*
G01X0145704Y-112753D02*
G01X0145662Y-112712D01*
G01X0145662Y-112712D02*
G01X0145642Y-112671D01*
G01X0146075Y-112300D02*
G01X0145642Y-112300D01*
G01X0146075Y-111887D02*
G01X0146075Y-112093D01*
G01X0146075Y-112093D02*
G01X0145642Y-112093D01*
G01X0145910Y-111743D02*
G01X0145910Y-111413D01*
G01X0146075Y-111578D02*
G01X0145745Y-111578D01*
G01X0118782Y-092292D02*
G01X0118927Y-092725D01*
G01X0118927Y-092725D02*
G01X0119071Y-092292D01*
G01X0119463Y-092725D02*
G01X0119319Y-092519D01*
G01X0119215Y-092725D02*
G01X0119215Y-092292D01*
G01X0119215Y-092292D02*
G01X0119380Y-092292D01*
G01X0119380Y-092292D02*
G01X0119422Y-092312D01*
G01X0119422Y-092312D02*
G01X0119442Y-092333D01*
G01X0119442Y-092333D02*
G01X0119463Y-092374D01*
G01X0119463Y-092374D02*
G01X0119463Y-092436D01*
G01X0119463Y-092436D02*
G01X0119442Y-092477D01*
G01X0119442Y-092477D02*
G01X0119422Y-092498D01*
G01X0119422Y-092498D02*
G01X0119380Y-092519D01*
G01X0119380Y-092519D02*
G01X0119215Y-092519D01*
G01X0119875Y-092725D02*
G01X0119628Y-092725D01*
G01X0119752Y-092725D02*
G01X0119752Y-092292D01*
G01X0119752Y-092292D02*
G01X0119710Y-092354D01*
G01X0119710Y-092354D02*
G01X0119669Y-092395D01*
G01X0119669Y-092395D02*
G01X0119628Y-092415D01*
G01X0120982Y-085842D02*
G01X0121127Y-086275D01*
G01X0121127Y-086275D02*
G01X0121271Y-085842D01*
G01X0121663Y-086275D02*
G01X0121519Y-086069D01*
G01X0121415Y-086275D02*
G01X0121415Y-085842D01*
G01X0121415Y-085842D02*
G01X0121580Y-085842D01*
G01X0121580Y-085842D02*
G01X0121622Y-085862D01*
G01X0121622Y-085862D02*
G01X0121642Y-085883D01*
G01X0121642Y-085883D02*
G01X0121663Y-085924D01*
G01X0121663Y-085924D02*
G01X0121663Y-085986D01*
G01X0121663Y-085986D02*
G01X0121642Y-086027D01*
G01X0121642Y-086027D02*
G01X0121622Y-086048D01*
G01X0121622Y-086048D02*
G01X0121580Y-086069D01*
G01X0121580Y-086069D02*
G01X0121415Y-086069D01*
G01X0121828Y-085883D02*
G01X0121849Y-085862D01*
G01X0121849Y-085862D02*
G01X0121890Y-085842D01*
G01X0121890Y-085842D02*
G01X0121993Y-085842D01*
G01X0121993Y-085842D02*
G01X0122034Y-085862D01*
G01X0122034Y-085862D02*
G01X0122055Y-085883D01*
G01X0122055Y-085883D02*
G01X0122075Y-085924D01*
G01X0122075Y-085924D02*
G01X0122075Y-085965D01*
G01X0122075Y-085965D02*
G01X0122055Y-086027D01*
G01X0122055Y-086027D02*
G01X0121807Y-086275D01*
G01X0121807Y-086275D02*
G01X0122075Y-086275D01*
G01X0130797Y-091948D02*
G01X0130859Y-091969D01*
G01X0130859Y-091969D02*
G01X0130879Y-091989D01*
G01X0130879Y-091989D02*
G01X0130900Y-092030D01*
G01X0130900Y-092030D02*
G01X0130900Y-092092D01*
G01X0130900Y-092092D02*
G01X0130879Y-092134D01*
G01X0130879Y-092134D02*
G01X0130859Y-092154D01*
G01X0130859Y-092154D02*
G01X0130817Y-092175D01*
G01X0130817Y-092175D02*
G01X0130652Y-092175D01*
G01X0130652Y-092175D02*
G01X0130652Y-091742D01*
G01X0130652Y-091742D02*
G01X0130797Y-091742D01*
G01X0130797Y-091742D02*
G01X0130838Y-091762D01*
G01X0130838Y-091762D02*
G01X0130859Y-091783D01*
G01X0130859Y-091783D02*
G01X0130879Y-091824D01*
G01X0130879Y-091824D02*
G01X0130879Y-091865D01*
G01X0130879Y-091865D02*
G01X0130859Y-091907D01*
G01X0130859Y-091907D02*
G01X0130838Y-091927D01*
G01X0130838Y-091927D02*
G01X0130797Y-091948D01*
G01X0130797Y-091948D02*
G01X0130652Y-091948D01*
G01X0131065Y-092051D02*
G01X0131271Y-092051D01*
G01X0131024Y-092175D02*
G01X0131168Y-091742D01*
G01X0131168Y-091742D02*
G01X0131312Y-092175D01*
G01X0131395Y-091742D02*
G01X0131642Y-091742D01*
G01X0131519Y-092175D02*
G01X0131519Y-091742D01*
G01X0131725Y-091742D02*
G01X0131972Y-091742D01*
G01X0131849Y-092175D02*
G01X0131849Y-091742D01*
G01X0132117Y-092010D02*
G01X0132447Y-092010D01*
G01X0132282Y-092175D02*
G01X0132282Y-091845D01*
G54D14*
G01X0146646Y-110284D02*
G01X0146622Y-110308D01*
G01X0146622Y-110308D02*
G01X0146551Y-110332D01*
G01X0146551Y-110332D02*
G01X0146503Y-110332D01*
G01X0146503Y-110332D02*
G01X0146432Y-110308D01*
G01X0146432Y-110308D02*
G01X0146384Y-110260D01*
G01X0146384Y-110260D02*
G01X0146360Y-110213D01*
G01X0146360Y-110213D02*
G01X0146337Y-110118D01*
G01X0146337Y-110118D02*
G01X0146337Y-110046D01*
G01X0146337Y-110046D02*
G01X0146360Y-109951D01*
G01X0146360Y-109951D02*
G01X0146384Y-109903D01*
G01X0146384Y-109903D02*
G01X0146432Y-109856D01*
G01X0146432Y-109856D02*
G01X0146503Y-109832D01*
G01X0146503Y-109832D02*
G01X0146551Y-109832D01*
G01X0146551Y-109832D02*
G01X0146622Y-109856D01*
G01X0146622Y-109856D02*
G01X0146646Y-109880D01*
G01X0147075Y-109999D02*
G01X0147075Y-110332D01*
G01X0146956Y-109808D02*
G01X0146837Y-110165D01*
G01X0146837Y-110165D02*
G01X0147146Y-110165D01*
G01X0146656Y-106454D02*
G01X0146632Y-106478D01*
G01X0146632Y-106478D02*
G01X0146561Y-106502D01*
G01X0146561Y-106502D02*
G01X0146513Y-106502D01*
G01X0146513Y-106502D02*
G01X0146442Y-106478D01*
G01X0146442Y-106478D02*
G01X0146394Y-106430D01*
G01X0146394Y-106430D02*
G01X0146370Y-106383D01*
G01X0146370Y-106383D02*
G01X0146347Y-106288D01*
G01X0146347Y-106288D02*
G01X0146347Y-106216D01*
G01X0146347Y-106216D02*
G01X0146370Y-106121D01*
G01X0146370Y-106121D02*
G01X0146394Y-106073D01*
G01X0146394Y-106073D02*
G01X0146442Y-106026D01*
G01X0146442Y-106026D02*
G01X0146513Y-106002D01*
G01X0146513Y-106002D02*
G01X0146561Y-106002D01*
G01X0146561Y-106002D02*
G01X0146632Y-106026D01*
G01X0146632Y-106026D02*
G01X0146656Y-106050D01*
G01X0147109Y-106002D02*
G01X0146870Y-106002D01*
G01X0146870Y-106002D02*
G01X0146847Y-106240D01*
G01X0146847Y-106240D02*
G01X0146870Y-106216D01*
G01X0146870Y-106216D02*
G01X0146918Y-106192D01*
G01X0146918Y-106192D02*
G01X0147037Y-106192D01*
G01X0147037Y-106192D02*
G01X0147085Y-106216D01*
G01X0147085Y-106216D02*
G01X0147109Y-106240D01*
G01X0147109Y-106240D02*
G01X0147132Y-106288D01*
G01X0147132Y-106288D02*
G01X0147132Y-106407D01*
G01X0147132Y-106407D02*
G01X0147109Y-106454D01*
G01X0147109Y-106454D02*
G01X0147085Y-106478D01*
G01X0147085Y-106478D02*
G01X0147037Y-106502D01*
G01X0147037Y-106502D02*
G01X0146918Y-106502D01*
G01X0146918Y-106502D02*
G01X0146870Y-106478D01*
G01X0146870Y-106478D02*
G01X0146847Y-106454D01*
G01X0144930Y-090002D02*
G01X0144930Y-089502D01*
G01X0144930Y-089502D02*
G01X0145050Y-089502D01*
G01X0145050Y-089502D02*
G01X0145121Y-089526D01*
G01X0145121Y-089526D02*
G01X0145169Y-089573D01*
G01X0145169Y-089573D02*
G01X0145192Y-089621D01*
G01X0145192Y-089621D02*
G01X0145216Y-089716D01*
G01X0145216Y-089716D02*
G01X0145216Y-089788D01*
G01X0145216Y-089788D02*
G01X0145192Y-089883D01*
G01X0145192Y-089883D02*
G01X0145169Y-089930D01*
G01X0145169Y-089930D02*
G01X0145121Y-089978D01*
G01X0145121Y-089978D02*
G01X0145050Y-090002D01*
G01X0145050Y-090002D02*
G01X0144930Y-090002D01*
G01X0145669Y-089502D02*
G01X0145430Y-089502D01*
G01X0145430Y-089502D02*
G01X0145407Y-089740D01*
G01X0145407Y-089740D02*
G01X0145430Y-089716D01*
G01X0145430Y-089716D02*
G01X0145478Y-089692D01*
G01X0145478Y-089692D02*
G01X0145597Y-089692D01*
G01X0145597Y-089692D02*
G01X0145645Y-089716D01*
G01X0145645Y-089716D02*
G01X0145669Y-089740D01*
G01X0145669Y-089740D02*
G01X0145692Y-089788D01*
G01X0145692Y-089788D02*
G01X0145692Y-089907D01*
G01X0145692Y-089907D02*
G01X0145669Y-089954D01*
G01X0145669Y-089954D02*
G01X0145645Y-089978D01*
G01X0145645Y-089978D02*
G01X0145597Y-090002D01*
G01X0145597Y-090002D02*
G01X0145478Y-090002D01*
G01X0145478Y-090002D02*
G01X0145430Y-089978D01*
G01X0145430Y-089978D02*
G01X0145407Y-089954D01*
G54D15*
G01X0127120Y-110149D02*
G01X0127439Y-110149D01*
G01X0127439Y-110149D02*
G01X0127476Y-110131D01*
G01X0127476Y-110131D02*
G01X0127495Y-110112D01*
G01X0127495Y-110112D02*
G01X0127514Y-110074D01*
G01X0127514Y-110074D02*
G01X0127514Y-109999D01*
G01X0127514Y-109999D02*
G01X0127495Y-109962D01*
G01X0127495Y-109962D02*
G01X0127476Y-109943D01*
G01X0127476Y-109943D02*
G01X0127439Y-109924D01*
G01X0127439Y-109924D02*
G01X0127120Y-109924D01*
G01X0127120Y-109550D02*
G01X0127120Y-109737D01*
G01X0127120Y-109737D02*
G01X0127308Y-109756D01*
G01X0127308Y-109756D02*
G01X0127289Y-109737D01*
G01X0127289Y-109737D02*
G01X0127270Y-109700D01*
G01X0127270Y-109700D02*
G01X0127270Y-109606D01*
G01X0127270Y-109606D02*
G01X0127289Y-109568D01*
G01X0127289Y-109568D02*
G01X0127308Y-109550D01*
G01X0127308Y-109550D02*
G01X0127345Y-109531D01*
G01X0127345Y-109531D02*
G01X0127439Y-109531D01*
G01X0127439Y-109531D02*
G01X0127476Y-109550D01*
G01X0127476Y-109550D02*
G01X0127495Y-109568D01*
G01X0127495Y-109568D02*
G01X0127514Y-109606D01*
G01X0127514Y-109606D02*
G01X0127514Y-109700D01*
G01X0127514Y-109700D02*
G01X0127495Y-109737D01*
G01X0127495Y-109737D02*
G01X0127476Y-109756D01*
G54D14*
G01X0138542Y-097970D02*
G01X0138947Y-097970D01*
G01X0138947Y-097970D02*
G01X0138994Y-097947D01*
G01X0138994Y-097947D02*
G01X0139018Y-097923D01*
G01X0139018Y-097923D02*
G01X0139042Y-097875D01*
G01X0139042Y-097875D02*
G01X0139042Y-097780D01*
G01X0139042Y-097780D02*
G01X0139018Y-097732D01*
G01X0139018Y-097732D02*
G01X0138994Y-097709D01*
G01X0138994Y-097709D02*
G01X0138947Y-097685D01*
G01X0138947Y-097685D02*
G01X0138542Y-097685D01*
G01X0138542Y-097494D02*
G01X0138542Y-097185D01*
G01X0138542Y-097185D02*
G01X0138732Y-097351D01*
G01X0138732Y-097351D02*
G01X0138732Y-097280D01*
G01X0138732Y-097280D02*
G01X0138756Y-097232D01*
G01X0138756Y-097232D02*
G01X0138780Y-097209D01*
G01X0138780Y-097209D02*
G01X0138828Y-097185D01*
G01X0138828Y-097185D02*
G01X0138947Y-097185D01*
G01X0138947Y-097185D02*
G01X0138994Y-097209D01*
G01X0138994Y-097209D02*
G01X0139018Y-097232D01*
G01X0139018Y-097232D02*
G01X0139042Y-097280D01*
G01X0139042Y-097280D02*
G01X0139042Y-097423D01*
G01X0139042Y-097423D02*
G01X0139018Y-097470D01*
G01X0139018Y-097470D02*
G01X0138994Y-097494D01*
G54D16*
G01X0126100Y-104350D02*
G01X0129000Y-104350D01*
G01X0129000Y-104350D02*
G01X0129000Y-104750D01*
G01X0129000Y-104750D02*
G01X0129000Y-106000D01*
G01X0129000Y-106000D02*
G01X0129000Y-106150D01*
G01X0129000Y-106150D02*
G01X0126200Y-106150D01*
G01X0125550Y-106150D02*
G01X0126200Y-106150D01*
G54D17*
G01X0126100Y-106150D02*
G01X0119200Y-106150D01*
G01X0119200Y-104350D02*
G01X0126100Y-104350D01*
G54D18*
G01X0119200Y-106150D02*
G01X0119200Y-104350D01*
G01X0138140Y-106480D02*
G01X0138540Y-106480D01*
G01X0138540Y-106480D02*
G01X0138540Y-106080D01*
G01X0138540Y-106080D02*
G01X0141740Y-106080D01*
G01X0141740Y-106080D02*
G01X0141740Y-106880D01*
G01X0141740Y-106880D02*
G01X0138540Y-106880D01*
G01X0138540Y-106880D02*
G01X0138540Y-106480D01*
G01X0138540Y-106280D02*
G01X0138740Y-106080D01*
G01X0142140Y-106480D02*
G01X0141740Y-106480D01*
G01X0130550Y-106750D02*
G01X0130550Y-107150D01*
G01X0130550Y-107150D02*
G01X0130950Y-107150D01*
G01X0130950Y-107150D02*
G01X0130950Y-110350D01*
G01X0130950Y-110350D02*
G01X0130150Y-110350D01*
G01X0130150Y-110350D02*
G01X0130150Y-107150D01*
G01X0130150Y-107150D02*
G01X0130550Y-107150D01*
G01X0130750Y-107150D02*
G01X0130950Y-107350D01*
G01X0130550Y-110750D02*
G01X0130550Y-110350D01*
G01X0136100Y-110970D02*
G01X0136100Y-110570D01*
G01X0136100Y-110570D02*
G01X0135700Y-110570D01*
G01X0135700Y-110570D02*
G01X0135700Y-107370D01*
G01X0135700Y-107370D02*
G01X0136500Y-107370D01*
G01X0136500Y-107370D02*
G01X0136500Y-110570D01*
G01X0136500Y-110570D02*
G01X0136100Y-110570D01*
G01X0135900Y-110570D02*
G01X0135700Y-110370D01*
G01X0136100Y-106970D02*
G01X0136100Y-107370D01*
G01X0137040Y-106975D02*
G01X0137040Y-107375D01*
G01X0137040Y-107375D02*
G01X0137440Y-107375D01*
G01X0137440Y-107375D02*
G01X0137440Y-110575D01*
G01X0137440Y-110575D02*
G01X0136640Y-110575D01*
G01X0136640Y-110575D02*
G01X0136640Y-107375D01*
G01X0136640Y-107375D02*
G01X0137040Y-107375D01*
G01X0137240Y-107375D02*
G01X0137440Y-107575D01*
G01X0137040Y-110975D02*
G01X0137040Y-110575D01*
G01X0138020Y-110960D02*
G01X0138420Y-110960D01*
G01X0138420Y-110960D02*
G01X0138420Y-110560D01*
G01X0138420Y-110560D02*
G01X0141620Y-110560D01*
G01X0141620Y-110560D02*
G01X0141620Y-111360D01*
G01X0141620Y-111360D02*
G01X0138420Y-111360D01*
G01X0138420Y-111360D02*
G01X0138420Y-110960D01*
G01X0138420Y-110760D02*
G01X0138620Y-110560D01*
G01X0142020Y-110960D02*
G01X0141620Y-110960D01*
G01X0142120Y-105320D02*
G01X0141720Y-105320D01*
G01X0141720Y-105320D02*
G01X0141720Y-105720D01*
G01X0141720Y-105720D02*
G01X0138520Y-105720D01*
G01X0138520Y-105720D02*
G01X0138520Y-104920D01*
G01X0138520Y-104920D02*
G01X0141720Y-104920D01*
G01X0141720Y-104920D02*
G01X0141720Y-105320D01*
G01X0141720Y-105520D02*
G01X0141520Y-105720D01*
G01X0138120Y-105320D02*
G01X0138520Y-105320D01*
G54D19*
G01X0118750Y-110750D02*
G01X0118750Y-110800D01*
G01X0118750Y-110800D02*
G01X0120850Y-110800D01*
G01X0120850Y-109300D02*
G01X0118750Y-109300D01*
G01X0118750Y-109300D02*
G01X0118750Y-110750D01*
G01X0118750Y-109850D02*
G01X0118950Y-109850D01*
G01X0118950Y-109850D02*
G01X0118950Y-110250D01*
G01X0118950Y-110250D02*
G01X0118750Y-110250D01*
G01X0120850Y-109300D02*
G01X0120850Y-110800D01*
G54D20*
G01X0134150Y-106950D02*
G01X0134150Y-110450D01*
G01X0134150Y-110450D02*
G01X0132150Y-110450D01*
G01X0132150Y-110450D02*
G01X0132150Y-106950D01*
G01X0132150Y-106950D02*
G01X0134150Y-106950D01*
G01X0133400Y-106950D02*
G01X0133400Y-107450D01*
G01X0133400Y-107450D02*
G01X0132900Y-107450D01*
G01X0132900Y-107450D02*
G01X0132900Y-106950D01*
G54D18*
G01X0139520Y-104030D02*
G01X0137520Y-104030D01*
G01X0139520Y-103030D02*
G01X0137520Y-103030D01*
G01X0139520Y-102030D02*
G01X0137520Y-102030D01*
G01X0137520Y-101030D02*
G01X0131520Y-101030D01*
G01X0131520Y-101030D02*
G01X0131520Y-105030D01*
G01X0131520Y-105030D02*
G01X0137520Y-105030D01*
G01X0137520Y-105030D02*
G01X0137520Y-101030D01*
G01X0134520Y-101530D02*
G01X0134520Y-105030D01*
G01X0134520Y-101530D02*
G01X0134520Y-101030D01*
G01X0142280Y-109180D02*
G01X0139480Y-109180D01*
G01X0139480Y-109180D02*
G01X0139480Y-108380D01*
G01X0139480Y-108380D02*
G01X0142280Y-108380D01*
G01X0142280Y-108380D02*
G01X0142280Y-109180D01*
G01X0142280Y-108980D02*
G01X0142080Y-109180D01*
G01X0142280Y-110140D02*
G01X0139480Y-110140D01*
G01X0139480Y-110140D02*
G01X0139480Y-109340D01*
G01X0139480Y-109340D02*
G01X0142280Y-109340D01*
G01X0142280Y-109340D02*
G01X0142280Y-110140D01*
G01X0142280Y-109940D02*
G01X0142080Y-110140D01*
G01X0142280Y-108040D02*
G01X0139480Y-108040D01*
G01X0139480Y-108040D02*
G01X0139480Y-107240D01*
G01X0139480Y-107240D02*
G01X0142280Y-107240D01*
G01X0142280Y-107240D02*
G01X0142280Y-108040D01*
G01X0142280Y-107840D02*
G01X0142080Y-108040D01*
G54D21*
G01X0127790Y-112570D02*
G75*
G03X0127790Y-112570I-000070J0000000D01*
G54D19*
G01X0127820Y-111620D02*
G01X0127720Y-111620D01*
G01X0127720Y-111620D02*
G01X0127720Y-112520D01*
G01X0127720Y-112520D02*
G01X0127820Y-112520D01*
G01X0127820Y-111620D02*
G01X0127820Y-112520D01*
G01X0127820Y-112520D02*
G01X0128470Y-112520D01*
G01X0129170Y-111620D02*
G01X0129820Y-111620D01*
G01X0129820Y-111620D02*
G01X0129820Y-112520D01*
G01X0129820Y-112520D02*
G01X0129170Y-112520D01*
G01X0128470Y-111620D02*
G01X0127820Y-111620D01*
G54D21*
G01X0127820Y-110500D02*
G75*
G03X0127820Y-110500I-000070J0000000D01*
G54D19*
G01X0127850Y-109550D02*
G01X0127750Y-109550D01*
G01X0127750Y-109550D02*
G01X0127750Y-110450D01*
G01X0127750Y-110450D02*
G01X0127850Y-110450D01*
G01X0127850Y-109550D02*
G01X0127850Y-110450D01*
G01X0127850Y-110450D02*
G01X0128500Y-110450D01*
G01X0129200Y-109550D02*
G01X0129850Y-109550D01*
G01X0129850Y-109550D02*
G01X0129850Y-110450D01*
G01X0129850Y-110450D02*
G01X0129200Y-110450D01*
G01X0128500Y-109550D02*
G01X0127850Y-109550D01*
G54D22*
G01X0125100Y-111124D02*
G01X0125179Y-111124D01*
G01X0125179Y-111124D02*
G01X0125179Y-110731D01*
G01X0125100Y-110731D02*
G01X0125179Y-110731D01*
G01X0125100Y-111124D02*
G01X0125100Y-110731D01*
G01X0125356Y-111124D02*
G01X0125435Y-111124D01*
G01X0125435Y-111124D02*
G01X0125435Y-110731D01*
G01X0125356Y-110731D02*
G01X0125435Y-110731D01*
G01X0125356Y-111124D02*
G01X0125356Y-110731D01*
G01X0125612Y-111124D02*
G01X0125691Y-111124D01*
G01X0125691Y-111124D02*
G01X0125691Y-110731D01*
G01X0125612Y-110731D02*
G01X0125691Y-110731D01*
G01X0125612Y-111124D02*
G01X0125612Y-110731D01*
G01X0125868Y-111124D02*
G01X0125947Y-111124D01*
G01X0125947Y-111124D02*
G01X0125947Y-110731D01*
G01X0125868Y-110731D02*
G01X0125947Y-110731D01*
G01X0125868Y-111124D02*
G01X0125868Y-110731D01*
G01X0126123Y-111124D02*
G01X0126202Y-111124D01*
G01X0126202Y-111124D02*
G01X0126202Y-110731D01*
G01X0126123Y-110731D02*
G01X0126202Y-110731D01*
G01X0126123Y-111124D02*
G01X0126123Y-110731D01*
G01X0126379Y-111124D02*
G01X0126458Y-111124D01*
G01X0126458Y-111124D02*
G01X0126458Y-110731D01*
G01X0126379Y-110731D02*
G01X0126458Y-110731D01*
G01X0126379Y-111124D02*
G01X0126379Y-110731D01*
G01X0126635Y-111124D02*
G01X0126714Y-111124D01*
G01X0126714Y-111124D02*
G01X0126714Y-110731D01*
G01X0126635Y-110731D02*
G01X0126714Y-110731D01*
G01X0126635Y-111124D02*
G01X0126635Y-110731D01*
G01X0126891Y-111124D02*
G01X0126970Y-111124D01*
G01X0126970Y-111124D02*
G01X0126970Y-110731D01*
G01X0126891Y-110731D02*
G01X0126970Y-110731D01*
G01X0126891Y-111124D02*
G01X0126891Y-110731D01*
G01X0126891Y-108999D02*
G01X0126970Y-108999D01*
G01X0126970Y-108999D02*
G01X0126970Y-108606D01*
G01X0126891Y-108606D02*
G01X0126970Y-108606D01*
G01X0126891Y-108999D02*
G01X0126891Y-108606D01*
G01X0126635Y-108999D02*
G01X0126714Y-108999D01*
G01X0126714Y-108999D02*
G01X0126714Y-108606D01*
G01X0126635Y-108606D02*
G01X0126714Y-108606D01*
G01X0126635Y-108999D02*
G01X0126635Y-108606D01*
G01X0126379Y-108999D02*
G01X0126458Y-108999D01*
G01X0126458Y-108999D02*
G01X0126458Y-108606D01*
G01X0126379Y-108606D02*
G01X0126458Y-108606D01*
G01X0126379Y-108999D02*
G01X0126379Y-108606D01*
G01X0126123Y-108999D02*
G01X0126202Y-108999D01*
G01X0126202Y-108999D02*
G01X0126202Y-108606D01*
G01X0126123Y-108606D02*
G01X0126202Y-108606D01*
G01X0126123Y-108999D02*
G01X0126123Y-108606D01*
G01X0125868Y-108999D02*
G01X0125947Y-108999D01*
G01X0125947Y-108999D02*
G01X0125947Y-108606D01*
G01X0125868Y-108606D02*
G01X0125947Y-108606D01*
G01X0125868Y-108999D02*
G01X0125868Y-108606D01*
G01X0125612Y-108999D02*
G01X0125691Y-108999D01*
G01X0125691Y-108999D02*
G01X0125691Y-108606D01*
G01X0125612Y-108606D02*
G01X0125691Y-108606D01*
G01X0125612Y-108999D02*
G01X0125612Y-108606D01*
G01X0125356Y-108999D02*
G01X0125435Y-108999D01*
G01X0125435Y-108999D02*
G01X0125435Y-108606D01*
G01X0125356Y-108606D02*
G01X0125435Y-108606D01*
G01X0125356Y-108999D02*
G01X0125356Y-108606D01*
G01X0125100Y-108999D02*
G01X0125179Y-108999D01*
G01X0125179Y-108999D02*
G01X0125179Y-108606D01*
G01X0125100Y-108606D02*
G01X0125179Y-108606D01*
G01X0125100Y-108999D02*
G01X0125100Y-108606D01*
G54D23*
G01X0125045Y-110625D02*
G01X0125045Y-109105D01*
G01X0125124Y-109026D02*
G01X0126946Y-109026D01*
G01X0127025Y-109105D02*
G01X0127025Y-110625D01*
G01X0126946Y-110704D02*
G01X0125124Y-110704D01*
G54D24*
G01X0125522Y-110345D02*
G75*
G03X0125522Y-110345I-000127J0000000D01*
G54D23*
G01X0125045Y-110625D02*
G75*
G03X0125124Y-110704I0000079J0000000D01*
G01X0125124Y-109026D02*
G75*
G03X0125045Y-109105I0000000J-000079D01*
G01X0127025Y-109105D02*
G75*
G03X0126946Y-109026I-000079J0000000D01*
G01X0126946Y-110704D02*
G75*
G03X0127025Y-110625I0000000J0000079D01*
G54D25*
G01X0127076Y-112662D02*
G01X0125524Y-112662D01*
G01X0125524Y-112662D02*
G01X0125524Y-111888D01*
G01X0125524Y-111888D02*
G01X0127076Y-111888D01*
G01X0127076Y-111888D02*
G01X0127076Y-112662D01*
G01X0128274Y-108563D02*
G01X0129826Y-108563D01*
G01X0129826Y-108563D02*
G01X0129826Y-109337D01*
G01X0129826Y-109337D02*
G01X0128274Y-109337D01*
G01X0128274Y-109337D02*
G01X0128274Y-108563D01*
G01X0124737Y-109999D02*
G01X0124737Y-111551D01*
G01X0124737Y-111551D02*
G01X0123963Y-111551D01*
G01X0123963Y-111551D02*
G01X0123963Y-109999D01*
G01X0123963Y-109999D02*
G01X0124737Y-109999D01*
G01X0127313Y-108126D02*
G01X0127313Y-106574D01*
G01X0127313Y-106574D02*
G01X0128087Y-106574D01*
G01X0128087Y-106574D02*
G01X0128087Y-108126D01*
G01X0128087Y-108126D02*
G01X0127313Y-108126D01*
G01X0126513Y-107876D02*
G01X0126513Y-106324D01*
G01X0126513Y-106324D02*
G01X0127287Y-106324D01*
G01X0127287Y-106324D02*
G01X0127287Y-107876D01*
G01X0127287Y-107876D02*
G01X0126513Y-107876D01*
G54D26*
G01X0126211Y-095600D02*
G75*
G03X0126211Y-095600I-000111J0000000D01*
G01X0126850Y-095400D02*
G01X0126850Y-095600D01*
G01X0126850Y-095600D02*
G01X0126350Y-095600D01*
G01X0126350Y-095600D02*
G01X0126350Y-095400D01*
G01X0127500Y-098000D02*
G01X0127500Y-098100D01*
G01X0127500Y-098100D02*
G01X0125700Y-098100D01*
G01X0125700Y-098100D02*
G01X0125700Y-098000D01*
G01X0127500Y-095500D02*
G01X0127500Y-095400D01*
G01X0127500Y-095400D02*
G01X0125700Y-095400D01*
G01X0125700Y-095400D02*
G01X0125700Y-095500D01*
G54D21*
G01X0120270Y-094600D02*
G75*
G03X0120270Y-094600I-000070J0000000D01*
G54D19*
G01X0120300Y-093650D02*
G01X0120200Y-093650D01*
G01X0120200Y-093650D02*
G01X0120200Y-094550D01*
G01X0120200Y-094550D02*
G01X0120300Y-094550D01*
G01X0120300Y-093650D02*
G01X0120300Y-094550D01*
G01X0120300Y-094550D02*
G01X0120950Y-094550D01*
G01X0121650Y-093650D02*
G01X0122300Y-093650D01*
G01X0122300Y-093650D02*
G01X0122300Y-094550D01*
G01X0122300Y-094550D02*
G01X0121650Y-094550D01*
G01X0120950Y-093650D02*
G01X0120300Y-093650D01*
G54D21*
G01X0122470Y-092600D02*
G75*
G03X0122470Y-092600I-000070J0000000D01*
G54D19*
G01X0123350Y-092700D02*
G01X0123350Y-092600D01*
G01X0123350Y-092600D02*
G01X0122450Y-092600D01*
G01X0122450Y-092600D02*
G01X0122450Y-092700D01*
G01X0123350Y-092700D02*
G01X0122450Y-092700D01*
G01X0122450Y-092700D02*
G01X0122450Y-093350D01*
G01X0123350Y-094050D02*
G01X0123350Y-094700D01*
G01X0123350Y-094700D02*
G01X0122450Y-094700D01*
G01X0122450Y-094700D02*
G01X0122450Y-094050D01*
G01X0123350Y-093350D02*
G01X0123350Y-092700D01*
G54D21*
G01X0122470Y-089950D02*
G75*
G03X0122470Y-089950I-000070J0000000D01*
G54D19*
G01X0123350Y-090050D02*
G01X0123350Y-089950D01*
G01X0123350Y-089950D02*
G01X0122450Y-089950D01*
G01X0122450Y-089950D02*
G01X0122450Y-090050D01*
G01X0123350Y-090050D02*
G01X0122450Y-090050D01*
G01X0122450Y-090050D02*
G01X0122450Y-090700D01*
G01X0123350Y-091400D02*
G01X0123350Y-092050D01*
G01X0123350Y-092050D02*
G01X0122450Y-092050D01*
G01X0122450Y-092050D02*
G01X0122450Y-091400D01*
G01X0123350Y-090700D02*
G01X0123350Y-090050D01*
G54D21*
G01X0120270Y-093300D02*
G75*
G03X0120270Y-093300I-000070J0000000D01*
G54D19*
G01X0120300Y-092350D02*
G01X0120200Y-092350D01*
G01X0120200Y-092350D02*
G01X0120200Y-093250D01*
G01X0120200Y-093250D02*
G01X0120300Y-093250D01*
G01X0120300Y-092350D02*
G01X0120300Y-093250D01*
G01X0120300Y-093250D02*
G01X0120950Y-093250D01*
G01X0121650Y-092350D02*
G01X0122300Y-092350D01*
G01X0122300Y-092350D02*
G01X0122300Y-093250D01*
G01X0122300Y-093250D02*
G01X0121650Y-093250D01*
G01X0120950Y-092350D02*
G01X0120300Y-092350D01*
G54D21*
G01X0121220Y-089950D02*
G75*
G03X0121220Y-089950I-000070J0000000D01*
G54D19*
G01X0122100Y-090050D02*
G01X0122100Y-089950D01*
G01X0122100Y-089950D02*
G01X0121200Y-089950D01*
G01X0121200Y-089950D02*
G01X0121200Y-090050D01*
G01X0122100Y-090050D02*
G01X0121200Y-090050D01*
G01X0121200Y-090050D02*
G01X0121200Y-090700D01*
G01X0122100Y-091400D02*
G01X0122100Y-092050D01*
G01X0122100Y-092050D02*
G01X0121200Y-092050D01*
G01X0121200Y-092050D02*
G01X0121200Y-091400D01*
G01X0122100Y-090700D02*
G01X0122100Y-090050D01*
G54D27*
G01X0125905Y-091406D02*
G75*
G03X0125905Y-091406I-000050J0000000D01*
G01X0125855Y-090956D02*
G01X0125855Y-091356D01*
G01X0125855Y-091356D02*
G01X0125255Y-091356D01*
G01X0125255Y-091356D02*
G01X0125255Y-090956D01*
G01X0125255Y-090556D02*
G01X0125255Y-090156D01*
G01X0125255Y-090156D02*
G01X0125855Y-090156D01*
G01X0125855Y-090156D02*
G01X0125855Y-090556D01*
G01X0128015Y-092476D02*
G75*
G03X0128015Y-092476I-000050J0000000D01*
G01X0127965Y-092026D02*
G01X0127965Y-092426D01*
G01X0127965Y-092426D02*
G01X0127365Y-092426D01*
G01X0127365Y-092426D02*
G01X0127365Y-092026D01*
G01X0127365Y-091626D02*
G01X0127365Y-091226D01*
G01X0127365Y-091226D02*
G01X0127965Y-091226D01*
G01X0127965Y-091226D02*
G01X0127965Y-091626D01*
G01X0123580Y-090721D02*
G75*
G03X0123580Y-090721I-000050J0000000D01*
G01X0123530Y-091171D02*
G01X0123530Y-090771D01*
G01X0123530Y-090771D02*
G01X0124130Y-090771D01*
G01X0124130Y-090771D02*
G01X0124130Y-091171D01*
G01X0124130Y-091571D02*
G01X0124130Y-091971D01*
G01X0124130Y-091971D02*
G01X0123530Y-091971D01*
G01X0123530Y-091971D02*
G01X0123530Y-091571D01*
G01X0126260Y-090121D02*
G75*
G03X0126260Y-090121I-000050J0000000D01*
G01X0126210Y-090571D02*
G01X0126210Y-090171D01*
G01X0126210Y-090171D02*
G01X0126810Y-090171D01*
G01X0126810Y-090171D02*
G01X0126810Y-090571D01*
G01X0126810Y-090971D02*
G01X0126810Y-091371D01*
G01X0126810Y-091371D02*
G01X0126210Y-091371D01*
G01X0126210Y-091371D02*
G01X0126210Y-090971D01*
G01X0123550Y-092950D02*
G75*
G03X0123550Y-092950I-000050J0000000D01*
G01X0123500Y-093400D02*
G01X0123500Y-093000D01*
G01X0123500Y-093000D02*
G01X0124100Y-093000D01*
G01X0124100Y-093000D02*
G01X0124100Y-093400D01*
G01X0124100Y-093800D02*
G01X0124100Y-094200D01*
G01X0124100Y-094200D02*
G01X0123500Y-094200D01*
G01X0123500Y-094200D02*
G01X0123500Y-093800D01*
G01X0128020Y-093911D02*
G75*
G03X0128020Y-093911I-000050J0000000D01*
G01X0127970Y-093461D02*
G01X0127970Y-093861D01*
G01X0127970Y-093861D02*
G01X0127370Y-093861D01*
G01X0127370Y-093861D02*
G01X0127370Y-093461D01*
G01X0127370Y-093061D02*
G01X0127370Y-092661D01*
G01X0127370Y-092661D02*
G01X0127970Y-092661D01*
G01X0127970Y-092661D02*
G01X0127970Y-093061D01*
G54D28*
G01X0139684Y-108660D02*
G75*
G03X0139684Y-108660I-000984J0000000D01*
G54D22*
G01X0126975Y-093570D02*
G01X0126975Y-093451D01*
G01X0126975Y-093451D02*
G01X0126463Y-093451D01*
G01X0126463Y-093570D02*
G01X0126463Y-093451D01*
G01X0126975Y-093570D02*
G01X0126463Y-093570D01*
G01X0126975Y-093320D02*
G01X0126975Y-093201D01*
G01X0126975Y-093201D02*
G01X0126463Y-093201D01*
G01X0126463Y-093320D02*
G01X0126463Y-093201D01*
G01X0126975Y-093320D02*
G01X0126463Y-093320D01*
G01X0126975Y-093070D02*
G01X0126975Y-092951D01*
G01X0126975Y-092951D02*
G01X0126463Y-092951D01*
G01X0126463Y-093070D02*
G01X0126463Y-092951D01*
G01X0126975Y-093070D02*
G01X0126463Y-093070D01*
G01X0126975Y-092820D02*
G01X0126975Y-092701D01*
G01X0126975Y-092701D02*
G01X0126463Y-092701D01*
G01X0126463Y-092820D02*
G01X0126463Y-092701D01*
G01X0126975Y-092820D02*
G01X0126463Y-092820D01*
G01X0126975Y-092571D02*
G01X0126975Y-092452D01*
G01X0126975Y-092452D02*
G01X0126463Y-092452D01*
G01X0126463Y-092571D02*
G01X0126463Y-092452D01*
G01X0126975Y-092571D02*
G01X0126463Y-092571D01*
G01X0126975Y-092321D02*
G01X0126975Y-092202D01*
G01X0126975Y-092202D02*
G01X0126463Y-092202D01*
G01X0126463Y-092321D02*
G01X0126463Y-092202D01*
G01X0126975Y-092321D02*
G01X0126463Y-092321D01*
G01X0126975Y-092071D02*
G01X0126975Y-091952D01*
G01X0126975Y-091952D02*
G01X0126463Y-091952D01*
G01X0126463Y-092071D02*
G01X0126463Y-091952D01*
G01X0126975Y-092071D02*
G01X0126463Y-092071D01*
G01X0126975Y-091821D02*
G01X0126975Y-091702D01*
G01X0126975Y-091702D02*
G01X0126463Y-091702D01*
G01X0126463Y-091821D02*
G01X0126463Y-091702D01*
G01X0126975Y-091821D02*
G01X0126463Y-091821D01*
G01X0125047Y-091821D02*
G01X0125047Y-091702D01*
G01X0125047Y-091702D02*
G01X0124535Y-091702D01*
G01X0124535Y-091821D02*
G01X0124535Y-091702D01*
G01X0125047Y-091821D02*
G01X0124535Y-091821D01*
G01X0125047Y-092071D02*
G01X0125047Y-091952D01*
G01X0125047Y-091952D02*
G01X0124535Y-091952D01*
G01X0124535Y-092071D02*
G01X0124535Y-091952D01*
G01X0125047Y-092071D02*
G01X0124535Y-092071D01*
G01X0125047Y-092321D02*
G01X0125047Y-092202D01*
G01X0125047Y-092202D02*
G01X0124535Y-092202D01*
G01X0124535Y-092321D02*
G01X0124535Y-092202D01*
G01X0125047Y-092321D02*
G01X0124535Y-092321D01*
G01X0125047Y-092571D02*
G01X0125047Y-092452D01*
G01X0125047Y-092452D02*
G01X0124535Y-092452D01*
G01X0124535Y-092571D02*
G01X0124535Y-092452D01*
G01X0125047Y-092571D02*
G01X0124535Y-092571D01*
G01X0125047Y-092820D02*
G01X0125047Y-092701D01*
G01X0125047Y-092701D02*
G01X0124535Y-092701D01*
G01X0124535Y-092820D02*
G01X0124535Y-092701D01*
G01X0125047Y-092820D02*
G01X0124535Y-092820D01*
G01X0125047Y-093070D02*
G01X0125047Y-092951D01*
G01X0125047Y-092951D02*
G01X0124535Y-092951D01*
G01X0124535Y-093070D02*
G01X0124535Y-092951D01*
G01X0125047Y-093070D02*
G01X0124535Y-093070D01*
G01X0125047Y-093320D02*
G01X0125047Y-093201D01*
G01X0125047Y-093201D02*
G01X0124535Y-093201D01*
G01X0124535Y-093320D02*
G01X0124535Y-093201D01*
G01X0125047Y-093320D02*
G01X0124535Y-093320D01*
G01X0125047Y-093570D02*
G01X0125047Y-093451D01*
G01X0125047Y-093451D02*
G01X0124535Y-093451D01*
G01X0124535Y-093570D02*
G01X0124535Y-093451D01*
G01X0125047Y-093570D02*
G01X0124535Y-093570D01*
G54D21*
G01X0126483Y-093608D02*
G01X0125027Y-093608D01*
G01X0125027Y-091664D02*
G01X0126483Y-091664D01*
G01X0126483Y-093608D02*
G01X0126483Y-091664D01*
G01X0125027Y-091664D02*
G01X0125027Y-093608D01*
G54D29*
G01X0126251Y-093285D02*
G75*
G03X0126251Y-093285I-000083J0000000D01*
G54D21*
G01X0122920Y-087500D02*
G75*
G03X0122920Y-087500I-000070J0000000D01*
G54D19*
G01X0123800Y-087600D02*
G01X0123800Y-087500D01*
G01X0123800Y-087500D02*
G01X0122900Y-087500D01*
G01X0122900Y-087500D02*
G01X0122900Y-087600D01*
G01X0123800Y-087600D02*
G01X0122900Y-087600D01*
G01X0122900Y-087600D02*
G01X0122900Y-088250D01*
G01X0123800Y-088950D02*
G01X0123800Y-089600D01*
G01X0123800Y-089600D02*
G01X0122900Y-089600D01*
G01X0122900Y-089600D02*
G01X0122900Y-088950D01*
G01X0123800Y-088250D02*
G01X0123800Y-087600D01*
G54D30*
G01X0139520Y-112540D02*
G01X0139345Y-112540D01*
G01X0139520Y-111540D02*
G01X0139695Y-111540D01*
G54D28*
G01X0139520Y-112040D02*
G01X0140520Y-111540D01*
G01X0140520Y-111540D02*
G01X0140520Y-112040D01*
G01X0140520Y-112540D02*
G01X0139520Y-112040D01*
G01X0139520Y-111540D02*
G01X0139520Y-112040D01*
G01X0138620Y-112040D02*
G01X0139520Y-112040D01*
G01X0139520Y-112040D02*
G01X0139520Y-112540D01*
G01X0140520Y-112040D02*
G01X0141420Y-112040D01*
G01X0140520Y-112040D02*
G01X0140520Y-112540D01*
G54D31*
G01X0142910Y-107490D02*
G01X0142910Y-103840D01*
G01X0142910Y-103840D02*
G01X0149460Y-103840D01*
G01X0149460Y-103840D02*
G01X0149460Y-107290D01*
G01X0149460Y-107290D02*
G01X0149460Y-107340D01*
G01X0149460Y-107340D02*
G01X0149460Y-107390D01*
G01X0149460Y-107390D02*
G01X0149460Y-107490D01*
G01X0149460Y-107490D02*
G01X0142910Y-107490D01*
G54D23*
G01X0145710Y-105690D02*
G01X0147260Y-105690D01*
G01X0145160Y-105690D02*
G01X0145360Y-105690D01*
G54D32*
G01X0145360Y-105190D02*
G01X0145360Y-105690D01*
G01X0145360Y-105690D02*
G01X0145360Y-106190D01*
G01X0145710Y-105190D02*
G01X0145710Y-105690D01*
G01X0145710Y-105690D02*
G01X0145710Y-106190D01*
G54D31*
G01X0142910Y-111320D02*
G01X0142910Y-107670D01*
G01X0142910Y-107670D02*
G01X0149460Y-107670D01*
G01X0149460Y-107670D02*
G01X0149460Y-111120D01*
G01X0149460Y-111120D02*
G01X0149460Y-111170D01*
G01X0149460Y-111170D02*
G01X0149460Y-111220D01*
G01X0149460Y-111220D02*
G01X0149460Y-111320D01*
G01X0149460Y-111320D02*
G01X0142910Y-111320D01*
G54D23*
G01X0145710Y-109520D02*
G01X0147260Y-109520D01*
G01X0145160Y-109520D02*
G01X0145360Y-109520D01*
G54D32*
G01X0145360Y-109020D02*
G01X0145360Y-109520D01*
G01X0145360Y-109520D02*
G01X0145360Y-110020D01*
G01X0145710Y-109020D02*
G01X0145710Y-109520D01*
G01X0145710Y-109520D02*
G01X0145710Y-110020D01*
G54D33*
G01X0142787Y-093955D02*
G01X0141133Y-093955D01*
G01X0142787Y-093837D02*
G01X0141133Y-093837D01*
G01X0142787Y-097223D02*
G01X0141133Y-097223D01*
G01X0141131Y-096316D02*
G01X0141131Y-097216D01*
G01X0142789Y-097216D02*
G01X0142789Y-096316D01*
G01X0142789Y-094743D02*
G01X0142789Y-093843D01*
G01X0141131Y-093844D02*
G01X0141131Y-094744D01*
G01X0141075Y-098493D02*
G01X0141075Y-100147D01*
G01X0140957Y-098493D02*
G01X0140957Y-100147D01*
G01X0144343Y-098493D02*
G01X0144343Y-100147D01*
G01X0143436Y-100149D02*
G01X0144336Y-100149D01*
G01X0144336Y-098491D02*
G01X0143436Y-098491D01*
G01X0141863Y-098491D02*
G01X0140963Y-098491D01*
G01X0140964Y-100149D02*
G01X0141864Y-100149D01*
G54D27*
G01X0136880Y-099100D02*
G75*
G03X0136880Y-099100I-000050J0000000D01*
G01X0136830Y-099550D02*
G01X0136830Y-099150D01*
G01X0136830Y-099150D02*
G01X0137430Y-099150D01*
G01X0137430Y-099150D02*
G01X0137430Y-099550D01*
G01X0137430Y-099950D02*
G01X0137430Y-100350D01*
G01X0137430Y-100350D02*
G01X0136830Y-100350D01*
G01X0136830Y-100350D02*
G01X0136830Y-099950D01*
G01X0141115Y-098305D02*
G75*
G03X0141115Y-098305I-000050J0000000D01*
G01X0141515Y-098305D02*
G01X0141115Y-098305D01*
G01X0141115Y-098305D02*
G01X0141115Y-097705D01*
G01X0141115Y-097705D02*
G01X0141515Y-097705D01*
G01X0141915Y-097705D02*
G01X0142315Y-097705D01*
G01X0142315Y-097705D02*
G01X0142315Y-098305D01*
G01X0142315Y-098305D02*
G01X0141915Y-098305D01*
G01X0136010Y-097105D02*
G75*
G03X0136010Y-097105I-000050J0000000D01*
G01X0135960Y-097555D02*
G01X0135960Y-097155D01*
G01X0135960Y-097155D02*
G01X0136560Y-097155D01*
G01X0136560Y-097155D02*
G01X0136560Y-097555D01*
G01X0136560Y-097955D02*
G01X0136560Y-098355D01*
G01X0136560Y-098355D02*
G01X0135960Y-098355D01*
G01X0135960Y-098355D02*
G01X0135960Y-097955D01*
G54D20*
G01X0136720Y-094850D02*
G01X0136720Y-094600D01*
G01X0136720Y-094600D02*
G01X0140720Y-094600D01*
G01X0140720Y-094600D02*
G01X0140720Y-094850D01*
G01X0136720Y-096350D02*
G01X0136720Y-094850D01*
G01X0136720Y-094850D02*
G01X0140720Y-094850D01*
G01X0140720Y-094850D02*
G01X0140720Y-096350D01*
G01X0140720Y-096350D02*
G01X0136720Y-096350D01*
G54D22*
G01X0137510Y-096714D02*
G01X0137510Y-096907D01*
G01X0137510Y-096907D02*
G01X0137943Y-096907D01*
G01X0137943Y-096714D02*
G01X0137943Y-096907D01*
G01X0137510Y-096714D02*
G01X0137943Y-096714D01*
G01X0137510Y-097214D02*
G01X0137510Y-097407D01*
G01X0137510Y-097407D02*
G01X0137943Y-097407D01*
G01X0137943Y-097214D02*
G01X0137943Y-097407D01*
G01X0137510Y-097214D02*
G01X0137943Y-097214D01*
G01X0137510Y-097713D02*
G01X0137510Y-097906D01*
G01X0137510Y-097906D02*
G01X0137943Y-097906D01*
G01X0137943Y-097713D02*
G01X0137943Y-097906D01*
G01X0137510Y-097713D02*
G01X0137943Y-097713D01*
G01X0137510Y-098213D02*
G01X0137510Y-098406D01*
G01X0137510Y-098406D02*
G01X0137943Y-098406D01*
G01X0137943Y-098213D02*
G01X0137943Y-098406D01*
G01X0137510Y-098213D02*
G01X0137943Y-098213D01*
G01X0139517Y-098213D02*
G01X0139517Y-098406D01*
G01X0139517Y-098406D02*
G01X0139950Y-098406D01*
G01X0139950Y-098213D02*
G01X0139950Y-098406D01*
G01X0139517Y-098213D02*
G01X0139950Y-098213D01*
G01X0139517Y-097713D02*
G01X0139517Y-097906D01*
G01X0139517Y-097906D02*
G01X0139950Y-097906D01*
G01X0139950Y-097713D02*
G01X0139950Y-097906D01*
G01X0139517Y-097713D02*
G01X0139950Y-097713D01*
G01X0139517Y-097214D02*
G01X0139517Y-097407D01*
G01X0139517Y-097407D02*
G01X0139950Y-097407D01*
G01X0139950Y-097214D02*
G01X0139950Y-097407D01*
G01X0139517Y-097214D02*
G01X0139950Y-097214D01*
G01X0139517Y-096714D02*
G01X0139517Y-096907D01*
G01X0139517Y-096907D02*
G01X0139950Y-096907D01*
G01X0139950Y-096714D02*
G01X0139950Y-096907D01*
G01X0139517Y-096714D02*
G01X0139950Y-096714D01*
G54D21*
G01X0139478Y-098504D02*
G01X0138179Y-098504D01*
G01X0138179Y-098504D02*
G01X0137982Y-098504D01*
G01X0137982Y-098504D02*
G01X0137982Y-096616D01*
G01X0137982Y-096616D02*
G01X0138179Y-096616D01*
G01X0138179Y-096616D02*
G01X0139478Y-096616D01*
G01X0139478Y-096616D02*
G01X0139478Y-098504D01*
G01X0138179Y-098504D02*
G01X0138179Y-096616D01*
G54D19*
G01X0134475Y-098165D02*
G01X0135725Y-098165D01*
G01X0134475Y-100190D02*
G01X0135725Y-100190D01*
G01X0135725Y-100190D02*
G01X0135725Y-097790D01*
G01X0135725Y-097790D02*
G01X0134475Y-097790D01*
G01X0134475Y-097790D02*
G01X0134475Y-100190D01*
G54D12*
G01X0143364Y-092813D02*
G01X0143364Y-095213D01*
G01X0143564Y-092813D02*
G01X0145764Y-092813D01*
G01X0145764Y-092813D02*
G01X0145764Y-095213D01*
G01X0145764Y-095213D02*
G01X0143364Y-095213D01*
G01X0143364Y-092813D02*
G01X0143564Y-092813D01*
G54D31*
G01X0145764Y-094638D02*
G01X0145764Y-093388D01*
G54D12*
G01X0137975Y-098870D02*
G01X0140175Y-098870D01*
G01X0140175Y-098870D02*
G01X0140175Y-100870D01*
G01X0140175Y-100870D02*
G01X0137975Y-100870D01*
G01X0137975Y-100870D02*
G01X0137975Y-098870D01*
G54D27*
G01X0128214Y-091176D02*
G75*
G03X0128214Y-091176I-000050J0000000D01*
G01X0128164Y-091626D02*
G01X0128164Y-091226D01*
G01X0128164Y-091226D02*
G01X0128764Y-091226D01*
G01X0128764Y-091226D02*
G01X0128764Y-091626D01*
G01X0128764Y-092026D02*
G01X0128764Y-092426D01*
G01X0128764Y-092426D02*
G01X0128164Y-092426D01*
G01X0128164Y-092426D02*
G01X0128164Y-092026D01*
G01X0128808Y-093900D02*
G75*
G03X0128808Y-093900I-000050J0000000D01*
G01X0128758Y-093450D02*
G01X0128758Y-093850D01*
G01X0128758Y-093850D02*
G01X0128158Y-093850D01*
G01X0128158Y-093850D02*
G01X0128158Y-093450D01*
G01X0128158Y-093050D02*
G01X0128158Y-092650D01*
G01X0128158Y-092650D02*
G01X0128758Y-092650D01*
G01X0128758Y-092650D02*
G01X0128758Y-093050D01*
G54D19*
G01X0132365Y-095375D02*
G01X0134065Y-095375D01*
G01X0132365Y-097825D02*
G01X0134065Y-097825D01*
G01X0134065Y-097825D02*
G01X0134065Y-094925D01*
G01X0134065Y-094925D02*
G01X0132365Y-094925D01*
G01X0132365Y-094925D02*
G01X0132365Y-097825D01*
G54D12*
G01X0145210Y-098630D02*
G01X0145210Y-100230D01*
G01X0145210Y-098630D02*
G01X0145810Y-098630D01*
G01X0145210Y-098630D02*
G01X0144610Y-098630D01*
G01X0145210Y-098630D02*
G01X0145810Y-097630D01*
G01X0145810Y-097630D02*
G01X0145210Y-097630D01*
G01X0145210Y-097630D02*
G01X0144610Y-097630D01*
G01X0144610Y-097630D02*
G01X0145210Y-098630D01*
G01X0145210Y-096230D02*
G01X0145210Y-097630D01*
G01X0142300Y-101700D02*
G01X0140700Y-101700D01*
G01X0142300Y-101700D02*
G01X0142300Y-102300D01*
G01X0142300Y-101700D02*
G01X0142300Y-101100D01*
G01X0142300Y-101700D02*
G01X0143300Y-102300D01*
G01X0143300Y-102300D02*
G01X0143300Y-101700D01*
G01X0143300Y-101700D02*
G01X0143300Y-101100D01*
G01X0143300Y-101100D02*
G01X0142300Y-101700D01*
G01X0144700Y-101700D02*
G01X0143300Y-101700D01*
G01X0142300Y-103100D02*
G01X0140700Y-103100D01*
G01X0142300Y-103100D02*
G01X0142300Y-103700D01*
G01X0142300Y-103100D02*
G01X0142300Y-102500D01*
G01X0142300Y-103100D02*
G01X0143300Y-103700D01*
G01X0143300Y-103700D02*
G01X0143300Y-103100D01*
G01X0143300Y-103100D02*
G01X0143300Y-102500D01*
G01X0143300Y-102500D02*
G01X0142300Y-103100D01*
G01X0144700Y-103100D02*
G01X0143300Y-103100D01*
G54D27*
G01X0130250Y-097700D02*
G75*
G03X0130250Y-097700I-000050J0000000D01*
G01X0129750Y-097700D02*
G01X0130150Y-097700D01*
G01X0130150Y-097700D02*
G01X0130150Y-098300D01*
G01X0130150Y-098300D02*
G01X0129750Y-098300D01*
G01X0129350Y-098300D02*
G01X0128950Y-098300D01*
G01X0128950Y-098300D02*
G01X0128950Y-097700D01*
G01X0128950Y-097700D02*
G01X0129350Y-097700D01*
G54D23*
G01X0121820Y-099290D02*
G01X0122820Y-099290D01*
G01X0122820Y-099290D02*
G01X0122820Y-102290D01*
G01X0122820Y-102290D02*
G01X0121820Y-102290D01*
G01X0121820Y-102290D02*
G01X0121820Y-099290D01*
G01X0122820Y-100290D02*
G01X0121820Y-100290D01*
G54D22*
G01X0146900Y-088650D02*
G01X0146600Y-088650D01*
G01X0146600Y-088650D02*
G01X0146600Y-090850D01*
G01X0146900Y-090850D02*
G01X0146600Y-090850D01*
G01X0146900Y-088650D02*
G01X0146900Y-090850D01*
G01X0147600Y-089500D02*
G01X0147250Y-089500D01*
G01X0147250Y-089500D02*
G01X0147250Y-090000D01*
G01X0147600Y-090000D02*
G01X0147250Y-090000D01*
G01X0147600Y-089500D02*
G01X0147600Y-090000D01*
G01X0143250Y-089500D02*
G01X0142900Y-089500D01*
G01X0142900Y-089500D02*
G01X0142900Y-090000D01*
G01X0143250Y-090000D02*
G01X0142900Y-090000D01*
G01X0143250Y-089500D02*
G01X0143250Y-090000D01*
G54D23*
G01X0147250Y-088650D02*
G01X0147250Y-090850D01*
G01X0143250Y-090850D02*
G01X0143250Y-088650D01*
G01X0147250Y-090850D02*
G01X0143250Y-090850D01*
G01X0143250Y-088650D02*
G01X0147250Y-088650D01*
G54D34*
G01X0142250Y-089750D02*
G01X0142800Y-089750D01*
G01X0148250Y-089750D02*
G01X0147700Y-089750D01*
G54D25*
G01X0125013Y-102166D02*
G01X0125013Y-100614D01*
G01X0125013Y-100614D02*
G01X0125787Y-100614D01*
G01X0125787Y-100614D02*
G01X0125787Y-102166D01*
G01X0125787Y-102166D02*
G01X0125013Y-102166D01*
G01X0123813Y-102176D02*
G01X0123813Y-100624D01*
G01X0123813Y-100624D02*
G01X0124587Y-100624D01*
G01X0124587Y-100624D02*
G01X0124587Y-102176D01*
G01X0124587Y-102176D02*
G01X0123813Y-102176D01*
G54D27*
G01X0125060Y-100460D02*
G01X0125060Y-098930D01*
G01X0125060Y-098930D02*
G01X0125740Y-098930D01*
G01X0125740Y-098930D02*
G01X0125740Y-100480D01*
G01X0125740Y-100480D02*
G01X0125060Y-100480D01*
G01X0123860Y-100460D02*
G01X0123860Y-098930D01*
G01X0123860Y-098930D02*
G01X0124540Y-098930D01*
G01X0124540Y-098930D02*
G01X0124540Y-100480D01*
G01X0124540Y-100480D02*
G01X0123860Y-100480D01*
G54D12*
G01X0147900Y-098000D02*
G01X0147900Y-097000D01*
G01X0147900Y-098600D02*
G01X0147900Y-098400D01*
G01X0147900Y-098600D02*
G01X0147900Y-099000D01*
G54D23*
G01X0148150Y-098400D02*
G01X0147650Y-098400D01*
G01X0147650Y-098400D02*
G01X0147900Y-098000D01*
G01X0147900Y-098000D02*
G01X0148150Y-098400D01*
G01X0148150Y-098000D02*
G01X0147900Y-098000D01*
G01X0147900Y-098000D02*
G01X0147650Y-098000D01*
G54D12*
G01X0148900Y-098000D02*
G01X0148900Y-097000D01*
G01X0148900Y-098600D02*
G01X0148900Y-098400D01*
G01X0148900Y-098600D02*
G01X0148900Y-099000D01*
G54D23*
G01X0149150Y-098400D02*
G01X0148650Y-098400D01*
G01X0148650Y-098400D02*
G01X0148900Y-098000D01*
G01X0148900Y-098000D02*
G01X0149150Y-098400D01*
G01X0149150Y-098000D02*
G01X0148900Y-098000D01*
G01X0148900Y-098000D02*
G01X0148650Y-098000D01*
G54D12*
G01X0147600Y-103300D02*
G01X0148600Y-103300D01*
G01X0147000Y-103300D02*
G01X0147200Y-103300D01*
G01X0147000Y-103300D02*
G01X0146600Y-103300D01*
G54D23*
G01X0147200Y-103550D02*
G01X0147200Y-103050D01*
G01X0147200Y-103050D02*
G01X0147600Y-103300D01*
G01X0147600Y-103300D02*
G01X0147200Y-103550D01*
G01X0147600Y-103550D02*
G01X0147600Y-103300D01*
G01X0147600Y-103300D02*
G01X0147600Y-103050D01*
G54D12*
G01X0147600Y-102400D02*
G01X0148600Y-102400D01*
G01X0147000Y-102400D02*
G01X0147200Y-102400D01*
G01X0147000Y-102400D02*
G01X0146600Y-102400D01*
G54D23*
G01X0147200Y-102650D02*
G01X0147200Y-102150D01*
G01X0147200Y-102150D02*
G01X0147600Y-102400D01*
G01X0147600Y-102400D02*
G01X0147200Y-102650D01*
G01X0147600Y-102650D02*
G01X0147600Y-102400D01*
G01X0147600Y-102400D02*
G01X0147600Y-102150D01*
G54D28*
G01X0119984Y-100350D02*
G75*
G03X0119984Y-100350I-000984J0000000D01*
G01X0120034Y-102400D02*
G75*
G03X0120034Y-102400I-000984J0000000D01*
G54D12*
G01X0136450Y-093300D02*
G75*
G03X0138450Y-093300I0001000J0001000D01*
G01X0138450Y-089300D02*
G75*
G03X0136450Y-089300I-001000J-001000D01*
G54D21*
G01X0140056Y-106702D02*
G01X0139890Y-106440D01*
G01X0139770Y-106702D02*
G01X0139770Y-106152D01*
G01X0139770Y-106152D02*
G01X0139961Y-106152D01*
G01X0139961Y-106152D02*
G01X0140009Y-106178D01*
G01X0140009Y-106178D02*
G01X0140032Y-106205D01*
G01X0140032Y-106205D02*
G01X0140056Y-106257D01*
G01X0140056Y-106257D02*
G01X0140056Y-106335D01*
G01X0140056Y-106335D02*
G01X0140032Y-106388D01*
G01X0140032Y-106388D02*
G01X0140009Y-106414D01*
G01X0140009Y-106414D02*
G01X0139961Y-106440D01*
G01X0139961Y-106440D02*
G01X0139770Y-106440D01*
G01X0140485Y-106152D02*
G01X0140390Y-106152D01*
G01X0140390Y-106152D02*
G01X0140342Y-106178D01*
G01X0140342Y-106178D02*
G01X0140318Y-106205D01*
G01X0140318Y-106205D02*
G01X0140270Y-106283D01*
G01X0140270Y-106283D02*
G01X0140247Y-106388D01*
G01X0140247Y-106388D02*
G01X0140247Y-106597D01*
G01X0140247Y-106597D02*
G01X0140270Y-106650D01*
G01X0140270Y-106650D02*
G01X0140294Y-106676D01*
G01X0140294Y-106676D02*
G01X0140342Y-106702D01*
G01X0140342Y-106702D02*
G01X0140437Y-106702D01*
G01X0140437Y-106702D02*
G01X0140485Y-106676D01*
G01X0140485Y-106676D02*
G01X0140509Y-106650D01*
G01X0140509Y-106650D02*
G01X0140532Y-106597D01*
G01X0140532Y-106597D02*
G01X0140532Y-106466D01*
G01X0140532Y-106466D02*
G01X0140509Y-106414D01*
G01X0140509Y-106414D02*
G01X0140485Y-106388D01*
G01X0140485Y-106388D02*
G01X0140437Y-106362D01*
G01X0140437Y-106362D02*
G01X0140342Y-106362D01*
G01X0140342Y-106362D02*
G01X0140294Y-106388D01*
G01X0140294Y-106388D02*
G01X0140270Y-106414D01*
G01X0140270Y-106414D02*
G01X0140247Y-106466D01*
G01X0130772Y-108833D02*
G01X0130510Y-109000D01*
G01X0130772Y-109119D02*
G01X0130222Y-109119D01*
G01X0130222Y-109119D02*
G01X0130222Y-108928D01*
G01X0130222Y-108928D02*
G01X0130248Y-108880D01*
G01X0130248Y-108880D02*
G01X0130275Y-108857D01*
G01X0130275Y-108857D02*
G01X0130327Y-108833D01*
G01X0130327Y-108833D02*
G01X0130405Y-108833D01*
G01X0130405Y-108833D02*
G01X0130458Y-108857D01*
G01X0130458Y-108857D02*
G01X0130484Y-108880D01*
G01X0130484Y-108880D02*
G01X0130510Y-108928D01*
G01X0130510Y-108928D02*
G01X0130510Y-109119D01*
G01X0130772Y-108357D02*
G01X0130772Y-108642D01*
G01X0130772Y-108500D02*
G01X0130222Y-108500D01*
G01X0130222Y-108500D02*
G01X0130301Y-108547D01*
G01X0130301Y-108547D02*
G01X0130353Y-108595D01*
G01X0130353Y-108595D02*
G01X0130379Y-108642D01*
G01X0136322Y-109053D02*
G01X0136060Y-109220D01*
G01X0136322Y-109339D02*
G01X0135772Y-109339D01*
G01X0135772Y-109339D02*
G01X0135772Y-109148D01*
G01X0135772Y-109148D02*
G01X0135798Y-109100D01*
G01X0135798Y-109100D02*
G01X0135825Y-109077D01*
G01X0135825Y-109077D02*
G01X0135877Y-109053D01*
G01X0135877Y-109053D02*
G01X0135955Y-109053D01*
G01X0135955Y-109053D02*
G01X0136008Y-109077D01*
G01X0136008Y-109077D02*
G01X0136034Y-109100D01*
G01X0136034Y-109100D02*
G01X0136060Y-109148D01*
G01X0136060Y-109148D02*
G01X0136060Y-109339D01*
G01X0135825Y-108862D02*
G01X0135798Y-108839D01*
G01X0135798Y-108839D02*
G01X0135772Y-108791D01*
G01X0135772Y-108791D02*
G01X0135772Y-108672D01*
G01X0135772Y-108672D02*
G01X0135798Y-108624D01*
G01X0135798Y-108624D02*
G01X0135825Y-108600D01*
G01X0135825Y-108600D02*
G01X0135877Y-108577D01*
G01X0135877Y-108577D02*
G01X0135929Y-108577D01*
G01X0135929Y-108577D02*
G01X0136008Y-108600D01*
G01X0136008Y-108600D02*
G01X0136322Y-108886D01*
G01X0136322Y-108886D02*
G01X0136322Y-108577D01*
G01X0137262Y-109058D02*
G01X0137000Y-109225D01*
G01X0137262Y-109344D02*
G01X0136712Y-109344D01*
G01X0136712Y-109344D02*
G01X0136712Y-109153D01*
G01X0136712Y-109153D02*
G01X0136738Y-109105D01*
G01X0136738Y-109105D02*
G01X0136765Y-109082D01*
G01X0136765Y-109082D02*
G01X0136817Y-109058D01*
G01X0136817Y-109058D02*
G01X0136895Y-109058D01*
G01X0136895Y-109058D02*
G01X0136948Y-109082D01*
G01X0136948Y-109082D02*
G01X0136974Y-109105D01*
G01X0136974Y-109105D02*
G01X0137000Y-109153D01*
G01X0137000Y-109153D02*
G01X0137000Y-109344D01*
G01X0136712Y-108891D02*
G01X0136712Y-108582D01*
G01X0136712Y-108582D02*
G01X0136922Y-108748D01*
G01X0136922Y-108748D02*
G01X0136922Y-108677D01*
G01X0136922Y-108677D02*
G01X0136948Y-108629D01*
G01X0136948Y-108629D02*
G01X0136974Y-108605D01*
G01X0136974Y-108605D02*
G01X0137026Y-108582D01*
G01X0137026Y-108582D02*
G01X0137157Y-108582D01*
G01X0137157Y-108582D02*
G01X0137210Y-108605D01*
G01X0137210Y-108605D02*
G01X0137236Y-108629D01*
G01X0137236Y-108629D02*
G01X0137262Y-108677D01*
G01X0137262Y-108677D02*
G01X0137262Y-108820D01*
G01X0137262Y-108820D02*
G01X0137236Y-108867D01*
G01X0137236Y-108867D02*
G01X0137210Y-108891D01*
G01X0139936Y-111182D02*
G01X0139770Y-110920D01*
G01X0139650Y-111182D02*
G01X0139650Y-110632D01*
G01X0139650Y-110632D02*
G01X0139841Y-110632D01*
G01X0139841Y-110632D02*
G01X0139889Y-110658D01*
G01X0139889Y-110658D02*
G01X0139912Y-110685D01*
G01X0139912Y-110685D02*
G01X0139936Y-110737D01*
G01X0139936Y-110737D02*
G01X0139936Y-110815D01*
G01X0139936Y-110815D02*
G01X0139912Y-110868D01*
G01X0139912Y-110868D02*
G01X0139889Y-110894D01*
G01X0139889Y-110894D02*
G01X0139841Y-110920D01*
G01X0139841Y-110920D02*
G01X0139650Y-110920D01*
G01X0140365Y-110815D02*
G01X0140365Y-111182D01*
G01X0140246Y-110606D02*
G01X0140127Y-110999D01*
G01X0140127Y-110999D02*
G01X0140436Y-110999D01*
G01X0140036Y-105542D02*
G01X0139870Y-105280D01*
G01X0139750Y-105542D02*
G01X0139750Y-104992D01*
G01X0139750Y-104992D02*
G01X0139941Y-104992D01*
G01X0139941Y-104992D02*
G01X0139989Y-105018D01*
G01X0139989Y-105018D02*
G01X0140012Y-105045D01*
G01X0140012Y-105045D02*
G01X0140036Y-105097D01*
G01X0140036Y-105097D02*
G01X0140036Y-105175D01*
G01X0140036Y-105175D02*
G01X0140012Y-105228D01*
G01X0140012Y-105228D02*
G01X0139989Y-105254D01*
G01X0139989Y-105254D02*
G01X0139941Y-105280D01*
G01X0139941Y-105280D02*
G01X0139750Y-105280D01*
G01X0140489Y-104992D02*
G01X0140250Y-104992D01*
G01X0140250Y-104992D02*
G01X0140227Y-105254D01*
G01X0140227Y-105254D02*
G01X0140250Y-105228D01*
G01X0140250Y-105228D02*
G01X0140298Y-105202D01*
G01X0140298Y-105202D02*
G01X0140417Y-105202D01*
G01X0140417Y-105202D02*
G01X0140465Y-105228D01*
G01X0140465Y-105228D02*
G01X0140489Y-105254D01*
G01X0140489Y-105254D02*
G01X0140512Y-105306D01*
G01X0140512Y-105306D02*
G01X0140512Y-105437D01*
G01X0140512Y-105437D02*
G01X0140489Y-105490D01*
G01X0140489Y-105490D02*
G01X0140465Y-105516D01*
G01X0140465Y-105516D02*
G01X0140417Y-105542D01*
G01X0140417Y-105542D02*
G01X0140298Y-105542D01*
G01X0140298Y-105542D02*
G01X0140250Y-105516D01*
G01X0140250Y-105516D02*
G01X0140227Y-105490D01*
G54D23*
G01X0120932Y-110392D02*
G01X0121296Y-110392D01*
G01X0121296Y-110392D02*
G01X0121339Y-110371D01*
G01X0121339Y-110371D02*
G01X0121360Y-110350D01*
G01X0121360Y-110350D02*
G01X0121382Y-110307D01*
G01X0121382Y-110307D02*
G01X0121382Y-110221D01*
G01X0121382Y-110221D02*
G01X0121360Y-110178D01*
G01X0121360Y-110178D02*
G01X0121339Y-110157D01*
G01X0121339Y-110157D02*
G01X0121296Y-110135D01*
G01X0121296Y-110135D02*
G01X0120932Y-110135D01*
G01X0121082Y-109728D02*
G01X0121382Y-109728D01*
G01X0120910Y-109835D02*
G01X0121232Y-109942D01*
G01X0121232Y-109942D02*
G01X0121232Y-109664D01*
G54D21*
G01X0132795Y-106048D02*
G01X0132795Y-106526D01*
G01X0132795Y-106526D02*
G01X0132814Y-106582D01*
G01X0132814Y-106582D02*
G01X0132833Y-106610D01*
G01X0132833Y-106610D02*
G01X0132871Y-106639D01*
G01X0132871Y-106639D02*
G01X0132947Y-106639D01*
G01X0132947Y-106639D02*
G01X0132985Y-106610D01*
G01X0132985Y-106610D02*
G01X0133004Y-106582D01*
G01X0133004Y-106582D02*
G01X0133023Y-106526D01*
G01X0133023Y-106526D02*
G01X0133023Y-106048D01*
G01X0133423Y-106639D02*
G01X0133195Y-106639D01*
G01X0133309Y-106639D02*
G01X0133309Y-106048D01*
G01X0133309Y-106048D02*
G01X0133271Y-106132D01*
G01X0133271Y-106132D02*
G01X0133233Y-106189D01*
G01X0133233Y-106189D02*
G01X0133195Y-106217D01*
G01X0132992Y-109150D02*
G01X0133392Y-109150D01*
G01X0132764Y-109233D02*
G01X0133192Y-109316D01*
G01X0133192Y-109316D02*
G01X0133192Y-109100D01*
G01X0133392Y-108966D02*
G01X0132792Y-108966D01*
G01X0132792Y-108966D02*
G01X0133392Y-108766D01*
G01X0133392Y-108766D02*
G01X0132792Y-108766D01*
G01X0132850Y-108616D02*
G01X0132821Y-108600D01*
G01X0132821Y-108600D02*
G01X0132792Y-108566D01*
G01X0132792Y-108566D02*
G01X0132792Y-108483D01*
G01X0132792Y-108483D02*
G01X0132821Y-108450D01*
G01X0132821Y-108450D02*
G01X0132850Y-108433D01*
G01X0132850Y-108433D02*
G01X0132907Y-108416D01*
G01X0132907Y-108416D02*
G01X0132964Y-108416D01*
G01X0132964Y-108416D02*
G01X0133050Y-108433D01*
G01X0133050Y-108433D02*
G01X0133392Y-108633D01*
G01X0133392Y-108633D02*
G01X0133392Y-108416D01*
G01X0132792Y-108100D02*
G01X0132792Y-108266D01*
G01X0132792Y-108266D02*
G01X0133078Y-108283D01*
G01X0133078Y-108283D02*
G01X0133050Y-108266D01*
G01X0133050Y-108266D02*
G01X0133021Y-108233D01*
G01X0133021Y-108233D02*
G01X0133021Y-108150D01*
G01X0133021Y-108150D02*
G01X0133050Y-108116D01*
G01X0133050Y-108116D02*
G01X0133078Y-108100D01*
G01X0133078Y-108100D02*
G01X0133135Y-108083D01*
G01X0133135Y-108083D02*
G01X0133278Y-108083D01*
G01X0133278Y-108083D02*
G01X0133335Y-108100D01*
G01X0133335Y-108100D02*
G01X0133364Y-108116D01*
G01X0133364Y-108116D02*
G01X0133392Y-108150D01*
G01X0133392Y-108150D02*
G01X0133392Y-108233D01*
G01X0133392Y-108233D02*
G01X0133364Y-108266D01*
G01X0133364Y-108266D02*
G01X0133335Y-108283D01*
G01X0136017Y-103729D02*
G01X0136036Y-103672D01*
G01X0136036Y-103672D02*
G01X0136036Y-103577D01*
G01X0136036Y-103577D02*
G01X0136017Y-103539D01*
G01X0136017Y-103539D02*
G01X0135998Y-103520D01*
G01X0135998Y-103520D02*
G01X0135960Y-103501D01*
G01X0135960Y-103501D02*
G01X0135922Y-103501D01*
G01X0135922Y-103501D02*
G01X0135884Y-103520D01*
G01X0135884Y-103520D02*
G01X0135865Y-103539D01*
G01X0135865Y-103539D02*
G01X0135846Y-103577D01*
G01X0135846Y-103577D02*
G01X0135827Y-103653D01*
G01X0135827Y-103653D02*
G01X0135808Y-103691D01*
G01X0135808Y-103691D02*
G01X0135789Y-103710D01*
G01X0135789Y-103710D02*
G01X0135751Y-103729D01*
G01X0135751Y-103729D02*
G01X0135713Y-103729D01*
G01X0135713Y-103729D02*
G01X0135675Y-103710D01*
G01X0135675Y-103710D02*
G01X0135655Y-103691D01*
G01X0135655Y-103691D02*
G01X0135636Y-103653D01*
G01X0135636Y-103653D02*
G01X0135636Y-103558D01*
G01X0135636Y-103558D02*
G01X0135655Y-103501D01*
G01X0135998Y-103101D02*
G01X0136017Y-103120D01*
G01X0136017Y-103120D02*
G01X0136036Y-103177D01*
G01X0136036Y-103177D02*
G01X0136036Y-103215D01*
G01X0136036Y-103215D02*
G01X0136017Y-103272D01*
G01X0136017Y-103272D02*
G01X0135979Y-103310D01*
G01X0135979Y-103310D02*
G01X0135941Y-103329D01*
G01X0135941Y-103329D02*
G01X0135865Y-103348D01*
G01X0135865Y-103348D02*
G01X0135808Y-103348D01*
G01X0135808Y-103348D02*
G01X0135732Y-103329D01*
G01X0135732Y-103329D02*
G01X0135694Y-103310D01*
G01X0135694Y-103310D02*
G01X0135655Y-103272D01*
G01X0135655Y-103272D02*
G01X0135636Y-103215D01*
G01X0135636Y-103215D02*
G01X0135636Y-103177D01*
G01X0135636Y-103177D02*
G01X0135655Y-103120D01*
G01X0135655Y-103120D02*
G01X0135675Y-103101D01*
G01X0136036Y-102701D02*
G01X0135846Y-102834D01*
G01X0136036Y-102929D02*
G01X0135636Y-102929D01*
G01X0135636Y-102929D02*
G01X0135636Y-102777D01*
G01X0135636Y-102777D02*
G01X0135655Y-102739D01*
G01X0135655Y-102739D02*
G01X0135675Y-102720D01*
G01X0135675Y-102720D02*
G01X0135713Y-102701D01*
G01X0135713Y-102701D02*
G01X0135770Y-102701D01*
G01X0135770Y-102701D02*
G01X0135808Y-102720D01*
G01X0135808Y-102720D02*
G01X0135827Y-102739D01*
G01X0135827Y-102739D02*
G01X0135846Y-102777D01*
G01X0135846Y-102777D02*
G01X0135846Y-102929D01*
G01X0136036Y-102320D02*
G01X0136036Y-102548D01*
G01X0136036Y-102434D02*
G01X0135636Y-102434D01*
G01X0135636Y-102434D02*
G01X0135694Y-102472D01*
G01X0135694Y-102472D02*
G01X0135732Y-102510D01*
G01X0135732Y-102510D02*
G01X0135751Y-102548D01*
G01X0135222Y-103725D02*
G01X0135241Y-103668D01*
G01X0135241Y-103668D02*
G01X0135260Y-103649D01*
G01X0135260Y-103649D02*
G01X0135298Y-103630D01*
G01X0135298Y-103630D02*
G01X0135355Y-103630D01*
G01X0135355Y-103630D02*
G01X0135393Y-103649D01*
G01X0135393Y-103649D02*
G01X0135412Y-103668D01*
G01X0135412Y-103668D02*
G01X0135431Y-103706D01*
G01X0135431Y-103706D02*
G01X0135431Y-103858D01*
G01X0135431Y-103858D02*
G01X0135031Y-103858D01*
G01X0135031Y-103858D02*
G01X0135031Y-103725D01*
G01X0135031Y-103725D02*
G01X0135050Y-103687D01*
G01X0135050Y-103687D02*
G01X0135070Y-103668D01*
G01X0135070Y-103668D02*
G01X0135108Y-103649D01*
G01X0135108Y-103649D02*
G01X0135146Y-103649D01*
G01X0135146Y-103649D02*
G01X0135184Y-103668D01*
G01X0135184Y-103668D02*
G01X0135203Y-103687D01*
G01X0135203Y-103687D02*
G01X0135222Y-103725D01*
G01X0135222Y-103725D02*
G01X0135222Y-103858D01*
G01X0135031Y-103515D02*
G01X0135031Y-103287D01*
G01X0135431Y-103401D02*
G01X0135031Y-103401D01*
G01X0135431Y-102944D02*
G01X0135431Y-103172D01*
G01X0135431Y-103058D02*
G01X0135031Y-103058D01*
G01X0135031Y-103058D02*
G01X0135089Y-103096D01*
G01X0135089Y-103096D02*
G01X0135127Y-103134D01*
G01X0135127Y-103134D02*
G01X0135146Y-103172D01*
G01X0135031Y-102582D02*
G01X0135031Y-102772D01*
G01X0135031Y-102772D02*
G01X0135222Y-102791D01*
G01X0135222Y-102791D02*
G01X0135203Y-102772D01*
G01X0135203Y-102772D02*
G01X0135184Y-102734D01*
G01X0135184Y-102734D02*
G01X0135184Y-102639D01*
G01X0135184Y-102639D02*
G01X0135203Y-102601D01*
G01X0135203Y-102601D02*
G01X0135222Y-102582D01*
G01X0135222Y-102582D02*
G01X0135260Y-102563D01*
G01X0135260Y-102563D02*
G01X0135355Y-102563D01*
G01X0135355Y-102563D02*
G01X0135393Y-102582D01*
G01X0135393Y-102582D02*
G01X0135412Y-102601D01*
G01X0135412Y-102601D02*
G01X0135431Y-102639D01*
G01X0135431Y-102639D02*
G01X0135431Y-102734D01*
G01X0135431Y-102734D02*
G01X0135412Y-102772D01*
G01X0135412Y-102772D02*
G01X0135393Y-102791D01*
G01X0135431Y-102182D02*
G01X0135431Y-102410D01*
G01X0135431Y-102296D02*
G01X0135031Y-102296D01*
G01X0135031Y-102296D02*
G01X0135089Y-102334D01*
G01X0135089Y-102334D02*
G01X0135127Y-102372D01*
G01X0135127Y-102372D02*
G01X0135146Y-102410D01*
G01X0140813Y-108903D02*
G01X0140794Y-108922D01*
G01X0140794Y-108922D02*
G01X0140737Y-108941D01*
G01X0140737Y-108941D02*
G01X0140699Y-108941D01*
G01X0140699Y-108941D02*
G01X0140641Y-108922D01*
G01X0140641Y-108922D02*
G01X0140603Y-108884D01*
G01X0140603Y-108884D02*
G01X0140584Y-108846D01*
G01X0140584Y-108846D02*
G01X0140565Y-108770D01*
G01X0140565Y-108770D02*
G01X0140565Y-108713D01*
G01X0140565Y-108713D02*
G01X0140584Y-108637D01*
G01X0140584Y-108637D02*
G01X0140603Y-108599D01*
G01X0140603Y-108599D02*
G01X0140641Y-108560D01*
G01X0140641Y-108560D02*
G01X0140699Y-108541D01*
G01X0140699Y-108541D02*
G01X0140737Y-108541D01*
G01X0140737Y-108541D02*
G01X0140794Y-108560D01*
G01X0140794Y-108560D02*
G01X0140813Y-108580D01*
G01X0140946Y-108541D02*
G01X0141194Y-108541D01*
G01X0141194Y-108541D02*
G01X0141060Y-108694D01*
G01X0141060Y-108694D02*
G01X0141118Y-108694D01*
G01X0141118Y-108694D02*
G01X0141156Y-108713D01*
G01X0141156Y-108713D02*
G01X0141175Y-108732D01*
G01X0141175Y-108732D02*
G01X0141194Y-108770D01*
G01X0141194Y-108770D02*
G01X0141194Y-108865D01*
G01X0141194Y-108865D02*
G01X0141175Y-108903D01*
G01X0141175Y-108903D02*
G01X0141156Y-108922D01*
G01X0141156Y-108922D02*
G01X0141118Y-108941D01*
G01X0141118Y-108941D02*
G01X0141003Y-108941D01*
G01X0141003Y-108941D02*
G01X0140965Y-108922D01*
G01X0140965Y-108922D02*
G01X0140946Y-108903D01*
G54D18*
G01X0142351Y-108794D02*
G01X0142808Y-108794D01*
G01X0142580Y-109022D02*
G01X0142580Y-108565D01*
G54D21*
G01X0140813Y-109863D02*
G01X0140794Y-109882D01*
G01X0140794Y-109882D02*
G01X0140737Y-109901D01*
G01X0140737Y-109901D02*
G01X0140699Y-109901D01*
G01X0140699Y-109901D02*
G01X0140641Y-109882D01*
G01X0140641Y-109882D02*
G01X0140603Y-109844D01*
G01X0140603Y-109844D02*
G01X0140584Y-109806D01*
G01X0140584Y-109806D02*
G01X0140565Y-109730D01*
G01X0140565Y-109730D02*
G01X0140565Y-109673D01*
G01X0140565Y-109673D02*
G01X0140584Y-109597D01*
G01X0140584Y-109597D02*
G01X0140603Y-109559D01*
G01X0140603Y-109559D02*
G01X0140641Y-109520D01*
G01X0140641Y-109520D02*
G01X0140699Y-109501D01*
G01X0140699Y-109501D02*
G01X0140737Y-109501D01*
G01X0140737Y-109501D02*
G01X0140794Y-109520D01*
G01X0140794Y-109520D02*
G01X0140813Y-109540D01*
G01X0140965Y-109540D02*
G01X0140984Y-109520D01*
G01X0140984Y-109520D02*
G01X0141022Y-109501D01*
G01X0141022Y-109501D02*
G01X0141118Y-109501D01*
G01X0141118Y-109501D02*
G01X0141156Y-109520D01*
G01X0141156Y-109520D02*
G01X0141175Y-109540D01*
G01X0141175Y-109540D02*
G01X0141194Y-109578D01*
G01X0141194Y-109578D02*
G01X0141194Y-109616D01*
G01X0141194Y-109616D02*
G01X0141175Y-109673D01*
G01X0141175Y-109673D02*
G01X0140946Y-109901D01*
G01X0140946Y-109901D02*
G01X0141194Y-109901D01*
G54D18*
G01X0142351Y-109754D02*
G01X0142808Y-109754D01*
G01X0142580Y-109982D02*
G01X0142580Y-109525D01*
G54D21*
G01X0140365Y-107401D02*
G01X0140594Y-107401D01*
G01X0140480Y-107801D02*
G01X0140480Y-107401D01*
G01X0140727Y-107801D02*
G01X0140727Y-107401D01*
G01X0140727Y-107592D02*
G01X0140956Y-107592D01*
G01X0140956Y-107801D02*
G01X0140956Y-107401D01*
G01X0141356Y-107801D02*
G01X0141127Y-107801D01*
G01X0141241Y-107801D02*
G01X0141241Y-107401D01*
G01X0141241Y-107401D02*
G01X0141203Y-107459D01*
G01X0141203Y-107459D02*
G01X0141165Y-107497D01*
G01X0141165Y-107497D02*
G01X0141127Y-107516D01*
G54D18*
G01X0142351Y-107654D02*
G01X0142808Y-107654D01*
G01X0142580Y-107882D02*
G01X0142580Y-107425D01*
G54D26*
G01X0128919Y-112116D02*
G01X0128934Y-112129D01*
G01X0128934Y-112129D02*
G01X0128949Y-112169D01*
G01X0128949Y-112169D02*
G01X0128949Y-112196D01*
G01X0128949Y-112196D02*
G01X0128934Y-112236D01*
G01X0128934Y-112236D02*
G01X0128903Y-112263D01*
G01X0128903Y-112263D02*
G01X0128873Y-112276D01*
G01X0128873Y-112276D02*
G01X0128812Y-112289D01*
G01X0128812Y-112289D02*
G01X0128766Y-112289D01*
G01X0128766Y-112289D02*
G01X0128705Y-112276D01*
G01X0128705Y-112276D02*
G01X0128675Y-112263D01*
G01X0128675Y-112263D02*
G01X0128644Y-112236D01*
G01X0128644Y-112236D02*
G01X0128629Y-112196D01*
G01X0128629Y-112196D02*
G01X0128629Y-112169D01*
G01X0128629Y-112169D02*
G01X0128644Y-112129D01*
G01X0128644Y-112129D02*
G01X0128660Y-112116D01*
G01X0128629Y-111876D02*
G01X0128629Y-111929D01*
G01X0128629Y-111929D02*
G01X0128644Y-111956D01*
G01X0128644Y-111956D02*
G01X0128660Y-111969D01*
G01X0128660Y-111969D02*
G01X0128705Y-111996D01*
G01X0128705Y-111996D02*
G01X0128766Y-112009D01*
G01X0128766Y-112009D02*
G01X0128888Y-112009D01*
G01X0128888Y-112009D02*
G01X0128919Y-111996D01*
G01X0128919Y-111996D02*
G01X0128934Y-111983D01*
G01X0128934Y-111983D02*
G01X0128949Y-111956D01*
G01X0128949Y-111956D02*
G01X0128949Y-111903D01*
G01X0128949Y-111903D02*
G01X0128934Y-111876D01*
G01X0128934Y-111876D02*
G01X0128919Y-111863D01*
G01X0128919Y-111863D02*
G01X0128888Y-111849D01*
G01X0128888Y-111849D02*
G01X0128812Y-111849D01*
G01X0128812Y-111849D02*
G01X0128781Y-111863D01*
G01X0128781Y-111863D02*
G01X0128766Y-111876D01*
G01X0128766Y-111876D02*
G01X0128751Y-111903D01*
G01X0128751Y-111903D02*
G01X0128751Y-111956D01*
G01X0128751Y-111956D02*
G01X0128766Y-111983D01*
G01X0128766Y-111983D02*
G01X0128781Y-111996D01*
G01X0128781Y-111996D02*
G01X0128812Y-112009D01*
G01X0128949Y-110046D02*
G01X0128964Y-110059D01*
G01X0128964Y-110059D02*
G01X0128979Y-110099D01*
G01X0128979Y-110099D02*
G01X0128979Y-110126D01*
G01X0128979Y-110126D02*
G01X0128964Y-110166D01*
G01X0128964Y-110166D02*
G01X0128933Y-110193D01*
G01X0128933Y-110193D02*
G01X0128903Y-110206D01*
G01X0128903Y-110206D02*
G01X0128842Y-110219D01*
G01X0128842Y-110219D02*
G01X0128796Y-110219D01*
G01X0128796Y-110219D02*
G01X0128735Y-110206D01*
G01X0128735Y-110206D02*
G01X0128705Y-110193D01*
G01X0128705Y-110193D02*
G01X0128674Y-110166D01*
G01X0128674Y-110166D02*
G01X0128659Y-110126D01*
G01X0128659Y-110126D02*
G01X0128659Y-110099D01*
G01X0128659Y-110099D02*
G01X0128674Y-110059D01*
G01X0128674Y-110059D02*
G01X0128690Y-110046D01*
G01X0128796Y-109886D02*
G01X0128781Y-109913D01*
G01X0128781Y-109913D02*
G01X0128766Y-109926D01*
G01X0128766Y-109926D02*
G01X0128735Y-109939D01*
G01X0128735Y-109939D02*
G01X0128720Y-109939D01*
G01X0128720Y-109939D02*
G01X0128690Y-109926D01*
G01X0128690Y-109926D02*
G01X0128674Y-109913D01*
G01X0128674Y-109913D02*
G01X0128659Y-109886D01*
G01X0128659Y-109886D02*
G01X0128659Y-109833D01*
G01X0128659Y-109833D02*
G01X0128674Y-109806D01*
G01X0128674Y-109806D02*
G01X0128690Y-109793D01*
G01X0128690Y-109793D02*
G01X0128720Y-109779D01*
G01X0128720Y-109779D02*
G01X0128735Y-109779D01*
G01X0128735Y-109779D02*
G01X0128766Y-109793D01*
G01X0128766Y-109793D02*
G01X0128781Y-109806D01*
G01X0128781Y-109806D02*
G01X0128796Y-109833D01*
G01X0128796Y-109833D02*
G01X0128796Y-109886D01*
G01X0128796Y-109886D02*
G01X0128811Y-109913D01*
G01X0128811Y-109913D02*
G01X0128827Y-109926D01*
G01X0128827Y-109926D02*
G01X0128857Y-109939D01*
G01X0128857Y-109939D02*
G01X0128918Y-109939D01*
G01X0128918Y-109939D02*
G01X0128949Y-109926D01*
G01X0128949Y-109926D02*
G01X0128964Y-109913D01*
G01X0128964Y-109913D02*
G01X0128979Y-109886D01*
G01X0128979Y-109886D02*
G01X0128979Y-109833D01*
G01X0128979Y-109833D02*
G01X0128964Y-109806D01*
G01X0128964Y-109806D02*
G01X0128949Y-109793D01*
G01X0128949Y-109793D02*
G01X0128918Y-109779D01*
G01X0128918Y-109779D02*
G01X0128857Y-109779D01*
G01X0128857Y-109779D02*
G01X0128827Y-109793D01*
G01X0128827Y-109793D02*
G01X0128811Y-109806D01*
G01X0128811Y-109806D02*
G01X0128796Y-109833D01*
G54D14*
G01X0126461Y-113182D02*
G01X0126295Y-112944D01*
G01X0126175Y-113182D02*
G01X0126175Y-112682D01*
G01X0126175Y-112682D02*
G01X0126366Y-112682D01*
G01X0126366Y-112682D02*
G01X0126414Y-112706D01*
G01X0126414Y-112706D02*
G01X0126437Y-112730D01*
G01X0126437Y-112730D02*
G01X0126461Y-112777D01*
G01X0126461Y-112777D02*
G01X0126461Y-112849D01*
G01X0126461Y-112849D02*
G01X0126437Y-112896D01*
G01X0126437Y-112896D02*
G01X0126414Y-112920D01*
G01X0126414Y-112920D02*
G01X0126366Y-112944D01*
G01X0126366Y-112944D02*
G01X0126175Y-112944D01*
G01X0126699Y-113182D02*
G01X0126795Y-113182D01*
G01X0126795Y-113182D02*
G01X0126842Y-113158D01*
G01X0126842Y-113158D02*
G01X0126866Y-113134D01*
G01X0126866Y-113134D02*
G01X0126914Y-113063D01*
G01X0126914Y-113063D02*
G01X0126937Y-112968D01*
G01X0126937Y-112968D02*
G01X0126937Y-112777D01*
G01X0126937Y-112777D02*
G01X0126914Y-112730D01*
G01X0126914Y-112730D02*
G01X0126890Y-112706D01*
G01X0126890Y-112706D02*
G01X0126842Y-112682D01*
G01X0126842Y-112682D02*
G01X0126747Y-112682D01*
G01X0126747Y-112682D02*
G01X0126699Y-112706D01*
G01X0126699Y-112706D02*
G01X0126675Y-112730D01*
G01X0126675Y-112730D02*
G01X0126652Y-112777D01*
G01X0126652Y-112777D02*
G01X0126652Y-112896D01*
G01X0126652Y-112896D02*
G01X0126675Y-112944D01*
G01X0126675Y-112944D02*
G01X0126699Y-112968D01*
G01X0126699Y-112968D02*
G01X0126747Y-112991D01*
G01X0126747Y-112991D02*
G01X0126842Y-112991D01*
G01X0126842Y-112991D02*
G01X0126890Y-112968D01*
G01X0126890Y-112968D02*
G01X0126914Y-112944D01*
G01X0126914Y-112944D02*
G01X0126937Y-112896D01*
G01X0128818Y-108467D02*
G01X0128651Y-108229D01*
G01X0128532Y-108467D02*
G01X0128532Y-107967D01*
G01X0128532Y-107967D02*
G01X0128723Y-107967D01*
G01X0128723Y-107967D02*
G01X0128770Y-107991D01*
G01X0128770Y-107991D02*
G01X0128794Y-108015D01*
G01X0128794Y-108015D02*
G01X0128818Y-108062D01*
G01X0128818Y-108062D02*
G01X0128818Y-108134D01*
G01X0128818Y-108134D02*
G01X0128794Y-108181D01*
G01X0128794Y-108181D02*
G01X0128770Y-108205D01*
G01X0128770Y-108205D02*
G01X0128723Y-108229D01*
G01X0128723Y-108229D02*
G01X0128532Y-108229D01*
G01X0129294Y-108467D02*
G01X0129009Y-108467D01*
G01X0129151Y-108467D02*
G01X0129151Y-107967D01*
G01X0129151Y-107967D02*
G01X0129104Y-108038D01*
G01X0129104Y-108038D02*
G01X0129056Y-108086D01*
G01X0129056Y-108086D02*
G01X0129009Y-108110D01*
G01X0129770Y-108467D02*
G01X0129485Y-108467D01*
G01X0129628Y-108467D02*
G01X0129628Y-107967D01*
G01X0129628Y-107967D02*
G01X0129580Y-108038D01*
G01X0129580Y-108038D02*
G01X0129532Y-108086D01*
G01X0129532Y-108086D02*
G01X0129485Y-108110D01*
G01X0123817Y-110858D02*
G01X0123579Y-111025D01*
G01X0123817Y-111144D02*
G01X0123317Y-111144D01*
G01X0123317Y-111144D02*
G01X0123317Y-110953D01*
G01X0123317Y-110953D02*
G01X0123341Y-110905D01*
G01X0123341Y-110905D02*
G01X0123365Y-110882D01*
G01X0123365Y-110882D02*
G01X0123412Y-110858D01*
G01X0123412Y-110858D02*
G01X0123484Y-110858D01*
G01X0123484Y-110858D02*
G01X0123531Y-110882D01*
G01X0123531Y-110882D02*
G01X0123555Y-110905D01*
G01X0123555Y-110905D02*
G01X0123579Y-110953D01*
G01X0123579Y-110953D02*
G01X0123579Y-111144D01*
G01X0123317Y-110691D02*
G01X0123317Y-110358D01*
G01X0123317Y-110358D02*
G01X0123817Y-110572D01*
G01X0128702Y-107371D02*
G01X0128464Y-107538D01*
G01X0128702Y-107657D02*
G01X0128202Y-107657D01*
G01X0128202Y-107657D02*
G01X0128202Y-107466D01*
G01X0128202Y-107466D02*
G01X0128226Y-107419D01*
G01X0128226Y-107419D02*
G01X0128250Y-107395D01*
G01X0128250Y-107395D02*
G01X0128297Y-107371D01*
G01X0128297Y-107371D02*
G01X0128369Y-107371D01*
G01X0128369Y-107371D02*
G01X0128416Y-107395D01*
G01X0128416Y-107395D02*
G01X0128440Y-107419D01*
G01X0128440Y-107419D02*
G01X0128464Y-107466D01*
G01X0128464Y-107466D02*
G01X0128464Y-107657D01*
G01X0128702Y-106895D02*
G01X0128702Y-107180D01*
G01X0128702Y-107038D02*
G01X0128202Y-107038D01*
G01X0128202Y-107038D02*
G01X0128273Y-107085D01*
G01X0128273Y-107085D02*
G01X0128321Y-107133D01*
G01X0128321Y-107133D02*
G01X0128345Y-107180D01*
G01X0128202Y-106728D02*
G01X0128202Y-106419D01*
G01X0128202Y-106419D02*
G01X0128392Y-106585D01*
G01X0128392Y-106585D02*
G01X0128392Y-106514D01*
G01X0128392Y-106514D02*
G01X0128416Y-106466D01*
G01X0128416Y-106466D02*
G01X0128440Y-106442D01*
G01X0128440Y-106442D02*
G01X0128488Y-106419D01*
G01X0128488Y-106419D02*
G01X0128607Y-106419D01*
G01X0128607Y-106419D02*
G01X0128654Y-106442D01*
G01X0128654Y-106442D02*
G01X0128678Y-106466D01*
G01X0128678Y-106466D02*
G01X0128702Y-106514D01*
G01X0128702Y-106514D02*
G01X0128702Y-106657D01*
G01X0128702Y-106657D02*
G01X0128678Y-106704D01*
G01X0128678Y-106704D02*
G01X0128654Y-106728D01*
G01X0126452Y-107271D02*
G01X0126214Y-107438D01*
G01X0126452Y-107557D02*
G01X0125952Y-107557D01*
G01X0125952Y-107557D02*
G01X0125952Y-107366D01*
G01X0125952Y-107366D02*
G01X0125976Y-107319D01*
G01X0125976Y-107319D02*
G01X0126000Y-107295D01*
G01X0126000Y-107295D02*
G01X0126047Y-107271D01*
G01X0126047Y-107271D02*
G01X0126119Y-107271D01*
G01X0126119Y-107271D02*
G01X0126166Y-107295D01*
G01X0126166Y-107295D02*
G01X0126190Y-107319D01*
G01X0126190Y-107319D02*
G01X0126214Y-107366D01*
G01X0126214Y-107366D02*
G01X0126214Y-107557D01*
G01X0126452Y-106795D02*
G01X0126452Y-107080D01*
G01X0126452Y-106938D02*
G01X0125952Y-106938D01*
G01X0125952Y-106938D02*
G01X0126023Y-106985D01*
G01X0126023Y-106985D02*
G01X0126071Y-107033D01*
G01X0126071Y-107033D02*
G01X0126095Y-107080D01*
G01X0125952Y-106342D02*
G01X0125952Y-106580D01*
G01X0125952Y-106580D02*
G01X0126190Y-106604D01*
G01X0126190Y-106604D02*
G01X0126166Y-106580D01*
G01X0126166Y-106580D02*
G01X0126142Y-106533D01*
G01X0126142Y-106533D02*
G01X0126142Y-106414D01*
G01X0126142Y-106414D02*
G01X0126166Y-106366D01*
G01X0126166Y-106366D02*
G01X0126190Y-106342D01*
G01X0126190Y-106342D02*
G01X0126238Y-106319D01*
G01X0126238Y-106319D02*
G01X0126357Y-106319D01*
G01X0126357Y-106319D02*
G01X0126404Y-106342D01*
G01X0126404Y-106342D02*
G01X0126428Y-106366D01*
G01X0126428Y-106366D02*
G01X0126452Y-106414D01*
G01X0126452Y-106414D02*
G01X0126452Y-106533D01*
G01X0126452Y-106533D02*
G01X0126428Y-106580D01*
G01X0126428Y-106580D02*
G01X0126404Y-106604D01*
G54D35*
G01X0126298Y-094921D02*
G01X0126298Y-095164D01*
G01X0126298Y-095164D02*
G01X0126310Y-095192D01*
G01X0126310Y-095192D02*
G01X0126322Y-095207D01*
G01X0126322Y-095207D02*
G01X0126347Y-095221D01*
G01X0126347Y-095221D02*
G01X0126397Y-095221D01*
G01X0126397Y-095221D02*
G01X0126421Y-095207D01*
G01X0126421Y-095207D02*
G01X0126434Y-095192D01*
G01X0126434Y-095192D02*
G01X0126446Y-095164D01*
G01X0126446Y-095164D02*
G01X0126446Y-094921D01*
G01X0126706Y-095221D02*
G01X0126558Y-095221D01*
G01X0126632Y-095221D02*
G01X0126632Y-094921D01*
G01X0126632Y-094921D02*
G01X0126607Y-094964D01*
G01X0126607Y-094964D02*
G01X0126582Y-094992D01*
G01X0126582Y-094992D02*
G01X0126558Y-095007D01*
G01X0126867Y-094921D02*
G01X0126892Y-094921D01*
G01X0126892Y-094921D02*
G01X0126917Y-094935D01*
G01X0126917Y-094935D02*
G01X0126929Y-094950D01*
G01X0126929Y-094950D02*
G01X0126941Y-094978D01*
G01X0126941Y-094978D02*
G01X0126954Y-095035D01*
G01X0126954Y-095035D02*
G01X0126954Y-095107D01*
G01X0126954Y-095107D02*
G01X0126941Y-095164D01*
G01X0126941Y-095164D02*
G01X0126929Y-095192D01*
G01X0126929Y-095192D02*
G01X0126917Y-095207D01*
G01X0126917Y-095207D02*
G01X0126892Y-095221D01*
G01X0126892Y-095221D02*
G01X0126867Y-095221D01*
G01X0126867Y-095221D02*
G01X0126842Y-095207D01*
G01X0126842Y-095207D02*
G01X0126830Y-095192D01*
G01X0126830Y-095192D02*
G01X0126818Y-095164D01*
G01X0126818Y-095164D02*
G01X0126805Y-095107D01*
G01X0126805Y-095107D02*
G01X0126805Y-095035D01*
G01X0126805Y-095035D02*
G01X0126818Y-094978D01*
G01X0126818Y-094978D02*
G01X0126830Y-094950D01*
G01X0126830Y-094950D02*
G01X0126842Y-094935D01*
G01X0126842Y-094935D02*
G01X0126867Y-094921D01*
G54D23*
G01X0126171Y-097647D02*
G01X0126171Y-097487D01*
G01X0126171Y-097487D02*
G01X0126471Y-097589D01*
G01X0126271Y-097292D02*
G01X0126471Y-097292D01*
G01X0126157Y-097349D02*
G01X0126371Y-097407D01*
G01X0126371Y-097407D02*
G01X0126371Y-097258D01*
G01X0126471Y-097052D02*
G01X0126471Y-097167D01*
G01X0126471Y-097167D02*
G01X0126171Y-097167D01*
G01X0126171Y-097007D02*
G01X0126471Y-096927D01*
G01X0126471Y-096927D02*
G01X0126171Y-096847D01*
G01X0126442Y-096629D02*
G01X0126457Y-096641D01*
G01X0126457Y-096641D02*
G01X0126471Y-096675D01*
G01X0126471Y-096675D02*
G01X0126471Y-096698D01*
G01X0126471Y-096698D02*
G01X0126457Y-096732D01*
G01X0126457Y-096732D02*
G01X0126428Y-096755D01*
G01X0126428Y-096755D02*
G01X0126400Y-096767D01*
G01X0126400Y-096767D02*
G01X0126342Y-096778D01*
G01X0126342Y-096778D02*
G01X0126300Y-096778D01*
G01X0126300Y-096778D02*
G01X0126242Y-096767D01*
G01X0126242Y-096767D02*
G01X0126214Y-096755D01*
G01X0126214Y-096755D02*
G01X0126185Y-096732D01*
G01X0126185Y-096732D02*
G01X0126171Y-096698D01*
G01X0126171Y-096698D02*
G01X0126171Y-096675D01*
G01X0126171Y-096675D02*
G01X0126185Y-096641D01*
G01X0126185Y-096641D02*
G01X0126200Y-096629D01*
G01X0126200Y-096538D02*
G01X0126185Y-096527D01*
G01X0126185Y-096527D02*
G01X0126171Y-096504D01*
G01X0126171Y-096504D02*
G01X0126171Y-096447D01*
G01X0126171Y-096447D02*
G01X0126185Y-096424D01*
G01X0126185Y-096424D02*
G01X0126200Y-096412D01*
G01X0126200Y-096412D02*
G01X0126228Y-096401D01*
G01X0126228Y-096401D02*
G01X0126257Y-096401D01*
G01X0126257Y-096401D02*
G01X0126300Y-096412D01*
G01X0126300Y-096412D02*
G01X0126471Y-096549D01*
G01X0126471Y-096549D02*
G01X0126471Y-096401D01*
G01X0126271Y-096195D02*
G01X0126471Y-096195D01*
G01X0126157Y-096252D02*
G01X0126371Y-096310D01*
G01X0126371Y-096310D02*
G01X0126371Y-096161D01*
G01X0126171Y-095955D02*
G01X0126171Y-096070D01*
G01X0126171Y-096070D02*
G01X0126314Y-096081D01*
G01X0126314Y-096081D02*
G01X0126300Y-096070D01*
G01X0126300Y-096070D02*
G01X0126285Y-096047D01*
G01X0126285Y-096047D02*
G01X0126285Y-095990D01*
G01X0126285Y-095990D02*
G01X0126300Y-095967D01*
G01X0126300Y-095967D02*
G01X0126314Y-095955D01*
G01X0126314Y-095955D02*
G01X0126342Y-095944D01*
G01X0126342Y-095944D02*
G01X0126414Y-095944D01*
G01X0126414Y-095944D02*
G01X0126442Y-095955D01*
G01X0126442Y-095955D02*
G01X0126457Y-095967D01*
G01X0126457Y-095967D02*
G01X0126471Y-095990D01*
G01X0126471Y-095990D02*
G01X0126471Y-096047D01*
G01X0126471Y-096047D02*
G01X0126457Y-096070D01*
G01X0126457Y-096070D02*
G01X0126442Y-096081D01*
G54D26*
G01X0121429Y-094280D02*
G01X0121277Y-094373D01*
G01X0121429Y-094440D02*
G01X0121109Y-094440D01*
G01X0121109Y-094440D02*
G01X0121109Y-094333D01*
G01X0121109Y-094333D02*
G01X0121124Y-094306D01*
G01X0121124Y-094306D02*
G01X0121140Y-094293D01*
G01X0121140Y-094293D02*
G01X0121170Y-094280D01*
G01X0121170Y-094280D02*
G01X0121216Y-094280D01*
G01X0121216Y-094280D02*
G01X0121246Y-094293D01*
G01X0121246Y-094293D02*
G01X0121261Y-094306D01*
G01X0121261Y-094306D02*
G01X0121277Y-094333D01*
G01X0121277Y-094333D02*
G01X0121277Y-094440D01*
G01X0121140Y-094173D02*
G01X0121124Y-094160D01*
G01X0121124Y-094160D02*
G01X0121109Y-094133D01*
G01X0121109Y-094133D02*
G01X0121109Y-094066D01*
G01X0121109Y-094066D02*
G01X0121124Y-094040D01*
G01X0121124Y-094040D02*
G01X0121140Y-094026D01*
G01X0121140Y-094026D02*
G01X0121170Y-094013D01*
G01X0121170Y-094013D02*
G01X0121200Y-094013D01*
G01X0121200Y-094013D02*
G01X0121246Y-094026D01*
G01X0121246Y-094026D02*
G01X0121429Y-094186D01*
G01X0121429Y-094186D02*
G01X0121429Y-094013D01*
G01X0121429Y-093746D02*
G01X0121429Y-093906D01*
G01X0121429Y-093826D02*
G01X0121109Y-093826D01*
G01X0121109Y-093826D02*
G01X0121155Y-093853D01*
G01X0121155Y-093853D02*
G01X0121185Y-093880D01*
G01X0121185Y-093880D02*
G01X0121200Y-093906D01*
G01X0122720Y-093829D02*
G01X0122626Y-093677D01*
G01X0122560Y-093829D02*
G01X0122560Y-093509D01*
G01X0122560Y-093509D02*
G01X0122666Y-093509D01*
G01X0122666Y-093509D02*
G01X0122693Y-093524D01*
G01X0122693Y-093524D02*
G01X0122706Y-093540D01*
G01X0122706Y-093540D02*
G01X0122720Y-093570D01*
G01X0122720Y-093570D02*
G01X0122720Y-093616D01*
G01X0122720Y-093616D02*
G01X0122706Y-093646D01*
G01X0122706Y-093646D02*
G01X0122693Y-093661D01*
G01X0122693Y-093661D02*
G01X0122666Y-093677D01*
G01X0122666Y-093677D02*
G01X0122560Y-093677D01*
G01X0122826Y-093540D02*
G01X0122840Y-093524D01*
G01X0122840Y-093524D02*
G01X0122866Y-093509D01*
G01X0122866Y-093509D02*
G01X0122933Y-093509D01*
G01X0122933Y-093509D02*
G01X0122960Y-093524D01*
G01X0122960Y-093524D02*
G01X0122973Y-093540D01*
G01X0122973Y-093540D02*
G01X0122986Y-093570D01*
G01X0122986Y-093570D02*
G01X0122986Y-093600D01*
G01X0122986Y-093600D02*
G01X0122973Y-093646D01*
G01X0122973Y-093646D02*
G01X0122813Y-093829D01*
G01X0122813Y-093829D02*
G01X0122986Y-093829D01*
G01X0123240Y-093509D02*
G01X0123106Y-093509D01*
G01X0123106Y-093509D02*
G01X0123093Y-093661D01*
G01X0123093Y-093661D02*
G01X0123106Y-093646D01*
G01X0123106Y-093646D02*
G01X0123133Y-093631D01*
G01X0123133Y-093631D02*
G01X0123200Y-093631D01*
G01X0123200Y-093631D02*
G01X0123226Y-093646D01*
G01X0123226Y-093646D02*
G01X0123240Y-093661D01*
G01X0123240Y-093661D02*
G01X0123253Y-093692D01*
G01X0123253Y-093692D02*
G01X0123253Y-093768D01*
G01X0123253Y-093768D02*
G01X0123240Y-093799D01*
G01X0123240Y-093799D02*
G01X0123226Y-093814D01*
G01X0123226Y-093814D02*
G01X0123200Y-093829D01*
G01X0123200Y-093829D02*
G01X0123133Y-093829D01*
G01X0123133Y-093829D02*
G01X0123106Y-093814D01*
G01X0123106Y-093814D02*
G01X0123093Y-093799D01*
G01X0122720Y-091179D02*
G01X0122626Y-091027D01*
G01X0122560Y-091179D02*
G01X0122560Y-090859D01*
G01X0122560Y-090859D02*
G01X0122666Y-090859D01*
G01X0122666Y-090859D02*
G01X0122693Y-090874D01*
G01X0122693Y-090874D02*
G01X0122706Y-090890D01*
G01X0122706Y-090890D02*
G01X0122720Y-090920D01*
G01X0122720Y-090920D02*
G01X0122720Y-090966D01*
G01X0122720Y-090966D02*
G01X0122706Y-090996D01*
G01X0122706Y-090996D02*
G01X0122693Y-091011D01*
G01X0122693Y-091011D02*
G01X0122666Y-091027D01*
G01X0122666Y-091027D02*
G01X0122560Y-091027D01*
G01X0122826Y-090890D02*
G01X0122840Y-090874D01*
G01X0122840Y-090874D02*
G01X0122866Y-090859D01*
G01X0122866Y-090859D02*
G01X0122933Y-090859D01*
G01X0122933Y-090859D02*
G01X0122960Y-090874D01*
G01X0122960Y-090874D02*
G01X0122973Y-090890D01*
G01X0122973Y-090890D02*
G01X0122986Y-090920D01*
G01X0122986Y-090920D02*
G01X0122986Y-090950D01*
G01X0122986Y-090950D02*
G01X0122973Y-090996D01*
G01X0122973Y-090996D02*
G01X0122813Y-091179D01*
G01X0122813Y-091179D02*
G01X0122986Y-091179D01*
G01X0123226Y-090859D02*
G01X0123173Y-090859D01*
G01X0123173Y-090859D02*
G01X0123146Y-090874D01*
G01X0123146Y-090874D02*
G01X0123133Y-090890D01*
G01X0123133Y-090890D02*
G01X0123106Y-090935D01*
G01X0123106Y-090935D02*
G01X0123093Y-090996D01*
G01X0123093Y-090996D02*
G01X0123093Y-091118D01*
G01X0123093Y-091118D02*
G01X0123106Y-091149D01*
G01X0123106Y-091149D02*
G01X0123120Y-091164D01*
G01X0123120Y-091164D02*
G01X0123146Y-091179D01*
G01X0123146Y-091179D02*
G01X0123200Y-091179D01*
G01X0123200Y-091179D02*
G01X0123226Y-091164D01*
G01X0123226Y-091164D02*
G01X0123240Y-091149D01*
G01X0123240Y-091149D02*
G01X0123253Y-091118D01*
G01X0123253Y-091118D02*
G01X0123253Y-091042D01*
G01X0123253Y-091042D02*
G01X0123240Y-091011D01*
G01X0123240Y-091011D02*
G01X0123226Y-090996D01*
G01X0123226Y-090996D02*
G01X0123200Y-090981D01*
G01X0123200Y-090981D02*
G01X0123146Y-090981D01*
G01X0123146Y-090981D02*
G01X0123120Y-090996D01*
G01X0123120Y-090996D02*
G01X0123106Y-091011D01*
G01X0123106Y-091011D02*
G01X0123093Y-091042D01*
G01X0121429Y-092980D02*
G01X0121277Y-093073D01*
G01X0121429Y-093140D02*
G01X0121109Y-093140D01*
G01X0121109Y-093140D02*
G01X0121109Y-093033D01*
G01X0121109Y-093033D02*
G01X0121124Y-093006D01*
G01X0121124Y-093006D02*
G01X0121140Y-092993D01*
G01X0121140Y-092993D02*
G01X0121170Y-092980D01*
G01X0121170Y-092980D02*
G01X0121216Y-092980D01*
G01X0121216Y-092980D02*
G01X0121246Y-092993D01*
G01X0121246Y-092993D02*
G01X0121261Y-093006D01*
G01X0121261Y-093006D02*
G01X0121277Y-093033D01*
G01X0121277Y-093033D02*
G01X0121277Y-093140D01*
G01X0121429Y-092713D02*
G01X0121429Y-092873D01*
G01X0121429Y-092793D02*
G01X0121109Y-092793D01*
G01X0121109Y-092793D02*
G01X0121155Y-092820D01*
G01X0121155Y-092820D02*
G01X0121185Y-092846D01*
G01X0121185Y-092846D02*
G01X0121200Y-092873D01*
G01X0121109Y-092540D02*
G01X0121109Y-092513D01*
G01X0121109Y-092513D02*
G01X0121124Y-092486D01*
G01X0121124Y-092486D02*
G01X0121140Y-092473D01*
G01X0121140Y-092473D02*
G01X0121170Y-092460D01*
G01X0121170Y-092460D02*
G01X0121231Y-092446D01*
G01X0121231Y-092446D02*
G01X0121307Y-092446D01*
G01X0121307Y-092446D02*
G01X0121368Y-092460D01*
G01X0121368Y-092460D02*
G01X0121399Y-092473D01*
G01X0121399Y-092473D02*
G01X0121414Y-092486D01*
G01X0121414Y-092486D02*
G01X0121429Y-092513D01*
G01X0121429Y-092513D02*
G01X0121429Y-092540D01*
G01X0121429Y-092540D02*
G01X0121414Y-092566D01*
G01X0121414Y-092566D02*
G01X0121399Y-092580D01*
G01X0121399Y-092580D02*
G01X0121368Y-092593D01*
G01X0121368Y-092593D02*
G01X0121307Y-092606D01*
G01X0121307Y-092606D02*
G01X0121231Y-092606D01*
G01X0121231Y-092606D02*
G01X0121170Y-092593D01*
G01X0121170Y-092593D02*
G01X0121140Y-092580D01*
G01X0121140Y-092580D02*
G01X0121124Y-092566D01*
G01X0121124Y-092566D02*
G01X0121109Y-092540D01*
G01X0121470Y-091179D02*
G01X0121376Y-091027D01*
G01X0121310Y-091179D02*
G01X0121310Y-090859D01*
G01X0121310Y-090859D02*
G01X0121416Y-090859D01*
G01X0121416Y-090859D02*
G01X0121443Y-090874D01*
G01X0121443Y-090874D02*
G01X0121456Y-090890D01*
G01X0121456Y-090890D02*
G01X0121470Y-090920D01*
G01X0121470Y-090920D02*
G01X0121470Y-090966D01*
G01X0121470Y-090966D02*
G01X0121456Y-090996D01*
G01X0121456Y-090996D02*
G01X0121443Y-091011D01*
G01X0121443Y-091011D02*
G01X0121416Y-091027D01*
G01X0121416Y-091027D02*
G01X0121310Y-091027D01*
G01X0121736Y-091179D02*
G01X0121576Y-091179D01*
G01X0121656Y-091179D02*
G01X0121656Y-090859D01*
G01X0121656Y-090859D02*
G01X0121630Y-090905D01*
G01X0121630Y-090905D02*
G01X0121603Y-090935D01*
G01X0121603Y-090935D02*
G01X0121576Y-090950D01*
G01X0121843Y-090890D02*
G01X0121856Y-090874D01*
G01X0121856Y-090874D02*
G01X0121883Y-090859D01*
G01X0121883Y-090859D02*
G01X0121950Y-090859D01*
G01X0121950Y-090859D02*
G01X0121976Y-090874D01*
G01X0121976Y-090874D02*
G01X0121990Y-090890D01*
G01X0121990Y-090890D02*
G01X0122003Y-090920D01*
G01X0122003Y-090920D02*
G01X0122003Y-090950D01*
G01X0122003Y-090950D02*
G01X0121990Y-090996D01*
G01X0121990Y-090996D02*
G01X0121830Y-091179D01*
G01X0121830Y-091179D02*
G01X0122003Y-091179D01*
G54D36*
G01X0125045Y-090867D02*
G01X0125055Y-090877D01*
G01X0125055Y-090877D02*
G01X0125064Y-090905D01*
G01X0125064Y-090905D02*
G01X0125064Y-090923D01*
G01X0125064Y-090923D02*
G01X0125055Y-090952D01*
G01X0125055Y-090952D02*
G01X0125036Y-090970D01*
G01X0125036Y-090970D02*
G01X0125017Y-090980D01*
G01X0125017Y-090980D02*
G01X0124980Y-090989D01*
G01X0124980Y-090989D02*
G01X0124952Y-090989D01*
G01X0124952Y-090989D02*
G01X0124914Y-090980D01*
G01X0124914Y-090980D02*
G01X0124895Y-090970D01*
G01X0124895Y-090970D02*
G01X0124877Y-090952D01*
G01X0124877Y-090952D02*
G01X0124867Y-090923D01*
G01X0124867Y-090923D02*
G01X0124867Y-090905D01*
G01X0124867Y-090905D02*
G01X0124877Y-090877D01*
G01X0124877Y-090877D02*
G01X0124886Y-090867D01*
G01X0125064Y-090680D02*
G01X0125064Y-090792D01*
G01X0125064Y-090736D02*
G01X0124867Y-090736D01*
G01X0124867Y-090736D02*
G01X0124895Y-090755D01*
G01X0124895Y-090755D02*
G01X0124914Y-090773D01*
G01X0124914Y-090773D02*
G01X0124924Y-090792D01*
G01X0124867Y-090614D02*
G01X0124867Y-090483D01*
G01X0124867Y-090483D02*
G01X0125064Y-090567D01*
G01X0127549Y-091127D02*
G01X0127483Y-091033D01*
G01X0127436Y-091127D02*
G01X0127436Y-090930D01*
G01X0127436Y-090930D02*
G01X0127511Y-090930D01*
G01X0127511Y-090930D02*
G01X0127530Y-090940D01*
G01X0127530Y-090940D02*
G01X0127539Y-090949D01*
G01X0127539Y-090949D02*
G01X0127549Y-090968D01*
G01X0127549Y-090968D02*
G01X0127549Y-090996D01*
G01X0127549Y-090996D02*
G01X0127539Y-091015D01*
G01X0127539Y-091015D02*
G01X0127530Y-091024D01*
G01X0127530Y-091024D02*
G01X0127511Y-091033D01*
G01X0127511Y-091033D02*
G01X0127436Y-091033D01*
G01X0127624Y-090949D02*
G01X0127633Y-090940D01*
G01X0127633Y-090940D02*
G01X0127652Y-090930D01*
G01X0127652Y-090930D02*
G01X0127699Y-090930D01*
G01X0127699Y-090930D02*
G01X0127718Y-090940D01*
G01X0127718Y-090940D02*
G01X0127727Y-090949D01*
G01X0127727Y-090949D02*
G01X0127736Y-090968D01*
G01X0127736Y-090968D02*
G01X0127736Y-090987D01*
G01X0127736Y-090987D02*
G01X0127727Y-091015D01*
G01X0127727Y-091015D02*
G01X0127615Y-091127D01*
G01X0127615Y-091127D02*
G01X0127736Y-091127D01*
G01X0127849Y-091015D02*
G01X0127830Y-091005D01*
G01X0127830Y-091005D02*
G01X0127821Y-090996D01*
G01X0127821Y-090996D02*
G01X0127812Y-090977D01*
G01X0127812Y-090977D02*
G01X0127812Y-090968D01*
G01X0127812Y-090968D02*
G01X0127821Y-090949D01*
G01X0127821Y-090949D02*
G01X0127830Y-090940D01*
G01X0127830Y-090940D02*
G01X0127849Y-090930D01*
G01X0127849Y-090930D02*
G01X0127887Y-090930D01*
G01X0127887Y-090930D02*
G01X0127905Y-090940D01*
G01X0127905Y-090940D02*
G01X0127915Y-090949D01*
G01X0127915Y-090949D02*
G01X0127924Y-090968D01*
G01X0127924Y-090968D02*
G01X0127924Y-090977D01*
G01X0127924Y-090977D02*
G01X0127915Y-090996D01*
G01X0127915Y-090996D02*
G01X0127905Y-091005D01*
G01X0127905Y-091005D02*
G01X0127887Y-091015D01*
G01X0127887Y-091015D02*
G01X0127849Y-091015D01*
G01X0127849Y-091015D02*
G01X0127830Y-091024D01*
G01X0127830Y-091024D02*
G01X0127821Y-091033D01*
G01X0127821Y-091033D02*
G01X0127812Y-091052D01*
G01X0127812Y-091052D02*
G01X0127812Y-091090D01*
G01X0127812Y-091090D02*
G01X0127821Y-091108D01*
G01X0127821Y-091108D02*
G01X0127830Y-091118D01*
G01X0127830Y-091118D02*
G01X0127849Y-091127D01*
G01X0127849Y-091127D02*
G01X0127887Y-091127D01*
G01X0127887Y-091127D02*
G01X0127905Y-091118D01*
G01X0127905Y-091118D02*
G01X0127915Y-091108D01*
G01X0127915Y-091108D02*
G01X0127924Y-091090D01*
G01X0127924Y-091090D02*
G01X0127924Y-091052D01*
G01X0127924Y-091052D02*
G01X0127915Y-091033D01*
G01X0127915Y-091033D02*
G01X0127905Y-091024D01*
G01X0127905Y-091024D02*
G01X0127887Y-091015D01*
G01X0123725Y-091448D02*
G01X0123715Y-091458D01*
G01X0123715Y-091458D02*
G01X0123687Y-091467D01*
G01X0123687Y-091467D02*
G01X0123669Y-091467D01*
G01X0123669Y-091467D02*
G01X0123640Y-091458D01*
G01X0123640Y-091458D02*
G01X0123622Y-091439D01*
G01X0123622Y-091439D02*
G01X0123612Y-091420D01*
G01X0123612Y-091420D02*
G01X0123603Y-091383D01*
G01X0123603Y-091383D02*
G01X0123603Y-091355D01*
G01X0123603Y-091355D02*
G01X0123612Y-091317D01*
G01X0123612Y-091317D02*
G01X0123622Y-091298D01*
G01X0123622Y-091298D02*
G01X0123640Y-091280D01*
G01X0123640Y-091280D02*
G01X0123669Y-091270D01*
G01X0123669Y-091270D02*
G01X0123687Y-091270D01*
G01X0123687Y-091270D02*
G01X0123715Y-091280D01*
G01X0123715Y-091280D02*
G01X0123725Y-091289D01*
G01X0123912Y-091467D02*
G01X0123800Y-091467D01*
G01X0123856Y-091467D02*
G01X0123856Y-091270D01*
G01X0123856Y-091270D02*
G01X0123837Y-091298D01*
G01X0123837Y-091298D02*
G01X0123819Y-091317D01*
G01X0123819Y-091317D02*
G01X0123800Y-091327D01*
G01X0124091Y-091270D02*
G01X0123997Y-091270D01*
G01X0123997Y-091270D02*
G01X0123988Y-091364D01*
G01X0123988Y-091364D02*
G01X0123997Y-091355D01*
G01X0123997Y-091355D02*
G01X0124016Y-091345D01*
G01X0124016Y-091345D02*
G01X0124063Y-091345D01*
G01X0124063Y-091345D02*
G01X0124081Y-091355D01*
G01X0124081Y-091355D02*
G01X0124091Y-091364D01*
G01X0124091Y-091364D02*
G01X0124100Y-091383D01*
G01X0124100Y-091383D02*
G01X0124100Y-091430D01*
G01X0124100Y-091430D02*
G01X0124091Y-091448D01*
G01X0124091Y-091448D02*
G01X0124081Y-091458D01*
G01X0124081Y-091458D02*
G01X0124063Y-091467D01*
G01X0124063Y-091467D02*
G01X0124016Y-091467D01*
G01X0124016Y-091467D02*
G01X0123997Y-091458D01*
G01X0123997Y-091458D02*
G01X0123988Y-091448D01*
G01X0127070Y-090902D02*
G01X0127080Y-090912D01*
G01X0127080Y-090912D02*
G01X0127089Y-090940D01*
G01X0127089Y-090940D02*
G01X0127089Y-090958D01*
G01X0127089Y-090958D02*
G01X0127080Y-090987D01*
G01X0127080Y-090987D02*
G01X0127061Y-091005D01*
G01X0127061Y-091005D02*
G01X0127042Y-091015D01*
G01X0127042Y-091015D02*
G01X0127005Y-091024D01*
G01X0127005Y-091024D02*
G01X0126977Y-091024D01*
G01X0126977Y-091024D02*
G01X0126939Y-091015D01*
G01X0126939Y-091015D02*
G01X0126920Y-091005D01*
G01X0126920Y-091005D02*
G01X0126902Y-090987D01*
G01X0126902Y-090987D02*
G01X0126892Y-090958D01*
G01X0126892Y-090958D02*
G01X0126892Y-090940D01*
G01X0126892Y-090940D02*
G01X0126902Y-090912D01*
G01X0126902Y-090912D02*
G01X0126911Y-090902D01*
G01X0127089Y-090715D02*
G01X0127089Y-090827D01*
G01X0127089Y-090771D02*
G01X0126892Y-090771D01*
G01X0126892Y-090771D02*
G01X0126920Y-090790D01*
G01X0126920Y-090790D02*
G01X0126939Y-090808D01*
G01X0126939Y-090808D02*
G01X0126949Y-090827D01*
G01X0126892Y-090546D02*
G01X0126892Y-090583D01*
G01X0126892Y-090583D02*
G01X0126902Y-090602D01*
G01X0126902Y-090602D02*
G01X0126911Y-090611D01*
G01X0126911Y-090611D02*
G01X0126939Y-090630D01*
G01X0126939Y-090630D02*
G01X0126977Y-090639D01*
G01X0126977Y-090639D02*
G01X0127052Y-090639D01*
G01X0127052Y-090639D02*
G01X0127070Y-090630D01*
G01X0127070Y-090630D02*
G01X0127080Y-090621D01*
G01X0127080Y-090621D02*
G01X0127089Y-090602D01*
G01X0127089Y-090602D02*
G01X0127089Y-090564D01*
G01X0127089Y-090564D02*
G01X0127080Y-090546D01*
G01X0127080Y-090546D02*
G01X0127070Y-090536D01*
G01X0127070Y-090536D02*
G01X0127052Y-090527D01*
G01X0127052Y-090527D02*
G01X0127005Y-090527D01*
G01X0127005Y-090527D02*
G01X0126986Y-090536D01*
G01X0126986Y-090536D02*
G01X0126977Y-090546D01*
G01X0126977Y-090546D02*
G01X0126967Y-090564D01*
G01X0126967Y-090564D02*
G01X0126967Y-090602D01*
G01X0126967Y-090602D02*
G01X0126977Y-090621D01*
G01X0126977Y-090621D02*
G01X0126986Y-090630D01*
G01X0126986Y-090630D02*
G01X0127005Y-090639D01*
G01X0123789Y-093681D02*
G01X0123779Y-093691D01*
G01X0123779Y-093691D02*
G01X0123751Y-093700D01*
G01X0123751Y-093700D02*
G01X0123732Y-093700D01*
G01X0123732Y-093700D02*
G01X0123704Y-093691D01*
G01X0123704Y-093691D02*
G01X0123685Y-093672D01*
G01X0123685Y-093672D02*
G01X0123676Y-093653D01*
G01X0123676Y-093653D02*
G01X0123667Y-093616D01*
G01X0123667Y-093616D02*
G01X0123667Y-093588D01*
G01X0123667Y-093588D02*
G01X0123676Y-093550D01*
G01X0123676Y-093550D02*
G01X0123685Y-093531D01*
G01X0123685Y-093531D02*
G01X0123704Y-093513D01*
G01X0123704Y-093513D02*
G01X0123732Y-093503D01*
G01X0123732Y-093503D02*
G01X0123751Y-093503D01*
G01X0123751Y-093503D02*
G01X0123779Y-093513D01*
G01X0123779Y-093513D02*
G01X0123789Y-093522D01*
G01X0123882Y-093700D02*
G01X0123920Y-093700D01*
G01X0123920Y-093700D02*
G01X0123939Y-093691D01*
G01X0123939Y-093691D02*
G01X0123948Y-093681D01*
G01X0123948Y-093681D02*
G01X0123967Y-093653D01*
G01X0123967Y-093653D02*
G01X0123976Y-093616D01*
G01X0123976Y-093616D02*
G01X0123976Y-093541D01*
G01X0123976Y-093541D02*
G01X0123967Y-093522D01*
G01X0123967Y-093522D02*
G01X0123958Y-093513D01*
G01X0123958Y-093513D02*
G01X0123939Y-093503D01*
G01X0123939Y-093503D02*
G01X0123901Y-093503D01*
G01X0123901Y-093503D02*
G01X0123882Y-093513D01*
G01X0123882Y-093513D02*
G01X0123873Y-093522D01*
G01X0123873Y-093522D02*
G01X0123864Y-093541D01*
G01X0123864Y-093541D02*
G01X0123864Y-093588D01*
G01X0123864Y-093588D02*
G01X0123873Y-093606D01*
G01X0123873Y-093606D02*
G01X0123882Y-093616D01*
G01X0123882Y-093616D02*
G01X0123901Y-093625D01*
G01X0123901Y-093625D02*
G01X0123939Y-093625D01*
G01X0123939Y-093625D02*
G01X0123958Y-093616D01*
G01X0123958Y-093616D02*
G01X0123967Y-093606D01*
G01X0123967Y-093606D02*
G01X0123976Y-093588D01*
G01X0127527Y-094165D02*
G01X0127461Y-094071D01*
G01X0127414Y-094165D02*
G01X0127414Y-093968D01*
G01X0127414Y-093968D02*
G01X0127489Y-093968D01*
G01X0127489Y-093968D02*
G01X0127508Y-093978D01*
G01X0127508Y-093978D02*
G01X0127517Y-093987D01*
G01X0127517Y-093987D02*
G01X0127527Y-094006D01*
G01X0127527Y-094006D02*
G01X0127527Y-094034D01*
G01X0127527Y-094034D02*
G01X0127517Y-094053D01*
G01X0127517Y-094053D02*
G01X0127508Y-094062D01*
G01X0127508Y-094062D02*
G01X0127489Y-094071D01*
G01X0127489Y-094071D02*
G01X0127414Y-094071D01*
G01X0127602Y-093987D02*
G01X0127611Y-093978D01*
G01X0127611Y-093978D02*
G01X0127630Y-093968D01*
G01X0127630Y-093968D02*
G01X0127677Y-093968D01*
G01X0127677Y-093968D02*
G01X0127696Y-093978D01*
G01X0127696Y-093978D02*
G01X0127705Y-093987D01*
G01X0127705Y-093987D02*
G01X0127714Y-094006D01*
G01X0127714Y-094006D02*
G01X0127714Y-094025D01*
G01X0127714Y-094025D02*
G01X0127705Y-094053D01*
G01X0127705Y-094053D02*
G01X0127593Y-094165D01*
G01X0127593Y-094165D02*
G01X0127714Y-094165D01*
G01X0127780Y-093968D02*
G01X0127911Y-093968D01*
G01X0127911Y-093968D02*
G01X0127827Y-094165D01*
G54D28*
G01X0138214Y-110118D02*
G01X0138238Y-110142D01*
G01X0138238Y-110142D02*
G01X0138262Y-110213D01*
G01X0138262Y-110213D02*
G01X0138262Y-110261D01*
G01X0138262Y-110261D02*
G01X0138238Y-110332D01*
G01X0138238Y-110332D02*
G01X0138190Y-110380D01*
G01X0138190Y-110380D02*
G01X0138143Y-110404D01*
G01X0138143Y-110404D02*
G01X0138048Y-110427D01*
G01X0138048Y-110427D02*
G01X0137976Y-110427D01*
G01X0137976Y-110427D02*
G01X0137881Y-110404D01*
G01X0137881Y-110404D02*
G01X0137833Y-110380D01*
G01X0137833Y-110380D02*
G01X0137786Y-110332D01*
G01X0137786Y-110332D02*
G01X0137762Y-110261D01*
G01X0137762Y-110261D02*
G01X0137762Y-110213D01*
G01X0137762Y-110213D02*
G01X0137786Y-110142D01*
G01X0137786Y-110142D02*
G01X0137810Y-110118D01*
G01X0138262Y-109642D02*
G01X0138262Y-109927D01*
G01X0138262Y-109785D02*
G01X0137762Y-109785D01*
G01X0137762Y-109785D02*
G01X0137833Y-109832D01*
G01X0137833Y-109832D02*
G01X0137881Y-109880D01*
G01X0137881Y-109880D02*
G01X0137905Y-109927D01*
G01X0138711Y-110228D02*
G01X0138711Y-109847D01*
G01X0138902Y-110038D02*
G01X0138521Y-110038D01*
G54D14*
G01X0125439Y-092358D02*
G01X0125439Y-092763D01*
G01X0125439Y-092763D02*
G01X0125462Y-092810D01*
G01X0125462Y-092810D02*
G01X0125486Y-092834D01*
G01X0125486Y-092834D02*
G01X0125534Y-092858D01*
G01X0125534Y-092858D02*
G01X0125629Y-092858D01*
G01X0125629Y-092858D02*
G01X0125677Y-092834D01*
G01X0125677Y-092834D02*
G01X0125700Y-092810D01*
G01X0125700Y-092810D02*
G01X0125724Y-092763D01*
G01X0125724Y-092763D02*
G01X0125724Y-092358D01*
G01X0126177Y-092358D02*
G01X0126081Y-092358D01*
G01X0126081Y-092358D02*
G01X0126034Y-092382D01*
G01X0126034Y-092382D02*
G01X0126010Y-092406D01*
G01X0126010Y-092406D02*
G01X0125962Y-092477D01*
G01X0125962Y-092477D02*
G01X0125939Y-092572D01*
G01X0125939Y-092572D02*
G01X0125939Y-092763D01*
G01X0125939Y-092763D02*
G01X0125962Y-092810D01*
G01X0125962Y-092810D02*
G01X0125986Y-092834D01*
G01X0125986Y-092834D02*
G01X0126034Y-092858D01*
G01X0126034Y-092858D02*
G01X0126129Y-092858D01*
G01X0126129Y-092858D02*
G01X0126177Y-092834D01*
G01X0126177Y-092834D02*
G01X0126200Y-092810D01*
G01X0126200Y-092810D02*
G01X0126224Y-092763D01*
G01X0126224Y-092763D02*
G01X0126224Y-092644D01*
G01X0126224Y-092644D02*
G01X0126200Y-092596D01*
G01X0126200Y-092596D02*
G01X0126177Y-092572D01*
G01X0126177Y-092572D02*
G01X0126129Y-092548D01*
G01X0126129Y-092548D02*
G01X0126034Y-092548D01*
G01X0126034Y-092548D02*
G01X0125986Y-092572D01*
G01X0125986Y-092572D02*
G01X0125962Y-092596D01*
G01X0125962Y-092596D02*
G01X0125939Y-092644D01*
G54D26*
G01X0123170Y-088729D02*
G01X0123076Y-088577D01*
G01X0123010Y-088729D02*
G01X0123010Y-088409D01*
G01X0123010Y-088409D02*
G01X0123116Y-088409D01*
G01X0123116Y-088409D02*
G01X0123143Y-088424D01*
G01X0123143Y-088424D02*
G01X0123156Y-088440D01*
G01X0123156Y-088440D02*
G01X0123170Y-088470D01*
G01X0123170Y-088470D02*
G01X0123170Y-088516D01*
G01X0123170Y-088516D02*
G01X0123156Y-088546D01*
G01X0123156Y-088546D02*
G01X0123143Y-088561D01*
G01X0123143Y-088561D02*
G01X0123116Y-088577D01*
G01X0123116Y-088577D02*
G01X0123010Y-088577D01*
G01X0123436Y-088729D02*
G01X0123276Y-088729D01*
G01X0123356Y-088729D02*
G01X0123356Y-088409D01*
G01X0123356Y-088409D02*
G01X0123330Y-088455D01*
G01X0123330Y-088455D02*
G01X0123303Y-088485D01*
G01X0123303Y-088485D02*
G01X0123276Y-088500D01*
G01X0123676Y-088516D02*
G01X0123676Y-088729D01*
G01X0123610Y-088394D02*
G01X0123543Y-088622D01*
G01X0123543Y-088622D02*
G01X0123716Y-088622D01*
G54D14*
G01X0140630Y-112677D02*
G01X0140630Y-112177D01*
G01X0140630Y-112177D02*
G01X0140750Y-112177D01*
G01X0140750Y-112177D02*
G01X0140821Y-112201D01*
G01X0140821Y-112201D02*
G01X0140869Y-112248D01*
G01X0140869Y-112248D02*
G01X0140892Y-112296D01*
G01X0140892Y-112296D02*
G01X0140916Y-112391D01*
G01X0140916Y-112391D02*
G01X0140916Y-112463D01*
G01X0140916Y-112463D02*
G01X0140892Y-112558D01*
G01X0140892Y-112558D02*
G01X0140869Y-112605D01*
G01X0140869Y-112605D02*
G01X0140821Y-112653D01*
G01X0140821Y-112653D02*
G01X0140750Y-112677D01*
G01X0140750Y-112677D02*
G01X0140630Y-112677D01*
G01X0141083Y-112177D02*
G01X0141392Y-112177D01*
G01X0141392Y-112177D02*
G01X0141226Y-112367D01*
G01X0141226Y-112367D02*
G01X0141297Y-112367D01*
G01X0141297Y-112367D02*
G01X0141345Y-112391D01*
G01X0141345Y-112391D02*
G01X0141369Y-112415D01*
G01X0141369Y-112415D02*
G01X0141392Y-112463D01*
G01X0141392Y-112463D02*
G01X0141392Y-112582D01*
G01X0141392Y-112582D02*
G01X0141369Y-112629D01*
G01X0141369Y-112629D02*
G01X0141345Y-112653D01*
G01X0141345Y-112653D02*
G01X0141297Y-112677D01*
G01X0141297Y-112677D02*
G01X0141154Y-112677D01*
G01X0141154Y-112677D02*
G01X0141107Y-112653D01*
G01X0141107Y-112653D02*
G01X0141083Y-112629D01*
G54D19*
G01X0143107Y-096941D02*
G01X0143007Y-096775D01*
G01X0142935Y-096941D02*
G01X0142935Y-096591D01*
G01X0142935Y-096591D02*
G01X0143050Y-096591D01*
G01X0143050Y-096591D02*
G01X0143078Y-096608D01*
G01X0143078Y-096608D02*
G01X0143092Y-096625D01*
G01X0143092Y-096625D02*
G01X0143107Y-096658D01*
G01X0143107Y-096658D02*
G01X0143107Y-096708D01*
G01X0143107Y-096708D02*
G01X0143092Y-096741D01*
G01X0143092Y-096741D02*
G01X0143078Y-096758D01*
G01X0143078Y-096758D02*
G01X0143050Y-096775D01*
G01X0143050Y-096775D02*
G01X0142935Y-096775D01*
G01X0143392Y-096941D02*
G01X0143221Y-096941D01*
G01X0143307Y-096941D02*
G01X0143307Y-096591D01*
G01X0143307Y-096591D02*
G01X0143278Y-096641D01*
G01X0143278Y-096641D02*
G01X0143250Y-096675D01*
G01X0143250Y-096675D02*
G01X0143221Y-096691D01*
G01X0143650Y-096591D02*
G01X0143592Y-096591D01*
G01X0143592Y-096591D02*
G01X0143564Y-096608D01*
G01X0143564Y-096608D02*
G01X0143550Y-096625D01*
G01X0143550Y-096625D02*
G01X0143521Y-096675D01*
G01X0143521Y-096675D02*
G01X0143507Y-096741D01*
G01X0143507Y-096741D02*
G01X0143507Y-096875D01*
G01X0143507Y-096875D02*
G01X0143521Y-096908D01*
G01X0143521Y-096908D02*
G01X0143535Y-096925D01*
G01X0143535Y-096925D02*
G01X0143564Y-096941D01*
G01X0143564Y-096941D02*
G01X0143621Y-096941D01*
G01X0143621Y-096941D02*
G01X0143650Y-096925D01*
G01X0143650Y-096925D02*
G01X0143664Y-096908D01*
G01X0143664Y-096908D02*
G01X0143678Y-096875D01*
G01X0143678Y-096875D02*
G01X0143678Y-096791D01*
G01X0143678Y-096791D02*
G01X0143664Y-096758D01*
G01X0143664Y-096758D02*
G01X0143650Y-096741D01*
G01X0143650Y-096741D02*
G01X0143621Y-096725D01*
G01X0143621Y-096725D02*
G01X0143564Y-096725D01*
G01X0143564Y-096725D02*
G01X0143535Y-096741D01*
G01X0143535Y-096741D02*
G01X0143521Y-096758D01*
G01X0143521Y-096758D02*
G01X0143507Y-096791D01*
G54D10*
G01X0141060Y-093823D02*
G01X0141060Y-093614D01*
G01X0141165Y-093719D02*
G01X0140955Y-093719D01*
G54D19*
G01X0142537Y-100651D02*
G01X0142437Y-100485D01*
G01X0142365Y-100651D02*
G01X0142365Y-100301D01*
G01X0142365Y-100301D02*
G01X0142480Y-100301D01*
G01X0142480Y-100301D02*
G01X0142508Y-100318D01*
G01X0142508Y-100318D02*
G01X0142522Y-100335D01*
G01X0142522Y-100335D02*
G01X0142537Y-100368D01*
G01X0142537Y-100368D02*
G01X0142537Y-100418D01*
G01X0142537Y-100418D02*
G01X0142522Y-100451D01*
G01X0142522Y-100451D02*
G01X0142508Y-100468D01*
G01X0142508Y-100468D02*
G01X0142480Y-100485D01*
G01X0142480Y-100485D02*
G01X0142365Y-100485D01*
G01X0142822Y-100651D02*
G01X0142651Y-100651D01*
G01X0142737Y-100651D02*
G01X0142737Y-100301D01*
G01X0142737Y-100301D02*
G01X0142708Y-100351D01*
G01X0142708Y-100351D02*
G01X0142680Y-100385D01*
G01X0142680Y-100385D02*
G01X0142651Y-100401D01*
G01X0142922Y-100301D02*
G01X0143122Y-100301D01*
G01X0143122Y-100301D02*
G01X0142994Y-100651D01*
G01X0142431Y-099461D02*
G01X0142260Y-099461D01*
G01X0142345Y-099461D02*
G01X0142345Y-099111D01*
G01X0142345Y-099111D02*
G01X0142317Y-099161D01*
G01X0142317Y-099161D02*
G01X0142288Y-099195D01*
G01X0142288Y-099195D02*
G01X0142260Y-099211D01*
G01X0142560Y-099461D02*
G01X0142560Y-099111D01*
G01X0142560Y-099111D02*
G01X0142660Y-099361D01*
G01X0142660Y-099361D02*
G01X0142760Y-099111D01*
G01X0142760Y-099111D02*
G01X0142760Y-099461D01*
G01X0143045Y-099111D02*
G01X0142902Y-099111D01*
G01X0142902Y-099111D02*
G01X0142888Y-099278D01*
G01X0142888Y-099278D02*
G01X0142902Y-099261D01*
G01X0142902Y-099261D02*
G01X0142931Y-099245D01*
G01X0142931Y-099245D02*
G01X0143002Y-099245D01*
G01X0143002Y-099245D02*
G01X0143031Y-099261D01*
G01X0143031Y-099261D02*
G01X0143045Y-099278D01*
G01X0143045Y-099278D02*
G01X0143060Y-099311D01*
G01X0143060Y-099311D02*
G01X0143060Y-099395D01*
G01X0143060Y-099395D02*
G01X0143045Y-099428D01*
G01X0143045Y-099428D02*
G01X0143031Y-099445D01*
G01X0143031Y-099445D02*
G01X0143002Y-099461D01*
G01X0143002Y-099461D02*
G01X0142931Y-099461D01*
G01X0142931Y-099461D02*
G01X0142902Y-099445D01*
G01X0142902Y-099445D02*
G01X0142888Y-099428D01*
G54D10*
G01X0140734Y-100232D02*
G01X0140943Y-100232D01*
G01X0140839Y-100337D02*
G01X0140839Y-100127D01*
G54D36*
G01X0137749Y-099891D02*
G01X0137655Y-099957D01*
G01X0137749Y-100004D02*
G01X0137552Y-100004D01*
G01X0137552Y-100004D02*
G01X0137552Y-099929D01*
G01X0137552Y-099929D02*
G01X0137562Y-099910D01*
G01X0137562Y-099910D02*
G01X0137571Y-099901D01*
G01X0137571Y-099901D02*
G01X0137590Y-099891D01*
G01X0137590Y-099891D02*
G01X0137618Y-099891D01*
G01X0137618Y-099891D02*
G01X0137637Y-099901D01*
G01X0137637Y-099901D02*
G01X0137646Y-099910D01*
G01X0137646Y-099910D02*
G01X0137655Y-099929D01*
G01X0137655Y-099929D02*
G01X0137655Y-100004D01*
G01X0137749Y-099704D02*
G01X0137749Y-099816D01*
G01X0137749Y-099760D02*
G01X0137552Y-099760D01*
G01X0137552Y-099760D02*
G01X0137580Y-099779D01*
G01X0137580Y-099779D02*
G01X0137599Y-099797D01*
G01X0137599Y-099797D02*
G01X0137609Y-099816D01*
G01X0137637Y-099591D02*
G01X0137627Y-099610D01*
G01X0137627Y-099610D02*
G01X0137618Y-099619D01*
G01X0137618Y-099619D02*
G01X0137599Y-099628D01*
G01X0137599Y-099628D02*
G01X0137590Y-099628D01*
G01X0137590Y-099628D02*
G01X0137571Y-099619D01*
G01X0137571Y-099619D02*
G01X0137562Y-099610D01*
G01X0137562Y-099610D02*
G01X0137552Y-099591D01*
G01X0137552Y-099591D02*
G01X0137552Y-099553D01*
G01X0137552Y-099553D02*
G01X0137562Y-099535D01*
G01X0137562Y-099535D02*
G01X0137571Y-099525D01*
G01X0137571Y-099525D02*
G01X0137590Y-099516D01*
G01X0137590Y-099516D02*
G01X0137599Y-099516D01*
G01X0137599Y-099516D02*
G01X0137618Y-099525D01*
G01X0137618Y-099525D02*
G01X0137627Y-099535D01*
G01X0137627Y-099535D02*
G01X0137637Y-099553D01*
G01X0137637Y-099553D02*
G01X0137637Y-099591D01*
G01X0137637Y-099591D02*
G01X0137646Y-099610D01*
G01X0137646Y-099610D02*
G01X0137655Y-099619D01*
G01X0137655Y-099619D02*
G01X0137674Y-099628D01*
G01X0137674Y-099628D02*
G01X0137712Y-099628D01*
G01X0137712Y-099628D02*
G01X0137730Y-099619D01*
G01X0137730Y-099619D02*
G01X0137740Y-099610D01*
G01X0137740Y-099610D02*
G01X0137749Y-099591D01*
G01X0137749Y-099591D02*
G01X0137749Y-099553D01*
G01X0137749Y-099553D02*
G01X0137740Y-099535D01*
G01X0137740Y-099535D02*
G01X0137730Y-099525D01*
G01X0137730Y-099525D02*
G01X0137712Y-099516D01*
G01X0137712Y-099516D02*
G01X0137674Y-099516D01*
G01X0137674Y-099516D02*
G01X0137655Y-099525D01*
G01X0137655Y-099525D02*
G01X0137646Y-099535D01*
G01X0137646Y-099535D02*
G01X0137637Y-099553D01*
G01X0141588Y-097590D02*
G01X0141578Y-097600D01*
G01X0141578Y-097600D02*
G01X0141550Y-097609D01*
G01X0141550Y-097609D02*
G01X0141532Y-097609D01*
G01X0141532Y-097609D02*
G01X0141503Y-097600D01*
G01X0141503Y-097600D02*
G01X0141485Y-097581D01*
G01X0141485Y-097581D02*
G01X0141475Y-097562D01*
G01X0141475Y-097562D02*
G01X0141466Y-097525D01*
G01X0141466Y-097525D02*
G01X0141466Y-097497D01*
G01X0141466Y-097497D02*
G01X0141475Y-097459D01*
G01X0141475Y-097459D02*
G01X0141485Y-097440D01*
G01X0141485Y-097440D02*
G01X0141503Y-097422D01*
G01X0141503Y-097422D02*
G01X0141532Y-097412D01*
G01X0141532Y-097412D02*
G01X0141550Y-097412D01*
G01X0141550Y-097412D02*
G01X0141578Y-097422D01*
G01X0141578Y-097422D02*
G01X0141588Y-097431D01*
G01X0141775Y-097609D02*
G01X0141663Y-097609D01*
G01X0141719Y-097609D02*
G01X0141719Y-097412D01*
G01X0141719Y-097412D02*
G01X0141700Y-097440D01*
G01X0141700Y-097440D02*
G01X0141682Y-097459D01*
G01X0141682Y-097459D02*
G01X0141663Y-097469D01*
G01X0141963Y-097609D02*
G01X0141851Y-097609D01*
G01X0141907Y-097609D02*
G01X0141907Y-097412D01*
G01X0141907Y-097412D02*
G01X0141888Y-097440D01*
G01X0141888Y-097440D02*
G01X0141869Y-097459D01*
G01X0141869Y-097459D02*
G01X0141851Y-097469D01*
G01X0136830Y-097906D02*
G01X0136840Y-097916D01*
G01X0136840Y-097916D02*
G01X0136849Y-097944D01*
G01X0136849Y-097944D02*
G01X0136849Y-097962D01*
G01X0136849Y-097962D02*
G01X0136840Y-097991D01*
G01X0136840Y-097991D02*
G01X0136821Y-098009D01*
G01X0136821Y-098009D02*
G01X0136802Y-098019D01*
G01X0136802Y-098019D02*
G01X0136765Y-098028D01*
G01X0136765Y-098028D02*
G01X0136737Y-098028D01*
G01X0136737Y-098028D02*
G01X0136699Y-098019D01*
G01X0136699Y-098019D02*
G01X0136680Y-098009D01*
G01X0136680Y-098009D02*
G01X0136662Y-097991D01*
G01X0136662Y-097991D02*
G01X0136652Y-097962D01*
G01X0136652Y-097962D02*
G01X0136652Y-097944D01*
G01X0136652Y-097944D02*
G01X0136662Y-097916D01*
G01X0136662Y-097916D02*
G01X0136671Y-097906D01*
G01X0136849Y-097719D02*
G01X0136849Y-097831D01*
G01X0136849Y-097775D02*
G01X0136652Y-097775D01*
G01X0136652Y-097775D02*
G01X0136680Y-097794D01*
G01X0136680Y-097794D02*
G01X0136699Y-097812D01*
G01X0136699Y-097812D02*
G01X0136709Y-097831D01*
G01X0136652Y-097597D02*
G01X0136652Y-097578D01*
G01X0136652Y-097578D02*
G01X0136662Y-097559D01*
G01X0136662Y-097559D02*
G01X0136671Y-097550D01*
G01X0136671Y-097550D02*
G01X0136690Y-097540D01*
G01X0136690Y-097540D02*
G01X0136727Y-097531D01*
G01X0136727Y-097531D02*
G01X0136774Y-097531D01*
G01X0136774Y-097531D02*
G01X0136812Y-097540D01*
G01X0136812Y-097540D02*
G01X0136830Y-097550D01*
G01X0136830Y-097550D02*
G01X0136840Y-097559D01*
G01X0136840Y-097559D02*
G01X0136849Y-097578D01*
G01X0136849Y-097578D02*
G01X0136849Y-097597D01*
G01X0136849Y-097597D02*
G01X0136840Y-097615D01*
G01X0136840Y-097615D02*
G01X0136830Y-097625D01*
G01X0136830Y-097625D02*
G01X0136812Y-097634D01*
G01X0136812Y-097634D02*
G01X0136774Y-097643D01*
G01X0136774Y-097643D02*
G01X0136727Y-097643D01*
G01X0136727Y-097643D02*
G01X0136690Y-097634D01*
G01X0136690Y-097634D02*
G01X0136671Y-097625D01*
G01X0136671Y-097625D02*
G01X0136662Y-097615D01*
G01X0136662Y-097615D02*
G01X0136652Y-097597D01*
G54D21*
G01X0138400Y-093767D02*
G01X0138628Y-093767D01*
G01X0138514Y-094367D02*
G01X0138514Y-093767D01*
G01X0138971Y-094367D02*
G01X0138743Y-094367D01*
G01X0138857Y-094367D02*
G01X0138857Y-093767D01*
G01X0138857Y-093767D02*
G01X0138819Y-093853D01*
G01X0138819Y-093853D02*
G01X0138781Y-093910D01*
G01X0138781Y-093910D02*
G01X0138743Y-093939D01*
G54D37*
G01X0134310Y-099022D02*
G01X0134320Y-099032D01*
G01X0134320Y-099032D02*
G01X0134329Y-099060D01*
G01X0134329Y-099060D02*
G01X0134329Y-099079D01*
G01X0134329Y-099079D02*
G01X0134320Y-099107D01*
G01X0134320Y-099107D02*
G01X0134301Y-099126D01*
G01X0134301Y-099126D02*
G01X0134282Y-099135D01*
G01X0134282Y-099135D02*
G01X0134245Y-099144D01*
G01X0134245Y-099144D02*
G01X0134217Y-099144D01*
G01X0134217Y-099144D02*
G01X0134179Y-099135D01*
G01X0134179Y-099135D02*
G01X0134160Y-099126D01*
G01X0134160Y-099126D02*
G01X0134142Y-099107D01*
G01X0134142Y-099107D02*
G01X0134132Y-099079D01*
G01X0134132Y-099079D02*
G01X0134132Y-099060D01*
G01X0134132Y-099060D02*
G01X0134142Y-099032D01*
G01X0134142Y-099032D02*
G01X0134151Y-099022D01*
G01X0134132Y-098957D02*
G01X0134132Y-098825D01*
G01X0134132Y-098825D02*
G01X0134329Y-098910D01*
G01X0144432Y-095538D02*
G01X0144422Y-095548D01*
G01X0144422Y-095548D02*
G01X0144394Y-095557D01*
G01X0144394Y-095557D02*
G01X0144376Y-095557D01*
G01X0144376Y-095557D02*
G01X0144347Y-095548D01*
G01X0144347Y-095548D02*
G01X0144329Y-095529D01*
G01X0144329Y-095529D02*
G01X0144319Y-095510D01*
G01X0144319Y-095510D02*
G01X0144310Y-095473D01*
G01X0144310Y-095473D02*
G01X0144310Y-095445D01*
G01X0144310Y-095445D02*
G01X0144319Y-095407D01*
G01X0144319Y-095407D02*
G01X0144329Y-095388D01*
G01X0144329Y-095388D02*
G01X0144347Y-095370D01*
G01X0144347Y-095370D02*
G01X0144376Y-095360D01*
G01X0144376Y-095360D02*
G01X0144394Y-095360D01*
G01X0144394Y-095360D02*
G01X0144422Y-095370D01*
G01X0144422Y-095370D02*
G01X0144432Y-095379D01*
G01X0144619Y-095557D02*
G01X0144507Y-095557D01*
G01X0144563Y-095557D02*
G01X0144563Y-095360D01*
G01X0144563Y-095360D02*
G01X0144544Y-095388D01*
G01X0144544Y-095388D02*
G01X0144526Y-095407D01*
G01X0144526Y-095407D02*
G01X0144507Y-095417D01*
G01X0144685Y-095360D02*
G01X0144807Y-095360D01*
G01X0144807Y-095360D02*
G01X0144741Y-095435D01*
G01X0144741Y-095435D02*
G01X0144770Y-095435D01*
G01X0144770Y-095435D02*
G01X0144788Y-095445D01*
G01X0144788Y-095445D02*
G01X0144798Y-095454D01*
G01X0144798Y-095454D02*
G01X0144807Y-095473D01*
G01X0144807Y-095473D02*
G01X0144807Y-095520D01*
G01X0144807Y-095520D02*
G01X0144798Y-095538D01*
G01X0144798Y-095538D02*
G01X0144788Y-095548D01*
G01X0144788Y-095548D02*
G01X0144770Y-095557D01*
G01X0144770Y-095557D02*
G01X0144713Y-095557D01*
G01X0144713Y-095557D02*
G01X0144695Y-095548D01*
G01X0144695Y-095548D02*
G01X0144685Y-095538D01*
G54D38*
G01X0138049Y-098950D02*
G01X0138180Y-099344D01*
G01X0138180Y-099344D02*
G01X0138311Y-098950D01*
G01X0138668Y-099344D02*
G01X0138536Y-099156D01*
G01X0138443Y-099344D02*
G01X0138443Y-098950D01*
G01X0138443Y-098950D02*
G01X0138593Y-098950D01*
G01X0138593Y-098950D02*
G01X0138630Y-098969D01*
G01X0138630Y-098969D02*
G01X0138649Y-098988D01*
G01X0138649Y-098988D02*
G01X0138668Y-099025D01*
G01X0138668Y-099025D02*
G01X0138668Y-099081D01*
G01X0138668Y-099081D02*
G01X0138649Y-099119D01*
G01X0138649Y-099119D02*
G01X0138630Y-099138D01*
G01X0138630Y-099138D02*
G01X0138593Y-099156D01*
G01X0138593Y-099156D02*
G01X0138443Y-099156D01*
G01X0139043Y-099344D02*
G01X0138818Y-099344D01*
G01X0138930Y-099344D02*
G01X0138930Y-098950D01*
G01X0138930Y-098950D02*
G01X0138893Y-099006D01*
G01X0138893Y-099006D02*
G01X0138855Y-099044D01*
G01X0138855Y-099044D02*
G01X0138818Y-099063D01*
G54D36*
G01X0128355Y-091095D02*
G01X0128289Y-091001D01*
G01X0128242Y-091095D02*
G01X0128242Y-090898D01*
G01X0128242Y-090898D02*
G01X0128317Y-090898D01*
G01X0128317Y-090898D02*
G01X0128336Y-090908D01*
G01X0128336Y-090908D02*
G01X0128345Y-090917D01*
G01X0128345Y-090917D02*
G01X0128355Y-090936D01*
G01X0128355Y-090936D02*
G01X0128355Y-090964D01*
G01X0128355Y-090964D02*
G01X0128345Y-090983D01*
G01X0128345Y-090983D02*
G01X0128336Y-090992D01*
G01X0128336Y-090992D02*
G01X0128317Y-091001D01*
G01X0128317Y-091001D02*
G01X0128242Y-091001D01*
G01X0128542Y-091095D02*
G01X0128430Y-091095D01*
G01X0128486Y-091095D02*
G01X0128486Y-090898D01*
G01X0128486Y-090898D02*
G01X0128467Y-090926D01*
G01X0128467Y-090926D02*
G01X0128449Y-090945D01*
G01X0128449Y-090945D02*
G01X0128430Y-090955D01*
G01X0128636Y-091095D02*
G01X0128674Y-091095D01*
G01X0128674Y-091095D02*
G01X0128693Y-091086D01*
G01X0128693Y-091086D02*
G01X0128702Y-091076D01*
G01X0128702Y-091076D02*
G01X0128721Y-091048D01*
G01X0128721Y-091048D02*
G01X0128730Y-091011D01*
G01X0128730Y-091011D02*
G01X0128730Y-090936D01*
G01X0128730Y-090936D02*
G01X0128721Y-090917D01*
G01X0128721Y-090917D02*
G01X0128711Y-090908D01*
G01X0128711Y-090908D02*
G01X0128693Y-090898D01*
G01X0128693Y-090898D02*
G01X0128655Y-090898D01*
G01X0128655Y-090898D02*
G01X0128636Y-090908D01*
G01X0128636Y-090908D02*
G01X0128627Y-090917D01*
G01X0128627Y-090917D02*
G01X0128618Y-090936D01*
G01X0128618Y-090936D02*
G01X0128618Y-090983D01*
G01X0128618Y-090983D02*
G01X0128627Y-091001D01*
G01X0128627Y-091001D02*
G01X0128636Y-091011D01*
G01X0128636Y-091011D02*
G01X0128655Y-091020D01*
G01X0128655Y-091020D02*
G01X0128693Y-091020D01*
G01X0128693Y-091020D02*
G01X0128711Y-091011D01*
G01X0128711Y-091011D02*
G01X0128721Y-091001D01*
G01X0128721Y-091001D02*
G01X0128730Y-090983D01*
G01X0128196Y-091835D02*
G01X0128196Y-091816D01*
G01X0128196Y-091816D02*
G01X0128206Y-091797D01*
G01X0128206Y-091797D02*
G01X0128215Y-091788D01*
G01X0128215Y-091788D02*
G01X0128234Y-091779D01*
G01X0128234Y-091779D02*
G01X0128271Y-091769D01*
G01X0128271Y-091769D02*
G01X0128318Y-091769D01*
G01X0128318Y-091769D02*
G01X0128356Y-091779D01*
G01X0128356Y-091779D02*
G01X0128374Y-091788D01*
G01X0128374Y-091788D02*
G01X0128384Y-091797D01*
G01X0128384Y-091797D02*
G01X0128393Y-091816D01*
G01X0128393Y-091816D02*
G01X0128393Y-091835D01*
G01X0128393Y-091835D02*
G01X0128384Y-091854D01*
G01X0128384Y-091854D02*
G01X0128374Y-091863D01*
G01X0128374Y-091863D02*
G01X0128356Y-091872D01*
G01X0128356Y-091872D02*
G01X0128318Y-091882D01*
G01X0128318Y-091882D02*
G01X0128271Y-091882D01*
G01X0128271Y-091882D02*
G01X0128234Y-091872D01*
G01X0128234Y-091872D02*
G01X0128215Y-091863D01*
G01X0128215Y-091863D02*
G01X0128206Y-091854D01*
G01X0128206Y-091854D02*
G01X0128196Y-091835D01*
G01X0128433Y-094123D02*
G01X0128367Y-094029D01*
G01X0128320Y-094123D02*
G01X0128320Y-093926D01*
G01X0128320Y-093926D02*
G01X0128395Y-093926D01*
G01X0128395Y-093926D02*
G01X0128414Y-093936D01*
G01X0128414Y-093936D02*
G01X0128423Y-093945D01*
G01X0128423Y-093945D02*
G01X0128433Y-093964D01*
G01X0128433Y-093964D02*
G01X0128433Y-093992D01*
G01X0128433Y-093992D02*
G01X0128423Y-094011D01*
G01X0128423Y-094011D02*
G01X0128414Y-094020D01*
G01X0128414Y-094020D02*
G01X0128395Y-094029D01*
G01X0128395Y-094029D02*
G01X0128320Y-094029D01*
G01X0128545Y-094011D02*
G01X0128526Y-094001D01*
G01X0128526Y-094001D02*
G01X0128517Y-093992D01*
G01X0128517Y-093992D02*
G01X0128508Y-093973D01*
G01X0128508Y-093973D02*
G01X0128508Y-093964D01*
G01X0128508Y-093964D02*
G01X0128517Y-093945D01*
G01X0128517Y-093945D02*
G01X0128526Y-093936D01*
G01X0128526Y-093936D02*
G01X0128545Y-093926D01*
G01X0128545Y-093926D02*
G01X0128583Y-093926D01*
G01X0128583Y-093926D02*
G01X0128602Y-093936D01*
G01X0128602Y-093936D02*
G01X0128611Y-093945D01*
G01X0128611Y-093945D02*
G01X0128620Y-093964D01*
G01X0128620Y-093964D02*
G01X0128620Y-093973D01*
G01X0128620Y-093973D02*
G01X0128611Y-093992D01*
G01X0128611Y-093992D02*
G01X0128602Y-094001D01*
G01X0128602Y-094001D02*
G01X0128583Y-094011D01*
G01X0128583Y-094011D02*
G01X0128545Y-094011D01*
G01X0128545Y-094011D02*
G01X0128526Y-094020D01*
G01X0128526Y-094020D02*
G01X0128517Y-094029D01*
G01X0128517Y-094029D02*
G01X0128508Y-094048D01*
G01X0128508Y-094048D02*
G01X0128508Y-094086D01*
G01X0128508Y-094086D02*
G01X0128517Y-094104D01*
G01X0128517Y-094104D02*
G01X0128526Y-094114D01*
G01X0128526Y-094114D02*
G01X0128545Y-094123D01*
G01X0128545Y-094123D02*
G01X0128583Y-094123D01*
G01X0128583Y-094123D02*
G01X0128602Y-094114D01*
G01X0128602Y-094114D02*
G01X0128611Y-094104D01*
G01X0128611Y-094104D02*
G01X0128620Y-094086D01*
G01X0128620Y-094086D02*
G01X0128620Y-094048D01*
G01X0128620Y-094048D02*
G01X0128611Y-094029D01*
G01X0128611Y-094029D02*
G01X0128602Y-094020D01*
G01X0128602Y-094020D02*
G01X0128583Y-094011D01*
G01X0128490Y-093259D02*
G01X0128490Y-093240D01*
G01X0128490Y-093240D02*
G01X0128500Y-093221D01*
G01X0128500Y-093221D02*
G01X0128509Y-093212D01*
G01X0128509Y-093212D02*
G01X0128528Y-093203D01*
G01X0128528Y-093203D02*
G01X0128565Y-093193D01*
G01X0128565Y-093193D02*
G01X0128612Y-093193D01*
G01X0128612Y-093193D02*
G01X0128650Y-093203D01*
G01X0128650Y-093203D02*
G01X0128668Y-093212D01*
G01X0128668Y-093212D02*
G01X0128678Y-093221D01*
G01X0128678Y-093221D02*
G01X0128687Y-093240D01*
G01X0128687Y-093240D02*
G01X0128687Y-093259D01*
G01X0128687Y-093259D02*
G01X0128678Y-093278D01*
G01X0128678Y-093278D02*
G01X0128668Y-093287D01*
G01X0128668Y-093287D02*
G01X0128650Y-093296D01*
G01X0128650Y-093296D02*
G01X0128612Y-093306D01*
G01X0128612Y-093306D02*
G01X0128565Y-093306D01*
G01X0128565Y-093306D02*
G01X0128528Y-093296D01*
G01X0128528Y-093296D02*
G01X0128509Y-093287D01*
G01X0128509Y-093287D02*
G01X0128500Y-093278D01*
G01X0128500Y-093278D02*
G01X0128490Y-093259D01*
G54D37*
G01X0132200Y-096501D02*
G01X0132210Y-096511D01*
G01X0132210Y-096511D02*
G01X0132219Y-096539D01*
G01X0132219Y-096539D02*
G01X0132219Y-096557D01*
G01X0132219Y-096557D02*
G01X0132210Y-096586D01*
G01X0132210Y-096586D02*
G01X0132191Y-096604D01*
G01X0132191Y-096604D02*
G01X0132172Y-096614D01*
G01X0132172Y-096614D02*
G01X0132135Y-096623D01*
G01X0132135Y-096623D02*
G01X0132107Y-096623D01*
G01X0132107Y-096623D02*
G01X0132069Y-096614D01*
G01X0132069Y-096614D02*
G01X0132050Y-096604D01*
G01X0132050Y-096604D02*
G01X0132032Y-096586D01*
G01X0132032Y-096586D02*
G01X0132022Y-096557D01*
G01X0132022Y-096557D02*
G01X0132022Y-096539D01*
G01X0132022Y-096539D02*
G01X0132032Y-096511D01*
G01X0132032Y-096511D02*
G01X0132041Y-096501D01*
G01X0132219Y-096314D02*
G01X0132219Y-096426D01*
G01X0132219Y-096370D02*
G01X0132022Y-096370D01*
G01X0132022Y-096370D02*
G01X0132050Y-096389D01*
G01X0132050Y-096389D02*
G01X0132069Y-096407D01*
G01X0132069Y-096407D02*
G01X0132079Y-096426D01*
G01X0132107Y-096201D02*
G01X0132097Y-096220D01*
G01X0132097Y-096220D02*
G01X0132088Y-096229D01*
G01X0132088Y-096229D02*
G01X0132069Y-096238D01*
G01X0132069Y-096238D02*
G01X0132060Y-096238D01*
G01X0132060Y-096238D02*
G01X0132041Y-096229D01*
G01X0132041Y-096229D02*
G01X0132032Y-096220D01*
G01X0132032Y-096220D02*
G01X0132022Y-096201D01*
G01X0132022Y-096201D02*
G01X0132022Y-096163D01*
G01X0132022Y-096163D02*
G01X0132032Y-096145D01*
G01X0132032Y-096145D02*
G01X0132041Y-096135D01*
G01X0132041Y-096135D02*
G01X0132060Y-096126D01*
G01X0132060Y-096126D02*
G01X0132069Y-096126D01*
G01X0132069Y-096126D02*
G01X0132088Y-096135D01*
G01X0132088Y-096135D02*
G01X0132097Y-096145D01*
G01X0132097Y-096145D02*
G01X0132107Y-096163D01*
G01X0132107Y-096163D02*
G01X0132107Y-096201D01*
G01X0132107Y-096201D02*
G01X0132116Y-096220D01*
G01X0132116Y-096220D02*
G01X0132125Y-096229D01*
G01X0132125Y-096229D02*
G01X0132144Y-096238D01*
G01X0132144Y-096238D02*
G01X0132182Y-096238D01*
G01X0132182Y-096238D02*
G01X0132200Y-096229D01*
G01X0132200Y-096229D02*
G01X0132210Y-096220D01*
G01X0132210Y-096220D02*
G01X0132219Y-096201D01*
G01X0132219Y-096201D02*
G01X0132219Y-096163D01*
G01X0132219Y-096163D02*
G01X0132210Y-096145D01*
G01X0132210Y-096145D02*
G01X0132200Y-096135D01*
G01X0132200Y-096135D02*
G01X0132182Y-096126D01*
G01X0132182Y-096126D02*
G01X0132144Y-096126D01*
G01X0132144Y-096126D02*
G01X0132125Y-096135D01*
G01X0132125Y-096135D02*
G01X0132116Y-096145D01*
G01X0132116Y-096145D02*
G01X0132107Y-096163D01*
G54D36*
G01X0129468Y-098639D02*
G01X0129402Y-098545D01*
G01X0129355Y-098639D02*
G01X0129355Y-098442D01*
G01X0129355Y-098442D02*
G01X0129430Y-098442D01*
G01X0129430Y-098442D02*
G01X0129449Y-098452D01*
G01X0129449Y-098452D02*
G01X0129458Y-098461D01*
G01X0129458Y-098461D02*
G01X0129468Y-098480D01*
G01X0129468Y-098480D02*
G01X0129468Y-098508D01*
G01X0129468Y-098508D02*
G01X0129458Y-098527D01*
G01X0129458Y-098527D02*
G01X0129449Y-098536D01*
G01X0129449Y-098536D02*
G01X0129430Y-098545D01*
G01X0129430Y-098545D02*
G01X0129355Y-098545D01*
G01X0129543Y-098461D02*
G01X0129552Y-098452D01*
G01X0129552Y-098452D02*
G01X0129571Y-098442D01*
G01X0129571Y-098442D02*
G01X0129618Y-098442D01*
G01X0129618Y-098442D02*
G01X0129637Y-098452D01*
G01X0129637Y-098452D02*
G01X0129646Y-098461D01*
G01X0129646Y-098461D02*
G01X0129655Y-098480D01*
G01X0129655Y-098480D02*
G01X0129655Y-098499D01*
G01X0129655Y-098499D02*
G01X0129646Y-098527D01*
G01X0129646Y-098527D02*
G01X0129534Y-098639D01*
G01X0129534Y-098639D02*
G01X0129655Y-098639D01*
G01X0129777Y-098442D02*
G01X0129796Y-098442D01*
G01X0129796Y-098442D02*
G01X0129815Y-098452D01*
G01X0129815Y-098452D02*
G01X0129824Y-098461D01*
G01X0129824Y-098461D02*
G01X0129834Y-098480D01*
G01X0129834Y-098480D02*
G01X0129843Y-098517D01*
G01X0129843Y-098517D02*
G01X0129843Y-098564D01*
G01X0129843Y-098564D02*
G01X0129834Y-098602D01*
G01X0129834Y-098602D02*
G01X0129824Y-098620D01*
G01X0129824Y-098620D02*
G01X0129815Y-098630D01*
G01X0129815Y-098630D02*
G01X0129796Y-098639D01*
G01X0129796Y-098639D02*
G01X0129777Y-098639D01*
G01X0129777Y-098639D02*
G01X0129759Y-098630D01*
G01X0129759Y-098630D02*
G01X0129749Y-098620D01*
G01X0129749Y-098620D02*
G01X0129740Y-098602D01*
G01X0129740Y-098602D02*
G01X0129731Y-098564D01*
G01X0129731Y-098564D02*
G01X0129731Y-098517D01*
G01X0129731Y-098517D02*
G01X0129740Y-098480D01*
G01X0129740Y-098480D02*
G01X0129749Y-098461D01*
G01X0129749Y-098461D02*
G01X0129759Y-098452D01*
G01X0129759Y-098452D02*
G01X0129777Y-098442D01*
G54D23*
G01X0122561Y-099150D02*
G01X0122161Y-099150D01*
G01X0122161Y-099150D02*
G01X0122161Y-098997D01*
G01X0122161Y-098997D02*
G01X0122180Y-098959D01*
G01X0122180Y-098959D02*
G01X0122200Y-098940D01*
G01X0122200Y-098940D02*
G01X0122238Y-098921D01*
G01X0122238Y-098921D02*
G01X0122295Y-098921D01*
G01X0122295Y-098921D02*
G01X0122333Y-098940D01*
G01X0122333Y-098940D02*
G01X0122352Y-098959D01*
G01X0122352Y-098959D02*
G01X0122371Y-098997D01*
G01X0122371Y-098997D02*
G01X0122371Y-099150D01*
G01X0122161Y-098788D02*
G01X0122161Y-098521D01*
G01X0122161Y-098521D02*
G01X0122561Y-098693D01*
G54D19*
G01X0126121Y-100049D02*
G01X0125821Y-100049D01*
G01X0125821Y-100049D02*
G01X0125821Y-099977D01*
G01X0125821Y-099977D02*
G01X0125835Y-099935D01*
G01X0125835Y-099935D02*
G01X0125864Y-099906D01*
G01X0125864Y-099906D02*
G01X0125892Y-099892D01*
G01X0125892Y-099892D02*
G01X0125950Y-099877D01*
G01X0125950Y-099877D02*
G01X0125992Y-099877D01*
G01X0125992Y-099877D02*
G01X0126050Y-099892D01*
G01X0126050Y-099892D02*
G01X0126078Y-099906D01*
G01X0126078Y-099906D02*
G01X0126107Y-099935D01*
G01X0126107Y-099935D02*
G01X0126121Y-099977D01*
G01X0126121Y-099977D02*
G01X0126121Y-100049D01*
G01X0126121Y-099592D02*
G01X0126121Y-099763D01*
G01X0126121Y-099677D02*
G01X0125821Y-099677D01*
G01X0125821Y-099677D02*
G01X0125864Y-099706D01*
G01X0125864Y-099706D02*
G01X0125892Y-099735D01*
G01X0125892Y-099735D02*
G01X0125907Y-099763D01*
G01X0125821Y-099406D02*
G01X0125821Y-099377D01*
G01X0125821Y-099377D02*
G01X0125835Y-099349D01*
G01X0125835Y-099349D02*
G01X0125850Y-099335D01*
G01X0125850Y-099335D02*
G01X0125878Y-099320D01*
G01X0125878Y-099320D02*
G01X0125935Y-099306D01*
G01X0125935Y-099306D02*
G01X0126007Y-099306D01*
G01X0126007Y-099306D02*
G01X0126064Y-099320D01*
G01X0126064Y-099320D02*
G01X0126092Y-099335D01*
G01X0126092Y-099335D02*
G01X0126107Y-099349D01*
G01X0126107Y-099349D02*
G01X0126121Y-099377D01*
G01X0126121Y-099377D02*
G01X0126121Y-099406D01*
G01X0126121Y-099406D02*
G01X0126107Y-099435D01*
G01X0126107Y-099435D02*
G01X0126092Y-099449D01*
G01X0126092Y-099449D02*
G01X0126064Y-099463D01*
G01X0126064Y-099463D02*
G01X0126007Y-099477D01*
G01X0126007Y-099477D02*
G01X0125935Y-099477D01*
G01X0125935Y-099477D02*
G01X0125878Y-099463D01*
G01X0125878Y-099463D02*
G01X0125850Y-099449D01*
G01X0125850Y-099449D02*
G01X0125835Y-099435D01*
G01X0125835Y-099435D02*
G01X0125821Y-099406D01*
G54D25*
G01X0125529Y-098851D02*
G01X0125332Y-098851D01*
G01X0125529Y-098739D02*
G01X0125417Y-098823D01*
G01X0125332Y-098739D02*
G01X0125445Y-098851D01*
G54D19*
G01X0123736Y-100049D02*
G01X0123436Y-100049D01*
G01X0123436Y-100049D02*
G01X0123436Y-099977D01*
G01X0123436Y-099977D02*
G01X0123450Y-099935D01*
G01X0123450Y-099935D02*
G01X0123479Y-099906D01*
G01X0123479Y-099906D02*
G01X0123507Y-099892D01*
G01X0123507Y-099892D02*
G01X0123565Y-099877D01*
G01X0123565Y-099877D02*
G01X0123607Y-099877D01*
G01X0123607Y-099877D02*
G01X0123665Y-099892D01*
G01X0123665Y-099892D02*
G01X0123693Y-099906D01*
G01X0123693Y-099906D02*
G01X0123722Y-099935D01*
G01X0123722Y-099935D02*
G01X0123736Y-099977D01*
G01X0123736Y-099977D02*
G01X0123736Y-100049D01*
G01X0123736Y-099592D02*
G01X0123736Y-099763D01*
G01X0123736Y-099677D02*
G01X0123436Y-099677D01*
G01X0123436Y-099677D02*
G01X0123479Y-099706D01*
G01X0123479Y-099706D02*
G01X0123507Y-099735D01*
G01X0123507Y-099735D02*
G01X0123522Y-099763D01*
G01X0123736Y-099306D02*
G01X0123736Y-099477D01*
G01X0123736Y-099392D02*
G01X0123436Y-099392D01*
G01X0123436Y-099392D02*
G01X0123479Y-099420D01*
G01X0123479Y-099420D02*
G01X0123507Y-099449D01*
G01X0123507Y-099449D02*
G01X0123522Y-099477D01*
G54D25*
G01X0124329Y-098851D02*
G01X0124132Y-098851D01*
G01X0124329Y-098739D02*
G01X0124217Y-098823D01*
G01X0124132Y-098739D02*
G01X0124245Y-098851D01*
G54D28*
G01X0119209Y-099761D02*
G01X0119590Y-099761D01*
G01X0119400Y-099952D02*
G01X0119400Y-099571D01*
G01X0119259Y-101761D02*
G01X0119640Y-101761D01*
G01X0119450Y-101952D02*
G01X0119450Y-101571D01*
G54D18*
G01X0137320Y-091547D02*
G01X0137034Y-091547D01*
G01X0137034Y-091547D02*
G01X0137034Y-090947D01*
G01X0137834Y-091547D02*
G01X0137491Y-091547D01*
G01X0137662Y-091547D02*
G01X0137662Y-090947D01*
G01X0137662Y-090947D02*
G01X0137605Y-091033D01*
G01X0137605Y-091033D02*
G01X0137548Y-091090D01*
G01X0137548Y-091090D02*
G01X0137491Y-091119D01*
M02*
